<svg width="218px" height="109px" viewBox="0 0 218px 109px" xmlns="http://www.w3.org/2000/svg" xmlns:xlink="http://www.w3.org/1999/xlink" xml:space="preserve" version="1.1"  baseProfile="full">
<line x1="1" y1="1" x2="217" y2="1" style="stroke:#ddd;stroke-width:2" />
<line x1="1" y1="1" x2="1" y2="108" style="stroke:#ddd;stroke-width:2" />
<line x1="1" y1="108" x2="217" y2="108" style="stroke:#ddd;stroke-width:2" />
<line x1="217" y1="1" x2="217" y2="108" style="stroke:#ddd;stroke-width:2" />
<line x1="109" y1="1" x2="109" y2="108" style="stroke:#ddd;stroke-width:2" />
<line x1="1" y1="54" x2="217" y2="54" style="stroke:#ddd;stroke-width:2;stroke-dasharray:3 3" />
<line x1="55" y1="1" x2="55" y2="108" style="stroke:#ddd;stroke-width:2;stroke-dasharray:3 3" />
<line x1="164" y1="1" x2="164" y2="108" style="stroke:#ddd;stroke-width:2;stroke-dasharray:3 3" />
<path d="M13.72,15.43c0,5.35,0,69.79,0,77.16" style="fill:none;stroke:black;stroke-width:3" />
<circle cx="13.72" cy="15.43" r="5" stroke-width="0" fill="#FF2A00" opacity="0.7" />
<path d="M122.72,15.43c0,5.35,0,69.79,0,77.16" style="fill:none;stroke:#999;stroke-width:3" />
<path d="M122.88,52.69c12.71-24.62,39.76-21.38,39.76-4.52c0,19.22,0,37.48,0,44.42" style="fill:none;stroke:black;stroke-width:3" />
<circle cx="122.88" cy="52.69" r="5" stroke-width="0" fill="#FF2A00" opacity="0.7" />
</svg>