<svg width="327px" height="109px" viewBox="0 0 327px 109px" xmlns="http://www.w3.org/2000/svg" xmlns:xlink="http://www.w3.org/1999/xlink" xml:space="preserve" version="1.1"  baseProfile="full">
<line x1="1" y1="1" x2="326" y2="1" style="stroke:#ddd;stroke-width:2" />
<line x1="1" y1="1" x2="1" y2="108" style="stroke:#ddd;stroke-width:2" />
<line x1="1" y1="108" x2="326" y2="108" style="stroke:#ddd;stroke-width:2" />
<line x1="326" y1="1" x2="326" y2="108" style="stroke:#ddd;stroke-width:2" />
<line x1="109" y1="1" x2="109" y2="108" style="stroke:#ddd;stroke-width:2" />
<line x1="218" y1="1" x2="218" y2="108" style="stroke:#ddd;stroke-width:2" />
<line x1="1" y1="54" x2="326" y2="54" style="stroke:#ddd;stroke-width:2;stroke-dasharray:3 3" />
<line x1="55" y1="1" x2="55" y2="108" style="stroke:#ddd;stroke-width:2;stroke-dasharray:3 3" />
<line x1="164" y1="1" x2="164" y2="108" style="stroke:#ddd;stroke-width:2;stroke-dasharray:3 3" />
<line x1="273" y1="1" x2="273" y2="108" style="stroke:#ddd;stroke-width:2;stroke-dasharray:3 3" />
<path d="M13.72,15.43c0,5.35,0,69.79,0,77.16" style="fill:none;stroke:black;stroke-width:3" />
<circle cx="13.72" cy="15.43" r="5" stroke-width="0" fill="#FF2A00" opacity="0.7" />
<path d="M122.72,15.43c0,5.35,0,69.79,0,77.16" style="fill:none;stroke:#999;stroke-width:3" />
<path d="M162.56,35.29C151.44,43.1,140.18,50.53,126.3,60.07" style="fill:none;stroke:black;stroke-width:3" />
<circle cx="162.56" cy="35.29" r="5" stroke-width="0" fill="#FF2A00" opacity="0.7" />
<path d="M231.72,15.43c0,5.35,0,69.79,0,77.16" style="fill:none;stroke:#999;stroke-width:3" />
<path d="M271.56,35.29C260.44,43.1,249.18,50.53,235.3,60.07" style="fill:none;stroke:#999;stroke-width:3" />
<path d="M235.73,60.29c8.81,7.23,30.81,25.71,38.61,32.36" style="fill:none;stroke:black;stroke-width:3" />
<circle cx="235.73" cy="60.29" r="5" stroke-width="0" fill="#FF2A00" opacity="0.7" />
</svg>