<svg width="436px" height="109px" viewBox="0 0 436px 109px" xmlns="http://www.w3.org/2000/svg" xmlns:xlink="http://www.w3.org/1999/xlink" xml:space="preserve" version="1.1"  baseProfile="full">
<line x1="1" y1="1" x2="435" y2="1" style="stroke:#ddd;stroke-width:2" />
<line x1="1" y1="1" x2="1" y2="108" style="stroke:#ddd;stroke-width:2" />
<line x1="1" y1="108" x2="435" y2="108" style="stroke:#ddd;stroke-width:2" />
<line x1="435" y1="1" x2="435" y2="108" style="stroke:#ddd;stroke-width:2" />
<line x1="109" y1="1" x2="109" y2="108" style="stroke:#ddd;stroke-width:2" />
<line x1="218" y1="1" x2="218" y2="108" style="stroke:#ddd;stroke-width:2" />
<line x1="327" y1="1" x2="327" y2="108" style="stroke:#ddd;stroke-width:2" />
<line x1="1" y1="54" x2="435" y2="54" style="stroke:#ddd;stroke-width:2;stroke-dasharray:3 3" />
<line x1="55" y1="1" x2="55" y2="108" style="stroke:#ddd;stroke-width:2;stroke-dasharray:3 3" />
<line x1="164" y1="1" x2="164" y2="108" style="stroke:#ddd;stroke-width:2;stroke-dasharray:3 3" />
<line x1="273" y1="1" x2="273" y2="108" style="stroke:#ddd;stroke-width:2;stroke-dasharray:3 3" />
<line x1="382" y1="1" x2="382" y2="108" style="stroke:#ddd;stroke-width:2;stroke-dasharray:3 3" />
<path d="M8.25,35.26c5.6,16.59,16.23,50.08,18.67,57.25" style="fill:none;stroke:black;stroke-width:3" />
<circle cx="8.25" cy="35.26" r="5" stroke-width="0" fill="#FF2A00" opacity="0.7" />
<path d="M117.25,35.26c5.6,16.59,16.23,50.08,18.67,57.25" style="fill:none;stroke:#999;stroke-width:3" />
<path d="M155.81,35.5c-3.77,11.36-16.13,48.08-19.24,57.06" style="fill:none;stroke:black;stroke-width:3" />
<circle cx="155.81" cy="35.5" r="5" stroke-width="0" fill="#FF2A00" opacity="0.7" />
<path d="M226.25,35.26c5.6,16.59,16.23,50.08,18.67,57.25" style="fill:none;stroke:#999;stroke-width:3" />
<path d="M264.81,35.5c-3.77,11.36-16.13,48.08-19.24,57.06" style="fill:none;stroke:#999;stroke-width:3" />
<path d="M265.83,35.42c5.6,16.59,16.73,50.08,19.17,57.25" style="fill:none;stroke:black;stroke-width:3" />
<circle cx="265.83" cy="35.42" r="5" stroke-width="0" fill="#FF2A00" opacity="0.7" />
<path d="M335.25,35.26c5.6,16.59,16.23,50.08,18.67,57.25" style="fill:none;stroke:#999;stroke-width:3" />
<path d="M373.81,35.5c-3.77,11.36-16.13,48.08-19.24,57.06" style="fill:none;stroke:#999;stroke-width:3" />
<path d="M374.83,35.42c5.6,16.59,16.73,50.08,19.17,57.25" style="fill:none;stroke:#999;stroke-width:3" />
<path d="M413.4,35.66c-3.77,11.36-15.63,48.08-18.74,57.06" style="fill:none;stroke:black;stroke-width:3" />
<circle cx="413.4" cy="35.66" r="5" stroke-width="0" fill="#FF2A00" opacity="0.7" />
</svg>