<svg width="218px" height="109px" viewBox="0 0 218px 109px" xmlns="http://www.w3.org/2000/svg" xmlns:xlink="http://www.w3.org/1999/xlink" xml:space="preserve" version="1.1"  baseProfile="full">
<line x1="1" y1="1" x2="217" y2="1" style="stroke:#ddd;stroke-width:2" />
<line x1="1" y1="1" x2="1" y2="108" style="stroke:#ddd;stroke-width:2" />
<line x1="1" y1="108" x2="217" y2="108" style="stroke:#ddd;stroke-width:2" />
<line x1="217" y1="1" x2="217" y2="108" style="stroke:#ddd;stroke-width:2" />
<line x1="109" y1="1" x2="109" y2="108" style="stroke:#ddd;stroke-width:2" />
<line x1="1" y1="54" x2="217" y2="54" style="stroke:#ddd;stroke-width:2;stroke-dasharray:3 3" />
<line x1="55" y1="1" x2="55" y2="108" style="stroke:#ddd;stroke-width:2;stroke-dasharray:3 3" />
<line x1="164" y1="1" x2="164" y2="108" style="stroke:#ddd;stroke-width:2;stroke-dasharray:3 3" />
<path d="M10.65,35.01C24.56,51.7,52.19,85.4,58.24,92.62" style="fill:none;stroke:black;stroke-width:3" />
<circle cx="10.65" cy="35.01" r="5" stroke-width="0" fill="#FF2A00" opacity="0.7" />
<path d="M119.65,35.01C133.56,51.7,161.19,85.4,167.24,92.62" style="fill:none;stroke:#999;stroke-width:3" />
<path d="M165.11,35.26C155.85,46.62,125.44,83.35,117.8,92.33" style="fill:none;stroke:black;stroke-width:3" />
<circle cx="165.11" cy="35.26" r="5" stroke-width="0" fill="#FF2A00" opacity="0.7" />
</svg>