<svg width="327px" height="109px" viewBox="0 0 327px 109px" xmlns="http://www.w3.org/2000/svg" xmlns:xlink="http://www.w3.org/1999/xlink" xml:space="preserve" version="1.1"  baseProfile="full">
<line x1="1" y1="1" x2="326" y2="1" style="stroke:#ddd;stroke-width:2" />
<line x1="1" y1="1" x2="1" y2="108" style="stroke:#ddd;stroke-width:2" />
<line x1="1" y1="108" x2="326" y2="108" style="stroke:#ddd;stroke-width:2" />
<line x1="326" y1="1" x2="326" y2="108" style="stroke:#ddd;stroke-width:2" />
<line x1="109" y1="1" x2="109" y2="108" style="stroke:#ddd;stroke-width:2" />
<line x1="218" y1="1" x2="218" y2="108" style="stroke:#ddd;stroke-width:2" />
<line x1="1" y1="54" x2="326" y2="54" style="stroke:#ddd;stroke-width:2;stroke-dasharray:3 3" />
<line x1="55" y1="1" x2="55" y2="108" style="stroke:#ddd;stroke-width:2;stroke-dasharray:3 3" />
<line x1="164" y1="1" x2="164" y2="108" style="stroke:#ddd;stroke-width:2;stroke-dasharray:3 3" />
<line x1="273" y1="1" x2="273" y2="108" style="stroke:#ddd;stroke-width:2;stroke-dasharray:3 3" />
<path d="M10.69,36.74c5.62,0,41.16,0,45.26,0" style="fill:none;stroke:black;stroke-width:3" />
<circle cx="10.69" cy="36.74" r="5" stroke-width="0" fill="#FF2A00" opacity="0.7" />
<path d="M119.69,36.74c5.62,0,41.16,0,45.26,0" style="fill:none;stroke:#999;stroke-width:3" />
<path d="M164.85,36.96C155.37,47.68,124.27,82.33,116.46,90.8" style="fill:none;stroke:black;stroke-width:3" />
<circle cx="164.85" cy="36.96" r="5" stroke-width="0" fill="#FF2A00" opacity="0.7" />
<path d="M228.69,36.74c5.62,0,41.16,0,45.26,0" style="fill:none;stroke:#999;stroke-width:3" />
<path d="M273.85,36.96C264.37,47.68,233.26999999999998,82.33,225.45999999999998,90.8" style="fill:none;stroke:#999;stroke-width:3" />
<path d="M225.81,90.79c5.62,0,46.26,0,50.36,0" style="fill:none;stroke:black;stroke-width:3" />
<circle cx="225.81" cy="90.79" r="5" stroke-width="0" fill="#FF2A00" opacity="0.7" />
</svg>