<svg width="327px" height="109px" viewBox="0 0 327px 109px" xmlns="http://www.w3.org/2000/svg" xmlns:xlink="http://www.w3.org/1999/xlink" xml:space="preserve" version="1.1"  baseProfile="full">
<line x1="1" y1="1" x2="326" y2="1" style="stroke:#ddd;stroke-width:2" />
<line x1="1" y1="1" x2="1" y2="108" style="stroke:#ddd;stroke-width:2" />
<line x1="1" y1="108" x2="326" y2="108" style="stroke:#ddd;stroke-width:2" />
<line x1="326" y1="1" x2="326" y2="108" style="stroke:#ddd;stroke-width:2" />
<line x1="109" y1="1" x2="109" y2="108" style="stroke:#ddd;stroke-width:2" />
<line x1="218" y1="1" x2="218" y2="108" style="stroke:#ddd;stroke-width:2" />
<line x1="1" y1="54" x2="326" y2="54" style="stroke:#ddd;stroke-width:2;stroke-dasharray:3 3" />
<line x1="55" y1="1" x2="55" y2="108" style="stroke:#ddd;stroke-width:2;stroke-dasharray:3 3" />
<line x1="164" y1="1" x2="164" y2="108" style="stroke:#ddd;stroke-width:2;stroke-dasharray:3 3" />
<line x1="273" y1="1" x2="273" y2="108" style="stroke:#ddd;stroke-width:2;stroke-dasharray:3 3" />
<path d="M13.0,33c0.88,0.88,2.75,1.82,5.25,1.75c8.62-0.25,20-2.12,29.5-4.25c1.51-0.34,4.62-0.88,6.62-0.5" style="fill:none;stroke:black;stroke-width:3" />
<circle cx="13.0" cy="33.0" r="5" stroke-width="0" fill="#FF2A00" opacity="0.7" />
<path d="M122.0,33c0.88,0.88,2.75,1.82,5.25,1.75c8.62-0.25,20-2.12,29.5-4.25c1.51-0.34,4.62-0.88,6.62-0.5" style="fill:none;stroke:#999;stroke-width:3" />
<path d="M140.75,17.62c0.88,1,1.82,3.26,1.38,5.25C138.38,39.62,135.88,61,137.0,76.5c0.41,5.7,1.88,10.88,3.38,13.62" style="fill:none;stroke:black;stroke-width:3" />
<circle cx="140.75" cy="17.62" r="5" stroke-width="0" fill="#FF2A00" opacity="0.7" />
<path d="M231.0,33c0.88,0.88,2.75,1.82,5.25,1.75c8.62-0.25,20-2.12,29.5-4.25c1.51-0.34,4.62-0.88,6.62-0.5" style="fill:none;stroke:#999;stroke-width:3" />
<path d="M249.75,17.62c0.88,1,1.82,3.26,1.38,5.25C247.38,39.62,244.88,61,246.0,76.5c0.41,5.7,1.88,10.88,3.38,13.62" style="fill:none;stroke:#999;stroke-width:3" />
<path d="M265.62,44.12c0.75,1.12,1.16,4.39,0.5,6.12C261.5,62.5,254.88,74,240.75,86c-6.86,5.83-15.88,3.75-16.25-8.38C224.16,66.75,237.88,54.5,256.88,50.88c12.42-2.37,27,1.38,30.5,12.75C291.43,76.81,283.62,90,266.5,94.12" style="fill:none;stroke:black;stroke-width:3" />
<circle cx="265.62" cy="44.12" r="5" stroke-width="0" fill="#FF2A00" opacity="0.7" />
</svg>