<svg width="218px" height="109px" viewBox="0 0 218px 109px" xmlns="http://www.w3.org/2000/svg" xmlns:xlink="http://www.w3.org/1999/xlink" xml:space="preserve" version="1.1"  baseProfile="full">
<line x1="1" y1="1" x2="217" y2="1" style="stroke:#ddd;stroke-width:2" />
<line x1="1" y1="1" x2="1" y2="108" style="stroke:#ddd;stroke-width:2" />
<line x1="1" y1="108" x2="217" y2="108" style="stroke:#ddd;stroke-width:2" />
<line x1="217" y1="1" x2="217" y2="108" style="stroke:#ddd;stroke-width:2" />
<line x1="109" y1="1" x2="109" y2="108" style="stroke:#ddd;stroke-width:2" />
<line x1="1" y1="54" x2="217" y2="54" style="stroke:#ddd;stroke-width:2;stroke-dasharray:3 3" />
<line x1="55" y1="1" x2="55" y2="108" style="stroke:#ddd;stroke-width:2;stroke-dasharray:3 3" />
<line x1="164" y1="1" x2="164" y2="108" style="stroke:#ddd;stroke-width:2;stroke-dasharray:3 3" />
<path d="M15.5,15.5c5.62,2.12,9.62,3,12.88,3c8.27,0,8,1.12-0.38,5.5" style="fill:none;stroke:black;stroke-width:3" />
<circle cx="15.5" cy="15.5" r="5" stroke-width="0" fill="#FF2A00" opacity="0.7" />
<path d="M124.5,15.5c5.62,2.12,9.62,3,12.88,3c8.27,0,8,1.12-0.38,5.5" style="fill:none;stroke:#999;stroke-width:3" />
<path d="M115.5,42.38c2.12,1.12,4.12,2.88,8.5,1.38s12.75-7.12,18.5-7s10.25,5,10.25,18C152.75,70.25,144.5,85,128.38,96" style="fill:none;stroke:black;stroke-width:3" />
<circle cx="115.5" cy="42.38" r="5" stroke-width="0" fill="#FF2A00" opacity="0.7" />
</svg>