<svg width="109px" height="109px" viewBox="0 0 109px 109px" xmlns="http://www.w3.org/2000/svg" xmlns:xlink="http://www.w3.org/1999/xlink" xml:space="preserve" version="1.1"  baseProfile="full">
<line x1="1" y1="1" x2="108" y2="1" style="stroke:#ddd;stroke-width:2" />
<line x1="1" y1="1" x2="1" y2="108" style="stroke:#ddd;stroke-width:2" />
<line x1="1" y1="108" x2="108" y2="108" style="stroke:#ddd;stroke-width:2" />
<line x1="108" y1="1" x2="108" y2="108" style="stroke:#ddd;stroke-width:2" />
<line x1="1" y1="54" x2="108" y2="54" style="stroke:#ddd;stroke-width:2;stroke-dasharray:3 3" />
<line x1="55" y1="1" x2="55" y2="108" style="stroke:#ddd;stroke-width:2;stroke-dasharray:3 3" />
<path d="M29.5,15c0.5,1.62,0.35,5.44-1,7.38C21.75,32,14.2,41.46,9.88,46.88c-4,5-3.79,7.03-0.88,11c5.5,7.5,12.75,18.75,17.62,27.25c1.48,2.59,2.75,4.75,4.5,8.62" style="fill:none;stroke:black;stroke-width:3" />
<circle cx="29.5" cy="15.0" r="5" stroke-width="0" fill="#FF2A00" opacity="0.7" />
</svg>