<svg width="327px" height="109px" viewBox="0 0 327px 109px" xmlns="http://www.w3.org/2000/svg" xmlns:xlink="http://www.w3.org/1999/xlink" xml:space="preserve" version="1.1"  baseProfile="full">
<line x1="1" y1="1" x2="326" y2="1" style="stroke:#ddd;stroke-width:2" />
<line x1="1" y1="1" x2="1" y2="108" style="stroke:#ddd;stroke-width:2" />
<line x1="1" y1="108" x2="326" y2="108" style="stroke:#ddd;stroke-width:2" />
<line x1="326" y1="1" x2="326" y2="108" style="stroke:#ddd;stroke-width:2" />
<line x1="109" y1="1" x2="109" y2="108" style="stroke:#ddd;stroke-width:2" />
<line x1="218" y1="1" x2="218" y2="108" style="stroke:#ddd;stroke-width:2" />
<line x1="1" y1="54" x2="326" y2="54" style="stroke:#ddd;stroke-width:2;stroke-dasharray:3 3" />
<line x1="55" y1="1" x2="55" y2="108" style="stroke:#ddd;stroke-width:2;stroke-dasharray:3 3" />
<line x1="164" y1="1" x2="164" y2="108" style="stroke:#ddd;stroke-width:2;stroke-dasharray:3 3" />
<line x1="273" y1="1" x2="273" y2="108" style="stroke:#ddd;stroke-width:2;stroke-dasharray:3 3" />
<path d="M10.5,38.62c1.88,1.62,4.65,2.33,8.62,1c25.5-8.5,29.5-4.13,29.5,7.62c0,9.38-1.24,17.46-4.25,25.25C36.75,92.25,33.5,89.88,28.25,83.38" style="fill:none;stroke:black;stroke-width:3" />
<circle cx="10.5" cy="38.62" r="5" stroke-width="0" fill="#FF2A00" opacity="0.7" />
<path d="M119.5,38.62c1.88,1.62,4.65,2.33,8.62,1c25.5-8.5,29.5-4.13,29.5,7.62c0,9.38-1.24,17.46-4.25,25.25C145.75,92.25,142.5,89.88,137.25,83.38" style="fill:none;stroke:#999;stroke-width:3" />
<path d="M143.38,17.5c1,1.38,1.29,4.7,0.5,7.12c-5,15.25-18.02,40.93-19.62,43.88c-3.12,5.75-6.38,11.88-9.38,16.25" style="fill:none;stroke:black;stroke-width:3" />
<circle cx="143.38" cy="17.5" r="5" stroke-width="0" fill="#FF2A00" opacity="0.7" />
<path d="M228.5,38.62c1.88,1.62,4.65,2.33,8.62,1c25.5-8.5,29.5-4.13,29.5,7.62c0,9.38-1.24,17.46-4.25,25.25C254.75,92.25,251.5,89.88,246.25,83.38" style="fill:none;stroke:#999;stroke-width:3" />
<path d="M252.38,17.5c1,1.38,1.29,4.7,0.5,7.12c-5,15.25-18.02,40.93-19.62,43.88c-3.12,5.75-6.38,11.88-9.38,16.25" style="fill:none;stroke:#999;stroke-width:3" />
<path d="M281.25,31.62c7.5,6.88,13.25,15.75,15,24.88" style="fill:none;stroke:black;stroke-width:3" />
<circle cx="281.25" cy="31.62" r="5" stroke-width="0" fill="#FF2A00" opacity="0.7" />
</svg>