<svg width="545px" height="109px" viewBox="0 0 545px 109px" xmlns="http://www.w3.org/2000/svg" xmlns:xlink="http://www.w3.org/1999/xlink" xml:space="preserve" version="1.1"  baseProfile="full">
<line x1="1" y1="1" x2="544" y2="1" style="stroke:#ddd;stroke-width:2" />
<line x1="1" y1="1" x2="1" y2="108" style="stroke:#ddd;stroke-width:2" />
<line x1="1" y1="108" x2="544" y2="108" style="stroke:#ddd;stroke-width:2" />
<line x1="544" y1="1" x2="544" y2="108" style="stroke:#ddd;stroke-width:2" />
<line x1="109" y1="1" x2="109" y2="108" style="stroke:#ddd;stroke-width:2" />
<line x1="218" y1="1" x2="218" y2="108" style="stroke:#ddd;stroke-width:2" />
<line x1="327" y1="1" x2="327" y2="108" style="stroke:#ddd;stroke-width:2" />
<line x1="436" y1="1" x2="436" y2="108" style="stroke:#ddd;stroke-width:2" />
<line x1="1" y1="54" x2="544" y2="54" style="stroke:#ddd;stroke-width:2;stroke-dasharray:3 3" />
<line x1="55" y1="1" x2="55" y2="108" style="stroke:#ddd;stroke-width:2;stroke-dasharray:3 3" />
<line x1="164" y1="1" x2="164" y2="108" style="stroke:#ddd;stroke-width:2;stroke-dasharray:3 3" />
<line x1="273" y1="1" x2="273" y2="108" style="stroke:#ddd;stroke-width:2;stroke-dasharray:3 3" />
<line x1="382" y1="1" x2="382" y2="108" style="stroke:#ddd;stroke-width:2;stroke-dasharray:3 3" />
<line x1="491" y1="1" x2="491" y2="108" style="stroke:#ddd;stroke-width:2;stroke-dasharray:3 3" />
<path d="M11.5,38.62c1.88,1.62,4.65,2.33,8.62,1c25.5-8.5,29.5-4.13,29.5,7.62c0,9.38-1.24,17.46-4.25,25.25C37.75,92.25,34.5,89.88,29.25,83.38" style="fill:none;stroke:black;stroke-width:3" />
<circle cx="11.5" cy="38.62" r="5" stroke-width="0" fill="#FF2A00" opacity="0.7" />
<path d="M120.5,38.62c1.88,1.62,4.65,2.33,8.62,1c25.5-8.5,29.5-4.13,29.5,7.62c0,9.38-1.24,17.46-4.25,25.25C146.75,92.25,143.5,89.88,138.25,83.38" style="fill:none;stroke:#999;stroke-width:3" />
<path d="M144.38,17.5c1,1.38,1.29,4.7,0.5,7.12c-5,15.25-18.02,40.93-19.62,43.88c-3.12,5.75-6.38,11.88-9.38,16.25" style="fill:none;stroke:black;stroke-width:3" />
<circle cx="144.38" cy="17.5" r="5" stroke-width="0" fill="#FF2A00" opacity="0.7" />
<path d="M229.5,38.62c1.88,1.62,4.65,2.33,8.62,1c25.5-8.5,29.5-4.13,29.5,7.62c0,9.38-1.24,17.46-4.25,25.25C255.75,92.25,252.5,89.88,247.25,83.38" style="fill:none;stroke:#999;stroke-width:3" />
<path d="M253.38,17.5c1,1.38,1.29,4.7,0.5,7.12c-5,15.25-18.02,40.93-19.62,43.88c-3.12,5.75-6.38,11.88-9.38,16.25" style="fill:none;stroke:#999;stroke-width:3" />
<path d="M282.25,31.62c7.5,6.88,13.25,15.75,15,24.88" style="fill:none;stroke:black;stroke-width:3" />
<circle cx="282.25" cy="31.62" r="5" stroke-width="0" fill="#FF2A00" opacity="0.7" />
<path d="M338.5,38.62c1.88,1.62,4.65,2.33,8.62,1c25.5-8.5,29.5-4.13,29.5,7.62c0,9.38-1.24,17.46-4.25,25.25C364.75,92.25,361.5,89.88,356.25,83.38" style="fill:none;stroke:#999;stroke-width:3" />
<path d="M362.38,17.5c1,1.38,1.29,4.7,0.5,7.12c-5,15.25-18.02,40.93-19.62,43.88c-3.12,5.75-6.38,11.88-9.38,16.25" style="fill:none;stroke:#999;stroke-width:3" />
<path d="M391.25,31.62c7.5,6.88,13.25,15.75,15,24.88" style="fill:none;stroke:#999;stroke-width:3" />
<path d="M394.38,18.25c2.75,1.75,6,5.38,7.75,8.5" style="fill:none;stroke:black;stroke-width:3" />
<circle cx="394.38" cy="18.25" r="5" stroke-width="0" fill="#FF2A00" opacity="0.7" />
<path d="M447.5,38.62c1.88,1.62,4.65,2.33,8.62,1c25.5-8.5,29.5-4.13,29.5,7.62c0,9.38-1.24,17.46-4.25,25.25C473.75,92.25,470.5,89.88,465.25,83.38" style="fill:none;stroke:#999;stroke-width:3" />
<path d="M471.38,17.5c1,1.38,1.29,4.7,0.5,7.12c-5,15.25-18.02,40.93-19.62,43.88c-3.12,5.75-6.38,11.88-9.38,16.25" style="fill:none;stroke:#999;stroke-width:3" />
<path d="M500.25,31.62c7.5,6.88,13.25,15.75,15,24.88" style="fill:none;stroke:#999;stroke-width:3" />
<path d="M503.38,18.25c2.75,1.75,6,5.38,7.75,8.5" style="fill:none;stroke:#999;stroke-width:3" />
<path d="M509.75,13.38c3.06,1.57,6.68,4.82,8.62,7.62" style="fill:none;stroke:black;stroke-width:3" />
<circle cx="509.75" cy="13.38" r="5" stroke-width="0" fill="#FF2A00" opacity="0.7" />
</svg>