<svg width="327px" height="109px" viewBox="0 0 327px 109px" xmlns="http://www.w3.org/2000/svg" xmlns:xlink="http://www.w3.org/1999/xlink" xml:space="preserve" version="1.1"  baseProfile="full">
<line x1="1" y1="1" x2="326" y2="1" style="stroke:#ddd;stroke-width:2" />
<line x1="1" y1="1" x2="1" y2="108" style="stroke:#ddd;stroke-width:2" />
<line x1="1" y1="108" x2="326" y2="108" style="stroke:#ddd;stroke-width:2" />
<line x1="326" y1="1" x2="326" y2="108" style="stroke:#ddd;stroke-width:2" />
<line x1="109" y1="1" x2="109" y2="108" style="stroke:#ddd;stroke-width:2" />
<line x1="218" y1="1" x2="218" y2="108" style="stroke:#ddd;stroke-width:2" />
<line x1="1" y1="54" x2="326" y2="54" style="stroke:#ddd;stroke-width:2;stroke-dasharray:3 3" />
<line x1="55" y1="1" x2="55" y2="108" style="stroke:#ddd;stroke-width:2;stroke-dasharray:3 3" />
<line x1="164" y1="1" x2="164" y2="108" style="stroke:#ddd;stroke-width:2;stroke-dasharray:3 3" />
<line x1="273" y1="1" x2="273" y2="108" style="stroke:#ddd;stroke-width:2;stroke-dasharray:3 3" />
<path d="M7.88,35.12c1.38,1,3.62,2.38,6,2.12S,33.5,32.12,35.0,31.5s4-1.25,5.88-2" style="fill:none;stroke:black;stroke-width:3" />
<circle cx="7.88" cy="35.12" r="5" stroke-width="0" fill="#FF2A00" opacity="0.7" />
<path d="M116.88,35.12c1.38,1,3.62,2.38,6,2.12S,33.5,32.12,35.0,31.5s4-1.25,5.88-2" style="fill:none;stroke:#999;stroke-width:3" />
<path d="M135.5,16.12c2.25,1,3.59,4.39,3.12,7.38c-2.5,16.12-3.37,45.53-2.25,58.38c0.75,8.62-0.64,10.45-7.12,7.12C124.12,86.38,115.5,81,115.5,76.62C115.5,69.12,139.88,53,160.25,53c17.25,0,25,8.25,25,17.25c0,8.25-9.38,18.88-26.75,21" style="fill:none;stroke:black;stroke-width:3" />
<circle cx="135.5" cy="16.12" r="5" stroke-width="0" fill="#FF2A00" opacity="0.7" />
<path d="M225.88,35.12c1.38,1,3.62,2.38,6,2.12S,33.5,32.12,35.0,31.5s4-1.25,5.88-2" style="fill:none;stroke:#999;stroke-width:3" />
<path d="M244.5,16.12c2.25,1,3.59,4.39,3.12,7.38c-2.5,16.12-3.37,45.53-2.25,58.38c0.75,8.62-0.64,10.45-7.12,7.12C233.12,86.38,224.5,81,224.5,76.62C224.5,69.12,248.88,53,269.25,53c17.25,0,25,8.25,25,17.25c0,8.25-9.38,18.88-26.75,21" style="fill:none;stroke:#999;stroke-width:3" />
<path d="M276.0,22.12c5.38,2.62,8.88,5.88,10.62,8.25c2.27,3.08,0.38,4.5-1.12,5" style="fill:none;stroke:black;stroke-width:3" />
<circle cx="276.0" cy="22.12" r="5" stroke-width="0" fill="#FF2A00" opacity="0.7" />
</svg>