<svg width="436px" height="109px" viewBox="0 0 436px 109px" xmlns="http://www.w3.org/2000/svg" xmlns:xlink="http://www.w3.org/1999/xlink" xml:space="preserve" version="1.1"  baseProfile="full">
<line x1="1" y1="1" x2="435" y2="1" style="stroke:#ddd;stroke-width:2" />
<line x1="1" y1="1" x2="1" y2="108" style="stroke:#ddd;stroke-width:2" />
<line x1="1" y1="108" x2="435" y2="108" style="stroke:#ddd;stroke-width:2" />
<line x1="435" y1="1" x2="435" y2="108" style="stroke:#ddd;stroke-width:2" />
<line x1="109" y1="1" x2="109" y2="108" style="stroke:#ddd;stroke-width:2" />
<line x1="218" y1="1" x2="218" y2="108" style="stroke:#ddd;stroke-width:2" />
<line x1="327" y1="1" x2="327" y2="108" style="stroke:#ddd;stroke-width:2" />
<line x1="1" y1="54" x2="435" y2="54" style="stroke:#ddd;stroke-width:2;stroke-dasharray:3 3" />
<line x1="55" y1="1" x2="55" y2="108" style="stroke:#ddd;stroke-width:2;stroke-dasharray:3 3" />
<line x1="164" y1="1" x2="164" y2="108" style="stroke:#ddd;stroke-width:2;stroke-dasharray:3 3" />
<line x1="273" y1="1" x2="273" y2="108" style="stroke:#ddd;stroke-width:2;stroke-dasharray:3 3" />
<line x1="382" y1="1" x2="382" y2="108" style="stroke:#ddd;stroke-width:2;stroke-dasharray:3 3" />
<path d="M7.25,30.25c1.88,0.75,4.64,1.06,5.88,0.88c6.75-1,22.25-4.5,26.5-6c2.17-0.76,3.5-1.25,4.88-2.12" style="fill:none;stroke:black;stroke-width:3" />
<circle cx="7.25" cy="30.25" r="5" stroke-width="0" fill="#FF2A00" opacity="0.7" />
<path d="M116.25,30.25c1.88,0.75,4.64,1.06,5.88,0.88c6.75-1,22.25-4.5,26.5-6c2.17-0.76,3.5-1.25,4.88-2.12" style="fill:none;stroke:#999;stroke-width:3" />
<path d="M122.0,48.7c2.01,0.85,4.97,1.2,6.29,0.99c7.23-1.13,23.82-5.09,28.37-6.79c2.32-0.86,3.75-1.41,5.22-2.4" style="fill:none;stroke:black;stroke-width:3" />
<circle cx="122.0" cy="48.7" r="5" stroke-width="0" fill="#FF2A00" opacity="0.7" />
<path d="M225.25,30.25c1.88,0.75,4.64,1.06,5.88,0.88c6.75-1,22.25-4.5,26.5-6c2.17-0.76,3.5-1.25,4.88-2.12" style="fill:none;stroke:#999;stroke-width:3" />
<path d="M231.0,48.7c2.01,0.85,4.97,1.2,6.29,0.99c7.23-1.13,23.82-5.09,28.37-6.79c2.32-0.86,3.75-1.41,5.22-2.4" style="fill:none;stroke:#999;stroke-width:3" />
<path d="M236.75,14.12c1.5,0.88,3.13,2.94,4,5.12C246.25,33,256.75,48.5,267.12,60c7.64,8.47,9.12,9.38-6,3.88" style="fill:none;stroke:black;stroke-width:3" />
<circle cx="236.75" cy="14.12" r="5" stroke-width="0" fill="#FF2A00" opacity="0.7" />
<path d="M334.25,30.25c1.88,0.75,4.64,1.06,5.88,0.88c6.75-1,22.25-4.5,26.5-6c2.17-0.76,3.5-1.25,4.88-2.12" style="fill:none;stroke:#999;stroke-width:3" />
<path d="M340.0,48.7c2.01,0.85,4.97,1.2,6.29,0.99c7.23-1.13,23.82-5.09,28.37-6.79c2.32-0.86,3.75-1.41,5.22-2.4" style="fill:none;stroke:#999;stroke-width:3" />
<path d="M345.75,14.12c1.5,0.88,3.13,2.94,4,5.12C355.25,33,365.75,48.5,376.12,60c7.64,8.47,9.12,9.38-6,3.88" style="fill:none;stroke:#999;stroke-width:3" />
<path d="M337.5,83.25c10.62,9.75,27.25,8.62,38.12,5" style="fill:none;stroke:black;stroke-width:3" />
<circle cx="337.5" cy="83.25" r="5" stroke-width="0" fill="#FF2A00" opacity="0.7" />
</svg>