<svg width="327px" height="109px" viewBox="0 0 327px 109px" xmlns="http://www.w3.org/2000/svg" xmlns:xlink="http://www.w3.org/1999/xlink" xml:space="preserve" version="1.1"  baseProfile="full">
<line x1="1" y1="1" x2="326" y2="1" style="stroke:#ddd;stroke-width:2" />
<line x1="1" y1="1" x2="1" y2="108" style="stroke:#ddd;stroke-width:2" />
<line x1="1" y1="108" x2="326" y2="108" style="stroke:#ddd;stroke-width:2" />
<line x1="326" y1="1" x2="326" y2="108" style="stroke:#ddd;stroke-width:2" />
<line x1="109" y1="1" x2="109" y2="108" style="stroke:#ddd;stroke-width:2" />
<line x1="218" y1="1" x2="218" y2="108" style="stroke:#ddd;stroke-width:2" />
<line x1="1" y1="54" x2="326" y2="54" style="stroke:#ddd;stroke-width:2;stroke-dasharray:3 3" />
<line x1="55" y1="1" x2="55" y2="108" style="stroke:#ddd;stroke-width:2;stroke-dasharray:3 3" />
<line x1="164" y1="1" x2="164" y2="108" style="stroke:#ddd;stroke-width:2;stroke-dasharray:3 3" />
<line x1="273" y1="1" x2="273" y2="108" style="stroke:#ddd;stroke-width:2;stroke-dasharray:3 3" />
<path d="M5.75,38.9c2.42,1.33,5.38,1.47,8.32,1.06c8.79-1.24,28.67-7.76,34.15-10.43C51.01,28.17,52.0,27.62,54.5,26" style="fill:none;stroke:black;stroke-width:3" />
<circle cx="5.75" cy="38.9" r="5" stroke-width="0" fill="#FF2A00" opacity="0.7" />
<path d="M114.75,38.9c2.42,1.33,5.38,1.47,8.32,1.06c8.79-1.24,28.67-7.76,34.15-10.43C160.01,28.17,161.0,27.62,163.5,26" style="fill:none;stroke:#999;stroke-width:3" />
<path d="M129.25,13.88c1.5,0.88,3.63,2.94,4.5,5.12C139.25,32.75,149.0,46.62,160.62,58.5c7.98,8.15,6.38,10-6,3.12" style="fill:none;stroke:black;stroke-width:3" />
<circle cx="129.25" cy="13.88" r="5" stroke-width="0" fill="#FF2A00" opacity="0.7" />
<path d="M223.75,38.9c2.42,1.33,5.38,1.47,8.32,1.06c8.79-1.24,28.67-7.76,34.15-10.43C269.01,28.17,270.0,27.62,272.5,26" style="fill:none;stroke:#999;stroke-width:3" />
<path d="M238.25,13.88c1.5,0.88,3.63,2.94,4.5,5.12C248.25,32.75,258.0,46.62,269.62,58.5c7.98,8.15,6.38,10-6,3.12" style="fill:none;stroke:#999;stroke-width:3" />
<path d="M232.0,80.5C236.5,92.25,252.88,93,270.38,88" style="fill:none;stroke:black;stroke-width:3" />
<circle cx="232.0" cy="80.5" r="5" stroke-width="0" fill="#FF2A00" opacity="0.7" />
</svg>