<svg width="545px" height="109px" viewBox="0 0 545px 109px" xmlns="http://www.w3.org/2000/svg" xmlns:xlink="http://www.w3.org/1999/xlink" xml:space="preserve" version="1.1"  baseProfile="full">
<line x1="1" y1="1" x2="544" y2="1" style="stroke:#ddd;stroke-width:2" />
<line x1="1" y1="1" x2="1" y2="108" style="stroke:#ddd;stroke-width:2" />
<line x1="1" y1="108" x2="544" y2="108" style="stroke:#ddd;stroke-width:2" />
<line x1="544" y1="1" x2="544" y2="108" style="stroke:#ddd;stroke-width:2" />
<line x1="109" y1="1" x2="109" y2="108" style="stroke:#ddd;stroke-width:2" />
<line x1="218" y1="1" x2="218" y2="108" style="stroke:#ddd;stroke-width:2" />
<line x1="327" y1="1" x2="327" y2="108" style="stroke:#ddd;stroke-width:2" />
<line x1="436" y1="1" x2="436" y2="108" style="stroke:#ddd;stroke-width:2" />
<line x1="1" y1="54" x2="544" y2="54" style="stroke:#ddd;stroke-width:2;stroke-dasharray:3 3" />
<line x1="55" y1="1" x2="55" y2="108" style="stroke:#ddd;stroke-width:2;stroke-dasharray:3 3" />
<line x1="164" y1="1" x2="164" y2="108" style="stroke:#ddd;stroke-width:2;stroke-dasharray:3 3" />
<line x1="273" y1="1" x2="273" y2="108" style="stroke:#ddd;stroke-width:2;stroke-dasharray:3 3" />
<line x1="382" y1="1" x2="382" y2="108" style="stroke:#ddd;stroke-width:2;stroke-dasharray:3 3" />
<line x1="491" y1="1" x2="491" y2="108" style="stroke:#ddd;stroke-width:2;stroke-dasharray:3 3" />
<path d="M6.0,39.15c2.42,1.33,5.38,1.47,8.32,1.06c8.79-1.24,28.67-8.01,34.15-10.68c2.79-1.36,3.78-1.91,6.28-3.53" style="fill:none;stroke:black;stroke-width:3" />
<circle cx="6.0" cy="39.15" r="5" stroke-width="0" fill="#FF2A00" opacity="0.7" />
<path d="M115.0,39.15c2.42,1.33,5.38,1.47,8.32,1.06c8.79-1.24,28.67-8.01,34.15-10.68c2.79-1.36,3.78-1.91,6.28-3.53" style="fill:none;stroke:#999;stroke-width:3" />
<path d="M129.5,14.12C131.0,15,133.13,17.07,134.0,19.25C139.5,33,149.25,46.88,160.88,58.75c7.98,8.15,6.38,10-6,3.12" style="fill:none;stroke:black;stroke-width:3" />
<circle cx="129.5" cy="14.12" r="5" stroke-width="0" fill="#FF2A00" opacity="0.7" />
<path d="M224.0,39.15c2.42,1.33,5.38,1.47,8.32,1.06c8.79-1.24,28.67-8.01,34.15-10.68c2.79-1.36,3.78-1.91,6.28-3.53" style="fill:none;stroke:#999;stroke-width:3" />
<path d="M238.5,14.12C240.0,15,242.13,17.07,243.0,19.25C248.5,33,258.25,46.88,269.88,58.75c7.98,8.15,6.38,10-6,3.12" style="fill:none;stroke:#999;stroke-width:3" />
<path d="M232.25,80.75c4.5,11.75,20.88,12.5,38.38,7.5" style="fill:none;stroke:black;stroke-width:3" />
<circle cx="232.25" cy="80.75" r="5" stroke-width="0" fill="#FF2A00" opacity="0.7" />
<path d="M333.0,39.15c2.42,1.33,5.38,1.47,8.32,1.06c8.79-1.24,28.67-8.01,34.15-10.68c2.79-1.36,3.78-1.91,6.28-3.53" style="fill:none;stroke:#999;stroke-width:3" />
<path d="M347.5,14.12C349.0,15,351.13,17.07,352.0,19.25C357.5,33,367.25,46.88,378.88,58.75c7.98,8.15,6.38,10-6,3.12" style="fill:none;stroke:#999;stroke-width:3" />
<path d="M341.25,80.75c4.5,11.75,20.88,12.5,38.38,7.5" style="fill:none;stroke:#999;stroke-width:3" />
<path d="M385.88,14.25c2.75,1.75,6,5.38,7.75,8.5" style="fill:none;stroke:black;stroke-width:3" />
<circle cx="385.88" cy="14.25" r="5" stroke-width="0" fill="#FF2A00" opacity="0.7" />
<path d="M442.0,39.15c2.42,1.33,5.38,1.47,8.32,1.06c8.79-1.24,28.67-8.01,34.15-10.68c2.79-1.36,3.78-1.91,6.28-3.53" style="fill:none;stroke:#999;stroke-width:3" />
<path d="M456.5,14.12C458.0,15,460.13,17.07,461.0,19.25C466.5,33,476.25,46.88,487.88,58.75c7.98,8.15,6.38,10-6,3.12" style="fill:none;stroke:#999;stroke-width:3" />
<path d="M450.25,80.75c4.5,11.75,20.88,12.5,38.38,7.5" style="fill:none;stroke:#999;stroke-width:3" />
<path d="M494.88,14.25c2.75,1.75,6,5.38,7.75,8.5" style="fill:none;stroke:#999;stroke-width:3" />
<path d="M501.25,9.38c3.06,1.57,6.68,4.82,8.62,7.62" style="fill:none;stroke:black;stroke-width:3" />
<circle cx="501.25" cy="9.38" r="5" stroke-width="0" fill="#FF2A00" opacity="0.7" />
</svg>