<svg width="436px" height="109px" viewBox="0 0 436px 109px" xmlns="http://www.w3.org/2000/svg" xmlns:xlink="http://www.w3.org/1999/xlink" xml:space="preserve" version="1.1"  baseProfile="full">
<line x1="1" y1="1" x2="435" y2="1" style="stroke:#ddd;stroke-width:2" />
<line x1="1" y1="1" x2="1" y2="108" style="stroke:#ddd;stroke-width:2" />
<line x1="1" y1="108" x2="435" y2="108" style="stroke:#ddd;stroke-width:2" />
<line x1="435" y1="1" x2="435" y2="108" style="stroke:#ddd;stroke-width:2" />
<line x1="109" y1="1" x2="109" y2="108" style="stroke:#ddd;stroke-width:2" />
<line x1="218" y1="1" x2="218" y2="108" style="stroke:#ddd;stroke-width:2" />
<line x1="327" y1="1" x2="327" y2="108" style="stroke:#ddd;stroke-width:2" />
<line x1="1" y1="54" x2="435" y2="54" style="stroke:#ddd;stroke-width:2;stroke-dasharray:3 3" />
<line x1="55" y1="1" x2="55" y2="108" style="stroke:#ddd;stroke-width:2;stroke-dasharray:3 3" />
<line x1="164" y1="1" x2="164" y2="108" style="stroke:#ddd;stroke-width:2;stroke-dasharray:3 3" />
<line x1="273" y1="1" x2="273" y2="108" style="stroke:#ddd;stroke-width:2;stroke-dasharray:3 3" />
<line x1="382" y1="1" x2="382" y2="108" style="stroke:#ddd;stroke-width:2;stroke-dasharray:3 3" />
<path d="M5.25,32.88c1.38,0.62,3.88,1.51,6.38,1.12c6.5-1,18.25-4.12,26.88-6c2.64-0.57,5.38-1.5,7.62-2.38" style="fill:none;stroke:black;stroke-width:3" />
<circle cx="5.25" cy="32.88" r="5" stroke-width="0" fill="#FF2A00" opacity="0.7" />
<path d="M114.25,32.88c1.38,0.62,3.88,1.51,6.38,1.12c6.5-1,18.25-4.12,26.88-6c2.64-0.57,5.38-1.5,7.62-2.38" style="fill:none;stroke:#999;stroke-width:3" />
<path d="M135.38,15.88c0.75,1.25,0.71,3.58,0.38,5.25c-3,15-4.25,22.59-8.38,38.62C124.12,72.38,122.0,70.88,131.0,64.12c8.29-6.21,19.75-9.5,28.5-9.5c8.62,0,14.58,5.88,14.5,14.5c-0.12,13.5-16.5,20.62-29.88,23.25" style="fill:none;stroke:black;stroke-width:3" />
<circle cx="135.38" cy="15.88" r="5" stroke-width="0" fill="#FF2A00" opacity="0.7" />
<path d="M223.25,32.88c1.38,0.62,3.88,1.51,6.38,1.12c6.5-1,18.25-4.12,26.88-6c2.64-0.57,5.38-1.5,7.62-2.38" style="fill:none;stroke:#999;stroke-width:3" />
<path d="M244.38,15.88c0.75,1.25,0.71,3.58,0.38,5.25c-3,15-4.25,22.59-8.38,38.62C233.12,72.38,231.0,70.88,240.0,64.12c8.29-6.21,19.75-9.5,28.5-9.5c8.62,0,14.58,5.88,14.5,14.5c-0.12,13.5-16.5,20.62-29.88,23.25" style="fill:none;stroke:#999;stroke-width:3" />
<path d="M273.38,21.75c2.75,1.75,6,5.38,7.75,8.5" style="fill:none;stroke:black;stroke-width:3" />
<circle cx="273.38" cy="21.75" r="5" stroke-width="0" fill="#FF2A00" opacity="0.7" />
<path d="M332.25,32.88c1.38,0.62,3.88,1.51,6.38,1.12c6.5-1,18.25-4.12,26.88-6c2.64-0.57,5.38-1.5,7.62-2.38" style="fill:none;stroke:#999;stroke-width:3" />
<path d="M353.38,15.88c0.75,1.25,0.71,3.58,0.38,5.25c-3,15-4.25,22.59-8.38,38.62C342.12,72.38,340.0,70.88,349.0,64.12c8.29-6.21,19.75-9.5,28.5-9.5c8.62,0,14.58,5.88,14.5,14.5c-0.12,13.5-16.5,20.62-29.88,23.25" style="fill:none;stroke:#999;stroke-width:3" />
<path d="M382.38,21.75c2.75,1.75,6,5.38,7.75,8.5" style="fill:none;stroke:#999;stroke-width:3" />
<path d="M388.75,16.88c3.06,1.57,6.68,4.82,8.62,7.62" style="fill:none;stroke:black;stroke-width:3" />
<circle cx="388.75" cy="16.88" r="5" stroke-width="0" fill="#FF2A00" opacity="0.7" />
</svg>