<svg width="654px" height="109px" viewBox="0 0 654px 109px" xmlns="http://www.w3.org/2000/svg" xmlns:xlink="http://www.w3.org/1999/xlink" xml:space="preserve" version="1.1"  baseProfile="full">
<line x1="1" y1="1" x2="653" y2="1" style="stroke:#ddd;stroke-width:2" />
<line x1="1" y1="1" x2="1" y2="108" style="stroke:#ddd;stroke-width:2" />
<line x1="1" y1="108" x2="653" y2="108" style="stroke:#ddd;stroke-width:2" />
<line x1="653" y1="1" x2="653" y2="108" style="stroke:#ddd;stroke-width:2" />
<line x1="109" y1="1" x2="109" y2="108" style="stroke:#ddd;stroke-width:2" />
<line x1="218" y1="1" x2="218" y2="108" style="stroke:#ddd;stroke-width:2" />
<line x1="327" y1="1" x2="327" y2="108" style="stroke:#ddd;stroke-width:2" />
<line x1="436" y1="1" x2="436" y2="108" style="stroke:#ddd;stroke-width:2" />
<line x1="545" y1="1" x2="545" y2="108" style="stroke:#ddd;stroke-width:2" />
<line x1="1" y1="54" x2="653" y2="54" style="stroke:#ddd;stroke-width:2;stroke-dasharray:3 3" />
<line x1="55" y1="1" x2="55" y2="108" style="stroke:#ddd;stroke-width:2;stroke-dasharray:3 3" />
<line x1="164" y1="1" x2="164" y2="108" style="stroke:#ddd;stroke-width:2;stroke-dasharray:3 3" />
<line x1="273" y1="1" x2="273" y2="108" style="stroke:#ddd;stroke-width:2;stroke-dasharray:3 3" />
<line x1="382" y1="1" x2="382" y2="108" style="stroke:#ddd;stroke-width:2;stroke-dasharray:3 3" />
<line x1="491" y1="1" x2="491" y2="108" style="stroke:#ddd;stroke-width:2;stroke-dasharray:3 3" />
<line x1="600" y1="1" x2="600" y2="108" style="stroke:#ddd;stroke-width:2;stroke-dasharray:3 3" />
<path d="M10.0,35.38c1.38,0.62,3.88,1.51,6.38,1.12c6.5-1,16.25-2.88,24.88-4.75c2.64-0.57,5.38-1.5,7.62-2.38" style="fill:none;stroke:black;stroke-width:3" />
<circle cx="10.0" cy="35.38" r="5" stroke-width="0" fill="#FF2A00" opacity="0.7" />
<path d="M119.0,35.38c1.38,0.62,3.88,1.51,6.38,1.12c6.5-1,16.25-2.88,24.88-4.75c2.64-0.57,5.38-1.5,7.62-2.38" style="fill:none;stroke:#999;stroke-width:3" />
<path d="M139.62,16.88c0.75,1.25,0.87,3.62,0.38,5.25C133.65,43.07,127.25,58.5,121.12,74.5c-1.36,3.56-4.75,11.75-6,14.62" style="fill:none;stroke:black;stroke-width:3" />
<circle cx="139.62" cy="16.88" r="5" stroke-width="0" fill="#FF2A00" opacity="0.7" />
<path d="M228.0,35.38c1.38,0.62,3.88,1.51,6.38,1.12c6.5-1,16.25-2.88,24.88-4.75c2.64-0.57,5.38-1.5,7.62-2.38" style="fill:none;stroke:#999;stroke-width:3" />
<path d="M248.62,16.88c0.75,1.25,0.87,3.62,0.38,5.25C242.65,43.07,236.25,58.5,230.12,74.5c-1.36,3.56-4.75,11.75-6,14.62" style="fill:none;stroke:#999;stroke-width:3" />
<path d="M260.0,53.25c12.38-2.75,18.25-3.7,23.62-3.12c15.12,1.62-1.12,2.25-4.25,4.88" style="fill:none;stroke:black;stroke-width:3" />
<circle cx="260.0" cy="53.25" r="5" stroke-width="0" fill="#FF2A00" opacity="0.7" />
<path d="M337.0,35.38c1.38,0.62,3.88,1.51,6.38,1.12c6.5-1,16.25-2.88,24.88-4.75c2.64-0.57,5.38-1.5,7.62-2.38" style="fill:none;stroke:#999;stroke-width:3" />
<path d="M357.62,16.88c0.75,1.25,0.87,3.62,0.38,5.25C351.65,43.07,345.25,58.5,339.12,74.5c-1.36,3.56-4.75,11.75-6,14.62" style="fill:none;stroke:#999;stroke-width:3" />
<path d="M369.0,53.25c12.38-2.75,18.25-3.7,23.62-3.12c15.12,1.62-1.12,2.25-4.25,4.88" style="fill:none;stroke:#999;stroke-width:3" />
<path d="M366.75,82.25c4.38,7,14.25,8.12,34.5,5.62" style="fill:none;stroke:black;stroke-width:3" />
<circle cx="366.75" cy="82.25" r="5" stroke-width="0" fill="#FF2A00" opacity="0.7" />
<path d="M446.0,35.38c1.38,0.62,3.88,1.51,6.38,1.12c6.5-1,16.25-2.88,24.88-4.75c2.64-0.57,5.38-1.5,7.62-2.38" style="fill:none;stroke:#999;stroke-width:3" />
<path d="M466.62,16.88c0.75,1.25,0.87,3.62,0.38,5.25C460.65,43.07,454.25,58.5,448.12,74.5c-1.36,3.56-4.75,11.75-6,14.62" style="fill:none;stroke:#999;stroke-width:3" />
<path d="M478.0,53.25c12.38-2.75,18.25-3.7,23.62-3.12c15.12,1.62-1.12,2.25-4.25,4.88" style="fill:none;stroke:#999;stroke-width:3" />
<path d="M475.75,82.25c4.38,7,14.25,8.12,34.5,5.62" style="fill:none;stroke:#999;stroke-width:3" />
<path d="M497.62,22.5c2.75,1.75,6,5.38,7.75,8.5" style="fill:none;stroke:black;stroke-width:3" />
<circle cx="497.62" cy="22.5" r="5" stroke-width="0" fill="#FF2A00" opacity="0.7" />
<path d="M555.0,35.38c1.38,0.62,3.88,1.51,6.38,1.12c6.5-1,16.25-2.88,24.88-4.75c2.64-0.57,5.38-1.5,7.62-2.38" style="fill:none;stroke:#999;stroke-width:3" />
<path d="M575.62,16.88c0.75,1.25,0.87,3.62,0.38,5.25C569.65,43.07,563.25,58.5,557.12,74.5c-1.36,3.56-4.75,11.75-6,14.62" style="fill:none;stroke:#999;stroke-width:3" />
<path d="M587.0,53.25c12.38-2.75,18.25-3.7,23.62-3.12c15.12,1.62-1.12,2.25-4.25,4.88" style="fill:none;stroke:#999;stroke-width:3" />
<path d="M584.75,82.25c4.38,7,14.25,8.12,34.5,5.62" style="fill:none;stroke:#999;stroke-width:3" />
<path d="M606.62,22.5c2.75,1.75,6,5.38,7.75,8.5" style="fill:none;stroke:#999;stroke-width:3" />
<path d="M613.0,17.62c3.06,1.57,6.68,4.82,8.62,7.62" style="fill:none;stroke:black;stroke-width:3" />
<circle cx="613.0" cy="17.62" r="5" stroke-width="0" fill="#FF2A00" opacity="0.7" />
</svg>