<svg width="218px" height="109px" viewBox="0 0 218px 109px" xmlns="http://www.w3.org/2000/svg" xmlns:xlink="http://www.w3.org/1999/xlink" xml:space="preserve" version="1.1"  baseProfile="full">
<line x1="1" y1="1" x2="217" y2="1" style="stroke:#ddd;stroke-width:2" />
<line x1="1" y1="1" x2="1" y2="108" style="stroke:#ddd;stroke-width:2" />
<line x1="1" y1="108" x2="217" y2="108" style="stroke:#ddd;stroke-width:2" />
<line x1="217" y1="1" x2="217" y2="108" style="stroke:#ddd;stroke-width:2" />
<line x1="109" y1="1" x2="109" y2="108" style="stroke:#ddd;stroke-width:2" />
<line x1="1" y1="54" x2="217" y2="54" style="stroke:#ddd;stroke-width:2;stroke-dasharray:3 3" />
<line x1="55" y1="1" x2="55" y2="108" style="stroke:#ddd;stroke-width:2;stroke-dasharray:3 3" />
<line x1="164" y1="1" x2="164" y2="108" style="stroke:#ddd;stroke-width:2;stroke-dasharray:3 3" />
<path d="M12.88,28.5c2,1.38,2.97,3.23,3.38,5.88c1.87,12.18,4.12,23.92,8.54,34.67c1.79,4.36,3.96,8.33,6.84,12.46" style="fill:none;stroke:black;stroke-width:3" />
<circle cx="12.88" cy="28.5" r="5" stroke-width="0" fill="#FF2A00" opacity="0.7" />
<path d="M121.88,28.5c2,1.38,2.97,3.23,3.38,5.88c1.87,12.18,4.12,23.92,8.54,34.67c1.79,4.36,3.96,8.33,6.84,12.46" style="fill:none;stroke:#999;stroke-width:3" />
<path d="M153.62,19.25c0.88,2.12,1.06,3.79,0.62,5.88c-3.12,15-13.14,39.81-18.12,48.62C124.25,94.75,115.5,75,115.5,69.25C115.5,46.62,159.25,25,177.86,39.66C185.51999999999998,45.69,187.66,54.24,187.0,63c-2,26.75-32.88,28.38-32.88,16.88c0-9.38,17.38-7.12,27.12-1.12c3.1,1.91,7.25,5.25,9.5,7.5" style="fill:none;stroke:black;stroke-width:3" />
<circle cx="153.62" cy="19.25" r="5" stroke-width="0" fill="#FF2A00" opacity="0.7" />
</svg>