<svg width="218px" height="109px" viewBox="0 0 218px 109px" xmlns="http://www.w3.org/2000/svg" xmlns:xlink="http://www.w3.org/1999/xlink" xml:space="preserve" version="1.1"  baseProfile="full">
<line x1="1" y1="1" x2="217" y2="1" style="stroke:#ddd;stroke-width:2" />
<line x1="1" y1="1" x2="1" y2="108" style="stroke:#ddd;stroke-width:2" />
<line x1="1" y1="108" x2="217" y2="108" style="stroke:#ddd;stroke-width:2" />
<line x1="217" y1="1" x2="217" y2="108" style="stroke:#ddd;stroke-width:2" />
<line x1="109" y1="1" x2="109" y2="108" style="stroke:#ddd;stroke-width:2" />
<line x1="1" y1="54" x2="217" y2="54" style="stroke:#ddd;stroke-width:2;stroke-dasharray:3 3" />
<line x1="55" y1="1" x2="55" y2="108" style="stroke:#ddd;stroke-width:2;stroke-dasharray:3 3" />
<line x1="164" y1="1" x2="164" y2="108" style="stroke:#ddd;stroke-width:2;stroke-dasharray:3 3" />
<path d="M9.38,18.38C11.12,19.12,13.0,21,13.5,23.75s4.75,25,5.38,28.12" style="fill:none;stroke:black;stroke-width:3" />
<circle cx="9.38" cy="18.38" r="5" stroke-width="0" fill="#FF2A00" opacity="0.7" />
<path d="M118.38,18.38C120.12,19.12,122.0,21,122.5,23.75s4.75,25,5.38,28.12" style="fill:none;stroke:#999;stroke-width:3" />
<path d="M161.0,25.5c0.25,1.88,0.04,4.09-2.25,5.75C152.38,35.88,145.53,39.74,136.0,46.5C123.12,55.62,114.38,64.88,114.38,74c0,10.12,8.5,13.88,26.88,13.88c6.25,0,14.75-0.12,21.62-1.25" style="fill:none;stroke:black;stroke-width:3" />
<circle cx="161.0" cy="25.5" r="5" stroke-width="0" fill="#FF2A00" opacity="0.7" />
</svg>