<svg width="436px" height="109px" viewBox="0 0 436px 109px" xmlns="http://www.w3.org/2000/svg" xmlns:xlink="http://www.w3.org/1999/xlink" xml:space="preserve" version="1.1"  baseProfile="full">
<line x1="1" y1="1" x2="435" y2="1" style="stroke:#ddd;stroke-width:2" />
<line x1="1" y1="1" x2="1" y2="108" style="stroke:#ddd;stroke-width:2" />
<line x1="1" y1="108" x2="435" y2="108" style="stroke:#ddd;stroke-width:2" />
<line x1="435" y1="1" x2="435" y2="108" style="stroke:#ddd;stroke-width:2" />
<line x1="109" y1="1" x2="109" y2="108" style="stroke:#ddd;stroke-width:2" />
<line x1="218" y1="1" x2="218" y2="108" style="stroke:#ddd;stroke-width:2" />
<line x1="327" y1="1" x2="327" y2="108" style="stroke:#ddd;stroke-width:2" />
<line x1="1" y1="54" x2="435" y2="54" style="stroke:#ddd;stroke-width:2;stroke-dasharray:3 3" />
<line x1="55" y1="1" x2="55" y2="108" style="stroke:#ddd;stroke-width:2;stroke-dasharray:3 3" />
<line x1="164" y1="1" x2="164" y2="108" style="stroke:#ddd;stroke-width:2;stroke-dasharray:3 3" />
<line x1="273" y1="1" x2="273" y2="108" style="stroke:#ddd;stroke-width:2;stroke-dasharray:3 3" />
<line x1="382" y1="1" x2="382" y2="108" style="stroke:#ddd;stroke-width:2;stroke-dasharray:3 3" />
<path d="M9.38,18.38C11.12,19.12,13.0,21,13.5,23.75s4.75,25,5.38,28.12" style="fill:none;stroke:black;stroke-width:3" />
<circle cx="9.38" cy="18.38" r="5" stroke-width="0" fill="#FF2A00" opacity="0.7" />
<path d="M118.38,18.38C120.12,19.12,122.0,21,122.5,23.75s4.75,25,5.38,28.12" style="fill:none;stroke:#999;stroke-width:3" />
<path d="M161.0,25.5c0.25,1.88,0.04,4.09-2.25,5.75C152.38,35.88,145.54,39.74,136.0,46.5C123.12,55.62,114.38,64.88,114.38,74c0,10.12,8.5,13.88,26.88,13.88c6.25,0,14.75-0.12,21.62-1.25" style="fill:none;stroke:black;stroke-width:3" />
<circle cx="161.0" cy="25.5" r="5" stroke-width="0" fill="#FF2A00" opacity="0.7" />
<path d="M227.38,18.38C229.12,19.12,231.0,21,231.5,23.75s4.75,25,5.38,28.12" style="fill:none;stroke:#999;stroke-width:3" />
<path d="M270.0,25.5c0.25,1.88,0.04,4.09-2.25,5.75C261.38,35.88,254.54,39.74,245.0,46.5C232.12,55.62,223.38,64.88,223.38,74c0,10.12,8.5,13.88,26.88,13.88c6.25,0,14.75-0.12,21.62-1.25" style="fill:none;stroke:#999;stroke-width:3" />
<path d="M276.12,14.5c2.75,1.75,6,5.38,7.75,8.5" style="fill:none;stroke:black;stroke-width:3" />
<circle cx="276.12" cy="14.5" r="5" stroke-width="0" fill="#FF2A00" opacity="0.7" />
<path d="M336.38,18.38C338.12,19.12,340.0,21,340.5,23.75s4.75,25,5.38,28.12" style="fill:none;stroke:#999;stroke-width:3" />
<path d="M379.0,25.5c0.25,1.88,0.04,4.09-2.25,5.75C370.38,35.88,363.53999999999996,39.74,354.0,46.5C341.12,55.62,332.38,64.88,332.38,74c0,10.12,8.5,13.88,26.88,13.88c6.25,0,14.75-0.12,21.62-1.25" style="fill:none;stroke:#999;stroke-width:3" />
<path d="M385.12,14.5c2.75,1.75,6,5.38,7.75,8.5" style="fill:none;stroke:#999;stroke-width:3" />
<path d="M391.5,9.62c3.06,1.57,6.68,4.82,8.62,7.62" style="fill:none;stroke:black;stroke-width:3" />
<circle cx="391.5" cy="9.62" r="5" stroke-width="0" fill="#FF2A00" opacity="0.7" />
</svg>