<svg width="109px" height="109px" viewBox="0 0 109px 109px" xmlns="http://www.w3.org/2000/svg" xmlns:xlink="http://www.w3.org/1999/xlink" xml:space="preserve" version="1.1"  baseProfile="full">
<line x1="1" y1="1" x2="108" y2="1" style="stroke:#ddd;stroke-width:2" />
<line x1="1" y1="1" x2="1" y2="108" style="stroke:#ddd;stroke-width:2" />
<line x1="1" y1="108" x2="108" y2="108" style="stroke:#ddd;stroke-width:2" />
<line x1="108" y1="1" x2="108" y2="108" style="stroke:#ddd;stroke-width:2" />
<line x1="1" y1="54" x2="108" y2="54" style="stroke:#ddd;stroke-width:2;stroke-dasharray:3 3" />
<line x1="55" y1="1" x2="55" y2="108" style="stroke:#ddd;stroke-width:2;stroke-dasharray:3 3" />
<path d="M42.5,28.62c1,1.5,1.34,4.12,0.88,6.62c-1.75,9.5-6.89,25-10.75,33.12C23.0,88.62,16.08,83.1,8.25,66.38C-0.88,46.88,31.75,17.5,58.88,26c32.38,10.15,28,54.62-4.75,60.88" style="fill:none;stroke:black;stroke-width:3" />
<circle cx="42.5" cy="28.62" r="5" stroke-width="0" fill="#FF2A00" opacity="0.7" />
</svg>