<svg width="327px" height="109px" viewBox="0 0 327px 109px" xmlns="http://www.w3.org/2000/svg" xmlns:xlink="http://www.w3.org/1999/xlink" xml:space="preserve" version="1.1"  baseProfile="full">
<line x1="1" y1="1" x2="326" y2="1" style="stroke:#ddd;stroke-width:2" />
<line x1="1" y1="1" x2="1" y2="108" style="stroke:#ddd;stroke-width:2" />
<line x1="1" y1="108" x2="326" y2="108" style="stroke:#ddd;stroke-width:2" />
<line x1="326" y1="1" x2="326" y2="108" style="stroke:#ddd;stroke-width:2" />
<line x1="109" y1="1" x2="109" y2="108" style="stroke:#ddd;stroke-width:2" />
<line x1="218" y1="1" x2="218" y2="108" style="stroke:#ddd;stroke-width:2" />
<line x1="1" y1="54" x2="326" y2="54" style="stroke:#ddd;stroke-width:2;stroke-dasharray:3 3" />
<line x1="55" y1="1" x2="55" y2="108" style="stroke:#ddd;stroke-width:2;stroke-dasharray:3 3" />
<line x1="164" y1="1" x2="164" y2="108" style="stroke:#ddd;stroke-width:2;stroke-dasharray:3 3" />
<line x1="273" y1="1" x2="273" y2="108" style="stroke:#ddd;stroke-width:2;stroke-dasharray:3 3" />
<path d="M6.62,48.75c2.25,1.62,5,1.38,7.62-1c3.89-3.52,6.12-5.75,10.62-9.88C30.74,32.5,33.35,33.12,38.0,37c12.12,10.12,30.38,25.12,33.38,27.38S,83.75,74.75,85.25,76" style="fill:none;stroke:black;stroke-width:3" />
<circle cx="6.62" cy="48.75" r="5" stroke-width="0" fill="#FF2A00" opacity="0.7" />
<path d="M115.62,48.75c2.25,1.62,5,1.38,7.62-1c3.89-3.52,6.12-5.75,10.62-9.88C139.74,32.5,142.35,33.12,147.0,37c12.12,10.12,30.38,25.12,33.38,27.38S,83.75,74.75,85.25,76" style="fill:none;stroke:#999;stroke-width:3" />
<path d="M167.38,26.75c2.75,1.75,6,5.38,7.75,8.5" style="fill:none;stroke:black;stroke-width:3" />
<circle cx="167.38" cy="26.75" r="5" stroke-width="0" fill="#FF2A00" opacity="0.7" />
<path d="M224.62,48.75c2.25,1.62,5,1.38,7.62-1c3.89-3.52,6.12-5.75,10.62-9.88C248.74,32.5,251.35,33.12,256.0,37c12.12,10.12,30.38,25.12,33.38,27.38S,83.75,74.75,85.25,76" style="fill:none;stroke:#999;stroke-width:3" />
<path d="M276.38,26.75c2.75,1.75,6,5.38,7.75,8.5" style="fill:none;stroke:#999;stroke-width:3" />
<path d="M282.75,21.88c3.06,1.57,6.68,4.82,8.62,7.62" style="fill:none;stroke:black;stroke-width:3" />
<circle cx="282.75" cy="21.88" r="5" stroke-width="0" fill="#FF2A00" opacity="0.7" />
</svg>