<svg width="545px" height="109px" viewBox="0 0 545px 109px" xmlns="http://www.w3.org/2000/svg" xmlns:xlink="http://www.w3.org/1999/xlink" xml:space="preserve" version="1.1"  baseProfile="full">
<line x1="1" y1="1" x2="544" y2="1" style="stroke:#ddd;stroke-width:2" />
<line x1="1" y1="1" x2="1" y2="108" style="stroke:#ddd;stroke-width:2" />
<line x1="1" y1="108" x2="544" y2="108" style="stroke:#ddd;stroke-width:2" />
<line x1="544" y1="1" x2="544" y2="108" style="stroke:#ddd;stroke-width:2" />
<line x1="109" y1="1" x2="109" y2="108" style="stroke:#ddd;stroke-width:2" />
<line x1="218" y1="1" x2="218" y2="108" style="stroke:#ddd;stroke-width:2" />
<line x1="327" y1="1" x2="327" y2="108" style="stroke:#ddd;stroke-width:2" />
<line x1="436" y1="1" x2="436" y2="108" style="stroke:#ddd;stroke-width:2" />
<line x1="1" y1="54" x2="544" y2="54" style="stroke:#ddd;stroke-width:2;stroke-dasharray:3 3" />
<line x1="55" y1="1" x2="55" y2="108" style="stroke:#ddd;stroke-width:2;stroke-dasharray:3 3" />
<line x1="164" y1="1" x2="164" y2="108" style="stroke:#ddd;stroke-width:2;stroke-dasharray:3 3" />
<line x1="273" y1="1" x2="273" y2="108" style="stroke:#ddd;stroke-width:2;stroke-dasharray:3 3" />
<line x1="382" y1="1" x2="382" y2="108" style="stroke:#ddd;stroke-width:2;stroke-dasharray:3 3" />
<line x1="491" y1="1" x2="491" y2="108" style="stroke:#ddd;stroke-width:2;stroke-dasharray:3 3" />
<path d="M12.12,17.75c1.25,1.5,1.9,4.25,1.38,6.88c-3.5,17.62-6.98,36.4-4,54.88c2.5,15.5,1.12,2,5.62-6.25" style="fill:none;stroke:black;stroke-width:3" />
<circle cx="12.12" cy="17.75" r="5" stroke-width="0" fill="#FF2A00" opacity="0.7" />
<path d="M121.12,17.75c1.25,1.5,1.9,4.25,1.38,6.88c-3.5,17.62-6.98,36.4-4,54.88c2.5,15.5,1.12,2,5.62-6.25" style="fill:none;stroke:#999;stroke-width:3" />
<path d="M146.25,37.89c2.41,1.57,4.85,2.41,7.8,1.96c9.36-1.43,17.21-3.19,23.15-4.82c3.12-0.86,5.96-1.29,7.8-1.29" style="fill:none;stroke:black;stroke-width:3" />
<circle cx="146.25" cy="37.89" r="5" stroke-width="0" fill="#FF2A00" opacity="0.7" />
<path d="M230.12,17.75c1.25,1.5,1.9,4.25,1.38,6.88c-3.5,17.62-6.98,36.4-4,54.88c2.5,15.5,1.12,2,5.62-6.25" style="fill:none;stroke:#999;stroke-width:3" />
<path d="M255.25,37.89c2.41,1.57,4.85,2.41,7.8,1.96c9.36-1.43,17.21-3.19,23.15-4.82c3.12-0.86,5.96-1.29,7.8-1.29" style="fill:none;stroke:#999;stroke-width:3" />
<path d="M275.12,16.5C277.38,18.62,278.0,20.62,278.0,23s1.5,38.62,1.5,48c0,22.5-30.62,19.62-30.62,10.5c0-9.75,23.88-5.62,29.5-2.88s12,8.25,13.38,9.38" style="fill:none;stroke:black;stroke-width:3" />
<circle cx="275.12" cy="16.5" r="5" stroke-width="0" fill="#FF2A00" opacity="0.7" />
<path d="M339.12,17.75c1.25,1.5,1.9,4.25,1.38,6.88c-3.5,17.62-6.98,36.4-4,54.88c2.5,15.5,1.12,2,5.62-6.25" style="fill:none;stroke:#999;stroke-width:3" />
<path d="M364.25,37.89c2.41,1.57,4.85,2.41,7.8,1.96c9.36-1.43,17.21-3.19,23.15-4.82c3.12-0.86,5.96-1.29,7.8-1.29" style="fill:none;stroke:#999;stroke-width:3" />
<path d="M384.12,16.5C386.38,18.62,387.0,20.62,387.0,23s1.5,38.62,1.5,48c0,22.5-30.62,19.62-30.62,10.5c0-9.75,23.88-5.62,29.5-2.88s12,8.25,13.38,9.38" style="fill:none;stroke:#999;stroke-width:3" />
<path d="M399.12,15.25c2.75,1.75,6,5.38,7.75,8.5" style="fill:none;stroke:black;stroke-width:3" />
<circle cx="399.12" cy="15.25" r="5" stroke-width="0" fill="#FF2A00" opacity="0.7" />
<path d="M448.12,17.75c1.25,1.5,1.9,4.25,1.38,6.88c-3.5,17.62-6.98,36.4-4,54.88c2.5,15.5,1.12,2,5.62-6.25" style="fill:none;stroke:#999;stroke-width:3" />
<path d="M473.25,37.89c2.41,1.57,4.85,2.41,7.8,1.96c9.36-1.43,17.21-3.19,23.15-4.82c3.12-0.86,5.96-1.29,7.8-1.29" style="fill:none;stroke:#999;stroke-width:3" />
<path d="M493.12,16.5C495.38,18.62,496.0,20.62,496.0,23s1.5,38.62,1.5,48c0,22.5-30.62,19.62-30.62,10.5c0-9.75,23.88-5.62,29.5-2.88s12,8.25,13.38,9.38" style="fill:none;stroke:#999;stroke-width:3" />
<path d="M508.12,15.25c2.75,1.75,6,5.38,7.75,8.5" style="fill:none;stroke:#999;stroke-width:3" />
<path d="M514.5,10.38c3.06,1.57,6.68,4.82,8.62,7.62" style="fill:none;stroke:black;stroke-width:3" />
<circle cx="514.5" cy="10.38" r="5" stroke-width="0" fill="#FF2A00" opacity="0.7" />
</svg>