<svg width="436px" height="109px" viewBox="0 0 436px 109px" xmlns="http://www.w3.org/2000/svg" xmlns:xlink="http://www.w3.org/1999/xlink" xml:space="preserve" version="1.1"  baseProfile="full">
<line x1="1" y1="1" x2="435" y2="1" style="stroke:#ddd;stroke-width:2" />
<line x1="1" y1="1" x2="1" y2="108" style="stroke:#ddd;stroke-width:2" />
<line x1="1" y1="108" x2="435" y2="108" style="stroke:#ddd;stroke-width:2" />
<line x1="435" y1="1" x2="435" y2="108" style="stroke:#ddd;stroke-width:2" />
<line x1="109" y1="1" x2="109" y2="108" style="stroke:#ddd;stroke-width:2" />
<line x1="218" y1="1" x2="218" y2="108" style="stroke:#ddd;stroke-width:2" />
<line x1="327" y1="1" x2="327" y2="108" style="stroke:#ddd;stroke-width:2" />
<line x1="1" y1="54" x2="435" y2="54" style="stroke:#ddd;stroke-width:2;stroke-dasharray:3 3" />
<line x1="55" y1="1" x2="55" y2="108" style="stroke:#ddd;stroke-width:2;stroke-dasharray:3 3" />
<line x1="164" y1="1" x2="164" y2="108" style="stroke:#ddd;stroke-width:2;stroke-dasharray:3 3" />
<line x1="273" y1="1" x2="273" y2="108" style="stroke:#ddd;stroke-width:2;stroke-dasharray:3 3" />
<line x1="382" y1="1" x2="382" y2="108" style="stroke:#ddd;stroke-width:2;stroke-dasharray:3 3" />
<path d="M30.88,15.62C34.5,19,38.38,21,43.62,21.75c9.59,1.37,3.5,3.38-1.88,6.12" style="fill:none;stroke:black;stroke-width:3" />
<circle cx="30.88" cy="15.62" r="5" stroke-width="0" fill="#FF2A00" opacity="0.7" />
<path d="M139.88,15.62C143.5,19,147.38,21,152.62,21.75c9.59,1.37,3.5,3.38-1.88,6.12" style="fill:none;stroke:#999;stroke-width:3" />
<path d="M140.88,46.88c1.88,4.62,7.5,9.41,14.25,17.5C165.75,77.12,155.62,94.38,136.0,86" style="fill:none;stroke:black;stroke-width:3" />
<circle cx="140.88" cy="46.88" r="5" stroke-width="0" fill="#FF2A00" opacity="0.7" />
<path d="M248.88,15.62C252.5,19,256.38,21,261.62,21.75c9.59,1.37,3.5,3.38-1.88,6.12" style="fill:none;stroke:#999;stroke-width:3" />
<path d="M249.88,46.88c1.88,4.62,7.5,9.41,14.25,17.5C274.75,77.12,264.62,94.38,245.0,86" style="fill:none;stroke:#999;stroke-width:3" />
<path d="M222.75,73.38c0.75,4,1.88,8.12,5,10.12c1.16,0.74,0.12-3.38,13.25-9.12" style="fill:none;stroke:black;stroke-width:3" />
<circle cx="222.75" cy="73.38" r="5" stroke-width="0" fill="#FF2A00" opacity="0.7" />
<path d="M357.88,15.62C361.5,19,365.38,21,370.62,21.75c9.59,1.37,3.5,3.38-1.88,6.12" style="fill:none;stroke:#999;stroke-width:3" />
<path d="M358.88,46.88c1.88,4.62,7.5,9.41,14.25,17.5C383.75,77.12,373.62,94.38,354.0,86" style="fill:none;stroke:#999;stroke-width:3" />
<path d="M331.75,73.38c0.75,4,1.88,8.12,5,10.12c1.16,0.74,0.12-3.38,13.25-9.12" style="fill:none;stroke:#999;stroke-width:3" />
<path d="M395.38,61.88c5.12,3.38,10.28,7.49,11.38,8.88c6.75,8.5-0.25,4.62-4.62,7.12" style="fill:none;stroke:black;stroke-width:3" />
<circle cx="395.38" cy="61.88" r="5" stroke-width="0" fill="#FF2A00" opacity="0.7" />
</svg>