<svg width="327px" height="109px" viewBox="0 0 327px 109px" xmlns="http://www.w3.org/2000/svg" xmlns:xlink="http://www.w3.org/1999/xlink" xml:space="preserve" version="1.1"  baseProfile="full">
<line x1="1" y1="1" x2="326" y2="1" style="stroke:#ddd;stroke-width:2" />
<line x1="1" y1="1" x2="1" y2="108" style="stroke:#ddd;stroke-width:2" />
<line x1="1" y1="108" x2="326" y2="108" style="stroke:#ddd;stroke-width:2" />
<line x1="326" y1="1" x2="326" y2="108" style="stroke:#ddd;stroke-width:2" />
<line x1="109" y1="1" x2="109" y2="108" style="stroke:#ddd;stroke-width:2" />
<line x1="218" y1="1" x2="218" y2="108" style="stroke:#ddd;stroke-width:2" />
<line x1="1" y1="54" x2="326" y2="54" style="stroke:#ddd;stroke-width:2;stroke-dasharray:3 3" />
<line x1="55" y1="1" x2="55" y2="108" style="stroke:#ddd;stroke-width:2;stroke-dasharray:3 3" />
<line x1="164" y1="1" x2="164" y2="108" style="stroke:#ddd;stroke-width:2;stroke-dasharray:3 3" />
<line x1="273" y1="1" x2="273" y2="108" style="stroke:#ddd;stroke-width:2;stroke-dasharray:3 3" />
<path d="M5.88,25.12c1.25,0.88,3.75,2.25,6.5,1.38s7.31-2.38,11.38-4.5c6-3.12,8.42-1.01,4.25,4C0.88,58.62,4.25,84.5,26.49,88.88c18.07,3.56,37.63-16.38,35.63-56.51c-0.72-14.5-0.17-14.78,4.12-1.75C70.0,42,76.5,51.38,82.38,57.12" style="fill:none;stroke:black;stroke-width:3" />
<circle cx="5.88" cy="25.12" r="5" stroke-width="0" fill="#FF2A00" opacity="0.7" />
<path d="M114.88,25.12c1.25,0.88,3.75,2.25,6.5,1.38s7.31-2.38,11.38-4.5c6-3.12,8.42-1.01,4.25,4C109.88,58.62,113.25,84.5,135.49,88.88c18.07,3.56,37.63-16.38,35.63-56.51c-0.72-14.5-0.17-14.78,4.12-1.75C179.0,42,185.5,51.38,191.38,57.12" style="fill:none;stroke:#999;stroke-width:3" />
<path d="M181.38,13.5c2.75,1.75,6,5.38,7.75,8.5" style="fill:none;stroke:black;stroke-width:3" />
<circle cx="181.38" cy="13.5" r="5" stroke-width="0" fill="#FF2A00" opacity="0.7" />
<path d="M223.88,25.12c1.25,0.88,3.75,2.25,6.5,1.38s7.31-2.38,11.38-4.5c6-3.12,8.42-1.01,4.25,4C218.88,58.62,222.25,84.5,244.49,88.88c18.07,3.56,37.63-16.38,35.63-56.51c-0.72-14.5-0.17-14.78,4.12-1.75C288.0,42,294.5,51.38,300.38,57.12" style="fill:none;stroke:#999;stroke-width:3" />
<path d="M290.38,13.5c2.75,1.75,6,5.38,7.75,8.5" style="fill:none;stroke:#999;stroke-width:3" />
<path d="M296.75,8.62c3.06,1.57,6.68,4.82,8.62,7.62" style="fill:none;stroke:black;stroke-width:3" />
<circle cx="296.75" cy="8.62" r="5" stroke-width="0" fill="#FF2A00" opacity="0.7" />
</svg>