<svg width="654px" height="109px" viewBox="0 0 654px 109px" xmlns="http://www.w3.org/2000/svg" xmlns:xlink="http://www.w3.org/1999/xlink" xml:space="preserve" version="1.1"  baseProfile="full">
<line x1="1" y1="1" x2="653" y2="1" style="stroke:#ddd;stroke-width:2" />
<line x1="1" y1="1" x2="1" y2="108" style="stroke:#ddd;stroke-width:2" />
<line x1="1" y1="108" x2="653" y2="108" style="stroke:#ddd;stroke-width:2" />
<line x1="653" y1="1" x2="653" y2="108" style="stroke:#ddd;stroke-width:2" />
<line x1="109" y1="1" x2="109" y2="108" style="stroke:#ddd;stroke-width:2" />
<line x1="218" y1="1" x2="218" y2="108" style="stroke:#ddd;stroke-width:2" />
<line x1="327" y1="1" x2="327" y2="108" style="stroke:#ddd;stroke-width:2" />
<line x1="436" y1="1" x2="436" y2="108" style="stroke:#ddd;stroke-width:2" />
<line x1="545" y1="1" x2="545" y2="108" style="stroke:#ddd;stroke-width:2" />
<line x1="1" y1="54" x2="653" y2="54" style="stroke:#ddd;stroke-width:2;stroke-dasharray:3 3" />
<line x1="55" y1="1" x2="55" y2="108" style="stroke:#ddd;stroke-width:2;stroke-dasharray:3 3" />
<line x1="164" y1="1" x2="164" y2="108" style="stroke:#ddd;stroke-width:2;stroke-dasharray:3 3" />
<line x1="273" y1="1" x2="273" y2="108" style="stroke:#ddd;stroke-width:2;stroke-dasharray:3 3" />
<line x1="382" y1="1" x2="382" y2="108" style="stroke:#ddd;stroke-width:2;stroke-dasharray:3 3" />
<line x1="491" y1="1" x2="491" y2="108" style="stroke:#ddd;stroke-width:2;stroke-dasharray:3 3" />
<line x1="600" y1="1" x2="600" y2="108" style="stroke:#ddd;stroke-width:2;stroke-dasharray:3 3" />
<path d="M11.88,18.75c1.25,1.5,2.15,4,1.62,6.62C10.0,43,6.52,62.77,9.5,81.25c2.5,15.5,1.12,2,5.62-6.25" style="fill:none;stroke:black;stroke-width:3" />
<circle cx="11.88" cy="18.75" r="5" stroke-width="0" fill="#FF2A00" opacity="0.7" />
<path d="M120.88,18.75c1.25,1.5,2.15,4,1.62,6.62C119.0,43,115.52,62.77,118.5,81.25c2.5,15.5,1.12,2,5.62-6.25" style="fill:none;stroke:#999;stroke-width:3" />
<path d="M149.45,21.13c1.9,1.28,3.82,1.76,6.14,1.4c7.36-1.17,13.73-2.4,18.41-3.73c2.46-0.7,4.69-1.05,6.13-1.05" style="fill:none;stroke:black;stroke-width:3" />
<circle cx="149.45" cy="21.13" r="5" stroke-width="0" fill="#FF2A00" opacity="0.7" />
<path d="M229.88,18.75c1.25,1.5,2.15,4,1.62,6.62C228.0,43,224.51999999999998,62.77,227.5,81.25c2.5,15.5,1.12,2,5.62-6.25" style="fill:none;stroke:#999;stroke-width:3" />
<path d="M258.45,21.13c1.9,1.28,3.82,1.76,6.14,1.4c7.36-1.17,13.73-2.4,18.41-3.73c2.46-0.7,4.69-1.05,6.13-1.05" style="fill:none;stroke:#999;stroke-width:3" />
<path d="M259.2,44.3c2.21,1.44,4.46,1.98,7.16,1.57c8.59-1.31,15.78-2.44,21.23-3.94c2.87-0.79,5.72-1.18,7.41-1.18" style="fill:none;stroke:black;stroke-width:3" />
<circle cx="259.2" cy="44.3" r="5" stroke-width="0" fill="#FF2A00" opacity="0.7" />
<path d="M338.88,18.75c1.25,1.5,2.15,4,1.62,6.62C337.0,43,333.52,62.77,336.5,81.25c2.5,15.5,1.12,2,5.62-6.25" style="fill:none;stroke:#999;stroke-width:3" />
<path d="M367.45,21.13c1.9,1.28,3.82,1.76,6.14,1.4c7.36-1.17,13.73-2.4,18.41-3.73c2.46-0.7,4.69-1.05,6.13-1.05" style="fill:none;stroke:#999;stroke-width:3" />
<path d="M368.2,44.3c2.21,1.44,4.46,1.98,7.16,1.57c8.59-1.31,15.78-2.44,21.23-3.94c2.87-0.79,5.72-1.18,7.41-1.18" style="fill:none;stroke:#999;stroke-width:3" />
<path d="M386.88,23c1.38,1.62,1.62,4.12,1.62,6.5s2,35.12,2,44.5c0,17.5-29.88,17.12-29.88,8c0-9.75,21.38-7.88,29.5-2.88c5.33,3.28,12,8.25,13.38,9.38" style="fill:none;stroke:black;stroke-width:3" />
<circle cx="386.88" cy="23.0" r="5" stroke-width="0" fill="#FF2A00" opacity="0.7" />
<path d="M447.88,18.75c1.25,1.5,2.15,4,1.62,6.62C446.0,43,442.52,62.77,445.5,81.25c2.5,15.5,1.12,2,5.62-6.25" style="fill:none;stroke:#999;stroke-width:3" />
<path d="M476.45,21.13c1.9,1.28,3.82,1.76,6.14,1.4c7.36-1.17,13.73-2.4,18.41-3.73c2.46-0.7,4.69-1.05,6.13-1.05" style="fill:none;stroke:#999;stroke-width:3" />
<path d="M477.2,44.3c2.21,1.44,4.46,1.98,7.16,1.57c8.59-1.31,15.78-2.44,21.23-3.94c2.87-0.79,5.72-1.18,7.41-1.18" style="fill:none;stroke:#999;stroke-width:3" />
<path d="M495.88,23c1.38,1.62,1.62,4.12,1.62,6.5s2,35.12,2,44.5c0,17.5-29.88,17.12-29.88,8c0-9.75,21.38-7.88,29.5-2.88c5.33,3.28,12,8.25,13.38,9.38" style="fill:none;stroke:#999;stroke-width:3" />
<path d="M510.88,26c2.75,1.75,6,5.38,7.75,8.5" style="fill:none;stroke:black;stroke-width:3" />
<circle cx="510.88" cy="26.0" r="5" stroke-width="0" fill="#FF2A00" opacity="0.7" />
<path d="M556.88,18.75c1.25,1.5,2.15,4,1.62,6.62C555.0,43,551.52,62.77,554.5,81.25c2.5,15.5,1.12,2,5.62-6.25" style="fill:none;stroke:#999;stroke-width:3" />
<path d="M585.45,21.13c1.9,1.28,3.82,1.76,6.14,1.4c7.36-1.17,13.73-2.4,18.41-3.73c2.46-0.7,4.69-1.05,6.13-1.05" style="fill:none;stroke:#999;stroke-width:3" />
<path d="M586.2,44.3c2.21,1.44,4.46,1.98,7.16,1.57c8.59-1.31,15.78-2.44,21.23-3.94c2.87-0.79,5.72-1.18,7.41-1.18" style="fill:none;stroke:#999;stroke-width:3" />
<path d="M604.88,23c1.38,1.62,1.62,4.12,1.62,6.5s2,35.12,2,44.5c0,17.5-29.88,17.12-29.88,8c0-9.75,21.38-7.88,29.5-2.88c5.33,3.28,12,8.25,13.38,9.38" style="fill:none;stroke:#999;stroke-width:3" />
<path d="M619.88,26c2.75,1.75,6,5.38,7.75,8.5" style="fill:none;stroke:#999;stroke-width:3" />
<path d="M626.25,21.12c3.06,1.57,6.68,4.82,8.62,7.62" style="fill:none;stroke:black;stroke-width:3" />
<circle cx="626.25" cy="21.12" r="5" stroke-width="0" fill="#FF2A00" opacity="0.7" />
</svg>