<svg width="218px" height="109px" viewBox="0 0 218px 109px" xmlns="http://www.w3.org/2000/svg" xmlns:xlink="http://www.w3.org/1999/xlink" xml:space="preserve" version="1.1"  baseProfile="full">
<line x1="1" y1="1" x2="217" y2="1" style="stroke:#ddd;stroke-width:2" />
<line x1="1" y1="1" x2="1" y2="108" style="stroke:#ddd;stroke-width:2" />
<line x1="1" y1="108" x2="217" y2="108" style="stroke:#ddd;stroke-width:2" />
<line x1="217" y1="1" x2="217" y2="108" style="stroke:#ddd;stroke-width:2" />
<line x1="109" y1="1" x2="109" y2="108" style="stroke:#ddd;stroke-width:2" />
<line x1="1" y1="54" x2="217" y2="54" style="stroke:#ddd;stroke-width:2;stroke-dasharray:3 3" />
<line x1="55" y1="1" x2="55" y2="108" style="stroke:#ddd;stroke-width:2;stroke-dasharray:3 3" />
<line x1="164" y1="1" x2="164" y2="108" style="stroke:#ddd;stroke-width:2;stroke-dasharray:3 3" />
<path d="M23.12,26c1.88,1.75,4.06,1.7,6.88,1.25c3.88-0.62,7.62-1.75,11.88-3.12s6.25-0.12,4.5,5.12s-6.66,17.39-12,30.12C20.75,91.88,5.12,88.63,5.12,78c0-14.25,20.48-15.36,33-13.5c18.5,2.75,30,6.62,44.38,14.25" style="fill:none;stroke:black;stroke-width:3" />
<circle cx="23.12" cy="26.0" r="5" stroke-width="0" fill="#FF2A00" opacity="0.7" />
<path d="M132.12,26c1.88,1.75,4.06,1.7,6.88,1.25c3.88-0.62,7.62-1.75,11.88-3.12s6.25-0.12,4.5,5.12s-6.66,17.39-12,30.12C129.75,91.88,114.12,88.63,114.12,78c0-14.25,20.48-15.36,33-13.5c18.5,2.75,30,6.62,44.38,14.25" style="fill:none;stroke:#999;stroke-width:3" />
<path d="M179.0,54.75c0.75,2.38,0.49,4.37,0,6.25c-2.12,8.12-7.5,25-22.12,33.75" style="fill:none;stroke:black;stroke-width:3" />
<circle cx="179.0" cy="54.75" r="5" stroke-width="0" fill="#FF2A00" opacity="0.7" />
</svg>