<svg width="218px" height="109px" viewBox="0 0 218px 109px" xmlns="http://www.w3.org/2000/svg" xmlns:xlink="http://www.w3.org/1999/xlink" xml:space="preserve" version="1.1"  baseProfile="full">
<line x1="1" y1="1" x2="217" y2="1" style="stroke:#ddd;stroke-width:2" />
<line x1="1" y1="1" x2="1" y2="108" style="stroke:#ddd;stroke-width:2" />
<line x1="1" y1="108" x2="217" y2="108" style="stroke:#ddd;stroke-width:2" />
<line x1="217" y1="1" x2="217" y2="108" style="stroke:#ddd;stroke-width:2" />
<line x1="109" y1="1" x2="109" y2="108" style="stroke:#ddd;stroke-width:2" />
<line x1="1" y1="54" x2="217" y2="54" style="stroke:#ddd;stroke-width:2;stroke-dasharray:3 3" />
<line x1="55" y1="1" x2="55" y2="108" style="stroke:#ddd;stroke-width:2;stroke-dasharray:3 3" />
<line x1="164" y1="1" x2="164" y2="108" style="stroke:#ddd;stroke-width:2;stroke-dasharray:3 3" />
<path d="M11.38,25.25c1.25,1.5,2.24,4.03,1.62,6.62C10.12,44,6.71,61.52,8.75,74.25c2,12.5,1.75-0.75,5.62-6.25" style="fill:none;stroke:black;stroke-width:3" />
<circle cx="11.38" cy="25.25" r="5" stroke-width="0" fill="#FF2A00" opacity="0.7" />
<path d="M120.38,25.25c1.25,1.5,2.24,4.03,1.62,6.62C119.12,44,115.71,61.52,117.75,74.25c2,12.5,1.75-0.75,5.62-6.25" style="fill:none;stroke:#999;stroke-width:3" />
<path d="M151.0,18.75c2.25,2.12,2.88,4.12,2.88,6.5s0,26.38,0,35.75c0,16.5-5,25.75-12.62,33.12" style="fill:none;stroke:black;stroke-width:3" />
<circle cx="151.0" cy="18.75" r="5" stroke-width="0" fill="#FF2A00" opacity="0.7" />
</svg>