<svg width="436px" height="109px" viewBox="0 0 436px 109px" xmlns="http://www.w3.org/2000/svg" xmlns:xlink="http://www.w3.org/1999/xlink" xml:space="preserve" version="1.1"  baseProfile="full">
<line x1="1" y1="1" x2="435" y2="1" style="stroke:#ddd;stroke-width:2" />
<line x1="1" y1="1" x2="1" y2="108" style="stroke:#ddd;stroke-width:2" />
<line x1="1" y1="108" x2="435" y2="108" style="stroke:#ddd;stroke-width:2" />
<line x1="435" y1="1" x2="435" y2="108" style="stroke:#ddd;stroke-width:2" />
<line x1="109" y1="1" x2="109" y2="108" style="stroke:#ddd;stroke-width:2" />
<line x1="218" y1="1" x2="218" y2="108" style="stroke:#ddd;stroke-width:2" />
<line x1="327" y1="1" x2="327" y2="108" style="stroke:#ddd;stroke-width:2" />
<line x1="1" y1="54" x2="435" y2="54" style="stroke:#ddd;stroke-width:2;stroke-dasharray:3 3" />
<line x1="55" y1="1" x2="55" y2="108" style="stroke:#ddd;stroke-width:2;stroke-dasharray:3 3" />
<line x1="164" y1="1" x2="164" y2="108" style="stroke:#ddd;stroke-width:2;stroke-dasharray:3 3" />
<line x1="273" y1="1" x2="273" y2="108" style="stroke:#ddd;stroke-width:2;stroke-dasharray:3 3" />
<line x1="382" y1="1" x2="382" y2="108" style="stroke:#ddd;stroke-width:2;stroke-dasharray:3 3" />
<path d="M26.38,16.25c5.62,2.12,9.62,3,12.88,3c8.27,0,8,1.12-0.38,5.5" style="fill:none;stroke:black;stroke-width:3" />
<circle cx="26.38" cy="16.25" r="5" stroke-width="0" fill="#FF2A00" opacity="0.7" />
<path d="M135.38,16.25c5.62,2.12,9.62,3,12.88,3c8.27,0,8,1.12-0.38,5.5" style="fill:none;stroke:#999;stroke-width:3" />
<path d="M126.38,43.12c2.12,1.12,4.12,2.88,8.5,1.38s12.75-7.12,18.5-7s10.25,5,10.25,18c0,15.5-8.25,30.25-24.38,41.25" style="fill:none;stroke:black;stroke-width:3" />
<circle cx="126.38" cy="43.12" r="5" stroke-width="0" fill="#FF2A00" opacity="0.7" />
<path d="M244.38,16.25c5.62,2.12,9.62,3,12.88,3c8.27,0,8,1.12-0.38,5.5" style="fill:none;stroke:#999;stroke-width:3" />
<path d="M235.38,43.12c2.12,1.12,4.12,2.88,8.5,1.38s12.75-7.12,18.5-7s10.25,5,10.25,18c0,15.5-8.25,30.25-24.38,41.25" style="fill:none;stroke:#999;stroke-width:3" />
<path d="M272.12,17.75c2.75,1.75,6,5.38,7.75,8.5" style="fill:none;stroke:black;stroke-width:3" />
<circle cx="272.12" cy="17.75" r="5" stroke-width="0" fill="#FF2A00" opacity="0.7" />
<path d="M353.38,16.25c5.62,2.12,9.62,3,12.88,3c8.27,0,8,1.12-0.38,5.5" style="fill:none;stroke:#999;stroke-width:3" />
<path d="M344.38,43.12c2.12,1.12,4.12,2.88,8.5,1.38s12.75-7.12,18.5-7s10.25,5,10.25,18c0,15.5-8.25,30.25-24.38,41.25" style="fill:none;stroke:#999;stroke-width:3" />
<path d="M381.12,17.75c2.75,1.75,6,5.38,7.75,8.5" style="fill:none;stroke:#999;stroke-width:3" />
<path d="M387.5,12.88c3.06,1.57,6.68,4.82,8.62,7.62" style="fill:none;stroke:black;stroke-width:3" />
<circle cx="387.5" cy="12.88" r="5" stroke-width="0" fill="#FF2A00" opacity="0.7" />
</svg>