<svg width="327px" height="109px" viewBox="0 0 327px 109px" xmlns="http://www.w3.org/2000/svg" xmlns:xlink="http://www.w3.org/1999/xlink" xml:space="preserve" version="1.1"  baseProfile="full">
<line x1="1" y1="1" x2="326" y2="1" style="stroke:#ddd;stroke-width:2" />
<line x1="1" y1="1" x2="1" y2="108" style="stroke:#ddd;stroke-width:2" />
<line x1="1" y1="108" x2="326" y2="108" style="stroke:#ddd;stroke-width:2" />
<line x1="326" y1="1" x2="326" y2="108" style="stroke:#ddd;stroke-width:2" />
<line x1="109" y1="1" x2="109" y2="108" style="stroke:#ddd;stroke-width:2" />
<line x1="218" y1="1" x2="218" y2="108" style="stroke:#ddd;stroke-width:2" />
<line x1="1" y1="54" x2="326" y2="54" style="stroke:#ddd;stroke-width:2;stroke-dasharray:3 3" />
<line x1="55" y1="1" x2="55" y2="108" style="stroke:#ddd;stroke-width:2;stroke-dasharray:3 3" />
<line x1="164" y1="1" x2="164" y2="108" style="stroke:#ddd;stroke-width:2;stroke-dasharray:3 3" />
<line x1="273" y1="1" x2="273" y2="108" style="stroke:#ddd;stroke-width:2;stroke-dasharray:3 3" />
<path d="M12.57,39.77c5.78,1.38,20.23,9.79,27.75,16.4c14.88,13.09,0.95,9.85-1.51,10.4" style="fill:none;stroke:black;stroke-width:3" />
<circle cx="12.57" cy="39.77" r="5" stroke-width="0" fill="#FF2A00" opacity="0.7" />
<path d="M121.57,39.77c5.78,1.38,20.23,9.79,27.75,16.4c14.88,13.09,0.95,9.85-1.51,10.4" style="fill:none;stroke:#999;stroke-width:3" />
<path d="M156.34,36.68c3.56,1.82,7.76,5.58,10.02,8.82" style="fill:none;stroke:black;stroke-width:3" />
<circle cx="156.34" cy="36.68" r="5" stroke-width="0" fill="#FF2A00" opacity="0.7" />
<path d="M230.57,39.77c5.78,1.38,20.23,9.79,27.75,16.4c14.88,13.09,0.95,9.85-1.51,10.4" style="fill:none;stroke:#999;stroke-width:3" />
<path d="M265.34000000000003,36.68c3.56,1.82,7.76,5.58,10.02,8.82" style="fill:none;stroke:#999;stroke-width:3" />
<path d="M274.59000000000003,27.86c3.7,1.66,8.06,5.09,10.41,8.05" style="fill:none;stroke:black;stroke-width:3" />
<circle cx="274.59000000000003" cy="27.86" r="5" stroke-width="0" fill="#FF2A00" opacity="0.7" />
</svg>