<svg width="218px" height="109px" viewBox="0 0 218px 109px" xmlns="http://www.w3.org/2000/svg" xmlns:xlink="http://www.w3.org/1999/xlink" xml:space="preserve" version="1.1"  baseProfile="full">
<line x1="1" y1="1" x2="217" y2="1" style="stroke:#ddd;stroke-width:2" />
<line x1="1" y1="1" x2="1" y2="108" style="stroke:#ddd;stroke-width:2" />
<line x1="1" y1="108" x2="217" y2="108" style="stroke:#ddd;stroke-width:2" />
<line x1="217" y1="1" x2="217" y2="108" style="stroke:#ddd;stroke-width:2" />
<line x1="109" y1="1" x2="109" y2="108" style="stroke:#ddd;stroke-width:2" />
<line x1="1" y1="54" x2="217" y2="54" style="stroke:#ddd;stroke-width:2;stroke-dasharray:3 3" />
<line x1="55" y1="1" x2="55" y2="108" style="stroke:#ddd;stroke-width:2;stroke-dasharray:3 3" />
<line x1="164" y1="1" x2="164" y2="108" style="stroke:#ddd;stroke-width:2;stroke-dasharray:3 3" />
<path d="M55.25,16.75c0.12,1.75-0.34,3.86-1.62,5.5C43.5,35.12,29.88,51.88,8.0,65.12" style="fill:none;stroke:black;stroke-width:3" />
<circle cx="55.25" cy="16.75" r="5" stroke-width="0" fill="#FF2A00" opacity="0.7" />
<path d="M164.25,16.75c0.12,1.75-0.34,3.86-1.62,5.5C152.5,35.12,138.88,51.88,117.0,65.12" style="fill:none;stroke:#999;stroke-width:3" />
<path d="M150.88,43.88c1,1.12,1.25,3,1.25,4.62s0,32.75,0,34.62S,152.0,92.25,152.0,94.88" style="fill:none;stroke:black;stroke-width:3" />
<circle cx="150.88" cy="43.88" r="5" stroke-width="0" fill="#FF2A00" opacity="0.7" />
</svg>