<svg width="545px" height="109px" viewBox="0 0 545px 109px" xmlns="http://www.w3.org/2000/svg" xmlns:xlink="http://www.w3.org/1999/xlink" xml:space="preserve" version="1.1"  baseProfile="full">
<line x1="1" y1="1" x2="544" y2="1" style="stroke:#ddd;stroke-width:2" />
<line x1="1" y1="1" x2="1" y2="108" style="stroke:#ddd;stroke-width:2" />
<line x1="1" y1="108" x2="544" y2="108" style="stroke:#ddd;stroke-width:2" />
<line x1="544" y1="1" x2="544" y2="108" style="stroke:#ddd;stroke-width:2" />
<line x1="109" y1="1" x2="109" y2="108" style="stroke:#ddd;stroke-width:2" />
<line x1="218" y1="1" x2="218" y2="108" style="stroke:#ddd;stroke-width:2" />
<line x1="327" y1="1" x2="327" y2="108" style="stroke:#ddd;stroke-width:2" />
<line x1="436" y1="1" x2="436" y2="108" style="stroke:#ddd;stroke-width:2" />
<line x1="1" y1="54" x2="544" y2="54" style="stroke:#ddd;stroke-width:2;stroke-dasharray:3 3" />
<line x1="55" y1="1" x2="55" y2="108" style="stroke:#ddd;stroke-width:2;stroke-dasharray:3 3" />
<line x1="164" y1="1" x2="164" y2="108" style="stroke:#ddd;stroke-width:2;stroke-dasharray:3 3" />
<line x1="273" y1="1" x2="273" y2="108" style="stroke:#ddd;stroke-width:2;stroke-dasharray:3 3" />
<line x1="382" y1="1" x2="382" y2="108" style="stroke:#ddd;stroke-width:2;stroke-dasharray:3 3" />
<line x1="491" y1="1" x2="491" y2="108" style="stroke:#ddd;stroke-width:2;stroke-dasharray:3 3" />
<path d="M13.75,40.5c1.75,0.62,4.77,1.09,7.25,0.38C32.75,37.5,51.62,32.75,58.5,31c2.62-0.67,6.75-1.12,9-1" style="fill:none;stroke:black;stroke-width:3" />
<circle cx="13.75" cy="40.5" r="5" stroke-width="0" fill="#FF2A00" opacity="0.7" />
<path d="M122.75,40.5c1.75,0.62,4.77,1.09,7.25,0.38C141.75,37.5,160.62,32.75,167.5,31c2.62-0.67,6.75-1.12,9-1" style="fill:none;stroke:#999;stroke-width:3" />
<path d="M115.25,65.8c2.28,0.84,6.24,1.18,9.46,0.17c17.79-5.59,32.67-9.09,49.17-12.99c3.43-0.81,8.81-1.52,11.74-1.35" style="fill:none;stroke:black;stroke-width:3" />
<circle cx="115.25" cy="65.8" r="5" stroke-width="0" fill="#FF2A00" opacity="0.7" />
<path d="M231.75,40.5c1.75,0.62,4.77,1.09,7.25,0.38C250.75,37.5,269.62,32.75,276.5,31c2.62-0.67,6.75-1.12,9-1" style="fill:none;stroke:#999;stroke-width:3" />
<path d="M224.25,65.8c2.28,0.84,6.24,1.18,9.46,0.17c17.79-5.59,32.67-9.09,49.17-12.99c3.43-0.81,8.81-1.52,11.74-1.35" style="fill:none;stroke:#999;stroke-width:3" />
<path d="M253.62,16.75c2.5,1.75,3.43,3.24,3.88,6.12c2.12,13.62,6.38,45.38,8.25,59.25c0.4,3,1,8.38,1.38,11.12" style="fill:none;stroke:black;stroke-width:3" />
<circle cx="253.62" cy="16.75" r="5" stroke-width="0" fill="#FF2A00" opacity="0.7" />
<path d="M340.75,40.5c1.75,0.62,4.77,1.09,7.25,0.38C359.75,37.5,378.62,32.75,385.5,31c2.62-0.67,6.75-1.12,9-1" style="fill:none;stroke:#999;stroke-width:3" />
<path d="M333.25,65.8c2.28,0.84,6.24,1.18,9.46,0.17c17.79-5.59,32.67-9.09,49.17-12.99c3.43-0.81,8.81-1.52,11.74-1.35" style="fill:none;stroke:#999;stroke-width:3" />
<path d="M362.62,16.75c2.5,1.75,3.43,3.24,3.88,6.12c2.12,13.62,6.38,45.38,8.25,59.25c0.4,3,1,8.38,1.38,11.12" style="fill:none;stroke:#999;stroke-width:3" />
<path d="M395.62,15.13c2.75,1.93,6,5.93,7.75,9.37" style="fill:none;stroke:black;stroke-width:3" />
<circle cx="395.62" cy="15.13" r="5" stroke-width="0" fill="#FF2A00" opacity="0.7" />
<path d="M449.75,40.5c1.75,0.62,4.77,1.09,7.25,0.38C468.75,37.5,487.62,32.75,494.5,31c2.62-0.67,6.75-1.12,9-1" style="fill:none;stroke:#999;stroke-width:3" />
<path d="M442.25,65.8c2.28,0.84,6.24,1.18,9.46,0.17c17.79-5.59,32.67-9.09,49.17-12.99c3.43-0.81,8.81-1.52,11.74-1.35" style="fill:none;stroke:#999;stroke-width:3" />
<path d="M471.62,16.75c2.5,1.75,3.43,3.24,3.88,6.12c2.12,13.62,6.38,45.38,8.25,59.25c0.4,3,1,8.38,1.38,11.12" style="fill:none;stroke:#999;stroke-width:3" />
<path d="M504.62,15.13c2.75,1.93,6,5.93,7.75,9.37" style="fill:none;stroke:#999;stroke-width:3" />
<path d="M511.0,10c2.71,1.73,5.9,5.32,7.62,8.41" style="fill:none;stroke:black;stroke-width:3" />
<circle cx="511.0" cy="10.0" r="5" stroke-width="0" fill="#FF2A00" opacity="0.7" />
</svg>