<svg width="436px" height="109px" viewBox="0 0 436px 109px" xmlns="http://www.w3.org/2000/svg" xmlns:xlink="http://www.w3.org/1999/xlink" xml:space="preserve" version="1.1"  baseProfile="full">
<line x1="1" y1="1" x2="435" y2="1" style="stroke:#ddd;stroke-width:2" />
<line x1="1" y1="1" x2="1" y2="108" style="stroke:#ddd;stroke-width:2" />
<line x1="1" y1="108" x2="435" y2="108" style="stroke:#ddd;stroke-width:2" />
<line x1="435" y1="1" x2="435" y2="108" style="stroke:#ddd;stroke-width:2" />
<line x1="109" y1="1" x2="109" y2="108" style="stroke:#ddd;stroke-width:2" />
<line x1="218" y1="1" x2="218" y2="108" style="stroke:#ddd;stroke-width:2" />
<line x1="327" y1="1" x2="327" y2="108" style="stroke:#ddd;stroke-width:2" />
<line x1="1" y1="54" x2="435" y2="54" style="stroke:#ddd;stroke-width:2;stroke-dasharray:3 3" />
<line x1="55" y1="1" x2="55" y2="108" style="stroke:#ddd;stroke-width:2;stroke-dasharray:3 3" />
<line x1="164" y1="1" x2="164" y2="108" style="stroke:#ddd;stroke-width:2;stroke-dasharray:3 3" />
<line x1="273" y1="1" x2="273" y2="108" style="stroke:#ddd;stroke-width:2;stroke-dasharray:3 3" />
<line x1="382" y1="1" x2="382" y2="108" style="stroke:#ddd;stroke-width:2;stroke-dasharray:3 3" />
<path d="M8.5,40.62c1.88,1.25,4.51,1.87,7.12,1.5c17.88-2.5,32.78-4.51,42.5-5.88c7.12-1,10.59,0.24,8.62,7.88c-2.12,8.25-4.47,17.81-9.25,29.12C47.0,98.12,43.38,87.75,38.25,85.12" style="fill:none;stroke:black;stroke-width:3" />
<circle cx="8.5" cy="40.62" r="5" stroke-width="0" fill="#FF2A00" opacity="0.7" />
<path d="M117.5,40.62c1.88,1.25,4.51,1.87,7.12,1.5c17.88-2.5,32.78-4.51,42.5-5.88c7.12-1,10.59,0.24,8.62,7.88c-2.12,8.25-4.47,17.81-9.25,29.12C156.0,98.12,152.38,87.75,147.25,85.12" style="fill:none;stroke:#999;stroke-width:3" />
<path d="M147.88,17.12c0.88,1.62,1.29,3.83,0.75,6.75C144.38,46.75,132.75,69.12,118.38,82.75" style="fill:none;stroke:black;stroke-width:3" />
<circle cx="147.88" cy="17.12" r="5" stroke-width="0" fill="#FF2A00" opacity="0.7" />
<path d="M226.5,40.62c1.88,1.25,4.51,1.87,7.12,1.5c17.88-2.5,32.78-4.51,42.5-5.88c7.12-1,10.59,0.24,8.62,7.88c-2.12,8.25-4.47,17.81-9.25,29.12C265.0,98.12,261.38,87.75,256.25,85.12" style="fill:none;stroke:#999;stroke-width:3" />
<path d="M256.88,17.12c0.88,1.62,1.29,3.83,0.75,6.75C253.38,46.75,241.75,69.12,227.38,82.75" style="fill:none;stroke:#999;stroke-width:3" />
<path d="M284.0,19.75c2.75,1.75,6,5.38,7.75,8.5" style="fill:none;stroke:black;stroke-width:3" />
<circle cx="284.0" cy="19.75" r="5" stroke-width="0" fill="#FF2A00" opacity="0.7" />
<path d="M335.5,40.62c1.88,1.25,4.51,1.87,7.12,1.5c17.88-2.5,32.78-4.51,42.5-5.88c7.12-1,10.59,0.24,8.62,7.88c-2.12,8.25-4.47,17.81-9.25,29.12C374.0,98.12,370.38,87.75,365.25,85.12" style="fill:none;stroke:#999;stroke-width:3" />
<path d="M365.88,17.12c0.88,1.62,1.29,3.83,0.75,6.75C362.38,46.75,350.75,69.12,336.38,82.75" style="fill:none;stroke:#999;stroke-width:3" />
<path d="M393.0,19.75c2.75,1.75,6,5.38,7.75,8.5" style="fill:none;stroke:#999;stroke-width:3" />
<path d="M399.38,14.88c3.06,1.57,6.68,4.82,8.62,7.62" style="fill:none;stroke:black;stroke-width:3" />
<circle cx="399.38" cy="14.88" r="5" stroke-width="0" fill="#FF2A00" opacity="0.7" />
</svg>