<svg width="545px" height="109px" viewBox="0 0 545px 109px" xmlns="http://www.w3.org/2000/svg" xmlns:xlink="http://www.w3.org/1999/xlink" xml:space="preserve" version="1.1"  baseProfile="full">
<line x1="1" y1="1" x2="544" y2="1" style="stroke:#ddd;stroke-width:2" />
<line x1="1" y1="1" x2="1" y2="108" style="stroke:#ddd;stroke-width:2" />
<line x1="1" y1="108" x2="544" y2="108" style="stroke:#ddd;stroke-width:2" />
<line x1="544" y1="1" x2="544" y2="108" style="stroke:#ddd;stroke-width:2" />
<line x1="109" y1="1" x2="109" y2="108" style="stroke:#ddd;stroke-width:2" />
<line x1="218" y1="1" x2="218" y2="108" style="stroke:#ddd;stroke-width:2" />
<line x1="327" y1="1" x2="327" y2="108" style="stroke:#ddd;stroke-width:2" />
<line x1="436" y1="1" x2="436" y2="108" style="stroke:#ddd;stroke-width:2" />
<line x1="1" y1="54" x2="544" y2="54" style="stroke:#ddd;stroke-width:2;stroke-dasharray:3 3" />
<line x1="55" y1="1" x2="55" y2="108" style="stroke:#ddd;stroke-width:2;stroke-dasharray:3 3" />
<line x1="164" y1="1" x2="164" y2="108" style="stroke:#ddd;stroke-width:2;stroke-dasharray:3 3" />
<line x1="273" y1="1" x2="273" y2="108" style="stroke:#ddd;stroke-width:2;stroke-dasharray:3 3" />
<line x1="382" y1="1" x2="382" y2="108" style="stroke:#ddd;stroke-width:2;stroke-dasharray:3 3" />
<line x1="491" y1="1" x2="491" y2="108" style="stroke:#ddd;stroke-width:2;stroke-dasharray:3 3" />
<path d="M27.46,17.88c0.44,1.9,0.39,4.42-0.59,6.5C22.05,34.69,17.66,44.05,8.0,55" style="fill:none;stroke:black;stroke-width:3" />
<circle cx="27.46" cy="17.88" r="5" stroke-width="0" fill="#FF2A00" opacity="0.7" />
<path d="M136.46,17.88c0.44,1.9,0.39,4.42-0.59,6.5C131.05,34.69,126.66,44.05,117.0,55" style="fill:none;stroke:#999;stroke-width:3" />
<path d="M133.38,37.62c2.12,0.88,4.15,1.04,6.62,0.5c12.62-2.75,25.5-4.88,35.75-6.5c3.61-0.57,6.25-0.75,9.25-0.5" style="fill:none;stroke:black;stroke-width:3" />
<circle cx="133.38" cy="37.62" r="5" stroke-width="0" fill="#FF2A00" opacity="0.7" />
<path d="M245.46,17.88c0.44,1.9,0.39,4.42-0.59,6.5C240.05,34.69,235.66,44.05,226.0,55" style="fill:none;stroke:#999;stroke-width:3" />
<path d="M242.38,37.62c2.12,0.88,4.15,1.04,6.62,0.5c12.62-2.75,25.5-4.88,35.75-6.5c3.61-0.57,6.25-0.75,9.25-0.5" style="fill:none;stroke:#999;stroke-width:3" />
<path d="M268.96,38.88c0.44,1.9,0.5,4.27-0.08,6.5c-3.63,13.75-9.25,31.25-24.63,43.87" style="fill:none;stroke:black;stroke-width:3" />
<circle cx="268.96" cy="38.88" r="5" stroke-width="0" fill="#FF2A00" opacity="0.7" />
<path d="M354.46000000000004,17.88c0.44,1.9,0.39,4.42-0.59,6.5C349.05,34.69,344.65999999999997,44.05,335.0,55" style="fill:none;stroke:#999;stroke-width:3" />
<path d="M351.38,37.62c2.12,0.88,4.15,1.04,6.62,0.5c12.62-2.75,25.5-4.88,35.75-6.5c3.61-0.57,6.25-0.75,9.25-0.5" style="fill:none;stroke:#999;stroke-width:3" />
<path d="M377.96,38.88c0.44,1.9,0.5,4.27-0.08,6.5c-3.63,13.75-9.25,31.25-24.63,43.87" style="fill:none;stroke:#999;stroke-width:3" />
<path d="M397.12,13.94c2.95,1.81,6.43,5.57,8.3,8.81" style="fill:none;stroke:black;stroke-width:3" />
<circle cx="397.12" cy="13.94" r="5" stroke-width="0" fill="#FF2A00" opacity="0.7" />
<path d="M463.46000000000004,17.88c0.44,1.9,0.39,4.42-0.59,6.5C458.05,34.69,453.65999999999997,44.05,444.0,55" style="fill:none;stroke:#999;stroke-width:3" />
<path d="M460.38,37.62c2.12,0.88,4.15,1.04,6.62,0.5c12.62-2.75,25.5-4.88,35.75-6.5c3.61-0.57,6.25-0.75,9.25-0.5" style="fill:none;stroke:#999;stroke-width:3" />
<path d="M486.96,38.88c0.44,1.9,0.5,4.27-0.08,6.5c-3.63,13.75-9.25,31.25-24.63,43.87" style="fill:none;stroke:#999;stroke-width:3" />
<path d="M506.12,13.94c2.95,1.81,6.43,5.57,8.3,8.81" style="fill:none;stroke:#999;stroke-width:3" />
<path d="M512.62,9.12c3.02,1.63,6.58,5,8.5,7.9" style="fill:none;stroke:black;stroke-width:3" />
<circle cx="512.62" cy="9.12" r="5" stroke-width="0" fill="#FF2A00" opacity="0.7" />
</svg>