<svg width="327px" height="109px" viewBox="0 0 327px 109px" xmlns="http://www.w3.org/2000/svg" xmlns:xlink="http://www.w3.org/1999/xlink" xml:space="preserve" version="1.1"  baseProfile="full">
<line x1="1" y1="1" x2="326" y2="1" style="stroke:#ddd;stroke-width:2" />
<line x1="1" y1="1" x2="1" y2="108" style="stroke:#ddd;stroke-width:2" />
<line x1="1" y1="108" x2="326" y2="108" style="stroke:#ddd;stroke-width:2" />
<line x1="326" y1="1" x2="326" y2="108" style="stroke:#ddd;stroke-width:2" />
<line x1="109" y1="1" x2="109" y2="108" style="stroke:#ddd;stroke-width:2" />
<line x1="218" y1="1" x2="218" y2="108" style="stroke:#ddd;stroke-width:2" />
<line x1="1" y1="54" x2="326" y2="54" style="stroke:#ddd;stroke-width:2;stroke-dasharray:3 3" />
<line x1="55" y1="1" x2="55" y2="108" style="stroke:#ddd;stroke-width:2;stroke-dasharray:3 3" />
<line x1="164" y1="1" x2="164" y2="108" style="stroke:#ddd;stroke-width:2;stroke-dasharray:3 3" />
<line x1="273" y1="1" x2="273" y2="108" style="stroke:#ddd;stroke-width:2;stroke-dasharray:3 3" />
<path d="M6.62,51.88c1.89,2.42,3.59,7.57,3.89,11.2" style="fill:none;stroke:black;stroke-width:3" />
<circle cx="6.62" cy="51.88" r="5" stroke-width="0" fill="#FF2A00" opacity="0.7" />
<path d="M115.62,51.88c1.89,2.42,3.59,7.57,3.89,11.2" style="fill:none;stroke:#999;stroke-width:3" />
<path d="M134.86,45.73c2.69,2.83,5.28,7.67,5.58,12.01" style="fill:none;stroke:black;stroke-width:3" />
<circle cx="134.86" cy="45.73" r="5" stroke-width="0" fill="#FF2A00" opacity="0.7" />
<path d="M224.62,51.88c1.89,2.42,3.59,7.57,3.89,11.2" style="fill:none;stroke:#999;stroke-width:3" />
<path d="M243.86,45.73c2.69,2.83,5.28,7.67,5.58,12.01" style="fill:none;stroke:#999;stroke-width:3" />
<path d="M274.96,49.8c0.6,1.82,0.31,4.24-0.6,6.46C268.28,71.09,257.40999999999997,88.7,237.68,97.88" style="fill:none;stroke:black;stroke-width:3" />
<circle cx="274.96" cy="49.8" r="5" stroke-width="0" fill="#FF2A00" opacity="0.7" />
</svg>