<svg width="545px" height="109px" viewBox="0 0 545px 109px" xmlns="http://www.w3.org/2000/svg" xmlns:xlink="http://www.w3.org/1999/xlink" xml:space="preserve" version="1.1"  baseProfile="full">
<line x1="1" y1="1" x2="544" y2="1" style="stroke:#ddd;stroke-width:2" />
<line x1="1" y1="1" x2="1" y2="108" style="stroke:#ddd;stroke-width:2" />
<line x1="1" y1="108" x2="544" y2="108" style="stroke:#ddd;stroke-width:2" />
<line x1="544" y1="1" x2="544" y2="108" style="stroke:#ddd;stroke-width:2" />
<line x1="109" y1="1" x2="109" y2="108" style="stroke:#ddd;stroke-width:2" />
<line x1="218" y1="1" x2="218" y2="108" style="stroke:#ddd;stroke-width:2" />
<line x1="327" y1="1" x2="327" y2="108" style="stroke:#ddd;stroke-width:2" />
<line x1="436" y1="1" x2="436" y2="108" style="stroke:#ddd;stroke-width:2" />
<line x1="1" y1="54" x2="544" y2="54" style="stroke:#ddd;stroke-width:2;stroke-dasharray:3 3" />
<line x1="55" y1="1" x2="55" y2="108" style="stroke:#ddd;stroke-width:2;stroke-dasharray:3 3" />
<line x1="164" y1="1" x2="164" y2="108" style="stroke:#ddd;stroke-width:2;stroke-dasharray:3 3" />
<line x1="273" y1="1" x2="273" y2="108" style="stroke:#ddd;stroke-width:2;stroke-dasharray:3 3" />
<line x1="382" y1="1" x2="382" y2="108" style="stroke:#ddd;stroke-width:2;stroke-dasharray:3 3" />
<line x1="491" y1="1" x2="491" y2="108" style="stroke:#ddd;stroke-width:2;stroke-dasharray:3 3" />
<path d="M58.62,15.25c-0.38,2.62-2.26,4.37-4.12,5.38c-7.88,4.25-18.62,9.75-35.5,13.25" style="fill:none;stroke:black;stroke-width:3" />
<circle cx="58.62" cy="15.25" r="5" stroke-width="0" fill="#FF2A00" opacity="0.7" />
<path d="M167.62,15.25c-0.38,2.62-2.26,4.37-4.12,5.38c-7.88,4.25-18.62,9.75-35.5,13.25" style="fill:none;stroke:#999;stroke-width:3" />
<path d="M116.12,51.5c2.88,0.88,4.39,1.65,7.88,1.25c22-2.5,36.38-4.25,56.12-4.88C185.0,47.72,188.0,48.38,191.0,49.38" style="fill:none;stroke:black;stroke-width:3" />
<circle cx="116.12" cy="51.5" r="5" stroke-width="0" fill="#FF2A00" opacity="0.7" />
<path d="M276.62,15.25c-0.38,2.62-2.26,4.37-4.12,5.38c-7.88,4.25-18.62,9.75-35.5,13.25" style="fill:none;stroke:#999;stroke-width:3" />
<path d="M225.12,51.5c2.88,0.88,4.39,1.65,7.88,1.25c22-2.5,36.38-4.25,56.12-4.88C294.0,47.72,297.0,48.38,300.0,49.38" style="fill:none;stroke:#999;stroke-width:3" />
<path d="M261.5,30.75c0.88,0.75,1.75,2.49,1.75,4.75c0,6.03,0.03,11.25,0.03,18.27c0,14.98-5.03,29.48-16.53,39.23" style="fill:none;stroke:black;stroke-width:3" />
<circle cx="261.5" cy="30.75" r="5" stroke-width="0" fill="#FF2A00" opacity="0.7" />
<path d="M385.62,15.25c-0.38,2.62-2.26,4.37-4.12,5.38c-7.88,4.25-18.62,9.75-35.5,13.25" style="fill:none;stroke:#999;stroke-width:3" />
<path d="M334.12,51.5c2.88,0.88,4.39,1.65,7.88,1.25c22-2.5,36.38-4.25,56.12-4.88C403.0,47.72,406.0,48.38,409.0,49.38" style="fill:none;stroke:#999;stroke-width:3" />
<path d="M370.5,30.75c0.88,0.75,1.75,2.49,1.75,4.75c0,6.03,0.03,11.25,0.03,18.27c0,14.98-5.03,29.48-16.53,39.23" style="fill:none;stroke:#999;stroke-width:3" />
<path d="M395.5,25.73c2.85,1.78,6.21,5.47,8.03,8.65" style="fill:none;stroke:black;stroke-width:3" />
<circle cx="395.5" cy="25.73" r="5" stroke-width="0" fill="#FF2A00" opacity="0.7" />
<path d="M494.62,15.25c-0.38,2.62-2.26,4.37-4.12,5.38c-7.88,4.25-18.62,9.75-35.5,13.25" style="fill:none;stroke:#999;stroke-width:3" />
<path d="M443.12,51.5c2.88,0.88,4.39,1.65,7.88,1.25c22-2.5,36.38-4.25,56.12-4.88C512.0,47.72,515.0,48.38,518.0,49.38" style="fill:none;stroke:#999;stroke-width:3" />
<path d="M479.5,30.75c0.88,0.75,1.75,2.49,1.75,4.75c0,6.03,0.03,11.25,0.03,18.27c0,14.98-5.03,29.48-16.53,39.23" style="fill:none;stroke:#999;stroke-width:3" />
<path d="M504.5,25.73c2.85,1.78,6.21,5.47,8.03,8.65" style="fill:none;stroke:#999;stroke-width:3" />
<path d="M511.25,21.12c2.93,1.57,6.39,4.83,8.25,7.63" style="fill:none;stroke:black;stroke-width:3" />
<circle cx="511.25" cy="21.12" r="5" stroke-width="0" fill="#FF2A00" opacity="0.7" />
</svg>