<svg width="327px" height="109px" viewBox="0 0 327px 109px" xmlns="http://www.w3.org/2000/svg" xmlns:xlink="http://www.w3.org/1999/xlink" xml:space="preserve" version="1.1"  baseProfile="full">
<line x1="1" y1="1" x2="326" y2="1" style="stroke:#ddd;stroke-width:2" />
<line x1="1" y1="1" x2="1" y2="108" style="stroke:#ddd;stroke-width:2" />
<line x1="1" y1="108" x2="326" y2="108" style="stroke:#ddd;stroke-width:2" />
<line x1="326" y1="1" x2="326" y2="108" style="stroke:#ddd;stroke-width:2" />
<line x1="109" y1="1" x2="109" y2="108" style="stroke:#ddd;stroke-width:2" />
<line x1="218" y1="1" x2="218" y2="108" style="stroke:#ddd;stroke-width:2" />
<line x1="1" y1="54" x2="326" y2="54" style="stroke:#ddd;stroke-width:2;stroke-dasharray:3 3" />
<line x1="55" y1="1" x2="55" y2="108" style="stroke:#ddd;stroke-width:2;stroke-dasharray:3 3" />
<line x1="164" y1="1" x2="164" y2="108" style="stroke:#ddd;stroke-width:2;stroke-dasharray:3 3" />
<line x1="273" y1="1" x2="273" y2="108" style="stroke:#ddd;stroke-width:2;stroke-dasharray:3 3" />
<path d="M28.7,36.62c0.38,1.14,0.38,2.84-0.12,4.14C23.12,54.75,15.5,64.88,6.62,73.25" style="fill:none;stroke:black;stroke-width:3" />
<circle cx="28.7" cy="36.62" r="5" stroke-width="0" fill="#FF2A00" opacity="0.7" />
<path d="M137.7,36.62c0.38,1.14,0.38,2.84-0.12,4.14C132.12,54.75,124.5,64.88,115.62,73.25" style="fill:none;stroke:#999;stroke-width:3" />
<path d="M164.12,36.38c13,9.12,23.12,22.62,28,33.38" style="fill:none;stroke:black;stroke-width:3" />
<circle cx="164.12" cy="36.38" r="5" stroke-width="0" fill="#FF2A00" opacity="0.7" />
<path d="M246.7,36.62c0.38,1.14,0.38,2.84-0.12,4.14C241.12,54.75,233.5,64.88,224.62,73.25" style="fill:none;stroke:#999;stroke-width:3" />
<path d="M273.12,36.38c13,9.12,23.12,22.62,28,33.38" style="fill:none;stroke:#999;stroke-width:3" />
<path d="M293.62,30.12c-9.62,0-9.25-14.25,0-14.25C303.38,15.88,303.12,30.12,293.62,30.12" style="fill:none;stroke:black;stroke-width:3" />
<circle cx="293.62" cy="30.12" r="5" stroke-width="0" fill="#FF2A00" opacity="0.7" />
</svg>