<svg width="436px" height="109px" viewBox="0 0 436px 109px" xmlns="http://www.w3.org/2000/svg" xmlns:xlink="http://www.w3.org/1999/xlink" xml:space="preserve" version="1.1"  baseProfile="full">
<line x1="1" y1="1" x2="435" y2="1" style="stroke:#ddd;stroke-width:2" />
<line x1="1" y1="1" x2="1" y2="108" style="stroke:#ddd;stroke-width:2" />
<line x1="1" y1="108" x2="435" y2="108" style="stroke:#ddd;stroke-width:2" />
<line x1="435" y1="1" x2="435" y2="108" style="stroke:#ddd;stroke-width:2" />
<line x1="109" y1="1" x2="109" y2="108" style="stroke:#ddd;stroke-width:2" />
<line x1="218" y1="1" x2="218" y2="108" style="stroke:#ddd;stroke-width:2" />
<line x1="327" y1="1" x2="327" y2="108" style="stroke:#ddd;stroke-width:2" />
<line x1="1" y1="54" x2="435" y2="54" style="stroke:#ddd;stroke-width:2;stroke-dasharray:3 3" />
<line x1="55" y1="1" x2="55" y2="108" style="stroke:#ddd;stroke-width:2;stroke-dasharray:3 3" />
<line x1="164" y1="1" x2="164" y2="108" style="stroke:#ddd;stroke-width:2;stroke-dasharray:3 3" />
<line x1="273" y1="1" x2="273" y2="108" style="stroke:#ddd;stroke-width:2;stroke-dasharray:3 3" />
<line x1="382" y1="1" x2="382" y2="108" style="stroke:#ddd;stroke-width:2;stroke-dasharray:3 3" />
<path d="M35.88,12.38c3.38,2.12,8,5.88,11,10.88" style="fill:none;stroke:black;stroke-width:3" />
<circle cx="35.88" cy="12.38" r="5" stroke-width="0" fill="#FF2A00" opacity="0.7" />
<path d="M144.88,12.38c3.38,2.12,8,5.88,11,10.88" style="fill:none;stroke:#999;stroke-width:3" />
<path d="M120.38,36.16c2.62,1.46,5.45,1.93,8.5,1.19c10.75-2.6,20.75-4.98,30.88-7.5c6.53-1.62,7.81,1.27,4.62,4.68C152.75,47,141.62,57.88,115.5,72.5" style="fill:none;stroke:black;stroke-width:3" />
<circle cx="120.38" cy="36.16" r="5" stroke-width="0" fill="#FF2A00" opacity="0.7" />
<path d="M253.88,12.38c3.38,2.12,8,5.88,11,10.88" style="fill:none;stroke:#999;stroke-width:3" />
<path d="M229.38,36.16c2.62,1.46,5.45,1.93,8.5,1.19c10.75-2.6,20.75-4.98,30.88-7.5c6.53-1.62,7.81,1.27,4.62,4.68C261.75,47,250.62,57.88,224.5,72.5" style="fill:none;stroke:#999;stroke-width:3" />
<path d="M256.88,54.12c1.38,1.75,1.62,3.5,1.62,6s0,27.5,0,29.38s0,4,0,6.88" style="fill:none;stroke:black;stroke-width:3" />
<circle cx="256.88" cy="54.12" r="5" stroke-width="0" fill="#FF2A00" opacity="0.7" />
<path d="M362.88,12.38c3.38,2.12,8,5.88,11,10.88" style="fill:none;stroke:#999;stroke-width:3" />
<path d="M338.38,36.16c2.62,1.46,5.45,1.93,8.5,1.19c10.75-2.6,20.75-4.98,30.88-7.5c6.53-1.62,7.81,1.27,4.62,4.68C370.75,47,359.62,57.88,333.5,72.5" style="fill:none;stroke:#999;stroke-width:3" />
<path d="M365.88,54.12c1.38,1.75,1.62,3.5,1.62,6s0,27.5,0,29.38s0,4,0,6.88" style="fill:none;stroke:#999;stroke-width:3" />
<path d="M376.88,53.62c12.5,6,19.88,11.75,24.88,18.88" style="fill:none;stroke:black;stroke-width:3" />
<circle cx="376.88" cy="53.62" r="5" stroke-width="0" fill="#FF2A00" opacity="0.7" />
</svg>