<svg width="218px" height="109px" viewBox="0 0 218px 109px" xmlns="http://www.w3.org/2000/svg" xmlns:xlink="http://www.w3.org/1999/xlink" xml:space="preserve" version="1.1"  baseProfile="full">
<line x1="1" y1="1" x2="217" y2="1" style="stroke:#ddd;stroke-width:2" />
<line x1="1" y1="1" x2="1" y2="108" style="stroke:#ddd;stroke-width:2" />
<line x1="1" y1="108" x2="217" y2="108" style="stroke:#ddd;stroke-width:2" />
<line x1="217" y1="1" x2="217" y2="108" style="stroke:#ddd;stroke-width:2" />
<line x1="109" y1="1" x2="109" y2="108" style="stroke:#ddd;stroke-width:2" />
<line x1="1" y1="54" x2="217" y2="54" style="stroke:#ddd;stroke-width:2;stroke-dasharray:3 3" />
<line x1="55" y1="1" x2="55" y2="108" style="stroke:#ddd;stroke-width:2;stroke-dasharray:3 3" />
<line x1="164" y1="1" x2="164" y2="108" style="stroke:#ddd;stroke-width:2;stroke-dasharray:3 3" />
<path d="M28.95,36.88c0.38,1.14,0.46,2.88-0.12,4.14C22.5,54.75,15.5,64.88,6.62,73.25" style="fill:none;stroke:black;stroke-width:3" />
<circle cx="28.95" cy="36.88" r="5" stroke-width="0" fill="#FF2A00" opacity="0.7" />
<path d="M137.95,36.88c0.38,1.14,0.46,2.88-0.12,4.14C131.5,54.75,124.5,64.88,115.62,73.25" style="fill:none;stroke:#999;stroke-width:3" />
<path d="M164.12,36.38c13,9.12,23.12,22.62,28,33.38" style="fill:none;stroke:black;stroke-width:3" />
<circle cx="164.12" cy="36.38" r="5" stroke-width="0" fill="#FF2A00" opacity="0.7" />
</svg>