<svg width="218px" height="109px" viewBox="0 0 218px 109px" xmlns="http://www.w3.org/2000/svg" xmlns:xlink="http://www.w3.org/1999/xlink" xml:space="preserve" version="1.1"  baseProfile="full">
<line x1="1" y1="1" x2="217" y2="1" style="stroke:#ddd;stroke-width:2" />
<line x1="1" y1="1" x2="1" y2="108" style="stroke:#ddd;stroke-width:2" />
<line x1="1" y1="108" x2="217" y2="108" style="stroke:#ddd;stroke-width:2" />
<line x1="217" y1="1" x2="217" y2="108" style="stroke:#ddd;stroke-width:2" />
<line x1="109" y1="1" x2="109" y2="108" style="stroke:#ddd;stroke-width:2" />
<line x1="1" y1="54" x2="217" y2="54" style="stroke:#ddd;stroke-width:2;stroke-dasharray:3 3" />
<line x1="55" y1="1" x2="55" y2="108" style="stroke:#ddd;stroke-width:2;stroke-dasharray:3 3" />
<line x1="164" y1="1" x2="164" y2="108" style="stroke:#ddd;stroke-width:2;stroke-dasharray:3 3" />
<path d="M6.0,30c1.88,1.88,3.5,2.04,6.5,1.62c14.5-2,29-4.38,43.75-6.88c6.82-1.16,10.58,2.29,6.88,9.12C52.75,53,41.88,73.38,13.12,87.5" style="fill:none;stroke:black;stroke-width:3" />
<circle cx="6.0" cy="30.0" r="5" stroke-width="0" fill="#FF2A00" opacity="0.7" />
<path d="M115.0,30c1.88,1.88,3.5,2.04,6.5,1.62c14.5-2,29-4.38,43.75-6.88c6.82-1.16,10.58,2.29,6.88,9.12C161.75,53,150.88,73.38,122.12,87.5" style="fill:none;stroke:#999;stroke-width:3" />
<path d="M183.12,23.88c-9.62,0-9.25-14.25,0-14.25C192.88,9.62,192.62,23.88,183.12,23.88" style="fill:none;stroke:black;stroke-width:3" />
<circle cx="183.12" cy="23.88" r="5" stroke-width="0" fill="#FF2A00" opacity="0.7" />
</svg>