<svg width="218px" height="109px" viewBox="0 0 218px 109px" xmlns="http://www.w3.org/2000/svg" xmlns:xlink="http://www.w3.org/1999/xlink" xml:space="preserve" version="1.1"  baseProfile="full">
<line x1="1" y1="1" x2="217" y2="1" style="stroke:#ddd;stroke-width:2" />
<line x1="1" y1="1" x2="1" y2="108" style="stroke:#ddd;stroke-width:2" />
<line x1="1" y1="108" x2="217" y2="108" style="stroke:#ddd;stroke-width:2" />
<line x1="217" y1="1" x2="217" y2="108" style="stroke:#ddd;stroke-width:2" />
<line x1="109" y1="1" x2="109" y2="108" style="stroke:#ddd;stroke-width:2" />
<line x1="1" y1="54" x2="217" y2="54" style="stroke:#ddd;stroke-width:2;stroke-dasharray:3 3" />
<line x1="55" y1="1" x2="55" y2="108" style="stroke:#ddd;stroke-width:2;stroke-dasharray:3 3" />
<line x1="164" y1="1" x2="164" y2="108" style="stroke:#ddd;stroke-width:2;stroke-dasharray:3 3" />
<path d="M6.38,49.25c2.75,1.5,5.33,0.62,6.88-0.88c4-3.88,9.12-8.75,11.62-11.25C28.0,34,32.11,32.04,36.75,36C47.88,45.5,63.0,58,73.62,66.62c4.23,3.43,7.62,6.62,11.12,9.25" style="fill:none;stroke:black;stroke-width:3" />
<circle cx="6.38" cy="49.25" r="5" stroke-width="0" fill="#FF2A00" opacity="0.7" />
<path d="M115.38,49.25c2.75,1.5,5.33,0.62,6.88-0.88c4-3.88,9.12-8.75,11.62-11.25C137.0,34,141.11,32.04,145.75,36C156.88,45.5,172.0,58,182.62,66.62c4.23,3.43,7.62,6.62,11.12,9.25" style="fill:none;stroke:#999;stroke-width:3" />
<path d="M172.62,36.12c-9.62,0-9.25-14.25,0-14.25C182.38,21.88,182.12,36.12,172.62,36.12" style="fill:none;stroke:black;stroke-width:3" />
<circle cx="172.62" cy="36.12" r="5" stroke-width="0" fill="#FF2A00" opacity="0.7" />
</svg>