<svg width="327px" height="109px" viewBox="0 0 327px 109px" xmlns="http://www.w3.org/2000/svg" xmlns:xlink="http://www.w3.org/1999/xlink" xml:space="preserve" version="1.1"  baseProfile="full">
<line x1="1" y1="1" x2="326" y2="1" style="stroke:#ddd;stroke-width:2" />
<line x1="1" y1="1" x2="1" y2="108" style="stroke:#ddd;stroke-width:2" />
<line x1="1" y1="108" x2="326" y2="108" style="stroke:#ddd;stroke-width:2" />
<line x1="326" y1="1" x2="326" y2="108" style="stroke:#ddd;stroke-width:2" />
<line x1="109" y1="1" x2="109" y2="108" style="stroke:#ddd;stroke-width:2" />
<line x1="218" y1="1" x2="218" y2="108" style="stroke:#ddd;stroke-width:2" />
<line x1="1" y1="54" x2="326" y2="54" style="stroke:#ddd;stroke-width:2;stroke-dasharray:3 3" />
<line x1="55" y1="1" x2="55" y2="108" style="stroke:#ddd;stroke-width:2;stroke-dasharray:3 3" />
<line x1="164" y1="1" x2="164" y2="108" style="stroke:#ddd;stroke-width:2;stroke-dasharray:3 3" />
<line x1="273" y1="1" x2="273" y2="108" style="stroke:#ddd;stroke-width:2;stroke-dasharray:3 3" />
<path d="M13.5,44.5c1.75,1.38,4.51,2.19,6.88,1.88C30.62,45,37.62,43.5,44.62,42.12c3.01-0.59,7.12-1,9.38-0.88" style="fill:none;stroke:black;stroke-width:3" />
<circle cx="13.5" cy="44.5" r="5" stroke-width="0" fill="#FF2A00" opacity="0.7" />
<path d="M122.5,44.5c1.75,1.38,4.51,2.19,6.88,1.88C139.62,45,146.62,43.5,153.62,42.12c3.01-0.59,7.12-1,9.38-0.88" style="fill:none;stroke:#999;stroke-width:3" />
<path d="M118.12,17.62C119.5,18.88,120.0,21,120.0,23.75s-0.88,44-0.88,47.25c0,9.75,4,14.62,13.75,14.62c6,0,16.38,0.12,21.38,0s9.5-0.62,13.5-1.5" style="fill:none;stroke:black;stroke-width:3" />
<circle cx="118.12" cy="17.62" r="5" stroke-width="0" fill="#FF2A00" opacity="0.7" />
<path d="M231.5,44.5c1.75,1.38,4.51,2.19,6.88,1.88C248.62,45,255.62,43.5,262.62,42.12c3.01-0.59,7.12-1,9.38-0.88" style="fill:none;stroke:#999;stroke-width:3" />
<path d="M227.12,17.62C228.5,18.88,229.0,21,229.0,23.75s-0.88,44-0.88,47.25c0,9.75,4,14.62,13.75,14.62c6,0,16.38,0.12,21.38,0s9.5-0.62,13.5-1.5" style="fill:none;stroke:#999;stroke-width:3" />
<path d="M279.12,32.88c-9.62,0-9.25-14.25,0-14.25C288.88,18.62,288.62,32.88,279.12,32.88" style="fill:none;stroke:black;stroke-width:3" />
<circle cx="279.12" cy="32.88" r="5" stroke-width="0" fill="#FF2A00" opacity="0.7" />
</svg>