<svg width="436px" height="109px" viewBox="0 0 436px 109px" xmlns="http://www.w3.org/2000/svg" xmlns:xlink="http://www.w3.org/1999/xlink" xml:space="preserve" version="1.1"  baseProfile="full">
<line x1="1" y1="1" x2="435" y2="1" style="stroke:#ddd;stroke-width:2" />
<line x1="1" y1="1" x2="1" y2="108" style="stroke:#ddd;stroke-width:2" />
<line x1="1" y1="108" x2="435" y2="108" style="stroke:#ddd;stroke-width:2" />
<line x1="435" y1="1" x2="435" y2="108" style="stroke:#ddd;stroke-width:2" />
<line x1="109" y1="1" x2="109" y2="108" style="stroke:#ddd;stroke-width:2" />
<line x1="218" y1="1" x2="218" y2="108" style="stroke:#ddd;stroke-width:2" />
<line x1="327" y1="1" x2="327" y2="108" style="stroke:#ddd;stroke-width:2" />
<line x1="1" y1="54" x2="435" y2="54" style="stroke:#ddd;stroke-width:2;stroke-dasharray:3 3" />
<line x1="55" y1="1" x2="55" y2="108" style="stroke:#ddd;stroke-width:2;stroke-dasharray:3 3" />
<line x1="164" y1="1" x2="164" y2="108" style="stroke:#ddd;stroke-width:2;stroke-dasharray:3 3" />
<line x1="273" y1="1" x2="273" y2="108" style="stroke:#ddd;stroke-width:2;stroke-dasharray:3 3" />
<line x1="382" y1="1" x2="382" y2="108" style="stroke:#ddd;stroke-width:2;stroke-dasharray:3 3" />
<path d="M8.5,40.38c2.62,1,4.75,1.71,9.12,1.25c17.75-1.88,29.25-2.75,45.38-3.88c3.74-0.26,7.38-0.12,11.12,0.62" style="fill:none;stroke:black;stroke-width:3" />
<circle cx="8.5" cy="40.38" r="5" stroke-width="0" fill="#FF2A00" opacity="0.7" />
<path d="M117.5,40.38c2.62,1,4.75,1.71,9.12,1.25c17.75-1.88,29.25-2.75,45.38-3.88c3.74-0.26,7.38-0.12,11.12,0.62" style="fill:none;stroke:#999;stroke-width:3" />
<path d="M148.62,17.12C150.0,19,150.0,21.62,150.0,24.5s-0.12,46.62-0.12,51.88c0,23.12-6.25,11.25-9.75,9.62" style="fill:none;stroke:black;stroke-width:3" />
<circle cx="148.62" cy="17.12" r="5" stroke-width="0" fill="#FF2A00" opacity="0.7" />
<path d="M226.5,40.38c2.62,1,4.75,1.71,9.12,1.25c17.75-1.88,29.25-2.75,45.38-3.88c3.74-0.26,7.38-0.12,11.12,0.62" style="fill:none;stroke:#999;stroke-width:3" />
<path d="M257.62,17.12C259.0,19,259.0,21.62,259.0,24.5s-0.12,46.62-0.12,51.88c0,23.12-6.25,11.25-9.75,9.62" style="fill:none;stroke:#999;stroke-width:3" />
<path d="M231.25,59.38c0.5,9.25-1.38,16.62-6.38,21.88" style="fill:none;stroke:black;stroke-width:3" />
<circle cx="231.25" cy="59.38" r="5" stroke-width="0" fill="#FF2A00" opacity="0.7" />
<path d="M335.5,40.38c2.62,1,4.75,1.71,9.12,1.25c17.75-1.88,29.25-2.75,45.38-3.88c3.74-0.26,7.38-0.12,11.12,0.62" style="fill:none;stroke:#999;stroke-width:3" />
<path d="M366.62,17.12C368.0,19,368.0,21.62,368.0,24.5s-0.12,46.62-0.12,51.88c0,23.12-6.25,11.25-9.75,9.62" style="fill:none;stroke:#999;stroke-width:3" />
<path d="M340.25,59.38c0.5,9.25-1.38,16.62-6.38,21.88" style="fill:none;stroke:#999;stroke-width:3" />
<path d="M386.12,52.75C397.0,62.38,401.62,70.38,402.75,77.62" style="fill:none;stroke:black;stroke-width:3" />
<circle cx="386.12" cy="52.75" r="5" stroke-width="0" fill="#FF2A00" opacity="0.7" />
</svg>