<svg width="327px" height="109px" viewBox="0 0 327px 109px" xmlns="http://www.w3.org/2000/svg" xmlns:xlink="http://www.w3.org/1999/xlink" xml:space="preserve" version="1.1"  baseProfile="full">
<line x1="1" y1="1" x2="326" y2="1" style="stroke:#ddd;stroke-width:2" />
<line x1="1" y1="1" x2="1" y2="108" style="stroke:#ddd;stroke-width:2" />
<line x1="1" y1="108" x2="326" y2="108" style="stroke:#ddd;stroke-width:2" />
<line x1="326" y1="1" x2="326" y2="108" style="stroke:#ddd;stroke-width:2" />
<line x1="109" y1="1" x2="109" y2="108" style="stroke:#ddd;stroke-width:2" />
<line x1="218" y1="1" x2="218" y2="108" style="stroke:#ddd;stroke-width:2" />
<line x1="1" y1="54" x2="326" y2="54" style="stroke:#ddd;stroke-width:2;stroke-dasharray:3 3" />
<line x1="55" y1="1" x2="55" y2="108" style="stroke:#ddd;stroke-width:2;stroke-dasharray:3 3" />
<line x1="164" y1="1" x2="164" y2="108" style="stroke:#ddd;stroke-width:2;stroke-dasharray:3 3" />
<line x1="273" y1="1" x2="273" y2="108" style="stroke:#ddd;stroke-width:2;stroke-dasharray:3 3" />
<path d="M12.12,20c10.4,2.57,20.5,6.3,25,10.38" style="fill:none;stroke:black;stroke-width:3" />
<circle cx="12.12" cy="20.0" r="5" stroke-width="0" fill="#FF2A00" opacity="0.7" />
<path d="M121.12,20c10.4,2.57,20.5,6.3,25,10.38" style="fill:none;stroke:#999;stroke-width:3" />
<path d="M121.25,46.88c10.72,2.69,21.11,6.6,25.75,10.88" style="fill:none;stroke:black;stroke-width:3" />
<circle cx="121.25" cy="46.88" r="5" stroke-width="0" fill="#FF2A00" opacity="0.7" />
<path d="M230.12,20c10.4,2.57,20.5,6.3,25,10.38" style="fill:none;stroke:#999;stroke-width:3" />
<path d="M230.25,46.88c10.72,2.69,21.11,6.6,25.75,10.88" style="fill:none;stroke:#999;stroke-width:3" />
<path d="M224.75,75C240.46,79.49,255.7,86,262.5,93.12" style="fill:none;stroke:black;stroke-width:3" />
<circle cx="224.75" cy="75.0" r="5" stroke-width="0" fill="#FF2A00" opacity="0.7" />
</svg>