<svg width="327px" height="109px" viewBox="0 0 327px 109px" xmlns="http://www.w3.org/2000/svg" xmlns:xlink="http://www.w3.org/1999/xlink" xml:space="preserve" version="1.1"  baseProfile="full">
<line x1="1" y1="1" x2="326" y2="1" style="stroke:#ddd;stroke-width:2" />
<line x1="1" y1="1" x2="1" y2="108" style="stroke:#ddd;stroke-width:2" />
<line x1="1" y1="108" x2="326" y2="108" style="stroke:#ddd;stroke-width:2" />
<line x1="326" y1="1" x2="326" y2="108" style="stroke:#ddd;stroke-width:2" />
<line x1="109" y1="1" x2="109" y2="108" style="stroke:#ddd;stroke-width:2" />
<line x1="218" y1="1" x2="218" y2="108" style="stroke:#ddd;stroke-width:2" />
<line x1="1" y1="54" x2="326" y2="54" style="stroke:#ddd;stroke-width:2;stroke-dasharray:3 3" />
<line x1="55" y1="1" x2="55" y2="108" style="stroke:#ddd;stroke-width:2;stroke-dasharray:3 3" />
<line x1="164" y1="1" x2="164" y2="108" style="stroke:#ddd;stroke-width:2;stroke-dasharray:3 3" />
<line x1="273" y1="1" x2="273" y2="108" style="stroke:#ddd;stroke-width:2;stroke-dasharray:3 3" />
<path d="M21.25,28.32c2.62,2.18,5.86,2.38,8.75,1.98c12.12-1.68,19.01-2.14,31.75-3.93c3.73-0.52,6.93,2.16,3,6C59.0,38,50.12,46,48.12,47.62" style="fill:none;stroke:black;stroke-width:3" />
<circle cx="21.25" cy="28.32" r="5" stroke-width="0" fill="#FF2A00" opacity="0.7" />
<path d="M130.25,28.32c2.62,2.18,5.86,2.38,8.75,1.98c12.12-1.68,19.01-2.14,31.75-3.93c3.73-0.52,6.93,2.16,3,6C168.0,38,159.12,46,157.12,47.62" style="fill:none;stroke:#999;stroke-width:3" />
<path d="M152.21,47.12c1.08,1.48,1.3,2.96,1.21,4.71c-0.54,11.29-0.67,15.08-0.81,21.54" style="fill:none;stroke:black;stroke-width:3" />
<circle cx="152.21" cy="47.12" r="5" stroke-width="0" fill="#FF2A00" opacity="0.7" />
<path d="M239.25,28.32c2.62,2.18,5.86,2.38,8.75,1.98c12.12-1.68,19.01-2.14,31.75-3.93c3.73-0.52,6.93,2.16,3,6C277.0,38,268.12,46,266.12,47.62" style="fill:none;stroke:#999;stroke-width:3" />
<path d="M261.21000000000004,47.12c1.08,1.48,1.3,2.96,1.21,4.71c-0.54,11.29-0.67,15.08-0.81,21.54" style="fill:none;stroke:#999;stroke-width:3" />
<path d="M224.38,76.23c2.54,1.09,5.3,1.98,8.75,1.55c21.5-2.66,36.66-3.44,56.57-3.59c4.83-0.04,8.88,0.62,12.18,2.02" style="fill:none;stroke:black;stroke-width:3" />
<circle cx="224.38" cy="76.23" r="5" stroke-width="0" fill="#FF2A00" opacity="0.7" />
</svg>