<svg width="218px" height="109px" viewBox="0 0 218px 109px" xmlns="http://www.w3.org/2000/svg" xmlns:xlink="http://www.w3.org/1999/xlink" xml:space="preserve" version="1.1"  baseProfile="full">
<line x1="1" y1="1" x2="217" y2="1" style="stroke:#ddd;stroke-width:2" />
<line x1="1" y1="1" x2="1" y2="108" style="stroke:#ddd;stroke-width:2" />
<line x1="1" y1="108" x2="217" y2="108" style="stroke:#ddd;stroke-width:2" />
<line x1="217" y1="1" x2="217" y2="108" style="stroke:#ddd;stroke-width:2" />
<line x1="109" y1="1" x2="109" y2="108" style="stroke:#ddd;stroke-width:2" />
<line x1="1" y1="54" x2="217" y2="54" style="stroke:#ddd;stroke-width:2;stroke-dasharray:3 3" />
<line x1="55" y1="1" x2="55" y2="108" style="stroke:#ddd;stroke-width:2;stroke-dasharray:3 3" />
<line x1="164" y1="1" x2="164" y2="108" style="stroke:#ddd;stroke-width:2;stroke-dasharray:3 3" />
<path d="M8.75,23.62c1.5,1.25,2.16,3.14,2.38,5.38c0.96,10.07,0.89,8.17,1.89,19.38c0.31,3.4,0.59,6.58,0.86,9.38" style="fill:none;stroke:black;stroke-width:3" />
<circle cx="8.75" cy="23.62" r="5" stroke-width="0" fill="#FF2A00" opacity="0.7" />
<path d="M117.75,23.62c1.5,1.25,2.16,3.14,2.38,5.38c0.96,10.07,0.89,8.17,1.89,19.38c0.31,3.4,0.59,6.58,0.86,9.38" style="fill:none;stroke:#999;stroke-width:3" />
<path d="M120.5,26.38c3.12,0.38,5.16,0.22,8.23-0.06C142.5,25.03,155.88,24,170.38,22.62c8.04-0.76,9.44,0.51,8.38,6.62C174.0,56.5,158.12,76.88,134.88,90.75" style="fill:none;stroke:black;stroke-width:3" />
<circle cx="120.5" cy="26.38" r="5" stroke-width="0" fill="#FF2A00" opacity="0.7" />
</svg>