<svg width="436px" height="109px" viewBox="0 0 436px 109px" xmlns="http://www.w3.org/2000/svg" xmlns:xlink="http://www.w3.org/1999/xlink" xml:space="preserve" version="1.1"  baseProfile="full">
<line x1="1" y1="1" x2="435" y2="1" style="stroke:#ddd;stroke-width:2" />
<line x1="1" y1="1" x2="1" y2="108" style="stroke:#ddd;stroke-width:2" />
<line x1="1" y1="108" x2="435" y2="108" style="stroke:#ddd;stroke-width:2" />
<line x1="435" y1="1" x2="435" y2="108" style="stroke:#ddd;stroke-width:2" />
<line x1="109" y1="1" x2="109" y2="108" style="stroke:#ddd;stroke-width:2" />
<line x1="218" y1="1" x2="218" y2="108" style="stroke:#ddd;stroke-width:2" />
<line x1="327" y1="1" x2="327" y2="108" style="stroke:#ddd;stroke-width:2" />
<line x1="1" y1="54" x2="435" y2="54" style="stroke:#ddd;stroke-width:2;stroke-dasharray:3 3" />
<line x1="55" y1="1" x2="55" y2="108" style="stroke:#ddd;stroke-width:2;stroke-dasharray:3 3" />
<line x1="164" y1="1" x2="164" y2="108" style="stroke:#ddd;stroke-width:2;stroke-dasharray:3 3" />
<line x1="273" y1="1" x2="273" y2="108" style="stroke:#ddd;stroke-width:2;stroke-dasharray:3 3" />
<line x1="382" y1="1" x2="382" y2="108" style="stroke:#ddd;stroke-width:2;stroke-dasharray:3 3" />
<path d="M13.0,24.12c1.5,1.25,2.16,3.14,2.38,5.38c0.96,10.07,0.89,8.17,1.89,19.38c0.31,3.4,0.59,6.58,0.86,9.38" style="fill:none;stroke:black;stroke-width:3" />
<circle cx="13.0" cy="24.12" r="5" stroke-width="0" fill="#FF2A00" opacity="0.7" />
<path d="M122.0,24.12c1.5,1.25,2.16,3.14,2.38,5.38c0.96,10.07,0.89,8.17,1.89,19.38c0.31,3.4,0.59,6.58,0.86,9.38" style="fill:none;stroke:#999;stroke-width:3" />
<path d="M124.75,26.88c3.12,0.38,5.16,0.22,8.23-0.06c13.76-1.28,27.14-2.31,41.64-3.69c8.04-0.76,9.44,0.51,8.38,6.62C178.25,57,162.38,77.38,139.12,91.25" style="fill:none;stroke:black;stroke-width:3" />
<circle cx="124.75" cy="26.88" r="5" stroke-width="0" fill="#FF2A00" opacity="0.7" />
<path d="M231.0,24.12c1.5,1.25,2.16,3.14,2.38,5.38c0.96,10.07,0.89,8.17,1.89,19.38c0.31,3.4,0.59,6.58,0.86,9.38" style="fill:none;stroke:#999;stroke-width:3" />
<path d="M233.75,26.88c3.12,0.38,5.16,0.22,8.23-0.06c13.76-1.28,27.14-2.31,41.64-3.69c8.04-0.76,9.44,0.51,8.38,6.62C287.25,57,271.38,77.38,248.12,91.25" style="fill:none;stroke:#999;stroke-width:3" />
<path d="M295.0,12.38c2.61,1.93,5.7,5.93,7.36,9.37" style="fill:none;stroke:black;stroke-width:3" />
<circle cx="295.0" cy="12.38" r="5" stroke-width="0" fill="#FF2A00" opacity="0.7" />
<path d="M340.0,24.12c1.5,1.25,2.16,3.14,2.38,5.38c0.96,10.07,0.89,8.17,1.89,19.38c0.31,3.4,0.59,6.58,0.86,9.38" style="fill:none;stroke:#999;stroke-width:3" />
<path d="M342.75,26.88c3.12,0.38,5.16,0.22,8.23-0.06c13.76-1.28,27.14-2.31,41.64-3.69c8.04-0.76,9.44,0.51,8.38,6.62C396.25,57,380.38,77.38,357.12,91.25" style="fill:none;stroke:#999;stroke-width:3" />
<path d="M404.0,12.38c2.61,1.93,5.7,5.93,7.36,9.37" style="fill:none;stroke:#999;stroke-width:3" />
<path d="M410.06,7.25c2.82,1.78,6.15,5.48,7.94,8.66" style="fill:none;stroke:black;stroke-width:3" />
<circle cx="410.06" cy="7.25" r="5" stroke-width="0" fill="#FF2A00" opacity="0.7" />
</svg>