<svg width="1199px" height="109px" viewBox="0 0 1199px 109px" xmlns="http://www.w3.org/2000/svg" xmlns:xlink="http://www.w3.org/1999/xlink" xml:space="preserve" version="1.1"  baseProfile="full">
<line x1="1" y1="1" x2="1198" y2="1" style="stroke:#ddd;stroke-width:2" />
<line x1="1" y1="1" x2="1" y2="108" style="stroke:#ddd;stroke-width:2" />
<line x1="1" y1="108" x2="1198" y2="108" style="stroke:#ddd;stroke-width:2" />
<line x1="1198" y1="1" x2="1198" y2="108" style="stroke:#ddd;stroke-width:2" />
<line x1="109" y1="1" x2="109" y2="108" style="stroke:#ddd;stroke-width:2" />
<line x1="218" y1="1" x2="218" y2="108" style="stroke:#ddd;stroke-width:2" />
<line x1="327" y1="1" x2="327" y2="108" style="stroke:#ddd;stroke-width:2" />
<line x1="436" y1="1" x2="436" y2="108" style="stroke:#ddd;stroke-width:2" />
<line x1="545" y1="1" x2="545" y2="108" style="stroke:#ddd;stroke-width:2" />
<line x1="654" y1="1" x2="654" y2="108" style="stroke:#ddd;stroke-width:2" />
<line x1="763" y1="1" x2="763" y2="108" style="stroke:#ddd;stroke-width:2" />
<line x1="872" y1="1" x2="872" y2="108" style="stroke:#ddd;stroke-width:2" />
<line x1="981" y1="1" x2="981" y2="108" style="stroke:#ddd;stroke-width:2" />
<line x1="1090" y1="1" x2="1090" y2="108" style="stroke:#ddd;stroke-width:2" />
<line x1="1" y1="54" x2="1198" y2="54" style="stroke:#ddd;stroke-width:2;stroke-dasharray:3 3" />
<line x1="55" y1="1" x2="55" y2="108" style="stroke:#ddd;stroke-width:2;stroke-dasharray:3 3" />
<line x1="164" y1="1" x2="164" y2="108" style="stroke:#ddd;stroke-width:2;stroke-dasharray:3 3" />
<line x1="273" y1="1" x2="273" y2="108" style="stroke:#ddd;stroke-width:2;stroke-dasharray:3 3" />
<line x1="382" y1="1" x2="382" y2="108" style="stroke:#ddd;stroke-width:2;stroke-dasharray:3 3" />
<line x1="491" y1="1" x2="491" y2="108" style="stroke:#ddd;stroke-width:2;stroke-dasharray:3 3" />
<line x1="600" y1="1" x2="600" y2="108" style="stroke:#ddd;stroke-width:2;stroke-dasharray:3 3" />
<line x1="709" y1="1" x2="709" y2="108" style="stroke:#ddd;stroke-width:2;stroke-dasharray:3 3" />
<line x1="818" y1="1" x2="818" y2="108" style="stroke:#ddd;stroke-width:2;stroke-dasharray:3 3" />
<line x1="927" y1="1" x2="927" y2="108" style="stroke:#ddd;stroke-width:2;stroke-dasharray:3 3" />
<line x1="1036" y1="1" x2="1036" y2="108" style="stroke:#ddd;stroke-width:2;stroke-dasharray:3 3" />
<line x1="1145" y1="1" x2="1145" y2="108" style="stroke:#ddd;stroke-width:2;stroke-dasharray:3 3" />
<path d="M31.49,17.14c0.13,1.16-0.17,2.4-0.62,3.8c-3.75,11.68-10.5,24.8-21.57,38.27" style="fill:none;stroke:black;stroke-width:3" />
<circle cx="31.49" cy="17.14" r="5" stroke-width="0" fill="#FF2A00" opacity="0.7" />
<path d="M140.49,17.14c0.13,1.16-0.17,2.4-0.62,3.8c-3.75,11.68-10.5,24.8-21.57,38.27" style="fill:none;stroke:#999;stroke-width:3" />
<path d="M133.78,39.5c0.92,0.92,1.01,1.88,1.01,3.73c0,9.57-0.02,27.97-0.03,40.52c0,4.53-0.01,8.3-0.01,10.62" style="fill:none;stroke:black;stroke-width:3" />
<circle cx="133.78" cy="39.5" r="5" stroke-width="0" fill="#FF2A00" opacity="0.7" />
<path d="M249.49,17.14c0.13,1.16-0.17,2.4-0.62,3.8c-3.75,11.68-10.5,24.8-21.57,38.27" style="fill:none;stroke:#999;stroke-width:3" />
<path d="M242.78,39.5c0.92,0.92,1.01,1.88,1.01,3.73c0,9.57-0.02,27.97-0.03,40.52c0,4.53-0.01,8.3-0.01,10.62" style="fill:none;stroke:#999;stroke-width:3" />
<path d="M260.31,21.1c2.82,1.93,7.11,7.97,7.81,10.98" style="fill:none;stroke:black;stroke-width:3" />
<circle cx="260.31" cy="21.1" r="5" stroke-width="0" fill="#FF2A00" opacity="0.7" />
<path d="M358.49,17.14c0.13,1.16-0.17,2.4-0.62,3.8c-3.75,11.68-10.5,24.8-21.57,38.27" style="fill:none;stroke:#999;stroke-width:3" />
<path d="M351.78,39.5c0.92,0.92,1.01,1.88,1.01,3.73c0,9.57-0.02,27.97-0.03,40.52c0,4.53-0.01,8.3-0.01,10.62" style="fill:none;stroke:#999;stroke-width:3" />
<path d="M369.31,21.1c2.82,1.93,7.11,7.97,7.81,10.98" style="fill:none;stroke:#999;stroke-width:3" />
<path d="M409.37,15.78c0.04,1.12-0.23,2.12-0.8,3c-1.9,3.3-4.01,6.69-8,11.3" style="fill:none;stroke:black;stroke-width:3" />
<circle cx="409.37" cy="15.78" r="5" stroke-width="0" fill="#FF2A00" opacity="0.7" />
<path d="M467.49,17.14c0.13,1.16-0.17,2.4-0.62,3.8c-3.75,11.68-10.5,24.8-21.57,38.27" style="fill:none;stroke:#999;stroke-width:3" />
<path d="M460.78,39.5c0.92,0.92,1.01,1.88,1.01,3.73c0,9.57-0.02,27.97-0.03,40.52c0,4.53-0.01,8.3-0.01,10.62" style="fill:none;stroke:#999;stroke-width:3" />
<path d="M478.31,21.1c2.82,1.93,7.11,7.97,7.81,10.98" style="fill:none;stroke:#999;stroke-width:3" />
<path d="M518.37,15.78c0.04,1.12-0.23,2.12-0.8,3c-1.9,3.3-4.01,6.69-8,11.3" style="fill:none;stroke:#999;stroke-width:3" />
<path d="M475.21,38.12c3.72,0.08,7.41-0.2,11.05-0.85c8.42-1.38,19.77-2.98,28.88-3.99c3.42-0.41,6.85-0.47,10.31-0.17" style="fill:none;stroke:black;stroke-width:3" />
<circle cx="475.21" cy="38.12" r="5" stroke-width="0" fill="#FF2A00" opacity="0.7" />
<path d="M576.49,17.14c0.13,1.16-0.17,2.4-0.62,3.8c-3.75,11.68-10.5,24.8-21.57,38.27" style="fill:none;stroke:#999;stroke-width:3" />
<path d="M569.78,39.5c0.92,0.92,1.01,1.88,1.01,3.73c0,9.57-0.02,27.97-0.03,40.52c0,4.53-0.01,8.3-0.01,10.62" style="fill:none;stroke:#999;stroke-width:3" />
<path d="M587.31,21.1c2.82,1.93,7.11,7.97,7.81,10.98" style="fill:none;stroke:#999;stroke-width:3" />
<path d="M627.37,15.78c0.04,1.12-0.23,2.12-0.8,3c-1.9,3.3-4.01,6.69-8,11.3" style="fill:none;stroke:#999;stroke-width:3" />
<path d="M584.21,38.12c3.72,0.08,7.41-0.2,11.05-0.85c8.42-1.38,19.77-2.98,28.88-3.99c3.42-0.41,6.85-0.47,10.31-0.17" style="fill:none;stroke:#999;stroke-width:3" />
<path d="M579.25,50.56c4.62,0.44,8.31,0.08,12.61-0.42c16.01-1.89,23.51-3.01,37.51-3.97c3.66-0.25,7.32-0.35,10.99-0.1" style="fill:none;stroke:black;stroke-width:3" />
<circle cx="579.25" cy="50.56" r="5" stroke-width="0" fill="#FF2A00" opacity="0.7" />
<path d="M685.49,17.14c0.13,1.16-0.17,2.4-0.62,3.8c-3.75,11.68-10.5,24.8-21.57,38.27" style="fill:none;stroke:#999;stroke-width:3" />
<path d="M678.78,39.5c0.92,0.92,1.01,1.88,1.01,3.73c0,9.57-0.02,27.97-0.03,40.52c0,4.53-0.01,8.3-0.01,10.62" style="fill:none;stroke:#999;stroke-width:3" />
<path d="M696.31,21.1c2.82,1.93,7.11,7.97,7.81,10.98" style="fill:none;stroke:#999;stroke-width:3" />
<path d="M736.37,15.78c0.04,1.12-0.23,2.12-0.8,3c-1.9,3.3-4.01,6.69-8,11.3" style="fill:none;stroke:#999;stroke-width:3" />
<path d="M693.21,38.12c3.72,0.08,7.41-0.2,11.05-0.85c8.42-1.38,19.77-2.98,28.88-3.99c3.42-0.41,6.85-0.47,10.31-0.17" style="fill:none;stroke:#999;stroke-width:3" />
<path d="M688.25,50.56c4.62,0.44,8.31,0.08,12.61-0.42c16.01-1.89,23.51-3.01,37.51-3.97c3.66-0.25,7.32-0.35,10.99-0.1" style="fill:none;stroke:#999;stroke-width:3" />
<path d="M717.71,13.75c0.17,1.5,0.23,2.83-0.35,4.81C712.5,35.25,703.75,59,686.25,73.76" style="fill:none;stroke:black;stroke-width:3" />
<circle cx="717.71" cy="13.75" r="5" stroke-width="0" fill="#FF2A00" opacity="0.7" />
<path d="M794.49,17.14c0.13,1.16-0.17,2.4-0.62,3.8c-3.75,11.68-10.5,24.8-21.57,38.27" style="fill:none;stroke:#999;stroke-width:3" />
<path d="M787.78,39.5c0.92,0.92,1.01,1.88,1.01,3.73c0,9.57-0.02,27.97-0.03,40.52c0,4.53-0.01,8.3-0.01,10.62" style="fill:none;stroke:#999;stroke-width:3" />
<path d="M805.31,21.1c2.82,1.93,7.11,7.97,7.81,10.98" style="fill:none;stroke:#999;stroke-width:3" />
<path d="M845.37,15.78c0.04,1.12-0.23,2.12-0.8,3c-1.9,3.3-4.01,6.69-8,11.3" style="fill:none;stroke:#999;stroke-width:3" />
<path d="M802.21,38.12c3.72,0.08,7.41-0.2,11.05-0.85c8.42-1.38,19.77-2.98,28.88-3.99c3.42-0.41,6.85-0.47,10.31-0.17" style="fill:none;stroke:#999;stroke-width:3" />
<path d="M797.25,50.56c4.62,0.44,8.31,0.08,12.61-0.42c16.01-1.89,23.51-3.01,37.51-3.97c3.66-0.25,7.32-0.35,10.99-0.1" style="fill:none;stroke:#999;stroke-width:3" />
<path d="M826.71,13.75c0.17,1.5,0.23,2.83-0.35,4.81C821.5,35.25,812.75,59,795.25,73.76" style="fill:none;stroke:#999;stroke-width:3" />
<path d="M829.08,40.07c4.44,4.45,13.5,14.67,20.35,21.42c3.3,3.04,6.66,5.65,10.57,7.84" style="fill:none;stroke:black;stroke-width:3" />
<circle cx="829.08" cy="40.07" r="5" stroke-width="0" fill="#FF2A00" opacity="0.7" />
<path d="M903.49,17.14c0.13,1.16-0.17,2.4-0.62,3.8c-3.75,11.68-10.5,24.8-21.57,38.27" style="fill:none;stroke:#999;stroke-width:3" />
<path d="M896.78,39.5c0.92,0.92,1.01,1.88,1.01,3.73c0,9.57-0.02,27.97-0.03,40.52c0,4.53-0.01,8.3-0.01,10.62" style="fill:none;stroke:#999;stroke-width:3" />
<path d="M914.31,21.1c2.82,1.93,7.11,7.97,7.81,10.98" style="fill:none;stroke:#999;stroke-width:3" />
<path d="M954.37,15.78c0.04,1.12-0.23,2.12-0.8,3c-1.9,3.3-4.01,6.69-8,11.3" style="fill:none;stroke:#999;stroke-width:3" />
<path d="M911.21,38.12c3.72,0.08,7.41-0.2,11.05-0.85c8.42-1.38,19.77-2.98,28.88-3.99c3.42-0.41,6.85-0.47,10.31-0.17" style="fill:none;stroke:#999;stroke-width:3" />
<path d="M906.25,50.56c4.62,0.44,8.31,0.08,12.61-0.42c16.01-1.89,23.51-3.01,37.51-3.97c3.66-0.25,7.32-0.35,10.99-0.1" style="fill:none;stroke:#999;stroke-width:3" />
<path d="M935.71,13.75c0.17,1.5,0.23,2.83-0.35,4.81C930.5,35.25,921.75,59,904.25,73.76" style="fill:none;stroke:#999;stroke-width:3" />
<path d="M938.08,40.07c4.44,4.45,13.5,14.67,20.35,21.42c3.3,3.04,6.66,5.65,10.57,7.84" style="fill:none;stroke:#999;stroke-width:3" />
<path d="M923.46,62.83c2,0.48,4.01,0.53,6.03,0.15c4.41-0.8,10.94-2.43,14.12-3.13c2.04-0.45,3.54,0.45,3.02,2.78c-0.42,1.85-1.33,6.09-1.95,9.58" style="fill:none;stroke:black;stroke-width:3" />
<circle cx="923.46" cy="62.83" r="5" stroke-width="0" fill="#FF2A00" opacity="0.7" />
<path d="M1012.49,17.14c0.13,1.16-0.17,2.4-0.62,3.8c-3.75,11.68-10.5,24.8-21.57,38.27" style="fill:none;stroke:#999;stroke-width:3" />
<path d="M1005.78,39.5c0.92,0.92,1.01,1.88,1.01,3.73c0,9.57-0.02,27.97-0.03,40.52c0,4.53-0.01,8.3-0.01,10.62" style="fill:none;stroke:#999;stroke-width:3" />
<path d="M1023.31,21.1c2.82,1.93,7.11,7.97,7.81,10.98" style="fill:none;stroke:#999;stroke-width:3" />
<path d="M1063.37,15.78c0.04,1.12-0.23,2.12-0.8,3c-1.9,3.3-4.01,6.69-8,11.3" style="fill:none;stroke:#999;stroke-width:3" />
<path d="M1020.21,38.12c3.72,0.08,7.41-0.2,11.05-0.85c8.42-1.38,19.77-2.98,28.88-3.99c3.42-0.41,6.85-0.47,10.31-0.17" style="fill:none;stroke:#999;stroke-width:3" />
<path d="M1015.25,50.56c4.62,0.44,8.31,0.08,12.61-0.42c16.01-1.89,23.51-3.01,37.51-3.97c3.66-0.25,7.32-0.35,10.99-0.1" style="fill:none;stroke:#999;stroke-width:3" />
<path d="M1044.71,13.75c0.17,1.5,0.23,2.83-0.35,4.81C1039.5,35.25,1030.75,59,1013.25,73.76" style="fill:none;stroke:#999;stroke-width:3" />
<path d="M1047.08,40.07c4.44,4.45,13.5,14.67,20.35,21.42c3.3,3.04,6.66,5.65,10.57,7.84" style="fill:none;stroke:#999;stroke-width:3" />
<path d="M1032.46,62.83c2,0.48,4.01,0.53,6.03,0.15c4.41-0.8,10.94-2.43,14.12-3.13c2.04-0.45,3.54,0.45,3.02,2.78c-0.42,1.85-1.33,6.09-1.95,9.58" style="fill:none;stroke:#999;stroke-width:3" />
<path d="M1033.69,76.1c3.25-0.25,10.47-1.58,16.82-2.45c1.78-0.25,3.49-0.46,5.03-0.6" style="fill:none;stroke:black;stroke-width:3" />
<circle cx="1033.69" cy="76.1" r="5" stroke-width="0" fill="#FF2A00" opacity="0.7" />
<path d="M1121.49,17.14c0.13,1.16-0.17,2.4-0.62,3.8c-3.75,11.68-10.5,24.8-21.57,38.27" style="fill:none;stroke:#999;stroke-width:3" />
<path d="M1114.78,39.5c0.92,0.92,1.01,1.88,1.01,3.73c0,9.57-0.02,27.97-0.03,40.52c0,4.53-0.01,8.3-0.01,10.62" style="fill:none;stroke:#999;stroke-width:3" />
<path d="M1132.31,21.1c2.82,1.93,7.11,7.97,7.81,10.98" style="fill:none;stroke:#999;stroke-width:3" />
<path d="M1172.37,15.78c0.04,1.12-0.23,2.12-0.8,3c-1.9,3.3-4.01,6.69-8,11.3" style="fill:none;stroke:#999;stroke-width:3" />
<path d="M1129.21,38.12c3.72,0.08,7.41-0.2,11.05-0.85c8.42-1.38,19.77-2.98,28.88-3.99c3.42-0.41,6.85-0.47,10.31-0.17" style="fill:none;stroke:#999;stroke-width:3" />
<path d="M1124.25,50.56c4.62,0.44,8.31,0.08,12.61-0.42c16.01-1.89,23.51-3.01,37.51-3.97c3.66-0.25,7.32-0.35,10.99-0.1" style="fill:none;stroke:#999;stroke-width:3" />
<path d="M1153.71,13.75c0.17,1.5,0.23,2.83-0.35,4.81C1148.5,35.25,1139.75,59,1122.25,73.76" style="fill:none;stroke:#999;stroke-width:3" />
<path d="M1156.08,40.07c4.44,4.45,13.5,14.67,20.35,21.42c3.3,3.04,6.66,5.65,10.57,7.84" style="fill:none;stroke:#999;stroke-width:3" />
<path d="M1141.46,62.83c2,0.48,4.01,0.53,6.03,0.15c4.41-0.8,10.94-2.43,14.12-3.13c2.04-0.45,3.54,0.45,3.02,2.78c-0.42,1.85-1.33,6.09-1.95,9.58" style="fill:none;stroke:#999;stroke-width:3" />
<path d="M1142.69,76.1c3.25-0.25,10.47-1.58,16.82-2.45c1.78-0.25,3.49-0.46,5.03-0.6" style="fill:none;stroke:#999;stroke-width:3" />
<path d="M1140.47,73.93c0.99,0.99,1.34,2.19,1.34,3.71c0,2.98-0.14,5.17-0.14,7.87c0,7.11,1.43,8.5,18.24,8.5c17.64,0,18.63-0.82,18.63-8.78" style="fill:none;stroke:black;stroke-width:3" />
<circle cx="1140.47" cy="73.93" r="5" stroke-width="0" fill="#FF2A00" opacity="0.7" />
</svg>