<svg width="1308px" height="109px" viewBox="0 0 1308px 109px" xmlns="http://www.w3.org/2000/svg" xmlns:xlink="http://www.w3.org/1999/xlink" xml:space="preserve" version="1.1"  baseProfile="full">
<line x1="1" y1="1" x2="1307" y2="1" style="stroke:#ddd;stroke-width:2" />
<line x1="1" y1="1" x2="1" y2="108" style="stroke:#ddd;stroke-width:2" />
<line x1="1" y1="108" x2="1307" y2="108" style="stroke:#ddd;stroke-width:2" />
<line x1="1307" y1="1" x2="1307" y2="108" style="stroke:#ddd;stroke-width:2" />
<line x1="109" y1="1" x2="109" y2="108" style="stroke:#ddd;stroke-width:2" />
<line x1="218" y1="1" x2="218" y2="108" style="stroke:#ddd;stroke-width:2" />
<line x1="327" y1="1" x2="327" y2="108" style="stroke:#ddd;stroke-width:2" />
<line x1="436" y1="1" x2="436" y2="108" style="stroke:#ddd;stroke-width:2" />
<line x1="545" y1="1" x2="545" y2="108" style="stroke:#ddd;stroke-width:2" />
<line x1="654" y1="1" x2="654" y2="108" style="stroke:#ddd;stroke-width:2" />
<line x1="763" y1="1" x2="763" y2="108" style="stroke:#ddd;stroke-width:2" />
<line x1="872" y1="1" x2="872" y2="108" style="stroke:#ddd;stroke-width:2" />
<line x1="981" y1="1" x2="981" y2="108" style="stroke:#ddd;stroke-width:2" />
<line x1="1090" y1="1" x2="1090" y2="108" style="stroke:#ddd;stroke-width:2" />
<line x1="1199" y1="1" x2="1199" y2="108" style="stroke:#ddd;stroke-width:2" />
<line x1="1" y1="54" x2="1307" y2="54" style="stroke:#ddd;stroke-width:2;stroke-dasharray:3 3" />
<line x1="55" y1="1" x2="55" y2="108" style="stroke:#ddd;stroke-width:2;stroke-dasharray:3 3" />
<line x1="164" y1="1" x2="164" y2="108" style="stroke:#ddd;stroke-width:2;stroke-dasharray:3 3" />
<line x1="273" y1="1" x2="273" y2="108" style="stroke:#ddd;stroke-width:2;stroke-dasharray:3 3" />
<line x1="382" y1="1" x2="382" y2="108" style="stroke:#ddd;stroke-width:2;stroke-dasharray:3 3" />
<line x1="491" y1="1" x2="491" y2="108" style="stroke:#ddd;stroke-width:2;stroke-dasharray:3 3" />
<line x1="600" y1="1" x2="600" y2="108" style="stroke:#ddd;stroke-width:2;stroke-dasharray:3 3" />
<line x1="709" y1="1" x2="709" y2="108" style="stroke:#ddd;stroke-width:2;stroke-dasharray:3 3" />
<line x1="818" y1="1" x2="818" y2="108" style="stroke:#ddd;stroke-width:2;stroke-dasharray:3 3" />
<line x1="927" y1="1" x2="927" y2="108" style="stroke:#ddd;stroke-width:2;stroke-dasharray:3 3" />
<line x1="1036" y1="1" x2="1036" y2="108" style="stroke:#ddd;stroke-width:2;stroke-dasharray:3 3" />
<line x1="1145" y1="1" x2="1145" y2="108" style="stroke:#ddd;stroke-width:2;stroke-dasharray:3 3" />
<line x1="1254" y1="1" x2="1254" y2="108" style="stroke:#ddd;stroke-width:2;stroke-dasharray:3 3" />
<path d="M30.51,17.39c0.11,1.1-0.06,2.23-0.35,3.59c-1.85,8.56-9.24,25.38-17.86,36.98" style="fill:none;stroke:black;stroke-width:3" />
<circle cx="30.51" cy="17.39" r="5" stroke-width="0" fill="#FF2A00" opacity="0.7" />
<path d="M139.51,17.39c0.11,1.1-0.06,2.23-0.35,3.59c-1.85,8.56-9.24,25.38-17.86,36.98" style="fill:none;stroke:#999;stroke-width:3" />
<path d="M133.03,41.25c0.8,0.8,1.26,1.88,1.26,3.48c0,9.78-0.02,29.48-0.03,42.4c0,4.28-0.01,7.82-0.01,10" style="fill:none;stroke:black;stroke-width:3" />
<circle cx="133.03" cy="41.25" r="5" stroke-width="0" fill="#FF2A00" opacity="0.7" />
<path d="M248.51,17.39c0.11,1.1-0.06,2.23-0.35,3.59c-1.85,8.56-9.24,25.38-17.86,36.98" style="fill:none;stroke:#999;stroke-width:3" />
<path d="M242.03,41.25c0.8,0.8,1.26,1.88,1.26,3.48c0,9.78-0.02,29.48-0.03,42.4c0,4.28-0.01,7.82-0.01,10" style="fill:none;stroke:#999;stroke-width:3" />
<path d="M256.5,26.88c3.38,0.5,6.25,0.32,9.38-0.09c11.75-1.53,22.5-2.66,36.38-3.72c2.97-0.23,5.83-0.53,8.74,0.19" style="fill:none;stroke:black;stroke-width:3" />
<circle cx="256.5" cy="26.88" r="5" stroke-width="0" fill="#FF2A00" opacity="0.7" />
<path d="M357.51,17.39c0.11,1.1-0.06,2.23-0.35,3.59c-1.85,8.56-9.24,25.38-17.86,36.98" style="fill:none;stroke:#999;stroke-width:3" />
<path d="M351.03,41.25c0.8,0.8,1.26,1.88,1.26,3.48c0,9.78-0.02,29.48-0.03,42.4c0,4.28-0.01,7.82-0.01,10" style="fill:none;stroke:#999;stroke-width:3" />
<path d="M365.5,26.88c3.38,0.5,6.25,0.32,9.38-0.09c11.75-1.53,22.5-2.66,36.38-3.72c2.97-0.23,5.83-0.53,8.74,0.19" style="fill:none;stroke:#999;stroke-width:3" />
<path d="M378.54,14.55c0.83,0.83,1.09,1.97,1.13,2.78c0.33,8.42,0.83,15.54,1,20.14" style="fill:none;stroke:black;stroke-width:3" />
<circle cx="378.54" cy="14.55" r="5" stroke-width="0" fill="#FF2A00" opacity="0.7" />
<path d="M466.51,17.39c0.11,1.1-0.06,2.23-0.35,3.59c-1.85,8.56-9.24,25.38-17.86,36.98" style="fill:none;stroke:#999;stroke-width:3" />
<path d="M460.03,41.25c0.8,0.8,1.26,1.88,1.26,3.48c0,9.78-0.02,29.48-0.03,42.4c0,4.28-0.01,7.82-0.01,10" style="fill:none;stroke:#999;stroke-width:3" />
<path d="M474.5,26.88c3.38,0.5,6.25,0.32,9.38-0.09c11.75-1.53,22.5-2.66,36.38-3.72c2.97-0.23,5.83-0.53,8.74,0.19" style="fill:none;stroke:#999;stroke-width:3" />
<path d="M487.54,14.55c0.83,0.83,1.09,1.97,1.13,2.78c0.33,8.42,0.83,15.54,1,20.14" style="fill:none;stroke:#999;stroke-width:3" />
<path d="M512.13,12.37c0.62,1.5,0.52,2.55,0.27,3.89c-1.47,7.9-2.14,11.79-3.74,19.23" style="fill:none;stroke:black;stroke-width:3" />
<circle cx="512.13" cy="12.37" r="5" stroke-width="0" fill="#FF2A00" opacity="0.7" />
<path d="M575.51,17.39c0.11,1.1-0.06,2.23-0.35,3.59c-1.85,8.56-9.24,25.38-17.86,36.98" style="fill:none;stroke:#999;stroke-width:3" />
<path d="M569.03,41.25c0.8,0.8,1.26,1.88,1.26,3.48c0,9.78-0.02,29.48-0.03,42.4c0,4.28-0.01,7.82-0.01,10" style="fill:none;stroke:#999;stroke-width:3" />
<path d="M583.5,26.88c3.38,0.5,6.25,0.32,9.38-0.09c11.75-1.53,22.5-2.66,36.38-3.72c2.97-0.23,5.83-0.53,8.74,0.19" style="fill:none;stroke:#999;stroke-width:3" />
<path d="M596.54,14.55c0.83,0.83,1.09,1.97,1.13,2.78c0.33,8.42,0.83,15.54,1,20.14" style="fill:none;stroke:#999;stroke-width:3" />
<path d="M621.13,12.37c0.62,1.5,0.52,2.55,0.27,3.89c-1.47,7.9-2.14,11.79-3.74,19.23" style="fill:none;stroke:#999;stroke-width:3" />
<path d="M588.25,43.45c0.65,0.65,1.17,1.61,1.31,2.44c0.78,3.91,1.44,7.18,2.03,10.32c0.31,1.66,0.61,3.29,0.89,4.96" style="fill:none;stroke:black;stroke-width:3" />
<circle cx="588.25" cy="43.45" r="5" stroke-width="0" fill="#FF2A00" opacity="0.7" />
<path d="M684.51,17.39c0.11,1.1-0.06,2.23-0.35,3.59c-1.85,8.56-9.24,25.38-17.86,36.98" style="fill:none;stroke:#999;stroke-width:3" />
<path d="M678.03,41.25c0.8,0.8,1.26,1.88,1.26,3.48c0,9.78-0.02,29.48-0.03,42.4c0,4.28-0.01,7.82-0.01,10" style="fill:none;stroke:#999;stroke-width:3" />
<path d="M692.5,26.88c3.38,0.5,6.25,0.32,9.38-0.09c11.75-1.53,22.5-2.66,36.38-3.72c2.97-0.23,5.83-0.53,8.74,0.19" style="fill:none;stroke:#999;stroke-width:3" />
<path d="M705.54,14.55c0.83,0.83,1.09,1.97,1.13,2.78c0.33,8.42,0.83,15.54,1,20.14" style="fill:none;stroke:#999;stroke-width:3" />
<path d="M730.13,12.37c0.62,1.5,0.52,2.55,0.27,3.89c-1.47,7.9-2.14,11.79-3.74,19.23" style="fill:none;stroke:#999;stroke-width:3" />
<path d="M697.25,43.45c0.65,0.65,1.17,1.61,1.31,2.44c0.78,3.91,1.44,7.18,2.03,10.32c0.31,1.66,0.61,3.29,0.89,4.96" style="fill:none;stroke:#999;stroke-width:3" />
<path d="M698.87,44.73c8.88-1.19,31.36-4.33,37.63-4.99c1.92-0.2,3.66,1.42,3.08,3.31c-1.05,3.45-2.14,5.99-4.19,10.95" style="fill:none;stroke:black;stroke-width:3" />
<circle cx="698.87" cy="44.73" r="5" stroke-width="0" fill="#FF2A00" opacity="0.7" />
<path d="M793.51,17.39c0.11,1.1-0.06,2.23-0.35,3.59c-1.85,8.56-9.24,25.38-17.86,36.98" style="fill:none;stroke:#999;stroke-width:3" />
<path d="M787.03,41.25c0.8,0.8,1.26,1.88,1.26,3.48c0,9.78-0.02,29.48-0.03,42.4c0,4.28-0.01,7.82-0.01,10" style="fill:none;stroke:#999;stroke-width:3" />
<path d="M801.5,26.88c3.38,0.5,6.25,0.32,9.38-0.09c11.75-1.53,22.5-2.66,36.38-3.72c2.97-0.23,5.83-0.53,8.74,0.19" style="fill:none;stroke:#999;stroke-width:3" />
<path d="M814.54,14.55c0.83,0.83,1.09,1.97,1.13,2.78c0.33,8.42,0.83,15.54,1,20.14" style="fill:none;stroke:#999;stroke-width:3" />
<path d="M839.13,12.37c0.62,1.5,0.52,2.55,0.27,3.89c-1.47,7.9-2.14,11.79-3.74,19.23" style="fill:none;stroke:#999;stroke-width:3" />
<path d="M806.25,43.45c0.65,0.65,1.17,1.61,1.31,2.44c0.78,3.91,1.44,7.18,2.03,10.32c0.31,1.66,0.61,3.29,0.89,4.96" style="fill:none;stroke:#999;stroke-width:3" />
<path d="M807.87,44.73c8.88-1.19,31.36-4.33,37.63-4.99c1.92-0.2,3.66,1.42,3.08,3.31c-1.05,3.45-2.14,5.99-4.19,10.95" style="fill:none;stroke:#999;stroke-width:3" />
<path d="M811.11,58.96c4.64-0.39,20.56-2.52,30.02-3.52c2.03-0.21,3.76-0.38,5.02-0.46" style="fill:none;stroke:black;stroke-width:3" />
<circle cx="811.11" cy="58.96" r="5" stroke-width="0" fill="#FF2A00" opacity="0.7" />
<path d="M902.51,17.39c0.11,1.1-0.06,2.23-0.35,3.59c-1.85,8.56-9.24,25.38-17.86,36.98" style="fill:none;stroke:#999;stroke-width:3" />
<path d="M896.03,41.25c0.8,0.8,1.26,1.88,1.26,3.48c0,9.78-0.02,29.48-0.03,42.4c0,4.28-0.01,7.82-0.01,10" style="fill:none;stroke:#999;stroke-width:3" />
<path d="M910.5,26.88c3.38,0.5,6.25,0.32,9.38-0.09c11.75-1.53,22.5-2.66,36.38-3.72c2.97-0.23,5.83-0.53,8.74,0.19" style="fill:none;stroke:#999;stroke-width:3" />
<path d="M923.54,14.55c0.83,0.83,1.09,1.97,1.13,2.78c0.33,8.42,0.83,15.54,1,20.14" style="fill:none;stroke:#999;stroke-width:3" />
<path d="M948.13,12.37c0.62,1.5,0.52,2.55,0.27,3.89c-1.47,7.9-2.14,11.79-3.74,19.23" style="fill:none;stroke:#999;stroke-width:3" />
<path d="M915.25,43.45c0.65,0.65,1.17,1.61,1.31,2.44c0.78,3.91,1.44,7.18,2.03,10.32c0.31,1.66,0.61,3.29,0.89,4.96" style="fill:none;stroke:#999;stroke-width:3" />
<path d="M916.87,44.73c8.88-1.19,31.36-4.33,37.63-4.99c1.92-0.2,3.66,1.42,3.08,3.31c-1.05,3.45-2.14,5.99-4.19,10.95" style="fill:none;stroke:#999;stroke-width:3" />
<path d="M920.11,58.96c4.64-0.39,20.56-2.52,30.02-3.52c2.03-0.21,3.76-0.38,5.02-0.46" style="fill:none;stroke:#999;stroke-width:3" />
<path d="M934.97,44.23c0.96,0.96,1,2.35,1,3.54c0,3.73-0.25,34.98-0.25,44.16" style="fill:none;stroke:black;stroke-width:3" />
<circle cx="934.97" cy="44.23" r="5" stroke-width="0" fill="#FF2A00" opacity="0.7" />
<path d="M1011.51,17.39c0.11,1.1-0.06,2.23-0.35,3.59c-1.85,8.56-9.24,25.38-17.86,36.98" style="fill:none;stroke:#999;stroke-width:3" />
<path d="M1005.03,41.25c0.8,0.8,1.26,1.88,1.26,3.48c0,9.78-0.02,29.48-0.03,42.4c0,4.28-0.01,7.82-0.01,10" style="fill:none;stroke:#999;stroke-width:3" />
<path d="M1019.5,26.88c3.38,0.5,6.25,0.32,9.38-0.09c11.75-1.53,22.5-2.66,36.38-3.72c2.97-0.23,5.83-0.53,8.74,0.19" style="fill:none;stroke:#999;stroke-width:3" />
<path d="M1032.54,14.55c0.83,0.83,1.09,1.97,1.13,2.78c0.33,8.42,0.83,15.54,1,20.14" style="fill:none;stroke:#999;stroke-width:3" />
<path d="M1057.13,12.37c0.62,1.5,0.52,2.55,0.27,3.89c-1.47,7.9-2.14,11.79-3.74,19.23" style="fill:none;stroke:#999;stroke-width:3" />
<path d="M1024.25,43.45c0.65,0.65,1.17,1.61,1.31,2.44c0.78,3.91,1.44,7.18,2.03,10.32c0.31,1.66,0.61,3.29,0.89,4.96" style="fill:none;stroke:#999;stroke-width:3" />
<path d="M1025.87,44.73c8.88-1.19,31.36-4.33,37.63-4.99c1.92-0.2,3.66,1.42,3.08,3.31c-1.05,3.45-2.14,5.99-4.19,10.95" style="fill:none;stroke:#999;stroke-width:3" />
<path d="M1029.1100000000001,58.96c4.64-0.39,20.56-2.52,30.02-3.52c2.03-0.21,3.76-0.38,5.02-0.46" style="fill:none;stroke:#999;stroke-width:3" />
<path d="M1043.97,44.23c0.96,0.96,1,2.35,1,3.54c0,3.73-0.25,34.98-0.25,44.16" style="fill:none;stroke:#999;stroke-width:3" />
<path d="M1028.13,70.75c1.94,0.51,3.9,0.56,5.87,0.16c5.98-0.57,16.16-2.08,22.88-2.87c1.78-0.34,3.57-0.38,5.37-0.12" style="fill:none;stroke:black;stroke-width:3" />
<circle cx="1028.13" cy="70.75" r="5" stroke-width="0" fill="#FF2A00" opacity="0.7" />
<path d="M1120.51,17.39c0.11,1.1-0.06,2.23-0.35,3.59c-1.85,8.56-9.24,25.38-17.86,36.98" style="fill:none;stroke:#999;stroke-width:3" />
<path d="M1114.03,41.25c0.8,0.8,1.26,1.88,1.26,3.48c0,9.78-0.02,29.48-0.03,42.4c0,4.28-0.01,7.82-0.01,10" style="fill:none;stroke:#999;stroke-width:3" />
<path d="M1128.5,26.88c3.38,0.5,6.25,0.32,9.38-0.09c11.75-1.53,22.5-2.66,36.38-3.72c2.97-0.23,5.83-0.53,8.74,0.19" style="fill:none;stroke:#999;stroke-width:3" />
<path d="M1141.54,14.55c0.83,0.83,1.09,1.97,1.13,2.78c0.33,8.42,0.83,15.54,1,20.14" style="fill:none;stroke:#999;stroke-width:3" />
<path d="M1166.13,12.37c0.62,1.5,0.52,2.55,0.27,3.89c-1.47,7.9-2.14,11.79-3.74,19.23" style="fill:none;stroke:#999;stroke-width:3" />
<path d="M1133.25,43.45c0.65,0.65,1.17,1.61,1.31,2.44c0.78,3.91,1.44,7.18,2.03,10.32c0.31,1.66,0.61,3.29,0.89,4.96" style="fill:none;stroke:#999;stroke-width:3" />
<path d="M1134.87,44.73c8.88-1.19,31.36-4.33,37.63-4.99c1.92-0.2,3.66,1.42,3.08,3.31c-1.05,3.45-2.14,5.99-4.19,10.95" style="fill:none;stroke:#999;stroke-width:3" />
<path d="M1138.1100000000001,58.96c4.64-0.39,20.56-2.52,30.02-3.52c2.03-0.21,3.76-0.38,5.02-0.46" style="fill:none;stroke:#999;stroke-width:3" />
<path d="M1152.97,44.23c0.96,0.96,1,2.35,1,3.54c0,3.73-0.25,34.98-0.25,44.16" style="fill:none;stroke:#999;stroke-width:3" />
<path d="M1137.13,70.75c1.94,0.51,3.9,0.56,5.87,0.16c5.98-0.57,16.16-2.08,22.88-2.87c1.78-0.34,3.57-0.38,5.37-0.12" style="fill:none;stroke:#999;stroke-width:3" />
<path d="M1135.0,81.59c2.77,0.9,5.51,0.62,8.27,0.29c7.95-0.97,15.48-2,22.98-3.15c2.43-0.38,5.11-0.65,7.54-0.31" style="fill:none;stroke:black;stroke-width:3" />
<circle cx="1135.0" cy="81.59" r="5" stroke-width="0" fill="#FF2A00" opacity="0.7" />
<path d="M1229.51,17.39c0.11,1.1-0.06,2.23-0.35,3.59c-1.85,8.56-9.24,25.38-17.86,36.98" style="fill:none;stroke:#999;stroke-width:3" />
<path d="M1223.03,41.25c0.8,0.8,1.26,1.88,1.26,3.48c0,9.78-0.02,29.48-0.03,42.4c0,4.28-0.01,7.82-0.01,10" style="fill:none;stroke:#999;stroke-width:3" />
<path d="M1237.5,26.88c3.38,0.5,6.25,0.32,9.38-0.09c11.75-1.53,22.5-2.66,36.38-3.72c2.97-0.23,5.83-0.53,8.74,0.19" style="fill:none;stroke:#999;stroke-width:3" />
<path d="M1250.54,14.55c0.83,0.83,1.09,1.97,1.13,2.78c0.33,8.42,0.83,15.54,1,20.14" style="fill:none;stroke:#999;stroke-width:3" />
<path d="M1275.13,12.37c0.62,1.5,0.52,2.55,0.27,3.89c-1.47,7.9-2.14,11.79-3.74,19.23" style="fill:none;stroke:#999;stroke-width:3" />
<path d="M1242.25,43.45c0.65,0.65,1.17,1.61,1.31,2.44c0.78,3.91,1.44,7.18,2.03,10.32c0.31,1.66,0.61,3.29,0.89,4.96" style="fill:none;stroke:#999;stroke-width:3" />
<path d="M1243.87,44.73c8.88-1.19,31.36-4.33,37.63-4.99c1.92-0.2,3.66,1.42,3.08,3.31c-1.05,3.45-2.14,5.99-4.19,10.95" style="fill:none;stroke:#999;stroke-width:3" />
<path d="M1247.1100000000001,58.96c4.64-0.39,20.56-2.52,30.02-3.52c2.03-0.21,3.76-0.38,5.02-0.46" style="fill:none;stroke:#999;stroke-width:3" />
<path d="M1261.97,44.23c0.96,0.96,1,2.35,1,3.54c0,3.73-0.25,34.98-0.25,44.16" style="fill:none;stroke:#999;stroke-width:3" />
<path d="M1246.13,70.75c1.94,0.51,3.9,0.56,5.87,0.16c5.98-0.57,16.16-2.08,22.88-2.87c1.78-0.34,3.57-0.38,5.37-0.12" style="fill:none;stroke:#999;stroke-width:3" />
<path d="M1244.0,81.59c2.77,0.9,5.51,0.62,8.27,0.29c7.95-0.97,15.48-2,22.98-3.15c2.43-0.38,5.11-0.65,7.54-0.31" style="fill:none;stroke:#999;stroke-width:3" />
<path d="M1236.38,93.99c2.74,0.84,5.53,0.98,8.36,0.42c13.37-1.42,28.02-3.31,40.51-3.71c3.56-0.11,6.12,0.17,8.67,0.99" style="fill:none;stroke:black;stroke-width:3" />
<circle cx="1236.38" cy="93.99" r="5" stroke-width="0" fill="#FF2A00" opacity="0.7" />
</svg>