<svg width="872px" height="109px" viewBox="0 0 872px 109px" xmlns="http://www.w3.org/2000/svg" xmlns:xlink="http://www.w3.org/1999/xlink" xml:space="preserve" version="1.1"  baseProfile="full">
<line x1="1" y1="1" x2="871" y2="1" style="stroke:#ddd;stroke-width:2" />
<line x1="1" y1="1" x2="1" y2="108" style="stroke:#ddd;stroke-width:2" />
<line x1="1" y1="108" x2="871" y2="108" style="stroke:#ddd;stroke-width:2" />
<line x1="871" y1="1" x2="871" y2="108" style="stroke:#ddd;stroke-width:2" />
<line x1="109" y1="1" x2="109" y2="108" style="stroke:#ddd;stroke-width:2" />
<line x1="218" y1="1" x2="218" y2="108" style="stroke:#ddd;stroke-width:2" />
<line x1="327" y1="1" x2="327" y2="108" style="stroke:#ddd;stroke-width:2" />
<line x1="436" y1="1" x2="436" y2="108" style="stroke:#ddd;stroke-width:2" />
<line x1="545" y1="1" x2="545" y2="108" style="stroke:#ddd;stroke-width:2" />
<line x1="654" y1="1" x2="654" y2="108" style="stroke:#ddd;stroke-width:2" />
<line x1="763" y1="1" x2="763" y2="108" style="stroke:#ddd;stroke-width:2" />
<line x1="1" y1="54" x2="871" y2="54" style="stroke:#ddd;stroke-width:2;stroke-dasharray:3 3" />
<line x1="55" y1="1" x2="55" y2="108" style="stroke:#ddd;stroke-width:2;stroke-dasharray:3 3" />
<line x1="164" y1="1" x2="164" y2="108" style="stroke:#ddd;stroke-width:2;stroke-dasharray:3 3" />
<line x1="273" y1="1" x2="273" y2="108" style="stroke:#ddd;stroke-width:2;stroke-dasharray:3 3" />
<line x1="382" y1="1" x2="382" y2="108" style="stroke:#ddd;stroke-width:2;stroke-dasharray:3 3" />
<line x1="491" y1="1" x2="491" y2="108" style="stroke:#ddd;stroke-width:2;stroke-dasharray:3 3" />
<line x1="600" y1="1" x2="600" y2="108" style="stroke:#ddd;stroke-width:2;stroke-dasharray:3 3" />
<line x1="709" y1="1" x2="709" y2="108" style="stroke:#ddd;stroke-width:2;stroke-dasharray:3 3" />
<line x1="818" y1="1" x2="818" y2="108" style="stroke:#ddd;stroke-width:2;stroke-dasharray:3 3" />
<path d="M75.19,10.5c0.13,0.41-1.03,2.12-1.77,2.66C63.75,20.25,52.75,23,25.0,28.04" style="fill:none;stroke:black;stroke-width:3" />
<circle cx="75.19" cy="10.5" r="5" stroke-width="0" fill="#FF2A00" opacity="0.7" />
<path d="M184.19,10.5c0.13,0.41-1.03,2.12-1.77,2.66C172.75,20.25,161.75,23,134.0,28.04" style="fill:none;stroke:#999;stroke-width:3" />
<path d="M135.5,39.1c0.5,0.47,1.02,0.86,1.24,1.45c1.75,4.66,3.34,12.53,4.54,20.91" style="fill:none;stroke:black;stroke-width:3" />
<circle cx="135.5" cy="39.1" r="5" stroke-width="0" fill="#FF2A00" opacity="0.7" />
<path d="M293.19,10.5c0.13,0.41-1.03,2.12-1.77,2.66C281.75,20.25,270.75,23,243.0,28.04" style="fill:none;stroke:#999;stroke-width:3" />
<path d="M244.5,39.1c0.5,0.47,1.02,0.86,1.24,1.45c1.75,4.66,3.34,12.53,4.54,20.91" style="fill:none;stroke:#999;stroke-width:3" />
<path d="M247.64,40.71c12.36-1.96,43.17-5.03,49.55-5.69c2.33-0.24,3.73,2.43,3.4,3.85c-1.38,5.87-1.46,9.43-4.42,17.9" style="fill:none;stroke:black;stroke-width:3" />
<circle cx="247.64" cy="40.71" r="5" stroke-width="0" fill="#FF2A00" opacity="0.7" />
<path d="M402.19,10.5c0.13,0.41-1.03,2.12-1.77,2.66C390.75,20.25,379.75,23,352.0,28.04" style="fill:none;stroke:#999;stroke-width:3" />
<path d="M353.5,39.1c0.5,0.47,1.02,0.86,1.24,1.45c1.75,4.66,3.34,12.53,4.54,20.91" style="fill:none;stroke:#999;stroke-width:3" />
<path d="M356.64,40.71c12.36-1.96,43.17-5.03,49.55-5.69c2.33-0.24,3.73,2.43,3.4,3.85c-1.38,5.87-1.46,9.43-4.42,17.9" style="fill:none;stroke:#999;stroke-width:3" />
<path d="M360.29,59.38c13.46-1.63,33.21-2.63,46.21-2.88" style="fill:none;stroke:black;stroke-width:3" />
<circle cx="360.29" cy="59.38" r="5" stroke-width="0" fill="#FF2A00" opacity="0.7" />
<path d="M511.19,10.5c0.13,0.41-1.03,2.12-1.77,2.66C499.75,20.25,488.75,23,461.0,28.04" style="fill:none;stroke:#999;stroke-width:3" />
<path d="M462.5,39.1c0.5,0.47,1.02,0.86,1.24,1.45c1.75,4.66,3.34,12.53,4.54,20.91" style="fill:none;stroke:#999;stroke-width:3" />
<path d="M465.64,40.71c12.36-1.96,43.17-5.03,49.55-5.69c2.33-0.24,3.73,2.43,3.4,3.85c-1.38,5.87-1.46,9.43-4.42,17.9" style="fill:none;stroke:#999;stroke-width:3" />
<path d="M469.29,59.38c13.46-1.63,33.21-2.63,46.21-2.88" style="fill:none;stroke:#999;stroke-width:3" />
<path d="M488.27,22.83c0.98,0.92,1.67,1.99,1.76,5.02C490.42,42.41,490.0,52.54,490.0,57.5" style="fill:none;stroke:black;stroke-width:3" />
<circle cx="488.27" cy="22.83" r="5" stroke-width="0" fill="#FF2A00" opacity="0.7" />
<path d="M620.19,10.5c0.13,0.41-1.03,2.12-1.77,2.66C608.75,20.25,597.75,23,570.0,28.04" style="fill:none;stroke:#999;stroke-width:3" />
<path d="M571.5,39.1c0.5,0.47,1.02,0.86,1.24,1.45c1.75,4.66,3.34,12.53,4.54,20.91" style="fill:none;stroke:#999;stroke-width:3" />
<path d="M574.64,40.71c12.36-1.96,43.17-5.03,49.55-5.69c2.33-0.24,3.73,2.43,3.4,3.85c-1.38,5.87-1.46,9.43-4.42,17.9" style="fill:none;stroke:#999;stroke-width:3" />
<path d="M578.29,59.38c13.46-1.63,33.21-2.63,46.21-2.88" style="fill:none;stroke:#999;stroke-width:3" />
<path d="M597.27,22.83c0.98,0.92,1.67,1.99,1.76,5.02C599.4200000000001,42.41,599.0,52.54,599.0,57.5" style="fill:none;stroke:#999;stroke-width:3" />
<path d="M591.48,62.5c0.08,0.79,0.17,2.05-0.16,3.18C589.34,72.4,578.9,88.42,562.42,96.17" style="fill:none;stroke:black;stroke-width:3" />
<circle cx="591.48" cy="62.5" r="5" stroke-width="0" fill="#FF2A00" opacity="0.7" />
<path d="M729.19,10.5c0.13,0.41-1.03,2.12-1.77,2.66C717.75,20.25,706.75,23,679.0,28.04" style="fill:none;stroke:#999;stroke-width:3" />
<path d="M680.5,39.1c0.5,0.47,1.02,0.86,1.24,1.45c1.75,4.66,3.34,12.53,4.54,20.91" style="fill:none;stroke:#999;stroke-width:3" />
<path d="M683.64,40.71c12.36-1.96,43.17-5.03,49.55-5.69c2.33-0.24,3.73,2.43,3.4,3.85c-1.38,5.87-1.46,9.43-4.42,17.9" style="fill:none;stroke:#999;stroke-width:3" />
<path d="M687.29,59.38c13.46-1.63,33.21-2.63,46.21-2.88" style="fill:none;stroke:#999;stroke-width:3" />
<path d="M706.27,22.83c0.98,0.92,1.67,1.99,1.76,5.02C708.4200000000001,42.41,708.0,52.54,708.0,57.5" style="fill:none;stroke:#999;stroke-width:3" />
<path d="M700.48,62.5c0.08,0.79,0.17,2.05-0.16,3.18C698.34,72.4,687.9,88.42,671.42,96.17" style="fill:none;stroke:#999;stroke-width:3" />
<path d="M709.99,61.37c0.74,1.19,1.33,2.59,1.38,4.43c0.2,8.19-0.53,14.64-0.53,20.2c0,13,7.17,11.5,19.67,11.53c9.25,0.02,14.34-1.68,15.64-2.62c2.75-2,2.75-8.4,2.75-13" style="fill:none;stroke:black;stroke-width:3" />
<circle cx="709.99" cy="61.37" r="5" stroke-width="0" fill="#FF2A00" opacity="0.7" />
<path d="M838.19,10.5c0.13,0.41-1.03,2.12-1.77,2.66C826.75,20.25,815.75,23,788.0,28.04" style="fill:none;stroke:#999;stroke-width:3" />
<path d="M789.5,39.1c0.5,0.47,1.02,0.86,1.24,1.45c1.75,4.66,3.34,12.53,4.54,20.91" style="fill:none;stroke:#999;stroke-width:3" />
<path d="M792.64,40.71c12.36-1.96,43.17-5.03,49.55-5.69c2.33-0.24,3.73,2.43,3.4,3.85c-1.38,5.87-1.46,9.43-4.42,17.9" style="fill:none;stroke:#999;stroke-width:3" />
<path d="M796.29,59.38c13.46-1.63,33.21-2.63,46.21-2.88" style="fill:none;stroke:#999;stroke-width:3" />
<path d="M815.27,22.83c0.98,0.92,1.67,1.99,1.76,5.02C817.4200000000001,42.41,817.0,52.54,817.0,57.5" style="fill:none;stroke:#999;stroke-width:3" />
<path d="M809.48,62.5c0.08,0.79,0.17,2.05-0.16,3.18C807.34,72.4,796.9,88.42,780.42,96.17" style="fill:none;stroke:#999;stroke-width:3" />
<path d="M818.99,61.37c0.74,1.19,1.33,2.59,1.38,4.43c0.2,8.19-0.53,14.64-0.53,20.2c0,13,7.17,11.5,19.67,11.53c9.25,0.02,14.34-1.68,15.64-2.62c2.75-2,2.75-8.4,2.75-13" style="fill:none;stroke:#999;stroke-width:3" />
<path d="M832.25,69.25c3.62,1.99,9.34,8.16,10.25,11.25" style="fill:none;stroke:black;stroke-width:3" />
<circle cx="832.25" cy="69.25" r="5" stroke-width="0" fill="#FF2A00" opacity="0.7" />
</svg>