<svg width="1199px" height="109px" viewBox="0 0 1199px 109px" xmlns="http://www.w3.org/2000/svg" xmlns:xlink="http://www.w3.org/1999/xlink" xml:space="preserve" version="1.1"  baseProfile="full">
<line x1="1" y1="1" x2="1198" y2="1" style="stroke:#ddd;stroke-width:2" />
<line x1="1" y1="1" x2="1" y2="108" style="stroke:#ddd;stroke-width:2" />
<line x1="1" y1="108" x2="1198" y2="108" style="stroke:#ddd;stroke-width:2" />
<line x1="1198" y1="1" x2="1198" y2="108" style="stroke:#ddd;stroke-width:2" />
<line x1="109" y1="1" x2="109" y2="108" style="stroke:#ddd;stroke-width:2" />
<line x1="218" y1="1" x2="218" y2="108" style="stroke:#ddd;stroke-width:2" />
<line x1="327" y1="1" x2="327" y2="108" style="stroke:#ddd;stroke-width:2" />
<line x1="436" y1="1" x2="436" y2="108" style="stroke:#ddd;stroke-width:2" />
<line x1="545" y1="1" x2="545" y2="108" style="stroke:#ddd;stroke-width:2" />
<line x1="654" y1="1" x2="654" y2="108" style="stroke:#ddd;stroke-width:2" />
<line x1="763" y1="1" x2="763" y2="108" style="stroke:#ddd;stroke-width:2" />
<line x1="872" y1="1" x2="872" y2="108" style="stroke:#ddd;stroke-width:2" />
<line x1="981" y1="1" x2="981" y2="108" style="stroke:#ddd;stroke-width:2" />
<line x1="1090" y1="1" x2="1090" y2="108" style="stroke:#ddd;stroke-width:2" />
<line x1="1" y1="54" x2="1198" y2="54" style="stroke:#ddd;stroke-width:2;stroke-dasharray:3 3" />
<line x1="55" y1="1" x2="55" y2="108" style="stroke:#ddd;stroke-width:2;stroke-dasharray:3 3" />
<line x1="164" y1="1" x2="164" y2="108" style="stroke:#ddd;stroke-width:2;stroke-dasharray:3 3" />
<line x1="273" y1="1" x2="273" y2="108" style="stroke:#ddd;stroke-width:2;stroke-dasharray:3 3" />
<line x1="382" y1="1" x2="382" y2="108" style="stroke:#ddd;stroke-width:2;stroke-dasharray:3 3" />
<line x1="491" y1="1" x2="491" y2="108" style="stroke:#ddd;stroke-width:2;stroke-dasharray:3 3" />
<line x1="600" y1="1" x2="600" y2="108" style="stroke:#ddd;stroke-width:2;stroke-dasharray:3 3" />
<line x1="709" y1="1" x2="709" y2="108" style="stroke:#ddd;stroke-width:2;stroke-dasharray:3 3" />
<line x1="818" y1="1" x2="818" y2="108" style="stroke:#ddd;stroke-width:2;stroke-dasharray:3 3" />
<line x1="927" y1="1" x2="927" y2="108" style="stroke:#ddd;stroke-width:2;stroke-dasharray:3 3" />
<line x1="1036" y1="1" x2="1036" y2="108" style="stroke:#ddd;stroke-width:2;stroke-dasharray:3 3" />
<line x1="1145" y1="1" x2="1145" y2="108" style="stroke:#ddd;stroke-width:2;stroke-dasharray:3 3" />
<path d="M35.73,19.75c-0.23,1.25-0.77,2.33-1.71,3.15c-3.4,2.97-5.09,4.38-10.65,7.47" style="fill:none;stroke:black;stroke-width:3" />
<circle cx="35.73" cy="19.75" r="5" stroke-width="0" fill="#FF2A00" opacity="0.7" />
<path d="M144.73,19.75c-0.23,1.25-0.77,2.33-1.71,3.15c-3.4,2.97-5.09,4.38-10.65,7.47" style="fill:none;stroke:#999;stroke-width:3" />
<path d="M129.53,30.38c0.73,0.73,1.02,2.23,1.02,3.29c-0.04,5.08,0.21,9.58,0,17.33c-0.1,3.6,0.1,4.53,3.27,3.55c2.79-0.87,5.17-1.56,9.92-2.38c1.39-0.37,2.79-0.38,4.2-0.04" style="fill:none;stroke:black;stroke-width:3" />
<circle cx="129.53" cy="30.38" r="5" stroke-width="0" fill="#FF2A00" opacity="0.7" />
<path d="M253.73,19.75c-0.23,1.25-0.77,2.33-1.71,3.15c-3.4,2.97-5.09,4.38-10.65,7.47" style="fill:none;stroke:#999;stroke-width:3" />
<path d="M238.53,30.38c0.73,0.73,1.02,2.23,1.02,3.29c-0.04,5.08,0.21,9.58,0,17.33c-0.1,3.6,0.1,4.53,3.27,3.55c2.79-0.87,5.17-1.56,9.92-2.38c1.39-0.37,2.79-0.38,4.2-0.04" style="fill:none;stroke:#999;stroke-width:3" />
<path d="M272.17,12.75c0,1-0.6,2.35-1.16,3.25c-2.14,3.5-3.52,5-5.52,7.12" style="fill:none;stroke:black;stroke-width:3" />
<circle cx="272.17" cy="12.75" r="5" stroke-width="0" fill="#FF2A00" opacity="0.7" />
<path d="M362.73,19.75c-0.23,1.25-0.77,2.33-1.71,3.15c-3.4,2.97-5.09,4.38-10.65,7.47" style="fill:none;stroke:#999;stroke-width:3" />
<path d="M347.53,30.38c0.73,0.73,1.02,2.23,1.02,3.29c-0.04,5.08,0.21,9.58,0,17.33c-0.1,3.6,0.1,4.53,3.27,3.55c2.79-0.87,5.17-1.56,9.92-2.38c1.39-0.37,2.79-0.38,4.2-0.04" style="fill:none;stroke:#999;stroke-width:3" />
<path d="M381.17,12.75c0,1-0.6,2.35-1.16,3.25c-2.14,3.5-3.52,5-5.52,7.12" style="fill:none;stroke:#999;stroke-width:3" />
<path d="M369.86,24.83c0.84,0.84,1.15,1.87,1.23,2.86c0.13,1.73,0.9,13.29,1.34,21.04c0.15,2.6,0.26,4.78,0.3,6.01" style="fill:none;stroke:black;stroke-width:3" />
<circle cx="369.86" cy="24.83" r="5" stroke-width="0" fill="#FF2A00" opacity="0.7" />
<path d="M471.73,19.75c-0.23,1.25-0.77,2.33-1.71,3.15c-3.4,2.97-5.09,4.38-10.65,7.47" style="fill:none;stroke:#999;stroke-width:3" />
<path d="M456.53,30.38c0.73,0.73,1.02,2.23,1.02,3.29c-0.04,5.08,0.21,9.58,0,17.33c-0.1,3.6,0.1,4.53,3.27,3.55c2.79-0.87,5.17-1.56,9.92-2.38c1.39-0.37,2.79-0.38,4.2-0.04" style="fill:none;stroke:#999;stroke-width:3" />
<path d="M490.17,12.75c0,1-0.6,2.35-1.16,3.25c-2.14,3.5-3.52,5-5.52,7.12" style="fill:none;stroke:#999;stroke-width:3" />
<path d="M478.86,24.83c0.84,0.84,1.15,1.87,1.23,2.86c0.13,1.73,0.9,13.29,1.34,21.04c0.15,2.6,0.26,4.78,0.3,6.01" style="fill:none;stroke:#999;stroke-width:3" />
<path d="M480.55,25.59c1.65-0.1,13.12-1.25,18.56-1.82c2.79-0.29,4.52-0.02,4.15,3.23c-0.48,4.29-1.52,13.32-2.14,20.75c-0.19,2.29-0.34,4.43-0.43,6.23" style="fill:none;stroke:black;stroke-width:3" />
<circle cx="480.55" cy="25.59" r="5" stroke-width="0" fill="#FF2A00" opacity="0.7" />
<path d="M580.73,19.75c-0.23,1.25-0.77,2.33-1.71,3.15c-3.4,2.97-5.09,4.38-10.65,7.47" style="fill:none;stroke:#999;stroke-width:3" />
<path d="M565.53,30.38c0.73,0.73,1.02,2.23,1.02,3.29c-0.04,5.08,0.21,9.58,0,17.33c-0.1,3.6,0.1,4.53,3.27,3.55c2.79-0.87,5.17-1.56,9.92-2.38c1.39-0.37,2.79-0.38,4.2-0.04" style="fill:none;stroke:#999;stroke-width:3" />
<path d="M599.1700000000001,12.75c0,1-0.6,2.35-1.16,3.25c-2.14,3.5-3.52,5-5.52,7.12" style="fill:none;stroke:#999;stroke-width:3" />
<path d="M587.86,24.83c0.84,0.84,1.15,1.87,1.23,2.86c0.13,1.73,0.9,13.29,1.34,21.04c0.15,2.6,0.26,4.78,0.3,6.01" style="fill:none;stroke:#999;stroke-width:3" />
<path d="M589.55,25.59c1.65-0.1,13.12-1.25,18.56-1.82c2.79-0.29,4.52-0.02,4.15,3.23c-0.48,4.29-1.52,13.32-2.14,20.75c-0.19,2.29-0.34,4.43-0.43,6.23" style="fill:none;stroke:#999;stroke-width:3" />
<path d="M591.02,38.63c6.98-0.88,13.1-1.26,19.37-1.83" style="fill:none;stroke:black;stroke-width:3" />
<circle cx="591.02" cy="38.63" r="5" stroke-width="0" fill="#FF2A00" opacity="0.7" />
<path d="M689.73,19.75c-0.23,1.25-0.77,2.33-1.71,3.15c-3.4,2.97-5.09,4.38-10.65,7.47" style="fill:none;stroke:#999;stroke-width:3" />
<path d="M674.53,30.38c0.73,0.73,1.02,2.23,1.02,3.29c-0.04,5.08,0.21,9.58,0,17.33c-0.1,3.6,0.1,4.53,3.27,3.55c2.79-0.87,5.17-1.56,9.92-2.38c1.39-0.37,2.79-0.38,4.2-0.04" style="fill:none;stroke:#999;stroke-width:3" />
<path d="M708.1700000000001,12.75c0,1-0.6,2.35-1.16,3.25c-2.14,3.5-3.52,5-5.52,7.12" style="fill:none;stroke:#999;stroke-width:3" />
<path d="M696.86,24.83c0.84,0.84,1.15,1.87,1.23,2.86c0.13,1.73,0.9,13.29,1.34,21.04c0.15,2.6,0.26,4.78,0.3,6.01" style="fill:none;stroke:#999;stroke-width:3" />
<path d="M698.55,25.59c1.65-0.1,13.12-1.25,18.56-1.82c2.79-0.29,4.52-0.02,4.15,3.23c-0.48,4.29-1.52,13.32-2.14,20.75c-0.19,2.29-0.34,4.43-0.43,6.23" style="fill:none;stroke:#999;stroke-width:3" />
<path d="M700.02,38.63c6.98-0.88,13.1-1.26,19.37-1.83" style="fill:none;stroke:#999;stroke-width:3" />
<path d="M700.93,53.09c5.13-0.4,11.11-1.1,16.58-1.29" style="fill:none;stroke:black;stroke-width:3" />
<circle cx="700.93" cy="53.09" r="5" stroke-width="0" fill="#FF2A00" opacity="0.7" />
<path d="M798.73,19.75c-0.23,1.25-0.77,2.33-1.71,3.15c-3.4,2.97-5.09,4.38-10.65,7.47" style="fill:none;stroke:#999;stroke-width:3" />
<path d="M783.53,30.38c0.73,0.73,1.02,2.23,1.02,3.29c-0.04,5.08,0.21,9.58,0,17.33c-0.1,3.6,0.1,4.53,3.27,3.55c2.79-0.87,5.17-1.56,9.92-2.38c1.39-0.37,2.79-0.38,4.2-0.04" style="fill:none;stroke:#999;stroke-width:3" />
<path d="M817.1700000000001,12.75c0,1-0.6,2.35-1.16,3.25c-2.14,3.5-3.52,5-5.52,7.12" style="fill:none;stroke:#999;stroke-width:3" />
<path d="M805.86,24.83c0.84,0.84,1.15,1.87,1.23,2.86c0.13,1.73,0.9,13.29,1.34,21.04c0.15,2.6,0.26,4.78,0.3,6.01" style="fill:none;stroke:#999;stroke-width:3" />
<path d="M807.55,25.59c1.65-0.1,13.12-1.25,18.56-1.82c2.79-0.29,4.52-0.02,4.15,3.23c-0.48,4.29-1.52,13.32-2.14,20.75c-0.19,2.29-0.34,4.43-0.43,6.23" style="fill:none;stroke:#999;stroke-width:3" />
<path d="M809.02,38.63c6.98-0.88,13.1-1.26,19.37-1.83" style="fill:none;stroke:#999;stroke-width:3" />
<path d="M809.93,53.09c5.13-0.4,11.11-1.1,16.58-1.29" style="fill:none;stroke:#999;stroke-width:3" />
<path d="M835.3,23.09c2.11,0.39,4.22,0.35,6.32-0.11c3.85-0.54,7.13-1.23,10.4-2c2.44-0.58,3.7,0.4,3.37,2.4c-0.76,4.63-3.14,19.75-3.89,25.5" style="fill:none;stroke:black;stroke-width:3" />
<circle cx="835.3" cy="23.09" r="5" stroke-width="0" fill="#FF2A00" opacity="0.7" />
<path d="M907.73,19.75c-0.23,1.25-0.77,2.33-1.71,3.15c-3.4,2.97-5.09,4.38-10.65,7.47" style="fill:none;stroke:#999;stroke-width:3" />
<path d="M892.53,30.38c0.73,0.73,1.02,2.23,1.02,3.29c-0.04,5.08,0.21,9.58,0,17.33c-0.1,3.6,0.1,4.53,3.27,3.55c2.79-0.87,5.17-1.56,9.92-2.38c1.39-0.37,2.79-0.38,4.2-0.04" style="fill:none;stroke:#999;stroke-width:3" />
<path d="M926.1700000000001,12.75c0,1-0.6,2.35-1.16,3.25c-2.14,3.5-3.52,5-5.52,7.12" style="fill:none;stroke:#999;stroke-width:3" />
<path d="M914.86,24.83c0.84,0.84,1.15,1.87,1.23,2.86c0.13,1.73,0.9,13.29,1.34,21.04c0.15,2.6,0.26,4.78,0.3,6.01" style="fill:none;stroke:#999;stroke-width:3" />
<path d="M916.55,25.59c1.65-0.1,13.12-1.25,18.56-1.82c2.79-0.29,4.52-0.02,4.15,3.23c-0.48,4.29-1.52,13.32-2.14,20.75c-0.19,2.29-0.34,4.43-0.43,6.23" style="fill:none;stroke:#999;stroke-width:3" />
<path d="M918.02,38.63c6.98-0.88,13.1-1.26,19.37-1.83" style="fill:none;stroke:#999;stroke-width:3" />
<path d="M918.93,53.09c5.13-0.4,11.11-1.1,16.58-1.29" style="fill:none;stroke:#999;stroke-width:3" />
<path d="M944.3,23.09c2.11,0.39,4.22,0.35,6.32-0.11c3.85-0.54,7.13-1.23,10.4-2c2.44-0.58,3.7,0.4,3.37,2.4c-0.76,4.63-3.14,19.75-3.89,25.5" style="fill:none;stroke:#999;stroke-width:3" />
<path d="M942.25,51.55c1.62,0.18,3.25,0.19,4.87,0.03c3.79-0.26,9.92-1.17,14.79-1.69" style="fill:none;stroke:black;stroke-width:3" />
<circle cx="942.25" cy="51.55" r="5" stroke-width="0" fill="#FF2A00" opacity="0.7" />
<path d="M1016.73,19.75c-0.23,1.25-0.77,2.33-1.71,3.15c-3.4,2.97-5.09,4.38-10.65,7.47" style="fill:none;stroke:#999;stroke-width:3" />
<path d="M1001.53,30.38c0.73,0.73,1.02,2.23,1.02,3.29c-0.04,5.08,0.21,9.58,0,17.33c-0.1,3.6,0.1,4.53,3.27,3.55c2.79-0.87,5.17-1.56,9.92-2.38c1.39-0.37,2.79-0.38,4.2-0.04" style="fill:none;stroke:#999;stroke-width:3" />
<path d="M1035.17,12.75c0,1-0.6,2.35-1.16,3.25c-2.14,3.5-3.52,5-5.52,7.12" style="fill:none;stroke:#999;stroke-width:3" />
<path d="M1023.86,24.83c0.84,0.84,1.15,1.87,1.23,2.86c0.13,1.73,0.9,13.29,1.34,21.04c0.15,2.6,0.26,4.78,0.3,6.01" style="fill:none;stroke:#999;stroke-width:3" />
<path d="M1025.55,25.59c1.65-0.1,13.12-1.25,18.56-1.82c2.79-0.29,4.52-0.02,4.15,3.23c-0.48,4.29-1.52,13.32-2.14,20.75c-0.19,2.29-0.34,4.43-0.43,6.23" style="fill:none;stroke:#999;stroke-width:3" />
<path d="M1027.02,38.63c6.98-0.88,13.1-1.26,19.37-1.83" style="fill:none;stroke:#999;stroke-width:3" />
<path d="M1027.9299999999998,53.09c5.13-0.4,11.11-1.1,16.58-1.29" style="fill:none;stroke:#999;stroke-width:3" />
<path d="M1053.3,23.09c2.11,0.39,4.22,0.35,6.32-0.11c3.85-0.54,7.13-1.23,10.4-2c2.44-0.58,3.7,0.4,3.37,2.4c-0.76,4.63-3.14,19.75-3.89,25.5" style="fill:none;stroke:#999;stroke-width:3" />
<path d="M1051.25,51.55c1.62,0.18,3.25,0.19,4.87,0.03c3.79-0.26,9.92-1.17,14.79-1.69" style="fill:none;stroke:#999;stroke-width:3" />
<path d="M1027.99,62c0.19,1.35,0.11,2.65-0.34,3.88C1024.5,74.5,1016.5,87.5,1001.67,95.92" style="fill:none;stroke:black;stroke-width:3" />
<circle cx="1027.99" cy="62.0" r="5" stroke-width="0" fill="#FF2A00" opacity="0.7" />
<path d="M1125.73,19.75c-0.23,1.25-0.77,2.33-1.71,3.15c-3.4,2.97-5.09,4.38-10.65,7.47" style="fill:none;stroke:#999;stroke-width:3" />
<path d="M1110.53,30.38c0.73,0.73,1.02,2.23,1.02,3.29c-0.04,5.08,0.21,9.58,0,17.33c-0.1,3.6,0.1,4.53,3.27,3.55c2.79-0.87,5.17-1.56,9.92-2.38c1.39-0.37,2.79-0.38,4.2-0.04" style="fill:none;stroke:#999;stroke-width:3" />
<path d="M1144.17,12.75c0,1-0.6,2.35-1.16,3.25c-2.14,3.5-3.52,5-5.52,7.12" style="fill:none;stroke:#999;stroke-width:3" />
<path d="M1132.8600000000001,24.83c0.84,0.84,1.15,1.87,1.23,2.86c0.13,1.73,0.9,13.29,1.34,21.04c0.15,2.6,0.26,4.78,0.3,6.01" style="fill:none;stroke:#999;stroke-width:3" />
<path d="M1134.55,25.59c1.65-0.1,13.12-1.25,18.56-1.82c2.79-0.29,4.52-0.02,4.15,3.23c-0.48,4.29-1.52,13.32-2.14,20.75c-0.19,2.29-0.34,4.43-0.43,6.23" style="fill:none;stroke:#999;stroke-width:3" />
<path d="M1136.02,38.63c6.98-0.88,13.1-1.26,19.37-1.83" style="fill:none;stroke:#999;stroke-width:3" />
<path d="M1136.9299999999998,53.09c5.13-0.4,11.11-1.1,16.58-1.29" style="fill:none;stroke:#999;stroke-width:3" />
<path d="M1162.3,23.09c2.11,0.39,4.22,0.35,6.32-0.11c3.85-0.54,7.13-1.23,10.4-2c2.44-0.58,3.7,0.4,3.37,2.4c-0.76,4.63-3.14,19.75-3.89,25.5" style="fill:none;stroke:#999;stroke-width:3" />
<path d="M1160.25,51.55c1.62,0.18,3.25,0.19,4.87,0.03c3.79-0.26,9.92-1.17,14.79-1.69" style="fill:none;stroke:#999;stroke-width:3" />
<path d="M1136.99,62c0.19,1.35,0.11,2.65-0.34,3.88C1133.5,74.5,1125.5,87.5,1110.67,95.92" style="fill:none;stroke:#999;stroke-width:3" />
<path d="M1150.49,59.62c1.13,1.13,1.1,2.34,1.1,4.18c0,8.45-0.02,14.14-0.02,19.7c0,10.33,1.23,11.28,18.57,11.28c15.54,0,16.52-1.94,17.01-8.87" style="fill:none;stroke:black;stroke-width:3" />
<circle cx="1150.49" cy="59.62" r="5" stroke-width="0" fill="#FF2A00" opacity="0.7" />
</svg>