<svg width="1090px" height="109px" viewBox="0 0 1090px 109px" xmlns="http://www.w3.org/2000/svg" xmlns:xlink="http://www.w3.org/1999/xlink" xml:space="preserve" version="1.1"  baseProfile="full">
<line x1="1" y1="1" x2="1089" y2="1" style="stroke:#ddd;stroke-width:2" />
<line x1="1" y1="1" x2="1" y2="108" style="stroke:#ddd;stroke-width:2" />
<line x1="1" y1="108" x2="1089" y2="108" style="stroke:#ddd;stroke-width:2" />
<line x1="1089" y1="1" x2="1089" y2="108" style="stroke:#ddd;stroke-width:2" />
<line x1="109" y1="1" x2="109" y2="108" style="stroke:#ddd;stroke-width:2" />
<line x1="218" y1="1" x2="218" y2="108" style="stroke:#ddd;stroke-width:2" />
<line x1="327" y1="1" x2="327" y2="108" style="stroke:#ddd;stroke-width:2" />
<line x1="436" y1="1" x2="436" y2="108" style="stroke:#ddd;stroke-width:2" />
<line x1="545" y1="1" x2="545" y2="108" style="stroke:#ddd;stroke-width:2" />
<line x1="654" y1="1" x2="654" y2="108" style="stroke:#ddd;stroke-width:2" />
<line x1="763" y1="1" x2="763" y2="108" style="stroke:#ddd;stroke-width:2" />
<line x1="872" y1="1" x2="872" y2="108" style="stroke:#ddd;stroke-width:2" />
<line x1="981" y1="1" x2="981" y2="108" style="stroke:#ddd;stroke-width:2" />
<line x1="1" y1="54" x2="1089" y2="54" style="stroke:#ddd;stroke-width:2;stroke-dasharray:3 3" />
<line x1="55" y1="1" x2="55" y2="108" style="stroke:#ddd;stroke-width:2;stroke-dasharray:3 3" />
<line x1="164" y1="1" x2="164" y2="108" style="stroke:#ddd;stroke-width:2;stroke-dasharray:3 3" />
<line x1="273" y1="1" x2="273" y2="108" style="stroke:#ddd;stroke-width:2;stroke-dasharray:3 3" />
<line x1="382" y1="1" x2="382" y2="108" style="stroke:#ddd;stroke-width:2;stroke-dasharray:3 3" />
<line x1="491" y1="1" x2="491" y2="108" style="stroke:#ddd;stroke-width:2;stroke-dasharray:3 3" />
<line x1="600" y1="1" x2="600" y2="108" style="stroke:#ddd;stroke-width:2;stroke-dasharray:3 3" />
<line x1="709" y1="1" x2="709" y2="108" style="stroke:#ddd;stroke-width:2;stroke-dasharray:3 3" />
<line x1="818" y1="1" x2="818" y2="108" style="stroke:#ddd;stroke-width:2;stroke-dasharray:3 3" />
<line x1="927" y1="1" x2="927" y2="108" style="stroke:#ddd;stroke-width:2;stroke-dasharray:3 3" />
<line x1="1036" y1="1" x2="1036" y2="108" style="stroke:#ddd;stroke-width:2;stroke-dasharray:3 3" />
<path d="M36.58,13.25c0,0.88-0.3,1.67-0.86,2.21c-3.47,3.29-6.97,6.29-13.72,10.17" style="fill:none;stroke:black;stroke-width:3" />
<circle cx="36.58" cy="13.25" r="5" stroke-width="0" fill="#FF2A00" opacity="0.7" />
<path d="M145.57999999999998,13.25c0,0.88-0.3,1.67-0.86,2.21c-3.47,3.29-6.97,6.29-13.72,10.17" style="fill:none;stroke:#999;stroke-width:3" />
<path d="M125.87,24.76c0.94,0.94,0.97,2.22,0.97,3.12c0,2.62,0.16,31.25,0.16,34.78c0,2.15,0.13,3.59,2.31,2.29c3.51-2.09,5.32-3.32,10.2-6.45" style="fill:none;stroke:black;stroke-width:3" />
<circle cx="125.87" cy="24.76" r="5" stroke-width="0" fill="#FF2A00" opacity="0.7" />
<path d="M254.57999999999998,13.25c0,0.88-0.3,1.67-0.86,2.21c-3.47,3.29-6.97,6.29-13.72,10.17" style="fill:none;stroke:#999;stroke-width:3" />
<path d="M234.87,24.76c0.94,0.94,0.97,2.22,0.97,3.12c0,2.62,0.16,31.25,0.16,34.78c0,2.15,0.13,3.59,2.31,2.29c3.51-2.09,5.32-3.32,10.2-6.45" style="fill:none;stroke:#999;stroke-width:3" />
<path d="M250.06,32.18c1.13,1.13,1.25,2.95,1.31,5.43c0.88,33.77-2.12,43.64-16.48,54.55" style="fill:none;stroke:black;stroke-width:3" />
<circle cx="250.06" cy="32.18" r="5" stroke-width="0" fill="#FF2A00" opacity="0.7" />
<path d="M363.58,13.25c0,0.88-0.3,1.67-0.86,2.21c-3.47,3.29-6.97,6.29-13.72,10.17" style="fill:none;stroke:#999;stroke-width:3" />
<path d="M343.87,24.76c0.94,0.94,0.97,2.22,0.97,3.12c0,2.62,0.16,31.25,0.16,34.78c0,2.15,0.13,3.59,2.31,2.29c3.51-2.09,5.32-3.32,10.2-6.45" style="fill:none;stroke:#999;stroke-width:3" />
<path d="M359.06,32.18c1.13,1.13,1.25,2.95,1.31,5.43c0.88,33.77-2.12,43.64-16.48,54.55" style="fill:none;stroke:#999;stroke-width:3" />
<path d="M369.38,26.25c1.25,0.75,3.23,0.79,4.87,0.37c4.29-0.64,10.05-1.72,12.86-2.23c1.97-0.35,3.46,0.41,3.31,2.73c-0.66,10.25-1.29,21.25-2.03,29.2" style="fill:none;stroke:black;stroke-width:3" />
<circle cx="369.38" cy="26.25" r="5" stroke-width="0" fill="#FF2A00" opacity="0.7" />
<path d="M472.58,13.25c0,0.88-0.3,1.67-0.86,2.21c-3.47,3.29-6.97,6.29-13.72,10.17" style="fill:none;stroke:#999;stroke-width:3" />
<path d="M452.87,24.76c0.94,0.94,0.97,2.22,0.97,3.12c0,2.62,0.16,31.25,0.16,34.78c0,2.15,0.13,3.59,2.31,2.29c3.51-2.09,5.32-3.32,10.2-6.45" style="fill:none;stroke:#999;stroke-width:3" />
<path d="M468.06,32.18c1.13,1.13,1.25,2.95,1.31,5.43c0.88,33.77-2.12,43.64-16.48,54.55" style="fill:none;stroke:#999;stroke-width:3" />
<path d="M478.38,26.25c1.25,0.75,3.23,0.79,4.87,0.37c4.29-0.64,10.05-1.72,12.86-2.23c1.97-0.35,3.46,0.41,3.31,2.73c-0.66,10.25-1.29,21.25-2.03,29.2" style="fill:none;stroke:#999;stroke-width:3" />
<path d="M481.62,40.88c3.64-0.59,12.25-1.78,15.75-2.25" style="fill:none;stroke:black;stroke-width:3" />
<circle cx="481.62" cy="40.88" r="5" stroke-width="0" fill="#FF2A00" opacity="0.7" />
<path d="M581.5799999999999,13.25c0,0.88-0.3,1.67-0.86,2.21c-3.47,3.29-6.97,6.29-13.72,10.17" style="fill:none;stroke:#999;stroke-width:3" />
<path d="M561.87,24.76c0.94,0.94,0.97,2.22,0.97,3.12c0,2.62,0.16,31.25,0.16,34.78c0,2.15,0.13,3.59,2.31,2.29c3.51-2.09,5.32-3.32,10.2-6.45" style="fill:none;stroke:#999;stroke-width:3" />
<path d="M577.06,32.18c1.13,1.13,1.25,2.95,1.31,5.43c0.88,33.77-2.12,43.64-16.48,54.55" style="fill:none;stroke:#999;stroke-width:3" />
<path d="M587.38,26.25c1.25,0.75,3.23,0.79,4.87,0.37c4.29-0.64,10.05-1.72,12.86-2.23c1.97-0.35,3.46,0.41,3.31,2.73c-0.66,10.25-1.29,21.25-2.03,29.2" style="fill:none;stroke:#999;stroke-width:3" />
<path d="M590.62,40.88c3.64-0.59,12.25-1.78,15.75-2.25" style="fill:none;stroke:#999;stroke-width:3" />
<path d="M590.62,56.25c5.62-1,9.08-1.21,14.5-2.12" style="fill:none;stroke:black;stroke-width:3" />
<circle cx="590.62" cy="56.25" r="5" stroke-width="0" fill="#FF2A00" opacity="0.7" />
<path d="M690.5799999999999,13.25c0,0.88-0.3,1.67-0.86,2.21c-3.47,3.29-6.97,6.29-13.72,10.17" style="fill:none;stroke:#999;stroke-width:3" />
<path d="M670.87,24.76c0.94,0.94,0.97,2.22,0.97,3.12c0,2.62,0.16,31.25,0.16,34.78c0,2.15,0.13,3.59,2.31,2.29c3.51-2.09,5.32-3.32,10.2-6.45" style="fill:none;stroke:#999;stroke-width:3" />
<path d="M686.06,32.18c1.13,1.13,1.25,2.95,1.31,5.43c0.88,33.77-2.12,43.64-16.48,54.55" style="fill:none;stroke:#999;stroke-width:3" />
<path d="M696.38,26.25c1.25,0.75,3.23,0.79,4.87,0.37c4.29-0.64,10.05-1.72,12.86-2.23c1.97-0.35,3.46,0.41,3.31,2.73c-0.66,10.25-1.29,21.25-2.03,29.2" style="fill:none;stroke:#999;stroke-width:3" />
<path d="M699.62,40.88c3.64-0.59,12.25-1.78,15.75-2.25" style="fill:none;stroke:#999;stroke-width:3" />
<path d="M699.62,56.25c5.62-1,9.08-1.21,14.5-2.12" style="fill:none;stroke:#999;stroke-width:3" />
<path d="M697.1,27.01c0.92,0.92,1.15,2.6,1.15,3.87c0,1.2,0.07,50.94,0.07,53.91c0,4.11-0.06,5.29,1.92,3.21c1.98-2.08,10.78-9.56,14.63-12.37" style="fill:none;stroke:black;stroke-width:3" />
<circle cx="697.1" cy="27.01" r="5" stroke-width="0" fill="#FF2A00" opacity="0.7" />
<path d="M799.5799999999999,13.25c0,0.88-0.3,1.67-0.86,2.21c-3.47,3.29-6.97,6.29-13.72,10.17" style="fill:none;stroke:#999;stroke-width:3" />
<path d="M779.87,24.76c0.94,0.94,0.97,2.22,0.97,3.12c0,2.62,0.16,31.25,0.16,34.78c0,2.15,0.13,3.59,2.31,2.29c3.51-2.09,5.32-3.32,10.2-6.45" style="fill:none;stroke:#999;stroke-width:3" />
<path d="M795.06,32.18c1.13,1.13,1.25,2.95,1.31,5.43c0.88,33.77-2.12,43.64-16.48,54.55" style="fill:none;stroke:#999;stroke-width:3" />
<path d="M805.38,26.25c1.25,0.75,3.23,0.79,4.87,0.37c4.29-0.64,10.05-1.72,12.86-2.23c1.97-0.35,3.46,0.41,3.31,2.73c-0.66,10.25-1.29,21.25-2.03,29.2" style="fill:none;stroke:#999;stroke-width:3" />
<path d="M808.62,40.88c3.64-0.59,12.25-1.78,15.75-2.25" style="fill:none;stroke:#999;stroke-width:3" />
<path d="M808.62,56.25c5.62-1,9.08-1.21,14.5-2.12" style="fill:none;stroke:#999;stroke-width:3" />
<path d="M806.1,27.01c0.92,0.92,1.15,2.6,1.15,3.87c0,1.2,0.07,50.94,0.07,53.91c0,4.11-0.06,5.29,1.92,3.21c1.98-2.08,10.78-9.56,14.63-12.37" style="fill:none;stroke:#999;stroke-width:3" />
<path d="M819.62,64.89c3.06,2.94,8.13,12.48,9.53,20.11" style="fill:none;stroke:black;stroke-width:3" />
<circle cx="819.62" cy="64.89" r="5" stroke-width="0" fill="#FF2A00" opacity="0.7" />
<path d="M908.5799999999999,13.25c0,0.88-0.3,1.67-0.86,2.21c-3.47,3.29-6.97,6.29-13.72,10.17" style="fill:none;stroke:#999;stroke-width:3" />
<path d="M888.87,24.76c0.94,0.94,0.97,2.22,0.97,3.12c0,2.62,0.16,31.25,0.16,34.78c0,2.15,0.13,3.59,2.31,2.29c3.51-2.09,5.32-3.32,10.2-6.45" style="fill:none;stroke:#999;stroke-width:3" />
<path d="M904.06,32.18c1.13,1.13,1.25,2.95,1.31,5.43c0.88,33.77-2.12,43.64-16.48,54.55" style="fill:none;stroke:#999;stroke-width:3" />
<path d="M914.38,26.25c1.25,0.75,3.23,0.79,4.87,0.37c4.29-0.64,10.05-1.72,12.86-2.23c1.97-0.35,3.46,0.41,3.31,2.73c-0.66,10.25-1.29,21.25-2.03,29.2" style="fill:none;stroke:#999;stroke-width:3" />
<path d="M917.62,40.88c3.64-0.59,12.25-1.78,15.75-2.25" style="fill:none;stroke:#999;stroke-width:3" />
<path d="M917.62,56.25c5.62-1,9.08-1.21,14.5-2.12" style="fill:none;stroke:#999;stroke-width:3" />
<path d="M915.1,27.01c0.92,0.92,1.15,2.6,1.15,3.87c0,1.2,0.07,50.94,0.07,53.91c0,4.11-0.06,5.29,1.92,3.21c1.98-2.08,10.78-9.56,14.63-12.37" style="fill:none;stroke:#999;stroke-width:3" />
<path d="M928.62,64.89c3.06,2.94,8.13,12.48,9.53,20.11" style="fill:none;stroke:#999;stroke-width:3" />
<path d="M942.33,24.59c1.95,0.52,3.89,0.55,5.82,0.08c4.27-0.66,10.56-1.74,13.2-2.17c3.29-0.53,5.25,0.45,5.01,4.25c-0.32,5.22-2.31,25.82-3.68,33.03c-2.12,11.09-5.74,0.87-6.19,0.52" style="fill:none;stroke:black;stroke-width:3" />
<circle cx="942.33" cy="24.59" r="5" stroke-width="0" fill="#FF2A00" opacity="0.7" />
<path d="M1017.5799999999999,13.25c0,0.88-0.3,1.67-0.86,2.21c-3.47,3.29-6.97,6.29-13.72,10.17" style="fill:none;stroke:#999;stroke-width:3" />
<path d="M997.87,24.76c0.94,0.94,0.97,2.22,0.97,3.12c0,2.62,0.16,31.25,0.16,34.78c0,2.15,0.13,3.59,2.31,2.29c3.51-2.09,5.32-3.32,10.2-6.45" style="fill:none;stroke:#999;stroke-width:3" />
<path d="M1013.06,32.18c1.13,1.13,1.25,2.95,1.31,5.43c0.88,33.77-2.12,43.64-16.48,54.55" style="fill:none;stroke:#999;stroke-width:3" />
<path d="M1023.38,26.25c1.25,0.75,3.23,0.79,4.87,0.37c4.29-0.64,10.05-1.72,12.86-2.23c1.97-0.35,3.46,0.41,3.31,2.73c-0.66,10.25-1.29,21.25-2.03,29.2" style="fill:none;stroke:#999;stroke-width:3" />
<path d="M1026.62,40.88c3.64-0.59,12.25-1.78,15.75-2.25" style="fill:none;stroke:#999;stroke-width:3" />
<path d="M1026.62,56.25c5.62-1,9.08-1.21,14.5-2.12" style="fill:none;stroke:#999;stroke-width:3" />
<path d="M1024.1,27.01c0.92,0.92,1.15,2.6,1.15,3.87c0,1.2,0.07,50.94,0.07,53.91c0,4.11-0.06,5.29,1.92,3.21c1.98-2.08,10.78-9.56,14.63-12.37" style="fill:none;stroke:#999;stroke-width:3" />
<path d="M1037.62,64.89c3.06,2.94,8.13,12.48,9.53,20.11" style="fill:none;stroke:#999;stroke-width:3" />
<path d="M1051.33,24.59c1.95,0.52,3.89,0.55,5.82,0.08c4.27-0.66,10.56-1.74,13.2-2.17c3.29-0.53,5.25,0.45,5.01,4.25c-0.32,5.22-2.31,25.82-3.68,33.03c-2.12,11.09-5.74,0.87-6.19,0.52" style="fill:none;stroke:#999;stroke-width:3" />
<path d="M1054.73,25.65c0.81,0.81,1.31,1.98,1.31,3.32c0,0.82-0.03,37.69-0.04,56.28c0,4.73,0,8.28,0,9.75" style="fill:none;stroke:black;stroke-width:3" />
<circle cx="1054.73" cy="25.65" r="5" stroke-width="0" fill="#FF2A00" opacity="0.7" />
</svg>