<svg width="1090px" height="109px" viewBox="0 0 1090px 109px" xmlns="http://www.w3.org/2000/svg" xmlns:xlink="http://www.w3.org/1999/xlink" xml:space="preserve" version="1.1"  baseProfile="full">
<line x1="1" y1="1" x2="1089" y2="1" style="stroke:#ddd;stroke-width:2" />
<line x1="1" y1="1" x2="1" y2="108" style="stroke:#ddd;stroke-width:2" />
<line x1="1" y1="108" x2="1089" y2="108" style="stroke:#ddd;stroke-width:2" />
<line x1="1089" y1="1" x2="1089" y2="108" style="stroke:#ddd;stroke-width:2" />
<line x1="109" y1="1" x2="109" y2="108" style="stroke:#ddd;stroke-width:2" />
<line x1="218" y1="1" x2="218" y2="108" style="stroke:#ddd;stroke-width:2" />
<line x1="327" y1="1" x2="327" y2="108" style="stroke:#ddd;stroke-width:2" />
<line x1="436" y1="1" x2="436" y2="108" style="stroke:#ddd;stroke-width:2" />
<line x1="545" y1="1" x2="545" y2="108" style="stroke:#ddd;stroke-width:2" />
<line x1="654" y1="1" x2="654" y2="108" style="stroke:#ddd;stroke-width:2" />
<line x1="763" y1="1" x2="763" y2="108" style="stroke:#ddd;stroke-width:2" />
<line x1="872" y1="1" x2="872" y2="108" style="stroke:#ddd;stroke-width:2" />
<line x1="981" y1="1" x2="981" y2="108" style="stroke:#ddd;stroke-width:2" />
<line x1="1" y1="54" x2="1089" y2="54" style="stroke:#ddd;stroke-width:2;stroke-dasharray:3 3" />
<line x1="55" y1="1" x2="55" y2="108" style="stroke:#ddd;stroke-width:2;stroke-dasharray:3 3" />
<line x1="164" y1="1" x2="164" y2="108" style="stroke:#ddd;stroke-width:2;stroke-dasharray:3 3" />
<line x1="273" y1="1" x2="273" y2="108" style="stroke:#ddd;stroke-width:2;stroke-dasharray:3 3" />
<line x1="382" y1="1" x2="382" y2="108" style="stroke:#ddd;stroke-width:2;stroke-dasharray:3 3" />
<line x1="491" y1="1" x2="491" y2="108" style="stroke:#ddd;stroke-width:2;stroke-dasharray:3 3" />
<line x1="600" y1="1" x2="600" y2="108" style="stroke:#ddd;stroke-width:2;stroke-dasharray:3 3" />
<line x1="709" y1="1" x2="709" y2="108" style="stroke:#ddd;stroke-width:2;stroke-dasharray:3 3" />
<line x1="818" y1="1" x2="818" y2="108" style="stroke:#ddd;stroke-width:2;stroke-dasharray:3 3" />
<line x1="927" y1="1" x2="927" y2="108" style="stroke:#ddd;stroke-width:2;stroke-dasharray:3 3" />
<line x1="1036" y1="1" x2="1036" y2="108" style="stroke:#ddd;stroke-width:2;stroke-dasharray:3 3" />
<path d="M14.25,34.06c0.97,0.97,1.28,1.97,1.38,3.19c1.02,5.58,1.83,11.03,2.66,16.75c0.28,1.96,0.57,4.21,0.86,6.25" style="fill:none;stroke:black;stroke-width:3" />
<circle cx="14.25" cy="34.06" r="5" stroke-width="0" fill="#FF2A00" opacity="0.7" />
<path d="M123.25,34.06c0.97,0.97,1.28,1.97,1.38,3.19c1.02,5.58,1.83,11.03,2.66,16.75c0.28,1.96,0.57,4.21,0.86,6.25" style="fill:none;stroke:#999;stroke-width:3" />
<path d="M125.08,36.43c8.15-1.68,13.58-2.59,17.8-3.19c3.36-0.47,4.32,1.48,3.8,4.52c-0.86,5.07-1.85,11.87-3.06,18.03" style="fill:none;stroke:black;stroke-width:3" />
<circle cx="125.08" cy="36.43" r="5" stroke-width="0" fill="#FF2A00" opacity="0.7" />
<path d="M232.25,34.06c0.97,0.97,1.28,1.97,1.38,3.19c1.02,5.58,1.83,11.03,2.66,16.75c0.28,1.96,0.57,4.21,0.86,6.25" style="fill:none;stroke:#999;stroke-width:3" />
<path d="M234.07999999999998,36.43c8.15-1.68,13.58-2.59,17.8-3.19c3.36-0.47,4.32,1.48,3.8,4.52c-0.86,5.07-1.85,11.87-3.06,18.03" style="fill:none;stroke:#999;stroke-width:3" />
<path d="M237.07,57.86c5.17-0.48,8.58-0.73,13.55-1.09c1.45-0.1,3.04-0.21,4.84-0.34" style="fill:none;stroke:black;stroke-width:3" />
<circle cx="237.07" cy="57.86" r="5" stroke-width="0" fill="#FF2A00" opacity="0.7" />
<path d="M341.25,34.06c0.97,0.97,1.28,1.97,1.38,3.19c1.02,5.58,1.83,11.03,2.66,16.75c0.28,1.96,0.57,4.21,0.86,6.25" style="fill:none;stroke:#999;stroke-width:3" />
<path d="M343.08,36.43c8.15-1.68,13.58-2.59,17.8-3.19c3.36-0.47,4.32,1.48,3.8,4.52c-0.86,5.07-1.85,11.87-3.06,18.03" style="fill:none;stroke:#999;stroke-width:3" />
<path d="M346.07,57.86c5.17-0.48,8.58-0.73,13.55-1.09c1.45-0.1,3.04-0.21,4.84-0.34" style="fill:none;stroke:#999;stroke-width:3" />
<path d="M396.40999999999997,11.75c0.92,0.92,1.31,2.5,1.31,4.34c0,8.16-0.09,22.51-0.09,26.41" style="fill:none;stroke:black;stroke-width:3" />
<circle cx="396.40999999999997" cy="11.75" r="5" stroke-width="0" fill="#FF2A00" opacity="0.7" />
<path d="M450.25,34.06c0.97,0.97,1.28,1.97,1.38,3.19c1.02,5.58,1.83,11.03,2.66,16.75c0.28,1.96,0.57,4.21,0.86,6.25" style="fill:none;stroke:#999;stroke-width:3" />
<path d="M452.08,36.43c8.15-1.68,13.58-2.59,17.8-3.19c3.36-0.47,4.32,1.48,3.8,4.52c-0.86,5.07-1.85,11.87-3.06,18.03" style="fill:none;stroke:#999;stroke-width:3" />
<path d="M455.07,57.86c5.17-0.48,8.58-0.73,13.55-1.09c1.45-0.1,3.04-0.21,4.84-0.34" style="fill:none;stroke:#999;stroke-width:3" />
<path d="M505.40999999999997,11.75c0.92,0.92,1.31,2.5,1.31,4.34c0,8.16-0.09,22.51-0.09,26.41" style="fill:none;stroke:#999;stroke-width:3" />
<path d="M482.31,20.83c4.28,3.32,9.92,11.32,10.99,16.49" style="fill:none;stroke:black;stroke-width:3" />
<circle cx="482.31" cy="20.83" r="5" stroke-width="0" fill="#FF2A00" opacity="0.7" />
<path d="M559.25,34.06c0.97,0.97,1.28,1.97,1.38,3.19c1.02,5.58,1.83,11.03,2.66,16.75c0.28,1.96,0.57,4.21,0.86,6.25" style="fill:none;stroke:#999;stroke-width:3" />
<path d="M561.0799999999999,36.43c8.15-1.68,13.58-2.59,17.8-3.19c3.36-0.47,4.32,1.48,3.8,4.52c-0.86,5.07-1.85,11.87-3.06,18.03" style="fill:none;stroke:#999;stroke-width:3" />
<path d="M564.0699999999999,57.86c5.17-0.48,8.58-0.73,13.55-1.09c1.45-0.1,3.04-0.21,4.84-0.34" style="fill:none;stroke:#999;stroke-width:3" />
<path d="M614.41,11.75c0.92,0.92,1.31,2.5,1.31,4.34c0,8.16-0.09,22.51-0.09,26.41" style="fill:none;stroke:#999;stroke-width:3" />
<path d="M591.31,20.83c4.28,3.32,9.92,11.32,10.99,16.49" style="fill:none;stroke:#999;stroke-width:3" />
<path d="M639.2,16.85c0,1.15-0.26,2.02-0.84,3.06c-3.98,7.1-6.73,10.97-11.21,17.11" style="fill:none;stroke:black;stroke-width:3" />
<circle cx="639.2" cy="16.85" r="5" stroke-width="0" fill="#FF2A00" opacity="0.7" />
<path d="M668.25,34.06c0.97,0.97,1.28,1.97,1.38,3.19c1.02,5.58,1.83,11.03,2.66,16.75c0.28,1.96,0.57,4.21,0.86,6.25" style="fill:none;stroke:#999;stroke-width:3" />
<path d="M670.0799999999999,36.43c8.15-1.68,13.58-2.59,17.8-3.19c3.36-0.47,4.32,1.48,3.8,4.52c-0.86,5.07-1.85,11.87-3.06,18.03" style="fill:none;stroke:#999;stroke-width:3" />
<path d="M673.0699999999999,57.86c5.17-0.48,8.58-0.73,13.55-1.09c1.45-0.1,3.04-0.21,4.84-0.34" style="fill:none;stroke:#999;stroke-width:3" />
<path d="M723.41,11.75c0.92,0.92,1.31,2.5,1.31,4.34c0,8.16-0.09,22.51-0.09,26.41" style="fill:none;stroke:#999;stroke-width:3" />
<path d="M700.31,20.83c4.28,3.32,9.92,11.32,10.99,16.49" style="fill:none;stroke:#999;stroke-width:3" />
<path d="M748.2,16.85c0,1.15-0.26,2.02-0.84,3.06c-3.98,7.1-6.73,10.97-11.21,17.11" style="fill:none;stroke:#999;stroke-width:3" />
<path d="M706.32,43.69c0.93,0.93,1.35,1.93,1.35,3.53c0,0.5-0.01,23.86-0.02,38.9c0,7-0.01,12.2-0.01,12.46" style="fill:none;stroke:black;stroke-width:3" />
<circle cx="706.32" cy="43.69" r="5" stroke-width="0" fill="#FF2A00" opacity="0.7" />
<path d="M777.25,34.06c0.97,0.97,1.28,1.97,1.38,3.19c1.02,5.58,1.83,11.03,2.66,16.75c0.28,1.96,0.57,4.21,0.86,6.25" style="fill:none;stroke:#999;stroke-width:3" />
<path d="M779.0799999999999,36.43c8.15-1.68,13.58-2.59,17.8-3.19c3.36-0.47,4.32,1.48,3.8,4.52c-0.86,5.07-1.85,11.87-3.06,18.03" style="fill:none;stroke:#999;stroke-width:3" />
<path d="M782.0699999999999,57.86c5.17-0.48,8.58-0.73,13.55-1.09c1.45-0.1,3.04-0.21,4.84-0.34" style="fill:none;stroke:#999;stroke-width:3" />
<path d="M832.41,11.75c0.92,0.92,1.31,2.5,1.31,4.34c0,8.16-0.09,22.51-0.09,26.41" style="fill:none;stroke:#999;stroke-width:3" />
<path d="M809.31,20.83c4.28,3.32,9.92,11.32,10.99,16.49" style="fill:none;stroke:#999;stroke-width:3" />
<path d="M857.2,16.85c0,1.15-0.26,2.02-0.84,3.06c-3.98,7.1-6.73,10.97-11.21,17.11" style="fill:none;stroke:#999;stroke-width:3" />
<path d="M815.32,43.69c0.93,0.93,1.35,1.93,1.35,3.53c0,0.5-0.01,23.86-0.02,38.9c0,7-0.01,12.2-0.01,12.46" style="fill:none;stroke:#999;stroke-width:3" />
<path d="M818.02,45.37c6.51-0.67,25.19-2.51,30.35-3.06c4.25-0.45,5.69,1.77,5.67,5.56C853.98,58.1,854.12,75.16,854.12,93c0,11.25-6.07,1.58-8.1-0.04" style="fill:none;stroke:black;stroke-width:3" />
<circle cx="818.02" cy="45.37" r="5" stroke-width="0" fill="#FF2A00" opacity="0.7" />
<path d="M886.25,34.06c0.97,0.97,1.28,1.97,1.38,3.19c1.02,5.58,1.83,11.03,2.66,16.75c0.28,1.96,0.57,4.21,0.86,6.25" style="fill:none;stroke:#999;stroke-width:3" />
<path d="M888.0799999999999,36.43c8.15-1.68,13.58-2.59,17.8-3.19c3.36-0.47,4.32,1.48,3.8,4.52c-0.86,5.07-1.85,11.87-3.06,18.03" style="fill:none;stroke:#999;stroke-width:3" />
<path d="M891.0699999999999,57.86c5.17-0.48,8.58-0.73,13.55-1.09c1.45-0.1,3.04-0.21,4.84-0.34" style="fill:none;stroke:#999;stroke-width:3" />
<path d="M941.41,11.75c0.92,0.92,1.31,2.5,1.31,4.34c0,8.16-0.09,22.51-0.09,26.41" style="fill:none;stroke:#999;stroke-width:3" />
<path d="M918.31,20.83c4.28,3.32,9.92,11.32,10.99,16.49" style="fill:none;stroke:#999;stroke-width:3" />
<path d="M966.2,16.85c0,1.15-0.26,2.02-0.84,3.06c-3.98,7.1-6.73,10.97-11.21,17.11" style="fill:none;stroke:#999;stroke-width:3" />
<path d="M924.32,43.69c0.93,0.93,1.35,1.93,1.35,3.53c0,0.5-0.01,23.86-0.02,38.9c0,7-0.01,12.2-0.01,12.46" style="fill:none;stroke:#999;stroke-width:3" />
<path d="M927.02,45.37c6.51-0.67,25.19-2.51,30.35-3.06c4.25-0.45,5.69,1.77,5.67,5.56C962.98,58.1,963.12,75.16,963.12,93c0,11.25-6.07,1.58-8.1-0.04" style="fill:none;stroke:#999;stroke-width:3" />
<path d="M926.77,59.19c11.61-1.06,24.11-2.06,35.4-2.53" style="fill:none;stroke:black;stroke-width:3" />
<circle cx="926.77" cy="59.19" r="5" stroke-width="0" fill="#FF2A00" opacity="0.7" />
<path d="M995.25,34.06c0.97,0.97,1.28,1.97,1.38,3.19c1.02,5.58,1.83,11.03,2.66,16.75c0.28,1.96,0.57,4.21,0.86,6.25" style="fill:none;stroke:#999;stroke-width:3" />
<path d="M997.0799999999999,36.43c8.15-1.68,13.58-2.59,17.8-3.19c3.36-0.47,4.32,1.48,3.8,4.52c-0.86,5.07-1.85,11.87-3.06,18.03" style="fill:none;stroke:#999;stroke-width:3" />
<path d="M1000.0699999999999,57.86c5.17-0.48,8.58-0.73,13.55-1.09c1.45-0.1,3.04-0.21,4.84-0.34" style="fill:none;stroke:#999;stroke-width:3" />
<path d="M1050.4099999999999,11.75c0.92,0.92,1.31,2.5,1.31,4.34c0,8.16-0.09,22.51-0.09,26.41" style="fill:none;stroke:#999;stroke-width:3" />
<path d="M1027.31,20.83c4.28,3.32,9.92,11.32,10.99,16.49" style="fill:none;stroke:#999;stroke-width:3" />
<path d="M1075.2,16.85c0,1.15-0.26,2.02-0.84,3.06c-3.98,7.1-6.73,10.97-11.21,17.11" style="fill:none;stroke:#999;stroke-width:3" />
<path d="M1033.3200000000002,43.69c0.93,0.93,1.35,1.93,1.35,3.53c0,0.5-0.01,23.86-0.02,38.9c0,7-0.01,12.2-0.01,12.46" style="fill:none;stroke:#999;stroke-width:3" />
<path d="M1036.02,45.37c6.51-0.67,25.19-2.51,30.35-3.06c4.25-0.45,5.69,1.77,5.67,5.56C1071.98,58.1,1072.12,75.16,1072.12,93c0,11.25-6.07,1.58-8.1-0.04" style="fill:none;stroke:#999;stroke-width:3" />
<path d="M1035.77,59.19c11.61-1.06,24.11-2.06,35.4-2.53" style="fill:none;stroke:#999;stroke-width:3" />
<path d="M1035.59,73.11c7.2-0.7,23.91-1.86,35.68-2.03" style="fill:none;stroke:black;stroke-width:3" />
<circle cx="1035.59" cy="73.11" r="5" stroke-width="0" fill="#FF2A00" opacity="0.7" />
</svg>