<svg width="1526px" height="109px" viewBox="0 0 1526px 109px" xmlns="http://www.w3.org/2000/svg" xmlns:xlink="http://www.w3.org/1999/xlink" xml:space="preserve" version="1.1"  baseProfile="full">
<line x1="1" y1="1" x2="1525" y2="1" style="stroke:#ddd;stroke-width:2" />
<line x1="1" y1="1" x2="1" y2="108" style="stroke:#ddd;stroke-width:2" />
<line x1="1" y1="108" x2="1525" y2="108" style="stroke:#ddd;stroke-width:2" />
<line x1="1525" y1="1" x2="1525" y2="108" style="stroke:#ddd;stroke-width:2" />
<line x1="109" y1="1" x2="109" y2="108" style="stroke:#ddd;stroke-width:2" />
<line x1="218" y1="1" x2="218" y2="108" style="stroke:#ddd;stroke-width:2" />
<line x1="327" y1="1" x2="327" y2="108" style="stroke:#ddd;stroke-width:2" />
<line x1="436" y1="1" x2="436" y2="108" style="stroke:#ddd;stroke-width:2" />
<line x1="545" y1="1" x2="545" y2="108" style="stroke:#ddd;stroke-width:2" />
<line x1="654" y1="1" x2="654" y2="108" style="stroke:#ddd;stroke-width:2" />
<line x1="763" y1="1" x2="763" y2="108" style="stroke:#ddd;stroke-width:2" />
<line x1="872" y1="1" x2="872" y2="108" style="stroke:#ddd;stroke-width:2" />
<line x1="981" y1="1" x2="981" y2="108" style="stroke:#ddd;stroke-width:2" />
<line x1="1090" y1="1" x2="1090" y2="108" style="stroke:#ddd;stroke-width:2" />
<line x1="1199" y1="1" x2="1199" y2="108" style="stroke:#ddd;stroke-width:2" />
<line x1="1308" y1="1" x2="1308" y2="108" style="stroke:#ddd;stroke-width:2" />
<line x1="1417" y1="1" x2="1417" y2="108" style="stroke:#ddd;stroke-width:2" />
<line x1="1" y1="54" x2="1525" y2="54" style="stroke:#ddd;stroke-width:2;stroke-dasharray:3 3" />
<line x1="55" y1="1" x2="55" y2="108" style="stroke:#ddd;stroke-width:2;stroke-dasharray:3 3" />
<line x1="164" y1="1" x2="164" y2="108" style="stroke:#ddd;stroke-width:2;stroke-dasharray:3 3" />
<line x1="273" y1="1" x2="273" y2="108" style="stroke:#ddd;stroke-width:2;stroke-dasharray:3 3" />
<line x1="382" y1="1" x2="382" y2="108" style="stroke:#ddd;stroke-width:2;stroke-dasharray:3 3" />
<line x1="491" y1="1" x2="491" y2="108" style="stroke:#ddd;stroke-width:2;stroke-dasharray:3 3" />
<line x1="600" y1="1" x2="600" y2="108" style="stroke:#ddd;stroke-width:2;stroke-dasharray:3 3" />
<line x1="709" y1="1" x2="709" y2="108" style="stroke:#ddd;stroke-width:2;stroke-dasharray:3 3" />
<line x1="818" y1="1" x2="818" y2="108" style="stroke:#ddd;stroke-width:2;stroke-dasharray:3 3" />
<line x1="927" y1="1" x2="927" y2="108" style="stroke:#ddd;stroke-width:2;stroke-dasharray:3 3" />
<line x1="1036" y1="1" x2="1036" y2="108" style="stroke:#ddd;stroke-width:2;stroke-dasharray:3 3" />
<line x1="1145" y1="1" x2="1145" y2="108" style="stroke:#ddd;stroke-width:2;stroke-dasharray:3 3" />
<line x1="1254" y1="1" x2="1254" y2="108" style="stroke:#ddd;stroke-width:2;stroke-dasharray:3 3" />
<line x1="1363" y1="1" x2="1363" y2="108" style="stroke:#ddd;stroke-width:2;stroke-dasharray:3 3" />
<line x1="1472" y1="1" x2="1472" y2="108" style="stroke:#ddd;stroke-width:2;stroke-dasharray:3 3" />
<path d="M12.5,33.79c0.92,0.92,1.22,2.08,1.32,3.32c1.17,7.26,2.05,14.52,2.96,21.9c0.2,1.65,0.41,3.32,0.62,4.99" style="fill:none;stroke:black;stroke-width:3" />
<circle cx="12.5" cy="33.79" r="5" stroke-width="0" fill="#FF2A00" opacity="0.7" />
<path d="M121.5,33.79c0.92,0.92,1.22,2.08,1.32,3.32c1.17,7.26,2.05,14.52,2.96,21.9c0.2,1.65,0.41,3.32,0.62,4.99" style="fill:none;stroke:#999;stroke-width:3" />
<path d="M123.83,35.47c6.42-0.98,12.85-2.06,17.42-2.75c2.63-0.4,4.01,1.54,3.6,4.07c-0.96,5.9-2.18,14.27-3.48,21.82" style="fill:none;stroke:black;stroke-width:3" />
<circle cx="123.83" cy="35.47" r="5" stroke-width="0" fill="#FF2A00" opacity="0.7" />
<path d="M230.5,33.79c0.92,0.92,1.22,2.08,1.32,3.32c1.17,7.26,2.05,14.52,2.96,21.9c0.2,1.65,0.41,3.32,0.62,4.99" style="fill:none;stroke:#999;stroke-width:3" />
<path d="M232.82999999999998,35.47c6.42-0.98,12.85-2.06,17.42-2.75c2.63-0.4,4.01,1.54,3.6,4.07c-0.96,5.9-2.18,14.27-3.48,21.82" style="fill:none;stroke:#999;stroke-width:3" />
<path d="M236.07,61.3c5.28-0.65,7.82-0.85,13.17-1.47c1.29-0.15,2.67-0.31,4.22-0.49" style="fill:none;stroke:black;stroke-width:3" />
<circle cx="236.07" cy="61.3" r="5" stroke-width="0" fill="#FF2A00" opacity="0.7" />
<path d="M339.5,33.79c0.92,0.92,1.22,2.08,1.32,3.32c1.17,7.26,2.05,14.52,2.96,21.9c0.2,1.65,0.41,3.32,0.62,4.99" style="fill:none;stroke:#999;stroke-width:3" />
<path d="M341.83,35.47c6.42-0.98,12.85-2.06,17.42-2.75c2.63-0.4,4.01,1.54,3.6,4.07c-0.96,5.9-2.18,14.27-3.48,21.82" style="fill:none;stroke:#999;stroke-width:3" />
<path d="M345.07,61.3c5.28-0.65,7.82-0.85,13.17-1.47c1.29-0.15,2.67-0.31,4.22-0.49" style="fill:none;stroke:#999;stroke-width:3" />
<path d="M377.87,13.97c3.18,2.02,8.46,8.57,9.25,11.72" style="fill:none;stroke:black;stroke-width:3" />
<circle cx="377.87" cy="13.97" r="5" stroke-width="0" fill="#FF2A00" opacity="0.7" />
<path d="M448.5,33.79c0.92,0.92,1.22,2.08,1.32,3.32c1.17,7.26,2.05,14.52,2.96,21.9c0.2,1.65,0.41,3.32,0.62,4.99" style="fill:none;stroke:#999;stroke-width:3" />
<path d="M450.83,35.47c6.42-0.98,12.85-2.06,17.42-2.75c2.63-0.4,4.01,1.54,3.6,4.07c-0.96,5.9-2.18,14.27-3.48,21.82" style="fill:none;stroke:#999;stroke-width:3" />
<path d="M454.07,61.3c5.28-0.65,7.82-0.85,13.17-1.47c1.29-0.15,2.67-0.31,4.22-0.49" style="fill:none;stroke:#999;stroke-width:3" />
<path d="M486.87,13.97c3.18,2.02,8.46,8.57,9.25,11.72" style="fill:none;stroke:#999;stroke-width:3" />
<path d="M522.34,11.31c-0.04,1-0.35,1.9-0.92,2.71c-2.68,4.23-5.53,8.17-8.43,11.73" style="fill:none;stroke:black;stroke-width:3" />
<circle cx="522.34" cy="11.31" r="5" stroke-width="0" fill="#FF2A00" opacity="0.7" />
<path d="M557.5,33.79c0.92,0.92,1.22,2.08,1.32,3.32c1.17,7.26,2.05,14.52,2.96,21.9c0.2,1.65,0.41,3.32,0.62,4.99" style="fill:none;stroke:#999;stroke-width:3" />
<path d="M559.8299999999999,35.47c6.42-0.98,12.85-2.06,17.42-2.75c2.63-0.4,4.01,1.54,3.6,4.07c-0.96,5.9-2.18,14.27-3.48,21.82" style="fill:none;stroke:#999;stroke-width:3" />
<path d="M563.0699999999999,61.3c5.28-0.65,7.82-0.85,13.17-1.47c1.29-0.15,2.67-0.31,4.22-0.49" style="fill:none;stroke:#999;stroke-width:3" />
<path d="M595.87,13.97c3.18,2.02,8.46,8.57,9.25,11.72" style="fill:none;stroke:#999;stroke-width:3" />
<path d="M631.34,11.31c-0.04,1-0.35,1.9-0.92,2.71c-2.68,4.23-5.53,8.17-8.43,11.73" style="fill:none;stroke:#999;stroke-width:3" />
<path d="M591.76,30.28c0.85,0.85,1.18,1.58,1.45,3.01c1.29,6.76,2.37,12.89,3.36,19.09c0.38,2.35,0.74,4.72,1.1,7.13" style="fill:none;stroke:black;stroke-width:3" />
<circle cx="591.76" cy="30.28" r="5" stroke-width="0" fill="#FF2A00" opacity="0.7" />
<path d="M666.5,33.79c0.92,0.92,1.22,2.08,1.32,3.32c1.17,7.26,2.05,14.52,2.96,21.9c0.2,1.65,0.41,3.32,0.62,4.99" style="fill:none;stroke:#999;stroke-width:3" />
<path d="M668.8299999999999,35.47c6.42-0.98,12.85-2.06,17.42-2.75c2.63-0.4,4.01,1.54,3.6,4.07c-0.96,5.9-2.18,14.27-3.48,21.82" style="fill:none;stroke:#999;stroke-width:3" />
<path d="M672.0699999999999,61.3c5.28-0.65,7.82-0.85,13.17-1.47c1.29-0.15,2.67-0.31,4.22-0.49" style="fill:none;stroke:#999;stroke-width:3" />
<path d="M704.87,13.97c3.18,2.02,8.46,8.57,9.25,11.72" style="fill:none;stroke:#999;stroke-width:3" />
<path d="M740.34,11.31c-0.04,1-0.35,1.9-0.92,2.71c-2.68,4.23-5.53,8.17-8.43,11.73" style="fill:none;stroke:#999;stroke-width:3" />
<path d="M700.76,30.28c0.85,0.85,1.18,1.58,1.45,3.01c1.29,6.76,2.37,12.89,3.36,19.09c0.38,2.35,0.74,4.72,1.1,7.13" style="fill:none;stroke:#999;stroke-width:3" />
<path d="M702.52,31.44c12.11-1.75,30.85-3.43,41.34-4.21c3.77-0.28,4.15,1.74,3.72,4.88c-0.56,4.11-2.15,11.97-3.6,18.41c-0.48,2.15-0.95,4.13-1.36,5.77" style="fill:none;stroke:black;stroke-width:3" />
<circle cx="702.52" cy="31.44" r="5" stroke-width="0" fill="#FF2A00" opacity="0.7" />
<path d="M775.5,33.79c0.92,0.92,1.22,2.08,1.32,3.32c1.17,7.26,2.05,14.52,2.96,21.9c0.2,1.65,0.41,3.32,0.62,4.99" style="fill:none;stroke:#999;stroke-width:3" />
<path d="M777.8299999999999,35.47c6.42-0.98,12.85-2.06,17.42-2.75c2.63-0.4,4.01,1.54,3.6,4.07c-0.96,5.9-2.18,14.27-3.48,21.82" style="fill:none;stroke:#999;stroke-width:3" />
<path d="M781.0699999999999,61.3c5.28-0.65,7.82-0.85,13.17-1.47c1.29-0.15,2.67-0.31,4.22-0.49" style="fill:none;stroke:#999;stroke-width:3" />
<path d="M813.87,13.97c3.18,2.02,8.46,8.57,9.25,11.72" style="fill:none;stroke:#999;stroke-width:3" />
<path d="M849.34,11.31c-0.04,1-0.35,1.9-0.92,2.71c-2.68,4.23-5.53,8.17-8.43,11.73" style="fill:none;stroke:#999;stroke-width:3" />
<path d="M809.76,30.28c0.85,0.85,1.18,1.58,1.45,3.01c1.29,6.76,2.37,12.89,3.36,19.09c0.38,2.35,0.74,4.72,1.1,7.13" style="fill:none;stroke:#999;stroke-width:3" />
<path d="M811.52,31.44c12.11-1.75,30.85-3.43,41.34-4.21c3.77-0.28,4.15,1.74,3.72,4.88c-0.56,4.11-2.15,11.97-3.6,18.41c-0.48,2.15-0.95,4.13-1.36,5.77" style="fill:none;stroke:#999;stroke-width:3" />
<path d="M832.17,31.47c0.81,0.81,1,1.88,0.99,2.78c-0.04,5.58,0.05,11.93,0.05,20.08" style="fill:none;stroke:black;stroke-width:3" />
<circle cx="832.17" cy="31.47" r="5" stroke-width="0" fill="#FF2A00" opacity="0.7" />
<path d="M884.5,33.79c0.92,0.92,1.22,2.08,1.32,3.32c1.17,7.26,2.05,14.52,2.96,21.9c0.2,1.65,0.41,3.32,0.62,4.99" style="fill:none;stroke:#999;stroke-width:3" />
<path d="M886.8299999999999,35.47c6.42-0.98,12.85-2.06,17.42-2.75c2.63-0.4,4.01,1.54,3.6,4.07c-0.96,5.9-2.18,14.27-3.48,21.82" style="fill:none;stroke:#999;stroke-width:3" />
<path d="M890.0699999999999,61.3c5.28-0.65,7.82-0.85,13.17-1.47c1.29-0.15,2.67-0.31,4.22-0.49" style="fill:none;stroke:#999;stroke-width:3" />
<path d="M922.87,13.97c3.18,2.02,8.46,8.57,9.25,11.72" style="fill:none;stroke:#999;stroke-width:3" />
<path d="M958.34,11.31c-0.04,1-0.35,1.9-0.92,2.71c-2.68,4.23-5.53,8.17-8.43,11.73" style="fill:none;stroke:#999;stroke-width:3" />
<path d="M918.76,30.28c0.85,0.85,1.18,1.58,1.45,3.01c1.29,6.76,2.37,12.89,3.36,19.09c0.38,2.35,0.74,4.72,1.1,7.13" style="fill:none;stroke:#999;stroke-width:3" />
<path d="M920.52,31.44c12.11-1.75,30.85-3.43,41.34-4.21c3.77-0.28,4.15,1.74,3.72,4.88c-0.56,4.11-2.15,11.97-3.6,18.41c-0.48,2.15-0.95,4.13-1.36,5.77" style="fill:none;stroke:#999;stroke-width:3" />
<path d="M941.17,31.47c0.81,0.81,1,1.88,0.99,2.78c-0.04,5.58,0.05,11.93,0.05,20.08" style="fill:none;stroke:#999;stroke-width:3" />
<path d="M923.16,44.31c14.46-1.43,27.59-2.56,39.91-3.41" style="fill:none;stroke:black;stroke-width:3" />
<circle cx="923.16" cy="44.31" r="5" stroke-width="0" fill="#FF2A00" opacity="0.7" />
<path d="M993.5,33.79c0.92,0.92,1.22,2.08,1.32,3.32c1.17,7.26,2.05,14.52,2.96,21.9c0.2,1.65,0.41,3.32,0.62,4.99" style="fill:none;stroke:#999;stroke-width:3" />
<path d="M995.8299999999999,35.47c6.42-0.98,12.85-2.06,17.42-2.75c2.63-0.4,4.01,1.54,3.6,4.07c-0.96,5.9-2.18,14.27-3.48,21.82" style="fill:none;stroke:#999;stroke-width:3" />
<path d="M999.0699999999999,61.3c5.28-0.65,7.82-0.85,13.17-1.47c1.29-0.15,2.67-0.31,4.22-0.49" style="fill:none;stroke:#999;stroke-width:3" />
<path d="M1031.87,13.97c3.18,2.02,8.46,8.57,9.25,11.72" style="fill:none;stroke:#999;stroke-width:3" />
<path d="M1067.3400000000001,11.31c-0.04,1-0.35,1.9-0.92,2.71c-2.68,4.23-5.53,8.17-8.43,11.73" style="fill:none;stroke:#999;stroke-width:3" />
<path d="M1027.76,30.28c0.85,0.85,1.18,1.58,1.45,3.01c1.29,6.76,2.37,12.89,3.36,19.09c0.38,2.35,0.74,4.72,1.1,7.13" style="fill:none;stroke:#999;stroke-width:3" />
<path d="M1029.52,31.44c12.11-1.75,30.85-3.43,41.34-4.21c3.77-0.28,4.15,1.74,3.72,4.88c-0.56,4.11-2.15,11.97-3.6,18.41c-0.48,2.15-0.95,4.13-1.36,5.77" style="fill:none;stroke:#999;stroke-width:3" />
<path d="M1050.17,31.47c0.81,0.81,1,1.88,0.99,2.78c-0.04,5.58,0.05,11.93,0.05,20.08" style="fill:none;stroke:#999;stroke-width:3" />
<path d="M1032.1599999999999,44.31c14.46-1.43,27.59-2.56,39.91-3.41" style="fill:none;stroke:#999;stroke-width:3" />
<path d="M1034.52,56.71c10.44-1.11,23.19-1.95,34.44-2.65" style="fill:none;stroke:black;stroke-width:3" />
<circle cx="1034.52" cy="56.71" r="5" stroke-width="0" fill="#FF2A00" opacity="0.7" />
<path d="M1102.5,33.79c0.92,0.92,1.22,2.08,1.32,3.32c1.17,7.26,2.05,14.52,2.96,21.9c0.2,1.65,0.41,3.32,0.62,4.99" style="fill:none;stroke:#999;stroke-width:3" />
<path d="M1104.83,35.47c6.42-0.98,12.85-2.06,17.42-2.75c2.63-0.4,4.01,1.54,3.6,4.07c-0.96,5.9-2.18,14.27-3.48,21.82" style="fill:none;stroke:#999;stroke-width:3" />
<path d="M1108.07,61.3c5.28-0.65,7.82-0.85,13.17-1.47c1.29-0.15,2.67-0.31,4.22-0.49" style="fill:none;stroke:#999;stroke-width:3" />
<path d="M1140.87,13.97c3.18,2.02,8.46,8.57,9.25,11.72" style="fill:none;stroke:#999;stroke-width:3" />
<path d="M1176.3400000000001,11.31c-0.04,1-0.35,1.9-0.92,2.71c-2.68,4.23-5.53,8.17-8.43,11.73" style="fill:none;stroke:#999;stroke-width:3" />
<path d="M1136.76,30.28c0.85,0.85,1.18,1.58,1.45,3.01c1.29,6.76,2.37,12.89,3.36,19.09c0.38,2.35,0.74,4.72,1.1,7.13" style="fill:none;stroke:#999;stroke-width:3" />
<path d="M1138.52,31.44c12.11-1.75,30.85-3.43,41.34-4.21c3.77-0.28,4.15,1.74,3.72,4.88c-0.56,4.11-2.15,11.97-3.6,18.41c-0.48,2.15-0.95,4.13-1.36,5.77" style="fill:none;stroke:#999;stroke-width:3" />
<path d="M1159.17,31.47c0.81,0.81,1,1.88,0.99,2.78c-0.04,5.58,0.05,11.93,0.05,20.08" style="fill:none;stroke:#999;stroke-width:3" />
<path d="M1141.1599999999999,44.31c14.46-1.43,27.59-2.56,39.91-3.41" style="fill:none;stroke:#999;stroke-width:3" />
<path d="M1143.52,56.71c10.44-1.11,23.19-1.95,34.44-2.65" style="fill:none;stroke:#999;stroke-width:3" />
<path d="M1143.79,67.41c1.03,1.03,1.27,2.2,1.38,3.09c0.89,7.55,1.53,14.02,2.28,20.5c0.27,2.31,0.54,4.63,0.85,7" style="fill:none;stroke:black;stroke-width:3" />
<circle cx="1143.79" cy="67.41" r="5" stroke-width="0" fill="#FF2A00" opacity="0.7" />
<path d="M1211.5,33.79c0.92,0.92,1.22,2.08,1.32,3.32c1.17,7.26,2.05,14.52,2.96,21.9c0.2,1.65,0.41,3.32,0.62,4.99" style="fill:none;stroke:#999;stroke-width:3" />
<path d="M1213.83,35.47c6.42-0.98,12.85-2.06,17.42-2.75c2.63-0.4,4.01,1.54,3.6,4.07c-0.96,5.9-2.18,14.27-3.48,21.82" style="fill:none;stroke:#999;stroke-width:3" />
<path d="M1217.07,61.3c5.28-0.65,7.82-0.85,13.17-1.47c1.29-0.15,2.67-0.31,4.22-0.49" style="fill:none;stroke:#999;stroke-width:3" />
<path d="M1249.87,13.97c3.18,2.02,8.46,8.57,9.25,11.72" style="fill:none;stroke:#999;stroke-width:3" />
<path d="M1285.3400000000001,11.31c-0.04,1-0.35,1.9-0.92,2.71c-2.68,4.23-5.53,8.17-8.43,11.73" style="fill:none;stroke:#999;stroke-width:3" />
<path d="M1245.76,30.28c0.85,0.85,1.18,1.58,1.45,3.01c1.29,6.76,2.37,12.89,3.36,19.09c0.38,2.35,0.74,4.72,1.1,7.13" style="fill:none;stroke:#999;stroke-width:3" />
<path d="M1247.52,31.44c12.11-1.75,30.85-3.43,41.34-4.21c3.77-0.28,4.15,1.74,3.72,4.88c-0.56,4.11-2.15,11.97-3.6,18.41c-0.48,2.15-0.95,4.13-1.36,5.77" style="fill:none;stroke:#999;stroke-width:3" />
<path d="M1268.17,31.47c0.81,0.81,1,1.88,0.99,2.78c-0.04,5.58,0.05,11.93,0.05,20.08" style="fill:none;stroke:#999;stroke-width:3" />
<path d="M1250.1599999999999,44.31c14.46-1.43,27.59-2.56,39.91-3.41" style="fill:none;stroke:#999;stroke-width:3" />
<path d="M1252.52,56.71c10.44-1.11,23.19-1.95,34.44-2.65" style="fill:none;stroke:#999;stroke-width:3" />
<path d="M1252.79,67.41c1.03,1.03,1.27,2.2,1.38,3.09c0.89,7.55,1.53,14.02,2.28,20.5c0.27,2.31,0.54,4.63,0.85,7" style="fill:none;stroke:#999;stroke-width:3" />
<path d="M1254.34,68.21C1262.5,67,1271.5,66,1281.87,65.1c4.01-0.35,4.83,1.98,4.46,5.4c-0.45,4.29-1.36,11.91-2.26,18.86c-0.31,2.35-0.61,4.63-0.9,6.67" style="fill:none;stroke:black;stroke-width:3" />
<circle cx="1254.34" cy="68.21" r="5" stroke-width="0" fill="#FF2A00" opacity="0.7" />
<path d="M1320.5,33.79c0.92,0.92,1.22,2.08,1.32,3.32c1.17,7.26,2.05,14.52,2.96,21.9c0.2,1.65,0.41,3.32,0.62,4.99" style="fill:none;stroke:#999;stroke-width:3" />
<path d="M1322.83,35.47c6.42-0.98,12.85-2.06,17.42-2.75c2.63-0.4,4.01,1.54,3.6,4.07c-0.96,5.9-2.18,14.27-3.48,21.82" style="fill:none;stroke:#999;stroke-width:3" />
<path d="M1326.07,61.3c5.28-0.65,7.82-0.85,13.17-1.47c1.29-0.15,2.67-0.31,4.22-0.49" style="fill:none;stroke:#999;stroke-width:3" />
<path d="M1358.87,13.97c3.18,2.02,8.46,8.57,9.25,11.72" style="fill:none;stroke:#999;stroke-width:3" />
<path d="M1394.3400000000001,11.31c-0.04,1-0.35,1.9-0.92,2.71c-2.68,4.23-5.53,8.17-8.43,11.73" style="fill:none;stroke:#999;stroke-width:3" />
<path d="M1354.76,30.28c0.85,0.85,1.18,1.58,1.45,3.01c1.29,6.76,2.37,12.89,3.36,19.09c0.38,2.35,0.74,4.72,1.1,7.13" style="fill:none;stroke:#999;stroke-width:3" />
<path d="M1356.52,31.44c12.11-1.75,30.85-3.43,41.34-4.21c3.77-0.28,4.15,1.74,3.72,4.88c-0.56,4.11-2.15,11.97-3.6,18.41c-0.48,2.15-0.95,4.13-1.36,5.77" style="fill:none;stroke:#999;stroke-width:3" />
<path d="M1377.17,31.47c0.81,0.81,1,1.88,0.99,2.78c-0.04,5.58,0.05,11.93,0.05,20.08" style="fill:none;stroke:#999;stroke-width:3" />
<path d="M1359.1599999999999,44.31c14.46-1.43,27.59-2.56,39.91-3.41" style="fill:none;stroke:#999;stroke-width:3" />
<path d="M1361.52,56.71c10.44-1.11,23.19-1.95,34.44-2.65" style="fill:none;stroke:#999;stroke-width:3" />
<path d="M1361.79,67.41c1.03,1.03,1.27,2.2,1.38,3.09c0.89,7.55,1.53,14.02,2.28,20.5c0.27,2.31,0.54,4.63,0.85,7" style="fill:none;stroke:#999;stroke-width:3" />
<path d="M1363.34,68.21C1371.5,67,1380.5,66,1390.87,65.1c4.01-0.35,4.83,1.98,4.46,5.4c-0.45,4.29-1.36,11.91-2.26,18.86c-0.31,2.35-0.61,4.63-0.9,6.67" style="fill:none;stroke:#999;stroke-width:3" />
<path d="M1365.41,81.25c9.72-1.13,18.09-1.88,28.1-2.35" style="fill:none;stroke:black;stroke-width:3" />
<circle cx="1365.41" cy="81.25" r="5" stroke-width="0" fill="#FF2A00" opacity="0.7" />
<path d="M1429.5,33.79c0.92,0.92,1.22,2.08,1.32,3.32c1.17,7.26,2.05,14.52,2.96,21.9c0.2,1.65,0.41,3.32,0.62,4.99" style="fill:none;stroke:#999;stroke-width:3" />
<path d="M1431.83,35.47c6.42-0.98,12.85-2.06,17.42-2.75c2.63-0.4,4.01,1.54,3.6,4.07c-0.96,5.9-2.18,14.27-3.48,21.82" style="fill:none;stroke:#999;stroke-width:3" />
<path d="M1435.07,61.3c5.28-0.65,7.82-0.85,13.17-1.47c1.29-0.15,2.67-0.31,4.22-0.49" style="fill:none;stroke:#999;stroke-width:3" />
<path d="M1467.87,13.97c3.18,2.02,8.46,8.57,9.25,11.72" style="fill:none;stroke:#999;stroke-width:3" />
<path d="M1503.3400000000001,11.31c-0.04,1-0.35,1.9-0.92,2.71c-2.68,4.23-5.53,8.17-8.43,11.73" style="fill:none;stroke:#999;stroke-width:3" />
<path d="M1463.76,30.28c0.85,0.85,1.18,1.58,1.45,3.01c1.29,6.76,2.37,12.89,3.36,19.09c0.38,2.35,0.74,4.72,1.1,7.13" style="fill:none;stroke:#999;stroke-width:3" />
<path d="M1465.52,31.44c12.11-1.75,30.85-3.43,41.34-4.21c3.77-0.28,4.15,1.74,3.72,4.88c-0.56,4.11-2.15,11.97-3.6,18.41c-0.48,2.15-0.95,4.13-1.36,5.77" style="fill:none;stroke:#999;stroke-width:3" />
<path d="M1486.17,31.47c0.81,0.81,1,1.88,0.99,2.78c-0.04,5.58,0.05,11.93,0.05,20.08" style="fill:none;stroke:#999;stroke-width:3" />
<path d="M1468.1599999999999,44.31c14.46-1.43,27.59-2.56,39.91-3.41" style="fill:none;stroke:#999;stroke-width:3" />
<path d="M1470.52,56.71c10.44-1.11,23.19-1.95,34.44-2.65" style="fill:none;stroke:#999;stroke-width:3" />
<path d="M1470.79,67.41c1.03,1.03,1.27,2.2,1.38,3.09c0.89,7.55,1.53,14.02,2.28,20.5c0.27,2.31,0.54,4.63,0.85,7" style="fill:none;stroke:#999;stroke-width:3" />
<path d="M1472.34,68.21C1480.5,67,1489.5,66,1499.87,65.1c4.01-0.35,4.83,1.98,4.46,5.4c-0.45,4.29-1.36,11.91-2.26,18.86c-0.31,2.35-0.61,4.63-0.9,6.67" style="fill:none;stroke:#999;stroke-width:3" />
<path d="M1474.41,81.25c9.72-1.13,18.09-1.88,28.1-2.35" style="fill:none;stroke:#999;stroke-width:3" />
<path d="M1476.11,95.31c9.39-0.94,15.39-1.06,24.27-1.56" style="fill:none;stroke:black;stroke-width:3" />
<circle cx="1476.11" cy="95.31" r="5" stroke-width="0" fill="#FF2A00" opacity="0.7" />
</svg>