<svg width="1090px" height="109px" viewBox="0 0 1090px 109px" xmlns="http://www.w3.org/2000/svg" xmlns:xlink="http://www.w3.org/1999/xlink" xml:space="preserve" version="1.1"  baseProfile="full">
<line x1="1" y1="1" x2="1089" y2="1" style="stroke:#ddd;stroke-width:2" />
<line x1="1" y1="1" x2="1" y2="108" style="stroke:#ddd;stroke-width:2" />
<line x1="1" y1="108" x2="1089" y2="108" style="stroke:#ddd;stroke-width:2" />
<line x1="1089" y1="1" x2="1089" y2="108" style="stroke:#ddd;stroke-width:2" />
<line x1="109" y1="1" x2="109" y2="108" style="stroke:#ddd;stroke-width:2" />
<line x1="218" y1="1" x2="218" y2="108" style="stroke:#ddd;stroke-width:2" />
<line x1="327" y1="1" x2="327" y2="108" style="stroke:#ddd;stroke-width:2" />
<line x1="436" y1="1" x2="436" y2="108" style="stroke:#ddd;stroke-width:2" />
<line x1="545" y1="1" x2="545" y2="108" style="stroke:#ddd;stroke-width:2" />
<line x1="654" y1="1" x2="654" y2="108" style="stroke:#ddd;stroke-width:2" />
<line x1="763" y1="1" x2="763" y2="108" style="stroke:#ddd;stroke-width:2" />
<line x1="872" y1="1" x2="872" y2="108" style="stroke:#ddd;stroke-width:2" />
<line x1="981" y1="1" x2="981" y2="108" style="stroke:#ddd;stroke-width:2" />
<line x1="1" y1="54" x2="1089" y2="54" style="stroke:#ddd;stroke-width:2;stroke-dasharray:3 3" />
<line x1="55" y1="1" x2="55" y2="108" style="stroke:#ddd;stroke-width:2;stroke-dasharray:3 3" />
<line x1="164" y1="1" x2="164" y2="108" style="stroke:#ddd;stroke-width:2;stroke-dasharray:3 3" />
<line x1="273" y1="1" x2="273" y2="108" style="stroke:#ddd;stroke-width:2;stroke-dasharray:3 3" />
<line x1="382" y1="1" x2="382" y2="108" style="stroke:#ddd;stroke-width:2;stroke-dasharray:3 3" />
<line x1="491" y1="1" x2="491" y2="108" style="stroke:#ddd;stroke-width:2;stroke-dasharray:3 3" />
<line x1="600" y1="1" x2="600" y2="108" style="stroke:#ddd;stroke-width:2;stroke-dasharray:3 3" />
<line x1="709" y1="1" x2="709" y2="108" style="stroke:#ddd;stroke-width:2;stroke-dasharray:3 3" />
<line x1="818" y1="1" x2="818" y2="108" style="stroke:#ddd;stroke-width:2;stroke-dasharray:3 3" />
<line x1="927" y1="1" x2="927" y2="108" style="stroke:#ddd;stroke-width:2;stroke-dasharray:3 3" />
<line x1="1036" y1="1" x2="1036" y2="108" style="stroke:#ddd;stroke-width:2;stroke-dasharray:3 3" />
<path d="M26.68,16.15c3.1,0.78,6.19,0.83,9.32,0.47c13.75-1.62,27.38-3.49,43.14-4.37c3.72-0.21,6.32,0.36,5.14,4.43c-0.88,3.01-1.32,4.4-2.65,8.14" style="fill:none;stroke:black;stroke-width:3" />
<circle cx="26.68" cy="16.15" r="5" stroke-width="0" fill="#FF2A00" opacity="0.7" />
<path d="M135.68,16.15c3.1,0.78,6.19,0.83,9.32,0.47c13.75-1.62,27.38-3.49,43.14-4.37c3.72-0.21,6.32,0.36,5.14,4.43c-0.88,3.01-1.32,4.4-2.65,8.14" style="fill:none;stroke:#999;stroke-width:3" />
<path d="M140.9,29.92c14.1-1.42,28.98-2.67,44.24-3.84c3.42-0.26,5.24-0.46,7.17-0.29" style="fill:none;stroke:black;stroke-width:3" />
<circle cx="140.9" cy="29.92" r="5" stroke-width="0" fill="#FF2A00" opacity="0.7" />
<path d="M244.68,16.15c3.1,0.78,6.19,0.83,9.32,0.47c13.75-1.62,27.38-3.49,43.14-4.37c3.72-0.21,6.32,0.36,5.14,4.43c-0.88,3.01-1.32,4.4-2.65,8.14" style="fill:none;stroke:#999;stroke-width:3" />
<path d="M249.9,29.92c14.1-1.42,28.98-2.67,44.24-3.84c3.42-0.26,5.24-0.46,7.17-0.29" style="fill:none;stroke:#999;stroke-width:3" />
<path d="M247.82999999999998,17.33c1.17,0.8,1.34,2.17,1.29,3.67c-1,31.88-7,52.75-19.12,66" style="fill:none;stroke:black;stroke-width:3" />
<circle cx="247.82999999999998" cy="17.33" r="5" stroke-width="0" fill="#FF2A00" opacity="0.7" />
<path d="M353.68,16.15c3.1,0.78,6.19,0.83,9.32,0.47c13.75-1.62,27.38-3.49,43.14-4.37c3.72-0.21,6.32,0.36,5.14,4.43c-0.88,3.01-1.32,4.4-2.65,8.14" style="fill:none;stroke:#999;stroke-width:3" />
<path d="M358.9,29.92c14.1-1.42,28.98-2.67,44.24-3.84c3.42-0.26,5.24-0.46,7.17-0.29" style="fill:none;stroke:#999;stroke-width:3" />
<path d="M356.83,17.33c1.17,0.8,1.34,2.17,1.29,3.67c-1,31.88-7,52.75-19.12,66" style="fill:none;stroke:#999;stroke-width:3" />
<path d="M387.06,31.83c1.06,1.06,1.49,2.3,1.49,4.14c0,6.37-0.05,11.11-0.05,14.16" style="fill:none;stroke:black;stroke-width:3" />
<circle cx="387.06" cy="31.83" r="5" stroke-width="0" fill="#FF2A00" opacity="0.7" />
<path d="M462.68,16.15c3.1,0.78,6.19,0.83,9.32,0.47c13.75-1.62,27.38-3.49,43.14-4.37c3.72-0.21,6.32,0.36,5.14,4.43c-0.88,3.01-1.32,4.4-2.65,8.14" style="fill:none;stroke:#999;stroke-width:3" />
<path d="M467.9,29.92c14.1-1.42,28.98-2.67,44.24-3.84c3.42-0.26,5.24-0.46,7.17-0.29" style="fill:none;stroke:#999;stroke-width:3" />
<path d="M465.83,17.33c1.17,0.8,1.34,2.17,1.29,3.67c-1,31.88-7,52.75-19.12,66" style="fill:none;stroke:#999;stroke-width:3" />
<path d="M496.06,31.83c1.06,1.06,1.49,2.3,1.49,4.14c0,6.37-0.05,11.11-0.05,14.16" style="fill:none;stroke:#999;stroke-width:3" />
<path d="M476.06,36.98c3.51,1.99,7.95,6.77,8.83,9.86" style="fill:none;stroke:black;stroke-width:3" />
<circle cx="476.06" cy="36.98" r="5" stroke-width="0" fill="#FF2A00" opacity="0.7" />
<path d="M571.6800000000001,16.15c3.1,0.78,6.19,0.83,9.32,0.47c13.75-1.62,27.38-3.49,43.14-4.37c3.72-0.21,6.32,0.36,5.14,4.43c-0.88,3.01-1.32,4.4-2.65,8.14" style="fill:none;stroke:#999;stroke-width:3" />
<path d="M576.9,29.92c14.1-1.42,28.98-2.67,44.24-3.84c3.42-0.26,5.24-0.46,7.17-0.29" style="fill:none;stroke:#999;stroke-width:3" />
<path d="M574.8299999999999,17.33c1.17,0.8,1.34,2.17,1.29,3.67c-1,31.88-7,52.75-19.12,66" style="fill:none;stroke:#999;stroke-width:3" />
<path d="M605.06,31.83c1.06,1.06,1.49,2.3,1.49,4.14c0,6.37-0.05,11.11-0.05,14.16" style="fill:none;stroke:#999;stroke-width:3" />
<path d="M585.06,36.98c3.51,1.99,7.95,6.77,8.83,9.86" style="fill:none;stroke:#999;stroke-width:3" />
<path d="M626.46,32.78c0.09,0.98-0.35,1.91-0.81,2.79c-1.77,2.94-3.7,5.86-7.42,9.54" style="fill:none;stroke:black;stroke-width:3" />
<circle cx="626.46" cy="32.78" r="5" stroke-width="0" fill="#FF2A00" opacity="0.7" />
<path d="M680.6800000000001,16.15c3.1,0.78,6.19,0.83,9.32,0.47c13.75-1.62,27.38-3.49,43.14-4.37c3.72-0.21,6.32,0.36,5.14,4.43c-0.88,3.01-1.32,4.4-2.65,8.14" style="fill:none;stroke:#999;stroke-width:3" />
<path d="M685.9,29.92c14.1-1.42,28.98-2.67,44.24-3.84c3.42-0.26,5.24-0.46,7.17-0.29" style="fill:none;stroke:#999;stroke-width:3" />
<path d="M683.8299999999999,17.33c1.17,0.8,1.34,2.17,1.29,3.67c-1,31.88-7,52.75-19.12,66" style="fill:none;stroke:#999;stroke-width:3" />
<path d="M714.06,31.83c1.06,1.06,1.49,2.3,1.49,4.14c0,6.37-0.05,11.11-0.05,14.16" style="fill:none;stroke:#999;stroke-width:3" />
<path d="M694.06,36.98c3.51,1.99,7.95,6.77,8.83,9.86" style="fill:none;stroke:#999;stroke-width:3" />
<path d="M735.46,32.78c0.09,0.98-0.35,1.91-0.81,2.79c-1.77,2.94-3.7,5.86-7.42,9.54" style="fill:none;stroke:#999;stroke-width:3" />
<path d="M695.08,51.87c0.85,0.83,1.2,2.26,1.2,3.24c0,0.67,0.02,24.1,0.03,36.64c0,3.78,0,6.57,0,7.45" style="fill:none;stroke:black;stroke-width:3" />
<circle cx="695.08" cy="51.87" r="5" stroke-width="0" fill="#FF2A00" opacity="0.7" />
<path d="M789.6800000000001,16.15c3.1,0.78,6.19,0.83,9.32,0.47c13.75-1.62,27.38-3.49,43.14-4.37c3.72-0.21,6.32,0.36,5.14,4.43c-0.88,3.01-1.32,4.4-2.65,8.14" style="fill:none;stroke:#999;stroke-width:3" />
<path d="M794.9,29.92c14.1-1.42,28.98-2.67,44.24-3.84c3.42-0.26,5.24-0.46,7.17-0.29" style="fill:none;stroke:#999;stroke-width:3" />
<path d="M792.8299999999999,17.33c1.17,0.8,1.34,2.17,1.29,3.67c-1,31.88-7,52.75-19.12,66" style="fill:none;stroke:#999;stroke-width:3" />
<path d="M823.06,31.83c1.06,1.06,1.49,2.3,1.49,4.14c0,6.37-0.05,11.11-0.05,14.16" style="fill:none;stroke:#999;stroke-width:3" />
<path d="M803.06,36.98c3.51,1.99,7.95,6.77,8.83,9.86" style="fill:none;stroke:#999;stroke-width:3" />
<path d="M844.46,32.78c0.09,0.98-0.35,1.91-0.81,2.79c-1.77,2.94-3.7,5.86-7.42,9.54" style="fill:none;stroke:#999;stroke-width:3" />
<path d="M804.08,51.87c0.85,0.83,1.2,2.26,1.2,3.24c0,0.67,0.02,24.1,0.03,36.64c0,3.78,0,6.57,0,7.45" style="fill:none;stroke:#999;stroke-width:3" />
<path d="M806.17,53.09c2.97-0.18,30.93-3.13,33.14-3.33c3.96-0.36,4.94,0.99,4.94,3.69c0,7.81,0.01,24.19,0.01,38.86c0,10.19-4.14,3.19-7.65,0.25" style="fill:none;stroke:black;stroke-width:3" />
<circle cx="806.17" cy="53.09" r="5" stroke-width="0" fill="#FF2A00" opacity="0.7" />
<path d="M898.6800000000001,16.15c3.1,0.78,6.19,0.83,9.32,0.47c13.75-1.62,27.38-3.49,43.14-4.37c3.72-0.21,6.32,0.36,5.14,4.43c-0.88,3.01-1.32,4.4-2.65,8.14" style="fill:none;stroke:#999;stroke-width:3" />
<path d="M903.9,29.92c14.1-1.42,28.98-2.67,44.24-3.84c3.42-0.26,5.24-0.46,7.17-0.29" style="fill:none;stroke:#999;stroke-width:3" />
<path d="M901.8299999999999,17.33c1.17,0.8,1.34,2.17,1.29,3.67c-1,31.88-7,52.75-19.12,66" style="fill:none;stroke:#999;stroke-width:3" />
<path d="M932.06,31.83c1.06,1.06,1.49,2.3,1.49,4.14c0,6.37-0.05,11.11-0.05,14.16" style="fill:none;stroke:#999;stroke-width:3" />
<path d="M912.06,36.98c3.51,1.99,7.95,6.77,8.83,9.86" style="fill:none;stroke:#999;stroke-width:3" />
<path d="M953.46,32.78c0.09,0.98-0.35,1.91-0.81,2.79c-1.77,2.94-3.7,5.86-7.42,9.54" style="fill:none;stroke:#999;stroke-width:3" />
<path d="M913.08,51.87c0.85,0.83,1.2,2.26,1.2,3.24c0,0.67,0.02,24.1,0.03,36.64c0,3.78,0,6.57,0,7.45" style="fill:none;stroke:#999;stroke-width:3" />
<path d="M915.17,53.09c2.97-0.18,30.93-3.13,33.14-3.33c3.96-0.36,4.94,0.99,4.94,3.69c0,7.81,0.01,24.19,0.01,38.86c0,10.19-4.14,3.19-7.65,0.25" style="fill:none;stroke:#999;stroke-width:3" />
<path d="M915.42,65c11.08-1,26.45-2,36.6-2.67" style="fill:none;stroke:black;stroke-width:3" />
<circle cx="915.42" cy="65.0" r="5" stroke-width="0" fill="#FF2A00" opacity="0.7" />
<path d="M1007.6800000000001,16.15c3.1,0.78,6.19,0.83,9.32,0.47c13.75-1.62,27.38-3.49,43.14-4.37c3.72-0.21,6.32,0.36,5.14,4.43c-0.88,3.01-1.32,4.4-2.65,8.14" style="fill:none;stroke:#999;stroke-width:3" />
<path d="M1012.9,29.92c14.1-1.42,28.98-2.67,44.24-3.84c3.42-0.26,5.24-0.46,7.17-0.29" style="fill:none;stroke:#999;stroke-width:3" />
<path d="M1010.8299999999999,17.33c1.17,0.8,1.34,2.17,1.29,3.67c-1,31.88-7,52.75-19.12,66" style="fill:none;stroke:#999;stroke-width:3" />
<path d="M1041.06,31.83c1.06,1.06,1.49,2.3,1.49,4.14c0,6.37-0.05,11.11-0.05,14.16" style="fill:none;stroke:#999;stroke-width:3" />
<path d="M1021.06,36.98c3.51,1.99,7.95,6.77,8.83,9.86" style="fill:none;stroke:#999;stroke-width:3" />
<path d="M1062.46,32.78c0.09,0.98-0.35,1.91-0.81,2.79c-1.77,2.94-3.7,5.86-7.42,9.54" style="fill:none;stroke:#999;stroke-width:3" />
<path d="M1022.08,51.87c0.85,0.83,1.2,2.26,1.2,3.24c0,0.67,0.02,24.1,0.03,36.64c0,3.78,0,6.57,0,7.45" style="fill:none;stroke:#999;stroke-width:3" />
<path d="M1024.17,53.09c2.97-0.18,30.93-3.13,33.14-3.33c3.96-0.36,4.94,0.99,4.94,3.69c0,7.81,0.01,24.19,0.01,38.86c0,10.19-4.14,3.19-7.65,0.25" style="fill:none;stroke:#999;stroke-width:3" />
<path d="M1024.42,65c11.08-1,26.45-2,36.6-2.67" style="fill:none;stroke:#999;stroke-width:3" />
<path d="M1024.43,77.07C1034.62,76.38,1052.0,75,1062.03,74.4" style="fill:none;stroke:black;stroke-width:3" />
<circle cx="1024.43" cy="77.07" r="5" stroke-width="0" fill="#FF2A00" opacity="0.7" />
</svg>