<svg width="872px" height="109px" viewBox="0 0 872px 109px" xmlns="http://www.w3.org/2000/svg" xmlns:xlink="http://www.w3.org/1999/xlink" xml:space="preserve" version="1.1"  baseProfile="full">
<line x1="1" y1="1" x2="871" y2="1" style="stroke:#ddd;stroke-width:2" />
<line x1="1" y1="1" x2="1" y2="108" style="stroke:#ddd;stroke-width:2" />
<line x1="1" y1="108" x2="871" y2="108" style="stroke:#ddd;stroke-width:2" />
<line x1="871" y1="1" x2="871" y2="108" style="stroke:#ddd;stroke-width:2" />
<line x1="109" y1="1" x2="109" y2="108" style="stroke:#ddd;stroke-width:2" />
<line x1="218" y1="1" x2="218" y2="108" style="stroke:#ddd;stroke-width:2" />
<line x1="327" y1="1" x2="327" y2="108" style="stroke:#ddd;stroke-width:2" />
<line x1="436" y1="1" x2="436" y2="108" style="stroke:#ddd;stroke-width:2" />
<line x1="545" y1="1" x2="545" y2="108" style="stroke:#ddd;stroke-width:2" />
<line x1="654" y1="1" x2="654" y2="108" style="stroke:#ddd;stroke-width:2" />
<line x1="763" y1="1" x2="763" y2="108" style="stroke:#ddd;stroke-width:2" />
<line x1="1" y1="54" x2="871" y2="54" style="stroke:#ddd;stroke-width:2;stroke-dasharray:3 3" />
<line x1="55" y1="1" x2="55" y2="108" style="stroke:#ddd;stroke-width:2;stroke-dasharray:3 3" />
<line x1="164" y1="1" x2="164" y2="108" style="stroke:#ddd;stroke-width:2;stroke-dasharray:3 3" />
<line x1="273" y1="1" x2="273" y2="108" style="stroke:#ddd;stroke-width:2;stroke-dasharray:3 3" />
<line x1="382" y1="1" x2="382" y2="108" style="stroke:#ddd;stroke-width:2;stroke-dasharray:3 3" />
<line x1="491" y1="1" x2="491" y2="108" style="stroke:#ddd;stroke-width:2;stroke-dasharray:3 3" />
<line x1="600" y1="1" x2="600" y2="108" style="stroke:#ddd;stroke-width:2;stroke-dasharray:3 3" />
<line x1="709" y1="1" x2="709" y2="108" style="stroke:#ddd;stroke-width:2;stroke-dasharray:3 3" />
<line x1="818" y1="1" x2="818" y2="108" style="stroke:#ddd;stroke-width:2;stroke-dasharray:3 3" />
<path d="M28.25,60.93c0.6,0.27,1.88,2.02,2,2.56c0.12,0.54,2.92,23.67,2.8,27.04" style="fill:none;stroke:black;stroke-width:3" />
<circle cx="28.25" cy="60.93" r="5" stroke-width="0" fill="#FF2A00" opacity="0.7" />
<path d="M137.25,60.93c0.6,0.27,1.88,2.02,2,2.56c0.12,0.54,2.92,23.67,2.8,27.04" style="fill:none;stroke:#999;stroke-width:3" />
<path d="M138.79,62.39c3.78-0.19,44.8-4.49,47.62-4.61c3.31-0.14,4.03,2.38,3.91,3.61c-0.6,6.19-2.65,16.78-4.88,22.75C183.25,90,181.5,87,178.88,83.24" style="fill:none;stroke:black;stroke-width:3" />
<circle cx="138.79" cy="62.39" r="5" stroke-width="0" fill="#FF2A00" opacity="0.7" />
<path d="M246.25,60.93c0.6,0.27,1.88,2.02,2,2.56c0.12,0.54,2.92,23.67,2.8,27.04" style="fill:none;stroke:#999;stroke-width:3" />
<path d="M247.79,62.39c3.78-0.19,44.8-4.49,47.62-4.61c3.31-0.14,4.03,2.38,3.91,3.61c-0.6,6.19-2.65,16.78-4.88,22.75C292.25,90,290.5,87,287.88,83.24" style="fill:none;stroke:#999;stroke-width:3" />
<path d="M270.52,46.38c0.6,0.27,1.88,2.02,2,2.56c0.12,0.54-0.08,49.57-0.2,52.94" style="fill:none;stroke:black;stroke-width:3" />
<circle cx="270.52" cy="46.38" r="5" stroke-width="0" fill="#FF2A00" opacity="0.7" />
<path d="M355.25,60.93c0.6,0.27,1.88,2.02,2,2.56c0.12,0.54,2.92,23.67,2.8,27.04" style="fill:none;stroke:#999;stroke-width:3" />
<path d="M356.78999999999996,62.39c3.78-0.19,44.8-4.49,47.62-4.61c3.31-0.14,4.03,2.38,3.91,3.61c-0.6,6.19-2.65,16.78-4.88,22.75C401.25,90,399.5,87,396.88,83.24" style="fill:none;stroke:#999;stroke-width:3" />
<path d="M379.52,46.38c0.6,0.27,1.88,2.02,2,2.56c0.12,0.54-0.08,49.57-0.2,52.94" style="fill:none;stroke:#999;stroke-width:3" />
<path d="M359.93,10.44c0.38,0.87,0.56,2.29,0.36,3.47c-0.97,5.8-5.75,17.67-9.98,24.16c-0.87,1.33,0.37,2.04,0.86,2.18c7.29,2.13,13.94,2.92,19.6,8.58" style="fill:none;stroke:black;stroke-width:3" />
<circle cx="359.93" cy="10.44" r="5" stroke-width="0" fill="#FF2A00" opacity="0.7" />
<path d="M464.25,60.93c0.6,0.27,1.88,2.02,2,2.56c0.12,0.54,2.92,23.67,2.8,27.04" style="fill:none;stroke:#999;stroke-width:3" />
<path d="M465.78999999999996,62.39c3.78-0.19,44.8-4.49,47.62-4.61c3.31-0.14,4.03,2.38,3.91,3.61c-0.6,6.19-2.65,16.78-4.88,22.75C510.25,90,508.5,87,505.88,83.24" style="fill:none;stroke:#999;stroke-width:3" />
<path d="M488.52,46.38c0.6,0.27,1.88,2.02,2,2.56c0.12,0.54-0.08,49.57-0.2,52.94" style="fill:none;stroke:#999;stroke-width:3" />
<path d="M468.93,10.44c0.38,0.87,0.56,2.29,0.36,3.47c-0.97,5.8-5.75,17.67-9.98,24.16c-0.87,1.33,0.37,2.04,0.86,2.18c7.29,2.13,13.94,2.92,19.6,8.58" style="fill:none;stroke:#999;stroke-width:3" />
<path d="M480.62,21.17c0.07,0.78,0.11,2.67-0.15,3.78c-2.13,8.93-8.26,21.35-23.38,26.91" style="fill:none;stroke:black;stroke-width:3" />
<circle cx="480.62" cy="21.17" r="5" stroke-width="0" fill="#FF2A00" opacity="0.7" />
<path d="M573.25,60.93c0.6,0.27,1.88,2.02,2,2.56c0.12,0.54,2.92,23.67,2.8,27.04" style="fill:none;stroke:#999;stroke-width:3" />
<path d="M574.79,62.39c3.78-0.19,44.8-4.49,47.62-4.61c3.31-0.14,4.03,2.38,3.91,3.61c-0.6,6.19-2.65,16.78-4.88,22.75C619.25,90,617.5,87,614.88,83.24" style="fill:none;stroke:#999;stroke-width:3" />
<path d="M597.52,46.38c0.6,0.27,1.88,2.02,2,2.56c0.12,0.54-0.08,49.57-0.2,52.94" style="fill:none;stroke:#999;stroke-width:3" />
<path d="M577.9300000000001,10.44c0.38,0.87,0.56,2.29,0.36,3.47c-0.97,5.8-5.75,17.67-9.98,24.16c-0.87,1.33,0.37,2.04,0.86,2.18c7.29,2.13,13.94,2.92,19.6,8.58" style="fill:none;stroke:#999;stroke-width:3" />
<path d="M589.62,21.17c0.07,0.78,0.11,2.67-0.15,3.78c-2.13,8.93-8.26,21.35-23.38,26.91" style="fill:none;stroke:#999;stroke-width:3" />
<path d="M557.25,28.29c0.83,1.8,2.59,1.89,4.73,1.25C565.5,28.5,582.25,25,595.27,21.78" style="fill:none;stroke:black;stroke-width:3" />
<circle cx="557.25" cy="28.29" r="5" stroke-width="0" fill="#FF2A00" opacity="0.7" />
<path d="M682.25,60.93c0.6,0.27,1.88,2.02,2,2.56c0.12,0.54,2.92,23.67,2.8,27.04" style="fill:none;stroke:#999;stroke-width:3" />
<path d="M683.79,62.39c3.78-0.19,44.8-4.49,47.62-4.61c3.31-0.14,4.03,2.38,3.91,3.61c-0.6,6.19-2.65,16.78-4.88,22.75C728.25,90,726.5,87,723.88,83.24" style="fill:none;stroke:#999;stroke-width:3" />
<path d="M706.52,46.38c0.6,0.27,1.88,2.02,2,2.56c0.12,0.54-0.08,49.57-0.2,52.94" style="fill:none;stroke:#999;stroke-width:3" />
<path d="M686.9300000000001,10.44c0.38,0.87,0.56,2.29,0.36,3.47c-0.97,5.8-5.75,17.67-9.98,24.16c-0.87,1.33,0.37,2.04,0.86,2.18c7.29,2.13,13.94,2.92,19.6,8.58" style="fill:none;stroke:#999;stroke-width:3" />
<path d="M698.62,21.17c0.07,0.78,0.11,2.67-0.15,3.78c-2.13,8.93-8.26,21.35-23.38,26.91" style="fill:none;stroke:#999;stroke-width:3" />
<path d="M666.25,28.29c0.83,1.8,2.59,1.89,4.73,1.25C674.5,28.5,691.25,25,704.27,21.78" style="fill:none;stroke:#999;stroke-width:3" />
<path d="M713.8,16.51c1.07,0.23,1.2,0.57,3.34,0.23c2.14-0.34,17.81-3.4,19.28-3.74c1.47-0.34,3.23,0.99,2.72,2.25C735.0,25.49,724.86,39.1,712.69,44.04" style="fill:none;stroke:black;stroke-width:3" />
<circle cx="713.8" cy="16.51" r="5" stroke-width="0" fill="#FF2A00" opacity="0.7" />
<path d="M791.25,60.93c0.6,0.27,1.88,2.02,2,2.56c0.12,0.54,2.92,23.67,2.8,27.04" style="fill:none;stroke:#999;stroke-width:3" />
<path d="M792.79,62.39c3.78-0.19,44.8-4.49,47.62-4.61c3.31-0.14,4.03,2.38,3.91,3.61c-0.6,6.19-2.65,16.78-4.88,22.75C837.25,90,835.5,87,832.88,83.24" style="fill:none;stroke:#999;stroke-width:3" />
<path d="M815.52,46.38c0.6,0.27,1.88,2.02,2,2.56c0.12,0.54-0.08,49.57-0.2,52.94" style="fill:none;stroke:#999;stroke-width:3" />
<path d="M795.9300000000001,10.44c0.38,0.87,0.56,2.29,0.36,3.47c-0.97,5.8-5.75,17.67-9.98,24.16c-0.87,1.33,0.37,2.04,0.86,2.18c7.29,2.13,13.94,2.92,19.6,8.58" style="fill:none;stroke:#999;stroke-width:3" />
<path d="M807.62,21.17c0.07,0.78,0.11,2.67-0.15,3.78c-2.13,8.93-8.26,21.35-23.38,26.91" style="fill:none;stroke:#999;stroke-width:3" />
<path d="M775.25,28.29c0.83,1.8,2.59,1.89,4.73,1.25C783.5,28.5,800.25,25,813.27,21.78" style="fill:none;stroke:#999;stroke-width:3" />
<path d="M822.8,16.51c1.07,0.23,1.2,0.57,3.34,0.23c2.14-0.34,17.81-3.4,19.28-3.74c1.47-0.34,3.23,0.99,2.72,2.25C844.0,25.49,833.86,39.1,821.69,44.04" style="fill:none;stroke:#999;stroke-width:3" />
<path d="M821.52,22.39c3.27,0.57,19.22,15.81,30.59,22.05c1.77,0.97,3.06,1.62,4.71,1.94" style="fill:none;stroke:black;stroke-width:3" />
<circle cx="821.52" cy="22.39" r="5" stroke-width="0" fill="#FF2A00" opacity="0.7" />
</svg>