<svg width="1744px" height="109px" viewBox="0 0 1744px 109px" xmlns="http://www.w3.org/2000/svg" xmlns:xlink="http://www.w3.org/1999/xlink" xml:space="preserve" version="1.1"  baseProfile="full">
<line x1="1" y1="1" x2="1743" y2="1" style="stroke:#ddd;stroke-width:2" />
<line x1="1" y1="1" x2="1" y2="108" style="stroke:#ddd;stroke-width:2" />
<line x1="1" y1="108" x2="1743" y2="108" style="stroke:#ddd;stroke-width:2" />
<line x1="1743" y1="1" x2="1743" y2="108" style="stroke:#ddd;stroke-width:2" />
<line x1="109" y1="1" x2="109" y2="108" style="stroke:#ddd;stroke-width:2" />
<line x1="218" y1="1" x2="218" y2="108" style="stroke:#ddd;stroke-width:2" />
<line x1="327" y1="1" x2="327" y2="108" style="stroke:#ddd;stroke-width:2" />
<line x1="436" y1="1" x2="436" y2="108" style="stroke:#ddd;stroke-width:2" />
<line x1="545" y1="1" x2="545" y2="108" style="stroke:#ddd;stroke-width:2" />
<line x1="654" y1="1" x2="654" y2="108" style="stroke:#ddd;stroke-width:2" />
<line x1="763" y1="1" x2="763" y2="108" style="stroke:#ddd;stroke-width:2" />
<line x1="872" y1="1" x2="872" y2="108" style="stroke:#ddd;stroke-width:2" />
<line x1="981" y1="1" x2="981" y2="108" style="stroke:#ddd;stroke-width:2" />
<line x1="1090" y1="1" x2="1090" y2="108" style="stroke:#ddd;stroke-width:2" />
<line x1="1199" y1="1" x2="1199" y2="108" style="stroke:#ddd;stroke-width:2" />
<line x1="1308" y1="1" x2="1308" y2="108" style="stroke:#ddd;stroke-width:2" />
<line x1="1417" y1="1" x2="1417" y2="108" style="stroke:#ddd;stroke-width:2" />
<line x1="1526" y1="1" x2="1526" y2="108" style="stroke:#ddd;stroke-width:2" />
<line x1="1635" y1="1" x2="1635" y2="108" style="stroke:#ddd;stroke-width:2" />
<line x1="1" y1="54" x2="1743" y2="54" style="stroke:#ddd;stroke-width:2;stroke-dasharray:3 3" />
<line x1="55" y1="1" x2="55" y2="108" style="stroke:#ddd;stroke-width:2;stroke-dasharray:3 3" />
<line x1="164" y1="1" x2="164" y2="108" style="stroke:#ddd;stroke-width:2;stroke-dasharray:3 3" />
<line x1="273" y1="1" x2="273" y2="108" style="stroke:#ddd;stroke-width:2;stroke-dasharray:3 3" />
<line x1="382" y1="1" x2="382" y2="108" style="stroke:#ddd;stroke-width:2;stroke-dasharray:3 3" />
<line x1="491" y1="1" x2="491" y2="108" style="stroke:#ddd;stroke-width:2;stroke-dasharray:3 3" />
<line x1="600" y1="1" x2="600" y2="108" style="stroke:#ddd;stroke-width:2;stroke-dasharray:3 3" />
<line x1="709" y1="1" x2="709" y2="108" style="stroke:#ddd;stroke-width:2;stroke-dasharray:3 3" />
<line x1="818" y1="1" x2="818" y2="108" style="stroke:#ddd;stroke-width:2;stroke-dasharray:3 3" />
<line x1="927" y1="1" x2="927" y2="108" style="stroke:#ddd;stroke-width:2;stroke-dasharray:3 3" />
<line x1="1036" y1="1" x2="1036" y2="108" style="stroke:#ddd;stroke-width:2;stroke-dasharray:3 3" />
<line x1="1145" y1="1" x2="1145" y2="108" style="stroke:#ddd;stroke-width:2;stroke-dasharray:3 3" />
<line x1="1254" y1="1" x2="1254" y2="108" style="stroke:#ddd;stroke-width:2;stroke-dasharray:3 3" />
<line x1="1363" y1="1" x2="1363" y2="108" style="stroke:#ddd;stroke-width:2;stroke-dasharray:3 3" />
<line x1="1472" y1="1" x2="1472" y2="108" style="stroke:#ddd;stroke-width:2;stroke-dasharray:3 3" />
<line x1="1581" y1="1" x2="1581" y2="108" style="stroke:#ddd;stroke-width:2;stroke-dasharray:3 3" />
<line x1="1690" y1="1" x2="1690" y2="108" style="stroke:#ddd;stroke-width:2;stroke-dasharray:3 3" />
<path d="M28.61,17.75c0,1.38-0.43,2.57-1.03,3.62c-2.54,4.67-7.92,11.69-13.96,17.13" style="fill:none;stroke:black;stroke-width:3" />
<circle cx="28.61" cy="17.75" r="5" stroke-width="0" fill="#FF2A00" opacity="0.7" />
<path d="M137.61,17.75c0,1.38-0.43,2.57-1.03,3.62c-2.54,4.67-7.92,11.69-13.96,17.13" style="fill:none;stroke:#999;stroke-width:3" />
<path d="M139.86,35.5c-0.2,1.3-0.58,2.55-1.13,3.74C135.56,45.23,128.35,54.61,118.5,64" style="fill:none;stroke:black;stroke-width:3" />
<circle cx="139.86" cy="35.5" r="5" stroke-width="0" fill="#FF2A00" opacity="0.7" />
<path d="M246.61,17.75c0,1.38-0.43,2.57-1.03,3.62c-2.54,4.67-7.92,11.69-13.96,17.13" style="fill:none;stroke:#999;stroke-width:3" />
<path d="M248.86,35.5c-0.2,1.3-0.58,2.55-1.13,3.74C244.56,45.23,237.35,54.61,227.5,64" style="fill:none;stroke:#999;stroke-width:3" />
<path d="M240.97,53c0.83,0.83,0.9,2,0.9,2.91c0,0.38-0.04,18.53-0.06,29.59c-0.01,3.94-0.01,6.98-0.01,8" style="fill:none;stroke:black;stroke-width:3" />
<circle cx="240.97" cy="53.0" r="5" stroke-width="0" fill="#FF2A00" opacity="0.7" />
<path d="M355.61,17.75c0,1.38-0.43,2.57-1.03,3.62c-2.54,4.67-7.92,11.69-13.96,17.13" style="fill:none;stroke:#999;stroke-width:3" />
<path d="M357.86,35.5c-0.2,1.3-0.58,2.55-1.13,3.74C353.56,45.23,346.35,54.61,336.5,64" style="fill:none;stroke:#999;stroke-width:3" />
<path d="M349.97,53c0.83,0.83,0.9,2,0.9,2.91c0,0.38-0.04,18.53-0.06,29.59c-0.01,3.94-0.01,6.98-0.01,8" style="fill:none;stroke:#999;stroke-width:3" />
<path d="M376.98,13.92c0.27,0.33,0.89,1.73,0.89,3.13c0,0.67-0.03,9.82-0.09,13.94" style="fill:none;stroke:black;stroke-width:3" />
<circle cx="376.98" cy="13.92" r="5" stroke-width="0" fill="#FF2A00" opacity="0.7" />
<path d="M464.61,17.75c0,1.38-0.43,2.57-1.03,3.62c-2.54,4.67-7.92,11.69-13.96,17.13" style="fill:none;stroke:#999;stroke-width:3" />
<path d="M466.86,35.5c-0.2,1.3-0.58,2.55-1.13,3.74C462.56,45.23,455.35,54.61,445.5,64" style="fill:none;stroke:#999;stroke-width:3" />
<path d="M458.97,53c0.83,0.83,0.9,2,0.9,2.91c0,0.38-0.04,18.53-0.06,29.59c-0.01,3.94-0.01,6.98-0.01,8" style="fill:none;stroke:#999;stroke-width:3" />
<path d="M485.98,13.92c0.27,0.33,0.89,1.73,0.89,3.13c0,0.67-0.03,9.82-0.09,13.94" style="fill:none;stroke:#999;stroke-width:3" />
<path d="M473.73,20.89c0.69,0.69,0.66,1.89,0.58,2.61c-0.32,3-0.14,4.1-0.48,7.13c-0.54,2.63-0.11,2.96,1.79,2.74c5.5-0.62,19.16-2.37,22.45-2.55" style="fill:none;stroke:black;stroke-width:3" />
<circle cx="473.73" cy="20.89" r="5" stroke-width="0" fill="#FF2A00" opacity="0.7" />
<path d="M573.61,17.75c0,1.38-0.43,2.57-1.03,3.62c-2.54,4.67-7.92,11.69-13.96,17.13" style="fill:none;stroke:#999;stroke-width:3" />
<path d="M575.86,35.5c-0.2,1.3-0.58,2.55-1.13,3.74C571.56,45.23,564.35,54.61,554.5,64" style="fill:none;stroke:#999;stroke-width:3" />
<path d="M567.97,53c0.83,0.83,0.9,2,0.9,2.91c0,0.38-0.04,18.53-0.06,29.59c-0.01,3.94-0.01,6.98-0.01,8" style="fill:none;stroke:#999;stroke-width:3" />
<path d="M594.98,13.92c0.27,0.33,0.89,1.73,0.89,3.13c0,0.67-0.03,9.82-0.09,13.94" style="fill:none;stroke:#999;stroke-width:3" />
<path d="M582.73,20.89c0.69,0.69,0.66,1.89,0.58,2.61c-0.32,3-0.14,4.1-0.48,7.13c-0.54,2.63-0.11,2.96,1.79,2.74c5.5-0.62,19.16-2.37,22.45-2.55" style="fill:none;stroke:#999;stroke-width:3" />
<path d="M609.19,17.8c0.75,0.76,0.8,2.09,0.58,3.41c-0.9,5.54-1.27,8.04-2.11,12.38" style="fill:none;stroke:black;stroke-width:3" />
<circle cx="609.19" cy="17.8" r="5" stroke-width="0" fill="#FF2A00" opacity="0.7" />
<path d="M682.61,17.75c0,1.38-0.43,2.57-1.03,3.62c-2.54,4.67-7.92,11.69-13.96,17.13" style="fill:none;stroke:#999;stroke-width:3" />
<path d="M684.86,35.5c-0.2,1.3-0.58,2.55-1.13,3.74C680.56,45.23,673.35,54.61,663.5,64" style="fill:none;stroke:#999;stroke-width:3" />
<path d="M676.97,53c0.83,0.83,0.9,2,0.9,2.91c0,0.38-0.04,18.53-0.06,29.59c-0.01,3.94-0.01,6.98-0.01,8" style="fill:none;stroke:#999;stroke-width:3" />
<path d="M703.98,13.92c0.27,0.33,0.89,1.73,0.89,3.13c0,0.67-0.03,9.82-0.09,13.94" style="fill:none;stroke:#999;stroke-width:3" />
<path d="M691.73,20.89c0.69,0.69,0.66,1.89,0.58,2.61c-0.32,3-0.14,4.1-0.48,7.13c-0.54,2.63-0.11,2.96,1.79,2.74c5.5-0.62,19.16-2.37,22.45-2.55" style="fill:none;stroke:#999;stroke-width:3" />
<path d="M718.19,17.8c0.75,0.76,0.8,2.09,0.58,3.41c-0.9,5.54-1.27,8.04-2.11,12.38" style="fill:none;stroke:#999;stroke-width:3" />
<path d="M701.57,36.67c0,1.33-0.51,2.33-1.18,3.22c-2.95,3.92-4.91,6.07-7.57,8.56c-1.08,1.01-1.4,2.54,0.5,3.09c2.58,0.75,5.26,1.97,7.27,3.26" style="fill:none;stroke:black;stroke-width:3" />
<circle cx="701.57" cy="36.67" r="5" stroke-width="0" fill="#FF2A00" opacity="0.7" />
<path d="M791.61,17.75c0,1.38-0.43,2.57-1.03,3.62c-2.54,4.67-7.92,11.69-13.96,17.13" style="fill:none;stroke:#999;stroke-width:3" />
<path d="M793.86,35.5c-0.2,1.3-0.58,2.55-1.13,3.74C789.56,45.23,782.35,54.61,772.5,64" style="fill:none;stroke:#999;stroke-width:3" />
<path d="M785.97,53c0.83,0.83,0.9,2,0.9,2.91c0,0.38-0.04,18.53-0.06,29.59c-0.01,3.94-0.01,6.98-0.01,8" style="fill:none;stroke:#999;stroke-width:3" />
<path d="M812.98,13.92c0.27,0.33,0.89,1.73,0.89,3.13c0,0.67-0.03,9.82-0.09,13.94" style="fill:none;stroke:#999;stroke-width:3" />
<path d="M800.73,20.89c0.69,0.69,0.66,1.89,0.58,2.61c-0.32,3-0.14,4.1-0.48,7.13c-0.54,2.63-0.11,2.96,1.79,2.74c5.5-0.62,19.16-2.37,22.45-2.55" style="fill:none;stroke:#999;stroke-width:3" />
<path d="M827.19,17.8c0.75,0.76,0.8,2.09,0.58,3.41c-0.9,5.54-1.27,8.04-2.11,12.38" style="fill:none;stroke:#999;stroke-width:3" />
<path d="M810.57,36.67c0,1.33-0.51,2.33-1.18,3.22c-2.95,3.92-4.91,6.07-7.57,8.56c-1.08,1.01-1.4,2.54,0.5,3.09c2.58,0.75,5.26,1.97,7.27,3.26" style="fill:none;stroke:#999;stroke-width:3" />
<path d="M821.49,43.13c0,1.12-0.61,2.48-1,2.89c-6.13,6.47-12.85,14.79-20.24,20.48c-2.62,2.03-2.13,3.11,0.71,2.47c4.82-1.09,14.72-3.16,20.91-4.23" style="fill:none;stroke:black;stroke-width:3" />
<circle cx="821.49" cy="43.13" r="5" stroke-width="0" fill="#FF2A00" opacity="0.7" />
<path d="M900.61,17.75c0,1.38-0.43,2.57-1.03,3.62c-2.54,4.67-7.92,11.69-13.96,17.13" style="fill:none;stroke:#999;stroke-width:3" />
<path d="M902.86,35.5c-0.2,1.3-0.58,2.55-1.13,3.74C898.56,45.23,891.35,54.61,881.5,64" style="fill:none;stroke:#999;stroke-width:3" />
<path d="M894.97,53c0.83,0.83,0.9,2,0.9,2.91c0,0.38-0.04,18.53-0.06,29.59c-0.01,3.94-0.01,6.98-0.01,8" style="fill:none;stroke:#999;stroke-width:3" />
<path d="M921.98,13.92c0.27,0.33,0.89,1.73,0.89,3.13c0,0.67-0.03,9.82-0.09,13.94" style="fill:none;stroke:#999;stroke-width:3" />
<path d="M909.73,20.89c0.69,0.69,0.66,1.89,0.58,2.61c-0.32,3-0.14,4.1-0.48,7.13c-0.54,2.63-0.11,2.96,1.79,2.74c5.5-0.62,19.16-2.37,22.45-2.55" style="fill:none;stroke:#999;stroke-width:3" />
<path d="M936.19,17.8c0.75,0.76,0.8,2.09,0.58,3.41c-0.9,5.54-1.27,8.04-2.11,12.38" style="fill:none;stroke:#999;stroke-width:3" />
<path d="M919.57,36.67c0,1.33-0.51,2.33-1.18,3.22c-2.95,3.92-4.91,6.07-7.57,8.56c-1.08,1.01-1.4,2.54,0.5,3.09c2.58,0.75,5.26,1.97,7.27,3.26" style="fill:none;stroke:#999;stroke-width:3" />
<path d="M930.49,43.13c0,1.12-0.61,2.48-1,2.89c-6.13,6.47-12.85,14.79-20.24,20.48c-2.62,2.03-2.13,3.11,0.71,2.47c4.82-1.09,14.72-3.16,20.91-4.23" style="fill:none;stroke:#999;stroke-width:3" />
<path d="M928.41,57.92c2.52,1.95,5.97,7.45,7.13,11.28" style="fill:none;stroke:black;stroke-width:3" />
<circle cx="928.41" cy="57.92" r="5" stroke-width="0" fill="#FF2A00" opacity="0.7" />
<path d="M1009.61,17.75c0,1.38-0.43,2.57-1.03,3.62c-2.54,4.67-7.92,11.69-13.96,17.13" style="fill:none;stroke:#999;stroke-width:3" />
<path d="M1011.86,35.5c-0.2,1.3-0.58,2.55-1.13,3.74C1007.56,45.23,1000.35,54.61,990.5,64" style="fill:none;stroke:#999;stroke-width:3" />
<path d="M1003.97,53c0.83,0.83,0.9,2,0.9,2.91c0,0.38-0.04,18.53-0.06,29.59c-0.01,3.94-0.01,6.98-0.01,8" style="fill:none;stroke:#999;stroke-width:3" />
<path d="M1030.98,13.92c0.27,0.33,0.89,1.73,0.89,3.13c0,0.67-0.03,9.82-0.09,13.94" style="fill:none;stroke:#999;stroke-width:3" />
<path d="M1018.73,20.89c0.69,0.69,0.66,1.89,0.58,2.61c-0.32,3-0.14,4.1-0.48,7.13c-0.54,2.63-0.11,2.96,1.79,2.74c5.5-0.62,19.16-2.37,22.45-2.55" style="fill:none;stroke:#999;stroke-width:3" />
<path d="M1045.19,17.8c0.75,0.76,0.8,2.09,0.58,3.41c-0.9,5.54-1.27,8.04-2.11,12.38" style="fill:none;stroke:#999;stroke-width:3" />
<path d="M1028.5700000000002,36.67c0,1.33-0.51,2.33-1.18,3.22c-2.95,3.92-4.91,6.07-7.57,8.56c-1.08,1.01-1.4,2.54,0.5,3.09c2.58,0.75,5.26,1.97,7.27,3.26" style="fill:none;stroke:#999;stroke-width:3" />
<path d="M1039.49,43.13c0,1.12-0.61,2.48-1,2.89c-6.13,6.47-12.85,14.79-20.24,20.48c-2.62,2.03-2.13,3.11,0.71,2.47c4.82-1.09,14.72-3.16,20.91-4.23" style="fill:none;stroke:#999;stroke-width:3" />
<path d="M1037.4099999999999,57.92c2.52,1.95,5.97,7.45,7.13,11.28" style="fill:none;stroke:#999;stroke-width:3" />
<path d="M1028.99,69.53c0.68,0.68,0.94,1.47,0.94,2.84c0,4.97,0.03,12.31,0.04,17.51c0.01,2.33,0.01,4.24,0.01,5.3" style="fill:none;stroke:black;stroke-width:3" />
<circle cx="1028.99" cy="69.53" r="5" stroke-width="0" fill="#FF2A00" opacity="0.7" />
<path d="M1118.6100000000001,17.75c0,1.38-0.43,2.57-1.03,3.62c-2.54,4.67-7.92,11.69-13.96,17.13" style="fill:none;stroke:#999;stroke-width:3" />
<path d="M1120.8600000000001,35.5c-0.2,1.3-0.58,2.55-1.13,3.74C1116.56,45.23,1109.35,54.61,1099.5,64" style="fill:none;stroke:#999;stroke-width:3" />
<path d="M1112.97,53c0.83,0.83,0.9,2,0.9,2.91c0,0.38-0.04,18.53-0.06,29.59c-0.01,3.94-0.01,6.98-0.01,8" style="fill:none;stroke:#999;stroke-width:3" />
<path d="M1139.98,13.92c0.27,0.33,0.89,1.73,0.89,3.13c0,0.67-0.03,9.82-0.09,13.94" style="fill:none;stroke:#999;stroke-width:3" />
<path d="M1127.73,20.89c0.69,0.69,0.66,1.89,0.58,2.61c-0.32,3-0.14,4.1-0.48,7.13c-0.54,2.63-0.11,2.96,1.79,2.74c5.5-0.62,19.16-2.37,22.45-2.55" style="fill:none;stroke:#999;stroke-width:3" />
<path d="M1154.19,17.8c0.75,0.76,0.8,2.09,0.58,3.41c-0.9,5.54-1.27,8.04-2.11,12.38" style="fill:none;stroke:#999;stroke-width:3" />
<path d="M1137.5700000000002,36.67c0,1.33-0.51,2.33-1.18,3.22c-2.95,3.92-4.91,6.07-7.57,8.56c-1.08,1.01-1.4,2.54,0.5,3.09c2.58,0.75,5.26,1.97,7.27,3.26" style="fill:none;stroke:#999;stroke-width:3" />
<path d="M1148.49,43.13c0,1.12-0.61,2.48-1,2.89c-6.13,6.47-12.85,14.79-20.24,20.48c-2.62,2.03-2.13,3.11,0.71,2.47c4.82-1.09,14.72-3.16,20.91-4.23" style="fill:none;stroke:#999;stroke-width:3" />
<path d="M1146.4099999999999,57.92c2.52,1.95,5.97,7.45,7.13,11.28" style="fill:none;stroke:#999;stroke-width:3" />
<path d="M1137.99,69.53c0.68,0.68,0.94,1.47,0.94,2.84c0,4.97,0.03,12.31,0.04,17.51c0.01,2.33,0.01,4.24,0.01,5.3" style="fill:none;stroke:#999;stroke-width:3" />
<path d="M1129.02,78.13c0,0.87-0.32,1.93-0.82,2.73c-1.76,3.13-5.44,8.19-7.7,10.72" style="fill:none;stroke:black;stroke-width:3" />
<circle cx="1129.02" cy="78.13" r="5" stroke-width="0" fill="#FF2A00" opacity="0.7" />
<path d="M1227.6100000000001,17.75c0,1.38-0.43,2.57-1.03,3.62c-2.54,4.67-7.92,11.69-13.96,17.13" style="fill:none;stroke:#999;stroke-width:3" />
<path d="M1229.8600000000001,35.5c-0.2,1.3-0.58,2.55-1.13,3.74C1225.56,45.23,1218.35,54.61,1208.5,64" style="fill:none;stroke:#999;stroke-width:3" />
<path d="M1221.97,53c0.83,0.83,0.9,2,0.9,2.91c0,0.38-0.04,18.53-0.06,29.59c-0.01,3.94-0.01,6.98-0.01,8" style="fill:none;stroke:#999;stroke-width:3" />
<path d="M1248.98,13.92c0.27,0.33,0.89,1.73,0.89,3.13c0,0.67-0.03,9.82-0.09,13.94" style="fill:none;stroke:#999;stroke-width:3" />
<path d="M1236.73,20.89c0.69,0.69,0.66,1.89,0.58,2.61c-0.32,3-0.14,4.1-0.48,7.13c-0.54,2.63-0.11,2.96,1.79,2.74c5.5-0.62,19.16-2.37,22.45-2.55" style="fill:none;stroke:#999;stroke-width:3" />
<path d="M1263.19,17.8c0.75,0.76,0.8,2.09,0.58,3.41c-0.9,5.54-1.27,8.04-2.11,12.38" style="fill:none;stroke:#999;stroke-width:3" />
<path d="M1246.5700000000002,36.67c0,1.33-0.51,2.33-1.18,3.22c-2.95,3.92-4.91,6.07-7.57,8.56c-1.08,1.01-1.4,2.54,0.5,3.09c2.58,0.75,5.26,1.97,7.27,3.26" style="fill:none;stroke:#999;stroke-width:3" />
<path d="M1257.49,43.13c0,1.12-0.61,2.48-1,2.89c-6.13,6.47-12.85,14.79-20.24,20.48c-2.62,2.03-2.13,3.11,0.71,2.47c4.82-1.09,14.72-3.16,20.91-4.23" style="fill:none;stroke:#999;stroke-width:3" />
<path d="M1255.4099999999999,57.92c2.52,1.95,5.97,7.45,7.13,11.28" style="fill:none;stroke:#999;stroke-width:3" />
<path d="M1246.99,69.53c0.68,0.68,0.94,1.47,0.94,2.84c0,4.97,0.03,12.31,0.04,17.51c0.01,2.33,0.01,4.24,0.01,5.3" style="fill:none;stroke:#999;stroke-width:3" />
<path d="M1238.02,78.13c0,0.87-0.32,1.93-0.82,2.73c-1.76,3.13-5.44,8.19-7.7,10.72" style="fill:none;stroke:#999;stroke-width:3" />
<path d="M1255.94,74.35c2.74,2.41,5.1,8.02,5.74,10.2" style="fill:none;stroke:black;stroke-width:3" />
<circle cx="1255.94" cy="74.35" r="5" stroke-width="0" fill="#FF2A00" opacity="0.7" />
<path d="M1336.6100000000001,17.75c0,1.38-0.43,2.57-1.03,3.62c-2.54,4.67-7.92,11.69-13.96,17.13" style="fill:none;stroke:#999;stroke-width:3" />
<path d="M1338.8600000000001,35.5c-0.2,1.3-0.58,2.55-1.13,3.74C1334.56,45.23,1327.35,54.61,1317.5,64" style="fill:none;stroke:#999;stroke-width:3" />
<path d="M1330.97,53c0.83,0.83,0.9,2,0.9,2.91c0,0.38-0.04,18.53-0.06,29.59c-0.01,3.94-0.01,6.98-0.01,8" style="fill:none;stroke:#999;stroke-width:3" />
<path d="M1357.98,13.92c0.27,0.33,0.89,1.73,0.89,3.13c0,0.67-0.03,9.82-0.09,13.94" style="fill:none;stroke:#999;stroke-width:3" />
<path d="M1345.73,20.89c0.69,0.69,0.66,1.89,0.58,2.61c-0.32,3-0.14,4.1-0.48,7.13c-0.54,2.63-0.11,2.96,1.79,2.74c5.5-0.62,19.16-2.37,22.45-2.55" style="fill:none;stroke:#999;stroke-width:3" />
<path d="M1372.19,17.8c0.75,0.76,0.8,2.09,0.58,3.41c-0.9,5.54-1.27,8.04-2.11,12.38" style="fill:none;stroke:#999;stroke-width:3" />
<path d="M1355.5700000000002,36.67c0,1.33-0.51,2.33-1.18,3.22c-2.95,3.92-4.91,6.07-7.57,8.56c-1.08,1.01-1.4,2.54,0.5,3.09c2.58,0.75,5.26,1.97,7.27,3.26" style="fill:none;stroke:#999;stroke-width:3" />
<path d="M1366.49,43.13c0,1.12-0.61,2.48-1,2.89c-6.13,6.47-12.85,14.79-20.24,20.48c-2.62,2.03-2.13,3.11,0.71,2.47c4.82-1.09,14.72-3.16,20.91-4.23" style="fill:none;stroke:#999;stroke-width:3" />
<path d="M1364.4099999999999,57.92c2.52,1.95,5.97,7.45,7.13,11.28" style="fill:none;stroke:#999;stroke-width:3" />
<path d="M1355.99,69.53c0.68,0.68,0.94,1.47,0.94,2.84c0,4.97,0.03,12.31,0.04,17.51c0.01,2.33,0.01,4.24,0.01,5.3" style="fill:none;stroke:#999;stroke-width:3" />
<path d="M1347.02,78.13c0,0.87-0.32,1.93-0.82,2.73c-1.76,3.13-5.44,8.19-7.7,10.72" style="fill:none;stroke:#999;stroke-width:3" />
<path d="M1364.94,74.35c2.74,2.41,5.1,8.02,5.74,10.2" style="fill:none;stroke:#999;stroke-width:3" />
<path d="M1385.69,16.64c0.03,0.78-0.03,2.05-0.32,3.13c-2.75,10.35-6.03,21.5-12.19,31.01" style="fill:none;stroke:black;stroke-width:3" />
<circle cx="1385.69" cy="16.64" r="5" stroke-width="0" fill="#FF2A00" opacity="0.7" />
<path d="M1445.6100000000001,17.75c0,1.38-0.43,2.57-1.03,3.62c-2.54,4.67-7.92,11.69-13.96,17.13" style="fill:none;stroke:#999;stroke-width:3" />
<path d="M1447.8600000000001,35.5c-0.2,1.3-0.58,2.55-1.13,3.74C1443.56,45.23,1436.35,54.61,1426.5,64" style="fill:none;stroke:#999;stroke-width:3" />
<path d="M1439.97,53c0.83,0.83,0.9,2,0.9,2.91c0,0.38-0.04,18.53-0.06,29.59c-0.01,3.94-0.01,6.98-0.01,8" style="fill:none;stroke:#999;stroke-width:3" />
<path d="M1466.98,13.92c0.27,0.33,0.89,1.73,0.89,3.13c0,0.67-0.03,9.82-0.09,13.94" style="fill:none;stroke:#999;stroke-width:3" />
<path d="M1454.73,20.89c0.69,0.69,0.66,1.89,0.58,2.61c-0.32,3-0.14,4.1-0.48,7.13c-0.54,2.63-0.11,2.96,1.79,2.74c5.5-0.62,19.16-2.37,22.45-2.55" style="fill:none;stroke:#999;stroke-width:3" />
<path d="M1481.19,17.8c0.75,0.76,0.8,2.09,0.58,3.41c-0.9,5.54-1.27,8.04-2.11,12.38" style="fill:none;stroke:#999;stroke-width:3" />
<path d="M1464.5700000000002,36.67c0,1.33-0.51,2.33-1.18,3.22c-2.95,3.92-4.91,6.07-7.57,8.56c-1.08,1.01-1.4,2.54,0.5,3.09c2.58,0.75,5.26,1.97,7.27,3.26" style="fill:none;stroke:#999;stroke-width:3" />
<path d="M1475.49,43.13c0,1.12-0.61,2.48-1,2.89c-6.13,6.47-12.85,14.79-20.24,20.48c-2.62,2.03-2.13,3.11,0.71,2.47c4.82-1.09,14.72-3.16,20.91-4.23" style="fill:none;stroke:#999;stroke-width:3" />
<path d="M1473.4099999999999,57.92c2.52,1.95,5.97,7.45,7.13,11.28" style="fill:none;stroke:#999;stroke-width:3" />
<path d="M1464.99,69.53c0.68,0.68,0.94,1.47,0.94,2.84c0,4.97,0.03,12.31,0.04,17.51c0.01,2.33,0.01,4.24,0.01,5.3" style="fill:none;stroke:#999;stroke-width:3" />
<path d="M1456.02,78.13c0,0.87-0.32,1.93-0.82,2.73c-1.76,3.13-5.44,8.19-7.7,10.72" style="fill:none;stroke:#999;stroke-width:3" />
<path d="M1473.94,74.35c2.74,2.41,5.1,8.02,5.74,10.2" style="fill:none;stroke:#999;stroke-width:3" />
<path d="M1494.69,16.64c0.03,0.78-0.03,2.05-0.32,3.13c-2.75,10.35-6.03,21.5-12.19,31.01" style="fill:none;stroke:#999;stroke-width:3" />
<path d="M1491.05,38.39c0.92,0.23,2.62,0.25,3.12,0.22c4.51-0.32,8.21-1.61,14.46-3.08c1.36-0.32,2.76-0.32,4.14-0.19" style="fill:none;stroke:black;stroke-width:3" />
<circle cx="1491.05" cy="38.39" r="5" stroke-width="0" fill="#FF2A00" opacity="0.7" />
<path d="M1554.6100000000001,17.75c0,1.38-0.43,2.57-1.03,3.62c-2.54,4.67-7.92,11.69-13.96,17.13" style="fill:none;stroke:#999;stroke-width:3" />
<path d="M1556.8600000000001,35.5c-0.2,1.3-0.58,2.55-1.13,3.74C1552.56,45.23,1545.35,54.61,1535.5,64" style="fill:none;stroke:#999;stroke-width:3" />
<path d="M1548.97,53c0.83,0.83,0.9,2,0.9,2.91c0,0.38-0.04,18.53-0.06,29.59c-0.01,3.94-0.01,6.98-0.01,8" style="fill:none;stroke:#999;stroke-width:3" />
<path d="M1575.98,13.92c0.27,0.33,0.89,1.73,0.89,3.13c0,0.67-0.03,9.82-0.09,13.94" style="fill:none;stroke:#999;stroke-width:3" />
<path d="M1563.73,20.89c0.69,0.69,0.66,1.89,0.58,2.61c-0.32,3-0.14,4.1-0.48,7.13c-0.54,2.63-0.11,2.96,1.79,2.74c5.5-0.62,19.16-2.37,22.45-2.55" style="fill:none;stroke:#999;stroke-width:3" />
<path d="M1590.19,17.8c0.75,0.76,0.8,2.09,0.58,3.41c-0.9,5.54-1.27,8.04-2.11,12.38" style="fill:none;stroke:#999;stroke-width:3" />
<path d="M1573.5700000000002,36.67c0,1.33-0.51,2.33-1.18,3.22c-2.95,3.92-4.91,6.07-7.57,8.56c-1.08,1.01-1.4,2.54,0.5,3.09c2.58,0.75,5.26,1.97,7.27,3.26" style="fill:none;stroke:#999;stroke-width:3" />
<path d="M1584.49,43.13c0,1.12-0.61,2.48-1,2.89c-6.13,6.47-12.85,14.79-20.24,20.48c-2.62,2.03-2.13,3.11,0.71,2.47c4.82-1.09,14.72-3.16,20.91-4.23" style="fill:none;stroke:#999;stroke-width:3" />
<path d="M1582.4099999999999,57.92c2.52,1.95,5.97,7.45,7.13,11.28" style="fill:none;stroke:#999;stroke-width:3" />
<path d="M1573.99,69.53c0.68,0.68,0.94,1.47,0.94,2.84c0,4.97,0.03,12.31,0.04,17.51c0.01,2.33,0.01,4.24,0.01,5.3" style="fill:none;stroke:#999;stroke-width:3" />
<path d="M1565.02,78.13c0,0.87-0.32,1.93-0.82,2.73c-1.76,3.13-5.44,8.19-7.7,10.72" style="fill:none;stroke:#999;stroke-width:3" />
<path d="M1582.94,74.35c2.74,2.41,5.1,8.02,5.74,10.2" style="fill:none;stroke:#999;stroke-width:3" />
<path d="M1603.69,16.64c0.03,0.78-0.03,2.05-0.32,3.13c-2.75,10.35-6.03,21.5-12.19,31.01" style="fill:none;stroke:#999;stroke-width:3" />
<path d="M1600.05,38.39c0.92,0.23,2.62,0.25,3.12,0.22c4.51-0.32,8.21-1.61,14.46-3.08c1.36-0.32,2.76-0.32,4.14-0.19" style="fill:none;stroke:#999;stroke-width:3" />
<path d="M1610.9,40.38c0.35,1.24,0.66,2.18,0.18,4.46C1607.0,64.12,1601.0,79.25,1588.6,92.5" style="fill:none;stroke:black;stroke-width:3" />
<circle cx="1610.9" cy="40.38" r="5" stroke-width="0" fill="#FF2A00" opacity="0.7" />
<path d="M1663.6100000000001,17.75c0,1.38-0.43,2.57-1.03,3.62c-2.54,4.67-7.92,11.69-13.96,17.13" style="fill:none;stroke:#999;stroke-width:3" />
<path d="M1665.8600000000001,35.5c-0.2,1.3-0.58,2.55-1.13,3.74C1661.56,45.23,1654.35,54.61,1644.5,64" style="fill:none;stroke:#999;stroke-width:3" />
<path d="M1657.97,53c0.83,0.83,0.9,2,0.9,2.91c0,0.38-0.04,18.53-0.06,29.59c-0.01,3.94-0.01,6.98-0.01,8" style="fill:none;stroke:#999;stroke-width:3" />
<path d="M1684.98,13.92c0.27,0.33,0.89,1.73,0.89,3.13c0,0.67-0.03,9.82-0.09,13.94" style="fill:none;stroke:#999;stroke-width:3" />
<path d="M1672.73,20.89c0.69,0.69,0.66,1.89,0.58,2.61c-0.32,3-0.14,4.1-0.48,7.13c-0.54,2.63-0.11,2.96,1.79,2.74c5.5-0.62,19.16-2.37,22.45-2.55" style="fill:none;stroke:#999;stroke-width:3" />
<path d="M1699.19,17.8c0.75,0.76,0.8,2.09,0.58,3.41c-0.9,5.54-1.27,8.04-2.11,12.38" style="fill:none;stroke:#999;stroke-width:3" />
<path d="M1682.5700000000002,36.67c0,1.33-0.51,2.33-1.18,3.22c-2.95,3.92-4.91,6.07-7.57,8.56c-1.08,1.01-1.4,2.54,0.5,3.09c2.58,0.75,5.26,1.97,7.27,3.26" style="fill:none;stroke:#999;stroke-width:3" />
<path d="M1693.49,43.13c0,1.12-0.61,2.48-1,2.89c-6.13,6.47-12.85,14.79-20.24,20.48c-2.62,2.03-2.13,3.11,0.71,2.47c4.82-1.09,14.72-3.16,20.91-4.23" style="fill:none;stroke:#999;stroke-width:3" />
<path d="M1691.4099999999999,57.92c2.52,1.95,5.97,7.45,7.13,11.28" style="fill:none;stroke:#999;stroke-width:3" />
<path d="M1682.99,69.53c0.68,0.68,0.94,1.47,0.94,2.84c0,4.97,0.03,12.31,0.04,17.51c0.01,2.33,0.01,4.24,0.01,5.3" style="fill:none;stroke:#999;stroke-width:3" />
<path d="M1674.02,78.13c0,0.87-0.32,1.93-0.82,2.73c-1.76,3.13-5.44,8.19-7.7,10.72" style="fill:none;stroke:#999;stroke-width:3" />
<path d="M1691.94,74.35c2.74,2.41,5.1,8.02,5.74,10.2" style="fill:none;stroke:#999;stroke-width:3" />
<path d="M1712.69,16.64c0.03,0.78-0.03,2.05-0.32,3.13c-2.75,10.35-6.03,21.5-12.19,31.01" style="fill:none;stroke:#999;stroke-width:3" />
<path d="M1709.05,38.39c0.92,0.23,2.62,0.25,3.12,0.22c4.51-0.32,8.21-1.61,14.46-3.08c1.36-0.32,2.76-0.32,4.14-0.19" style="fill:none;stroke:#999;stroke-width:3" />
<path d="M1719.9,40.38c0.35,1.24,0.66,2.18,0.18,4.46C1716.0,64.12,1710.0,79.25,1697.6,92.5" style="fill:none;stroke:#999;stroke-width:3" />
<path d="M1702.9,53.47c3.34,2.09,13.54,20.84,21.72,31.14c1.93,2.68,4.23,4.96,6.92,6.86" style="fill:none;stroke:black;stroke-width:3" />
<circle cx="1702.9" cy="53.47" r="5" stroke-width="0" fill="#FF2A00" opacity="0.7" />
</svg>