<svg width="981px" height="109px" viewBox="0 0 981px 109px" xmlns="http://www.w3.org/2000/svg" xmlns:xlink="http://www.w3.org/1999/xlink" xml:space="preserve" version="1.1"  baseProfile="full">
<line x1="1" y1="1" x2="980" y2="1" style="stroke:#ddd;stroke-width:2" />
<line x1="1" y1="1" x2="1" y2="108" style="stroke:#ddd;stroke-width:2" />
<line x1="1" y1="108" x2="980" y2="108" style="stroke:#ddd;stroke-width:2" />
<line x1="980" y1="1" x2="980" y2="108" style="stroke:#ddd;stroke-width:2" />
<line x1="109" y1="1" x2="109" y2="108" style="stroke:#ddd;stroke-width:2" />
<line x1="218" y1="1" x2="218" y2="108" style="stroke:#ddd;stroke-width:2" />
<line x1="327" y1="1" x2="327" y2="108" style="stroke:#ddd;stroke-width:2" />
<line x1="436" y1="1" x2="436" y2="108" style="stroke:#ddd;stroke-width:2" />
<line x1="545" y1="1" x2="545" y2="108" style="stroke:#ddd;stroke-width:2" />
<line x1="654" y1="1" x2="654" y2="108" style="stroke:#ddd;stroke-width:2" />
<line x1="763" y1="1" x2="763" y2="108" style="stroke:#ddd;stroke-width:2" />
<line x1="872" y1="1" x2="872" y2="108" style="stroke:#ddd;stroke-width:2" />
<line x1="1" y1="54" x2="980" y2="54" style="stroke:#ddd;stroke-width:2;stroke-dasharray:3 3" />
<line x1="55" y1="1" x2="55" y2="108" style="stroke:#ddd;stroke-width:2;stroke-dasharray:3 3" />
<line x1="164" y1="1" x2="164" y2="108" style="stroke:#ddd;stroke-width:2;stroke-dasharray:3 3" />
<line x1="273" y1="1" x2="273" y2="108" style="stroke:#ddd;stroke-width:2;stroke-dasharray:3 3" />
<line x1="382" y1="1" x2="382" y2="108" style="stroke:#ddd;stroke-width:2;stroke-dasharray:3 3" />
<line x1="491" y1="1" x2="491" y2="108" style="stroke:#ddd;stroke-width:2;stroke-dasharray:3 3" />
<line x1="600" y1="1" x2="600" y2="108" style="stroke:#ddd;stroke-width:2;stroke-dasharray:3 3" />
<line x1="709" y1="1" x2="709" y2="108" style="stroke:#ddd;stroke-width:2;stroke-dasharray:3 3" />
<line x1="818" y1="1" x2="818" y2="108" style="stroke:#ddd;stroke-width:2;stroke-dasharray:3 3" />
<line x1="927" y1="1" x2="927" y2="108" style="stroke:#ddd;stroke-width:2;stroke-dasharray:3 3" />
<path d="M16.25,40.25c0,6.61-2.72,15.86-3.5,17.75" style="fill:none;stroke:black;stroke-width:3" />
<circle cx="16.25" cy="40.25" r="5" stroke-width="0" fill="#FF2A00" opacity="0.7" />
<path d="M125.25,40.25c0,6.61-2.72,15.86-3.5,17.75" style="fill:none;stroke:#999;stroke-width:3" />
<path d="M138.52,34.83c2.66,1.74,5.98,6.79,7.04,9.88" style="fill:none;stroke:black;stroke-width:3" />
<circle cx="138.52" cy="34.83" r="5" stroke-width="0" fill="#FF2A00" opacity="0.7" />
<path d="M234.25,40.25c0,6.61-2.72,15.86-3.5,17.75" style="fill:none;stroke:#999;stroke-width:3" />
<path d="M247.52,34.83c2.66,1.74,5.98,6.79,7.04,9.88" style="fill:none;stroke:#999;stroke-width:3" />
<path d="M242.62,15.5c0.88,0.88,1.21,2.25,1.21,3.75c0,0.82,0.02,43.5,0.03,65c0,5.46,0,9.55,0,11.25" style="fill:none;stroke:black;stroke-width:3" />
<circle cx="242.62" cy="15.5" r="5" stroke-width="0" fill="#FF2A00" opacity="0.7" />
<path d="M343.25,40.25c0,6.61-2.72,15.86-3.5,17.75" style="fill:none;stroke:#999;stroke-width:3" />
<path d="M356.52,34.83c2.66,1.74,5.98,6.79,7.04,9.88" style="fill:none;stroke:#999;stroke-width:3" />
<path d="M351.62,15.5c0.88,0.88,1.21,2.25,1.21,3.75c0,0.82,0.02,43.5,0.03,65c0,5.46,0,9.55,0,11.25" style="fill:none;stroke:#999;stroke-width:3" />
<path d="M369.81,23.9c3.07,0.75,6.1,0.38,9.31-0.08C391.0,22.12,400.12,21.5,410.87,20.44c2.64-0.26,5.25-0.21,7.85,0.29" style="fill:none;stroke:black;stroke-width:3" />
<circle cx="369.81" cy="23.9" r="5" stroke-width="0" fill="#FF2A00" opacity="0.7" />
<path d="M452.25,40.25c0,6.61-2.72,15.86-3.5,17.75" style="fill:none;stroke:#999;stroke-width:3" />
<path d="M465.52,34.83c2.66,1.74,5.98,6.79,7.04,9.88" style="fill:none;stroke:#999;stroke-width:3" />
<path d="M460.62,15.5c0.88,0.88,1.21,2.25,1.21,3.75c0,0.82,0.02,43.5,0.03,65c0,5.46,0,9.55,0,11.25" style="fill:none;stroke:#999;stroke-width:3" />
<path d="M478.81,23.9c3.07,0.75,6.1,0.38,9.31-0.08C500.0,22.12,509.12,21.5,519.87,20.44c2.64-0.26,5.25-0.21,7.85,0.29" style="fill:none;stroke:#999;stroke-width:3" />
<path d="M481.79,24.73c0.93,0.93,1.26,2.16,1.18,4.38C482.38,45.75,481.5,67.5,470.06,86.97" style="fill:none;stroke:black;stroke-width:3" />
<circle cx="481.79" cy="24.73" r="5" stroke-width="0" fill="#FF2A00" opacity="0.7" />
<path d="M561.25,40.25c0,6.61-2.72,15.86-3.5,17.75" style="fill:none;stroke:#999;stroke-width:3" />
<path d="M574.52,34.83c2.66,1.74,5.98,6.79,7.04,9.88" style="fill:none;stroke:#999;stroke-width:3" />
<path d="M569.62,15.5c0.88,0.88,1.21,2.25,1.21,3.75c0,0.82,0.02,43.5,0.03,65c0,5.46,0,9.55,0,11.25" style="fill:none;stroke:#999;stroke-width:3" />
<path d="M587.81,23.9c3.07,0.75,6.1,0.38,9.31-0.08C609.0,22.12,618.12,21.5,628.87,20.44c2.64-0.26,5.25-0.21,7.85,0.29" style="fill:none;stroke:#999;stroke-width:3" />
<path d="M590.79,24.73c0.93,0.93,1.26,2.16,1.18,4.38C591.38,45.75,590.5,67.5,579.06,86.97" style="fill:none;stroke:#999;stroke-width:3" />
<path d="M598.9,51.12c1.55,2.59,3.55,9.67,3.98,12.26" style="fill:none;stroke:black;stroke-width:3" />
<circle cx="598.9" cy="51.12" r="5" stroke-width="0" fill="#FF2A00" opacity="0.7" />
<path d="M670.25,40.25c0,6.61-2.72,15.86-3.5,17.75" style="fill:none;stroke:#999;stroke-width:3" />
<path d="M683.52,34.83c2.66,1.74,5.98,6.79,7.04,9.88" style="fill:none;stroke:#999;stroke-width:3" />
<path d="M678.62,15.5c0.88,0.88,1.21,2.25,1.21,3.75c0,0.82,0.02,43.5,0.03,65c0,5.46,0,9.55,0,11.25" style="fill:none;stroke:#999;stroke-width:3" />
<path d="M696.81,23.9c3.07,0.75,6.1,0.38,9.31-0.08C718.0,22.12,727.12,21.5,737.87,20.44c2.64-0.26,5.25-0.21,7.85,0.29" style="fill:none;stroke:#999;stroke-width:3" />
<path d="M699.79,24.73c0.93,0.93,1.26,2.16,1.18,4.38C700.38,45.75,699.5,67.5,688.06,86.97" style="fill:none;stroke:#999;stroke-width:3" />
<path d="M707.9,51.12c1.55,2.59,3.55,9.67,3.98,12.26" style="fill:none;stroke:#999;stroke-width:3" />
<path d="M742.45,47.54c0.17,1.21-0.36,2.26-1.13,3.1c-2.7,2.98-5.83,6.23-9.86,9.52" style="fill:none;stroke:black;stroke-width:3" />
<circle cx="742.45" cy="47.54" r="5" stroke-width="0" fill="#FF2A00" opacity="0.7" />
<path d="M779.25,40.25c0,6.61-2.72,15.86-3.5,17.75" style="fill:none;stroke:#999;stroke-width:3" />
<path d="M792.52,34.83c2.66,1.74,5.98,6.79,7.04,9.88" style="fill:none;stroke:#999;stroke-width:3" />
<path d="M787.62,15.5c0.88,0.88,1.21,2.25,1.21,3.75c0,0.82,0.02,43.5,0.03,65c0,5.46,0,9.55,0,11.25" style="fill:none;stroke:#999;stroke-width:3" />
<path d="M805.81,23.9c3.07,0.75,6.1,0.38,9.31-0.08C827.0,22.12,836.12,21.5,846.87,20.44c2.64-0.26,5.25-0.21,7.85,0.29" style="fill:none;stroke:#999;stroke-width:3" />
<path d="M808.79,24.73c0.93,0.93,1.26,2.16,1.18,4.38C809.38,45.75,808.5,67.5,797.06,86.97" style="fill:none;stroke:#999;stroke-width:3" />
<path d="M816.9,51.12c1.55,2.59,3.55,9.67,3.98,12.26" style="fill:none;stroke:#999;stroke-width:3" />
<path d="M851.45,47.54c0.17,1.21-0.36,2.26-1.13,3.1c-2.7,2.98-5.83,6.23-9.86,9.52" style="fill:none;stroke:#999;stroke-width:3" />
<path d="M831.76,34.25C832.69,35.18,833.0,37.1,833.0,38.07c0,31.55-8.25,45.55-24.32,54.43" style="fill:none;stroke:black;stroke-width:3" />
<circle cx="831.76" cy="34.25" r="5" stroke-width="0" fill="#FF2A00" opacity="0.7" />
<path d="M888.25,40.25c0,6.61-2.72,15.86-3.5,17.75" style="fill:none;stroke:#999;stroke-width:3" />
<path d="M901.52,34.83c2.66,1.74,5.98,6.79,7.04,9.88" style="fill:none;stroke:#999;stroke-width:3" />
<path d="M896.62,15.5c0.88,0.88,1.21,2.25,1.21,3.75c0,0.82,0.02,43.5,0.03,65c0,5.46,0,9.55,0,11.25" style="fill:none;stroke:#999;stroke-width:3" />
<path d="M914.81,23.9c3.07,0.75,6.1,0.38,9.31-0.08C936.0,22.12,945.12,21.5,955.87,20.44c2.64-0.26,5.25-0.21,7.85,0.29" style="fill:none;stroke:#999;stroke-width:3" />
<path d="M917.79,24.73c0.93,0.93,1.26,2.16,1.18,4.38C918.38,45.75,917.5,67.5,906.06,86.97" style="fill:none;stroke:#999;stroke-width:3" />
<path d="M925.9,51.12c1.55,2.59,3.55,9.67,3.98,12.26" style="fill:none;stroke:#999;stroke-width:3" />
<path d="M960.45,47.54c0.17,1.21-0.36,2.26-1.13,3.1c-2.7,2.98-5.83,6.23-9.86,9.52" style="fill:none;stroke:#999;stroke-width:3" />
<path d="M940.76,34.25C941.69,35.18,942.0,37.1,942.0,38.07c0,31.55-8.25,45.55-24.32,54.43" style="fill:none;stroke:#999;stroke-width:3" />
<path d="M941.5,60C948.0,70.5,953.66,78.61,959.09,84.77c2.56,2.94,5.36,5.14,8.91,6.59" style="fill:none;stroke:black;stroke-width:3" />
<circle cx="941.5" cy="60.0" r="5" stroke-width="0" fill="#FF2A00" opacity="0.7" />
</svg>