<svg width="1417px" height="109px" viewBox="0 0 1417px 109px" xmlns="http://www.w3.org/2000/svg" xmlns:xlink="http://www.w3.org/1999/xlink" xml:space="preserve" version="1.1"  baseProfile="full">
<line x1="1" y1="1" x2="1416" y2="1" style="stroke:#ddd;stroke-width:2" />
<line x1="1" y1="1" x2="1" y2="108" style="stroke:#ddd;stroke-width:2" />
<line x1="1" y1="108" x2="1416" y2="108" style="stroke:#ddd;stroke-width:2" />
<line x1="1416" y1="1" x2="1416" y2="108" style="stroke:#ddd;stroke-width:2" />
<line x1="109" y1="1" x2="109" y2="108" style="stroke:#ddd;stroke-width:2" />
<line x1="218" y1="1" x2="218" y2="108" style="stroke:#ddd;stroke-width:2" />
<line x1="327" y1="1" x2="327" y2="108" style="stroke:#ddd;stroke-width:2" />
<line x1="436" y1="1" x2="436" y2="108" style="stroke:#ddd;stroke-width:2" />
<line x1="545" y1="1" x2="545" y2="108" style="stroke:#ddd;stroke-width:2" />
<line x1="654" y1="1" x2="654" y2="108" style="stroke:#ddd;stroke-width:2" />
<line x1="763" y1="1" x2="763" y2="108" style="stroke:#ddd;stroke-width:2" />
<line x1="872" y1="1" x2="872" y2="108" style="stroke:#ddd;stroke-width:2" />
<line x1="981" y1="1" x2="981" y2="108" style="stroke:#ddd;stroke-width:2" />
<line x1="1090" y1="1" x2="1090" y2="108" style="stroke:#ddd;stroke-width:2" />
<line x1="1199" y1="1" x2="1199" y2="108" style="stroke:#ddd;stroke-width:2" />
<line x1="1308" y1="1" x2="1308" y2="108" style="stroke:#ddd;stroke-width:2" />
<line x1="1" y1="54" x2="1416" y2="54" style="stroke:#ddd;stroke-width:2;stroke-dasharray:3 3" />
<line x1="55" y1="1" x2="55" y2="108" style="stroke:#ddd;stroke-width:2;stroke-dasharray:3 3" />
<line x1="164" y1="1" x2="164" y2="108" style="stroke:#ddd;stroke-width:2;stroke-dasharray:3 3" />
<line x1="273" y1="1" x2="273" y2="108" style="stroke:#ddd;stroke-width:2;stroke-dasharray:3 3" />
<line x1="382" y1="1" x2="382" y2="108" style="stroke:#ddd;stroke-width:2;stroke-dasharray:3 3" />
<line x1="491" y1="1" x2="491" y2="108" style="stroke:#ddd;stroke-width:2;stroke-dasharray:3 3" />
<line x1="600" y1="1" x2="600" y2="108" style="stroke:#ddd;stroke-width:2;stroke-dasharray:3 3" />
<line x1="709" y1="1" x2="709" y2="108" style="stroke:#ddd;stroke-width:2;stroke-dasharray:3 3" />
<line x1="818" y1="1" x2="818" y2="108" style="stroke:#ddd;stroke-width:2;stroke-dasharray:3 3" />
<line x1="927" y1="1" x2="927" y2="108" style="stroke:#ddd;stroke-width:2;stroke-dasharray:3 3" />
<line x1="1036" y1="1" x2="1036" y2="108" style="stroke:#ddd;stroke-width:2;stroke-dasharray:3 3" />
<line x1="1145" y1="1" x2="1145" y2="108" style="stroke:#ddd;stroke-width:2;stroke-dasharray:3 3" />
<line x1="1254" y1="1" x2="1254" y2="108" style="stroke:#ddd;stroke-width:2;stroke-dasharray:3 3" />
<line x1="1363" y1="1" x2="1363" y2="108" style="stroke:#ddd;stroke-width:2;stroke-dasharray:3 3" />
<path d="M52.63,10.25c0.1,0.71,0.53,1.97-0.21,2.84C46.5,20,33.25,32.25,16.0,40.23" style="fill:none;stroke:black;stroke-width:3" />
<circle cx="52.63" cy="10.25" r="5" stroke-width="0" fill="#FF2A00" opacity="0.7" />
<path d="M161.63,10.25c0.1,0.71,0.53,1.97-0.21,2.84C155.5,20,142.25,32.25,125.0,40.23" style="fill:none;stroke:#999;stroke-width:3" />
<path d="M161.73,12.89c5.44,4.64,28.85,19.78,34.85,23.17c2.03,1.15,4.64,1.65,6.68,1.97" style="fill:none;stroke:black;stroke-width:3" />
<circle cx="161.73" cy="12.89" r="5" stroke-width="0" fill="#FF2A00" opacity="0.7" />
<path d="M270.63,10.25c0.1,0.71,0.53,1.97-0.21,2.84C264.5,20,251.25,32.25,234.0,40.23" style="fill:none;stroke:#999;stroke-width:3" />
<path d="M270.73,12.89c5.44,4.64,28.85,19.78,34.85,23.17c2.03,1.15,4.64,1.65,6.68,1.97" style="fill:none;stroke:#999;stroke-width:3" />
<path d="M259.37,32.92c0.6,0.18,1.7,0.23,2.3,0.18c3.83-0.31,16.72-1.69,21.06-1.79c1-0.02,1.6,0.08,2.1,0.17" style="fill:none;stroke:black;stroke-width:3" />
<circle cx="259.37" cy="32.92" r="5" stroke-width="0" fill="#FF2A00" opacity="0.7" />
<path d="M379.63,10.25c0.1,0.71,0.53,1.97-0.21,2.84C373.5,20,360.25,32.25,343.0,40.23" style="fill:none;stroke:#999;stroke-width:3" />
<path d="M379.73,12.89c5.44,4.64,28.85,19.78,34.85,23.17c2.03,1.15,4.64,1.65,6.68,1.97" style="fill:none;stroke:#999;stroke-width:3" />
<path d="M368.37,32.92c0.6,0.18,1.7,0.23,2.3,0.18c3.83-0.31,16.72-1.69,21.06-1.79c1-0.02,1.6,0.08,2.1,0.17" style="fill:none;stroke:#999;stroke-width:3" />
<path d="M354.24,41.76c0.67,0.72,1.12,1.43,1.35,2.15c0.22,0.72,0.32,27.61,0.22,29.22" style="fill:none;stroke:black;stroke-width:3" />
<circle cx="354.24" cy="41.76" r="5" stroke-width="0" fill="#FF2A00" opacity="0.7" />
<path d="M488.63,10.25c0.1,0.71,0.53,1.97-0.21,2.84C482.5,20,469.25,32.25,452.0,40.23" style="fill:none;stroke:#999;stroke-width:3" />
<path d="M488.73,12.89c5.44,4.64,28.85,19.78,34.85,23.17c2.03,1.15,4.64,1.65,6.68,1.97" style="fill:none;stroke:#999;stroke-width:3" />
<path d="M477.37,32.92c0.6,0.18,1.7,0.23,2.3,0.18c3.83-0.31,16.72-1.69,21.06-1.79c1-0.02,1.6,0.08,2.1,0.17" style="fill:none;stroke:#999;stroke-width:3" />
<path d="M463.24,41.76c0.67,0.72,1.12,1.43,1.35,2.15c0.22,0.72,0.32,27.61,0.22,29.22" style="fill:none;stroke:#999;stroke-width:3" />
<path d="M465.94,42.81c1.5-0.1,14.1-1.82,15.22-1.94c2-0.2,2.76,1.33,2.5,1.94c-0.24,0.59-0.38,18.48-0.38,26.74c0,7.31-3.28,2.12-4.53,1.2" style="fill:none;stroke:black;stroke-width:3" />
<circle cx="465.94" cy="42.81" r="5" stroke-width="0" fill="#FF2A00" opacity="0.7" />
<path d="M597.63,10.25c0.1,0.71,0.53,1.97-0.21,2.84C591.5,20,578.25,32.25,561.0,40.23" style="fill:none;stroke:#999;stroke-width:3" />
<path d="M597.73,12.89c5.44,4.64,28.85,19.78,34.85,23.17c2.03,1.15,4.64,1.65,6.68,1.97" style="fill:none;stroke:#999;stroke-width:3" />
<path d="M586.37,32.92c0.6,0.18,1.7,0.23,2.3,0.18c3.83-0.31,16.72-1.69,21.06-1.79c1-0.02,1.6,0.08,2.1,0.17" style="fill:none;stroke:#999;stroke-width:3" />
<path d="M572.24,41.76c0.67,0.72,1.12,1.43,1.35,2.15c0.22,0.72,0.32,27.61,0.22,29.22" style="fill:none;stroke:#999;stroke-width:3" />
<path d="M574.94,42.81c1.5-0.1,14.1-1.82,15.22-1.94c2-0.2,2.76,1.33,2.5,1.94c-0.24,0.59-0.38,18.48-0.38,26.74c0,7.31-3.28,2.12-4.53,1.2" style="fill:none;stroke:#999;stroke-width:3" />
<path d="M574.64,51.51c4.74-0.41,12.84-1.18,17.66-1.56" style="fill:none;stroke:black;stroke-width:3" />
<circle cx="574.64" cy="51.51" r="5" stroke-width="0" fill="#FF2A00" opacity="0.7" />
<path d="M706.63,10.25c0.1,0.71,0.53,1.97-0.21,2.84C700.5,20,687.25,32.25,670.0,40.23" style="fill:none;stroke:#999;stroke-width:3" />
<path d="M706.73,12.89c5.44,4.64,28.85,19.78,34.85,23.17c2.03,1.15,4.64,1.65,6.68,1.97" style="fill:none;stroke:#999;stroke-width:3" />
<path d="M695.37,32.92c0.6,0.18,1.7,0.23,2.3,0.18c3.83-0.31,16.72-1.69,21.06-1.79c1-0.02,1.6,0.08,2.1,0.17" style="fill:none;stroke:#999;stroke-width:3" />
<path d="M681.24,41.76c0.67,0.72,1.12,1.43,1.35,2.15c0.22,0.72,0.32,27.61,0.22,29.22" style="fill:none;stroke:#999;stroke-width:3" />
<path d="M683.94,42.81c1.5-0.1,14.1-1.82,15.22-1.94c2-0.2,2.76,1.33,2.5,1.94c-0.24,0.59-0.38,18.48-0.38,26.74c0,7.31-3.28,2.12-4.53,1.2" style="fill:none;stroke:#999;stroke-width:3" />
<path d="M683.64,51.51c4.74-0.41,12.84-1.18,17.66-1.56" style="fill:none;stroke:#999;stroke-width:3" />
<path d="M683.4,60.06c5.32-0.21,11.36-0.79,17.71-1.01" style="fill:none;stroke:black;stroke-width:3" />
<circle cx="683.4" cy="60.06" r="5" stroke-width="0" fill="#FF2A00" opacity="0.7" />
<path d="M815.63,10.25c0.1,0.71,0.53,1.97-0.21,2.84C809.5,20,796.25,32.25,779.0,40.23" style="fill:none;stroke:#999;stroke-width:3" />
<path d="M815.73,12.89c5.44,4.64,28.85,19.78,34.85,23.17c2.03,1.15,4.64,1.65,6.68,1.97" style="fill:none;stroke:#999;stroke-width:3" />
<path d="M804.37,32.92c0.6,0.18,1.7,0.23,2.3,0.18c3.83-0.31,16.72-1.69,21.06-1.79c1-0.02,1.6,0.08,2.1,0.17" style="fill:none;stroke:#999;stroke-width:3" />
<path d="M790.24,41.76c0.67,0.72,1.12,1.43,1.35,2.15c0.22,0.72,0.32,27.61,0.22,29.22" style="fill:none;stroke:#999;stroke-width:3" />
<path d="M792.94,42.81c1.5-0.1,14.1-1.82,15.22-1.94c2-0.2,2.76,1.33,2.5,1.94c-0.24,0.59-0.38,18.48-0.38,26.74c0,7.31-3.28,2.12-4.53,1.2" style="fill:none;stroke:#999;stroke-width:3" />
<path d="M792.64,51.51c4.74-0.41,12.84-1.18,17.66-1.56" style="fill:none;stroke:#999;stroke-width:3" />
<path d="M792.4,60.06c5.32-0.21,11.36-0.79,17.71-1.01" style="fill:none;stroke:#999;stroke-width:3" />
<path d="M823.85,42.08c0.79,0.43,1.35,0.93,1.42,2.34c0.33,6.8-0.02,18.38-0.02,20.69" style="fill:none;stroke:black;stroke-width:3" />
<circle cx="823.85" cy="42.08" r="5" stroke-width="0" fill="#FF2A00" opacity="0.7" />
<path d="M924.63,10.25c0.1,0.71,0.53,1.97-0.21,2.84C918.5,20,905.25,32.25,888.0,40.23" style="fill:none;stroke:#999;stroke-width:3" />
<path d="M924.73,12.89c5.44,4.64,28.85,19.78,34.85,23.17c2.03,1.15,4.64,1.65,6.68,1.97" style="fill:none;stroke:#999;stroke-width:3" />
<path d="M913.37,32.92c0.6,0.18,1.7,0.23,2.3,0.18c3.83-0.31,16.72-1.69,21.06-1.79c1-0.02,1.6,0.08,2.1,0.17" style="fill:none;stroke:#999;stroke-width:3" />
<path d="M899.24,41.76c0.67,0.72,1.12,1.43,1.35,2.15c0.22,0.72,0.32,27.61,0.22,29.22" style="fill:none;stroke:#999;stroke-width:3" />
<path d="M901.94,42.81c1.5-0.1,14.1-1.82,15.22-1.94c2-0.2,2.76,1.33,2.5,1.94c-0.24,0.59-0.38,18.48-0.38,26.74c0,7.31-3.28,2.12-4.53,1.2" style="fill:none;stroke:#999;stroke-width:3" />
<path d="M901.64,51.51c4.74-0.41,12.84-1.18,17.66-1.56" style="fill:none;stroke:#999;stroke-width:3" />
<path d="M901.4,60.06c5.32-0.21,11.36-0.79,17.71-1.01" style="fill:none;stroke:#999;stroke-width:3" />
<path d="M932.85,42.08c0.79,0.43,1.35,0.93,1.42,2.34c0.33,6.8-0.02,18.38-0.02,20.69" style="fill:none;stroke:#999;stroke-width:3" />
<path d="M949.03,38.52c0.79,0.43,1.35,0.93,1.42,2.34c0.33,6.8-0.21,26.79-0.21,29.1c0,8.79-3.49,2.29-5.04,0.62" style="fill:none;stroke:black;stroke-width:3" />
<circle cx="949.03" cy="38.52" r="5" stroke-width="0" fill="#FF2A00" opacity="0.7" />
<path d="M1033.63,10.25c0.1,0.71,0.53,1.97-0.21,2.84C1027.5,20,1014.25,32.25,997.0,40.23" style="fill:none;stroke:#999;stroke-width:3" />
<path d="M1033.73,12.89c5.44,4.64,28.85,19.78,34.85,23.17c2.03,1.15,4.64,1.65,6.68,1.97" style="fill:none;stroke:#999;stroke-width:3" />
<path d="M1022.37,32.92c0.6,0.18,1.7,0.23,2.3,0.18c3.83-0.31,16.72-1.69,21.06-1.79c1-0.02,1.6,0.08,2.1,0.17" style="fill:none;stroke:#999;stroke-width:3" />
<path d="M1008.24,41.76c0.67,0.72,1.12,1.43,1.35,2.15c0.22,0.72,0.32,27.61,0.22,29.22" style="fill:none;stroke:#999;stroke-width:3" />
<path d="M1010.94,42.81c1.5-0.1,14.1-1.82,15.22-1.94c2-0.2,2.76,1.33,2.5,1.94c-0.24,0.59-0.38,18.48-0.38,26.74c0,7.31-3.28,2.12-4.53,1.2" style="fill:none;stroke:#999;stroke-width:3" />
<path d="M1010.64,51.51c4.74-0.41,12.84-1.18,17.66-1.56" style="fill:none;stroke:#999;stroke-width:3" />
<path d="M1010.4,60.06c5.32-0.21,11.36-0.79,17.71-1.01" style="fill:none;stroke:#999;stroke-width:3" />
<path d="M1041.85,42.08c0.79,0.43,1.35,0.93,1.42,2.34c0.33,6.8-0.02,18.38-0.02,20.69" style="fill:none;stroke:#999;stroke-width:3" />
<path d="M1058.03,38.52c0.79,0.43,1.35,0.93,1.42,2.34c0.33,6.8-0.21,26.79-0.21,29.1c0,8.79-3.49,2.29-5.04,0.62" style="fill:none;stroke:#999;stroke-width:3" />
<path d="M1004.03,83.24c0.33,2.02-3.31,10.94-5.95,14.31" style="fill:none;stroke:black;stroke-width:3" />
<circle cx="1004.03" cy="83.24" r="5" stroke-width="0" fill="#FF2A00" opacity="0.7" />
<path d="M1142.63,10.25c0.1,0.71,0.53,1.97-0.21,2.84C1136.5,20,1123.25,32.25,1106.0,40.23" style="fill:none;stroke:#999;stroke-width:3" />
<path d="M1142.73,12.89c5.44,4.64,28.85,19.78,34.85,23.17c2.03,1.15,4.64,1.65,6.68,1.97" style="fill:none;stroke:#999;stroke-width:3" />
<path d="M1131.37,32.92c0.6,0.18,1.7,0.23,2.3,0.18c3.83-0.31,16.72-1.69,21.06-1.79c1-0.02,1.6,0.08,2.1,0.17" style="fill:none;stroke:#999;stroke-width:3" />
<path d="M1117.24,41.76c0.67,0.72,1.12,1.43,1.35,2.15c0.22,0.72,0.32,27.61,0.22,29.22" style="fill:none;stroke:#999;stroke-width:3" />
<path d="M1119.94,42.81c1.5-0.1,14.1-1.82,15.22-1.94c2-0.2,2.76,1.33,2.5,1.94c-0.24,0.59-0.38,18.48-0.38,26.74c0,7.31-3.28,2.12-4.53,1.2" style="fill:none;stroke:#999;stroke-width:3" />
<path d="M1119.6399999999999,51.51c4.74-0.41,12.84-1.18,17.66-1.56" style="fill:none;stroke:#999;stroke-width:3" />
<path d="M1119.4,60.06c5.32-0.21,11.36-0.79,17.71-1.01" style="fill:none;stroke:#999;stroke-width:3" />
<path d="M1150.85,42.08c0.79,0.43,1.35,0.93,1.42,2.34c0.33,6.8-0.02,18.38-0.02,20.69" style="fill:none;stroke:#999;stroke-width:3" />
<path d="M1167.03,38.52c0.79,0.43,1.35,0.93,1.42,2.34c0.33,6.8-0.21,26.79-0.21,29.1c0,8.79-3.49,2.29-5.04,0.62" style="fill:none;stroke:#999;stroke-width:3" />
<path d="M1113.03,83.24c0.33,2.02-3.31,10.94-5.95,14.31" style="fill:none;stroke:#999;stroke-width:3" />
<path d="M1124.0,80.63c6.31,9.73,16.29,18.18,40.61,18.3c11.74,0.06,11.64-3.68,4.71-9.53" style="fill:none;stroke:black;stroke-width:3" />
<circle cx="1124.0" cy="80.63" r="5" stroke-width="0" fill="#FF2A00" opacity="0.7" />
<path d="M1251.63,10.25c0.1,0.71,0.53,1.97-0.21,2.84C1245.5,20,1232.25,32.25,1215.0,40.23" style="fill:none;stroke:#999;stroke-width:3" />
<path d="M1251.73,12.89c5.44,4.64,28.85,19.78,34.85,23.17c2.03,1.15,4.64,1.65,6.68,1.97" style="fill:none;stroke:#999;stroke-width:3" />
<path d="M1240.37,32.92c0.6,0.18,1.7,0.23,2.3,0.18c3.83-0.31,16.72-1.69,21.06-1.79c1-0.02,1.6,0.08,2.1,0.17" style="fill:none;stroke:#999;stroke-width:3" />
<path d="M1226.24,41.76c0.67,0.72,1.12,1.43,1.35,2.15c0.22,0.72,0.32,27.61,0.22,29.22" style="fill:none;stroke:#999;stroke-width:3" />
<path d="M1228.94,42.81c1.5-0.1,14.1-1.82,15.22-1.94c2-0.2,2.76,1.33,2.5,1.94c-0.24,0.59-0.38,18.48-0.38,26.74c0,7.31-3.28,2.12-4.53,1.2" style="fill:none;stroke:#999;stroke-width:3" />
<path d="M1228.6399999999999,51.51c4.74-0.41,12.84-1.18,17.66-1.56" style="fill:none;stroke:#999;stroke-width:3" />
<path d="M1228.4,60.06c5.32-0.21,11.36-0.79,17.71-1.01" style="fill:none;stroke:#999;stroke-width:3" />
<path d="M1259.85,42.08c0.79,0.43,1.35,0.93,1.42,2.34c0.33,6.8-0.02,18.38-0.02,20.69" style="fill:none;stroke:#999;stroke-width:3" />
<path d="M1276.03,38.52c0.79,0.43,1.35,0.93,1.42,2.34c0.33,6.8-0.21,26.79-0.21,29.1c0,8.79-3.49,2.29-5.04,0.62" style="fill:none;stroke:#999;stroke-width:3" />
<path d="M1222.03,83.24c0.33,2.02-3.31,10.94-5.95,14.31" style="fill:none;stroke:#999;stroke-width:3" />
<path d="M1233.0,80.63c6.31,9.73,16.29,18.18,40.61,18.3c11.74,0.06,11.64-3.68,4.71-9.53" style="fill:none;stroke:#999;stroke-width:3" />
<path d="M1254.31,77.53c2,4.2,4.92,8.4,7.06,1.97" style="fill:none;stroke:black;stroke-width:3" />
<circle cx="1254.31" cy="77.53" r="5" stroke-width="0" fill="#FF2A00" opacity="0.7" />
<path d="M1360.63,10.25c0.1,0.71,0.53,1.97-0.21,2.84C1354.5,20,1341.25,32.25,1324.0,40.23" style="fill:none;stroke:#999;stroke-width:3" />
<path d="M1360.73,12.89c5.44,4.64,28.85,19.78,34.85,23.17c2.03,1.15,4.64,1.65,6.68,1.97" style="fill:none;stroke:#999;stroke-width:3" />
<path d="M1349.37,32.92c0.6,0.18,1.7,0.23,2.3,0.18c3.83-0.31,16.72-1.69,21.06-1.79c1-0.02,1.6,0.08,2.1,0.17" style="fill:none;stroke:#999;stroke-width:3" />
<path d="M1335.24,41.76c0.67,0.72,1.12,1.43,1.35,2.15c0.22,0.72,0.32,27.61,0.22,29.22" style="fill:none;stroke:#999;stroke-width:3" />
<path d="M1337.94,42.81c1.5-0.1,14.1-1.82,15.22-1.94c2-0.2,2.76,1.33,2.5,1.94c-0.24,0.59-0.38,18.48-0.38,26.74c0,7.31-3.28,2.12-4.53,1.2" style="fill:none;stroke:#999;stroke-width:3" />
<path d="M1337.6399999999999,51.51c4.74-0.41,12.84-1.18,17.66-1.56" style="fill:none;stroke:#999;stroke-width:3" />
<path d="M1337.4,60.06c5.32-0.21,11.36-0.79,17.71-1.01" style="fill:none;stroke:#999;stroke-width:3" />
<path d="M1368.85,42.08c0.79,0.43,1.35,0.93,1.42,2.34c0.33,6.8-0.02,18.38-0.02,20.69" style="fill:none;stroke:#999;stroke-width:3" />
<path d="M1385.03,38.52c0.79,0.43,1.35,0.93,1.42,2.34c0.33,6.8-0.21,26.79-0.21,29.1c0,8.79-3.49,2.29-5.04,0.62" style="fill:none;stroke:#999;stroke-width:3" />
<path d="M1331.03,83.24c0.33,2.02-3.31,10.94-5.95,14.31" style="fill:none;stroke:#999;stroke-width:3" />
<path d="M1342.0,80.63c6.31,9.73,16.29,18.18,40.61,18.3c11.74,0.06,11.64-3.68,4.71-9.53" style="fill:none;stroke:#999;stroke-width:3" />
<path d="M1363.31,77.53c2,4.2,4.92,8.4,7.06,1.97" style="fill:none;stroke:#999;stroke-width:3" />
<path d="M1391.61,78.73c4.83,2.33,8.45,4.45,12.38,11.67" style="fill:none;stroke:black;stroke-width:3" />
<circle cx="1391.61" cy="78.73" r="5" stroke-width="0" fill="#FF2A00" opacity="0.7" />
</svg>