<svg width="981px" height="109px" viewBox="0 0 981px 109px" xmlns="http://www.w3.org/2000/svg" xmlns:xlink="http://www.w3.org/1999/xlink" xml:space="preserve" version="1.1"  baseProfile="full">
<line x1="1" y1="1" x2="980" y2="1" style="stroke:#ddd;stroke-width:2" />
<line x1="1" y1="1" x2="1" y2="108" style="stroke:#ddd;stroke-width:2" />
<line x1="1" y1="108" x2="980" y2="108" style="stroke:#ddd;stroke-width:2" />
<line x1="980" y1="1" x2="980" y2="108" style="stroke:#ddd;stroke-width:2" />
<line x1="109" y1="1" x2="109" y2="108" style="stroke:#ddd;stroke-width:2" />
<line x1="218" y1="1" x2="218" y2="108" style="stroke:#ddd;stroke-width:2" />
<line x1="327" y1="1" x2="327" y2="108" style="stroke:#ddd;stroke-width:2" />
<line x1="436" y1="1" x2="436" y2="108" style="stroke:#ddd;stroke-width:2" />
<line x1="545" y1="1" x2="545" y2="108" style="stroke:#ddd;stroke-width:2" />
<line x1="654" y1="1" x2="654" y2="108" style="stroke:#ddd;stroke-width:2" />
<line x1="763" y1="1" x2="763" y2="108" style="stroke:#ddd;stroke-width:2" />
<line x1="872" y1="1" x2="872" y2="108" style="stroke:#ddd;stroke-width:2" />
<line x1="1" y1="54" x2="980" y2="54" style="stroke:#ddd;stroke-width:2;stroke-dasharray:3 3" />
<line x1="55" y1="1" x2="55" y2="108" style="stroke:#ddd;stroke-width:2;stroke-dasharray:3 3" />
<line x1="164" y1="1" x2="164" y2="108" style="stroke:#ddd;stroke-width:2;stroke-dasharray:3 3" />
<line x1="273" y1="1" x2="273" y2="108" style="stroke:#ddd;stroke-width:2;stroke-dasharray:3 3" />
<line x1="382" y1="1" x2="382" y2="108" style="stroke:#ddd;stroke-width:2;stroke-dasharray:3 3" />
<line x1="491" y1="1" x2="491" y2="108" style="stroke:#ddd;stroke-width:2;stroke-dasharray:3 3" />
<line x1="600" y1="1" x2="600" y2="108" style="stroke:#ddd;stroke-width:2;stroke-dasharray:3 3" />
<line x1="709" y1="1" x2="709" y2="108" style="stroke:#ddd;stroke-width:2;stroke-dasharray:3 3" />
<line x1="818" y1="1" x2="818" y2="108" style="stroke:#ddd;stroke-width:2;stroke-dasharray:3 3" />
<line x1="927" y1="1" x2="927" y2="108" style="stroke:#ddd;stroke-width:2;stroke-dasharray:3 3" />
<path d="M22.88,17.26c0.94,0.3,2.66,0.33,3.6,0.3c9.77-0.34,48.77-3.06,57.36-3.4c1.56-0.06,2.5,0.14,3.29,0.29" style="fill:none;stroke:black;stroke-width:3" />
<circle cx="22.88" cy="17.26" r="5" stroke-width="0" fill="#FF2A00" opacity="0.7" />
<path d="M131.88,17.26c0.94,0.3,2.66,0.33,3.6,0.3c9.77-0.34,48.77-3.06,57.36-3.4c1.56-0.06,2.5,0.14,3.29,0.29" style="fill:none;stroke:#999;stroke-width:3" />
<path d="M134.85,31.38c10.4,0.87,44.9-2.38,55.65-3.13c2-0.14,4,1.75,3.25,4.5c-1.33,4.87-2.25,6.5-4,11.25" style="fill:none;stroke:black;stroke-width:3" />
<circle cx="134.85" cy="31.38" r="5" stroke-width="0" fill="#FF2A00" opacity="0.7" />
<path d="M240.88,17.26c0.94,0.3,2.66,0.33,3.6,0.3c9.77-0.34,48.77-3.06,57.36-3.4c1.56-0.06,2.5,0.14,3.29,0.29" style="fill:none;stroke:#999;stroke-width:3" />
<path d="M243.85,31.38c10.4,0.87,44.9-2.38,55.65-3.13c2-0.14,4,1.75,3.25,4.5c-1.33,4.87-2.25,6.5-4,11.25" style="fill:none;stroke:#999;stroke-width:3" />
<path d="M246.75,47.25c8.25,0,41-2.25,55.5-2.75" style="fill:none;stroke:black;stroke-width:3" />
<circle cx="246.75" cy="47.25" r="5" stroke-width="0" fill="#FF2A00" opacity="0.7" />
<path d="M349.88,17.26c0.94,0.3,2.66,0.33,3.6,0.3c9.77-0.34,48.77-3.06,57.36-3.4c1.56-0.06,2.5,0.14,3.29,0.29" style="fill:none;stroke:#999;stroke-width:3" />
<path d="M352.85,31.38c10.4,0.87,44.9-2.38,55.65-3.13c2-0.14,4,1.75,3.25,4.5c-1.33,4.87-2.25,6.5-4,11.25" style="fill:none;stroke:#999;stroke-width:3" />
<path d="M355.75,47.25c8.25,0,41-2.25,55.5-2.75" style="fill:none;stroke:#999;stroke-width:3" />
<path d="M355.94,31.68c0.05,1.36-0.12,3.49-0.1,5.45C356.0,61.75,349.75,79.25,339.25,89.25" style="fill:none;stroke:black;stroke-width:3" />
<circle cx="355.94" cy="31.68" r="5" stroke-width="0" fill="#FF2A00" opacity="0.7" />
<path d="M458.88,17.26c0.94,0.3,2.66,0.33,3.6,0.3c9.77-0.34,48.77-3.06,57.36-3.4c1.56-0.06,2.5,0.14,3.29,0.29" style="fill:none;stroke:#999;stroke-width:3" />
<path d="M461.85,31.38c10.4,0.87,44.9-2.38,55.65-3.13c2-0.14,4,1.75,3.25,4.5c-1.33,4.87-2.25,6.5-4,11.25" style="fill:none;stroke:#999;stroke-width:3" />
<path d="M464.75,47.25c8.25,0,41-2.25,55.5-2.75" style="fill:none;stroke:#999;stroke-width:3" />
<path d="M464.94,31.68c0.05,1.36-0.12,3.49-0.1,5.45C465.0,61.75,458.75,79.25,448.25,89.25" style="fill:none;stroke:#999;stroke-width:3" />
<path d="M468.58,57.71c0.56,0.64,0.93,1.66,0.74,2.81c-0.19,1.15,2.19,34.55,2.19,36.47" style="fill:none;stroke:black;stroke-width:3" />
<circle cx="468.58" cy="57.71" r="5" stroke-width="0" fill="#FF2A00" opacity="0.7" />
<path d="M567.88,17.26c0.94,0.3,2.66,0.33,3.6,0.3c9.77-0.34,48.77-3.06,57.36-3.4c1.56-0.06,2.5,0.14,3.29,0.29" style="fill:none;stroke:#999;stroke-width:3" />
<path d="M570.85,31.38c10.4,0.87,44.9-2.38,55.65-3.13c2-0.14,4,1.75,3.25,4.5c-1.33,4.87-2.25,6.5-4,11.25" style="fill:none;stroke:#999;stroke-width:3" />
<path d="M573.75,47.25c8.25,0,41-2.25,55.5-2.75" style="fill:none;stroke:#999;stroke-width:3" />
<path d="M573.94,31.68c0.05,1.36-0.12,3.49-0.1,5.45C574.0,61.75,567.75,79.25,557.25,89.25" style="fill:none;stroke:#999;stroke-width:3" />
<path d="M577.5799999999999,57.71c0.56,0.64,0.93,1.66,0.74,2.81c-0.19,1.15,2.19,34.55,2.19,36.47" style="fill:none;stroke:#999;stroke-width:3" />
<path d="M578.83,60.49c7.07-0.51,48.84-3.88,50.24-4.06c2.98-0.38,4.37,2.35,4.34,3.03c-0.15,3.28-2.7,30.02-3.56,32.83c-1.59,5.2-3.59,2.7-6.39-0.23" style="fill:none;stroke:black;stroke-width:3" />
<circle cx="578.83" cy="60.49" r="5" stroke-width="0" fill="#FF2A00" opacity="0.7" />
<path d="M676.88,17.26c0.94,0.3,2.66,0.33,3.6,0.3c9.77-0.34,48.77-3.06,57.36-3.4c1.56-0.06,2.5,0.14,3.29,0.29" style="fill:none;stroke:#999;stroke-width:3" />
<path d="M679.85,31.38c10.4,0.87,44.9-2.38,55.65-3.13c2-0.14,4,1.75,3.25,4.5c-1.33,4.87-2.25,6.5-4,11.25" style="fill:none;stroke:#999;stroke-width:3" />
<path d="M682.75,47.25c8.25,0,41-2.25,55.5-2.75" style="fill:none;stroke:#999;stroke-width:3" />
<path d="M682.94,31.68c0.05,1.36-0.12,3.49-0.1,5.45C683.0,61.75,676.75,79.25,666.25,89.25" style="fill:none;stroke:#999;stroke-width:3" />
<path d="M686.5799999999999,57.71c0.56,0.64,0.93,1.66,0.74,2.81c-0.19,1.15,2.19,34.55,2.19,36.47" style="fill:none;stroke:#999;stroke-width:3" />
<path d="M687.83,60.49c7.07-0.51,48.84-3.88,50.24-4.06c2.98-0.38,4.37,2.35,4.34,3.03c-0.15,3.28-2.7,30.02-3.56,32.83c-1.59,5.2-3.59,2.7-6.39-0.23" style="fill:none;stroke:#999;stroke-width:3" />
<path d="M688.9,76.56c8.07-0.4,33.85-3.26,51.51-3.52" style="fill:none;stroke:black;stroke-width:3" />
<circle cx="688.9" cy="76.56" r="5" stroke-width="0" fill="#FF2A00" opacity="0.7" />
<path d="M785.88,17.26c0.94,0.3,2.66,0.33,3.6,0.3c9.77-0.34,48.77-3.06,57.36-3.4c1.56-0.06,2.5,0.14,3.29,0.29" style="fill:none;stroke:#999;stroke-width:3" />
<path d="M788.85,31.38c10.4,0.87,44.9-2.38,55.65-3.13c2-0.14,4,1.75,3.25,4.5c-1.33,4.87-2.25,6.5-4,11.25" style="fill:none;stroke:#999;stroke-width:3" />
<path d="M791.75,47.25c8.25,0,41-2.25,55.5-2.75" style="fill:none;stroke:#999;stroke-width:3" />
<path d="M791.94,31.68c0.05,1.36-0.12,3.49-0.1,5.45C792.0,61.75,785.75,79.25,775.25,89.25" style="fill:none;stroke:#999;stroke-width:3" />
<path d="M795.5799999999999,57.71c0.56,0.64,0.93,1.66,0.74,2.81c-0.19,1.15,2.19,34.55,2.19,36.47" style="fill:none;stroke:#999;stroke-width:3" />
<path d="M796.83,60.49c7.07-0.51,48.84-3.88,50.24-4.06c2.98-0.38,4.37,2.35,4.34,3.03c-0.15,3.28-2.7,30.02-3.56,32.83c-1.59,5.2-3.59,2.7-6.39-0.23" style="fill:none;stroke:#999;stroke-width:3" />
<path d="M797.9,76.56c8.07-0.4,33.85-3.26,51.51-3.52" style="fill:none;stroke:#999;stroke-width:3" />
<path d="M813.32,62c1.04,0.27,1.17,1.7,1.38,2.23c0.21,0.53,0,27.33-0.21,30.66" style="fill:none;stroke:black;stroke-width:3" />
<circle cx="813.32" cy="62.0" r="5" stroke-width="0" fill="#FF2A00" opacity="0.7" />
<path d="M894.88,17.26c0.94,0.3,2.66,0.33,3.6,0.3c9.77-0.34,48.77-3.06,57.36-3.4c1.56-0.06,2.5,0.14,3.29,0.29" style="fill:none;stroke:#999;stroke-width:3" />
<path d="M897.85,31.38c10.4,0.87,44.9-2.38,55.65-3.13c2-0.14,4,1.75,3.25,4.5c-1.33,4.87-2.25,6.5-4,11.25" style="fill:none;stroke:#999;stroke-width:3" />
<path d="M900.75,47.25c8.25,0,41-2.25,55.5-2.75" style="fill:none;stroke:#999;stroke-width:3" />
<path d="M900.94,31.68c0.05,1.36-0.12,3.49-0.1,5.45C901.0,61.75,894.75,79.25,884.25,89.25" style="fill:none;stroke:#999;stroke-width:3" />
<path d="M904.5799999999999,57.71c0.56,0.64,0.93,1.66,0.74,2.81c-0.19,1.15,2.19,34.55,2.19,36.47" style="fill:none;stroke:#999;stroke-width:3" />
<path d="M905.83,60.49c7.07-0.51,48.84-3.88,50.24-4.06c2.98-0.38,4.37,2.35,4.34,3.03c-0.15,3.28-2.7,30.02-3.56,32.83c-1.59,5.2-3.59,2.7-6.39-0.23" style="fill:none;stroke:#999;stroke-width:3" />
<path d="M906.9,76.56c8.07-0.4,33.85-3.26,51.51-3.52" style="fill:none;stroke:#999;stroke-width:3" />
<path d="M922.32,62c1.04,0.27,1.17,1.7,1.38,2.23c0.21,0.53,0,27.33-0.21,30.66" style="fill:none;stroke:#999;stroke-width:3" />
<path d="M938.11,60.07c1.04,0.27,1.67,1.2,1.88,1.73c0.21,0.53,0,27.13-0.21,30.46" style="fill:none;stroke:black;stroke-width:3" />
<circle cx="938.11" cy="60.07" r="5" stroke-width="0" fill="#FF2A00" opacity="0.7" />
</svg>