<svg width="1526px" height="109px" viewBox="0 0 1526px 109px" xmlns="http://www.w3.org/2000/svg" xmlns:xlink="http://www.w3.org/1999/xlink" xml:space="preserve" version="1.1"  baseProfile="full">
<line x1="1" y1="1" x2="1525" y2="1" style="stroke:#ddd;stroke-width:2" />
<line x1="1" y1="1" x2="1" y2="108" style="stroke:#ddd;stroke-width:2" />
<line x1="1" y1="108" x2="1525" y2="108" style="stroke:#ddd;stroke-width:2" />
<line x1="1525" y1="1" x2="1525" y2="108" style="stroke:#ddd;stroke-width:2" />
<line x1="109" y1="1" x2="109" y2="108" style="stroke:#ddd;stroke-width:2" />
<line x1="218" y1="1" x2="218" y2="108" style="stroke:#ddd;stroke-width:2" />
<line x1="327" y1="1" x2="327" y2="108" style="stroke:#ddd;stroke-width:2" />
<line x1="436" y1="1" x2="436" y2="108" style="stroke:#ddd;stroke-width:2" />
<line x1="545" y1="1" x2="545" y2="108" style="stroke:#ddd;stroke-width:2" />
<line x1="654" y1="1" x2="654" y2="108" style="stroke:#ddd;stroke-width:2" />
<line x1="763" y1="1" x2="763" y2="108" style="stroke:#ddd;stroke-width:2" />
<line x1="872" y1="1" x2="872" y2="108" style="stroke:#ddd;stroke-width:2" />
<line x1="981" y1="1" x2="981" y2="108" style="stroke:#ddd;stroke-width:2" />
<line x1="1090" y1="1" x2="1090" y2="108" style="stroke:#ddd;stroke-width:2" />
<line x1="1199" y1="1" x2="1199" y2="108" style="stroke:#ddd;stroke-width:2" />
<line x1="1308" y1="1" x2="1308" y2="108" style="stroke:#ddd;stroke-width:2" />
<line x1="1417" y1="1" x2="1417" y2="108" style="stroke:#ddd;stroke-width:2" />
<line x1="1" y1="54" x2="1525" y2="54" style="stroke:#ddd;stroke-width:2;stroke-dasharray:3 3" />
<line x1="55" y1="1" x2="55" y2="108" style="stroke:#ddd;stroke-width:2;stroke-dasharray:3 3" />
<line x1="164" y1="1" x2="164" y2="108" style="stroke:#ddd;stroke-width:2;stroke-dasharray:3 3" />
<line x1="273" y1="1" x2="273" y2="108" style="stroke:#ddd;stroke-width:2;stroke-dasharray:3 3" />
<line x1="382" y1="1" x2="382" y2="108" style="stroke:#ddd;stroke-width:2;stroke-dasharray:3 3" />
<line x1="491" y1="1" x2="491" y2="108" style="stroke:#ddd;stroke-width:2;stroke-dasharray:3 3" />
<line x1="600" y1="1" x2="600" y2="108" style="stroke:#ddd;stroke-width:2;stroke-dasharray:3 3" />
<line x1="709" y1="1" x2="709" y2="108" style="stroke:#ddd;stroke-width:2;stroke-dasharray:3 3" />
<line x1="818" y1="1" x2="818" y2="108" style="stroke:#ddd;stroke-width:2;stroke-dasharray:3 3" />
<line x1="927" y1="1" x2="927" y2="108" style="stroke:#ddd;stroke-width:2;stroke-dasharray:3 3" />
<line x1="1036" y1="1" x2="1036" y2="108" style="stroke:#ddd;stroke-width:2;stroke-dasharray:3 3" />
<line x1="1145" y1="1" x2="1145" y2="108" style="stroke:#ddd;stroke-width:2;stroke-dasharray:3 3" />
<line x1="1254" y1="1" x2="1254" y2="108" style="stroke:#ddd;stroke-width:2;stroke-dasharray:3 3" />
<line x1="1363" y1="1" x2="1363" y2="108" style="stroke:#ddd;stroke-width:2;stroke-dasharray:3 3" />
<line x1="1472" y1="1" x2="1472" y2="108" style="stroke:#ddd;stroke-width:2;stroke-dasharray:3 3" />
<path d="M12.25,40.5c2.29,0.27,4.27,0.4,6.63,0.07c4.56-0.62,10.74-1.57,17.25-2.75c1.25-0.23,2.51-0.27,3.78-0.24" style="fill:none;stroke:black;stroke-width:3" />
<circle cx="12.25" cy="40.5" r="5" stroke-width="0" fill="#FF2A00" opacity="0.7" />
<path d="M121.25,40.5c2.29,0.27,4.27,0.4,6.63,0.07c4.56-0.62,10.74-1.57,17.25-2.75c1.25-0.23,2.51-0.27,3.78-0.24" style="fill:none;stroke:#999;stroke-width:3" />
<path d="M137.52,14.33c1.2,1.2,1.76,2.67,1.76,4.77c0,14.56-0.01,61.69-0.01,66.65c0,14.25-6.32,3.53-7.77,2" style="fill:none;stroke:black;stroke-width:3" />
<circle cx="137.52" cy="14.33" r="5" stroke-width="0" fill="#FF2A00" opacity="0.7" />
<path d="M230.25,40.5c2.29,0.27,4.27,0.4,6.63,0.07c4.56-0.62,10.74-1.57,17.25-2.75c1.25-0.23,2.51-0.27,3.78-0.24" style="fill:none;stroke:#999;stroke-width:3" />
<path d="M246.52,14.33c1.2,1.2,1.76,2.67,1.76,4.77c0,14.56-0.01,61.69-0.01,66.65c0,14.25-6.32,3.53-7.77,2" style="fill:none;stroke:#999;stroke-width:3" />
<path d="M229.75,69.27c2,0.86,2.99,0.94,5.72-0.94c1.61-1.11,12.2-9.02,19.03-14.33" style="fill:none;stroke:black;stroke-width:3" />
<circle cx="229.75" cy="69.27" r="5" stroke-width="0" fill="#FF2A00" opacity="0.7" />
<path d="M339.25,40.5c2.29,0.27,4.27,0.4,6.63,0.07c4.56-0.62,10.74-1.57,17.25-2.75c1.25-0.23,2.51-0.27,3.78-0.24" style="fill:none;stroke:#999;stroke-width:3" />
<path d="M355.52,14.33c1.2,1.2,1.76,2.67,1.76,4.77c0,14.56-0.01,61.69-0.01,66.65c0,14.25-6.32,3.53-7.77,2" style="fill:none;stroke:#999;stroke-width:3" />
<path d="M338.75,69.27c2,0.86,2.99,0.94,5.72-0.94c1.61-1.11,12.2-9.02,19.03-14.33" style="fill:none;stroke:#999;stroke-width:3" />
<path d="M369.09000000000003,19.24c2.18,0.5,4.32,0.49,6.42-0.05c3.38-0.67,7.57-1.93,9.86-2.43c2.4-0.53,4.65,0.36,4.65,2.97c0,2.46-0.02,17.89-0.02,28.4c0,8.12-5.93,0.93-6.61,0.28" style="fill:none;stroke:black;stroke-width:3" />
<circle cx="369.09000000000003" cy="19.24" r="5" stroke-width="0" fill="#FF2A00" opacity="0.7" />
<path d="M448.25,40.5c2.29,0.27,4.27,0.4,6.63,0.07c4.56-0.62,10.74-1.57,17.25-2.75c1.25-0.23,2.51-0.27,3.78-0.24" style="fill:none;stroke:#999;stroke-width:3" />
<path d="M464.52,14.33c1.2,1.2,1.76,2.67,1.76,4.77c0,14.56-0.01,61.69-0.01,66.65c0,14.25-6.32,3.53-7.77,2" style="fill:none;stroke:#999;stroke-width:3" />
<path d="M447.75,69.27c2,0.86,2.99,0.94,5.72-0.94c1.61-1.11,12.2-9.02,19.03-14.33" style="fill:none;stroke:#999;stroke-width:3" />
<path d="M478.09000000000003,19.24c2.18,0.5,4.32,0.49,6.42-0.05c3.38-0.67,7.57-1.93,9.86-2.43c2.4-0.53,4.65,0.36,4.65,2.97c0,2.46-0.02,17.89-0.02,28.4c0,8.12-5.93,0.93-6.61,0.28" style="fill:none;stroke:#999;stroke-width:3" />
<path d="M479.78,25.77c3.18,1.02,7.96,4.46,8.75,6.06" style="fill:none;stroke:black;stroke-width:3" />
<circle cx="479.78" cy="25.77" r="5" stroke-width="0" fill="#FF2A00" opacity="0.7" />
<path d="M557.25,40.5c2.29,0.27,4.27,0.4,6.63,0.07c4.56-0.62,10.74-1.57,17.25-2.75c1.25-0.23,2.51-0.27,3.78-0.24" style="fill:none;stroke:#999;stroke-width:3" />
<path d="M573.52,14.33c1.2,1.2,1.76,2.67,1.76,4.77c0,14.56-0.01,61.69-0.01,66.65c0,14.25-6.32,3.53-7.77,2" style="fill:none;stroke:#999;stroke-width:3" />
<path d="M556.75,69.27c2,0.86,2.99,0.94,5.72-0.94c1.61-1.11,12.2-9.02,19.03-14.33" style="fill:none;stroke:#999;stroke-width:3" />
<path d="M587.09,19.24c2.18,0.5,4.32,0.49,6.42-0.05c3.38-0.67,7.57-1.93,9.86-2.43c2.4-0.53,4.65,0.36,4.65,2.97c0,2.46-0.02,17.89-0.02,28.4c0,8.12-5.93,0.93-6.61,0.28" style="fill:none;stroke:#999;stroke-width:3" />
<path d="M588.78,25.77c3.18,1.02,7.96,4.46,8.75,6.06" style="fill:none;stroke:#999;stroke-width:3" />
<path d="M586.75,44.5c1.25,1.09,3.28,0.06,4.53-0.88c0.73-0.55,5.64-3.95,8.76-6.6" style="fill:none;stroke:black;stroke-width:3" />
<circle cx="586.75" cy="44.5" r="5" stroke-width="0" fill="#FF2A00" opacity="0.7" />
<path d="M666.25,40.5c2.29,0.27,4.27,0.4,6.63,0.07c4.56-0.62,10.74-1.57,17.25-2.75c1.25-0.23,2.51-0.27,3.78-0.24" style="fill:none;stroke:#999;stroke-width:3" />
<path d="M682.52,14.33c1.2,1.2,1.76,2.67,1.76,4.77c0,14.56-0.01,61.69-0.01,66.65c0,14.25-6.32,3.53-7.77,2" style="fill:none;stroke:#999;stroke-width:3" />
<path d="M665.75,69.27c2,0.86,2.99,0.94,5.72-0.94c1.61-1.11,12.2-9.02,19.03-14.33" style="fill:none;stroke:#999;stroke-width:3" />
<path d="M696.09,19.24c2.18,0.5,4.32,0.49,6.42-0.05c3.38-0.67,7.57-1.93,9.86-2.43c2.4-0.53,4.65,0.36,4.65,2.97c0,2.46-0.02,17.89-0.02,28.4c0,8.12-5.93,0.93-6.61,0.28" style="fill:none;stroke:#999;stroke-width:3" />
<path d="M697.78,25.77c3.18,1.02,7.96,4.46,8.75,6.06" style="fill:none;stroke:#999;stroke-width:3" />
<path d="M695.75,44.5c1.25,1.09,3.28,0.06,4.53-0.88c0.73-0.55,5.64-3.95,8.76-6.6" style="fill:none;stroke:#999;stroke-width:3" />
<path d="M724.77,17.83c2.1,0.47,4.17,0.48,6.23,0.05c3.67-0.63,9.17-1.73,11.76-2.2c2.82-0.5,4.75-0.25,4.75,3.22c0,2.61-0.02,21.19-0.02,31.69c0,7.9-5.93,0.93-6.61,0.28" style="fill:none;stroke:black;stroke-width:3" />
<circle cx="724.77" cy="17.83" r="5" stroke-width="0" fill="#FF2A00" opacity="0.7" />
<path d="M775.25,40.5c2.29,0.27,4.27,0.4,6.63,0.07c4.56-0.62,10.74-1.57,17.25-2.75c1.25-0.23,2.51-0.27,3.78-0.24" style="fill:none;stroke:#999;stroke-width:3" />
<path d="M791.52,14.33c1.2,1.2,1.76,2.67,1.76,4.77c0,14.56-0.01,61.69-0.01,66.65c0,14.25-6.32,3.53-7.77,2" style="fill:none;stroke:#999;stroke-width:3" />
<path d="M774.75,69.27c2,0.86,2.99,0.94,5.72-0.94c1.61-1.11,12.2-9.02,19.03-14.33" style="fill:none;stroke:#999;stroke-width:3" />
<path d="M805.09,19.24c2.18,0.5,4.32,0.49,6.42-0.05c3.38-0.67,7.57-1.93,9.86-2.43c2.4-0.53,4.65,0.36,4.65,2.97c0,2.46-0.02,17.89-0.02,28.4c0,8.12-5.93,0.93-6.61,0.28" style="fill:none;stroke:#999;stroke-width:3" />
<path d="M806.78,25.77c3.18,1.02,7.96,4.46,8.75,6.06" style="fill:none;stroke:#999;stroke-width:3" />
<path d="M804.75,44.5c1.25,1.09,3.28,0.06,4.53-0.88c0.73-0.55,5.64-3.95,8.76-6.6" style="fill:none;stroke:#999;stroke-width:3" />
<path d="M833.77,17.83c2.1,0.47,4.17,0.48,6.23,0.05c3.67-0.63,9.17-1.73,11.76-2.2c2.82-0.5,4.75-0.25,4.75,3.22c0,2.61-0.02,21.19-0.02,31.69c0,7.9-5.93,0.93-6.61,0.28" style="fill:none;stroke:#999;stroke-width:3" />
<path d="M835.1800000000001,25.81c2.93,1.31,7.33,4.02,8.06,6.06" style="fill:none;stroke:black;stroke-width:3" />
<circle cx="835.1800000000001" cy="25.81" r="5" stroke-width="0" fill="#FF2A00" opacity="0.7" />
<path d="M884.25,40.5c2.29,0.27,4.27,0.4,6.63,0.07c4.56-0.62,10.74-1.57,17.25-2.75c1.25-0.23,2.51-0.27,3.78-0.24" style="fill:none;stroke:#999;stroke-width:3" />
<path d="M900.52,14.33c1.2,1.2,1.76,2.67,1.76,4.77c0,14.56-0.01,61.69-0.01,66.65c0,14.25-6.32,3.53-7.77,2" style="fill:none;stroke:#999;stroke-width:3" />
<path d="M883.75,69.27c2,0.86,2.99,0.94,5.72-0.94c1.61-1.11,12.2-9.02,19.03-14.33" style="fill:none;stroke:#999;stroke-width:3" />
<path d="M914.09,19.24c2.18,0.5,4.32,0.49,6.42-0.05c3.38-0.67,7.57-1.93,9.86-2.43c2.4-0.53,4.65,0.36,4.65,2.97c0,2.46-0.02,17.89-0.02,28.4c0,8.12-5.93,0.93-6.61,0.28" style="fill:none;stroke:#999;stroke-width:3" />
<path d="M915.78,25.77c3.18,1.02,7.96,4.46,8.75,6.06" style="fill:none;stroke:#999;stroke-width:3" />
<path d="M913.75,44.5c1.25,1.09,3.28,0.06,4.53-0.88c0.73-0.55,5.64-3.95,8.76-6.6" style="fill:none;stroke:#999;stroke-width:3" />
<path d="M942.77,17.83c2.1,0.47,4.17,0.48,6.23,0.05c3.67-0.63,9.17-1.73,11.76-2.2c2.82-0.5,4.75-0.25,4.75,3.22c0,2.61-0.02,21.19-0.02,31.69c0,7.9-5.93,0.93-6.61,0.28" style="fill:none;stroke:#999;stroke-width:3" />
<path d="M944.1800000000001,25.81c2.93,1.31,7.33,4.02,8.06,6.06" style="fill:none;stroke:#999;stroke-width:3" />
<path d="M943.5,45.62c1.5,0.63,2.36,0.84,3.64-0.26c0.76-0.65,6.29-5.14,8.86-8.08" style="fill:none;stroke:black;stroke-width:3" />
<circle cx="943.5" cy="45.62" r="5" stroke-width="0" fill="#FF2A00" opacity="0.7" />
<path d="M993.25,40.5c2.29,0.27,4.27,0.4,6.63,0.07c4.56-0.62,10.74-1.57,17.25-2.75c1.25-0.23,2.51-0.27,3.78-0.24" style="fill:none;stroke:#999;stroke-width:3" />
<path d="M1009.52,14.33c1.2,1.2,1.76,2.67,1.76,4.77c0,14.56-0.01,61.69-0.01,66.65c0,14.25-6.32,3.53-7.77,2" style="fill:none;stroke:#999;stroke-width:3" />
<path d="M992.75,69.27c2,0.86,2.99,0.94,5.72-0.94c1.61-1.11,12.2-9.02,19.03-14.33" style="fill:none;stroke:#999;stroke-width:3" />
<path d="M1023.09,19.24c2.18,0.5,4.32,0.49,6.42-0.05c3.38-0.67,7.57-1.93,9.86-2.43c2.4-0.53,4.65,0.36,4.65,2.97c0,2.46-0.02,17.89-0.02,28.4c0,8.12-5.93,0.93-6.61,0.28" style="fill:none;stroke:#999;stroke-width:3" />
<path d="M1024.78,25.77c3.18,1.02,7.96,4.46,8.75,6.06" style="fill:none;stroke:#999;stroke-width:3" />
<path d="M1022.75,44.5c1.25,1.09,3.28,0.06,4.53-0.88c0.73-0.55,5.64-3.95,8.76-6.6" style="fill:none;stroke:#999;stroke-width:3" />
<path d="M1051.77,17.83c2.1,0.47,4.17,0.48,6.23,0.05c3.67-0.63,9.17-1.73,11.76-2.2c2.82-0.5,4.75-0.25,4.75,3.22c0,2.61-0.02,21.19-0.02,31.69c0,7.9-5.93,0.93-6.61,0.28" style="fill:none;stroke:#999;stroke-width:3" />
<path d="M1053.18,25.81c2.93,1.31,7.33,4.02,8.06,6.06" style="fill:none;stroke:#999;stroke-width:3" />
<path d="M1052.5,45.62c1.5,0.63,2.36,0.84,3.64-0.26c0.76-0.65,6.29-5.14,8.86-8.08" style="fill:none;stroke:#999;stroke-width:3" />
<path d="M1049.6,53.96c0,1.29-0.5,2.23-1.04,3.07c-1.68,2.34-2.31,3.09-7.36,7.26" style="fill:none;stroke:black;stroke-width:3" />
<circle cx="1049.6" cy="53.96" r="5" stroke-width="0" fill="#FF2A00" opacity="0.7" />
<path d="M1102.25,40.5c2.29,0.27,4.27,0.4,6.63,0.07c4.56-0.62,10.74-1.57,17.25-2.75c1.25-0.23,2.51-0.27,3.78-0.24" style="fill:none;stroke:#999;stroke-width:3" />
<path d="M1118.52,14.33c1.2,1.2,1.76,2.67,1.76,4.77c0,14.56-0.01,61.69-0.01,66.65c0,14.25-6.32,3.53-7.77,2" style="fill:none;stroke:#999;stroke-width:3" />
<path d="M1101.75,69.27c2,0.86,2.99,0.94,5.72-0.94c1.61-1.11,12.2-9.02,19.03-14.33" style="fill:none;stroke:#999;stroke-width:3" />
<path d="M1132.0900000000001,19.24c2.18,0.5,4.32,0.49,6.42-0.05c3.38-0.67,7.57-1.93,9.86-2.43c2.4-0.53,4.65,0.36,4.65,2.97c0,2.46-0.02,17.89-0.02,28.4c0,8.12-5.93,0.93-6.61,0.28" style="fill:none;stroke:#999;stroke-width:3" />
<path d="M1133.78,25.77c3.18,1.02,7.96,4.46,8.75,6.06" style="fill:none;stroke:#999;stroke-width:3" />
<path d="M1131.75,44.5c1.25,1.09,3.28,0.06,4.53-0.88c0.73-0.55,5.64-3.95,8.76-6.6" style="fill:none;stroke:#999;stroke-width:3" />
<path d="M1160.77,17.83c2.1,0.47,4.17,0.48,6.23,0.05c3.67-0.63,9.17-1.73,11.76-2.2c2.82-0.5,4.75-0.25,4.75,3.22c0,2.61-0.02,21.19-0.02,31.69c0,7.9-5.93,0.93-6.61,0.28" style="fill:none;stroke:#999;stroke-width:3" />
<path d="M1162.18,25.81c2.93,1.31,7.33,4.02,8.06,6.06" style="fill:none;stroke:#999;stroke-width:3" />
<path d="M1161.5,45.62c1.5,0.63,2.36,0.84,3.64-0.26c0.76-0.65,6.29-5.14,8.86-8.08" style="fill:none;stroke:#999;stroke-width:3" />
<path d="M1158.6,53.96c0,1.29-0.5,2.23-1.04,3.07c-1.68,2.34-2.31,3.09-7.36,7.26" style="fill:none;stroke:#999;stroke-width:3" />
<path d="M1140.54,67.15c0.9,1.05,1.33,2.25,1.31,3.61c0.59,4.74,1.53,12.36,2.22,18.36c0.23,2.04,0.44,3.9,0.59,5.39" style="fill:none;stroke:black;stroke-width:3" />
<circle cx="1140.54" cy="67.15" r="5" stroke-width="0" fill="#FF2A00" opacity="0.7" />
<path d="M1211.25,40.5c2.29,0.27,4.27,0.4,6.63,0.07c4.56-0.62,10.74-1.57,17.25-2.75c1.25-0.23,2.51-0.27,3.78-0.24" style="fill:none;stroke:#999;stroke-width:3" />
<path d="M1227.52,14.33c1.2,1.2,1.76,2.67,1.76,4.77c0,14.56-0.01,61.69-0.01,66.65c0,14.25-6.32,3.53-7.77,2" style="fill:none;stroke:#999;stroke-width:3" />
<path d="M1210.75,69.27c2,0.86,2.99,0.94,5.72-0.94c1.61-1.11,12.2-9.02,19.03-14.33" style="fill:none;stroke:#999;stroke-width:3" />
<path d="M1241.0900000000001,19.24c2.18,0.5,4.32,0.49,6.42-0.05c3.38-0.67,7.57-1.93,9.86-2.43c2.4-0.53,4.65,0.36,4.65,2.97c0,2.46-0.02,17.89-0.02,28.4c0,8.12-5.93,0.93-6.61,0.28" style="fill:none;stroke:#999;stroke-width:3" />
<path d="M1242.78,25.77c3.18,1.02,7.96,4.46,8.75,6.06" style="fill:none;stroke:#999;stroke-width:3" />
<path d="M1240.75,44.5c1.25,1.09,3.28,0.06,4.53-0.88c0.73-0.55,5.64-3.95,8.76-6.6" style="fill:none;stroke:#999;stroke-width:3" />
<path d="M1269.77,17.83c2.1,0.47,4.17,0.48,6.23,0.05c3.67-0.63,9.17-1.73,11.76-2.2c2.82-0.5,4.75-0.25,4.75,3.22c0,2.61-0.02,21.19-0.02,31.69c0,7.9-5.93,0.93-6.61,0.28" style="fill:none;stroke:#999;stroke-width:3" />
<path d="M1271.18,25.81c2.93,1.31,7.33,4.02,8.06,6.06" style="fill:none;stroke:#999;stroke-width:3" />
<path d="M1270.5,45.62c1.5,0.63,2.36,0.84,3.64-0.26c0.76-0.65,6.29-5.14,8.86-8.08" style="fill:none;stroke:#999;stroke-width:3" />
<path d="M1267.6,53.96c0,1.29-0.5,2.23-1.04,3.07c-1.68,2.34-2.31,3.09-7.36,7.26" style="fill:none;stroke:#999;stroke-width:3" />
<path d="M1249.54,67.15c0.9,1.05,1.33,2.25,1.31,3.61c0.59,4.74,1.53,12.36,2.22,18.36c0.23,2.04,0.44,3.9,0.59,5.39" style="fill:none;stroke:#999;stroke-width:3" />
<path d="M1251.23,68.06c6.96-1.18,24.82-3.68,30.78-4.27c4.3-0.43,4.71,2.06,4.19,5.45c-0.76,5.06-1.69,11.01-2.75,18.87c-0.22,1.63-0.45,3.35-0.68,5.15" style="fill:none;stroke:black;stroke-width:3" />
<circle cx="1251.23" cy="68.06" r="5" stroke-width="0" fill="#FF2A00" opacity="0.7" />
<path d="M1320.25,40.5c2.29,0.27,4.27,0.4,6.63,0.07c4.56-0.62,10.74-1.57,17.25-2.75c1.25-0.23,2.51-0.27,3.78-0.24" style="fill:none;stroke:#999;stroke-width:3" />
<path d="M1336.52,14.33c1.2,1.2,1.76,2.67,1.76,4.77c0,14.56-0.01,61.69-0.01,66.65c0,14.25-6.32,3.53-7.77,2" style="fill:none;stroke:#999;stroke-width:3" />
<path d="M1319.75,69.27c2,0.86,2.99,0.94,5.72-0.94c1.61-1.11,12.2-9.02,19.03-14.33" style="fill:none;stroke:#999;stroke-width:3" />
<path d="M1350.0900000000001,19.24c2.18,0.5,4.32,0.49,6.42-0.05c3.38-0.67,7.57-1.93,9.86-2.43c2.4-0.53,4.65,0.36,4.65,2.97c0,2.46-0.02,17.89-0.02,28.4c0,8.12-5.93,0.93-6.61,0.28" style="fill:none;stroke:#999;stroke-width:3" />
<path d="M1351.78,25.77c3.18,1.02,7.96,4.46,8.75,6.06" style="fill:none;stroke:#999;stroke-width:3" />
<path d="M1349.75,44.5c1.25,1.09,3.28,0.06,4.53-0.88c0.73-0.55,5.64-3.95,8.76-6.6" style="fill:none;stroke:#999;stroke-width:3" />
<path d="M1378.77,17.83c2.1,0.47,4.17,0.48,6.23,0.05c3.67-0.63,9.17-1.73,11.76-2.2c2.82-0.5,4.75-0.25,4.75,3.22c0,2.61-0.02,21.19-0.02,31.69c0,7.9-5.93,0.93-6.61,0.28" style="fill:none;stroke:#999;stroke-width:3" />
<path d="M1380.18,25.81c2.93,1.31,7.33,4.02,8.06,6.06" style="fill:none;stroke:#999;stroke-width:3" />
<path d="M1379.5,45.62c1.5,0.63,2.36,0.84,3.64-0.26c0.76-0.65,6.29-5.14,8.86-8.08" style="fill:none;stroke:#999;stroke-width:3" />
<path d="M1376.6,53.96c0,1.29-0.5,2.23-1.04,3.07c-1.68,2.34-2.31,3.09-7.36,7.26" style="fill:none;stroke:#999;stroke-width:3" />
<path d="M1358.54,67.15c0.9,1.05,1.33,2.25,1.31,3.61c0.59,4.74,1.53,12.36,2.22,18.36c0.23,2.04,0.44,3.9,0.59,5.39" style="fill:none;stroke:#999;stroke-width:3" />
<path d="M1360.23,68.06c6.96-1.18,24.82-3.68,30.78-4.27c4.3-0.43,4.71,2.06,4.19,5.45c-0.76,5.06-1.69,11.01-2.75,18.87c-0.22,1.63-0.45,3.35-0.68,5.15" style="fill:none;stroke:#999;stroke-width:3" />
<path d="M1362.04,79.58c6.51-0.94,24.48-2.62,31.16-2.95" style="fill:none;stroke:black;stroke-width:3" />
<circle cx="1362.04" cy="79.58" r="5" stroke-width="0" fill="#FF2A00" opacity="0.7" />
<path d="M1429.25,40.5c2.29,0.27,4.27,0.4,6.63,0.07c4.56-0.62,10.74-1.57,17.25-2.75c1.25-0.23,2.51-0.27,3.78-0.24" style="fill:none;stroke:#999;stroke-width:3" />
<path d="M1445.52,14.33c1.2,1.2,1.76,2.67,1.76,4.77c0,14.56-0.01,61.69-0.01,66.65c0,14.25-6.32,3.53-7.77,2" style="fill:none;stroke:#999;stroke-width:3" />
<path d="M1428.75,69.27c2,0.86,2.99,0.94,5.72-0.94c1.61-1.11,12.2-9.02,19.03-14.33" style="fill:none;stroke:#999;stroke-width:3" />
<path d="M1459.0900000000001,19.24c2.18,0.5,4.32,0.49,6.42-0.05c3.38-0.67,7.57-1.93,9.86-2.43c2.4-0.53,4.65,0.36,4.65,2.97c0,2.46-0.02,17.89-0.02,28.4c0,8.12-5.93,0.93-6.61,0.28" style="fill:none;stroke:#999;stroke-width:3" />
<path d="M1460.78,25.77c3.18,1.02,7.96,4.46,8.75,6.06" style="fill:none;stroke:#999;stroke-width:3" />
<path d="M1458.75,44.5c1.25,1.09,3.28,0.06,4.53-0.88c0.73-0.55,5.64-3.95,8.76-6.6" style="fill:none;stroke:#999;stroke-width:3" />
<path d="M1487.77,17.83c2.1,0.47,4.17,0.48,6.23,0.05c3.67-0.63,9.17-1.73,11.76-2.2c2.82-0.5,4.75-0.25,4.75,3.22c0,2.61-0.02,21.19-0.02,31.69c0,7.9-5.93,0.93-6.61,0.28" style="fill:none;stroke:#999;stroke-width:3" />
<path d="M1489.18,25.81c2.93,1.31,7.33,4.02,8.06,6.06" style="fill:none;stroke:#999;stroke-width:3" />
<path d="M1488.5,45.62c1.5,0.63,2.36,0.84,3.64-0.26c0.76-0.65,6.29-5.14,8.86-8.08" style="fill:none;stroke:#999;stroke-width:3" />
<path d="M1485.6,53.96c0,1.29-0.5,2.23-1.04,3.07c-1.68,2.34-2.31,3.09-7.36,7.26" style="fill:none;stroke:#999;stroke-width:3" />
<path d="M1467.54,67.15c0.9,1.05,1.33,2.25,1.31,3.61c0.59,4.74,1.53,12.36,2.22,18.36c0.23,2.04,0.44,3.9,0.59,5.39" style="fill:none;stroke:#999;stroke-width:3" />
<path d="M1469.23,68.06c6.96-1.18,24.82-3.68,30.78-4.27c4.3-0.43,4.71,2.06,4.19,5.45c-0.76,5.06-1.69,11.01-2.75,18.87c-0.22,1.63-0.45,3.35-0.68,5.15" style="fill:none;stroke:#999;stroke-width:3" />
<path d="M1471.04,79.58c6.51-0.94,24.48-2.62,31.16-2.95" style="fill:none;stroke:#999;stroke-width:3" />
<path d="M1472.32,92.48c9.18-0.73,17.55-1.6,27.3-2" style="fill:none;stroke:black;stroke-width:3" />
<circle cx="1472.32" cy="92.48" r="5" stroke-width="0" fill="#FF2A00" opacity="0.7" />
</svg>