<svg width="1635px" height="109px" viewBox="0 0 1635px 109px" xmlns="http://www.w3.org/2000/svg" xmlns:xlink="http://www.w3.org/1999/xlink" xml:space="preserve" version="1.1"  baseProfile="full">
<line x1="1" y1="1" x2="1634" y2="1" style="stroke:#ddd;stroke-width:2" />
<line x1="1" y1="1" x2="1" y2="108" style="stroke:#ddd;stroke-width:2" />
<line x1="1" y1="108" x2="1634" y2="108" style="stroke:#ddd;stroke-width:2" />
<line x1="1634" y1="1" x2="1634" y2="108" style="stroke:#ddd;stroke-width:2" />
<line x1="109" y1="1" x2="109" y2="108" style="stroke:#ddd;stroke-width:2" />
<line x1="218" y1="1" x2="218" y2="108" style="stroke:#ddd;stroke-width:2" />
<line x1="327" y1="1" x2="327" y2="108" style="stroke:#ddd;stroke-width:2" />
<line x1="436" y1="1" x2="436" y2="108" style="stroke:#ddd;stroke-width:2" />
<line x1="545" y1="1" x2="545" y2="108" style="stroke:#ddd;stroke-width:2" />
<line x1="654" y1="1" x2="654" y2="108" style="stroke:#ddd;stroke-width:2" />
<line x1="763" y1="1" x2="763" y2="108" style="stroke:#ddd;stroke-width:2" />
<line x1="872" y1="1" x2="872" y2="108" style="stroke:#ddd;stroke-width:2" />
<line x1="981" y1="1" x2="981" y2="108" style="stroke:#ddd;stroke-width:2" />
<line x1="1090" y1="1" x2="1090" y2="108" style="stroke:#ddd;stroke-width:2" />
<line x1="1199" y1="1" x2="1199" y2="108" style="stroke:#ddd;stroke-width:2" />
<line x1="1308" y1="1" x2="1308" y2="108" style="stroke:#ddd;stroke-width:2" />
<line x1="1417" y1="1" x2="1417" y2="108" style="stroke:#ddd;stroke-width:2" />
<line x1="1526" y1="1" x2="1526" y2="108" style="stroke:#ddd;stroke-width:2" />
<line x1="1" y1="54" x2="1634" y2="54" style="stroke:#ddd;stroke-width:2;stroke-dasharray:3 3" />
<line x1="55" y1="1" x2="55" y2="108" style="stroke:#ddd;stroke-width:2;stroke-dasharray:3 3" />
<line x1="164" y1="1" x2="164" y2="108" style="stroke:#ddd;stroke-width:2;stroke-dasharray:3 3" />
<line x1="273" y1="1" x2="273" y2="108" style="stroke:#ddd;stroke-width:2;stroke-dasharray:3 3" />
<line x1="382" y1="1" x2="382" y2="108" style="stroke:#ddd;stroke-width:2;stroke-dasharray:3 3" />
<line x1="491" y1="1" x2="491" y2="108" style="stroke:#ddd;stroke-width:2;stroke-dasharray:3 3" />
<line x1="600" y1="1" x2="600" y2="108" style="stroke:#ddd;stroke-width:2;stroke-dasharray:3 3" />
<line x1="709" y1="1" x2="709" y2="108" style="stroke:#ddd;stroke-width:2;stroke-dasharray:3 3" />
<line x1="818" y1="1" x2="818" y2="108" style="stroke:#ddd;stroke-width:2;stroke-dasharray:3 3" />
<line x1="927" y1="1" x2="927" y2="108" style="stroke:#ddd;stroke-width:2;stroke-dasharray:3 3" />
<line x1="1036" y1="1" x2="1036" y2="108" style="stroke:#ddd;stroke-width:2;stroke-dasharray:3 3" />
<line x1="1145" y1="1" x2="1145" y2="108" style="stroke:#ddd;stroke-width:2;stroke-dasharray:3 3" />
<line x1="1254" y1="1" x2="1254" y2="108" style="stroke:#ddd;stroke-width:2;stroke-dasharray:3 3" />
<line x1="1363" y1="1" x2="1363" y2="108" style="stroke:#ddd;stroke-width:2;stroke-dasharray:3 3" />
<line x1="1472" y1="1" x2="1472" y2="108" style="stroke:#ddd;stroke-width:2;stroke-dasharray:3 3" />
<line x1="1581" y1="1" x2="1581" y2="108" style="stroke:#ddd;stroke-width:2;stroke-dasharray:3 3" />
<path d="M14.75,37.25c2.07,0.25,3.53,0.25,5.63-0.05c4.32-0.62,9.65-1.72,15.88-2.57c1.34-0.18,2.86-0.3,4.15-0.3" style="fill:none;stroke:black;stroke-width:3" />
<circle cx="14.75" cy="37.25" r="5" stroke-width="0" fill="#FF2A00" opacity="0.7" />
<path d="M123.75,37.25c2.07,0.25,3.53,0.25,5.63-0.05c4.32-0.62,9.65-1.72,15.88-2.57c1.34-0.18,2.86-0.3,4.15-0.3" style="fill:none;stroke:#999;stroke-width:3" />
<path d="M138.77,14.08c1.08,1.08,1.51,2.67,1.51,4.77c0,14.56-0.01,62.94-0.01,67.9c0,14.25-6.32,3.53-7.77,2" style="fill:none;stroke:black;stroke-width:3" />
<circle cx="138.77" cy="14.08" r="5" stroke-width="0" fill="#FF2A00" opacity="0.7" />
<path d="M232.75,37.25c2.07,0.25,3.53,0.25,5.63-0.05c4.32-0.62,9.65-1.72,15.88-2.57c1.34-0.18,2.86-0.3,4.15-0.3" style="fill:none;stroke:#999;stroke-width:3" />
<path d="M247.77,14.08c1.08,1.08,1.51,2.67,1.51,4.77c0,14.56-0.01,62.94-0.01,67.9c0,14.25-6.32,3.53-7.77,2" style="fill:none;stroke:#999;stroke-width:3" />
<path d="M231.5,66.52c1.38,0.86,2.71,0.8,4.54-0.44C239.5,63.75,247.62,58.12,256.25,52" style="fill:none;stroke:black;stroke-width:3" />
<circle cx="231.5" cy="66.52" r="5" stroke-width="0" fill="#FF2A00" opacity="0.7" />
<path d="M341.75,37.25c2.07,0.25,3.53,0.25,5.63-0.05c4.32-0.62,9.65-1.72,15.88-2.57c1.34-0.18,2.86-0.3,4.15-0.3" style="fill:none;stroke:#999;stroke-width:3" />
<path d="M356.77,14.08c1.08,1.08,1.51,2.67,1.51,4.77c0,14.56-0.01,62.94-0.01,67.9c0,14.25-6.32,3.53-7.77,2" style="fill:none;stroke:#999;stroke-width:3" />
<path d="M340.5,66.52c1.38,0.86,2.71,0.8,4.54-0.44C348.5,63.75,356.62,58.12,365.25,52" style="fill:none;stroke:#999;stroke-width:3" />
<path d="M370.76,19.03c1.58,0.39,3.14,0.31,4.73,0.03c3.48-0.62,9.27-1.42,12.01-1.77c1.74-0.22,3.17,0.3,2.66,2.35c-0.42,1.71-1.31,5.39-1.84,7.89" style="fill:none;stroke:black;stroke-width:3" />
<circle cx="370.76" cy="19.03" r="5" stroke-width="0" fill="#FF2A00" opacity="0.7" />
<path d="M450.75,37.25c2.07,0.25,3.53,0.25,5.63-0.05c4.32-0.62,9.65-1.72,15.88-2.57c1.34-0.18,2.86-0.3,4.15-0.3" style="fill:none;stroke:#999;stroke-width:3" />
<path d="M465.77,14.08c1.08,1.08,1.51,2.67,1.51,4.77c0,14.56-0.01,62.94-0.01,67.9c0,14.25-6.32,3.53-7.77,2" style="fill:none;stroke:#999;stroke-width:3" />
<path d="M449.5,66.52c1.38,0.86,2.71,0.8,4.54-0.44C457.5,63.75,465.62,58.12,474.25,52" style="fill:none;stroke:#999;stroke-width:3" />
<path d="M479.76,19.03c1.58,0.39,3.14,0.31,4.73,0.03c3.48-0.62,9.27-1.42,12.01-1.77c1.74-0.22,3.17,0.3,2.66,2.35c-0.42,1.71-1.31,5.39-1.84,7.89" style="fill:none;stroke:#999;stroke-width:3" />
<path d="M483.08,29.89c1.4-0.12,6.59-0.91,11.93-1.36c1.47-0.12,2.92-0.22,4.24-0.28" style="fill:none;stroke:black;stroke-width:3" />
<circle cx="483.08" cy="29.89" r="5" stroke-width="0" fill="#FF2A00" opacity="0.7" />
<path d="M559.75,37.25c2.07,0.25,3.53,0.25,5.63-0.05c4.32-0.62,9.65-1.72,15.88-2.57c1.34-0.18,2.86-0.3,4.15-0.3" style="fill:none;stroke:#999;stroke-width:3" />
<path d="M574.77,14.08c1.08,1.08,1.51,2.67,1.51,4.77c0,14.56-0.01,62.94-0.01,67.9c0,14.25-6.32,3.53-7.77,2" style="fill:none;stroke:#999;stroke-width:3" />
<path d="M558.5,66.52c1.38,0.86,2.71,0.8,4.54-0.44C566.5,63.75,574.62,58.12,583.25,52" style="fill:none;stroke:#999;stroke-width:3" />
<path d="M588.76,19.03c1.58,0.39,3.14,0.31,4.73,0.03c3.48-0.62,9.27-1.42,12.01-1.77c1.74-0.22,3.17,0.3,2.66,2.35c-0.42,1.71-1.31,5.39-1.84,7.89" style="fill:none;stroke:#999;stroke-width:3" />
<path d="M592.0799999999999,29.89c1.4-0.12,6.59-0.91,11.93-1.36c1.47-0.12,2.92-0.22,4.24-0.28" style="fill:none;stroke:#999;stroke-width:3" />
<path d="M590.31,27.91c0.64,0.64,0.88,1.46,0.88,2.73c0,1.99-0.06,2.94-0.06,4.35c0,5.66,1.29,6.48,9.06,6.48c8.82,0,10.11-0.73,10.11-3.87" style="fill:none;stroke:black;stroke-width:3" />
<circle cx="590.31" cy="27.91" r="5" stroke-width="0" fill="#FF2A00" opacity="0.7" />
<path d="M668.75,37.25c2.07,0.25,3.53,0.25,5.63-0.05c4.32-0.62,9.65-1.72,15.88-2.57c1.34-0.18,2.86-0.3,4.15-0.3" style="fill:none;stroke:#999;stroke-width:3" />
<path d="M683.77,14.08c1.08,1.08,1.51,2.67,1.51,4.77c0,14.56-0.01,62.94-0.01,67.9c0,14.25-6.32,3.53-7.77,2" style="fill:none;stroke:#999;stroke-width:3" />
<path d="M667.5,66.52c1.38,0.86,2.71,0.8,4.54-0.44C675.5,63.75,683.62,58.12,692.25,52" style="fill:none;stroke:#999;stroke-width:3" />
<path d="M697.76,19.03c1.58,0.39,3.14,0.31,4.73,0.03c3.48-0.62,9.27-1.42,12.01-1.77c1.74-0.22,3.17,0.3,2.66,2.35c-0.42,1.71-1.31,5.39-1.84,7.89" style="fill:none;stroke:#999;stroke-width:3" />
<path d="M701.0799999999999,29.89c1.4-0.12,6.59-0.91,11.93-1.36c1.47-0.12,2.92-0.22,4.24-0.28" style="fill:none;stroke:#999;stroke-width:3" />
<path d="M699.31,27.91c0.64,0.64,0.88,1.46,0.88,2.73c0,1.99-0.06,2.94-0.06,4.35c0,5.66,1.29,6.48,9.06,6.48c8.82,0,10.11-0.73,10.11-3.87" style="fill:none;stroke:#999;stroke-width:3" />
<path d="M725.84,16.47c1.39,0.36,2.78,0.4,4.17,0.1c2.91-0.38,8.62-1.36,11.49-1.72c1.73-0.21,3.31,0.08,2.9,2.25c-0.34,1.84-1.11,6.46-1.66,9.04" style="fill:none;stroke:black;stroke-width:3" />
<circle cx="725.84" cy="16.47" r="5" stroke-width="0" fill="#FF2A00" opacity="0.7" />
<path d="M777.75,37.25c2.07,0.25,3.53,0.25,5.63-0.05c4.32-0.62,9.65-1.72,15.88-2.57c1.34-0.18,2.86-0.3,4.15-0.3" style="fill:none;stroke:#999;stroke-width:3" />
<path d="M792.77,14.08c1.08,1.08,1.51,2.67,1.51,4.77c0,14.56-0.01,62.94-0.01,67.9c0,14.25-6.32,3.53-7.77,2" style="fill:none;stroke:#999;stroke-width:3" />
<path d="M776.5,66.52c1.38,0.86,2.71,0.8,4.54-0.44C784.5,63.75,792.62,58.12,801.25,52" style="fill:none;stroke:#999;stroke-width:3" />
<path d="M806.76,19.03c1.58,0.39,3.14,0.31,4.73,0.03c3.48-0.62,9.27-1.42,12.01-1.77c1.74-0.22,3.17,0.3,2.66,2.35c-0.42,1.71-1.31,5.39-1.84,7.89" style="fill:none;stroke:#999;stroke-width:3" />
<path d="M810.0799999999999,29.89c1.4-0.12,6.59-0.91,11.93-1.36c1.47-0.12,2.92-0.22,4.24-0.28" style="fill:none;stroke:#999;stroke-width:3" />
<path d="M808.31,27.91c0.64,0.64,0.88,1.46,0.88,2.73c0,1.99-0.06,2.94-0.06,4.35c0,5.66,1.29,6.48,9.06,6.48c8.82,0,10.11-0.73,10.11-3.87" style="fill:none;stroke:#999;stroke-width:3" />
<path d="M834.84,16.47c1.39,0.36,2.78,0.4,4.17,0.1c2.91-0.38,8.62-1.36,11.49-1.72c1.73-0.21,3.31,0.08,2.9,2.25c-0.34,1.84-1.11,6.46-1.66,9.04" style="fill:none;stroke:#999;stroke-width:3" />
<path d="M837.75,28.25c1.4-0.12,6.87-0.56,11.75-1c1.35-0.12,2.64-0.22,3.75-0.28" style="fill:none;stroke:black;stroke-width:3" />
<circle cx="837.75" cy="28.25" r="5" stroke-width="0" fill="#FF2A00" opacity="0.7" />
<path d="M886.75,37.25c2.07,0.25,3.53,0.25,5.63-0.05c4.32-0.62,9.65-1.72,15.88-2.57c1.34-0.18,2.86-0.3,4.15-0.3" style="fill:none;stroke:#999;stroke-width:3" />
<path d="M901.77,14.08c1.08,1.08,1.51,2.67,1.51,4.77c0,14.56-0.01,62.94-0.01,67.9c0,14.25-6.32,3.53-7.77,2" style="fill:none;stroke:#999;stroke-width:3" />
<path d="M885.5,66.52c1.38,0.86,2.71,0.8,4.54-0.44C893.5,63.75,901.62,58.12,910.25,52" style="fill:none;stroke:#999;stroke-width:3" />
<path d="M915.76,19.03c1.58,0.39,3.14,0.31,4.73,0.03c3.48-0.62,9.27-1.42,12.01-1.77c1.74-0.22,3.17,0.3,2.66,2.35c-0.42,1.71-1.31,5.39-1.84,7.89" style="fill:none;stroke:#999;stroke-width:3" />
<path d="M919.0799999999999,29.89c1.4-0.12,6.59-0.91,11.93-1.36c1.47-0.12,2.92-0.22,4.24-0.28" style="fill:none;stroke:#999;stroke-width:3" />
<path d="M917.31,27.91c0.64,0.64,0.88,1.46,0.88,2.73c0,1.99-0.06,2.94-0.06,4.35c0,5.66,1.29,6.48,9.06,6.48c8.82,0,10.11-0.73,10.11-3.87" style="fill:none;stroke:#999;stroke-width:3" />
<path d="M943.84,16.47c1.39,0.36,2.78,0.4,4.17,0.1c2.91-0.38,8.62-1.36,11.49-1.72c1.73-0.21,3.31,0.08,2.9,2.25c-0.34,1.84-1.11,6.46-1.66,9.04" style="fill:none;stroke:#999;stroke-width:3" />
<path d="M946.75,28.25c1.4-0.12,6.87-0.56,11.75-1c1.35-0.12,2.64-0.22,3.75-0.28" style="fill:none;stroke:#999;stroke-width:3" />
<path d="M945.23,27.3c0.68,0.68,0.66,1.7,0.66,2.77c0,2.54-0.01,3.34-0.01,5.06c0,4.92,1.21,5.63,9.67,5.63c7.2,0,9-0.25,9-3.94" style="fill:none;stroke:black;stroke-width:3" />
<circle cx="945.23" cy="27.3" r="5" stroke-width="0" fill="#FF2A00" opacity="0.7" />
<path d="M995.75,37.25c2.07,0.25,3.53,0.25,5.63-0.05c4.32-0.62,9.65-1.72,15.88-2.57c1.34-0.18,2.86-0.3,4.15-0.3" style="fill:none;stroke:#999;stroke-width:3" />
<path d="M1010.77,14.08c1.08,1.08,1.51,2.67,1.51,4.77c0,14.56-0.01,62.94-0.01,67.9c0,14.25-6.32,3.53-7.77,2" style="fill:none;stroke:#999;stroke-width:3" />
<path d="M994.5,66.52c1.38,0.86,2.71,0.8,4.54-0.44C1002.5,63.75,1010.62,58.12,1019.25,52" style="fill:none;stroke:#999;stroke-width:3" />
<path d="M1024.76,19.03c1.58,0.39,3.14,0.31,4.73,0.03c3.48-0.62,9.27-1.42,12.01-1.77c1.74-0.22,3.17,0.3,2.66,2.35c-0.42,1.71-1.31,5.39-1.84,7.89" style="fill:none;stroke:#999;stroke-width:3" />
<path d="M1028.08,29.89c1.4-0.12,6.59-0.91,11.93-1.36c1.47-0.12,2.92-0.22,4.24-0.28" style="fill:none;stroke:#999;stroke-width:3" />
<path d="M1026.31,27.91c0.64,0.64,0.88,1.46,0.88,2.73c0,1.99-0.06,2.94-0.06,4.35c0,5.66,1.29,6.48,9.06,6.48c8.82,0,10.11-0.73,10.11-3.87" style="fill:none;stroke:#999;stroke-width:3" />
<path d="M1052.8400000000001,16.47c1.39,0.36,2.78,0.4,4.17,0.1c2.91-0.38,8.62-1.36,11.49-1.72c1.73-0.21,3.31,0.08,2.9,2.25c-0.34,1.84-1.11,6.46-1.66,9.04" style="fill:none;stroke:#999;stroke-width:3" />
<path d="M1055.75,28.25c1.4-0.12,6.87-0.56,11.75-1c1.35-0.12,2.64-0.22,3.75-0.28" style="fill:none;stroke:#999;stroke-width:3" />
<path d="M1054.23,27.3c0.68,0.68,0.66,1.7,0.66,2.77c0,2.54-0.01,3.34-0.01,5.06c0,4.92,1.21,5.63,9.67,5.63c7.2,0,9-0.25,9-3.94" style="fill:none;stroke:#999;stroke-width:3" />
<path d="M1026.48,58.59c3.03,0.67,6.01,0.17,9.15-0.08c8.12-0.64,20.75-1.89,29.12-2.28c2.6-0.12,5.13-0.23,7.66,0.32" style="fill:none;stroke:black;stroke-width:3" />
<circle cx="1026.48" cy="58.59" r="5" stroke-width="0" fill="#FF2A00" opacity="0.7" />
<path d="M1104.75,37.25c2.07,0.25,3.53,0.25,5.63-0.05c4.32-0.62,9.65-1.72,15.88-2.57c1.34-0.18,2.86-0.3,4.15-0.3" style="fill:none;stroke:#999;stroke-width:3" />
<path d="M1119.77,14.08c1.08,1.08,1.51,2.67,1.51,4.77c0,14.56-0.01,62.94-0.01,67.9c0,14.25-6.32,3.53-7.77,2" style="fill:none;stroke:#999;stroke-width:3" />
<path d="M1103.5,66.52c1.38,0.86,2.71,0.8,4.54-0.44C1111.5,63.75,1119.62,58.12,1128.25,52" style="fill:none;stroke:#999;stroke-width:3" />
<path d="M1133.76,19.03c1.58,0.39,3.14,0.31,4.73,0.03c3.48-0.62,9.27-1.42,12.01-1.77c1.74-0.22,3.17,0.3,2.66,2.35c-0.42,1.71-1.31,5.39-1.84,7.89" style="fill:none;stroke:#999;stroke-width:3" />
<path d="M1137.08,29.89c1.4-0.12,6.59-0.91,11.93-1.36c1.47-0.12,2.92-0.22,4.24-0.28" style="fill:none;stroke:#999;stroke-width:3" />
<path d="M1135.31,27.91c0.64,0.64,0.88,1.46,0.88,2.73c0,1.99-0.06,2.94-0.06,4.35c0,5.66,1.29,6.48,9.06,6.48c8.82,0,10.11-0.73,10.11-3.87" style="fill:none;stroke:#999;stroke-width:3" />
<path d="M1161.8400000000001,16.47c1.39,0.36,2.78,0.4,4.17,0.1c2.91-0.38,8.62-1.36,11.49-1.72c1.73-0.21,3.31,0.08,2.9,2.25c-0.34,1.84-1.11,6.46-1.66,9.04" style="fill:none;stroke:#999;stroke-width:3" />
<path d="M1164.75,28.25c1.4-0.12,6.87-0.56,11.75-1c1.35-0.12,2.64-0.22,3.75-0.28" style="fill:none;stroke:#999;stroke-width:3" />
<path d="M1163.23,27.3c0.68,0.68,0.66,1.7,0.66,2.77c0,2.54-0.01,3.34-0.01,5.06c0,4.92,1.21,5.63,9.67,5.63c7.2,0,9-0.25,9-3.94" style="fill:none;stroke:#999;stroke-width:3" />
<path d="M1135.48,58.59c3.03,0.67,6.01,0.17,9.15-0.08c8.12-0.64,20.75-1.89,29.12-2.28c2.6-0.12,5.13-0.23,7.66,0.32" style="fill:none;stroke:#999;stroke-width:3" />
<path d="M1146.78,48.37c0.99,0.99,1.3,2.97,1.33,3.71c0.26,6.3,0.46,14.56,0.8,20.54" style="fill:none;stroke:black;stroke-width:3" />
<circle cx="1146.78" cy="48.37" r="5" stroke-width="0" fill="#FF2A00" opacity="0.7" />
<path d="M1213.75,37.25c2.07,0.25,3.53,0.25,5.63-0.05c4.32-0.62,9.65-1.72,15.88-2.57c1.34-0.18,2.86-0.3,4.15-0.3" style="fill:none;stroke:#999;stroke-width:3" />
<path d="M1228.77,14.08c1.08,1.08,1.51,2.67,1.51,4.77c0,14.56-0.01,62.94-0.01,67.9c0,14.25-6.32,3.53-7.77,2" style="fill:none;stroke:#999;stroke-width:3" />
<path d="M1212.5,66.52c1.38,0.86,2.71,0.8,4.54-0.44C1220.5,63.75,1228.62,58.12,1237.25,52" style="fill:none;stroke:#999;stroke-width:3" />
<path d="M1242.76,19.03c1.58,0.39,3.14,0.31,4.73,0.03c3.48-0.62,9.27-1.42,12.01-1.77c1.74-0.22,3.17,0.3,2.66,2.35c-0.42,1.71-1.31,5.39-1.84,7.89" style="fill:none;stroke:#999;stroke-width:3" />
<path d="M1246.08,29.89c1.4-0.12,6.59-0.91,11.93-1.36c1.47-0.12,2.92-0.22,4.24-0.28" style="fill:none;stroke:#999;stroke-width:3" />
<path d="M1244.31,27.91c0.64,0.64,0.88,1.46,0.88,2.73c0,1.99-0.06,2.94-0.06,4.35c0,5.66,1.29,6.48,9.06,6.48c8.82,0,10.11-0.73,10.11-3.87" style="fill:none;stroke:#999;stroke-width:3" />
<path d="M1270.8400000000001,16.47c1.39,0.36,2.78,0.4,4.17,0.1c2.91-0.38,8.62-1.36,11.49-1.72c1.73-0.21,3.31,0.08,2.9,2.25c-0.34,1.84-1.11,6.46-1.66,9.04" style="fill:none;stroke:#999;stroke-width:3" />
<path d="M1273.75,28.25c1.4-0.12,6.87-0.56,11.75-1c1.35-0.12,2.64-0.22,3.75-0.28" style="fill:none;stroke:#999;stroke-width:3" />
<path d="M1272.23,27.3c0.68,0.68,0.66,1.7,0.66,2.77c0,2.54-0.01,3.34-0.01,5.06c0,4.92,1.21,5.63,9.67,5.63c7.2,0,9-0.25,9-3.94" style="fill:none;stroke:#999;stroke-width:3" />
<path d="M1244.48,58.59c3.03,0.67,6.01,0.17,9.15-0.08c8.12-0.64,20.75-1.89,29.12-2.28c2.6-0.12,5.13-0.23,7.66,0.32" style="fill:none;stroke:#999;stroke-width:3" />
<path d="M1255.78,48.37c0.99,0.99,1.3,2.97,1.33,3.71c0.26,6.3,0.46,14.56,0.8,20.54" style="fill:none;stroke:#999;stroke-width:3" />
<path d="M1276.68,46.56c0.45,1.19,0.45,2.07,0.27,3.49c-0.93,7.4-1.5,15.82-2.08,21.15" style="fill:none;stroke:black;stroke-width:3" />
<circle cx="1276.68" cy="46.56" r="5" stroke-width="0" fill="#FF2A00" opacity="0.7" />
<path d="M1322.75,37.25c2.07,0.25,3.53,0.25,5.63-0.05c4.32-0.62,9.65-1.72,15.88-2.57c1.34-0.18,2.86-0.3,4.15-0.3" style="fill:none;stroke:#999;stroke-width:3" />
<path d="M1337.77,14.08c1.08,1.08,1.51,2.67,1.51,4.77c0,14.56-0.01,62.94-0.01,67.9c0,14.25-6.32,3.53-7.77,2" style="fill:none;stroke:#999;stroke-width:3" />
<path d="M1321.5,66.52c1.38,0.86,2.71,0.8,4.54-0.44C1329.5,63.75,1337.62,58.12,1346.25,52" style="fill:none;stroke:#999;stroke-width:3" />
<path d="M1351.76,19.03c1.58,0.39,3.14,0.31,4.73,0.03c3.48-0.62,9.27-1.42,12.01-1.77c1.74-0.22,3.17,0.3,2.66,2.35c-0.42,1.71-1.31,5.39-1.84,7.89" style="fill:none;stroke:#999;stroke-width:3" />
<path d="M1355.08,29.89c1.4-0.12,6.59-0.91,11.93-1.36c1.47-0.12,2.92-0.22,4.24-0.28" style="fill:none;stroke:#999;stroke-width:3" />
<path d="M1353.31,27.91c0.64,0.64,0.88,1.46,0.88,2.73c0,1.99-0.06,2.94-0.06,4.35c0,5.66,1.29,6.48,9.06,6.48c8.82,0,10.11-0.73,10.11-3.87" style="fill:none;stroke:#999;stroke-width:3" />
<path d="M1379.8400000000001,16.47c1.39,0.36,2.78,0.4,4.17,0.1c2.91-0.38,8.62-1.36,11.49-1.72c1.73-0.21,3.31,0.08,2.9,2.25c-0.34,1.84-1.11,6.46-1.66,9.04" style="fill:none;stroke:#999;stroke-width:3" />
<path d="M1382.75,28.25c1.4-0.12,6.87-0.56,11.75-1c1.35-0.12,2.64-0.22,3.75-0.28" style="fill:none;stroke:#999;stroke-width:3" />
<path d="M1381.23,27.3c0.68,0.68,0.66,1.7,0.66,2.77c0,2.54-0.01,3.34-0.01,5.06c0,4.92,1.21,5.63,9.67,5.63c7.2,0,9-0.25,9-3.94" style="fill:none;stroke:#999;stroke-width:3" />
<path d="M1353.48,58.59c3.03,0.67,6.01,0.17,9.15-0.08c8.12-0.64,20.75-1.89,29.12-2.28c2.6-0.12,5.13-0.23,7.66,0.32" style="fill:none;stroke:#999;stroke-width:3" />
<path d="M1364.78,48.37c0.99,0.99,1.3,2.97,1.33,3.71c0.26,6.3,0.46,14.56,0.8,20.54" style="fill:none;stroke:#999;stroke-width:3" />
<path d="M1385.68,46.56c0.45,1.19,0.45,2.07,0.27,3.49c-0.93,7.4-1.5,15.82-2.08,21.15" style="fill:none;stroke:#999;stroke-width:3" />
<path d="M1349.75,73.51c3.53,0.75,7.03,0.51,10.63,0.11c10.25-1.12,21.5-2,35.12-2.59c3.54-0.15,7.03-0.11,10.5,0.54" style="fill:none;stroke:black;stroke-width:3" />
<circle cx="1349.75" cy="73.51" r="5" stroke-width="0" fill="#FF2A00" opacity="0.7" />
<path d="M1431.75,37.25c2.07,0.25,3.53,0.25,5.63-0.05c4.32-0.62,9.65-1.72,15.88-2.57c1.34-0.18,2.86-0.3,4.15-0.3" style="fill:none;stroke:#999;stroke-width:3" />
<path d="M1446.77,14.08c1.08,1.08,1.51,2.67,1.51,4.77c0,14.56-0.01,62.94-0.01,67.9c0,14.25-6.32,3.53-7.77,2" style="fill:none;stroke:#999;stroke-width:3" />
<path d="M1430.5,66.52c1.38,0.86,2.71,0.8,4.54-0.44C1438.5,63.75,1446.62,58.12,1455.25,52" style="fill:none;stroke:#999;stroke-width:3" />
<path d="M1460.76,19.03c1.58,0.39,3.14,0.31,4.73,0.03c3.48-0.62,9.27-1.42,12.01-1.77c1.74-0.22,3.17,0.3,2.66,2.35c-0.42,1.71-1.31,5.39-1.84,7.89" style="fill:none;stroke:#999;stroke-width:3" />
<path d="M1464.08,29.89c1.4-0.12,6.59-0.91,11.93-1.36c1.47-0.12,2.92-0.22,4.24-0.28" style="fill:none;stroke:#999;stroke-width:3" />
<path d="M1462.31,27.91c0.64,0.64,0.88,1.46,0.88,2.73c0,1.99-0.06,2.94-0.06,4.35c0,5.66,1.29,6.48,9.06,6.48c8.82,0,10.11-0.73,10.11-3.87" style="fill:none;stroke:#999;stroke-width:3" />
<path d="M1488.8400000000001,16.47c1.39,0.36,2.78,0.4,4.17,0.1c2.91-0.38,8.62-1.36,11.49-1.72c1.73-0.21,3.31,0.08,2.9,2.25c-0.34,1.84-1.11,6.46-1.66,9.04" style="fill:none;stroke:#999;stroke-width:3" />
<path d="M1491.75,28.25c1.4-0.12,6.87-0.56,11.75-1c1.35-0.12,2.64-0.22,3.75-0.28" style="fill:none;stroke:#999;stroke-width:3" />
<path d="M1490.23,27.3c0.68,0.68,0.66,1.7,0.66,2.77c0,2.54-0.01,3.34-0.01,5.06c0,4.92,1.21,5.63,9.67,5.63c7.2,0,9-0.25,9-3.94" style="fill:none;stroke:#999;stroke-width:3" />
<path d="M1462.48,58.59c3.03,0.67,6.01,0.17,9.15-0.08c8.12-0.64,20.75-1.89,29.12-2.28c2.6-0.12,5.13-0.23,7.66,0.32" style="fill:none;stroke:#999;stroke-width:3" />
<path d="M1473.78,48.37c0.99,0.99,1.3,2.97,1.33,3.71c0.26,6.3,0.46,14.56,0.8,20.54" style="fill:none;stroke:#999;stroke-width:3" />
<path d="M1494.68,46.56c0.45,1.19,0.45,2.07,0.27,3.49c-0.93,7.4-1.5,15.82-2.08,21.15" style="fill:none;stroke:#999;stroke-width:3" />
<path d="M1458.75,73.51c3.53,0.75,7.03,0.51,10.63,0.11c10.25-1.12,21.5-2,35.12-2.59c3.54-0.15,7.03-0.11,10.5,0.54" style="fill:none;stroke:#999;stroke-width:3" />
<path d="M1476.02,80.56c0,0.94-0.33,1.77-0.9,2.51c-3.5,3.8-8.16,8.09-15.1,12.44" style="fill:none;stroke:black;stroke-width:3" />
<circle cx="1476.02" cy="80.56" r="5" stroke-width="0" fill="#FF2A00" opacity="0.7" />
<path d="M1540.75,37.25c2.07,0.25,3.53,0.25,5.63-0.05c4.32-0.62,9.65-1.72,15.88-2.57c1.34-0.18,2.86-0.3,4.15-0.3" style="fill:none;stroke:#999;stroke-width:3" />
<path d="M1555.77,14.08c1.08,1.08,1.51,2.67,1.51,4.77c0,14.56-0.01,62.94-0.01,67.9c0,14.25-6.32,3.53-7.77,2" style="fill:none;stroke:#999;stroke-width:3" />
<path d="M1539.5,66.52c1.38,0.86,2.71,0.8,4.54-0.44C1547.5,63.75,1555.62,58.12,1564.25,52" style="fill:none;stroke:#999;stroke-width:3" />
<path d="M1569.76,19.03c1.58,0.39,3.14,0.31,4.73,0.03c3.48-0.62,9.27-1.42,12.01-1.77c1.74-0.22,3.17,0.3,2.66,2.35c-0.42,1.71-1.31,5.39-1.84,7.89" style="fill:none;stroke:#999;stroke-width:3" />
<path d="M1573.08,29.89c1.4-0.12,6.59-0.91,11.93-1.36c1.47-0.12,2.92-0.22,4.24-0.28" style="fill:none;stroke:#999;stroke-width:3" />
<path d="M1571.31,27.91c0.64,0.64,0.88,1.46,0.88,2.73c0,1.99-0.06,2.94-0.06,4.35c0,5.66,1.29,6.48,9.06,6.48c8.82,0,10.11-0.73,10.11-3.87" style="fill:none;stroke:#999;stroke-width:3" />
<path d="M1597.8400000000001,16.47c1.39,0.36,2.78,0.4,4.17,0.1c2.91-0.38,8.62-1.36,11.49-1.72c1.73-0.21,3.31,0.08,2.9,2.25c-0.34,1.84-1.11,6.46-1.66,9.04" style="fill:none;stroke:#999;stroke-width:3" />
<path d="M1600.75,28.25c1.4-0.12,6.87-0.56,11.75-1c1.35-0.12,2.64-0.22,3.75-0.28" style="fill:none;stroke:#999;stroke-width:3" />
<path d="M1599.23,27.3c0.68,0.68,0.66,1.7,0.66,2.77c0,2.54-0.01,3.34-0.01,5.06c0,4.92,1.21,5.63,9.67,5.63c7.2,0,9-0.25,9-3.94" style="fill:none;stroke:#999;stroke-width:3" />
<path d="M1571.48,58.59c3.03,0.67,6.01,0.17,9.15-0.08c8.12-0.64,20.75-1.89,29.12-2.28c2.6-0.12,5.13-0.23,7.66,0.32" style="fill:none;stroke:#999;stroke-width:3" />
<path d="M1582.78,48.37c0.99,0.99,1.3,2.97,1.33,3.71c0.26,6.3,0.46,14.56,0.8,20.54" style="fill:none;stroke:#999;stroke-width:3" />
<path d="M1603.68,46.56c0.45,1.19,0.45,2.07,0.27,3.49c-0.93,7.4-1.5,15.82-2.08,21.15" style="fill:none;stroke:#999;stroke-width:3" />
<path d="M1567.75,73.51c3.53,0.75,7.03,0.51,10.63,0.11c10.25-1.12,21.5-2,35.12-2.59c3.54-0.15,7.03-0.11,10.5,0.54" style="fill:none;stroke:#999;stroke-width:3" />
<path d="M1585.02,80.56c0,0.94-0.33,1.77-0.9,2.51c-3.5,3.8-8.16,8.09-15.1,12.44" style="fill:none;stroke:#999;stroke-width:3" />
<path d="M1602.67,79.29c5.41,2.69,14.23,11.34,15.58,15.53" style="fill:none;stroke:black;stroke-width:3" />
<circle cx="1602.67" cy="79.29" r="5" stroke-width="0" fill="#FF2A00" opacity="0.7" />
</svg>