<svg width="1853px" height="109px" viewBox="0 0 1853px 109px" xmlns="http://www.w3.org/2000/svg" xmlns:xlink="http://www.w3.org/1999/xlink" xml:space="preserve" version="1.1"  baseProfile="full">
<line x1="1" y1="1" x2="1852" y2="1" style="stroke:#ddd;stroke-width:2" />
<line x1="1" y1="1" x2="1" y2="108" style="stroke:#ddd;stroke-width:2" />
<line x1="1" y1="108" x2="1852" y2="108" style="stroke:#ddd;stroke-width:2" />
<line x1="1852" y1="1" x2="1852" y2="108" style="stroke:#ddd;stroke-width:2" />
<line x1="109" y1="1" x2="109" y2="108" style="stroke:#ddd;stroke-width:2" />
<line x1="218" y1="1" x2="218" y2="108" style="stroke:#ddd;stroke-width:2" />
<line x1="327" y1="1" x2="327" y2="108" style="stroke:#ddd;stroke-width:2" />
<line x1="436" y1="1" x2="436" y2="108" style="stroke:#ddd;stroke-width:2" />
<line x1="545" y1="1" x2="545" y2="108" style="stroke:#ddd;stroke-width:2" />
<line x1="654" y1="1" x2="654" y2="108" style="stroke:#ddd;stroke-width:2" />
<line x1="763" y1="1" x2="763" y2="108" style="stroke:#ddd;stroke-width:2" />
<line x1="872" y1="1" x2="872" y2="108" style="stroke:#ddd;stroke-width:2" />
<line x1="981" y1="1" x2="981" y2="108" style="stroke:#ddd;stroke-width:2" />
<line x1="1090" y1="1" x2="1090" y2="108" style="stroke:#ddd;stroke-width:2" />
<line x1="1199" y1="1" x2="1199" y2="108" style="stroke:#ddd;stroke-width:2" />
<line x1="1308" y1="1" x2="1308" y2="108" style="stroke:#ddd;stroke-width:2" />
<line x1="1417" y1="1" x2="1417" y2="108" style="stroke:#ddd;stroke-width:2" />
<line x1="1526" y1="1" x2="1526" y2="108" style="stroke:#ddd;stroke-width:2" />
<line x1="1635" y1="1" x2="1635" y2="108" style="stroke:#ddd;stroke-width:2" />
<line x1="1744" y1="1" x2="1744" y2="108" style="stroke:#ddd;stroke-width:2" />
<line x1="1" y1="54" x2="1852" y2="54" style="stroke:#ddd;stroke-width:2;stroke-dasharray:3 3" />
<line x1="55" y1="1" x2="55" y2="108" style="stroke:#ddd;stroke-width:2;stroke-dasharray:3 3" />
<line x1="164" y1="1" x2="164" y2="108" style="stroke:#ddd;stroke-width:2;stroke-dasharray:3 3" />
<line x1="273" y1="1" x2="273" y2="108" style="stroke:#ddd;stroke-width:2;stroke-dasharray:3 3" />
<line x1="382" y1="1" x2="382" y2="108" style="stroke:#ddd;stroke-width:2;stroke-dasharray:3 3" />
<line x1="491" y1="1" x2="491" y2="108" style="stroke:#ddd;stroke-width:2;stroke-dasharray:3 3" />
<line x1="600" y1="1" x2="600" y2="108" style="stroke:#ddd;stroke-width:2;stroke-dasharray:3 3" />
<line x1="709" y1="1" x2="709" y2="108" style="stroke:#ddd;stroke-width:2;stroke-dasharray:3 3" />
<line x1="818" y1="1" x2="818" y2="108" style="stroke:#ddd;stroke-width:2;stroke-dasharray:3 3" />
<line x1="927" y1="1" x2="927" y2="108" style="stroke:#ddd;stroke-width:2;stroke-dasharray:3 3" />
<line x1="1036" y1="1" x2="1036" y2="108" style="stroke:#ddd;stroke-width:2;stroke-dasharray:3 3" />
<line x1="1145" y1="1" x2="1145" y2="108" style="stroke:#ddd;stroke-width:2;stroke-dasharray:3 3" />
<line x1="1254" y1="1" x2="1254" y2="108" style="stroke:#ddd;stroke-width:2;stroke-dasharray:3 3" />
<line x1="1363" y1="1" x2="1363" y2="108" style="stroke:#ddd;stroke-width:2;stroke-dasharray:3 3" />
<line x1="1472" y1="1" x2="1472" y2="108" style="stroke:#ddd;stroke-width:2;stroke-dasharray:3 3" />
<line x1="1581" y1="1" x2="1581" y2="108" style="stroke:#ddd;stroke-width:2;stroke-dasharray:3 3" />
<line x1="1690" y1="1" x2="1690" y2="108" style="stroke:#ddd;stroke-width:2;stroke-dasharray:3 3" />
<line x1="1799" y1="1" x2="1799" y2="108" style="stroke:#ddd;stroke-width:2;stroke-dasharray:3 3" />
<path d="M44.08,21.71c0.99,0.53,2.14,0.63,3.14,0.53c9.11-0.96,30.9-3.46,41.4-3.53c1.65-0.01,2.64,0.25,3.47,0.51" style="fill:none;stroke:black;stroke-width:3" />
<circle cx="44.08" cy="21.71" r="5" stroke-width="0" fill="#FF2A00" opacity="0.7" />
<path d="M153.07999999999998,21.71c0.99,0.53,2.14,0.63,3.14,0.53c9.11-0.96,30.9-3.46,41.4-3.53c1.65-0.01,2.64,0.25,3.47,0.51" style="fill:none;stroke:#999;stroke-width:3" />
<path d="M163.81,12.94c1.15,1.05,1.52,1.37,1.64,2.01c1.15,6.04,1.48,11.54,1.81,13.74" style="fill:none;stroke:black;stroke-width:3" />
<circle cx="163.81" cy="12.94" r="5" stroke-width="0" fill="#FF2A00" opacity="0.7" />
<path d="M262.08,21.71c0.99,0.53,2.14,0.63,3.14,0.53c9.11-0.96,30.9-3.46,41.4-3.53c1.65-0.01,2.64,0.25,3.47,0.51" style="fill:none;stroke:#999;stroke-width:3" />
<path d="M272.81,12.94c1.15,1.05,1.52,1.37,1.64,2.01c1.15,6.04,1.48,11.54,1.81,13.74" style="fill:none;stroke:#999;stroke-width:3" />
<path d="M293.55,11.69c0.64,0.75,1.07,1.89,0.86,2.99c-0.64,3.36-1.84,8.97-2.77,13.26" style="fill:none;stroke:black;stroke-width:3" />
<circle cx="293.55" cy="11.69" r="5" stroke-width="0" fill="#FF2A00" opacity="0.7" />
<path d="M371.08,21.71c0.99,0.53,2.14,0.63,3.14,0.53c9.11-0.96,30.9-3.46,41.4-3.53c1.65-0.01,2.64,0.25,3.47,0.51" style="fill:none;stroke:#999;stroke-width:3" />
<path d="M381.81,12.94c1.15,1.05,1.52,1.37,1.64,2.01c1.15,6.04,1.48,11.54,1.81,13.74" style="fill:none;stroke:#999;stroke-width:3" />
<path d="M402.55,11.69c0.64,0.75,1.07,1.89,0.86,2.99c-0.64,3.36-1.84,8.97-2.77,13.26" style="fill:none;stroke:#999;stroke-width:3" />
<path d="M371.92,32.04c0,3.38-3,12.68-4.17,14.93" style="fill:none;stroke:black;stroke-width:3" />
<circle cx="371.92" cy="32.04" r="5" stroke-width="0" fill="#FF2A00" opacity="0.7" />
<path d="M480.08,21.71c0.99,0.53,2.14,0.63,3.14,0.53c9.11-0.96,30.9-3.46,41.4-3.53c1.65-0.01,2.64,0.25,3.47,0.51" style="fill:none;stroke:#999;stroke-width:3" />
<path d="M490.81,12.94c1.15,1.05,1.52,1.37,1.64,2.01c1.15,6.04,1.48,11.54,1.81,13.74" style="fill:none;stroke:#999;stroke-width:3" />
<path d="M511.55,11.69c0.64,0.75,1.07,1.89,0.86,2.99c-0.64,3.36-1.84,8.97-2.77,13.26" style="fill:none;stroke:#999;stroke-width:3" />
<path d="M480.92,32.04c0,3.38-3,12.68-4.17,14.93" style="fill:none;stroke:#999;stroke-width:3" />
<path d="M480.68,35.76c17.07-1.82,42.42-3.37,43.92-3.48c9.77-0.7,3.56,5.91-0.1,9.13" style="fill:none;stroke:black;stroke-width:3" />
<circle cx="480.68" cy="35.76" r="5" stroke-width="0" fill="#FF2A00" opacity="0.7" />
<path d="M589.0799999999999,21.71c0.99,0.53,2.14,0.63,3.14,0.53c9.11-0.96,30.9-3.46,41.4-3.53c1.65-0.01,2.64,0.25,3.47,0.51" style="fill:none;stroke:#999;stroke-width:3" />
<path d="M599.81,12.94c1.15,1.05,1.52,1.37,1.64,2.01c1.15,6.04,1.48,11.54,1.81,13.74" style="fill:none;stroke:#999;stroke-width:3" />
<path d="M620.55,11.69c0.64,0.75,1.07,1.89,0.86,2.99c-0.64,3.36-1.84,8.97-2.77,13.26" style="fill:none;stroke:#999;stroke-width:3" />
<path d="M589.9200000000001,32.04c0,3.38-3,12.68-4.17,14.93" style="fill:none;stroke:#999;stroke-width:3" />
<path d="M589.6800000000001,35.76c17.07-1.82,42.42-3.37,43.92-3.48c9.77-0.7,3.56,5.91-0.1,9.13" style="fill:none;stroke:#999;stroke-width:3" />
<path d="M598.44,43.47c0.81,0.41,2.29,0.43,3.1,0.41c4.43-0.12,12.56-1.19,19.95-2.39c1.34-0.22,2.54,0.19,3.21,0.4" style="fill:none;stroke:black;stroke-width:3" />
<circle cx="598.44" cy="43.47" r="5" stroke-width="0" fill="#FF2A00" opacity="0.7" />
<path d="M698.0799999999999,21.71c0.99,0.53,2.14,0.63,3.14,0.53c9.11-0.96,30.9-3.46,41.4-3.53c1.65-0.01,2.64,0.25,3.47,0.51" style="fill:none;stroke:#999;stroke-width:3" />
<path d="M708.81,12.94c1.15,1.05,1.52,1.37,1.64,2.01c1.15,6.04,1.48,11.54,1.81,13.74" style="fill:none;stroke:#999;stroke-width:3" />
<path d="M729.55,11.69c0.64,0.75,1.07,1.89,0.86,2.99c-0.64,3.36-1.84,8.97-2.77,13.26" style="fill:none;stroke:#999;stroke-width:3" />
<path d="M698.9200000000001,32.04c0,3.38-3,12.68-4.17,14.93" style="fill:none;stroke:#999;stroke-width:3" />
<path d="M698.6800000000001,35.76c17.07-1.82,42.42-3.37,43.92-3.48c9.77-0.7,3.56,5.91-0.1,9.13" style="fill:none;stroke:#999;stroke-width:3" />
<path d="M707.44,43.47c0.81,0.41,2.29,0.43,3.1,0.41c4.43-0.12,12.56-1.19,19.95-2.39c1.34-0.22,2.54,0.19,3.21,0.4" style="fill:none;stroke:#999;stroke-width:3" />
<path d="M697.26,52.42c1.23,0.62,3.48,0.65,4.72,0.62c8.42-0.24,28.47-2.84,39.35-3.16c2.05-0.06,3.28,0.29,4.31,0.6" style="fill:none;stroke:black;stroke-width:3" />
<circle cx="697.26" cy="52.42" r="5" stroke-width="0" fill="#FF2A00" opacity="0.7" />
<path d="M807.0799999999999,21.71c0.99,0.53,2.14,0.63,3.14,0.53c9.11-0.96,30.9-3.46,41.4-3.53c1.65-0.01,2.64,0.25,3.47,0.51" style="fill:none;stroke:#999;stroke-width:3" />
<path d="M817.81,12.94c1.15,1.05,1.52,1.37,1.64,2.01c1.15,6.04,1.48,11.54,1.81,13.74" style="fill:none;stroke:#999;stroke-width:3" />
<path d="M838.55,11.69c0.64,0.75,1.07,1.89,0.86,2.99c-0.64,3.36-1.84,8.97-2.77,13.26" style="fill:none;stroke:#999;stroke-width:3" />
<path d="M807.9200000000001,32.04c0,3.38-3,12.68-4.17,14.93" style="fill:none;stroke:#999;stroke-width:3" />
<path d="M807.6800000000001,35.76c17.07-1.82,42.42-3.37,43.92-3.48c9.77-0.7,3.56,5.91-0.1,9.13" style="fill:none;stroke:#999;stroke-width:3" />
<path d="M816.44,43.47c0.81,0.41,2.29,0.43,3.1,0.41c4.43-0.12,12.56-1.19,19.95-2.39c1.34-0.22,2.54,0.19,3.21,0.4" style="fill:none;stroke:#999;stroke-width:3" />
<path d="M806.26,52.42c1.23,0.62,3.48,0.65,4.72,0.62c8.42-0.24,28.47-2.84,39.35-3.16c2.05-0.06,3.28,0.29,4.31,0.6" style="fill:none;stroke:#999;stroke-width:3" />
<path d="M826.43,53.5c0.06,0.31,0.12,0.8-0.12,1.24c-1.44,2.61-9.72,8.35-21.04,11.86" style="fill:none;stroke:black;stroke-width:3" />
<circle cx="826.43" cy="53.5" r="5" stroke-width="0" fill="#FF2A00" opacity="0.7" />
<path d="M916.0799999999999,21.71c0.99,0.53,2.14,0.63,3.14,0.53c9.11-0.96,30.9-3.46,41.4-3.53c1.65-0.01,2.64,0.25,3.47,0.51" style="fill:none;stroke:#999;stroke-width:3" />
<path d="M926.81,12.94c1.15,1.05,1.52,1.37,1.64,2.01c1.15,6.04,1.48,11.54,1.81,13.74" style="fill:none;stroke:#999;stroke-width:3" />
<path d="M947.55,11.69c0.64,0.75,1.07,1.89,0.86,2.99c-0.64,3.36-1.84,8.97-2.77,13.26" style="fill:none;stroke:#999;stroke-width:3" />
<path d="M916.9200000000001,32.04c0,3.38-3,12.68-4.17,14.93" style="fill:none;stroke:#999;stroke-width:3" />
<path d="M916.6800000000001,35.76c17.07-1.82,42.42-3.37,43.92-3.48c9.77-0.7,3.56,5.91-0.1,9.13" style="fill:none;stroke:#999;stroke-width:3" />
<path d="M925.44,43.47c0.81,0.41,2.29,0.43,3.1,0.41c4.43-0.12,12.56-1.19,19.95-2.39c1.34-0.22,2.54,0.19,3.21,0.4" style="fill:none;stroke:#999;stroke-width:3" />
<path d="M915.26,52.42c1.23,0.62,3.48,0.65,4.72,0.62c8.42-0.24,28.47-2.84,39.35-3.16c2.05-0.06,3.28,0.29,4.31,0.6" style="fill:none;stroke:#999;stroke-width:3" />
<path d="M935.43,53.5c0.06,0.31,0.12,0.8-0.12,1.24c-1.44,2.61-9.72,8.35-21.04,11.86" style="fill:none;stroke:#999;stroke-width:3" />
<path d="M934.33,60.36c6.94,4.68,11.87,23.51,5.75,36.8c-2.7,5.86-6.29,0.7-7.2,0.04" style="fill:none;stroke:black;stroke-width:3" />
<circle cx="934.33" cy="60.36" r="5" stroke-width="0" fill="#FF2A00" opacity="0.7" />
<path d="M1025.08,21.71c0.99,0.53,2.14,0.63,3.14,0.53c9.11-0.96,30.9-3.46,41.4-3.53c1.65-0.01,2.64,0.25,3.47,0.51" style="fill:none;stroke:#999;stroke-width:3" />
<path d="M1035.81,12.94c1.15,1.05,1.52,1.37,1.64,2.01c1.15,6.04,1.48,11.54,1.81,13.74" style="fill:none;stroke:#999;stroke-width:3" />
<path d="M1056.55,11.69c0.64,0.75,1.07,1.89,0.86,2.99c-0.64,3.36-1.84,8.97-2.77,13.26" style="fill:none;stroke:#999;stroke-width:3" />
<path d="M1025.92,32.04c0,3.38-3,12.68-4.17,14.93" style="fill:none;stroke:#999;stroke-width:3" />
<path d="M1025.68,35.76c17.07-1.82,42.42-3.37,43.92-3.48c9.77-0.7,3.56,5.91-0.1,9.13" style="fill:none;stroke:#999;stroke-width:3" />
<path d="M1034.44,43.47c0.81,0.41,2.29,0.43,3.1,0.41c4.43-0.12,12.56-1.19,19.95-2.39c1.34-0.22,2.54,0.19,3.21,0.4" style="fill:none;stroke:#999;stroke-width:3" />
<path d="M1024.26,52.42c1.23,0.62,3.48,0.65,4.72,0.62c8.42-0.24,28.47-2.84,39.35-3.16c2.05-0.06,3.28,0.29,4.31,0.6" style="fill:none;stroke:#999;stroke-width:3" />
<path d="M1044.4299999999998,53.5c0.06,0.31,0.12,0.8-0.12,1.24c-1.44,2.61-9.72,8.35-21.04,11.86" style="fill:none;stroke:#999;stroke-width:3" />
<path d="M1043.33,60.36c6.94,4.68,11.87,23.51,5.75,36.8c-2.7,5.86-6.29,0.7-7.2,0.04" style="fill:none;stroke:#999;stroke-width:3" />
<path d="M1043.42,64.78c0.05,0.34,0.11,0.88-0.1,1.37c-1.27,2.88-8.58,9.22-18.57,13.1" style="fill:none;stroke:black;stroke-width:3" />
<circle cx="1043.42" cy="64.78" r="5" stroke-width="0" fill="#FF2A00" opacity="0.7" />
<path d="M1134.08,21.71c0.99,0.53,2.14,0.63,3.14,0.53c9.11-0.96,30.9-3.46,41.4-3.53c1.65-0.01,2.64,0.25,3.47,0.51" style="fill:none;stroke:#999;stroke-width:3" />
<path d="M1144.81,12.94c1.15,1.05,1.52,1.37,1.64,2.01c1.15,6.04,1.48,11.54,1.81,13.74" style="fill:none;stroke:#999;stroke-width:3" />
<path d="M1165.55,11.69c0.64,0.75,1.07,1.89,0.86,2.99c-0.64,3.36-1.84,8.97-2.77,13.26" style="fill:none;stroke:#999;stroke-width:3" />
<path d="M1134.92,32.04c0,3.38-3,12.68-4.17,14.93" style="fill:none;stroke:#999;stroke-width:3" />
<path d="M1134.68,35.76c17.07-1.82,42.42-3.37,43.92-3.48c9.77-0.7,3.56,5.91-0.1,9.13" style="fill:none;stroke:#999;stroke-width:3" />
<path d="M1143.44,43.47c0.81,0.41,2.29,0.43,3.1,0.41c4.43-0.12,12.56-1.19,19.95-2.39c1.34-0.22,2.54,0.19,3.21,0.4" style="fill:none;stroke:#999;stroke-width:3" />
<path d="M1133.26,52.42c1.23,0.62,3.48,0.65,4.72,0.62c8.42-0.24,28.47-2.84,39.35-3.16c2.05-0.06,3.28,0.29,4.31,0.6" style="fill:none;stroke:#999;stroke-width:3" />
<path d="M1153.4299999999998,53.5c0.06,0.31,0.12,0.8-0.12,1.24c-1.44,2.61-9.72,8.35-21.04,11.86" style="fill:none;stroke:#999;stroke-width:3" />
<path d="M1152.33,60.36c6.94,4.68,11.87,23.51,5.75,36.8c-2.7,5.86-6.29,0.7-7.2,0.04" style="fill:none;stroke:#999;stroke-width:3" />
<path d="M1152.42,64.78c0.05,0.34,0.11,0.88-0.1,1.37c-1.27,2.88-8.58,9.22-18.57,13.1" style="fill:none;stroke:#999;stroke-width:3" />
<path d="M1155.59,74.82c0.06,0.46,0.14,1.18-0.13,1.83c-1.57,3.87-11.38,11.32-23.68,16.52" style="fill:none;stroke:black;stroke-width:3" />
<circle cx="1155.59" cy="74.82" r="5" stroke-width="0" fill="#FF2A00" opacity="0.7" />
<path d="M1243.08,21.71c0.99,0.53,2.14,0.63,3.14,0.53c9.11-0.96,30.9-3.46,41.4-3.53c1.65-0.01,2.64,0.25,3.47,0.51" style="fill:none;stroke:#999;stroke-width:3" />
<path d="M1253.81,12.94c1.15,1.05,1.52,1.37,1.64,2.01c1.15,6.04,1.48,11.54,1.81,13.74" style="fill:none;stroke:#999;stroke-width:3" />
<path d="M1274.55,11.69c0.64,0.75,1.07,1.89,0.86,2.99c-0.64,3.36-1.84,8.97-2.77,13.26" style="fill:none;stroke:#999;stroke-width:3" />
<path d="M1243.92,32.04c0,3.38-3,12.68-4.17,14.93" style="fill:none;stroke:#999;stroke-width:3" />
<path d="M1243.68,35.76c17.07-1.82,42.42-3.37,43.92-3.48c9.77-0.7,3.56,5.91-0.1,9.13" style="fill:none;stroke:#999;stroke-width:3" />
<path d="M1252.44,43.47c0.81,0.41,2.29,0.43,3.1,0.41c4.43-0.12,12.56-1.19,19.95-2.39c1.34-0.22,2.54,0.19,3.21,0.4" style="fill:none;stroke:#999;stroke-width:3" />
<path d="M1242.26,52.42c1.23,0.62,3.48,0.65,4.72,0.62c8.42-0.24,28.47-2.84,39.35-3.16c2.05-0.06,3.28,0.29,4.31,0.6" style="fill:none;stroke:#999;stroke-width:3" />
<path d="M1262.4299999999998,53.5c0.06,0.31,0.12,0.8-0.12,1.24c-1.44,2.61-9.72,8.35-21.04,11.86" style="fill:none;stroke:#999;stroke-width:3" />
<path d="M1261.33,60.36c6.94,4.68,11.87,23.51,5.75,36.8c-2.7,5.86-6.29,0.7-7.2,0.04" style="fill:none;stroke:#999;stroke-width:3" />
<path d="M1261.42,64.78c0.05,0.34,0.11,0.88-0.1,1.37c-1.27,2.88-8.58,9.22-18.57,13.1" style="fill:none;stroke:#999;stroke-width:3" />
<path d="M1264.59,74.82c0.06,0.46,0.14,1.18-0.13,1.83c-1.57,3.87-11.38,11.32-23.68,16.52" style="fill:none;stroke:#999;stroke-width:3" />
<path d="M1282.04,58.4c0.03,0.25,0.07,0.66-0.07,1.03c-0.84,2.17-5.68,6.92-12.29,9.83" style="fill:none;stroke:black;stroke-width:3" />
<circle cx="1282.04" cy="58.4" r="5" stroke-width="0" fill="#FF2A00" opacity="0.7" />
<path d="M1352.08,21.71c0.99,0.53,2.14,0.63,3.14,0.53c9.11-0.96,30.9-3.46,41.4-3.53c1.65-0.01,2.64,0.25,3.47,0.51" style="fill:none;stroke:#999;stroke-width:3" />
<path d="M1362.81,12.94c1.15,1.05,1.52,1.37,1.64,2.01c1.15,6.04,1.48,11.54,1.81,13.74" style="fill:none;stroke:#999;stroke-width:3" />
<path d="M1383.55,11.69c0.64,0.75,1.07,1.89,0.86,2.99c-0.64,3.36-1.84,8.97-2.77,13.26" style="fill:none;stroke:#999;stroke-width:3" />
<path d="M1352.92,32.04c0,3.38-3,12.68-4.17,14.93" style="fill:none;stroke:#999;stroke-width:3" />
<path d="M1352.68,35.76c17.07-1.82,42.42-3.37,43.92-3.48c9.77-0.7,3.56,5.91-0.1,9.13" style="fill:none;stroke:#999;stroke-width:3" />
<path d="M1361.44,43.47c0.81,0.41,2.29,0.43,3.1,0.41c4.43-0.12,12.56-1.19,19.95-2.39c1.34-0.22,2.54,0.19,3.21,0.4" style="fill:none;stroke:#999;stroke-width:3" />
<path d="M1351.26,52.42c1.23,0.62,3.48,0.65,4.72,0.62c8.42-0.24,28.47-2.84,39.35-3.16c2.05-0.06,3.28,0.29,4.31,0.6" style="fill:none;stroke:#999;stroke-width:3" />
<path d="M1371.4299999999998,53.5c0.06,0.31,0.12,0.8-0.12,1.24c-1.44,2.61-9.72,8.35-21.04,11.86" style="fill:none;stroke:#999;stroke-width:3" />
<path d="M1370.33,60.36c6.94,4.68,11.87,23.51,5.75,36.8c-2.7,5.86-6.29,0.7-7.2,0.04" style="fill:none;stroke:#999;stroke-width:3" />
<path d="M1370.42,64.78c0.05,0.34,0.11,0.88-0.1,1.37c-1.27,2.88-8.58,9.22-18.57,13.1" style="fill:none;stroke:#999;stroke-width:3" />
<path d="M1373.59,74.82c0.06,0.46,0.14,1.18-0.13,1.83c-1.57,3.87-11.38,11.32-23.68,16.52" style="fill:none;stroke:#999;stroke-width:3" />
<path d="M1391.04,58.4c0.03,0.25,0.07,0.66-0.07,1.03c-0.84,2.17-5.68,6.92-12.29,9.83" style="fill:none;stroke:#999;stroke-width:3" />
<path d="M1378.38,70.93c3.38,2.78,16.6,15.5,21.85,18.66c1.3,0.79,2.31,1.32,3.55,1.59" style="fill:none;stroke:black;stroke-width:3" />
<circle cx="1378.38" cy="70.93" r="5" stroke-width="0" fill="#FF2A00" opacity="0.7" />
<path d="M1461.08,21.71c0.99,0.53,2.14,0.63,3.14,0.53c9.11-0.96,30.9-3.46,41.4-3.53c1.65-0.01,2.64,0.25,3.47,0.51" style="fill:none;stroke:#999;stroke-width:3" />
<path d="M1471.81,12.94c1.15,1.05,1.52,1.37,1.64,2.01c1.15,6.04,1.48,11.54,1.81,13.74" style="fill:none;stroke:#999;stroke-width:3" />
<path d="M1492.55,11.69c0.64,0.75,1.07,1.89,0.86,2.99c-0.64,3.36-1.84,8.97-2.77,13.26" style="fill:none;stroke:#999;stroke-width:3" />
<path d="M1461.92,32.04c0,3.38-3,12.68-4.17,14.93" style="fill:none;stroke:#999;stroke-width:3" />
<path d="M1461.68,35.76c17.07-1.82,42.42-3.37,43.92-3.48c9.77-0.7,3.56,5.91-0.1,9.13" style="fill:none;stroke:#999;stroke-width:3" />
<path d="M1470.44,43.47c0.81,0.41,2.29,0.43,3.1,0.41c4.43-0.12,12.56-1.19,19.95-2.39c1.34-0.22,2.54,0.19,3.21,0.4" style="fill:none;stroke:#999;stroke-width:3" />
<path d="M1460.26,52.42c1.23,0.62,3.48,0.65,4.72,0.62c8.42-0.24,28.47-2.84,39.35-3.16c2.05-0.06,3.28,0.29,4.31,0.6" style="fill:none;stroke:#999;stroke-width:3" />
<path d="M1480.4299999999998,53.5c0.06,0.31,0.12,0.8-0.12,1.24c-1.44,2.61-9.72,8.35-21.04,11.86" style="fill:none;stroke:#999;stroke-width:3" />
<path d="M1479.33,60.36c6.94,4.68,11.87,23.51,5.75,36.8c-2.7,5.86-6.29,0.7-7.2,0.04" style="fill:none;stroke:#999;stroke-width:3" />
<path d="M1479.42,64.78c0.05,0.34,0.11,0.88-0.1,1.37c-1.27,2.88-8.58,9.22-18.57,13.1" style="fill:none;stroke:#999;stroke-width:3" />
<path d="M1482.59,74.82c0.06,0.46,0.14,1.18-0.13,1.83c-1.57,3.87-11.38,11.32-23.68,16.52" style="fill:none;stroke:#999;stroke-width:3" />
<path d="M1500.04,58.4c0.03,0.25,0.07,0.66-0.07,1.03c-0.84,2.17-5.68,6.92-12.29,9.83" style="fill:none;stroke:#999;stroke-width:3" />
<path d="M1487.38,70.93c3.38,2.78,16.6,15.5,21.85,18.66c1.3,0.79,2.31,1.32,3.55,1.59" style="fill:none;stroke:#999;stroke-width:3" />
<path d="M1435.14,22.68c0.47,0.95,0.79,2.38,0.95,3.3c0.16,0.92,0.14,24.9-0.37,32.63c-0.72,11-2.47,25.08-7.97,35.72" style="fill:none;stroke:black;stroke-width:3" />
<circle cx="1435.14" cy="22.68" r="5" stroke-width="0" fill="#FF2A00" opacity="0.7" />
<path d="M1570.08,21.71c0.99,0.53,2.14,0.63,3.14,0.53c9.11-0.96,30.9-3.46,41.4-3.53c1.65-0.01,2.64,0.25,3.47,0.51" style="fill:none;stroke:#999;stroke-width:3" />
<path d="M1580.81,12.94c1.15,1.05,1.52,1.37,1.64,2.01c1.15,6.04,1.48,11.54,1.81,13.74" style="fill:none;stroke:#999;stroke-width:3" />
<path d="M1601.55,11.69c0.64,0.75,1.07,1.89,0.86,2.99c-0.64,3.36-1.84,8.97-2.77,13.26" style="fill:none;stroke:#999;stroke-width:3" />
<path d="M1570.92,32.04c0,3.38-3,12.68-4.17,14.93" style="fill:none;stroke:#999;stroke-width:3" />
<path d="M1570.68,35.76c17.07-1.82,42.42-3.37,43.92-3.48c9.77-0.7,3.56,5.91-0.1,9.13" style="fill:none;stroke:#999;stroke-width:3" />
<path d="M1579.44,43.47c0.81,0.41,2.29,0.43,3.1,0.41c4.43-0.12,12.56-1.19,19.95-2.39c1.34-0.22,2.54,0.19,3.21,0.4" style="fill:none;stroke:#999;stroke-width:3" />
<path d="M1569.26,52.42c1.23,0.62,3.48,0.65,4.72,0.62c8.42-0.24,28.47-2.84,39.35-3.16c2.05-0.06,3.28,0.29,4.31,0.6" style="fill:none;stroke:#999;stroke-width:3" />
<path d="M1589.4299999999998,53.5c0.06,0.31,0.12,0.8-0.12,1.24c-1.44,2.61-9.72,8.35-21.04,11.86" style="fill:none;stroke:#999;stroke-width:3" />
<path d="M1588.33,60.36c6.94,4.68,11.87,23.51,5.75,36.8c-2.7,5.86-6.29,0.7-7.2,0.04" style="fill:none;stroke:#999;stroke-width:3" />
<path d="M1588.42,64.78c0.05,0.34,0.11,0.88-0.1,1.37c-1.27,2.88-8.58,9.22-18.57,13.1" style="fill:none;stroke:#999;stroke-width:3" />
<path d="M1591.59,74.82c0.06,0.46,0.14,1.18-0.13,1.83c-1.57,3.87-11.38,11.32-23.68,16.52" style="fill:none;stroke:#999;stroke-width:3" />
<path d="M1609.04,58.4c0.03,0.25,0.07,0.66-0.07,1.03c-0.84,2.17-5.68,6.92-12.29,9.83" style="fill:none;stroke:#999;stroke-width:3" />
<path d="M1596.38,70.93c3.38,2.78,16.6,15.5,21.85,18.66c1.3,0.79,2.31,1.32,3.55,1.59" style="fill:none;stroke:#999;stroke-width:3" />
<path d="M1544.14,22.68c0.47,0.95,0.79,2.38,0.95,3.3c0.16,0.92,0.14,24.9-0.37,32.63c-0.72,11-2.47,25.08-7.97,35.72" style="fill:none;stroke:#999;stroke-width:3" />
<path d="M1546.03,24.25c1.89-0.06,10.94-2.34,12.35-2.46c2.52-0.23,3.15,1.31,3.15,2.67c0,3.23-0.04,44.72-0.04,63.05c0,12.61-5.32,3.55-6.93,2.04" style="fill:none;stroke:black;stroke-width:3" />
<circle cx="1546.03" cy="24.25" r="5" stroke-width="0" fill="#FF2A00" opacity="0.7" />
<path d="M1679.08,21.71c0.99,0.53,2.14,0.63,3.14,0.53c9.11-0.96,30.9-3.46,41.4-3.53c1.65-0.01,2.64,0.25,3.47,0.51" style="fill:none;stroke:#999;stroke-width:3" />
<path d="M1689.81,12.94c1.15,1.05,1.52,1.37,1.64,2.01c1.15,6.04,1.48,11.54,1.81,13.74" style="fill:none;stroke:#999;stroke-width:3" />
<path d="M1710.55,11.69c0.64,0.75,1.07,1.89,0.86,2.99c-0.64,3.36-1.84,8.97-2.77,13.26" style="fill:none;stroke:#999;stroke-width:3" />
<path d="M1679.92,32.04c0,3.38-3,12.68-4.17,14.93" style="fill:none;stroke:#999;stroke-width:3" />
<path d="M1679.68,35.76c17.07-1.82,42.42-3.37,43.92-3.48c9.77-0.7,3.56,5.91-0.1,9.13" style="fill:none;stroke:#999;stroke-width:3" />
<path d="M1688.44,43.47c0.81,0.41,2.29,0.43,3.1,0.41c4.43-0.12,12.56-1.19,19.95-2.39c1.34-0.22,2.54,0.19,3.21,0.4" style="fill:none;stroke:#999;stroke-width:3" />
<path d="M1678.26,52.42c1.23,0.62,3.48,0.65,4.72,0.62c8.42-0.24,28.47-2.84,39.35-3.16c2.05-0.06,3.28,0.29,4.31,0.6" style="fill:none;stroke:#999;stroke-width:3" />
<path d="M1698.4299999999998,53.5c0.06,0.31,0.12,0.8-0.12,1.24c-1.44,2.61-9.72,8.35-21.04,11.86" style="fill:none;stroke:#999;stroke-width:3" />
<path d="M1697.33,60.36c6.94,4.68,11.87,23.51,5.75,36.8c-2.7,5.86-6.29,0.7-7.2,0.04" style="fill:none;stroke:#999;stroke-width:3" />
<path d="M1697.42,64.78c0.05,0.34,0.11,0.88-0.1,1.37c-1.27,2.88-8.58,9.22-18.57,13.1" style="fill:none;stroke:#999;stroke-width:3" />
<path d="M1700.59,74.82c0.06,0.46,0.14,1.18-0.13,1.83c-1.57,3.87-11.38,11.32-23.68,16.52" style="fill:none;stroke:#999;stroke-width:3" />
<path d="M1718.04,58.4c0.03,0.25,0.07,0.66-0.07,1.03c-0.84,2.17-5.68,6.92-12.29,9.83" style="fill:none;stroke:#999;stroke-width:3" />
<path d="M1705.38,70.93c3.38,2.78,16.6,15.5,21.85,18.66c1.3,0.79,2.31,1.32,3.55,1.59" style="fill:none;stroke:#999;stroke-width:3" />
<path d="M1653.14,22.68c0.47,0.95,0.79,2.38,0.95,3.3c0.16,0.92,0.14,24.9-0.37,32.63c-0.72,11-2.47,25.08-7.97,35.72" style="fill:none;stroke:#999;stroke-width:3" />
<path d="M1655.03,24.25c1.89-0.06,10.94-2.34,12.35-2.46c2.52-0.23,3.15,1.31,3.15,2.67c0,3.23-0.04,44.72-0.04,63.05c0,12.61-5.32,3.55-6.93,2.04" style="fill:none;stroke:#999;stroke-width:3" />
<path d="M1654.6,42.65c4.15-0.35,11.74-1.54,15.38-1.57" style="fill:none;stroke:black;stroke-width:3" />
<circle cx="1654.6" cy="42.65" r="5" stroke-width="0" fill="#FF2A00" opacity="0.7" />
<path d="M1788.08,21.71c0.99,0.53,2.14,0.63,3.14,0.53c9.11-0.96,30.9-3.46,41.4-3.53c1.65-0.01,2.64,0.25,3.47,0.51" style="fill:none;stroke:#999;stroke-width:3" />
<path d="M1798.81,12.94c1.15,1.05,1.52,1.37,1.64,2.01c1.15,6.04,1.48,11.54,1.81,13.74" style="fill:none;stroke:#999;stroke-width:3" />
<path d="M1819.55,11.69c0.64,0.75,1.07,1.89,0.86,2.99c-0.64,3.36-1.84,8.97-2.77,13.26" style="fill:none;stroke:#999;stroke-width:3" />
<path d="M1788.92,32.04c0,3.38-3,12.68-4.17,14.93" style="fill:none;stroke:#999;stroke-width:3" />
<path d="M1788.68,35.76c17.07-1.82,42.42-3.37,43.92-3.48c9.77-0.7,3.56,5.91-0.1,9.13" style="fill:none;stroke:#999;stroke-width:3" />
<path d="M1797.44,43.47c0.81,0.41,2.29,0.43,3.1,0.41c4.43-0.12,12.56-1.19,19.95-2.39c1.34-0.22,2.54,0.19,3.21,0.4" style="fill:none;stroke:#999;stroke-width:3" />
<path d="M1787.26,52.42c1.23,0.62,3.48,0.65,4.72,0.62c8.42-0.24,28.47-2.84,39.35-3.16c2.05-0.06,3.28,0.29,4.31,0.6" style="fill:none;stroke:#999;stroke-width:3" />
<path d="M1807.4299999999998,53.5c0.06,0.31,0.12,0.8-0.12,1.24c-1.44,2.61-9.72,8.35-21.04,11.86" style="fill:none;stroke:#999;stroke-width:3" />
<path d="M1806.33,60.36c6.94,4.68,11.87,23.51,5.75,36.8c-2.7,5.86-6.29,0.7-7.2,0.04" style="fill:none;stroke:#999;stroke-width:3" />
<path d="M1806.42,64.78c0.05,0.34,0.11,0.88-0.1,1.37c-1.27,2.88-8.58,9.22-18.57,13.1" style="fill:none;stroke:#999;stroke-width:3" />
<path d="M1809.59,74.82c0.06,0.46,0.14,1.18-0.13,1.83c-1.57,3.87-11.38,11.32-23.68,16.52" style="fill:none;stroke:#999;stroke-width:3" />
<path d="M1827.04,58.4c0.03,0.25,0.07,0.66-0.07,1.03c-0.84,2.17-5.68,6.92-12.29,9.83" style="fill:none;stroke:#999;stroke-width:3" />
<path d="M1814.38,70.93c3.38,2.78,16.6,15.5,21.85,18.66c1.3,0.79,2.31,1.32,3.55,1.59" style="fill:none;stroke:#999;stroke-width:3" />
<path d="M1762.14,22.68c0.47,0.95,0.79,2.38,0.95,3.3c0.16,0.92,0.14,24.9-0.37,32.63c-0.72,11-2.47,25.08-7.97,35.72" style="fill:none;stroke:#999;stroke-width:3" />
<path d="M1764.03,24.25c1.89-0.06,10.94-2.34,12.35-2.46c2.52-0.23,3.15,1.31,3.15,2.67c0,3.23-0.04,44.72-0.04,63.05c0,12.61-5.32,3.55-6.93,2.04" style="fill:none;stroke:#999;stroke-width:3" />
<path d="M1763.6,42.65c4.15-0.35,11.74-1.54,15.38-1.57" style="fill:none;stroke:#999;stroke-width:3" />
<path d="M1762.68,59.09c3.42-0.08,11.35-0.78,15.99-1.2" style="fill:none;stroke:black;stroke-width:3" />
<circle cx="1762.68" cy="59.09" r="5" stroke-width="0" fill="#FF2A00" opacity="0.7" />
</svg>