<svg width="1417px" height="109px" viewBox="0 0 1417px 109px" xmlns="http://www.w3.org/2000/svg" xmlns:xlink="http://www.w3.org/1999/xlink" xml:space="preserve" version="1.1"  baseProfile="full">
<line x1="1" y1="1" x2="1416" y2="1" style="stroke:#ddd;stroke-width:2" />
<line x1="1" y1="1" x2="1" y2="108" style="stroke:#ddd;stroke-width:2" />
<line x1="1" y1="108" x2="1416" y2="108" style="stroke:#ddd;stroke-width:2" />
<line x1="1416" y1="1" x2="1416" y2="108" style="stroke:#ddd;stroke-width:2" />
<line x1="109" y1="1" x2="109" y2="108" style="stroke:#ddd;stroke-width:2" />
<line x1="218" y1="1" x2="218" y2="108" style="stroke:#ddd;stroke-width:2" />
<line x1="327" y1="1" x2="327" y2="108" style="stroke:#ddd;stroke-width:2" />
<line x1="436" y1="1" x2="436" y2="108" style="stroke:#ddd;stroke-width:2" />
<line x1="545" y1="1" x2="545" y2="108" style="stroke:#ddd;stroke-width:2" />
<line x1="654" y1="1" x2="654" y2="108" style="stroke:#ddd;stroke-width:2" />
<line x1="763" y1="1" x2="763" y2="108" style="stroke:#ddd;stroke-width:2" />
<line x1="872" y1="1" x2="872" y2="108" style="stroke:#ddd;stroke-width:2" />
<line x1="981" y1="1" x2="981" y2="108" style="stroke:#ddd;stroke-width:2" />
<line x1="1090" y1="1" x2="1090" y2="108" style="stroke:#ddd;stroke-width:2" />
<line x1="1199" y1="1" x2="1199" y2="108" style="stroke:#ddd;stroke-width:2" />
<line x1="1308" y1="1" x2="1308" y2="108" style="stroke:#ddd;stroke-width:2" />
<line x1="1" y1="54" x2="1416" y2="54" style="stroke:#ddd;stroke-width:2;stroke-dasharray:3 3" />
<line x1="55" y1="1" x2="55" y2="108" style="stroke:#ddd;stroke-width:2;stroke-dasharray:3 3" />
<line x1="164" y1="1" x2="164" y2="108" style="stroke:#ddd;stroke-width:2;stroke-dasharray:3 3" />
<line x1="273" y1="1" x2="273" y2="108" style="stroke:#ddd;stroke-width:2;stroke-dasharray:3 3" />
<line x1="382" y1="1" x2="382" y2="108" style="stroke:#ddd;stroke-width:2;stroke-dasharray:3 3" />
<line x1="491" y1="1" x2="491" y2="108" style="stroke:#ddd;stroke-width:2;stroke-dasharray:3 3" />
<line x1="600" y1="1" x2="600" y2="108" style="stroke:#ddd;stroke-width:2;stroke-dasharray:3 3" />
<line x1="709" y1="1" x2="709" y2="108" style="stroke:#ddd;stroke-width:2;stroke-dasharray:3 3" />
<line x1="818" y1="1" x2="818" y2="108" style="stroke:#ddd;stroke-width:2;stroke-dasharray:3 3" />
<line x1="927" y1="1" x2="927" y2="108" style="stroke:#ddd;stroke-width:2;stroke-dasharray:3 3" />
<line x1="1036" y1="1" x2="1036" y2="108" style="stroke:#ddd;stroke-width:2;stroke-dasharray:3 3" />
<line x1="1145" y1="1" x2="1145" y2="108" style="stroke:#ddd;stroke-width:2;stroke-dasharray:3 3" />
<line x1="1254" y1="1" x2="1254" y2="108" style="stroke:#ddd;stroke-width:2;stroke-dasharray:3 3" />
<line x1="1363" y1="1" x2="1363" y2="108" style="stroke:#ddd;stroke-width:2;stroke-dasharray:3 3" />
<path d="M13.28,40.22c0.35,0.24,2.39,0.41,3.31,0.31c3.94-0.41,16.12-1.71,22.45-2.91c0.92-0.17,1.15-0.24,1.73,0" style="fill:none;stroke:black;stroke-width:3" />
<circle cx="13.28" cy="40.22" r="5" stroke-width="0" fill="#FF2A00" opacity="0.7" />
<path d="M122.28,40.22c0.35,0.24,2.39,0.41,3.31,0.31c3.94-0.41,16.12-1.71,22.45-2.91c0.92-0.17,1.15-0.24,1.73,0" style="fill:none;stroke:#999;stroke-width:3" />
<path d="M137.86,15.5c0.91,0.47,2.54,2.25,2.54,4.42c0,0.95-0.12,71.75-0.3,77.58" style="fill:none;stroke:black;stroke-width:3" />
<circle cx="137.86" cy="15.5" r="5" stroke-width="0" fill="#FF2A00" opacity="0.7" />
<path d="M231.28,40.22c0.35,0.24,2.39,0.41,3.31,0.31c3.94-0.41,16.12-1.71,22.45-2.91c0.92-0.17,1.15-0.24,1.73,0" style="fill:none;stroke:#999;stroke-width:3" />
<path d="M246.86,15.5c0.91,0.47,2.54,2.25,2.54,4.42c0,0.95-0.12,71.75-0.3,77.58" style="fill:none;stroke:#999;stroke-width:3" />
<path d="M248.94,41.28c-5.34,15.04-8.31,21.4-16.58,34.56" style="fill:none;stroke:black;stroke-width:3" />
<circle cx="248.94" cy="41.28" r="5" stroke-width="0" fill="#FF2A00" opacity="0.7" />
<path d="M340.28,40.22c0.35,0.24,2.39,0.41,3.31,0.31c3.94-0.41,16.12-1.71,22.45-2.91c0.92-0.17,1.15-0.24,1.73,0" style="fill:none;stroke:#999;stroke-width:3" />
<path d="M355.86,15.5c0.91,0.47,2.54,2.25,2.54,4.42c0,0.95-0.12,71.75-0.3,77.58" style="fill:none;stroke:#999;stroke-width:3" />
<path d="M357.94,41.28c-5.34,15.04-8.31,21.4-16.58,34.56" style="fill:none;stroke:#999;stroke-width:3" />
<path d="M361.47,48.65c2.37,1.81,5.66,5.88,7.66,9.39" style="fill:none;stroke:black;stroke-width:3" />
<circle cx="361.47" cy="48.65" r="5" stroke-width="0" fill="#FF2A00" opacity="0.7" />
<path d="M449.28,40.22c0.35,0.24,2.39,0.41,3.31,0.31c3.94-0.41,16.12-1.71,22.45-2.91c0.92-0.17,1.15-0.24,1.73,0" style="fill:none;stroke:#999;stroke-width:3" />
<path d="M464.86,15.5c0.91,0.47,2.54,2.25,2.54,4.42c0,0.95-0.12,71.75-0.3,77.58" style="fill:none;stroke:#999;stroke-width:3" />
<path d="M466.94,41.28c-5.34,15.04-8.31,21.4-16.58,34.56" style="fill:none;stroke:#999;stroke-width:3" />
<path d="M470.47,48.65c2.37,1.81,5.66,5.88,7.66,9.39" style="fill:none;stroke:#999;stroke-width:3" />
<path d="M488.51,17.06c3.02,2.41,7.79,9.9,8.55,13.65" style="fill:none;stroke:black;stroke-width:3" />
<circle cx="488.51" cy="17.06" r="5" stroke-width="0" fill="#FF2A00" opacity="0.7" />
<path d="M558.28,40.22c0.35,0.24,2.39,0.41,3.31,0.31c3.94-0.41,16.12-1.71,22.45-2.91c0.92-0.17,1.15-0.24,1.73,0" style="fill:none;stroke:#999;stroke-width:3" />
<path d="M573.86,15.5c0.91,0.47,2.54,2.25,2.54,4.42c0,0.95-0.12,71.75-0.3,77.58" style="fill:none;stroke:#999;stroke-width:3" />
<path d="M575.94,41.28c-5.34,15.04-8.31,21.4-16.58,34.56" style="fill:none;stroke:#999;stroke-width:3" />
<path d="M579.47,48.65c2.37,1.81,5.66,5.88,7.66,9.39" style="fill:none;stroke:#999;stroke-width:3" />
<path d="M597.51,17.06c3.02,2.41,7.79,9.9,8.55,13.65" style="fill:none;stroke:#999;stroke-width:3" />
<path d="M628.66,13.21c0.02,0.38,0.04,0.99-0.04,1.54c-0.49,3.25-3.28,10.37-7.11,14.73" style="fill:none;stroke:black;stroke-width:3" />
<circle cx="628.66" cy="13.21" r="5" stroke-width="0" fill="#FF2A00" opacity="0.7" />
<path d="M667.28,40.22c0.35,0.24,2.39,0.41,3.31,0.31c3.94-0.41,16.12-1.71,22.45-2.91c0.92-0.17,1.15-0.24,1.73,0" style="fill:none;stroke:#999;stroke-width:3" />
<path d="M682.86,15.5c0.91,0.47,2.54,2.25,2.54,4.42c0,0.95-0.12,71.75-0.3,77.58" style="fill:none;stroke:#999;stroke-width:3" />
<path d="M684.94,41.28c-5.34,15.04-8.31,21.4-16.58,34.56" style="fill:none;stroke:#999;stroke-width:3" />
<path d="M688.47,48.65c2.37,1.81,5.66,5.88,7.66,9.39" style="fill:none;stroke:#999;stroke-width:3" />
<path d="M706.51,17.06c3.02,2.41,7.79,9.9,8.55,13.65" style="fill:none;stroke:#999;stroke-width:3" />
<path d="M737.66,13.21c0.02,0.38,0.04,0.99-0.04,1.54c-0.49,3.25-3.28,10.37-7.11,14.73" style="fill:none;stroke:#999;stroke-width:3" />
<path d="M699.84,35.93c0.98,0.44,2.77,0.48,3.76,0.44c8.9-0.37,33.9-3.87,43.13-4.52c1.63-0.12,2.62,0.21,3.43,0.43" style="fill:none;stroke:black;stroke-width:3" />
<circle cx="699.84" cy="35.93" r="5" stroke-width="0" fill="#FF2A00" opacity="0.7" />
<path d="M776.28,40.22c0.35,0.24,2.39,0.41,3.31,0.31c3.94-0.41,16.12-1.71,22.45-2.91c0.92-0.17,1.15-0.24,1.73,0" style="fill:none;stroke:#999;stroke-width:3" />
<path d="M791.86,15.5c0.91,0.47,2.54,2.25,2.54,4.42c0,0.95-0.12,71.75-0.3,77.58" style="fill:none;stroke:#999;stroke-width:3" />
<path d="M793.94,41.28c-5.34,15.04-8.31,21.4-16.58,34.56" style="fill:none;stroke:#999;stroke-width:3" />
<path d="M797.47,48.65c2.37,1.81,5.66,5.88,7.66,9.39" style="fill:none;stroke:#999;stroke-width:3" />
<path d="M815.51,17.06c3.02,2.41,7.79,9.9,8.55,13.65" style="fill:none;stroke:#999;stroke-width:3" />
<path d="M846.66,13.21c0.02,0.38,0.04,0.99-0.04,1.54c-0.49,3.25-3.28,10.37-7.11,14.73" style="fill:none;stroke:#999;stroke-width:3" />
<path d="M808.84,35.93c0.98,0.44,2.77,0.48,3.76,0.44c8.9-0.37,33.9-3.87,43.13-4.52c1.63-0.12,2.62,0.21,3.43,0.43" style="fill:none;stroke:#999;stroke-width:3" />
<path d="M813.21,48.89c0.53,0.62,0.74,2.1,0.74,2.93c0,0.82-0.35,44.79-0.35,45.2" style="fill:none;stroke:black;stroke-width:3" />
<circle cx="813.21" cy="48.89" r="5" stroke-width="0" fill="#FF2A00" opacity="0.7" />
<path d="M885.28,40.22c0.35,0.24,2.39,0.41,3.31,0.31c3.94-0.41,16.12-1.71,22.45-2.91c0.92-0.17,1.15-0.24,1.73,0" style="fill:none;stroke:#999;stroke-width:3" />
<path d="M900.86,15.5c0.91,0.47,2.54,2.25,2.54,4.42c0,0.95-0.12,71.75-0.3,77.58" style="fill:none;stroke:#999;stroke-width:3" />
<path d="M902.94,41.28c-5.34,15.04-8.31,21.4-16.58,34.56" style="fill:none;stroke:#999;stroke-width:3" />
<path d="M906.47,48.65c2.37,1.81,5.66,5.88,7.66,9.39" style="fill:none;stroke:#999;stroke-width:3" />
<path d="M924.51,17.06c3.02,2.41,7.79,9.9,8.55,13.65" style="fill:none;stroke:#999;stroke-width:3" />
<path d="M955.66,13.21c0.02,0.38,0.04,0.99-0.04,1.54c-0.49,3.25-3.28,10.37-7.11,14.73" style="fill:none;stroke:#999;stroke-width:3" />
<path d="M917.84,35.93c0.98,0.44,2.77,0.48,3.76,0.44c8.9-0.37,33.9-3.87,43.13-4.52c1.63-0.12,2.62,0.21,3.43,0.43" style="fill:none;stroke:#999;stroke-width:3" />
<path d="M922.21,48.89c0.53,0.62,0.74,2.1,0.74,2.93c0,0.82-0.35,44.79-0.35,45.2" style="fill:none;stroke:#999;stroke-width:3" />
<path d="M923.34,50.05c3.02-0.1,33.19-3.28,35.95-3.4c2.3-0.1,3.93,0.99,3.93,3.32c0,1.3-0.32,37.59-0.31,46.63" style="fill:none;stroke:black;stroke-width:3" />
<circle cx="923.34" cy="50.05" r="5" stroke-width="0" fill="#FF2A00" opacity="0.7" />
<path d="M994.28,40.22c0.35,0.24,2.39,0.41,3.31,0.31c3.94-0.41,16.12-1.71,22.45-2.91c0.92-0.17,1.15-0.24,1.73,0" style="fill:none;stroke:#999;stroke-width:3" />
<path d="M1009.86,15.5c0.91,0.47,2.54,2.25,2.54,4.42c0,0.95-0.12,71.75-0.3,77.58" style="fill:none;stroke:#999;stroke-width:3" />
<path d="M1011.94,41.28c-5.34,15.04-8.31,21.4-16.58,34.56" style="fill:none;stroke:#999;stroke-width:3" />
<path d="M1015.47,48.65c2.37,1.81,5.66,5.88,7.66,9.39" style="fill:none;stroke:#999;stroke-width:3" />
<path d="M1033.51,17.06c3.02,2.41,7.79,9.9,8.55,13.65" style="fill:none;stroke:#999;stroke-width:3" />
<path d="M1064.6599999999999,13.21c0.02,0.38,0.04,0.99-0.04,1.54c-0.49,3.25-3.28,10.37-7.11,14.73" style="fill:none;stroke:#999;stroke-width:3" />
<path d="M1026.8400000000001,35.93c0.98,0.44,2.77,0.48,3.76,0.44c8.9-0.37,33.9-3.87,43.13-4.52c1.63-0.12,2.62,0.21,3.43,0.43" style="fill:none;stroke:#999;stroke-width:3" />
<path d="M1031.21,48.89c0.53,0.62,0.74,2.1,0.74,2.93c0,0.82-0.35,44.79-0.35,45.2" style="fill:none;stroke:#999;stroke-width:3" />
<path d="M1032.3400000000001,50.05c3.02-0.1,33.19-3.28,35.95-3.4c2.3-0.1,3.93,0.99,3.93,3.32c0,1.3-0.32,37.59-0.31,46.63" style="fill:none;stroke:#999;stroke-width:3" />
<path d="M1044.42,36.24c0.92,0.96,0.62,2.28,0.62,3.61c0,16.91-0.61,25.72-9.34,31.42" style="fill:none;stroke:black;stroke-width:3" />
<circle cx="1044.42" cy="36.24" r="5" stroke-width="0" fill="#FF2A00" opacity="0.7" />
<path d="M1103.28,40.22c0.35,0.24,2.39,0.41,3.31,0.31c3.94-0.41,16.12-1.71,22.45-2.91c0.92-0.17,1.15-0.24,1.73,0" style="fill:none;stroke:#999;stroke-width:3" />
<path d="M1118.8600000000001,15.5c0.91,0.47,2.54,2.25,2.54,4.42c0,0.95-0.12,71.75-0.3,77.58" style="fill:none;stroke:#999;stroke-width:3" />
<path d="M1120.94,41.28c-5.34,15.04-8.31,21.4-16.58,34.56" style="fill:none;stroke:#999;stroke-width:3" />
<path d="M1124.47,48.65c2.37,1.81,5.66,5.88,7.66,9.39" style="fill:none;stroke:#999;stroke-width:3" />
<path d="M1142.51,17.06c3.02,2.41,7.79,9.9,8.55,13.65" style="fill:none;stroke:#999;stroke-width:3" />
<path d="M1173.6599999999999,13.21c0.02,0.38,0.04,0.99-0.04,1.54c-0.49,3.25-3.28,10.37-7.11,14.73" style="fill:none;stroke:#999;stroke-width:3" />
<path d="M1135.8400000000001,35.93c0.98,0.44,2.77,0.48,3.76,0.44c8.9-0.37,33.9-3.87,43.13-4.52c1.63-0.12,2.62,0.21,3.43,0.43" style="fill:none;stroke:#999;stroke-width:3" />
<path d="M1140.21,48.89c0.53,0.62,0.74,2.1,0.74,2.93c0,0.82-0.35,44.79-0.35,45.2" style="fill:none;stroke:#999;stroke-width:3" />
<path d="M1141.3400000000001,50.05c3.02-0.1,33.19-3.28,35.95-3.4c2.3-0.1,3.93,0.99,3.93,3.32c0,1.3-0.32,37.59-0.31,46.63" style="fill:none;stroke:#999;stroke-width:3" />
<path d="M1153.42,36.24c0.92,0.96,0.62,2.28,0.62,3.61c0,16.91-0.61,25.72-9.34,31.42" style="fill:none;stroke:#999;stroke-width:3" />
<path d="M1164.37,34.84c0.59,1.07,1.05,2.33,1.09,3.98c0.11,5.24-0.26,14.8-0.31,21.28c-0.04,5.62,1.65,6.32,7.22,6.32c3.54,0,7.06-0.7,7.46-1.33" style="fill:none;stroke:black;stroke-width:3" />
<circle cx="1164.37" cy="34.84" r="5" stroke-width="0" fill="#FF2A00" opacity="0.7" />
<path d="M1212.28,40.22c0.35,0.24,2.39,0.41,3.31,0.31c3.94-0.41,16.12-1.71,22.45-2.91c0.92-0.17,1.15-0.24,1.73,0" style="fill:none;stroke:#999;stroke-width:3" />
<path d="M1227.8600000000001,15.5c0.91,0.47,2.54,2.25,2.54,4.42c0,0.95-0.12,71.75-0.3,77.58" style="fill:none;stroke:#999;stroke-width:3" />
<path d="M1229.94,41.28c-5.34,15.04-8.31,21.4-16.58,34.56" style="fill:none;stroke:#999;stroke-width:3" />
<path d="M1233.47,48.65c2.37,1.81,5.66,5.88,7.66,9.39" style="fill:none;stroke:#999;stroke-width:3" />
<path d="M1251.51,17.06c3.02,2.41,7.79,9.9,8.55,13.65" style="fill:none;stroke:#999;stroke-width:3" />
<path d="M1282.6599999999999,13.21c0.02,0.38,0.04,0.99-0.04,1.54c-0.49,3.25-3.28,10.37-7.11,14.73" style="fill:none;stroke:#999;stroke-width:3" />
<path d="M1244.8400000000001,35.93c0.98,0.44,2.77,0.48,3.76,0.44c8.9-0.37,33.9-3.87,43.13-4.52c1.63-0.12,2.62,0.21,3.43,0.43" style="fill:none;stroke:#999;stroke-width:3" />
<path d="M1249.21,48.89c0.53,0.62,0.74,2.1,0.74,2.93c0,0.82-0.35,44.79-0.35,45.2" style="fill:none;stroke:#999;stroke-width:3" />
<path d="M1250.3400000000001,50.05c3.02-0.1,33.19-3.28,35.95-3.4c2.3-0.1,3.93,0.99,3.93,3.32c0,1.3-0.32,37.59-0.31,46.63" style="fill:none;stroke:#999;stroke-width:3" />
<path d="M1262.42,36.24c0.92,0.96,0.62,2.28,0.62,3.61c0,16.91-0.61,25.72-9.34,31.42" style="fill:none;stroke:#999;stroke-width:3" />
<path d="M1273.37,34.84c0.59,1.07,1.05,2.33,1.09,3.98c0.11,5.24-0.26,14.8-0.31,21.28c-0.04,5.62,1.65,6.32,7.22,6.32c3.54,0,7.06-0.7,7.46-1.33" style="fill:none;stroke:#999;stroke-width:3" />
<path d="M1250.56,81.29c4.09,0,34.88-2.37,39.51-2.37" style="fill:none;stroke:black;stroke-width:3" />
<circle cx="1250.56" cy="81.29" r="5" stroke-width="0" fill="#FF2A00" opacity="0.7" />
<path d="M1321.28,40.22c0.35,0.24,2.39,0.41,3.31,0.31c3.94-0.41,16.12-1.71,22.45-2.91c0.92-0.17,1.15-0.24,1.73,0" style="fill:none;stroke:#999;stroke-width:3" />
<path d="M1336.8600000000001,15.5c0.91,0.47,2.54,2.25,2.54,4.42c0,0.95-0.12,71.75-0.3,77.58" style="fill:none;stroke:#999;stroke-width:3" />
<path d="M1338.94,41.28c-5.34,15.04-8.31,21.4-16.58,34.56" style="fill:none;stroke:#999;stroke-width:3" />
<path d="M1342.47,48.65c2.37,1.81,5.66,5.88,7.66,9.39" style="fill:none;stroke:#999;stroke-width:3" />
<path d="M1360.51,17.06c3.02,2.41,7.79,9.9,8.55,13.65" style="fill:none;stroke:#999;stroke-width:3" />
<path d="M1391.6599999999999,13.21c0.02,0.38,0.04,0.99-0.04,1.54c-0.49,3.25-3.28,10.37-7.11,14.73" style="fill:none;stroke:#999;stroke-width:3" />
<path d="M1353.8400000000001,35.93c0.98,0.44,2.77,0.48,3.76,0.44c8.9-0.37,33.9-3.87,43.13-4.52c1.63-0.12,2.62,0.21,3.43,0.43" style="fill:none;stroke:#999;stroke-width:3" />
<path d="M1358.21,48.89c0.53,0.62,0.74,2.1,0.74,2.93c0,0.82-0.35,44.79-0.35,45.2" style="fill:none;stroke:#999;stroke-width:3" />
<path d="M1359.3400000000001,50.05c3.02-0.1,33.19-3.28,35.95-3.4c2.3-0.1,3.93,0.99,3.93,3.32c0,1.3-0.32,37.59-0.31,46.63" style="fill:none;stroke:#999;stroke-width:3" />
<path d="M1371.42,36.24c0.92,0.96,0.62,2.28,0.62,3.61c0,16.91-0.61,25.72-9.34,31.42" style="fill:none;stroke:#999;stroke-width:3" />
<path d="M1382.37,34.84c0.59,1.07,1.05,2.33,1.09,3.98c0.11,5.24-0.26,14.8-0.31,21.28c-0.04,5.62,1.65,6.32,7.22,6.32c3.54,0,7.06-0.7,7.46-1.33" style="fill:none;stroke:#999;stroke-width:3" />
<path d="M1359.56,81.29c4.09,0,34.88-2.37,39.51-2.37" style="fill:none;stroke:#999;stroke-width:3" />
<path d="M1359.28,94.34c8.34-0.47,28.49-1.75,38.87-2.15" style="fill:none;stroke:black;stroke-width:3" />
<circle cx="1359.28" cy="94.34" r="5" stroke-width="0" fill="#FF2A00" opacity="0.7" />
</svg>