<svg width="1526px" height="109px" viewBox="0 0 1526px 109px" xmlns="http://www.w3.org/2000/svg" xmlns:xlink="http://www.w3.org/1999/xlink" xml:space="preserve" version="1.1"  baseProfile="full">
<line x1="1" y1="1" x2="1525" y2="1" style="stroke:#ddd;stroke-width:2" />
<line x1="1" y1="1" x2="1" y2="108" style="stroke:#ddd;stroke-width:2" />
<line x1="1" y1="108" x2="1525" y2="108" style="stroke:#ddd;stroke-width:2" />
<line x1="1525" y1="1" x2="1525" y2="108" style="stroke:#ddd;stroke-width:2" />
<line x1="109" y1="1" x2="109" y2="108" style="stroke:#ddd;stroke-width:2" />
<line x1="218" y1="1" x2="218" y2="108" style="stroke:#ddd;stroke-width:2" />
<line x1="327" y1="1" x2="327" y2="108" style="stroke:#ddd;stroke-width:2" />
<line x1="436" y1="1" x2="436" y2="108" style="stroke:#ddd;stroke-width:2" />
<line x1="545" y1="1" x2="545" y2="108" style="stroke:#ddd;stroke-width:2" />
<line x1="654" y1="1" x2="654" y2="108" style="stroke:#ddd;stroke-width:2" />
<line x1="763" y1="1" x2="763" y2="108" style="stroke:#ddd;stroke-width:2" />
<line x1="872" y1="1" x2="872" y2="108" style="stroke:#ddd;stroke-width:2" />
<line x1="981" y1="1" x2="981" y2="108" style="stroke:#ddd;stroke-width:2" />
<line x1="1090" y1="1" x2="1090" y2="108" style="stroke:#ddd;stroke-width:2" />
<line x1="1199" y1="1" x2="1199" y2="108" style="stroke:#ddd;stroke-width:2" />
<line x1="1308" y1="1" x2="1308" y2="108" style="stroke:#ddd;stroke-width:2" />
<line x1="1417" y1="1" x2="1417" y2="108" style="stroke:#ddd;stroke-width:2" />
<line x1="1" y1="54" x2="1525" y2="54" style="stroke:#ddd;stroke-width:2;stroke-dasharray:3 3" />
<line x1="55" y1="1" x2="55" y2="108" style="stroke:#ddd;stroke-width:2;stroke-dasharray:3 3" />
<line x1="164" y1="1" x2="164" y2="108" style="stroke:#ddd;stroke-width:2;stroke-dasharray:3 3" />
<line x1="273" y1="1" x2="273" y2="108" style="stroke:#ddd;stroke-width:2;stroke-dasharray:3 3" />
<line x1="382" y1="1" x2="382" y2="108" style="stroke:#ddd;stroke-width:2;stroke-dasharray:3 3" />
<line x1="491" y1="1" x2="491" y2="108" style="stroke:#ddd;stroke-width:2;stroke-dasharray:3 3" />
<line x1="600" y1="1" x2="600" y2="108" style="stroke:#ddd;stroke-width:2;stroke-dasharray:3 3" />
<line x1="709" y1="1" x2="709" y2="108" style="stroke:#ddd;stroke-width:2;stroke-dasharray:3 3" />
<line x1="818" y1="1" x2="818" y2="108" style="stroke:#ddd;stroke-width:2;stroke-dasharray:3 3" />
<line x1="927" y1="1" x2="927" y2="108" style="stroke:#ddd;stroke-width:2;stroke-dasharray:3 3" />
<line x1="1036" y1="1" x2="1036" y2="108" style="stroke:#ddd;stroke-width:2;stroke-dasharray:3 3" />
<line x1="1145" y1="1" x2="1145" y2="108" style="stroke:#ddd;stroke-width:2;stroke-dasharray:3 3" />
<line x1="1254" y1="1" x2="1254" y2="108" style="stroke:#ddd;stroke-width:2;stroke-dasharray:3 3" />
<line x1="1363" y1="1" x2="1363" y2="108" style="stroke:#ddd;stroke-width:2;stroke-dasharray:3 3" />
<line x1="1472" y1="1" x2="1472" y2="108" style="stroke:#ddd;stroke-width:2;stroke-dasharray:3 3" />
<path d="M11.28,37.72c0.35,0.24,2.39,0.41,3.31,0.31c3.94-0.41,15.12-2.21,21.45-3.41c0.92-0.17,1.15-0.24,1.73,0" style="fill:none;stroke:black;stroke-width:3" />
<circle cx="11.28" cy="37.72" r="5" stroke-width="0" fill="#FF2A00" opacity="0.7" />
<path d="M120.28,37.72c0.35,0.24,2.39,0.41,3.31,0.31c3.94-0.41,15.12-2.21,21.45-3.41c0.92-0.17,1.15-0.24,1.73,0" style="fill:none;stroke:#999;stroke-width:3" />
<path d="M133.86,14.5c0.91,0.47,2.54,2,2.54,4.42c0,0.95-0.12,71.25-0.3,77.08" style="fill:none;stroke:black;stroke-width:3" />
<circle cx="133.86" cy="14.5" r="5" stroke-width="0" fill="#FF2A00" opacity="0.7" />
<path d="M229.28,37.72c0.35,0.24,2.39,0.41,3.31,0.31c3.94-0.41,15.12-2.21,21.45-3.41c0.92-0.17,1.15-0.24,1.73,0" style="fill:none;stroke:#999;stroke-width:3" />
<path d="M242.86,14.5c0.91,0.47,2.54,2,2.54,4.42c0,0.95-0.12,71.25-0.3,77.08" style="fill:none;stroke:#999;stroke-width:3" />
<path d="M244.94,39.28c-4.86,15.69-7.56,22.32-15.08,36.06" style="fill:none;stroke:black;stroke-width:3" />
<circle cx="244.94" cy="39.28" r="5" stroke-width="0" fill="#FF2A00" opacity="0.7" />
<path d="M338.28,37.72c0.35,0.24,2.39,0.41,3.31,0.31c3.94-0.41,15.12-2.21,21.45-3.41c0.92-0.17,1.15-0.24,1.73,0" style="fill:none;stroke:#999;stroke-width:3" />
<path d="M351.86,14.5c0.91,0.47,2.54,2,2.54,4.42c0,0.95-0.12,71.25-0.3,77.08" style="fill:none;stroke:#999;stroke-width:3" />
<path d="M353.94,39.28c-4.86,15.69-7.56,22.32-15.08,36.06" style="fill:none;stroke:#999;stroke-width:3" />
<path d="M356.97,45.15c2.53,1.84,6.03,5.83,8.16,9.39" style="fill:none;stroke:black;stroke-width:3" />
<circle cx="356.97" cy="45.15" r="5" stroke-width="0" fill="#FF2A00" opacity="0.7" />
<path d="M447.28,37.72c0.35,0.24,2.39,0.41,3.31,0.31c3.94-0.41,15.12-2.21,21.45-3.41c0.92-0.17,1.15-0.24,1.73,0" style="fill:none;stroke:#999;stroke-width:3" />
<path d="M460.86,14.5c0.91,0.47,2.54,2,2.54,4.42c0,0.95-0.12,71.25-0.3,77.08" style="fill:none;stroke:#999;stroke-width:3" />
<path d="M462.94,39.28c-4.86,15.69-7.56,22.32-15.08,36.06" style="fill:none;stroke:#999;stroke-width:3" />
<path d="M465.97,45.15c2.53,1.84,6.03,5.83,8.16,9.39" style="fill:none;stroke:#999;stroke-width:3" />
<path d="M495.12,17.34c0.93,0.6,2.2,1.16,3.26,1.1c1.21-0.06,18.31-3.62,24.45-4.65C527.5,13,528.0,14.25,524.84,17.03c-1.2,1.05-10.59,8.22-14.2,10.4" style="fill:none;stroke:black;stroke-width:3" />
<circle cx="495.12" cy="17.34" r="5" stroke-width="0" fill="#FF2A00" opacity="0.7" />
<path d="M556.28,37.72c0.35,0.24,2.39,0.41,3.31,0.31c3.94-0.41,15.12-2.21,21.45-3.41c0.92-0.17,1.15-0.24,1.73,0" style="fill:none;stroke:#999;stroke-width:3" />
<path d="M569.86,14.5c0.91,0.47,2.54,2,2.54,4.42c0,0.95-0.12,71.25-0.3,77.08" style="fill:none;stroke:#999;stroke-width:3" />
<path d="M571.94,39.28c-4.86,15.69-7.56,22.32-15.08,36.06" style="fill:none;stroke:#999;stroke-width:3" />
<path d="M574.97,45.15c2.53,1.84,6.03,5.83,8.16,9.39" style="fill:none;stroke:#999;stroke-width:3" />
<path d="M604.12,17.34c0.93,0.6,2.2,1.16,3.26,1.1c1.21-0.06,18.31-3.62,24.45-4.65C636.5,13,637.0,14.25,633.84,17.03c-1.2,1.05-10.59,8.22-14.2,10.4" style="fill:none;stroke:#999;stroke-width:3" />
<path d="M613.65,24c2.4,0.97,8.6,4.71,9.73,7.25" style="fill:none;stroke:black;stroke-width:3" />
<circle cx="613.65" cy="24.0" r="5" stroke-width="0" fill="#FF2A00" opacity="0.7" />
<path d="M665.28,37.72c0.35,0.24,2.39,0.41,3.31,0.31c3.94-0.41,15.12-2.21,21.45-3.41c0.92-0.17,1.15-0.24,1.73,0" style="fill:none;stroke:#999;stroke-width:3" />
<path d="M678.86,14.5c0.91,0.47,2.54,2,2.54,4.42c0,0.95-0.12,71.25-0.3,77.08" style="fill:none;stroke:#999;stroke-width:3" />
<path d="M680.94,39.28c-4.86,15.69-7.56,22.32-15.08,36.06" style="fill:none;stroke:#999;stroke-width:3" />
<path d="M683.97,45.15c2.53,1.84,6.03,5.83,8.16,9.39" style="fill:none;stroke:#999;stroke-width:3" />
<path d="M713.12,17.34c0.93,0.6,2.2,1.16,3.26,1.1c1.21-0.06,18.31-3.62,24.45-4.65C745.5,13,746.0,14.25,742.84,17.03c-1.2,1.05-10.59,8.22-14.2,10.4" style="fill:none;stroke:#999;stroke-width:3" />
<path d="M722.65,24c2.4,0.97,8.6,4.71,9.73,7.25" style="fill:none;stroke:#999;stroke-width:3" />
<path d="M715.54,36.38c0.43,0.58,0.72,1.16,0.86,1.74c0.14,0.58,0.14,40.79,0.14,42.1" style="fill:none;stroke:black;stroke-width:3" />
<circle cx="715.54" cy="36.38" r="5" stroke-width="0" fill="#FF2A00" opacity="0.7" />
<path d="M774.28,37.72c0.35,0.24,2.39,0.41,3.31,0.31c3.94-0.41,15.12-2.21,21.45-3.41c0.92-0.17,1.15-0.24,1.73,0" style="fill:none;stroke:#999;stroke-width:3" />
<path d="M787.86,14.5c0.91,0.47,2.54,2,2.54,4.42c0,0.95-0.12,71.25-0.3,77.08" style="fill:none;stroke:#999;stroke-width:3" />
<path d="M789.94,39.28c-4.86,15.69-7.56,22.32-15.08,36.06" style="fill:none;stroke:#999;stroke-width:3" />
<path d="M792.97,45.15c2.53,1.84,6.03,5.83,8.16,9.39" style="fill:none;stroke:#999;stroke-width:3" />
<path d="M822.12,17.34c0.93,0.6,2.2,1.16,3.26,1.1c1.21-0.06,18.31-3.62,24.45-4.65C854.5,13,855.0,14.25,851.84,17.03c-1.2,1.05-10.59,8.22-14.2,10.4" style="fill:none;stroke:#999;stroke-width:3" />
<path d="M831.65,24c2.4,0.97,8.6,4.71,9.73,7.25" style="fill:none;stroke:#999;stroke-width:3" />
<path d="M824.54,36.38c0.43,0.58,0.72,1.16,0.86,1.74c0.14,0.58,0.14,40.79,0.14,42.1" style="fill:none;stroke:#999;stroke-width:3" />
<path d="M826.26,37.52c4.83-0.24,26.25-3.25,27.54-3.41c2.3-0.29,3.16,1.89,2.87,2.76c-0.28,0.84-0.43,28.56-0.43,40.34c0,7.54-4.49,1.25-5.4,0.75" style="fill:none;stroke:black;stroke-width:3" />
<circle cx="826.26" cy="37.52" r="5" stroke-width="0" fill="#FF2A00" opacity="0.7" />
<path d="M883.28,37.72c0.35,0.24,2.39,0.41,3.31,0.31c3.94-0.41,15.12-2.21,21.45-3.41c0.92-0.17,1.15-0.24,1.73,0" style="fill:none;stroke:#999;stroke-width:3" />
<path d="M896.86,14.5c0.91,0.47,2.54,2,2.54,4.42c0,0.95-0.12,71.25-0.3,77.08" style="fill:none;stroke:#999;stroke-width:3" />
<path d="M898.94,39.28c-4.86,15.69-7.56,22.32-15.08,36.06" style="fill:none;stroke:#999;stroke-width:3" />
<path d="M901.97,45.15c2.53,1.84,6.03,5.83,8.16,9.39" style="fill:none;stroke:#999;stroke-width:3" />
<path d="M931.12,17.34c0.93,0.6,2.2,1.16,3.26,1.1c1.21-0.06,18.31-3.62,24.45-4.65C963.5,13,964.0,14.25,960.84,17.03c-1.2,1.05-10.59,8.22-14.2,10.4" style="fill:none;stroke:#999;stroke-width:3" />
<path d="M940.65,24c2.4,0.97,8.6,4.71,9.73,7.25" style="fill:none;stroke:#999;stroke-width:3" />
<path d="M933.54,36.38c0.43,0.58,0.72,1.16,0.86,1.74c0.14,0.58,0.14,40.79,0.14,42.1" style="fill:none;stroke:#999;stroke-width:3" />
<path d="M935.26,37.52c4.83-0.24,26.25-3.25,27.54-3.41c2.3-0.29,3.16,1.89,2.87,2.76c-0.28,0.84-0.43,28.56-0.43,40.34c0,7.54-4.49,1.25-5.4,0.75" style="fill:none;stroke:#999;stroke-width:3" />
<path d="M935.26,49.58c8.35-1.51,23.99-2.44,29.9-2.76" style="fill:none;stroke:black;stroke-width:3" />
<circle cx="935.26" cy="49.58" r="5" stroke-width="0" fill="#FF2A00" opacity="0.7" />
<path d="M992.28,37.72c0.35,0.24,2.39,0.41,3.31,0.31c3.94-0.41,15.12-2.21,21.45-3.41c0.92-0.17,1.15-0.24,1.73,0" style="fill:none;stroke:#999;stroke-width:3" />
<path d="M1005.86,14.5c0.91,0.47,2.54,2,2.54,4.42c0,0.95-0.12,71.25-0.3,77.08" style="fill:none;stroke:#999;stroke-width:3" />
<path d="M1007.94,39.28c-4.86,15.69-7.56,22.32-15.08,36.06" style="fill:none;stroke:#999;stroke-width:3" />
<path d="M1010.97,45.15c2.53,1.84,6.03,5.83,8.16,9.39" style="fill:none;stroke:#999;stroke-width:3" />
<path d="M1040.12,17.34c0.93,0.6,2.2,1.16,3.26,1.1c1.21-0.06,18.31-3.62,24.45-4.65C1072.5,13,1073.0,14.25,1069.8400000000001,17.03c-1.2,1.05-10.59,8.22-14.2,10.4" style="fill:none;stroke:#999;stroke-width:3" />
<path d="M1049.65,24c2.4,0.97,8.6,4.71,9.73,7.25" style="fill:none;stroke:#999;stroke-width:3" />
<path d="M1042.54,36.38c0.43,0.58,0.72,1.16,0.86,1.74c0.14,0.58,0.14,40.79,0.14,42.1" style="fill:none;stroke:#999;stroke-width:3" />
<path d="M1044.26,37.52c4.83-0.24,26.25-3.25,27.54-3.41c2.3-0.29,3.16,1.89,2.87,2.76c-0.28,0.84-0.43,28.56-0.43,40.34c0,7.54-4.49,1.25-5.4,0.75" style="fill:none;stroke:#999;stroke-width:3" />
<path d="M1044.26,49.58c8.35-1.51,23.99-2.44,29.9-2.76" style="fill:none;stroke:#999;stroke-width:3" />
<path d="M1044.06,61.83c6.69-1.11,24.72-2.25,30.03-2.54" style="fill:none;stroke:black;stroke-width:3" />
<circle cx="1044.06" cy="61.83" r="5" stroke-width="0" fill="#FF2A00" opacity="0.7" />
<path d="M1101.28,37.72c0.35,0.24,2.39,0.41,3.31,0.31c3.94-0.41,15.12-2.21,21.45-3.41c0.92-0.17,1.15-0.24,1.73,0" style="fill:none;stroke:#999;stroke-width:3" />
<path d="M1114.8600000000001,14.5c0.91,0.47,2.54,2,2.54,4.42c0,0.95-0.12,71.25-0.3,77.08" style="fill:none;stroke:#999;stroke-width:3" />
<path d="M1116.94,39.28c-4.86,15.69-7.56,22.32-15.08,36.06" style="fill:none;stroke:#999;stroke-width:3" />
<path d="M1119.97,45.15c2.53,1.84,6.03,5.83,8.16,9.39" style="fill:none;stroke:#999;stroke-width:3" />
<path d="M1149.12,17.34c0.93,0.6,2.2,1.16,3.26,1.1c1.21-0.06,18.31-3.62,24.45-4.65C1181.5,13,1182.0,14.25,1178.8400000000001,17.03c-1.2,1.05-10.59,8.22-14.2,10.4" style="fill:none;stroke:#999;stroke-width:3" />
<path d="M1158.65,24c2.4,0.97,8.6,4.71,9.73,7.25" style="fill:none;stroke:#999;stroke-width:3" />
<path d="M1151.54,36.38c0.43,0.58,0.72,1.16,0.86,1.74c0.14,0.58,0.14,40.79,0.14,42.1" style="fill:none;stroke:#999;stroke-width:3" />
<path d="M1153.26,37.52c4.83-0.24,26.25-3.25,27.54-3.41c2.3-0.29,3.16,1.89,2.87,2.76c-0.28,0.84-0.43,28.56-0.43,40.34c0,7.54-4.49,1.25-5.4,0.75" style="fill:none;stroke:#999;stroke-width:3" />
<path d="M1153.26,49.58c8.35-1.51,23.99-2.44,29.9-2.76" style="fill:none;stroke:#999;stroke-width:3" />
<path d="M1153.06,61.83c6.69-1.11,24.72-2.25,30.03-2.54" style="fill:none;stroke:#999;stroke-width:3" />
<path d="M1166.3,37.6c0.57,0.28,0.91,1.26,1.02,1.82c0.11,0.56,0,36.79-0.11,40.29" style="fill:none;stroke:black;stroke-width:3" />
<circle cx="1166.3" cy="37.6" r="5" stroke-width="0" fill="#FF2A00" opacity="0.7" />
<path d="M1210.28,37.72c0.35,0.24,2.39,0.41,3.31,0.31c3.94-0.41,15.12-2.21,21.45-3.41c0.92-0.17,1.15-0.24,1.73,0" style="fill:none;stroke:#999;stroke-width:3" />
<path d="M1223.8600000000001,14.5c0.91,0.47,2.54,2,2.54,4.42c0,0.95-0.12,71.25-0.3,77.08" style="fill:none;stroke:#999;stroke-width:3" />
<path d="M1225.94,39.28c-4.86,15.69-7.56,22.32-15.08,36.06" style="fill:none;stroke:#999;stroke-width:3" />
<path d="M1228.97,45.15c2.53,1.84,6.03,5.83,8.16,9.39" style="fill:none;stroke:#999;stroke-width:3" />
<path d="M1258.12,17.34c0.93,0.6,2.2,1.16,3.26,1.1c1.21-0.06,18.31-3.62,24.45-4.65C1290.5,13,1291.0,14.25,1287.8400000000001,17.03c-1.2,1.05-10.59,8.22-14.2,10.4" style="fill:none;stroke:#999;stroke-width:3" />
<path d="M1267.65,24c2.4,0.97,8.6,4.71,9.73,7.25" style="fill:none;stroke:#999;stroke-width:3" />
<path d="M1260.54,36.38c0.43,0.58,0.72,1.16,0.86,1.74c0.14,0.58,0.14,40.79,0.14,42.1" style="fill:none;stroke:#999;stroke-width:3" />
<path d="M1262.26,37.52c4.83-0.24,26.25-3.25,27.54-3.41c2.3-0.29,3.16,1.89,2.87,2.76c-0.28,0.84-0.43,28.56-0.43,40.34c0,7.54-4.49,1.25-5.4,0.75" style="fill:none;stroke:#999;stroke-width:3" />
<path d="M1262.26,49.58c8.35-1.51,23.99-2.44,29.9-2.76" style="fill:none;stroke:#999;stroke-width:3" />
<path d="M1262.06,61.83c6.69-1.11,24.72-2.25,30.03-2.54" style="fill:none;stroke:#999;stroke-width:3" />
<path d="M1275.3,37.6c0.57,0.28,0.91,1.26,1.02,1.82c0.11,0.56,0,36.79-0.11,40.29" style="fill:none;stroke:#999;stroke-width:3" />
<path d="M1242.55,25.75c2.94,1.31,7.58,5.38,8.32,7.42" style="fill:none;stroke:black;stroke-width:3" />
<circle cx="1242.55" cy="25.75" r="5" stroke-width="0" fill="#FF2A00" opacity="0.7" />
<path d="M1319.28,37.72c0.35,0.24,2.39,0.41,3.31,0.31c3.94-0.41,15.12-2.21,21.45-3.41c0.92-0.17,1.15-0.24,1.73,0" style="fill:none;stroke:#999;stroke-width:3" />
<path d="M1332.8600000000001,14.5c0.91,0.47,2.54,2,2.54,4.42c0,0.95-0.12,71.25-0.3,77.08" style="fill:none;stroke:#999;stroke-width:3" />
<path d="M1334.94,39.28c-4.86,15.69-7.56,22.32-15.08,36.06" style="fill:none;stroke:#999;stroke-width:3" />
<path d="M1337.97,45.15c2.53,1.84,6.03,5.83,8.16,9.39" style="fill:none;stroke:#999;stroke-width:3" />
<path d="M1367.12,17.34c0.93,0.6,2.2,1.16,3.26,1.1c1.21-0.06,18.31-3.62,24.45-4.65C1399.5,13,1400.0,14.25,1396.8400000000001,17.03c-1.2,1.05-10.59,8.22-14.2,10.4" style="fill:none;stroke:#999;stroke-width:3" />
<path d="M1376.65,24c2.4,0.97,8.6,4.71,9.73,7.25" style="fill:none;stroke:#999;stroke-width:3" />
<path d="M1369.54,36.38c0.43,0.58,0.72,1.16,0.86,1.74c0.14,0.58,0.14,40.79,0.14,42.1" style="fill:none;stroke:#999;stroke-width:3" />
<path d="M1371.26,37.52c4.83-0.24,26.25-3.25,27.54-3.41c2.3-0.29,3.16,1.89,2.87,2.76c-0.28,0.84-0.43,28.56-0.43,40.34c0,7.54-4.49,1.25-5.4,0.75" style="fill:none;stroke:#999;stroke-width:3" />
<path d="M1371.26,49.58c8.35-1.51,23.99-2.44,29.9-2.76" style="fill:none;stroke:#999;stroke-width:3" />
<path d="M1371.06,61.83c6.69-1.11,24.72-2.25,30.03-2.54" style="fill:none;stroke:#999;stroke-width:3" />
<path d="M1384.3,37.6c0.57,0.28,0.91,1.26,1.02,1.82c0.11,0.56,0,36.79-0.11,40.29" style="fill:none;stroke:#999;stroke-width:3" />
<path d="M1351.55,25.75c2.94,1.31,7.58,5.38,8.32,7.42" style="fill:none;stroke:#999;stroke-width:3" />
<path d="M1346.25,60.47c2.31,0.87,3.85,0.43,4.87,0.22c1.03-0.22,8.7-3.78,10.24-4.22c1.54-0.43,2.35,1.09,1.32,2.39c-1.03,1.3-5.1,7.3-5.87,8.39c-0.77,1.09-0.51,3.04,1.03,4.57c1.54,1.52,3.32,2.76,4.09,4.06c0.77,1.3,0.77,2.39-0.77,3.48c-1.54,1.09-9.23,7.17-10.77,7.61" style="fill:none;stroke:black;stroke-width:3" />
<circle cx="1346.25" cy="60.47" r="5" stroke-width="0" fill="#FF2A00" opacity="0.7" />
<path d="M1428.28,37.72c0.35,0.24,2.39,0.41,3.31,0.31c3.94-0.41,15.12-2.21,21.45-3.41c0.92-0.17,1.15-0.24,1.73,0" style="fill:none;stroke:#999;stroke-width:3" />
<path d="M1441.8600000000001,14.5c0.91,0.47,2.54,2,2.54,4.42c0,0.95-0.12,71.25-0.3,77.08" style="fill:none;stroke:#999;stroke-width:3" />
<path d="M1443.94,39.28c-4.86,15.69-7.56,22.32-15.08,36.06" style="fill:none;stroke:#999;stroke-width:3" />
<path d="M1446.97,45.15c2.53,1.84,6.03,5.83,8.16,9.39" style="fill:none;stroke:#999;stroke-width:3" />
<path d="M1476.12,17.34c0.93,0.6,2.2,1.16,3.26,1.1c1.21-0.06,18.31-3.62,24.45-4.65C1508.5,13,1509.0,14.25,1505.8400000000001,17.03c-1.2,1.05-10.59,8.22-14.2,10.4" style="fill:none;stroke:#999;stroke-width:3" />
<path d="M1485.65,24c2.4,0.97,8.6,4.71,9.73,7.25" style="fill:none;stroke:#999;stroke-width:3" />
<path d="M1478.54,36.38c0.43,0.58,0.72,1.16,0.86,1.74c0.14,0.58,0.14,40.79,0.14,42.1" style="fill:none;stroke:#999;stroke-width:3" />
<path d="M1480.26,37.52c4.83-0.24,26.25-3.25,27.54-3.41c2.3-0.29,3.16,1.89,2.87,2.76c-0.28,0.84-0.43,28.56-0.43,40.34c0,7.54-4.49,1.25-5.4,0.75" style="fill:none;stroke:#999;stroke-width:3" />
<path d="M1480.26,49.58c8.35-1.51,23.99-2.44,29.9-2.76" style="fill:none;stroke:#999;stroke-width:3" />
<path d="M1480.06,61.83c6.69-1.11,24.72-2.25,30.03-2.54" style="fill:none;stroke:#999;stroke-width:3" />
<path d="M1493.3,37.6c0.57,0.28,0.91,1.26,1.02,1.82c0.11,0.56,0,36.79-0.11,40.29" style="fill:none;stroke:#999;stroke-width:3" />
<path d="M1460.55,25.75c2.94,1.31,7.58,5.38,8.32,7.42" style="fill:none;stroke:#999;stroke-width:3" />
<path d="M1455.25,60.47c2.31,0.87,3.85,0.43,4.87,0.22c1.03-0.22,8.7-3.78,10.24-4.22c1.54-0.43,2.35,1.09,1.32,2.39c-1.03,1.3-5.1,7.3-5.87,8.39c-0.77,1.09-0.51,3.04,1.03,4.57c1.54,1.52,3.32,2.76,4.09,4.06c0.77,1.3,0.77,2.39-0.77,3.48c-1.54,1.09-9.23,7.17-10.77,7.61" style="fill:none;stroke:#999;stroke-width:3" />
<path d="M1456.26,87.36c2.19-0.24,6.58-0.85,9.88-0.36c3.29,0.48,22,3.73,25.24,4.36c8.78,1.69,15.54,2.18,22.13,1.33" style="fill:none;stroke:black;stroke-width:3" />
<circle cx="1456.26" cy="87.36" r="5" stroke-width="0" fill="#FF2A00" opacity="0.7" />
</svg>