<svg width="1526px" height="109px" viewBox="0 0 1526px 109px" xmlns="http://www.w3.org/2000/svg" xmlns:xlink="http://www.w3.org/1999/xlink" xml:space="preserve" version="1.1"  baseProfile="full">
<line x1="1" y1="1" x2="1525" y2="1" style="stroke:#ddd;stroke-width:2" />
<line x1="1" y1="1" x2="1" y2="108" style="stroke:#ddd;stroke-width:2" />
<line x1="1" y1="108" x2="1525" y2="108" style="stroke:#ddd;stroke-width:2" />
<line x1="1525" y1="1" x2="1525" y2="108" style="stroke:#ddd;stroke-width:2" />
<line x1="109" y1="1" x2="109" y2="108" style="stroke:#ddd;stroke-width:2" />
<line x1="218" y1="1" x2="218" y2="108" style="stroke:#ddd;stroke-width:2" />
<line x1="327" y1="1" x2="327" y2="108" style="stroke:#ddd;stroke-width:2" />
<line x1="436" y1="1" x2="436" y2="108" style="stroke:#ddd;stroke-width:2" />
<line x1="545" y1="1" x2="545" y2="108" style="stroke:#ddd;stroke-width:2" />
<line x1="654" y1="1" x2="654" y2="108" style="stroke:#ddd;stroke-width:2" />
<line x1="763" y1="1" x2="763" y2="108" style="stroke:#ddd;stroke-width:2" />
<line x1="872" y1="1" x2="872" y2="108" style="stroke:#ddd;stroke-width:2" />
<line x1="981" y1="1" x2="981" y2="108" style="stroke:#ddd;stroke-width:2" />
<line x1="1090" y1="1" x2="1090" y2="108" style="stroke:#ddd;stroke-width:2" />
<line x1="1199" y1="1" x2="1199" y2="108" style="stroke:#ddd;stroke-width:2" />
<line x1="1308" y1="1" x2="1308" y2="108" style="stroke:#ddd;stroke-width:2" />
<line x1="1417" y1="1" x2="1417" y2="108" style="stroke:#ddd;stroke-width:2" />
<line x1="1" y1="54" x2="1525" y2="54" style="stroke:#ddd;stroke-width:2;stroke-dasharray:3 3" />
<line x1="55" y1="1" x2="55" y2="108" style="stroke:#ddd;stroke-width:2;stroke-dasharray:3 3" />
<line x1="164" y1="1" x2="164" y2="108" style="stroke:#ddd;stroke-width:2;stroke-dasharray:3 3" />
<line x1="273" y1="1" x2="273" y2="108" style="stroke:#ddd;stroke-width:2;stroke-dasharray:3 3" />
<line x1="382" y1="1" x2="382" y2="108" style="stroke:#ddd;stroke-width:2;stroke-dasharray:3 3" />
<line x1="491" y1="1" x2="491" y2="108" style="stroke:#ddd;stroke-width:2;stroke-dasharray:3 3" />
<line x1="600" y1="1" x2="600" y2="108" style="stroke:#ddd;stroke-width:2;stroke-dasharray:3 3" />
<line x1="709" y1="1" x2="709" y2="108" style="stroke:#ddd;stroke-width:2;stroke-dasharray:3 3" />
<line x1="818" y1="1" x2="818" y2="108" style="stroke:#ddd;stroke-width:2;stroke-dasharray:3 3" />
<line x1="927" y1="1" x2="927" y2="108" style="stroke:#ddd;stroke-width:2;stroke-dasharray:3 3" />
<line x1="1036" y1="1" x2="1036" y2="108" style="stroke:#ddd;stroke-width:2;stroke-dasharray:3 3" />
<line x1="1145" y1="1" x2="1145" y2="108" style="stroke:#ddd;stroke-width:2;stroke-dasharray:3 3" />
<line x1="1254" y1="1" x2="1254" y2="108" style="stroke:#ddd;stroke-width:2;stroke-dasharray:3 3" />
<line x1="1363" y1="1" x2="1363" y2="108" style="stroke:#ddd;stroke-width:2;stroke-dasharray:3 3" />
<line x1="1472" y1="1" x2="1472" y2="108" style="stroke:#ddd;stroke-width:2;stroke-dasharray:3 3" />
<path d="M10.48,26.55c0.9,0.38,1.94,0.36,2.84,0.38c6.93,0.08,26.22-3.27,35.65-3.3c1.49-0.01,2.39,0.18,3.14,0.37" style="fill:none;stroke:black;stroke-width:3" />
<circle cx="10.48" cy="26.55" r="5" stroke-width="0" fill="#FF2A00" opacity="0.7" />
<path d="M119.48,26.55c0.9,0.38,1.94,0.36,2.84,0.38c6.93,0.08,26.22-3.27,35.65-3.3c1.49-0.01,2.39,0.18,3.14,0.37" style="fill:none;stroke:#999;stroke-width:3" />
<path d="M130.15,17.57c1.06,1.13,1.4,1.47,1.51,2.16c1.06,6.49,1.57,11.39,1.88,13.75" style="fill:none;stroke:black;stroke-width:3" />
<circle cx="130.15" cy="17.57" r="5" stroke-width="0" fill="#FF2A00" opacity="0.7" />
<path d="M228.48000000000002,26.55c0.9,0.38,1.94,0.36,2.84,0.38c6.93,0.08,26.22-3.27,35.65-3.3c1.49-0.01,2.39,0.18,3.14,0.37" style="fill:none;stroke:#999;stroke-width:3" />
<path d="M239.15,17.57c1.06,1.13,1.4,1.47,1.51,2.16c1.06,6.49,1.57,11.39,1.88,13.75" style="fill:none;stroke:#999;stroke-width:3" />
<path d="M258.54,15.06c0.29,0.84,0.6,1.44,0.35,2.5c-0.91,3.78-2.14,11.89-3.14,15.93" style="fill:none;stroke:black;stroke-width:3" />
<circle cx="258.54" cy="15.06" r="5" stroke-width="0" fill="#FF2A00" opacity="0.7" />
<path d="M337.48,26.55c0.9,0.38,1.94,0.36,2.84,0.38c6.93,0.08,26.22-3.27,35.65-3.3c1.49-0.01,2.39,0.18,3.14,0.37" style="fill:none;stroke:#999;stroke-width:3" />
<path d="M348.15,17.57c1.06,1.13,1.4,1.47,1.51,2.16c1.06,6.49,1.57,11.39,1.88,13.75" style="fill:none;stroke:#999;stroke-width:3" />
<path d="M367.54,15.06c0.29,0.84,0.6,1.44,0.35,2.5c-0.91,3.78-2.14,11.89-3.14,15.93" style="fill:none;stroke:#999;stroke-width:3" />
<path d="M341.81,39.36c0.26,0.27,0.53,0.5,0.64,0.84c0.9,2.69,2.48,9.12,3.1,13.95" style="fill:none;stroke:black;stroke-width:3" />
<circle cx="341.81" cy="39.36" r="5" stroke-width="0" fill="#FF2A00" opacity="0.7" />
<path d="M446.48,26.55c0.9,0.38,1.94,0.36,2.84,0.38c6.93,0.08,26.22-3.27,35.65-3.3c1.49-0.01,2.39,0.18,3.14,0.37" style="fill:none;stroke:#999;stroke-width:3" />
<path d="M457.15,17.57c1.06,1.13,1.4,1.47,1.51,2.16c1.06,6.49,1.57,11.39,1.88,13.75" style="fill:none;stroke:#999;stroke-width:3" />
<path d="M476.54,15.06c0.29,0.84,0.6,1.44,0.35,2.5c-0.91,3.78-2.14,11.89-3.14,15.93" style="fill:none;stroke:#999;stroke-width:3" />
<path d="M450.81,39.36c0.26,0.27,0.53,0.5,0.64,0.84c0.9,2.69,2.48,9.12,3.1,13.95" style="fill:none;stroke:#999;stroke-width:3" />
<path d="M451.68,40.3c7.78-1.49,26.09-3.57,30.54-3.95c1.63-0.14,2.61,0.81,2.37,1.62c-0.97,3.34-2.09,7.38-3.53,12" style="fill:none;stroke:black;stroke-width:3" />
<circle cx="451.68" cy="40.3" r="5" stroke-width="0" fill="#FF2A00" opacity="0.7" />
<path d="M555.48,26.55c0.9,0.38,1.94,0.36,2.84,0.38c6.93,0.08,26.22-3.27,35.65-3.3c1.49-0.01,2.39,0.18,3.14,0.37" style="fill:none;stroke:#999;stroke-width:3" />
<path d="M566.15,17.57c1.06,1.13,1.4,1.47,1.51,2.16c1.06,6.49,1.57,11.39,1.88,13.75" style="fill:none;stroke:#999;stroke-width:3" />
<path d="M585.54,15.06c0.29,0.84,0.6,1.44,0.35,2.5c-0.91,3.78-2.14,11.89-3.14,15.93" style="fill:none;stroke:#999;stroke-width:3" />
<path d="M559.81,39.36c0.26,0.27,0.53,0.5,0.64,0.84c0.9,2.69,2.48,9.12,3.1,13.95" style="fill:none;stroke:#999;stroke-width:3" />
<path d="M560.6800000000001,40.3c7.78-1.49,26.09-3.57,30.54-3.95c1.63-0.14,2.61,0.81,2.37,1.62c-0.97,3.34-2.09,7.38-3.53,12" style="fill:none;stroke:#999;stroke-width:3" />
<path d="M563.72,52.64c5.23-0.43,20.78-2.59,27.97-3.24" style="fill:none;stroke:black;stroke-width:3" />
<circle cx="563.72" cy="52.64" r="5" stroke-width="0" fill="#FF2A00" opacity="0.7" />
<path d="M664.48,26.55c0.9,0.38,1.94,0.36,2.84,0.38c6.93,0.08,26.22-3.27,35.65-3.3c1.49-0.01,2.39,0.18,3.14,0.37" style="fill:none;stroke:#999;stroke-width:3" />
<path d="M675.15,17.57c1.06,1.13,1.4,1.47,1.51,2.16c1.06,6.49,1.57,11.39,1.88,13.75" style="fill:none;stroke:#999;stroke-width:3" />
<path d="M694.54,15.06c0.29,0.84,0.6,1.44,0.35,2.5c-0.91,3.78-2.14,11.89-3.14,15.93" style="fill:none;stroke:#999;stroke-width:3" />
<path d="M668.81,39.36c0.26,0.27,0.53,0.5,0.64,0.84c0.9,2.69,2.48,9.12,3.1,13.95" style="fill:none;stroke:#999;stroke-width:3" />
<path d="M669.6800000000001,40.3c7.78-1.49,26.09-3.57,30.54-3.95c1.63-0.14,2.61,0.81,2.37,1.62c-0.97,3.34-2.09,7.38-3.53,12" style="fill:none;stroke:#999;stroke-width:3" />
<path d="M672.72,52.64c5.23-0.43,20.78-2.59,27.97-3.24" style="fill:none;stroke:#999;stroke-width:3" />
<path d="M669.43,62.66c0.65,0.27,1.82,0.26,2.47,0.27C676.0,63,691.63,60.08,697.44,60.18c1.07,0.02,1.72,0.13,2.26,0.26" style="fill:none;stroke:black;stroke-width:3" />
<circle cx="669.43" cy="62.66" r="5" stroke-width="0" fill="#FF2A00" opacity="0.7" />
<path d="M773.48,26.55c0.9,0.38,1.94,0.36,2.84,0.38c6.93,0.08,26.22-3.27,35.65-3.3c1.49-0.01,2.39,0.18,3.14,0.37" style="fill:none;stroke:#999;stroke-width:3" />
<path d="M784.15,17.57c1.06,1.13,1.4,1.47,1.51,2.16c1.06,6.49,1.57,11.39,1.88,13.75" style="fill:none;stroke:#999;stroke-width:3" />
<path d="M803.54,15.06c0.29,0.84,0.6,1.44,0.35,2.5c-0.91,3.78-2.14,11.89-3.14,15.93" style="fill:none;stroke:#999;stroke-width:3" />
<path d="M777.81,39.36c0.26,0.27,0.53,0.5,0.64,0.84c0.9,2.69,2.48,9.12,3.1,13.95" style="fill:none;stroke:#999;stroke-width:3" />
<path d="M778.6800000000001,40.3c7.78-1.49,26.09-3.57,30.54-3.95c1.63-0.14,2.61,0.81,2.37,1.62c-0.97,3.34-2.09,7.38-3.53,12" style="fill:none;stroke:#999;stroke-width:3" />
<path d="M781.72,52.64c5.23-0.43,20.78-2.59,27.97-3.24" style="fill:none;stroke:#999;stroke-width:3" />
<path d="M778.43,62.66c0.65,0.27,1.82,0.26,2.47,0.27C785.0,63,800.63,60.08,806.44,60.18c1.07,0.02,1.72,0.13,2.26,0.26" style="fill:none;stroke:#999;stroke-width:3" />
<path d="M774.18,74.5c0.64,0.27,2.32,0.77,2.97,0.77c6.1-0.01,28.46-4.26,34.27-4.16c1.07,0.02,1.72,0.13,2.26,0.26" style="fill:none;stroke:black;stroke-width:3" />
<circle cx="774.18" cy="74.5" r="5" stroke-width="0" fill="#FF2A00" opacity="0.7" />
<path d="M882.48,26.55c0.9,0.38,1.94,0.36,2.84,0.38c6.93,0.08,26.22-3.27,35.65-3.3c1.49-0.01,2.39,0.18,3.14,0.37" style="fill:none;stroke:#999;stroke-width:3" />
<path d="M893.15,17.57c1.06,1.13,1.4,1.47,1.51,2.16c1.06,6.49,1.57,11.39,1.88,13.75" style="fill:none;stroke:#999;stroke-width:3" />
<path d="M912.54,15.06c0.29,0.84,0.6,1.44,0.35,2.5c-0.91,3.78-2.14,11.89-3.14,15.93" style="fill:none;stroke:#999;stroke-width:3" />
<path d="M886.81,39.36c0.26,0.27,0.53,0.5,0.64,0.84c0.9,2.69,2.48,9.12,3.1,13.95" style="fill:none;stroke:#999;stroke-width:3" />
<path d="M887.6800000000001,40.3c7.78-1.49,26.09-3.57,30.54-3.95c1.63-0.14,2.61,0.81,2.37,1.62c-0.97,3.34-2.09,7.38-3.53,12" style="fill:none;stroke:#999;stroke-width:3" />
<path d="M890.72,52.64c5.23-0.43,20.78-2.59,27.97-3.24" style="fill:none;stroke:#999;stroke-width:3" />
<path d="M887.43,62.66c0.65,0.27,1.82,0.26,2.47,0.27C894.0,63,909.63,60.08,915.44,60.18c1.07,0.02,1.72,0.13,2.26,0.26" style="fill:none;stroke:#999;stroke-width:3" />
<path d="M883.18,74.5c0.64,0.27,2.32,0.77,2.97,0.77c6.1-0.01,28.46-4.26,34.27-4.16c1.07,0.02,1.72,0.13,2.26,0.26" style="fill:none;stroke:#999;stroke-width:3" />
<path d="M903.54,40.64c0.37,0.86,0.51,1.66,0.51,3.33c0,38.04-4.81,45.96-21.31,52.97" style="fill:none;stroke:black;stroke-width:3" />
<circle cx="903.54" cy="40.64" r="5" stroke-width="0" fill="#FF2A00" opacity="0.7" />
<path d="M991.48,26.55c0.9,0.38,1.94,0.36,2.84,0.38c6.93,0.08,26.22-3.27,35.65-3.3c1.49-0.01,2.39,0.18,3.14,0.37" style="fill:none;stroke:#999;stroke-width:3" />
<path d="M1002.15,17.57c1.06,1.13,1.4,1.47,1.51,2.16c1.06,6.49,1.57,11.39,1.88,13.75" style="fill:none;stroke:#999;stroke-width:3" />
<path d="M1021.54,15.06c0.29,0.84,0.6,1.44,0.35,2.5c-0.91,3.78-2.14,11.89-3.14,15.93" style="fill:none;stroke:#999;stroke-width:3" />
<path d="M995.81,39.36c0.26,0.27,0.53,0.5,0.64,0.84c0.9,2.69,2.48,9.12,3.1,13.95" style="fill:none;stroke:#999;stroke-width:3" />
<path d="M996.6800000000001,40.3c7.78-1.49,26.09-3.57,30.54-3.95c1.63-0.14,2.61,0.81,2.37,1.62c-0.97,3.34-2.09,7.38-3.53,12" style="fill:none;stroke:#999;stroke-width:3" />
<path d="M999.72,52.64c5.23-0.43,20.78-2.59,27.97-3.24" style="fill:none;stroke:#999;stroke-width:3" />
<path d="M996.43,62.66c0.65,0.27,1.82,0.26,2.47,0.27C1003.0,63,1018.63,60.08,1024.44,60.18c1.07,0.02,1.72,0.13,2.26,0.26" style="fill:none;stroke:#999;stroke-width:3" />
<path d="M992.18,74.5c0.64,0.27,2.32,0.77,2.97,0.77c6.1-0.01,28.46-4.26,34.27-4.16c1.07,0.02,1.72,0.13,2.26,0.26" style="fill:none;stroke:#999;stroke-width:3" />
<path d="M1012.54,40.64c0.37,0.86,0.51,1.66,0.51,3.33c0,38.04-4.81,45.96-21.31,52.97" style="fill:none;stroke:#999;stroke-width:3" />
<path d="M1011.18,77.92c6.31,2.88,12.3,7.89,14.92,13.01" style="fill:none;stroke:black;stroke-width:3" />
<circle cx="1011.18" cy="77.92" r="5" stroke-width="0" fill="#FF2A00" opacity="0.7" />
<path d="M1100.48,26.55c0.9,0.38,1.94,0.36,2.84,0.38c6.93,0.08,26.22-3.27,35.65-3.3c1.49-0.01,2.39,0.18,3.14,0.37" style="fill:none;stroke:#999;stroke-width:3" />
<path d="M1111.15,17.57c1.06,1.13,1.4,1.47,1.51,2.16c1.06,6.49,1.57,11.39,1.88,13.75" style="fill:none;stroke:#999;stroke-width:3" />
<path d="M1130.54,15.06c0.29,0.84,0.6,1.44,0.35,2.5c-0.91,3.78-2.14,11.89-3.14,15.93" style="fill:none;stroke:#999;stroke-width:3" />
<path d="M1104.81,39.36c0.26,0.27,0.53,0.5,0.64,0.84c0.9,2.69,2.48,9.12,3.1,13.95" style="fill:none;stroke:#999;stroke-width:3" />
<path d="M1105.68,40.3c7.78-1.49,26.09-3.57,30.54-3.95c1.63-0.14,2.61,0.81,2.37,1.62c-0.97,3.34-2.09,7.38-3.53,12" style="fill:none;stroke:#999;stroke-width:3" />
<path d="M1108.72,52.64c5.23-0.43,20.78-2.59,27.97-3.24" style="fill:none;stroke:#999;stroke-width:3" />
<path d="M1105.4299999999998,62.66c0.65,0.27,1.82,0.26,2.47,0.27C1112.0,63,1127.63,60.08,1133.44,60.18c1.07,0.02,1.72,0.13,2.26,0.26" style="fill:none;stroke:#999;stroke-width:3" />
<path d="M1101.1799999999998,74.5c0.64,0.27,2.32,0.77,2.97,0.77c6.1-0.01,28.46-4.26,34.27-4.16c1.07,0.02,1.72,0.13,2.26,0.26" style="fill:none;stroke:#999;stroke-width:3" />
<path d="M1121.54,40.64c0.37,0.86,0.51,1.66,0.51,3.33c0,38.04-4.81,45.96-21.31,52.97" style="fill:none;stroke:#999;stroke-width:3" />
<path d="M1120.1799999999998,77.92c6.31,2.88,12.3,7.89,14.92,13.01" style="fill:none;stroke:#999;stroke-width:3" />
<path d="M1156.75,16c0.04,0.78,0.08,2.02-0.08,3.15c-0.93,6.63-6.25,21.19-13.54,30.1" style="fill:none;stroke:black;stroke-width:3" />
<circle cx="1156.75" cy="16.0" r="5" stroke-width="0" fill="#FF2A00" opacity="0.7" />
<path d="M1209.48,26.55c0.9,0.38,1.94,0.36,2.84,0.38c6.93,0.08,26.22-3.27,35.65-3.3c1.49-0.01,2.39,0.18,3.14,0.37" style="fill:none;stroke:#999;stroke-width:3" />
<path d="M1220.15,17.57c1.06,1.13,1.4,1.47,1.51,2.16c1.06,6.49,1.57,11.39,1.88,13.75" style="fill:none;stroke:#999;stroke-width:3" />
<path d="M1239.54,15.06c0.29,0.84,0.6,1.44,0.35,2.5c-0.91,3.78-2.14,11.89-3.14,15.93" style="fill:none;stroke:#999;stroke-width:3" />
<path d="M1213.81,39.36c0.26,0.27,0.53,0.5,0.64,0.84c0.9,2.69,2.48,9.12,3.1,13.95" style="fill:none;stroke:#999;stroke-width:3" />
<path d="M1214.68,40.3c7.78-1.49,26.09-3.57,30.54-3.95c1.63-0.14,2.61,0.81,2.37,1.62c-0.97,3.34-2.09,7.38-3.53,12" style="fill:none;stroke:#999;stroke-width:3" />
<path d="M1217.72,52.64c5.23-0.43,20.78-2.59,27.97-3.24" style="fill:none;stroke:#999;stroke-width:3" />
<path d="M1214.4299999999998,62.66c0.65,0.27,1.82,0.26,2.47,0.27C1221.0,63,1236.63,60.08,1242.44,60.18c1.07,0.02,1.72,0.13,2.26,0.26" style="fill:none;stroke:#999;stroke-width:3" />
<path d="M1210.1799999999998,74.5c0.64,0.27,2.32,0.77,2.97,0.77c6.1-0.01,28.46-4.26,34.27-4.16c1.07,0.02,1.72,0.13,2.26,0.26" style="fill:none;stroke:#999;stroke-width:3" />
<path d="M1230.54,40.64c0.37,0.86,0.51,1.66,0.51,3.33c0,38.04-4.81,45.96-21.31,52.97" style="fill:none;stroke:#999;stroke-width:3" />
<path d="M1229.1799999999998,77.92c6.31,2.88,12.3,7.89,14.92,13.01" style="fill:none;stroke:#999;stroke-width:3" />
<path d="M1265.75,16c0.04,0.78,0.08,2.02-0.08,3.15c-0.93,6.63-6.25,21.19-13.54,30.1" style="fill:none;stroke:#999;stroke-width:3" />
<path d="M1259.72,39.49c0.91,0.36,2.64,0.93,4.01,0.61c1.67-0.39,19.68-5.65,21.26-5.85c8-1-1.33,9.09-3,11" style="fill:none;stroke:black;stroke-width:3" />
<circle cx="1259.72" cy="39.49" r="5" stroke-width="0" fill="#FF2A00" opacity="0.7" />
<path d="M1318.48,26.55c0.9,0.38,1.94,0.36,2.84,0.38c6.93,0.08,26.22-3.27,35.65-3.3c1.49-0.01,2.39,0.18,3.14,0.37" style="fill:none;stroke:#999;stroke-width:3" />
<path d="M1329.15,17.57c1.06,1.13,1.4,1.47,1.51,2.16c1.06,6.49,1.57,11.39,1.88,13.75" style="fill:none;stroke:#999;stroke-width:3" />
<path d="M1348.54,15.06c0.29,0.84,0.6,1.44,0.35,2.5c-0.91,3.78-2.14,11.89-3.14,15.93" style="fill:none;stroke:#999;stroke-width:3" />
<path d="M1322.81,39.36c0.26,0.27,0.53,0.5,0.64,0.84c0.9,2.69,2.48,9.12,3.1,13.95" style="fill:none;stroke:#999;stroke-width:3" />
<path d="M1323.68,40.3c7.78-1.49,26.09-3.57,30.54-3.95c1.63-0.14,2.61,0.81,2.37,1.62c-0.97,3.34-2.09,7.38-3.53,12" style="fill:none;stroke:#999;stroke-width:3" />
<path d="M1326.72,52.64c5.23-0.43,20.78-2.59,27.97-3.24" style="fill:none;stroke:#999;stroke-width:3" />
<path d="M1323.4299999999998,62.66c0.65,0.27,1.82,0.26,2.47,0.27C1330.0,63,1345.63,60.08,1351.44,60.18c1.07,0.02,1.72,0.13,2.26,0.26" style="fill:none;stroke:#999;stroke-width:3" />
<path d="M1319.1799999999998,74.5c0.64,0.27,2.32,0.77,2.97,0.77c6.1-0.01,28.46-4.26,34.27-4.16c1.07,0.02,1.72,0.13,2.26,0.26" style="fill:none;stroke:#999;stroke-width:3" />
<path d="M1339.54,40.64c0.37,0.86,0.51,1.66,0.51,3.33c0,38.04-4.81,45.96-21.31,52.97" style="fill:none;stroke:#999;stroke-width:3" />
<path d="M1338.1799999999998,77.92c6.31,2.88,12.3,7.89,14.92,13.01" style="fill:none;stroke:#999;stroke-width:3" />
<path d="M1374.75,16c0.04,0.78,0.08,2.02-0.08,3.15c-0.93,6.63-6.25,21.19-13.54,30.1" style="fill:none;stroke:#999;stroke-width:3" />
<path d="M1368.72,39.49c0.91,0.36,2.64,0.93,4.01,0.61c1.67-0.39,19.68-5.65,21.26-5.85c8-1-1.33,9.09-3,11" style="fill:none;stroke:#999;stroke-width:3" />
<path d="M1375.11,48.5c0.06,1.13,0.63,2.89,0.39,4.52c-2.34,15.73-4.75,31.73-20.25,43.23" style="fill:none;stroke:black;stroke-width:3" />
<circle cx="1375.11" cy="48.5" r="5" stroke-width="0" fill="#FF2A00" opacity="0.7" />
<path d="M1427.48,26.55c0.9,0.38,1.94,0.36,2.84,0.38c6.93,0.08,26.22-3.27,35.65-3.3c1.49-0.01,2.39,0.18,3.14,0.37" style="fill:none;stroke:#999;stroke-width:3" />
<path d="M1438.15,17.57c1.06,1.13,1.4,1.47,1.51,2.16c1.06,6.49,1.57,11.39,1.88,13.75" style="fill:none;stroke:#999;stroke-width:3" />
<path d="M1457.54,15.06c0.29,0.84,0.6,1.44,0.35,2.5c-0.91,3.78-2.14,11.89-3.14,15.93" style="fill:none;stroke:#999;stroke-width:3" />
<path d="M1431.81,39.36c0.26,0.27,0.53,0.5,0.64,0.84c0.9,2.69,2.48,9.12,3.1,13.95" style="fill:none;stroke:#999;stroke-width:3" />
<path d="M1432.68,40.3c7.78-1.49,26.09-3.57,30.54-3.95c1.63-0.14,2.61,0.81,2.37,1.62c-0.97,3.34-2.09,7.38-3.53,12" style="fill:none;stroke:#999;stroke-width:3" />
<path d="M1435.72,52.64c5.23-0.43,20.78-2.59,27.97-3.24" style="fill:none;stroke:#999;stroke-width:3" />
<path d="M1432.4299999999998,62.66c0.65,0.27,1.82,0.26,2.47,0.27C1439.0,63,1454.63,60.08,1460.44,60.18c1.07,0.02,1.72,0.13,2.26,0.26" style="fill:none;stroke:#999;stroke-width:3" />
<path d="M1428.1799999999998,74.5c0.64,0.27,2.32,0.77,2.97,0.77c6.1-0.01,28.46-4.26,34.27-4.16c1.07,0.02,1.72,0.13,2.26,0.26" style="fill:none;stroke:#999;stroke-width:3" />
<path d="M1448.54,40.64c0.37,0.86,0.51,1.66,0.51,3.33c0,38.04-4.81,45.96-21.31,52.97" style="fill:none;stroke:#999;stroke-width:3" />
<path d="M1447.1799999999998,77.92c6.31,2.88,12.3,7.89,14.92,13.01" style="fill:none;stroke:#999;stroke-width:3" />
<path d="M1483.75,16c0.04,0.78,0.08,2.02-0.08,3.15c-0.93,6.63-6.25,21.19-13.54,30.1" style="fill:none;stroke:#999;stroke-width:3" />
<path d="M1477.72,39.49c0.91,0.36,2.64,0.93,4.01,0.61c1.67-0.39,19.68-5.65,21.26-5.85c8-1-1.33,9.09-3,11" style="fill:none;stroke:#999;stroke-width:3" />
<path d="M1484.11,48.5c0.06,1.13,0.63,2.89,0.39,4.52c-2.34,15.73-4.75,31.73-20.25,43.23" style="fill:none;stroke:#999;stroke-width:3" />
<path d="M1483.92,58.5c4.08,7.75,18.8,26,25.5,32.41c1.41,1.35,2.48,2.16,3.82,2.59" style="fill:none;stroke:black;stroke-width:3" />
<circle cx="1483.92" cy="58.5" r="5" stroke-width="0" fill="#FF2A00" opacity="0.7" />
</svg>