<svg width="654px" height="109px" viewBox="0 0 654px 109px" xmlns="http://www.w3.org/2000/svg" xmlns:xlink="http://www.w3.org/1999/xlink" xml:space="preserve" version="1.1"  baseProfile="full">
<line x1="1" y1="1" x2="653" y2="1" style="stroke:#ddd;stroke-width:2" />
<line x1="1" y1="1" x2="1" y2="108" style="stroke:#ddd;stroke-width:2" />
<line x1="1" y1="108" x2="653" y2="108" style="stroke:#ddd;stroke-width:2" />
<line x1="653" y1="1" x2="653" y2="108" style="stroke:#ddd;stroke-width:2" />
<line x1="109" y1="1" x2="109" y2="108" style="stroke:#ddd;stroke-width:2" />
<line x1="218" y1="1" x2="218" y2="108" style="stroke:#ddd;stroke-width:2" />
<line x1="327" y1="1" x2="327" y2="108" style="stroke:#ddd;stroke-width:2" />
<line x1="436" y1="1" x2="436" y2="108" style="stroke:#ddd;stroke-width:2" />
<line x1="545" y1="1" x2="545" y2="108" style="stroke:#ddd;stroke-width:2" />
<line x1="1" y1="54" x2="653" y2="54" style="stroke:#ddd;stroke-width:2;stroke-dasharray:3 3" />
<line x1="55" y1="1" x2="55" y2="108" style="stroke:#ddd;stroke-width:2;stroke-dasharray:3 3" />
<line x1="164" y1="1" x2="164" y2="108" style="stroke:#ddd;stroke-width:2;stroke-dasharray:3 3" />
<line x1="273" y1="1" x2="273" y2="108" style="stroke:#ddd;stroke-width:2;stroke-dasharray:3 3" />
<line x1="382" y1="1" x2="382" y2="108" style="stroke:#ddd;stroke-width:2;stroke-dasharray:3 3" />
<line x1="491" y1="1" x2="491" y2="108" style="stroke:#ddd;stroke-width:2;stroke-dasharray:3 3" />
<line x1="600" y1="1" x2="600" y2="108" style="stroke:#ddd;stroke-width:2;stroke-dasharray:3 3" />
<path d="M21.13,17.75c4.45,1.47,11.5,6.05,12.62,8.34" style="fill:none;stroke:black;stroke-width:3" />
<circle cx="21.13" cy="17.75" r="5" stroke-width="0" fill="#FF2A00" opacity="0.7" />
<path d="M130.13,17.75c4.45,1.47,11.5,6.05,12.62,8.34" style="fill:none;stroke:#999;stroke-width:3" />
<path d="M123.0,42.5c4.77,1.41,12.06,5.55,13.25,7.75" style="fill:none;stroke:black;stroke-width:3" />
<circle cx="123.0" cy="42.5" r="5" stroke-width="0" fill="#FF2A00" opacity="0.7" />
<path d="M239.13,17.75c4.45,1.47,11.5,6.05,12.62,8.34" style="fill:none;stroke:#999;stroke-width:3" />
<path d="M232.0,42.5c4.77,1.41,12.06,5.55,13.25,7.75" style="fill:none;stroke:#999;stroke-width:3" />
<path d="M235.25,87.96c1.88,0.67,3.31-0.14,4.25-1.75c2.75-4.7,5-9.7,7.5-15.7" style="fill:none;stroke:black;stroke-width:3" />
<circle cx="235.25" cy="87.96" r="5" stroke-width="0" fill="#FF2A00" opacity="0.7" />
<path d="M348.13,17.75c4.45,1.47,11.5,6.05,12.62,8.34" style="fill:none;stroke:#999;stroke-width:3" />
<path d="M341.0,42.5c4.77,1.41,12.06,5.55,13.25,7.75" style="fill:none;stroke:#999;stroke-width:3" />
<path d="M344.25,87.96c1.88,0.67,3.31-0.14,4.25-1.75c2.75-4.7,5-9.7,7.5-15.7" style="fill:none;stroke:#999;stroke-width:3" />
<path d="M382.02,26.43c0.73,1.45,0.84,2.92,0.56,4.95c-2.46,18-8.59,41.13-20.95,54.78" style="fill:none;stroke:black;stroke-width:3" />
<circle cx="382.02" cy="26.43" r="5" stroke-width="0" fill="#FF2A00" opacity="0.7" />
<path d="M457.13,17.75c4.45,1.47,11.5,6.05,12.62,8.34" style="fill:none;stroke:#999;stroke-width:3" />
<path d="M450.0,42.5c4.77,1.41,12.06,5.55,13.25,7.75" style="fill:none;stroke:#999;stroke-width:3" />
<path d="M453.25,87.96c1.88,0.67,3.31-0.14,4.25-1.75c2.75-4.7,5-9.7,7.5-15.7" style="fill:none;stroke:#999;stroke-width:3" />
<path d="M491.02,26.43c0.73,1.45,0.84,2.92,0.56,4.95c-2.46,18-8.59,41.13-20.95,54.78" style="fill:none;stroke:#999;stroke-width:3" />
<path d="M481.5,23c3.17,0.84,6.17,0.51,9.22-0.14c6.4-1.36,15.03-3.36,21.03-5.11c4.02-1.17,5.93,1.47,4.5,4.5c-2,4.25-6.38,13.62-9.12,19.62c-1.21,2.65-0.46,3.05,2,2.38c5-1.38,6.88-1.75,10.88-2.5c2.7-0.51,3.67,0.98,3,3.25c-5.75,19.5-23.25,40.5-42.25,47.5" style="fill:none;stroke:black;stroke-width:3" />
<circle cx="481.5" cy="23.0" r="5" stroke-width="0" fill="#FF2A00" opacity="0.7" />
<path d="M566.13,17.75c4.45,1.47,11.5,6.05,12.62,8.34" style="fill:none;stroke:#999;stroke-width:3" />
<path d="M559.0,42.5c4.77,1.41,12.06,5.55,13.25,7.75" style="fill:none;stroke:#999;stroke-width:3" />
<path d="M562.25,87.96c1.88,0.67,3.31-0.14,4.25-1.75c2.75-4.7,5-9.7,7.5-15.7" style="fill:none;stroke:#999;stroke-width:3" />
<path d="M600.02,26.43c0.73,1.45,0.84,2.92,0.56,4.95c-2.46,18-8.59,41.13-20.95,54.78" style="fill:none;stroke:#999;stroke-width:3" />
<path d="M590.5,23c3.17,0.84,6.17,0.51,9.22-0.14c6.4-1.36,15.03-3.36,21.03-5.11c4.02-1.17,5.93,1.47,4.5,4.5c-2,4.25-6.38,13.62-9.12,19.62c-1.21,2.65-0.46,3.05,2,2.38c5-1.38,6.88-1.75,10.88-2.5c2.7-0.51,3.67,0.98,3,3.25c-5.75,19.5-23.25,40.5-42.25,47.5" style="fill:none;stroke:#999;stroke-width:3" />
<path d="M598.75,50.75c6.08,5.5,21.7,25.09,31.23,34.15c3.04,3.05,6.54,5.42,10.52,7.1" style="fill:none;stroke:black;stroke-width:3" />
<circle cx="598.75" cy="50.75" r="5" stroke-width="0" fill="#FF2A00" opacity="0.7" />
</svg>