<svg width="872px" height="109px" viewBox="0 0 872px 109px" xmlns="http://www.w3.org/2000/svg" xmlns:xlink="http://www.w3.org/1999/xlink" xml:space="preserve" version="1.1"  baseProfile="full">
<line x1="1" y1="1" x2="871" y2="1" style="stroke:#ddd;stroke-width:2" />
<line x1="1" y1="1" x2="1" y2="108" style="stroke:#ddd;stroke-width:2" />
<line x1="1" y1="108" x2="871" y2="108" style="stroke:#ddd;stroke-width:2" />
<line x1="871" y1="1" x2="871" y2="108" style="stroke:#ddd;stroke-width:2" />
<line x1="109" y1="1" x2="109" y2="108" style="stroke:#ddd;stroke-width:2" />
<line x1="218" y1="1" x2="218" y2="108" style="stroke:#ddd;stroke-width:2" />
<line x1="327" y1="1" x2="327" y2="108" style="stroke:#ddd;stroke-width:2" />
<line x1="436" y1="1" x2="436" y2="108" style="stroke:#ddd;stroke-width:2" />
<line x1="545" y1="1" x2="545" y2="108" style="stroke:#ddd;stroke-width:2" />
<line x1="654" y1="1" x2="654" y2="108" style="stroke:#ddd;stroke-width:2" />
<line x1="763" y1="1" x2="763" y2="108" style="stroke:#ddd;stroke-width:2" />
<line x1="1" y1="54" x2="871" y2="54" style="stroke:#ddd;stroke-width:2;stroke-dasharray:3 3" />
<line x1="55" y1="1" x2="55" y2="108" style="stroke:#ddd;stroke-width:2;stroke-dasharray:3 3" />
<line x1="164" y1="1" x2="164" y2="108" style="stroke:#ddd;stroke-width:2;stroke-dasharray:3 3" />
<line x1="273" y1="1" x2="273" y2="108" style="stroke:#ddd;stroke-width:2;stroke-dasharray:3 3" />
<line x1="382" y1="1" x2="382" y2="108" style="stroke:#ddd;stroke-width:2;stroke-dasharray:3 3" />
<line x1="491" y1="1" x2="491" y2="108" style="stroke:#ddd;stroke-width:2;stroke-dasharray:3 3" />
<line x1="600" y1="1" x2="600" y2="108" style="stroke:#ddd;stroke-width:2;stroke-dasharray:3 3" />
<line x1="709" y1="1" x2="709" y2="108" style="stroke:#ddd;stroke-width:2;stroke-dasharray:3 3" />
<line x1="818" y1="1" x2="818" y2="108" style="stroke:#ddd;stroke-width:2;stroke-dasharray:3 3" />
<path d="M19.13,17.25c4.1,1.65,10.59,6.78,11.62,9.34" style="fill:none;stroke:black;stroke-width:3" />
<circle cx="19.13" cy="17.25" r="5" stroke-width="0" fill="#FF2A00" opacity="0.7" />
<path d="M128.13,17.25c4.1,1.65,10.59,6.78,11.62,9.34" style="fill:none;stroke:#999;stroke-width:3" />
<path d="M122.5,41.25c4.24,1.63,10.94,6.21,12,8.75" style="fill:none;stroke:black;stroke-width:3" />
<circle cx="122.5" cy="41.25" r="5" stroke-width="0" fill="#FF2A00" opacity="0.7" />
<path d="M237.13,17.25c4.1,1.65,10.59,6.78,11.62,9.34" style="fill:none;stroke:#999;stroke-width:3" />
<path d="M231.5,41.25c4.24,1.63,10.94,6.21,12,8.75" style="fill:none;stroke:#999;stroke-width:3" />
<path d="M231.25,85.73c1.71,1.27,3.78,1.32,4.86-0.25c3.14-4.57,6.29-10.16,9.14-15.99" style="fill:none;stroke:black;stroke-width:3" />
<circle cx="231.25" cy="85.73" r="5" stroke-width="0" fill="#FF2A00" opacity="0.7" />
<path d="M346.13,17.25c4.1,1.65,10.59,6.78,11.62,9.34" style="fill:none;stroke:#999;stroke-width:3" />
<path d="M340.5,41.25c4.24,1.63,10.94,6.21,12,8.75" style="fill:none;stroke:#999;stroke-width:3" />
<path d="M340.25,85.73c1.71,1.27,3.78,1.32,4.86-0.25c3.14-4.57,6.29-10.16,9.14-15.99" style="fill:none;stroke:#999;stroke-width:3" />
<path d="M390.98,11.25c0.82,0.59,2.15,2.85,2.15,4.02c0,4.3-0.26,6.69-0.11,10.33" style="fill:none;stroke:black;stroke-width:3" />
<circle cx="390.98" cy="11.25" r="5" stroke-width="0" fill="#FF2A00" opacity="0.7" />
<path d="M455.13,17.25c4.1,1.65,10.59,6.78,11.62,9.34" style="fill:none;stroke:#999;stroke-width:3" />
<path d="M449.5,41.25c4.24,1.63,10.94,6.21,12,8.75" style="fill:none;stroke:#999;stroke-width:3" />
<path d="M449.25,85.73c1.71,1.27,3.78,1.32,4.86-0.25c3.14-4.57,6.29-10.16,9.14-15.99" style="fill:none;stroke:#999;stroke-width:3" />
<path d="M499.98,11.25c0.82,0.59,2.15,2.85,2.15,4.02c0,4.3-0.26,6.69-0.11,10.33" style="fill:none;stroke:#999;stroke-width:3" />
<path d="M475.75,27.98c1.03,0.1,3.38,0.67,4.38,0.53c8.09-1.11,36.81-4.2,47.79-4.48c1.7-0.05,2.56,0.04,3.83,0.68" style="fill:none;stroke:black;stroke-width:3" />
<circle cx="475.75" cy="27.98" r="5" stroke-width="0" fill="#FF2A00" opacity="0.7" />
<path d="M564.13,17.25c4.1,1.65,10.59,6.78,11.62,9.34" style="fill:none;stroke:#999;stroke-width:3" />
<path d="M558.5,41.25c4.24,1.63,10.94,6.21,12,8.75" style="fill:none;stroke:#999;stroke-width:3" />
<path d="M558.25,85.73c1.71,1.27,3.78,1.32,4.86-0.25c3.14-4.57,6.29-10.16,9.14-15.99" style="fill:none;stroke:#999;stroke-width:3" />
<path d="M608.98,11.25c0.82,0.59,2.15,2.85,2.15,4.02c0,4.3-0.26,6.69-0.11,10.33" style="fill:none;stroke:#999;stroke-width:3" />
<path d="M584.75,27.98c1.03,0.1,3.38,0.67,4.38,0.53c8.09-1.11,36.81-4.2,47.79-4.48c1.7-0.05,2.56,0.04,3.83,0.68" style="fill:none;stroke:#999;stroke-width:3" />
<path d="M588.67,41.81c0.84,0.46,2.14,2.98,2.3,3.92c0.17,0.93,1.39,28.65,1.22,34.47" style="fill:none;stroke:black;stroke-width:3" />
<circle cx="588.67" cy="41.81" r="5" stroke-width="0" fill="#FF2A00" opacity="0.7" />
<path d="M673.13,17.25c4.1,1.65,10.59,6.78,11.62,9.34" style="fill:none;stroke:#999;stroke-width:3" />
<path d="M667.5,41.25c4.24,1.63,10.94,6.21,12,8.75" style="fill:none;stroke:#999;stroke-width:3" />
<path d="M667.25,85.73c1.71,1.27,3.78,1.32,4.86-0.25c3.14-4.57,6.29-10.16,9.14-15.99" style="fill:none;stroke:#999;stroke-width:3" />
<path d="M717.98,11.25c0.82,0.59,2.15,2.85,2.15,4.02c0,4.3-0.26,6.69-0.11,10.33" style="fill:none;stroke:#999;stroke-width:3" />
<path d="M693.75,27.98c1.03,0.1,3.38,0.67,4.38,0.53c8.09-1.11,36.81-4.2,47.79-4.48c1.7-0.05,2.56,0.04,3.83,0.68" style="fill:none;stroke:#999;stroke-width:3" />
<path d="M697.67,41.81c0.84,0.46,2.14,2.98,2.3,3.92c0.17,0.93,1.39,28.65,1.22,34.47" style="fill:none;stroke:#999;stroke-width:3" />
<path d="M699.99,44.54c3.68-0.3,37.96-4.5,40.69-4.79c2.32-0.25,3.73,1.81,3.81,3.79C744.9,54.12,744.5,63,742.54,73.27c-1.68,8.81-5.07,3.48-7.4,0.05" style="fill:none;stroke:black;stroke-width:3" />
<circle cx="699.99" cy="44.54" r="5" stroke-width="0" fill="#FF2A00" opacity="0.7" />
<path d="M782.13,17.25c4.1,1.65,10.59,6.78,11.62,9.34" style="fill:none;stroke:#999;stroke-width:3" />
<path d="M776.5,41.25c4.24,1.63,10.94,6.21,12,8.75" style="fill:none;stroke:#999;stroke-width:3" />
<path d="M776.25,85.73c1.71,1.27,3.78,1.32,4.86-0.25c3.14-4.57,6.29-10.16,9.14-15.99" style="fill:none;stroke:#999;stroke-width:3" />
<path d="M826.98,11.25c0.82,0.59,2.15,2.85,2.15,4.02c0,4.3-0.26,6.69-0.11,10.33" style="fill:none;stroke:#999;stroke-width:3" />
<path d="M802.75,27.98c1.03,0.1,3.38,0.67,4.38,0.53c8.09-1.11,36.81-4.2,47.79-4.48c1.7-0.05,2.56,0.04,3.83,0.68" style="fill:none;stroke:#999;stroke-width:3" />
<path d="M806.67,41.81c0.84,0.46,2.14,2.98,2.3,3.92c0.17,0.93,1.39,28.65,1.22,34.47" style="fill:none;stroke:#999;stroke-width:3" />
<path d="M808.99,44.54c3.68-0.3,37.96-4.5,40.69-4.79c2.32-0.25,3.73,1.81,3.81,3.79C853.9,54.12,853.5,63,851.54,73.27c-1.68,8.81-5.07,3.48-7.4,0.05" style="fill:none;stroke:#999;stroke-width:3" />
<path d="M827.5699999999999,31.12c0.5,0.37,1.66,2.13,1.66,3.48c0,0.74,0.23,60.94,0.13,65.53" style="fill:none;stroke:black;stroke-width:3" />
<circle cx="827.5699999999999" cy="31.12" r="5" stroke-width="0" fill="#FF2A00" opacity="0.7" />
</svg>