<svg width="1199px" height="109px" viewBox="0 0 1199px 109px" xmlns="http://www.w3.org/2000/svg" xmlns:xlink="http://www.w3.org/1999/xlink" xml:space="preserve" version="1.1"  baseProfile="full">
<line x1="1" y1="1" x2="1198" y2="1" style="stroke:#ddd;stroke-width:2" />
<line x1="1" y1="1" x2="1" y2="108" style="stroke:#ddd;stroke-width:2" />
<line x1="1" y1="108" x2="1198" y2="108" style="stroke:#ddd;stroke-width:2" />
<line x1="1198" y1="1" x2="1198" y2="108" style="stroke:#ddd;stroke-width:2" />
<line x1="109" y1="1" x2="109" y2="108" style="stroke:#ddd;stroke-width:2" />
<line x1="218" y1="1" x2="218" y2="108" style="stroke:#ddd;stroke-width:2" />
<line x1="327" y1="1" x2="327" y2="108" style="stroke:#ddd;stroke-width:2" />
<line x1="436" y1="1" x2="436" y2="108" style="stroke:#ddd;stroke-width:2" />
<line x1="545" y1="1" x2="545" y2="108" style="stroke:#ddd;stroke-width:2" />
<line x1="654" y1="1" x2="654" y2="108" style="stroke:#ddd;stroke-width:2" />
<line x1="763" y1="1" x2="763" y2="108" style="stroke:#ddd;stroke-width:2" />
<line x1="872" y1="1" x2="872" y2="108" style="stroke:#ddd;stroke-width:2" />
<line x1="981" y1="1" x2="981" y2="108" style="stroke:#ddd;stroke-width:2" />
<line x1="1090" y1="1" x2="1090" y2="108" style="stroke:#ddd;stroke-width:2" />
<line x1="1" y1="54" x2="1198" y2="54" style="stroke:#ddd;stroke-width:2;stroke-dasharray:3 3" />
<line x1="55" y1="1" x2="55" y2="108" style="stroke:#ddd;stroke-width:2;stroke-dasharray:3 3" />
<line x1="164" y1="1" x2="164" y2="108" style="stroke:#ddd;stroke-width:2;stroke-dasharray:3 3" />
<line x1="273" y1="1" x2="273" y2="108" style="stroke:#ddd;stroke-width:2;stroke-dasharray:3 3" />
<line x1="382" y1="1" x2="382" y2="108" style="stroke:#ddd;stroke-width:2;stroke-dasharray:3 3" />
<line x1="491" y1="1" x2="491" y2="108" style="stroke:#ddd;stroke-width:2;stroke-dasharray:3 3" />
<line x1="600" y1="1" x2="600" y2="108" style="stroke:#ddd;stroke-width:2;stroke-dasharray:3 3" />
<line x1="709" y1="1" x2="709" y2="108" style="stroke:#ddd;stroke-width:2;stroke-dasharray:3 3" />
<line x1="818" y1="1" x2="818" y2="108" style="stroke:#ddd;stroke-width:2;stroke-dasharray:3 3" />
<line x1="927" y1="1" x2="927" y2="108" style="stroke:#ddd;stroke-width:2;stroke-dasharray:3 3" />
<line x1="1036" y1="1" x2="1036" y2="108" style="stroke:#ddd;stroke-width:2;stroke-dasharray:3 3" />
<line x1="1145" y1="1" x2="1145" y2="108" style="stroke:#ddd;stroke-width:2;stroke-dasharray:3 3" />
<path d="M20.38,17.25c4.54,1.69,10.49,6.12,12.87,9.59" style="fill:none;stroke:black;stroke-width:3" />
<circle cx="20.38" cy="17.25" r="5" stroke-width="0" fill="#FF2A00" opacity="0.7" />
<path d="M129.38,17.25c4.54,1.69,10.49,6.12,12.87,9.59" style="fill:none;stroke:#999;stroke-width:3" />
<path d="M123.5,44c4.41,1.41,9.62,4.75,12.5,8" style="fill:none;stroke:black;stroke-width:3" />
<circle cx="123.5" cy="44.0" r="5" stroke-width="0" fill="#FF2A00" opacity="0.7" />
<path d="M238.38,17.25c4.54,1.69,10.49,6.12,12.87,9.59" style="fill:none;stroke:#999;stroke-width:3" />
<path d="M232.5,44c4.41,1.41,9.62,4.75,12.5,8" style="fill:none;stroke:#999;stroke-width:3" />
<path d="M236.0,92.96c1.88,0.79,3.06-0.14,4-1.75c2.75-4.7,5.25-10.7,7.75-16.7" style="fill:none;stroke:black;stroke-width:3" />
<circle cx="236.0" cy="92.96" r="5" stroke-width="0" fill="#FF2A00" opacity="0.7" />
<path d="M347.38,17.25c4.54,1.69,10.49,6.12,12.87,9.59" style="fill:none;stroke:#999;stroke-width:3" />
<path d="M341.5,44c4.41,1.41,9.62,4.75,12.5,8" style="fill:none;stroke:#999;stroke-width:3" />
<path d="M345.0,92.96c1.88,0.79,3.06-0.14,4-1.75c2.75-4.7,5.25-10.7,7.75-16.7" style="fill:none;stroke:#999;stroke-width:3" />
<path d="M409.71,13.14c-0.52,1.2-1.33,2.04-2.44,2.52c-5.5,2.84-15.79,5.73-30.97,9.3" style="fill:none;stroke:black;stroke-width:3" />
<circle cx="409.71" cy="13.14" r="5" stroke-width="0" fill="#FF2A00" opacity="0.7" />
<path d="M456.38,17.25c4.54,1.69,10.49,6.12,12.87,9.59" style="fill:none;stroke:#999;stroke-width:3" />
<path d="M450.5,44c4.41,1.41,9.62,4.75,12.5,8" style="fill:none;stroke:#999;stroke-width:3" />
<path d="M454.0,92.96c1.88,0.79,3.06-0.14,4-1.75c2.75-4.7,5.25-10.7,7.75-16.7" style="fill:none;stroke:#999;stroke-width:3" />
<path d="M518.71,13.14c-0.52,1.2-1.33,2.04-2.44,2.52c-5.5,2.84-15.79,5.73-30.97,9.3" style="fill:none;stroke:#999;stroke-width:3" />
<path d="M479.89,32.46c2.44,2.29,6.31,9.44,6.92,13.01" style="fill:none;stroke:black;stroke-width:3" />
<circle cx="479.89" cy="32.46" r="5" stroke-width="0" fill="#FF2A00" opacity="0.7" />
<path d="M565.38,17.25c4.54,1.69,10.49,6.12,12.87,9.59" style="fill:none;stroke:#999;stroke-width:3" />
<path d="M559.5,44c4.41,1.41,9.62,4.75,12.5,8" style="fill:none;stroke:#999;stroke-width:3" />
<path d="M563.0,92.96c1.88,0.79,3.06-0.14,4-1.75c2.75-4.7,5.25-10.7,7.75-16.7" style="fill:none;stroke:#999;stroke-width:3" />
<path d="M627.71,13.14c-0.52,1.2-1.33,2.04-2.44,2.52c-5.5,2.84-15.79,5.73-30.97,9.3" style="fill:none;stroke:#999;stroke-width:3" />
<path d="M588.89,32.46c2.44,2.29,6.31,9.44,6.92,13.01" style="fill:none;stroke:#999;stroke-width:3" />
<path d="M606.38,27.88c2.36,2.13,6.09,8.77,6.68,12.09" style="fill:none;stroke:black;stroke-width:3" />
<circle cx="606.38" cy="27.88" r="5" stroke-width="0" fill="#FF2A00" opacity="0.7" />
<path d="M674.38,17.25c4.54,1.69,10.49,6.12,12.87,9.59" style="fill:none;stroke:#999;stroke-width:3" />
<path d="M668.5,44c4.41,1.41,9.62,4.75,12.5,8" style="fill:none;stroke:#999;stroke-width:3" />
<path d="M672.0,92.96c1.88,0.79,3.06-0.14,4-1.75c2.75-4.7,5.25-10.7,7.75-16.7" style="fill:none;stroke:#999;stroke-width:3" />
<path d="M736.71,13.14c-0.52,1.2-1.33,2.04-2.44,2.52c-5.5,2.84-15.79,5.73-30.97,9.3" style="fill:none;stroke:#999;stroke-width:3" />
<path d="M697.89,32.46c2.44,2.29,6.31,9.44,6.92,13.01" style="fill:none;stroke:#999;stroke-width:3" />
<path d="M715.38,27.88c2.36,2.13,6.09,8.77,6.68,12.09" style="fill:none;stroke:#999;stroke-width:3" />
<path d="M744.52,24.14c0.11,1.16,0.02,1.93-0.67,2.91c-2.6,3.7-4.98,6.95-11.79,13.42" style="fill:none;stroke:black;stroke-width:3" />
<circle cx="744.52" cy="24.14" r="5" stroke-width="0" fill="#FF2A00" opacity="0.7" />
<path d="M783.38,17.25c4.54,1.69,10.49,6.12,12.87,9.59" style="fill:none;stroke:#999;stroke-width:3" />
<path d="M777.5,44c4.41,1.41,9.62,4.75,12.5,8" style="fill:none;stroke:#999;stroke-width:3" />
<path d="M781.0,92.96c1.88,0.79,3.06-0.14,4-1.75c2.75-4.7,5.25-10.7,7.75-16.7" style="fill:none;stroke:#999;stroke-width:3" />
<path d="M845.71,13.14c-0.52,1.2-1.33,2.04-2.44,2.52c-5.5,2.84-15.79,5.73-30.97,9.3" style="fill:none;stroke:#999;stroke-width:3" />
<path d="M806.89,32.46c2.44,2.29,6.31,9.44,6.92,13.01" style="fill:none;stroke:#999;stroke-width:3" />
<path d="M824.38,27.88c2.36,2.13,6.09,8.77,6.68,12.09" style="fill:none;stroke:#999;stroke-width:3" />
<path d="M853.52,24.14c0.11,1.16,0.02,1.93-0.67,2.91c-2.6,3.7-4.98,6.95-11.79,13.42" style="fill:none;stroke:#999;stroke-width:3" />
<path d="M847.55,44.5c-0.42,1.25-1.45,2.2-2.33,2.6c-7.29,3.35-17.07,5.69-34.43,8.44" style="fill:none;stroke:black;stroke-width:3" />
<circle cx="847.55" cy="44.5" r="5" stroke-width="0" fill="#FF2A00" opacity="0.7" />
<path d="M892.38,17.25c4.54,1.69,10.49,6.12,12.87,9.59" style="fill:none;stroke:#999;stroke-width:3" />
<path d="M886.5,44c4.41,1.41,9.62,4.75,12.5,8" style="fill:none;stroke:#999;stroke-width:3" />
<path d="M890.0,92.96c1.88,0.79,3.06-0.14,4-1.75c2.75-4.7,5.25-10.7,7.75-16.7" style="fill:none;stroke:#999;stroke-width:3" />
<path d="M954.71,13.14c-0.52,1.2-1.33,2.04-2.44,2.52c-5.5,2.84-15.79,5.73-30.97,9.3" style="fill:none;stroke:#999;stroke-width:3" />
<path d="M915.89,32.46c2.44,2.29,6.31,9.44,6.92,13.01" style="fill:none;stroke:#999;stroke-width:3" />
<path d="M933.38,27.88c2.36,2.13,6.09,8.77,6.68,12.09" style="fill:none;stroke:#999;stroke-width:3" />
<path d="M962.52,24.14c0.11,1.16,0.02,1.93-0.67,2.91c-2.6,3.7-4.98,6.95-11.79,13.42" style="fill:none;stroke:#999;stroke-width:3" />
<path d="M956.55,44.5c-0.42,1.25-1.45,2.2-2.33,2.6c-7.29,3.35-17.07,5.69-34.43,8.44" style="fill:none;stroke:#999;stroke-width:3" />
<path d="M911.68,71.18c3.08,0.42,6.14,0.44,9.19,0.09c11.88-1.21,27.44-2.26,39.62-2.56c2.61-0.06,5.26-0.18,7.83,0.37" style="fill:none;stroke:black;stroke-width:3" />
<circle cx="911.68" cy="71.18" r="5" stroke-width="0" fill="#FF2A00" opacity="0.7" />
<path d="M1001.38,17.25c4.54,1.69,10.49,6.12,12.87,9.59" style="fill:none;stroke:#999;stroke-width:3" />
<path d="M995.5,44c4.41,1.41,9.62,4.75,12.5,8" style="fill:none;stroke:#999;stroke-width:3" />
<path d="M999.0,92.96c1.88,0.79,3.06-0.14,4-1.75c2.75-4.7,5.25-10.7,7.75-16.7" style="fill:none;stroke:#999;stroke-width:3" />
<path d="M1063.71,13.14c-0.52,1.2-1.33,2.04-2.44,2.52c-5.5,2.84-15.79,5.73-30.97,9.3" style="fill:none;stroke:#999;stroke-width:3" />
<path d="M1024.8899999999999,32.46c2.44,2.29,6.31,9.44,6.92,13.01" style="fill:none;stroke:#999;stroke-width:3" />
<path d="M1042.38,27.88c2.36,2.13,6.09,8.77,6.68,12.09" style="fill:none;stroke:#999;stroke-width:3" />
<path d="M1071.52,24.14c0.11,1.16,0.02,1.93-0.67,2.91c-2.6,3.7-4.98,6.95-11.79,13.42" style="fill:none;stroke:#999;stroke-width:3" />
<path d="M1065.55,44.5c-0.42,1.25-1.45,2.2-2.33,2.6c-7.29,3.35-17.07,5.69-34.43,8.44" style="fill:none;stroke:#999;stroke-width:3" />
<path d="M1020.68,71.18c3.08,0.42,6.14,0.44,9.19,0.09c11.88-1.21,27.44-2.26,39.62-2.56c2.61-0.06,5.26-0.18,7.83,0.37" style="fill:none;stroke:#999;stroke-width:3" />
<path d="M1048.69,54.33c1.05,1.05,1.25,2.3,1.25,3.78c0,8.89-0.07,24.77-0.07,32.89" style="fill:none;stroke:black;stroke-width:3" />
<circle cx="1048.69" cy="54.33" r="5" stroke-width="0" fill="#FF2A00" opacity="0.7" />
<path d="M1110.38,17.25c4.54,1.69,10.49,6.12,12.87,9.59" style="fill:none;stroke:#999;stroke-width:3" />
<path d="M1104.5,44c4.41,1.41,9.62,4.75,12.5,8" style="fill:none;stroke:#999;stroke-width:3" />
<path d="M1108.0,92.96c1.88,0.79,3.06-0.14,4-1.75c2.75-4.7,5.25-10.7,7.75-16.7" style="fill:none;stroke:#999;stroke-width:3" />
<path d="M1172.71,13.14c-0.52,1.2-1.33,2.04-2.44,2.52c-5.5,2.84-15.79,5.73-30.97,9.3" style="fill:none;stroke:#999;stroke-width:3" />
<path d="M1133.8899999999999,32.46c2.44,2.29,6.31,9.44,6.92,13.01" style="fill:none;stroke:#999;stroke-width:3" />
<path d="M1151.38,27.88c2.36,2.13,6.09,8.77,6.68,12.09" style="fill:none;stroke:#999;stroke-width:3" />
<path d="M1180.52,24.14c0.11,1.16,0.02,1.93-0.67,2.91c-2.6,3.7-4.98,6.95-11.79,13.42" style="fill:none;stroke:#999;stroke-width:3" />
<path d="M1174.55,44.5c-0.42,1.25-1.45,2.2-2.33,2.6c-7.29,3.35-17.07,5.69-34.43,8.44" style="fill:none;stroke:#999;stroke-width:3" />
<path d="M1129.6799999999998,71.18c3.08,0.42,6.14,0.44,9.19,0.09c11.88-1.21,27.44-2.26,39.62-2.56c2.61-0.06,5.26-0.18,7.83,0.37" style="fill:none;stroke:#999;stroke-width:3" />
<path d="M1157.69,54.33c1.05,1.05,1.25,2.3,1.25,3.78c0,8.89-0.07,24.77-0.07,32.89" style="fill:none;stroke:#999;stroke-width:3" />
<path d="M1135.57,93.08c2.12,0.65,4.9,0.35,7.06,0.16c11.5-0.99,23.71-1.91,35-2.11c2.15-0.04,4.56,0.11,6.68,0.5" style="fill:none;stroke:black;stroke-width:3" />
<circle cx="1135.57" cy="93.08" r="5" stroke-width="0" fill="#FF2A00" opacity="0.7" />
</svg>