<svg width="1308px" height="109px" viewBox="0 0 1308px 109px" xmlns="http://www.w3.org/2000/svg" xmlns:xlink="http://www.w3.org/1999/xlink" xml:space="preserve" version="1.1"  baseProfile="full">
<line x1="1" y1="1" x2="1307" y2="1" style="stroke:#ddd;stroke-width:2" />
<line x1="1" y1="1" x2="1" y2="108" style="stroke:#ddd;stroke-width:2" />
<line x1="1" y1="108" x2="1307" y2="108" style="stroke:#ddd;stroke-width:2" />
<line x1="1307" y1="1" x2="1307" y2="108" style="stroke:#ddd;stroke-width:2" />
<line x1="109" y1="1" x2="109" y2="108" style="stroke:#ddd;stroke-width:2" />
<line x1="218" y1="1" x2="218" y2="108" style="stroke:#ddd;stroke-width:2" />
<line x1="327" y1="1" x2="327" y2="108" style="stroke:#ddd;stroke-width:2" />
<line x1="436" y1="1" x2="436" y2="108" style="stroke:#ddd;stroke-width:2" />
<line x1="545" y1="1" x2="545" y2="108" style="stroke:#ddd;stroke-width:2" />
<line x1="654" y1="1" x2="654" y2="108" style="stroke:#ddd;stroke-width:2" />
<line x1="763" y1="1" x2="763" y2="108" style="stroke:#ddd;stroke-width:2" />
<line x1="872" y1="1" x2="872" y2="108" style="stroke:#ddd;stroke-width:2" />
<line x1="981" y1="1" x2="981" y2="108" style="stroke:#ddd;stroke-width:2" />
<line x1="1090" y1="1" x2="1090" y2="108" style="stroke:#ddd;stroke-width:2" />
<line x1="1199" y1="1" x2="1199" y2="108" style="stroke:#ddd;stroke-width:2" />
<line x1="1" y1="54" x2="1307" y2="54" style="stroke:#ddd;stroke-width:2;stroke-dasharray:3 3" />
<line x1="55" y1="1" x2="55" y2="108" style="stroke:#ddd;stroke-width:2;stroke-dasharray:3 3" />
<line x1="164" y1="1" x2="164" y2="108" style="stroke:#ddd;stroke-width:2;stroke-dasharray:3 3" />
<line x1="273" y1="1" x2="273" y2="108" style="stroke:#ddd;stroke-width:2;stroke-dasharray:3 3" />
<line x1="382" y1="1" x2="382" y2="108" style="stroke:#ddd;stroke-width:2;stroke-dasharray:3 3" />
<line x1="491" y1="1" x2="491" y2="108" style="stroke:#ddd;stroke-width:2;stroke-dasharray:3 3" />
<line x1="600" y1="1" x2="600" y2="108" style="stroke:#ddd;stroke-width:2;stroke-dasharray:3 3" />
<line x1="709" y1="1" x2="709" y2="108" style="stroke:#ddd;stroke-width:2;stroke-dasharray:3 3" />
<line x1="818" y1="1" x2="818" y2="108" style="stroke:#ddd;stroke-width:2;stroke-dasharray:3 3" />
<line x1="927" y1="1" x2="927" y2="108" style="stroke:#ddd;stroke-width:2;stroke-dasharray:3 3" />
<line x1="1036" y1="1" x2="1036" y2="108" style="stroke:#ddd;stroke-width:2;stroke-dasharray:3 3" />
<line x1="1145" y1="1" x2="1145" y2="108" style="stroke:#ddd;stroke-width:2;stroke-dasharray:3 3" />
<line x1="1254" y1="1" x2="1254" y2="108" style="stroke:#ddd;stroke-width:2;stroke-dasharray:3 3" />
<path d="M17.63,16.5c4.45,1.78,11.5,7.32,12.62,10.09" style="fill:none;stroke:black;stroke-width:3" />
<circle cx="17.63" cy="16.5" r="5" stroke-width="0" fill="#FF2A00" opacity="0.7" />
<path d="M126.63,16.5c4.45,1.78,11.5,7.32,12.62,10.09" style="fill:none;stroke:#999;stroke-width:3" />
<path d="M123.5,43.25c4.24,1.72,10.94,7.07,12,9.75" style="fill:none;stroke:black;stroke-width:3" />
<circle cx="123.5" cy="43.25" r="5" stroke-width="0" fill="#FF2A00" opacity="0.7" />
<path d="M235.63,16.5c4.45,1.78,11.5,7.32,12.62,10.09" style="fill:none;stroke:#999;stroke-width:3" />
<path d="M232.5,43.25c4.24,1.72,10.94,7.07,12,9.75" style="fill:none;stroke:#999;stroke-width:3" />
<path d="M233.75,89.73c1.71,1.27,3.78,1.32,4.86-0.25c3.14-4.57,6.29-10.16,9.14-15.99" style="fill:none;stroke:black;stroke-width:3" />
<circle cx="233.75" cy="89.73" r="5" stroke-width="0" fill="#FF2A00" opacity="0.7" />
<path d="M344.63,16.5c4.45,1.78,11.5,7.32,12.62,10.09" style="fill:none;stroke:#999;stroke-width:3" />
<path d="M341.5,43.25c4.24,1.72,10.94,7.07,12,9.75" style="fill:none;stroke:#999;stroke-width:3" />
<path d="M342.75,89.73c1.71,1.27,3.78,1.32,4.86-0.25c3.14-4.57,6.29-10.16,9.14-15.99" style="fill:none;stroke:#999;stroke-width:3" />
<path d="M390.09000000000003,10.75c0.07,0.81,0.26,2.16-0.14,3.26C387.53,20.72,378.0,35.75,366.0,46.25" style="fill:none;stroke:black;stroke-width:3" />
<circle cx="390.09000000000003" cy="10.75" r="5" stroke-width="0" fill="#FF2A00" opacity="0.7" />
<path d="M453.63,16.5c4.45,1.78,11.5,7.32,12.62,10.09" style="fill:none;stroke:#999;stroke-width:3" />
<path d="M450.5,43.25c4.24,1.72,10.94,7.07,12,9.75" style="fill:none;stroke:#999;stroke-width:3" />
<path d="M451.75,89.73c1.71,1.27,3.78,1.32,4.86-0.25c3.14-4.57,6.29-10.16,9.14-15.99" style="fill:none;stroke:#999;stroke-width:3" />
<path d="M499.09000000000003,10.75c0.07,0.81,0.26,2.16-0.14,3.26C496.53,20.72,487.0,35.75,475.0,46.25" style="fill:none;stroke:#999;stroke-width:3" />
<path d="M498.9,15.11c4.14,4.91,21.96,20.93,26.52,24.53c1.55,1.22,3.54,1.74,5.08,2.09" style="fill:none;stroke:black;stroke-width:3" />
<circle cx="498.9" cy="15.11" r="5" stroke-width="0" fill="#FF2A00" opacity="0.7" />
<path d="M562.63,16.5c4.45,1.78,11.5,7.32,12.62,10.09" style="fill:none;stroke:#999;stroke-width:3" />
<path d="M559.5,43.25c4.24,1.72,10.94,7.07,12,9.75" style="fill:none;stroke:#999;stroke-width:3" />
<path d="M560.75,89.73c1.71,1.27,3.78,1.32,4.86-0.25c3.14-4.57,6.29-10.16,9.14-15.99" style="fill:none;stroke:#999;stroke-width:3" />
<path d="M608.09,10.75c0.07,0.81,0.26,2.16-0.14,3.26C605.53,20.72,596.0,35.75,584.0,46.25" style="fill:none;stroke:#999;stroke-width:3" />
<path d="M607.9,15.11c4.14,4.91,21.96,20.93,26.52,24.53c1.55,1.22,3.54,1.74,5.08,2.09" style="fill:none;stroke:#999;stroke-width:3" />
<path d="M597.69,40.22c0.56,0.03,2.46,0.64,3.16,0.63c4.66-0.07,15.4-1.35,20.95-1.57c1.15-0.04,1.85,0.06,2.43,0.13" style="fill:none;stroke:black;stroke-width:3" />
<circle cx="597.69" cy="40.22" r="5" stroke-width="0" fill="#FF2A00" opacity="0.7" />
<path d="M671.63,16.5c4.45,1.78,11.5,7.32,12.62,10.09" style="fill:none;stroke:#999;stroke-width:3" />
<path d="M668.5,43.25c4.24,1.72,10.94,7.07,12,9.75" style="fill:none;stroke:#999;stroke-width:3" />
<path d="M669.75,89.73c1.71,1.27,3.78,1.32,4.86-0.25c3.14-4.57,6.29-10.16,9.14-15.99" style="fill:none;stroke:#999;stroke-width:3" />
<path d="M717.09,10.75c0.07,0.81,0.26,2.16-0.14,3.26C714.53,20.72,705.0,35.75,693.0,46.25" style="fill:none;stroke:#999;stroke-width:3" />
<path d="M716.9,15.11c4.14,4.91,21.96,20.93,26.52,24.53c1.55,1.22,3.54,1.74,5.08,2.09" style="fill:none;stroke:#999;stroke-width:3" />
<path d="M706.69,40.22c0.56,0.03,2.46,0.64,3.16,0.63c4.66-0.07,15.4-1.35,20.95-1.57c1.15-0.04,1.85,0.06,2.43,0.13" style="fill:none;stroke:#999;stroke-width:3" />
<path d="M697.61,50.75c0.56,1,0.93,2,1.12,3S,699.0,93.75,698.92,96" style="fill:none;stroke:black;stroke-width:3" />
<circle cx="697.61" cy="50.75" r="5" stroke-width="0" fill="#FF2A00" opacity="0.7" />
<path d="M780.63,16.5c4.45,1.78,11.5,7.32,12.62,10.09" style="fill:none;stroke:#999;stroke-width:3" />
<path d="M777.5,43.25c4.24,1.72,10.94,7.07,12,9.75" style="fill:none;stroke:#999;stroke-width:3" />
<path d="M778.75,89.73c1.71,1.27,3.78,1.32,4.86-0.25c3.14-4.57,6.29-10.16,9.14-15.99" style="fill:none;stroke:#999;stroke-width:3" />
<path d="M826.09,10.75c0.07,0.81,0.26,2.16-0.14,3.26C823.53,20.72,814.0,35.75,802.0,46.25" style="fill:none;stroke:#999;stroke-width:3" />
<path d="M825.9,15.11c4.14,4.91,21.96,20.93,26.52,24.53c1.55,1.22,3.54,1.74,5.08,2.09" style="fill:none;stroke:#999;stroke-width:3" />
<path d="M815.69,40.22c0.56,0.03,2.46,0.64,3.16,0.63c4.66-0.07,15.4-1.35,20.95-1.57c1.15-0.04,1.85,0.06,2.43,0.13" style="fill:none;stroke:#999;stroke-width:3" />
<path d="M806.61,50.75c0.56,1,0.93,2,1.12,3S,699.0,93.75,698.92,96" style="fill:none;stroke:#999;stroke-width:3" />
<path d="M808.85,52.69c1.25-0.14,12.71-2.05,13.64-2.21c1.67-0.28,2.29,1.85,2.08,2.71c-0.2,0.82-0.31,25.06-0.31,36.6c0,10.21-4.7,2.56-5.75,1.28" style="fill:none;stroke:black;stroke-width:3" />
<circle cx="808.85" cy="52.69" r="5" stroke-width="0" fill="#FF2A00" opacity="0.7" />
<path d="M889.63,16.5c4.45,1.78,11.5,7.32,12.62,10.09" style="fill:none;stroke:#999;stroke-width:3" />
<path d="M886.5,43.25c4.24,1.72,10.94,7.07,12,9.75" style="fill:none;stroke:#999;stroke-width:3" />
<path d="M887.75,89.73c1.71,1.27,3.78,1.32,4.86-0.25c3.14-4.57,6.29-10.16,9.14-15.99" style="fill:none;stroke:#999;stroke-width:3" />
<path d="M935.09,10.75c0.07,0.81,0.26,2.16-0.14,3.26C932.53,20.72,923.0,35.75,911.0,46.25" style="fill:none;stroke:#999;stroke-width:3" />
<path d="M934.9,15.11c4.14,4.91,21.96,20.93,26.52,24.53c1.55,1.22,3.54,1.74,5.08,2.09" style="fill:none;stroke:#999;stroke-width:3" />
<path d="M924.69,40.22c0.56,0.03,2.46,0.64,3.16,0.63c4.66-0.07,15.4-1.35,20.95-1.57c1.15-0.04,1.85,0.06,2.43,0.13" style="fill:none;stroke:#999;stroke-width:3" />
<path d="M915.61,50.75c0.56,1,0.93,2,1.12,3S,699.0,93.75,698.92,96" style="fill:none;stroke:#999;stroke-width:3" />
<path d="M917.85,52.69c1.25-0.14,12.71-2.05,13.64-2.21c1.67-0.28,2.29,1.85,2.08,2.71c-0.2,0.82-0.31,25.06-0.31,36.6c0,10.21-4.7,2.56-5.75,1.28" style="fill:none;stroke:#999;stroke-width:3" />
<path d="M922.0,59.33c2.07,0.95,5.34,3.91,5.86,5.38" style="fill:none;stroke:black;stroke-width:3" />
<circle cx="922.0" cy="59.33" r="5" stroke-width="0" fill="#FF2A00" opacity="0.7" />
<path d="M998.63,16.5c4.45,1.78,11.5,7.32,12.62,10.09" style="fill:none;stroke:#999;stroke-width:3" />
<path d="M995.5,43.25c4.24,1.72,10.94,7.07,12,9.75" style="fill:none;stroke:#999;stroke-width:3" />
<path d="M996.75,89.73c1.71,1.27,3.78,1.32,4.86-0.25c3.14-4.57,6.29-10.16,9.14-15.99" style="fill:none;stroke:#999;stroke-width:3" />
<path d="M1044.0900000000001,10.75c0.07,0.81,0.26,2.16-0.14,3.26C1041.53,20.72,1032.0,35.75,1020.0,46.25" style="fill:none;stroke:#999;stroke-width:3" />
<path d="M1043.9,15.11c4.14,4.91,21.96,20.93,26.52,24.53c1.55,1.22,3.54,1.74,5.08,2.09" style="fill:none;stroke:#999;stroke-width:3" />
<path d="M1033.69,40.22c0.56,0.03,2.46,0.64,3.16,0.63c4.66-0.07,15.4-1.35,20.95-1.57c1.15-0.04,1.85,0.06,2.43,0.13" style="fill:none;stroke:#999;stroke-width:3" />
<path d="M1024.6100000000001,50.75c0.56,1,0.93,2,1.12,3S,699.0,93.75,698.92,96" style="fill:none;stroke:#999;stroke-width:3" />
<path d="M1026.85,52.69c1.25-0.14,12.71-2.05,13.64-2.21c1.67-0.28,2.29,1.85,2.08,2.71c-0.2,0.82-0.31,25.06-0.31,36.6c0,10.21-4.7,2.56-5.75,1.28" style="fill:none;stroke:#999;stroke-width:3" />
<path d="M1031.0,59.33c2.07,0.95,5.34,3.91,5.86,5.38" style="fill:none;stroke:#999;stroke-width:3" />
<path d="M1030.58,74.33c1.94,0.99,5.02,4.09,5.5,5.63" style="fill:none;stroke:black;stroke-width:3" />
<circle cx="1030.58" cy="74.33" r="5" stroke-width="0" fill="#FF2A00" opacity="0.7" />
<path d="M1107.63,16.5c4.45,1.78,11.5,7.32,12.62,10.09" style="fill:none;stroke:#999;stroke-width:3" />
<path d="M1104.5,43.25c4.24,1.72,10.94,7.07,12,9.75" style="fill:none;stroke:#999;stroke-width:3" />
<path d="M1105.75,89.73c1.71,1.27,3.78,1.32,4.86-0.25c3.14-4.57,6.29-10.16,9.14-15.99" style="fill:none;stroke:#999;stroke-width:3" />
<path d="M1153.0900000000001,10.75c0.07,0.81,0.26,2.16-0.14,3.26C1150.53,20.72,1141.0,35.75,1129.0,46.25" style="fill:none;stroke:#999;stroke-width:3" />
<path d="M1152.9,15.11c4.14,4.91,21.96,20.93,26.52,24.53c1.55,1.22,3.54,1.74,5.08,2.09" style="fill:none;stroke:#999;stroke-width:3" />
<path d="M1142.69,40.22c0.56,0.03,2.46,0.64,3.16,0.63c4.66-0.07,15.4-1.35,20.95-1.57c1.15-0.04,1.85,0.06,2.43,0.13" style="fill:none;stroke:#999;stroke-width:3" />
<path d="M1133.6100000000001,50.75c0.56,1,0.93,2,1.12,3S,699.0,93.75,698.92,96" style="fill:none;stroke:#999;stroke-width:3" />
<path d="M1135.85,52.69c1.25-0.14,12.71-2.05,13.64-2.21c1.67-0.28,2.29,1.85,2.08,2.71c-0.2,0.82-0.31,25.06-0.31,36.6c0,10.21-4.7,2.56-5.75,1.28" style="fill:none;stroke:#999;stroke-width:3" />
<path d="M1140.0,59.33c2.07,0.95,5.34,3.91,5.86,5.38" style="fill:none;stroke:#999;stroke-width:3" />
<path d="M1139.58,74.33c1.94,0.99,5.02,4.09,5.5,5.63" style="fill:none;stroke:#999;stroke-width:3" />
<path d="M1165.37,49.12c0.29,1.03,1.08,2.81,0.65,4.22c-1.3,4.33-5.25,12.02-9.19,17.2c-1.08,1.42-0.01,2.32,0.28,2.61c4.78,4.74,7.61,11.11,10.01,21.36" style="fill:none;stroke:black;stroke-width:3" />
<circle cx="1165.37" cy="49.12" r="5" stroke-width="0" fill="#FF2A00" opacity="0.7" />
<path d="M1216.63,16.5c4.45,1.78,11.5,7.32,12.62,10.09" style="fill:none;stroke:#999;stroke-width:3" />
<path d="M1213.5,43.25c4.24,1.72,10.94,7.07,12,9.75" style="fill:none;stroke:#999;stroke-width:3" />
<path d="M1214.75,89.73c1.71,1.27,3.78,1.32,4.86-0.25c3.14-4.57,6.29-10.16,9.14-15.99" style="fill:none;stroke:#999;stroke-width:3" />
<path d="M1262.0900000000001,10.75c0.07,0.81,0.26,2.16-0.14,3.26C1259.53,20.72,1250.0,35.75,1238.0,46.25" style="fill:none;stroke:#999;stroke-width:3" />
<path d="M1261.9,15.11c4.14,4.91,21.96,20.93,26.52,24.53c1.55,1.22,3.54,1.74,5.08,2.09" style="fill:none;stroke:#999;stroke-width:3" />
<path d="M1251.69,40.22c0.56,0.03,2.46,0.64,3.16,0.63c4.66-0.07,15.4-1.35,20.95-1.57c1.15-0.04,1.85,0.06,2.43,0.13" style="fill:none;stroke:#999;stroke-width:3" />
<path d="M1242.6100000000001,50.75c0.56,1,0.93,2,1.12,3S,699.0,93.75,698.92,96" style="fill:none;stroke:#999;stroke-width:3" />
<path d="M1244.85,52.69c1.25-0.14,12.71-2.05,13.64-2.21c1.67-0.28,2.29,1.85,2.08,2.71c-0.2,0.82-0.31,25.06-0.31,36.6c0,10.21-4.7,2.56-5.75,1.28" style="fill:none;stroke:#999;stroke-width:3" />
<path d="M1249.0,59.33c2.07,0.95,5.34,3.91,5.86,5.38" style="fill:none;stroke:#999;stroke-width:3" />
<path d="M1248.58,74.33c1.94,0.99,5.02,4.09,5.5,5.63" style="fill:none;stroke:#999;stroke-width:3" />
<path d="M1274.37,49.12c0.29,1.03,1.08,2.81,0.65,4.22c-1.3,4.33-5.25,12.02-9.19,17.2c-1.08,1.42-0.01,2.32,0.28,2.61c4.78,4.74,7.61,11.11,10.01,21.36" style="fill:none;stroke:#999;stroke-width:3" />
<path d="M1287.44,48.12c0.32,1.08,1.2,2.94,0.73,4.42c-1.44,4.53-4.84,11.19-9.21,16.6c-1.19,1.49-0.01,2.43,0.31,2.74c5.29,4.96,8.47,11.64,11.01,22.37" style="fill:none;stroke:black;stroke-width:3" />
<circle cx="1287.44" cy="48.12" r="5" stroke-width="0" fill="#FF2A00" opacity="0.7" />
</svg>