<svg width="1417px" height="109px" viewBox="0 0 1417px 109px" xmlns="http://www.w3.org/2000/svg" xmlns:xlink="http://www.w3.org/1999/xlink" xml:space="preserve" version="1.1"  baseProfile="full">
<line x1="1" y1="1" x2="1416" y2="1" style="stroke:#ddd;stroke-width:2" />
<line x1="1" y1="1" x2="1" y2="108" style="stroke:#ddd;stroke-width:2" />
<line x1="1" y1="108" x2="1416" y2="108" style="stroke:#ddd;stroke-width:2" />
<line x1="1416" y1="1" x2="1416" y2="108" style="stroke:#ddd;stroke-width:2" />
<line x1="109" y1="1" x2="109" y2="108" style="stroke:#ddd;stroke-width:2" />
<line x1="218" y1="1" x2="218" y2="108" style="stroke:#ddd;stroke-width:2" />
<line x1="327" y1="1" x2="327" y2="108" style="stroke:#ddd;stroke-width:2" />
<line x1="436" y1="1" x2="436" y2="108" style="stroke:#ddd;stroke-width:2" />
<line x1="545" y1="1" x2="545" y2="108" style="stroke:#ddd;stroke-width:2" />
<line x1="654" y1="1" x2="654" y2="108" style="stroke:#ddd;stroke-width:2" />
<line x1="763" y1="1" x2="763" y2="108" style="stroke:#ddd;stroke-width:2" />
<line x1="872" y1="1" x2="872" y2="108" style="stroke:#ddd;stroke-width:2" />
<line x1="981" y1="1" x2="981" y2="108" style="stroke:#ddd;stroke-width:2" />
<line x1="1090" y1="1" x2="1090" y2="108" style="stroke:#ddd;stroke-width:2" />
<line x1="1199" y1="1" x2="1199" y2="108" style="stroke:#ddd;stroke-width:2" />
<line x1="1308" y1="1" x2="1308" y2="108" style="stroke:#ddd;stroke-width:2" />
<line x1="1" y1="54" x2="1416" y2="54" style="stroke:#ddd;stroke-width:2;stroke-dasharray:3 3" />
<line x1="55" y1="1" x2="55" y2="108" style="stroke:#ddd;stroke-width:2;stroke-dasharray:3 3" />
<line x1="164" y1="1" x2="164" y2="108" style="stroke:#ddd;stroke-width:2;stroke-dasharray:3 3" />
<line x1="273" y1="1" x2="273" y2="108" style="stroke:#ddd;stroke-width:2;stroke-dasharray:3 3" />
<line x1="382" y1="1" x2="382" y2="108" style="stroke:#ddd;stroke-width:2;stroke-dasharray:3 3" />
<line x1="491" y1="1" x2="491" y2="108" style="stroke:#ddd;stroke-width:2;stroke-dasharray:3 3" />
<line x1="600" y1="1" x2="600" y2="108" style="stroke:#ddd;stroke-width:2;stroke-dasharray:3 3" />
<line x1="709" y1="1" x2="709" y2="108" style="stroke:#ddd;stroke-width:2;stroke-dasharray:3 3" />
<line x1="818" y1="1" x2="818" y2="108" style="stroke:#ddd;stroke-width:2;stroke-dasharray:3 3" />
<line x1="927" y1="1" x2="927" y2="108" style="stroke:#ddd;stroke-width:2;stroke-dasharray:3 3" />
<line x1="1036" y1="1" x2="1036" y2="108" style="stroke:#ddd;stroke-width:2;stroke-dasharray:3 3" />
<line x1="1145" y1="1" x2="1145" y2="108" style="stroke:#ddd;stroke-width:2;stroke-dasharray:3 3" />
<line x1="1254" y1="1" x2="1254" y2="108" style="stroke:#ddd;stroke-width:2;stroke-dasharray:3 3" />
<line x1="1363" y1="1" x2="1363" y2="108" style="stroke:#ddd;stroke-width:2;stroke-dasharray:3 3" />
<path d="M20.39,19.12c3.92,1.41,10.13,5.78,11.11,7.97" style="fill:none;stroke:black;stroke-width:3" />
<circle cx="20.39" cy="19.12" r="5" stroke-width="0" fill="#FF2A00" opacity="0.7" />
<path d="M129.39,19.12c3.92,1.41,10.13,5.78,11.11,7.97" style="fill:none;stroke:#999;stroke-width:3" />
<path d="M124.0,44.75c4.5,1.15,11.62,4.72,12.75,6.5" style="fill:none;stroke:black;stroke-width:3" />
<circle cx="124.0" cy="44.75" r="5" stroke-width="0" fill="#FF2A00" opacity="0.7" />
<path d="M238.39,19.12c3.92,1.41,10.13,5.78,11.11,7.97" style="fill:none;stroke:#999;stroke-width:3" />
<path d="M233.0,44.75c4.5,1.15,11.62,4.72,12.75,6.5" style="fill:none;stroke:#999;stroke-width:3" />
<path d="M231.25,88.21c1.75,0.67,2.81-0.14,3.75-1.75c2.75-4.7,4.75-8.95,8-15.95" style="fill:none;stroke:black;stroke-width:3" />
<circle cx="231.25" cy="88.21" r="5" stroke-width="0" fill="#FF2A00" opacity="0.7" />
<path d="M347.39,19.12c3.92,1.41,10.13,5.78,11.11,7.97" style="fill:none;stroke:#999;stroke-width:3" />
<path d="M342.0,44.75c4.5,1.15,11.62,4.72,12.75,6.5" style="fill:none;stroke:#999;stroke-width:3" />
<path d="M340.25,88.21c1.75,0.67,2.81-0.14,3.75-1.75c2.75-4.7,4.75-8.95,8-15.95" style="fill:none;stroke:#999;stroke-width:3" />
<path d="M371.12,17.75c2.76,2.61,7.13,10.73,7.82,14.79" style="fill:none;stroke:black;stroke-width:3" />
<circle cx="371.12" cy="17.75" r="5" stroke-width="0" fill="#FF2A00" opacity="0.7" />
<path d="M456.39,19.12c3.92,1.41,10.13,5.78,11.11,7.97" style="fill:none;stroke:#999;stroke-width:3" />
<path d="M451.0,44.75c4.5,1.15,11.62,4.72,12.75,6.5" style="fill:none;stroke:#999;stroke-width:3" />
<path d="M449.25,88.21c1.75,0.67,2.81-0.14,3.75-1.75c2.75-4.7,4.75-8.95,8-15.95" style="fill:none;stroke:#999;stroke-width:3" />
<path d="M480.12,17.75c2.76,2.61,7.13,10.73,7.82,14.79" style="fill:none;stroke:#999;stroke-width:3" />
<path d="M511.90999999999997,13.89c0.14,1.25-0.06,2.43-0.59,3.52c-1.78,4.33-4.3,8.88-8.01,14.44" style="fill:none;stroke:black;stroke-width:3" />
<circle cx="511.90999999999997" cy="13.89" r="5" stroke-width="0" fill="#FF2A00" opacity="0.7" />
<path d="M565.39,19.12c3.92,1.41,10.13,5.78,11.11,7.97" style="fill:none;stroke:#999;stroke-width:3" />
<path d="M560.0,44.75c4.5,1.15,11.62,4.72,12.75,6.5" style="fill:none;stroke:#999;stroke-width:3" />
<path d="M558.25,88.21c1.75,0.67,2.81-0.14,3.75-1.75c2.75-4.7,4.75-8.95,8-15.95" style="fill:none;stroke:#999;stroke-width:3" />
<path d="M589.12,17.75c2.76,2.61,7.13,10.73,7.82,14.79" style="fill:none;stroke:#999;stroke-width:3" />
<path d="M620.91,13.89c0.14,1.25-0.06,2.43-0.59,3.52c-1.78,4.33-4.3,8.88-8.01,14.44" style="fill:none;stroke:#999;stroke-width:3" />
<path d="M582.02,38.55c3.36,0.44,6.69,0.37,10-0.22c8.62-1.06,22.82-2.48,31.6-3.31c3.2-0.4,6.41-0.43,9.64-0.1" style="fill:none;stroke:black;stroke-width:3" />
<circle cx="582.02" cy="38.55" r="5" stroke-width="0" fill="#FF2A00" opacity="0.7" />
<path d="M674.39,19.12c3.92,1.41,10.13,5.78,11.11,7.97" style="fill:none;stroke:#999;stroke-width:3" />
<path d="M669.0,44.75c4.5,1.15,11.62,4.72,12.75,6.5" style="fill:none;stroke:#999;stroke-width:3" />
<path d="M667.25,88.21c1.75,0.67,2.81-0.14,3.75-1.75c2.75-4.7,4.75-8.95,8-15.95" style="fill:none;stroke:#999;stroke-width:3" />
<path d="M698.12,17.75c2.76,2.61,7.13,10.73,7.82,14.79" style="fill:none;stroke:#999;stroke-width:3" />
<path d="M729.91,13.89c0.14,1.25-0.06,2.43-0.59,3.52c-1.78,4.33-4.3,8.88-8.01,14.44" style="fill:none;stroke:#999;stroke-width:3" />
<path d="M691.02,38.55c3.36,0.44,6.69,0.37,10-0.22c8.62-1.06,22.82-2.48,31.6-3.31c3.2-0.4,6.41-0.43,9.64-0.1" style="fill:none;stroke:#999;stroke-width:3" />
<path d="M707.04,41.19c0,1.17-0.3,2.08-0.82,3.11c-2.86,5.68-9.72,14.33-15.73,19.05" style="fill:none;stroke:black;stroke-width:3" />
<circle cx="707.04" cy="41.19" r="5" stroke-width="0" fill="#FF2A00" opacity="0.7" />
<path d="M783.39,19.12c3.92,1.41,10.13,5.78,11.11,7.97" style="fill:none;stroke:#999;stroke-width:3" />
<path d="M778.0,44.75c4.5,1.15,11.62,4.72,12.75,6.5" style="fill:none;stroke:#999;stroke-width:3" />
<path d="M776.25,88.21c1.75,0.67,2.81-0.14,3.75-1.75c2.75-4.7,4.75-8.95,8-15.95" style="fill:none;stroke:#999;stroke-width:3" />
<path d="M807.12,17.75c2.76,2.61,7.13,10.73,7.82,14.79" style="fill:none;stroke:#999;stroke-width:3" />
<path d="M838.91,13.89c0.14,1.25-0.06,2.43-0.59,3.52c-1.78,4.33-4.3,8.88-8.01,14.44" style="fill:none;stroke:#999;stroke-width:3" />
<path d="M800.02,38.55c3.36,0.44,6.69,0.37,10-0.22c8.62-1.06,22.82-2.48,31.6-3.31c3.2-0.4,6.41-0.43,9.64-0.1" style="fill:none;stroke:#999;stroke-width:3" />
<path d="M816.04,41.19c0,1.17-0.3,2.08-0.82,3.11c-2.86,5.68-9.72,14.33-15.73,19.05" style="fill:none;stroke:#999;stroke-width:3" />
<path d="M829.88,38.56c2.19,0.41,14.56,13.81,22.08,19.38c2.24,1.66,4.8,3.64,7.52,4.39" style="fill:none;stroke:black;stroke-width:3" />
<circle cx="829.88" cy="38.56" r="5" stroke-width="0" fill="#FF2A00" opacity="0.7" />
<path d="M892.39,19.12c3.92,1.41,10.13,5.78,11.11,7.97" style="fill:none;stroke:#999;stroke-width:3" />
<path d="M887.0,44.75c4.5,1.15,11.62,4.72,12.75,6.5" style="fill:none;stroke:#999;stroke-width:3" />
<path d="M885.25,88.21c1.75,0.67,2.81-0.14,3.75-1.75c2.75-4.7,4.75-8.95,8-15.95" style="fill:none;stroke:#999;stroke-width:3" />
<path d="M916.12,17.75c2.76,2.61,7.13,10.73,7.82,14.79" style="fill:none;stroke:#999;stroke-width:3" />
<path d="M947.91,13.89c0.14,1.25-0.06,2.43-0.59,3.52c-1.78,4.33-4.3,8.88-8.01,14.44" style="fill:none;stroke:#999;stroke-width:3" />
<path d="M909.02,38.55c3.36,0.44,6.69,0.37,10-0.22c8.62-1.06,22.82-2.48,31.6-3.31c3.2-0.4,6.41-0.43,9.64-0.1" style="fill:none;stroke:#999;stroke-width:3" />
<path d="M925.04,41.19c0,1.17-0.3,2.08-0.82,3.11c-2.86,5.68-9.72,14.33-15.73,19.05" style="fill:none;stroke:#999;stroke-width:3" />
<path d="M938.88,38.56c2.19,0.41,14.56,13.81,22.08,19.38c2.24,1.66,4.8,3.64,7.52,4.39" style="fill:none;stroke:#999;stroke-width:3" />
<path d="M913.62,67.78c0.86,0.86,1.11,2.09,1.25,3.47c0.75,7.38,1.85,13.98,2.47,20.99" style="fill:none;stroke:black;stroke-width:3" />
<circle cx="913.62" cy="67.78" r="5" stroke-width="0" fill="#FF2A00" opacity="0.7" />
<path d="M1001.39,19.12c3.92,1.41,10.13,5.78,11.11,7.97" style="fill:none;stroke:#999;stroke-width:3" />
<path d="M996.0,44.75c4.5,1.15,11.62,4.72,12.75,6.5" style="fill:none;stroke:#999;stroke-width:3" />
<path d="M994.25,88.21c1.75,0.67,2.81-0.14,3.75-1.75c2.75-4.7,4.75-8.95,8-15.95" style="fill:none;stroke:#999;stroke-width:3" />
<path d="M1025.12,17.75c2.76,2.61,7.13,10.73,7.82,14.79" style="fill:none;stroke:#999;stroke-width:3" />
<path d="M1056.9099999999999,13.89c0.14,1.25-0.06,2.43-0.59,3.52c-1.78,4.33-4.3,8.88-8.01,14.44" style="fill:none;stroke:#999;stroke-width:3" />
<path d="M1018.02,38.55c3.36,0.44,6.69,0.37,10-0.22c8.62-1.06,22.82-2.48,31.6-3.31c3.2-0.4,6.41-0.43,9.64-0.1" style="fill:none;stroke:#999;stroke-width:3" />
<path d="M1034.04,41.19c0,1.17-0.3,2.08-0.82,3.11c-2.86,5.68-9.72,14.33-15.73,19.05" style="fill:none;stroke:#999;stroke-width:3" />
<path d="M1047.88,38.56c2.19,0.41,14.56,13.81,22.08,19.38c2.24,1.66,4.8,3.64,7.52,4.39" style="fill:none;stroke:#999;stroke-width:3" />
<path d="M1022.62,67.78c0.86,0.86,1.11,2.09,1.25,3.47c0.75,7.38,1.85,13.98,2.47,20.99" style="fill:none;stroke:#999;stroke-width:3" />
<path d="M1024.52,69.14c10.27-0.94,30.45-3.19,37.84-3.85c3.21-0.29,4.66,0.72,4.02,3.96c-1.09,5.45-2.63,14.84-3.56,20.03" style="fill:none;stroke:black;stroke-width:3" />
<circle cx="1024.52" cy="69.14" r="5" stroke-width="0" fill="#FF2A00" opacity="0.7" />
<path d="M1110.3899999999999,19.12c3.92,1.41,10.13,5.78,11.11,7.97" style="fill:none;stroke:#999;stroke-width:3" />
<path d="M1105.0,44.75c4.5,1.15,11.62,4.72,12.75,6.5" style="fill:none;stroke:#999;stroke-width:3" />
<path d="M1103.25,88.21c1.75,0.67,2.81-0.14,3.75-1.75c2.75-4.7,4.75-8.95,8-15.95" style="fill:none;stroke:#999;stroke-width:3" />
<path d="M1134.12,17.75c2.76,2.61,7.13,10.73,7.82,14.79" style="fill:none;stroke:#999;stroke-width:3" />
<path d="M1165.9099999999999,13.89c0.14,1.25-0.06,2.43-0.59,3.52c-1.78,4.33-4.3,8.88-8.01,14.44" style="fill:none;stroke:#999;stroke-width:3" />
<path d="M1127.02,38.55c3.36,0.44,6.69,0.37,10-0.22c8.62-1.06,22.82-2.48,31.6-3.31c3.2-0.4,6.41-0.43,9.64-0.1" style="fill:none;stroke:#999;stroke-width:3" />
<path d="M1143.04,41.19c0,1.17-0.3,2.08-0.82,3.11c-2.86,5.68-9.72,14.33-15.73,19.05" style="fill:none;stroke:#999;stroke-width:3" />
<path d="M1156.88,38.56c2.19,0.41,14.56,13.81,22.08,19.38c2.24,1.66,4.8,3.64,7.52,4.39" style="fill:none;stroke:#999;stroke-width:3" />
<path d="M1131.62,67.78c0.86,0.86,1.11,2.09,1.25,3.47c0.75,7.38,1.85,13.98,2.47,20.99" style="fill:none;stroke:#999;stroke-width:3" />
<path d="M1133.52,69.14c10.27-0.94,30.45-3.19,37.84-3.85c3.21-0.29,4.66,0.72,4.02,3.96c-1.09,5.45-2.63,14.84-3.56,20.03" style="fill:none;stroke:#999;stroke-width:3" />
<path d="M1145.7,69.82c0.64,0.9,0.96,1.88,0.96,2.93c0.51,6.43,1.09,11.95,1.59,18.15" style="fill:none;stroke:black;stroke-width:3" />
<circle cx="1145.7" cy="69.82" r="5" stroke-width="0" fill="#FF2A00" opacity="0.7" />
<path d="M1219.3899999999999,19.12c3.92,1.41,10.13,5.78,11.11,7.97" style="fill:none;stroke:#999;stroke-width:3" />
<path d="M1214.0,44.75c4.5,1.15,11.62,4.72,12.75,6.5" style="fill:none;stroke:#999;stroke-width:3" />
<path d="M1212.25,88.21c1.75,0.67,2.81-0.14,3.75-1.75c2.75-4.7,4.75-8.95,8-15.95" style="fill:none;stroke:#999;stroke-width:3" />
<path d="M1243.12,17.75c2.76,2.61,7.13,10.73,7.82,14.79" style="fill:none;stroke:#999;stroke-width:3" />
<path d="M1274.9099999999999,13.89c0.14,1.25-0.06,2.43-0.59,3.52c-1.78,4.33-4.3,8.88-8.01,14.44" style="fill:none;stroke:#999;stroke-width:3" />
<path d="M1236.02,38.55c3.36,0.44,6.69,0.37,10-0.22c8.62-1.06,22.82-2.48,31.6-3.31c3.2-0.4,6.41-0.43,9.64-0.1" style="fill:none;stroke:#999;stroke-width:3" />
<path d="M1252.04,41.19c0,1.17-0.3,2.08-0.82,3.11c-2.86,5.68-9.72,14.33-15.73,19.05" style="fill:none;stroke:#999;stroke-width:3" />
<path d="M1265.88,38.56c2.19,0.41,14.56,13.81,22.08,19.38c2.24,1.66,4.8,3.64,7.52,4.39" style="fill:none;stroke:#999;stroke-width:3" />
<path d="M1240.62,67.78c0.86,0.86,1.11,2.09,1.25,3.47c0.75,7.38,1.85,13.98,2.47,20.99" style="fill:none;stroke:#999;stroke-width:3" />
<path d="M1242.52,69.14c10.27-0.94,30.45-3.19,37.84-3.85c3.21-0.29,4.66,0.72,4.02,3.96c-1.09,5.45-2.63,14.84-3.56,20.03" style="fill:none;stroke:#999;stroke-width:3" />
<path d="M1254.7,69.82c0.64,0.9,0.96,1.88,0.96,2.93c0.51,6.43,1.09,11.95,1.59,18.15" style="fill:none;stroke:#999;stroke-width:3" />
<path d="M1268.89,68.78c0.61,1.09,0.66,2.21,0.6,3.23c-0.34,5.71-0.74,9.74-1.42,18.07" style="fill:none;stroke:black;stroke-width:3" />
<circle cx="1268.89" cy="68.78" r="5" stroke-width="0" fill="#FF2A00" opacity="0.7" />
<path d="M1328.3899999999999,19.12c3.92,1.41,10.13,5.78,11.11,7.97" style="fill:none;stroke:#999;stroke-width:3" />
<path d="M1323.0,44.75c4.5,1.15,11.62,4.72,12.75,6.5" style="fill:none;stroke:#999;stroke-width:3" />
<path d="M1321.25,88.21c1.75,0.67,2.81-0.14,3.75-1.75c2.75-4.7,4.75-8.95,8-15.95" style="fill:none;stroke:#999;stroke-width:3" />
<path d="M1352.12,17.75c2.76,2.61,7.13,10.73,7.82,14.79" style="fill:none;stroke:#999;stroke-width:3" />
<path d="M1383.9099999999999,13.89c0.14,1.25-0.06,2.43-0.59,3.52c-1.78,4.33-4.3,8.88-8.01,14.44" style="fill:none;stroke:#999;stroke-width:3" />
<path d="M1345.02,38.55c3.36,0.44,6.69,0.37,10-0.22c8.62-1.06,22.82-2.48,31.6-3.31c3.2-0.4,6.41-0.43,9.64-0.1" style="fill:none;stroke:#999;stroke-width:3" />
<path d="M1361.04,41.19c0,1.17-0.3,2.08-0.82,3.11c-2.86,5.68-9.72,14.33-15.73,19.05" style="fill:none;stroke:#999;stroke-width:3" />
<path d="M1374.88,38.56c2.19,0.41,14.56,13.81,22.08,19.38c2.24,1.66,4.8,3.64,7.52,4.39" style="fill:none;stroke:#999;stroke-width:3" />
<path d="M1349.62,67.78c0.86,0.86,1.11,2.09,1.25,3.47c0.75,7.38,1.85,13.98,2.47,20.99" style="fill:none;stroke:#999;stroke-width:3" />
<path d="M1351.52,69.14c10.27-0.94,30.45-3.19,37.84-3.85c3.21-0.29,4.66,0.72,4.02,3.96c-1.09,5.45-2.63,14.84-3.56,20.03" style="fill:none;stroke:#999;stroke-width:3" />
<path d="M1363.7,69.82c0.64,0.9,0.96,1.88,0.96,2.93c0.51,6.43,1.09,11.95,1.59,18.15" style="fill:none;stroke:#999;stroke-width:3" />
<path d="M1377.89,68.78c0.61,1.09,0.66,2.21,0.6,3.23c-0.34,5.71-0.74,9.74-1.42,18.07" style="fill:none;stroke:#999;stroke-width:3" />
<path d="M1340.89,93.74c3.19,0.36,6.34,0.25,9.51-0.06C1367.5,92,1379.5,91.25,1397.88,90.41c2.62-0.12,5.29,0.12,7.9,0.51" style="fill:none;stroke:black;stroke-width:3" />
<circle cx="1340.89" cy="93.74" r="5" stroke-width="0" fill="#FF2A00" opacity="0.7" />
</svg>