<svg width="1417px" height="109px" viewBox="0 0 1417px 109px" xmlns="http://www.w3.org/2000/svg" xmlns:xlink="http://www.w3.org/1999/xlink" xml:space="preserve" version="1.1"  baseProfile="full">
<line x1="1" y1="1" x2="1416" y2="1" style="stroke:#ddd;stroke-width:2" />
<line x1="1" y1="1" x2="1" y2="108" style="stroke:#ddd;stroke-width:2" />
<line x1="1" y1="108" x2="1416" y2="108" style="stroke:#ddd;stroke-width:2" />
<line x1="1416" y1="1" x2="1416" y2="108" style="stroke:#ddd;stroke-width:2" />
<line x1="109" y1="1" x2="109" y2="108" style="stroke:#ddd;stroke-width:2" />
<line x1="218" y1="1" x2="218" y2="108" style="stroke:#ddd;stroke-width:2" />
<line x1="327" y1="1" x2="327" y2="108" style="stroke:#ddd;stroke-width:2" />
<line x1="436" y1="1" x2="436" y2="108" style="stroke:#ddd;stroke-width:2" />
<line x1="545" y1="1" x2="545" y2="108" style="stroke:#ddd;stroke-width:2" />
<line x1="654" y1="1" x2="654" y2="108" style="stroke:#ddd;stroke-width:2" />
<line x1="763" y1="1" x2="763" y2="108" style="stroke:#ddd;stroke-width:2" />
<line x1="872" y1="1" x2="872" y2="108" style="stroke:#ddd;stroke-width:2" />
<line x1="981" y1="1" x2="981" y2="108" style="stroke:#ddd;stroke-width:2" />
<line x1="1090" y1="1" x2="1090" y2="108" style="stroke:#ddd;stroke-width:2" />
<line x1="1199" y1="1" x2="1199" y2="108" style="stroke:#ddd;stroke-width:2" />
<line x1="1308" y1="1" x2="1308" y2="108" style="stroke:#ddd;stroke-width:2" />
<line x1="1" y1="54" x2="1416" y2="54" style="stroke:#ddd;stroke-width:2;stroke-dasharray:3 3" />
<line x1="55" y1="1" x2="55" y2="108" style="stroke:#ddd;stroke-width:2;stroke-dasharray:3 3" />
<line x1="164" y1="1" x2="164" y2="108" style="stroke:#ddd;stroke-width:2;stroke-dasharray:3 3" />
<line x1="273" y1="1" x2="273" y2="108" style="stroke:#ddd;stroke-width:2;stroke-dasharray:3 3" />
<line x1="382" y1="1" x2="382" y2="108" style="stroke:#ddd;stroke-width:2;stroke-dasharray:3 3" />
<line x1="491" y1="1" x2="491" y2="108" style="stroke:#ddd;stroke-width:2;stroke-dasharray:3 3" />
<line x1="600" y1="1" x2="600" y2="108" style="stroke:#ddd;stroke-width:2;stroke-dasharray:3 3" />
<line x1="709" y1="1" x2="709" y2="108" style="stroke:#ddd;stroke-width:2;stroke-dasharray:3 3" />
<line x1="818" y1="1" x2="818" y2="108" style="stroke:#ddd;stroke-width:2;stroke-dasharray:3 3" />
<line x1="927" y1="1" x2="927" y2="108" style="stroke:#ddd;stroke-width:2;stroke-dasharray:3 3" />
<line x1="1036" y1="1" x2="1036" y2="108" style="stroke:#ddd;stroke-width:2;stroke-dasharray:3 3" />
<line x1="1145" y1="1" x2="1145" y2="108" style="stroke:#ddd;stroke-width:2;stroke-dasharray:3 3" />
<line x1="1254" y1="1" x2="1254" y2="108" style="stroke:#ddd;stroke-width:2;stroke-dasharray:3 3" />
<line x1="1363" y1="1" x2="1363" y2="108" style="stroke:#ddd;stroke-width:2;stroke-dasharray:3 3" />
<path d="M18.13,15c3.75,1.52,9.68,6.23,10.62,8.59" style="fill:none;stroke:black;stroke-width:3" />
<circle cx="18.13" cy="15.0" r="5" stroke-width="0" fill="#FF2A00" opacity="0.7" />
<path d="M127.13,15c3.75,1.52,9.68,6.23,10.62,8.59" style="fill:none;stroke:#999;stroke-width:3" />
<path d="M121.5,39c4.24,1.32,10.94,5.44,12,7.5" style="fill:none;stroke:black;stroke-width:3" />
<circle cx="121.5" cy="39.0" r="5" stroke-width="0" fill="#FF2A00" opacity="0.7" />
<path d="M236.13,15c3.75,1.52,9.68,6.23,10.62,8.59" style="fill:none;stroke:#999;stroke-width:3" />
<path d="M230.5,39c4.24,1.32,10.94,5.44,12,7.5" style="fill:none;stroke:#999;stroke-width:3" />
<path d="M229.75,89.21c1.5,1.31,3.31,1.36,4.25-0.25c2.75-4.7,5.5-10.45,8-16.45" style="fill:none;stroke:black;stroke-width:3" />
<circle cx="229.75" cy="89.21" r="5" stroke-width="0" fill="#FF2A00" opacity="0.7" />
<path d="M345.13,15c3.75,1.52,9.68,6.23,10.62,8.59" style="fill:none;stroke:#999;stroke-width:3" />
<path d="M339.5,39c4.24,1.32,10.94,5.44,12,7.5" style="fill:none;stroke:#999;stroke-width:3" />
<path d="M338.75,89.21c1.5,1.31,3.31,1.36,4.25-0.25c2.75-4.7,5.5-10.45,8-16.45" style="fill:none;stroke:#999;stroke-width:3" />
<path d="M382.65999999999997,24.54c0.7,0.36,1.99,0.48,2.68,0.36c10.19-1.76,20.36-2.16,30.27-3.1c1.16-0.11,1.87,0.17,2.45,0.35" style="fill:none;stroke:black;stroke-width:3" />
<circle cx="382.65999999999997" cy="24.54" r="5" stroke-width="0" fill="#FF2A00" opacity="0.7" />
<path d="M454.13,15c3.75,1.52,9.68,6.23,10.62,8.59" style="fill:none;stroke:#999;stroke-width:3" />
<path d="M448.5,39c4.24,1.32,10.94,5.44,12,7.5" style="fill:none;stroke:#999;stroke-width:3" />
<path d="M447.75,89.21c1.5,1.31,3.31,1.36,4.25-0.25c2.75-4.7,5.5-10.45,8-16.45" style="fill:none;stroke:#999;stroke-width:3" />
<path d="M491.65999999999997,24.54c0.7,0.36,1.99,0.48,2.68,0.36c10.19-1.76,20.36-2.16,30.27-3.1c1.16-0.11,1.87,0.17,2.45,0.35" style="fill:none;stroke:#999;stroke-width:3" />
<path d="M491.25,34.24c0.55,0.47,1.24,0.83,1.34,1.45c0.74,4.5,2.89,16.59,3.93,25.11" style="fill:none;stroke:black;stroke-width:3" />
<circle cx="491.25" cy="34.24" r="5" stroke-width="0" fill="#FF2A00" opacity="0.7" />
<path d="M563.13,15c3.75,1.52,9.68,6.23,10.62,8.59" style="fill:none;stroke:#999;stroke-width:3" />
<path d="M557.5,39c4.24,1.32,10.94,5.44,12,7.5" style="fill:none;stroke:#999;stroke-width:3" />
<path d="M556.75,89.21c1.5,1.31,3.31,1.36,4.25-0.25c2.75-4.7,5.5-10.45,8-16.45" style="fill:none;stroke:#999;stroke-width:3" />
<path d="M600.66,24.54c0.7,0.36,1.99,0.48,2.68,0.36c10.19-1.76,20.36-2.16,30.27-3.1c1.16-0.11,1.87,0.17,2.45,0.35" style="fill:none;stroke:#999;stroke-width:3" />
<path d="M600.25,34.24c0.55,0.47,1.24,0.83,1.34,1.45c0.74,4.5,2.89,16.59,3.93,25.11" style="fill:none;stroke:#999;stroke-width:3" />
<path d="M602.35,35.94c8.31-0.9,26.5-4.1,32.16-4.24c2.35-0.06,2.83,1.73,2.73,3.14c-0.34,4.85-2.03,15.79-3.89,23.74" style="fill:none;stroke:black;stroke-width:3" />
<circle cx="602.35" cy="35.94" r="5" stroke-width="0" fill="#FF2A00" opacity="0.7" />
<path d="M672.13,15c3.75,1.52,9.68,6.23,10.62,8.59" style="fill:none;stroke:#999;stroke-width:3" />
<path d="M666.5,39c4.24,1.32,10.94,5.44,12,7.5" style="fill:none;stroke:#999;stroke-width:3" />
<path d="M665.75,89.21c1.5,1.31,3.31,1.36,4.25-0.25c2.75-4.7,5.5-10.45,8-16.45" style="fill:none;stroke:#999;stroke-width:3" />
<path d="M709.66,24.54c0.7,0.36,1.99,0.48,2.68,0.36c10.19-1.76,20.36-2.16,30.27-3.1c1.16-0.11,1.87,0.17,2.45,0.35" style="fill:none;stroke:#999;stroke-width:3" />
<path d="M709.25,34.24c0.55,0.47,1.24,0.83,1.34,1.45c0.74,4.5,2.89,16.59,3.93,25.11" style="fill:none;stroke:#999;stroke-width:3" />
<path d="M711.35,35.94c8.31-0.9,26.5-4.1,32.16-4.24c2.35-0.06,2.83,1.73,2.73,3.14c-0.34,4.85-2.03,15.79-3.89,23.74" style="fill:none;stroke:#999;stroke-width:3" />
<path d="M713.73,47.17c8.25-0.92,20.18-2.92,31.15-3.51" style="fill:none;stroke:black;stroke-width:3" />
<circle cx="713.73" cy="47.17" r="5" stroke-width="0" fill="#FF2A00" opacity="0.7" />
<path d="M781.13,15c3.75,1.52,9.68,6.23,10.62,8.59" style="fill:none;stroke:#999;stroke-width:3" />
<path d="M775.5,39c4.24,1.32,10.94,5.44,12,7.5" style="fill:none;stroke:#999;stroke-width:3" />
<path d="M774.75,89.21c1.5,1.31,3.31,1.36,4.25-0.25c2.75-4.7,5.5-10.45,8-16.45" style="fill:none;stroke:#999;stroke-width:3" />
<path d="M818.66,24.54c0.7,0.36,1.99,0.48,2.68,0.36c10.19-1.76,20.36-2.16,30.27-3.1c1.16-0.11,1.87,0.17,2.45,0.35" style="fill:none;stroke:#999;stroke-width:3" />
<path d="M818.25,34.24c0.55,0.47,1.24,0.83,1.34,1.45c0.74,4.5,2.89,16.59,3.93,25.11" style="fill:none;stroke:#999;stroke-width:3" />
<path d="M820.35,35.94c8.31-0.9,26.5-4.1,32.16-4.24c2.35-0.06,2.83,1.73,2.73,3.14c-0.34,4.85-2.03,15.79-3.89,23.74" style="fill:none;stroke:#999;stroke-width:3" />
<path d="M822.73,47.17c8.25-0.92,20.18-2.92,31.15-3.51" style="fill:none;stroke:#999;stroke-width:3" />
<path d="M823.57,59.39c7.28-0.94,18.72-2.74,28.2-2.74" style="fill:none;stroke:black;stroke-width:3" />
<circle cx="823.57" cy="59.39" r="5" stroke-width="0" fill="#FF2A00" opacity="0.7" />
<path d="M890.13,15c3.75,1.52,9.68,6.23,10.62,8.59" style="fill:none;stroke:#999;stroke-width:3" />
<path d="M884.5,39c4.24,1.32,10.94,5.44,12,7.5" style="fill:none;stroke:#999;stroke-width:3" />
<path d="M883.75,89.21c1.5,1.31,3.31,1.36,4.25-0.25c2.75-4.7,5.5-10.45,8-16.45" style="fill:none;stroke:#999;stroke-width:3" />
<path d="M927.66,24.54c0.7,0.36,1.99,0.48,2.68,0.36c10.19-1.76,20.36-2.16,30.27-3.1c1.16-0.11,1.87,0.17,2.45,0.35" style="fill:none;stroke:#999;stroke-width:3" />
<path d="M927.25,34.24c0.55,0.47,1.24,0.83,1.34,1.45c0.74,4.5,2.89,16.59,3.93,25.11" style="fill:none;stroke:#999;stroke-width:3" />
<path d="M929.35,35.94c8.31-0.9,26.5-4.1,32.16-4.24c2.35-0.06,2.83,1.73,2.73,3.14c-0.34,4.85-2.03,15.79-3.89,23.74" style="fill:none;stroke:#999;stroke-width:3" />
<path d="M931.73,47.17c8.25-0.92,20.18-2.92,31.15-3.51" style="fill:none;stroke:#999;stroke-width:3" />
<path d="M932.57,59.39c7.28-0.94,18.72-2.74,28.2-2.74" style="fill:none;stroke:#999;stroke-width:3" />
<path d="M925.82,70.72c1,0.72,2.8,0.81,3.82,0.72c10.86-0.94,21.62-2.47,33.37-2.94c1.66-0.07,2.66,0.34,3.49,0.7" style="fill:none;stroke:black;stroke-width:3" />
<circle cx="925.82" cy="70.72" r="5" stroke-width="0" fill="#FF2A00" opacity="0.7" />
<path d="M999.13,15c3.75,1.52,9.68,6.23,10.62,8.59" style="fill:none;stroke:#999;stroke-width:3" />
<path d="M993.5,39c4.24,1.32,10.94,5.44,12,7.5" style="fill:none;stroke:#999;stroke-width:3" />
<path d="M992.75,89.21c1.5,1.31,3.31,1.36,4.25-0.25c2.75-4.7,5.5-10.45,8-16.45" style="fill:none;stroke:#999;stroke-width:3" />
<path d="M1036.6599999999999,24.54c0.7,0.36,1.99,0.48,2.68,0.36c10.19-1.76,20.36-2.16,30.27-3.1c1.16-0.11,1.87,0.17,2.45,0.35" style="fill:none;stroke:#999;stroke-width:3" />
<path d="M1036.25,34.24c0.55,0.47,1.24,0.83,1.34,1.45c0.74,4.5,2.89,16.59,3.93,25.11" style="fill:none;stroke:#999;stroke-width:3" />
<path d="M1038.35,35.94c8.31-0.9,26.5-4.1,32.16-4.24c2.35-0.06,2.83,1.73,2.73,3.14c-0.34,4.85-2.03,15.79-3.89,23.74" style="fill:none;stroke:#999;stroke-width:3" />
<path d="M1040.73,47.17c8.25-0.92,20.18-2.92,31.15-3.51" style="fill:none;stroke:#999;stroke-width:3" />
<path d="M1041.5700000000002,59.39c7.28-0.94,18.72-2.74,28.2-2.74" style="fill:none;stroke:#999;stroke-width:3" />
<path d="M1034.8200000000002,70.72c1,0.72,2.8,0.81,3.82,0.72c10.86-0.94,21.62-2.47,33.37-2.94c1.66-0.07,2.66,0.34,3.49,0.7" style="fill:none;stroke:#999;stroke-width:3" />
<path d="M1052.8,10.63c0.51,0.56,2.2,1.87,2.2,4.79c0,1.12-0.07,63.99-0.17,70.96" style="fill:none;stroke:black;stroke-width:3" />
<circle cx="1052.8" cy="10.63" r="5" stroke-width="0" fill="#FF2A00" opacity="0.7" />
<path d="M1108.13,15c3.75,1.52,9.68,6.23,10.62,8.59" style="fill:none;stroke:#999;stroke-width:3" />
<path d="M1102.5,39c4.24,1.32,10.94,5.44,12,7.5" style="fill:none;stroke:#999;stroke-width:3" />
<path d="M1101.75,89.21c1.5,1.31,3.31,1.36,4.25-0.25c2.75-4.7,5.5-10.45,8-16.45" style="fill:none;stroke:#999;stroke-width:3" />
<path d="M1145.6599999999999,24.54c0.7,0.36,1.99,0.48,2.68,0.36c10.19-1.76,20.36-2.16,30.27-3.1c1.16-0.11,1.87,0.17,2.45,0.35" style="fill:none;stroke:#999;stroke-width:3" />
<path d="M1145.25,34.24c0.55,0.47,1.24,0.83,1.34,1.45c0.74,4.5,2.89,16.59,3.93,25.11" style="fill:none;stroke:#999;stroke-width:3" />
<path d="M1147.35,35.94c8.31-0.9,26.5-4.1,32.16-4.24c2.35-0.06,2.83,1.73,2.73,3.14c-0.34,4.85-2.03,15.79-3.89,23.74" style="fill:none;stroke:#999;stroke-width:3" />
<path d="M1149.73,47.17c8.25-0.92,20.18-2.92,31.15-3.51" style="fill:none;stroke:#999;stroke-width:3" />
<path d="M1150.5700000000002,59.39c7.28-0.94,18.72-2.74,28.2-2.74" style="fill:none;stroke:#999;stroke-width:3" />
<path d="M1143.8200000000002,70.72c1,0.72,2.8,0.81,3.82,0.72c10.86-0.94,21.62-2.47,33.37-2.94c1.66-0.07,2.66,0.34,3.49,0.7" style="fill:none;stroke:#999;stroke-width:3" />
<path d="M1161.8,10.63c0.51,0.56,2.2,1.87,2.2,4.79c0,1.12-0.07,63.99-0.17,70.96" style="fill:none;stroke:#999;stroke-width:3" />
<path d="M1127.12,24.25c3.4,1.39,8.77,5.72,9.62,7.88" style="fill:none;stroke:black;stroke-width:3" />
<circle cx="1127.12" cy="24.25" r="5" stroke-width="0" fill="#FF2A00" opacity="0.7" />
<path d="M1217.13,15c3.75,1.52,9.68,6.23,10.62,8.59" style="fill:none;stroke:#999;stroke-width:3" />
<path d="M1211.5,39c4.24,1.32,10.94,5.44,12,7.5" style="fill:none;stroke:#999;stroke-width:3" />
<path d="M1210.75,89.21c1.5,1.31,3.31,1.36,4.25-0.25c2.75-4.7,5.5-10.45,8-16.45" style="fill:none;stroke:#999;stroke-width:3" />
<path d="M1254.6599999999999,24.54c0.7,0.36,1.99,0.48,2.68,0.36c10.19-1.76,20.36-2.16,30.27-3.1c1.16-0.11,1.87,0.17,2.45,0.35" style="fill:none;stroke:#999;stroke-width:3" />
<path d="M1254.25,34.24c0.55,0.47,1.24,0.83,1.34,1.45c0.74,4.5,2.89,16.59,3.93,25.11" style="fill:none;stroke:#999;stroke-width:3" />
<path d="M1256.35,35.94c8.31-0.9,26.5-4.1,32.16-4.24c2.35-0.06,2.83,1.73,2.73,3.14c-0.34,4.85-2.03,15.79-3.89,23.74" style="fill:none;stroke:#999;stroke-width:3" />
<path d="M1258.73,47.17c8.25-0.92,20.18-2.92,31.15-3.51" style="fill:none;stroke:#999;stroke-width:3" />
<path d="M1259.5700000000002,59.39c7.28-0.94,18.72-2.74,28.2-2.74" style="fill:none;stroke:#999;stroke-width:3" />
<path d="M1252.8200000000002,70.72c1,0.72,2.8,0.81,3.82,0.72c10.86-0.94,21.62-2.47,33.37-2.94c1.66-0.07,2.66,0.34,3.49,0.7" style="fill:none;stroke:#999;stroke-width:3" />
<path d="M1270.8,10.63c0.51,0.56,2.2,1.87,2.2,4.79c0,1.12-0.07,63.99-0.17,70.96" style="fill:none;stroke:#999;stroke-width:3" />
<path d="M1236.12,24.25c3.4,1.39,8.77,5.72,9.62,7.88" style="fill:none;stroke:#999;stroke-width:3" />
<path d="M1232.5,57.7c1.88,0.86,3.14,0.43,3.98,0.21s6.7-2.99,7.96-3.42c1.26-0.43,3.14,1.07,2.3,2.35c-0.84,1.28-5.85,8.2-6.48,9.27c-0.63,1.07-0.42,2.99,0.84,4.49c1.26,1.5,2.8,1.71,3.43,2.99c0.63,1.28,0.63,2.35-0.63,3.42s-8.04,7.06-9.29,7.49" style="fill:none;stroke:black;stroke-width:3" />
<circle cx="1232.5" cy="57.7" r="5" stroke-width="0" fill="#FF2A00" opacity="0.7" />
<path d="M1326.13,15c3.75,1.52,9.68,6.23,10.62,8.59" style="fill:none;stroke:#999;stroke-width:3" />
<path d="M1320.5,39c4.24,1.32,10.94,5.44,12,7.5" style="fill:none;stroke:#999;stroke-width:3" />
<path d="M1319.75,89.21c1.5,1.31,3.31,1.36,4.25-0.25c2.75-4.7,5.5-10.45,8-16.45" style="fill:none;stroke:#999;stroke-width:3" />
<path d="M1363.6599999999999,24.54c0.7,0.36,1.99,0.48,2.68,0.36c10.19-1.76,20.36-2.16,30.27-3.1c1.16-0.11,1.87,0.17,2.45,0.35" style="fill:none;stroke:#999;stroke-width:3" />
<path d="M1363.25,34.24c0.55,0.47,1.24,0.83,1.34,1.45c0.74,4.5,2.89,16.59,3.93,25.11" style="fill:none;stroke:#999;stroke-width:3" />
<path d="M1365.35,35.94c8.31-0.9,26.5-4.1,32.16-4.24c2.35-0.06,2.83,1.73,2.73,3.14c-0.34,4.85-2.03,15.79-3.89,23.74" style="fill:none;stroke:#999;stroke-width:3" />
<path d="M1367.73,47.17c8.25-0.92,20.18-2.92,31.15-3.51" style="fill:none;stroke:#999;stroke-width:3" />
<path d="M1368.5700000000002,59.39c7.28-0.94,18.72-2.74,28.2-2.74" style="fill:none;stroke:#999;stroke-width:3" />
<path d="M1361.8200000000002,70.72c1,0.72,2.8,0.81,3.82,0.72c10.86-0.94,21.62-2.47,33.37-2.94c1.66-0.07,2.66,0.34,3.49,0.7" style="fill:none;stroke:#999;stroke-width:3" />
<path d="M1379.8,10.63c0.51,0.56,2.2,1.87,2.2,4.79c0,1.12-0.07,63.99-0.17,70.96" style="fill:none;stroke:#999;stroke-width:3" />
<path d="M1345.12,24.25c3.4,1.39,8.77,5.72,9.62,7.88" style="fill:none;stroke:#999;stroke-width:3" />
<path d="M1341.5,57.7c1.88,0.86,3.14,0.43,3.98,0.21s6.7-2.99,7.96-3.42c1.26-0.43,3.14,1.07,2.3,2.35c-0.84,1.28-5.85,8.2-6.48,9.27c-0.63,1.07-0.42,2.99,0.84,4.49c1.26,1.5,2.8,1.71,3.43,2.99c0.63,1.28,0.63,2.35-0.63,3.42s-8.04,7.06-9.29,7.49" style="fill:none;stroke:#999;stroke-width:3" />
<path d="M1340.55,85.28c2.37-0.4,7.11-1.41,10.66-0.61c3.55,0.81,23.75,6.22,27.24,7.26c9.48,2.83,16.78,3.63,23.88,2.22" style="fill:none;stroke:black;stroke-width:3" />
<circle cx="1340.55" cy="85.28" r="5" stroke-width="0" fill="#FF2A00" opacity="0.7" />
</svg>