<svg width="1853px" height="109px" viewBox="0 0 1853px 109px" xmlns="http://www.w3.org/2000/svg" xmlns:xlink="http://www.w3.org/1999/xlink" xml:space="preserve" version="1.1"  baseProfile="full">
<line x1="1" y1="1" x2="1852" y2="1" style="stroke:#ddd;stroke-width:2" />
<line x1="1" y1="1" x2="1" y2="108" style="stroke:#ddd;stroke-width:2" />
<line x1="1" y1="108" x2="1852" y2="108" style="stroke:#ddd;stroke-width:2" />
<line x1="1852" y1="1" x2="1852" y2="108" style="stroke:#ddd;stroke-width:2" />
<line x1="109" y1="1" x2="109" y2="108" style="stroke:#ddd;stroke-width:2" />
<line x1="218" y1="1" x2="218" y2="108" style="stroke:#ddd;stroke-width:2" />
<line x1="327" y1="1" x2="327" y2="108" style="stroke:#ddd;stroke-width:2" />
<line x1="436" y1="1" x2="436" y2="108" style="stroke:#ddd;stroke-width:2" />
<line x1="545" y1="1" x2="545" y2="108" style="stroke:#ddd;stroke-width:2" />
<line x1="654" y1="1" x2="654" y2="108" style="stroke:#ddd;stroke-width:2" />
<line x1="763" y1="1" x2="763" y2="108" style="stroke:#ddd;stroke-width:2" />
<line x1="872" y1="1" x2="872" y2="108" style="stroke:#ddd;stroke-width:2" />
<line x1="981" y1="1" x2="981" y2="108" style="stroke:#ddd;stroke-width:2" />
<line x1="1090" y1="1" x2="1090" y2="108" style="stroke:#ddd;stroke-width:2" />
<line x1="1199" y1="1" x2="1199" y2="108" style="stroke:#ddd;stroke-width:2" />
<line x1="1308" y1="1" x2="1308" y2="108" style="stroke:#ddd;stroke-width:2" />
<line x1="1417" y1="1" x2="1417" y2="108" style="stroke:#ddd;stroke-width:2" />
<line x1="1526" y1="1" x2="1526" y2="108" style="stroke:#ddd;stroke-width:2" />
<line x1="1635" y1="1" x2="1635" y2="108" style="stroke:#ddd;stroke-width:2" />
<line x1="1744" y1="1" x2="1744" y2="108" style="stroke:#ddd;stroke-width:2" />
<line x1="1" y1="54" x2="1852" y2="54" style="stroke:#ddd;stroke-width:2;stroke-dasharray:3 3" />
<line x1="55" y1="1" x2="55" y2="108" style="stroke:#ddd;stroke-width:2;stroke-dasharray:3 3" />
<line x1="164" y1="1" x2="164" y2="108" style="stroke:#ddd;stroke-width:2;stroke-dasharray:3 3" />
<line x1="273" y1="1" x2="273" y2="108" style="stroke:#ddd;stroke-width:2;stroke-dasharray:3 3" />
<line x1="382" y1="1" x2="382" y2="108" style="stroke:#ddd;stroke-width:2;stroke-dasharray:3 3" />
<line x1="491" y1="1" x2="491" y2="108" style="stroke:#ddd;stroke-width:2;stroke-dasharray:3 3" />
<line x1="600" y1="1" x2="600" y2="108" style="stroke:#ddd;stroke-width:2;stroke-dasharray:3 3" />
<line x1="709" y1="1" x2="709" y2="108" style="stroke:#ddd;stroke-width:2;stroke-dasharray:3 3" />
<line x1="818" y1="1" x2="818" y2="108" style="stroke:#ddd;stroke-width:2;stroke-dasharray:3 3" />
<line x1="927" y1="1" x2="927" y2="108" style="stroke:#ddd;stroke-width:2;stroke-dasharray:3 3" />
<line x1="1036" y1="1" x2="1036" y2="108" style="stroke:#ddd;stroke-width:2;stroke-dasharray:3 3" />
<line x1="1145" y1="1" x2="1145" y2="108" style="stroke:#ddd;stroke-width:2;stroke-dasharray:3 3" />
<line x1="1254" y1="1" x2="1254" y2="108" style="stroke:#ddd;stroke-width:2;stroke-dasharray:3 3" />
<line x1="1363" y1="1" x2="1363" y2="108" style="stroke:#ddd;stroke-width:2;stroke-dasharray:3 3" />
<line x1="1472" y1="1" x2="1472" y2="108" style="stroke:#ddd;stroke-width:2;stroke-dasharray:3 3" />
<line x1="1581" y1="1" x2="1581" y2="108" style="stroke:#ddd;stroke-width:2;stroke-dasharray:3 3" />
<line x1="1690" y1="1" x2="1690" y2="108" style="stroke:#ddd;stroke-width:2;stroke-dasharray:3 3" />
<line x1="1799" y1="1" x2="1799" y2="108" style="stroke:#ddd;stroke-width:2;stroke-dasharray:3 3" />
<path d="M15.38,17.25c3.84,1.3,9.91,5.33,10.87,7.34" style="fill:none;stroke:black;stroke-width:3" />
<circle cx="15.38" cy="17.25" r="5" stroke-width="0" fill="#FF2A00" opacity="0.7" />
<path d="M124.38,17.25c3.84,1.3,9.91,5.33,10.87,7.34" style="fill:none;stroke:#999;stroke-width:3" />
<path d="M121.25,41.75c3.27,1.28,8.43,5.26,9.25,7.25" style="fill:none;stroke:black;stroke-width:3" />
<circle cx="121.25" cy="41.75" r="5" stroke-width="0" fill="#FF2A00" opacity="0.7" />
<path d="M233.38,17.25c3.84,1.3,9.91,5.33,10.87,7.34" style="fill:none;stroke:#999;stroke-width:3" />
<path d="M230.25,41.75c3.27,1.28,8.43,5.26,9.25,7.25" style="fill:none;stroke:#999;stroke-width:3" />
<path d="M231.75,88.71c1.5,0.29,3.81,0.36,4.75-1.25c2.75-4.7,4-9.45,6.5-16.45" style="fill:none;stroke:black;stroke-width:3" />
<circle cx="231.75" cy="88.71" r="5" stroke-width="0" fill="#FF2A00" opacity="0.7" />
<path d="M342.38,17.25c3.84,1.3,9.91,5.33,10.87,7.34" style="fill:none;stroke:#999;stroke-width:3" />
<path d="M339.25,41.75c3.27,1.28,8.43,5.26,9.25,7.25" style="fill:none;stroke:#999;stroke-width:3" />
<path d="M340.75,88.71c1.5,0.29,3.81,0.36,4.75-1.25c2.75-4.7,4-9.45,6.5-16.45" style="fill:none;stroke:#999;stroke-width:3" />
<path d="M360.09000000000003,24.63c0.55,0.34,1.54,0.41,2.09,0.34c3.94-0.5,19.15-1.99,22.55-2.52c0.9-0.14,1.28-0.08,1.76-0.02" style="fill:none;stroke:black;stroke-width:3" />
<circle cx="360.09000000000003" cy="24.63" r="5" stroke-width="0" fill="#FF2A00" opacity="0.7" />
<path d="M451.38,17.25c3.84,1.3,9.91,5.33,10.87,7.34" style="fill:none;stroke:#999;stroke-width:3" />
<path d="M448.25,41.75c3.27,1.28,8.43,5.26,9.25,7.25" style="fill:none;stroke:#999;stroke-width:3" />
<path d="M449.75,88.71c1.5,0.29,3.81,0.36,4.75-1.25c2.75-4.7,4-9.45,6.5-16.45" style="fill:none;stroke:#999;stroke-width:3" />
<path d="M469.09000000000003,24.63c0.55,0.34,1.54,0.41,2.09,0.34c3.94-0.5,19.15-1.99,22.55-2.52c0.9-0.14,1.28-0.08,1.76-0.02" style="fill:none;stroke:#999;stroke-width:3" />
<path d="M481.03,13.13c0.44,0.23,1.37,1.73,1.46,2.19c0.09,0.46,0.21,21.16,0.25,28.5" style="fill:none;stroke:black;stroke-width:3" />
<circle cx="481.03" cy="13.13" r="5" stroke-width="0" fill="#FF2A00" opacity="0.7" />
<path d="M560.38,17.25c3.84,1.3,9.91,5.33,10.87,7.34" style="fill:none;stroke:#999;stroke-width:3" />
<path d="M557.25,41.75c3.27,1.28,8.43,5.26,9.25,7.25" style="fill:none;stroke:#999;stroke-width:3" />
<path d="M558.75,88.71c1.5,0.29,3.81,0.36,4.75-1.25c2.75-4.7,4-9.45,6.5-16.45" style="fill:none;stroke:#999;stroke-width:3" />
<path d="M578.09,24.63c0.55,0.34,1.54,0.41,2.09,0.34c3.94-0.5,19.15-1.99,22.55-2.52c0.9-0.14,1.28-0.08,1.76-0.02" style="fill:none;stroke:#999;stroke-width:3" />
<path d="M590.03,13.13c0.44,0.23,1.37,1.73,1.46,2.19c0.09,0.46,0.21,21.16,0.25,28.5" style="fill:none;stroke:#999;stroke-width:3" />
<path d="M579.74,35.11c0.55,0.25,1.55,0.3,2.09,0.25c3.93-0.36,15.38-2.15,18.77-2.54c0.91-0.1,1.57-0.06,2.05-0.01" style="fill:none;stroke:black;stroke-width:3" />
<circle cx="579.74" cy="35.11" r="5" stroke-width="0" fill="#FF2A00" opacity="0.7" />
<path d="M669.38,17.25c3.84,1.3,9.91,5.33,10.87,7.34" style="fill:none;stroke:#999;stroke-width:3" />
<path d="M666.25,41.75c3.27,1.28,8.43,5.26,9.25,7.25" style="fill:none;stroke:#999;stroke-width:3" />
<path d="M667.75,88.71c1.5,0.29,3.81,0.36,4.75-1.25c2.75-4.7,4-9.45,6.5-16.45" style="fill:none;stroke:#999;stroke-width:3" />
<path d="M687.09,24.63c0.55,0.34,1.54,0.41,2.09,0.34c3.94-0.5,19.15-1.99,22.55-2.52c0.9-0.14,1.28-0.08,1.76-0.02" style="fill:none;stroke:#999;stroke-width:3" />
<path d="M699.03,13.13c0.44,0.23,1.37,1.73,1.46,2.19c0.09,0.46,0.21,21.16,0.25,28.5" style="fill:none;stroke:#999;stroke-width:3" />
<path d="M688.74,35.11c0.55,0.25,1.55,0.3,2.09,0.25c3.93-0.36,15.38-2.15,18.77-2.54c0.91-0.1,1.57-0.06,2.05-0.01" style="fill:none;stroke:#999;stroke-width:3" />
<path d="M683.63,45.49c0.85,0.27,2.4,0.31,3.26,0.27c6.1-0.26,17.35-2.26,23.02-2.69c1.41-0.11,2.48-0.23,3.5,0.44" style="fill:none;stroke:black;stroke-width:3" />
<circle cx="683.63" cy="45.49" r="5" stroke-width="0" fill="#FF2A00" opacity="0.7" />
<path d="M778.38,17.25c3.84,1.3,9.91,5.33,10.87,7.34" style="fill:none;stroke:#999;stroke-width:3" />
<path d="M775.25,41.75c3.27,1.28,8.43,5.26,9.25,7.25" style="fill:none;stroke:#999;stroke-width:3" />
<path d="M776.75,88.71c1.5,0.29,3.81,0.36,4.75-1.25c2.75-4.7,4-9.45,6.5-16.45" style="fill:none;stroke:#999;stroke-width:3" />
<path d="M796.09,24.63c0.55,0.34,1.54,0.41,2.09,0.34c3.94-0.5,19.15-1.99,22.55-2.52c0.9-0.14,1.28-0.08,1.76-0.02" style="fill:none;stroke:#999;stroke-width:3" />
<path d="M808.03,13.13c0.44,0.23,1.37,1.73,1.46,2.19c0.09,0.46,0.21,21.16,0.25,28.5" style="fill:none;stroke:#999;stroke-width:3" />
<path d="M797.74,35.11c0.55,0.25,1.55,0.3,2.09,0.25c3.93-0.36,15.38-2.15,18.77-2.54c0.91-0.1,1.57-0.06,2.05-0.01" style="fill:none;stroke:#999;stroke-width:3" />
<path d="M792.63,45.49c0.85,0.27,2.4,0.31,3.26,0.27c6.1-0.26,17.35-2.26,23.02-2.69c1.41-0.11,2.48-0.23,3.5,0.44" style="fill:none;stroke:#999;stroke-width:3" />
<path d="M798.31,54.55c0.4,0.58,0.67,1.15,0.8,1.73c0.13,0.58,0.39,25.97-0.21,38.22" style="fill:none;stroke:black;stroke-width:3" />
<circle cx="798.31" cy="54.55" r="5" stroke-width="0" fill="#FF2A00" opacity="0.7" />
<path d="M887.38,17.25c3.84,1.3,9.91,5.33,10.87,7.34" style="fill:none;stroke:#999;stroke-width:3" />
<path d="M884.25,41.75c3.27,1.28,8.43,5.26,9.25,7.25" style="fill:none;stroke:#999;stroke-width:3" />
<path d="M885.75,88.71c1.5,0.29,3.81,0.36,4.75-1.25c2.75-4.7,4-9.45,6.5-16.45" style="fill:none;stroke:#999;stroke-width:3" />
<path d="M905.09,24.63c0.55,0.34,1.54,0.41,2.09,0.34c3.94-0.5,19.15-1.99,22.55-2.52c0.9-0.14,1.28-0.08,1.76-0.02" style="fill:none;stroke:#999;stroke-width:3" />
<path d="M917.03,13.13c0.44,0.23,1.37,1.73,1.46,2.19c0.09,0.46,0.21,21.16,0.25,28.5" style="fill:none;stroke:#999;stroke-width:3" />
<path d="M906.74,35.11c0.55,0.25,1.55,0.3,2.09,0.25c3.93-0.36,15.38-2.15,18.77-2.54c0.91-0.1,1.57-0.06,2.05-0.01" style="fill:none;stroke:#999;stroke-width:3" />
<path d="M901.63,45.49c0.85,0.27,2.4,0.31,3.26,0.27c6.1-0.26,17.35-2.26,23.02-2.69c1.41-0.11,2.48-0.23,3.5,0.44" style="fill:none;stroke:#999;stroke-width:3" />
<path d="M907.31,54.55c0.4,0.58,0.67,1.15,0.8,1.73c0.13,0.58,0.39,25.97-0.21,38.22" style="fill:none;stroke:#999;stroke-width:3" />
<path d="M908.92,55.13c1.61-0.15,15.88-2.08,17.07-2.24c2.14-0.29,2.95,1.87,2.68,2.74c-0.26,0.83-0.4,23.95-0.4,35.62c0,7.75-4.02,2.02-4.55,1.3" style="fill:none;stroke:black;stroke-width:3" />
<circle cx="908.92" cy="55.13" r="5" stroke-width="0" fill="#FF2A00" opacity="0.7" />
<path d="M996.38,17.25c3.84,1.3,9.91,5.33,10.87,7.34" style="fill:none;stroke:#999;stroke-width:3" />
<path d="M993.25,41.75c3.27,1.28,8.43,5.26,9.25,7.25" style="fill:none;stroke:#999;stroke-width:3" />
<path d="M994.75,88.71c1.5,0.29,3.81,0.36,4.75-1.25c2.75-4.7,4-9.45,6.5-16.45" style="fill:none;stroke:#999;stroke-width:3" />
<path d="M1014.09,24.63c0.55,0.34,1.54,0.41,2.09,0.34c3.94-0.5,19.15-1.99,22.55-2.52c0.9-0.14,1.28-0.08,1.76-0.02" style="fill:none;stroke:#999;stroke-width:3" />
<path d="M1026.03,13.13c0.44,0.23,1.37,1.73,1.46,2.19c0.09,0.46,0.21,21.16,0.25,28.5" style="fill:none;stroke:#999;stroke-width:3" />
<path d="M1015.74,35.11c0.55,0.25,1.55,0.3,2.09,0.25c3.93-0.36,15.38-2.15,18.77-2.54c0.91-0.1,1.57-0.06,2.05-0.01" style="fill:none;stroke:#999;stroke-width:3" />
<path d="M1010.63,45.49c0.85,0.27,2.4,0.31,3.26,0.27c6.1-0.26,17.35-2.26,23.02-2.69c1.41-0.11,2.48-0.23,3.5,0.44" style="fill:none;stroke:#999;stroke-width:3" />
<path d="M1016.31,54.55c0.4,0.58,0.67,1.15,0.8,1.73c0.13,0.58,0.39,25.97-0.21,38.22" style="fill:none;stroke:#999;stroke-width:3" />
<path d="M1017.92,55.13c1.61-0.15,15.88-2.08,17.07-2.24c2.14-0.29,2.95,1.87,2.68,2.74c-0.26,0.83-0.4,23.95-0.4,35.62c0,7.75-4.02,2.02-4.55,1.3" style="fill:none;stroke:#999;stroke-width:3" />
<path d="M1017.92,65.22c2.68,0,14.31-2.1,18.81-2.1" style="fill:none;stroke:black;stroke-width:3" />
<circle cx="1017.92" cy="65.22" r="5" stroke-width="0" fill="#FF2A00" opacity="0.7" />
<path d="M1105.38,17.25c3.84,1.3,9.91,5.33,10.87,7.34" style="fill:none;stroke:#999;stroke-width:3" />
<path d="M1102.25,41.75c3.27,1.28,8.43,5.26,9.25,7.25" style="fill:none;stroke:#999;stroke-width:3" />
<path d="M1103.75,88.71c1.5,0.29,3.81,0.36,4.75-1.25c2.75-4.7,4-9.45,6.5-16.45" style="fill:none;stroke:#999;stroke-width:3" />
<path d="M1123.0900000000001,24.63c0.55,0.34,1.54,0.41,2.09,0.34c3.94-0.5,19.15-1.99,22.55-2.52c0.9-0.14,1.28-0.08,1.76-0.02" style="fill:none;stroke:#999;stroke-width:3" />
<path d="M1135.03,13.13c0.44,0.23,1.37,1.73,1.46,2.19c0.09,0.46,0.21,21.16,0.25,28.5" style="fill:none;stroke:#999;stroke-width:3" />
<path d="M1124.74,35.11c0.55,0.25,1.55,0.3,2.09,0.25c3.93-0.36,15.38-2.15,18.77-2.54c0.91-0.1,1.57-0.06,2.05-0.01" style="fill:none;stroke:#999;stroke-width:3" />
<path d="M1119.63,45.49c0.85,0.27,2.4,0.31,3.26,0.27c6.1-0.26,17.35-2.26,23.02-2.69c1.41-0.11,2.48-0.23,3.5,0.44" style="fill:none;stroke:#999;stroke-width:3" />
<path d="M1125.31,54.55c0.4,0.58,0.67,1.15,0.8,1.73c0.13,0.58,0.39,25.97-0.21,38.22" style="fill:none;stroke:#999;stroke-width:3" />
<path d="M1126.92,55.13c1.61-0.15,15.88-2.08,17.07-2.24c2.14-0.29,2.95,1.87,2.68,2.74c-0.26,0.83-0.4,23.95-0.4,35.62c0,7.75-4.02,2.02-4.55,1.3" style="fill:none;stroke:#999;stroke-width:3" />
<path d="M1126.92,65.22c2.68,0,14.31-2.1,18.81-2.1" style="fill:none;stroke:#999;stroke-width:3" />
<path d="M1126.82,75.61c3.21,0,14.45-2.02,19.14-2.02" style="fill:none;stroke:black;stroke-width:3" />
<circle cx="1126.82" cy="75.61" r="5" stroke-width="0" fill="#FF2A00" opacity="0.7" />
<path d="M1214.38,17.25c3.84,1.3,9.91,5.33,10.87,7.34" style="fill:none;stroke:#999;stroke-width:3" />
<path d="M1211.25,41.75c3.27,1.28,8.43,5.26,9.25,7.25" style="fill:none;stroke:#999;stroke-width:3" />
<path d="M1212.75,88.71c1.5,0.29,3.81,0.36,4.75-1.25c2.75-4.7,4-9.45,6.5-16.45" style="fill:none;stroke:#999;stroke-width:3" />
<path d="M1232.0900000000001,24.63c0.55,0.34,1.54,0.41,2.09,0.34c3.94-0.5,19.15-1.99,22.55-2.52c0.9-0.14,1.28-0.08,1.76-0.02" style="fill:none;stroke:#999;stroke-width:3" />
<path d="M1244.03,13.13c0.44,0.23,1.37,1.73,1.46,2.19c0.09,0.46,0.21,21.16,0.25,28.5" style="fill:none;stroke:#999;stroke-width:3" />
<path d="M1233.74,35.11c0.55,0.25,1.55,0.3,2.09,0.25c3.93-0.36,15.38-2.15,18.77-2.54c0.91-0.1,1.57-0.06,2.05-0.01" style="fill:none;stroke:#999;stroke-width:3" />
<path d="M1228.63,45.49c0.85,0.27,2.4,0.31,3.26,0.27c6.1-0.26,17.35-2.26,23.02-2.69c1.41-0.11,2.48-0.23,3.5,0.44" style="fill:none;stroke:#999;stroke-width:3" />
<path d="M1234.31,54.55c0.4,0.58,0.67,1.15,0.8,1.73c0.13,0.58,0.39,25.97-0.21,38.22" style="fill:none;stroke:#999;stroke-width:3" />
<path d="M1235.92,55.13c1.61-0.15,15.88-2.08,17.07-2.24c2.14-0.29,2.95,1.87,2.68,2.74c-0.26,0.83-0.4,23.95-0.4,35.62c0,7.75-4.02,2.02-4.55,1.3" style="fill:none;stroke:#999;stroke-width:3" />
<path d="M1235.92,65.22c2.68,0,14.31-2.1,18.81-2.1" style="fill:none;stroke:#999;stroke-width:3" />
<path d="M1235.82,75.61c3.21,0,14.45-2.02,19.14-2.02" style="fill:none;stroke:#999;stroke-width:3" />
<path d="M1274.16,12.75c0.03,0.52,0.1,1.37-0.05,2.08c-1.03,4.84-4.3,13.99-9.31,19.87" style="fill:none;stroke:black;stroke-width:3" />
<circle cx="1274.16" cy="12.75" r="5" stroke-width="0" fill="#FF2A00" opacity="0.7" />
<path d="M1323.38,17.25c3.84,1.3,9.91,5.33,10.87,7.34" style="fill:none;stroke:#999;stroke-width:3" />
<path d="M1320.25,41.75c3.27,1.28,8.43,5.26,9.25,7.25" style="fill:none;stroke:#999;stroke-width:3" />
<path d="M1321.75,88.71c1.5,0.29,3.81,0.36,4.75-1.25c2.75-4.7,4-9.45,6.5-16.45" style="fill:none;stroke:#999;stroke-width:3" />
<path d="M1341.0900000000001,24.63c0.55,0.34,1.54,0.41,2.09,0.34c3.94-0.5,19.15-1.99,22.55-2.52c0.9-0.14,1.28-0.08,1.76-0.02" style="fill:none;stroke:#999;stroke-width:3" />
<path d="M1353.03,13.13c0.44,0.23,1.37,1.73,1.46,2.19c0.09,0.46,0.21,21.16,0.25,28.5" style="fill:none;stroke:#999;stroke-width:3" />
<path d="M1342.74,35.11c0.55,0.25,1.55,0.3,2.09,0.25c3.93-0.36,15.38-2.15,18.77-2.54c0.91-0.1,1.57-0.06,2.05-0.01" style="fill:none;stroke:#999;stroke-width:3" />
<path d="M1337.63,45.49c0.85,0.27,2.4,0.31,3.26,0.27c6.1-0.26,17.35-2.26,23.02-2.69c1.41-0.11,2.48-0.23,3.5,0.44" style="fill:none;stroke:#999;stroke-width:3" />
<path d="M1343.31,54.55c0.4,0.58,0.67,1.15,0.8,1.73c0.13,0.58,0.39,25.97-0.21,38.22" style="fill:none;stroke:#999;stroke-width:3" />
<path d="M1344.92,55.13c1.61-0.15,15.88-2.08,17.07-2.24c2.14-0.29,2.95,1.87,2.68,2.74c-0.26,0.83-0.4,23.95-0.4,35.62c0,7.75-4.02,2.02-4.55,1.3" style="fill:none;stroke:#999;stroke-width:3" />
<path d="M1344.92,65.22c2.68,0,14.31-2.1,18.81-2.1" style="fill:none;stroke:#999;stroke-width:3" />
<path d="M1344.82,75.61c3.21,0,14.45-2.02,19.14-2.02" style="fill:none;stroke:#999;stroke-width:3" />
<path d="M1383.16,12.75c0.03,0.52,0.1,1.37-0.05,2.08c-1.03,4.84-4.3,13.99-9.31,19.87" style="fill:none;stroke:#999;stroke-width:3" />
<path d="M1380.54,22.85c1.72,0,11.44-2.04,13.22-2.5c2.37-0.61,3.22,1.64,2.13,3.55c-2.71,4.73-5.02,8.4-7.9,14.77" style="fill:none;stroke:black;stroke-width:3" />
<circle cx="1380.54" cy="22.85" r="5" stroke-width="0" fill="#FF2A00" opacity="0.7" />
<path d="M1432.38,17.25c3.84,1.3,9.91,5.33,10.87,7.34" style="fill:none;stroke:#999;stroke-width:3" />
<path d="M1429.25,41.75c3.27,1.28,8.43,5.26,9.25,7.25" style="fill:none;stroke:#999;stroke-width:3" />
<path d="M1430.75,88.71c1.5,0.29,3.81,0.36,4.75-1.25c2.75-4.7,4-9.45,6.5-16.45" style="fill:none;stroke:#999;stroke-width:3" />
<path d="M1450.0900000000001,24.63c0.55,0.34,1.54,0.41,2.09,0.34c3.94-0.5,19.15-1.99,22.55-2.52c0.9-0.14,1.28-0.08,1.76-0.02" style="fill:none;stroke:#999;stroke-width:3" />
<path d="M1462.03,13.13c0.44,0.23,1.37,1.73,1.46,2.19c0.09,0.46,0.21,21.16,0.25,28.5" style="fill:none;stroke:#999;stroke-width:3" />
<path d="M1451.74,35.11c0.55,0.25,1.55,0.3,2.09,0.25c3.93-0.36,15.38-2.15,18.77-2.54c0.91-0.1,1.57-0.06,2.05-0.01" style="fill:none;stroke:#999;stroke-width:3" />
<path d="M1446.63,45.49c0.85,0.27,2.4,0.31,3.26,0.27c6.1-0.26,17.35-2.26,23.02-2.69c1.41-0.11,2.48-0.23,3.5,0.44" style="fill:none;stroke:#999;stroke-width:3" />
<path d="M1452.31,54.55c0.4,0.58,0.67,1.15,0.8,1.73c0.13,0.58,0.39,25.97-0.21,38.22" style="fill:none;stroke:#999;stroke-width:3" />
<path d="M1453.92,55.13c1.61-0.15,15.88-2.08,17.07-2.24c2.14-0.29,2.95,1.87,2.68,2.74c-0.26,0.83-0.4,23.95-0.4,35.62c0,7.75-4.02,2.02-4.55,1.3" style="fill:none;stroke:#999;stroke-width:3" />
<path d="M1453.92,65.22c2.68,0,14.31-2.1,18.81-2.1" style="fill:none;stroke:#999;stroke-width:3" />
<path d="M1453.82,75.61c3.21,0,14.45-2.02,19.14-2.02" style="fill:none;stroke:#999;stroke-width:3" />
<path d="M1492.16,12.75c0.03,0.52,0.1,1.37-0.05,2.08c-1.03,4.84-4.3,13.99-9.31,19.87" style="fill:none;stroke:#999;stroke-width:3" />
<path d="M1489.54,22.85c1.72,0,11.44-2.04,13.22-2.5c2.37-0.61,3.22,1.64,2.13,3.55c-2.71,4.73-5.02,8.4-7.9,14.77" style="fill:none;stroke:#999;stroke-width:3" />
<path d="M1482.65,42.73c1.49,0.15,2.2,0.51,3.57,0.27c8.31-1.46,16.09-1.82,22.44-3.03c1.92-0.36,2.97,1.01,2.69,3.43c-0.74,6.33-1.56,12.08-2.8,23.07" style="fill:none;stroke:black;stroke-width:3" />
<circle cx="1482.65" cy="42.73" r="5" stroke-width="0" fill="#FF2A00" opacity="0.7" />
<path d="M1541.38,17.25c3.84,1.3,9.91,5.33,10.87,7.34" style="fill:none;stroke:#999;stroke-width:3" />
<path d="M1538.25,41.75c3.27,1.28,8.43,5.26,9.25,7.25" style="fill:none;stroke:#999;stroke-width:3" />
<path d="M1539.75,88.71c1.5,0.29,3.81,0.36,4.75-1.25c2.75-4.7,4-9.45,6.5-16.45" style="fill:none;stroke:#999;stroke-width:3" />
<path d="M1559.0900000000001,24.63c0.55,0.34,1.54,0.41,2.09,0.34c3.94-0.5,19.15-1.99,22.55-2.52c0.9-0.14,1.28-0.08,1.76-0.02" style="fill:none;stroke:#999;stroke-width:3" />
<path d="M1571.03,13.13c0.44,0.23,1.37,1.73,1.46,2.19c0.09,0.46,0.21,21.16,0.25,28.5" style="fill:none;stroke:#999;stroke-width:3" />
<path d="M1560.74,35.11c0.55,0.25,1.55,0.3,2.09,0.25c3.93-0.36,15.38-2.15,18.77-2.54c0.91-0.1,1.57-0.06,2.05-0.01" style="fill:none;stroke:#999;stroke-width:3" />
<path d="M1555.63,45.49c0.85,0.27,2.4,0.31,3.26,0.27c6.1-0.26,17.35-2.26,23.02-2.69c1.41-0.11,2.48-0.23,3.5,0.44" style="fill:none;stroke:#999;stroke-width:3" />
<path d="M1561.31,54.55c0.4,0.58,0.67,1.15,0.8,1.73c0.13,0.58,0.39,25.97-0.21,38.22" style="fill:none;stroke:#999;stroke-width:3" />
<path d="M1562.92,55.13c1.61-0.15,15.88-2.08,17.07-2.24c2.14-0.29,2.95,1.87,2.68,2.74c-0.26,0.83-0.4,23.95-0.4,35.62c0,7.75-4.02,2.02-4.55,1.3" style="fill:none;stroke:#999;stroke-width:3" />
<path d="M1562.92,65.22c2.68,0,14.31-2.1,18.81-2.1" style="fill:none;stroke:#999;stroke-width:3" />
<path d="M1562.82,75.61c3.21,0,14.45-2.02,19.14-2.02" style="fill:none;stroke:#999;stroke-width:3" />
<path d="M1601.16,12.75c0.03,0.52,0.1,1.37-0.05,2.08c-1.03,4.84-4.3,13.99-9.31,19.87" style="fill:none;stroke:#999;stroke-width:3" />
<path d="M1598.54,22.85c1.72,0,11.44-2.04,13.22-2.5c2.37-0.61,3.22,1.64,2.13,3.55c-2.71,4.73-5.02,8.4-7.9,14.77" style="fill:none;stroke:#999;stroke-width:3" />
<path d="M1591.65,42.73c1.49,0.15,2.2,0.51,3.57,0.27c8.31-1.46,16.09-1.82,22.44-3.03c1.92-0.36,2.97,1.01,2.69,3.43c-0.74,6.33-1.56,12.08-2.8,23.07" style="fill:none;stroke:#999;stroke-width:3" />
<path d="M1589.16,55.3c1.34,0.16,2.38,0.48,3.86,0.25c8.39-1.3,25.55-3.55,31.97-3.85c1.65-0.08,2.97,0.3,3.72,0.5" style="fill:none;stroke:black;stroke-width:3" />
<circle cx="1589.16" cy="55.3" r="5" stroke-width="0" fill="#FF2A00" opacity="0.7" />
<path d="M1650.38,17.25c3.84,1.3,9.91,5.33,10.87,7.34" style="fill:none;stroke:#999;stroke-width:3" />
<path d="M1647.25,41.75c3.27,1.28,8.43,5.26,9.25,7.25" style="fill:none;stroke:#999;stroke-width:3" />
<path d="M1648.75,88.71c1.5,0.29,3.81,0.36,4.75-1.25c2.75-4.7,4-9.45,6.5-16.45" style="fill:none;stroke:#999;stroke-width:3" />
<path d="M1668.0900000000001,24.63c0.55,0.34,1.54,0.41,2.09,0.34c3.94-0.5,19.15-1.99,22.55-2.52c0.9-0.14,1.28-0.08,1.76-0.02" style="fill:none;stroke:#999;stroke-width:3" />
<path d="M1680.03,13.13c0.44,0.23,1.37,1.73,1.46,2.19c0.09,0.46,0.21,21.16,0.25,28.5" style="fill:none;stroke:#999;stroke-width:3" />
<path d="M1669.74,35.11c0.55,0.25,1.55,0.3,2.09,0.25c3.93-0.36,15.38-2.15,18.77-2.54c0.91-0.1,1.57-0.06,2.05-0.01" style="fill:none;stroke:#999;stroke-width:3" />
<path d="M1664.63,45.49c0.85,0.27,2.4,0.31,3.26,0.27c6.1-0.26,17.35-2.26,23.02-2.69c1.41-0.11,2.48-0.23,3.5,0.44" style="fill:none;stroke:#999;stroke-width:3" />
<path d="M1670.31,54.55c0.4,0.58,0.67,1.15,0.8,1.73c0.13,0.58,0.39,25.97-0.21,38.22" style="fill:none;stroke:#999;stroke-width:3" />
<path d="M1671.92,55.13c1.61-0.15,15.88-2.08,17.07-2.24c2.14-0.29,2.95,1.87,2.68,2.74c-0.26,0.83-0.4,23.95-0.4,35.62c0,7.75-4.02,2.02-4.55,1.3" style="fill:none;stroke:#999;stroke-width:3" />
<path d="M1671.92,65.22c2.68,0,14.31-2.1,18.81-2.1" style="fill:none;stroke:#999;stroke-width:3" />
<path d="M1671.82,75.61c3.21,0,14.45-2.02,19.14-2.02" style="fill:none;stroke:#999;stroke-width:3" />
<path d="M1710.16,12.75c0.03,0.52,0.1,1.37-0.05,2.08c-1.03,4.84-4.3,13.99-9.31,19.87" style="fill:none;stroke:#999;stroke-width:3" />
<path d="M1707.54,22.85c1.72,0,11.44-2.04,13.22-2.5c2.37-0.61,3.22,1.64,2.13,3.55c-2.71,4.73-5.02,8.4-7.9,14.77" style="fill:none;stroke:#999;stroke-width:3" />
<path d="M1700.65,42.73c1.49,0.15,2.2,0.51,3.57,0.27c8.31-1.46,16.09-1.82,22.44-3.03c1.92-0.36,2.97,1.01,2.69,3.43c-0.74,6.33-1.56,12.08-2.8,23.07" style="fill:none;stroke:#999;stroke-width:3" />
<path d="M1698.16,55.3c1.34,0.16,2.38,0.48,3.86,0.25c8.39-1.3,25.55-3.55,31.97-3.85c1.65-0.08,2.97,0.3,3.72,0.5" style="fill:none;stroke:#999;stroke-width:3" />
<path d="M1700.39,69c0.74,0.1,2.08,0.39,2.97,0.26c8.16-1.22,15.14-1.86,22.56-2.59c1.19-0.12,1.93-0.12,2.82-0.02" style="fill:none;stroke:black;stroke-width:3" />
<circle cx="1700.39" cy="69.0" r="5" stroke-width="0" fill="#FF2A00" opacity="0.7" />
<path d="M1759.38,17.25c3.84,1.3,9.91,5.33,10.87,7.34" style="fill:none;stroke:#999;stroke-width:3" />
<path d="M1756.25,41.75c3.27,1.28,8.43,5.26,9.25,7.25" style="fill:none;stroke:#999;stroke-width:3" />
<path d="M1757.75,88.71c1.5,0.29,3.81,0.36,4.75-1.25c2.75-4.7,4-9.45,6.5-16.45" style="fill:none;stroke:#999;stroke-width:3" />
<path d="M1777.0900000000001,24.63c0.55,0.34,1.54,0.41,2.09,0.34c3.94-0.5,19.15-1.99,22.55-2.52c0.9-0.14,1.28-0.08,1.76-0.02" style="fill:none;stroke:#999;stroke-width:3" />
<path d="M1789.03,13.13c0.44,0.23,1.37,1.73,1.46,2.19c0.09,0.46,0.21,21.16,0.25,28.5" style="fill:none;stroke:#999;stroke-width:3" />
<path d="M1778.74,35.11c0.55,0.25,1.55,0.3,2.09,0.25c3.93-0.36,15.38-2.15,18.77-2.54c0.91-0.1,1.57-0.06,2.05-0.01" style="fill:none;stroke:#999;stroke-width:3" />
<path d="M1773.63,45.49c0.85,0.27,2.4,0.31,3.26,0.27c6.1-0.26,17.35-2.26,23.02-2.69c1.41-0.11,2.48-0.23,3.5,0.44" style="fill:none;stroke:#999;stroke-width:3" />
<path d="M1779.31,54.55c0.4,0.58,0.67,1.15,0.8,1.73c0.13,0.58,0.39,25.97-0.21,38.22" style="fill:none;stroke:#999;stroke-width:3" />
<path d="M1780.92,55.13c1.61-0.15,15.88-2.08,17.07-2.24c2.14-0.29,2.95,1.87,2.68,2.74c-0.26,0.83-0.4,23.95-0.4,35.62c0,7.75-4.02,2.02-4.55,1.3" style="fill:none;stroke:#999;stroke-width:3" />
<path d="M1780.92,65.22c2.68,0,14.31-2.1,18.81-2.1" style="fill:none;stroke:#999;stroke-width:3" />
<path d="M1780.82,75.61c3.21,0,14.45-2.02,19.14-2.02" style="fill:none;stroke:#999;stroke-width:3" />
<path d="M1819.16,12.75c0.03,0.52,0.1,1.37-0.05,2.08c-1.03,4.84-4.3,13.99-9.31,19.87" style="fill:none;stroke:#999;stroke-width:3" />
<path d="M1816.54,22.85c1.72,0,11.44-2.04,13.22-2.5c2.37-0.61,3.22,1.64,2.13,3.55c-2.71,4.73-5.02,8.4-7.9,14.77" style="fill:none;stroke:#999;stroke-width:3" />
<path d="M1809.65,42.73c1.49,0.15,2.2,0.51,3.57,0.27c8.31-1.46,16.09-1.82,22.44-3.03c1.92-0.36,2.97,1.01,2.69,3.43c-0.74,6.33-1.56,12.08-2.8,23.07" style="fill:none;stroke:#999;stroke-width:3" />
<path d="M1807.16,55.3c1.34,0.16,2.38,0.48,3.86,0.25c8.39-1.3,25.55-3.55,31.97-3.85c1.65-0.08,2.97,0.3,3.72,0.5" style="fill:none;stroke:#999;stroke-width:3" />
<path d="M1809.39,69c0.74,0.1,2.08,0.39,2.97,0.26c8.16-1.22,15.14-1.86,22.56-2.59c1.19-0.12,1.93-0.12,2.82-0.02" style="fill:none;stroke:#999;stroke-width:3" />
<path d="M1822.73,43.94c0.6,0.86,1.01,1.87,1.06,4.73c0.24,13.73-0.16,37.4-0.16,42.08c0,7.5-5.36,1.42-6.27,0.24" style="fill:none;stroke:black;stroke-width:3" />
<circle cx="1822.73" cy="43.94" r="5" stroke-width="0" fill="#FF2A00" opacity="0.7" />
</svg>