<svg width="763px" height="109px" viewBox="0 0 763px 109px" xmlns="http://www.w3.org/2000/svg" xmlns:xlink="http://www.w3.org/1999/xlink" xml:space="preserve" version="1.1"  baseProfile="full">
<line x1="1" y1="1" x2="762" y2="1" style="stroke:#ddd;stroke-width:2" />
<line x1="1" y1="1" x2="1" y2="108" style="stroke:#ddd;stroke-width:2" />
<line x1="1" y1="108" x2="762" y2="108" style="stroke:#ddd;stroke-width:2" />
<line x1="762" y1="1" x2="762" y2="108" style="stroke:#ddd;stroke-width:2" />
<line x1="109" y1="1" x2="109" y2="108" style="stroke:#ddd;stroke-width:2" />
<line x1="218" y1="1" x2="218" y2="108" style="stroke:#ddd;stroke-width:2" />
<line x1="327" y1="1" x2="327" y2="108" style="stroke:#ddd;stroke-width:2" />
<line x1="436" y1="1" x2="436" y2="108" style="stroke:#ddd;stroke-width:2" />
<line x1="545" y1="1" x2="545" y2="108" style="stroke:#ddd;stroke-width:2" />
<line x1="654" y1="1" x2="654" y2="108" style="stroke:#ddd;stroke-width:2" />
<line x1="1" y1="54" x2="762" y2="54" style="stroke:#ddd;stroke-width:2;stroke-dasharray:3 3" />
<line x1="55" y1="1" x2="55" y2="108" style="stroke:#ddd;stroke-width:2;stroke-dasharray:3 3" />
<line x1="164" y1="1" x2="164" y2="108" style="stroke:#ddd;stroke-width:2;stroke-dasharray:3 3" />
<line x1="273" y1="1" x2="273" y2="108" style="stroke:#ddd;stroke-width:2;stroke-dasharray:3 3" />
<line x1="382" y1="1" x2="382" y2="108" style="stroke:#ddd;stroke-width:2;stroke-dasharray:3 3" />
<line x1="491" y1="1" x2="491" y2="108" style="stroke:#ddd;stroke-width:2;stroke-dasharray:3 3" />
<line x1="600" y1="1" x2="600" y2="108" style="stroke:#ddd;stroke-width:2;stroke-dasharray:3 3" />
<line x1="709" y1="1" x2="709" y2="108" style="stroke:#ddd;stroke-width:2;stroke-dasharray:3 3" />
<path d="M14.24,38.25c1.59,3.47,3.66,13.28,4.09,16.75" style="fill:none;stroke:black;stroke-width:3" />
<circle cx="14.24" cy="38.25" r="5" stroke-width="0" fill="#FF2A00" opacity="0.7" />
<path d="M123.24,38.25c1.59,3.47,3.66,13.28,4.09,16.75" style="fill:none;stroke:#999;stroke-width:3" />
<path d="M151.54,32.25c0,1.38-0.67,2.09-1.34,2.99c-0.67,0.9-4.6,5.67-7.98,7.76" style="fill:none;stroke:black;stroke-width:3" />
<circle cx="151.54" cy="32.25" r="5" stroke-width="0" fill="#FF2A00" opacity="0.7" />
<path d="M232.24,38.25c1.59,3.47,3.66,13.28,4.09,16.75" style="fill:none;stroke:#999;stroke-width:3" />
<path d="M260.53999999999996,32.25c0,1.38-0.67,2.09-1.34,2.99c-0.67,0.9-4.6,5.67-7.98,7.76" style="fill:none;stroke:#999;stroke-width:3" />
<path d="M246.25,16c0.94,0.94,1,2.25,1.03,3.5C248.38,68.12,245.0,77.25,231.0,91.75" style="fill:none;stroke:black;stroke-width:3" />
<circle cx="246.25" cy="16.0" r="5" stroke-width="0" fill="#FF2A00" opacity="0.7" />
<path d="M341.24,38.25c1.59,3.47,3.66,13.28,4.09,16.75" style="fill:none;stroke:#999;stroke-width:3" />
<path d="M369.53999999999996,32.25c0,1.38-0.67,2.09-1.34,2.99c-0.67,0.9-4.6,5.67-7.98,7.76" style="fill:none;stroke:#999;stroke-width:3" />
<path d="M355.25,16c0.94,0.94,1,2.25,1.03,3.5C357.38,68.12,354.0,77.25,340.0,91.75" style="fill:none;stroke:#999;stroke-width:3" />
<path d="M358.25,65.75c4.45,2.87,9.08,10.94,10.25,15" style="fill:none;stroke:black;stroke-width:3" />
<circle cx="358.25" cy="65.75" r="5" stroke-width="0" fill="#FF2A00" opacity="0.7" />
<path d="M450.24,38.25c1.59,3.47,3.66,13.28,4.09,16.75" style="fill:none;stroke:#999;stroke-width:3" />
<path d="M478.53999999999996,32.25c0,1.38-0.67,2.09-1.34,2.99c-0.67,0.9-4.6,5.67-7.98,7.76" style="fill:none;stroke:#999;stroke-width:3" />
<path d="M464.25,16c0.94,0.94,1,2.25,1.03,3.5C466.38,68.12,463.0,77.25,449.0,91.75" style="fill:none;stroke:#999;stroke-width:3" />
<path d="M467.25,65.75c4.45,2.87,9.08,10.94,10.25,15" style="fill:none;stroke:#999;stroke-width:3" />
<path d="M501.77,15.5c0,1.25-0.17,2.3-0.59,3.34C498.12,26.38,493.75,35,484.25,47.63" style="fill:none;stroke:black;stroke-width:3" />
<circle cx="501.77" cy="15.5" r="5" stroke-width="0" fill="#FF2A00" opacity="0.7" />
<path d="M559.24,38.25c1.59,3.47,3.66,13.28,4.09,16.75" style="fill:none;stroke:#999;stroke-width:3" />
<path d="M587.54,32.25c0,1.38-0.67,2.09-1.34,2.99c-0.67,0.9-4.6,5.67-7.98,7.76" style="fill:none;stroke:#999;stroke-width:3" />
<path d="M573.25,16c0.94,0.94,1,2.25,1.03,3.5C575.38,68.12,572.0,77.25,558.0,91.75" style="fill:none;stroke:#999;stroke-width:3" />
<path d="M576.25,65.75c4.45,2.87,9.08,10.94,10.25,15" style="fill:none;stroke:#999;stroke-width:3" />
<path d="M610.77,15.5c0,1.25-0.17,2.3-0.59,3.34C607.12,26.38,602.75,35,593.25,47.63" style="fill:none;stroke:#999;stroke-width:3" />
<path d="M604.25,37.37c2.55,0.5,5.06,0.39,7.51-0.35c6.37-1.36,13.49-2.9,19-3.84c5.5-0.94,6.82,2.82,6.4,7.7c-0.78,9.17-5.04,30.98-13.2,44.75c-3.68,6.2-6.89,8.81-12.7,3.23" style="fill:none;stroke:black;stroke-width:3" />
<circle cx="604.25" cy="37.37" r="5" stroke-width="0" fill="#FF2A00" opacity="0.7" />
<path d="M668.24,38.25c1.59,3.47,3.66,13.28,4.09,16.75" style="fill:none;stroke:#999;stroke-width:3" />
<path d="M696.54,32.25c0,1.38-0.67,2.09-1.34,2.99c-0.67,0.9-4.6,5.67-7.98,7.76" style="fill:none;stroke:#999;stroke-width:3" />
<path d="M682.25,16c0.94,0.94,1,2.25,1.03,3.5C684.38,68.12,681.0,77.25,667.0,91.75" style="fill:none;stroke:#999;stroke-width:3" />
<path d="M685.25,65.75c4.45,2.87,9.08,10.94,10.25,15" style="fill:none;stroke:#999;stroke-width:3" />
<path d="M719.77,15.5c0,1.25-0.17,2.3-0.59,3.34C716.12,26.38,711.75,35,702.25,47.63" style="fill:none;stroke:#999;stroke-width:3" />
<path d="M713.25,37.37c2.55,0.5,5.06,0.39,7.51-0.35c6.37-1.36,13.49-2.9,19-3.84c5.5-0.94,6.82,2.82,6.4,7.7c-0.78,9.17-5.04,30.98-13.2,44.75c-3.68,6.2-6.89,8.81-12.7,3.23" style="fill:none;stroke:#999;stroke-width:3" />
<path d="M711.52,55.08c3.81,2.18,9.59,8.99,10.54,12.38" style="fill:none;stroke:black;stroke-width:3" />
<circle cx="711.52" cy="55.08" r="5" stroke-width="0" fill="#FF2A00" opacity="0.7" />
</svg>