<svg width="1417px" height="109px" viewBox="0 0 1417px 109px" xmlns="http://www.w3.org/2000/svg" xmlns:xlink="http://www.w3.org/1999/xlink" xml:space="preserve" version="1.1"  baseProfile="full">
<line x1="1" y1="1" x2="1416" y2="1" style="stroke:#ddd;stroke-width:2" />
<line x1="1" y1="1" x2="1" y2="108" style="stroke:#ddd;stroke-width:2" />
<line x1="1" y1="108" x2="1416" y2="108" style="stroke:#ddd;stroke-width:2" />
<line x1="1416" y1="1" x2="1416" y2="108" style="stroke:#ddd;stroke-width:2" />
<line x1="109" y1="1" x2="109" y2="108" style="stroke:#ddd;stroke-width:2" />
<line x1="218" y1="1" x2="218" y2="108" style="stroke:#ddd;stroke-width:2" />
<line x1="327" y1="1" x2="327" y2="108" style="stroke:#ddd;stroke-width:2" />
<line x1="436" y1="1" x2="436" y2="108" style="stroke:#ddd;stroke-width:2" />
<line x1="545" y1="1" x2="545" y2="108" style="stroke:#ddd;stroke-width:2" />
<line x1="654" y1="1" x2="654" y2="108" style="stroke:#ddd;stroke-width:2" />
<line x1="763" y1="1" x2="763" y2="108" style="stroke:#ddd;stroke-width:2" />
<line x1="872" y1="1" x2="872" y2="108" style="stroke:#ddd;stroke-width:2" />
<line x1="981" y1="1" x2="981" y2="108" style="stroke:#ddd;stroke-width:2" />
<line x1="1090" y1="1" x2="1090" y2="108" style="stroke:#ddd;stroke-width:2" />
<line x1="1199" y1="1" x2="1199" y2="108" style="stroke:#ddd;stroke-width:2" />
<line x1="1308" y1="1" x2="1308" y2="108" style="stroke:#ddd;stroke-width:2" />
<line x1="1" y1="54" x2="1416" y2="54" style="stroke:#ddd;stroke-width:2;stroke-dasharray:3 3" />
<line x1="55" y1="1" x2="55" y2="108" style="stroke:#ddd;stroke-width:2;stroke-dasharray:3 3" />
<line x1="164" y1="1" x2="164" y2="108" style="stroke:#ddd;stroke-width:2;stroke-dasharray:3 3" />
<line x1="273" y1="1" x2="273" y2="108" style="stroke:#ddd;stroke-width:2;stroke-dasharray:3 3" />
<line x1="382" y1="1" x2="382" y2="108" style="stroke:#ddd;stroke-width:2;stroke-dasharray:3 3" />
<line x1="491" y1="1" x2="491" y2="108" style="stroke:#ddd;stroke-width:2;stroke-dasharray:3 3" />
<line x1="600" y1="1" x2="600" y2="108" style="stroke:#ddd;stroke-width:2;stroke-dasharray:3 3" />
<line x1="709" y1="1" x2="709" y2="108" style="stroke:#ddd;stroke-width:2;stroke-dasharray:3 3" />
<line x1="818" y1="1" x2="818" y2="108" style="stroke:#ddd;stroke-width:2;stroke-dasharray:3 3" />
<line x1="927" y1="1" x2="927" y2="108" style="stroke:#ddd;stroke-width:2;stroke-dasharray:3 3" />
<line x1="1036" y1="1" x2="1036" y2="108" style="stroke:#ddd;stroke-width:2;stroke-dasharray:3 3" />
<line x1="1145" y1="1" x2="1145" y2="108" style="stroke:#ddd;stroke-width:2;stroke-dasharray:3 3" />
<line x1="1254" y1="1" x2="1254" y2="108" style="stroke:#ddd;stroke-width:2;stroke-dasharray:3 3" />
<line x1="1363" y1="1" x2="1363" y2="108" style="stroke:#ddd;stroke-width:2;stroke-dasharray:3 3" />
<path d="M35.82,13.81c3.33,1.96,8.36,8.06,9.19,11.1" style="fill:none;stroke:black;stroke-width:3" />
<circle cx="35.82" cy="13.81" r="5" stroke-width="0" fill="#FF2A00" opacity="0.7" />
<path d="M144.82,13.81c3.33,1.96,8.36,8.06,9.19,11.1" style="fill:none;stroke:#999;stroke-width:3" />
<path d="M180.41,13c0,0.75-0.38,1.67-0.62,2.06c-2.05,3.44-3.8,5.56-6.3,8.56" style="fill:none;stroke:black;stroke-width:3" />
<circle cx="180.41" cy="13.0" r="5" stroke-width="0" fill="#FF2A00" opacity="0.7" />
<path d="M253.82,13.81c3.33,1.96,8.36,8.06,9.19,11.1" style="fill:none;stroke:#999;stroke-width:3" />
<path d="M289.40999999999997,13c0,0.75-0.38,1.67-0.62,2.06c-2.05,3.44-3.8,5.56-6.3,8.56" style="fill:none;stroke:#999;stroke-width:3" />
<path d="M235.24,29.39c3.67,0.66,7.31,0.45,11.02,0.1c16.99-1.61,32.38-3.16,52.61-4.26c4.14-0.23,8.2-0.24,12.22,0.66" style="fill:none;stroke:black;stroke-width:3" />
<circle cx="235.24" cy="29.39" r="5" stroke-width="0" fill="#FF2A00" opacity="0.7" />
<path d="M362.82,13.81c3.33,1.96,8.36,8.06,9.19,11.1" style="fill:none;stroke:#999;stroke-width:3" />
<path d="M398.40999999999997,13c0,0.75-0.38,1.67-0.62,2.06c-2.05,3.44-3.8,5.56-6.3,8.56" style="fill:none;stroke:#999;stroke-width:3" />
<path d="M344.24,29.39c3.67,0.66,7.31,0.45,11.02,0.1c16.99-1.61,32.38-3.16,52.61-4.26c4.14-0.23,8.2-0.24,12.22,0.66" style="fill:none;stroke:#999;stroke-width:3" />
<path d="M352.0,38.46c0.77,0.77,1,2.23,1,3.66c0,5.88-0.06,19.91-0.1,28.51c-0.01,3.2-0.02,5.65-0.02,6.62" style="fill:none;stroke:black;stroke-width:3" />
<circle cx="352.0" cy="38.46" r="5" stroke-width="0" fill="#FF2A00" opacity="0.7" />
<path d="M471.82,13.81c3.33,1.96,8.36,8.06,9.19,11.1" style="fill:none;stroke:#999;stroke-width:3" />
<path d="M507.40999999999997,13c0,0.75-0.38,1.67-0.62,2.06c-2.05,3.44-3.8,5.56-6.3,8.56" style="fill:none;stroke:#999;stroke-width:3" />
<path d="M453.24,29.39c3.67,0.66,7.31,0.45,11.02,0.1c16.99-1.61,32.38-3.16,52.61-4.26c4.14-0.23,8.2-0.24,12.22,0.66" style="fill:none;stroke:#999;stroke-width:3" />
<path d="M461.0,38.46c0.77,0.77,1,2.23,1,3.66c0,5.88-0.06,19.91-0.1,28.51c-0.01,3.2-0.02,5.65-0.02,6.62" style="fill:none;stroke:#999;stroke-width:3" />
<path d="M462.86,39.49c1.54-0.11,13.06-1.65,17.89-2.26c3.97-0.51,4.68,0.5,4.68,4.28c0,6.12-0.05,20.66-0.05,29.49c0,9.17-5.93,2.43-6.55,1.77" style="fill:none;stroke:black;stroke-width:3" />
<circle cx="462.86" cy="39.49" r="5" stroke-width="0" fill="#FF2A00" opacity="0.7" />
<path d="M580.8199999999999,13.81c3.33,1.96,8.36,8.06,9.19,11.1" style="fill:none;stroke:#999;stroke-width:3" />
<path d="M616.41,13c0,0.75-0.38,1.67-0.62,2.06c-2.05,3.44-3.8,5.56-6.3,8.56" style="fill:none;stroke:#999;stroke-width:3" />
<path d="M562.24,29.39c3.67,0.66,7.31,0.45,11.02,0.1c16.99-1.61,32.38-3.16,52.61-4.26c4.14-0.23,8.2-0.24,12.22,0.66" style="fill:none;stroke:#999;stroke-width:3" />
<path d="M570.0,38.46c0.77,0.77,1,2.23,1,3.66c0,5.88-0.06,19.91-0.1,28.51c-0.01,3.2-0.02,5.65-0.02,6.62" style="fill:none;stroke:#999;stroke-width:3" />
<path d="M571.86,39.49c1.54-0.11,13.06-1.65,17.89-2.26c3.97-0.51,4.68,0.5,4.68,4.28c0,6.12-0.05,20.66-0.05,29.49c0,9.17-5.93,2.43-6.55,1.77" style="fill:none;stroke:#999;stroke-width:3" />
<path d="M571.61,50.63c6.37-0.79,16.03-1.73,21.62-2.12" style="fill:none;stroke:black;stroke-width:3" />
<circle cx="571.61" cy="50.63" r="5" stroke-width="0" fill="#FF2A00" opacity="0.7" />
<path d="M689.8199999999999,13.81c3.33,1.96,8.36,8.06,9.19,11.1" style="fill:none;stroke:#999;stroke-width:3" />
<path d="M725.41,13c0,0.75-0.38,1.67-0.62,2.06c-2.05,3.44-3.8,5.56-6.3,8.56" style="fill:none;stroke:#999;stroke-width:3" />
<path d="M671.24,29.39c3.67,0.66,7.31,0.45,11.02,0.1c16.99-1.61,32.38-3.16,52.61-4.26c4.14-0.23,8.2-0.24,12.22,0.66" style="fill:none;stroke:#999;stroke-width:3" />
<path d="M679.0,38.46c0.77,0.77,1,2.23,1,3.66c0,5.88-0.06,19.91-0.1,28.51c-0.01,3.2-0.02,5.65-0.02,6.62" style="fill:none;stroke:#999;stroke-width:3" />
<path d="M680.86,39.49c1.54-0.11,13.06-1.65,17.89-2.26c3.97-0.51,4.68,0.5,4.68,4.28c0,6.12-0.05,20.66-0.05,29.49c0,9.17-5.93,2.43-6.55,1.77" style="fill:none;stroke:#999;stroke-width:3" />
<path d="M680.61,50.63c6.37-0.79,16.03-1.73,21.62-2.12" style="fill:none;stroke:#999;stroke-width:3" />
<path d="M680.58,61.55c4.97-0.4,16.1-2.08,21.84-2.35" style="fill:none;stroke:black;stroke-width:3" />
<circle cx="680.58" cy="61.55" r="5" stroke-width="0" fill="#FF2A00" opacity="0.7" />
<path d="M798.8199999999999,13.81c3.33,1.96,8.36,8.06,9.19,11.1" style="fill:none;stroke:#999;stroke-width:3" />
<path d="M834.41,13c0,0.75-0.38,1.67-0.62,2.06c-2.05,3.44-3.8,5.56-6.3,8.56" style="fill:none;stroke:#999;stroke-width:3" />
<path d="M780.24,29.39c3.67,0.66,7.31,0.45,11.02,0.1c16.99-1.61,32.38-3.16,52.61-4.26c4.14-0.23,8.2-0.24,12.22,0.66" style="fill:none;stroke:#999;stroke-width:3" />
<path d="M788.0,38.46c0.77,0.77,1,2.23,1,3.66c0,5.88-0.06,19.91-0.1,28.51c-0.01,3.2-0.02,5.65-0.02,6.62" style="fill:none;stroke:#999;stroke-width:3" />
<path d="M789.86,39.49c1.54-0.11,13.06-1.65,17.89-2.26c3.97-0.51,4.68,0.5,4.68,4.28c0,6.12-0.05,20.66-0.05,29.49c0,9.17-5.93,2.43-6.55,1.77" style="fill:none;stroke:#999;stroke-width:3" />
<path d="M789.61,50.63c6.37-0.79,16.03-1.73,21.62-2.12" style="fill:none;stroke:#999;stroke-width:3" />
<path d="M789.58,61.55c4.97-0.4,16.1-2.08,21.84-2.35" style="fill:none;stroke:#999;stroke-width:3" />
<path d="M827.26,37.97c0.88,0.88,1.23,2.28,1.23,3.73c0,4.18-0.1,15.8-0.1,23.1" style="fill:none;stroke:black;stroke-width:3" />
<circle cx="827.26" cy="37.97" r="5" stroke-width="0" fill="#FF2A00" opacity="0.7" />
<path d="M907.8199999999999,13.81c3.33,1.96,8.36,8.06,9.19,11.1" style="fill:none;stroke:#999;stroke-width:3" />
<path d="M943.41,13c0,0.75-0.38,1.67-0.62,2.06c-2.05,3.44-3.8,5.56-6.3,8.56" style="fill:none;stroke:#999;stroke-width:3" />
<path d="M889.24,29.39c3.67,0.66,7.31,0.45,11.02,0.1c16.99-1.61,32.38-3.16,52.61-4.26c4.14-0.23,8.2-0.24,12.22,0.66" style="fill:none;stroke:#999;stroke-width:3" />
<path d="M897.0,38.46c0.77,0.77,1,2.23,1,3.66c0,5.88-0.06,19.91-0.1,28.51c-0.01,3.2-0.02,5.65-0.02,6.62" style="fill:none;stroke:#999;stroke-width:3" />
<path d="M898.86,39.49c1.54-0.11,13.06-1.65,17.89-2.26c3.97-0.51,4.68,0.5,4.68,4.28c0,6.12-0.05,20.66-0.05,29.49c0,9.17-5.93,2.43-6.55,1.77" style="fill:none;stroke:#999;stroke-width:3" />
<path d="M898.61,50.63c6.37-0.79,16.03-1.73,21.62-2.12" style="fill:none;stroke:#999;stroke-width:3" />
<path d="M898.58,61.55c4.97-0.4,16.1-2.08,21.84-2.35" style="fill:none;stroke:#999;stroke-width:3" />
<path d="M936.26,37.97c0.88,0.88,1.23,2.28,1.23,3.73c0,4.18-0.1,15.8-0.1,23.1" style="fill:none;stroke:#999;stroke-width:3" />
<path d="M954.56,33.66c1.02,1.02,1.15,1.97,1.15,3.27c0,3.95,0.02,28.99,0.02,32.83c0,6.25-5.36,0.84-6.73-0.13" style="fill:none;stroke:black;stroke-width:3" />
<circle cx="954.56" cy="33.66" r="5" stroke-width="0" fill="#FF2A00" opacity="0.7" />
<path d="M1016.8199999999999,13.81c3.33,1.96,8.36,8.06,9.19,11.1" style="fill:none;stroke:#999;stroke-width:3" />
<path d="M1052.4099999999999,13c0,0.75-0.38,1.67-0.62,2.06c-2.05,3.44-3.8,5.56-6.3,8.56" style="fill:none;stroke:#999;stroke-width:3" />
<path d="M998.24,29.39c3.67,0.66,7.31,0.45,11.02,0.1c16.99-1.61,32.38-3.16,52.61-4.26c4.14-0.23,8.2-0.24,12.22,0.66" style="fill:none;stroke:#999;stroke-width:3" />
<path d="M1006.0,38.46c0.77,0.77,1,2.23,1,3.66c0,5.88-0.06,19.91-0.1,28.51c-0.01,3.2-0.02,5.65-0.02,6.62" style="fill:none;stroke:#999;stroke-width:3" />
<path d="M1007.86,39.49c1.54-0.11,13.06-1.65,17.89-2.26c3.97-0.51,4.68,0.5,4.68,4.28c0,6.12-0.05,20.66-0.05,29.49c0,9.17-5.93,2.43-6.55,1.77" style="fill:none;stroke:#999;stroke-width:3" />
<path d="M1007.61,50.63c6.37-0.79,16.03-1.73,21.62-2.12" style="fill:none;stroke:#999;stroke-width:3" />
<path d="M1007.58,61.55c4.97-0.4,16.1-2.08,21.84-2.35" style="fill:none;stroke:#999;stroke-width:3" />
<path d="M1045.26,37.97c0.88,0.88,1.23,2.28,1.23,3.73c0,4.18-0.1,15.8-0.1,23.1" style="fill:none;stroke:#999;stroke-width:3" />
<path d="M1063.56,33.66c1.02,1.02,1.15,1.97,1.15,3.27c0,3.95,0.02,28.99,0.02,32.83c0,6.25-5.36,0.84-6.73-0.13" style="fill:none;stroke:#999;stroke-width:3" />
<path d="M1002.5,84c-0.88,5.62-4.88,11.25-7.5,14" style="fill:none;stroke:black;stroke-width:3" />
<circle cx="1002.5" cy="84.0" r="5" stroke-width="0" fill="#FF2A00" opacity="0.7" />
<path d="M1125.82,13.81c3.33,1.96,8.36,8.06,9.19,11.1" style="fill:none;stroke:#999;stroke-width:3" />
<path d="M1161.4099999999999,13c0,0.75-0.38,1.67-0.62,2.06c-2.05,3.44-3.8,5.56-6.3,8.56" style="fill:none;stroke:#999;stroke-width:3" />
<path d="M1107.24,29.39c3.67,0.66,7.31,0.45,11.02,0.1c16.99-1.61,32.38-3.16,52.61-4.26c4.14-0.23,8.2-0.24,12.22,0.66" style="fill:none;stroke:#999;stroke-width:3" />
<path d="M1115.0,38.46c0.77,0.77,1,2.23,1,3.66c0,5.88-0.06,19.91-0.1,28.51c-0.01,3.2-0.02,5.65-0.02,6.62" style="fill:none;stroke:#999;stroke-width:3" />
<path d="M1116.8600000000001,39.49c1.54-0.11,13.06-1.65,17.89-2.26c3.97-0.51,4.68,0.5,4.68,4.28c0,6.12-0.05,20.66-0.05,29.49c0,9.17-5.93,2.43-6.55,1.77" style="fill:none;stroke:#999;stroke-width:3" />
<path d="M1116.6100000000001,50.63c6.37-0.79,16.03-1.73,21.62-2.12" style="fill:none;stroke:#999;stroke-width:3" />
<path d="M1116.58,61.55c4.97-0.4,16.1-2.08,21.84-2.35" style="fill:none;stroke:#999;stroke-width:3" />
<path d="M1154.26,37.97c0.88,0.88,1.23,2.28,1.23,3.73c0,4.18-0.1,15.8-0.1,23.1" style="fill:none;stroke:#999;stroke-width:3" />
<path d="M1172.56,33.66c1.02,1.02,1.15,1.97,1.15,3.27c0,3.95,0.02,28.99,0.02,32.83c0,6.25-5.36,0.84-6.73-0.13" style="fill:none;stroke:#999;stroke-width:3" />
<path d="M1111.5,84c-0.88,5.62-4.88,11.25-7.5,14" style="fill:none;stroke:#999;stroke-width:3" />
<path d="M1130.77,82.08c3.15,2.76,5.9,10.59,6.69,14.88" style="fill:none;stroke:black;stroke-width:3" />
<circle cx="1130.77" cy="82.08" r="5" stroke-width="0" fill="#FF2A00" opacity="0.7" />
<path d="M1234.82,13.81c3.33,1.96,8.36,8.06,9.19,11.1" style="fill:none;stroke:#999;stroke-width:3" />
<path d="M1270.4099999999999,13c0,0.75-0.38,1.67-0.62,2.06c-2.05,3.44-3.8,5.56-6.3,8.56" style="fill:none;stroke:#999;stroke-width:3" />
<path d="M1216.24,29.39c3.67,0.66,7.31,0.45,11.02,0.1c16.99-1.61,32.38-3.16,52.61-4.26c4.14-0.23,8.2-0.24,12.22,0.66" style="fill:none;stroke:#999;stroke-width:3" />
<path d="M1224.0,38.46c0.77,0.77,1,2.23,1,3.66c0,5.88-0.06,19.91-0.1,28.51c-0.01,3.2-0.02,5.65-0.02,6.62" style="fill:none;stroke:#999;stroke-width:3" />
<path d="M1225.8600000000001,39.49c1.54-0.11,13.06-1.65,17.89-2.26c3.97-0.51,4.68,0.5,4.68,4.28c0,6.12-0.05,20.66-0.05,29.49c0,9.17-5.93,2.43-6.55,1.77" style="fill:none;stroke:#999;stroke-width:3" />
<path d="M1225.6100000000001,50.63c6.37-0.79,16.03-1.73,21.62-2.12" style="fill:none;stroke:#999;stroke-width:3" />
<path d="M1225.58,61.55c4.97-0.4,16.1-2.08,21.84-2.35" style="fill:none;stroke:#999;stroke-width:3" />
<path d="M1263.26,37.97c0.88,0.88,1.23,2.28,1.23,3.73c0,4.18-0.1,15.8-0.1,23.1" style="fill:none;stroke:#999;stroke-width:3" />
<path d="M1281.56,33.66c1.02,1.02,1.15,1.97,1.15,3.27c0,3.95,0.02,28.99,0.02,32.83c0,6.25-5.36,0.84-6.73-0.13" style="fill:none;stroke:#999;stroke-width:3" />
<path d="M1220.5,84c-0.88,5.62-4.88,11.25-7.5,14" style="fill:none;stroke:#999;stroke-width:3" />
<path d="M1239.77,82.08c3.15,2.76,5.9,10.59,6.69,14.88" style="fill:none;stroke:#999;stroke-width:3" />
<path d="M1261.37,81.33c3.15,2.76,7.65,9.84,8.43,14.13" style="fill:none;stroke:black;stroke-width:3" />
<circle cx="1261.37" cy="81.33" r="5" stroke-width="0" fill="#FF2A00" opacity="0.7" />
<path d="M1343.82,13.81c3.33,1.96,8.36,8.06,9.19,11.1" style="fill:none;stroke:#999;stroke-width:3" />
<path d="M1379.4099999999999,13c0,0.75-0.38,1.67-0.62,2.06c-2.05,3.44-3.8,5.56-6.3,8.56" style="fill:none;stroke:#999;stroke-width:3" />
<path d="M1325.24,29.39c3.67,0.66,7.31,0.45,11.02,0.1c16.99-1.61,32.38-3.16,52.61-4.26c4.14-0.23,8.2-0.24,12.22,0.66" style="fill:none;stroke:#999;stroke-width:3" />
<path d="M1333.0,38.46c0.77,0.77,1,2.23,1,3.66c0,5.88-0.06,19.91-0.1,28.51c-0.01,3.2-0.02,5.65-0.02,6.62" style="fill:none;stroke:#999;stroke-width:3" />
<path d="M1334.8600000000001,39.49c1.54-0.11,13.06-1.65,17.89-2.26c3.97-0.51,4.68,0.5,4.68,4.28c0,6.12-0.05,20.66-0.05,29.49c0,9.17-5.93,2.43-6.55,1.77" style="fill:none;stroke:#999;stroke-width:3" />
<path d="M1334.6100000000001,50.63c6.37-0.79,16.03-1.73,21.62-2.12" style="fill:none;stroke:#999;stroke-width:3" />
<path d="M1334.58,61.55c4.97-0.4,16.1-2.08,21.84-2.35" style="fill:none;stroke:#999;stroke-width:3" />
<path d="M1372.26,37.97c0.88,0.88,1.23,2.28,1.23,3.73c0,4.18-0.1,15.8-0.1,23.1" style="fill:none;stroke:#999;stroke-width:3" />
<path d="M1390.56,33.66c1.02,1.02,1.15,1.97,1.15,3.27c0,3.95,0.02,28.99,0.02,32.83c0,6.25-5.36,0.84-6.73-0.13" style="fill:none;stroke:#999;stroke-width:3" />
<path d="M1329.5,84c-0.88,5.62-4.88,11.25-7.5,14" style="fill:none;stroke:#999;stroke-width:3" />
<path d="M1348.77,82.08c3.15,2.76,5.9,10.59,6.69,14.88" style="fill:none;stroke:#999;stroke-width:3" />
<path d="M1370.37,81.33c3.15,2.76,7.65,9.84,8.43,14.13" style="fill:none;stroke:#999;stroke-width:3" />
<path d="M1391.52,81.08c3.9,2.71,10.32,11.41,11.29,15.63" style="fill:none;stroke:black;stroke-width:3" />
<circle cx="1391.52" cy="81.08" r="5" stroke-width="0" fill="#FF2A00" opacity="0.7" />
</svg>