<svg width="1417px" height="109px" viewBox="0 0 1417px 109px" xmlns="http://www.w3.org/2000/svg" xmlns:xlink="http://www.w3.org/1999/xlink" xml:space="preserve" version="1.1"  baseProfile="full">
<line x1="1" y1="1" x2="1416" y2="1" style="stroke:#ddd;stroke-width:2" />
<line x1="1" y1="1" x2="1" y2="108" style="stroke:#ddd;stroke-width:2" />
<line x1="1" y1="108" x2="1416" y2="108" style="stroke:#ddd;stroke-width:2" />
<line x1="1416" y1="1" x2="1416" y2="108" style="stroke:#ddd;stroke-width:2" />
<line x1="109" y1="1" x2="109" y2="108" style="stroke:#ddd;stroke-width:2" />
<line x1="218" y1="1" x2="218" y2="108" style="stroke:#ddd;stroke-width:2" />
<line x1="327" y1="1" x2="327" y2="108" style="stroke:#ddd;stroke-width:2" />
<line x1="436" y1="1" x2="436" y2="108" style="stroke:#ddd;stroke-width:2" />
<line x1="545" y1="1" x2="545" y2="108" style="stroke:#ddd;stroke-width:2" />
<line x1="654" y1="1" x2="654" y2="108" style="stroke:#ddd;stroke-width:2" />
<line x1="763" y1="1" x2="763" y2="108" style="stroke:#ddd;stroke-width:2" />
<line x1="872" y1="1" x2="872" y2="108" style="stroke:#ddd;stroke-width:2" />
<line x1="981" y1="1" x2="981" y2="108" style="stroke:#ddd;stroke-width:2" />
<line x1="1090" y1="1" x2="1090" y2="108" style="stroke:#ddd;stroke-width:2" />
<line x1="1199" y1="1" x2="1199" y2="108" style="stroke:#ddd;stroke-width:2" />
<line x1="1308" y1="1" x2="1308" y2="108" style="stroke:#ddd;stroke-width:2" />
<line x1="1" y1="54" x2="1416" y2="54" style="stroke:#ddd;stroke-width:2;stroke-dasharray:3 3" />
<line x1="55" y1="1" x2="55" y2="108" style="stroke:#ddd;stroke-width:2;stroke-dasharray:3 3" />
<line x1="164" y1="1" x2="164" y2="108" style="stroke:#ddd;stroke-width:2;stroke-dasharray:3 3" />
<line x1="273" y1="1" x2="273" y2="108" style="stroke:#ddd;stroke-width:2;stroke-dasharray:3 3" />
<line x1="382" y1="1" x2="382" y2="108" style="stroke:#ddd;stroke-width:2;stroke-dasharray:3 3" />
<line x1="491" y1="1" x2="491" y2="108" style="stroke:#ddd;stroke-width:2;stroke-dasharray:3 3" />
<line x1="600" y1="1" x2="600" y2="108" style="stroke:#ddd;stroke-width:2;stroke-dasharray:3 3" />
<line x1="709" y1="1" x2="709" y2="108" style="stroke:#ddd;stroke-width:2;stroke-dasharray:3 3" />
<line x1="818" y1="1" x2="818" y2="108" style="stroke:#ddd;stroke-width:2;stroke-dasharray:3 3" />
<line x1="927" y1="1" x2="927" y2="108" style="stroke:#ddd;stroke-width:2;stroke-dasharray:3 3" />
<line x1="1036" y1="1" x2="1036" y2="108" style="stroke:#ddd;stroke-width:2;stroke-dasharray:3 3" />
<line x1="1145" y1="1" x2="1145" y2="108" style="stroke:#ddd;stroke-width:2;stroke-dasharray:3 3" />
<line x1="1254" y1="1" x2="1254" y2="108" style="stroke:#ddd;stroke-width:2;stroke-dasharray:3 3" />
<line x1="1363" y1="1" x2="1363" y2="108" style="stroke:#ddd;stroke-width:2;stroke-dasharray:3 3" />
<path d="M16.25,16.5c0.63,0.29,1.78,0.32,2.41,0.29C23.5,16.5,42.0,15,48.05,14.37c1.04-0.11,2.18,0.14,2.7,0.28" style="fill:none;stroke:black;stroke-width:3" />
<circle cx="16.25" cy="16.5" r="5" stroke-width="0" fill="#FF2A00" opacity="0.7" />
<path d="M125.25,16.5c0.63,0.29,1.78,0.32,2.41,0.29C132.5,16.5,151.0,15,157.05,14.37c1.04-0.11,2.18,0.14,2.7,0.28" style="fill:none;stroke:#999;stroke-width:3" />
<path d="M135.06,25.99c0.44,0.76,1.08,2.23,1.08,3.08c0,9.43-0.47,16.93-0.47,22.7" style="fill:none;stroke:black;stroke-width:3" />
<circle cx="135.06" cy="25.99" r="5" stroke-width="0" fill="#FF2A00" opacity="0.7" />
<path d="M234.25,16.5c0.63,0.29,1.78,0.32,2.41,0.29C241.5,16.5,260.0,15,266.05,14.37c1.04-0.11,2.18,0.14,2.7,0.28" style="fill:none;stroke:#999;stroke-width:3" />
<path d="M244.06,25.99c0.44,0.76,1.08,2.23,1.08,3.08c0,9.43-0.47,16.93-0.47,22.7" style="fill:none;stroke:#999;stroke-width:3" />
<path d="M263.62,44.46c1.31-5.17,2.33-8.19,3.21-11.92c0.21-0.9-0.68-1.97-2.16-1.81C260.61,31.14,259.0,31.5,255.75,32c-1.5,0.23-2.15-0.1-2-2c0.25-3.25,0.76-10.49,0.64-11.02c-0.12-0.53-0.46-1.46-1.04-1.73" style="fill:none;stroke:black;stroke-width:3" />
<circle cx="263.62" cy="44.46" r="5" stroke-width="0" fill="#FF2A00" opacity="0.7" />
<path d="M343.25,16.5c0.63,0.29,1.78,0.32,2.41,0.29C350.5,16.5,369.0,15,375.05,14.37c1.04-0.11,2.18,0.14,2.7,0.28" style="fill:none;stroke:#999;stroke-width:3" />
<path d="M353.06,25.99c0.44,0.76,1.08,2.23,1.08,3.08c0,9.43-0.47,16.93-0.47,22.7" style="fill:none;stroke:#999;stroke-width:3" />
<path d="M372.62,44.46c1.31-5.17,2.33-8.19,3.21-11.92c0.21-0.9-0.68-1.97-2.16-1.81C369.61,31.14,368.0,31.5,364.75,32c-1.5,0.23-2.15-0.1-2-2c0.25-3.25,0.76-10.49,0.64-11.02c-0.12-0.53-0.46-1.46-1.04-1.73" style="fill:none;stroke:#999;stroke-width:3" />
<path d="M362.72,46.95c2.28-0.2,7.78-0.7,11.87-1.03" style="fill:none;stroke:black;stroke-width:3" />
<circle cx="362.72" cy="46.95" r="5" stroke-width="0" fill="#FF2A00" opacity="0.7" />
<path d="M452.25,16.5c0.63,0.29,1.78,0.32,2.41,0.29C459.5,16.5,478.0,15,484.05,14.37c1.04-0.11,2.18,0.14,2.7,0.28" style="fill:none;stroke:#999;stroke-width:3" />
<path d="M462.06,25.99c0.44,0.76,1.08,2.23,1.08,3.08c0,9.43-0.47,16.93-0.47,22.7" style="fill:none;stroke:#999;stroke-width:3" />
<path d="M481.62,44.46c1.31-5.17,2.33-8.19,3.21-11.92c0.21-0.9-0.68-1.97-2.16-1.81C478.61,31.14,477.0,31.5,473.75,32c-1.5,0.23-2.15-0.1-2-2c0.25-3.25,0.76-10.49,0.64-11.02c-0.12-0.53-0.46-1.46-1.04-1.73" style="fill:none;stroke:#999;stroke-width:3" />
<path d="M471.72,46.95c2.28-0.2,7.78-0.7,11.87-1.03" style="fill:none;stroke:#999;stroke-width:3" />
<path d="M470.13,44.75c0.82,0.38,1.31,1.69,1.47,2.44c0.16,0.75,0,12.62-0.16,17.31" style="fill:none;stroke:black;stroke-width:3" />
<circle cx="470.13" cy="44.75" r="5" stroke-width="0" fill="#FF2A00" opacity="0.7" />
<path d="M561.25,16.5c0.63,0.29,1.78,0.32,2.41,0.29C568.5,16.5,587.0,15,593.05,14.37c1.04-0.11,2.18,0.14,2.7,0.28" style="fill:none;stroke:#999;stroke-width:3" />
<path d="M571.06,25.99c0.44,0.76,1.08,2.23,1.08,3.08c0,9.43-0.47,16.93-0.47,22.7" style="fill:none;stroke:#999;stroke-width:3" />
<path d="M590.62,44.46c1.31-5.17,2.33-8.19,3.21-11.92c0.21-0.9-0.68-1.97-2.16-1.81C587.61,31.14,586.0,31.5,582.75,32c-1.5,0.23-2.15-0.1-2-2c0.25-3.25,0.76-10.49,0.64-11.02c-0.12-0.53-0.46-1.46-1.04-1.73" style="fill:none;stroke:#999;stroke-width:3" />
<path d="M580.72,46.95c2.28-0.2,7.78-0.7,11.87-1.03" style="fill:none;stroke:#999;stroke-width:3" />
<path d="M579.13,44.75c0.82,0.38,1.31,1.69,1.47,2.44c0.16,0.75,0,12.62-0.16,17.31" style="fill:none;stroke:#999;stroke-width:3" />
<path d="M563.87,17.25c0,1-0.26,1.75-0.04,2.75c0.22,1-0.4,41-0.4,44.88c0,0.69,1.1,1.99,1.73,1.91C571.75,66,586.0,64.5,595.05,64.37c1.05-0.01,2.18,0.14,2.7,0.28" style="fill:none;stroke:black;stroke-width:3" />
<circle cx="563.87" cy="17.25" r="5" stroke-width="0" fill="#FF2A00" opacity="0.7" />
<path d="M670.25,16.5c0.63,0.29,1.78,0.32,2.41,0.29C677.5,16.5,696.0,15,702.05,14.37c1.04-0.11,2.18,0.14,2.7,0.28" style="fill:none;stroke:#999;stroke-width:3" />
<path d="M680.06,25.99c0.44,0.76,1.08,2.23,1.08,3.08c0,9.43-0.47,16.93-0.47,22.7" style="fill:none;stroke:#999;stroke-width:3" />
<path d="M699.62,44.46c1.31-5.17,2.33-8.19,3.21-11.92c0.21-0.9-0.68-1.97-2.16-1.81C696.61,31.14,695.0,31.5,691.75,32c-1.5,0.23-2.15-0.1-2-2c0.25-3.25,0.76-10.49,0.64-11.02c-0.12-0.53-0.46-1.46-1.04-1.73" style="fill:none;stroke:#999;stroke-width:3" />
<path d="M689.72,46.95c2.28-0.2,7.78-0.7,11.87-1.03" style="fill:none;stroke:#999;stroke-width:3" />
<path d="M688.13,44.75c0.82,0.38,1.31,1.69,1.47,2.44c0.16,0.75,0,12.62-0.16,17.31" style="fill:none;stroke:#999;stroke-width:3" />
<path d="M672.87,17.25c0,1-0.26,1.75-0.04,2.75c0.22,1-0.4,41-0.4,44.88c0,0.69,1.1,1.99,1.73,1.91C680.75,66,695.0,64.5,704.05,64.37c1.05-0.01,2.18,0.14,2.7,0.28" style="fill:none;stroke:#999;stroke-width:3" />
<path d="M711.5,14.49c1.19,0.89,2.19,0.71,3.95,0.6c5.55-0.34,22.23-1.63,23.32-1.61C741.0,13.5,742.25,15,741.8199999999999,16.76c-0.17,0.68-3.11,12.36-4.11,18.96" style="fill:none;stroke:black;stroke-width:3" />
<circle cx="711.5" cy="14.49" r="5" stroke-width="0" fill="#FF2A00" opacity="0.7" />
<path d="M779.25,16.5c0.63,0.29,1.78,0.32,2.41,0.29C786.5,16.5,805.0,15,811.05,14.37c1.04-0.11,2.18,0.14,2.7,0.28" style="fill:none;stroke:#999;stroke-width:3" />
<path d="M789.06,25.99c0.44,0.76,1.08,2.23,1.08,3.08c0,9.43-0.47,16.93-0.47,22.7" style="fill:none;stroke:#999;stroke-width:3" />
<path d="M808.62,44.46c1.31-5.17,2.33-8.19,3.21-11.92c0.21-0.9-0.68-1.97-2.16-1.81C805.61,31.14,804.0,31.5,800.75,32c-1.5,0.23-2.15-0.1-2-2c0.25-3.25,0.76-10.49,0.64-11.02c-0.12-0.53-0.46-1.46-1.04-1.73" style="fill:none;stroke:#999;stroke-width:3" />
<path d="M798.72,46.95c2.28-0.2,7.78-0.7,11.87-1.03" style="fill:none;stroke:#999;stroke-width:3" />
<path d="M797.13,44.75c0.82,0.38,1.31,1.69,1.47,2.44c0.16,0.75,0,12.62-0.16,17.31" style="fill:none;stroke:#999;stroke-width:3" />
<path d="M781.87,17.25c0,1-0.26,1.75-0.04,2.75c0.22,1-0.4,41-0.4,44.88c0,0.69,1.1,1.99,1.73,1.91C789.75,66,804.0,64.5,813.05,64.37c1.05-0.01,2.18,0.14,2.7,0.28" style="fill:none;stroke:#999;stroke-width:3" />
<path d="M820.5,14.49c1.19,0.89,2.19,0.71,3.95,0.6c5.55-0.34,22.23-1.63,23.32-1.61C850.0,13.5,851.25,15,850.8199999999999,16.76c-0.17,0.68-3.11,12.36-4.11,18.96" style="fill:none;stroke:#999;stroke-width:3" />
<path d="M823.75,37.42c5.5-0.17,12.25-0.92,24.71-1.04" style="fill:none;stroke:black;stroke-width:3" />
<circle cx="823.75" cy="37.42" r="5" stroke-width="0" fill="#FF2A00" opacity="0.7" />
<path d="M888.25,16.5c0.63,0.29,1.78,0.32,2.41,0.29C895.5,16.5,914.0,15,920.05,14.37c1.04-0.11,2.18,0.14,2.7,0.28" style="fill:none;stroke:#999;stroke-width:3" />
<path d="M898.06,25.99c0.44,0.76,1.08,2.23,1.08,3.08c0,9.43-0.47,16.93-0.47,22.7" style="fill:none;stroke:#999;stroke-width:3" />
<path d="M917.62,44.46c1.31-5.17,2.33-8.19,3.21-11.92c0.21-0.9-0.68-1.97-2.16-1.81C914.61,31.14,913.0,31.5,909.75,32c-1.5,0.23-2.15-0.1-2-2c0.25-3.25,0.76-10.49,0.64-11.02c-0.12-0.53-0.46-1.46-1.04-1.73" style="fill:none;stroke:#999;stroke-width:3" />
<path d="M907.72,46.95c2.28-0.2,7.78-0.7,11.87-1.03" style="fill:none;stroke:#999;stroke-width:3" />
<path d="M906.13,44.75c0.82,0.38,1.31,1.69,1.47,2.44c0.16,0.75,0,12.62-0.16,17.31" style="fill:none;stroke:#999;stroke-width:3" />
<path d="M890.87,17.25c0,1-0.26,1.75-0.04,2.75c0.22,1-0.4,41-0.4,44.88c0,0.69,1.1,1.99,1.73,1.91C898.75,66,913.0,64.5,922.05,64.37c1.05-0.01,2.18,0.14,2.7,0.28" style="fill:none;stroke:#999;stroke-width:3" />
<path d="M929.5,14.49c1.19,0.89,2.19,0.71,3.95,0.6c5.55-0.34,22.23-1.63,23.32-1.61C959.0,13.5,960.25,15,959.8199999999999,16.76c-0.17,0.68-3.11,12.36-4.11,18.96" style="fill:none;stroke:#999;stroke-width:3" />
<path d="M932.75,37.42c5.5-0.17,12.25-0.92,24.71-1.04" style="fill:none;stroke:#999;stroke-width:3" />
<path d="M932.36,15.8c-0.02,5.31,0.08,29.49,0.1,34.3c0.04,13.62,2.43,14.15,18.48,14.15c14.81,0,14.88-4.37,14.88-8.91" style="fill:none;stroke:black;stroke-width:3" />
<circle cx="932.36" cy="15.8" r="5" stroke-width="0" fill="#FF2A00" opacity="0.7" />
<path d="M997.25,16.5c0.63,0.29,1.78,0.32,2.41,0.29C1004.5,16.5,1023.0,15,1029.05,14.37c1.04-0.11,2.18,0.14,2.7,0.28" style="fill:none;stroke:#999;stroke-width:3" />
<path d="M1007.06,25.99c0.44,0.76,1.08,2.23,1.08,3.08c0,9.43-0.47,16.93-0.47,22.7" style="fill:none;stroke:#999;stroke-width:3" />
<path d="M1026.62,44.46c1.31-5.17,2.33-8.19,3.21-11.92c0.21-0.9-0.68-1.97-2.16-1.81C1023.61,31.14,1022.0,31.5,1018.75,32c-1.5,0.23-2.15-0.1-2-2c0.25-3.25,0.76-10.49,0.64-11.02c-0.12-0.53-0.46-1.46-1.04-1.73" style="fill:none;stroke:#999;stroke-width:3" />
<path d="M1016.72,46.95c2.28-0.2,7.78-0.7,11.87-1.03" style="fill:none;stroke:#999;stroke-width:3" />
<path d="M1015.13,44.75c0.82,0.38,1.31,1.69,1.47,2.44c0.16,0.75,0,12.62-0.16,17.31" style="fill:none;stroke:#999;stroke-width:3" />
<path d="M999.87,17.25c0,1-0.26,1.75-0.04,2.75c0.22,1-0.4,41-0.4,44.88c0,0.69,1.1,1.99,1.73,1.91C1007.75,66,1022.0,64.5,1031.05,64.37c1.05-0.01,2.18,0.14,2.7,0.28" style="fill:none;stroke:#999;stroke-width:3" />
<path d="M1038.5,14.49c1.19,0.89,2.19,0.71,3.95,0.6c5.55-0.34,22.23-1.63,23.32-1.61C1068.0,13.5,1069.25,15,1068.82,16.76c-0.17,0.68-3.11,12.36-4.11,18.96" style="fill:none;stroke:#999;stroke-width:3" />
<path d="M1041.75,37.42c5.5-0.17,12.25-0.92,24.71-1.04" style="fill:none;stroke:#999;stroke-width:3" />
<path d="M1041.3600000000001,15.8c-0.02,5.31,0.08,29.49,0.1,34.3c0.04,13.62,2.43,14.15,18.48,14.15c14.81,0,14.88-4.37,14.88-8.91" style="fill:none;stroke:#999;stroke-width:3" />
<path d="M1001.75,80c0,6.16-6.15,15.24-7.75,17" style="fill:none;stroke:black;stroke-width:3" />
<circle cx="1001.75" cy="80.0" r="5" stroke-width="0" fill="#FF2A00" opacity="0.7" />
<path d="M1106.25,16.5c0.63,0.29,1.78,0.32,2.41,0.29C1113.5,16.5,1132.0,15,1138.05,14.37c1.04-0.11,2.18,0.14,2.7,0.28" style="fill:none;stroke:#999;stroke-width:3" />
<path d="M1116.06,25.99c0.44,0.76,1.08,2.23,1.08,3.08c0,9.43-0.47,16.93-0.47,22.7" style="fill:none;stroke:#999;stroke-width:3" />
<path d="M1135.62,44.46c1.31-5.17,2.33-8.19,3.21-11.92c0.21-0.9-0.68-1.97-2.16-1.81C1132.6100000000001,31.14,1131.0,31.5,1127.75,32c-1.5,0.23-2.15-0.1-2-2c0.25-3.25,0.76-10.49,0.64-11.02c-0.12-0.53-0.46-1.46-1.04-1.73" style="fill:none;stroke:#999;stroke-width:3" />
<path d="M1125.72,46.95c2.28-0.2,7.78-0.7,11.87-1.03" style="fill:none;stroke:#999;stroke-width:3" />
<path d="M1124.13,44.75c0.82,0.38,1.31,1.69,1.47,2.44c0.16,0.75,0,12.62-0.16,17.31" style="fill:none;stroke:#999;stroke-width:3" />
<path d="M1108.87,17.25c0,1-0.26,1.75-0.04,2.75c0.22,1-0.4,41-0.4,44.88c0,0.69,1.1,1.99,1.73,1.91C1116.75,66,1131.0,64.5,1140.05,64.37c1.05-0.01,2.18,0.14,2.7,0.28" style="fill:none;stroke:#999;stroke-width:3" />
<path d="M1147.5,14.49c1.19,0.89,2.19,0.71,3.95,0.6c5.55-0.34,22.23-1.63,23.32-1.61C1177.0,13.5,1178.25,15,1177.82,16.76c-0.17,0.68-3.11,12.36-4.11,18.96" style="fill:none;stroke:#999;stroke-width:3" />
<path d="M1150.75,37.42c5.5-0.17,12.25-0.92,24.71-1.04" style="fill:none;stroke:#999;stroke-width:3" />
<path d="M1150.3600000000001,15.8c-0.02,5.31,0.08,29.49,0.1,34.3c0.04,13.62,2.43,14.15,18.48,14.15c14.81,0,14.88-4.37,14.88-8.91" style="fill:none;stroke:#999;stroke-width:3" />
<path d="M1110.75,80c0,6.16-6.15,15.24-7.75,17" style="fill:none;stroke:#999;stroke-width:3" />
<path d="M1129.45,77.62c3.24,3.44,5.66,12.85,6,18.16" style="fill:none;stroke:black;stroke-width:3" />
<circle cx="1129.45" cy="77.62" r="5" stroke-width="0" fill="#FF2A00" opacity="0.7" />
<path d="M1215.25,16.5c0.63,0.29,1.78,0.32,2.41,0.29C1222.5,16.5,1241.0,15,1247.05,14.37c1.04-0.11,2.18,0.14,2.7,0.28" style="fill:none;stroke:#999;stroke-width:3" />
<path d="M1225.06,25.99c0.44,0.76,1.08,2.23,1.08,3.08c0,9.43-0.47,16.93-0.47,22.7" style="fill:none;stroke:#999;stroke-width:3" />
<path d="M1244.62,44.46c1.31-5.17,2.33-8.19,3.21-11.92c0.21-0.9-0.68-1.97-2.16-1.81C1241.6100000000001,31.14,1240.0,31.5,1236.75,32c-1.5,0.23-2.15-0.1-2-2c0.25-3.25,0.76-10.49,0.64-11.02c-0.12-0.53-0.46-1.46-1.04-1.73" style="fill:none;stroke:#999;stroke-width:3" />
<path d="M1234.72,46.95c2.28-0.2,7.78-0.7,11.87-1.03" style="fill:none;stroke:#999;stroke-width:3" />
<path d="M1233.13,44.75c0.82,0.38,1.31,1.69,1.47,2.44c0.16,0.75,0,12.62-0.16,17.31" style="fill:none;stroke:#999;stroke-width:3" />
<path d="M1217.87,17.25c0,1-0.26,1.75-0.04,2.75c0.22,1-0.4,41-0.4,44.88c0,0.69,1.1,1.99,1.73,1.91C1225.75,66,1240.0,64.5,1249.05,64.37c1.05-0.01,2.18,0.14,2.7,0.28" style="fill:none;stroke:#999;stroke-width:3" />
<path d="M1256.5,14.49c1.19,0.89,2.19,0.71,3.95,0.6c5.55-0.34,22.23-1.63,23.32-1.61C1286.0,13.5,1287.25,15,1286.82,16.76c-0.17,0.68-3.11,12.36-4.11,18.96" style="fill:none;stroke:#999;stroke-width:3" />
<path d="M1259.75,37.42c5.5-0.17,12.25-0.92,24.71-1.04" style="fill:none;stroke:#999;stroke-width:3" />
<path d="M1259.3600000000001,15.8c-0.02,5.31,0.08,29.49,0.1,34.3c0.04,13.62,2.43,14.15,18.48,14.15c14.81,0,14.88-4.37,14.88-8.91" style="fill:none;stroke:#999;stroke-width:3" />
<path d="M1219.75,80c0,6.16-6.15,15.24-7.75,17" style="fill:none;stroke:#999;stroke-width:3" />
<path d="M1238.45,77.62c3.24,3.44,5.66,12.85,6,18.16" style="fill:none;stroke:#999;stroke-width:3" />
<path d="M1258.52,76.26c3.74,3.18,9.02,13.05,9.41,17.96" style="fill:none;stroke:black;stroke-width:3" />
<circle cx="1258.52" cy="76.26" r="5" stroke-width="0" fill="#FF2A00" opacity="0.7" />
<path d="M1324.25,16.5c0.63,0.29,1.78,0.32,2.41,0.29C1331.5,16.5,1350.0,15,1356.05,14.37c1.04-0.11,2.18,0.14,2.7,0.28" style="fill:none;stroke:#999;stroke-width:3" />
<path d="M1334.06,25.99c0.44,0.76,1.08,2.23,1.08,3.08c0,9.43-0.47,16.93-0.47,22.7" style="fill:none;stroke:#999;stroke-width:3" />
<path d="M1353.62,44.46c1.31-5.17,2.33-8.19,3.21-11.92c0.21-0.9-0.68-1.97-2.16-1.81C1350.6100000000001,31.14,1349.0,31.5,1345.75,32c-1.5,0.23-2.15-0.1-2-2c0.25-3.25,0.76-10.49,0.64-11.02c-0.12-0.53-0.46-1.46-1.04-1.73" style="fill:none;stroke:#999;stroke-width:3" />
<path d="M1343.72,46.95c2.28-0.2,7.78-0.7,11.87-1.03" style="fill:none;stroke:#999;stroke-width:3" />
<path d="M1342.13,44.75c0.82,0.38,1.31,1.69,1.47,2.44c0.16,0.75,0,12.62-0.16,17.31" style="fill:none;stroke:#999;stroke-width:3" />
<path d="M1326.87,17.25c0,1-0.26,1.75-0.04,2.75c0.22,1-0.4,41-0.4,44.88c0,0.69,1.1,1.99,1.73,1.91C1334.75,66,1349.0,64.5,1358.05,64.37c1.05-0.01,2.18,0.14,2.7,0.28" style="fill:none;stroke:#999;stroke-width:3" />
<path d="M1365.5,14.49c1.19,0.89,2.19,0.71,3.95,0.6c5.55-0.34,22.23-1.63,23.32-1.61C1395.0,13.5,1396.25,15,1395.82,16.76c-0.17,0.68-3.11,12.36-4.11,18.96" style="fill:none;stroke:#999;stroke-width:3" />
<path d="M1368.75,37.42c5.5-0.17,12.25-0.92,24.71-1.04" style="fill:none;stroke:#999;stroke-width:3" />
<path d="M1368.3600000000001,15.8c-0.02,5.31,0.08,29.49,0.1,34.3c0.04,13.62,2.43,14.15,18.48,14.15c14.81,0,14.88-4.37,14.88-8.91" style="fill:none;stroke:#999;stroke-width:3" />
<path d="M1328.75,80c0,6.16-6.15,15.24-7.75,17" style="fill:none;stroke:#999;stroke-width:3" />
<path d="M1347.45,77.62c3.24,3.44,5.66,12.85,6,18.16" style="fill:none;stroke:#999;stroke-width:3" />
<path d="M1367.52,76.26c3.74,3.18,9.02,13.05,9.41,17.96" style="fill:none;stroke:#999;stroke-width:3" />
<path d="M1389.27,76.26c4.98,3.41,12.27,13.96,13.01,19.21" style="fill:none;stroke:black;stroke-width:3" />
<circle cx="1389.27" cy="76.26" r="5" stroke-width="0" fill="#FF2A00" opacity="0.7" />
</svg>