<svg width="1526px" height="109px" viewBox="0 0 1526px 109px" xmlns="http://www.w3.org/2000/svg" xmlns:xlink="http://www.w3.org/1999/xlink" xml:space="preserve" version="1.1"  baseProfile="full">
<line x1="1" y1="1" x2="1525" y2="1" style="stroke:#ddd;stroke-width:2" />
<line x1="1" y1="1" x2="1" y2="108" style="stroke:#ddd;stroke-width:2" />
<line x1="1" y1="108" x2="1525" y2="108" style="stroke:#ddd;stroke-width:2" />
<line x1="1525" y1="1" x2="1525" y2="108" style="stroke:#ddd;stroke-width:2" />
<line x1="109" y1="1" x2="109" y2="108" style="stroke:#ddd;stroke-width:2" />
<line x1="218" y1="1" x2="218" y2="108" style="stroke:#ddd;stroke-width:2" />
<line x1="327" y1="1" x2="327" y2="108" style="stroke:#ddd;stroke-width:2" />
<line x1="436" y1="1" x2="436" y2="108" style="stroke:#ddd;stroke-width:2" />
<line x1="545" y1="1" x2="545" y2="108" style="stroke:#ddd;stroke-width:2" />
<line x1="654" y1="1" x2="654" y2="108" style="stroke:#ddd;stroke-width:2" />
<line x1="763" y1="1" x2="763" y2="108" style="stroke:#ddd;stroke-width:2" />
<line x1="872" y1="1" x2="872" y2="108" style="stroke:#ddd;stroke-width:2" />
<line x1="981" y1="1" x2="981" y2="108" style="stroke:#ddd;stroke-width:2" />
<line x1="1090" y1="1" x2="1090" y2="108" style="stroke:#ddd;stroke-width:2" />
<line x1="1199" y1="1" x2="1199" y2="108" style="stroke:#ddd;stroke-width:2" />
<line x1="1308" y1="1" x2="1308" y2="108" style="stroke:#ddd;stroke-width:2" />
<line x1="1417" y1="1" x2="1417" y2="108" style="stroke:#ddd;stroke-width:2" />
<line x1="1" y1="54" x2="1525" y2="54" style="stroke:#ddd;stroke-width:2;stroke-dasharray:3 3" />
<line x1="55" y1="1" x2="55" y2="108" style="stroke:#ddd;stroke-width:2;stroke-dasharray:3 3" />
<line x1="164" y1="1" x2="164" y2="108" style="stroke:#ddd;stroke-width:2;stroke-dasharray:3 3" />
<line x1="273" y1="1" x2="273" y2="108" style="stroke:#ddd;stroke-width:2;stroke-dasharray:3 3" />
<line x1="382" y1="1" x2="382" y2="108" style="stroke:#ddd;stroke-width:2;stroke-dasharray:3 3" />
<line x1="491" y1="1" x2="491" y2="108" style="stroke:#ddd;stroke-width:2;stroke-dasharray:3 3" />
<line x1="600" y1="1" x2="600" y2="108" style="stroke:#ddd;stroke-width:2;stroke-dasharray:3 3" />
<line x1="709" y1="1" x2="709" y2="108" style="stroke:#ddd;stroke-width:2;stroke-dasharray:3 3" />
<line x1="818" y1="1" x2="818" y2="108" style="stroke:#ddd;stroke-width:2;stroke-dasharray:3 3" />
<line x1="927" y1="1" x2="927" y2="108" style="stroke:#ddd;stroke-width:2;stroke-dasharray:3 3" />
<line x1="1036" y1="1" x2="1036" y2="108" style="stroke:#ddd;stroke-width:2;stroke-dasharray:3 3" />
<line x1="1145" y1="1" x2="1145" y2="108" style="stroke:#ddd;stroke-width:2;stroke-dasharray:3 3" />
<line x1="1254" y1="1" x2="1254" y2="108" style="stroke:#ddd;stroke-width:2;stroke-dasharray:3 3" />
<line x1="1363" y1="1" x2="1363" y2="108" style="stroke:#ddd;stroke-width:2;stroke-dasharray:3 3" />
<line x1="1472" y1="1" x2="1472" y2="108" style="stroke:#ddd;stroke-width:2;stroke-dasharray:3 3" />
<path d="M12.99,40.75c1.41,3.52,3.64,12.75,3.59,17" style="fill:none;stroke:black;stroke-width:3" />
<circle cx="12.99" cy="40.75" r="5" stroke-width="0" fill="#FF2A00" opacity="0.7" />
<path d="M121.99,40.75c1.41,3.52,3.64,12.75,3.59,17" style="fill:none;stroke:#999;stroke-width:3" />
<path d="M148.81,33.75c0,1.12-0.44,2.15-1.1,3.24c-0.66,1.1-5.46,7.01-8.84,10.38" style="fill:none;stroke:black;stroke-width:3" />
<circle cx="148.81" cy="33.75" r="5" stroke-width="0" fill="#FF2A00" opacity="0.7" />
<path d="M230.99,40.75c1.41,3.52,3.64,12.75,3.59,17" style="fill:none;stroke:#999;stroke-width:3" />
<path d="M257.81,33.75c0,1.12-0.44,2.15-1.1,3.24c-0.66,1.1-5.46,7.01-8.84,10.38" style="fill:none;stroke:#999;stroke-width:3" />
<path d="M243.5,17.25c0.76,0.75,1.02,2.75,1.03,4c0.19,44.86-1,57.72-14.03,73.25" style="fill:none;stroke:black;stroke-width:3" />
<circle cx="243.5" cy="17.25" r="5" stroke-width="0" fill="#FF2A00" opacity="0.7" />
<path d="M339.99,40.75c1.41,3.52,3.64,12.75,3.59,17" style="fill:none;stroke:#999;stroke-width:3" />
<path d="M366.81,33.75c0,1.12-0.44,2.15-1.1,3.24c-0.66,1.1-5.46,7.01-8.84,10.38" style="fill:none;stroke:#999;stroke-width:3" />
<path d="M352.5,17.25c0.76,0.75,1.02,2.75,1.03,4c0.19,44.86-1,57.72-14.03,73.25" style="fill:none;stroke:#999;stroke-width:3" />
<path d="M354.75,67.75c4.38,3.75,7.93,9.01,9,12.5" style="fill:none;stroke:black;stroke-width:3" />
<circle cx="354.75" cy="67.75" r="5" stroke-width="0" fill="#FF2A00" opacity="0.7" />
<path d="M448.99,40.75c1.41,3.52,3.64,12.75,3.59,17" style="fill:none;stroke:#999;stroke-width:3" />
<path d="M475.81,33.75c0,1.12-0.44,2.15-1.1,3.24c-0.66,1.1-5.46,7.01-8.84,10.38" style="fill:none;stroke:#999;stroke-width:3" />
<path d="M461.5,17.25c0.76,0.75,1.02,2.75,1.03,4c0.19,44.86-1,57.72-14.03,73.25" style="fill:none;stroke:#999;stroke-width:3" />
<path d="M463.75,67.75c4.38,3.75,7.93,9.01,9,12.5" style="fill:none;stroke:#999;stroke-width:3" />
<path d="M482.59000000000003,15.96c2.22,0.36,4.45,0.36,6.68,0.03c8.35-1.24,18.35-2.24,30.73-3.18c2.24-0.19,4.47-0.12,6.7,0.19" style="fill:none;stroke:black;stroke-width:3" />
<circle cx="482.59000000000003" cy="15.96" r="5" stroke-width="0" fill="#FF2A00" opacity="0.7" />
<path d="M557.99,40.75c1.41,3.52,3.64,12.75,3.59,17" style="fill:none;stroke:#999;stroke-width:3" />
<path d="M584.81,33.75c0,1.12-0.44,2.15-1.1,3.24c-0.66,1.1-5.46,7.01-8.84,10.38" style="fill:none;stroke:#999;stroke-width:3" />
<path d="M570.5,17.25c0.76,0.75,1.02,2.75,1.03,4c0.19,44.86-1,57.72-14.03,73.25" style="fill:none;stroke:#999;stroke-width:3" />
<path d="M572.75,67.75c4.38,3.75,7.93,9.01,9,12.5" style="fill:none;stroke:#999;stroke-width:3" />
<path d="M591.59,15.96c2.22,0.36,4.45,0.36,6.68,0.03c8.35-1.24,18.35-2.24,30.73-3.18c2.24-0.19,4.47-0.12,6.7,0.19" style="fill:none;stroke:#999;stroke-width:3" />
<path d="M591.07,30.38c2.57,0.58,5.13,0.66,7.67,0.26c9.43-1.25,25.02-2.94,31.64-3.68c2.51-0.28,4.24,1.23,3.63,3.93c-0.66,2.92-1.71,6.72-2.58,9.38" style="fill:none;stroke:black;stroke-width:3" />
<circle cx="591.07" cy="30.38" r="5" stroke-width="0" fill="#FF2A00" opacity="0.7" />
<path d="M666.99,40.75c1.41,3.52,3.64,12.75,3.59,17" style="fill:none;stroke:#999;stroke-width:3" />
<path d="M693.81,33.75c0,1.12-0.44,2.15-1.1,3.24c-0.66,1.1-5.46,7.01-8.84,10.38" style="fill:none;stroke:#999;stroke-width:3" />
<path d="M679.5,17.25c0.76,0.75,1.02,2.75,1.03,4c0.19,44.86-1,57.72-14.03,73.25" style="fill:none;stroke:#999;stroke-width:3" />
<path d="M681.75,67.75c4.38,3.75,7.93,9.01,9,12.5" style="fill:none;stroke:#999;stroke-width:3" />
<path d="M700.59,15.96c2.22,0.36,4.45,0.36,6.68,0.03c8.35-1.24,18.35-2.24,30.73-3.18c2.24-0.19,4.47-0.12,6.7,0.19" style="fill:none;stroke:#999;stroke-width:3" />
<path d="M700.07,30.38c2.57,0.58,5.13,0.66,7.67,0.26c9.43-1.25,25.02-2.94,31.64-3.68c2.51-0.28,4.24,1.23,3.63,3.93c-0.66,2.92-1.71,6.72-2.58,9.38" style="fill:none;stroke:#999;stroke-width:3" />
<path d="M703.49,45c0.8,0,19.13-2.04,32.13-3.31c2.77-0.27,5.3-0.51,7.37-0.69" style="fill:none;stroke:black;stroke-width:3" />
<circle cx="703.49" cy="45.0" r="5" stroke-width="0" fill="#FF2A00" opacity="0.7" />
<path d="M775.99,40.75c1.41,3.52,3.64,12.75,3.59,17" style="fill:none;stroke:#999;stroke-width:3" />
<path d="M802.81,33.75c0,1.12-0.44,2.15-1.1,3.24c-0.66,1.1-5.46,7.01-8.84,10.38" style="fill:none;stroke:#999;stroke-width:3" />
<path d="M788.5,17.25c0.76,0.75,1.02,2.75,1.03,4c0.19,44.86-1,57.72-14.03,73.25" style="fill:none;stroke:#999;stroke-width:3" />
<path d="M790.75,67.75c4.38,3.75,7.93,9.01,9,12.5" style="fill:none;stroke:#999;stroke-width:3" />
<path d="M809.59,15.96c2.22,0.36,4.45,0.36,6.68,0.03c8.35-1.24,18.35-2.24,30.73-3.18c2.24-0.19,4.47-0.12,6.7,0.19" style="fill:none;stroke:#999;stroke-width:3" />
<path d="M809.07,30.38c2.57,0.58,5.13,0.66,7.67,0.26c9.43-1.25,25.02-2.94,31.64-3.68c2.51-0.28,4.24,1.23,3.63,3.93c-0.66,2.92-1.71,6.72-2.58,9.38" style="fill:none;stroke:#999;stroke-width:3" />
<path d="M812.49,45c0.8,0,19.13-2.04,32.13-3.31c2.77-0.27,5.3-0.51,7.37-0.69" style="fill:none;stroke:#999;stroke-width:3" />
<path d="M810.4,31.18c0.83,0.83,0.99,2.32,0.99,4.13c0,27.73-0.15,47.31-11.65,59.69" style="fill:none;stroke:black;stroke-width:3" />
<circle cx="810.4" cy="31.18" r="5" stroke-width="0" fill="#FF2A00" opacity="0.7" />
<path d="M884.99,40.75c1.41,3.52,3.64,12.75,3.59,17" style="fill:none;stroke:#999;stroke-width:3" />
<path d="M911.81,33.75c0,1.12-0.44,2.15-1.1,3.24c-0.66,1.1-5.46,7.01-8.84,10.38" style="fill:none;stroke:#999;stroke-width:3" />
<path d="M897.5,17.25c0.76,0.75,1.02,2.75,1.03,4c0.19,44.86-1,57.72-14.03,73.25" style="fill:none;stroke:#999;stroke-width:3" />
<path d="M899.75,67.75c4.38,3.75,7.93,9.01,9,12.5" style="fill:none;stroke:#999;stroke-width:3" />
<path d="M918.59,15.96c2.22,0.36,4.45,0.36,6.68,0.03c8.35-1.24,18.35-2.24,30.73-3.18c2.24-0.19,4.47-0.12,6.7,0.19" style="fill:none;stroke:#999;stroke-width:3" />
<path d="M918.07,30.38c2.57,0.58,5.13,0.66,7.67,0.26c9.43-1.25,25.02-2.94,31.64-3.68c2.51-0.28,4.24,1.23,3.63,3.93c-0.66,2.92-1.71,6.72-2.58,9.38" style="fill:none;stroke:#999;stroke-width:3" />
<path d="M921.49,45c0.8,0,19.13-2.04,32.13-3.31c2.77-0.27,5.3-0.51,7.37-0.69" style="fill:none;stroke:#999;stroke-width:3" />
<path d="M919.4,31.18c0.83,0.83,0.99,2.32,0.99,4.13c0,27.73-0.15,47.31-11.65,59.69" style="fill:none;stroke:#999;stroke-width:3" />
<path d="M924.97,56.17c1.52,0.72,3.03,0.63,4.54,0.24c2.68-0.54,6.19-1.2,8.02-1.51c2.69-0.45,3.96,0.94,3.94,3.48c-0.06,5.21-0.08,26.12-0.08,34.5c0,6.94-6.32,0.92-6.89,0.35" style="fill:none;stroke:black;stroke-width:3" />
<circle cx="924.97" cy="56.17" r="5" stroke-width="0" fill="#FF2A00" opacity="0.7" />
<path d="M993.99,40.75c1.41,3.52,3.64,12.75,3.59,17" style="fill:none;stroke:#999;stroke-width:3" />
<path d="M1020.81,33.75c0,1.12-0.44,2.15-1.1,3.24c-0.66,1.1-5.46,7.01-8.84,10.38" style="fill:none;stroke:#999;stroke-width:3" />
<path d="M1006.5,17.25c0.76,0.75,1.02,2.75,1.03,4c0.19,44.86-1,57.72-14.03,73.25" style="fill:none;stroke:#999;stroke-width:3" />
<path d="M1008.75,67.75c4.38,3.75,7.93,9.01,9,12.5" style="fill:none;stroke:#999;stroke-width:3" />
<path d="M1027.5900000000001,15.96c2.22,0.36,4.45,0.36,6.68,0.03c8.35-1.24,18.35-2.24,30.73-3.18c2.24-0.19,4.47-0.12,6.7,0.19" style="fill:none;stroke:#999;stroke-width:3" />
<path d="M1027.0700000000002,30.38c2.57,0.58,5.13,0.66,7.67,0.26c9.43-1.25,25.02-2.94,31.64-3.68c2.51-0.28,4.24,1.23,3.63,3.93c-0.66,2.92-1.71,6.72-2.58,9.38" style="fill:none;stroke:#999;stroke-width:3" />
<path d="M1030.49,45c0.8,0,19.13-2.04,32.13-3.31c2.77-0.27,5.3-0.51,7.37-0.69" style="fill:none;stroke:#999;stroke-width:3" />
<path d="M1028.4,31.18c0.83,0.83,0.99,2.32,0.99,4.13c0,27.73-0.15,47.31-11.65,59.69" style="fill:none;stroke:#999;stroke-width:3" />
<path d="M1033.97,56.17c1.52,0.72,3.03,0.63,4.54,0.24c2.68-0.54,6.19-1.2,8.02-1.51c2.69-0.45,3.96,0.94,3.94,3.48c-0.06,5.21-0.08,26.12-0.08,34.5c0,6.94-6.32,0.92-6.89,0.35" style="fill:none;stroke:#999;stroke-width:3" />
<path d="M1035.35,65.28c2.65,1.24,6.59,5.36,7.26,7.29" style="fill:none;stroke:black;stroke-width:3" />
<circle cx="1035.35" cy="65.28" r="5" stroke-width="0" fill="#FF2A00" opacity="0.7" />
<path d="M1102.99,40.75c1.41,3.52,3.64,12.75,3.59,17" style="fill:none;stroke:#999;stroke-width:3" />
<path d="M1129.81,33.75c0,1.12-0.44,2.15-1.1,3.24c-0.66,1.1-5.46,7.01-8.84,10.38" style="fill:none;stroke:#999;stroke-width:3" />
<path d="M1115.5,17.25c0.76,0.75,1.02,2.75,1.03,4c0.19,44.86-1,57.72-14.03,73.25" style="fill:none;stroke:#999;stroke-width:3" />
<path d="M1117.75,67.75c4.38,3.75,7.93,9.01,9,12.5" style="fill:none;stroke:#999;stroke-width:3" />
<path d="M1136.5900000000001,15.96c2.22,0.36,4.45,0.36,6.68,0.03c8.35-1.24,18.35-2.24,30.73-3.18c2.24-0.19,4.47-0.12,6.7,0.19" style="fill:none;stroke:#999;stroke-width:3" />
<path d="M1136.0700000000002,30.38c2.57,0.58,5.13,0.66,7.67,0.26c9.43-1.25,25.02-2.94,31.64-3.68c2.51-0.28,4.24,1.23,3.63,3.93c-0.66,2.92-1.71,6.72-2.58,9.38" style="fill:none;stroke:#999;stroke-width:3" />
<path d="M1139.49,45c0.8,0,19.13-2.04,32.13-3.31c2.77-0.27,5.3-0.51,7.37-0.69" style="fill:none;stroke:#999;stroke-width:3" />
<path d="M1137.4,31.18c0.83,0.83,0.99,2.32,0.99,4.13c0,27.73-0.15,47.31-11.65,59.69" style="fill:none;stroke:#999;stroke-width:3" />
<path d="M1142.97,56.17c1.52,0.72,3.03,0.63,4.54,0.24c2.68-0.54,6.19-1.2,8.02-1.51c2.69-0.45,3.96,0.94,3.94,3.48c-0.06,5.21-0.08,26.12-0.08,34.5c0,6.94-6.32,0.92-6.89,0.35" style="fill:none;stroke:#999;stroke-width:3" />
<path d="M1144.35,65.28c2.65,1.24,6.59,5.36,7.26,7.29" style="fill:none;stroke:#999;stroke-width:3" />
<path d="M1140.66,86.49c1.47,0.63,2.29,0.69,3.54-0.17c0.74-0.51,6.16-4.54,9.28-6.99" style="fill:none;stroke:black;stroke-width:3" />
<circle cx="1140.66" cy="86.49" r="5" stroke-width="0" fill="#FF2A00" opacity="0.7" />
<path d="M1211.99,40.75c1.41,3.52,3.64,12.75,3.59,17" style="fill:none;stroke:#999;stroke-width:3" />
<path d="M1238.81,33.75c0,1.12-0.44,2.15-1.1,3.24c-0.66,1.1-5.46,7.01-8.84,10.38" style="fill:none;stroke:#999;stroke-width:3" />
<path d="M1224.5,17.25c0.76,0.75,1.02,2.75,1.03,4c0.19,44.86-1,57.72-14.03,73.25" style="fill:none;stroke:#999;stroke-width:3" />
<path d="M1226.75,67.75c4.38,3.75,7.93,9.01,9,12.5" style="fill:none;stroke:#999;stroke-width:3" />
<path d="M1245.5900000000001,15.96c2.22,0.36,4.45,0.36,6.68,0.03c8.35-1.24,18.35-2.24,30.73-3.18c2.24-0.19,4.47-0.12,6.7,0.19" style="fill:none;stroke:#999;stroke-width:3" />
<path d="M1245.0700000000002,30.38c2.57,0.58,5.13,0.66,7.67,0.26c9.43-1.25,25.02-2.94,31.64-3.68c2.51-0.28,4.24,1.23,3.63,3.93c-0.66,2.92-1.71,6.72-2.58,9.38" style="fill:none;stroke:#999;stroke-width:3" />
<path d="M1248.49,45c0.8,0,19.13-2.04,32.13-3.31c2.77-0.27,5.3-0.51,7.37-0.69" style="fill:none;stroke:#999;stroke-width:3" />
<path d="M1246.4,31.18c0.83,0.83,0.99,2.32,0.99,4.13c0,27.73-0.15,47.31-11.65,59.69" style="fill:none;stroke:#999;stroke-width:3" />
<path d="M1251.97,56.17c1.52,0.72,3.03,0.63,4.54,0.24c2.68-0.54,6.19-1.2,8.02-1.51c2.69-0.45,3.96,0.94,3.94,3.48c-0.06,5.21-0.08,26.12-0.08,34.5c0,6.94-6.32,0.92-6.89,0.35" style="fill:none;stroke:#999;stroke-width:3" />
<path d="M1253.35,65.28c2.65,1.24,6.59,5.36,7.26,7.29" style="fill:none;stroke:#999;stroke-width:3" />
<path d="M1249.66,86.49c1.47,0.63,2.29,0.69,3.54-0.17c0.74-0.51,6.16-4.54,9.28-6.99" style="fill:none;stroke:#999;stroke-width:3" />
<path d="M1274.49,54.37c1.88,0.78,3.75,0.87,5.61,0.27c2.68-0.54,6.02-1.28,8.14-1.68c4.12-0.78,4.41,1.06,4.41,4.54c0,8.12-0.03,28.23-0.03,35.75c0,6.56-5.99,0.54-6.57-0.02" style="fill:none;stroke:black;stroke-width:3" />
<circle cx="1274.49" cy="54.37" r="5" stroke-width="0" fill="#FF2A00" opacity="0.7" />
<path d="M1320.99,40.75c1.41,3.52,3.64,12.75,3.59,17" style="fill:none;stroke:#999;stroke-width:3" />
<path d="M1347.81,33.75c0,1.12-0.44,2.15-1.1,3.24c-0.66,1.1-5.46,7.01-8.84,10.38" style="fill:none;stroke:#999;stroke-width:3" />
<path d="M1333.5,17.25c0.76,0.75,1.02,2.75,1.03,4c0.19,44.86-1,57.72-14.03,73.25" style="fill:none;stroke:#999;stroke-width:3" />
<path d="M1335.75,67.75c4.38,3.75,7.93,9.01,9,12.5" style="fill:none;stroke:#999;stroke-width:3" />
<path d="M1354.5900000000001,15.96c2.22,0.36,4.45,0.36,6.68,0.03c8.35-1.24,18.35-2.24,30.73-3.18c2.24-0.19,4.47-0.12,6.7,0.19" style="fill:none;stroke:#999;stroke-width:3" />
<path d="M1354.0700000000002,30.38c2.57,0.58,5.13,0.66,7.67,0.26c9.43-1.25,25.02-2.94,31.64-3.68c2.51-0.28,4.24,1.23,3.63,3.93c-0.66,2.92-1.71,6.72-2.58,9.38" style="fill:none;stroke:#999;stroke-width:3" />
<path d="M1357.49,45c0.8,0,19.13-2.04,32.13-3.31c2.77-0.27,5.3-0.51,7.37-0.69" style="fill:none;stroke:#999;stroke-width:3" />
<path d="M1355.4,31.18c0.83,0.83,0.99,2.32,0.99,4.13c0,27.73-0.15,47.31-11.65,59.69" style="fill:none;stroke:#999;stroke-width:3" />
<path d="M1360.97,56.17c1.52,0.72,3.03,0.63,4.54,0.24c2.68-0.54,6.19-1.2,8.02-1.51c2.69-0.45,3.96,0.94,3.94,3.48c-0.06,5.21-0.08,26.12-0.08,34.5c0,6.94-6.32,0.92-6.89,0.35" style="fill:none;stroke:#999;stroke-width:3" />
<path d="M1362.35,65.28c2.65,1.24,6.59,5.36,7.26,7.29" style="fill:none;stroke:#999;stroke-width:3" />
<path d="M1358.66,86.49c1.47,0.63,2.29,0.69,3.54-0.17c0.74-0.51,6.16-4.54,9.28-6.99" style="fill:none;stroke:#999;stroke-width:3" />
<path d="M1383.49,54.37c1.88,0.78,3.75,0.87,5.61,0.27c2.68-0.54,6.02-1.28,8.14-1.68c4.12-0.78,4.41,1.06,4.41,4.54c0,8.12-0.03,28.23-0.03,35.75c0,6.56-5.99,0.54-6.57-0.02" style="fill:none;stroke:#999;stroke-width:3" />
<path d="M1385.88,63.98c2.48,1.16,6.42,5,7.04,6.79" style="fill:none;stroke:black;stroke-width:3" />
<circle cx="1385.88" cy="63.98" r="5" stroke-width="0" fill="#FF2A00" opacity="0.7" />
<path d="M1429.99,40.75c1.41,3.52,3.64,12.75,3.59,17" style="fill:none;stroke:#999;stroke-width:3" />
<path d="M1456.81,33.75c0,1.12-0.44,2.15-1.1,3.24c-0.66,1.1-5.46,7.01-8.84,10.38" style="fill:none;stroke:#999;stroke-width:3" />
<path d="M1442.5,17.25c0.76,0.75,1.02,2.75,1.03,4c0.19,44.86-1,57.72-14.03,73.25" style="fill:none;stroke:#999;stroke-width:3" />
<path d="M1444.75,67.75c4.38,3.75,7.93,9.01,9,12.5" style="fill:none;stroke:#999;stroke-width:3" />
<path d="M1463.5900000000001,15.96c2.22,0.36,4.45,0.36,6.68,0.03c8.35-1.24,18.35-2.24,30.73-3.18c2.24-0.19,4.47-0.12,6.7,0.19" style="fill:none;stroke:#999;stroke-width:3" />
<path d="M1463.0700000000002,30.38c2.57,0.58,5.13,0.66,7.67,0.26c9.43-1.25,25.02-2.94,31.64-3.68c2.51-0.28,4.24,1.23,3.63,3.93c-0.66,2.92-1.71,6.72-2.58,9.38" style="fill:none;stroke:#999;stroke-width:3" />
<path d="M1466.49,45c0.8,0,19.13-2.04,32.13-3.31c2.77-0.27,5.3-0.51,7.37-0.69" style="fill:none;stroke:#999;stroke-width:3" />
<path d="M1464.4,31.18c0.83,0.83,0.99,2.32,0.99,4.13c0,27.73-0.15,47.31-11.65,59.69" style="fill:none;stroke:#999;stroke-width:3" />
<path d="M1469.97,56.17c1.52,0.72,3.03,0.63,4.54,0.24c2.68-0.54,6.19-1.2,8.02-1.51c2.69-0.45,3.96,0.94,3.94,3.48c-0.06,5.21-0.08,26.12-0.08,34.5c0,6.94-6.32,0.92-6.89,0.35" style="fill:none;stroke:#999;stroke-width:3" />
<path d="M1471.35,65.28c2.65,1.24,6.59,5.36,7.26,7.29" style="fill:none;stroke:#999;stroke-width:3" />
<path d="M1467.66,86.49c1.47,0.63,2.29,0.69,3.54-0.17c0.74-0.51,6.16-4.54,9.28-6.99" style="fill:none;stroke:#999;stroke-width:3" />
<path d="M1492.49,54.37c1.88,0.78,3.75,0.87,5.61,0.27c2.68-0.54,6.02-1.28,8.14-1.68c4.12-0.78,4.41,1.06,4.41,4.54c0,8.12-0.03,28.23-0.03,35.75c0,6.56-5.99,0.54-6.57-0.02" style="fill:none;stroke:#999;stroke-width:3" />
<path d="M1494.88,63.98c2.48,1.16,6.42,5,7.04,6.79" style="fill:none;stroke:#999;stroke-width:3" />
<path d="M1492.69,85.03c1.56,0.47,2.75-0.08,3.97-1.08c0.72-0.59,5.84-4.57,9.09-7.67" style="fill:none;stroke:black;stroke-width:3" />
<circle cx="1492.69" cy="85.03" r="5" stroke-width="0" fill="#FF2A00" opacity="0.7" />
</svg>