<svg width="981px" height="109px" viewBox="0 0 981px 109px" xmlns="http://www.w3.org/2000/svg" xmlns:xlink="http://www.w3.org/1999/xlink" xml:space="preserve" version="1.1"  baseProfile="full">
<line x1="1" y1="1" x2="980" y2="1" style="stroke:#ddd;stroke-width:2" />
<line x1="1" y1="1" x2="1" y2="108" style="stroke:#ddd;stroke-width:2" />
<line x1="1" y1="108" x2="980" y2="108" style="stroke:#ddd;stroke-width:2" />
<line x1="980" y1="1" x2="980" y2="108" style="stroke:#ddd;stroke-width:2" />
<line x1="109" y1="1" x2="109" y2="108" style="stroke:#ddd;stroke-width:2" />
<line x1="218" y1="1" x2="218" y2="108" style="stroke:#ddd;stroke-width:2" />
<line x1="327" y1="1" x2="327" y2="108" style="stroke:#ddd;stroke-width:2" />
<line x1="436" y1="1" x2="436" y2="108" style="stroke:#ddd;stroke-width:2" />
<line x1="545" y1="1" x2="545" y2="108" style="stroke:#ddd;stroke-width:2" />
<line x1="654" y1="1" x2="654" y2="108" style="stroke:#ddd;stroke-width:2" />
<line x1="763" y1="1" x2="763" y2="108" style="stroke:#ddd;stroke-width:2" />
<line x1="872" y1="1" x2="872" y2="108" style="stroke:#ddd;stroke-width:2" />
<line x1="1" y1="54" x2="980" y2="54" style="stroke:#ddd;stroke-width:2;stroke-dasharray:3 3" />
<line x1="55" y1="1" x2="55" y2="108" style="stroke:#ddd;stroke-width:2;stroke-dasharray:3 3" />
<line x1="164" y1="1" x2="164" y2="108" style="stroke:#ddd;stroke-width:2;stroke-dasharray:3 3" />
<line x1="273" y1="1" x2="273" y2="108" style="stroke:#ddd;stroke-width:2;stroke-dasharray:3 3" />
<line x1="382" y1="1" x2="382" y2="108" style="stroke:#ddd;stroke-width:2;stroke-dasharray:3 3" />
<line x1="491" y1="1" x2="491" y2="108" style="stroke:#ddd;stroke-width:2;stroke-dasharray:3 3" />
<line x1="600" y1="1" x2="600" y2="108" style="stroke:#ddd;stroke-width:2;stroke-dasharray:3 3" />
<line x1="709" y1="1" x2="709" y2="108" style="stroke:#ddd;stroke-width:2;stroke-dasharray:3 3" />
<line x1="818" y1="1" x2="818" y2="108" style="stroke:#ddd;stroke-width:2;stroke-dasharray:3 3" />
<line x1="927" y1="1" x2="927" y2="108" style="stroke:#ddd;stroke-width:2;stroke-dasharray:3 3" />
<path d="M80.23,13.36c0.08,0.4-0.22,1.61-0.67,2.12c-3.31,3.77-11.09,9.6-26.96,15.32" style="fill:none;stroke:black;stroke-width:3" />
<circle cx="80.23" cy="13.36" r="5" stroke-width="0" fill="#FF2A00" opacity="0.7" />
<path d="M189.23000000000002,13.36c0.08,0.4-0.22,1.61-0.67,2.12c-3.31,3.77-11.09,9.6-26.96,15.32" style="fill:none;stroke:#999;stroke-width:3" />
<path d="M155.66,28.45c1.09,1.05,2.07,2.07,2.07,4.04c0,1.97-0.17,41.44-0.17,44.51c0,3.07,0.17,3.94,2.4,1.75c2.23-2.19,13.06-9.67,14.43-10.98" style="fill:none;stroke:black;stroke-width:3" />
<circle cx="155.66" cy="28.45" r="5" stroke-width="0" fill="#FF2A00" opacity="0.7" />
<path d="M298.23,13.36c0.08,0.4-0.22,1.61-0.67,2.12c-3.31,3.77-11.09,9.6-26.96,15.32" style="fill:none;stroke:#999;stroke-width:3" />
<path d="M264.65999999999997,28.45c1.09,1.05,2.07,2.07,2.07,4.04c0,1.97-0.17,41.44-0.17,44.51c0,3.07,0.17,3.94,2.4,1.75c2.23-2.19,13.06-9.67,14.43-10.98" style="fill:none;stroke:#999;stroke-width:3" />
<path d="M267.03,48.59c0.7,0.14,1.98-0.14,2.67-0.19c15.15-1.16,23.54-2.79,35.61-4.23c1.14-0.14,4.02-0.26,4.6-0.19" style="fill:none;stroke:black;stroke-width:3" />
<circle cx="267.03" cy="48.59" r="5" stroke-width="0" fill="#FF2A00" opacity="0.7" />
<path d="M407.23,13.36c0.08,0.4-0.22,1.61-0.67,2.12c-3.31,3.77-11.09,9.6-26.96,15.32" style="fill:none;stroke:#999;stroke-width:3" />
<path d="M373.65999999999997,28.45c1.09,1.05,2.07,2.07,2.07,4.04c0,1.97-0.17,41.44-0.17,44.51c0,3.07,0.17,3.94,2.4,1.75c2.23-2.19,13.06-9.67,14.43-10.98" style="fill:none;stroke:#999;stroke-width:3" />
<path d="M376.03,48.59c0.7,0.14,1.98-0.14,2.67-0.19c15.15-1.16,23.54-2.79,35.61-4.23c1.14-0.14,4.02-0.26,4.6-0.19" style="fill:none;stroke:#999;stroke-width:3" />
<path d="M394.15,27.57C394.75,28,395.93,30.17,396.0,31c1.5,20.5,5.75,46.75,21.91,62.1c5.48,5.21,4.11-4.07,4.11-6.7" style="fill:none;stroke:black;stroke-width:3" />
<circle cx="394.15" cy="27.57" r="5" stroke-width="0" fill="#FF2A00" opacity="0.7" />
<path d="M516.23,13.36c0.08,0.4-0.22,1.61-0.67,2.12c-3.31,3.77-11.09,9.6-26.96,15.32" style="fill:none;stroke:#999;stroke-width:3" />
<path d="M482.65999999999997,28.45c1.09,1.05,2.07,2.07,2.07,4.04c0,1.97-0.17,41.44-0.17,44.51c0,3.07,0.17,3.94,2.4,1.75c2.23-2.19,13.06-9.67,14.43-10.98" style="fill:none;stroke:#999;stroke-width:3" />
<path d="M485.03,48.59c0.7,0.14,1.98-0.14,2.67-0.19c15.15-1.16,23.54-2.79,35.61-4.23c1.14-0.14,4.02-0.26,4.6-0.19" style="fill:none;stroke:#999;stroke-width:3" />
<path d="M503.15,27.57C503.75,28,504.93,30.17,505.0,31c1.5,20.5,5.75,46.75,21.91,62.1c5.48,5.21,4.11-4.07,4.11-6.7" style="fill:none;stroke:#999;stroke-width:3" />
<path d="M479.25,92.39c0.94,0.38,2.66,0.49,3.6,0.38c5.98-0.66,23.15-3.02,29.61-2.88c1.56,0.03,2.5,0.18,3.29,0.37" style="fill:none;stroke:black;stroke-width:3" />
<circle cx="479.25" cy="92.39" r="5" stroke-width="0" fill="#FF2A00" opacity="0.7" />
<path d="M625.23,13.36c0.08,0.4-0.22,1.61-0.67,2.12c-3.31,3.77-11.09,9.6-26.96,15.32" style="fill:none;stroke:#999;stroke-width:3" />
<path d="M591.66,28.45c1.09,1.05,2.07,2.07,2.07,4.04c0,1.97-0.17,41.44-0.17,44.51c0,3.07,0.17,3.94,2.4,1.75c2.23-2.19,13.06-9.67,14.43-10.98" style="fill:none;stroke:#999;stroke-width:3" />
<path d="M594.03,48.59c0.7,0.14,1.98-0.14,2.67-0.19c15.15-1.16,23.54-2.79,35.61-4.23c1.14-0.14,4.02-0.26,4.6-0.19" style="fill:none;stroke:#999;stroke-width:3" />
<path d="M612.15,27.57C612.75,28,613.9300000000001,30.17,614.0,31c1.5,20.5,5.75,46.75,21.91,62.1c5.48,5.21,4.11-4.07,4.11-6.7" style="fill:none;stroke:#999;stroke-width:3" />
<path d="M588.25,92.39c0.94,0.38,2.66,0.49,3.6,0.38c5.98-0.66,23.15-3.02,29.61-2.88c1.56,0.03,2.5,0.18,3.29,0.37" style="fill:none;stroke:#999;stroke-width:3" />
<path d="M565.28,23.14c0.03,0.66,0.05,1.71-0.05,2.66c-0.61,5.6-4.12,17.89-8.92,25.42" style="fill:none;stroke:black;stroke-width:3" />
<circle cx="565.28" cy="23.14" r="5" stroke-width="0" fill="#FF2A00" opacity="0.7" />
<path d="M734.23,13.36c0.08,0.4-0.22,1.61-0.67,2.12c-3.31,3.77-11.09,9.6-26.96,15.32" style="fill:none;stroke:#999;stroke-width:3" />
<path d="M700.66,28.45c1.09,1.05,2.07,2.07,2.07,4.04c0,1.97-0.17,41.44-0.17,44.51c0,3.07,0.17,3.94,2.4,1.75c2.23-2.19,13.06-9.67,14.43-10.98" style="fill:none;stroke:#999;stroke-width:3" />
<path d="M703.03,48.59c0.7,0.14,1.98-0.14,2.67-0.19c15.15-1.16,23.54-2.79,35.61-4.23c1.14-0.14,4.02-0.26,4.6-0.19" style="fill:none;stroke:#999;stroke-width:3" />
<path d="M721.15,27.57C721.75,28,722.9300000000001,30.17,723.0,31c1.5,20.5,5.75,46.75,21.91,62.1c5.48,5.21,4.11-4.07,4.11-6.7" style="fill:none;stroke:#999;stroke-width:3" />
<path d="M697.25,92.39c0.94,0.38,2.66,0.49,3.6,0.38c5.98-0.66,23.15-3.02,29.61-2.88c1.56,0.03,2.5,0.18,3.29,0.37" style="fill:none;stroke:#999;stroke-width:3" />
<path d="M674.28,23.14c0.03,0.66,0.05,1.71-0.05,2.66c-0.61,5.6-4.12,17.89-8.92,25.42" style="fill:none;stroke:#999;stroke-width:3" />
<path d="M673.75,39.25c1.03,0.07,2.15,0.17,3.28,0.02c7.47-1.02,13.41-2.42,14.47-2.52c1.4-0.13,2.5,0,3.75,0.25" style="fill:none;stroke:black;stroke-width:3" />
<circle cx="673.75" cy="39.25" r="5" stroke-width="0" fill="#FF2A00" opacity="0.7" />
<path d="M843.23,13.36c0.08,0.4-0.22,1.61-0.67,2.12c-3.31,3.77-11.09,9.6-26.96,15.32" style="fill:none;stroke:#999;stroke-width:3" />
<path d="M809.66,28.45c1.09,1.05,2.07,2.07,2.07,4.04c0,1.97-0.17,41.44-0.17,44.51c0,3.07,0.17,3.94,2.4,1.75c2.23-2.19,13.06-9.67,14.43-10.98" style="fill:none;stroke:#999;stroke-width:3" />
<path d="M812.03,48.59c0.7,0.14,1.98-0.14,2.67-0.19c15.15-1.16,23.54-2.79,35.61-4.23c1.14-0.14,4.02-0.26,4.6-0.19" style="fill:none;stroke:#999;stroke-width:3" />
<path d="M830.15,27.57C830.75,28,831.9300000000001,30.17,832.0,31c1.5,20.5,5.75,46.75,21.91,62.1c5.48,5.21,4.11-4.07,4.11-6.7" style="fill:none;stroke:#999;stroke-width:3" />
<path d="M806.25,92.39c0.94,0.38,2.66,0.49,3.6,0.38c5.98-0.66,23.15-3.02,29.61-2.88c1.56,0.03,2.5,0.18,3.29,0.37" style="fill:none;stroke:#999;stroke-width:3" />
<path d="M783.28,23.14c0.03,0.66,0.05,1.71-0.05,2.66c-0.61,5.6-4.12,17.89-8.92,25.42" style="fill:none;stroke:#999;stroke-width:3" />
<path d="M782.75,39.25c1.03,0.07,2.15,0.17,3.28,0.02c7.47-1.02,13.41-2.42,14.47-2.52c1.4-0.13,2.5,0,3.75,0.25" style="fill:none;stroke:#999;stroke-width:3" />
<path d="M791.87,12.25c1.09,0.5,1.74,2.25,1.96,3.25c0.22,1,0,76.75-0.22,83" style="fill:none;stroke:black;stroke-width:3" />
<circle cx="791.87" cy="12.25" r="5" stroke-width="0" fill="#FF2A00" opacity="0.7" />
<path d="M952.23,13.36c0.08,0.4-0.22,1.61-0.67,2.12c-3.31,3.77-11.09,9.6-26.96,15.32" style="fill:none;stroke:#999;stroke-width:3" />
<path d="M918.66,28.45c1.09,1.05,2.07,2.07,2.07,4.04c0,1.97-0.17,41.44-0.17,44.51c0,3.07,0.17,3.94,2.4,1.75c2.23-2.19,13.06-9.67,14.43-10.98" style="fill:none;stroke:#999;stroke-width:3" />
<path d="M921.03,48.59c0.7,0.14,1.98-0.14,2.67-0.19c15.15-1.16,23.54-2.79,35.61-4.23c1.14-0.14,4.02-0.26,4.6-0.19" style="fill:none;stroke:#999;stroke-width:3" />
<path d="M939.15,27.57C939.75,28,940.9300000000001,30.17,941.0,31c1.5,20.5,5.75,46.75,21.91,62.1c5.48,5.21,4.11-4.07,4.11-6.7" style="fill:none;stroke:#999;stroke-width:3" />
<path d="M915.25,92.39c0.94,0.38,2.66,0.49,3.6,0.38c5.98-0.66,23.15-3.02,29.61-2.88c1.56,0.03,2.5,0.18,3.29,0.37" style="fill:none;stroke:#999;stroke-width:3" />
<path d="M892.28,23.14c0.03,0.66,0.05,1.71-0.05,2.66c-0.61,5.6-4.12,17.89-8.92,25.42" style="fill:none;stroke:#999;stroke-width:3" />
<path d="M891.75,39.25c1.03,0.07,2.15,0.17,3.28,0.02c7.47-1.02,13.41-2.42,14.47-2.52c1.4-0.13,2.5,0,3.75,0.25" style="fill:none;stroke:#999;stroke-width:3" />
<path d="M900.87,12.25c1.09,0.5,1.74,2.25,1.96,3.25c0.22,1,0,76.75-0.22,83" style="fill:none;stroke:#999;stroke-width:3" />
<path d="M883.5,67.1c1.86,1.17,3.41,1.16,5.27,0.17c1.1-0.59,19.58-10.19,24.23-13.02" style="fill:none;stroke:black;stroke-width:3" />
<circle cx="883.5" cy="67.1" r="5" stroke-width="0" fill="#FF2A00" opacity="0.7" />
</svg>