<svg width="1308px" height="109px" viewBox="0 0 1308px 109px" xmlns="http://www.w3.org/2000/svg" xmlns:xlink="http://www.w3.org/1999/xlink" xml:space="preserve" version="1.1"  baseProfile="full">
<line x1="1" y1="1" x2="1307" y2="1" style="stroke:#ddd;stroke-width:2" />
<line x1="1" y1="1" x2="1" y2="108" style="stroke:#ddd;stroke-width:2" />
<line x1="1" y1="108" x2="1307" y2="108" style="stroke:#ddd;stroke-width:2" />
<line x1="1307" y1="1" x2="1307" y2="108" style="stroke:#ddd;stroke-width:2" />
<line x1="109" y1="1" x2="109" y2="108" style="stroke:#ddd;stroke-width:2" />
<line x1="218" y1="1" x2="218" y2="108" style="stroke:#ddd;stroke-width:2" />
<line x1="327" y1="1" x2="327" y2="108" style="stroke:#ddd;stroke-width:2" />
<line x1="436" y1="1" x2="436" y2="108" style="stroke:#ddd;stroke-width:2" />
<line x1="545" y1="1" x2="545" y2="108" style="stroke:#ddd;stroke-width:2" />
<line x1="654" y1="1" x2="654" y2="108" style="stroke:#ddd;stroke-width:2" />
<line x1="763" y1="1" x2="763" y2="108" style="stroke:#ddd;stroke-width:2" />
<line x1="872" y1="1" x2="872" y2="108" style="stroke:#ddd;stroke-width:2" />
<line x1="981" y1="1" x2="981" y2="108" style="stroke:#ddd;stroke-width:2" />
<line x1="1090" y1="1" x2="1090" y2="108" style="stroke:#ddd;stroke-width:2" />
<line x1="1199" y1="1" x2="1199" y2="108" style="stroke:#ddd;stroke-width:2" />
<line x1="1" y1="54" x2="1307" y2="54" style="stroke:#ddd;stroke-width:2;stroke-dasharray:3 3" />
<line x1="55" y1="1" x2="55" y2="108" style="stroke:#ddd;stroke-width:2;stroke-dasharray:3 3" />
<line x1="164" y1="1" x2="164" y2="108" style="stroke:#ddd;stroke-width:2;stroke-dasharray:3 3" />
<line x1="273" y1="1" x2="273" y2="108" style="stroke:#ddd;stroke-width:2;stroke-dasharray:3 3" />
<line x1="382" y1="1" x2="382" y2="108" style="stroke:#ddd;stroke-width:2;stroke-dasharray:3 3" />
<line x1="491" y1="1" x2="491" y2="108" style="stroke:#ddd;stroke-width:2;stroke-dasharray:3 3" />
<line x1="600" y1="1" x2="600" y2="108" style="stroke:#ddd;stroke-width:2;stroke-dasharray:3 3" />
<line x1="709" y1="1" x2="709" y2="108" style="stroke:#ddd;stroke-width:2;stroke-dasharray:3 3" />
<line x1="818" y1="1" x2="818" y2="108" style="stroke:#ddd;stroke-width:2;stroke-dasharray:3 3" />
<line x1="927" y1="1" x2="927" y2="108" style="stroke:#ddd;stroke-width:2;stroke-dasharray:3 3" />
<line x1="1036" y1="1" x2="1036" y2="108" style="stroke:#ddd;stroke-width:2;stroke-dasharray:3 3" />
<line x1="1145" y1="1" x2="1145" y2="108" style="stroke:#ddd;stroke-width:2;stroke-dasharray:3 3" />
<line x1="1254" y1="1" x2="1254" y2="108" style="stroke:#ddd;stroke-width:2;stroke-dasharray:3 3" />
<path d="M53.49,9.5c0.88,0.88,1.31,2.12,1.31,3.29c0,1.71,0.07,3.19,0.07,5.08" style="fill:none;stroke:black;stroke-width:3" />
<circle cx="53.49" cy="9.5" r="5" stroke-width="0" fill="#FF2A00" opacity="0.7" />
<path d="M162.49,9.5c0.88,0.88,1.31,2.12,1.31,3.29c0,1.71,0.07,3.19,0.07,5.08" style="fill:none;stroke:#999;stroke-width:3" />
<path d="M134.8,20.59c3.78,0.59,7.5,0.17,11.33-0.18c13.75-1.28,27.38-2.16,39.5-2.68c3.95-0.17,7.78-0.34,11.58,0.61" style="fill:none;stroke:black;stroke-width:3" />
<circle cx="134.8" cy="20.59" r="5" stroke-width="0" fill="#FF2A00" opacity="0.7" />
<path d="M271.49,9.5c0.88,0.88,1.31,2.12,1.31,3.29c0,1.71,0.07,3.19,0.07,5.08" style="fill:none;stroke:#999;stroke-width:3" />
<path d="M243.8,20.59c3.78,0.59,7.5,0.17,11.33-0.18c13.75-1.28,27.38-2.16,39.5-2.68c3.95-0.17,7.78-0.34,11.58,0.61" style="fill:none;stroke:#999;stroke-width:3" />
<path d="M269.22,21.44c0,1.18-0.47,2.18-1.35,3.09c-1.78,1.83-2.74,2.6-4.97,4.57c-1.59,1.41-1.24,2.38,0.43,2.82c3.61,0.94,7.8,2.21,10.17,2.96" style="fill:none;stroke:black;stroke-width:3" />
<circle cx="269.22" cy="21.44" r="5" stroke-width="0" fill="#FF2A00" opacity="0.7" />
<path d="M380.49,9.5c0.88,0.88,1.31,2.12,1.31,3.29c0,1.71,0.07,3.19,0.07,5.08" style="fill:none;stroke:#999;stroke-width:3" />
<path d="M352.8,20.59c3.78,0.59,7.5,0.17,11.33-0.18c13.75-1.28,27.38-2.16,39.5-2.68c3.95-0.17,7.78-0.34,11.58,0.61" style="fill:none;stroke:#999;stroke-width:3" />
<path d="M378.22,21.44c0,1.18-0.47,2.18-1.35,3.09c-1.78,1.83-2.74,2.6-4.97,4.57c-1.59,1.41-1.24,2.38,0.43,2.82c3.61,0.94,7.8,2.21,10.17,2.96" style="fill:none;stroke:#999;stroke-width:3" />
<path d="M395.55,22.69c0,1.44-0.26,2.36-1.39,3.4C388.0,31.75,384.25,34.62,376.0,40.38" style="fill:none;stroke:black;stroke-width:3" />
<circle cx="395.55" cy="22.69" r="5" stroke-width="0" fill="#FF2A00" opacity="0.7" />
<path d="M489.49,9.5c0.88,0.88,1.31,2.12,1.31,3.29c0,1.71,0.07,3.19,0.07,5.08" style="fill:none;stroke:#999;stroke-width:3" />
<path d="M461.8,20.59c3.78,0.59,7.5,0.17,11.33-0.18c13.75-1.28,27.38-2.16,39.5-2.68c3.95-0.17,7.78-0.34,11.58,0.61" style="fill:none;stroke:#999;stroke-width:3" />
<path d="M487.22,21.44c0,1.18-0.47,2.18-1.35,3.09c-1.78,1.83-2.74,2.6-4.97,4.57c-1.59,1.41-1.24,2.38,0.43,2.82c3.61,0.94,7.8,2.21,10.17,2.96" style="fill:none;stroke:#999;stroke-width:3" />
<path d="M504.55,22.69c0,1.44-0.26,2.36-1.39,3.4C497.0,31.75,493.25,34.62,485.0,40.38" style="fill:none;stroke:#999;stroke-width:3" />
<path d="M456.66,39.69c-0.14,3.34-3.48,12.07-4.66,14.06" style="fill:none;stroke:black;stroke-width:3" />
<circle cx="456.66" cy="39.69" r="5" stroke-width="0" fill="#FF2A00" opacity="0.7" />
<path d="M598.49,9.5c0.88,0.88,1.31,2.12,1.31,3.29c0,1.71,0.07,3.19,0.07,5.08" style="fill:none;stroke:#999;stroke-width:3" />
<path d="M570.8,20.59c3.78,0.59,7.5,0.17,11.33-0.18c13.75-1.28,27.38-2.16,39.5-2.68c3.95-0.17,7.78-0.34,11.58,0.61" style="fill:none;stroke:#999;stroke-width:3" />
<path d="M596.22,21.44c0,1.18-0.47,2.18-1.35,3.09c-1.78,1.83-2.74,2.6-4.97,4.57c-1.59,1.41-1.24,2.38,0.43,2.82c3.61,0.94,7.8,2.21,10.17,2.96" style="fill:none;stroke:#999;stroke-width:3" />
<path d="M613.55,22.69c0,1.44-0.26,2.36-1.39,3.4C606.0,31.75,602.25,34.62,594.0,40.38" style="fill:none;stroke:#999;stroke-width:3" />
<path d="M565.6600000000001,39.69c-0.14,3.34-3.48,12.07-4.66,14.06" style="fill:none;stroke:#999;stroke-width:3" />
<path d="M566.0,43.5c19.28-1.5,43.75-4,64.69-4.25C642.75,39.11,634.0,45,629.5,48.75" style="fill:none;stroke:black;stroke-width:3" />
<circle cx="566.0" cy="43.5" r="5" stroke-width="0" fill="#FF2A00" opacity="0.7" />
<path d="M707.49,9.5c0.88,0.88,1.31,2.12,1.31,3.29c0,1.71,0.07,3.19,0.07,5.08" style="fill:none;stroke:#999;stroke-width:3" />
<path d="M679.8,20.59c3.78,0.59,7.5,0.17,11.33-0.18c13.75-1.28,27.38-2.16,39.5-2.68c3.95-0.17,7.78-0.34,11.58,0.61" style="fill:none;stroke:#999;stroke-width:3" />
<path d="M705.22,21.44c0,1.18-0.47,2.18-1.35,3.09c-1.78,1.83-2.74,2.6-4.97,4.57c-1.59,1.41-1.24,2.38,0.43,2.82c3.61,0.94,7.8,2.21,10.17,2.96" style="fill:none;stroke:#999;stroke-width:3" />
<path d="M722.55,22.69c0,1.44-0.26,2.36-1.39,3.4C715.0,31.75,711.25,34.62,703.0,40.38" style="fill:none;stroke:#999;stroke-width:3" />
<path d="M674.6600000000001,39.69c-0.14,3.34-3.48,12.07-4.66,14.06" style="fill:none;stroke:#999;stroke-width:3" />
<path d="M675.0,43.5c19.28-1.5,43.75-4,64.69-4.25C751.75,39.11,743.0,45,738.5,48.75" style="fill:none;stroke:#999;stroke-width:3" />
<path d="M704.3,43.69c0,1.19-0.64,1.85-1.64,2.65c-6.29,5.04-8.91,7.29-12.34,10.14c-2.94,2.45-3.28,2.9,0.92,2.18c9.67-1.65,23.16-4.51,31.12-5.9" style="fill:none;stroke:black;stroke-width:3" />
<circle cx="704.3" cy="43.69" r="5" stroke-width="0" fill="#FF2A00" opacity="0.7" />
<path d="M816.49,9.5c0.88,0.88,1.31,2.12,1.31,3.29c0,1.71,0.07,3.19,0.07,5.08" style="fill:none;stroke:#999;stroke-width:3" />
<path d="M788.8,20.59c3.78,0.59,7.5,0.17,11.33-0.18c13.75-1.28,27.38-2.16,39.5-2.68c3.95-0.17,7.78-0.34,11.58,0.61" style="fill:none;stroke:#999;stroke-width:3" />
<path d="M814.22,21.44c0,1.18-0.47,2.18-1.35,3.09c-1.78,1.83-2.74,2.6-4.97,4.57c-1.59,1.41-1.24,2.38,0.43,2.82c3.61,0.94,7.8,2.21,10.17,2.96" style="fill:none;stroke:#999;stroke-width:3" />
<path d="M831.55,22.69c0,1.44-0.26,2.36-1.39,3.4C824.0,31.75,820.25,34.62,812.0,40.38" style="fill:none;stroke:#999;stroke-width:3" />
<path d="M783.6600000000001,39.69c-0.14,3.34-3.48,12.07-4.66,14.06" style="fill:none;stroke:#999;stroke-width:3" />
<path d="M784.0,43.5c19.28-1.5,43.75-4,64.69-4.25C860.75,39.11,852.0,45,847.5,48.75" style="fill:none;stroke:#999;stroke-width:3" />
<path d="M813.3,43.69c0,1.19-0.64,1.85-1.64,2.65c-6.29,5.04-8.91,7.29-12.34,10.14c-2.94,2.45-3.28,2.9,0.92,2.18c9.67-1.65,23.16-4.51,31.12-5.9" style="fill:none;stroke:#999;stroke-width:3" />
<path d="M826.55,46.22c5.45,3.03,11.57,8.03,14.13,12.9" style="fill:none;stroke:black;stroke-width:3" />
<circle cx="826.55" cy="46.22" r="5" stroke-width="0" fill="#FF2A00" opacity="0.7" />
<path d="M925.49,9.5c0.88,0.88,1.31,2.12,1.31,3.29c0,1.71,0.07,3.19,0.07,5.08" style="fill:none;stroke:#999;stroke-width:3" />
<path d="M897.8,20.59c3.78,0.59,7.5,0.17,11.33-0.18c13.75-1.28,27.38-2.16,39.5-2.68c3.95-0.17,7.78-0.34,11.58,0.61" style="fill:none;stroke:#999;stroke-width:3" />
<path d="M923.22,21.44c0,1.18-0.47,2.18-1.35,3.09c-1.78,1.83-2.74,2.6-4.97,4.57c-1.59,1.41-1.24,2.38,0.43,2.82c3.61,0.94,7.8,2.21,10.17,2.96" style="fill:none;stroke:#999;stroke-width:3" />
<path d="M940.55,22.69c0,1.44-0.26,2.36-1.39,3.4C933.0,31.75,929.25,34.62,921.0,40.38" style="fill:none;stroke:#999;stroke-width:3" />
<path d="M892.6600000000001,39.69c-0.14,3.34-3.48,12.07-4.66,14.06" style="fill:none;stroke:#999;stroke-width:3" />
<path d="M893.0,43.5c19.28-1.5,43.75-4,64.69-4.25C969.75,39.11,961.0,45,956.5,48.75" style="fill:none;stroke:#999;stroke-width:3" />
<path d="M922.3,43.69c0,1.19-0.64,1.85-1.64,2.65c-6.29,5.04-8.91,7.29-12.34,10.14c-2.94,2.45-3.28,2.9,0.92,2.18c9.67-1.65,23.16-4.51,31.12-5.9" style="fill:none;stroke:#999;stroke-width:3" />
<path d="M935.55,46.22c5.45,3.03,11.57,8.03,14.13,12.9" style="fill:none;stroke:#999;stroke-width:3" />
<path d="M909.02,63.21c0.11,0.91-0.04,1.77-0.45,2.57c-2.81,4.72-7.19,8.97-11.88,13.58" style="fill:none;stroke:black;stroke-width:3" />
<circle cx="909.02" cy="63.21" r="5" stroke-width="0" fill="#FF2A00" opacity="0.7" />
<path d="M1034.49,9.5c0.88,0.88,1.31,2.12,1.31,3.29c0,1.71,0.07,3.19,0.07,5.08" style="fill:none;stroke:#999;stroke-width:3" />
<path d="M1006.8,20.59c3.78,0.59,7.5,0.17,11.33-0.18c13.75-1.28,27.38-2.16,39.5-2.68c3.95-0.17,7.78-0.34,11.58,0.61" style="fill:none;stroke:#999;stroke-width:3" />
<path d="M1032.22,21.44c0,1.18-0.47,2.18-1.35,3.09c-1.78,1.83-2.74,2.6-4.97,4.57c-1.59,1.41-1.24,2.38,0.43,2.82c3.61,0.94,7.8,2.21,10.17,2.96" style="fill:none;stroke:#999;stroke-width:3" />
<path d="M1049.55,22.69c0,1.44-0.26,2.36-1.39,3.4C1042.0,31.75,1038.25,34.62,1030.0,40.38" style="fill:none;stroke:#999;stroke-width:3" />
<path d="M1001.6600000000001,39.69c-0.14,3.34-3.48,12.07-4.66,14.06" style="fill:none;stroke:#999;stroke-width:3" />
<path d="M1002.0,43.5c19.28-1.5,43.75-4,64.69-4.25C1078.75,39.11,1070.0,45,1065.5,48.75" style="fill:none;stroke:#999;stroke-width:3" />
<path d="M1031.3,43.69c0,1.19-0.64,1.85-1.64,2.65c-6.29,5.04-8.91,7.29-12.34,10.14c-2.94,2.45-3.28,2.9,0.92,2.18c9.67-1.65,23.16-4.51,31.12-5.9" style="fill:none;stroke:#999;stroke-width:3" />
<path d="M1044.55,46.22c5.45,3.03,11.57,8.03,14.13,12.9" style="fill:none;stroke:#999;stroke-width:3" />
<path d="M1018.02,63.21c0.11,0.91-0.04,1.77-0.45,2.57c-2.81,4.72-7.19,8.97-11.88,13.58" style="fill:none;stroke:#999;stroke-width:3" />
<path d="M1017.42,71.23c2.23,0.29,4.47,0.3,6.7,0.04c9.24-0.58,19.8-1.37,28.48-2.04c2.4-0.38,4.79-0.4,7.19-0.08" style="fill:none;stroke:black;stroke-width:3" />
<circle cx="1017.42" cy="71.23" r="5" stroke-width="0" fill="#FF2A00" opacity="0.7" />
<path d="M1143.49,9.5c0.88,0.88,1.31,2.12,1.31,3.29c0,1.71,0.07,3.19,0.07,5.08" style="fill:none;stroke:#999;stroke-width:3" />
<path d="M1115.8,20.59c3.78,0.59,7.5,0.17,11.33-0.18c13.75-1.28,27.38-2.16,39.5-2.68c3.95-0.17,7.78-0.34,11.58,0.61" style="fill:none;stroke:#999;stroke-width:3" />
<path d="M1141.22,21.44c0,1.18-0.47,2.18-1.35,3.09c-1.78,1.83-2.74,2.6-4.97,4.57c-1.59,1.41-1.24,2.38,0.43,2.82c3.61,0.94,7.8,2.21,10.17,2.96" style="fill:none;stroke:#999;stroke-width:3" />
<path d="M1158.55,22.69c0,1.44-0.26,2.36-1.39,3.4C1151.0,31.75,1147.25,34.62,1139.0,40.38" style="fill:none;stroke:#999;stroke-width:3" />
<path d="M1110.66,39.69c-0.14,3.34-3.48,12.07-4.66,14.06" style="fill:none;stroke:#999;stroke-width:3" />
<path d="M1111.0,43.5c19.28-1.5,43.75-4,64.69-4.25C1187.75,39.11,1179.0,45,1174.5,48.75" style="fill:none;stroke:#999;stroke-width:3" />
<path d="M1140.3,43.69c0,1.19-0.64,1.85-1.64,2.65c-6.29,5.04-8.91,7.29-12.34,10.14c-2.94,2.45-3.28,2.9,0.92,2.18c9.67-1.65,23.16-4.51,31.12-5.9" style="fill:none;stroke:#999;stroke-width:3" />
<path d="M1153.55,46.22c5.45,3.03,11.57,8.03,14.13,12.9" style="fill:none;stroke:#999;stroke-width:3" />
<path d="M1127.02,63.21c0.11,0.91-0.04,1.77-0.45,2.57c-2.81,4.72-7.19,8.97-11.88,13.58" style="fill:none;stroke:#999;stroke-width:3" />
<path d="M1126.42,71.23c2.23,0.29,4.47,0.3,6.7,0.04c9.24-0.58,19.8-1.37,28.48-2.04c2.4-0.38,4.79-0.4,7.19-0.08" style="fill:none;stroke:#999;stroke-width:3" />
<path d="M1105.88,83.67c4.13,0.43,8.25,0.43,12.38,0C1134.09,82.3,1153.89,81.23,1172.0,80.81c4.05-0.23,8.09-0.16,12.13,0.21" style="fill:none;stroke:black;stroke-width:3" />
<circle cx="1105.88" cy="83.67" r="5" stroke-width="0" fill="#FF2A00" opacity="0.7" />
<path d="M1252.49,9.5c0.88,0.88,1.31,2.12,1.31,3.29c0,1.71,0.07,3.19,0.07,5.08" style="fill:none;stroke:#999;stroke-width:3" />
<path d="M1224.8,20.59c3.78,0.59,7.5,0.17,11.33-0.18c13.75-1.28,27.38-2.16,39.5-2.68c3.95-0.17,7.78-0.34,11.58,0.61" style="fill:none;stroke:#999;stroke-width:3" />
<path d="M1250.22,21.44c0,1.18-0.47,2.18-1.35,3.09c-1.78,1.83-2.74,2.6-4.97,4.57c-1.59,1.41-1.24,2.38,0.43,2.82c3.61,0.94,7.8,2.21,10.17,2.96" style="fill:none;stroke:#999;stroke-width:3" />
<path d="M1267.55,22.69c0,1.44-0.26,2.36-1.39,3.4C1260.0,31.75,1256.25,34.62,1248.0,40.38" style="fill:none;stroke:#999;stroke-width:3" />
<path d="M1219.66,39.69c-0.14,3.34-3.48,12.07-4.66,14.06" style="fill:none;stroke:#999;stroke-width:3" />
<path d="M1220.0,43.5c19.28-1.5,43.75-4,64.69-4.25C1296.75,39.11,1288.0,45,1283.5,48.75" style="fill:none;stroke:#999;stroke-width:3" />
<path d="M1249.3,43.69c0,1.19-0.64,1.85-1.64,2.65c-6.29,5.04-8.91,7.29-12.34,10.14c-2.94,2.45-3.28,2.9,0.92,2.18c9.67-1.65,23.16-4.51,31.12-5.9" style="fill:none;stroke:#999;stroke-width:3" />
<path d="M1262.55,46.22c5.45,3.03,11.57,8.03,14.13,12.9" style="fill:none;stroke:#999;stroke-width:3" />
<path d="M1236.02,63.21c0.11,0.91-0.04,1.77-0.45,2.57c-2.81,4.72-7.19,8.97-11.88,13.58" style="fill:none;stroke:#999;stroke-width:3" />
<path d="M1235.42,71.23c2.23,0.29,4.47,0.3,6.7,0.04c9.24-0.58,19.8-1.37,28.48-2.04c2.4-0.38,4.79-0.4,7.19-0.08" style="fill:none;stroke:#999;stroke-width:3" />
<path d="M1214.88,83.67c4.13,0.43,8.25,0.43,12.38,0C1243.09,82.3,1262.89,81.23,1281.0,80.81c4.05-0.23,8.09-0.16,12.13,0.21" style="fill:none;stroke:#999;stroke-width:3" />
<path d="M1252.64,57.63c0.8,0.8,1.15,1.87,1.15,2.77c0,0.4-0.02,20.47-0.03,32.23c0,3.99,0,7.02,0,8" style="fill:none;stroke:black;stroke-width:3" />
<circle cx="1252.64" cy="57.63" r="5" stroke-width="0" fill="#FF2A00" opacity="0.7" />
</svg>