<svg width="1853px" height="109px" viewBox="0 0 1853px 109px" xmlns="http://www.w3.org/2000/svg" xmlns:xlink="http://www.w3.org/1999/xlink" xml:space="preserve" version="1.1"  baseProfile="full">
<line x1="1" y1="1" x2="1852" y2="1" style="stroke:#ddd;stroke-width:2" />
<line x1="1" y1="1" x2="1" y2="108" style="stroke:#ddd;stroke-width:2" />
<line x1="1" y1="108" x2="1852" y2="108" style="stroke:#ddd;stroke-width:2" />
<line x1="1852" y1="1" x2="1852" y2="108" style="stroke:#ddd;stroke-width:2" />
<line x1="109" y1="1" x2="109" y2="108" style="stroke:#ddd;stroke-width:2" />
<line x1="218" y1="1" x2="218" y2="108" style="stroke:#ddd;stroke-width:2" />
<line x1="327" y1="1" x2="327" y2="108" style="stroke:#ddd;stroke-width:2" />
<line x1="436" y1="1" x2="436" y2="108" style="stroke:#ddd;stroke-width:2" />
<line x1="545" y1="1" x2="545" y2="108" style="stroke:#ddd;stroke-width:2" />
<line x1="654" y1="1" x2="654" y2="108" style="stroke:#ddd;stroke-width:2" />
<line x1="763" y1="1" x2="763" y2="108" style="stroke:#ddd;stroke-width:2" />
<line x1="872" y1="1" x2="872" y2="108" style="stroke:#ddd;stroke-width:2" />
<line x1="981" y1="1" x2="981" y2="108" style="stroke:#ddd;stroke-width:2" />
<line x1="1090" y1="1" x2="1090" y2="108" style="stroke:#ddd;stroke-width:2" />
<line x1="1199" y1="1" x2="1199" y2="108" style="stroke:#ddd;stroke-width:2" />
<line x1="1308" y1="1" x2="1308" y2="108" style="stroke:#ddd;stroke-width:2" />
<line x1="1417" y1="1" x2="1417" y2="108" style="stroke:#ddd;stroke-width:2" />
<line x1="1526" y1="1" x2="1526" y2="108" style="stroke:#ddd;stroke-width:2" />
<line x1="1635" y1="1" x2="1635" y2="108" style="stroke:#ddd;stroke-width:2" />
<line x1="1744" y1="1" x2="1744" y2="108" style="stroke:#ddd;stroke-width:2" />
<line x1="1" y1="54" x2="1852" y2="54" style="stroke:#ddd;stroke-width:2;stroke-dasharray:3 3" />
<line x1="55" y1="1" x2="55" y2="108" style="stroke:#ddd;stroke-width:2;stroke-dasharray:3 3" />
<line x1="164" y1="1" x2="164" y2="108" style="stroke:#ddd;stroke-width:2;stroke-dasharray:3 3" />
<line x1="273" y1="1" x2="273" y2="108" style="stroke:#ddd;stroke-width:2;stroke-dasharray:3 3" />
<line x1="382" y1="1" x2="382" y2="108" style="stroke:#ddd;stroke-width:2;stroke-dasharray:3 3" />
<line x1="491" y1="1" x2="491" y2="108" style="stroke:#ddd;stroke-width:2;stroke-dasharray:3 3" />
<line x1="600" y1="1" x2="600" y2="108" style="stroke:#ddd;stroke-width:2;stroke-dasharray:3 3" />
<line x1="709" y1="1" x2="709" y2="108" style="stroke:#ddd;stroke-width:2;stroke-dasharray:3 3" />
<line x1="818" y1="1" x2="818" y2="108" style="stroke:#ddd;stroke-width:2;stroke-dasharray:3 3" />
<line x1="927" y1="1" x2="927" y2="108" style="stroke:#ddd;stroke-width:2;stroke-dasharray:3 3" />
<line x1="1036" y1="1" x2="1036" y2="108" style="stroke:#ddd;stroke-width:2;stroke-dasharray:3 3" />
<line x1="1145" y1="1" x2="1145" y2="108" style="stroke:#ddd;stroke-width:2;stroke-dasharray:3 3" />
<line x1="1254" y1="1" x2="1254" y2="108" style="stroke:#ddd;stroke-width:2;stroke-dasharray:3 3" />
<line x1="1363" y1="1" x2="1363" y2="108" style="stroke:#ddd;stroke-width:2;stroke-dasharray:3 3" />
<line x1="1472" y1="1" x2="1472" y2="108" style="stroke:#ddd;stroke-width:2;stroke-dasharray:3 3" />
<line x1="1581" y1="1" x2="1581" y2="108" style="stroke:#ddd;stroke-width:2;stroke-dasharray:3 3" />
<line x1="1690" y1="1" x2="1690" y2="108" style="stroke:#ddd;stroke-width:2;stroke-dasharray:3 3" />
<line x1="1799" y1="1" x2="1799" y2="108" style="stroke:#ddd;stroke-width:2;stroke-dasharray:3 3" />
<path d="M84.36,12.5c0.06,0.33-0.09,1.38-0.46,1.75c-4.61,4.61-11.08,8.41-23.08,12.13" style="fill:none;stroke:black;stroke-width:3" />
<circle cx="84.36" cy="12.5" r="5" stroke-width="0" fill="#FF2A00" opacity="0.7" />
<path d="M193.36,12.5c0.06,0.33-0.09,1.38-0.46,1.75c-4.61,4.61-11.08,8.41-23.08,12.13" style="fill:none;stroke:#999;stroke-width:3" />
<path d="M165.17000000000002,27.28c0.4,0.8,1.01,2.19,1.11,4.46c1.08,23.59-0.71,51.23-13.72,62.47" style="fill:none;stroke:black;stroke-width:3" />
<circle cx="165.17000000000002" cy="27.28" r="5" stroke-width="0" fill="#FF2A00" opacity="0.7" />
<path d="M302.36,12.5c0.06,0.33-0.09,1.38-0.46,1.75c-4.61,4.61-11.08,8.41-23.08,12.13" style="fill:none;stroke:#999;stroke-width:3" />
<path d="M274.17,27.28c0.4,0.8,1.01,2.19,1.11,4.46c1.08,23.59-0.71,51.23-13.72,62.47" style="fill:none;stroke:#999;stroke-width:3" />
<path d="M286.58,32.26c0.87,0.62,1.56,2.75,1.56,4.01c0,6.44-0.17,37.59-0.17,48.05" style="fill:none;stroke:black;stroke-width:3" />
<circle cx="286.58" cy="32.26" r="5" stroke-width="0" fill="#FF2A00" opacity="0.7" />
<path d="M411.36,12.5c0.06,0.33-0.09,1.38-0.46,1.75c-4.61,4.61-11.08,8.41-23.08,12.13" style="fill:none;stroke:#999;stroke-width:3" />
<path d="M383.17,27.28c0.4,0.8,1.01,2.19,1.11,4.46c1.08,23.59-0.71,51.23-13.72,62.47" style="fill:none;stroke:#999;stroke-width:3" />
<path d="M395.58,32.26c0.87,0.62,1.56,2.75,1.56,4.01c0,6.44-0.17,37.59-0.17,48.05" style="fill:none;stroke:#999;stroke-width:3" />
<path d="M385.09000000000003,88.43c0.62,0.54,1.82,1.58,3.12,1c6.85-3.1,12.02-5.89,19.34-9.33" style="fill:none;stroke:black;stroke-width:3" />
<circle cx="385.09000000000003" cy="88.43" r="5" stroke-width="0" fill="#FF2A00" opacity="0.7" />
<path d="M520.36,12.5c0.06,0.33-0.09,1.38-0.46,1.75c-4.61,4.61-11.08,8.41-23.08,12.13" style="fill:none;stroke:#999;stroke-width:3" />
<path d="M492.17,27.28c0.4,0.8,1.01,2.19,1.11,4.46c1.08,23.59-0.71,51.23-13.72,62.47" style="fill:none;stroke:#999;stroke-width:3" />
<path d="M504.58,32.26c0.87,0.62,1.56,2.75,1.56,4.01c0,6.44-0.17,37.59-0.17,48.05" style="fill:none;stroke:#999;stroke-width:3" />
<path d="M494.09000000000003,88.43c0.62,0.54,1.82,1.58,3.12,1c6.85-3.1,12.02-5.89,19.34-9.33" style="fill:none;stroke:#999;stroke-width:3" />
<path d="M513.22,74.18c2.74,2.49,7.08,10.24,7.77,14.12" style="fill:none;stroke:black;stroke-width:3" />
<circle cx="513.22" cy="74.18" r="5" stroke-width="0" fill="#FF2A00" opacity="0.7" />
<path d="M629.36,12.5c0.06,0.33-0.09,1.38-0.46,1.75c-4.61,4.61-11.08,8.41-23.08,12.13" style="fill:none;stroke:#999;stroke-width:3" />
<path d="M601.1700000000001,27.28c0.4,0.8,1.01,2.19,1.11,4.46c1.08,23.59-0.71,51.23-13.72,62.47" style="fill:none;stroke:#999;stroke-width:3" />
<path d="M613.5799999999999,32.26c0.87,0.62,1.56,2.75,1.56,4.01c0,6.44-0.17,37.59-0.17,48.05" style="fill:none;stroke:#999;stroke-width:3" />
<path d="M603.09,88.43c0.62,0.54,1.82,1.58,3.12,1c6.85-3.1,12.02-5.89,19.34-9.33" style="fill:none;stroke:#999;stroke-width:3" />
<path d="M622.22,74.18c2.74,2.49,7.08,10.24,7.77,14.12" style="fill:none;stroke:#999;stroke-width:3" />
<path d="M623.62,26.67c0.19,0,0.81,0.6,1.03,1.8C627.0,41.58,630.92,69.43,639.0699999999999,85.77c1.24,2.48,2.55,4.02,3.43,4.83" style="fill:none;stroke:black;stroke-width:3" />
<circle cx="623.62" cy="26.67" r="5" stroke-width="0" fill="#FF2A00" opacity="0.7" />
<path d="M738.36,12.5c0.06,0.33-0.09,1.38-0.46,1.75c-4.61,4.61-11.08,8.41-23.08,12.13" style="fill:none;stroke:#999;stroke-width:3" />
<path d="M710.1700000000001,27.28c0.4,0.8,1.01,2.19,1.11,4.46c1.08,23.59-0.71,51.23-13.72,62.47" style="fill:none;stroke:#999;stroke-width:3" />
<path d="M722.5799999999999,32.26c0.87,0.62,1.56,2.75,1.56,4.01c0,6.44-0.17,37.59-0.17,48.05" style="fill:none;stroke:#999;stroke-width:3" />
<path d="M712.09,88.43c0.62,0.54,1.82,1.58,3.12,1c6.85-3.1,12.02-5.89,19.34-9.33" style="fill:none;stroke:#999;stroke-width:3" />
<path d="M731.22,74.18c2.74,2.49,7.08,10.24,7.77,14.12" style="fill:none;stroke:#999;stroke-width:3" />
<path d="M732.62,26.67c0.19,0,0.81,0.6,1.03,1.8C736.0,41.58,739.92,69.43,748.0699999999999,85.77c1.24,2.48,2.55,4.02,3.43,4.83" style="fill:none;stroke:#999;stroke-width:3" />
<path d="M666.96,18.95c0.6,0.36,1.68,0.34,2.29,0.36c5.5,0.19,24.36-3.6,28.04-3.18c0.99,0.11,1.59,0.17,2.09,0.35" style="fill:none;stroke:black;stroke-width:3" />
<circle cx="666.96" cy="18.95" r="5" stroke-width="0" fill="#FF2A00" opacity="0.7" />
<path d="M847.36,12.5c0.06,0.33-0.09,1.38-0.46,1.75c-4.61,4.61-11.08,8.41-23.08,12.13" style="fill:none;stroke:#999;stroke-width:3" />
<path d="M819.1700000000001,27.28c0.4,0.8,1.01,2.19,1.11,4.46c1.08,23.59-0.71,51.23-13.72,62.47" style="fill:none;stroke:#999;stroke-width:3" />
<path d="M831.5799999999999,32.26c0.87,0.62,1.56,2.75,1.56,4.01c0,6.44-0.17,37.59-0.17,48.05" style="fill:none;stroke:#999;stroke-width:3" />
<path d="M821.09,88.43c0.62,0.54,1.82,1.58,3.12,1c6.85-3.1,12.02-5.89,19.34-9.33" style="fill:none;stroke:#999;stroke-width:3" />
<path d="M840.22,74.18c2.74,2.49,7.08,10.24,7.77,14.12" style="fill:none;stroke:#999;stroke-width:3" />
<path d="M841.62,26.67c0.19,0,0.81,0.6,1.03,1.8C845.0,41.58,848.92,69.43,857.0699999999999,85.77c1.24,2.48,2.55,4.02,3.43,4.83" style="fill:none;stroke:#999;stroke-width:3" />
<path d="M775.96,18.95c0.6,0.36,1.68,0.34,2.29,0.36c5.5,0.19,24.36-3.6,28.04-3.18c0.99,0.11,1.59,0.17,2.09,0.35" style="fill:none;stroke:#999;stroke-width:3" />
<path d="M773.63,30.48c0.24,0.25,0.49,0.45,0.59,0.76c0.84,2.44,2.26,9.17,2.83,13.55" style="fill:none;stroke:black;stroke-width:3" />
<circle cx="773.63" cy="30.48" r="5" stroke-width="0" fill="#FF2A00" opacity="0.7" />
<path d="M956.36,12.5c0.06,0.33-0.09,1.38-0.46,1.75c-4.61,4.61-11.08,8.41-23.08,12.13" style="fill:none;stroke:#999;stroke-width:3" />
<path d="M928.1700000000001,27.28c0.4,0.8,1.01,2.19,1.11,4.46c1.08,23.59-0.71,51.23-13.72,62.47" style="fill:none;stroke:#999;stroke-width:3" />
<path d="M940.5799999999999,32.26c0.87,0.62,1.56,2.75,1.56,4.01c0,6.44-0.17,37.59-0.17,48.05" style="fill:none;stroke:#999;stroke-width:3" />
<path d="M930.09,88.43c0.62,0.54,1.82,1.58,3.12,1c6.85-3.1,12.02-5.89,19.34-9.33" style="fill:none;stroke:#999;stroke-width:3" />
<path d="M949.22,74.18c2.74,2.49,7.08,10.24,7.77,14.12" style="fill:none;stroke:#999;stroke-width:3" />
<path d="M950.62,26.67c0.19,0,0.81,0.6,1.03,1.8C954.0,41.58,957.92,69.43,966.0699999999999,85.77c1.24,2.48,2.55,4.02,3.43,4.83" style="fill:none;stroke:#999;stroke-width:3" />
<path d="M884.96,18.95c0.6,0.36,1.68,0.34,2.29,0.36c5.5,0.19,24.36-3.6,28.04-3.18c0.99,0.11,1.59,0.17,2.09,0.35" style="fill:none;stroke:#999;stroke-width:3" />
<path d="M882.63,30.48c0.24,0.25,0.49,0.45,0.59,0.76c0.84,2.44,2.26,9.17,2.83,13.55" style="fill:none;stroke:#999;stroke-width:3" />
<path d="M884.13,31.32c5.92-1.02,31.28-3.91,34.33-4.26c1.12-0.13,1.79,1.27,1.63,2.02c-0.66,3.07-1.71,8.42-3.13,12.85" style="fill:none;stroke:black;stroke-width:3" />
<circle cx="884.13" cy="31.32" r="5" stroke-width="0" fill="#FF2A00" opacity="0.7" />
<path d="M1065.3600000000001,12.5c0.06,0.33-0.09,1.38-0.46,1.75c-4.61,4.61-11.08,8.41-23.08,12.13" style="fill:none;stroke:#999;stroke-width:3" />
<path d="M1037.17,27.28c0.4,0.8,1.01,2.19,1.11,4.46c1.08,23.59-0.71,51.23-13.72,62.47" style="fill:none;stroke:#999;stroke-width:3" />
<path d="M1049.58,32.26c0.87,0.62,1.56,2.75,1.56,4.01c0,6.44-0.17,37.59-0.17,48.05" style="fill:none;stroke:#999;stroke-width:3" />
<path d="M1039.0900000000001,88.43c0.62,0.54,1.82,1.58,3.12,1c6.85-3.1,12.02-5.89,19.34-9.33" style="fill:none;stroke:#999;stroke-width:3" />
<path d="M1058.22,74.18c2.74,2.49,7.08,10.24,7.77,14.12" style="fill:none;stroke:#999;stroke-width:3" />
<path d="M1059.62,26.67c0.19,0,0.81,0.6,1.03,1.8C1063.0,41.58,1066.92,69.43,1075.07,85.77c1.24,2.48,2.55,4.02,3.43,4.83" style="fill:none;stroke:#999;stroke-width:3" />
<path d="M993.96,18.95c0.6,0.36,1.68,0.34,2.29,0.36c5.5,0.19,24.36-3.6,28.04-3.18c0.99,0.11,1.59,0.17,2.09,0.35" style="fill:none;stroke:#999;stroke-width:3" />
<path d="M991.63,30.48c0.24,0.25,0.49,0.45,0.59,0.76c0.84,2.44,2.26,9.17,2.83,13.55" style="fill:none;stroke:#999;stroke-width:3" />
<path d="M993.13,31.32c5.92-1.02,31.28-3.91,34.33-4.26c1.12-0.13,1.79,1.27,1.63,2.02c-0.66,3.07-1.71,8.42-3.13,12.85" style="fill:none;stroke:#999;stroke-width:3" />
<path d="M1003.13,21.61c0.69,0.47,1.15,2.12,1.24,3.08c0.27,2.84,0.9,11.49,1.54,18.12" style="fill:none;stroke:black;stroke-width:3" />
<circle cx="1003.13" cy="21.61" r="5" stroke-width="0" fill="#FF2A00" opacity="0.7" />
<path d="M1174.3600000000001,12.5c0.06,0.33-0.09,1.38-0.46,1.75c-4.61,4.61-11.08,8.41-23.08,12.13" style="fill:none;stroke:#999;stroke-width:3" />
<path d="M1146.17,27.28c0.4,0.8,1.01,2.19,1.11,4.46c1.08,23.59-0.71,51.23-13.72,62.47" style="fill:none;stroke:#999;stroke-width:3" />
<path d="M1158.58,32.26c0.87,0.62,1.56,2.75,1.56,4.01c0,6.44-0.17,37.59-0.17,48.05" style="fill:none;stroke:#999;stroke-width:3" />
<path d="M1148.0900000000001,88.43c0.62,0.54,1.82,1.58,3.12,1c6.85-3.1,12.02-5.89,19.34-9.33" style="fill:none;stroke:#999;stroke-width:3" />
<path d="M1167.22,74.18c2.74,2.49,7.08,10.24,7.77,14.12" style="fill:none;stroke:#999;stroke-width:3" />
<path d="M1168.62,26.67c0.19,0,0.81,0.6,1.03,1.8C1172.0,41.58,1175.92,69.43,1184.07,85.77c1.24,2.48,2.55,4.02,3.43,4.83" style="fill:none;stroke:#999;stroke-width:3" />
<path d="M1102.96,18.95c0.6,0.36,1.68,0.34,2.29,0.36c5.5,0.19,24.36-3.6,28.04-3.18c0.99,0.11,1.59,0.17,2.09,0.35" style="fill:none;stroke:#999;stroke-width:3" />
<path d="M1100.63,30.48c0.24,0.25,0.49,0.45,0.59,0.76c0.84,2.44,2.26,9.17,2.83,13.55" style="fill:none;stroke:#999;stroke-width:3" />
<path d="M1102.13,31.32c5.92-1.02,31.28-3.91,34.33-4.26c1.12-0.13,1.79,1.27,1.63,2.02c-0.66,3.07-1.71,8.42-3.13,12.85" style="fill:none;stroke:#999;stroke-width:3" />
<path d="M1112.13,21.61c0.69,0.47,1.15,2.12,1.24,3.08c0.27,2.84,0.9,11.49,1.54,18.12" style="fill:none;stroke:#999;stroke-width:3" />
<path d="M1124.91,19.79c0.69,0.47,1.04,2.6,0.72,4.73c-0.57,3.81-0.88,8.72-1.86,17.15" style="fill:none;stroke:black;stroke-width:3" />
<circle cx="1124.91" cy="19.79" r="5" stroke-width="0" fill="#FF2A00" opacity="0.7" />
<path d="M1283.3600000000001,12.5c0.06,0.33-0.09,1.38-0.46,1.75c-4.61,4.61-11.08,8.41-23.08,12.13" style="fill:none;stroke:#999;stroke-width:3" />
<path d="M1255.17,27.28c0.4,0.8,1.01,2.19,1.11,4.46c1.08,23.59-0.71,51.23-13.72,62.47" style="fill:none;stroke:#999;stroke-width:3" />
<path d="M1267.58,32.26c0.87,0.62,1.56,2.75,1.56,4.01c0,6.44-0.17,37.59-0.17,48.05" style="fill:none;stroke:#999;stroke-width:3" />
<path d="M1257.0900000000001,88.43c0.62,0.54,1.82,1.58,3.12,1c6.85-3.1,12.02-5.89,19.34-9.33" style="fill:none;stroke:#999;stroke-width:3" />
<path d="M1276.22,74.18c2.74,2.49,7.08,10.24,7.77,14.12" style="fill:none;stroke:#999;stroke-width:3" />
<path d="M1277.62,26.67c0.19,0,0.81,0.6,1.03,1.8C1281.0,41.58,1284.92,69.43,1293.07,85.77c1.24,2.48,2.55,4.02,3.43,4.83" style="fill:none;stroke:#999;stroke-width:3" />
<path d="M1211.96,18.95c0.6,0.36,1.68,0.34,2.29,0.36c5.5,0.19,24.36-3.6,28.04-3.18c0.99,0.11,1.59,0.17,2.09,0.35" style="fill:none;stroke:#999;stroke-width:3" />
<path d="M1209.63,30.48c0.24,0.25,0.49,0.45,0.59,0.76c0.84,2.44,2.26,9.17,2.83,13.55" style="fill:none;stroke:#999;stroke-width:3" />
<path d="M1211.13,31.32c5.92-1.02,31.28-3.91,34.33-4.26c1.12-0.13,1.79,1.27,1.63,2.02c-0.66,3.07-1.71,8.42-3.13,12.85" style="fill:none;stroke:#999;stroke-width:3" />
<path d="M1221.13,21.61c0.69,0.47,1.15,2.12,1.24,3.08c0.27,2.84,0.9,11.49,1.54,18.12" style="fill:none;stroke:#999;stroke-width:3" />
<path d="M1233.91,19.79c0.69,0.47,1.04,2.6,0.72,4.73c-0.57,3.81-0.88,8.72-1.86,17.15" style="fill:none;stroke:#999;stroke-width:3" />
<path d="M1213.56,44.32c3.85-0.48,22.69-2.57,29.98-2.93" style="fill:none;stroke:black;stroke-width:3" />
<circle cx="1213.56" cy="44.32" r="5" stroke-width="0" fill="#FF2A00" opacity="0.7" />
<path d="M1392.3600000000001,12.5c0.06,0.33-0.09,1.38-0.46,1.75c-4.61,4.61-11.08,8.41-23.08,12.13" style="fill:none;stroke:#999;stroke-width:3" />
<path d="M1364.17,27.28c0.4,0.8,1.01,2.19,1.11,4.46c1.08,23.59-0.71,51.23-13.72,62.47" style="fill:none;stroke:#999;stroke-width:3" />
<path d="M1376.58,32.26c0.87,0.62,1.56,2.75,1.56,4.01c0,6.44-0.17,37.59-0.17,48.05" style="fill:none;stroke:#999;stroke-width:3" />
<path d="M1366.0900000000001,88.43c0.62,0.54,1.82,1.58,3.12,1c6.85-3.1,12.02-5.89,19.34-9.33" style="fill:none;stroke:#999;stroke-width:3" />
<path d="M1385.22,74.18c2.74,2.49,7.08,10.24,7.77,14.12" style="fill:none;stroke:#999;stroke-width:3" />
<path d="M1386.62,26.67c0.19,0,0.81,0.6,1.03,1.8C1390.0,41.58,1393.92,69.43,1402.07,85.77c1.24,2.48,2.55,4.02,3.43,4.83" style="fill:none;stroke:#999;stroke-width:3" />
<path d="M1320.96,18.95c0.6,0.36,1.68,0.34,2.29,0.36c5.5,0.19,24.36-3.6,28.04-3.18c0.99,0.11,1.59,0.17,2.09,0.35" style="fill:none;stroke:#999;stroke-width:3" />
<path d="M1318.63,30.48c0.24,0.25,0.49,0.45,0.59,0.76c0.84,2.44,2.26,9.17,2.83,13.55" style="fill:none;stroke:#999;stroke-width:3" />
<path d="M1320.13,31.32c5.92-1.02,31.28-3.91,34.33-4.26c1.12-0.13,1.79,1.27,1.63,2.02c-0.66,3.07-1.71,8.42-3.13,12.85" style="fill:none;stroke:#999;stroke-width:3" />
<path d="M1330.13,21.61c0.69,0.47,1.15,2.12,1.24,3.08c0.27,2.84,0.9,11.49,1.54,18.12" style="fill:none;stroke:#999;stroke-width:3" />
<path d="M1342.91,19.79c0.69,0.47,1.04,2.6,0.72,4.73c-0.57,3.81-0.88,8.72-1.86,17.15" style="fill:none;stroke:#999;stroke-width:3" />
<path d="M1322.56,44.32c3.85-0.48,22.69-2.57,29.98-2.93" style="fill:none;stroke:#999;stroke-width:3" />
<path d="M1323.44,53.26c0.62,0.33,1.76,0.38,2.38,0.33c4.17-0.33,17.75-2.81,22.31-2.89c1.04-0.02,1.66,0.16,2.18,0.32" style="fill:none;stroke:black;stroke-width:3" />
<circle cx="1323.44" cy="53.26" r="5" stroke-width="0" fill="#FF2A00" opacity="0.7" />
<path d="M1501.3600000000001,12.5c0.06,0.33-0.09,1.38-0.46,1.75c-4.61,4.61-11.08,8.41-23.08,12.13" style="fill:none;stroke:#999;stroke-width:3" />
<path d="M1473.17,27.28c0.4,0.8,1.01,2.19,1.11,4.46c1.08,23.59-0.71,51.23-13.72,62.47" style="fill:none;stroke:#999;stroke-width:3" />
<path d="M1485.58,32.26c0.87,0.62,1.56,2.75,1.56,4.01c0,6.44-0.17,37.59-0.17,48.05" style="fill:none;stroke:#999;stroke-width:3" />
<path d="M1475.0900000000001,88.43c0.62,0.54,1.82,1.58,3.12,1c6.85-3.1,12.02-5.89,19.34-9.33" style="fill:none;stroke:#999;stroke-width:3" />
<path d="M1494.22,74.18c2.74,2.49,7.08,10.24,7.77,14.12" style="fill:none;stroke:#999;stroke-width:3" />
<path d="M1495.62,26.67c0.19,0,0.81,0.6,1.03,1.8C1499.0,41.58,1502.92,69.43,1511.07,85.77c1.24,2.48,2.55,4.02,3.43,4.83" style="fill:none;stroke:#999;stroke-width:3" />
<path d="M1429.96,18.95c0.6,0.36,1.68,0.34,2.29,0.36c5.5,0.19,24.36-3.6,28.04-3.18c0.99,0.11,1.59,0.17,2.09,0.35" style="fill:none;stroke:#999;stroke-width:3" />
<path d="M1427.63,30.48c0.24,0.25,0.49,0.45,0.59,0.76c0.84,2.44,2.26,9.17,2.83,13.55" style="fill:none;stroke:#999;stroke-width:3" />
<path d="M1429.13,31.32c5.92-1.02,31.28-3.91,34.33-4.26c1.12-0.13,1.79,1.27,1.63,2.02c-0.66,3.07-1.71,8.42-3.13,12.85" style="fill:none;stroke:#999;stroke-width:3" />
<path d="M1439.13,21.61c0.69,0.47,1.15,2.12,1.24,3.08c0.27,2.84,0.9,11.49,1.54,18.12" style="fill:none;stroke:#999;stroke-width:3" />
<path d="M1451.91,19.79c0.69,0.47,1.04,2.6,0.72,4.73c-0.57,3.81-0.88,8.72-1.86,17.15" style="fill:none;stroke:#999;stroke-width:3" />
<path d="M1431.56,44.32c3.85-0.48,22.69-2.57,29.98-2.93" style="fill:none;stroke:#999;stroke-width:3" />
<path d="M1432.44,53.26c0.62,0.33,1.76,0.38,2.38,0.33c4.17-0.33,17.75-2.81,22.31-2.89c1.04-0.02,1.66,0.16,2.18,0.32" style="fill:none;stroke:#999;stroke-width:3" />
<path d="M1426.11,63.3c0.88,0.47,2.48,0.54,3.35,0.47c6.49-0.57,22.63-3.39,32.11-3.99c1.46-0.09,2.33,0.22,3.06,0.46" style="fill:none;stroke:black;stroke-width:3" />
<circle cx="1426.11" cy="63.3" r="5" stroke-width="0" fill="#FF2A00" opacity="0.7" />
<path d="M1610.3600000000001,12.5c0.06,0.33-0.09,1.38-0.46,1.75c-4.61,4.61-11.08,8.41-23.08,12.13" style="fill:none;stroke:#999;stroke-width:3" />
<path d="M1582.17,27.28c0.4,0.8,1.01,2.19,1.11,4.46c1.08,23.59-0.71,51.23-13.72,62.47" style="fill:none;stroke:#999;stroke-width:3" />
<path d="M1594.58,32.26c0.87,0.62,1.56,2.75,1.56,4.01c0,6.44-0.17,37.59-0.17,48.05" style="fill:none;stroke:#999;stroke-width:3" />
<path d="M1584.0900000000001,88.43c0.62,0.54,1.82,1.58,3.12,1c6.85-3.1,12.02-5.89,19.34-9.33" style="fill:none;stroke:#999;stroke-width:3" />
<path d="M1603.22,74.18c2.74,2.49,7.08,10.24,7.77,14.12" style="fill:none;stroke:#999;stroke-width:3" />
<path d="M1604.62,26.67c0.19,0,0.81,0.6,1.03,1.8C1608.0,41.58,1611.92,69.43,1620.07,85.77c1.24,2.48,2.55,4.02,3.43,4.83" style="fill:none;stroke:#999;stroke-width:3" />
<path d="M1538.96,18.95c0.6,0.36,1.68,0.34,2.29,0.36c5.5,0.19,24.36-3.6,28.04-3.18c0.99,0.11,1.59,0.17,2.09,0.35" style="fill:none;stroke:#999;stroke-width:3" />
<path d="M1536.63,30.48c0.24,0.25,0.49,0.45,0.59,0.76c0.84,2.44,2.26,9.17,2.83,13.55" style="fill:none;stroke:#999;stroke-width:3" />
<path d="M1538.13,31.32c5.92-1.02,31.28-3.91,34.33-4.26c1.12-0.13,1.79,1.27,1.63,2.02c-0.66,3.07-1.71,8.42-3.13,12.85" style="fill:none;stroke:#999;stroke-width:3" />
<path d="M1548.13,21.61c0.69,0.47,1.15,2.12,1.24,3.08c0.27,2.84,0.9,11.49,1.54,18.12" style="fill:none;stroke:#999;stroke-width:3" />
<path d="M1560.91,19.79c0.69,0.47,1.04,2.6,0.72,4.73c-0.57,3.81-0.88,8.72-1.86,17.15" style="fill:none;stroke:#999;stroke-width:3" />
<path d="M1540.56,44.32c3.85-0.48,22.69-2.57,29.98-2.93" style="fill:none;stroke:#999;stroke-width:3" />
<path d="M1541.44,53.26c0.62,0.33,1.76,0.38,2.38,0.33c4.17-0.33,17.75-2.81,22.31-2.89c1.04-0.02,1.66,0.16,2.18,0.32" style="fill:none;stroke:#999;stroke-width:3" />
<path d="M1535.11,63.3c0.88,0.47,2.48,0.54,3.35,0.47c6.49-0.57,22.63-3.39,32.11-3.99c1.46-0.09,2.33,0.22,3.06,0.46" style="fill:none;stroke:#999;stroke-width:3" />
<path d="M1555.47,64.11c0.09,0.45,1.27,2.33,1.27,5.16c0,6.71-0.01,17.04-0.01,21.68c0,6.39-4.6,2.37-6.48,0.27" style="fill:none;stroke:black;stroke-width:3" />
<circle cx="1555.47" cy="64.11" r="5" stroke-width="0" fill="#FF2A00" opacity="0.7" />
<path d="M1719.3600000000001,12.5c0.06,0.33-0.09,1.38-0.46,1.75c-4.61,4.61-11.08,8.41-23.08,12.13" style="fill:none;stroke:#999;stroke-width:3" />
<path d="M1691.17,27.28c0.4,0.8,1.01,2.19,1.11,4.46c1.08,23.59-0.71,51.23-13.72,62.47" style="fill:none;stroke:#999;stroke-width:3" />
<path d="M1703.58,32.26c0.87,0.62,1.56,2.75,1.56,4.01c0,6.44-0.17,37.59-0.17,48.05" style="fill:none;stroke:#999;stroke-width:3" />
<path d="M1693.0900000000001,88.43c0.62,0.54,1.82,1.58,3.12,1c6.85-3.1,12.02-5.89,19.34-9.33" style="fill:none;stroke:#999;stroke-width:3" />
<path d="M1712.22,74.18c2.74,2.49,7.08,10.24,7.77,14.12" style="fill:none;stroke:#999;stroke-width:3" />
<path d="M1713.62,26.67c0.19,0,0.81,0.6,1.03,1.8C1717.0,41.58,1720.92,69.43,1729.07,85.77c1.24,2.48,2.55,4.02,3.43,4.83" style="fill:none;stroke:#999;stroke-width:3" />
<path d="M1647.96,18.95c0.6,0.36,1.68,0.34,2.29,0.36c5.5,0.19,24.36-3.6,28.04-3.18c0.99,0.11,1.59,0.17,2.09,0.35" style="fill:none;stroke:#999;stroke-width:3" />
<path d="M1645.63,30.48c0.24,0.25,0.49,0.45,0.59,0.76c0.84,2.44,2.26,9.17,2.83,13.55" style="fill:none;stroke:#999;stroke-width:3" />
<path d="M1647.13,31.32c5.92-1.02,31.28-3.91,34.33-4.26c1.12-0.13,1.79,1.27,1.63,2.02c-0.66,3.07-1.71,8.42-3.13,12.85" style="fill:none;stroke:#999;stroke-width:3" />
<path d="M1657.13,21.61c0.69,0.47,1.15,2.12,1.24,3.08c0.27,2.84,0.9,11.49,1.54,18.12" style="fill:none;stroke:#999;stroke-width:3" />
<path d="M1669.91,19.79c0.69,0.47,1.04,2.6,0.72,4.73c-0.57,3.81-0.88,8.72-1.86,17.15" style="fill:none;stroke:#999;stroke-width:3" />
<path d="M1649.56,44.32c3.85-0.48,22.69-2.57,29.98-2.93" style="fill:none;stroke:#999;stroke-width:3" />
<path d="M1650.44,53.26c0.62,0.33,1.76,0.38,2.38,0.33c4.17-0.33,17.75-2.81,22.31-2.89c1.04-0.02,1.66,0.16,2.18,0.32" style="fill:none;stroke:#999;stroke-width:3" />
<path d="M1644.11,63.3c0.88,0.47,2.48,0.54,3.35,0.47c6.49-0.57,22.63-3.39,32.11-3.99c1.46-0.09,2.33,0.22,3.06,0.46" style="fill:none;stroke:#999;stroke-width:3" />
<path d="M1664.47,64.11c0.09,0.45,1.27,2.33,1.27,5.16c0,6.71-0.01,17.04-0.01,21.68c0,6.39-4.6,2.37-6.48,0.27" style="fill:none;stroke:#999;stroke-width:3" />
<path d="M1654.66,72.02c0.03,0.47,0.19,1.26-0.05,1.9C1653.0,78.25,1649.76,83.94,1643.13,89.78" style="fill:none;stroke:black;stroke-width:3" />
<circle cx="1654.66" cy="72.02" r="5" stroke-width="0" fill="#FF2A00" opacity="0.7" />
<path d="M1828.3600000000001,12.5c0.06,0.33-0.09,1.38-0.46,1.75c-4.61,4.61-11.08,8.41-23.08,12.13" style="fill:none;stroke:#999;stroke-width:3" />
<path d="M1800.17,27.28c0.4,0.8,1.01,2.19,1.11,4.46c1.08,23.59-0.71,51.23-13.72,62.47" style="fill:none;stroke:#999;stroke-width:3" />
<path d="M1812.58,32.26c0.87,0.62,1.56,2.75,1.56,4.01c0,6.44-0.17,37.59-0.17,48.05" style="fill:none;stroke:#999;stroke-width:3" />
<path d="M1802.0900000000001,88.43c0.62,0.54,1.82,1.58,3.12,1c6.85-3.1,12.02-5.89,19.34-9.33" style="fill:none;stroke:#999;stroke-width:3" />
<path d="M1821.22,74.18c2.74,2.49,7.08,10.24,7.77,14.12" style="fill:none;stroke:#999;stroke-width:3" />
<path d="M1822.62,26.67c0.19,0,0.81,0.6,1.03,1.8C1826.0,41.58,1829.92,69.43,1838.07,85.77c1.24,2.48,2.55,4.02,3.43,4.83" style="fill:none;stroke:#999;stroke-width:3" />
<path d="M1756.96,18.95c0.6,0.36,1.68,0.34,2.29,0.36c5.5,0.19,24.36-3.6,28.04-3.18c0.99,0.11,1.59,0.17,2.09,0.35" style="fill:none;stroke:#999;stroke-width:3" />
<path d="M1754.63,30.48c0.24,0.25,0.49,0.45,0.59,0.76c0.84,2.44,2.26,9.17,2.83,13.55" style="fill:none;stroke:#999;stroke-width:3" />
<path d="M1756.13,31.32c5.92-1.02,31.28-3.91,34.33-4.26c1.12-0.13,1.79,1.27,1.63,2.02c-0.66,3.07-1.71,8.42-3.13,12.85" style="fill:none;stroke:#999;stroke-width:3" />
<path d="M1766.13,21.61c0.69,0.47,1.15,2.12,1.24,3.08c0.27,2.84,0.9,11.49,1.54,18.12" style="fill:none;stroke:#999;stroke-width:3" />
<path d="M1778.91,19.79c0.69,0.47,1.04,2.6,0.72,4.73c-0.57,3.81-0.88,8.72-1.86,17.15" style="fill:none;stroke:#999;stroke-width:3" />
<path d="M1758.56,44.32c3.85-0.48,22.69-2.57,29.98-2.93" style="fill:none;stroke:#999;stroke-width:3" />
<path d="M1759.44,53.26c0.62,0.33,1.76,0.38,2.38,0.33c4.17-0.33,17.75-2.81,22.31-2.89c1.04-0.02,1.66,0.16,2.18,0.32" style="fill:none;stroke:#999;stroke-width:3" />
<path d="M1753.11,63.3c0.88,0.47,2.48,0.54,3.35,0.47c6.49-0.57,22.63-3.39,32.11-3.99c1.46-0.09,2.33,0.22,3.06,0.46" style="fill:none;stroke:#999;stroke-width:3" />
<path d="M1773.47,64.11c0.09,0.45,1.27,2.33,1.27,5.16c0,6.71-0.01,17.04-0.01,21.68c0,6.39-4.6,2.37-6.48,0.27" style="fill:none;stroke:#999;stroke-width:3" />
<path d="M1763.66,72.02c0.03,0.47,0.19,1.26-0.05,1.9C1762.0,78.25,1758.76,83.94,1752.13,89.78" style="fill:none;stroke:#999;stroke-width:3" />
<path d="M1781.8,71.42c2.56,1.81,6.73,7.22,7.37,10.03" style="fill:none;stroke:black;stroke-width:3" />
<circle cx="1781.8" cy="71.42" r="5" stroke-width="0" fill="#FF2A00" opacity="0.7" />
</svg>