<svg width="872px" height="109px" viewBox="0 0 872px 109px" xmlns="http://www.w3.org/2000/svg" xmlns:xlink="http://www.w3.org/1999/xlink" xml:space="preserve" version="1.1"  baseProfile="full">
<line x1="1" y1="1" x2="871" y2="1" style="stroke:#ddd;stroke-width:2" />
<line x1="1" y1="1" x2="1" y2="108" style="stroke:#ddd;stroke-width:2" />
<line x1="1" y1="108" x2="871" y2="108" style="stroke:#ddd;stroke-width:2" />
<line x1="871" y1="1" x2="871" y2="108" style="stroke:#ddd;stroke-width:2" />
<line x1="109" y1="1" x2="109" y2="108" style="stroke:#ddd;stroke-width:2" />
<line x1="218" y1="1" x2="218" y2="108" style="stroke:#ddd;stroke-width:2" />
<line x1="327" y1="1" x2="327" y2="108" style="stroke:#ddd;stroke-width:2" />
<line x1="436" y1="1" x2="436" y2="108" style="stroke:#ddd;stroke-width:2" />
<line x1="545" y1="1" x2="545" y2="108" style="stroke:#ddd;stroke-width:2" />
<line x1="654" y1="1" x2="654" y2="108" style="stroke:#ddd;stroke-width:2" />
<line x1="763" y1="1" x2="763" y2="108" style="stroke:#ddd;stroke-width:2" />
<line x1="1" y1="54" x2="871" y2="54" style="stroke:#ddd;stroke-width:2;stroke-dasharray:3 3" />
<line x1="55" y1="1" x2="55" y2="108" style="stroke:#ddd;stroke-width:2;stroke-dasharray:3 3" />
<line x1="164" y1="1" x2="164" y2="108" style="stroke:#ddd;stroke-width:2;stroke-dasharray:3 3" />
<line x1="273" y1="1" x2="273" y2="108" style="stroke:#ddd;stroke-width:2;stroke-dasharray:3 3" />
<line x1="382" y1="1" x2="382" y2="108" style="stroke:#ddd;stroke-width:2;stroke-dasharray:3 3" />
<line x1="491" y1="1" x2="491" y2="108" style="stroke:#ddd;stroke-width:2;stroke-dasharray:3 3" />
<line x1="600" y1="1" x2="600" y2="108" style="stroke:#ddd;stroke-width:2;stroke-dasharray:3 3" />
<line x1="709" y1="1" x2="709" y2="108" style="stroke:#ddd;stroke-width:2;stroke-dasharray:3 3" />
<line x1="818" y1="1" x2="818" y2="108" style="stroke:#ddd;stroke-width:2;stroke-dasharray:3 3" />
<path d="M12.55,18.25c1.12,0.57,3.17,0.7,4.28,0.57c8.91-1.05,20.32-2.14,27.29-2.39c1.86-0.07,2.98,0.27,3.91,0.56" style="fill:none;stroke:black;stroke-width:3" />
<circle cx="12.55" cy="18.25" r="5" stroke-width="0" fill="#FF2A00" opacity="0.7" />
<path d="M121.55,18.25c1.12,0.57,3.17,0.7,4.28,0.57c8.91-1.05,20.32-2.14,27.29-2.39c1.86-0.07,2.98,0.27,3.91,0.56" style="fill:none;stroke:#999;stroke-width:3" />
<path d="M133.42000000000002,21.25c0.76,0.5,1.45,2.75,1.36,3.75C134.0,33.75,125.5,77.75,123.5,85.98c-0.42,1.74,1.06,2.02,2.52,1.17c5.54-3.23,11.84-6.33,17.49-9.15" style="fill:none;stroke:black;stroke-width:3" />
<circle cx="133.42000000000002" cy="21.25" r="5" stroke-width="0" fill="#FF2A00" opacity="0.7" />
<path d="M230.55,18.25c1.12,0.57,3.17,0.7,4.28,0.57c8.91-1.05,20.32-2.14,27.29-2.39c1.86-0.07,2.98,0.27,3.91,0.56" style="fill:none;stroke:#999;stroke-width:3" />
<path d="M242.42000000000002,21.25c0.76,0.5,1.45,2.75,1.36,3.75C243.0,33.75,234.5,77.75,232.5,85.98c-0.42,1.74,1.06,2.02,2.52,1.17c5.54-3.23,11.84-6.33,17.49-9.15" style="fill:none;stroke:#999;stroke-width:3" />
<path d="M242.24,39.54c0.87,0.21,1.79,0.69,2.64,0.5c2.39-0.54,10.91-2.15,13.27-2.79c1.85-0.5,3.35,1.5,3.16,3.03c-0.57,4.49-2.1,17.23-2.74,30.01C257.5,91.75,259.0,94.32,286.73,94.32c23.52,0,26.75-1.07,26.75-14.04" style="fill:none;stroke:black;stroke-width:3" />
<circle cx="242.24" cy="39.54" r="5" stroke-width="0" fill="#FF2A00" opacity="0.7" />
<path d="M339.55,18.25c1.12,0.57,3.17,0.7,4.28,0.57c8.91-1.05,20.32-2.14,27.29-2.39c1.86-0.07,2.98,0.27,3.91,0.56" style="fill:none;stroke:#999;stroke-width:3" />
<path d="M351.42,21.25c0.76,0.5,1.45,2.75,1.36,3.75C352.0,33.75,343.5,77.75,341.5,85.98c-0.42,1.74,1.06,2.02,2.52,1.17c5.54-3.23,11.84-6.33,17.49-9.15" style="fill:none;stroke:#999;stroke-width:3" />
<path d="M351.24,39.54c0.87,0.21,1.79,0.69,2.64,0.5c2.39-0.54,10.91-2.15,13.27-2.79c1.85-0.5,3.35,1.5,3.16,3.03c-0.57,4.49-2.1,17.23-2.74,30.01C366.5,91.75,368.0,94.32,395.73,94.32c23.52,0,26.75-1.07,26.75-14.04" style="fill:none;stroke:#999;stroke-width:3" />
<path d="M354.1,54.83c2.36,1.92,6.1,7.9,6.69,10.88" style="fill:none;stroke:black;stroke-width:3" />
<circle cx="354.1" cy="54.83" r="5" stroke-width="0" fill="#FF2A00" opacity="0.7" />
<path d="M448.55,18.25c1.12,0.57,3.17,0.7,4.28,0.57c8.91-1.05,20.32-2.14,27.29-2.39c1.86-0.07,2.98,0.27,3.91,0.56" style="fill:none;stroke:#999;stroke-width:3" />
<path d="M460.42,21.25c0.76,0.5,1.45,2.75,1.36,3.75C461.0,33.75,452.5,77.75,450.5,85.98c-0.42,1.74,1.06,2.02,2.52,1.17c5.54-3.23,11.84-6.33,17.49-9.15" style="fill:none;stroke:#999;stroke-width:3" />
<path d="M460.24,39.54c0.87,0.21,1.79,0.69,2.64,0.5c2.39-0.54,10.91-2.15,13.27-2.79c1.85-0.5,3.35,1.5,3.16,3.03c-0.57,4.49-2.1,17.23-2.74,30.01C475.5,91.75,477.0,94.32,504.73,94.32c23.52,0,26.75-1.07,26.75-14.04" style="fill:none;stroke:#999;stroke-width:3" />
<path d="M463.1,54.83c2.36,1.92,6.1,7.9,6.69,10.88" style="fill:none;stroke:#999;stroke-width:3" />
<path d="M501.0,16.74c0.28,0.8-0.06,1.69-0.39,2.68c-2.71,8.15-8.39,17.12-16.05,23.88" style="fill:none;stroke:black;stroke-width:3" />
<circle cx="501.0" cy="16.74" r="5" stroke-width="0" fill="#FF2A00" opacity="0.7" />
<path d="M557.55,18.25c1.12,0.57,3.17,0.7,4.28,0.57c8.91-1.05,20.32-2.14,27.29-2.39c1.86-0.07,2.98,0.27,3.91,0.56" style="fill:none;stroke:#999;stroke-width:3" />
<path d="M569.4200000000001,21.25c0.76,0.5,1.45,2.75,1.36,3.75C570.0,33.75,561.5,77.75,559.5,85.98c-0.42,1.74,1.06,2.02,2.52,1.17c5.54-3.23,11.84-6.33,17.49-9.15" style="fill:none;stroke:#999;stroke-width:3" />
<path d="M569.24,39.54c0.87,0.21,1.79,0.69,2.64,0.5c2.39-0.54,10.91-2.15,13.27-2.79c1.85-0.5,3.35,1.5,3.16,3.03c-0.57,4.49-2.1,17.23-2.74,30.01C584.5,91.75,586.0,94.32,613.73,94.32c23.52,0,26.75-1.07,26.75-14.04" style="fill:none;stroke:#999;stroke-width:3" />
<path d="M572.1,54.83c2.36,1.92,6.1,7.9,6.69,10.88" style="fill:none;stroke:#999;stroke-width:3" />
<path d="M610.0,16.74c0.28,0.8-0.06,1.69-0.39,2.68c-2.71,8.15-8.39,17.12-16.05,23.88" style="fill:none;stroke:#999;stroke-width:3" />
<path d="M619.34,14.25C622.5,15,633.59,34.53,638.96,38.94c2.08,1.71,2.82,2.62,4.83,3.17" style="fill:none;stroke:black;stroke-width:3" />
<circle cx="619.34" cy="14.25" r="5" stroke-width="0" fill="#FF2A00" opacity="0.7" />
<path d="M666.55,18.25c1.12,0.57,3.17,0.7,4.28,0.57c8.91-1.05,20.32-2.14,27.29-2.39c1.86-0.07,2.98,0.27,3.91,0.56" style="fill:none;stroke:#999;stroke-width:3" />
<path d="M678.4200000000001,21.25c0.76,0.5,1.45,2.75,1.36,3.75C679.0,33.75,670.5,77.75,668.5,85.98c-0.42,1.74,1.06,2.02,2.52,1.17c5.54-3.23,11.84-6.33,17.49-9.15" style="fill:none;stroke:#999;stroke-width:3" />
<path d="M678.24,39.54c0.87,0.21,1.79,0.69,2.64,0.5c2.39-0.54,10.91-2.15,13.27-2.79c1.85-0.5,3.35,1.5,3.16,3.03c-0.57,4.49-2.1,17.23-2.74,30.01C693.5,91.75,695.0,94.32,722.73,94.32c23.52,0,26.75-1.07,26.75-14.04" style="fill:none;stroke:#999;stroke-width:3" />
<path d="M681.1,54.83c2.36,1.92,6.1,7.9,6.69,10.88" style="fill:none;stroke:#999;stroke-width:3" />
<path d="M719.0,16.74c0.28,0.8-0.06,1.69-0.39,2.68c-2.71,8.15-8.39,17.12-16.05,23.88" style="fill:none;stroke:#999;stroke-width:3" />
<path d="M728.34,14.25C731.5,15,742.59,34.53,747.96,38.94c2.08,1.71,2.82,2.62,4.83,3.17" style="fill:none;stroke:#999;stroke-width:3" />
<path d="M710.57,45.62c1.93,0.38,3.8,0.4,4.69,0.24c7.25-1.26,16.66-3.88,20.68-4.34c2.62-0.3,3.77,0.91,3.63,3.02C739.0,53.25,736.0,70.5,731.8199999999999,78.78c-2.93,5.8-6.36,0.74-7.53-0.89" style="fill:none;stroke:black;stroke-width:3" />
<circle cx="710.57" cy="45.62" r="5" stroke-width="0" fill="#FF2A00" opacity="0.7" />
<path d="M775.55,18.25c1.12,0.57,3.17,0.7,4.28,0.57c8.91-1.05,20.32-2.14,27.29-2.39c1.86-0.07,2.98,0.27,3.91,0.56" style="fill:none;stroke:#999;stroke-width:3" />
<path d="M787.4200000000001,21.25c0.76,0.5,1.45,2.75,1.36,3.75C788.0,33.75,779.5,77.75,777.5,85.98c-0.42,1.74,1.06,2.02,2.52,1.17c5.54-3.23,11.84-6.33,17.49-9.15" style="fill:none;stroke:#999;stroke-width:3" />
<path d="M787.24,39.54c0.87,0.21,1.79,0.69,2.64,0.5c2.39-0.54,10.91-2.15,13.27-2.79c1.85-0.5,3.35,1.5,3.16,3.03c-0.57,4.49-2.1,17.23-2.74,30.01C802.5,91.75,804.0,94.32,831.73,94.32c23.52,0,26.75-1.07,26.75-14.04" style="fill:none;stroke:#999;stroke-width:3" />
<path d="M790.1,54.83c2.36,1.92,6.1,7.9,6.69,10.88" style="fill:none;stroke:#999;stroke-width:3" />
<path d="M828.0,16.74c0.28,0.8-0.06,1.69-0.39,2.68c-2.71,8.15-8.39,17.12-16.05,23.88" style="fill:none;stroke:#999;stroke-width:3" />
<path d="M837.34,14.25C840.5,15,851.59,34.53,856.96,38.94c2.08,1.71,2.82,2.62,4.83,3.17" style="fill:none;stroke:#999;stroke-width:3" />
<path d="M819.57,45.62c1.93,0.38,3.8,0.4,4.69,0.24c7.25-1.26,16.66-3.88,20.68-4.34c2.62-0.3,3.77,0.91,3.63,3.02C848.0,53.25,845.0,70.5,840.8199999999999,78.78c-2.93,5.8-6.36,0.74-7.53-0.89" style="fill:none;stroke:#999;stroke-width:3" />
<path d="M831.71,47.66c0.06,0.71,0.25,1.9-0.12,2.86c-3.84,10.23-8.09,18.73-19.04,29.13" style="fill:none;stroke:black;stroke-width:3" />
<circle cx="831.71" cy="47.66" r="5" stroke-width="0" fill="#FF2A00" opacity="0.7" />
</svg>