<svg width="1417px" height="109px" viewBox="0 0 1417px 109px" xmlns="http://www.w3.org/2000/svg" xmlns:xlink="http://www.w3.org/1999/xlink" xml:space="preserve" version="1.1"  baseProfile="full">
<line x1="1" y1="1" x2="1416" y2="1" style="stroke:#ddd;stroke-width:2" />
<line x1="1" y1="1" x2="1" y2="108" style="stroke:#ddd;stroke-width:2" />
<line x1="1" y1="108" x2="1416" y2="108" style="stroke:#ddd;stroke-width:2" />
<line x1="1416" y1="1" x2="1416" y2="108" style="stroke:#ddd;stroke-width:2" />
<line x1="109" y1="1" x2="109" y2="108" style="stroke:#ddd;stroke-width:2" />
<line x1="218" y1="1" x2="218" y2="108" style="stroke:#ddd;stroke-width:2" />
<line x1="327" y1="1" x2="327" y2="108" style="stroke:#ddd;stroke-width:2" />
<line x1="436" y1="1" x2="436" y2="108" style="stroke:#ddd;stroke-width:2" />
<line x1="545" y1="1" x2="545" y2="108" style="stroke:#ddd;stroke-width:2" />
<line x1="654" y1="1" x2="654" y2="108" style="stroke:#ddd;stroke-width:2" />
<line x1="763" y1="1" x2="763" y2="108" style="stroke:#ddd;stroke-width:2" />
<line x1="872" y1="1" x2="872" y2="108" style="stroke:#ddd;stroke-width:2" />
<line x1="981" y1="1" x2="981" y2="108" style="stroke:#ddd;stroke-width:2" />
<line x1="1090" y1="1" x2="1090" y2="108" style="stroke:#ddd;stroke-width:2" />
<line x1="1199" y1="1" x2="1199" y2="108" style="stroke:#ddd;stroke-width:2" />
<line x1="1308" y1="1" x2="1308" y2="108" style="stroke:#ddd;stroke-width:2" />
<line x1="1" y1="54" x2="1416" y2="54" style="stroke:#ddd;stroke-width:2;stroke-dasharray:3 3" />
<line x1="55" y1="1" x2="55" y2="108" style="stroke:#ddd;stroke-width:2;stroke-dasharray:3 3" />
<line x1="164" y1="1" x2="164" y2="108" style="stroke:#ddd;stroke-width:2;stroke-dasharray:3 3" />
<line x1="273" y1="1" x2="273" y2="108" style="stroke:#ddd;stroke-width:2;stroke-dasharray:3 3" />
<line x1="382" y1="1" x2="382" y2="108" style="stroke:#ddd;stroke-width:2;stroke-dasharray:3 3" />
<line x1="491" y1="1" x2="491" y2="108" style="stroke:#ddd;stroke-width:2;stroke-dasharray:3 3" />
<line x1="600" y1="1" x2="600" y2="108" style="stroke:#ddd;stroke-width:2;stroke-dasharray:3 3" />
<line x1="709" y1="1" x2="709" y2="108" style="stroke:#ddd;stroke-width:2;stroke-dasharray:3 3" />
<line x1="818" y1="1" x2="818" y2="108" style="stroke:#ddd;stroke-width:2;stroke-dasharray:3 3" />
<line x1="927" y1="1" x2="927" y2="108" style="stroke:#ddd;stroke-width:2;stroke-dasharray:3 3" />
<line x1="1036" y1="1" x2="1036" y2="108" style="stroke:#ddd;stroke-width:2;stroke-dasharray:3 3" />
<line x1="1145" y1="1" x2="1145" y2="108" style="stroke:#ddd;stroke-width:2;stroke-dasharray:3 3" />
<line x1="1254" y1="1" x2="1254" y2="108" style="stroke:#ddd;stroke-width:2;stroke-dasharray:3 3" />
<line x1="1363" y1="1" x2="1363" y2="108" style="stroke:#ddd;stroke-width:2;stroke-dasharray:3 3" />
<path d="M10.55,19.75c1.12,0.57,3.17,0.7,4.28,0.57c8.91-1.05,21.82-2.64,28.79-2.89c1.86-0.07,2.98,0.27,3.91,0.56" style="fill:none;stroke:black;stroke-width:3" />
<circle cx="10.55" cy="19.75" r="5" stroke-width="0" fill="#FF2A00" opacity="0.7" />
<path d="M119.55,19.75c1.12,0.57,3.17,0.7,4.28,0.57c8.91-1.05,21.82-2.64,28.79-2.89c1.86-0.07,2.98,0.27,3.91,0.56" style="fill:none;stroke:#999;stroke-width:3" />
<path d="M132.42000000000002,22.25c0.76,0.5,1.54,2.76,1.36,3.75C132.32999999999998,33.75,125.0,77.75,123.0,85.98c-0.42,1.74,1.06,2.02,2.52,1.17c5.54-3.23,11.84-6.33,17.49-9.15" style="fill:none;stroke:black;stroke-width:3" />
<circle cx="132.42000000000002" cy="22.25" r="5" stroke-width="0" fill="#FF2A00" opacity="0.7" />
<path d="M228.55,19.75c1.12,0.57,3.17,0.7,4.28,0.57c8.91-1.05,21.82-2.64,28.79-2.89c1.86-0.07,2.98,0.27,3.91,0.56" style="fill:none;stroke:#999;stroke-width:3" />
<path d="M241.42000000000002,22.25c0.76,0.5,1.54,2.76,1.36,3.75C241.32999999999998,33.75,234.0,77.75,232.0,85.98c-0.42,1.74,1.06,2.02,2.52,1.17c5.54-3.23,11.84-6.33,17.49-9.15" style="fill:none;stroke:#999;stroke-width:3" />
<path d="M241.24,39.54c0.87,0.21,1.29,0.19,2.14,0c2.39-0.54,9.91-2.65,12.27-3.29c1.85-0.5,2.85,1,2.66,2.53c-0.57,4.49-1,21.23-1.74,34.01c-1.07,18.45,0.18,22.52,30.66,22.52c26.77,0,28.25-3.07,28.25-12.54" style="fill:none;stroke:black;stroke-width:3" />
<circle cx="241.24" cy="39.54" r="5" stroke-width="0" fill="#FF2A00" opacity="0.7" />
<path d="M337.55,19.75c1.12,0.57,3.17,0.7,4.28,0.57c8.91-1.05,21.82-2.64,28.79-2.89c1.86-0.07,2.98,0.27,3.91,0.56" style="fill:none;stroke:#999;stroke-width:3" />
<path d="M350.42,22.25c0.76,0.5,1.54,2.76,1.36,3.75C350.33,33.75,343.0,77.75,341.0,85.98c-0.42,1.74,1.06,2.02,2.52,1.17c5.54-3.23,11.84-6.33,17.49-9.15" style="fill:none;stroke:#999;stroke-width:3" />
<path d="M350.24,39.54c0.87,0.21,1.29,0.19,2.14,0c2.39-0.54,9.91-2.65,12.27-3.29c1.85-0.5,2.85,1,2.66,2.53c-0.57,4.49-1,21.23-1.74,34.01c-1.07,18.45,0.18,22.52,30.66,22.52c26.77,0,28.25-3.07,28.25-12.54" style="fill:none;stroke:#999;stroke-width:3" />
<path d="M350.85,53.83c2.62,1.7,6.78,6.99,7.44,9.63" style="fill:none;stroke:black;stroke-width:3" />
<circle cx="350.85" cy="53.83" r="5" stroke-width="0" fill="#FF2A00" opacity="0.7" />
<path d="M446.55,19.75c1.12,0.57,3.17,0.7,4.28,0.57c8.91-1.05,21.82-2.64,28.79-2.89c1.86-0.07,2.98,0.27,3.91,0.56" style="fill:none;stroke:#999;stroke-width:3" />
<path d="M459.42,22.25c0.76,0.5,1.54,2.76,1.36,3.75C459.33,33.75,452.0,77.75,450.0,85.98c-0.42,1.74,1.06,2.02,2.52,1.17c5.54-3.23,11.84-6.33,17.49-9.15" style="fill:none;stroke:#999;stroke-width:3" />
<path d="M459.24,39.54c0.87,0.21,1.29,0.19,2.14,0c2.39-0.54,9.91-2.65,12.27-3.29c1.85-0.5,2.85,1,2.66,2.53c-0.57,4.49-1,21.23-1.74,34.01c-1.07,18.45,0.18,22.52,30.66,22.52c26.77,0,28.25-3.07,28.25-12.54" style="fill:none;stroke:#999;stroke-width:3" />
<path d="M459.85,53.83c2.62,1.7,6.78,6.99,7.44,9.63" style="fill:none;stroke:#999;stroke-width:3" />
<path d="M488.22,22.69c1.17,0.55,3.31,0.58,4.48,0.55c9.25-0.19,22.06-2.49,29.88-2.35c1.94,0.04,3.11,0.26,4.09,0.54" style="fill:none;stroke:black;stroke-width:3" />
<circle cx="488.22" cy="22.69" r="5" stroke-width="0" fill="#FF2A00" opacity="0.7" />
<path d="M555.55,19.75c1.12,0.57,3.17,0.7,4.28,0.57c8.91-1.05,21.82-2.64,28.79-2.89c1.86-0.07,2.98,0.27,3.91,0.56" style="fill:none;stroke:#999;stroke-width:3" />
<path d="M568.4200000000001,22.25c0.76,0.5,1.54,2.76,1.36,3.75C568.3299999999999,33.75,561.0,77.75,559.0,85.98c-0.42,1.74,1.06,2.02,2.52,1.17c5.54-3.23,11.84-6.33,17.49-9.15" style="fill:none;stroke:#999;stroke-width:3" />
<path d="M568.24,39.54c0.87,0.21,1.29,0.19,2.14,0c2.39-0.54,9.91-2.65,12.27-3.29c1.85-0.5,2.85,1,2.66,2.53c-0.57,4.49-1,21.23-1.74,34.01c-1.07,18.45,0.18,22.52,30.66,22.52c26.77,0,28.25-3.07,28.25-12.54" style="fill:none;stroke:#999;stroke-width:3" />
<path d="M568.85,53.83c2.62,1.7,6.78,6.99,7.44,9.63" style="fill:none;stroke:#999;stroke-width:3" />
<path d="M597.22,22.69c1.17,0.55,3.31,0.58,4.48,0.55c9.25-0.19,22.06-2.49,29.88-2.35c1.94,0.04,3.11,0.26,4.09,0.54" style="fill:none;stroke:#999;stroke-width:3" />
<path d="M599.51,23.62c0.03,1.32-0.05,2.4-0.05,4.3c0,16.29-1.46,34.58-9.1,51.29" style="fill:none;stroke:black;stroke-width:3" />
<circle cx="599.51" cy="23.62" r="5" stroke-width="0" fill="#FF2A00" opacity="0.7" />
<path d="M664.55,19.75c1.12,0.57,3.17,0.7,4.28,0.57c8.91-1.05,21.82-2.64,28.79-2.89c1.86-0.07,2.98,0.27,3.91,0.56" style="fill:none;stroke:#999;stroke-width:3" />
<path d="M677.4200000000001,22.25c0.76,0.5,1.54,2.76,1.36,3.75C677.3299999999999,33.75,670.0,77.75,668.0,85.98c-0.42,1.74,1.06,2.02,2.52,1.17c5.54-3.23,11.84-6.33,17.49-9.15" style="fill:none;stroke:#999;stroke-width:3" />
<path d="M677.24,39.54c0.87,0.21,1.29,0.19,2.14,0c2.39-0.54,9.91-2.65,12.27-3.29c1.85-0.5,2.85,1,2.66,2.53c-0.57,4.49-1,21.23-1.74,34.01c-1.07,18.45,0.18,22.52,30.66,22.52c26.77,0,28.25-3.07,28.25-12.54" style="fill:none;stroke:#999;stroke-width:3" />
<path d="M677.85,53.83c2.62,1.7,6.78,6.99,7.44,9.63" style="fill:none;stroke:#999;stroke-width:3" />
<path d="M706.22,22.69c1.17,0.55,3.31,0.58,4.48,0.55c9.25-0.19,22.06-2.49,29.88-2.35c1.94,0.04,3.11,0.26,4.09,0.54" style="fill:none;stroke:#999;stroke-width:3" />
<path d="M708.51,23.62c0.03,1.32-0.05,2.4-0.05,4.3c0,16.29-1.46,34.58-9.1,51.29" style="fill:none;stroke:#999;stroke-width:3" />
<path d="M714.44,33.77c0.18,0.35,0.19,0.59,0.29,1.03c0.82,3.61,2.34,13.9,2.85,20.64" style="fill:none;stroke:black;stroke-width:3" />
<circle cx="714.44" cy="33.77" r="5" stroke-width="0" fill="#FF2A00" opacity="0.7" />
<path d="M773.55,19.75c1.12,0.57,3.17,0.7,4.28,0.57c8.91-1.05,21.82-2.64,28.79-2.89c1.86-0.07,2.98,0.27,3.91,0.56" style="fill:none;stroke:#999;stroke-width:3" />
<path d="M786.4200000000001,22.25c0.76,0.5,1.54,2.76,1.36,3.75C786.3299999999999,33.75,779.0,77.75,777.0,85.98c-0.42,1.74,1.06,2.02,2.52,1.17c5.54-3.23,11.84-6.33,17.49-9.15" style="fill:none;stroke:#999;stroke-width:3" />
<path d="M786.24,39.54c0.87,0.21,1.29,0.19,2.14,0c2.39-0.54,9.91-2.65,12.27-3.29c1.85-0.5,2.85,1,2.66,2.53c-0.57,4.49-1,21.23-1.74,34.01c-1.07,18.45,0.18,22.52,30.66,22.52c26.77,0,28.25-3.07,28.25-12.54" style="fill:none;stroke:#999;stroke-width:3" />
<path d="M786.85,53.83c2.62,1.7,6.78,6.99,7.44,9.63" style="fill:none;stroke:#999;stroke-width:3" />
<path d="M815.22,22.69c1.17,0.55,3.31,0.58,4.48,0.55c9.25-0.19,22.06-2.49,29.88-2.35c1.94,0.04,3.11,0.26,4.09,0.54" style="fill:none;stroke:#999;stroke-width:3" />
<path d="M817.51,23.62c0.03,1.32-0.05,2.4-0.05,4.3c0,16.29-1.46,34.58-9.1,51.29" style="fill:none;stroke:#999;stroke-width:3" />
<path d="M823.44,33.77c0.18,0.35,0.19,0.59,0.29,1.03c0.82,3.61,2.34,13.9,2.85,20.64" style="fill:none;stroke:#999;stroke-width:3" />
<path d="M824.28,34.26C832.0,33.5,841.0,32.5,846.36,31.81c1.75-0.22,3.63,1.71,3.54,2.7c-0.33,3.64-2.27,12.57-3.06,18.65" style="fill:none;stroke:black;stroke-width:3" />
<circle cx="824.28" cy="34.26" r="5" stroke-width="0" fill="#FF2A00" opacity="0.7" />
<path d="M882.55,19.75c1.12,0.57,3.17,0.7,4.28,0.57c8.91-1.05,21.82-2.64,28.79-2.89c1.86-0.07,2.98,0.27,3.91,0.56" style="fill:none;stroke:#999;stroke-width:3" />
<path d="M895.4200000000001,22.25c0.76,0.5,1.54,2.76,1.36,3.75C895.3299999999999,33.75,888.0,77.75,886.0,85.98c-0.42,1.74,1.06,2.02,2.52,1.17c5.54-3.23,11.84-6.33,17.49-9.15" style="fill:none;stroke:#999;stroke-width:3" />
<path d="M895.24,39.54c0.87,0.21,1.29,0.19,2.14,0c2.39-0.54,9.91-2.65,12.27-3.29c1.85-0.5,2.85,1,2.66,2.53c-0.57,4.49-1,21.23-1.74,34.01c-1.07,18.45,0.18,22.52,30.66,22.52c26.77,0,28.25-3.07,28.25-12.54" style="fill:none;stroke:#999;stroke-width:3" />
<path d="M895.85,53.83c2.62,1.7,6.78,6.99,7.44,9.63" style="fill:none;stroke:#999;stroke-width:3" />
<path d="M924.22,22.69c1.17,0.55,3.31,0.58,4.48,0.55c9.25-0.19,22.06-2.49,29.88-2.35c1.94,0.04,3.11,0.26,4.09,0.54" style="fill:none;stroke:#999;stroke-width:3" />
<path d="M926.51,23.62c0.03,1.32-0.05,2.4-0.05,4.3c0,16.29-1.46,34.58-9.1,51.29" style="fill:none;stroke:#999;stroke-width:3" />
<path d="M932.44,33.77c0.18,0.35,0.19,0.59,0.29,1.03c0.82,3.61,2.34,13.9,2.85,20.64" style="fill:none;stroke:#999;stroke-width:3" />
<path d="M933.28,34.26C941.0,33.5,950.0,32.5,955.36,31.81c1.75-0.22,3.63,1.71,3.54,2.7c-0.33,3.64-2.27,12.57-3.06,18.65" style="fill:none;stroke:#999;stroke-width:3" />
<path d="M935.22,43.6c3.65-0.36,19.08-1.71,21.92-1.95" style="fill:none;stroke:black;stroke-width:3" />
<circle cx="935.22" cy="43.6" r="5" stroke-width="0" fill="#FF2A00" opacity="0.7" />
<path d="M991.55,19.75c1.12,0.57,3.17,0.7,4.28,0.57c8.91-1.05,21.82-2.64,28.79-2.89c1.86-0.07,2.98,0.27,3.91,0.56" style="fill:none;stroke:#999;stroke-width:3" />
<path d="M1004.4200000000001,22.25c0.76,0.5,1.54,2.76,1.36,3.75C1004.3299999999999,33.75,997.0,77.75,995.0,85.98c-0.42,1.74,1.06,2.02,2.52,1.17c5.54-3.23,11.84-6.33,17.49-9.15" style="fill:none;stroke:#999;stroke-width:3" />
<path d="M1004.24,39.54c0.87,0.21,1.29,0.19,2.14,0c2.39-0.54,9.91-2.65,12.27-3.29c1.85-0.5,2.85,1,2.66,2.53c-0.57,4.49-1,21.23-1.74,34.01c-1.07,18.45,0.18,22.52,30.66,22.52c26.77,0,28.25-3.07,28.25-12.54" style="fill:none;stroke:#999;stroke-width:3" />
<path d="M1004.85,53.83c2.62,1.7,6.78,6.99,7.44,9.63" style="fill:none;stroke:#999;stroke-width:3" />
<path d="M1033.22,22.69c1.17,0.55,3.31,0.58,4.48,0.55c9.25-0.19,22.06-2.49,29.88-2.35c1.94,0.04,3.11,0.26,4.09,0.54" style="fill:none;stroke:#999;stroke-width:3" />
<path d="M1035.51,23.62c0.03,1.32-0.05,2.4-0.05,4.3c0,16.29-1.46,34.58-9.1,51.29" style="fill:none;stroke:#999;stroke-width:3" />
<path d="M1041.44,33.77c0.18,0.35,0.19,0.59,0.29,1.03c0.82,3.61,2.34,13.9,2.85,20.64" style="fill:none;stroke:#999;stroke-width:3" />
<path d="M1042.28,34.26C1050.0,33.5,1059.0,32.5,1064.3600000000001,31.81c1.75-0.22,3.63,1.71,3.54,2.7c-0.33,3.64-2.27,12.57-3.06,18.65" style="fill:none;stroke:#999;stroke-width:3" />
<path d="M1044.22,43.6c3.65-0.36,19.08-1.71,21.92-1.95" style="fill:none;stroke:#999;stroke-width:3" />
<path d="M1044.9,53.3c4.57-0.39,13.14-1.15,19.95-1.48" style="fill:none;stroke:black;stroke-width:3" />
<circle cx="1044.9" cy="53.3" r="5" stroke-width="0" fill="#FF2A00" opacity="0.7" />
<path d="M1100.55,19.75c1.12,0.57,3.17,0.7,4.28,0.57c8.91-1.05,21.82-2.64,28.79-2.89c1.86-0.07,2.98,0.27,3.91,0.56" style="fill:none;stroke:#999;stroke-width:3" />
<path d="M1113.42,22.25c0.76,0.5,1.54,2.76,1.36,3.75C1113.33,33.75,1106.0,77.75,1104.0,85.98c-0.42,1.74,1.06,2.02,2.52,1.17c5.54-3.23,11.84-6.33,17.49-9.15" style="fill:none;stroke:#999;stroke-width:3" />
<path d="M1113.24,39.54c0.87,0.21,1.29,0.19,2.14,0c2.39-0.54,9.91-2.65,12.27-3.29c1.85-0.5,2.85,1,2.66,2.53c-0.57,4.49-1,21.23-1.74,34.01c-1.07,18.45,0.18,22.52,30.66,22.52c26.77,0,28.25-3.07,28.25-12.54" style="fill:none;stroke:#999;stroke-width:3" />
<path d="M1113.85,53.83c2.62,1.7,6.78,6.99,7.44,9.63" style="fill:none;stroke:#999;stroke-width:3" />
<path d="M1142.22,22.69c1.17,0.55,3.31,0.58,4.48,0.55c9.25-0.19,22.06-2.49,29.88-2.35c1.94,0.04,3.11,0.26,4.09,0.54" style="fill:none;stroke:#999;stroke-width:3" />
<path d="M1144.51,23.62c0.03,1.32-0.05,2.4-0.05,4.3c0,16.29-1.46,34.58-9.1,51.29" style="fill:none;stroke:#999;stroke-width:3" />
<path d="M1150.44,33.77c0.18,0.35,0.19,0.59,0.29,1.03c0.82,3.61,2.34,13.9,2.85,20.64" style="fill:none;stroke:#999;stroke-width:3" />
<path d="M1151.28,34.26C1159.0,33.5,1168.0,32.5,1173.3600000000001,31.81c1.75-0.22,3.63,1.71,3.54,2.7c-0.33,3.64-2.27,12.57-3.06,18.65" style="fill:none;stroke:#999;stroke-width:3" />
<path d="M1153.22,43.6c3.65-0.36,19.08-1.71,21.92-1.95" style="fill:none;stroke:#999;stroke-width:3" />
<path d="M1153.9,53.3c4.57-0.39,13.14-1.15,19.95-1.48" style="fill:none;stroke:#999;stroke-width:3" />
<path d="M1162.39,33.32c0.19,0.72,0.74,1.69,0.76,3.13c0.14,10.04,0.05,37.34,0.05,40.17" style="fill:none;stroke:black;stroke-width:3" />
<circle cx="1162.39" cy="33.32" r="5" stroke-width="0" fill="#FF2A00" opacity="0.7" />
<path d="M1209.55,19.75c1.12,0.57,3.17,0.7,4.28,0.57c8.91-1.05,21.82-2.64,28.79-2.89c1.86-0.07,2.98,0.27,3.91,0.56" style="fill:none;stroke:#999;stroke-width:3" />
<path d="M1222.42,22.25c0.76,0.5,1.54,2.76,1.36,3.75C1222.33,33.75,1215.0,77.75,1213.0,85.98c-0.42,1.74,1.06,2.02,2.52,1.17c5.54-3.23,11.84-6.33,17.49-9.15" style="fill:none;stroke:#999;stroke-width:3" />
<path d="M1222.24,39.54c0.87,0.21,1.29,0.19,2.14,0c2.39-0.54,9.91-2.65,12.27-3.29c1.85-0.5,2.85,1,2.66,2.53c-0.57,4.49-1,21.23-1.74,34.01c-1.07,18.45,0.18,22.52,30.66,22.52c26.77,0,28.25-3.07,28.25-12.54" style="fill:none;stroke:#999;stroke-width:3" />
<path d="M1222.85,53.83c2.62,1.7,6.78,6.99,7.44,9.63" style="fill:none;stroke:#999;stroke-width:3" />
<path d="M1251.22,22.69c1.17,0.55,3.31,0.58,4.48,0.55c9.25-0.19,22.06-2.49,29.88-2.35c1.94,0.04,3.11,0.26,4.09,0.54" style="fill:none;stroke:#999;stroke-width:3" />
<path d="M1253.51,23.62c0.03,1.32-0.05,2.4-0.05,4.3c0,16.29-1.46,34.58-9.1,51.29" style="fill:none;stroke:#999;stroke-width:3" />
<path d="M1259.44,33.77c0.18,0.35,0.19,0.59,0.29,1.03c0.82,3.61,2.34,13.9,2.85,20.64" style="fill:none;stroke:#999;stroke-width:3" />
<path d="M1260.28,34.26C1268.0,33.5,1277.0,32.5,1282.3600000000001,31.81c1.75-0.22,3.63,1.71,3.54,2.7c-0.33,3.64-2.27,12.57-3.06,18.65" style="fill:none;stroke:#999;stroke-width:3" />
<path d="M1262.22,43.6c3.65-0.36,19.08-1.71,21.92-1.95" style="fill:none;stroke:#999;stroke-width:3" />
<path d="M1262.9,53.3c4.57-0.39,13.14-1.15,19.95-1.48" style="fill:none;stroke:#999;stroke-width:3" />
<path d="M1271.39,33.32c0.19,0.72,0.74,1.69,0.76,3.13c0.14,10.04,0.05,37.34,0.05,40.17" style="fill:none;stroke:#999;stroke-width:3" />
<path d="M1258.62,65.89c0.52,0.18,1.48,0.2,2,0.18c5.44-0.21,16.91-2.07,23.65-2.11c0.87,0,1.4,0.09,1.83,0.18" style="fill:none;stroke:black;stroke-width:3" />
<circle cx="1258.62" cy="65.89" r="5" stroke-width="0" fill="#FF2A00" opacity="0.7" />
<path d="M1318.55,19.75c1.12,0.57,3.17,0.7,4.28,0.57c8.91-1.05,21.82-2.64,28.79-2.89c1.86-0.07,2.98,0.27,3.91,0.56" style="fill:none;stroke:#999;stroke-width:3" />
<path d="M1331.42,22.25c0.76,0.5,1.54,2.76,1.36,3.75C1331.33,33.75,1324.0,77.75,1322.0,85.98c-0.42,1.74,1.06,2.02,2.52,1.17c5.54-3.23,11.84-6.33,17.49-9.15" style="fill:none;stroke:#999;stroke-width:3" />
<path d="M1331.24,39.54c0.87,0.21,1.29,0.19,2.14,0c2.39-0.54,9.91-2.65,12.27-3.29c1.85-0.5,2.85,1,2.66,2.53c-0.57,4.49-1,21.23-1.74,34.01c-1.07,18.45,0.18,22.52,30.66,22.52c26.77,0,28.25-3.07,28.25-12.54" style="fill:none;stroke:#999;stroke-width:3" />
<path d="M1331.85,53.83c2.62,1.7,6.78,6.99,7.44,9.63" style="fill:none;stroke:#999;stroke-width:3" />
<path d="M1360.22,22.69c1.17,0.55,3.31,0.58,4.48,0.55c9.25-0.19,22.06-2.49,29.88-2.35c1.94,0.04,3.11,0.26,4.09,0.54" style="fill:none;stroke:#999;stroke-width:3" />
<path d="M1362.51,23.62c0.03,1.32-0.05,2.4-0.05,4.3c0,16.29-1.46,34.58-9.1,51.29" style="fill:none;stroke:#999;stroke-width:3" />
<path d="M1368.44,33.77c0.18,0.35,0.19,0.59,0.29,1.03c0.82,3.61,2.34,13.9,2.85,20.64" style="fill:none;stroke:#999;stroke-width:3" />
<path d="M1369.28,34.26C1377.0,33.5,1386.0,32.5,1391.3600000000001,31.81c1.75-0.22,3.63,1.71,3.54,2.7c-0.33,3.64-2.27,12.57-3.06,18.65" style="fill:none;stroke:#999;stroke-width:3" />
<path d="M1371.22,43.6c3.65-0.36,19.08-1.71,21.92-1.95" style="fill:none;stroke:#999;stroke-width:3" />
<path d="M1371.9,53.3c4.57-0.39,13.14-1.15,19.95-1.48" style="fill:none;stroke:#999;stroke-width:3" />
<path d="M1380.39,33.32c0.19,0.72,0.74,1.69,0.76,3.13c0.14,10.04,0.05,37.34,0.05,40.17" style="fill:none;stroke:#999;stroke-width:3" />
<path d="M1367.62,65.89c0.52,0.18,1.48,0.2,2,0.18c5.44-0.21,16.91-2.07,23.65-2.11c0.87,0,1.4,0.09,1.83,0.18" style="fill:none;stroke:#999;stroke-width:3" />
<path d="M1362.59,79.17c0.76,0.29,2.16,0.33,2.92,0.29c7.91-0.48,23.79-2.18,33.21-2.16c1.26,0,2.03,0.14,2.66,0.28" style="fill:none;stroke:black;stroke-width:3" />
<circle cx="1362.59" cy="79.17" r="5" stroke-width="0" fill="#FF2A00" opacity="0.7" />
</svg>