<svg width="1417px" height="109px" viewBox="0 0 1417px 109px" xmlns="http://www.w3.org/2000/svg" xmlns:xlink="http://www.w3.org/1999/xlink" xml:space="preserve" version="1.1"  baseProfile="full">
<line x1="1" y1="1" x2="1416" y2="1" style="stroke:#ddd;stroke-width:2" />
<line x1="1" y1="1" x2="1" y2="108" style="stroke:#ddd;stroke-width:2" />
<line x1="1" y1="108" x2="1416" y2="108" style="stroke:#ddd;stroke-width:2" />
<line x1="1416" y1="1" x2="1416" y2="108" style="stroke:#ddd;stroke-width:2" />
<line x1="109" y1="1" x2="109" y2="108" style="stroke:#ddd;stroke-width:2" />
<line x1="218" y1="1" x2="218" y2="108" style="stroke:#ddd;stroke-width:2" />
<line x1="327" y1="1" x2="327" y2="108" style="stroke:#ddd;stroke-width:2" />
<line x1="436" y1="1" x2="436" y2="108" style="stroke:#ddd;stroke-width:2" />
<line x1="545" y1="1" x2="545" y2="108" style="stroke:#ddd;stroke-width:2" />
<line x1="654" y1="1" x2="654" y2="108" style="stroke:#ddd;stroke-width:2" />
<line x1="763" y1="1" x2="763" y2="108" style="stroke:#ddd;stroke-width:2" />
<line x1="872" y1="1" x2="872" y2="108" style="stroke:#ddd;stroke-width:2" />
<line x1="981" y1="1" x2="981" y2="108" style="stroke:#ddd;stroke-width:2" />
<line x1="1090" y1="1" x2="1090" y2="108" style="stroke:#ddd;stroke-width:2" />
<line x1="1199" y1="1" x2="1199" y2="108" style="stroke:#ddd;stroke-width:2" />
<line x1="1308" y1="1" x2="1308" y2="108" style="stroke:#ddd;stroke-width:2" />
<line x1="1" y1="54" x2="1416" y2="54" style="stroke:#ddd;stroke-width:2;stroke-dasharray:3 3" />
<line x1="55" y1="1" x2="55" y2="108" style="stroke:#ddd;stroke-width:2;stroke-dasharray:3 3" />
<line x1="164" y1="1" x2="164" y2="108" style="stroke:#ddd;stroke-width:2;stroke-dasharray:3 3" />
<line x1="273" y1="1" x2="273" y2="108" style="stroke:#ddd;stroke-width:2;stroke-dasharray:3 3" />
<line x1="382" y1="1" x2="382" y2="108" style="stroke:#ddd;stroke-width:2;stroke-dasharray:3 3" />
<line x1="491" y1="1" x2="491" y2="108" style="stroke:#ddd;stroke-width:2;stroke-dasharray:3 3" />
<line x1="600" y1="1" x2="600" y2="108" style="stroke:#ddd;stroke-width:2;stroke-dasharray:3 3" />
<line x1="709" y1="1" x2="709" y2="108" style="stroke:#ddd;stroke-width:2;stroke-dasharray:3 3" />
<line x1="818" y1="1" x2="818" y2="108" style="stroke:#ddd;stroke-width:2;stroke-dasharray:3 3" />
<line x1="927" y1="1" x2="927" y2="108" style="stroke:#ddd;stroke-width:2;stroke-dasharray:3 3" />
<line x1="1036" y1="1" x2="1036" y2="108" style="stroke:#ddd;stroke-width:2;stroke-dasharray:3 3" />
<line x1="1145" y1="1" x2="1145" y2="108" style="stroke:#ddd;stroke-width:2;stroke-dasharray:3 3" />
<line x1="1254" y1="1" x2="1254" y2="108" style="stroke:#ddd;stroke-width:2;stroke-dasharray:3 3" />
<line x1="1363" y1="1" x2="1363" y2="108" style="stroke:#ddd;stroke-width:2;stroke-dasharray:3 3" />
<path d="M53.25,19.18c0.11,0.33,1.49,1.72,1.6,3.81c0.51,10.05,0.31,13.27,0.31,16.69" style="fill:none;stroke:black;stroke-width:3" />
<circle cx="53.25" cy="19.18" r="5" stroke-width="0" fill="#FF2A00" opacity="0.7" />
<path d="M162.25,19.18c0.11,0.33,1.49,1.72,1.6,3.81c0.51,10.05,0.31,13.27,0.31,16.69" style="fill:none;stroke:#999;stroke-width:3" />
<path d="M137.77,24.9c3.99,2.05,10.3,8.44,11.29,11.63" style="fill:none;stroke:black;stroke-width:3" />
<circle cx="137.77" cy="24.9" r="5" stroke-width="0" fill="#FF2A00" opacity="0.7" />
<path d="M271.25,19.18c0.11,0.33,1.49,1.72,1.6,3.81c0.51,10.05,0.31,13.27,0.31,16.69" style="fill:none;stroke:#999;stroke-width:3" />
<path d="M246.77,24.9c3.99,2.05,10.3,8.44,11.29,11.63" style="fill:none;stroke:#999;stroke-width:3" />
<path d="M296.51,23.32c0.03,0.32,0.05,0.83-0.05,1.3c-0.61,2.74-4.11,8.74-8.9,12.42" style="fill:none;stroke:black;stroke-width:3" />
<circle cx="296.51" cy="23.32" r="5" stroke-width="0" fill="#FF2A00" opacity="0.7" />
<path d="M380.25,19.18c0.11,0.33,1.49,1.72,1.6,3.81c0.51,10.05,0.31,13.27,0.31,16.69" style="fill:none;stroke:#999;stroke-width:3" />
<path d="M355.77,24.9c3.99,2.05,10.3,8.44,11.29,11.63" style="fill:none;stroke:#999;stroke-width:3" />
<path d="M405.51,23.32c0.03,0.32,0.05,0.83-0.05,1.3c-0.61,2.74-4.11,8.74-8.9,12.42" style="fill:none;stroke:#999;stroke-width:3" />
<path d="M346.82,39.7c-0.21,4.33-3.81,14.48-5.57,17.06" style="fill:none;stroke:black;stroke-width:3" />
<circle cx="346.82" cy="39.7" r="5" stroke-width="0" fill="#FF2A00" opacity="0.7" />
<path d="M489.25,19.18c0.11,0.33,1.49,1.72,1.6,3.81c0.51,10.05,0.31,13.27,0.31,16.69" style="fill:none;stroke:#999;stroke-width:3" />
<path d="M464.77,24.9c3.99,2.05,10.3,8.44,11.29,11.63" style="fill:none;stroke:#999;stroke-width:3" />
<path d="M514.51,23.32c0.03,0.32,0.05,0.83-0.05,1.3c-0.61,2.74-4.11,8.74-8.9,12.42" style="fill:none;stroke:#999;stroke-width:3" />
<path d="M455.82,39.7c-0.21,4.33-3.81,14.48-5.57,17.06" style="fill:none;stroke:#999;stroke-width:3" />
<path d="M455.99,42.75c7.01-0.43,48.76-3.69,68.3-4.62c11.71-0.56,0.4,8.44-1.15,9.7" style="fill:none;stroke:black;stroke-width:3" />
<circle cx="455.99" cy="42.75" r="5" stroke-width="0" fill="#FF2A00" opacity="0.7" />
<path d="M598.25,19.18c0.11,0.33,1.49,1.72,1.6,3.81c0.51,10.05,0.31,13.27,0.31,16.69" style="fill:none;stroke:#999;stroke-width:3" />
<path d="M573.77,24.9c3.99,2.05,10.3,8.44,11.29,11.63" style="fill:none;stroke:#999;stroke-width:3" />
<path d="M623.51,23.32c0.03,0.32,0.05,0.83-0.05,1.3c-0.61,2.74-4.11,8.74-8.9,12.42" style="fill:none;stroke:#999;stroke-width:3" />
<path d="M564.8199999999999,39.7c-0.21,4.33-3.81,14.48-5.57,17.06" style="fill:none;stroke:#999;stroke-width:3" />
<path d="M564.99,42.75c7.01-0.43,48.76-3.69,68.3-4.62c11.71-0.56,0.4,8.44-1.15,9.7" style="fill:none;stroke:#999;stroke-width:3" />
<path d="M579.2,48.45c0.29,0.26,0.61,0.47,0.7,0.82c0.81,3.02,1.84,9.37,2.66,13.81" style="fill:none;stroke:black;stroke-width:3" />
<circle cx="579.2" cy="48.45" r="5" stroke-width="0" fill="#FF2A00" opacity="0.7" />
<path d="M707.25,19.18c0.11,0.33,1.49,1.72,1.6,3.81c0.51,10.05,0.31,13.27,0.31,16.69" style="fill:none;stroke:#999;stroke-width:3" />
<path d="M682.77,24.9c3.99,2.05,10.3,8.44,11.29,11.63" style="fill:none;stroke:#999;stroke-width:3" />
<path d="M732.51,23.32c0.03,0.32,0.05,0.83-0.05,1.3c-0.61,2.74-4.11,8.74-8.9,12.42" style="fill:none;stroke:#999;stroke-width:3" />
<path d="M673.8199999999999,39.7c-0.21,4.33-3.81,14.48-5.57,17.06" style="fill:none;stroke:#999;stroke-width:3" />
<path d="M673.99,42.75c7.01-0.43,48.76-3.69,68.3-4.62c11.71-0.56,0.4,8.44-1.15,9.7" style="fill:none;stroke:#999;stroke-width:3" />
<path d="M688.2,48.45c0.29,0.26,0.61,0.47,0.7,0.82c0.81,3.02,1.84,9.37,2.66,13.81" style="fill:none;stroke:#999;stroke-width:3" />
<path d="M689.35,49.74c7.15-0.17,30.19-2.58,35.54-3.31c1.34-0.18,2.92,0.89,2.34,2.98c-0.93,3.4-1.72,4.87-3.3,9.47" style="fill:none;stroke:black;stroke-width:3" />
<circle cx="689.35" cy="49.74" r="5" stroke-width="0" fill="#FF2A00" opacity="0.7" />
<path d="M816.25,19.18c0.11,0.33,1.49,1.72,1.6,3.81c0.51,10.05,0.31,13.27,0.31,16.69" style="fill:none;stroke:#999;stroke-width:3" />
<path d="M791.77,24.9c3.99,2.05,10.3,8.44,11.29,11.63" style="fill:none;stroke:#999;stroke-width:3" />
<path d="M841.51,23.32c0.03,0.32,0.05,0.83-0.05,1.3c-0.61,2.74-4.11,8.74-8.9,12.42" style="fill:none;stroke:#999;stroke-width:3" />
<path d="M782.8199999999999,39.7c-0.21,4.33-3.81,14.48-5.57,17.06" style="fill:none;stroke:#999;stroke-width:3" />
<path d="M782.99,42.75c7.01-0.43,48.76-3.69,68.3-4.62c11.71-0.56,0.4,8.44-1.15,9.7" style="fill:none;stroke:#999;stroke-width:3" />
<path d="M797.2,48.45c0.29,0.26,0.61,0.47,0.7,0.82c0.81,3.02,1.84,9.37,2.66,13.81" style="fill:none;stroke:#999;stroke-width:3" />
<path d="M798.35,49.74c7.15-0.17,30.19-2.58,35.54-3.31c1.34-0.18,2.92,0.89,2.34,2.98c-0.93,3.4-1.72,4.87-3.3,9.47" style="fill:none;stroke:#999;stroke-width:3" />
<path d="M800.44,61.53c9.06,0.04,26.06-1.96,34.85-1.85" style="fill:none;stroke:black;stroke-width:3" />
<circle cx="800.44" cy="61.53" r="5" stroke-width="0" fill="#FF2A00" opacity="0.7" />
<path d="M925.25,19.18c0.11,0.33,1.49,1.72,1.6,3.81c0.51,10.05,0.31,13.27,0.31,16.69" style="fill:none;stroke:#999;stroke-width:3" />
<path d="M900.77,24.9c3.99,2.05,10.3,8.44,11.29,11.63" style="fill:none;stroke:#999;stroke-width:3" />
<path d="M950.51,23.32c0.03,0.32,0.05,0.83-0.05,1.3c-0.61,2.74-4.11,8.74-8.9,12.42" style="fill:none;stroke:#999;stroke-width:3" />
<path d="M891.8199999999999,39.7c-0.21,4.33-3.81,14.48-5.57,17.06" style="fill:none;stroke:#999;stroke-width:3" />
<path d="M891.99,42.75c7.01-0.43,48.76-3.69,68.3-4.62c11.71-0.56,0.4,8.44-1.15,9.7" style="fill:none;stroke:#999;stroke-width:3" />
<path d="M906.2,48.45c0.29,0.26,0.61,0.47,0.7,0.82c0.81,3.02,1.84,9.37,2.66,13.81" style="fill:none;stroke:#999;stroke-width:3" />
<path d="M907.35,49.74c7.15-0.17,30.19-2.58,35.54-3.31c1.34-0.18,2.92,0.89,2.34,2.98c-0.93,3.4-1.72,4.87-3.3,9.47" style="fill:none;stroke:#999;stroke-width:3" />
<path d="M909.44,61.53c9.06,0.04,26.06-1.96,34.85-1.85" style="fill:none;stroke:#999;stroke-width:3" />
<path d="M886.61,77.7c2.28,0.65,6.46,0.81,8.73,0.65c16.76-1.19,38.35-2.38,65.83-3.95c3.79-0.22,6.07,0.31,7.97,0.63" style="fill:none;stroke:black;stroke-width:3" />
<circle cx="886.61" cy="77.7" r="5" stroke-width="0" fill="#FF2A00" opacity="0.7" />
<path d="M1034.25,19.18c0.11,0.33,1.49,1.72,1.6,3.81c0.51,10.05,0.31,13.27,0.31,16.69" style="fill:none;stroke:#999;stroke-width:3" />
<path d="M1009.77,24.9c3.99,2.05,10.3,8.44,11.29,11.63" style="fill:none;stroke:#999;stroke-width:3" />
<path d="M1059.51,23.32c0.03,0.32,0.05,0.83-0.05,1.3c-0.61,2.74-4.11,8.74-8.9,12.42" style="fill:none;stroke:#999;stroke-width:3" />
<path d="M1000.8199999999999,39.7c-0.21,4.33-3.81,14.48-5.57,17.06" style="fill:none;stroke:#999;stroke-width:3" />
<path d="M1000.99,42.75c7.01-0.43,48.76-3.69,68.3-4.62c11.71-0.56,0.4,8.44-1.15,9.7" style="fill:none;stroke:#999;stroke-width:3" />
<path d="M1015.2,48.45c0.29,0.26,0.61,0.47,0.7,0.82c0.81,3.02,1.84,9.37,2.66,13.81" style="fill:none;stroke:#999;stroke-width:3" />
<path d="M1016.35,49.74c7.15-0.17,30.19-2.58,35.54-3.31c1.34-0.18,2.92,0.89,2.34,2.98c-0.93,3.4-1.72,4.87-3.3,9.47" style="fill:none;stroke:#999;stroke-width:3" />
<path d="M1018.44,61.53c9.06,0.04,26.06-1.96,34.85-1.85" style="fill:none;stroke:#999;stroke-width:3" />
<path d="M995.61,77.7c2.28,0.65,6.46,0.81,8.73,0.65c16.76-1.19,38.35-2.38,65.83-3.95c3.79-0.22,6.07,0.31,7.97,0.63" style="fill:none;stroke:#999;stroke-width:3" />
<path d="M1017.76,68.93c1.19,0.43,1.9,1.96,2.13,2.83c0.24,0.87,0,34.11-0.24,39.56" style="fill:none;stroke:black;stroke-width:3" />
<circle cx="1017.76" cy="68.93" r="5" stroke-width="0" fill="#FF2A00" opacity="0.7" />
<path d="M1143.25,19.18c0.11,0.33,1.49,1.72,1.6,3.81c0.51,10.05,0.31,13.27,0.31,16.69" style="fill:none;stroke:#999;stroke-width:3" />
<path d="M1118.77,24.9c3.99,2.05,10.3,8.44,11.29,11.63" style="fill:none;stroke:#999;stroke-width:3" />
<path d="M1168.51,23.32c0.03,0.32,0.05,0.83-0.05,1.3c-0.61,2.74-4.11,8.74-8.9,12.42" style="fill:none;stroke:#999;stroke-width:3" />
<path d="M1109.82,39.7c-0.21,4.33-3.81,14.48-5.57,17.06" style="fill:none;stroke:#999;stroke-width:3" />
<path d="M1109.99,42.75c7.01-0.43,48.76-3.69,68.3-4.62c11.71-0.56,0.4,8.44-1.15,9.7" style="fill:none;stroke:#999;stroke-width:3" />
<path d="M1124.2,48.45c0.29,0.26,0.61,0.47,0.7,0.82c0.81,3.02,1.84,9.37,2.66,13.81" style="fill:none;stroke:#999;stroke-width:3" />
<path d="M1125.35,49.74c7.15-0.17,30.19-2.58,35.54-3.31c1.34-0.18,2.92,0.89,2.34,2.98c-0.93,3.4-1.72,4.87-3.3,9.47" style="fill:none;stroke:#999;stroke-width:3" />
<path d="M1127.44,61.53c9.06,0.04,26.06-1.96,34.85-1.85" style="fill:none;stroke:#999;stroke-width:3" />
<path d="M1104.6100000000001,77.7c2.28,0.65,6.46,0.81,8.73,0.65c16.76-1.19,38.35-2.38,65.83-3.95c3.79-0.22,6.07,0.31,7.97,0.63" style="fill:none;stroke:#999;stroke-width:3" />
<path d="M1126.76,68.93c1.19,0.43,1.9,1.96,2.13,2.83c0.24,0.87,0,34.11-0.24,39.56" style="fill:none;stroke:#999;stroke-width:3" />
<path d="M1159.32,66.07c1.03,0.38,1.65,1.71,1.86,2.47c0.21,0.76,0,37.56-0.21,42.31" style="fill:none;stroke:black;stroke-width:3" />
<circle cx="1159.32" cy="66.07" r="5" stroke-width="0" fill="#FF2A00" opacity="0.7" />
<path d="M1252.25,19.18c0.11,0.33,1.49,1.72,1.6,3.81c0.51,10.05,0.31,13.27,0.31,16.69" style="fill:none;stroke:#999;stroke-width:3" />
<path d="M1227.77,24.9c3.99,2.05,10.3,8.44,11.29,11.63" style="fill:none;stroke:#999;stroke-width:3" />
<path d="M1277.51,23.32c0.03,0.32,0.05,0.83-0.05,1.3c-0.61,2.74-4.11,8.74-8.9,12.42" style="fill:none;stroke:#999;stroke-width:3" />
<path d="M1218.82,39.7c-0.21,4.33-3.81,14.48-5.57,17.06" style="fill:none;stroke:#999;stroke-width:3" />
<path d="M1218.99,42.75c7.01-0.43,48.76-3.69,68.3-4.62c11.71-0.56,0.4,8.44-1.15,9.7" style="fill:none;stroke:#999;stroke-width:3" />
<path d="M1233.2,48.45c0.29,0.26,0.61,0.47,0.7,0.82c0.81,3.02,1.84,9.37,2.66,13.81" style="fill:none;stroke:#999;stroke-width:3" />
<path d="M1234.35,49.74c7.15-0.17,30.19-2.58,35.54-3.31c1.34-0.18,2.92,0.89,2.34,2.98c-0.93,3.4-1.72,4.87-3.3,9.47" style="fill:none;stroke:#999;stroke-width:3" />
<path d="M1236.44,61.53c9.06,0.04,26.06-1.96,34.85-1.85" style="fill:none;stroke:#999;stroke-width:3" />
<path d="M1213.6100000000001,77.7c2.28,0.65,6.46,0.81,8.73,0.65c16.76-1.19,38.35-2.38,65.83-3.95c3.79-0.22,6.07,0.31,7.97,0.63" style="fill:none;stroke:#999;stroke-width:3" />
<path d="M1235.76,68.93c1.19,0.43,1.9,1.96,2.13,2.83c0.24,0.87,0,34.11-0.24,39.56" style="fill:none;stroke:#999;stroke-width:3" />
<path d="M1268.32,66.07c1.03,0.38,1.65,1.71,1.86,2.47c0.21,0.76,0,37.56-0.21,42.31" style="fill:none;stroke:#999;stroke-width:3" />
<path d="M1238.33,91.9c6.8-0.34,28.13-1.93,31.79-1.93" style="fill:none;stroke:black;stroke-width:3" />
<circle cx="1238.33" cy="91.9" r="5" stroke-width="0" fill="#FF2A00" opacity="0.7" />
<path d="M1361.25,19.18c0.11,0.33,1.49,1.72,1.6,3.81c0.51,10.05,0.31,13.27,0.31,16.69" style="fill:none;stroke:#999;stroke-width:3" />
<path d="M1336.77,24.9c3.99,2.05,10.3,8.44,11.29,11.63" style="fill:none;stroke:#999;stroke-width:3" />
<path d="M1386.51,23.32c0.03,0.32,0.05,0.83-0.05,1.3c-0.61,2.74-4.11,8.74-8.9,12.42" style="fill:none;stroke:#999;stroke-width:3" />
<path d="M1327.82,39.7c-0.21,4.33-3.81,14.48-5.57,17.06" style="fill:none;stroke:#999;stroke-width:3" />
<path d="M1327.99,42.75c7.01-0.43,48.76-3.69,68.3-4.62c11.71-0.56,0.4,8.44-1.15,9.7" style="fill:none;stroke:#999;stroke-width:3" />
<path d="M1342.2,48.45c0.29,0.26,0.61,0.47,0.7,0.82c0.81,3.02,1.84,9.37,2.66,13.81" style="fill:none;stroke:#999;stroke-width:3" />
<path d="M1343.35,49.74c7.15-0.17,30.19-2.58,35.54-3.31c1.34-0.18,2.92,0.89,2.34,2.98c-0.93,3.4-1.72,4.87-3.3,9.47" style="fill:none;stroke:#999;stroke-width:3" />
<path d="M1345.44,61.53c9.06,0.04,26.06-1.96,34.85-1.85" style="fill:none;stroke:#999;stroke-width:3" />
<path d="M1322.6100000000001,77.7c2.28,0.65,6.46,0.81,8.73,0.65c16.76-1.19,38.35-2.38,65.83-3.95c3.79-0.22,6.07,0.31,7.97,0.63" style="fill:none;stroke:#999;stroke-width:3" />
<path d="M1344.76,68.93c1.19,0.43,1.9,1.96,2.13,2.83c0.24,0.87,0,34.11-0.24,39.56" style="fill:none;stroke:#999;stroke-width:3" />
<path d="M1377.32,66.07c1.03,0.38,1.65,1.71,1.86,2.47c0.21,0.76,0,37.56-0.21,42.31" style="fill:none;stroke:#999;stroke-width:3" />
<path d="M1347.33,91.9c6.8-0.34,28.13-1.93,31.79-1.93" style="fill:none;stroke:#999;stroke-width:3" />
<path d="M1346.83,107.52c7.93-0.24,24.66-0.71,31.98-0.95" style="fill:none;stroke:black;stroke-width:3" />
<circle cx="1346.83" cy="107.52" r="5" stroke-width="0" fill="#FF2A00" opacity="0.7" />
</svg>