<svg width="1417px" height="109px" viewBox="0 0 1417px 109px" xmlns="http://www.w3.org/2000/svg" xmlns:xlink="http://www.w3.org/1999/xlink" xml:space="preserve" version="1.1"  baseProfile="full">
<line x1="1" y1="1" x2="1416" y2="1" style="stroke:#ddd;stroke-width:2" />
<line x1="1" y1="1" x2="1" y2="108" style="stroke:#ddd;stroke-width:2" />
<line x1="1" y1="108" x2="1416" y2="108" style="stroke:#ddd;stroke-width:2" />
<line x1="1416" y1="1" x2="1416" y2="108" style="stroke:#ddd;stroke-width:2" />
<line x1="109" y1="1" x2="109" y2="108" style="stroke:#ddd;stroke-width:2" />
<line x1="218" y1="1" x2="218" y2="108" style="stroke:#ddd;stroke-width:2" />
<line x1="327" y1="1" x2="327" y2="108" style="stroke:#ddd;stroke-width:2" />
<line x1="436" y1="1" x2="436" y2="108" style="stroke:#ddd;stroke-width:2" />
<line x1="545" y1="1" x2="545" y2="108" style="stroke:#ddd;stroke-width:2" />
<line x1="654" y1="1" x2="654" y2="108" style="stroke:#ddd;stroke-width:2" />
<line x1="763" y1="1" x2="763" y2="108" style="stroke:#ddd;stroke-width:2" />
<line x1="872" y1="1" x2="872" y2="108" style="stroke:#ddd;stroke-width:2" />
<line x1="981" y1="1" x2="981" y2="108" style="stroke:#ddd;stroke-width:2" />
<line x1="1090" y1="1" x2="1090" y2="108" style="stroke:#ddd;stroke-width:2" />
<line x1="1199" y1="1" x2="1199" y2="108" style="stroke:#ddd;stroke-width:2" />
<line x1="1308" y1="1" x2="1308" y2="108" style="stroke:#ddd;stroke-width:2" />
<line x1="1" y1="54" x2="1416" y2="54" style="stroke:#ddd;stroke-width:2;stroke-dasharray:3 3" />
<line x1="55" y1="1" x2="55" y2="108" style="stroke:#ddd;stroke-width:2;stroke-dasharray:3 3" />
<line x1="164" y1="1" x2="164" y2="108" style="stroke:#ddd;stroke-width:2;stroke-dasharray:3 3" />
<line x1="273" y1="1" x2="273" y2="108" style="stroke:#ddd;stroke-width:2;stroke-dasharray:3 3" />
<line x1="382" y1="1" x2="382" y2="108" style="stroke:#ddd;stroke-width:2;stroke-dasharray:3 3" />
<line x1="491" y1="1" x2="491" y2="108" style="stroke:#ddd;stroke-width:2;stroke-dasharray:3 3" />
<line x1="600" y1="1" x2="600" y2="108" style="stroke:#ddd;stroke-width:2;stroke-dasharray:3 3" />
<line x1="709" y1="1" x2="709" y2="108" style="stroke:#ddd;stroke-width:2;stroke-dasharray:3 3" />
<line x1="818" y1="1" x2="818" y2="108" style="stroke:#ddd;stroke-width:2;stroke-dasharray:3 3" />
<line x1="927" y1="1" x2="927" y2="108" style="stroke:#ddd;stroke-width:2;stroke-dasharray:3 3" />
<line x1="1036" y1="1" x2="1036" y2="108" style="stroke:#ddd;stroke-width:2;stroke-dasharray:3 3" />
<line x1="1145" y1="1" x2="1145" y2="108" style="stroke:#ddd;stroke-width:2;stroke-dasharray:3 3" />
<line x1="1254" y1="1" x2="1254" y2="108" style="stroke:#ddd;stroke-width:2;stroke-dasharray:3 3" />
<line x1="1363" y1="1" x2="1363" y2="108" style="stroke:#ddd;stroke-width:2;stroke-dasharray:3 3" />
<path d="M22.23,67.71c1.24,0.29,4.01,0.36,5.25,0.29c15.55-1,39.15-3.37,57.8-3.53c2.07-0.02,3.31,0.13,4.35,0.28" style="fill:none;stroke:black;stroke-width:3" />
<circle cx="22.23" cy="67.71" r="5" stroke-width="0" fill="#FF2A00" opacity="0.7" />
<path d="M131.23,67.71c1.24,0.29,4.01,0.36,5.25,0.29c15.55-1,39.15-3.37,57.8-3.53c2.07-0.02,3.31,0.13,4.35,0.28" style="fill:none;stroke:#999;stroke-width:3" />
<path d="M153.18,67.04c0.08,0.61,0.17,1.58-0.16,2.46C151.03,74.68,139.61,86.06,124.0,93.03" style="fill:none;stroke:black;stroke-width:3" />
<circle cx="153.18" cy="67.04" r="5" stroke-width="0" fill="#FF2A00" opacity="0.7" />
<path d="M240.23,67.71c1.24,0.29,4.01,0.36,5.25,0.29c15.55-1,39.15-3.37,57.8-3.53c2.07-0.02,3.31,0.13,4.35,0.28" style="fill:none;stroke:#999;stroke-width:3" />
<path d="M262.18,67.04c0.08,0.61,0.17,1.58-0.16,2.46C260.03,74.68,248.61,86.06,233.0,93.03" style="fill:none;stroke:#999;stroke-width:3" />
<path d="M256.3,80.07c0.49,0.39,1.09,1.98,1.17,2.5c0.61,3.74,1.71,9.89,2.54,16.97" style="fill:none;stroke:black;stroke-width:3" />
<circle cx="256.3" cy="80.07" r="5" stroke-width="0" fill="#FF2A00" opacity="0.7" />
<path d="M349.23,67.71c1.24,0.29,4.01,0.36,5.25,0.29c15.55-1,39.15-3.37,57.8-3.53c2.07-0.02,3.31,0.13,4.35,0.28" style="fill:none;stroke:#999;stroke-width:3" />
<path d="M371.18,67.04c0.08,0.61,0.17,1.58-0.16,2.46C369.03,74.68,357.61,86.06,342.0,93.03" style="fill:none;stroke:#999;stroke-width:3" />
<path d="M365.3,80.07c0.49,0.39,1.09,1.98,1.17,2.5c0.61,3.74,1.71,9.89,2.54,16.97" style="fill:none;stroke:#999;stroke-width:3" />
<path d="M366.26,81.55c8.97-0.77,31.89-3.35,38.01-3.47c2.53-0.05,2.97,1.99,2.68,3.14C406.0,84.93,404.3,88.75,403.0,95.32" style="fill:none;stroke:black;stroke-width:3" />
<circle cx="366.26" cy="81.55" r="5" stroke-width="0" fill="#FF2A00" opacity="0.7" />
<path d="M458.23,67.71c1.24,0.29,4.01,0.36,5.25,0.29c15.55-1,39.15-3.37,57.8-3.53c2.07-0.02,3.31,0.13,4.35,0.28" style="fill:none;stroke:#999;stroke-width:3" />
<path d="M480.18,67.04c0.08,0.61,0.17,1.58-0.16,2.46C478.03,74.68,466.61,86.06,451.0,93.03" style="fill:none;stroke:#999;stroke-width:3" />
<path d="M474.3,80.07c0.49,0.39,1.09,1.98,1.17,2.5c0.61,3.74,1.71,9.89,2.54,16.97" style="fill:none;stroke:#999;stroke-width:3" />
<path d="M475.26,81.55c8.97-0.77,31.89-3.35,38.01-3.47c2.53-0.05,2.97,1.99,2.68,3.14C515.0,84.93,513.3,88.75,512.0,95.32" style="fill:none;stroke:#999;stroke-width:3" />
<path d="M477.81,97.4c7.17-0.31,27.9-1.84,37.05-1.93" style="fill:none;stroke:black;stroke-width:3" />
<circle cx="477.81" cy="97.4" r="5" stroke-width="0" fill="#FF2A00" opacity="0.7" />
<path d="M567.23,67.71c1.24,0.29,4.01,0.36,5.25,0.29c15.55-1,39.15-3.37,57.8-3.53c2.07-0.02,3.31,0.13,4.35,0.28" style="fill:none;stroke:#999;stroke-width:3" />
<path d="M589.1800000000001,67.04c0.08,0.61,0.17,1.58-0.16,2.46C587.03,74.68,575.61,86.06,560.0,93.03" style="fill:none;stroke:#999;stroke-width:3" />
<path d="M583.3,80.07c0.49,0.39,1.09,1.98,1.17,2.5c0.61,3.74,1.71,9.89,2.54,16.97" style="fill:none;stroke:#999;stroke-width:3" />
<path d="M584.26,81.55c8.97-0.77,31.89-3.35,38.01-3.47c2.53-0.05,2.97,1.99,2.68,3.14C624.0,84.93,622.3,88.75,621.0,95.32" style="fill:none;stroke:#999;stroke-width:3" />
<path d="M586.81,97.4c7.17-0.31,27.9-1.84,37.05-1.93" style="fill:none;stroke:#999;stroke-width:3" />
<path d="M570.25,12.2c3.68,1.29,9.51,4.45,10.42,6.48" style="fill:none;stroke:black;stroke-width:3" />
<circle cx="570.25" cy="12.2" r="5" stroke-width="0" fill="#FF2A00" opacity="0.7" />
<path d="M676.23,67.71c1.24,0.29,4.01,0.36,5.25,0.29c15.55-1,39.15-3.37,57.8-3.53c2.07-0.02,3.31,0.13,4.35,0.28" style="fill:none;stroke:#999;stroke-width:3" />
<path d="M698.1800000000001,67.04c0.08,0.61,0.17,1.58-0.16,2.46C696.03,74.68,684.61,86.06,669.0,93.03" style="fill:none;stroke:#999;stroke-width:3" />
<path d="M692.3,80.07c0.49,0.39,1.09,1.98,1.17,2.5c0.61,3.74,1.71,9.89,2.54,16.97" style="fill:none;stroke:#999;stroke-width:3" />
<path d="M693.26,81.55c8.97-0.77,31.89-3.35,38.01-3.47c2.53-0.05,2.97,1.99,2.68,3.14C733.0,84.93,731.3,88.75,730.0,95.32" style="fill:none;stroke:#999;stroke-width:3" />
<path d="M695.81,97.4c7.17-0.31,27.9-1.84,37.05-1.93" style="fill:none;stroke:#999;stroke-width:3" />
<path d="M679.25,12.2c3.68,1.29,9.51,4.45,10.42,6.48" style="fill:none;stroke:#999;stroke-width:3" />
<path d="M674.13,26.31c3.81,1.1,9.83,4.99,10.78,6.69" style="fill:none;stroke:black;stroke-width:3" />
<circle cx="674.13" cy="26.31" r="5" stroke-width="0" fill="#FF2A00" opacity="0.7" />
<path d="M785.23,67.71c1.24,0.29,4.01,0.36,5.25,0.29c15.55-1,39.15-3.37,57.8-3.53c2.07-0.02,3.31,0.13,4.35,0.28" style="fill:none;stroke:#999;stroke-width:3" />
<path d="M807.1800000000001,67.04c0.08,0.61,0.17,1.58-0.16,2.46C805.03,74.68,793.61,86.06,778.0,93.03" style="fill:none;stroke:#999;stroke-width:3" />
<path d="M801.3,80.07c0.49,0.39,1.09,1.98,1.17,2.5c0.61,3.74,1.71,9.89,2.54,16.97" style="fill:none;stroke:#999;stroke-width:3" />
<path d="M802.26,81.55c8.97-0.77,31.89-3.35,38.01-3.47c2.53-0.05,2.97,1.99,2.68,3.14C842.0,84.93,840.3,88.75,839.0,95.32" style="fill:none;stroke:#999;stroke-width:3" />
<path d="M804.81,97.4c7.17-0.31,27.9-1.84,37.05-1.93" style="fill:none;stroke:#999;stroke-width:3" />
<path d="M788.25,12.2c3.68,1.29,9.51,4.45,10.42,6.48" style="fill:none;stroke:#999;stroke-width:3" />
<path d="M783.13,26.31c3.81,1.1,9.83,4.99,10.78,6.69" style="fill:none;stroke:#999;stroke-width:3" />
<path d="M781.75,55.99c1.67,1.16,3.68,1.2,4.73-0.22c3.06-4.16,6.73-10.81,9.51-16.12" style="fill:none;stroke:black;stroke-width:3" />
<circle cx="781.75" cy="55.99" r="5" stroke-width="0" fill="#FF2A00" opacity="0.7" />
<path d="M894.23,67.71c1.24,0.29,4.01,0.36,5.25,0.29c15.55-1,39.15-3.37,57.8-3.53c2.07-0.02,3.31,0.13,4.35,0.28" style="fill:none;stroke:#999;stroke-width:3" />
<path d="M916.1800000000001,67.04c0.08,0.61,0.17,1.58-0.16,2.46C914.03,74.68,902.61,86.06,887.0,93.03" style="fill:none;stroke:#999;stroke-width:3" />
<path d="M910.3,80.07c0.49,0.39,1.09,1.98,1.17,2.5c0.61,3.74,1.71,9.89,2.54,16.97" style="fill:none;stroke:#999;stroke-width:3" />
<path d="M911.26,81.55c8.97-0.77,31.89-3.35,38.01-3.47c2.53-0.05,2.97,1.99,2.68,3.14C951.0,84.93,949.3,88.75,948.0,95.32" style="fill:none;stroke:#999;stroke-width:3" />
<path d="M913.81,97.4c7.17-0.31,27.9-1.84,37.05-1.93" style="fill:none;stroke:#999;stroke-width:3" />
<path d="M897.25,12.2c3.68,1.29,9.51,4.45,10.42,6.48" style="fill:none;stroke:#999;stroke-width:3" />
<path d="M892.13,26.31c3.81,1.1,9.83,4.99,10.78,6.69" style="fill:none;stroke:#999;stroke-width:3" />
<path d="M890.75,55.99c1.67,1.16,3.68,1.2,4.73-0.22c3.06-4.16,6.73-10.81,9.51-16.12" style="fill:none;stroke:#999;stroke-width:3" />
<path d="M918.51,17.27c0.51,0.77,1.31,2.87,1.25,4.49C919.25,35.2,917.0,45.7,909.21,57.7" style="fill:none;stroke:black;stroke-width:3" />
<circle cx="918.51" cy="17.27" r="5" stroke-width="0" fill="#FF2A00" opacity="0.7" />
<path d="M1003.23,67.71c1.24,0.29,4.01,0.36,5.25,0.29c15.55-1,39.15-3.37,57.8-3.53c2.07-0.02,3.31,0.13,4.35,0.28" style="fill:none;stroke:#999;stroke-width:3" />
<path d="M1025.18,67.04c0.08,0.61,0.17,1.58-0.16,2.46C1023.03,74.68,1011.61,86.06,996.0,93.03" style="fill:none;stroke:#999;stroke-width:3" />
<path d="M1019.3,80.07c0.49,0.39,1.09,1.98,1.17,2.5c0.61,3.74,1.71,9.89,2.54,16.97" style="fill:none;stroke:#999;stroke-width:3" />
<path d="M1020.26,81.55c8.97-0.77,31.89-3.35,38.01-3.47c2.53-0.05,2.97,1.99,2.68,3.14C1060.0,84.93,1058.3,88.75,1057.0,95.32" style="fill:none;stroke:#999;stroke-width:3" />
<path d="M1022.81,97.4c7.17-0.31,27.9-1.84,37.05-1.93" style="fill:none;stroke:#999;stroke-width:3" />
<path d="M1006.25,12.2c3.68,1.29,9.51,4.45,10.42,6.48" style="fill:none;stroke:#999;stroke-width:3" />
<path d="M1001.13,26.31c3.81,1.1,9.83,4.99,10.78,6.69" style="fill:none;stroke:#999;stroke-width:3" />
<path d="M999.75,55.99c1.67,1.16,3.68,1.2,4.73-0.22c3.06-4.16,6.73-10.81,9.51-16.12" style="fill:none;stroke:#999;stroke-width:3" />
<path d="M1027.51,17.27c0.51,0.77,1.31,2.87,1.25,4.49C1028.25,35.2,1026.0,45.7,1018.21,57.7" style="fill:none;stroke:#999;stroke-width:3" />
<path d="M1028.78,19.59c12.88-1.43,27.83-3.21,33.17-3.33c8.38-0.19,2.3,5.44-1.12,7.61" style="fill:none;stroke:black;stroke-width:3" />
<circle cx="1028.78" cy="19.59" r="5" stroke-width="0" fill="#FF2A00" opacity="0.7" />
<path d="M1112.23,67.71c1.24,0.29,4.01,0.36,5.25,0.29c15.55-1,39.15-3.37,57.8-3.53c2.07-0.02,3.31,0.13,4.35,0.28" style="fill:none;stroke:#999;stroke-width:3" />
<path d="M1134.18,67.04c0.08,0.61,0.17,1.58-0.16,2.46C1132.03,74.68,1120.6100000000001,86.06,1105.0,93.03" style="fill:none;stroke:#999;stroke-width:3" />
<path d="M1128.3,80.07c0.49,0.39,1.09,1.98,1.17,2.5c0.61,3.74,1.71,9.89,2.54,16.97" style="fill:none;stroke:#999;stroke-width:3" />
<path d="M1129.26,81.55c8.97-0.77,31.89-3.35,38.01-3.47c2.53-0.05,2.97,1.99,2.68,3.14C1169.0,84.93,1167.3,88.75,1166.0,95.32" style="fill:none;stroke:#999;stroke-width:3" />
<path d="M1131.81,97.4c7.17-0.31,27.9-1.84,37.05-1.93" style="fill:none;stroke:#999;stroke-width:3" />
<path d="M1115.25,12.2c3.68,1.29,9.51,4.45,10.42,6.48" style="fill:none;stroke:#999;stroke-width:3" />
<path d="M1110.13,26.31c3.81,1.1,9.83,4.99,10.78,6.69" style="fill:none;stroke:#999;stroke-width:3" />
<path d="M1108.75,55.99c1.67,1.16,3.68,1.2,4.73-0.22c3.06-4.16,6.73-10.81,9.51-16.12" style="fill:none;stroke:#999;stroke-width:3" />
<path d="M1136.51,17.27c0.51,0.77,1.31,2.87,1.25,4.49C1137.25,35.2,1135.0,45.7,1127.21,57.7" style="fill:none;stroke:#999;stroke-width:3" />
<path d="M1137.78,19.59c12.88-1.43,27.83-3.21,33.17-3.33c8.38-0.19,2.3,5.44-1.12,7.61" style="fill:none;stroke:#999;stroke-width:3" />
<path d="M1154.66,8.23c0.89,0.32,1.42,1.45,1.6,2.1c0.18,0.65-0.06,13.62-0.06,20.24" style="fill:none;stroke:black;stroke-width:3" />
<circle cx="1154.66" cy="8.23" r="5" stroke-width="0" fill="#FF2A00" opacity="0.7" />
<path d="M1221.23,67.71c1.24,0.29,4.01,0.36,5.25,0.29c15.55-1,39.15-3.37,57.8-3.53c2.07-0.02,3.31,0.13,4.35,0.28" style="fill:none;stroke:#999;stroke-width:3" />
<path d="M1243.18,67.04c0.08,0.61,0.17,1.58-0.16,2.46C1241.03,74.68,1229.6100000000001,86.06,1214.0,93.03" style="fill:none;stroke:#999;stroke-width:3" />
<path d="M1237.3,80.07c0.49,0.39,1.09,1.98,1.17,2.5c0.61,3.74,1.71,9.89,2.54,16.97" style="fill:none;stroke:#999;stroke-width:3" />
<path d="M1238.26,81.55c8.97-0.77,31.89-3.35,38.01-3.47c2.53-0.05,2.97,1.99,2.68,3.14C1278.0,84.93,1276.3,88.75,1275.0,95.32" style="fill:none;stroke:#999;stroke-width:3" />
<path d="M1240.81,97.4c7.17-0.31,27.9-1.84,37.05-1.93" style="fill:none;stroke:#999;stroke-width:3" />
<path d="M1224.25,12.2c3.68,1.29,9.51,4.45,10.42,6.48" style="fill:none;stroke:#999;stroke-width:3" />
<path d="M1219.13,26.31c3.81,1.1,9.83,4.99,10.78,6.69" style="fill:none;stroke:#999;stroke-width:3" />
<path d="M1217.75,55.99c1.67,1.16,3.68,1.2,4.73-0.22c3.06-4.16,6.73-10.81,9.51-16.12" style="fill:none;stroke:#999;stroke-width:3" />
<path d="M1245.51,17.27c0.51,0.77,1.31,2.87,1.25,4.49C1246.25,35.2,1244.0,45.7,1236.21,57.7" style="fill:none;stroke:#999;stroke-width:3" />
<path d="M1246.78,19.59c12.88-1.43,27.83-3.21,33.17-3.33c8.38-0.19,2.3,5.44-1.12,7.61" style="fill:none;stroke:#999;stroke-width:3" />
<path d="M1263.66,8.23c0.89,0.32,1.42,1.45,1.6,2.1c0.18,0.65-0.06,13.62-0.06,20.24" style="fill:none;stroke:#999;stroke-width:3" />
<path d="M1253.78,33.14c0.89,0.2,1.46,0.14,3.26-0.07c2.67-0.3,14.95-3.01,16.58-2.69s3.48,0.88,1.88,3.32c-4.75,7.25-17.19,21.01-30,24" style="fill:none;stroke:black;stroke-width:3" />
<circle cx="1253.78" cy="33.14" r="5" stroke-width="0" fill="#FF2A00" opacity="0.7" />
<path d="M1330.23,67.71c1.24,0.29,4.01,0.36,5.25,0.29c15.55-1,39.15-3.37,57.8-3.53c2.07-0.02,3.31,0.13,4.35,0.28" style="fill:none;stroke:#999;stroke-width:3" />
<path d="M1352.18,67.04c0.08,0.61,0.17,1.58-0.16,2.46C1350.03,74.68,1338.6100000000001,86.06,1323.0,93.03" style="fill:none;stroke:#999;stroke-width:3" />
<path d="M1346.3,80.07c0.49,0.39,1.09,1.98,1.17,2.5c0.61,3.74,1.71,9.89,2.54,16.97" style="fill:none;stroke:#999;stroke-width:3" />
<path d="M1347.26,81.55c8.97-0.77,31.89-3.35,38.01-3.47c2.53-0.05,2.97,1.99,2.68,3.14C1387.0,84.93,1385.3,88.75,1384.0,95.32" style="fill:none;stroke:#999;stroke-width:3" />
<path d="M1349.81,97.4c7.17-0.31,27.9-1.84,37.05-1.93" style="fill:none;stroke:#999;stroke-width:3" />
<path d="M1333.25,12.2c3.68,1.29,9.51,4.45,10.42,6.48" style="fill:none;stroke:#999;stroke-width:3" />
<path d="M1328.13,26.31c3.81,1.1,9.83,4.99,10.78,6.69" style="fill:none;stroke:#999;stroke-width:3" />
<path d="M1326.75,55.99c1.67,1.16,3.68,1.2,4.73-0.22c3.06-4.16,6.73-10.81,9.51-16.12" style="fill:none;stroke:#999;stroke-width:3" />
<path d="M1354.51,17.27c0.51,0.77,1.31,2.87,1.25,4.49C1355.25,35.2,1353.0,45.7,1345.21,57.7" style="fill:none;stroke:#999;stroke-width:3" />
<path d="M1355.78,19.59c12.88-1.43,27.83-3.21,33.17-3.33c8.38-0.19,2.3,5.44-1.12,7.61" style="fill:none;stroke:#999;stroke-width:3" />
<path d="M1372.66,8.23c0.89,0.32,1.42,1.45,1.6,2.1c0.18,0.65-0.06,13.62-0.06,20.24" style="fill:none;stroke:#999;stroke-width:3" />
<path d="M1362.78,33.14c0.89,0.2,1.46,0.14,3.26-0.07c2.67-0.3,14.95-3.01,16.58-2.69s3.48,0.88,1.88,3.32c-4.75,7.25-17.19,21.01-30,24" style="fill:none;stroke:#999;stroke-width:3" />
<path d="M1361.98,38.4c4.77,0.05,21.52,11.3,33.61,15.66c1.68,0.6,3.05,0.72,4.69,0.97" style="fill:none;stroke:black;stroke-width:3" />
<circle cx="1361.98" cy="38.4" r="5" stroke-width="0" fill="#FF2A00" opacity="0.7" />
</svg>