<svg width="872px" height="109px" viewBox="0 0 872px 109px" xmlns="http://www.w3.org/2000/svg" xmlns:xlink="http://www.w3.org/1999/xlink" xml:space="preserve" version="1.1"  baseProfile="full">
<line x1="1" y1="1" x2="871" y2="1" style="stroke:#ddd;stroke-width:2" />
<line x1="1" y1="1" x2="1" y2="108" style="stroke:#ddd;stroke-width:2" />
<line x1="1" y1="108" x2="871" y2="108" style="stroke:#ddd;stroke-width:2" />
<line x1="871" y1="1" x2="871" y2="108" style="stroke:#ddd;stroke-width:2" />
<line x1="109" y1="1" x2="109" y2="108" style="stroke:#ddd;stroke-width:2" />
<line x1="218" y1="1" x2="218" y2="108" style="stroke:#ddd;stroke-width:2" />
<line x1="327" y1="1" x2="327" y2="108" style="stroke:#ddd;stroke-width:2" />
<line x1="436" y1="1" x2="436" y2="108" style="stroke:#ddd;stroke-width:2" />
<line x1="545" y1="1" x2="545" y2="108" style="stroke:#ddd;stroke-width:2" />
<line x1="654" y1="1" x2="654" y2="108" style="stroke:#ddd;stroke-width:2" />
<line x1="763" y1="1" x2="763" y2="108" style="stroke:#ddd;stroke-width:2" />
<line x1="1" y1="54" x2="871" y2="54" style="stroke:#ddd;stroke-width:2;stroke-dasharray:3 3" />
<line x1="55" y1="1" x2="55" y2="108" style="stroke:#ddd;stroke-width:2;stroke-dasharray:3 3" />
<line x1="164" y1="1" x2="164" y2="108" style="stroke:#ddd;stroke-width:2;stroke-dasharray:3 3" />
<line x1="273" y1="1" x2="273" y2="108" style="stroke:#ddd;stroke-width:2;stroke-dasharray:3 3" />
<line x1="382" y1="1" x2="382" y2="108" style="stroke:#ddd;stroke-width:2;stroke-dasharray:3 3" />
<line x1="491" y1="1" x2="491" y2="108" style="stroke:#ddd;stroke-width:2;stroke-dasharray:3 3" />
<line x1="600" y1="1" x2="600" y2="108" style="stroke:#ddd;stroke-width:2;stroke-dasharray:3 3" />
<line x1="709" y1="1" x2="709" y2="108" style="stroke:#ddd;stroke-width:2;stroke-dasharray:3 3" />
<line x1="818" y1="1" x2="818" y2="108" style="stroke:#ddd;stroke-width:2;stroke-dasharray:3 3" />
<path d="M24.08,15c2.48,1.76,5.13,4.66,7.25,7.75" style="fill:none;stroke:black;stroke-width:3" />
<circle cx="24.08" cy="15.0" r="5" stroke-width="0" fill="#FF2A00" opacity="0.7" />
<path d="M133.07999999999998,15c2.48,1.76,5.13,4.66,7.25,7.75" style="fill:none;stroke:#999;stroke-width:3" />
<path d="M123.58,35.75c2.82,0.34,5.4-0.21,7.97-1.13c4.73-1.71,11.21-4.36,15.53-6.12c2.42-0.98,3.89,0.43,2.5,2.75C143.88,40.75,132.25,57.5,121.83,66" style="fill:none;stroke:black;stroke-width:3" />
<circle cx="123.58" cy="35.75" r="5" stroke-width="0" fill="#FF2A00" opacity="0.7" />
<path d="M242.07999999999998,15c2.48,1.76,5.13,4.66,7.25,7.75" style="fill:none;stroke:#999;stroke-width:3" />
<path d="M232.57999999999998,35.75c2.82,0.34,5.4-0.21,7.97-1.13c4.73-1.71,11.21-4.36,15.53-6.12c2.42-0.98,3.89,0.43,2.5,2.75C252.88,40.75,241.25,57.5,230.82999999999998,66" style="fill:none;stroke:#999;stroke-width:3" />
<path d="M247.25,50.36c1.07,1.07,1.52,2.39,1.52,4.14c0,6.19,0.03,21.88,0.04,32.12c0.01,4.56,0.01,8.04,0.01,9.12" style="fill:none;stroke:black;stroke-width:3" />
<circle cx="247.25" cy="50.36" r="5" stroke-width="0" fill="#FF2A00" opacity="0.7" />
<path d="M351.08,15c2.48,1.76,5.13,4.66,7.25,7.75" style="fill:none;stroke:#999;stroke-width:3" />
<path d="M341.58,35.75c2.82,0.34,5.4-0.21,7.97-1.13c4.73-1.71,11.21-4.36,15.53-6.12c2.42-0.98,3.89,0.43,2.5,2.75C361.88,40.75,350.25,57.5,339.83,66" style="fill:none;stroke:#999;stroke-width:3" />
<path d="M356.25,50.36c1.07,1.07,1.52,2.39,1.52,4.14c0,6.19,0.03,21.88,0.04,32.12c0.01,4.56,0.01,8.04,0.01,9.12" style="fill:none;stroke:#999;stroke-width:3" />
<path d="M361.58,55c2.82,1.94,5.83,4.85,8.25,8.25" style="fill:none;stroke:black;stroke-width:3" />
<circle cx="361.58" cy="55.0" r="5" stroke-width="0" fill="#FF2A00" opacity="0.7" />
<path d="M460.08,15c2.48,1.76,5.13,4.66,7.25,7.75" style="fill:none;stroke:#999;stroke-width:3" />
<path d="M450.58,35.75c2.82,0.34,5.4-0.21,7.97-1.13c4.73-1.71,11.21-4.36,15.53-6.12c2.42-0.98,3.89,0.43,2.5,2.75C470.88,40.75,459.25,57.5,448.83,66" style="fill:none;stroke:#999;stroke-width:3" />
<path d="M465.25,50.36c1.07,1.07,1.52,2.39,1.52,4.14c0,6.19,0.03,21.88,0.04,32.12c0.01,4.56,0.01,8.04,0.01,9.12" style="fill:none;stroke:#999;stroke-width:3" />
<path d="M470.58,55c2.82,1.94,5.83,4.85,8.25,8.25" style="fill:none;stroke:#999;stroke-width:3" />
<path d="M512.51,13.25c-0.26,1.62-1.1,2.67-2.17,3.55c-5.46,4.45-11.36,8.91-20.59,12.95" style="fill:none;stroke:black;stroke-width:3" />
<circle cx="512.51" cy="13.25" r="5" stroke-width="0" fill="#FF2A00" opacity="0.7" />
<path d="M569.0799999999999,15c2.48,1.76,5.13,4.66,7.25,7.75" style="fill:none;stroke:#999;stroke-width:3" />
<path d="M559.5799999999999,35.75c2.82,0.34,5.4-0.21,7.97-1.13c4.73-1.71,11.21-4.36,15.53-6.12c2.42-0.98,3.89,0.43,2.5,2.75C579.88,40.75,568.25,57.5,557.8299999999999,66" style="fill:none;stroke:#999;stroke-width:3" />
<path d="M574.25,50.36c1.07,1.07,1.52,2.39,1.52,4.14c0,6.19,0.03,21.88,0.04,32.12c0.01,4.56,0.01,8.04,0.01,9.12" style="fill:none;stroke:#999;stroke-width:3" />
<path d="M579.5799999999999,55c2.82,1.94,5.83,4.85,8.25,8.25" style="fill:none;stroke:#999;stroke-width:3" />
<path d="M621.51,13.25c-0.26,1.62-1.1,2.67-2.17,3.55c-5.46,4.45-11.36,8.91-20.59,12.95" style="fill:none;stroke:#999;stroke-width:3" />
<path d="M596.16,30.75c1.23,1.23,1.5,3.38,1.5,5.25c0,2.25,0.09,41.25,0.09,44.75s-0.25,4.5,3,2S,613.41,73.5,615.41,72" style="fill:none;stroke:black;stroke-width:3" />
<circle cx="596.16" cy="30.75" r="5" stroke-width="0" fill="#FF2A00" opacity="0.7" />
<path d="M678.0799999999999,15c2.48,1.76,5.13,4.66,7.25,7.75" style="fill:none;stroke:#999;stroke-width:3" />
<path d="M668.5799999999999,35.75c2.82,0.34,5.4-0.21,7.97-1.13c4.73-1.71,11.21-4.36,15.53-6.12c2.42-0.98,3.89,0.43,2.5,2.75C688.88,40.75,677.25,57.5,666.8299999999999,66" style="fill:none;stroke:#999;stroke-width:3" />
<path d="M683.25,50.36c1.07,1.07,1.52,2.39,1.52,4.14c0,6.19,0.03,21.88,0.04,32.12c0.01,4.56,0.01,8.04,0.01,9.12" style="fill:none;stroke:#999;stroke-width:3" />
<path d="M688.5799999999999,55c2.82,1.94,5.83,4.85,8.25,8.25" style="fill:none;stroke:#999;stroke-width:3" />
<path d="M730.51,13.25c-0.26,1.62-1.1,2.67-2.17,3.55c-5.46,4.45-11.36,8.91-20.59,12.95" style="fill:none;stroke:#999;stroke-width:3" />
<path d="M705.16,30.75c1.23,1.23,1.5,3.38,1.5,5.25c0,2.25,0.09,41.25,0.09,44.75s-0.25,4.5,3,2S,613.41,73.5,615.41,72" style="fill:none;stroke:#999;stroke-width:3" />
<path d="M709.79,46.38c2.41,0.57,4.82,0.3,7.23-0.3c6.33-1.14,16.06-3.82,21.97-4.48c2.16-0.49,4.31-0.48,6.46,0.04" style="fill:none;stroke:black;stroke-width:3" />
<circle cx="709.79" cy="46.38" r="5" stroke-width="0" fill="#FF2A00" opacity="0.7" />
<path d="M787.0799999999999,15c2.48,1.76,5.13,4.66,7.25,7.75" style="fill:none;stroke:#999;stroke-width:3" />
<path d="M777.5799999999999,35.75c2.82,0.34,5.4-0.21,7.97-1.13c4.73-1.71,11.21-4.36,15.53-6.12c2.42-0.98,3.89,0.43,2.5,2.75C797.88,40.75,786.25,57.5,775.8299999999999,66" style="fill:none;stroke:#999;stroke-width:3" />
<path d="M792.25,50.36c1.07,1.07,1.52,2.39,1.52,4.14c0,6.19,0.03,21.88,0.04,32.12c0.01,4.56,0.01,8.04,0.01,9.12" style="fill:none;stroke:#999;stroke-width:3" />
<path d="M797.5799999999999,55c2.82,1.94,5.83,4.85,8.25,8.25" style="fill:none;stroke:#999;stroke-width:3" />
<path d="M839.51,13.25c-0.26,1.62-1.1,2.67-2.17,3.55c-5.46,4.45-11.36,8.91-20.59,12.95" style="fill:none;stroke:#999;stroke-width:3" />
<path d="M814.16,30.75c1.23,1.23,1.5,3.38,1.5,5.25c0,2.25,0.09,41.25,0.09,44.75s-0.25,4.5,3,2S,613.41,73.5,615.41,72" style="fill:none;stroke:#999;stroke-width:3" />
<path d="M818.79,46.38c2.41,0.57,4.82,0.3,7.23-0.3c6.33-1.14,16.06-3.82,21.97-4.48c2.16-0.49,4.31-0.48,6.46,0.04" style="fill:none;stroke:#999;stroke-width:3" />
<path d="M832.91,25.5c1.11,1.11,1.72,2.77,1.85,3.98c2.37,23.4,8,48.02,21,59.77c5.83,5.27,6,1.25,5.03-7.09" style="fill:none;stroke:black;stroke-width:3" />
<circle cx="832.91" cy="25.5" r="5" stroke-width="0" fill="#FF2A00" opacity="0.7" />
</svg>