<svg width="1962px" height="109px" viewBox="0 0 1962px 109px" xmlns="http://www.w3.org/2000/svg" xmlns:xlink="http://www.w3.org/1999/xlink" xml:space="preserve" version="1.1"  baseProfile="full">
<line x1="1" y1="1" x2="1961" y2="1" style="stroke:#ddd;stroke-width:2" />
<line x1="1" y1="1" x2="1" y2="108" style="stroke:#ddd;stroke-width:2" />
<line x1="1" y1="108" x2="1961" y2="108" style="stroke:#ddd;stroke-width:2" />
<line x1="1961" y1="1" x2="1961" y2="108" style="stroke:#ddd;stroke-width:2" />
<line x1="109" y1="1" x2="109" y2="108" style="stroke:#ddd;stroke-width:2" />
<line x1="218" y1="1" x2="218" y2="108" style="stroke:#ddd;stroke-width:2" />
<line x1="327" y1="1" x2="327" y2="108" style="stroke:#ddd;stroke-width:2" />
<line x1="436" y1="1" x2="436" y2="108" style="stroke:#ddd;stroke-width:2" />
<line x1="545" y1="1" x2="545" y2="108" style="stroke:#ddd;stroke-width:2" />
<line x1="654" y1="1" x2="654" y2="108" style="stroke:#ddd;stroke-width:2" />
<line x1="763" y1="1" x2="763" y2="108" style="stroke:#ddd;stroke-width:2" />
<line x1="872" y1="1" x2="872" y2="108" style="stroke:#ddd;stroke-width:2" />
<line x1="981" y1="1" x2="981" y2="108" style="stroke:#ddd;stroke-width:2" />
<line x1="1090" y1="1" x2="1090" y2="108" style="stroke:#ddd;stroke-width:2" />
<line x1="1199" y1="1" x2="1199" y2="108" style="stroke:#ddd;stroke-width:2" />
<line x1="1308" y1="1" x2="1308" y2="108" style="stroke:#ddd;stroke-width:2" />
<line x1="1417" y1="1" x2="1417" y2="108" style="stroke:#ddd;stroke-width:2" />
<line x1="1526" y1="1" x2="1526" y2="108" style="stroke:#ddd;stroke-width:2" />
<line x1="1635" y1="1" x2="1635" y2="108" style="stroke:#ddd;stroke-width:2" />
<line x1="1744" y1="1" x2="1744" y2="108" style="stroke:#ddd;stroke-width:2" />
<line x1="1853" y1="1" x2="1853" y2="108" style="stroke:#ddd;stroke-width:2" />
<line x1="1" y1="54" x2="1961" y2="54" style="stroke:#ddd;stroke-width:2;stroke-dasharray:3 3" />
<line x1="55" y1="1" x2="55" y2="108" style="stroke:#ddd;stroke-width:2;stroke-dasharray:3 3" />
<line x1="164" y1="1" x2="164" y2="108" style="stroke:#ddd;stroke-width:2;stroke-dasharray:3 3" />
<line x1="273" y1="1" x2="273" y2="108" style="stroke:#ddd;stroke-width:2;stroke-dasharray:3 3" />
<line x1="382" y1="1" x2="382" y2="108" style="stroke:#ddd;stroke-width:2;stroke-dasharray:3 3" />
<line x1="491" y1="1" x2="491" y2="108" style="stroke:#ddd;stroke-width:2;stroke-dasharray:3 3" />
<line x1="600" y1="1" x2="600" y2="108" style="stroke:#ddd;stroke-width:2;stroke-dasharray:3 3" />
<line x1="709" y1="1" x2="709" y2="108" style="stroke:#ddd;stroke-width:2;stroke-dasharray:3 3" />
<line x1="818" y1="1" x2="818" y2="108" style="stroke:#ddd;stroke-width:2;stroke-dasharray:3 3" />
<line x1="927" y1="1" x2="927" y2="108" style="stroke:#ddd;stroke-width:2;stroke-dasharray:3 3" />
<line x1="1036" y1="1" x2="1036" y2="108" style="stroke:#ddd;stroke-width:2;stroke-dasharray:3 3" />
<line x1="1145" y1="1" x2="1145" y2="108" style="stroke:#ddd;stroke-width:2;stroke-dasharray:3 3" />
<line x1="1254" y1="1" x2="1254" y2="108" style="stroke:#ddd;stroke-width:2;stroke-dasharray:3 3" />
<line x1="1363" y1="1" x2="1363" y2="108" style="stroke:#ddd;stroke-width:2;stroke-dasharray:3 3" />
<line x1="1472" y1="1" x2="1472" y2="108" style="stroke:#ddd;stroke-width:2;stroke-dasharray:3 3" />
<line x1="1581" y1="1" x2="1581" y2="108" style="stroke:#ddd;stroke-width:2;stroke-dasharray:3 3" />
<line x1="1690" y1="1" x2="1690" y2="108" style="stroke:#ddd;stroke-width:2;stroke-dasharray:3 3" />
<line x1="1799" y1="1" x2="1799" y2="108" style="stroke:#ddd;stroke-width:2;stroke-dasharray:3 3" />
<line x1="1908" y1="1" x2="1908" y2="108" style="stroke:#ddd;stroke-width:2;stroke-dasharray:3 3" />
<path d="M19.33,16.5c2.9,2.18,6.01,5.44,8.5,9.25" style="fill:none;stroke:black;stroke-width:3" />
<circle cx="19.33" cy="16.5" r="5" stroke-width="0" fill="#FF2A00" opacity="0.7" />
<path d="M128.32999999999998,16.5c2.9,2.18,6.01,5.44,8.5,9.25" style="fill:none;stroke:#999;stroke-width:3" />
<path d="M121.08,37.5c1.01,0.45,2.59,1.2,4.26,0.7c2.05-0.61,15.24-3.45,17.74-4.2s5.02,0.51,3.5,2.75c-5.25,7.75-15,23-23.75,30.75" style="fill:none;stroke:black;stroke-width:3" />
<circle cx="121.08" cy="37.5" r="5" stroke-width="0" fill="#FF2A00" opacity="0.7" />
<path d="M237.32999999999998,16.5c2.9,2.18,6.01,5.44,8.5,9.25" style="fill:none;stroke:#999;stroke-width:3" />
<path d="M230.07999999999998,37.5c1.01,0.45,2.59,1.2,4.26,0.7c2.05-0.61,15.24-3.45,17.74-4.2s5.02,0.51,3.5,2.75c-5.25,7.75-15,23-23.75,30.75" style="fill:none;stroke:#999;stroke-width:3" />
<path d="M244.0,55.11c0.12,0.29,1.65,1.53,1.77,3.39c0.57,8.93,0.06,33.7,0.06,36.75" style="fill:none;stroke:black;stroke-width:3" />
<circle cx="244.0" cy="55.11" r="5" stroke-width="0" fill="#FF2A00" opacity="0.7" />
<path d="M346.33,16.5c2.9,2.18,6.01,5.44,8.5,9.25" style="fill:none;stroke:#999;stroke-width:3" />
<path d="M339.08,37.5c1.01,0.45,2.59,1.2,4.26,0.7c2.05-0.61,15.24-3.45,17.74-4.2s5.02,0.51,3.5,2.75c-5.25,7.75-15,23-23.75,30.75" style="fill:none;stroke:#999;stroke-width:3" />
<path d="M353.0,55.11c0.12,0.29,1.65,1.53,1.77,3.39c0.57,8.93,0.06,33.7,0.06,36.75" style="fill:none;stroke:#999;stroke-width:3" />
<path d="M356.08,52.75c3.67,2.12,7.6,5.29,10.75,9" style="fill:none;stroke:black;stroke-width:3" />
<circle cx="356.08" cy="52.75" r="5" stroke-width="0" fill="#FF2A00" opacity="0.7" />
<path d="M455.33,16.5c2.9,2.18,6.01,5.44,8.5,9.25" style="fill:none;stroke:#999;stroke-width:3" />
<path d="M448.08,37.5c1.01,0.45,2.59,1.2,4.26,0.7c2.05-0.61,15.24-3.45,17.74-4.2s5.02,0.51,3.5,2.75c-5.25,7.75-15,23-23.75,30.75" style="fill:none;stroke:#999;stroke-width:3" />
<path d="M462.0,55.11c0.12,0.29,1.65,1.53,1.77,3.39c0.57,8.93,0.06,33.7,0.06,36.75" style="fill:none;stroke:#999;stroke-width:3" />
<path d="M465.08,52.75c3.67,2.12,7.6,5.29,10.75,9" style="fill:none;stroke:#999;stroke-width:3" />
<path d="M485.85,19.97c0.81,0.24,2.3,0.3,3.11,0.24c7.65-0.51,29.76-2.79,37.48-2.79c1.35,0,2.17,0.12,2.84,0.24" style="fill:none;stroke:black;stroke-width:3" />
<circle cx="485.85" cy="19.97" r="5" stroke-width="0" fill="#FF2A00" opacity="0.7" />
<path d="M564.3299999999999,16.5c2.9,2.18,6.01,5.44,8.5,9.25" style="fill:none;stroke:#999;stroke-width:3" />
<path d="M557.0799999999999,37.5c1.01,0.45,2.59,1.2,4.26,0.7c2.05-0.61,15.24-3.45,17.74-4.2s5.02,0.51,3.5,2.75c-5.25,7.75-15,23-23.75,30.75" style="fill:none;stroke:#999;stroke-width:3" />
<path d="M571.0,55.11c0.12,0.29,1.65,1.53,1.77,3.39c0.57,8.93,0.06,33.7,0.06,36.75" style="fill:none;stroke:#999;stroke-width:3" />
<path d="M574.0799999999999,52.75c3.67,2.12,7.6,5.29,10.75,9" style="fill:none;stroke:#999;stroke-width:3" />
<path d="M594.85,19.97c0.81,0.24,2.3,0.3,3.11,0.24c7.65-0.51,29.76-2.79,37.48-2.79c1.35,0,2.17,0.12,2.84,0.24" style="fill:none;stroke:#999;stroke-width:3" />
<path d="M605.23,25.86c0.04,0.29,0.09,0.74-0.09,1.14c-1.07,2.41-7.2,7.7-15.59,10.95" style="fill:none;stroke:black;stroke-width:3" />
<circle cx="605.23" cy="25.86" r="5" stroke-width="0" fill="#FF2A00" opacity="0.7" />
<path d="M673.3299999999999,16.5c2.9,2.18,6.01,5.44,8.5,9.25" style="fill:none;stroke:#999;stroke-width:3" />
<path d="M666.0799999999999,37.5c1.01,0.45,2.59,1.2,4.26,0.7c2.05-0.61,15.24-3.45,17.74-4.2s5.02,0.51,3.5,2.75c-5.25,7.75-15,23-23.75,30.75" style="fill:none;stroke:#999;stroke-width:3" />
<path d="M680.0,55.11c0.12,0.29,1.65,1.53,1.77,3.39c0.57,8.93,0.06,33.7,0.06,36.75" style="fill:none;stroke:#999;stroke-width:3" />
<path d="M683.0799999999999,52.75c3.67,2.12,7.6,5.29,10.75,9" style="fill:none;stroke:#999;stroke-width:3" />
<path d="M703.85,19.97c0.81,0.24,2.3,0.3,3.11,0.24c7.65-0.51,29.76-2.79,37.48-2.79c1.35,0,2.17,0.12,2.84,0.24" style="fill:none;stroke:#999;stroke-width:3" />
<path d="M714.23,25.86c0.04,0.29,0.09,0.74-0.09,1.14c-1.07,2.41-7.2,7.7-15.59,10.95" style="fill:none;stroke:#999;stroke-width:3" />
<path d="M734.51,23.8c5.63,1.68,14.55,6.91,15.96,9.52" style="fill:none;stroke:black;stroke-width:3" />
<circle cx="734.51" cy="23.8" r="5" stroke-width="0" fill="#FF2A00" opacity="0.7" />
<path d="M782.3299999999999,16.5c2.9,2.18,6.01,5.44,8.5,9.25" style="fill:none;stroke:#999;stroke-width:3" />
<path d="M775.0799999999999,37.5c1.01,0.45,2.59,1.2,4.26,0.7c2.05-0.61,15.24-3.45,17.74-4.2s5.02,0.51,3.5,2.75c-5.25,7.75-15,23-23.75,30.75" style="fill:none;stroke:#999;stroke-width:3" />
<path d="M789.0,55.11c0.12,0.29,1.65,1.53,1.77,3.39c0.57,8.93,0.06,33.7,0.06,36.75" style="fill:none;stroke:#999;stroke-width:3" />
<path d="M792.0799999999999,52.75c3.67,2.12,7.6,5.29,10.75,9" style="fill:none;stroke:#999;stroke-width:3" />
<path d="M812.85,19.97c0.81,0.24,2.3,0.3,3.11,0.24c7.65-0.51,29.76-2.79,37.48-2.79c1.35,0,2.17,0.12,2.84,0.24" style="fill:none;stroke:#999;stroke-width:3" />
<path d="M823.23,25.86c0.04,0.29,0.09,0.74-0.09,1.14c-1.07,2.41-7.2,7.7-15.59,10.95" style="fill:none;stroke:#999;stroke-width:3" />
<path d="M843.51,23.8c5.63,1.68,14.55,6.91,15.96,9.52" style="fill:none;stroke:#999;stroke-width:3" />
<path d="M811.52,41.88c0.77,1.06,1.02,2.63,1.02,4.47c0,6.27,0.16,44.1,0.16,47.15" style="fill:none;stroke:black;stroke-width:3" />
<circle cx="811.52" cy="41.88" r="5" stroke-width="0" fill="#FF2A00" opacity="0.7" />
<path d="M891.3299999999999,16.5c2.9,2.18,6.01,5.44,8.5,9.25" style="fill:none;stroke:#999;stroke-width:3" />
<path d="M884.0799999999999,37.5c1.01,0.45,2.59,1.2,4.26,0.7c2.05-0.61,15.24-3.45,17.74-4.2s5.02,0.51,3.5,2.75c-5.25,7.75-15,23-23.75,30.75" style="fill:none;stroke:#999;stroke-width:3" />
<path d="M898.0,55.11c0.12,0.29,1.65,1.53,1.77,3.39c0.57,8.93,0.06,33.7,0.06,36.75" style="fill:none;stroke:#999;stroke-width:3" />
<path d="M901.0799999999999,52.75c3.67,2.12,7.6,5.29,10.75,9" style="fill:none;stroke:#999;stroke-width:3" />
<path d="M921.85,19.97c0.81,0.24,2.3,0.3,3.11,0.24c7.65-0.51,29.76-2.79,37.48-2.79c1.35,0,2.17,0.12,2.84,0.24" style="fill:none;stroke:#999;stroke-width:3" />
<path d="M932.23,25.86c0.04,0.29,0.09,0.74-0.09,1.14c-1.07,2.41-7.2,7.7-15.59,10.95" style="fill:none;stroke:#999;stroke-width:3" />
<path d="M952.51,23.8c5.63,1.68,14.55,6.91,15.96,9.52" style="fill:none;stroke:#999;stroke-width:3" />
<path d="M920.52,41.88c0.77,1.06,1.02,2.63,1.02,4.47c0,6.27,0.16,44.1,0.16,47.15" style="fill:none;stroke:#999;stroke-width:3" />
<path d="M922.05,42.91c6.15-0.81,39.89-3.78,41.1-4.06c2.59-0.61,3.83,0.49,3.83,3.38c0,3.48,0.34,42.65-0.11,47.3c-0.87,8.97-5.37,2.36-7.31-0.28" style="fill:none;stroke:black;stroke-width:3" />
<circle cx="922.05" cy="42.91" r="5" stroke-width="0" fill="#FF2A00" opacity="0.7" />
<path d="M1000.3299999999999,16.5c2.9,2.18,6.01,5.44,8.5,9.25" style="fill:none;stroke:#999;stroke-width:3" />
<path d="M993.0799999999999,37.5c1.01,0.45,2.59,1.2,4.26,0.7c2.05-0.61,15.24-3.45,17.74-4.2s5.02,0.51,3.5,2.75c-5.25,7.75-15,23-23.75,30.75" style="fill:none;stroke:#999;stroke-width:3" />
<path d="M1007.0,55.11c0.12,0.29,1.65,1.53,1.77,3.39c0.57,8.93,0.06,33.7,0.06,36.75" style="fill:none;stroke:#999;stroke-width:3" />
<path d="M1010.0799999999999,52.75c3.67,2.12,7.6,5.29,10.75,9" style="fill:none;stroke:#999;stroke-width:3" />
<path d="M1030.85,19.97c0.81,0.24,2.3,0.3,3.11,0.24c7.65-0.51,29.76-2.79,37.48-2.79c1.35,0,2.17,0.12,2.84,0.24" style="fill:none;stroke:#999;stroke-width:3" />
<path d="M1041.23,25.86c0.04,0.29,0.09,0.74-0.09,1.14c-1.07,2.41-7.2,7.7-15.59,10.95" style="fill:none;stroke:#999;stroke-width:3" />
<path d="M1061.51,23.8c5.63,1.68,14.55,6.91,15.96,9.52" style="fill:none;stroke:#999;stroke-width:3" />
<path d="M1029.52,41.88c0.77,1.06,1.02,2.63,1.02,4.47c0,6.27,0.16,44.1,0.16,47.15" style="fill:none;stroke:#999;stroke-width:3" />
<path d="M1031.05,42.91c6.15-0.81,39.89-3.78,41.1-4.06c2.59-0.61,3.83,0.49,3.83,3.38c0,3.48,0.34,42.65-0.11,47.3c-0.87,8.97-5.37,2.36-7.31-0.28" style="fill:none;stroke:#999;stroke-width:3" />
<path d="M1049.98,22.07c1.06,1.07,1.4,2.67,1.4,4.53c0,4.92-0.29,65.06-0.29,68.15" style="fill:none;stroke:black;stroke-width:3" />
<circle cx="1049.98" cy="22.07" r="5" stroke-width="0" fill="#FF2A00" opacity="0.7" />
<path d="M1109.33,16.5c2.9,2.18,6.01,5.44,8.5,9.25" style="fill:none;stroke:#999;stroke-width:3" />
<path d="M1102.08,37.5c1.01,0.45,2.59,1.2,4.26,0.7c2.05-0.61,15.24-3.45,17.74-4.2s5.02,0.51,3.5,2.75c-5.25,7.75-15,23-23.75,30.75" style="fill:none;stroke:#999;stroke-width:3" />
<path d="M1116.0,55.11c0.12,0.29,1.65,1.53,1.77,3.39c0.57,8.93,0.06,33.7,0.06,36.75" style="fill:none;stroke:#999;stroke-width:3" />
<path d="M1119.08,52.75c3.67,2.12,7.6,5.29,10.75,9" style="fill:none;stroke:#999;stroke-width:3" />
<path d="M1139.85,19.97c0.81,0.24,2.3,0.3,3.11,0.24c7.65-0.51,29.76-2.79,37.48-2.79c1.35,0,2.17,0.12,2.84,0.24" style="fill:none;stroke:#999;stroke-width:3" />
<path d="M1150.23,25.86c0.04,0.29,0.09,0.74-0.09,1.14c-1.07,2.41-7.2,7.7-15.59,10.95" style="fill:none;stroke:#999;stroke-width:3" />
<path d="M1170.51,23.8c5.63,1.68,14.55,6.91,15.96,9.52" style="fill:none;stroke:#999;stroke-width:3" />
<path d="M1138.52,41.88c0.77,1.06,1.02,2.63,1.02,4.47c0,6.27,0.16,44.1,0.16,47.15" style="fill:none;stroke:#999;stroke-width:3" />
<path d="M1140.05,42.91c6.15-0.81,39.89-3.78,41.1-4.06c2.59-0.61,3.83,0.49,3.83,3.38c0,3.48,0.34,42.65-0.11,47.3c-0.87,8.97-5.37,2.36-7.31-0.28" style="fill:none;stroke:#999;stroke-width:3" />
<path d="M1158.98,22.07c1.06,1.07,1.4,2.67,1.4,4.53c0,4.92-0.29,65.06-0.29,68.15" style="fill:none;stroke:#999;stroke-width:3" />
<path d="M1154.03,47.01c0.03,0.34,0.07,0.89-0.06,1.38C1153.21,51.3,1148.9,57.68,1143.0,61.58" style="fill:none;stroke:black;stroke-width:3" />
<circle cx="1154.03" cy="47.01" r="5" stroke-width="0" fill="#FF2A00" opacity="0.7" />
<path d="M1218.33,16.5c2.9,2.18,6.01,5.44,8.5,9.25" style="fill:none;stroke:#999;stroke-width:3" />
<path d="M1211.08,37.5c1.01,0.45,2.59,1.2,4.26,0.7c2.05-0.61,15.24-3.45,17.74-4.2s5.02,0.51,3.5,2.75c-5.25,7.75-15,23-23.75,30.75" style="fill:none;stroke:#999;stroke-width:3" />
<path d="M1225.0,55.11c0.12,0.29,1.65,1.53,1.77,3.39c0.57,8.93,0.06,33.7,0.06,36.75" style="fill:none;stroke:#999;stroke-width:3" />
<path d="M1228.08,52.75c3.67,2.12,7.6,5.29,10.75,9" style="fill:none;stroke:#999;stroke-width:3" />
<path d="M1248.85,19.97c0.81,0.24,2.3,0.3,3.11,0.24c7.65-0.51,29.76-2.79,37.48-2.79c1.35,0,2.17,0.12,2.84,0.24" style="fill:none;stroke:#999;stroke-width:3" />
<path d="M1259.23,25.86c0.04,0.29,0.09,0.74-0.09,1.14c-1.07,2.41-7.2,7.7-15.59,10.95" style="fill:none;stroke:#999;stroke-width:3" />
<path d="M1279.51,23.8c5.63,1.68,14.55,6.91,15.96,9.52" style="fill:none;stroke:#999;stroke-width:3" />
<path d="M1247.52,41.88c0.77,1.06,1.02,2.63,1.02,4.47c0,6.27,0.16,44.1,0.16,47.15" style="fill:none;stroke:#999;stroke-width:3" />
<path d="M1249.05,42.91c6.15-0.81,39.89-3.78,41.1-4.06c2.59-0.61,3.83,0.49,3.83,3.38c0,3.48,0.34,42.65-0.11,47.3c-0.87,8.97-5.37,2.36-7.31-0.28" style="fill:none;stroke:#999;stroke-width:3" />
<path d="M1267.98,22.07c1.06,1.07,1.4,2.67,1.4,4.53c0,4.92-0.29,65.06-0.29,68.15" style="fill:none;stroke:#999;stroke-width:3" />
<path d="M1263.03,47.01c0.03,0.34,0.07,0.89-0.06,1.38C1262.21,51.3,1257.9,57.68,1252.0,61.58" style="fill:none;stroke:#999;stroke-width:3" />
<path d="M1254.18,50.74c3.52,1,8.21,6.06,9.58,9.55" style="fill:none;stroke:black;stroke-width:3" />
<circle cx="1254.18" cy="50.74" r="5" stroke-width="0" fill="#FF2A00" opacity="0.7" />
<path d="M1327.33,16.5c2.9,2.18,6.01,5.44,8.5,9.25" style="fill:none;stroke:#999;stroke-width:3" />
<path d="M1320.08,37.5c1.01,0.45,2.59,1.2,4.26,0.7c2.05-0.61,15.24-3.45,17.74-4.2s5.02,0.51,3.5,2.75c-5.25,7.75-15,23-23.75,30.75" style="fill:none;stroke:#999;stroke-width:3" />
<path d="M1334.0,55.11c0.12,0.29,1.65,1.53,1.77,3.39c0.57,8.93,0.06,33.7,0.06,36.75" style="fill:none;stroke:#999;stroke-width:3" />
<path d="M1337.08,52.75c3.67,2.12,7.6,5.29,10.75,9" style="fill:none;stroke:#999;stroke-width:3" />
<path d="M1357.85,19.97c0.81,0.24,2.3,0.3,3.11,0.24c7.65-0.51,29.76-2.79,37.48-2.79c1.35,0,2.17,0.12,2.84,0.24" style="fill:none;stroke:#999;stroke-width:3" />
<path d="M1368.23,25.86c0.04,0.29,0.09,0.74-0.09,1.14c-1.07,2.41-7.2,7.7-15.59,10.95" style="fill:none;stroke:#999;stroke-width:3" />
<path d="M1388.51,23.8c5.63,1.68,14.55,6.91,15.96,9.52" style="fill:none;stroke:#999;stroke-width:3" />
<path d="M1356.52,41.88c0.77,1.06,1.02,2.63,1.02,4.47c0,6.27,0.16,44.1,0.16,47.15" style="fill:none;stroke:#999;stroke-width:3" />
<path d="M1358.05,42.91c6.15-0.81,39.89-3.78,41.1-4.06c2.59-0.61,3.83,0.49,3.83,3.38c0,3.48,0.34,42.65-0.11,47.3c-0.87,8.97-5.37,2.36-7.31-0.28" style="fill:none;stroke:#999;stroke-width:3" />
<path d="M1376.98,22.07c1.06,1.07,1.4,2.67,1.4,4.53c0,4.92-0.29,65.06-0.29,68.15" style="fill:none;stroke:#999;stroke-width:3" />
<path d="M1372.03,47.01c0.03,0.34,0.07,0.89-0.06,1.38C1371.21,51.3,1366.9,57.68,1361.0,61.58" style="fill:none;stroke:#999;stroke-width:3" />
<path d="M1363.18,50.74c3.52,1,8.21,6.06,9.58,9.55" style="fill:none;stroke:#999;stroke-width:3" />
<path d="M1373.65,67.56c0.03,0.42,0.07,1.08-0.07,1.69c-0.84,3.56-5.64,11.36-12.21,16.14" style="fill:none;stroke:black;stroke-width:3" />
<circle cx="1373.65" cy="67.56" r="5" stroke-width="0" fill="#FF2A00" opacity="0.7" />
<path d="M1436.33,16.5c2.9,2.18,6.01,5.44,8.5,9.25" style="fill:none;stroke:#999;stroke-width:3" />
<path d="M1429.08,37.5c1.01,0.45,2.59,1.2,4.26,0.7c2.05-0.61,15.24-3.45,17.74-4.2s5.02,0.51,3.5,2.75c-5.25,7.75-15,23-23.75,30.75" style="fill:none;stroke:#999;stroke-width:3" />
<path d="M1443.0,55.11c0.12,0.29,1.65,1.53,1.77,3.39c0.57,8.93,0.06,33.7,0.06,36.75" style="fill:none;stroke:#999;stroke-width:3" />
<path d="M1446.08,52.75c3.67,2.12,7.6,5.29,10.75,9" style="fill:none;stroke:#999;stroke-width:3" />
<path d="M1466.85,19.97c0.81,0.24,2.3,0.3,3.11,0.24c7.65-0.51,29.76-2.79,37.48-2.79c1.35,0,2.17,0.12,2.84,0.24" style="fill:none;stroke:#999;stroke-width:3" />
<path d="M1477.23,25.86c0.04,0.29,0.09,0.74-0.09,1.14c-1.07,2.41-7.2,7.7-15.59,10.95" style="fill:none;stroke:#999;stroke-width:3" />
<path d="M1497.51,23.8c5.63,1.68,14.55,6.91,15.96,9.52" style="fill:none;stroke:#999;stroke-width:3" />
<path d="M1465.52,41.88c0.77,1.06,1.02,2.63,1.02,4.47c0,6.27,0.16,44.1,0.16,47.15" style="fill:none;stroke:#999;stroke-width:3" />
<path d="M1467.05,42.91c6.15-0.81,39.89-3.78,41.1-4.06c2.59-0.61,3.83,0.49,3.83,3.38c0,3.48,0.34,42.65-0.11,47.3c-0.87,8.97-5.37,2.36-7.31-0.28" style="fill:none;stroke:#999;stroke-width:3" />
<path d="M1485.98,22.07c1.06,1.07,1.4,2.67,1.4,4.53c0,4.92-0.29,65.06-0.29,68.15" style="fill:none;stroke:#999;stroke-width:3" />
<path d="M1481.03,47.01c0.03,0.34,0.07,0.89-0.06,1.38C1480.21,51.3,1475.9,57.68,1470.0,61.58" style="fill:none;stroke:#999;stroke-width:3" />
<path d="M1472.18,50.74c3.52,1,8.21,6.06,9.58,9.55" style="fill:none;stroke:#999;stroke-width:3" />
<path d="M1482.65,67.56c0.03,0.42,0.07,1.08-0.07,1.69c-0.84,3.56-5.64,11.36-12.21,16.14" style="fill:none;stroke:#999;stroke-width:3" />
<path d="M1472.24,72.43c3.73,1.11,8.69,6.74,10.15,10.64" style="fill:none;stroke:black;stroke-width:3" />
<circle cx="1472.24" cy="72.43" r="5" stroke-width="0" fill="#FF2A00" opacity="0.7" />
<path d="M1545.33,16.5c2.9,2.18,6.01,5.44,8.5,9.25" style="fill:none;stroke:#999;stroke-width:3" />
<path d="M1538.08,37.5c1.01,0.45,2.59,1.2,4.26,0.7c2.05-0.61,15.24-3.45,17.74-4.2s5.02,0.51,3.5,2.75c-5.25,7.75-15,23-23.75,30.75" style="fill:none;stroke:#999;stroke-width:3" />
<path d="M1552.0,55.11c0.12,0.29,1.65,1.53,1.77,3.39c0.57,8.93,0.06,33.7,0.06,36.75" style="fill:none;stroke:#999;stroke-width:3" />
<path d="M1555.08,52.75c3.67,2.12,7.6,5.29,10.75,9" style="fill:none;stroke:#999;stroke-width:3" />
<path d="M1575.85,19.97c0.81,0.24,2.3,0.3,3.11,0.24c7.65-0.51,29.76-2.79,37.48-2.79c1.35,0,2.17,0.12,2.84,0.24" style="fill:none;stroke:#999;stroke-width:3" />
<path d="M1586.23,25.86c0.04,0.29,0.09,0.74-0.09,1.14c-1.07,2.41-7.2,7.7-15.59,10.95" style="fill:none;stroke:#999;stroke-width:3" />
<path d="M1606.51,23.8c5.63,1.68,14.55,6.91,15.96,9.52" style="fill:none;stroke:#999;stroke-width:3" />
<path d="M1574.52,41.88c0.77,1.06,1.02,2.63,1.02,4.47c0,6.27,0.16,44.1,0.16,47.15" style="fill:none;stroke:#999;stroke-width:3" />
<path d="M1576.05,42.91c6.15-0.81,39.89-3.78,41.1-4.06c2.59-0.61,3.83,0.49,3.83,3.38c0,3.48,0.34,42.65-0.11,47.3c-0.87,8.97-5.37,2.36-7.31-0.28" style="fill:none;stroke:#999;stroke-width:3" />
<path d="M1594.98,22.07c1.06,1.07,1.4,2.67,1.4,4.53c0,4.92-0.29,65.06-0.29,68.15" style="fill:none;stroke:#999;stroke-width:3" />
<path d="M1590.03,47.01c0.03,0.34,0.07,0.89-0.06,1.38C1589.21,51.3,1584.9,57.68,1579.0,61.58" style="fill:none;stroke:#999;stroke-width:3" />
<path d="M1581.18,50.74c3.52,1,8.21,6.06,9.58,9.55" style="fill:none;stroke:#999;stroke-width:3" />
<path d="M1591.65,67.56c0.03,0.42,0.07,1.08-0.07,1.69c-0.84,3.56-5.64,11.36-12.21,16.14" style="fill:none;stroke:#999;stroke-width:3" />
<path d="M1581.24,72.43c3.73,1.11,8.69,6.74,10.15,10.64" style="fill:none;stroke:#999;stroke-width:3" />
<path d="M1613.38,45.12c0.03,0.38,0.07,0.98-0.06,1.53c-0.75,3.22-5.04,10.28-10.92,14.6" style="fill:none;stroke:black;stroke-width:3" />
<circle cx="1613.38" cy="45.12" r="5" stroke-width="0" fill="#FF2A00" opacity="0.7" />
<path d="M1654.33,16.5c2.9,2.18,6.01,5.44,8.5,9.25" style="fill:none;stroke:#999;stroke-width:3" />
<path d="M1647.08,37.5c1.01,0.45,2.59,1.2,4.26,0.7c2.05-0.61,15.24-3.45,17.74-4.2s5.02,0.51,3.5,2.75c-5.25,7.75-15,23-23.75,30.75" style="fill:none;stroke:#999;stroke-width:3" />
<path d="M1661.0,55.11c0.12,0.29,1.65,1.53,1.77,3.39c0.57,8.93,0.06,33.7,0.06,36.75" style="fill:none;stroke:#999;stroke-width:3" />
<path d="M1664.08,52.75c3.67,2.12,7.6,5.29,10.75,9" style="fill:none;stroke:#999;stroke-width:3" />
<path d="M1684.85,19.97c0.81,0.24,2.3,0.3,3.11,0.24c7.65-0.51,29.76-2.79,37.48-2.79c1.35,0,2.17,0.12,2.84,0.24" style="fill:none;stroke:#999;stroke-width:3" />
<path d="M1695.23,25.86c0.04,0.29,0.09,0.74-0.09,1.14c-1.07,2.41-7.2,7.7-15.59,10.95" style="fill:none;stroke:#999;stroke-width:3" />
<path d="M1715.51,23.8c5.63,1.68,14.55,6.91,15.96,9.52" style="fill:none;stroke:#999;stroke-width:3" />
<path d="M1683.52,41.88c0.77,1.06,1.02,2.63,1.02,4.47c0,6.27,0.16,44.1,0.16,47.15" style="fill:none;stroke:#999;stroke-width:3" />
<path d="M1685.05,42.91c6.15-0.81,39.89-3.78,41.1-4.06c2.59-0.61,3.83,0.49,3.83,3.38c0,3.48,0.34,42.65-0.11,47.3c-0.87,8.97-5.37,2.36-7.31-0.28" style="fill:none;stroke:#999;stroke-width:3" />
<path d="M1703.98,22.07c1.06,1.07,1.4,2.67,1.4,4.53c0,4.92-0.29,65.06-0.29,68.15" style="fill:none;stroke:#999;stroke-width:3" />
<path d="M1699.03,47.01c0.03,0.34,0.07,0.89-0.06,1.38C1698.21,51.3,1693.9,57.68,1688.0,61.58" style="fill:none;stroke:#999;stroke-width:3" />
<path d="M1690.18,50.74c3.52,1,8.21,6.06,9.58,9.55" style="fill:none;stroke:#999;stroke-width:3" />
<path d="M1700.65,67.56c0.03,0.42,0.07,1.08-0.07,1.69c-0.84,3.56-5.64,11.36-12.21,16.14" style="fill:none;stroke:#999;stroke-width:3" />
<path d="M1690.24,72.43c3.73,1.11,8.69,6.74,10.15,10.64" style="fill:none;stroke:#999;stroke-width:3" />
<path d="M1722.38,45.12c0.03,0.38,0.07,0.98-0.06,1.53c-0.75,3.22-5.04,10.28-10.92,14.6" style="fill:none;stroke:#999;stroke-width:3" />
<path d="M1713.66,50.33c3.81,1.07,8.88,6.47,10.37,10.21" style="fill:none;stroke:black;stroke-width:3" />
<circle cx="1713.66" cy="50.33" r="5" stroke-width="0" fill="#FF2A00" opacity="0.7" />
<path d="M1763.33,16.5c2.9,2.18,6.01,5.44,8.5,9.25" style="fill:none;stroke:#999;stroke-width:3" />
<path d="M1756.08,37.5c1.01,0.45,2.59,1.2,4.26,0.7c2.05-0.61,15.24-3.45,17.74-4.2s5.02,0.51,3.5,2.75c-5.25,7.75-15,23-23.75,30.75" style="fill:none;stroke:#999;stroke-width:3" />
<path d="M1770.0,55.11c0.12,0.29,1.65,1.53,1.77,3.39c0.57,8.93,0.06,33.7,0.06,36.75" style="fill:none;stroke:#999;stroke-width:3" />
<path d="M1773.08,52.75c3.67,2.12,7.6,5.29,10.75,9" style="fill:none;stroke:#999;stroke-width:3" />
<path d="M1793.85,19.97c0.81,0.24,2.3,0.3,3.11,0.24c7.65-0.51,29.76-2.79,37.48-2.79c1.35,0,2.17,0.12,2.84,0.24" style="fill:none;stroke:#999;stroke-width:3" />
<path d="M1804.23,25.86c0.04,0.29,0.09,0.74-0.09,1.14c-1.07,2.41-7.2,7.7-15.59,10.95" style="fill:none;stroke:#999;stroke-width:3" />
<path d="M1824.51,23.8c5.63,1.68,14.55,6.91,15.96,9.52" style="fill:none;stroke:#999;stroke-width:3" />
<path d="M1792.52,41.88c0.77,1.06,1.02,2.63,1.02,4.47c0,6.27,0.16,44.1,0.16,47.15" style="fill:none;stroke:#999;stroke-width:3" />
<path d="M1794.05,42.91c6.15-0.81,39.89-3.78,41.1-4.06c2.59-0.61,3.83,0.49,3.83,3.38c0,3.48,0.34,42.65-0.11,47.3c-0.87,8.97-5.37,2.36-7.31-0.28" style="fill:none;stroke:#999;stroke-width:3" />
<path d="M1812.98,22.07c1.06,1.07,1.4,2.67,1.4,4.53c0,4.92-0.29,65.06-0.29,68.15" style="fill:none;stroke:#999;stroke-width:3" />
<path d="M1808.03,47.01c0.03,0.34,0.07,0.89-0.06,1.38C1807.21,51.3,1802.9,57.68,1797.0,61.58" style="fill:none;stroke:#999;stroke-width:3" />
<path d="M1799.18,50.74c3.52,1,8.21,6.06,9.58,9.55" style="fill:none;stroke:#999;stroke-width:3" />
<path d="M1809.65,67.56c0.03,0.42,0.07,1.08-0.07,1.69c-0.84,3.56-5.64,11.36-12.21,16.14" style="fill:none;stroke:#999;stroke-width:3" />
<path d="M1799.24,72.43c3.73,1.11,8.69,6.74,10.15,10.64" style="fill:none;stroke:#999;stroke-width:3" />
<path d="M1831.38,45.12c0.03,0.38,0.07,0.98-0.06,1.53c-0.75,3.22-5.04,10.28-10.92,14.6" style="fill:none;stroke:#999;stroke-width:3" />
<path d="M1822.66,50.33c3.81,1.07,8.88,6.47,10.37,10.21" style="fill:none;stroke:#999;stroke-width:3" />
<path d="M1831.92,66.9c0.03,0.4,0.07,1.04-0.06,1.62c-0.77,3.41-5.18,10.88-11.22,15.46" style="fill:none;stroke:black;stroke-width:3" />
<circle cx="1831.92" cy="66.9" r="5" stroke-width="0" fill="#FF2A00" opacity="0.7" />
<path d="M1872.33,16.5c2.9,2.18,6.01,5.44,8.5,9.25" style="fill:none;stroke:#999;stroke-width:3" />
<path d="M1865.08,37.5c1.01,0.45,2.59,1.2,4.26,0.7c2.05-0.61,15.24-3.45,17.74-4.2s5.02,0.51,3.5,2.75c-5.25,7.75-15,23-23.75,30.75" style="fill:none;stroke:#999;stroke-width:3" />
<path d="M1879.0,55.11c0.12,0.29,1.65,1.53,1.77,3.39c0.57,8.93,0.06,33.7,0.06,36.75" style="fill:none;stroke:#999;stroke-width:3" />
<path d="M1882.08,52.75c3.67,2.12,7.6,5.29,10.75,9" style="fill:none;stroke:#999;stroke-width:3" />
<path d="M1902.85,19.97c0.81,0.24,2.3,0.3,3.11,0.24c7.65-0.51,29.76-2.79,37.48-2.79c1.35,0,2.17,0.12,2.84,0.24" style="fill:none;stroke:#999;stroke-width:3" />
<path d="M1913.23,25.86c0.04,0.29,0.09,0.74-0.09,1.14c-1.07,2.41-7.2,7.7-15.59,10.95" style="fill:none;stroke:#999;stroke-width:3" />
<path d="M1933.51,23.8c5.63,1.68,14.55,6.91,15.96,9.52" style="fill:none;stroke:#999;stroke-width:3" />
<path d="M1901.52,41.88c0.77,1.06,1.02,2.63,1.02,4.47c0,6.27,0.16,44.1,0.16,47.15" style="fill:none;stroke:#999;stroke-width:3" />
<path d="M1903.05,42.91c6.15-0.81,39.89-3.78,41.1-4.06c2.59-0.61,3.83,0.49,3.83,3.38c0,3.48,0.34,42.65-0.11,47.3c-0.87,8.97-5.37,2.36-7.31-0.28" style="fill:none;stroke:#999;stroke-width:3" />
<path d="M1921.98,22.07c1.06,1.07,1.4,2.67,1.4,4.53c0,4.92-0.29,65.06-0.29,68.15" style="fill:none;stroke:#999;stroke-width:3" />
<path d="M1917.03,47.01c0.03,0.34,0.07,0.89-0.06,1.38C1916.21,51.3,1911.9,57.68,1906.0,61.58" style="fill:none;stroke:#999;stroke-width:3" />
<path d="M1908.18,50.74c3.52,1,8.21,6.06,9.58,9.55" style="fill:none;stroke:#999;stroke-width:3" />
<path d="M1918.65,67.56c0.03,0.42,0.07,1.08-0.07,1.69c-0.84,3.56-5.64,11.36-12.21,16.14" style="fill:none;stroke:#999;stroke-width:3" />
<path d="M1908.24,72.43c3.73,1.11,8.69,6.74,10.15,10.64" style="fill:none;stroke:#999;stroke-width:3" />
<path d="M1940.38,45.12c0.03,0.38,0.07,0.98-0.06,1.53c-0.75,3.22-5.04,10.28-10.92,14.6" style="fill:none;stroke:#999;stroke-width:3" />
<path d="M1931.66,50.33c3.81,1.07,8.88,6.47,10.37,10.21" style="fill:none;stroke:#999;stroke-width:3" />
<path d="M1940.92,66.9c0.03,0.4,0.07,1.04-0.06,1.62c-0.77,3.41-5.18,10.88-11.22,15.46" style="fill:none;stroke:#999;stroke-width:3" />
<path d="M1930.82,71.43c3.75,2.45,8.23,7.88,10.33,11.68" style="fill:none;stroke:black;stroke-width:3" />
<circle cx="1930.82" cy="71.43" r="5" stroke-width="0" fill="#FF2A00" opacity="0.7" />
</svg>