<svg width="1090px" height="109px" viewBox="0 0 1090px 109px" xmlns="http://www.w3.org/2000/svg" xmlns:xlink="http://www.w3.org/1999/xlink" xml:space="preserve" version="1.1"  baseProfile="full">
<line x1="1" y1="1" x2="1089" y2="1" style="stroke:#ddd;stroke-width:2" />
<line x1="1" y1="1" x2="1" y2="108" style="stroke:#ddd;stroke-width:2" />
<line x1="1" y1="108" x2="1089" y2="108" style="stroke:#ddd;stroke-width:2" />
<line x1="1089" y1="1" x2="1089" y2="108" style="stroke:#ddd;stroke-width:2" />
<line x1="109" y1="1" x2="109" y2="108" style="stroke:#ddd;stroke-width:2" />
<line x1="218" y1="1" x2="218" y2="108" style="stroke:#ddd;stroke-width:2" />
<line x1="327" y1="1" x2="327" y2="108" style="stroke:#ddd;stroke-width:2" />
<line x1="436" y1="1" x2="436" y2="108" style="stroke:#ddd;stroke-width:2" />
<line x1="545" y1="1" x2="545" y2="108" style="stroke:#ddd;stroke-width:2" />
<line x1="654" y1="1" x2="654" y2="108" style="stroke:#ddd;stroke-width:2" />
<line x1="763" y1="1" x2="763" y2="108" style="stroke:#ddd;stroke-width:2" />
<line x1="872" y1="1" x2="872" y2="108" style="stroke:#ddd;stroke-width:2" />
<line x1="981" y1="1" x2="981" y2="108" style="stroke:#ddd;stroke-width:2" />
<line x1="1" y1="54" x2="1089" y2="54" style="stroke:#ddd;stroke-width:2;stroke-dasharray:3 3" />
<line x1="55" y1="1" x2="55" y2="108" style="stroke:#ddd;stroke-width:2;stroke-dasharray:3 3" />
<line x1="164" y1="1" x2="164" y2="108" style="stroke:#ddd;stroke-width:2;stroke-dasharray:3 3" />
<line x1="273" y1="1" x2="273" y2="108" style="stroke:#ddd;stroke-width:2;stroke-dasharray:3 3" />
<line x1="382" y1="1" x2="382" y2="108" style="stroke:#ddd;stroke-width:2;stroke-dasharray:3 3" />
<line x1="491" y1="1" x2="491" y2="108" style="stroke:#ddd;stroke-width:2;stroke-dasharray:3 3" />
<line x1="600" y1="1" x2="600" y2="108" style="stroke:#ddd;stroke-width:2;stroke-dasharray:3 3" />
<line x1="709" y1="1" x2="709" y2="108" style="stroke:#ddd;stroke-width:2;stroke-dasharray:3 3" />
<line x1="818" y1="1" x2="818" y2="108" style="stroke:#ddd;stroke-width:2;stroke-dasharray:3 3" />
<line x1="927" y1="1" x2="927" y2="108" style="stroke:#ddd;stroke-width:2;stroke-dasharray:3 3" />
<line x1="1036" y1="1" x2="1036" y2="108" style="stroke:#ddd;stroke-width:2;stroke-dasharray:3 3" />
<path d="M53.23,11c0.88,0.88,1.13,1.88,1.13,2.95c0,3.05-0.06,4.24-0.07,7.02" style="fill:none;stroke:black;stroke-width:3" />
<circle cx="53.23" cy="11.0" r="5" stroke-width="0" fill="#FF2A00" opacity="0.7" />
<path d="M162.23,11c0.88,0.88,1.13,1.88,1.13,2.95c0,3.05-0.06,4.24-0.07,7.02" style="fill:none;stroke:#999;stroke-width:3" />
<path d="M131.91,23.51C131.5,28,130.0,34.38,128.25,38.25" style="fill:none;stroke:black;stroke-width:3" />
<circle cx="131.91" cy="23.51" r="5" stroke-width="0" fill="#FF2A00" opacity="0.7" />
<path d="M271.23,11c0.88,0.88,1.13,1.88,1.13,2.95c0,3.05-0.06,4.24-0.07,7.02" style="fill:none;stroke:#999;stroke-width:3" />
<path d="M240.91,23.51C240.5,28,239.0,34.38,237.25,38.25" style="fill:none;stroke:#999;stroke-width:3" />
<path d="M241.74,25.49C265.25,23,279.88,21,301.82,20.36c10.83-0.32,2.29,6.16-0.4,8.05" style="fill:none;stroke:black;stroke-width:3" />
<circle cx="241.74" cy="25.49" r="5" stroke-width="0" fill="#FF2A00" opacity="0.7" />
<path d="M380.23,11c0.88,0.88,1.13,1.88,1.13,2.95c0,3.05-0.06,4.24-0.07,7.02" style="fill:none;stroke:#999;stroke-width:3" />
<path d="M349.90999999999997,23.51C349.5,28,348.0,34.38,346.25,38.25" style="fill:none;stroke:#999;stroke-width:3" />
<path d="M350.74,25.49C374.25,23,388.88,21,410.82,20.36c10.83-0.32,2.29,6.16-0.4,8.05" style="fill:none;stroke:#999;stroke-width:3" />
<path d="M370.07,29.5c0,1.12-0.45,1.77-1.15,2.5c-3.41,3.5-6.54,6.5-14.99,11.67" style="fill:none;stroke:black;stroke-width:3" />
<circle cx="370.07" cy="29.5" r="5" stroke-width="0" fill="#FF2A00" opacity="0.7" />
<path d="M489.23,11c0.88,0.88,1.13,1.88,1.13,2.95c0,3.05-0.06,4.24-0.07,7.02" style="fill:none;stroke:#999;stroke-width:3" />
<path d="M458.90999999999997,23.51C458.5,28,457.0,34.38,455.25,38.25" style="fill:none;stroke:#999;stroke-width:3" />
<path d="M459.74,25.49C483.25,23,497.88,21,519.8199999999999,20.36c10.83-0.32,2.29,6.16-0.4,8.05" style="fill:none;stroke:#999;stroke-width:3" />
<path d="M479.07,29.5c0,1.12-0.45,1.77-1.15,2.5c-3.41,3.5-6.54,6.5-14.99,11.67" style="fill:none;stroke:#999;stroke-width:3" />
<path d="M496.95,25.62c0.72,0.72,0.92,1.88,0.92,2.86c0,1.77-0.12,2.28-0.12,4.4c0,3.39,1.11,4.68,9.41,4.68c4.52,0,8.09-0.43,9.79-1.2" style="fill:none;stroke:black;stroke-width:3" />
<circle cx="496.95" cy="25.62" r="5" stroke-width="0" fill="#FF2A00" opacity="0.7" />
<path d="M598.23,11c0.88,0.88,1.13,1.88,1.13,2.95c0,3.05-0.06,4.24-0.07,7.02" style="fill:none;stroke:#999;stroke-width:3" />
<path d="M567.91,23.51C567.5,28,566.0,34.38,564.25,38.25" style="fill:none;stroke:#999;stroke-width:3" />
<path d="M568.74,25.49C592.25,23,606.88,21,628.8199999999999,20.36c10.83-0.32,2.29,6.16-0.4,8.05" style="fill:none;stroke:#999;stroke-width:3" />
<path d="M588.0699999999999,29.5c0,1.12-0.45,1.77-1.15,2.5c-3.41,3.5-6.54,6.5-14.99,11.67" style="fill:none;stroke:#999;stroke-width:3" />
<path d="M605.95,25.62c0.72,0.72,0.92,1.88,0.92,2.86c0,1.77-0.12,2.28-0.12,4.4c0,3.39,1.11,4.68,9.41,4.68c4.52,0,8.09-0.43,9.79-1.2" style="fill:none;stroke:#999;stroke-width:3" />
<path d="M573.72,48.84c3.56,0.48,7.11,0.38,10.67-0.14c11.73-1.7,26.4-3.02,36.87-3.76c3.11-0.38,6.21-0.37,9.31,0.05" style="fill:none;stroke:black;stroke-width:3" />
<circle cx="573.72" cy="48.84" r="5" stroke-width="0" fill="#FF2A00" opacity="0.7" />
<path d="M707.23,11c0.88,0.88,1.13,1.88,1.13,2.95c0,3.05-0.06,4.24-0.07,7.02" style="fill:none;stroke:#999;stroke-width:3" />
<path d="M676.91,23.51C676.5,28,675.0,34.38,673.25,38.25" style="fill:none;stroke:#999;stroke-width:3" />
<path d="M677.74,25.49C701.25,23,715.88,21,737.8199999999999,20.36c10.83-0.32,2.29,6.16-0.4,8.05" style="fill:none;stroke:#999;stroke-width:3" />
<path d="M697.0699999999999,29.5c0,1.12-0.45,1.77-1.15,2.5c-3.41,3.5-6.54,6.5-14.99,11.67" style="fill:none;stroke:#999;stroke-width:3" />
<path d="M714.95,25.62c0.72,0.72,0.92,1.88,0.92,2.86c0,1.77-0.12,2.28-0.12,4.4c0,3.39,1.11,4.68,9.41,4.68c4.52,0,8.09-0.43,9.79-1.2" style="fill:none;stroke:#999;stroke-width:3" />
<path d="M682.72,48.84c3.56,0.48,7.11,0.38,10.67-0.14c11.73-1.7,26.4-3.02,36.87-3.76c3.11-0.38,6.21-0.37,9.31,0.05" style="fill:none;stroke:#999;stroke-width:3" />
<path d="M686.91,50.24c0.68,0.68,0.8,1.77,0.7,2.65c-0.85,6.99-1.35,11-1.98,14.11" style="fill:none;stroke:black;stroke-width:3" />
<circle cx="686.91" cy="50.24" r="5" stroke-width="0" fill="#FF2A00" opacity="0.7" />
<path d="M816.23,11c0.88,0.88,1.13,1.88,1.13,2.95c0,3.05-0.06,4.24-0.07,7.02" style="fill:none;stroke:#999;stroke-width:3" />
<path d="M785.91,23.51C785.5,28,784.0,34.38,782.25,38.25" style="fill:none;stroke:#999;stroke-width:3" />
<path d="M786.74,25.49C810.25,23,824.88,21,846.8199999999999,20.36c10.83-0.32,2.29,6.16-0.4,8.05" style="fill:none;stroke:#999;stroke-width:3" />
<path d="M806.0699999999999,29.5c0,1.12-0.45,1.77-1.15,2.5c-3.41,3.5-6.54,6.5-14.99,11.67" style="fill:none;stroke:#999;stroke-width:3" />
<path d="M823.95,25.62c0.72,0.72,0.92,1.88,0.92,2.86c0,1.77-0.12,2.28-0.12,4.4c0,3.39,1.11,4.68,9.41,4.68c4.52,0,8.09-0.43,9.79-1.2" style="fill:none;stroke:#999;stroke-width:3" />
<path d="M791.72,48.84c3.56,0.48,7.11,0.38,10.67-0.14c11.73-1.7,26.4-3.02,36.87-3.76c3.11-0.38,6.21-0.37,9.31,0.05" style="fill:none;stroke:#999;stroke-width:3" />
<path d="M795.91,50.24c0.68,0.68,0.8,1.77,0.7,2.65c-0.85,6.99-1.35,11-1.98,14.11" style="fill:none;stroke:#999;stroke-width:3" />
<path d="M779.0,69.24c4.1,0.35,8.17,0.03,12.26-0.49c14.15-1.8,36.46-4.1,50.24-5.09c4.45-0.32,10.87-0.53,15.56,0.19" style="fill:none;stroke:black;stroke-width:3" />
<circle cx="779.0" cy="69.24" r="5" stroke-width="0" fill="#FF2A00" opacity="0.7" />
<path d="M925.23,11c0.88,0.88,1.13,1.88,1.13,2.95c0,3.05-0.06,4.24-0.07,7.02" style="fill:none;stroke:#999;stroke-width:3" />
<path d="M894.91,23.51C894.5,28,893.0,34.38,891.25,38.25" style="fill:none;stroke:#999;stroke-width:3" />
<path d="M895.74,25.49C919.25,23,933.88,21,955.8199999999999,20.36c10.83-0.32,2.29,6.16-0.4,8.05" style="fill:none;stroke:#999;stroke-width:3" />
<path d="M915.0699999999999,29.5c0,1.12-0.45,1.77-1.15,2.5c-3.41,3.5-6.54,6.5-14.99,11.67" style="fill:none;stroke:#999;stroke-width:3" />
<path d="M932.95,25.62c0.72,0.72,0.92,1.88,0.92,2.86c0,1.77-0.12,2.28-0.12,4.4c0,3.39,1.11,4.68,9.41,4.68c4.52,0,8.09-0.43,9.79-1.2" style="fill:none;stroke:#999;stroke-width:3" />
<path d="M900.72,48.84c3.56,0.48,7.11,0.38,10.67-0.14c11.73-1.7,26.4-3.02,36.87-3.76c3.11-0.38,6.21-0.37,9.31,0.05" style="fill:none;stroke:#999;stroke-width:3" />
<path d="M904.91,50.24c0.68,0.68,0.8,1.77,0.7,2.65c-0.85,6.99-1.35,11-1.98,14.11" style="fill:none;stroke:#999;stroke-width:3" />
<path d="M888.0,69.24c4.1,0.35,8.17,0.03,12.26-0.49c14.15-1.8,36.46-4.1,50.24-5.09c4.45-0.32,10.87-0.53,15.56,0.19" style="fill:none;stroke:#999;stroke-width:3" />
<path d="M937.17,48.55c1.08,1.08,1.4,2.45,1.4,4.07c0,12.72-0.04,36.88-0.04,41.21c0,11.17-5.8,1.31-7.47,0.22" style="fill:none;stroke:black;stroke-width:3" />
<circle cx="937.17" cy="48.55" r="5" stroke-width="0" fill="#FF2A00" opacity="0.7" />
<path d="M1034.23,11c0.88,0.88,1.13,1.88,1.13,2.95c0,3.05-0.06,4.24-0.07,7.02" style="fill:none;stroke:#999;stroke-width:3" />
<path d="M1003.91,23.51C1003.5,28,1002.0,34.38,1000.25,38.25" style="fill:none;stroke:#999;stroke-width:3" />
<path d="M1004.74,25.49C1028.25,23,1042.88,21,1064.82,20.36c10.83-0.32,2.29,6.16-0.4,8.05" style="fill:none;stroke:#999;stroke-width:3" />
<path d="M1024.07,29.5c0,1.12-0.45,1.77-1.15,2.5c-3.41,3.5-6.54,6.5-14.99,11.67" style="fill:none;stroke:#999;stroke-width:3" />
<path d="M1041.95,25.62c0.72,0.72,0.92,1.88,0.92,2.86c0,1.77-0.12,2.28-0.12,4.4c0,3.39,1.11,4.68,9.41,4.68c4.52,0,8.09-0.43,9.79-1.2" style="fill:none;stroke:#999;stroke-width:3" />
<path d="M1009.72,48.84c3.56,0.48,7.11,0.38,10.67-0.14c11.73-1.7,26.4-3.02,36.87-3.76c3.11-0.38,6.21-0.37,9.31,0.05" style="fill:none;stroke:#999;stroke-width:3" />
<path d="M1013.91,50.24c0.68,0.68,0.8,1.77,0.7,2.65c-0.85,6.99-1.35,11-1.98,14.11" style="fill:none;stroke:#999;stroke-width:3" />
<path d="M997.0,69.24c4.1,0.35,8.17,0.03,12.26-0.49c14.15-1.8,36.46-4.1,50.24-5.09c4.45-0.32,10.87-0.53,15.56,0.19" style="fill:none;stroke:#999;stroke-width:3" />
<path d="M1046.17,48.55c1.08,1.08,1.4,2.45,1.4,4.07c0,12.72-0.04,36.88-0.04,41.21c0,11.17-5.8,1.31-7.47,0.22" style="fill:none;stroke:#999;stroke-width:3" />
<path d="M1043.22,65.6c0,0.65-0.8,1.88-1.38,2.51c-7.47,8.26-22.22,19.76-44.6,27.55" style="fill:none;stroke:black;stroke-width:3" />
<circle cx="1043.22" cy="65.6" r="5" stroke-width="0" fill="#FF2A00" opacity="0.7" />
</svg>