<svg width="981px" height="109px" viewBox="0 0 981px 109px" xmlns="http://www.w3.org/2000/svg" xmlns:xlink="http://www.w3.org/1999/xlink" xml:space="preserve" version="1.1"  baseProfile="full">
<line x1="1" y1="1" x2="980" y2="1" style="stroke:#ddd;stroke-width:2" />
<line x1="1" y1="1" x2="1" y2="108" style="stroke:#ddd;stroke-width:2" />
<line x1="1" y1="108" x2="980" y2="108" style="stroke:#ddd;stroke-width:2" />
<line x1="980" y1="1" x2="980" y2="108" style="stroke:#ddd;stroke-width:2" />
<line x1="109" y1="1" x2="109" y2="108" style="stroke:#ddd;stroke-width:2" />
<line x1="218" y1="1" x2="218" y2="108" style="stroke:#ddd;stroke-width:2" />
<line x1="327" y1="1" x2="327" y2="108" style="stroke:#ddd;stroke-width:2" />
<line x1="436" y1="1" x2="436" y2="108" style="stroke:#ddd;stroke-width:2" />
<line x1="545" y1="1" x2="545" y2="108" style="stroke:#ddd;stroke-width:2" />
<line x1="654" y1="1" x2="654" y2="108" style="stroke:#ddd;stroke-width:2" />
<line x1="763" y1="1" x2="763" y2="108" style="stroke:#ddd;stroke-width:2" />
<line x1="872" y1="1" x2="872" y2="108" style="stroke:#ddd;stroke-width:2" />
<line x1="1" y1="54" x2="980" y2="54" style="stroke:#ddd;stroke-width:2;stroke-dasharray:3 3" />
<line x1="55" y1="1" x2="55" y2="108" style="stroke:#ddd;stroke-width:2;stroke-dasharray:3 3" />
<line x1="164" y1="1" x2="164" y2="108" style="stroke:#ddd;stroke-width:2;stroke-dasharray:3 3" />
<line x1="273" y1="1" x2="273" y2="108" style="stroke:#ddd;stroke-width:2;stroke-dasharray:3 3" />
<line x1="382" y1="1" x2="382" y2="108" style="stroke:#ddd;stroke-width:2;stroke-dasharray:3 3" />
<line x1="491" y1="1" x2="491" y2="108" style="stroke:#ddd;stroke-width:2;stroke-dasharray:3 3" />
<line x1="600" y1="1" x2="600" y2="108" style="stroke:#ddd;stroke-width:2;stroke-dasharray:3 3" />
<line x1="709" y1="1" x2="709" y2="108" style="stroke:#ddd;stroke-width:2;stroke-dasharray:3 3" />
<line x1="818" y1="1" x2="818" y2="108" style="stroke:#ddd;stroke-width:2;stroke-dasharray:3 3" />
<line x1="927" y1="1" x2="927" y2="108" style="stroke:#ddd;stroke-width:2;stroke-dasharray:3 3" />
<path d="M30.25,11.75c0,1.62-0.23,2.62-0.73,3.83c-2.27,5.54-6.65,13.19-14.02,20.67" style="fill:none;stroke:black;stroke-width:3" />
<circle cx="30.25" cy="11.75" r="5" stroke-width="0" fill="#FF2A00" opacity="0.7" />
<path d="M139.25,11.75c0,1.62-0.23,2.62-0.73,3.83c-2.27,5.54-6.65,13.19-14.02,20.67" style="fill:none;stroke:#999;stroke-width:3" />
<path d="M137.73,24.79c0.7,0,1.83-0.12,3.24-0.33c4.23-0.61,10.94-1.91,15.8-2.66c2.16-0.33,3.95-0.3,4.99-0.3" style="fill:none;stroke:black;stroke-width:3" />
<circle cx="137.73" cy="24.79" r="5" stroke-width="0" fill="#FF2A00" opacity="0.7" />
<path d="M248.25,11.75c0,1.62-0.23,2.62-0.73,3.83c-2.27,5.54-6.65,13.19-14.02,20.67" style="fill:none;stroke:#999;stroke-width:3" />
<path d="M246.73,24.79c0.7,0,1.83-0.12,3.24-0.33c4.23-0.61,10.94-1.91,15.8-2.66c2.16-0.33,3.95-0.3,4.99-0.3" style="fill:none;stroke:#999;stroke-width:3" />
<path d="M251.52,27.08c2.31,1.83,5.97,7.53,6.54,10.38" style="fill:none;stroke:black;stroke-width:3" />
<circle cx="251.52" cy="27.08" r="5" stroke-width="0" fill="#FF2A00" opacity="0.7" />
<path d="M357.25,11.75c0,1.62-0.23,2.62-0.73,3.83c-2.27,5.54-6.65,13.19-14.02,20.67" style="fill:none;stroke:#999;stroke-width:3" />
<path d="M355.73,24.79c0.7,0,1.83-0.12,3.24-0.33c4.23-0.61,10.94-1.91,15.8-2.66c2.16-0.33,3.95-0.3,4.99-0.3" style="fill:none;stroke:#999;stroke-width:3" />
<path d="M360.52,27.08c2.31,1.83,5.97,7.53,6.54,10.38" style="fill:none;stroke:#999;stroke-width:3" />
<path d="M391.23,11c0,1.12-0.16,2.37-0.69,3.45c-2.66,5.43-6.79,11.8-12.79,17.05" style="fill:none;stroke:black;stroke-width:3" />
<circle cx="391.23" cy="11.0" r="5" stroke-width="0" fill="#FF2A00" opacity="0.7" />
<path d="M466.25,11.75c0,1.62-0.23,2.62-0.73,3.83c-2.27,5.54-6.65,13.19-14.02,20.67" style="fill:none;stroke:#999;stroke-width:3" />
<path d="M464.73,24.79c0.7,0,1.83-0.12,3.24-0.33c4.23-0.61,10.94-1.91,15.8-2.66c2.16-0.33,3.95-0.3,4.99-0.3" style="fill:none;stroke:#999;stroke-width:3" />
<path d="M469.52,27.08c2.31,1.83,5.97,7.53,6.54,10.38" style="fill:none;stroke:#999;stroke-width:3" />
<path d="M500.23,11c0,1.12-0.16,2.37-0.69,3.45c-2.66,5.43-6.79,11.8-12.79,17.05" style="fill:none;stroke:#999;stroke-width:3" />
<path d="M499.48,21.91c1.39,0.22,2.4,0.12,4.15-0.1c5.18-0.63,13.03-2.08,18.51-2.8c1.96-0.26,3.61-0.42,4.74-0.42" style="fill:none;stroke:black;stroke-width:3" />
<circle cx="499.48" cy="21.91" r="5" stroke-width="0" fill="#FF2A00" opacity="0.7" />
<path d="M575.25,11.75c0,1.62-0.23,2.62-0.73,3.83c-2.27,5.54-6.65,13.19-14.02,20.67" style="fill:none;stroke:#999;stroke-width:3" />
<path d="M573.73,24.79c0.7,0,1.83-0.12,3.24-0.33c4.23-0.61,10.94-1.91,15.8-2.66c2.16-0.33,3.95-0.3,4.99-0.3" style="fill:none;stroke:#999;stroke-width:3" />
<path d="M578.52,27.08c2.31,1.83,5.97,7.53,6.54,10.38" style="fill:none;stroke:#999;stroke-width:3" />
<path d="M609.23,11c0,1.12-0.16,2.37-0.69,3.45c-2.66,5.43-6.79,11.8-12.79,17.05" style="fill:none;stroke:#999;stroke-width:3" />
<path d="M608.48,21.91c1.39,0.22,2.4,0.12,4.15-0.1c5.18-0.63,13.03-2.08,18.51-2.8c1.96-0.26,3.61-0.42,4.74-0.42" style="fill:none;stroke:#999;stroke-width:3" />
<path d="M619.02,24.75c0.05,0.55-0.04,1.08-0.29,1.57c-0.8,1.93-1.99,3.8-4.86,6.43" style="fill:none;stroke:black;stroke-width:3" />
<circle cx="619.02" cy="24.75" r="5" stroke-width="0" fill="#FF2A00" opacity="0.7" />
<path d="M684.25,11.75c0,1.62-0.23,2.62-0.73,3.83c-2.27,5.54-6.65,13.19-14.02,20.67" style="fill:none;stroke:#999;stroke-width:3" />
<path d="M682.73,24.79c0.7,0,1.83-0.12,3.24-0.33c4.23-0.61,10.94-1.91,15.8-2.66c2.16-0.33,3.95-0.3,4.99-0.3" style="fill:none;stroke:#999;stroke-width:3" />
<path d="M687.52,27.08c2.31,1.83,5.97,7.53,6.54,10.38" style="fill:none;stroke:#999;stroke-width:3" />
<path d="M718.23,11c0,1.12-0.16,2.37-0.69,3.45c-2.66,5.43-6.79,11.8-12.79,17.05" style="fill:none;stroke:#999;stroke-width:3" />
<path d="M717.48,21.91c1.39,0.22,2.4,0.12,4.15-0.1c5.18-0.63,13.03-2.08,18.51-2.8c1.96-0.26,3.61-0.42,4.74-0.42" style="fill:none;stroke:#999;stroke-width:3" />
<path d="M728.02,24.75c0.05,0.55-0.04,1.08-0.29,1.57c-0.8,1.93-1.99,3.8-4.86,6.43" style="fill:none;stroke:#999;stroke-width:3" />
<path d="M696.65,46.21c0.85,1.29,0.78,2.87,0.37,4.58C693.0,67.38,687.12,86.25,670.14,97.23" style="fill:none;stroke:black;stroke-width:3" />
<circle cx="696.65" cy="46.21" r="5" stroke-width="0" fill="#FF2A00" opacity="0.7" />
<path d="M793.25,11.75c0,1.62-0.23,2.62-0.73,3.83c-2.27,5.54-6.65,13.19-14.02,20.67" style="fill:none;stroke:#999;stroke-width:3" />
<path d="M791.73,24.79c0.7,0,1.83-0.12,3.24-0.33c4.23-0.61,10.94-1.91,15.8-2.66c2.16-0.33,3.95-0.3,4.99-0.3" style="fill:none;stroke:#999;stroke-width:3" />
<path d="M796.52,27.08c2.31,1.83,5.97,7.53,6.54,10.38" style="fill:none;stroke:#999;stroke-width:3" />
<path d="M827.23,11c0,1.12-0.16,2.37-0.69,3.45c-2.66,5.43-6.79,11.8-12.79,17.05" style="fill:none;stroke:#999;stroke-width:3" />
<path d="M826.48,21.91c1.39,0.22,2.4,0.12,4.15-0.1c5.18-0.63,13.03-2.08,18.51-2.8c1.96-0.26,3.61-0.42,4.74-0.42" style="fill:none;stroke:#999;stroke-width:3" />
<path d="M837.02,24.75c0.05,0.55-0.04,1.08-0.29,1.57c-0.8,1.93-1.99,3.8-4.86,6.43" style="fill:none;stroke:#999;stroke-width:3" />
<path d="M805.65,46.21c0.85,1.29,0.78,2.87,0.37,4.58C802.0,67.38,796.12,86.25,779.14,97.23" style="fill:none;stroke:#999;stroke-width:3" />
<path d="M791.83,43.79c2.82,0.83,6.17,0.95,9,0.37c9.42-1.91,19.79-4.16,27.49-5.73c2.94-0.6,3.99-0.06,2.43,3.7c-1.25,3.02-3.23,9.26-5.16,13.78c-1.66,3.88-0.81,4.79,2.07,3.78c5.47-1.93,7.97-2.56,12.23-4.03c2.92-1.01,4.49,0.35,3.14,2.91C834.88,73.98,820.88,93,794.08,100.5" style="fill:none;stroke:black;stroke-width:3" />
<circle cx="791.83" cy="43.79" r="5" stroke-width="0" fill="#FF2A00" opacity="0.7" />
<path d="M902.25,11.75c0,1.62-0.23,2.62-0.73,3.83c-2.27,5.54-6.65,13.19-14.02,20.67" style="fill:none;stroke:#999;stroke-width:3" />
<path d="M900.73,24.79c0.7,0,1.83-0.12,3.24-0.33c4.23-0.61,10.94-1.91,15.8-2.66c2.16-0.33,3.95-0.3,4.99-0.3" style="fill:none;stroke:#999;stroke-width:3" />
<path d="M905.52,27.08c2.31,1.83,5.97,7.53,6.54,10.38" style="fill:none;stroke:#999;stroke-width:3" />
<path d="M936.23,11c0,1.12-0.16,2.37-0.69,3.45c-2.66,5.43-6.79,11.8-12.79,17.05" style="fill:none;stroke:#999;stroke-width:3" />
<path d="M935.48,21.91c1.39,0.22,2.4,0.12,4.15-0.1c5.18-0.63,13.03-2.08,18.51-2.8c1.96-0.26,3.61-0.42,4.74-0.42" style="fill:none;stroke:#999;stroke-width:3" />
<path d="M946.02,24.75c0.05,0.55-0.04,1.08-0.29,1.57c-0.8,1.93-1.99,3.8-4.86,6.43" style="fill:none;stroke:#999;stroke-width:3" />
<path d="M914.65,46.21c0.85,1.29,0.78,2.87,0.37,4.58C911.0,67.38,905.12,86.25,888.14,97.23" style="fill:none;stroke:#999;stroke-width:3" />
<path d="M900.83,43.79c2.82,0.83,6.17,0.95,9,0.37c9.42-1.91,19.79-4.16,27.49-5.73c2.94-0.6,3.99-0.06,2.43,3.7c-1.25,3.02-3.23,9.26-5.16,13.78c-1.66,3.88-0.81,4.79,2.07,3.78c5.47-1.93,7.97-2.56,12.23-4.03c2.92-1.01,4.49,0.35,3.14,2.91C943.88,73.98,929.88,93,903.08,100.5" style="fill:none;stroke:#999;stroke-width:3" />
<path d="M915.0,59.88c7.05,5.34,23.69,22.77,34.61,31.54c4.04,3.23,8.5,5.69,13.39,7.37" style="fill:none;stroke:black;stroke-width:3" />
<circle cx="915.0" cy="59.88" r="5" stroke-width="0" fill="#FF2A00" opacity="0.7" />
</svg>