<svg width="1635px" height="109px" viewBox="0 0 1635px 109px" xmlns="http://www.w3.org/2000/svg" xmlns:xlink="http://www.w3.org/1999/xlink" xml:space="preserve" version="1.1"  baseProfile="full">
<line x1="1" y1="1" x2="1634" y2="1" style="stroke:#ddd;stroke-width:2" />
<line x1="1" y1="1" x2="1" y2="108" style="stroke:#ddd;stroke-width:2" />
<line x1="1" y1="108" x2="1634" y2="108" style="stroke:#ddd;stroke-width:2" />
<line x1="1634" y1="1" x2="1634" y2="108" style="stroke:#ddd;stroke-width:2" />
<line x1="109" y1="1" x2="109" y2="108" style="stroke:#ddd;stroke-width:2" />
<line x1="218" y1="1" x2="218" y2="108" style="stroke:#ddd;stroke-width:2" />
<line x1="327" y1="1" x2="327" y2="108" style="stroke:#ddd;stroke-width:2" />
<line x1="436" y1="1" x2="436" y2="108" style="stroke:#ddd;stroke-width:2" />
<line x1="545" y1="1" x2="545" y2="108" style="stroke:#ddd;stroke-width:2" />
<line x1="654" y1="1" x2="654" y2="108" style="stroke:#ddd;stroke-width:2" />
<line x1="763" y1="1" x2="763" y2="108" style="stroke:#ddd;stroke-width:2" />
<line x1="872" y1="1" x2="872" y2="108" style="stroke:#ddd;stroke-width:2" />
<line x1="981" y1="1" x2="981" y2="108" style="stroke:#ddd;stroke-width:2" />
<line x1="1090" y1="1" x2="1090" y2="108" style="stroke:#ddd;stroke-width:2" />
<line x1="1199" y1="1" x2="1199" y2="108" style="stroke:#ddd;stroke-width:2" />
<line x1="1308" y1="1" x2="1308" y2="108" style="stroke:#ddd;stroke-width:2" />
<line x1="1417" y1="1" x2="1417" y2="108" style="stroke:#ddd;stroke-width:2" />
<line x1="1526" y1="1" x2="1526" y2="108" style="stroke:#ddd;stroke-width:2" />
<line x1="1" y1="54" x2="1634" y2="54" style="stroke:#ddd;stroke-width:2;stroke-dasharray:3 3" />
<line x1="55" y1="1" x2="55" y2="108" style="stroke:#ddd;stroke-width:2;stroke-dasharray:3 3" />
<line x1="164" y1="1" x2="164" y2="108" style="stroke:#ddd;stroke-width:2;stroke-dasharray:3 3" />
<line x1="273" y1="1" x2="273" y2="108" style="stroke:#ddd;stroke-width:2;stroke-dasharray:3 3" />
<line x1="382" y1="1" x2="382" y2="108" style="stroke:#ddd;stroke-width:2;stroke-dasharray:3 3" />
<line x1="491" y1="1" x2="491" y2="108" style="stroke:#ddd;stroke-width:2;stroke-dasharray:3 3" />
<line x1="600" y1="1" x2="600" y2="108" style="stroke:#ddd;stroke-width:2;stroke-dasharray:3 3" />
<line x1="709" y1="1" x2="709" y2="108" style="stroke:#ddd;stroke-width:2;stroke-dasharray:3 3" />
<line x1="818" y1="1" x2="818" y2="108" style="stroke:#ddd;stroke-width:2;stroke-dasharray:3 3" />
<line x1="927" y1="1" x2="927" y2="108" style="stroke:#ddd;stroke-width:2;stroke-dasharray:3 3" />
<line x1="1036" y1="1" x2="1036" y2="108" style="stroke:#ddd;stroke-width:2;stroke-dasharray:3 3" />
<line x1="1145" y1="1" x2="1145" y2="108" style="stroke:#ddd;stroke-width:2;stroke-dasharray:3 3" />
<line x1="1254" y1="1" x2="1254" y2="108" style="stroke:#ddd;stroke-width:2;stroke-dasharray:3 3" />
<line x1="1363" y1="1" x2="1363" y2="108" style="stroke:#ddd;stroke-width:2;stroke-dasharray:3 3" />
<line x1="1472" y1="1" x2="1472" y2="108" style="stroke:#ddd;stroke-width:2;stroke-dasharray:3 3" />
<line x1="1581" y1="1" x2="1581" y2="108" style="stroke:#ddd;stroke-width:2;stroke-dasharray:3 3" />
<path d="M29.0,11.25c0.03,0.48,0.06,1.23-0.06,1.92C28.19,17.2,23.89,26.07,18.0,31.5" style="fill:none;stroke:black;stroke-width:3" />
<circle cx="29.0" cy="11.25" r="5" stroke-width="0" fill="#FF2A00" opacity="0.7" />
<path d="M138.0,11.25c0.03,0.48,0.06,1.23-0.06,1.92C137.19,17.2,132.89,26.07,127.0,31.5" style="fill:none;stroke:#999;stroke-width:3" />
<path d="M138.73,20.38c3.89,0,16.4-2.47,20.77-2.47" style="fill:none;stroke:black;stroke-width:3" />
<circle cx="138.73" cy="20.38" r="5" stroke-width="0" fill="#FF2A00" opacity="0.7" />
<path d="M247.0,11.25c0.03,0.48,0.06,1.23-0.06,1.92C246.19,17.2,241.89,26.07,236.0,31.5" style="fill:none;stroke:#999;stroke-width:3" />
<path d="M247.73,20.38c3.89,0,16.4-2.47,20.77-2.47" style="fill:none;stroke:#999;stroke-width:3" />
<path d="M255.52,22.33c1.6,1.44,4.14,5.9,4.54,8.13" style="fill:none;stroke:black;stroke-width:3" />
<circle cx="255.52" cy="22.33" r="5" stroke-width="0" fill="#FF2A00" opacity="0.7" />
<path d="M356.0,11.25c0.03,0.48,0.06,1.23-0.06,1.92C355.19,17.2,350.89,26.07,345.0,31.5" style="fill:none;stroke:#999;stroke-width:3" />
<path d="M356.73,20.38c3.89,0,16.4-2.47,20.77-2.47" style="fill:none;stroke:#999;stroke-width:3" />
<path d="M364.52,22.33c1.6,1.44,4.14,5.9,4.54,8.13" style="fill:none;stroke:#999;stroke-width:3" />
<path d="M390.25,10c0.03,0.38,0.11,1-0.05,1.54c-1.2,4.02-4.53,9.77-8.95,14.71" style="fill:none;stroke:black;stroke-width:3" />
<circle cx="390.25" cy="10.0" r="5" stroke-width="0" fill="#FF2A00" opacity="0.7" />
<path d="M465.0,11.25c0.03,0.48,0.06,1.23-0.06,1.92C464.19,17.2,459.89,26.07,454.0,31.5" style="fill:none;stroke:#999;stroke-width:3" />
<path d="M465.73,20.38c3.89,0,16.4-2.47,20.77-2.47" style="fill:none;stroke:#999;stroke-width:3" />
<path d="M473.52,22.33c1.6,1.44,4.14,5.9,4.54,8.13" style="fill:none;stroke:#999;stroke-width:3" />
<path d="M499.25,10c0.03,0.38,0.11,1-0.05,1.54c-1.2,4.02-4.53,9.77-8.95,14.71" style="fill:none;stroke:#999;stroke-width:3" />
<path d="M498.98,18.16c4.73,0,20.58-2.57,25.9-2.57" style="fill:none;stroke:black;stroke-width:3" />
<circle cx="498.98" cy="18.16" r="5" stroke-width="0" fill="#FF2A00" opacity="0.7" />
<path d="M574.0,11.25c0.03,0.48,0.06,1.23-0.06,1.92C573.19,17.2,568.89,26.07,563.0,31.5" style="fill:none;stroke:#999;stroke-width:3" />
<path d="M574.73,20.38c3.89,0,16.4-2.47,20.77-2.47" style="fill:none;stroke:#999;stroke-width:3" />
<path d="M582.52,22.33c1.6,1.44,4.14,5.9,4.54,8.13" style="fill:none;stroke:#999;stroke-width:3" />
<path d="M608.25,10c0.03,0.38,0.11,1-0.05,1.54c-1.2,4.02-4.53,9.77-8.95,14.71" style="fill:none;stroke:#999;stroke-width:3" />
<path d="M607.98,18.16c4.73,0,20.58-2.57,25.9-2.57" style="fill:none;stroke:#999;stroke-width:3" />
<path d="M619.27,20.75c0.02,0.19,0.04,0.49-0.04,0.76c-0.43,1.6-2.88,5.1-6.24,7.24" style="fill:none;stroke:black;stroke-width:3" />
<circle cx="619.27" cy="20.75" r="5" stroke-width="0" fill="#FF2A00" opacity="0.7" />
<path d="M683.0,11.25c0.03,0.48,0.06,1.23-0.06,1.92C682.19,17.2,677.89,26.07,672.0,31.5" style="fill:none;stroke:#999;stroke-width:3" />
<path d="M683.73,20.38c3.89,0,16.4-2.47,20.77-2.47" style="fill:none;stroke:#999;stroke-width:3" />
<path d="M691.52,22.33c1.6,1.44,4.14,5.9,4.54,8.13" style="fill:none;stroke:#999;stroke-width:3" />
<path d="M717.25,10c0.03,0.38,0.11,1-0.05,1.54c-1.2,4.02-4.53,9.77-8.95,14.71" style="fill:none;stroke:#999;stroke-width:3" />
<path d="M716.98,18.16c4.73,0,20.58-2.57,25.9-2.57" style="fill:none;stroke:#999;stroke-width:3" />
<path d="M728.27,20.75c0.02,0.19,0.04,0.49-0.04,0.76c-0.43,1.6-2.88,5.1-6.24,7.24" style="fill:none;stroke:#999;stroke-width:3" />
<path d="M685.44,36.95c0.82,0.24,2.33,0.27,3.15,0.24c8.56-0.28,35.74-4,43.26-4.28c1.37-0.05,2.19,0.12,2.88,0.24" style="fill:none;stroke:black;stroke-width:3" />
<circle cx="685.44" cy="36.95" r="5" stroke-width="0" fill="#FF2A00" opacity="0.7" />
<path d="M792.0,11.25c0.03,0.48,0.06,1.23-0.06,1.92C791.19,17.2,786.89,26.07,781.0,31.5" style="fill:none;stroke:#999;stroke-width:3" />
<path d="M792.73,20.38c3.89,0,16.4-2.47,20.77-2.47" style="fill:none;stroke:#999;stroke-width:3" />
<path d="M800.52,22.33c1.6,1.44,4.14,5.9,4.54,8.13" style="fill:none;stroke:#999;stroke-width:3" />
<path d="M826.25,10c0.03,0.38,0.11,1-0.05,1.54c-1.2,4.02-4.53,9.77-8.95,14.71" style="fill:none;stroke:#999;stroke-width:3" />
<path d="M825.98,18.16c4.73,0,20.58-2.57,25.9-2.57" style="fill:none;stroke:#999;stroke-width:3" />
<path d="M837.27,20.75c0.02,0.19,0.04,0.49-0.04,0.76c-0.43,1.6-2.88,5.1-6.24,7.24" style="fill:none;stroke:#999;stroke-width:3" />
<path d="M794.44,36.95c0.82,0.24,2.33,0.27,3.15,0.24c8.56-0.28,35.74-4,43.26-4.28c1.37-0.05,2.19,0.12,2.88,0.24" style="fill:none;stroke:#999;stroke-width:3" />
<path d="M790.64,46.96c1.11,0.29,2.24,0.62,3.61,0.62c10.87,0.02,38.89-4.63,47.25-5.18c1.75-0.11,3.92,0.76,2.94,2.96c-1.46,3.27-1.57,6-3.1,9.89" style="fill:none;stroke:black;stroke-width:3" />
<circle cx="790.64" cy="46.96" r="5" stroke-width="0" fill="#FF2A00" opacity="0.7" />
<path d="M901.0,11.25c0.03,0.48,0.06,1.23-0.06,1.92C900.19,17.2,895.89,26.07,890.0,31.5" style="fill:none;stroke:#999;stroke-width:3" />
<path d="M901.73,20.38c3.89,0,16.4-2.47,20.77-2.47" style="fill:none;stroke:#999;stroke-width:3" />
<path d="M909.52,22.33c1.6,1.44,4.14,5.9,4.54,8.13" style="fill:none;stroke:#999;stroke-width:3" />
<path d="M935.25,10c0.03,0.38,0.11,1-0.05,1.54c-1.2,4.02-4.53,9.77-8.95,14.71" style="fill:none;stroke:#999;stroke-width:3" />
<path d="M934.98,18.16c4.73,0,20.58-2.57,25.9-2.57" style="fill:none;stroke:#999;stroke-width:3" />
<path d="M946.27,20.75c0.02,0.19,0.04,0.49-0.04,0.76c-0.43,1.6-2.88,5.1-6.24,7.24" style="fill:none;stroke:#999;stroke-width:3" />
<path d="M903.44,36.95c0.82,0.24,2.33,0.27,3.15,0.24c8.56-0.28,35.74-4,43.26-4.28c1.37-0.05,2.19,0.12,2.88,0.24" style="fill:none;stroke:#999;stroke-width:3" />
<path d="M899.64,46.96c1.11,0.29,2.24,0.62,3.61,0.62c10.87,0.02,38.89-4.63,47.25-5.18c1.75-0.11,3.92,0.76,2.94,2.96c-1.46,3.27-1.57,6-3.1,9.89" style="fill:none;stroke:#999;stroke-width:3" />
<path d="M902.68,59.81c7.22,0,37.63-4.25,50.32-4.66" style="fill:none;stroke:black;stroke-width:3" />
<circle cx="902.68" cy="59.81" r="5" stroke-width="0" fill="#FF2A00" opacity="0.7" />
<path d="M1010.0,11.25c0.03,0.48,0.06,1.23-0.06,1.92C1009.19,17.2,1004.89,26.07,999.0,31.5" style="fill:none;stroke:#999;stroke-width:3" />
<path d="M1010.73,20.38c3.89,0,16.4-2.47,20.77-2.47" style="fill:none;stroke:#999;stroke-width:3" />
<path d="M1018.52,22.33c1.6,1.44,4.14,5.9,4.54,8.13" style="fill:none;stroke:#999;stroke-width:3" />
<path d="M1044.25,10c0.03,0.38,0.11,1-0.05,1.54c-1.2,4.02-4.53,9.77-8.95,14.71" style="fill:none;stroke:#999;stroke-width:3" />
<path d="M1043.98,18.16c4.73,0,20.58-2.57,25.9-2.57" style="fill:none;stroke:#999;stroke-width:3" />
<path d="M1055.27,20.75c0.02,0.19,0.04,0.49-0.04,0.76c-0.43,1.6-2.88,5.1-6.24,7.24" style="fill:none;stroke:#999;stroke-width:3" />
<path d="M1012.44,36.95c0.82,0.24,2.33,0.27,3.15,0.24c8.56-0.28,35.74-4,43.26-4.28c1.37-0.05,2.19,0.12,2.88,0.24" style="fill:none;stroke:#999;stroke-width:3" />
<path d="M1008.64,46.96c1.11,0.29,2.24,0.62,3.61,0.62c10.87,0.02,38.89-4.63,47.25-5.18c1.75-0.11,3.92,0.76,2.94,2.96c-1.46,3.27-1.57,6-3.1,9.89" style="fill:none;stroke:#999;stroke-width:3" />
<path d="M1011.68,59.81c7.22,0,37.63-4.25,50.32-4.66" style="fill:none;stroke:#999;stroke-width:3" />
<path d="M1011.23,47.7c0.31,0.95,0.58,2.91,0.52,4.54C1011.0,72.75,1009.0,84.25,995.59,95.72" style="fill:none;stroke:black;stroke-width:3" />
<circle cx="1011.23" cy="47.7" r="5" stroke-width="0" fill="#FF2A00" opacity="0.7" />
<path d="M1119.0,11.25c0.03,0.48,0.06,1.23-0.06,1.92C1118.19,17.2,1113.8899999999999,26.07,1108.0,31.5" style="fill:none;stroke:#999;stroke-width:3" />
<path d="M1119.73,20.38c3.89,0,16.4-2.47,20.77-2.47" style="fill:none;stroke:#999;stroke-width:3" />
<path d="M1127.52,22.33c1.6,1.44,4.14,5.9,4.54,8.13" style="fill:none;stroke:#999;stroke-width:3" />
<path d="M1153.25,10c0.03,0.38,0.11,1-0.05,1.54c-1.2,4.02-4.53,9.77-8.95,14.71" style="fill:none;stroke:#999;stroke-width:3" />
<path d="M1152.98,18.16c4.73,0,20.58-2.57,25.9-2.57" style="fill:none;stroke:#999;stroke-width:3" />
<path d="M1164.27,20.75c0.02,0.19,0.04,0.49-0.04,0.76c-0.43,1.6-2.88,5.1-6.24,7.24" style="fill:none;stroke:#999;stroke-width:3" />
<path d="M1121.44,36.95c0.82,0.24,2.33,0.27,3.15,0.24c8.56-0.28,35.74-4,43.26-4.28c1.37-0.05,2.19,0.12,2.88,0.24" style="fill:none;stroke:#999;stroke-width:3" />
<path d="M1117.6399999999999,46.96c1.11,0.29,2.24,0.62,3.61,0.62c10.87,0.02,38.89-4.63,47.25-5.18c1.75-0.11,3.92,0.76,2.94,2.96c-1.46,3.27-1.57,6-3.1,9.89" style="fill:none;stroke:#999;stroke-width:3" />
<path d="M1120.6799999999998,59.81c7.22,0,37.63-4.25,50.32-4.66" style="fill:none;stroke:#999;stroke-width:3" />
<path d="M1120.23,47.7c0.31,0.95,0.58,2.91,0.52,4.54C1120.0,72.75,1118.0,84.25,1104.5900000000001,95.72" style="fill:none;stroke:#999;stroke-width:3" />
<path d="M1124.24,68.75c0.49,0.52,0.67,1.35,0.65,2.3c-0.14,5.7,1.72,27.38,1.72,28.95" style="fill:none;stroke:black;stroke-width:3" />
<circle cx="1124.24" cy="68.75" r="5" stroke-width="0" fill="#FF2A00" opacity="0.7" />
<path d="M1228.0,11.25c0.03,0.48,0.06,1.23-0.06,1.92C1227.19,17.2,1222.8899999999999,26.07,1217.0,31.5" style="fill:none;stroke:#999;stroke-width:3" />
<path d="M1228.73,20.38c3.89,0,16.4-2.47,20.77-2.47" style="fill:none;stroke:#999;stroke-width:3" />
<path d="M1236.52,22.33c1.6,1.44,4.14,5.9,4.54,8.13" style="fill:none;stroke:#999;stroke-width:3" />
<path d="M1262.25,10c0.03,0.38,0.11,1-0.05,1.54c-1.2,4.02-4.53,9.77-8.95,14.71" style="fill:none;stroke:#999;stroke-width:3" />
<path d="M1261.98,18.16c4.73,0,20.58-2.57,25.9-2.57" style="fill:none;stroke:#999;stroke-width:3" />
<path d="M1273.27,20.75c0.02,0.19,0.04,0.49-0.04,0.76c-0.43,1.6-2.88,5.1-6.24,7.24" style="fill:none;stroke:#999;stroke-width:3" />
<path d="M1230.44,36.95c0.82,0.24,2.33,0.27,3.15,0.24c8.56-0.28,35.74-4,43.26-4.28c1.37-0.05,2.19,0.12,2.88,0.24" style="fill:none;stroke:#999;stroke-width:3" />
<path d="M1226.6399999999999,46.96c1.11,0.29,2.24,0.62,3.61,0.62c10.87,0.02,38.89-4.63,47.25-5.18c1.75-0.11,3.92,0.76,2.94,2.96c-1.46,3.27-1.57,6-3.1,9.89" style="fill:none;stroke:#999;stroke-width:3" />
<path d="M1229.6799999999998,59.81c7.22,0,37.63-4.25,50.32-4.66" style="fill:none;stroke:#999;stroke-width:3" />
<path d="M1229.23,47.7c0.31,0.95,0.58,2.91,0.52,4.54C1229.0,72.75,1227.0,84.25,1213.5900000000001,95.72" style="fill:none;stroke:#999;stroke-width:3" />
<path d="M1233.24,68.75c0.49,0.52,0.67,1.35,0.65,2.3c-0.14,5.7,1.72,27.38,1.72,28.95" style="fill:none;stroke:#999;stroke-width:3" />
<path d="M1234.53,70.48c6.19-0.42,45.27-5.18,46.49-5.32c2.61-0.31,3.8,1.93,3.8,2.49c0,5.55-4.31,23.61-5.48,27.52c-1.57,5.25-3.36,1.99-5.32,0.63" style="fill:none;stroke:black;stroke-width:3" />
<circle cx="1234.53" cy="70.48" r="5" stroke-width="0" fill="#FF2A00" opacity="0.7" />
<path d="M1337.0,11.25c0.03,0.48,0.06,1.23-0.06,1.92C1336.19,17.2,1331.8899999999999,26.07,1326.0,31.5" style="fill:none;stroke:#999;stroke-width:3" />
<path d="M1337.73,20.38c3.89,0,16.4-2.47,20.77-2.47" style="fill:none;stroke:#999;stroke-width:3" />
<path d="M1345.52,22.33c1.6,1.44,4.14,5.9,4.54,8.13" style="fill:none;stroke:#999;stroke-width:3" />
<path d="M1371.25,10c0.03,0.38,0.11,1-0.05,1.54c-1.2,4.02-4.53,9.77-8.95,14.71" style="fill:none;stroke:#999;stroke-width:3" />
<path d="M1370.98,18.16c4.73,0,20.58-2.57,25.9-2.57" style="fill:none;stroke:#999;stroke-width:3" />
<path d="M1382.27,20.75c0.02,0.19,0.04,0.49-0.04,0.76c-0.43,1.6-2.88,5.1-6.24,7.24" style="fill:none;stroke:#999;stroke-width:3" />
<path d="M1339.44,36.95c0.82,0.24,2.33,0.27,3.15,0.24c8.56-0.28,35.74-4,43.26-4.28c1.37-0.05,2.19,0.12,2.88,0.24" style="fill:none;stroke:#999;stroke-width:3" />
<path d="M1335.6399999999999,46.96c1.11,0.29,2.24,0.62,3.61,0.62c10.87,0.02,38.89-4.63,47.25-5.18c1.75-0.11,3.92,0.76,2.94,2.96c-1.46,3.27-1.57,6-3.1,9.89" style="fill:none;stroke:#999;stroke-width:3" />
<path d="M1338.6799999999998,59.81c7.22,0,37.63-4.25,50.32-4.66" style="fill:none;stroke:#999;stroke-width:3" />
<path d="M1338.23,47.7c0.31,0.95,0.58,2.91,0.52,4.54C1338.0,72.75,1336.0,84.25,1322.5900000000001,95.72" style="fill:none;stroke:#999;stroke-width:3" />
<path d="M1342.24,68.75c0.49,0.52,0.67,1.35,0.65,2.3c-0.14,5.7,1.72,27.38,1.72,28.95" style="fill:none;stroke:#999;stroke-width:3" />
<path d="M1343.53,70.48c6.19-0.42,45.27-5.18,46.49-5.32c2.61-0.31,3.8,1.93,3.8,2.49c0,5.55-4.31,23.61-5.48,27.52c-1.57,5.25-3.36,1.99-5.32,0.63" style="fill:none;stroke:#999;stroke-width:3" />
<path d="M1345.96,82.95c7.07-0.32,29.64-2.67,45.1-2.88" style="fill:none;stroke:black;stroke-width:3" />
<circle cx="1345.96" cy="82.95" r="5" stroke-width="0" fill="#FF2A00" opacity="0.7" />
<path d="M1446.0,11.25c0.03,0.48,0.06,1.23-0.06,1.92C1445.19,17.2,1440.8899999999999,26.07,1435.0,31.5" style="fill:none;stroke:#999;stroke-width:3" />
<path d="M1446.73,20.38c3.89,0,16.4-2.47,20.77-2.47" style="fill:none;stroke:#999;stroke-width:3" />
<path d="M1454.52,22.33c1.6,1.44,4.14,5.9,4.54,8.13" style="fill:none;stroke:#999;stroke-width:3" />
<path d="M1480.25,10c0.03,0.38,0.11,1-0.05,1.54c-1.2,4.02-4.53,9.77-8.95,14.71" style="fill:none;stroke:#999;stroke-width:3" />
<path d="M1479.98,18.16c4.73,0,20.58-2.57,25.9-2.57" style="fill:none;stroke:#999;stroke-width:3" />
<path d="M1491.27,20.75c0.02,0.19,0.04,0.49-0.04,0.76c-0.43,1.6-2.88,5.1-6.24,7.24" style="fill:none;stroke:#999;stroke-width:3" />
<path d="M1448.44,36.95c0.82,0.24,2.33,0.27,3.15,0.24c8.56-0.28,35.74-4,43.26-4.28c1.37-0.05,2.19,0.12,2.88,0.24" style="fill:none;stroke:#999;stroke-width:3" />
<path d="M1444.6399999999999,46.96c1.11,0.29,2.24,0.62,3.61,0.62c10.87,0.02,38.89-4.63,47.25-5.18c1.75-0.11,3.92,0.76,2.94,2.96c-1.46,3.27-1.57,6-3.1,9.89" style="fill:none;stroke:#999;stroke-width:3" />
<path d="M1447.6799999999998,59.81c7.22,0,37.63-4.25,50.32-4.66" style="fill:none;stroke:#999;stroke-width:3" />
<path d="M1447.23,47.7c0.31,0.95,0.58,2.91,0.52,4.54C1447.0,72.75,1445.0,84.25,1431.5900000000001,95.72" style="fill:none;stroke:#999;stroke-width:3" />
<path d="M1451.24,68.75c0.49,0.52,0.67,1.35,0.65,2.3c-0.14,5.7,1.72,27.38,1.72,28.95" style="fill:none;stroke:#999;stroke-width:3" />
<path d="M1452.53,70.48c6.19-0.42,45.27-5.18,46.49-5.32c2.61-0.31,3.8,1.93,3.8,2.49c0,5.55-4.31,23.61-5.48,27.52c-1.57,5.25-3.36,1.99-5.32,0.63" style="fill:none;stroke:#999;stroke-width:3" />
<path d="M1454.96,82.95c7.07-0.32,29.64-2.67,45.1-2.88" style="fill:none;stroke:#999;stroke-width:3" />
<path d="M1466.15,70.8c0.1,0.95,1.64,1.95,1.64,2.42c0,2.03,0,20.56-0.18,23.29" style="fill:none;stroke:black;stroke-width:3" />
<circle cx="1466.15" cy="70.8" r="5" stroke-width="0" fill="#FF2A00" opacity="0.7" />
<path d="M1555.0,11.25c0.03,0.48,0.06,1.23-0.06,1.92C1554.19,17.2,1549.8899999999999,26.07,1544.0,31.5" style="fill:none;stroke:#999;stroke-width:3" />
<path d="M1555.73,20.38c3.89,0,16.4-2.47,20.77-2.47" style="fill:none;stroke:#999;stroke-width:3" />
<path d="M1563.52,22.33c1.6,1.44,4.14,5.9,4.54,8.13" style="fill:none;stroke:#999;stroke-width:3" />
<path d="M1589.25,10c0.03,0.38,0.11,1-0.05,1.54c-1.2,4.02-4.53,9.77-8.95,14.71" style="fill:none;stroke:#999;stroke-width:3" />
<path d="M1588.98,18.16c4.73,0,20.58-2.57,25.9-2.57" style="fill:none;stroke:#999;stroke-width:3" />
<path d="M1600.27,20.75c0.02,0.19,0.04,0.49-0.04,0.76c-0.43,1.6-2.88,5.1-6.24,7.24" style="fill:none;stroke:#999;stroke-width:3" />
<path d="M1557.44,36.95c0.82,0.24,2.33,0.27,3.15,0.24c8.56-0.28,35.74-4,43.26-4.28c1.37-0.05,2.19,0.12,2.88,0.24" style="fill:none;stroke:#999;stroke-width:3" />
<path d="M1553.6399999999999,46.96c1.11,0.29,2.24,0.62,3.61,0.62c10.87,0.02,38.89-4.63,47.25-5.18c1.75-0.11,3.92,0.76,2.94,2.96c-1.46,3.27-1.57,6-3.1,9.89" style="fill:none;stroke:#999;stroke-width:3" />
<path d="M1556.6799999999998,59.81c7.22,0,37.63-4.25,50.32-4.66" style="fill:none;stroke:#999;stroke-width:3" />
<path d="M1556.23,47.7c0.31,0.95,0.58,2.91,0.52,4.54C1556.0,72.75,1554.0,84.25,1540.5900000000001,95.72" style="fill:none;stroke:#999;stroke-width:3" />
<path d="M1560.24,68.75c0.49,0.52,0.67,1.35,0.65,2.3c-0.14,5.7,1.72,27.38,1.72,28.95" style="fill:none;stroke:#999;stroke-width:3" />
<path d="M1561.53,70.48c6.19-0.42,45.27-5.18,46.49-5.32c2.61-0.31,3.8,1.93,3.8,2.49c0,5.55-4.31,23.61-5.48,27.52c-1.57,5.25-3.36,1.99-5.32,0.63" style="fill:none;stroke:#999;stroke-width:3" />
<path d="M1563.96,82.95c7.07-0.32,29.64-2.67,45.1-2.88" style="fill:none;stroke:#999;stroke-width:3" />
<path d="M1575.15,70.8c0.1,0.95,1.64,1.95,1.64,2.42c0,2.03,0,20.56-0.18,23.29" style="fill:none;stroke:#999;stroke-width:3" />
<path d="M1591.0,69.63c0.75,0.62,1.14,1.95,1.14,2.42c0,3.45,0,19.89-0.18,22.62" style="fill:none;stroke:black;stroke-width:3" />
<circle cx="1591.0" cy="69.63" r="5" stroke-width="0" fill="#FF2A00" opacity="0.7" />
</svg>