<svg width="1635px" height="109px" viewBox="0 0 1635px 109px" xmlns="http://www.w3.org/2000/svg" xmlns:xlink="http://www.w3.org/1999/xlink" xml:space="preserve" version="1.1"  baseProfile="full">
<line x1="1" y1="1" x2="1634" y2="1" style="stroke:#ddd;stroke-width:2" />
<line x1="1" y1="1" x2="1" y2="108" style="stroke:#ddd;stroke-width:2" />
<line x1="1" y1="108" x2="1634" y2="108" style="stroke:#ddd;stroke-width:2" />
<line x1="1634" y1="1" x2="1634" y2="108" style="stroke:#ddd;stroke-width:2" />
<line x1="109" y1="1" x2="109" y2="108" style="stroke:#ddd;stroke-width:2" />
<line x1="218" y1="1" x2="218" y2="108" style="stroke:#ddd;stroke-width:2" />
<line x1="327" y1="1" x2="327" y2="108" style="stroke:#ddd;stroke-width:2" />
<line x1="436" y1="1" x2="436" y2="108" style="stroke:#ddd;stroke-width:2" />
<line x1="545" y1="1" x2="545" y2="108" style="stroke:#ddd;stroke-width:2" />
<line x1="654" y1="1" x2="654" y2="108" style="stroke:#ddd;stroke-width:2" />
<line x1="763" y1="1" x2="763" y2="108" style="stroke:#ddd;stroke-width:2" />
<line x1="872" y1="1" x2="872" y2="108" style="stroke:#ddd;stroke-width:2" />
<line x1="981" y1="1" x2="981" y2="108" style="stroke:#ddd;stroke-width:2" />
<line x1="1090" y1="1" x2="1090" y2="108" style="stroke:#ddd;stroke-width:2" />
<line x1="1199" y1="1" x2="1199" y2="108" style="stroke:#ddd;stroke-width:2" />
<line x1="1308" y1="1" x2="1308" y2="108" style="stroke:#ddd;stroke-width:2" />
<line x1="1417" y1="1" x2="1417" y2="108" style="stroke:#ddd;stroke-width:2" />
<line x1="1526" y1="1" x2="1526" y2="108" style="stroke:#ddd;stroke-width:2" />
<line x1="1" y1="54" x2="1634" y2="54" style="stroke:#ddd;stroke-width:2;stroke-dasharray:3 3" />
<line x1="55" y1="1" x2="55" y2="108" style="stroke:#ddd;stroke-width:2;stroke-dasharray:3 3" />
<line x1="164" y1="1" x2="164" y2="108" style="stroke:#ddd;stroke-width:2;stroke-dasharray:3 3" />
<line x1="273" y1="1" x2="273" y2="108" style="stroke:#ddd;stroke-width:2;stroke-dasharray:3 3" />
<line x1="382" y1="1" x2="382" y2="108" style="stroke:#ddd;stroke-width:2;stroke-dasharray:3 3" />
<line x1="491" y1="1" x2="491" y2="108" style="stroke:#ddd;stroke-width:2;stroke-dasharray:3 3" />
<line x1="600" y1="1" x2="600" y2="108" style="stroke:#ddd;stroke-width:2;stroke-dasharray:3 3" />
<line x1="709" y1="1" x2="709" y2="108" style="stroke:#ddd;stroke-width:2;stroke-dasharray:3 3" />
<line x1="818" y1="1" x2="818" y2="108" style="stroke:#ddd;stroke-width:2;stroke-dasharray:3 3" />
<line x1="927" y1="1" x2="927" y2="108" style="stroke:#ddd;stroke-width:2;stroke-dasharray:3 3" />
<line x1="1036" y1="1" x2="1036" y2="108" style="stroke:#ddd;stroke-width:2;stroke-dasharray:3 3" />
<line x1="1145" y1="1" x2="1145" y2="108" style="stroke:#ddd;stroke-width:2;stroke-dasharray:3 3" />
<line x1="1254" y1="1" x2="1254" y2="108" style="stroke:#ddd;stroke-width:2;stroke-dasharray:3 3" />
<line x1="1363" y1="1" x2="1363" y2="108" style="stroke:#ddd;stroke-width:2;stroke-dasharray:3 3" />
<line x1="1472" y1="1" x2="1472" y2="108" style="stroke:#ddd;stroke-width:2;stroke-dasharray:3 3" />
<line x1="1581" y1="1" x2="1581" y2="108" style="stroke:#ddd;stroke-width:2;stroke-dasharray:3 3" />
<path d="M12.38,19.95c1.62,0.55,3.12,0.43,5.34-0.01c3.41-0.68,8.15-1.69,9.06-1.8c2.3-0.27,2.88,0.86,2.88,3.06c0,2.55-0.43,15.84-0.43,26.75c0,5.3-3.88,2.74-5.54,0.8" style="fill:none;stroke:black;stroke-width:3" />
<circle cx="12.38" cy="19.95" r="5" stroke-width="0" fill="#FF2A00" opacity="0.7" />
<path d="M121.38,19.95c1.62,0.55,3.12,0.43,5.34-0.01c3.41-0.68,8.15-1.69,9.06-1.8c2.3-0.27,2.88,0.86,2.88,3.06c0,2.55-0.43,15.84-0.43,26.75c0,5.3-3.88,2.74-5.54,0.8" style="fill:none;stroke:#999;stroke-width:3" />
<path d="M123.24,28.52c2.08,0.97,5.38,3.97,5.9,5.47" style="fill:none;stroke:black;stroke-width:3" />
<circle cx="123.24" cy="28.52" r="5" stroke-width="0" fill="#FF2A00" opacity="0.7" />
<path d="M230.38,19.95c1.62,0.55,3.12,0.43,5.34-0.01c3.41-0.68,8.15-1.69,9.06-1.8c2.3-0.27,2.88,0.86,2.88,3.06c0,2.55-0.43,15.84-0.43,26.75c0,5.3-3.88,2.74-5.54,0.8" style="fill:none;stroke:#999;stroke-width:3" />
<path d="M232.24,28.52c2.08,0.97,5.38,3.97,5.9,5.47" style="fill:none;stroke:#999;stroke-width:3" />
<path d="M229.0,44.7c1.22,0.98,2.49,0.65,3.71-0.19c0.72-0.5,6.02-4.65,9.07-7.03" style="fill:none;stroke:black;stroke-width:3" />
<circle cx="229.0" cy="44.7" r="5" stroke-width="0" fill="#FF2A00" opacity="0.7" />
<path d="M339.38,19.95c1.62,0.55,3.12,0.43,5.34-0.01c3.41-0.68,8.15-1.69,9.06-1.8c2.3-0.27,2.88,0.86,2.88,3.06c0,2.55-0.43,15.84-0.43,26.75c0,5.3-3.88,2.74-5.54,0.8" style="fill:none;stroke:#999;stroke-width:3" />
<path d="M341.24,28.52c2.08,0.97,5.38,3.97,5.9,5.47" style="fill:none;stroke:#999;stroke-width:3" />
<path d="M338.0,44.7c1.22,0.98,2.49,0.65,3.71-0.19c0.72-0.5,6.02-4.65,9.07-7.03" style="fill:none;stroke:#999;stroke-width:3" />
<path d="M363.56,19.7c2.02,0.56,3.99,0.59,5.92,0.07c2.75-0.6,6.24-1.26,7.9-1.46c2.79-0.34,3.64,0.5,3.64,3.47c0,2.71-0.43,15.25-0.43,26.17c0,5.8-3.58,2.05-5.54,0.3" style="fill:none;stroke:black;stroke-width:3" />
<circle cx="363.56" cy="19.7" r="5" stroke-width="0" fill="#FF2A00" opacity="0.7" />
<path d="M448.38,19.95c1.62,0.55,3.12,0.43,5.34-0.01c3.41-0.68,8.15-1.69,9.06-1.8c2.3-0.27,2.88,0.86,2.88,3.06c0,2.55-0.43,15.84-0.43,26.75c0,5.3-3.88,2.74-5.54,0.8" style="fill:none;stroke:#999;stroke-width:3" />
<path d="M450.24,28.52c2.08,0.97,5.38,3.97,5.9,5.47" style="fill:none;stroke:#999;stroke-width:3" />
<path d="M447.0,44.7c1.22,0.98,2.49,0.65,3.71-0.19c0.72-0.5,6.02-4.65,9.07-7.03" style="fill:none;stroke:#999;stroke-width:3" />
<path d="M472.56,19.7c2.02,0.56,3.99,0.59,5.92,0.07c2.75-0.6,6.24-1.26,7.9-1.46c2.79-0.34,3.64,0.5,3.64,3.47c0,2.71-0.43,15.25-0.43,26.17c0,5.8-3.58,2.05-5.54,0.3" style="fill:none;stroke:#999;stroke-width:3" />
<path d="M474.62,26.03c2.2,1.18,5.13,3.85,6.24,5.97" style="fill:none;stroke:black;stroke-width:3" />
<circle cx="474.62" cy="26.03" r="5" stroke-width="0" fill="#FF2A00" opacity="0.7" />
<path d="M557.38,19.95c1.62,0.55,3.12,0.43,5.34-0.01c3.41-0.68,8.15-1.69,9.06-1.8c2.3-0.27,2.88,0.86,2.88,3.06c0,2.55-0.43,15.84-0.43,26.75c0,5.3-3.88,2.74-5.54,0.8" style="fill:none;stroke:#999;stroke-width:3" />
<path d="M559.24,28.52c2.08,0.97,5.38,3.97,5.9,5.47" style="fill:none;stroke:#999;stroke-width:3" />
<path d="M556.0,44.7c1.22,0.98,2.49,0.65,3.71-0.19c0.72-0.5,6.02-4.65,9.07-7.03" style="fill:none;stroke:#999;stroke-width:3" />
<path d="M581.56,19.7c2.02,0.56,3.99,0.59,5.92,0.07c2.75-0.6,6.24-1.26,7.9-1.46c2.79-0.34,3.64,0.5,3.64,3.47c0,2.71-0.43,15.25-0.43,26.17c0,5.8-3.58,2.05-5.54,0.3" style="fill:none;stroke:#999;stroke-width:3" />
<path d="M583.62,26.03c2.2,1.18,5.13,3.85,6.24,5.97" style="fill:none;stroke:#999;stroke-width:3" />
<path d="M582.0,43.63c1,0.62,2.26,0.51,3.49-0.39c0.73-0.53,4.13-2.98,7.51-5.74" style="fill:none;stroke:black;stroke-width:3" />
<circle cx="582.0" cy="43.63" r="5" stroke-width="0" fill="#FF2A00" opacity="0.7" />
<path d="M666.38,19.95c1.62,0.55,3.12,0.43,5.34-0.01c3.41-0.68,8.15-1.69,9.06-1.8c2.3-0.27,2.88,0.86,2.88,3.06c0,2.55-0.43,15.84-0.43,26.75c0,5.3-3.88,2.74-5.54,0.8" style="fill:none;stroke:#999;stroke-width:3" />
<path d="M668.24,28.52c2.08,0.97,5.38,3.97,5.9,5.47" style="fill:none;stroke:#999;stroke-width:3" />
<path d="M665.0,44.7c1.22,0.98,2.49,0.65,3.71-0.19c0.72-0.5,6.02-4.65,9.07-7.03" style="fill:none;stroke:#999;stroke-width:3" />
<path d="M690.56,19.7c2.02,0.56,3.99,0.59,5.92,0.07c2.75-0.6,6.24-1.26,7.9-1.46c2.79-0.34,3.64,0.5,3.64,3.47c0,2.71-0.43,15.25-0.43,26.17c0,5.8-3.58,2.05-5.54,0.3" style="fill:none;stroke:#999;stroke-width:3" />
<path d="M692.62,26.03c2.2,1.18,5.13,3.85,6.24,5.97" style="fill:none;stroke:#999;stroke-width:3" />
<path d="M691.0,43.63c1,0.62,2.26,0.51,3.49-0.39c0.73-0.53,4.13-2.98,7.51-5.74" style="fill:none;stroke:#999;stroke-width:3" />
<path d="M688.91,52.5c0.03,1.11-0.3,2.04-0.99,2.78c-1.47,1.85-3.37,4.16-7.16,7.82" style="fill:none;stroke:black;stroke-width:3" />
<circle cx="688.91" cy="52.5" r="5" stroke-width="0" fill="#FF2A00" opacity="0.7" />
<path d="M775.38,19.95c1.62,0.55,3.12,0.43,5.34-0.01c3.41-0.68,8.15-1.69,9.06-1.8c2.3-0.27,2.88,0.86,2.88,3.06c0,2.55-0.43,15.84-0.43,26.75c0,5.3-3.88,2.74-5.54,0.8" style="fill:none;stroke:#999;stroke-width:3" />
<path d="M777.24,28.52c2.08,0.97,5.38,3.97,5.9,5.47" style="fill:none;stroke:#999;stroke-width:3" />
<path d="M774.0,44.7c1.22,0.98,2.49,0.65,3.71-0.19c0.72-0.5,6.02-4.65,9.07-7.03" style="fill:none;stroke:#999;stroke-width:3" />
<path d="M799.56,19.7c2.02,0.56,3.99,0.59,5.92,0.07c2.75-0.6,6.24-1.26,7.9-1.46c2.79-0.34,3.64,0.5,3.64,3.47c0,2.71-0.43,15.25-0.43,26.17c0,5.8-3.58,2.05-5.54,0.3" style="fill:none;stroke:#999;stroke-width:3" />
<path d="M801.62,26.03c2.2,1.18,5.13,3.85,6.24,5.97" style="fill:none;stroke:#999;stroke-width:3" />
<path d="M800.0,43.63c1,0.62,2.26,0.51,3.49-0.39c0.73-0.53,4.13-2.98,7.51-5.74" style="fill:none;stroke:#999;stroke-width:3" />
<path d="M797.91,52.5c0.03,1.11-0.3,2.04-0.99,2.78c-1.47,1.85-3.37,4.16-7.16,7.82" style="fill:none;stroke:#999;stroke-width:3" />
<path d="M781.08,64.76c0.83,0.83,1.1,1.87,1.18,2.85c0.35,4.55,1.09,13.13,1.61,20.01c0.21,2.79,0.39,5.29,0.49,7.13" style="fill:none;stroke:black;stroke-width:3" />
<circle cx="781.08" cy="64.76" r="5" stroke-width="0" fill="#FF2A00" opacity="0.7" />
<path d="M884.38,19.95c1.62,0.55,3.12,0.43,5.34-0.01c3.41-0.68,8.15-1.69,9.06-1.8c2.3-0.27,2.88,0.86,2.88,3.06c0,2.55-0.43,15.84-0.43,26.75c0,5.3-3.88,2.74-5.54,0.8" style="fill:none;stroke:#999;stroke-width:3" />
<path d="M886.24,28.52c2.08,0.97,5.38,3.97,5.9,5.47" style="fill:none;stroke:#999;stroke-width:3" />
<path d="M883.0,44.7c1.22,0.98,2.49,0.65,3.71-0.19c0.72-0.5,6.02-4.65,9.07-7.03" style="fill:none;stroke:#999;stroke-width:3" />
<path d="M908.56,19.7c2.02,0.56,3.99,0.59,5.92,0.07c2.75-0.6,6.24-1.26,7.9-1.46c2.79-0.34,3.64,0.5,3.64,3.47c0,2.71-0.43,15.25-0.43,26.17c0,5.8-3.58,2.05-5.54,0.3" style="fill:none;stroke:#999;stroke-width:3" />
<path d="M910.62,26.03c2.2,1.18,5.13,3.85,6.24,5.97" style="fill:none;stroke:#999;stroke-width:3" />
<path d="M909.0,43.63c1,0.62,2.26,0.51,3.49-0.39c0.73-0.53,4.13-2.98,7.51-5.74" style="fill:none;stroke:#999;stroke-width:3" />
<path d="M906.91,52.5c0.03,1.11-0.3,2.04-0.99,2.78c-1.47,1.85-3.37,4.16-7.16,7.82" style="fill:none;stroke:#999;stroke-width:3" />
<path d="M890.08,64.76c0.83,0.83,1.1,1.87,1.18,2.85c0.35,4.55,1.09,13.13,1.61,20.01c0.21,2.79,0.39,5.29,0.49,7.13" style="fill:none;stroke:#999;stroke-width:3" />
<path d="M892.28,66.5c8.72-1,16.59-2.25,24.95-3.31c1.97-0.25,2.7,1.08,2.46,4.06c-0.28,3.65-0.84,12.6-1.32,20.38c-0.15,2.35-0.29,4.59-0.42,6.54" style="fill:none;stroke:black;stroke-width:3" />
<circle cx="892.28" cy="66.5" r="5" stroke-width="0" fill="#FF2A00" opacity="0.7" />
<path d="M993.38,19.95c1.62,0.55,3.12,0.43,5.34-0.01c3.41-0.68,8.15-1.69,9.06-1.8c2.3-0.27,2.88,0.86,2.88,3.06c0,2.55-0.43,15.84-0.43,26.75c0,5.3-3.88,2.74-5.54,0.8" style="fill:none;stroke:#999;stroke-width:3" />
<path d="M995.24,28.52c2.08,0.97,5.38,3.97,5.9,5.47" style="fill:none;stroke:#999;stroke-width:3" />
<path d="M992.0,44.7c1.22,0.98,2.49,0.65,3.71-0.19c0.72-0.5,6.02-4.65,9.07-7.03" style="fill:none;stroke:#999;stroke-width:3" />
<path d="M1017.56,19.7c2.02,0.56,3.99,0.59,5.92,0.07c2.75-0.6,6.24-1.26,7.9-1.46c2.79-0.34,3.64,0.5,3.64,3.47c0,2.71-0.43,15.25-0.43,26.17c0,5.8-3.58,2.05-5.54,0.3" style="fill:none;stroke:#999;stroke-width:3" />
<path d="M1019.62,26.03c2.2,1.18,5.13,3.85,6.24,5.97" style="fill:none;stroke:#999;stroke-width:3" />
<path d="M1018.0,43.63c1,0.62,2.26,0.51,3.49-0.39c0.73-0.53,4.13-2.98,7.51-5.74" style="fill:none;stroke:#999;stroke-width:3" />
<path d="M1015.91,52.5c0.03,1.11-0.3,2.04-0.99,2.78c-1.47,1.85-3.37,4.16-7.16,7.82" style="fill:none;stroke:#999;stroke-width:3" />
<path d="M999.08,64.76c0.83,0.83,1.1,1.87,1.18,2.85c0.35,4.55,1.09,13.13,1.61,20.01c0.21,2.79,0.39,5.29,0.49,7.13" style="fill:none;stroke:#999;stroke-width:3" />
<path d="M1001.28,66.5c8.72-1,16.59-2.25,24.95-3.31c1.97-0.25,2.7,1.08,2.46,4.06c-0.28,3.65-0.84,12.6-1.32,20.38c-0.15,2.35-0.29,4.59-0.42,6.54" style="fill:none;stroke:#999;stroke-width:3" />
<path d="M1002.39,78.73c9.99-1.1,15.74-1.85,24.76-2.57" style="fill:none;stroke:black;stroke-width:3" />
<circle cx="1002.39" cy="78.73" r="5" stroke-width="0" fill="#FF2A00" opacity="0.7" />
<path d="M1102.38,19.95c1.62,0.55,3.12,0.43,5.34-0.01c3.41-0.68,8.15-1.69,9.06-1.8c2.3-0.27,2.88,0.86,2.88,3.06c0,2.55-0.43,15.84-0.43,26.75c0,5.3-3.88,2.74-5.54,0.8" style="fill:none;stroke:#999;stroke-width:3" />
<path d="M1104.24,28.52c2.08,0.97,5.38,3.97,5.9,5.47" style="fill:none;stroke:#999;stroke-width:3" />
<path d="M1101.0,44.7c1.22,0.98,2.49,0.65,3.71-0.19c0.72-0.5,6.02-4.65,9.07-7.03" style="fill:none;stroke:#999;stroke-width:3" />
<path d="M1126.56,19.7c2.02,0.56,3.99,0.59,5.92,0.07c2.75-0.6,6.24-1.26,7.9-1.46c2.79-0.34,3.64,0.5,3.64,3.47c0,2.71-0.43,15.25-0.43,26.17c0,5.8-3.58,2.05-5.54,0.3" style="fill:none;stroke:#999;stroke-width:3" />
<path d="M1128.62,26.03c2.2,1.18,5.13,3.85,6.24,5.97" style="fill:none;stroke:#999;stroke-width:3" />
<path d="M1127.0,43.63c1,0.62,2.26,0.51,3.49-0.39c0.73-0.53,4.13-2.98,7.51-5.74" style="fill:none;stroke:#999;stroke-width:3" />
<path d="M1124.9099999999999,52.5c0.03,1.11-0.3,2.04-0.99,2.78c-1.47,1.85-3.37,4.16-7.16,7.82" style="fill:none;stroke:#999;stroke-width:3" />
<path d="M1108.08,64.76c0.83,0.83,1.1,1.87,1.18,2.85c0.35,4.55,1.09,13.13,1.61,20.01c0.21,2.79,0.39,5.29,0.49,7.13" style="fill:none;stroke:#999;stroke-width:3" />
<path d="M1110.28,66.5c8.72-1,16.59-2.25,24.95-3.31c1.97-0.25,2.7,1.08,2.46,4.06c-0.28,3.65-0.84,12.6-1.32,20.38c-0.15,2.35-0.29,4.59-0.42,6.54" style="fill:none;stroke:#999;stroke-width:3" />
<path d="M1111.3899999999999,78.73c9.99-1.1,15.74-1.85,24.76-2.57" style="fill:none;stroke:#999;stroke-width:3" />
<path d="M1112.12,91.64c6.12-0.26,15-1.01,22.94-1.57" style="fill:none;stroke:black;stroke-width:3" />
<circle cx="1112.12" cy="91.64" r="5" stroke-width="0" fill="#FF2A00" opacity="0.7" />
<path d="M1211.38,19.95c1.62,0.55,3.12,0.43,5.34-0.01c3.41-0.68,8.15-1.69,9.06-1.8c2.3-0.27,2.88,0.86,2.88,3.06c0,2.55-0.43,15.84-0.43,26.75c0,5.3-3.88,2.74-5.54,0.8" style="fill:none;stroke:#999;stroke-width:3" />
<path d="M1213.24,28.52c2.08,0.97,5.38,3.97,5.9,5.47" style="fill:none;stroke:#999;stroke-width:3" />
<path d="M1210.0,44.7c1.22,0.98,2.49,0.65,3.71-0.19c0.72-0.5,6.02-4.65,9.07-7.03" style="fill:none;stroke:#999;stroke-width:3" />
<path d="M1235.56,19.7c2.02,0.56,3.99,0.59,5.92,0.07c2.75-0.6,6.24-1.26,7.9-1.46c2.79-0.34,3.64,0.5,3.64,3.47c0,2.71-0.43,15.25-0.43,26.17c0,5.8-3.58,2.05-5.54,0.3" style="fill:none;stroke:#999;stroke-width:3" />
<path d="M1237.62,26.03c2.2,1.18,5.13,3.85,6.24,5.97" style="fill:none;stroke:#999;stroke-width:3" />
<path d="M1236.0,43.63c1,0.62,2.26,0.51,3.49-0.39c0.73-0.53,4.13-2.98,7.51-5.74" style="fill:none;stroke:#999;stroke-width:3" />
<path d="M1233.9099999999999,52.5c0.03,1.11-0.3,2.04-0.99,2.78c-1.47,1.85-3.37,4.16-7.16,7.82" style="fill:none;stroke:#999;stroke-width:3" />
<path d="M1217.08,64.76c0.83,0.83,1.1,1.87,1.18,2.85c0.35,4.55,1.09,13.13,1.61,20.01c0.21,2.79,0.39,5.29,0.49,7.13" style="fill:none;stroke:#999;stroke-width:3" />
<path d="M1219.28,66.5c8.72-1,16.59-2.25,24.95-3.31c1.97-0.25,2.7,1.08,2.46,4.06c-0.28,3.65-0.84,12.6-1.32,20.38c-0.15,2.35-0.29,4.59-0.42,6.54" style="fill:none;stroke:#999;stroke-width:3" />
<path d="M1220.3899999999999,78.73c9.99-1.1,15.74-1.85,24.76-2.57" style="fill:none;stroke:#999;stroke-width:3" />
<path d="M1221.12,91.64c6.12-0.26,15-1.01,22.94-1.57" style="fill:none;stroke:#999;stroke-width:3" />
<path d="M1261.73,21.98c1.92,0.37,3.84,0.37,5.77,0.13c6.24-0.74,8.12-1.24,15.25-2.01c1.92-0.21,3.8-0.26,5.68,0.12" style="fill:none;stroke:black;stroke-width:3" />
<circle cx="1261.73" cy="21.98" r="5" stroke-width="0" fill="#FF2A00" opacity="0.7" />
<path d="M1320.38,19.95c1.62,0.55,3.12,0.43,5.34-0.01c3.41-0.68,8.15-1.69,9.06-1.8c2.3-0.27,2.88,0.86,2.88,3.06c0,2.55-0.43,15.84-0.43,26.75c0,5.3-3.88,2.74-5.54,0.8" style="fill:none;stroke:#999;stroke-width:3" />
<path d="M1322.24,28.52c2.08,0.97,5.38,3.97,5.9,5.47" style="fill:none;stroke:#999;stroke-width:3" />
<path d="M1319.0,44.7c1.22,0.98,2.49,0.65,3.71-0.19c0.72-0.5,6.02-4.65,9.07-7.03" style="fill:none;stroke:#999;stroke-width:3" />
<path d="M1344.56,19.7c2.02,0.56,3.99,0.59,5.92,0.07c2.75-0.6,6.24-1.26,7.9-1.46c2.79-0.34,3.64,0.5,3.64,3.47c0,2.71-0.43,15.25-0.43,26.17c0,5.8-3.58,2.05-5.54,0.3" style="fill:none;stroke:#999;stroke-width:3" />
<path d="M1346.62,26.03c2.2,1.18,5.13,3.85,6.24,5.97" style="fill:none;stroke:#999;stroke-width:3" />
<path d="M1345.0,43.63c1,0.62,2.26,0.51,3.49-0.39c0.73-0.53,4.13-2.98,7.51-5.74" style="fill:none;stroke:#999;stroke-width:3" />
<path d="M1342.9099999999999,52.5c0.03,1.11-0.3,2.04-0.99,2.78c-1.47,1.85-3.37,4.16-7.16,7.82" style="fill:none;stroke:#999;stroke-width:3" />
<path d="M1326.08,64.76c0.83,0.83,1.1,1.87,1.18,2.85c0.35,4.55,1.09,13.13,1.61,20.01c0.21,2.79,0.39,5.29,0.49,7.13" style="fill:none;stroke:#999;stroke-width:3" />
<path d="M1328.28,66.5c8.72-1,16.59-2.25,24.95-3.31c1.97-0.25,2.7,1.08,2.46,4.06c-0.28,3.65-0.84,12.6-1.32,20.38c-0.15,2.35-0.29,4.59-0.42,6.54" style="fill:none;stroke:#999;stroke-width:3" />
<path d="M1329.3899999999999,78.73c9.99-1.1,15.74-1.85,24.76-2.57" style="fill:none;stroke:#999;stroke-width:3" />
<path d="M1330.12,91.64c6.12-0.26,15-1.01,22.94-1.57" style="fill:none;stroke:#999;stroke-width:3" />
<path d="M1370.73,21.98c1.92,0.37,3.84,0.37,5.77,0.13c6.24-0.74,8.12-1.24,15.25-2.01c1.92-0.21,3.8-0.26,5.68,0.12" style="fill:none;stroke:#999;stroke-width:3" />
<path d="M1365.75,44.4c2.6,0.64,5.12,0.09,7.73-0.29c8.4-1.23,15.21-2.37,23.28-3.57c2.58-0.59,5.19-0.7,7.82-0.32" style="fill:none;stroke:black;stroke-width:3" />
<circle cx="1365.75" cy="44.4" r="5" stroke-width="0" fill="#FF2A00" opacity="0.7" />
<path d="M1429.38,19.95c1.62,0.55,3.12,0.43,5.34-0.01c3.41-0.68,8.15-1.69,9.06-1.8c2.3-0.27,2.88,0.86,2.88,3.06c0,2.55-0.43,15.84-0.43,26.75c0,5.3-3.88,2.74-5.54,0.8" style="fill:none;stroke:#999;stroke-width:3" />
<path d="M1431.24,28.52c2.08,0.97,5.38,3.97,5.9,5.47" style="fill:none;stroke:#999;stroke-width:3" />
<path d="M1428.0,44.7c1.22,0.98,2.49,0.65,3.71-0.19c0.72-0.5,6.02-4.65,9.07-7.03" style="fill:none;stroke:#999;stroke-width:3" />
<path d="M1453.56,19.7c2.02,0.56,3.99,0.59,5.92,0.07c2.75-0.6,6.24-1.26,7.9-1.46c2.79-0.34,3.64,0.5,3.64,3.47c0,2.71-0.43,15.25-0.43,26.17c0,5.8-3.58,2.05-5.54,0.3" style="fill:none;stroke:#999;stroke-width:3" />
<path d="M1455.62,26.03c2.2,1.18,5.13,3.85,6.24,5.97" style="fill:none;stroke:#999;stroke-width:3" />
<path d="M1454.0,43.63c1,0.62,2.26,0.51,3.49-0.39c0.73-0.53,4.13-2.98,7.51-5.74" style="fill:none;stroke:#999;stroke-width:3" />
<path d="M1451.9099999999999,52.5c0.03,1.11-0.3,2.04-0.99,2.78c-1.47,1.85-3.37,4.16-7.16,7.82" style="fill:none;stroke:#999;stroke-width:3" />
<path d="M1435.08,64.76c0.83,0.83,1.1,1.87,1.18,2.85c0.35,4.55,1.09,13.13,1.61,20.01c0.21,2.79,0.39,5.29,0.49,7.13" style="fill:none;stroke:#999;stroke-width:3" />
<path d="M1437.28,66.5c8.72-1,16.59-2.25,24.95-3.31c1.97-0.25,2.7,1.08,2.46,4.06c-0.28,3.65-0.84,12.6-1.32,20.38c-0.15,2.35-0.29,4.59-0.42,6.54" style="fill:none;stroke:#999;stroke-width:3" />
<path d="M1438.3899999999999,78.73c9.99-1.1,15.74-1.85,24.76-2.57" style="fill:none;stroke:#999;stroke-width:3" />
<path d="M1439.12,91.64c6.12-0.26,15-1.01,22.94-1.57" style="fill:none;stroke:#999;stroke-width:3" />
<path d="M1479.73,21.98c1.92,0.37,3.84,0.37,5.77,0.13c6.24-0.74,8.12-1.24,15.25-2.01c1.92-0.21,3.8-0.26,5.68,0.12" style="fill:none;stroke:#999;stroke-width:3" />
<path d="M1474.75,44.4c2.6,0.64,5.12,0.09,7.73-0.29c8.4-1.23,15.21-2.37,23.28-3.57c2.58-0.59,5.19-0.7,7.82-0.32" style="fill:none;stroke:#999;stroke-width:3" />
<path d="M1485.11,47.93c0.52,1.07,0.67,2.54,0.5,3.96C1484.0,65.75,1482.0,80.38,1472.5,90.75" style="fill:none;stroke:black;stroke-width:3" />
<circle cx="1485.11" cy="47.93" r="5" stroke-width="0" fill="#FF2A00" opacity="0.7" />
<path d="M1538.38,19.95c1.62,0.55,3.12,0.43,5.34-0.01c3.41-0.68,8.15-1.69,9.06-1.8c2.3-0.27,2.88,0.86,2.88,3.06c0,2.55-0.43,15.84-0.43,26.75c0,5.3-3.88,2.74-5.54,0.8" style="fill:none;stroke:#999;stroke-width:3" />
<path d="M1540.24,28.52c2.08,0.97,5.38,3.97,5.9,5.47" style="fill:none;stroke:#999;stroke-width:3" />
<path d="M1537.0,44.7c1.22,0.98,2.49,0.65,3.71-0.19c0.72-0.5,6.02-4.65,9.07-7.03" style="fill:none;stroke:#999;stroke-width:3" />
<path d="M1562.56,19.7c2.02,0.56,3.99,0.59,5.92,0.07c2.75-0.6,6.24-1.26,7.9-1.46c2.79-0.34,3.64,0.5,3.64,3.47c0,2.71-0.43,15.25-0.43,26.17c0,5.8-3.58,2.05-5.54,0.3" style="fill:none;stroke:#999;stroke-width:3" />
<path d="M1564.62,26.03c2.2,1.18,5.13,3.85,6.24,5.97" style="fill:none;stroke:#999;stroke-width:3" />
<path d="M1563.0,43.63c1,0.62,2.26,0.51,3.49-0.39c0.73-0.53,4.13-2.98,7.51-5.74" style="fill:none;stroke:#999;stroke-width:3" />
<path d="M1560.9099999999999,52.5c0.03,1.11-0.3,2.04-0.99,2.78c-1.47,1.85-3.37,4.16-7.16,7.82" style="fill:none;stroke:#999;stroke-width:3" />
<path d="M1544.08,64.76c0.83,0.83,1.1,1.87,1.18,2.85c0.35,4.55,1.09,13.13,1.61,20.01c0.21,2.79,0.39,5.29,0.49,7.13" style="fill:none;stroke:#999;stroke-width:3" />
<path d="M1546.28,66.5c8.72-1,16.59-2.25,24.95-3.31c1.97-0.25,2.7,1.08,2.46,4.06c-0.28,3.65-0.84,12.6-1.32,20.38c-0.15,2.35-0.29,4.59-0.42,6.54" style="fill:none;stroke:#999;stroke-width:3" />
<path d="M1547.3899999999999,78.73c9.99-1.1,15.74-1.85,24.76-2.57" style="fill:none;stroke:#999;stroke-width:3" />
<path d="M1548.12,91.64c6.12-0.26,15-1.01,22.94-1.57" style="fill:none;stroke:#999;stroke-width:3" />
<path d="M1588.73,21.98c1.92,0.37,3.84,0.37,5.77,0.13c6.24-0.74,8.12-1.24,15.25-2.01c1.92-0.21,3.8-0.26,5.68,0.12" style="fill:none;stroke:#999;stroke-width:3" />
<path d="M1583.75,44.4c2.6,0.64,5.12,0.09,7.73-0.29c8.4-1.23,15.21-2.37,23.28-3.57c2.58-0.59,5.19-0.7,7.82-0.32" style="fill:none;stroke:#999;stroke-width:3" />
<path d="M1594.11,47.93c0.52,1.07,0.67,2.54,0.5,3.96C1593.0,65.75,1591.0,80.38,1581.5,90.75" style="fill:none;stroke:#999;stroke-width:3" />
<path d="M1605.19,44.98c1.04,1.04,1.17,2.64,1.17,4.18c0,7.33-0.1,25.74-0.1,34.32c0,7.89,1.41,9.65,7.76,9.65c8.41,0,8.23-2.13,8.23-10.23" style="fill:none;stroke:black;stroke-width:3" />
<circle cx="1605.19" cy="44.98" r="5" stroke-width="0" fill="#FF2A00" opacity="0.7" />
</svg>