<svg width="763px" height="109px" viewBox="0 0 763px 109px" xmlns="http://www.w3.org/2000/svg" xmlns:xlink="http://www.w3.org/1999/xlink" xml:space="preserve" version="1.1"  baseProfile="full">
<line x1="1" y1="1" x2="762" y2="1" style="stroke:#ddd;stroke-width:2" />
<line x1="1" y1="1" x2="1" y2="108" style="stroke:#ddd;stroke-width:2" />
<line x1="1" y1="108" x2="762" y2="108" style="stroke:#ddd;stroke-width:2" />
<line x1="762" y1="1" x2="762" y2="108" style="stroke:#ddd;stroke-width:2" />
<line x1="109" y1="1" x2="109" y2="108" style="stroke:#ddd;stroke-width:2" />
<line x1="218" y1="1" x2="218" y2="108" style="stroke:#ddd;stroke-width:2" />
<line x1="327" y1="1" x2="327" y2="108" style="stroke:#ddd;stroke-width:2" />
<line x1="436" y1="1" x2="436" y2="108" style="stroke:#ddd;stroke-width:2" />
<line x1="545" y1="1" x2="545" y2="108" style="stroke:#ddd;stroke-width:2" />
<line x1="654" y1="1" x2="654" y2="108" style="stroke:#ddd;stroke-width:2" />
<line x1="1" y1="54" x2="762" y2="54" style="stroke:#ddd;stroke-width:2;stroke-dasharray:3 3" />
<line x1="55" y1="1" x2="55" y2="108" style="stroke:#ddd;stroke-width:2;stroke-dasharray:3 3" />
<line x1="164" y1="1" x2="164" y2="108" style="stroke:#ddd;stroke-width:2;stroke-dasharray:3 3" />
<line x1="273" y1="1" x2="273" y2="108" style="stroke:#ddd;stroke-width:2;stroke-dasharray:3 3" />
<line x1="382" y1="1" x2="382" y2="108" style="stroke:#ddd;stroke-width:2;stroke-dasharray:3 3" />
<line x1="491" y1="1" x2="491" y2="108" style="stroke:#ddd;stroke-width:2;stroke-dasharray:3 3" />
<line x1="600" y1="1" x2="600" y2="108" style="stroke:#ddd;stroke-width:2;stroke-dasharray:3 3" />
<line x1="709" y1="1" x2="709" y2="108" style="stroke:#ddd;stroke-width:2;stroke-dasharray:3 3" />
<path d="M17.25,23.92c1.29,0.53,6.8,0.73,8.1,0.63c11.9-0.96,45.68-4.06,59.4-4.13c2.16-0.01,6.25,0.9,7.33,1.17" style="fill:none;stroke:black;stroke-width:3" />
<circle cx="17.25" cy="23.92" r="5" stroke-width="0" fill="#FF2A00" opacity="0.7" />
<path d="M126.25,23.92c1.29,0.53,6.8,0.73,8.1,0.63c11.9-0.96,45.68-4.06,59.4-4.13c2.16-0.01,6.25,0.9,7.33,1.17" style="fill:none;stroke:#999;stroke-width:3" />
<path d="M146.75,12.25c1,1,2.57,2.75,2.67,3.67c1.08,10.58,1.62,15.95,2.17,19" style="fill:none;stroke:black;stroke-width:3" />
<circle cx="146.75" cy="12.25" r="5" stroke-width="0" fill="#FF2A00" opacity="0.7" />
<path d="M235.25,23.92c1.29,0.53,6.8,0.73,8.1,0.63c11.9-0.96,45.68-4.06,59.4-4.13c2.16-0.01,6.25,0.9,7.33,1.17" style="fill:none;stroke:#999;stroke-width:3" />
<path d="M255.75,12.25c1,1,2.57,2.75,2.67,3.67c1.08,10.58,1.62,15.95,2.17,19" style="fill:none;stroke:#999;stroke-width:3" />
<path d="M284.08,10.25c1.12,1,1.82,2.15,1.67,3.67c-0.5,5-2.38,14.08-4,19.83" style="fill:none;stroke:black;stroke-width:3" />
<circle cx="284.08" cy="10.25" r="5" stroke-width="0" fill="#FF2A00" opacity="0.7" />
<path d="M344.25,23.92c1.29,0.53,6.8,0.73,8.1,0.63c11.9-0.96,45.68-4.06,59.4-4.13c2.16-0.01,6.25,0.9,7.33,1.17" style="fill:none;stroke:#999;stroke-width:3" />
<path d="M364.75,12.25c1,1,2.57,2.75,2.67,3.67c1.08,10.58,1.62,15.95,2.17,19" style="fill:none;stroke:#999;stroke-width:3" />
<path d="M393.08,10.25c1.12,1,1.82,2.15,1.67,3.67c-0.5,5-2.38,14.08-4,19.83" style="fill:none;stroke:#999;stroke-width:3" />
<path d="M350.08,44.58c1.17,1.17,2.67,2.42,2.67,4.67c0,1.09-1,31.4-1,38.75c0,2.25,1,3.75,2.5,2.75C356.17,89.47,373.51,78.43,381.5,72" style="fill:none;stroke:black;stroke-width:3" />
<circle cx="350.08" cy="44.58" r="5" stroke-width="0" fill="#FF2A00" opacity="0.7" />
<path d="M453.25,23.92c1.29,0.53,6.8,0.73,8.1,0.63c11.9-0.96,45.68-4.06,59.4-4.13c2.16-0.01,6.25,0.9,7.33,1.17" style="fill:none;stroke:#999;stroke-width:3" />
<path d="M473.75,12.25c1,1,2.57,2.75,2.67,3.67c1.08,10.58,1.62,15.95,2.17,19" style="fill:none;stroke:#999;stroke-width:3" />
<path d="M502.08,10.25c1.12,1,1.82,2.15,1.67,3.67c-0.5,5-2.38,14.08-4,19.83" style="fill:none;stroke:#999;stroke-width:3" />
<path d="M459.08,44.58c1.17,1.17,2.67,2.42,2.67,4.67c0,1.09-1,31.4-1,38.75c0,2.25,1,3.75,2.5,2.75C465.17,89.47,482.51,78.43,490.5,72" style="fill:none;stroke:#999;stroke-width:3" />
<path d="M474.77,42.67c5.52,3.08,13.25,12.67,14.63,17.47" style="fill:none;stroke:black;stroke-width:3" />
<circle cx="474.77" cy="42.67" r="5" stroke-width="0" fill="#FF2A00" opacity="0.7" />
<path d="M562.25,23.92c1.29,0.53,6.8,0.73,8.1,0.63c11.9-0.96,45.68-4.06,59.4-4.13c2.16-0.01,6.25,0.9,7.33,1.17" style="fill:none;stroke:#999;stroke-width:3" />
<path d="M582.75,12.25c1,1,2.57,2.75,2.67,3.67c1.08,10.58,1.62,15.95,2.17,19" style="fill:none;stroke:#999;stroke-width:3" />
<path d="M611.0799999999999,10.25c1.12,1,1.82,2.15,1.67,3.67c-0.5,5-2.38,14.08-4,19.83" style="fill:none;stroke:#999;stroke-width:3" />
<path d="M568.0799999999999,44.58c1.17,1.17,2.67,2.42,2.67,4.67c0,1.09-1,31.4-1,38.75c0,2.25,1,3.75,2.5,2.75C574.1700000000001,89.47,591.51,78.43,599.5,72" style="fill:none;stroke:#999;stroke-width:3" />
<path d="M583.77,42.67c5.52,3.08,13.25,12.67,14.63,17.47" style="fill:none;stroke:#999;stroke-width:3" />
<path d="M620.75,39c1.25,1.75,1.9,3.26,1.5,5.25C617.87,66.2,611.5,85.5,593.06,98.32" style="fill:none;stroke:black;stroke-width:3" />
<circle cx="620.75" cy="39.0" r="5" stroke-width="0" fill="#FF2A00" opacity="0.7" />
<path d="M671.25,23.92c1.29,0.53,6.8,0.73,8.1,0.63c11.9-0.96,45.68-4.06,59.4-4.13c2.16-0.01,6.25,0.9,7.33,1.17" style="fill:none;stroke:#999;stroke-width:3" />
<path d="M691.75,12.25c1,1,2.57,2.75,2.67,3.67c1.08,10.58,1.62,15.95,2.17,19" style="fill:none;stroke:#999;stroke-width:3" />
<path d="M720.0799999999999,10.25c1.12,1,1.82,2.15,1.67,3.67c-0.5,5-2.38,14.08-4,19.83" style="fill:none;stroke:#999;stroke-width:3" />
<path d="M677.0799999999999,44.58c1.17,1.17,2.67,2.42,2.67,4.67c0,1.09-1,31.4-1,38.75c0,2.25,1,3.75,2.5,2.75C683.1700000000001,89.47,700.51,78.43,708.5,72" style="fill:none;stroke:#999;stroke-width:3" />
<path d="M692.77,42.67c5.52,3.08,13.25,12.67,14.63,17.47" style="fill:none;stroke:#999;stroke-width:3" />
<path d="M729.75,39c1.25,1.75,1.9,3.26,1.5,5.25C726.87,66.2,720.5,85.5,702.06,98.32" style="fill:none;stroke:#999;stroke-width:3" />
<path d="M726.1,72.17C732.44,76.6,742.48,90.4,744.06,97.3" style="fill:none;stroke:black;stroke-width:3" />
<circle cx="726.1" cy="72.17" r="5" stroke-width="0" fill="#FF2A00" opacity="0.7" />
</svg>