<svg width="981px" height="109px" viewBox="0 0 981px 109px" xmlns="http://www.w3.org/2000/svg" xmlns:xlink="http://www.w3.org/1999/xlink" xml:space="preserve" version="1.1"  baseProfile="full">
<line x1="1" y1="1" x2="980" y2="1" style="stroke:#ddd;stroke-width:2" />
<line x1="1" y1="1" x2="1" y2="108" style="stroke:#ddd;stroke-width:2" />
<line x1="1" y1="108" x2="980" y2="108" style="stroke:#ddd;stroke-width:2" />
<line x1="980" y1="1" x2="980" y2="108" style="stroke:#ddd;stroke-width:2" />
<line x1="109" y1="1" x2="109" y2="108" style="stroke:#ddd;stroke-width:2" />
<line x1="218" y1="1" x2="218" y2="108" style="stroke:#ddd;stroke-width:2" />
<line x1="327" y1="1" x2="327" y2="108" style="stroke:#ddd;stroke-width:2" />
<line x1="436" y1="1" x2="436" y2="108" style="stroke:#ddd;stroke-width:2" />
<line x1="545" y1="1" x2="545" y2="108" style="stroke:#ddd;stroke-width:2" />
<line x1="654" y1="1" x2="654" y2="108" style="stroke:#ddd;stroke-width:2" />
<line x1="763" y1="1" x2="763" y2="108" style="stroke:#ddd;stroke-width:2" />
<line x1="872" y1="1" x2="872" y2="108" style="stroke:#ddd;stroke-width:2" />
<line x1="1" y1="54" x2="980" y2="54" style="stroke:#ddd;stroke-width:2;stroke-dasharray:3 3" />
<line x1="55" y1="1" x2="55" y2="108" style="stroke:#ddd;stroke-width:2;stroke-dasharray:3 3" />
<line x1="164" y1="1" x2="164" y2="108" style="stroke:#ddd;stroke-width:2;stroke-dasharray:3 3" />
<line x1="273" y1="1" x2="273" y2="108" style="stroke:#ddd;stroke-width:2;stroke-dasharray:3 3" />
<line x1="382" y1="1" x2="382" y2="108" style="stroke:#ddd;stroke-width:2;stroke-dasharray:3 3" />
<line x1="491" y1="1" x2="491" y2="108" style="stroke:#ddd;stroke-width:2;stroke-dasharray:3 3" />
<line x1="600" y1="1" x2="600" y2="108" style="stroke:#ddd;stroke-width:2;stroke-dasharray:3 3" />
<line x1="709" y1="1" x2="709" y2="108" style="stroke:#ddd;stroke-width:2;stroke-dasharray:3 3" />
<line x1="818" y1="1" x2="818" y2="108" style="stroke:#ddd;stroke-width:2;stroke-dasharray:3 3" />
<line x1="927" y1="1" x2="927" y2="108" style="stroke:#ddd;stroke-width:2;stroke-dasharray:3 3" />
<path d="M20.25,27.77c3.12,0.73,6.05,0.37,8.89,0.11c13.01-1.16,37.09-3.49,50.74-4.02c2.96-0.11,5.97-0.3,8.88,0.41" style="fill:none;stroke:black;stroke-width:3" />
<circle cx="20.25" cy="27.77" r="5" stroke-width="0" fill="#FF2A00" opacity="0.7" />
<path d="M129.25,27.77c3.12,0.73,6.05,0.37,8.89,0.11c13.01-1.16,37.09-3.49,50.74-4.02c2.96-0.11,5.97-0.3,8.88,0.41" style="fill:none;stroke:#999;stroke-width:3" />
<path d="M145.0,15.5c1.06,1.06,1.62,2.36,1.75,3.25c1.25,8.75,2,13.62,2.5,18.75" style="fill:none;stroke:black;stroke-width:3" />
<circle cx="145.0" cy="15.5" r="5" stroke-width="0" fill="#FF2A00" opacity="0.7" />
<path d="M238.25,27.77c3.12,0.73,6.05,0.37,8.89,0.11c13.01-1.16,37.09-3.49,50.74-4.02c2.96-0.11,5.97-0.3,8.88,0.41" style="fill:none;stroke:#999;stroke-width:3" />
<path d="M254.0,15.5c1.06,1.06,1.62,2.36,1.75,3.25c1.25,8.75,2,13.62,2.5,18.75" style="fill:none;stroke:#999;stroke-width:3" />
<path d="M288.5,12.25c0.42,1.18,0.32,2.51,0,4C286.88,23.7,286.0,27.75,284.25,35" style="fill:none;stroke:black;stroke-width:3" />
<circle cx="288.5" cy="12.25" r="5" stroke-width="0" fill="#FF2A00" opacity="0.7" />
<path d="M347.25,27.77c3.12,0.73,6.05,0.37,8.89,0.11c13.01-1.16,37.09-3.49,50.74-4.02c2.96-0.11,5.97-0.3,8.88,0.41" style="fill:none;stroke:#999;stroke-width:3" />
<path d="M363.0,15.5c1.06,1.06,1.62,2.36,1.75,3.25c1.25,8.75,2,13.62,2.5,18.75" style="fill:none;stroke:#999;stroke-width:3" />
<path d="M397.5,12.25c0.42,1.18,0.32,2.51,0,4C395.88,23.7,395.0,27.75,393.25,35" style="fill:none;stroke:#999;stroke-width:3" />
<path d="M347.52,43.75c4.02,1.41,10.38,5.79,11.39,7.98" style="fill:none;stroke:black;stroke-width:3" />
<circle cx="347.52" cy="43.75" r="5" stroke-width="0" fill="#FF2A00" opacity="0.7" />
<path d="M456.25,27.77c3.12,0.73,6.05,0.37,8.89,0.11c13.01-1.16,37.09-3.49,50.74-4.02c2.96-0.11,5.97-0.3,8.88,0.41" style="fill:none;stroke:#999;stroke-width:3" />
<path d="M472.0,15.5c1.06,1.06,1.62,2.36,1.75,3.25c1.25,8.75,2,13.62,2.5,18.75" style="fill:none;stroke:#999;stroke-width:3" />
<path d="M506.5,12.25c0.42,1.18,0.32,2.51,0,4C504.88,23.7,504.0,27.75,502.25,35" style="fill:none;stroke:#999;stroke-width:3" />
<path d="M456.52,43.75c4.02,1.41,10.38,5.79,11.39,7.98" style="fill:none;stroke:#999;stroke-width:3" />
<path d="M453.77,85.36c1.73,0.76,3.02,0.33,4.09-0.75c1.04-1.05,7.34-9.35,11.32-14.7" style="fill:none;stroke:black;stroke-width:3" />
<circle cx="453.77" cy="85.36" r="5" stroke-width="0" fill="#FF2A00" opacity="0.7" />
<path d="M565.25,27.77c3.12,0.73,6.05,0.37,8.89,0.11c13.01-1.16,37.09-3.49,50.74-4.02c2.96-0.11,5.97-0.3,8.88,0.41" style="fill:none;stroke:#999;stroke-width:3" />
<path d="M581.0,15.5c1.06,1.06,1.62,2.36,1.75,3.25c1.25,8.75,2,13.62,2.5,18.75" style="fill:none;stroke:#999;stroke-width:3" />
<path d="M615.5,12.25c0.42,1.18,0.32,2.51,0,4C613.88,23.7,613.0,27.75,611.25,35" style="fill:none;stroke:#999;stroke-width:3" />
<path d="M565.52,43.75c4.02,1.41,10.38,5.79,11.39,7.98" style="fill:none;stroke:#999;stroke-width:3" />
<path d="M562.77,85.36c1.73,0.76,3.02,0.33,4.09-0.75c1.04-1.05,7.34-9.35,11.32-14.7" style="fill:none;stroke:#999;stroke-width:3" />
<path d="M600.08,38.5c0,1.38-0.38,2.78-0.9,3.89c-2.68,5.74-6.03,12.19-11.84,20.06" style="fill:none;stroke:black;stroke-width:3" />
<circle cx="600.08" cy="38.5" r="5" stroke-width="0" fill="#FF2A00" opacity="0.7" />
<path d="M674.25,27.77c3.12,0.73,6.05,0.37,8.89,0.11c13.01-1.16,37.09-3.49,50.74-4.02c2.96-0.11,5.97-0.3,8.88,0.41" style="fill:none;stroke:#999;stroke-width:3" />
<path d="M690.0,15.5c1.06,1.06,1.62,2.36,1.75,3.25c1.25,8.75,2,13.62,2.5,18.75" style="fill:none;stroke:#999;stroke-width:3" />
<path d="M724.5,12.25c0.42,1.18,0.32,2.51,0,4C722.88,23.7,722.0,27.75,720.25,35" style="fill:none;stroke:#999;stroke-width:3" />
<path d="M674.52,43.75c4.02,1.41,10.38,5.79,11.39,7.98" style="fill:none;stroke:#999;stroke-width:3" />
<path d="M671.77,85.36c1.73,0.76,3.02,0.33,4.09-0.75c1.04-1.05,7.34-9.35,11.32-14.7" style="fill:none;stroke:#999;stroke-width:3" />
<path d="M709.08,38.5c0,1.38-0.38,2.78-0.9,3.89c-2.68,5.74-6.03,12.19-11.84,20.06" style="fill:none;stroke:#999;stroke-width:3" />
<path d="M708.42,51.6c1.91,0.76,3.67,0.38,5.57-0.02c4.72-0.99,15.26-3.45,19.79-4.37c4.02-0.81,4.85,2.17-2.51,11.23" style="fill:none;stroke:black;stroke-width:3" />
<circle cx="708.42" cy="51.6" r="5" stroke-width="0" fill="#FF2A00" opacity="0.7" />
<path d="M783.25,27.77c3.12,0.73,6.05,0.37,8.89,0.11c13.01-1.16,37.09-3.49,50.74-4.02c2.96-0.11,5.97-0.3,8.88,0.41" style="fill:none;stroke:#999;stroke-width:3" />
<path d="M799.0,15.5c1.06,1.06,1.62,2.36,1.75,3.25c1.25,8.75,2,13.62,2.5,18.75" style="fill:none;stroke:#999;stroke-width:3" />
<path d="M833.5,12.25c0.42,1.18,0.32,2.51,0,4C831.88,23.7,831.0,27.75,829.25,35" style="fill:none;stroke:#999;stroke-width:3" />
<path d="M783.52,43.75c4.02,1.41,10.38,5.79,11.39,7.98" style="fill:none;stroke:#999;stroke-width:3" />
<path d="M780.77,85.36c1.73,0.76,3.02,0.33,4.09-0.75c1.04-1.05,7.34-9.35,11.32-14.7" style="fill:none;stroke:#999;stroke-width:3" />
<path d="M818.08,38.5c0,1.38-0.38,2.78-0.9,3.89c-2.68,5.74-6.03,12.19-11.84,20.06" style="fill:none;stroke:#999;stroke-width:3" />
<path d="M817.42,51.6c1.91,0.76,3.67,0.38,5.57-0.02c4.72-0.99,15.26-3.45,19.79-4.37c4.02-0.81,4.85,2.17-2.51,11.23" style="fill:none;stroke:#999;stroke-width:3" />
<path d="M822.06,62.68c0.31,0.82,0.34,2.14,0.1,3.35C820.5,74.5,816.25,85.25,799.31,96.5" style="fill:none;stroke:black;stroke-width:3" />
<circle cx="822.06" cy="62.68" r="5" stroke-width="0" fill="#FF2A00" opacity="0.7" />
<path d="M892.25,27.77c3.12,0.73,6.05,0.37,8.89,0.11c13.01-1.16,37.09-3.49,50.74-4.02c2.96-0.11,5.97-0.3,8.88,0.41" style="fill:none;stroke:#999;stroke-width:3" />
<path d="M908.0,15.5c1.06,1.06,1.62,2.36,1.75,3.25c1.25,8.75,2,13.62,2.5,18.75" style="fill:none;stroke:#999;stroke-width:3" />
<path d="M942.5,12.25c0.42,1.18,0.32,2.51,0,4C940.88,23.7,940.0,27.75,938.25,35" style="fill:none;stroke:#999;stroke-width:3" />
<path d="M892.52,43.75c4.02,1.41,10.38,5.79,11.39,7.98" style="fill:none;stroke:#999;stroke-width:3" />
<path d="M889.77,85.36c1.73,0.76,3.02,0.33,4.09-0.75c1.04-1.05,7.34-9.35,11.32-14.7" style="fill:none;stroke:#999;stroke-width:3" />
<path d="M927.08,38.5c0,1.38-0.38,2.78-0.9,3.89c-2.68,5.74-6.03,12.19-11.84,20.06" style="fill:none;stroke:#999;stroke-width:3" />
<path d="M926.42,51.6c1.91,0.76,3.67,0.38,5.57-0.02c4.72-0.99,15.26-3.45,19.79-4.37c4.02-0.81,4.85,2.17-2.51,11.23" style="fill:none;stroke:#999;stroke-width:3" />
<path d="M931.06,62.68c0.31,0.82,0.34,2.14,0.1,3.35C929.5,74.5,925.25,85.25,908.31,96.5" style="fill:none;stroke:#999;stroke-width:3" />
<path d="M931.23,72.17c5,4.83,15.17,14.61,23.22,20.27c2.3,1.62,4.63,3.07,7.29,4.01" style="fill:none;stroke:black;stroke-width:3" />
<circle cx="931.23" cy="72.17" r="5" stroke-width="0" fill="#FF2A00" opacity="0.7" />
</svg>