<svg width="1417px" height="109px" viewBox="0 0 1417px 109px" xmlns="http://www.w3.org/2000/svg" xmlns:xlink="http://www.w3.org/1999/xlink" xml:space="preserve" version="1.1"  baseProfile="full">
<line x1="1" y1="1" x2="1416" y2="1" style="stroke:#ddd;stroke-width:2" />
<line x1="1" y1="1" x2="1" y2="108" style="stroke:#ddd;stroke-width:2" />
<line x1="1" y1="108" x2="1416" y2="108" style="stroke:#ddd;stroke-width:2" />
<line x1="1416" y1="1" x2="1416" y2="108" style="stroke:#ddd;stroke-width:2" />
<line x1="109" y1="1" x2="109" y2="108" style="stroke:#ddd;stroke-width:2" />
<line x1="218" y1="1" x2="218" y2="108" style="stroke:#ddd;stroke-width:2" />
<line x1="327" y1="1" x2="327" y2="108" style="stroke:#ddd;stroke-width:2" />
<line x1="436" y1="1" x2="436" y2="108" style="stroke:#ddd;stroke-width:2" />
<line x1="545" y1="1" x2="545" y2="108" style="stroke:#ddd;stroke-width:2" />
<line x1="654" y1="1" x2="654" y2="108" style="stroke:#ddd;stroke-width:2" />
<line x1="763" y1="1" x2="763" y2="108" style="stroke:#ddd;stroke-width:2" />
<line x1="872" y1="1" x2="872" y2="108" style="stroke:#ddd;stroke-width:2" />
<line x1="981" y1="1" x2="981" y2="108" style="stroke:#ddd;stroke-width:2" />
<line x1="1090" y1="1" x2="1090" y2="108" style="stroke:#ddd;stroke-width:2" />
<line x1="1199" y1="1" x2="1199" y2="108" style="stroke:#ddd;stroke-width:2" />
<line x1="1308" y1="1" x2="1308" y2="108" style="stroke:#ddd;stroke-width:2" />
<line x1="1" y1="54" x2="1416" y2="54" style="stroke:#ddd;stroke-width:2;stroke-dasharray:3 3" />
<line x1="55" y1="1" x2="55" y2="108" style="stroke:#ddd;stroke-width:2;stroke-dasharray:3 3" />
<line x1="164" y1="1" x2="164" y2="108" style="stroke:#ddd;stroke-width:2;stroke-dasharray:3 3" />
<line x1="273" y1="1" x2="273" y2="108" style="stroke:#ddd;stroke-width:2;stroke-dasharray:3 3" />
<line x1="382" y1="1" x2="382" y2="108" style="stroke:#ddd;stroke-width:2;stroke-dasharray:3 3" />
<line x1="491" y1="1" x2="491" y2="108" style="stroke:#ddd;stroke-width:2;stroke-dasharray:3 3" />
<line x1="600" y1="1" x2="600" y2="108" style="stroke:#ddd;stroke-width:2;stroke-dasharray:3 3" />
<line x1="709" y1="1" x2="709" y2="108" style="stroke:#ddd;stroke-width:2;stroke-dasharray:3 3" />
<line x1="818" y1="1" x2="818" y2="108" style="stroke:#ddd;stroke-width:2;stroke-dasharray:3 3" />
<line x1="927" y1="1" x2="927" y2="108" style="stroke:#ddd;stroke-width:2;stroke-dasharray:3 3" />
<line x1="1036" y1="1" x2="1036" y2="108" style="stroke:#ddd;stroke-width:2;stroke-dasharray:3 3" />
<line x1="1145" y1="1" x2="1145" y2="108" style="stroke:#ddd;stroke-width:2;stroke-dasharray:3 3" />
<line x1="1254" y1="1" x2="1254" y2="108" style="stroke:#ddd;stroke-width:2;stroke-dasharray:3 3" />
<line x1="1363" y1="1" x2="1363" y2="108" style="stroke:#ddd;stroke-width:2;stroke-dasharray:3 3" />
<path d="M20.5,21.77c1.29,0.53,2.8,0.63,4.1,0.53c11.9-0.96,47.4-3.96,61.12-4.03c2.16-0.01,3.45,0.25,4.53,0.51" style="fill:none;stroke:black;stroke-width:3" />
<circle cx="20.5" cy="21.77" r="5" stroke-width="0" fill="#FF2A00" opacity="0.7" />
<path d="M129.5,21.77c1.29,0.53,2.8,0.63,4.1,0.53c11.9-0.96,47.4-3.96,61.12-4.03c2.16-0.01,3.45,0.25,4.53,0.51" style="fill:none;stroke:#999;stroke-width:3" />
<path d="M147.0,11.5c1.5,1.2,1.98,1.56,2.14,2.3c1.5,6.91,1.93,13.19,2.36,15.7" style="fill:none;stroke:black;stroke-width:3" />
<circle cx="147.0" cy="11.5" r="5" stroke-width="0" fill="#FF2A00" opacity="0.7" />
<path d="M238.5,21.77c1.29,0.53,2.8,0.63,4.1,0.53c11.9-0.96,47.4-3.96,61.12-4.03c2.16-0.01,3.45,0.25,4.53,0.51" style="fill:none;stroke:#999;stroke-width:3" />
<path d="M256.0,11.5c1.5,1.2,1.98,1.56,2.14,2.3c1.5,6.91,1.93,13.19,2.36,15.7" style="fill:none;stroke:#999;stroke-width:3" />
<path d="M289.40999999999997,9c1.3,0.79,1.67,2.5,1.24,3.67c-1.3,3.57-2.17,8.52-4.06,13.08" style="fill:none;stroke:black;stroke-width:3" />
<circle cx="289.40999999999997" cy="9.0" r="5" stroke-width="0" fill="#FF2A00" opacity="0.7" />
<path d="M347.5,21.77c1.29,0.53,2.8,0.63,4.1,0.53c11.9-0.96,47.4-3.96,61.12-4.03c2.16-0.01,3.45,0.25,4.53,0.51" style="fill:none;stroke:#999;stroke-width:3" />
<path d="M365.0,11.5c1.5,1.2,1.98,1.56,2.14,2.3c1.5,6.91,1.93,13.19,2.36,15.7" style="fill:none;stroke:#999;stroke-width:3" />
<path d="M398.40999999999997,9c1.3,0.79,1.67,2.5,1.24,3.67c-1.3,3.57-2.17,8.52-4.06,13.08" style="fill:none;stroke:#999;stroke-width:3" />
<path d="M383.96,26.75c0.05,0.48,0.18,1.25-0.09,1.92c-1.78,4.28-7.2,11.76-15.8,17.89" style="fill:none;stroke:black;stroke-width:3" />
<circle cx="383.96" cy="26.75" r="5" stroke-width="0" fill="#FF2A00" opacity="0.7" />
<path d="M456.5,21.77c1.29,0.53,2.8,0.63,4.1,0.53c11.9-0.96,47.4-3.96,61.12-4.03c2.16-0.01,3.45,0.25,4.53,0.51" style="fill:none;stroke:#999;stroke-width:3" />
<path d="M474.0,11.5c1.5,1.2,1.98,1.56,2.14,2.3c1.5,6.91,1.93,13.19,2.36,15.7" style="fill:none;stroke:#999;stroke-width:3" />
<path d="M507.40999999999997,9c1.3,0.79,1.67,2.5,1.24,3.67c-1.3,3.57-2.17,8.52-4.06,13.08" style="fill:none;stroke:#999;stroke-width:3" />
<path d="M492.96,26.75c0.05,0.48,0.18,1.25-0.09,1.92c-1.78,4.28-7.2,11.76-15.8,17.89" style="fill:none;stroke:#999;stroke-width:3" />
<path d="M491.51,32.64c0.32,0.02,2.33,0.38,3.25,0.32c3.04-0.21,10.27-2.75,14.64-3.27c1.6-0.19,2.83,1.02,2.07,2.25C507.29,38.67,494.75,52,477.97,56.11" style="fill:none;stroke:black;stroke-width:3" />
<circle cx="491.51" cy="32.64" r="5" stroke-width="0" fill="#FF2A00" opacity="0.7" />
<path d="M565.5,21.77c1.29,0.53,2.8,0.63,4.1,0.53c11.9-0.96,47.4-3.96,61.12-4.03c2.16-0.01,3.45,0.25,4.53,0.51" style="fill:none;stroke:#999;stroke-width:3" />
<path d="M583.0,11.5c1.5,1.2,1.98,1.56,2.14,2.3c1.5,6.91,1.93,13.19,2.36,15.7" style="fill:none;stroke:#999;stroke-width:3" />
<path d="M616.41,9c1.3,0.79,1.67,2.5,1.24,3.67c-1.3,3.57-2.17,8.52-4.06,13.08" style="fill:none;stroke:#999;stroke-width:3" />
<path d="M601.96,26.75c0.05,0.48,0.18,1.25-0.09,1.92c-1.78,4.28-7.2,11.76-15.8,17.89" style="fill:none;stroke:#999;stroke-width:3" />
<path d="M600.51,32.64c0.32,0.02,2.33,0.38,3.25,0.32c3.04-0.21,10.27-2.75,14.64-3.27c1.6-0.19,2.83,1.02,2.07,2.25C616.29,38.67,603.75,52,586.97,56.11" style="fill:none;stroke:#999;stroke-width:3" />
<path d="M595.88,38.2c4.18-0.02,28.91,11.64,35.71,13.99c2.03,0.7,3.67,1.04,5.65,1.25" style="fill:none;stroke:black;stroke-width:3" />
<circle cx="595.88" cy="38.2" r="5" stroke-width="0" fill="#FF2A00" opacity="0.7" />
<path d="M674.5,21.77c1.29,0.53,2.8,0.63,4.1,0.53c11.9-0.96,47.4-3.96,61.12-4.03c2.16-0.01,3.45,0.25,4.53,0.51" style="fill:none;stroke:#999;stroke-width:3" />
<path d="M692.0,11.5c1.5,1.2,1.98,1.56,2.14,2.3c1.5,6.91,1.93,13.19,2.36,15.7" style="fill:none;stroke:#999;stroke-width:3" />
<path d="M725.41,9c1.3,0.79,1.67,2.5,1.24,3.67c-1.3,3.57-2.17,8.52-4.06,13.08" style="fill:none;stroke:#999;stroke-width:3" />
<path d="M710.96,26.75c0.05,0.48,0.18,1.25-0.09,1.92c-1.78,4.28-7.2,11.76-15.8,17.89" style="fill:none;stroke:#999;stroke-width:3" />
<path d="M709.51,32.64c0.32,0.02,2.33,0.38,3.25,0.32c3.04-0.21,10.27-2.75,14.64-3.27c1.6-0.19,2.83,1.02,2.07,2.25C725.29,38.67,712.75,52,695.97,56.11" style="fill:none;stroke:#999;stroke-width:3" />
<path d="M704.88,38.2c4.18-0.02,28.91,11.64,35.71,13.99c2.03,0.7,3.67,1.04,5.65,1.25" style="fill:none;stroke:#999;stroke-width:3" />
<path d="M704.7,59.21c0.97,0.29,2.75,0.42,3.71,0.29c5.34-0.75,14.59-2.5,20.6-3.01c1.6-0.14,2.58,0.14,3.39,0.28" style="fill:none;stroke:black;stroke-width:3" />
<circle cx="704.7" cy="59.21" r="5" stroke-width="0" fill="#FF2A00" opacity="0.7" />
<path d="M783.5,21.77c1.29,0.53,2.8,0.63,4.1,0.53c11.9-0.96,47.4-3.96,61.12-4.03c2.16-0.01,3.45,0.25,4.53,0.51" style="fill:none;stroke:#999;stroke-width:3" />
<path d="M801.0,11.5c1.5,1.2,1.98,1.56,2.14,2.3c1.5,6.91,1.93,13.19,2.36,15.7" style="fill:none;stroke:#999;stroke-width:3" />
<path d="M834.41,9c1.3,0.79,1.67,2.5,1.24,3.67c-1.3,3.57-2.17,8.52-4.06,13.08" style="fill:none;stroke:#999;stroke-width:3" />
<path d="M819.96,26.75c0.05,0.48,0.18,1.25-0.09,1.92c-1.78,4.28-7.2,11.76-15.8,17.89" style="fill:none;stroke:#999;stroke-width:3" />
<path d="M818.51,32.64c0.32,0.02,2.33,0.38,3.25,0.32c3.04-0.21,10.27-2.75,14.64-3.27c1.6-0.19,2.83,1.02,2.07,2.25C834.29,38.67,821.75,52,804.97,56.11" style="fill:none;stroke:#999;stroke-width:3" />
<path d="M813.88,38.2c4.18-0.02,28.91,11.64,35.71,13.99c2.03,0.7,3.67,1.04,5.65,1.25" style="fill:none;stroke:#999;stroke-width:3" />
<path d="M813.7,59.21c0.97,0.29,2.75,0.42,3.71,0.29c5.34-0.75,14.59-2.5,20.6-3.01c1.6-0.14,2.58,0.14,3.39,0.28" style="fill:none;stroke:#999;stroke-width:3" />
<path d="M811.81,68.15c0.97,0.29,3.4,0.35,4.37,0.29c11.21-0.79,14.26-2.33,23.61-3.09c1.6-0.13,2.58,0.14,3.39,0.28" style="fill:none;stroke:black;stroke-width:3" />
<circle cx="811.81" cy="68.15" r="5" stroke-width="0" fill="#FF2A00" opacity="0.7" />
<path d="M892.5,21.77c1.29,0.53,2.8,0.63,4.1,0.53c11.9-0.96,47.4-3.96,61.12-4.03c2.16-0.01,3.45,0.25,4.53,0.51" style="fill:none;stroke:#999;stroke-width:3" />
<path d="M910.0,11.5c1.5,1.2,1.98,1.56,2.14,2.3c1.5,6.91,1.93,13.19,2.36,15.7" style="fill:none;stroke:#999;stroke-width:3" />
<path d="M943.41,9c1.3,0.79,1.67,2.5,1.24,3.67c-1.3,3.57-2.17,8.52-4.06,13.08" style="fill:none;stroke:#999;stroke-width:3" />
<path d="M928.96,26.75c0.05,0.48,0.18,1.25-0.09,1.92c-1.78,4.28-7.2,11.76-15.8,17.89" style="fill:none;stroke:#999;stroke-width:3" />
<path d="M927.51,32.64c0.32,0.02,2.33,0.38,3.25,0.32c3.04-0.21,10.27-2.75,14.64-3.27c1.6-0.19,2.83,1.02,2.07,2.25C943.29,38.67,930.75,52,913.97,56.11" style="fill:none;stroke:#999;stroke-width:3" />
<path d="M922.88,38.2c4.18-0.02,28.91,11.64,35.71,13.99c2.03,0.7,3.67,1.04,5.65,1.25" style="fill:none;stroke:#999;stroke-width:3" />
<path d="M922.7,59.21c0.97,0.29,2.75,0.42,3.71,0.29c5.34-0.75,14.59-2.5,20.6-3.01c1.6-0.14,2.58,0.14,3.39,0.28" style="fill:none;stroke:#999;stroke-width:3" />
<path d="M920.81,68.15c0.97,0.29,3.4,0.35,4.37,0.29c11.21-0.79,14.26-2.33,23.61-3.09c1.6-0.13,2.58,0.14,3.39,0.28" style="fill:none;stroke:#999;stroke-width:3" />
<path d="M914.86,77.64c1.47,0.57,4.14,0.63,5.61,0.57c9.23-0.37,22.27-2.62,34.34-3.57c2.43-0.19,3.9,0.27,5.12,0.55" style="fill:none;stroke:black;stroke-width:3" />
<circle cx="914.86" cy="77.64" r="5" stroke-width="0" fill="#FF2A00" opacity="0.7" />
<path d="M1001.5,21.77c1.29,0.53,2.8,0.63,4.1,0.53c11.9-0.96,47.4-3.96,61.12-4.03c2.16-0.01,3.45,0.25,4.53,0.51" style="fill:none;stroke:#999;stroke-width:3" />
<path d="M1019.0,11.5c1.5,1.2,1.98,1.56,2.14,2.3c1.5,6.91,1.93,13.19,2.36,15.7" style="fill:none;stroke:#999;stroke-width:3" />
<path d="M1052.4099999999999,9c1.3,0.79,1.67,2.5,1.24,3.67c-1.3,3.57-2.17,8.52-4.06,13.08" style="fill:none;stroke:#999;stroke-width:3" />
<path d="M1037.96,26.75c0.05,0.48,0.18,1.25-0.09,1.92c-1.78,4.28-7.2,11.76-15.8,17.89" style="fill:none;stroke:#999;stroke-width:3" />
<path d="M1036.51,32.64c0.32,0.02,2.33,0.38,3.25,0.32c3.04-0.21,10.27-2.75,14.64-3.27c1.6-0.19,2.83,1.02,2.07,2.25C1052.29,38.67,1039.75,52,1022.97,56.11" style="fill:none;stroke:#999;stroke-width:3" />
<path d="M1031.88,38.2c4.18-0.02,28.91,11.64,35.71,13.99c2.03,0.7,3.67,1.04,5.65,1.25" style="fill:none;stroke:#999;stroke-width:3" />
<path d="M1031.7,59.21c0.97,0.29,2.75,0.42,3.71,0.29c5.34-0.75,14.59-2.5,20.6-3.01c1.6-0.14,2.58,0.14,3.39,0.28" style="fill:none;stroke:#999;stroke-width:3" />
<path d="M1029.81,68.15c0.97,0.29,3.4,0.35,4.37,0.29c11.21-0.79,14.26-2.33,23.61-3.09c1.6-0.13,2.58,0.14,3.39,0.28" style="fill:none;stroke:#999;stroke-width:3" />
<path d="M1023.86,77.64c1.47,0.57,4.14,0.63,5.61,0.57c9.23-0.37,22.27-2.62,34.34-3.57c2.43-0.19,3.9,0.27,5.12,0.55" style="fill:none;stroke:#999;stroke-width:3" />
<path d="M1045.25,49.5c0.61,0.32,2.03,1.85,2.03,3.07c0,6.78-0.25,29.2-0.25,37.9" style="fill:none;stroke:black;stroke-width:3" />
<circle cx="1045.25" cy="49.5" r="5" stroke-width="0" fill="#FF2A00" opacity="0.7" />
<path d="M1110.5,21.77c1.29,0.53,2.8,0.63,4.1,0.53c11.9-0.96,47.4-3.96,61.12-4.03c2.16-0.01,3.45,0.25,4.53,0.51" style="fill:none;stroke:#999;stroke-width:3" />
<path d="M1128.0,11.5c1.5,1.2,1.98,1.56,2.14,2.3c1.5,6.91,1.93,13.19,2.36,15.7" style="fill:none;stroke:#999;stroke-width:3" />
<path d="M1161.4099999999999,9c1.3,0.79,1.67,2.5,1.24,3.67c-1.3,3.57-2.17,8.52-4.06,13.08" style="fill:none;stroke:#999;stroke-width:3" />
<path d="M1146.96,26.75c0.05,0.48,0.18,1.25-0.09,1.92c-1.78,4.28-7.2,11.76-15.8,17.89" style="fill:none;stroke:#999;stroke-width:3" />
<path d="M1145.51,32.64c0.32,0.02,2.33,0.38,3.25,0.32c3.04-0.21,10.27-2.75,14.64-3.27c1.6-0.19,2.83,1.02,2.07,2.25C1161.29,38.67,1148.75,52,1131.97,56.11" style="fill:none;stroke:#999;stroke-width:3" />
<path d="M1140.88,38.2c4.18-0.02,28.91,11.64,35.71,13.99c2.03,0.7,3.67,1.04,5.65,1.25" style="fill:none;stroke:#999;stroke-width:3" />
<path d="M1140.7,59.21c0.97,0.29,2.75,0.42,3.71,0.29c5.34-0.75,14.59-2.5,20.6-3.01c1.6-0.14,2.58,0.14,3.39,0.28" style="fill:none;stroke:#999;stroke-width:3" />
<path d="M1138.81,68.15c0.97,0.29,3.4,0.35,4.37,0.29c11.21-0.79,14.26-2.33,23.61-3.09c1.6-0.13,2.58,0.14,3.39,0.28" style="fill:none;stroke:#999;stroke-width:3" />
<path d="M1132.8600000000001,77.64c1.47,0.57,4.14,0.63,5.61,0.57c9.23-0.37,22.27-2.62,34.34-3.57c2.43-0.19,3.9,0.27,5.12,0.55" style="fill:none;stroke:#999;stroke-width:3" />
<path d="M1154.25,49.5c0.61,0.32,2.03,1.85,2.03,3.07c0,6.78-0.25,29.2-0.25,37.9" style="fill:none;stroke:#999;stroke-width:3" />
<path d="M1109.14,34.47c3.63,1.47,9.39,6.06,10.29,8.35" style="fill:none;stroke:black;stroke-width:3" />
<circle cx="1109.14" cy="34.47" r="5" stroke-width="0" fill="#FF2A00" opacity="0.7" />
<path d="M1219.5,21.77c1.29,0.53,2.8,0.63,4.1,0.53c11.9-0.96,47.4-3.96,61.12-4.03c2.16-0.01,3.45,0.25,4.53,0.51" style="fill:none;stroke:#999;stroke-width:3" />
<path d="M1237.0,11.5c1.5,1.2,1.98,1.56,2.14,2.3c1.5,6.91,1.93,13.19,2.36,15.7" style="fill:none;stroke:#999;stroke-width:3" />
<path d="M1270.4099999999999,9c1.3,0.79,1.67,2.5,1.24,3.67c-1.3,3.57-2.17,8.52-4.06,13.08" style="fill:none;stroke:#999;stroke-width:3" />
<path d="M1255.96,26.75c0.05,0.48,0.18,1.25-0.09,1.92c-1.78,4.28-7.2,11.76-15.8,17.89" style="fill:none;stroke:#999;stroke-width:3" />
<path d="M1254.51,32.64c0.32,0.02,2.33,0.38,3.25,0.32c3.04-0.21,10.27-2.75,14.64-3.27c1.6-0.19,2.83,1.02,2.07,2.25C1270.29,38.67,1257.75,52,1240.97,56.11" style="fill:none;stroke:#999;stroke-width:3" />
<path d="M1249.88,38.2c4.18-0.02,28.91,11.64,35.71,13.99c2.03,0.7,3.67,1.04,5.65,1.25" style="fill:none;stroke:#999;stroke-width:3" />
<path d="M1249.7,59.21c0.97,0.29,2.75,0.42,3.71,0.29c5.34-0.75,14.59-2.5,20.6-3.01c1.6-0.14,2.58,0.14,3.39,0.28" style="fill:none;stroke:#999;stroke-width:3" />
<path d="M1247.81,68.15c0.97,0.29,3.4,0.35,4.37,0.29c11.21-0.79,14.26-2.33,23.61-3.09c1.6-0.13,2.58,0.14,3.39,0.28" style="fill:none;stroke:#999;stroke-width:3" />
<path d="M1241.8600000000001,77.64c1.47,0.57,4.14,0.63,5.61,0.57c9.23-0.37,22.27-2.62,34.34-3.57c2.43-0.19,3.9,0.27,5.12,0.55" style="fill:none;stroke:#999;stroke-width:3" />
<path d="M1263.25,49.5c0.61,0.32,2.03,1.85,2.03,3.07c0,6.78-0.25,29.2-0.25,37.9" style="fill:none;stroke:#999;stroke-width:3" />
<path d="M1218.14,34.47c3.63,1.47,9.39,6.06,10.29,8.35" style="fill:none;stroke:#999;stroke-width:3" />
<path d="M1214.29,60.14c2.67,0.89,4.45,0.45,5.63,0.22c1.19-0.22,7.71-4.12,9.49-4.56c1.78-0.45,3.45,1.61,2.26,2.95s-4.21,6.56-5.1,7.67c-0.89,1.11-2.56,2.16-0.78,3.71c1.78,1.56,5.23,4.66,6.12,5.99c0.89,1.34,0.89,2.45-0.89,3.56c-1.78,1.11-10.21,7.38-11.99,7.83" style="fill:none;stroke:black;stroke-width:3" />
<circle cx="1214.29" cy="60.14" r="5" stroke-width="0" fill="#FF2A00" opacity="0.7" />
<path d="M1328.5,21.77c1.29,0.53,2.8,0.63,4.1,0.53c11.9-0.96,47.4-3.96,61.12-4.03c2.16-0.01,3.45,0.25,4.53,0.51" style="fill:none;stroke:#999;stroke-width:3" />
<path d="M1346.0,11.5c1.5,1.2,1.98,1.56,2.14,2.3c1.5,6.91,1.93,13.19,2.36,15.7" style="fill:none;stroke:#999;stroke-width:3" />
<path d="M1379.4099999999999,9c1.3,0.79,1.67,2.5,1.24,3.67c-1.3,3.57-2.17,8.52-4.06,13.08" style="fill:none;stroke:#999;stroke-width:3" />
<path d="M1364.96,26.75c0.05,0.48,0.18,1.25-0.09,1.92c-1.78,4.28-7.2,11.76-15.8,17.89" style="fill:none;stroke:#999;stroke-width:3" />
<path d="M1363.51,32.64c0.32,0.02,2.33,0.38,3.25,0.32c3.04-0.21,10.27-2.75,14.64-3.27c1.6-0.19,2.83,1.02,2.07,2.25C1379.29,38.67,1366.75,52,1349.97,56.11" style="fill:none;stroke:#999;stroke-width:3" />
<path d="M1358.88,38.2c4.18-0.02,28.91,11.64,35.71,13.99c2.03,0.7,3.67,1.04,5.65,1.25" style="fill:none;stroke:#999;stroke-width:3" />
<path d="M1358.7,59.21c0.97,0.29,2.75,0.42,3.71,0.29c5.34-0.75,14.59-2.5,20.6-3.01c1.6-0.14,2.58,0.14,3.39,0.28" style="fill:none;stroke:#999;stroke-width:3" />
<path d="M1356.81,68.15c0.97,0.29,3.4,0.35,4.37,0.29c11.21-0.79,14.26-2.33,23.61-3.09c1.6-0.13,2.58,0.14,3.39,0.28" style="fill:none;stroke:#999;stroke-width:3" />
<path d="M1350.8600000000001,77.64c1.47,0.57,4.14,0.63,5.61,0.57c9.23-0.37,22.27-2.62,34.34-3.57c2.43-0.19,3.9,0.27,5.12,0.55" style="fill:none;stroke:#999;stroke-width:3" />
<path d="M1372.25,49.5c0.61,0.32,2.03,1.85,2.03,3.07c0,6.78-0.25,29.2-0.25,37.9" style="fill:none;stroke:#999;stroke-width:3" />
<path d="M1327.14,34.47c3.63,1.47,9.39,6.06,10.29,8.35" style="fill:none;stroke:#999;stroke-width:3" />
<path d="M1323.29,60.14c2.67,0.89,4.45,0.45,5.63,0.22c1.19-0.22,7.71-4.12,9.49-4.56c1.78-0.45,3.45,1.61,2.26,2.95s-4.21,6.56-5.1,7.67c-0.89,1.11-2.56,2.16-0.78,3.71c1.78,1.56,5.23,4.66,6.12,5.99c0.89,1.34,0.89,2.45-0.89,3.56c-1.78,1.11-10.21,7.38-11.99,7.83" style="fill:none;stroke:#999;stroke-width:3" />
<path d="M1322.0,88.72c2.98-0.42,8.94-1.46,13.41-0.62c4.47,0.83,29.88,6.42,34.28,7.5c11.92,2.92,21.12,3.75,30.06,2.29" style="fill:none;stroke:black;stroke-width:3" />
<circle cx="1322.0" cy="88.72" r="5" stroke-width="0" fill="#FF2A00" opacity="0.7" />
</svg>