<svg width="1853px" height="109px" viewBox="0 0 1853px 109px" xmlns="http://www.w3.org/2000/svg" xmlns:xlink="http://www.w3.org/1999/xlink" xml:space="preserve" version="1.1"  baseProfile="full">
<line x1="1" y1="1" x2="1852" y2="1" style="stroke:#ddd;stroke-width:2" />
<line x1="1" y1="1" x2="1" y2="108" style="stroke:#ddd;stroke-width:2" />
<line x1="1" y1="108" x2="1852" y2="108" style="stroke:#ddd;stroke-width:2" />
<line x1="1852" y1="1" x2="1852" y2="108" style="stroke:#ddd;stroke-width:2" />
<line x1="109" y1="1" x2="109" y2="108" style="stroke:#ddd;stroke-width:2" />
<line x1="218" y1="1" x2="218" y2="108" style="stroke:#ddd;stroke-width:2" />
<line x1="327" y1="1" x2="327" y2="108" style="stroke:#ddd;stroke-width:2" />
<line x1="436" y1="1" x2="436" y2="108" style="stroke:#ddd;stroke-width:2" />
<line x1="545" y1="1" x2="545" y2="108" style="stroke:#ddd;stroke-width:2" />
<line x1="654" y1="1" x2="654" y2="108" style="stroke:#ddd;stroke-width:2" />
<line x1="763" y1="1" x2="763" y2="108" style="stroke:#ddd;stroke-width:2" />
<line x1="872" y1="1" x2="872" y2="108" style="stroke:#ddd;stroke-width:2" />
<line x1="981" y1="1" x2="981" y2="108" style="stroke:#ddd;stroke-width:2" />
<line x1="1090" y1="1" x2="1090" y2="108" style="stroke:#ddd;stroke-width:2" />
<line x1="1199" y1="1" x2="1199" y2="108" style="stroke:#ddd;stroke-width:2" />
<line x1="1308" y1="1" x2="1308" y2="108" style="stroke:#ddd;stroke-width:2" />
<line x1="1417" y1="1" x2="1417" y2="108" style="stroke:#ddd;stroke-width:2" />
<line x1="1526" y1="1" x2="1526" y2="108" style="stroke:#ddd;stroke-width:2" />
<line x1="1635" y1="1" x2="1635" y2="108" style="stroke:#ddd;stroke-width:2" />
<line x1="1744" y1="1" x2="1744" y2="108" style="stroke:#ddd;stroke-width:2" />
<line x1="1" y1="54" x2="1852" y2="54" style="stroke:#ddd;stroke-width:2;stroke-dasharray:3 3" />
<line x1="55" y1="1" x2="55" y2="108" style="stroke:#ddd;stroke-width:2;stroke-dasharray:3 3" />
<line x1="164" y1="1" x2="164" y2="108" style="stroke:#ddd;stroke-width:2;stroke-dasharray:3 3" />
<line x1="273" y1="1" x2="273" y2="108" style="stroke:#ddd;stroke-width:2;stroke-dasharray:3 3" />
<line x1="382" y1="1" x2="382" y2="108" style="stroke:#ddd;stroke-width:2;stroke-dasharray:3 3" />
<line x1="491" y1="1" x2="491" y2="108" style="stroke:#ddd;stroke-width:2;stroke-dasharray:3 3" />
<line x1="600" y1="1" x2="600" y2="108" style="stroke:#ddd;stroke-width:2;stroke-dasharray:3 3" />
<line x1="709" y1="1" x2="709" y2="108" style="stroke:#ddd;stroke-width:2;stroke-dasharray:3 3" />
<line x1="818" y1="1" x2="818" y2="108" style="stroke:#ddd;stroke-width:2;stroke-dasharray:3 3" />
<line x1="927" y1="1" x2="927" y2="108" style="stroke:#ddd;stroke-width:2;stroke-dasharray:3 3" />
<line x1="1036" y1="1" x2="1036" y2="108" style="stroke:#ddd;stroke-width:2;stroke-dasharray:3 3" />
<line x1="1145" y1="1" x2="1145" y2="108" style="stroke:#ddd;stroke-width:2;stroke-dasharray:3 3" />
<line x1="1254" y1="1" x2="1254" y2="108" style="stroke:#ddd;stroke-width:2;stroke-dasharray:3 3" />
<line x1="1363" y1="1" x2="1363" y2="108" style="stroke:#ddd;stroke-width:2;stroke-dasharray:3 3" />
<line x1="1472" y1="1" x2="1472" y2="108" style="stroke:#ddd;stroke-width:2;stroke-dasharray:3 3" />
<line x1="1581" y1="1" x2="1581" y2="108" style="stroke:#ddd;stroke-width:2;stroke-dasharray:3 3" />
<line x1="1690" y1="1" x2="1690" y2="108" style="stroke:#ddd;stroke-width:2;stroke-dasharray:3 3" />
<line x1="1799" y1="1" x2="1799" y2="108" style="stroke:#ddd;stroke-width:2;stroke-dasharray:3 3" />
<path d="M20.5,22.77c3.74,0.76,7.42,0.28,11.26-0.06c14.32-1.26,35.67-2.99,49.23-3.55c3.52-0.12,7.03,0.08,10.51,0.61" style="fill:none;stroke:black;stroke-width:3" />
<circle cx="20.5" cy="22.77" r="5" stroke-width="0" fill="#FF2A00" opacity="0.7" />
<path d="M129.5,22.77c3.74,0.76,7.42,0.28,11.26-0.06c14.32-1.26,35.67-2.99,49.23-3.55c3.52-0.12,7.03,0.08,10.51,0.61" style="fill:none;stroke:#999;stroke-width:3" />
<path d="M149.25,11.75c0.94,0.94,1.3,2.17,1.4,2.96c1.1,8.66,1.35,12.04,1.6,16.54" style="fill:none;stroke:black;stroke-width:3" />
<circle cx="149.25" cy="11.75" r="5" stroke-width="0" fill="#FF2A00" opacity="0.7" />
<path d="M238.5,22.77c3.74,0.76,7.42,0.28,11.26-0.06c14.32-1.26,35.67-2.99,49.23-3.55c3.52-0.12,7.03,0.08,10.51,0.61" style="fill:none;stroke:#999;stroke-width:3" />
<path d="M258.25,11.75c0.94,0.94,1.3,2.17,1.4,2.96c1.1,8.66,1.35,12.04,1.6,16.54" style="fill:none;stroke:#999;stroke-width:3" />
<path d="M287.75,9.75c0.5,1.38,0.55,2.44,0.25,3.74c-1.25,5.51-1.75,8.38-3.25,14.76" style="fill:none;stroke:black;stroke-width:3" />
<circle cx="287.75" cy="9.75" r="5" stroke-width="0" fill="#FF2A00" opacity="0.7" />
<path d="M347.5,22.77c3.74,0.76,7.42,0.28,11.26-0.06c14.32-1.26,35.67-2.99,49.23-3.55c3.52-0.12,7.03,0.08,10.51,0.61" style="fill:none;stroke:#999;stroke-width:3" />
<path d="M367.25,11.75c0.94,0.94,1.3,2.17,1.4,2.96c1.1,8.66,1.35,12.04,1.6,16.54" style="fill:none;stroke:#999;stroke-width:3" />
<path d="M396.75,9.75c0.5,1.38,0.55,2.44,0.25,3.74c-1.25,5.51-1.75,8.38-3.25,14.76" style="fill:none;stroke:#999;stroke-width:3" />
<path d="M343.33,39.14c1.79,0.86,3.82,0.75,4.67,0.61c5.5-0.87,9.5-1.87,13.07-2.88c3.03-0.85,5.58,1.1,3.93,3.82c-1.8,2.98-5.65,9.14-8.25,12.8" style="fill:none;stroke:black;stroke-width:3" />
<circle cx="343.33" cy="39.14" r="5" stroke-width="0" fill="#FF2A00" opacity="0.7" />
<path d="M456.5,22.77c3.74,0.76,7.42,0.28,11.26-0.06c14.32-1.26,35.67-2.99,49.23-3.55c3.52-0.12,7.03,0.08,10.51,0.61" style="fill:none;stroke:#999;stroke-width:3" />
<path d="M476.25,11.75c0.94,0.94,1.3,2.17,1.4,2.96c1.1,8.66,1.35,12.04,1.6,16.54" style="fill:none;stroke:#999;stroke-width:3" />
<path d="M505.75,9.75c0.5,1.38,0.55,2.44,0.25,3.74c-1.25,5.51-1.75,8.38-3.25,14.76" style="fill:none;stroke:#999;stroke-width:3" />
<path d="M452.33,39.14c1.79,0.86,3.82,0.75,4.67,0.61c5.5-0.87,9.5-1.87,13.07-2.88c3.03-0.85,5.58,1.1,3.93,3.82c-1.8,2.98-5.65,9.14-8.25,12.8" style="fill:none;stroke:#999;stroke-width:3" />
<path d="M465.12,54.66C479.25,63.75,475.0,87.5,465.08,78.98" style="fill:none;stroke:black;stroke-width:3" />
<circle cx="465.12" cy="54.66" r="5" stroke-width="0" fill="#FF2A00" opacity="0.7" />
<path d="M565.5,22.77c3.74,0.76,7.42,0.28,11.26-0.06c14.32-1.26,35.67-2.99,49.23-3.55c3.52-0.12,7.03,0.08,10.51,0.61" style="fill:none;stroke:#999;stroke-width:3" />
<path d="M585.25,11.75c0.94,0.94,1.3,2.17,1.4,2.96c1.1,8.66,1.35,12.04,1.6,16.54" style="fill:none;stroke:#999;stroke-width:3" />
<path d="M614.75,9.75c0.5,1.38,0.55,2.44,0.25,3.74c-1.25,5.51-1.75,8.38-3.25,14.76" style="fill:none;stroke:#999;stroke-width:3" />
<path d="M561.3299999999999,39.14c1.79,0.86,3.82,0.75,4.67,0.61c5.5-0.87,9.5-1.87,13.07-2.88c3.03-0.85,5.58,1.1,3.93,3.82c-1.8,2.98-5.65,9.14-8.25,12.8" style="fill:none;stroke:#999;stroke-width:3" />
<path d="M574.12,54.66C588.25,63.75,584.0,87.5,574.0799999999999,78.98" style="fill:none;stroke:#999;stroke-width:3" />
<path d="M564.37,40.41c0.86,0.86,1.09,2.09,1.09,3.14c0,2.18-0.05,30.38-0.08,46.07c-0.01,4.62-0.01,8.16-0.01,9.62" style="fill:none;stroke:black;stroke-width:3" />
<circle cx="564.37" cy="40.41" r="5" stroke-width="0" fill="#FF2A00" opacity="0.7" />
<path d="M674.5,22.77c3.74,0.76,7.42,0.28,11.26-0.06c14.32-1.26,35.67-2.99,49.23-3.55c3.52-0.12,7.03,0.08,10.51,0.61" style="fill:none;stroke:#999;stroke-width:3" />
<path d="M694.25,11.75c0.94,0.94,1.3,2.17,1.4,2.96c1.1,8.66,1.35,12.04,1.6,16.54" style="fill:none;stroke:#999;stroke-width:3" />
<path d="M723.75,9.75c0.5,1.38,0.55,2.44,0.25,3.74c-1.25,5.51-1.75,8.38-3.25,14.76" style="fill:none;stroke:#999;stroke-width:3" />
<path d="M670.3299999999999,39.14c1.79,0.86,3.82,0.75,4.67,0.61c5.5-0.87,9.5-1.87,13.07-2.88c3.03-0.85,5.58,1.1,3.93,3.82c-1.8,2.98-5.65,9.14-8.25,12.8" style="fill:none;stroke:#999;stroke-width:3" />
<path d="M683.12,54.66C697.25,63.75,693.0,87.5,683.0799999999999,78.98" style="fill:none;stroke:#999;stroke-width:3" />
<path d="M673.37,40.41c0.86,0.86,1.09,2.09,1.09,3.14c0,2.18-0.05,30.38-0.08,46.07c-0.01,4.62-0.01,8.16-0.01,9.62" style="fill:none;stroke:#999;stroke-width:3" />
<path d="M717.26,31.5c0.99,0.99,1.17,2.25,1.17,3.66c0,2.21,0-0.37,0,5.64" style="fill:none;stroke:black;stroke-width:3" />
<circle cx="717.26" cy="31.5" r="5" stroke-width="0" fill="#FF2A00" opacity="0.7" />
<path d="M783.5,22.77c3.74,0.76,7.42,0.28,11.26-0.06c14.32-1.26,35.67-2.99,49.23-3.55c3.52-0.12,7.03,0.08,10.51,0.61" style="fill:none;stroke:#999;stroke-width:3" />
<path d="M803.25,11.75c0.94,0.94,1.3,2.17,1.4,2.96c1.1,8.66,1.35,12.04,1.6,16.54" style="fill:none;stroke:#999;stroke-width:3" />
<path d="M832.75,9.75c0.5,1.38,0.55,2.44,0.25,3.74c-1.25,5.51-1.75,8.38-3.25,14.76" style="fill:none;stroke:#999;stroke-width:3" />
<path d="M779.3299999999999,39.14c1.79,0.86,3.82,0.75,4.67,0.61c5.5-0.87,9.5-1.87,13.07-2.88c3.03-0.85,5.58,1.1,3.93,3.82c-1.8,2.98-5.65,9.14-8.25,12.8" style="fill:none;stroke:#999;stroke-width:3" />
<path d="M792.12,54.66C806.25,63.75,802.0,87.5,792.0799999999999,78.98" style="fill:none;stroke:#999;stroke-width:3" />
<path d="M782.37,40.41c0.86,0.86,1.09,2.09,1.09,3.14c0,2.18-0.05,30.38-0.08,46.07c-0.01,4.62-0.01,8.16-0.01,9.62" style="fill:none;stroke:#999;stroke-width:3" />
<path d="M826.26,31.5c0.99,0.99,1.17,2.25,1.17,3.66c0,2.21,0-0.37,0,5.64" style="fill:none;stroke:#999;stroke-width:3" />
<path d="M810.06,43.34c2.18,0.33,4.36,0.29,6.54-0.13c6.49-0.81,18.06-2.31,25.15-2.84c2.02-0.22,4.04-0.2,6.06,0.06" style="fill:none;stroke:black;stroke-width:3" />
<circle cx="810.06" cy="43.34" r="5" stroke-width="0" fill="#FF2A00" opacity="0.7" />
<path d="M892.5,22.77c3.74,0.76,7.42,0.28,11.26-0.06c14.32-1.26,35.67-2.99,49.23-3.55c3.52-0.12,7.03,0.08,10.51,0.61" style="fill:none;stroke:#999;stroke-width:3" />
<path d="M912.25,11.75c0.94,0.94,1.3,2.17,1.4,2.96c1.1,8.66,1.35,12.04,1.6,16.54" style="fill:none;stroke:#999;stroke-width:3" />
<path d="M941.75,9.75c0.5,1.38,0.55,2.44,0.25,3.74c-1.25,5.51-1.75,8.38-3.25,14.76" style="fill:none;stroke:#999;stroke-width:3" />
<path d="M888.3299999999999,39.14c1.79,0.86,3.82,0.75,4.67,0.61c5.5-0.87,9.5-1.87,13.07-2.88c3.03-0.85,5.58,1.1,3.93,3.82c-1.8,2.98-5.65,9.14-8.25,12.8" style="fill:none;stroke:#999;stroke-width:3" />
<path d="M901.12,54.66C915.25,63.75,911.0,87.5,901.0799999999999,78.98" style="fill:none;stroke:#999;stroke-width:3" />
<path d="M891.37,40.41c0.86,0.86,1.09,2.09,1.09,3.14c0,2.18-0.05,30.38-0.08,46.07c-0.01,4.62-0.01,8.16-0.01,9.62" style="fill:none;stroke:#999;stroke-width:3" />
<path d="M935.26,31.5c0.99,0.99,1.17,2.25,1.17,3.66c0,2.21,0-0.37,0,5.64" style="fill:none;stroke:#999;stroke-width:3" />
<path d="M919.06,43.34c2.18,0.33,4.36,0.29,6.54-0.13c6.49-0.81,18.06-2.31,25.15-2.84c2.02-0.22,4.04-0.2,6.06,0.06" style="fill:none;stroke:#999;stroke-width:3" />
<path d="M924.88,47.78c3.14,2.44,4.07,4.43,4.36,6.04" style="fill:none;stroke:black;stroke-width:3" />
<circle cx="924.88" cy="47.78" r="5" stroke-width="0" fill="#FF2A00" opacity="0.7" />
<path d="M1001.5,22.77c3.74,0.76,7.42,0.28,11.26-0.06c14.32-1.26,35.67-2.99,49.23-3.55c3.52-0.12,7.03,0.08,10.51,0.61" style="fill:none;stroke:#999;stroke-width:3" />
<path d="M1021.25,11.75c0.94,0.94,1.3,2.17,1.4,2.96c1.1,8.66,1.35,12.04,1.6,16.54" style="fill:none;stroke:#999;stroke-width:3" />
<path d="M1050.75,9.75c0.5,1.38,0.55,2.44,0.25,3.74c-1.25,5.51-1.75,8.38-3.25,14.76" style="fill:none;stroke:#999;stroke-width:3" />
<path d="M997.3299999999999,39.14c1.79,0.86,3.82,0.75,4.67,0.61c5.5-0.87,9.5-1.87,13.07-2.88c3.03-0.85,5.58,1.1,3.93,3.82c-1.8,2.98-5.65,9.14-8.25,12.8" style="fill:none;stroke:#999;stroke-width:3" />
<path d="M1010.12,54.66C1024.25,63.75,1020.0,87.5,1010.0799999999999,78.98" style="fill:none;stroke:#999;stroke-width:3" />
<path d="M1000.37,40.41c0.86,0.86,1.09,2.09,1.09,3.14c0,2.18-0.05,30.38-0.08,46.07c-0.01,4.62-0.01,8.16-0.01,9.62" style="fill:none;stroke:#999;stroke-width:3" />
<path d="M1044.26,31.5c0.99,0.99,1.17,2.25,1.17,3.66c0,2.21,0-0.37,0,5.64" style="fill:none;stroke:#999;stroke-width:3" />
<path d="M1028.06,43.34c2.18,0.33,4.36,0.29,6.54-0.13c6.49-0.81,18.06-2.31,25.15-2.84c2.02-0.22,4.04-0.2,6.06,0.06" style="fill:none;stroke:#999;stroke-width:3" />
<path d="M1033.88,47.78c3.14,2.44,4.07,4.43,4.36,6.04" style="fill:none;stroke:#999;stroke-width:3" />
<path d="M1056.81,44.62c0,0.88-0.19,1.63-0.47,2.16c-1.3,2.49-3.16,5.77-4.22,7.46" style="fill:none;stroke:black;stroke-width:3" />
<circle cx="1056.81" cy="44.62" r="5" stroke-width="0" fill="#FF2A00" opacity="0.7" />
<path d="M1110.5,22.77c3.74,0.76,7.42,0.28,11.26-0.06c14.32-1.26,35.67-2.99,49.23-3.55c3.52-0.12,7.03,0.08,10.51,0.61" style="fill:none;stroke:#999;stroke-width:3" />
<path d="M1130.25,11.75c0.94,0.94,1.3,2.17,1.4,2.96c1.1,8.66,1.35,12.04,1.6,16.54" style="fill:none;stroke:#999;stroke-width:3" />
<path d="M1159.75,9.75c0.5,1.38,0.55,2.44,0.25,3.74c-1.25,5.51-1.75,8.38-3.25,14.76" style="fill:none;stroke:#999;stroke-width:3" />
<path d="M1106.33,39.14c1.79,0.86,3.82,0.75,4.67,0.61c5.5-0.87,9.5-1.87,13.07-2.88c3.03-0.85,5.58,1.1,3.93,3.82c-1.8,2.98-5.65,9.14-8.25,12.8" style="fill:none;stroke:#999;stroke-width:3" />
<path d="M1119.12,54.66C1133.25,63.75,1129.0,87.5,1119.08,78.98" style="fill:none;stroke:#999;stroke-width:3" />
<path d="M1109.37,40.41c0.86,0.86,1.09,2.09,1.09,3.14c0,2.18-0.05,30.38-0.08,46.07c-0.01,4.62-0.01,8.16-0.01,9.62" style="fill:none;stroke:#999;stroke-width:3" />
<path d="M1153.26,31.5c0.99,0.99,1.17,2.25,1.17,3.66c0,2.21,0-0.37,0,5.64" style="fill:none;stroke:#999;stroke-width:3" />
<path d="M1137.06,43.34c2.18,0.33,4.36,0.29,6.54-0.13c6.49-0.81,18.06-2.31,25.15-2.84c2.02-0.22,4.04-0.2,6.06,0.06" style="fill:none;stroke:#999;stroke-width:3" />
<path d="M1142.88,47.78c3.14,2.44,4.07,4.43,4.36,6.04" style="fill:none;stroke:#999;stroke-width:3" />
<path d="M1165.81,44.62c0,0.88-0.19,1.63-0.47,2.16c-1.3,2.49-3.16,5.77-4.22,7.46" style="fill:none;stroke:#999;stroke-width:3" />
<path d="M1132.07,58.93c3.11,0.43,6.17,0.25,9.32-0.05c10.12-0.97,20.81-2.29,31.48-2.99c3.03-0.35,6.06-0.36,9.08-0.01" style="fill:none;stroke:black;stroke-width:3" />
<circle cx="1132.07" cy="58.93" r="5" stroke-width="0" fill="#FF2A00" opacity="0.7" />
<path d="M1219.5,22.77c3.74,0.76,7.42,0.28,11.26-0.06c14.32-1.26,35.67-2.99,49.23-3.55c3.52-0.12,7.03,0.08,10.51,0.61" style="fill:none;stroke:#999;stroke-width:3" />
<path d="M1239.25,11.75c0.94,0.94,1.3,2.17,1.4,2.96c1.1,8.66,1.35,12.04,1.6,16.54" style="fill:none;stroke:#999;stroke-width:3" />
<path d="M1268.75,9.75c0.5,1.38,0.55,2.44,0.25,3.74c-1.25,5.51-1.75,8.38-3.25,14.76" style="fill:none;stroke:#999;stroke-width:3" />
<path d="M1215.33,39.14c1.79,0.86,3.82,0.75,4.67,0.61c5.5-0.87,9.5-1.87,13.07-2.88c3.03-0.85,5.58,1.1,3.93,3.82c-1.8,2.98-5.65,9.14-8.25,12.8" style="fill:none;stroke:#999;stroke-width:3" />
<path d="M1228.12,54.66C1242.25,63.75,1238.0,87.5,1228.08,78.98" style="fill:none;stroke:#999;stroke-width:3" />
<path d="M1218.37,40.41c0.86,0.86,1.09,2.09,1.09,3.14c0,2.18-0.05,30.38-0.08,46.07c-0.01,4.62-0.01,8.16-0.01,9.62" style="fill:none;stroke:#999;stroke-width:3" />
<path d="M1262.26,31.5c0.99,0.99,1.17,2.25,1.17,3.66c0,2.21,0-0.37,0,5.64" style="fill:none;stroke:#999;stroke-width:3" />
<path d="M1246.06,43.34c2.18,0.33,4.36,0.29,6.54-0.13c6.49-0.81,18.06-2.31,25.15-2.84c2.02-0.22,4.04-0.2,6.06,0.06" style="fill:none;stroke:#999;stroke-width:3" />
<path d="M1251.88,47.78c3.14,2.44,4.07,4.43,4.36,6.04" style="fill:none;stroke:#999;stroke-width:3" />
<path d="M1274.81,44.62c0,0.88-0.19,1.63-0.47,2.16c-1.3,2.49-3.16,5.77-4.22,7.46" style="fill:none;stroke:#999;stroke-width:3" />
<path d="M1241.07,58.93c3.11,0.43,6.17,0.25,9.32-0.05c10.12-0.97,20.81-2.29,31.48-2.99c3.03-0.35,6.06-0.36,9.08-0.01" style="fill:none;stroke:#999;stroke-width:3" />
<path d="M1245.35,62.64c0.77,1.36,0.8,2.54,0.54,4.2C1244.12,78.12,1241.76,87.24,1234.25,95" style="fill:none;stroke:black;stroke-width:3" />
<circle cx="1245.35" cy="62.64" r="5" stroke-width="0" fill="#FF2A00" opacity="0.7" />
<path d="M1328.5,22.77c3.74,0.76,7.42,0.28,11.26-0.06c14.32-1.26,35.67-2.99,49.23-3.55c3.52-0.12,7.03,0.08,10.51,0.61" style="fill:none;stroke:#999;stroke-width:3" />
<path d="M1348.25,11.75c0.94,0.94,1.3,2.17,1.4,2.96c1.1,8.66,1.35,12.04,1.6,16.54" style="fill:none;stroke:#999;stroke-width:3" />
<path d="M1377.75,9.75c0.5,1.38,0.55,2.44,0.25,3.74c-1.25,5.51-1.75,8.38-3.25,14.76" style="fill:none;stroke:#999;stroke-width:3" />
<path d="M1324.33,39.14c1.79,0.86,3.82,0.75,4.67,0.61c5.5-0.87,9.5-1.87,13.07-2.88c3.03-0.85,5.58,1.1,3.93,3.82c-1.8,2.98-5.65,9.14-8.25,12.8" style="fill:none;stroke:#999;stroke-width:3" />
<path d="M1337.12,54.66C1351.25,63.75,1347.0,87.5,1337.08,78.98" style="fill:none;stroke:#999;stroke-width:3" />
<path d="M1327.37,40.41c0.86,0.86,1.09,2.09,1.09,3.14c0,2.18-0.05,30.38-0.08,46.07c-0.01,4.62-0.01,8.16-0.01,9.62" style="fill:none;stroke:#999;stroke-width:3" />
<path d="M1371.26,31.5c0.99,0.99,1.17,2.25,1.17,3.66c0,2.21,0-0.37,0,5.64" style="fill:none;stroke:#999;stroke-width:3" />
<path d="M1355.06,43.34c2.18,0.33,4.36,0.29,6.54-0.13c6.49-0.81,18.06-2.31,25.15-2.84c2.02-0.22,4.04-0.2,6.06,0.06" style="fill:none;stroke:#999;stroke-width:3" />
<path d="M1360.88,47.78c3.14,2.44,4.07,4.43,4.36,6.04" style="fill:none;stroke:#999;stroke-width:3" />
<path d="M1383.81,44.62c0,0.88-0.19,1.63-0.47,2.16c-1.3,2.49-3.16,5.77-4.22,7.46" style="fill:none;stroke:#999;stroke-width:3" />
<path d="M1350.07,58.93c3.11,0.43,6.17,0.25,9.32-0.05c10.12-0.97,20.81-2.29,31.48-2.99c3.03-0.35,6.06-0.36,9.08-0.01" style="fill:none;stroke:#999;stroke-width:3" />
<path d="M1354.35,62.64c0.77,1.36,0.8,2.54,0.54,4.2C1353.12,78.12,1350.76,87.24,1343.25,95" style="fill:none;stroke:#999;stroke-width:3" />
<path d="M1365.33,65.59c0.06,0.91-0.03,1.8-0.28,2.67c-1.3,4.23-3.05,7.86-6.3,12.46" style="fill:none;stroke:black;stroke-width:3" />
<circle cx="1365.33" cy="65.59" r="5" stroke-width="0" fill="#FF2A00" opacity="0.7" />
<path d="M1437.5,22.77c3.74,0.76,7.42,0.28,11.26-0.06c14.32-1.26,35.67-2.99,49.23-3.55c3.52-0.12,7.03,0.08,10.51,0.61" style="fill:none;stroke:#999;stroke-width:3" />
<path d="M1457.25,11.75c0.94,0.94,1.3,2.17,1.4,2.96c1.1,8.66,1.35,12.04,1.6,16.54" style="fill:none;stroke:#999;stroke-width:3" />
<path d="M1486.75,9.75c0.5,1.38,0.55,2.44,0.25,3.74c-1.25,5.51-1.75,8.38-3.25,14.76" style="fill:none;stroke:#999;stroke-width:3" />
<path d="M1433.33,39.14c1.79,0.86,3.82,0.75,4.67,0.61c5.5-0.87,9.5-1.87,13.07-2.88c3.03-0.85,5.58,1.1,3.93,3.82c-1.8,2.98-5.65,9.14-8.25,12.8" style="fill:none;stroke:#999;stroke-width:3" />
<path d="M1446.12,54.66C1460.25,63.75,1456.0,87.5,1446.08,78.98" style="fill:none;stroke:#999;stroke-width:3" />
<path d="M1436.37,40.41c0.86,0.86,1.09,2.09,1.09,3.14c0,2.18-0.05,30.38-0.08,46.07c-0.01,4.62-0.01,8.16-0.01,9.62" style="fill:none;stroke:#999;stroke-width:3" />
<path d="M1480.26,31.5c0.99,0.99,1.17,2.25,1.17,3.66c0,2.21,0-0.37,0,5.64" style="fill:none;stroke:#999;stroke-width:3" />
<path d="M1464.06,43.34c2.18,0.33,4.36,0.29,6.54-0.13c6.49-0.81,18.06-2.31,25.15-2.84c2.02-0.22,4.04-0.2,6.06,0.06" style="fill:none;stroke:#999;stroke-width:3" />
<path d="M1469.88,47.78c3.14,2.44,4.07,4.43,4.36,6.04" style="fill:none;stroke:#999;stroke-width:3" />
<path d="M1492.81,44.62c0,0.88-0.19,1.63-0.47,2.16c-1.3,2.49-3.16,5.77-4.22,7.46" style="fill:none;stroke:#999;stroke-width:3" />
<path d="M1459.07,58.93c3.11,0.43,6.17,0.25,9.32-0.05c10.12-0.97,20.81-2.29,31.48-2.99c3.03-0.35,6.06-0.36,9.08-0.01" style="fill:none;stroke:#999;stroke-width:3" />
<path d="M1463.35,62.64c0.77,1.36,0.8,2.54,0.54,4.2C1462.12,78.12,1459.76,87.24,1452.25,95" style="fill:none;stroke:#999;stroke-width:3" />
<path d="M1474.33,65.59c0.06,0.91-0.03,1.8-0.28,2.67c-1.3,4.23-3.05,7.86-6.3,12.46" style="fill:none;stroke:#999;stroke-width:3" />
<path d="M1475.8,72.69c1.6,0.28,3.21,0.26,4.81-0.07c4.34-0.48,11.26-1.45,15.77-2.01c1.71-0.31,3.43-0.19,5.15-0.14" style="fill:none;stroke:black;stroke-width:3" />
<circle cx="1475.8" cy="72.69" r="5" stroke-width="0" fill="#FF2A00" opacity="0.7" />
<path d="M1546.5,22.77c3.74,0.76,7.42,0.28,11.26-0.06c14.32-1.26,35.67-2.99,49.23-3.55c3.52-0.12,7.03,0.08,10.51,0.61" style="fill:none;stroke:#999;stroke-width:3" />
<path d="M1566.25,11.75c0.94,0.94,1.3,2.17,1.4,2.96c1.1,8.66,1.35,12.04,1.6,16.54" style="fill:none;stroke:#999;stroke-width:3" />
<path d="M1595.75,9.75c0.5,1.38,0.55,2.44,0.25,3.74c-1.25,5.51-1.75,8.38-3.25,14.76" style="fill:none;stroke:#999;stroke-width:3" />
<path d="M1542.33,39.14c1.79,0.86,3.82,0.75,4.67,0.61c5.5-0.87,9.5-1.87,13.07-2.88c3.03-0.85,5.58,1.1,3.93,3.82c-1.8,2.98-5.65,9.14-8.25,12.8" style="fill:none;stroke:#999;stroke-width:3" />
<path d="M1555.12,54.66C1569.25,63.75,1565.0,87.5,1555.08,78.98" style="fill:none;stroke:#999;stroke-width:3" />
<path d="M1545.37,40.41c0.86,0.86,1.09,2.09,1.09,3.14c0,2.18-0.05,30.38-0.08,46.07c-0.01,4.62-0.01,8.16-0.01,9.62" style="fill:none;stroke:#999;stroke-width:3" />
<path d="M1589.26,31.5c0.99,0.99,1.17,2.25,1.17,3.66c0,2.21,0-0.37,0,5.64" style="fill:none;stroke:#999;stroke-width:3" />
<path d="M1573.06,43.34c2.18,0.33,4.36,0.29,6.54-0.13c6.49-0.81,18.06-2.31,25.15-2.84c2.02-0.22,4.04-0.2,6.06,0.06" style="fill:none;stroke:#999;stroke-width:3" />
<path d="M1578.88,47.78c3.14,2.44,4.07,4.43,4.36,6.04" style="fill:none;stroke:#999;stroke-width:3" />
<path d="M1601.81,44.62c0,0.88-0.19,1.63-0.47,2.16c-1.3,2.49-3.16,5.77-4.22,7.46" style="fill:none;stroke:#999;stroke-width:3" />
<path d="M1568.07,58.93c3.11,0.43,6.17,0.25,9.32-0.05c10.12-0.97,20.81-2.29,31.48-2.99c3.03-0.35,6.06-0.36,9.08-0.01" style="fill:none;stroke:#999;stroke-width:3" />
<path d="M1572.35,62.64c0.77,1.36,0.8,2.54,0.54,4.2C1571.12,78.12,1568.76,87.24,1561.25,95" style="fill:none;stroke:#999;stroke-width:3" />
<path d="M1583.33,65.59c0.06,0.91-0.03,1.8-0.28,2.67c-1.3,4.23-3.05,7.86-6.3,12.46" style="fill:none;stroke:#999;stroke-width:3" />
<path d="M1584.8,72.69c1.6,0.28,3.21,0.26,4.81-0.07c4.34-0.48,11.26-1.45,15.77-2.01c1.71-0.31,3.43-0.19,5.15-0.14" style="fill:none;stroke:#999;stroke-width:3" />
<path d="M1594.94,62.39c0.77,0.77,1.24,1.98,1.24,3.01c0,0.54,0.07,23.91-0.02,27.21" style="fill:none;stroke:black;stroke-width:3" />
<circle cx="1594.94" cy="62.39" r="5" stroke-width="0" fill="#FF2A00" opacity="0.7" />
<path d="M1655.5,22.77c3.74,0.76,7.42,0.28,11.26-0.06c14.32-1.26,35.67-2.99,49.23-3.55c3.52-0.12,7.03,0.08,10.51,0.61" style="fill:none;stroke:#999;stroke-width:3" />
<path d="M1675.25,11.75c0.94,0.94,1.3,2.17,1.4,2.96c1.1,8.66,1.35,12.04,1.6,16.54" style="fill:none;stroke:#999;stroke-width:3" />
<path d="M1704.75,9.75c0.5,1.38,0.55,2.44,0.25,3.74c-1.25,5.51-1.75,8.38-3.25,14.76" style="fill:none;stroke:#999;stroke-width:3" />
<path d="M1651.33,39.14c1.79,0.86,3.82,0.75,4.67,0.61c5.5-0.87,9.5-1.87,13.07-2.88c3.03-0.85,5.58,1.1,3.93,3.82c-1.8,2.98-5.65,9.14-8.25,12.8" style="fill:none;stroke:#999;stroke-width:3" />
<path d="M1664.12,54.66C1678.25,63.75,1674.0,87.5,1664.08,78.98" style="fill:none;stroke:#999;stroke-width:3" />
<path d="M1654.37,40.41c0.86,0.86,1.09,2.09,1.09,3.14c0,2.18-0.05,30.38-0.08,46.07c-0.01,4.62-0.01,8.16-0.01,9.62" style="fill:none;stroke:#999;stroke-width:3" />
<path d="M1698.26,31.5c0.99,0.99,1.17,2.25,1.17,3.66c0,2.21,0-0.37,0,5.64" style="fill:none;stroke:#999;stroke-width:3" />
<path d="M1682.06,43.34c2.18,0.33,4.36,0.29,6.54-0.13c6.49-0.81,18.06-2.31,25.15-2.84c2.02-0.22,4.04-0.2,6.06,0.06" style="fill:none;stroke:#999;stroke-width:3" />
<path d="M1687.88,47.78c3.14,2.44,4.07,4.43,4.36,6.04" style="fill:none;stroke:#999;stroke-width:3" />
<path d="M1710.81,44.62c0,0.88-0.19,1.63-0.47,2.16c-1.3,2.49-3.16,5.77-4.22,7.46" style="fill:none;stroke:#999;stroke-width:3" />
<path d="M1677.07,58.93c3.11,0.43,6.17,0.25,9.32-0.05c10.12-0.97,20.81-2.29,31.48-2.99c3.03-0.35,6.06-0.36,9.08-0.01" style="fill:none;stroke:#999;stroke-width:3" />
<path d="M1681.35,62.64c0.77,1.36,0.8,2.54,0.54,4.2C1680.12,78.12,1677.76,87.24,1670.25,95" style="fill:none;stroke:#999;stroke-width:3" />
<path d="M1692.33,65.59c0.06,0.91-0.03,1.8-0.28,2.67c-1.3,4.23-3.05,7.86-6.3,12.46" style="fill:none;stroke:#999;stroke-width:3" />
<path d="M1693.8,72.69c1.6,0.28,3.21,0.26,4.81-0.07c4.34-0.48,11.26-1.45,15.77-2.01c1.71-0.31,3.43-0.19,5.15-0.14" style="fill:none;stroke:#999;stroke-width:3" />
<path d="M1703.94,62.39c0.77,0.77,1.24,1.98,1.24,3.01c0,0.54,0.07,23.91-0.02,27.21" style="fill:none;stroke:#999;stroke-width:3" />
<path d="M1693.35,83.09c1.64,0.21,3.27,0.19,4.91-0.06c4-0.34,10.1-0.97,14.12-1.35c1.66-0.22,3.32-0.32,4.99-0.28" style="fill:none;stroke:black;stroke-width:3" />
<circle cx="1693.35" cy="83.09" r="5" stroke-width="0" fill="#FF2A00" opacity="0.7" />
<path d="M1764.5,22.77c3.74,0.76,7.42,0.28,11.26-0.06c14.32-1.26,35.67-2.99,49.23-3.55c3.52-0.12,7.03,0.08,10.51,0.61" style="fill:none;stroke:#999;stroke-width:3" />
<path d="M1784.25,11.75c0.94,0.94,1.3,2.17,1.4,2.96c1.1,8.66,1.35,12.04,1.6,16.54" style="fill:none;stroke:#999;stroke-width:3" />
<path d="M1813.75,9.75c0.5,1.38,0.55,2.44,0.25,3.74c-1.25,5.51-1.75,8.38-3.25,14.76" style="fill:none;stroke:#999;stroke-width:3" />
<path d="M1760.33,39.14c1.79,0.86,3.82,0.75,4.67,0.61c5.5-0.87,9.5-1.87,13.07-2.88c3.03-0.85,5.58,1.1,3.93,3.82c-1.8,2.98-5.65,9.14-8.25,12.8" style="fill:none;stroke:#999;stroke-width:3" />
<path d="M1773.12,54.66C1787.25,63.75,1783.0,87.5,1773.08,78.98" style="fill:none;stroke:#999;stroke-width:3" />
<path d="M1763.37,40.41c0.86,0.86,1.09,2.09,1.09,3.14c0,2.18-0.05,30.38-0.08,46.07c-0.01,4.62-0.01,8.16-0.01,9.62" style="fill:none;stroke:#999;stroke-width:3" />
<path d="M1807.26,31.5c0.99,0.99,1.17,2.25,1.17,3.66c0,2.21,0-0.37,0,5.64" style="fill:none;stroke:#999;stroke-width:3" />
<path d="M1791.06,43.34c2.18,0.33,4.36,0.29,6.54-0.13c6.49-0.81,18.06-2.31,25.15-2.84c2.02-0.22,4.04-0.2,6.06,0.06" style="fill:none;stroke:#999;stroke-width:3" />
<path d="M1796.88,47.78c3.14,2.44,4.07,4.43,4.36,6.04" style="fill:none;stroke:#999;stroke-width:3" />
<path d="M1819.81,44.62c0,0.88-0.19,1.63-0.47,2.16c-1.3,2.49-3.16,5.77-4.22,7.46" style="fill:none;stroke:#999;stroke-width:3" />
<path d="M1786.07,58.93c3.11,0.43,6.17,0.25,9.32-0.05c10.12-0.97,20.81-2.29,31.48-2.99c3.03-0.35,6.06-0.36,9.08-0.01" style="fill:none;stroke:#999;stroke-width:3" />
<path d="M1790.35,62.64c0.77,1.36,0.8,2.54,0.54,4.2C1789.12,78.12,1786.76,87.24,1779.25,95" style="fill:none;stroke:#999;stroke-width:3" />
<path d="M1801.33,65.59c0.06,0.91-0.03,1.8-0.28,2.67c-1.3,4.23-3.05,7.86-6.3,12.46" style="fill:none;stroke:#999;stroke-width:3" />
<path d="M1802.8,72.69c1.6,0.28,3.21,0.26,4.81-0.07c4.34-0.48,11.26-1.45,15.77-2.01c1.71-0.31,3.43-0.19,5.15-0.14" style="fill:none;stroke:#999;stroke-width:3" />
<path d="M1812.94,62.39c0.77,0.77,1.24,1.98,1.24,3.01c0,0.54,0.07,23.91-0.02,27.21" style="fill:none;stroke:#999;stroke-width:3" />
<path d="M1802.35,83.09c1.64,0.21,3.27,0.19,4.91-0.06c4-0.34,10.1-0.97,14.12-1.35c1.66-0.22,3.32-0.32,4.99-0.28" style="fill:none;stroke:#999;stroke-width:3" />
<path d="M1790.97,95.84c3.29,0.08,6.55-0.13,9.8-0.56c8.73-1.15,18.6-2.4,27.6-3.15c3.38-0.28,6.65-0.17,9.96,0.73" style="fill:none;stroke:black;stroke-width:3" />
<circle cx="1790.97" cy="95.84" r="5" stroke-width="0" fill="#FF2A00" opacity="0.7" />
</svg>