<svg width="1526px" height="109px" viewBox="0 0 1526px 109px" xmlns="http://www.w3.org/2000/svg" xmlns:xlink="http://www.w3.org/1999/xlink" xml:space="preserve" version="1.1"  baseProfile="full">
<line x1="1" y1="1" x2="1525" y2="1" style="stroke:#ddd;stroke-width:2" />
<line x1="1" y1="1" x2="1" y2="108" style="stroke:#ddd;stroke-width:2" />
<line x1="1" y1="108" x2="1525" y2="108" style="stroke:#ddd;stroke-width:2" />
<line x1="1525" y1="1" x2="1525" y2="108" style="stroke:#ddd;stroke-width:2" />
<line x1="109" y1="1" x2="109" y2="108" style="stroke:#ddd;stroke-width:2" />
<line x1="218" y1="1" x2="218" y2="108" style="stroke:#ddd;stroke-width:2" />
<line x1="327" y1="1" x2="327" y2="108" style="stroke:#ddd;stroke-width:2" />
<line x1="436" y1="1" x2="436" y2="108" style="stroke:#ddd;stroke-width:2" />
<line x1="545" y1="1" x2="545" y2="108" style="stroke:#ddd;stroke-width:2" />
<line x1="654" y1="1" x2="654" y2="108" style="stroke:#ddd;stroke-width:2" />
<line x1="763" y1="1" x2="763" y2="108" style="stroke:#ddd;stroke-width:2" />
<line x1="872" y1="1" x2="872" y2="108" style="stroke:#ddd;stroke-width:2" />
<line x1="981" y1="1" x2="981" y2="108" style="stroke:#ddd;stroke-width:2" />
<line x1="1090" y1="1" x2="1090" y2="108" style="stroke:#ddd;stroke-width:2" />
<line x1="1199" y1="1" x2="1199" y2="108" style="stroke:#ddd;stroke-width:2" />
<line x1="1308" y1="1" x2="1308" y2="108" style="stroke:#ddd;stroke-width:2" />
<line x1="1417" y1="1" x2="1417" y2="108" style="stroke:#ddd;stroke-width:2" />
<line x1="1" y1="54" x2="1525" y2="54" style="stroke:#ddd;stroke-width:2;stroke-dasharray:3 3" />
<line x1="55" y1="1" x2="55" y2="108" style="stroke:#ddd;stroke-width:2;stroke-dasharray:3 3" />
<line x1="164" y1="1" x2="164" y2="108" style="stroke:#ddd;stroke-width:2;stroke-dasharray:3 3" />
<line x1="273" y1="1" x2="273" y2="108" style="stroke:#ddd;stroke-width:2;stroke-dasharray:3 3" />
<line x1="382" y1="1" x2="382" y2="108" style="stroke:#ddd;stroke-width:2;stroke-dasharray:3 3" />
<line x1="491" y1="1" x2="491" y2="108" style="stroke:#ddd;stroke-width:2;stroke-dasharray:3 3" />
<line x1="600" y1="1" x2="600" y2="108" style="stroke:#ddd;stroke-width:2;stroke-dasharray:3 3" />
<line x1="709" y1="1" x2="709" y2="108" style="stroke:#ddd;stroke-width:2;stroke-dasharray:3 3" />
<line x1="818" y1="1" x2="818" y2="108" style="stroke:#ddd;stroke-width:2;stroke-dasharray:3 3" />
<line x1="927" y1="1" x2="927" y2="108" style="stroke:#ddd;stroke-width:2;stroke-dasharray:3 3" />
<line x1="1036" y1="1" x2="1036" y2="108" style="stroke:#ddd;stroke-width:2;stroke-dasharray:3 3" />
<line x1="1145" y1="1" x2="1145" y2="108" style="stroke:#ddd;stroke-width:2;stroke-dasharray:3 3" />
<line x1="1254" y1="1" x2="1254" y2="108" style="stroke:#ddd;stroke-width:2;stroke-dasharray:3 3" />
<line x1="1363" y1="1" x2="1363" y2="108" style="stroke:#ddd;stroke-width:2;stroke-dasharray:3 3" />
<line x1="1472" y1="1" x2="1472" y2="108" style="stroke:#ddd;stroke-width:2;stroke-dasharray:3 3" />
<path d="M31.83,13.92c0.05,1.17-0.17,2.26-0.68,3.28C27.0,24.75,20.5,33.5,11.25,41.22" style="fill:none;stroke:black;stroke-width:3" />
<circle cx="31.83" cy="13.92" r="5" stroke-width="0" fill="#FF2A00" opacity="0.7" />
<path d="M140.82999999999998,13.92c0.05,1.17-0.17,2.26-0.68,3.28C136.0,24.75,129.5,33.5,120.25,41.22" style="fill:none;stroke:#999;stroke-width:3" />
<path d="M142.62,18.62c5.75,3.25,9.21,7.03,12.38,11.17" style="fill:none;stroke:black;stroke-width:3" />
<circle cx="142.62" cy="18.62" r="5" stroke-width="0" fill="#FF2A00" opacity="0.7" />
<path d="M249.82999999999998,13.92c0.05,1.17-0.17,2.26-0.68,3.28C245.0,24.75,238.5,33.5,229.25,41.22" style="fill:none;stroke:#999;stroke-width:3" />
<path d="M251.62,18.62c5.75,3.25,9.21,7.03,12.38,11.17" style="fill:none;stroke:#999;stroke-width:3" />
<path d="M249.54,31.63c0.92,0.91,1.28,1.88,1.28,2.82c0,2.43-0.07,3.51-0.07,5.8" style="fill:none;stroke:black;stroke-width:3" />
<circle cx="249.54" cy="31.63" r="5" stroke-width="0" fill="#FF2A00" opacity="0.7" />
<path d="M358.83,13.92c0.05,1.17-0.17,2.26-0.68,3.28C354.0,24.75,347.5,33.5,338.25,41.22" style="fill:none;stroke:#999;stroke-width:3" />
<path d="M360.62,18.62c5.75,3.25,9.21,7.03,12.38,11.17" style="fill:none;stroke:#999;stroke-width:3" />
<path d="M358.53999999999996,31.63c0.92,0.91,1.28,1.88,1.28,2.82c0,2.43-0.07,3.51-0.07,5.8" style="fill:none;stroke:#999;stroke-width:3" />
<path d="M347.76,44.14c5.02-1.22,13.87-3.15,17.88-3.96c4.07-0.82,4.83,1.05,4.35,4.69c-1.03,7.93-2.69,22.07-2.69,22.61" style="fill:none;stroke:black;stroke-width:3" />
<circle cx="347.76" cy="44.14" r="5" stroke-width="0" fill="#FF2A00" opacity="0.7" />
<path d="M467.83,13.92c0.05,1.17-0.17,2.26-0.68,3.28C463.0,24.75,456.5,33.5,447.25,41.22" style="fill:none;stroke:#999;stroke-width:3" />
<path d="M469.62,18.62c5.75,3.25,9.21,7.03,12.38,11.17" style="fill:none;stroke:#999;stroke-width:3" />
<path d="M467.53999999999996,31.63c0.92,0.91,1.28,1.88,1.28,2.82c0,2.43-0.07,3.51-0.07,5.8" style="fill:none;stroke:#999;stroke-width:3" />
<path d="M456.76,44.14c5.02-1.22,13.87-3.15,17.88-3.96c4.07-0.82,4.83,1.05,4.35,4.69c-1.03,7.93-2.69,22.07-2.69,22.61" style="fill:none;stroke:#999;stroke-width:3" />
<path d="M457.27,55.06c5.23-0.81,14.98-2.31,19.82-2.78" style="fill:none;stroke:black;stroke-width:3" />
<circle cx="457.27" cy="55.06" r="5" stroke-width="0" fill="#FF2A00" opacity="0.7" />
<path d="M576.8299999999999,13.92c0.05,1.17-0.17,2.26-0.68,3.28C572.0,24.75,565.5,33.5,556.25,41.22" style="fill:none;stroke:#999;stroke-width:3" />
<path d="M578.62,18.62c5.75,3.25,9.21,7.03,12.38,11.17" style="fill:none;stroke:#999;stroke-width:3" />
<path d="M576.54,31.63c0.92,0.91,1.28,1.88,1.28,2.82c0,2.43-0.07,3.51-0.07,5.8" style="fill:none;stroke:#999;stroke-width:3" />
<path d="M565.76,44.14c5.02-1.22,13.87-3.15,17.88-3.96c4.07-0.82,4.83,1.05,4.35,4.69c-1.03,7.93-2.69,22.07-2.69,22.61" style="fill:none;stroke:#999;stroke-width:3" />
<path d="M566.27,55.06c5.23-0.81,14.98-2.31,19.82-2.78" style="fill:none;stroke:#999;stroke-width:3" />
<path d="M566.43,67.06c4.07-0.44,11.57-1.38,17.76-2.12" style="fill:none;stroke:black;stroke-width:3" />
<circle cx="566.43" cy="67.06" r="5" stroke-width="0" fill="#FF2A00" opacity="0.7" />
<path d="M685.8299999999999,13.92c0.05,1.17-0.17,2.26-0.68,3.28C681.0,24.75,674.5,33.5,665.25,41.22" style="fill:none;stroke:#999;stroke-width:3" />
<path d="M687.62,18.62c5.75,3.25,9.21,7.03,12.38,11.17" style="fill:none;stroke:#999;stroke-width:3" />
<path d="M685.54,31.63c0.92,0.91,1.28,1.88,1.28,2.82c0,2.43-0.07,3.51-0.07,5.8" style="fill:none;stroke:#999;stroke-width:3" />
<path d="M674.76,44.14c5.02-1.22,13.87-3.15,17.88-3.96c4.07-0.82,4.83,1.05,4.35,4.69c-1.03,7.93-2.69,22.07-2.69,22.61" style="fill:none;stroke:#999;stroke-width:3" />
<path d="M675.27,55.06c5.23-0.81,14.98-2.31,19.82-2.78" style="fill:none;stroke:#999;stroke-width:3" />
<path d="M675.43,67.06c4.07-0.44,11.57-1.38,17.76-2.12" style="fill:none;stroke:#999;stroke-width:3" />
<path d="M673.2,42.83c0.99,0.99,1.01,2.32,1.01,3.6c0,3.33-0.08,37.58-0.08,41.91c0,3.43,0.65,3.36,3.26,1.82c5.74-3.4,14.39-8.71,17.74-10.78" style="fill:none;stroke:black;stroke-width:3" />
<circle cx="673.2" cy="42.83" r="5" stroke-width="0" fill="#FF2A00" opacity="0.7" />
<path d="M794.8299999999999,13.92c0.05,1.17-0.17,2.26-0.68,3.28C790.0,24.75,783.5,33.5,774.25,41.22" style="fill:none;stroke:#999;stroke-width:3" />
<path d="M796.62,18.62c5.75,3.25,9.21,7.03,12.38,11.17" style="fill:none;stroke:#999;stroke-width:3" />
<path d="M794.54,31.63c0.92,0.91,1.28,1.88,1.28,2.82c0,2.43-0.07,3.51-0.07,5.8" style="fill:none;stroke:#999;stroke-width:3" />
<path d="M783.76,44.14c5.02-1.22,13.87-3.15,17.88-3.96c4.07-0.82,4.83,1.05,4.35,4.69c-1.03,7.93-2.69,22.07-2.69,22.61" style="fill:none;stroke:#999;stroke-width:3" />
<path d="M784.27,55.06c5.23-0.81,14.98-2.31,19.82-2.78" style="fill:none;stroke:#999;stroke-width:3" />
<path d="M784.43,67.06c4.07-0.44,11.57-1.38,17.76-2.12" style="fill:none;stroke:#999;stroke-width:3" />
<path d="M782.2,42.83c0.99,0.99,1.01,2.32,1.01,3.6c0,3.33-0.08,37.58-0.08,41.91c0,3.43,0.65,3.36,3.26,1.82c5.74-3.4,14.39-8.71,17.74-10.78" style="fill:none;stroke:#999;stroke-width:3" />
<path d="M801.07,73.43c2.51,2.32,5.95,7.74,7.38,12.63" style="fill:none;stroke:black;stroke-width:3" />
<circle cx="801.07" cy="73.43" r="5" stroke-width="0" fill="#FF2A00" opacity="0.7" />
<path d="M903.8299999999999,13.92c0.05,1.17-0.17,2.26-0.68,3.28C899.0,24.75,892.5,33.5,883.25,41.22" style="fill:none;stroke:#999;stroke-width:3" />
<path d="M905.62,18.62c5.75,3.25,9.21,7.03,12.38,11.17" style="fill:none;stroke:#999;stroke-width:3" />
<path d="M903.54,31.63c0.92,0.91,1.28,1.88,1.28,2.82c0,2.43-0.07,3.51-0.07,5.8" style="fill:none;stroke:#999;stroke-width:3" />
<path d="M892.76,44.14c5.02-1.22,13.87-3.15,17.88-3.96c4.07-0.82,4.83,1.05,4.35,4.69c-1.03,7.93-2.69,22.07-2.69,22.61" style="fill:none;stroke:#999;stroke-width:3" />
<path d="M893.27,55.06c5.23-0.81,14.98-2.31,19.82-2.78" style="fill:none;stroke:#999;stroke-width:3" />
<path d="M893.43,67.06c4.07-0.44,11.57-1.38,17.76-2.12" style="fill:none;stroke:#999;stroke-width:3" />
<path d="M891.2,42.83c0.99,0.99,1.01,2.32,1.01,3.6c0,3.33-0.08,37.58-0.08,41.91c0,3.43,0.65,3.36,3.26,1.82c5.74-3.4,14.39-8.71,17.74-10.78" style="fill:none;stroke:#999;stroke-width:3" />
<path d="M910.07,73.43c2.51,2.32,5.95,7.74,7.38,12.63" style="fill:none;stroke:#999;stroke-width:3" />
<path d="M924.75,39.79c0.66,0.66,1,1.85,1.11,2.55c0.64,4.13,1.3,9.33,2.12,16.3c0.19,1.61,0.39,3.32,0.6,5.13" style="fill:none;stroke:black;stroke-width:3" />
<circle cx="924.75" cy="39.79" r="5" stroke-width="0" fill="#FF2A00" opacity="0.7" />
<path d="M1012.8299999999999,13.92c0.05,1.17-0.17,2.26-0.68,3.28C1008.0,24.75,1001.5,33.5,992.25,41.22" style="fill:none;stroke:#999;stroke-width:3" />
<path d="M1014.62,18.62c5.75,3.25,9.21,7.03,12.38,11.17" style="fill:none;stroke:#999;stroke-width:3" />
<path d="M1012.54,31.63c0.92,0.91,1.28,1.88,1.28,2.82c0,2.43-0.07,3.51-0.07,5.8" style="fill:none;stroke:#999;stroke-width:3" />
<path d="M1001.76,44.14c5.02-1.22,13.87-3.15,17.88-3.96c4.07-0.82,4.83,1.05,4.35,4.69c-1.03,7.93-2.69,22.07-2.69,22.61" style="fill:none;stroke:#999;stroke-width:3" />
<path d="M1002.27,55.06c5.23-0.81,14.98-2.31,19.82-2.78" style="fill:none;stroke:#999;stroke-width:3" />
<path d="M1002.43,67.06c4.07-0.44,11.57-1.38,17.76-2.12" style="fill:none;stroke:#999;stroke-width:3" />
<path d="M1000.2,42.83c0.99,0.99,1.01,2.32,1.01,3.6c0,3.33-0.08,37.58-0.08,41.91c0,3.43,0.65,3.36,3.26,1.82c5.74-3.4,14.39-8.71,17.74-10.78" style="fill:none;stroke:#999;stroke-width:3" />
<path d="M1019.07,73.43c2.51,2.32,5.95,7.74,7.38,12.63" style="fill:none;stroke:#999;stroke-width:3" />
<path d="M1033.75,39.79c0.66,0.66,1,1.85,1.11,2.55c0.64,4.13,1.3,9.33,2.12,16.3c0.19,1.61,0.39,3.32,0.6,5.13" style="fill:none;stroke:#999;stroke-width:3" />
<path d="M1035.79,41.59c8.21-0.94,24.79-3.3,32.33-3.97c3.78-0.33,4.41,1.62,3.62,4.88c-1.62,6.62-1.87,8.01-3.62,16.12" style="fill:none;stroke:black;stroke-width:3" />
<circle cx="1035.79" cy="41.59" r="5" stroke-width="0" fill="#FF2A00" opacity="0.7" />
<path d="M1121.83,13.92c0.05,1.17-0.17,2.26-0.68,3.28C1117.0,24.75,1110.5,33.5,1101.25,41.22" style="fill:none;stroke:#999;stroke-width:3" />
<path d="M1123.62,18.62c5.75,3.25,9.21,7.03,12.38,11.17" style="fill:none;stroke:#999;stroke-width:3" />
<path d="M1121.54,31.63c0.92,0.91,1.28,1.88,1.28,2.82c0,2.43-0.07,3.51-0.07,5.8" style="fill:none;stroke:#999;stroke-width:3" />
<path d="M1110.76,44.14c5.02-1.22,13.87-3.15,17.88-3.96c4.07-0.82,4.83,1.05,4.35,4.69c-1.03,7.93-2.69,22.07-2.69,22.61" style="fill:none;stroke:#999;stroke-width:3" />
<path d="M1111.27,55.06c5.23-0.81,14.98-2.31,19.82-2.78" style="fill:none;stroke:#999;stroke-width:3" />
<path d="M1111.4299999999998,67.06c4.07-0.44,11.57-1.38,17.76-2.12" style="fill:none;stroke:#999;stroke-width:3" />
<path d="M1109.2,42.83c0.99,0.99,1.01,2.32,1.01,3.6c0,3.33-0.08,37.58-0.08,41.91c0,3.43,0.65,3.36,3.26,1.82c5.74-3.4,14.39-8.71,17.74-10.78" style="fill:none;stroke:#999;stroke-width:3" />
<path d="M1128.0700000000002,73.43c2.51,2.32,5.95,7.74,7.38,12.63" style="fill:none;stroke:#999;stroke-width:3" />
<path d="M1142.75,39.79c0.66,0.66,1,1.85,1.11,2.55c0.64,4.13,1.3,9.33,2.12,16.3c0.19,1.61,0.39,3.32,0.6,5.13" style="fill:none;stroke:#999;stroke-width:3" />
<path d="M1144.79,41.59c8.21-0.94,24.79-3.3,32.33-3.97c3.78-0.33,4.41,1.62,3.62,4.88c-1.62,6.62-1.87,8.01-3.62,16.12" style="fill:none;stroke:#999;stroke-width:3" />
<path d="M1147.4,61.73c6.64-0.69,16.81-1.39,26.22-2.07c2.24-0.16,4.43-0.32,6.53-0.48" style="fill:none;stroke:black;stroke-width:3" />
<circle cx="1147.4" cy="61.73" r="5" stroke-width="0" fill="#FF2A00" opacity="0.7" />
<path d="M1230.83,13.92c0.05,1.17-0.17,2.26-0.68,3.28C1226.0,24.75,1219.5,33.5,1210.25,41.22" style="fill:none;stroke:#999;stroke-width:3" />
<path d="M1232.62,18.62c5.75,3.25,9.21,7.03,12.38,11.17" style="fill:none;stroke:#999;stroke-width:3" />
<path d="M1230.54,31.63c0.92,0.91,1.28,1.88,1.28,2.82c0,2.43-0.07,3.51-0.07,5.8" style="fill:none;stroke:#999;stroke-width:3" />
<path d="M1219.76,44.14c5.02-1.22,13.87-3.15,17.88-3.96c4.07-0.82,4.83,1.05,4.35,4.69c-1.03,7.93-2.69,22.07-2.69,22.61" style="fill:none;stroke:#999;stroke-width:3" />
<path d="M1220.27,55.06c5.23-0.81,14.98-2.31,19.82-2.78" style="fill:none;stroke:#999;stroke-width:3" />
<path d="M1220.4299999999998,67.06c4.07-0.44,11.57-1.38,17.76-2.12" style="fill:none;stroke:#999;stroke-width:3" />
<path d="M1218.2,42.83c0.99,0.99,1.01,2.32,1.01,3.6c0,3.33-0.08,37.58-0.08,41.91c0,3.43,0.65,3.36,3.26,1.82c5.74-3.4,14.39-8.71,17.74-10.78" style="fill:none;stroke:#999;stroke-width:3" />
<path d="M1237.0700000000002,73.43c2.51,2.32,5.95,7.74,7.38,12.63" style="fill:none;stroke:#999;stroke-width:3" />
<path d="M1251.75,39.79c0.66,0.66,1,1.85,1.11,2.55c0.64,4.13,1.3,9.33,2.12,16.3c0.19,1.61,0.39,3.32,0.6,5.13" style="fill:none;stroke:#999;stroke-width:3" />
<path d="M1253.79,41.59c8.21-0.94,24.79-3.3,32.33-3.97c3.78-0.33,4.41,1.62,3.62,4.88c-1.62,6.62-1.87,8.01-3.62,16.12" style="fill:none;stroke:#999;stroke-width:3" />
<path d="M1256.4,61.73c6.64-0.69,16.81-1.39,26.22-2.07c2.24-0.16,4.43-0.32,6.53-0.48" style="fill:none;stroke:#999;stroke-width:3" />
<path d="M1268.87,14.5c0.88,0.88,1.22,2.25,1.22,3.26c0,0.88,0.03,61.49,0.03,67.24" style="fill:none;stroke:black;stroke-width:3" />
<circle cx="1268.87" cy="14.5" r="5" stroke-width="0" fill="#FF2A00" opacity="0.7" />
<path d="M1339.83,13.92c0.05,1.17-0.17,2.26-0.68,3.28C1335.0,24.75,1328.5,33.5,1319.25,41.22" style="fill:none;stroke:#999;stroke-width:3" />
<path d="M1341.62,18.62c5.75,3.25,9.21,7.03,12.38,11.17" style="fill:none;stroke:#999;stroke-width:3" />
<path d="M1339.54,31.63c0.92,0.91,1.28,1.88,1.28,2.82c0,2.43-0.07,3.51-0.07,5.8" style="fill:none;stroke:#999;stroke-width:3" />
<path d="M1328.76,44.14c5.02-1.22,13.87-3.15,17.88-3.96c4.07-0.82,4.83,1.05,4.35,4.69c-1.03,7.93-2.69,22.07-2.69,22.61" style="fill:none;stroke:#999;stroke-width:3" />
<path d="M1329.27,55.06c5.23-0.81,14.98-2.31,19.82-2.78" style="fill:none;stroke:#999;stroke-width:3" />
<path d="M1329.4299999999998,67.06c4.07-0.44,11.57-1.38,17.76-2.12" style="fill:none;stroke:#999;stroke-width:3" />
<path d="M1327.2,42.83c0.99,0.99,1.01,2.32,1.01,3.6c0,3.33-0.08,37.58-0.08,41.91c0,3.43,0.65,3.36,3.26,1.82c5.74-3.4,14.39-8.71,17.74-10.78" style="fill:none;stroke:#999;stroke-width:3" />
<path d="M1346.0700000000002,73.43c2.51,2.32,5.95,7.74,7.38,12.63" style="fill:none;stroke:#999;stroke-width:3" />
<path d="M1360.75,39.79c0.66,0.66,1,1.85,1.11,2.55c0.64,4.13,1.3,9.33,2.12,16.3c0.19,1.61,0.39,3.32,0.6,5.13" style="fill:none;stroke:#999;stroke-width:3" />
<path d="M1362.79,41.59c8.21-0.94,24.79-3.3,32.33-3.97c3.78-0.33,4.41,1.62,3.62,4.88c-1.62,6.62-1.87,8.01-3.62,16.12" style="fill:none;stroke:#999;stroke-width:3" />
<path d="M1365.4,61.73c6.64-0.69,16.81-1.39,26.22-2.07c2.24-0.16,4.43-0.32,6.53-0.48" style="fill:none;stroke:#999;stroke-width:3" />
<path d="M1377.87,14.5c0.88,0.88,1.22,2.25,1.22,3.26c0,0.88,0.03,61.49,0.03,67.24" style="fill:none;stroke:#999;stroke-width:3" />
<path d="M1360.75,89.92c0.82,0.92,2.81,1.08,3.62,0.83c11.13-3.5,23-7.63,32.88-11.07" style="fill:none;stroke:black;stroke-width:3" />
<circle cx="1360.75" cy="89.92" r="5" stroke-width="0" fill="#FF2A00" opacity="0.7" />
<path d="M1448.83,13.92c0.05,1.17-0.17,2.26-0.68,3.28C1444.0,24.75,1437.5,33.5,1428.25,41.22" style="fill:none;stroke:#999;stroke-width:3" />
<path d="M1450.62,18.62c5.75,3.25,9.21,7.03,12.38,11.17" style="fill:none;stroke:#999;stroke-width:3" />
<path d="M1448.54,31.63c0.92,0.91,1.28,1.88,1.28,2.82c0,2.43-0.07,3.51-0.07,5.8" style="fill:none;stroke:#999;stroke-width:3" />
<path d="M1437.76,44.14c5.02-1.22,13.87-3.15,17.88-3.96c4.07-0.82,4.83,1.05,4.35,4.69c-1.03,7.93-2.69,22.07-2.69,22.61" style="fill:none;stroke:#999;stroke-width:3" />
<path d="M1438.27,55.06c5.23-0.81,14.98-2.31,19.82-2.78" style="fill:none;stroke:#999;stroke-width:3" />
<path d="M1438.4299999999998,67.06c4.07-0.44,11.57-1.38,17.76-2.12" style="fill:none;stroke:#999;stroke-width:3" />
<path d="M1436.2,42.83c0.99,0.99,1.01,2.32,1.01,3.6c0,3.33-0.08,37.58-0.08,41.91c0,3.43,0.65,3.36,3.26,1.82c5.74-3.4,14.39-8.71,17.74-10.78" style="fill:none;stroke:#999;stroke-width:3" />
<path d="M1455.0700000000002,73.43c2.51,2.32,5.95,7.74,7.38,12.63" style="fill:none;stroke:#999;stroke-width:3" />
<path d="M1469.75,39.79c0.66,0.66,1,1.85,1.11,2.55c0.64,4.13,1.3,9.33,2.12,16.3c0.19,1.61,0.39,3.32,0.6,5.13" style="fill:none;stroke:#999;stroke-width:3" />
<path d="M1471.79,41.59c8.21-0.94,24.79-3.3,32.33-3.97c3.78-0.33,4.41,1.62,3.62,4.88c-1.62,6.62-1.87,8.01-3.62,16.12" style="fill:none;stroke:#999;stroke-width:3" />
<path d="M1474.4,61.73c6.64-0.69,16.81-1.39,26.22-2.07c2.24-0.16,4.43-0.32,6.53-0.48" style="fill:none;stroke:#999;stroke-width:3" />
<path d="M1486.87,14.5c0.88,0.88,1.22,2.25,1.22,3.26c0,0.88,0.03,61.49,0.03,67.24" style="fill:none;stroke:#999;stroke-width:3" />
<path d="M1469.75,89.92c0.82,0.92,2.81,1.08,3.62,0.83c11.13-3.5,23-7.63,32.88-11.07" style="fill:none;stroke:#999;stroke-width:3" />
<path d="M1501.99,73.25c3.76,4.38,9.13,13.6,9.96,18.74" style="fill:none;stroke:black;stroke-width:3" />
<circle cx="1501.99" cy="73.25" r="5" stroke-width="0" fill="#FF2A00" opacity="0.7" />
</svg>