<svg width="2507px" height="109px" viewBox="0 0 2507px 109px" xmlns="http://www.w3.org/2000/svg" xmlns:xlink="http://www.w3.org/1999/xlink" xml:space="preserve" version="1.1"  baseProfile="full">
<line x1="1" y1="1" x2="2506" y2="1" style="stroke:#ddd;stroke-width:2" />
<line x1="1" y1="1" x2="1" y2="108" style="stroke:#ddd;stroke-width:2" />
<line x1="1" y1="108" x2="2506" y2="108" style="stroke:#ddd;stroke-width:2" />
<line x1="2506" y1="1" x2="2506" y2="108" style="stroke:#ddd;stroke-width:2" />
<line x1="109" y1="1" x2="109" y2="108" style="stroke:#ddd;stroke-width:2" />
<line x1="218" y1="1" x2="218" y2="108" style="stroke:#ddd;stroke-width:2" />
<line x1="327" y1="1" x2="327" y2="108" style="stroke:#ddd;stroke-width:2" />
<line x1="436" y1="1" x2="436" y2="108" style="stroke:#ddd;stroke-width:2" />
<line x1="545" y1="1" x2="545" y2="108" style="stroke:#ddd;stroke-width:2" />
<line x1="654" y1="1" x2="654" y2="108" style="stroke:#ddd;stroke-width:2" />
<line x1="763" y1="1" x2="763" y2="108" style="stroke:#ddd;stroke-width:2" />
<line x1="872" y1="1" x2="872" y2="108" style="stroke:#ddd;stroke-width:2" />
<line x1="981" y1="1" x2="981" y2="108" style="stroke:#ddd;stroke-width:2" />
<line x1="1090" y1="1" x2="1090" y2="108" style="stroke:#ddd;stroke-width:2" />
<line x1="1199" y1="1" x2="1199" y2="108" style="stroke:#ddd;stroke-width:2" />
<line x1="1308" y1="1" x2="1308" y2="108" style="stroke:#ddd;stroke-width:2" />
<line x1="1417" y1="1" x2="1417" y2="108" style="stroke:#ddd;stroke-width:2" />
<line x1="1526" y1="1" x2="1526" y2="108" style="stroke:#ddd;stroke-width:2" />
<line x1="1635" y1="1" x2="1635" y2="108" style="stroke:#ddd;stroke-width:2" />
<line x1="1744" y1="1" x2="1744" y2="108" style="stroke:#ddd;stroke-width:2" />
<line x1="1853" y1="1" x2="1853" y2="108" style="stroke:#ddd;stroke-width:2" />
<line x1="1962" y1="1" x2="1962" y2="108" style="stroke:#ddd;stroke-width:2" />
<line x1="2071" y1="1" x2="2071" y2="108" style="stroke:#ddd;stroke-width:2" />
<line x1="2180" y1="1" x2="2180" y2="108" style="stroke:#ddd;stroke-width:2" />
<line x1="2289" y1="1" x2="2289" y2="108" style="stroke:#ddd;stroke-width:2" />
<line x1="2398" y1="1" x2="2398" y2="108" style="stroke:#ddd;stroke-width:2" />
<line x1="1" y1="54" x2="2506" y2="54" style="stroke:#ddd;stroke-width:2;stroke-dasharray:3 3" />
<line x1="55" y1="1" x2="55" y2="108" style="stroke:#ddd;stroke-width:2;stroke-dasharray:3 3" />
<line x1="164" y1="1" x2="164" y2="108" style="stroke:#ddd;stroke-width:2;stroke-dasharray:3 3" />
<line x1="273" y1="1" x2="273" y2="108" style="stroke:#ddd;stroke-width:2;stroke-dasharray:3 3" />
<line x1="382" y1="1" x2="382" y2="108" style="stroke:#ddd;stroke-width:2;stroke-dasharray:3 3" />
<line x1="491" y1="1" x2="491" y2="108" style="stroke:#ddd;stroke-width:2;stroke-dasharray:3 3" />
<line x1="600" y1="1" x2="600" y2="108" style="stroke:#ddd;stroke-width:2;stroke-dasharray:3 3" />
<line x1="709" y1="1" x2="709" y2="108" style="stroke:#ddd;stroke-width:2;stroke-dasharray:3 3" />
<line x1="818" y1="1" x2="818" y2="108" style="stroke:#ddd;stroke-width:2;stroke-dasharray:3 3" />
<line x1="927" y1="1" x2="927" y2="108" style="stroke:#ddd;stroke-width:2;stroke-dasharray:3 3" />
<line x1="1036" y1="1" x2="1036" y2="108" style="stroke:#ddd;stroke-width:2;stroke-dasharray:3 3" />
<line x1="1145" y1="1" x2="1145" y2="108" style="stroke:#ddd;stroke-width:2;stroke-dasharray:3 3" />
<line x1="1254" y1="1" x2="1254" y2="108" style="stroke:#ddd;stroke-width:2;stroke-dasharray:3 3" />
<line x1="1363" y1="1" x2="1363" y2="108" style="stroke:#ddd;stroke-width:2;stroke-dasharray:3 3" />
<line x1="1472" y1="1" x2="1472" y2="108" style="stroke:#ddd;stroke-width:2;stroke-dasharray:3 3" />
<line x1="1581" y1="1" x2="1581" y2="108" style="stroke:#ddd;stroke-width:2;stroke-dasharray:3 3" />
<line x1="1690" y1="1" x2="1690" y2="108" style="stroke:#ddd;stroke-width:2;stroke-dasharray:3 3" />
<line x1="1799" y1="1" x2="1799" y2="108" style="stroke:#ddd;stroke-width:2;stroke-dasharray:3 3" />
<line x1="1908" y1="1" x2="1908" y2="108" style="stroke:#ddd;stroke-width:2;stroke-dasharray:3 3" />
<line x1="2017" y1="1" x2="2017" y2="108" style="stroke:#ddd;stroke-width:2;stroke-dasharray:3 3" />
<line x1="2126" y1="1" x2="2126" y2="108" style="stroke:#ddd;stroke-width:2;stroke-dasharray:3 3" />
<line x1="2235" y1="1" x2="2235" y2="108" style="stroke:#ddd;stroke-width:2;stroke-dasharray:3 3" />
<line x1="2344" y1="1" x2="2344" y2="108" style="stroke:#ddd;stroke-width:2;stroke-dasharray:3 3" />
<line x1="2453" y1="1" x2="2453" y2="108" style="stroke:#ddd;stroke-width:2;stroke-dasharray:3 3" />
<path d="M26.41,76.86c0.67,0.82,1.53,1.84,1.67,2.54c1.12,5.52,2.59,10.69,3.36,16.35" style="fill:none;stroke:black;stroke-width:3" />
<circle cx="26.41" cy="76.86" r="5" stroke-width="0" fill="#FF2A00" opacity="0.7" />
<path d="M135.41,76.86c0.67,0.82,1.53,1.84,1.67,2.54c1.12,5.52,2.59,10.69,3.36,16.35" style="fill:none;stroke:#999;stroke-width:3" />
<path d="M137.61,78.6c11.8-1.13,47.46-4.04,52.41-4.49c1.71-0.16,2.75,0.91,2.5,1.81c-1.01,3.74-2.54,11.99-3.57,16.6" style="fill:none;stroke:black;stroke-width:3" />
<circle cx="137.61" cy="78.6" r="5" stroke-width="0" fill="#FF2A00" opacity="0.7" />
<path d="M244.41,76.86c0.67,0.82,1.53,1.84,1.67,2.54c1.12,5.52,2.59,10.69,3.36,16.35" style="fill:none;stroke:#999;stroke-width:3" />
<path d="M246.61,78.6c11.8-1.13,47.46-4.04,52.41-4.49c1.71-0.16,2.75,0.91,2.5,1.81c-1.01,3.74-2.54,11.99-3.57,16.6" style="fill:none;stroke:#999;stroke-width:3" />
<path d="M263.44,77.78c0.28,0.53,0.56,0.96,0.68,1.62c0.94,5.12,0.96,10.1,1.2,15.59" style="fill:none;stroke:black;stroke-width:3" />
<circle cx="263.44" cy="77.78" r="5" stroke-width="0" fill="#FF2A00" opacity="0.7" />
<path d="M353.40999999999997,76.86c0.67,0.82,1.53,1.84,1.67,2.54c1.12,5.52,2.59,10.69,3.36,16.35" style="fill:none;stroke:#999;stroke-width:3" />
<path d="M355.61,78.6c11.8-1.13,47.46-4.04,52.41-4.49c1.71-0.16,2.75,0.91,2.5,1.81c-1.01,3.74-2.54,11.99-3.57,16.6" style="fill:none;stroke:#999;stroke-width:3" />
<path d="M372.44,77.78c0.28,0.53,0.56,0.96,0.68,1.62c0.94,5.12,0.96,10.1,1.2,15.59" style="fill:none;stroke:#999;stroke-width:3" />
<path d="M390.35,76.76c0.44,0.52,0.89,1.28,0.82,1.97c-0.42,4.38-0.84,9.76-1.59,14.97" style="fill:none;stroke:black;stroke-width:3" />
<circle cx="390.35" cy="76.76" r="5" stroke-width="0" fill="#FF2A00" opacity="0.7" />
<path d="M462.40999999999997,76.86c0.67,0.82,1.53,1.84,1.67,2.54c1.12,5.52,2.59,10.69,3.36,16.35" style="fill:none;stroke:#999;stroke-width:3" />
<path d="M464.61,78.6c11.8-1.13,47.46-4.04,52.41-4.49c1.71-0.16,2.75,0.91,2.5,1.81c-1.01,3.74-2.54,11.99-3.57,16.6" style="fill:none;stroke:#999;stroke-width:3" />
<path d="M481.44,77.78c0.28,0.53,0.56,0.96,0.68,1.62c0.94,5.12,0.96,10.1,1.2,15.59" style="fill:none;stroke:#999;stroke-width:3" />
<path d="M499.35,76.76c0.44,0.52,0.89,1.28,0.82,1.97c-0.42,4.38-0.84,9.76-1.59,14.97" style="fill:none;stroke:#999;stroke-width:3" />
<path d="M451.5,95.89c1.99,0.71,5.65,0.86,7.64,0.71c17.94-1.35,45.69-3.1,68.06-3.45c3.32-0.05,5.31,0.33,6.97,0.69" style="fill:none;stroke:black;stroke-width:3" />
<circle cx="451.5" cy="95.89" r="5" stroke-width="0" fill="#FF2A00" opacity="0.7" />
<path d="M571.41,76.86c0.67,0.82,1.53,1.84,1.67,2.54c1.12,5.52,2.59,10.69,3.36,16.35" style="fill:none;stroke:#999;stroke-width:3" />
<path d="M573.61,78.6c11.8-1.13,47.46-4.04,52.41-4.49c1.71-0.16,2.75,0.91,2.5,1.81c-1.01,3.74-2.54,11.99-3.57,16.6" style="fill:none;stroke:#999;stroke-width:3" />
<path d="M590.44,77.78c0.28,0.53,0.56,0.96,0.68,1.62c0.94,5.12,0.96,10.1,1.2,15.59" style="fill:none;stroke:#999;stroke-width:3" />
<path d="M608.35,76.76c0.44,0.52,0.89,1.28,0.82,1.97c-0.42,4.38-0.84,9.76-1.59,14.97" style="fill:none;stroke:#999;stroke-width:3" />
<path d="M560.5,95.89c1.99,0.71,5.65,0.86,7.64,0.71c17.94-1.35,45.69-3.1,68.06-3.45c3.32-0.05,5.31,0.33,6.97,0.69" style="fill:none;stroke:#999;stroke-width:3" />
<path d="M575.89,18.69c0.56,0.36,0.91,1.28,1.07,1.75c0.69,2,1.84,6.76,2.36,10.3" style="fill:none;stroke:black;stroke-width:3" />
<circle cx="575.89" cy="18.69" r="5" stroke-width="0" fill="#FF2A00" opacity="0.7" />
<path d="M680.41,76.86c0.67,0.82,1.53,1.84,1.67,2.54c1.12,5.52,2.59,10.69,3.36,16.35" style="fill:none;stroke:#999;stroke-width:3" />
<path d="M682.61,78.6c11.8-1.13,47.46-4.04,52.41-4.49c1.71-0.16,2.75,0.91,2.5,1.81c-1.01,3.74-2.54,11.99-3.57,16.6" style="fill:none;stroke:#999;stroke-width:3" />
<path d="M699.44,77.78c0.28,0.53,0.56,0.96,0.68,1.62c0.94,5.12,0.96,10.1,1.2,15.59" style="fill:none;stroke:#999;stroke-width:3" />
<path d="M717.35,76.76c0.44,0.52,0.89,1.28,0.82,1.97c-0.42,4.38-0.84,9.76-1.59,14.97" style="fill:none;stroke:#999;stroke-width:3" />
<path d="M669.5,95.89c1.99,0.71,5.65,0.86,7.64,0.71c17.94-1.35,45.69-3.1,68.06-3.45c3.32-0.05,5.31,0.33,6.97,0.69" style="fill:none;stroke:#999;stroke-width:3" />
<path d="M684.89,18.69c0.56,0.36,0.91,1.28,1.07,1.75c0.69,2,1.84,6.76,2.36,10.3" style="fill:none;stroke:#999;stroke-width:3" />
<path d="M686.38,20.09c8.6-0.7,32.34-3.02,38.56-3.29c2.43-0.1,2.71,1.15,2.29,2.66c-0.59,2.12-1.45,3.61-2.23,6.26" style="fill:none;stroke:black;stroke-width:3" />
<circle cx="686.38" cy="20.09" r="5" stroke-width="0" fill="#FF2A00" opacity="0.7" />
<path d="M789.41,76.86c0.67,0.82,1.53,1.84,1.67,2.54c1.12,5.52,2.59,10.69,3.36,16.35" style="fill:none;stroke:#999;stroke-width:3" />
<path d="M791.61,78.6c11.8-1.13,47.46-4.04,52.41-4.49c1.71-0.16,2.75,0.91,2.5,1.81c-1.01,3.74-2.54,11.99-3.57,16.6" style="fill:none;stroke:#999;stroke-width:3" />
<path d="M808.44,77.78c0.28,0.53,0.56,0.96,0.68,1.62c0.94,5.12,0.96,10.1,1.2,15.59" style="fill:none;stroke:#999;stroke-width:3" />
<path d="M826.35,76.76c0.44,0.52,0.89,1.28,0.82,1.97c-0.42,4.38-0.84,9.76-1.59,14.97" style="fill:none;stroke:#999;stroke-width:3" />
<path d="M778.5,95.89c1.99,0.71,5.65,0.86,7.64,0.71c17.94-1.35,45.69-3.1,68.06-3.45c3.32-0.05,5.31,0.33,6.97,0.69" style="fill:none;stroke:#999;stroke-width:3" />
<path d="M793.89,18.69c0.56,0.36,0.91,1.28,1.07,1.75c0.69,2,1.84,6.76,2.36,10.3" style="fill:none;stroke:#999;stroke-width:3" />
<path d="M795.38,20.09c8.6-0.7,32.34-3.02,38.56-3.29c2.43-0.1,2.71,1.15,2.29,2.66c-0.59,2.12-1.45,3.61-2.23,6.26" style="fill:none;stroke:#999;stroke-width:3" />
<path d="M797.25,28.56c6.92-0.7,27.94-2.44,38.63-2.59" style="fill:none;stroke:black;stroke-width:3" />
<circle cx="797.25" cy="28.56" r="5" stroke-width="0" fill="#FF2A00" opacity="0.7" />
<path d="M898.41,76.86c0.67,0.82,1.53,1.84,1.67,2.54c1.12,5.52,2.59,10.69,3.36,16.35" style="fill:none;stroke:#999;stroke-width:3" />
<path d="M900.61,78.6c11.8-1.13,47.46-4.04,52.41-4.49c1.71-0.16,2.75,0.91,2.5,1.81c-1.01,3.74-2.54,11.99-3.57,16.6" style="fill:none;stroke:#999;stroke-width:3" />
<path d="M917.44,77.78c0.28,0.53,0.56,0.96,0.68,1.62c0.94,5.12,0.96,10.1,1.2,15.59" style="fill:none;stroke:#999;stroke-width:3" />
<path d="M935.35,76.76c0.44,0.52,0.89,1.28,0.82,1.97c-0.42,4.38-0.84,9.76-1.59,14.97" style="fill:none;stroke:#999;stroke-width:3" />
<path d="M887.5,95.89c1.99,0.71,5.65,0.86,7.64,0.71c17.94-1.35,45.69-3.1,68.06-3.45c3.32-0.05,5.31,0.33,6.97,0.69" style="fill:none;stroke:#999;stroke-width:3" />
<path d="M902.89,18.69c0.56,0.36,0.91,1.28,1.07,1.75c0.69,2,1.84,6.76,2.36,10.3" style="fill:none;stroke:#999;stroke-width:3" />
<path d="M904.38,20.09c8.6-0.7,32.34-3.02,38.56-3.29c2.43-0.1,2.71,1.15,2.29,2.66c-0.59,2.12-1.45,3.61-2.23,6.26" style="fill:none;stroke:#999;stroke-width:3" />
<path d="M906.25,28.56c6.92-0.7,27.94-2.44,38.63-2.59" style="fill:none;stroke:#999;stroke-width:3" />
<path d="M923.41,11c0.97,0.55,1.54,2.47,1.74,3.58c0.19,1.1,0,13.77-0.19,20.64" style="fill:none;stroke:black;stroke-width:3" />
<circle cx="923.41" cy="11.0" r="5" stroke-width="0" fill="#FF2A00" opacity="0.7" />
<path d="M1007.41,76.86c0.67,0.82,1.53,1.84,1.67,2.54c1.12,5.52,2.59,10.69,3.36,16.35" style="fill:none;stroke:#999;stroke-width:3" />
<path d="M1009.61,78.6c11.8-1.13,47.46-4.04,52.41-4.49c1.71-0.16,2.75,0.91,2.5,1.81c-1.01,3.74-2.54,11.99-3.57,16.6" style="fill:none;stroke:#999;stroke-width:3" />
<path d="M1026.44,77.78c0.28,0.53,0.56,0.96,0.68,1.62c0.94,5.12,0.96,10.1,1.2,15.59" style="fill:none;stroke:#999;stroke-width:3" />
<path d="M1044.35,76.76c0.44,0.52,0.89,1.28,0.82,1.97c-0.42,4.38-0.84,9.76-1.59,14.97" style="fill:none;stroke:#999;stroke-width:3" />
<path d="M996.5,95.89c1.99,0.71,5.65,0.86,7.64,0.71c17.94-1.35,45.69-3.1,68.06-3.45c3.32-0.05,5.31,0.33,6.97,0.69" style="fill:none;stroke:#999;stroke-width:3" />
<path d="M1011.89,18.69c0.56,0.36,0.91,1.28,1.07,1.75c0.69,2,1.84,6.76,2.36,10.3" style="fill:none;stroke:#999;stroke-width:3" />
<path d="M1013.38,20.09c8.6-0.7,32.34-3.02,38.56-3.29c2.43-0.1,2.71,1.15,2.29,2.66c-0.59,2.12-1.45,3.61-2.23,6.26" style="fill:none;stroke:#999;stroke-width:3" />
<path d="M1015.25,28.56c6.92-0.7,27.94-2.44,38.63-2.59" style="fill:none;stroke:#999;stroke-width:3" />
<path d="M1032.4099999999999,11c0.97,0.55,1.54,2.47,1.74,3.58c0.19,1.1,0,13.77-0.19,20.64" style="fill:none;stroke:#999;stroke-width:3" />
<path d="M1012.06,37.71c1.07,0.38,1.71,0.84,2.77,0.75c1.07-0.09,31.7-4.39,38.31-5.13" style="fill:none;stroke:black;stroke-width:3" />
<circle cx="1012.06" cy="37.71" r="5" stroke-width="0" fill="#FF2A00" opacity="0.7" />
<path d="M1116.4099999999999,76.86c0.67,0.82,1.53,1.84,1.67,2.54c1.12,5.52,2.59,10.69,3.36,16.35" style="fill:none;stroke:#999;stroke-width:3" />
<path d="M1118.6100000000001,78.6c11.8-1.13,47.46-4.04,52.41-4.49c1.71-0.16,2.75,0.91,2.5,1.81c-1.01,3.74-2.54,11.99-3.57,16.6" style="fill:none;stroke:#999;stroke-width:3" />
<path d="M1135.44,77.78c0.28,0.53,0.56,0.96,0.68,1.62c0.94,5.12,0.96,10.1,1.2,15.59" style="fill:none;stroke:#999;stroke-width:3" />
<path d="M1153.35,76.76c0.44,0.52,0.89,1.28,0.82,1.97c-0.42,4.38-0.84,9.76-1.59,14.97" style="fill:none;stroke:#999;stroke-width:3" />
<path d="M1105.5,95.89c1.99,0.71,5.65,0.86,7.64,0.71c17.94-1.35,45.69-3.1,68.06-3.45c3.32-0.05,5.31,0.33,6.97,0.69" style="fill:none;stroke:#999;stroke-width:3" />
<path d="M1120.8899999999999,18.69c0.56,0.36,0.91,1.28,1.07,1.75c0.69,2,1.84,6.76,2.36,10.3" style="fill:none;stroke:#999;stroke-width:3" />
<path d="M1122.38,20.09c8.6-0.7,32.34-3.02,38.56-3.29c2.43-0.1,2.71,1.15,2.29,2.66c-0.59,2.12-1.45,3.61-2.23,6.26" style="fill:none;stroke:#999;stroke-width:3" />
<path d="M1124.25,28.56c6.92-0.7,27.94-2.44,38.63-2.59" style="fill:none;stroke:#999;stroke-width:3" />
<path d="M1141.4099999999999,11c0.97,0.55,1.54,2.47,1.74,3.58c0.19,1.1,0,13.77-0.19,20.64" style="fill:none;stroke:#999;stroke-width:3" />
<path d="M1121.06,37.71c1.07,0.38,1.71,0.84,2.77,0.75c1.07-0.09,31.7-4.39,38.31-5.13" style="fill:none;stroke:#999;stroke-width:3" />
<path d="M1157.21,29.78c3.83,1.8,9.89,7.4,10.85,10.2" style="fill:none;stroke:black;stroke-width:3" />
<circle cx="1157.21" cy="29.78" r="5" stroke-width="0" fill="#FF2A00" opacity="0.7" />
<path d="M1225.4099999999999,76.86c0.67,0.82,1.53,1.84,1.67,2.54c1.12,5.52,2.59,10.69,3.36,16.35" style="fill:none;stroke:#999;stroke-width:3" />
<path d="M1227.6100000000001,78.6c11.8-1.13,47.46-4.04,52.41-4.49c1.71-0.16,2.75,0.91,2.5,1.81c-1.01,3.74-2.54,11.99-3.57,16.6" style="fill:none;stroke:#999;stroke-width:3" />
<path d="M1244.44,77.78c0.28,0.53,0.56,0.96,0.68,1.62c0.94,5.12,0.96,10.1,1.2,15.59" style="fill:none;stroke:#999;stroke-width:3" />
<path d="M1262.35,76.76c0.44,0.52,0.89,1.28,0.82,1.97c-0.42,4.38-0.84,9.76-1.59,14.97" style="fill:none;stroke:#999;stroke-width:3" />
<path d="M1214.5,95.89c1.99,0.71,5.65,0.86,7.64,0.71c17.94-1.35,45.69-3.1,68.06-3.45c3.32-0.05,5.31,0.33,6.97,0.69" style="fill:none;stroke:#999;stroke-width:3" />
<path d="M1229.8899999999999,18.69c0.56,0.36,0.91,1.28,1.07,1.75c0.69,2,1.84,6.76,2.36,10.3" style="fill:none;stroke:#999;stroke-width:3" />
<path d="M1231.38,20.09c8.6-0.7,32.34-3.02,38.56-3.29c2.43-0.1,2.71,1.15,2.29,2.66c-0.59,2.12-1.45,3.61-2.23,6.26" style="fill:none;stroke:#999;stroke-width:3" />
<path d="M1233.25,28.56c6.92-0.7,27.94-2.44,38.63-2.59" style="fill:none;stroke:#999;stroke-width:3" />
<path d="M1250.4099999999999,11c0.97,0.55,1.54,2.47,1.74,3.58c0.19,1.1,0,13.77-0.19,20.64" style="fill:none;stroke:#999;stroke-width:3" />
<path d="M1230.06,37.71c1.07,0.38,1.71,0.84,2.77,0.75c1.07-0.09,31.7-4.39,38.31-5.13" style="fill:none;stroke:#999;stroke-width:3" />
<path d="M1266.21,29.78c3.83,1.8,9.89,7.4,10.85,10.2" style="fill:none;stroke:#999;stroke-width:3" />
<path d="M1216.73,48.88c0.37,0.25,0.63,0.87,0.7,1.2c0.5,2.38,1.78,6.66,2.49,11.17" style="fill:none;stroke:black;stroke-width:3" />
<circle cx="1216.73" cy="48.88" r="5" stroke-width="0" fill="#FF2A00" opacity="0.7" />
<path d="M1334.4099999999999,76.86c0.67,0.82,1.53,1.84,1.67,2.54c1.12,5.52,2.59,10.69,3.36,16.35" style="fill:none;stroke:#999;stroke-width:3" />
<path d="M1336.6100000000001,78.6c11.8-1.13,47.46-4.04,52.41-4.49c1.71-0.16,2.75,0.91,2.5,1.81c-1.01,3.74-2.54,11.99-3.57,16.6" style="fill:none;stroke:#999;stroke-width:3" />
<path d="M1353.44,77.78c0.28,0.53,0.56,0.96,0.68,1.62c0.94,5.12,0.96,10.1,1.2,15.59" style="fill:none;stroke:#999;stroke-width:3" />
<path d="M1371.35,76.76c0.44,0.52,0.89,1.28,0.82,1.97c-0.42,4.38-0.84,9.76-1.59,14.97" style="fill:none;stroke:#999;stroke-width:3" />
<path d="M1323.5,95.89c1.99,0.71,5.65,0.86,7.64,0.71c17.94-1.35,45.69-3.1,68.06-3.45c3.32-0.05,5.31,0.33,6.97,0.69" style="fill:none;stroke:#999;stroke-width:3" />
<path d="M1338.8899999999999,18.69c0.56,0.36,0.91,1.28,1.07,1.75c0.69,2,1.84,6.76,2.36,10.3" style="fill:none;stroke:#999;stroke-width:3" />
<path d="M1340.38,20.09c8.6-0.7,32.34-3.02,38.56-3.29c2.43-0.1,2.71,1.15,2.29,2.66c-0.59,2.12-1.45,3.61-2.23,6.26" style="fill:none;stroke:#999;stroke-width:3" />
<path d="M1342.25,28.56c6.92-0.7,27.94-2.44,38.63-2.59" style="fill:none;stroke:#999;stroke-width:3" />
<path d="M1359.4099999999999,11c0.97,0.55,1.54,2.47,1.74,3.58c0.19,1.1,0,13.77-0.19,20.64" style="fill:none;stroke:#999;stroke-width:3" />
<path d="M1339.06,37.71c1.07,0.38,1.71,0.84,2.77,0.75c1.07-0.09,31.7-4.39,38.31-5.13" style="fill:none;stroke:#999;stroke-width:3" />
<path d="M1375.21,29.78c3.83,1.8,9.89,7.4,10.85,10.2" style="fill:none;stroke:#999;stroke-width:3" />
<path d="M1325.73,48.88c0.37,0.25,0.63,0.87,0.7,1.2c0.5,2.38,1.78,6.66,2.49,11.17" style="fill:none;stroke:#999;stroke-width:3" />
<path d="M1326.7,49.83c5.63-0.48,23.34-2.35,27.41-2.53c1.59-0.07,1.66,0.76,1.5,1.82c-0.37,2.46-1.36,4.26-2.45,8.33" style="fill:none;stroke:black;stroke-width:3" />
<circle cx="1326.7" cy="49.83" r="5" stroke-width="0" fill="#FF2A00" opacity="0.7" />
<path d="M1443.4099999999999,76.86c0.67,0.82,1.53,1.84,1.67,2.54c1.12,5.52,2.59,10.69,3.36,16.35" style="fill:none;stroke:#999;stroke-width:3" />
<path d="M1445.6100000000001,78.6c11.8-1.13,47.46-4.04,52.41-4.49c1.71-0.16,2.75,0.91,2.5,1.81c-1.01,3.74-2.54,11.99-3.57,16.6" style="fill:none;stroke:#999;stroke-width:3" />
<path d="M1462.44,77.78c0.28,0.53,0.56,0.96,0.68,1.62c0.94,5.12,0.96,10.1,1.2,15.59" style="fill:none;stroke:#999;stroke-width:3" />
<path d="M1480.35,76.76c0.44,0.52,0.89,1.28,0.82,1.97c-0.42,4.38-0.84,9.76-1.59,14.97" style="fill:none;stroke:#999;stroke-width:3" />
<path d="M1432.5,95.89c1.99,0.71,5.65,0.86,7.64,0.71c17.94-1.35,45.69-3.1,68.06-3.45c3.32-0.05,5.31,0.33,6.97,0.69" style="fill:none;stroke:#999;stroke-width:3" />
<path d="M1447.8899999999999,18.69c0.56,0.36,0.91,1.28,1.07,1.75c0.69,2,1.84,6.76,2.36,10.3" style="fill:none;stroke:#999;stroke-width:3" />
<path d="M1449.38,20.09c8.6-0.7,32.34-3.02,38.56-3.29c2.43-0.1,2.71,1.15,2.29,2.66c-0.59,2.12-1.45,3.61-2.23,6.26" style="fill:none;stroke:#999;stroke-width:3" />
<path d="M1451.25,28.56c6.92-0.7,27.94-2.44,38.63-2.59" style="fill:none;stroke:#999;stroke-width:3" />
<path d="M1468.4099999999999,11c0.97,0.55,1.54,2.47,1.74,3.58c0.19,1.1,0,13.77-0.19,20.64" style="fill:none;stroke:#999;stroke-width:3" />
<path d="M1448.06,37.71c1.07,0.38,1.71,0.84,2.77,0.75c1.07-0.09,31.7-4.39,38.31-5.13" style="fill:none;stroke:#999;stroke-width:3" />
<path d="M1484.21,29.78c3.83,1.8,9.89,7.4,10.85,10.2" style="fill:none;stroke:#999;stroke-width:3" />
<path d="M1434.73,48.88c0.37,0.25,0.63,0.87,0.7,1.2c0.5,2.38,1.78,6.66,2.49,11.17" style="fill:none;stroke:#999;stroke-width:3" />
<path d="M1435.7,49.83c5.63-0.48,23.34-2.35,27.41-2.53c1.59-0.07,1.66,0.76,1.5,1.82c-0.37,2.46-1.36,4.26-2.45,8.33" style="fill:none;stroke:#999;stroke-width:3" />
<path d="M1437.74,59.52c4.53-0.48,19.96-1.72,26.3-2.16" style="fill:none;stroke:black;stroke-width:3" />
<circle cx="1437.74" cy="59.52" r="5" stroke-width="0" fill="#FF2A00" opacity="0.7" />
<path d="M1552.4099999999999,76.86c0.67,0.82,1.53,1.84,1.67,2.54c1.12,5.52,2.59,10.69,3.36,16.35" style="fill:none;stroke:#999;stroke-width:3" />
<path d="M1554.6100000000001,78.6c11.8-1.13,47.46-4.04,52.41-4.49c1.71-0.16,2.75,0.91,2.5,1.81c-1.01,3.74-2.54,11.99-3.57,16.6" style="fill:none;stroke:#999;stroke-width:3" />
<path d="M1571.44,77.78c0.28,0.53,0.56,0.96,0.68,1.62c0.94,5.12,0.96,10.1,1.2,15.59" style="fill:none;stroke:#999;stroke-width:3" />
<path d="M1589.35,76.76c0.44,0.52,0.89,1.28,0.82,1.97c-0.42,4.38-0.84,9.76-1.59,14.97" style="fill:none;stroke:#999;stroke-width:3" />
<path d="M1541.5,95.89c1.99,0.71,5.65,0.86,7.64,0.71c17.94-1.35,45.69-3.1,68.06-3.45c3.32-0.05,5.31,0.33,6.97,0.69" style="fill:none;stroke:#999;stroke-width:3" />
<path d="M1556.8899999999999,18.69c0.56,0.36,0.91,1.28,1.07,1.75c0.69,2,1.84,6.76,2.36,10.3" style="fill:none;stroke:#999;stroke-width:3" />
<path d="M1558.38,20.09c8.6-0.7,32.34-3.02,38.56-3.29c2.43-0.1,2.71,1.15,2.29,2.66c-0.59,2.12-1.45,3.61-2.23,6.26" style="fill:none;stroke:#999;stroke-width:3" />
<path d="M1560.25,28.56c6.92-0.7,27.94-2.44,38.63-2.59" style="fill:none;stroke:#999;stroke-width:3" />
<path d="M1577.4099999999999,11c0.97,0.55,1.54,2.47,1.74,3.58c0.19,1.1,0,13.77-0.19,20.64" style="fill:none;stroke:#999;stroke-width:3" />
<path d="M1557.06,37.71c1.07,0.38,1.71,0.84,2.77,0.75c1.07-0.09,31.7-4.39,38.31-5.13" style="fill:none;stroke:#999;stroke-width:3" />
<path d="M1593.21,29.78c3.83,1.8,9.89,7.4,10.85,10.2" style="fill:none;stroke:#999;stroke-width:3" />
<path d="M1543.73,48.88c0.37,0.25,0.63,0.87,0.7,1.2c0.5,2.38,1.78,6.66,2.49,11.17" style="fill:none;stroke:#999;stroke-width:3" />
<path d="M1544.7,49.83c5.63-0.48,23.34-2.35,27.41-2.53c1.59-0.07,1.66,0.76,1.5,1.82c-0.37,2.46-1.36,4.26-2.45,8.33" style="fill:none;stroke:#999;stroke-width:3" />
<path d="M1546.74,59.52c4.53-0.48,19.96-1.72,26.3-2.16" style="fill:none;stroke:#999;stroke-width:3" />
<path d="M1557.23,42.65c0.96,0.43,1.54,1.96,1.73,2.82c0.19,0.87,0.31,16.02,0.31,22.13" style="fill:none;stroke:black;stroke-width:3" />
<circle cx="1557.23" cy="42.65" r="5" stroke-width="0" fill="#FF2A00" opacity="0.7" />
<path d="M1661.4099999999999,76.86c0.67,0.82,1.53,1.84,1.67,2.54c1.12,5.52,2.59,10.69,3.36,16.35" style="fill:none;stroke:#999;stroke-width:3" />
<path d="M1663.6100000000001,78.6c11.8-1.13,47.46-4.04,52.41-4.49c1.71-0.16,2.75,0.91,2.5,1.81c-1.01,3.74-2.54,11.99-3.57,16.6" style="fill:none;stroke:#999;stroke-width:3" />
<path d="M1680.44,77.78c0.28,0.53,0.56,0.96,0.68,1.62c0.94,5.12,0.96,10.1,1.2,15.59" style="fill:none;stroke:#999;stroke-width:3" />
<path d="M1698.35,76.76c0.44,0.52,0.89,1.28,0.82,1.97c-0.42,4.38-0.84,9.76-1.59,14.97" style="fill:none;stroke:#999;stroke-width:3" />
<path d="M1650.5,95.89c1.99,0.71,5.65,0.86,7.64,0.71c17.94-1.35,45.69-3.1,68.06-3.45c3.32-0.05,5.31,0.33,6.97,0.69" style="fill:none;stroke:#999;stroke-width:3" />
<path d="M1665.8899999999999,18.69c0.56,0.36,0.91,1.28,1.07,1.75c0.69,2,1.84,6.76,2.36,10.3" style="fill:none;stroke:#999;stroke-width:3" />
<path d="M1667.38,20.09c8.6-0.7,32.34-3.02,38.56-3.29c2.43-0.1,2.71,1.15,2.29,2.66c-0.59,2.12-1.45,3.61-2.23,6.26" style="fill:none;stroke:#999;stroke-width:3" />
<path d="M1669.25,28.56c6.92-0.7,27.94-2.44,38.63-2.59" style="fill:none;stroke:#999;stroke-width:3" />
<path d="M1686.4099999999999,11c0.97,0.55,1.54,2.47,1.74,3.58c0.19,1.1,0,13.77-0.19,20.64" style="fill:none;stroke:#999;stroke-width:3" />
<path d="M1666.06,37.71c1.07,0.38,1.71,0.84,2.77,0.75c1.07-0.09,31.7-4.39,38.31-5.13" style="fill:none;stroke:#999;stroke-width:3" />
<path d="M1702.21,29.78c3.83,1.8,9.89,7.4,10.85,10.2" style="fill:none;stroke:#999;stroke-width:3" />
<path d="M1652.73,48.88c0.37,0.25,0.63,0.87,0.7,1.2c0.5,2.38,1.78,6.66,2.49,11.17" style="fill:none;stroke:#999;stroke-width:3" />
<path d="M1653.7,49.83c5.63-0.48,23.34-2.35,27.41-2.53c1.59-0.07,1.66,0.76,1.5,1.82c-0.37,2.46-1.36,4.26-2.45,8.33" style="fill:none;stroke:#999;stroke-width:3" />
<path d="M1655.74,59.52c4.53-0.48,19.96-1.72,26.3-2.16" style="fill:none;stroke:#999;stroke-width:3" />
<path d="M1666.23,42.65c0.96,0.43,1.54,1.96,1.73,2.82c0.19,0.87,0.31,16.02,0.31,22.13" style="fill:none;stroke:#999;stroke-width:3" />
<path d="M1651.05,69.67c0.73,0.41,2.11,0.92,2.85,0.82c0.73-0.1,20.07-3.95,26.45-5.29" style="fill:none;stroke:black;stroke-width:3" />
<circle cx="1651.05" cy="69.67" r="5" stroke-width="0" fill="#FF2A00" opacity="0.7" />
<path d="M1770.4099999999999,76.86c0.67,0.82,1.53,1.84,1.67,2.54c1.12,5.52,2.59,10.69,3.36,16.35" style="fill:none;stroke:#999;stroke-width:3" />
<path d="M1772.6100000000001,78.6c11.8-1.13,47.46-4.04,52.41-4.49c1.71-0.16,2.75,0.91,2.5,1.81c-1.01,3.74-2.54,11.99-3.57,16.6" style="fill:none;stroke:#999;stroke-width:3" />
<path d="M1789.44,77.78c0.28,0.53,0.56,0.96,0.68,1.62c0.94,5.12,0.96,10.1,1.2,15.59" style="fill:none;stroke:#999;stroke-width:3" />
<path d="M1807.35,76.76c0.44,0.52,0.89,1.28,0.82,1.97c-0.42,4.38-0.84,9.76-1.59,14.97" style="fill:none;stroke:#999;stroke-width:3" />
<path d="M1759.5,95.89c1.99,0.71,5.65,0.86,7.64,0.71c17.94-1.35,45.69-3.1,68.06-3.45c3.32-0.05,5.31,0.33,6.97,0.69" style="fill:none;stroke:#999;stroke-width:3" />
<path d="M1774.8899999999999,18.69c0.56,0.36,0.91,1.28,1.07,1.75c0.69,2,1.84,6.76,2.36,10.3" style="fill:none;stroke:#999;stroke-width:3" />
<path d="M1776.38,20.09c8.6-0.7,32.34-3.02,38.56-3.29c2.43-0.1,2.71,1.15,2.29,2.66c-0.59,2.12-1.45,3.61-2.23,6.26" style="fill:none;stroke:#999;stroke-width:3" />
<path d="M1778.25,28.56c6.92-0.7,27.94-2.44,38.63-2.59" style="fill:none;stroke:#999;stroke-width:3" />
<path d="M1795.4099999999999,11c0.97,0.55,1.54,2.47,1.74,3.58c0.19,1.1,0,13.77-0.19,20.64" style="fill:none;stroke:#999;stroke-width:3" />
<path d="M1775.06,37.71c1.07,0.38,1.71,0.84,2.77,0.75c1.07-0.09,31.7-4.39,38.31-5.13" style="fill:none;stroke:#999;stroke-width:3" />
<path d="M1811.21,29.78c3.83,1.8,9.89,7.4,10.85,10.2" style="fill:none;stroke:#999;stroke-width:3" />
<path d="M1761.73,48.88c0.37,0.25,0.63,0.87,0.7,1.2c0.5,2.38,1.78,6.66,2.49,11.17" style="fill:none;stroke:#999;stroke-width:3" />
<path d="M1762.7,49.83c5.63-0.48,23.34-2.35,27.41-2.53c1.59-0.07,1.66,0.76,1.5,1.82c-0.37,2.46-1.36,4.26-2.45,8.33" style="fill:none;stroke:#999;stroke-width:3" />
<path d="M1764.74,59.52c4.53-0.48,19.96-1.72,26.3-2.16" style="fill:none;stroke:#999;stroke-width:3" />
<path d="M1775.23,42.65c0.96,0.43,1.54,1.96,1.73,2.82c0.19,0.87,0.31,16.02,0.31,22.13" style="fill:none;stroke:#999;stroke-width:3" />
<path d="M1760.05,69.67c0.73,0.41,2.11,0.92,2.85,0.82c0.73-0.1,20.07-3.95,26.45-5.29" style="fill:none;stroke:#999;stroke-width:3" />
<path d="M1785.28,61.29c2.75,1.49,7.09,6.11,7.78,8.42" style="fill:none;stroke:black;stroke-width:3" />
<circle cx="1785.28" cy="61.29" r="5" stroke-width="0" fill="#FF2A00" opacity="0.7" />
<path d="M1879.4099999999999,76.86c0.67,0.82,1.53,1.84,1.67,2.54c1.12,5.52,2.59,10.69,3.36,16.35" style="fill:none;stroke:#999;stroke-width:3" />
<path d="M1881.6100000000001,78.6c11.8-1.13,47.46-4.04,52.41-4.49c1.71-0.16,2.75,0.91,2.5,1.81c-1.01,3.74-2.54,11.99-3.57,16.6" style="fill:none;stroke:#999;stroke-width:3" />
<path d="M1898.44,77.78c0.28,0.53,0.56,0.96,0.68,1.62c0.94,5.12,0.96,10.1,1.2,15.59" style="fill:none;stroke:#999;stroke-width:3" />
<path d="M1916.35,76.76c0.44,0.52,0.89,1.28,0.82,1.97c-0.42,4.38-0.84,9.76-1.59,14.97" style="fill:none;stroke:#999;stroke-width:3" />
<path d="M1868.5,95.89c1.99,0.71,5.65,0.86,7.64,0.71c17.94-1.35,45.69-3.1,68.06-3.45c3.32-0.05,5.31,0.33,6.97,0.69" style="fill:none;stroke:#999;stroke-width:3" />
<path d="M1883.8899999999999,18.69c0.56,0.36,0.91,1.28,1.07,1.75c0.69,2,1.84,6.76,2.36,10.3" style="fill:none;stroke:#999;stroke-width:3" />
<path d="M1885.38,20.09c8.6-0.7,32.34-3.02,38.56-3.29c2.43-0.1,2.71,1.15,2.29,2.66c-0.59,2.12-1.45,3.61-2.23,6.26" style="fill:none;stroke:#999;stroke-width:3" />
<path d="M1887.25,28.56c6.92-0.7,27.94-2.44,38.63-2.59" style="fill:none;stroke:#999;stroke-width:3" />
<path d="M1904.4099999999999,11c0.97,0.55,1.54,2.47,1.74,3.58c0.19,1.1,0,13.77-0.19,20.64" style="fill:none;stroke:#999;stroke-width:3" />
<path d="M1884.06,37.71c1.07,0.38,1.71,0.84,2.77,0.75c1.07-0.09,31.7-4.39,38.31-5.13" style="fill:none;stroke:#999;stroke-width:3" />
<path d="M1920.21,29.78c3.83,1.8,9.89,7.4,10.85,10.2" style="fill:none;stroke:#999;stroke-width:3" />
<path d="M1870.73,48.88c0.37,0.25,0.63,0.87,0.7,1.2c0.5,2.38,1.78,6.66,2.49,11.17" style="fill:none;stroke:#999;stroke-width:3" />
<path d="M1871.7,49.83c5.63-0.48,23.34-2.35,27.41-2.53c1.59-0.07,1.66,0.76,1.5,1.82c-0.37,2.46-1.36,4.26-2.45,8.33" style="fill:none;stroke:#999;stroke-width:3" />
<path d="M1873.74,59.52c4.53-0.48,19.96-1.72,26.3-2.16" style="fill:none;stroke:#999;stroke-width:3" />
<path d="M1884.23,42.65c0.96,0.43,1.54,1.96,1.73,2.82c0.19,0.87,0.31,16.02,0.31,22.13" style="fill:none;stroke:#999;stroke-width:3" />
<path d="M1869.05,69.67c0.73,0.41,2.11,0.92,2.85,0.82c0.73-0.1,20.07-3.95,26.45-5.29" style="fill:none;stroke:#999;stroke-width:3" />
<path d="M1894.28,61.29c2.75,1.49,7.09,6.11,7.78,8.42" style="fill:none;stroke:#999;stroke-width:3" />
<path d="M1907.57,47.69c0.43,0.24,0.74,0.84,0.82,1.16c0.58,2.32,1.57,5.73,2.39,10.12" style="fill:none;stroke:black;stroke-width:3" />
<circle cx="1907.57" cy="47.69" r="5" stroke-width="0" fill="#FF2A00" opacity="0.7" />
<path d="M1988.4099999999999,76.86c0.67,0.82,1.53,1.84,1.67,2.54c1.12,5.52,2.59,10.69,3.36,16.35" style="fill:none;stroke:#999;stroke-width:3" />
<path d="M1990.6100000000001,78.6c11.8-1.13,47.46-4.04,52.41-4.49c1.71-0.16,2.75,0.91,2.5,1.81c-1.01,3.74-2.54,11.99-3.57,16.6" style="fill:none;stroke:#999;stroke-width:3" />
<path d="M2007.44,77.78c0.28,0.53,0.56,0.96,0.68,1.62c0.94,5.12,0.96,10.1,1.2,15.59" style="fill:none;stroke:#999;stroke-width:3" />
<path d="M2025.35,76.76c0.44,0.52,0.89,1.28,0.82,1.97c-0.42,4.38-0.84,9.76-1.59,14.97" style="fill:none;stroke:#999;stroke-width:3" />
<path d="M1977.5,95.89c1.99,0.71,5.65,0.86,7.64,0.71c17.94-1.35,45.69-3.1,68.06-3.45c3.32-0.05,5.31,0.33,6.97,0.69" style="fill:none;stroke:#999;stroke-width:3" />
<path d="M1992.8899999999999,18.69c0.56,0.36,0.91,1.28,1.07,1.75c0.69,2,1.84,6.76,2.36,10.3" style="fill:none;stroke:#999;stroke-width:3" />
<path d="M1994.38,20.09c8.6-0.7,32.34-3.02,38.56-3.29c2.43-0.1,2.71,1.15,2.29,2.66c-0.59,2.12-1.45,3.61-2.23,6.26" style="fill:none;stroke:#999;stroke-width:3" />
<path d="M1996.25,28.56c6.92-0.7,27.94-2.44,38.63-2.59" style="fill:none;stroke:#999;stroke-width:3" />
<path d="M2013.4099999999999,11c0.97,0.55,1.54,2.47,1.74,3.58c0.19,1.1,0,13.77-0.19,20.64" style="fill:none;stroke:#999;stroke-width:3" />
<path d="M1993.06,37.71c1.07,0.38,1.71,0.84,2.77,0.75c1.07-0.09,31.7-4.39,38.31-5.13" style="fill:none;stroke:#999;stroke-width:3" />
<path d="M2029.21,29.78c3.83,1.8,9.89,7.4,10.85,10.2" style="fill:none;stroke:#999;stroke-width:3" />
<path d="M1979.73,48.88c0.37,0.25,0.63,0.87,0.7,1.2c0.5,2.38,1.78,6.66,2.49,11.17" style="fill:none;stroke:#999;stroke-width:3" />
<path d="M1980.7,49.83c5.63-0.48,23.34-2.35,27.41-2.53c1.59-0.07,1.66,0.76,1.5,1.82c-0.37,2.46-1.36,4.26-2.45,8.33" style="fill:none;stroke:#999;stroke-width:3" />
<path d="M1982.74,59.52c4.53-0.48,19.96-1.72,26.3-2.16" style="fill:none;stroke:#999;stroke-width:3" />
<path d="M1993.23,42.65c0.96,0.43,1.54,1.96,1.73,2.82c0.19,0.87,0.31,16.02,0.31,22.13" style="fill:none;stroke:#999;stroke-width:3" />
<path d="M1978.05,69.67c0.73,0.41,2.11,0.92,2.85,0.82c0.73-0.1,20.07-3.95,26.45-5.29" style="fill:none;stroke:#999;stroke-width:3" />
<path d="M2003.28,61.29c2.75,1.49,7.09,6.11,7.78,8.42" style="fill:none;stroke:#999;stroke-width:3" />
<path d="M2016.57,47.69c0.43,0.24,0.74,0.84,0.82,1.16c0.58,2.32,1.57,5.73,2.39,10.12" style="fill:none;stroke:#999;stroke-width:3" />
<path d="M2017.71,48.99c6.55-0.46,23.67-2.3,28.4-2.48c1.85-0.07,2.01,0.76,1.75,1.77c-0.5,1.95-1.2,5.37-1.96,7.73" style="fill:none;stroke:black;stroke-width:3" />
<circle cx="2017.71" cy="48.99" r="5" stroke-width="0" fill="#FF2A00" opacity="0.7" />
<path d="M2097.41,76.86c0.67,0.82,1.53,1.84,1.67,2.54c1.12,5.52,2.59,10.69,3.36,16.35" style="fill:none;stroke:#999;stroke-width:3" />
<path d="M2099.61,78.6c11.8-1.13,47.46-4.04,52.41-4.49c1.71-0.16,2.75,0.91,2.5,1.81c-1.01,3.74-2.54,11.99-3.57,16.6" style="fill:none;stroke:#999;stroke-width:3" />
<path d="M2116.44,77.78c0.28,0.53,0.56,0.96,0.68,1.62c0.94,5.12,0.96,10.1,1.2,15.59" style="fill:none;stroke:#999;stroke-width:3" />
<path d="M2134.35,76.76c0.44,0.52,0.89,1.28,0.82,1.97c-0.42,4.38-0.84,9.76-1.59,14.97" style="fill:none;stroke:#999;stroke-width:3" />
<path d="M2086.5,95.89c1.99,0.71,5.65,0.86,7.64,0.71c17.94-1.35,45.69-3.1,68.06-3.45c3.32-0.05,5.31,0.33,6.97,0.69" style="fill:none;stroke:#999;stroke-width:3" />
<path d="M2101.89,18.69c0.56,0.36,0.91,1.28,1.07,1.75c0.69,2,1.84,6.76,2.36,10.3" style="fill:none;stroke:#999;stroke-width:3" />
<path d="M2103.38,20.09c8.6-0.7,32.34-3.02,38.56-3.29c2.43-0.1,2.71,1.15,2.29,2.66c-0.59,2.12-1.45,3.61-2.23,6.26" style="fill:none;stroke:#999;stroke-width:3" />
<path d="M2105.25,28.56c6.92-0.7,27.94-2.44,38.63-2.59" style="fill:none;stroke:#999;stroke-width:3" />
<path d="M2122.41,11c0.97,0.55,1.54,2.47,1.74,3.58c0.19,1.1,0,13.77-0.19,20.64" style="fill:none;stroke:#999;stroke-width:3" />
<path d="M2102.06,37.71c1.07,0.38,1.71,0.84,2.77,0.75c1.07-0.09,31.7-4.39,38.31-5.13" style="fill:none;stroke:#999;stroke-width:3" />
<path d="M2138.21,29.78c3.83,1.8,9.89,7.4,10.85,10.2" style="fill:none;stroke:#999;stroke-width:3" />
<path d="M2088.73,48.88c0.37,0.25,0.63,0.87,0.7,1.2c0.5,2.38,1.78,6.66,2.49,11.17" style="fill:none;stroke:#999;stroke-width:3" />
<path d="M2089.7,49.83c5.63-0.48,23.34-2.35,27.41-2.53c1.59-0.07,1.66,0.76,1.5,1.82c-0.37,2.46-1.36,4.26-2.45,8.33" style="fill:none;stroke:#999;stroke-width:3" />
<path d="M2091.74,59.52c4.53-0.48,19.96-1.72,26.3-2.16" style="fill:none;stroke:#999;stroke-width:3" />
<path d="M2102.23,42.65c0.96,0.43,1.54,1.96,1.73,2.82c0.19,0.87,0.31,16.02,0.31,22.13" style="fill:none;stroke:#999;stroke-width:3" />
<path d="M2087.05,69.67c0.73,0.41,2.11,0.92,2.85,0.82c0.73-0.1,20.07-3.95,26.45-5.29" style="fill:none;stroke:#999;stroke-width:3" />
<path d="M2112.2799999999997,61.29c2.75,1.49,7.09,6.11,7.78,8.42" style="fill:none;stroke:#999;stroke-width:3" />
<path d="M2125.5699999999997,47.69c0.43,0.24,0.74,0.84,0.82,1.16c0.58,2.32,1.57,5.73,2.39,10.12" style="fill:none;stroke:#999;stroke-width:3" />
<path d="M2126.71,48.99c6.55-0.46,23.67-2.3,28.4-2.48c1.85-0.07,2.01,0.76,1.75,1.77c-0.5,1.95-1.2,5.37-1.96,7.73" style="fill:none;stroke:#999;stroke-width:3" />
<path d="M2129.02,57.68c5.27-0.47,20.24-1.32,27.61-1.76" style="fill:none;stroke:black;stroke-width:3" />
<circle cx="2129.02" cy="57.68" r="5" stroke-width="0" fill="#FF2A00" opacity="0.7" />
<path d="M2206.41,76.86c0.67,0.82,1.53,1.84,1.67,2.54c1.12,5.52,2.59,10.69,3.36,16.35" style="fill:none;stroke:#999;stroke-width:3" />
<path d="M2208.61,78.6c11.8-1.13,47.46-4.04,52.41-4.49c1.71-0.16,2.75,0.91,2.5,1.81c-1.01,3.74-2.54,11.99-3.57,16.6" style="fill:none;stroke:#999;stroke-width:3" />
<path d="M2225.44,77.78c0.28,0.53,0.56,0.96,0.68,1.62c0.94,5.12,0.96,10.1,1.2,15.59" style="fill:none;stroke:#999;stroke-width:3" />
<path d="M2243.35,76.76c0.44,0.52,0.89,1.28,0.82,1.97c-0.42,4.38-0.84,9.76-1.59,14.97" style="fill:none;stroke:#999;stroke-width:3" />
<path d="M2195.5,95.89c1.99,0.71,5.65,0.86,7.64,0.71c17.94-1.35,45.69-3.1,68.06-3.45c3.32-0.05,5.31,0.33,6.97,0.69" style="fill:none;stroke:#999;stroke-width:3" />
<path d="M2210.89,18.69c0.56,0.36,0.91,1.28,1.07,1.75c0.69,2,1.84,6.76,2.36,10.3" style="fill:none;stroke:#999;stroke-width:3" />
<path d="M2212.38,20.09c8.6-0.7,32.34-3.02,38.56-3.29c2.43-0.1,2.71,1.15,2.29,2.66c-0.59,2.12-1.45,3.61-2.23,6.26" style="fill:none;stroke:#999;stroke-width:3" />
<path d="M2214.25,28.56c6.92-0.7,27.94-2.44,38.63-2.59" style="fill:none;stroke:#999;stroke-width:3" />
<path d="M2231.41,11c0.97,0.55,1.54,2.47,1.74,3.58c0.19,1.1,0,13.77-0.19,20.64" style="fill:none;stroke:#999;stroke-width:3" />
<path d="M2211.06,37.71c1.07,0.38,1.71,0.84,2.77,0.75c1.07-0.09,31.7-4.39,38.31-5.13" style="fill:none;stroke:#999;stroke-width:3" />
<path d="M2247.21,29.78c3.83,1.8,9.89,7.4,10.85,10.2" style="fill:none;stroke:#999;stroke-width:3" />
<path d="M2197.73,48.88c0.37,0.25,0.63,0.87,0.7,1.2c0.5,2.38,1.78,6.66,2.49,11.17" style="fill:none;stroke:#999;stroke-width:3" />
<path d="M2198.7,49.83c5.63-0.48,23.34-2.35,27.41-2.53c1.59-0.07,1.66,0.76,1.5,1.82c-0.37,2.46-1.36,4.26-2.45,8.33" style="fill:none;stroke:#999;stroke-width:3" />
<path d="M2200.74,59.52c4.53-0.48,19.96-1.72,26.3-2.16" style="fill:none;stroke:#999;stroke-width:3" />
<path d="M2211.23,42.65c0.96,0.43,1.54,1.96,1.73,2.82c0.19,0.87,0.31,16.02,0.31,22.13" style="fill:none;stroke:#999;stroke-width:3" />
<path d="M2196.05,69.67c0.73,0.41,2.11,0.92,2.85,0.82c0.73-0.1,20.07-3.95,26.45-5.29" style="fill:none;stroke:#999;stroke-width:3" />
<path d="M2221.2799999999997,61.29c2.75,1.49,7.09,6.11,7.78,8.42" style="fill:none;stroke:#999;stroke-width:3" />
<path d="M2234.5699999999997,47.69c0.43,0.24,0.74,0.84,0.82,1.16c0.58,2.32,1.57,5.73,2.39,10.12" style="fill:none;stroke:#999;stroke-width:3" />
<path d="M2235.71,48.99c6.55-0.46,23.67-2.3,28.4-2.48c1.85-0.07,2.01,0.76,1.75,1.77c-0.5,1.95-1.2,5.37-1.96,7.73" style="fill:none;stroke:#999;stroke-width:3" />
<path d="M2238.02,57.68c5.27-0.47,20.24-1.32,27.61-1.76" style="fill:none;stroke:#999;stroke-width:3" />
<path d="M2249.05,39.74c0.65,0.4,1.04,1.8,1.17,2.61c0.13,0.8,0,19.23-0.13,24.24" style="fill:none;stroke:black;stroke-width:3" />
<circle cx="2249.05" cy="39.74" r="5" stroke-width="0" fill="#FF2A00" opacity="0.7" />
<path d="M2315.41,76.86c0.67,0.82,1.53,1.84,1.67,2.54c1.12,5.52,2.59,10.69,3.36,16.35" style="fill:none;stroke:#999;stroke-width:3" />
<path d="M2317.61,78.6c11.8-1.13,47.46-4.04,52.41-4.49c1.71-0.16,2.75,0.91,2.5,1.81c-1.01,3.74-2.54,11.99-3.57,16.6" style="fill:none;stroke:#999;stroke-width:3" />
<path d="M2334.44,77.78c0.28,0.53,0.56,0.96,0.68,1.62c0.94,5.12,0.96,10.1,1.2,15.59" style="fill:none;stroke:#999;stroke-width:3" />
<path d="M2352.35,76.76c0.44,0.52,0.89,1.28,0.82,1.97c-0.42,4.38-0.84,9.76-1.59,14.97" style="fill:none;stroke:#999;stroke-width:3" />
<path d="M2304.5,95.89c1.99,0.71,5.65,0.86,7.64,0.71c17.94-1.35,45.69-3.1,68.06-3.45c3.32-0.05,5.31,0.33,6.97,0.69" style="fill:none;stroke:#999;stroke-width:3" />
<path d="M2319.89,18.69c0.56,0.36,0.91,1.28,1.07,1.75c0.69,2,1.84,6.76,2.36,10.3" style="fill:none;stroke:#999;stroke-width:3" />
<path d="M2321.38,20.09c8.6-0.7,32.34-3.02,38.56-3.29c2.43-0.1,2.71,1.15,2.29,2.66c-0.59,2.12-1.45,3.61-2.23,6.26" style="fill:none;stroke:#999;stroke-width:3" />
<path d="M2323.25,28.56c6.92-0.7,27.94-2.44,38.63-2.59" style="fill:none;stroke:#999;stroke-width:3" />
<path d="M2340.41,11c0.97,0.55,1.54,2.47,1.74,3.58c0.19,1.1,0,13.77-0.19,20.64" style="fill:none;stroke:#999;stroke-width:3" />
<path d="M2320.06,37.71c1.07,0.38,1.71,0.84,2.77,0.75c1.07-0.09,31.7-4.39,38.31-5.13" style="fill:none;stroke:#999;stroke-width:3" />
<path d="M2356.21,29.78c3.83,1.8,9.89,7.4,10.85,10.2" style="fill:none;stroke:#999;stroke-width:3" />
<path d="M2306.73,48.88c0.37,0.25,0.63,0.87,0.7,1.2c0.5,2.38,1.78,6.66,2.49,11.17" style="fill:none;stroke:#999;stroke-width:3" />
<path d="M2307.7,49.83c5.63-0.48,23.34-2.35,27.41-2.53c1.59-0.07,1.66,0.76,1.5,1.82c-0.37,2.46-1.36,4.26-2.45,8.33" style="fill:none;stroke:#999;stroke-width:3" />
<path d="M2309.74,59.52c4.53-0.48,19.96-1.72,26.3-2.16" style="fill:none;stroke:#999;stroke-width:3" />
<path d="M2320.23,42.65c0.96,0.43,1.54,1.96,1.73,2.82c0.19,0.87,0.31,16.02,0.31,22.13" style="fill:none;stroke:#999;stroke-width:3" />
<path d="M2305.05,69.67c0.73,0.41,2.11,0.92,2.85,0.82c0.73-0.1,20.07-3.95,26.45-5.29" style="fill:none;stroke:#999;stroke-width:3" />
<path d="M2330.2799999999997,61.29c2.75,1.49,7.09,6.11,7.78,8.42" style="fill:none;stroke:#999;stroke-width:3" />
<path d="M2343.5699999999997,47.69c0.43,0.24,0.74,0.84,0.82,1.16c0.58,2.32,1.57,5.73,2.39,10.12" style="fill:none;stroke:#999;stroke-width:3" />
<path d="M2344.71,48.99c6.55-0.46,23.67-2.3,28.4-2.48c1.85-0.07,2.01,0.76,1.75,1.77c-0.5,1.95-1.2,5.37-1.96,7.73" style="fill:none;stroke:#999;stroke-width:3" />
<path d="M2347.02,57.68c5.27-0.47,20.24-1.32,27.61-1.76" style="fill:none;stroke:#999;stroke-width:3" />
<path d="M2358.05,39.74c0.65,0.4,1.04,1.8,1.17,2.61c0.13,0.8,0,19.23-0.13,24.24" style="fill:none;stroke:#999;stroke-width:3" />
<path d="M2344.34,67.92c0.74,0.42,1.66,0.94,2.41,0.83c0.74-0.11,24.18-3.3,28.78-4.13" style="fill:none;stroke:black;stroke-width:3" />
<circle cx="2344.34" cy="67.92" r="5" stroke-width="0" fill="#FF2A00" opacity="0.7" />
<path d="M2424.41,76.86c0.67,0.82,1.53,1.84,1.67,2.54c1.12,5.52,2.59,10.69,3.36,16.35" style="fill:none;stroke:#999;stroke-width:3" />
<path d="M2426.61,78.6c11.8-1.13,47.46-4.04,52.41-4.49c1.71-0.16,2.75,0.91,2.5,1.81c-1.01,3.74-2.54,11.99-3.57,16.6" style="fill:none;stroke:#999;stroke-width:3" />
<path d="M2443.44,77.78c0.28,0.53,0.56,0.96,0.68,1.62c0.94,5.12,0.96,10.1,1.2,15.59" style="fill:none;stroke:#999;stroke-width:3" />
<path d="M2461.35,76.76c0.44,0.52,0.89,1.28,0.82,1.97c-0.42,4.38-0.84,9.76-1.59,14.97" style="fill:none;stroke:#999;stroke-width:3" />
<path d="M2413.5,95.89c1.99,0.71,5.65,0.86,7.64,0.71c17.94-1.35,45.69-3.1,68.06-3.45c3.32-0.05,5.31,0.33,6.97,0.69" style="fill:none;stroke:#999;stroke-width:3" />
<path d="M2428.89,18.69c0.56,0.36,0.91,1.28,1.07,1.75c0.69,2,1.84,6.76,2.36,10.3" style="fill:none;stroke:#999;stroke-width:3" />
<path d="M2430.38,20.09c8.6-0.7,32.34-3.02,38.56-3.29c2.43-0.1,2.71,1.15,2.29,2.66c-0.59,2.12-1.45,3.61-2.23,6.26" style="fill:none;stroke:#999;stroke-width:3" />
<path d="M2432.25,28.56c6.92-0.7,27.94-2.44,38.63-2.59" style="fill:none;stroke:#999;stroke-width:3" />
<path d="M2449.41,11c0.97,0.55,1.54,2.47,1.74,3.58c0.19,1.1,0,13.77-0.19,20.64" style="fill:none;stroke:#999;stroke-width:3" />
<path d="M2429.06,37.71c1.07,0.38,1.71,0.84,2.77,0.75c1.07-0.09,31.7-4.39,38.31-5.13" style="fill:none;stroke:#999;stroke-width:3" />
<path d="M2465.21,29.78c3.83,1.8,9.89,7.4,10.85,10.2" style="fill:none;stroke:#999;stroke-width:3" />
<path d="M2415.73,48.88c0.37,0.25,0.63,0.87,0.7,1.2c0.5,2.38,1.78,6.66,2.49,11.17" style="fill:none;stroke:#999;stroke-width:3" />
<path d="M2416.7,49.83c5.63-0.48,23.34-2.35,27.41-2.53c1.59-0.07,1.66,0.76,1.5,1.82c-0.37,2.46-1.36,4.26-2.45,8.33" style="fill:none;stroke:#999;stroke-width:3" />
<path d="M2418.74,59.52c4.53-0.48,19.96-1.72,26.3-2.16" style="fill:none;stroke:#999;stroke-width:3" />
<path d="M2429.23,42.65c0.96,0.43,1.54,1.96,1.73,2.82c0.19,0.87,0.31,16.02,0.31,22.13" style="fill:none;stroke:#999;stroke-width:3" />
<path d="M2414.05,69.67c0.73,0.41,2.11,0.92,2.85,0.82c0.73-0.1,20.07-3.95,26.45-5.29" style="fill:none;stroke:#999;stroke-width:3" />
<path d="M2439.2799999999997,61.29c2.75,1.49,7.09,6.11,7.78,8.42" style="fill:none;stroke:#999;stroke-width:3" />
<path d="M2452.5699999999997,47.69c0.43,0.24,0.74,0.84,0.82,1.16c0.58,2.32,1.57,5.73,2.39,10.12" style="fill:none;stroke:#999;stroke-width:3" />
<path d="M2453.71,48.99c6.55-0.46,23.67-2.3,28.4-2.48c1.85-0.07,2.01,0.76,1.75,1.77c-0.5,1.95-1.2,5.37-1.96,7.73" style="fill:none;stroke:#999;stroke-width:3" />
<path d="M2456.02,57.68c5.27-0.47,20.24-1.32,27.61-1.76" style="fill:none;stroke:#999;stroke-width:3" />
<path d="M2467.05,39.74c0.65,0.4,1.04,1.8,1.17,2.61c0.13,0.8,0,19.23-0.13,24.24" style="fill:none;stroke:#999;stroke-width:3" />
<path d="M2453.34,67.92c0.74,0.42,1.66,0.94,2.41,0.83c0.74-0.11,24.18-3.3,28.78-4.13" style="fill:none;stroke:#999;stroke-width:3" />
<path d="M2478.75,59.94c3.71,1.9,9.59,7.82,10.52,10.78" style="fill:none;stroke:black;stroke-width:3" />
<circle cx="2478.75" cy="59.94" r="5" stroke-width="0" fill="#FF2A00" opacity="0.7" />
</svg>