<svg width="1853px" height="109px" viewBox="0 0 1853px 109px" xmlns="http://www.w3.org/2000/svg" xmlns:xlink="http://www.w3.org/1999/xlink" xml:space="preserve" version="1.1"  baseProfile="full">
<line x1="1" y1="1" x2="1852" y2="1" style="stroke:#ddd;stroke-width:2" />
<line x1="1" y1="1" x2="1" y2="108" style="stroke:#ddd;stroke-width:2" />
<line x1="1" y1="108" x2="1852" y2="108" style="stroke:#ddd;stroke-width:2" />
<line x1="1852" y1="1" x2="1852" y2="108" style="stroke:#ddd;stroke-width:2" />
<line x1="109" y1="1" x2="109" y2="108" style="stroke:#ddd;stroke-width:2" />
<line x1="218" y1="1" x2="218" y2="108" style="stroke:#ddd;stroke-width:2" />
<line x1="327" y1="1" x2="327" y2="108" style="stroke:#ddd;stroke-width:2" />
<line x1="436" y1="1" x2="436" y2="108" style="stroke:#ddd;stroke-width:2" />
<line x1="545" y1="1" x2="545" y2="108" style="stroke:#ddd;stroke-width:2" />
<line x1="654" y1="1" x2="654" y2="108" style="stroke:#ddd;stroke-width:2" />
<line x1="763" y1="1" x2="763" y2="108" style="stroke:#ddd;stroke-width:2" />
<line x1="872" y1="1" x2="872" y2="108" style="stroke:#ddd;stroke-width:2" />
<line x1="981" y1="1" x2="981" y2="108" style="stroke:#ddd;stroke-width:2" />
<line x1="1090" y1="1" x2="1090" y2="108" style="stroke:#ddd;stroke-width:2" />
<line x1="1199" y1="1" x2="1199" y2="108" style="stroke:#ddd;stroke-width:2" />
<line x1="1308" y1="1" x2="1308" y2="108" style="stroke:#ddd;stroke-width:2" />
<line x1="1417" y1="1" x2="1417" y2="108" style="stroke:#ddd;stroke-width:2" />
<line x1="1526" y1="1" x2="1526" y2="108" style="stroke:#ddd;stroke-width:2" />
<line x1="1635" y1="1" x2="1635" y2="108" style="stroke:#ddd;stroke-width:2" />
<line x1="1744" y1="1" x2="1744" y2="108" style="stroke:#ddd;stroke-width:2" />
<line x1="1" y1="54" x2="1852" y2="54" style="stroke:#ddd;stroke-width:2;stroke-dasharray:3 3" />
<line x1="55" y1="1" x2="55" y2="108" style="stroke:#ddd;stroke-width:2;stroke-dasharray:3 3" />
<line x1="164" y1="1" x2="164" y2="108" style="stroke:#ddd;stroke-width:2;stroke-dasharray:3 3" />
<line x1="273" y1="1" x2="273" y2="108" style="stroke:#ddd;stroke-width:2;stroke-dasharray:3 3" />
<line x1="382" y1="1" x2="382" y2="108" style="stroke:#ddd;stroke-width:2;stroke-dasharray:3 3" />
<line x1="491" y1="1" x2="491" y2="108" style="stroke:#ddd;stroke-width:2;stroke-dasharray:3 3" />
<line x1="600" y1="1" x2="600" y2="108" style="stroke:#ddd;stroke-width:2;stroke-dasharray:3 3" />
<line x1="709" y1="1" x2="709" y2="108" style="stroke:#ddd;stroke-width:2;stroke-dasharray:3 3" />
<line x1="818" y1="1" x2="818" y2="108" style="stroke:#ddd;stroke-width:2;stroke-dasharray:3 3" />
<line x1="927" y1="1" x2="927" y2="108" style="stroke:#ddd;stroke-width:2;stroke-dasharray:3 3" />
<line x1="1036" y1="1" x2="1036" y2="108" style="stroke:#ddd;stroke-width:2;stroke-dasharray:3 3" />
<line x1="1145" y1="1" x2="1145" y2="108" style="stroke:#ddd;stroke-width:2;stroke-dasharray:3 3" />
<line x1="1254" y1="1" x2="1254" y2="108" style="stroke:#ddd;stroke-width:2;stroke-dasharray:3 3" />
<line x1="1363" y1="1" x2="1363" y2="108" style="stroke:#ddd;stroke-width:2;stroke-dasharray:3 3" />
<line x1="1472" y1="1" x2="1472" y2="108" style="stroke:#ddd;stroke-width:2;stroke-dasharray:3 3" />
<line x1="1581" y1="1" x2="1581" y2="108" style="stroke:#ddd;stroke-width:2;stroke-dasharray:3 3" />
<line x1="1690" y1="1" x2="1690" y2="108" style="stroke:#ddd;stroke-width:2;stroke-dasharray:3 3" />
<line x1="1799" y1="1" x2="1799" y2="108" style="stroke:#ddd;stroke-width:2;stroke-dasharray:3 3" />
<path d="M25.08,15c2.65,2.18,5.48,5.44,7.75,9.25" style="fill:none;stroke:black;stroke-width:3" />
<circle cx="25.08" cy="15.0" r="5" stroke-width="0" fill="#FF2A00" opacity="0.7" />
<path d="M134.07999999999998,15c2.65,2.18,5.48,5.44,7.75,9.25" style="fill:none;stroke:#999;stroke-width:3" />
<path d="M123.08,36.5c2.58,0.51,5.31,0.36,7.69-0.45c4.58-1.36,12.65-3.82,15.06-4.55c2.5-0.75,4.67,0.95,3.25,3.25C140.75,48.25,133.5,57,121.0,69.25" style="fill:none;stroke:black;stroke-width:3" />
<circle cx="123.08" cy="36.5" r="5" stroke-width="0" fill="#FF2A00" opacity="0.7" />
<path d="M243.07999999999998,15c2.65,2.18,5.48,5.44,7.75,9.25" style="fill:none;stroke:#999;stroke-width:3" />
<path d="M232.07999999999998,36.5c2.58,0.51,5.31,0.36,7.69-0.45c4.58-1.36,12.65-3.82,15.06-4.55c2.5-0.75,4.67,0.95,3.25,3.25C249.75,48.25,242.5,57,230.0,69.25" style="fill:none;stroke:#999;stroke-width:3" />
<path d="M247.11,54.9c0.87,0.87,1.16,2.1,1.16,3.35c0,7.17,0.05,21.74,0.05,31.51c0,3.21,0,5.88,0,7.54" style="fill:none;stroke:black;stroke-width:3" />
<circle cx="247.11" cy="54.9" r="5" stroke-width="0" fill="#FF2A00" opacity="0.7" />
<path d="M352.08,15c2.65,2.18,5.48,5.44,7.75,9.25" style="fill:none;stroke:#999;stroke-width:3" />
<path d="M341.08,36.5c2.58,0.51,5.31,0.36,7.69-0.45c4.58-1.36,12.65-3.82,15.06-4.55c2.5-0.75,4.67,0.95,3.25,3.25C358.75,48.25,351.5,57,339.0,69.25" style="fill:none;stroke:#999;stroke-width:3" />
<path d="M356.11,54.9c0.87,0.87,1.16,2.1,1.16,3.35c0,7.17,0.05,21.74,0.05,31.51c0,3.21,0,5.88,0,7.54" style="fill:none;stroke:#999;stroke-width:3" />
<path d="M370.25,46.64c0.04,1.06-0.1,1.83-0.5,2.45c-1.2,1.87-4.1,5.36-6.5,7.57" style="fill:none;stroke:black;stroke-width:3" />
<circle cx="370.25" cy="46.64" r="5" stroke-width="0" fill="#FF2A00" opacity="0.7" />
<path d="M461.08,15c2.65,2.18,5.48,5.44,7.75,9.25" style="fill:none;stroke:#999;stroke-width:3" />
<path d="M450.08,36.5c2.58,0.51,5.31,0.36,7.69-0.45c4.58-1.36,12.65-3.82,15.06-4.55c2.5-0.75,4.67,0.95,3.25,3.25C467.75,48.25,460.5,57,448.0,69.25" style="fill:none;stroke:#999;stroke-width:3" />
<path d="M465.11,54.9c0.87,0.87,1.16,2.1,1.16,3.35c0,7.17,0.05,21.74,0.05,31.51c0,3.21,0,5.88,0,7.54" style="fill:none;stroke:#999;stroke-width:3" />
<path d="M479.25,46.64c0.04,1.06-0.1,1.83-0.5,2.45c-1.2,1.87-4.1,5.36-6.5,7.57" style="fill:none;stroke:#999;stroke-width:3" />
<path d="M468.33,56.66c3.93,2.65,7.38,6.2,10.74,10.84" style="fill:none;stroke:black;stroke-width:3" />
<circle cx="468.33" cy="56.66" r="5" stroke-width="0" fill="#FF2A00" opacity="0.7" />
<path d="M570.0799999999999,15c2.65,2.18,5.48,5.44,7.75,9.25" style="fill:none;stroke:#999;stroke-width:3" />
<path d="M559.0799999999999,36.5c2.58,0.51,5.31,0.36,7.69-0.45c4.58-1.36,12.65-3.82,15.06-4.55c2.5-0.75,4.67,0.95,3.25,3.25C576.75,48.25,569.5,57,557.0,69.25" style="fill:none;stroke:#999;stroke-width:3" />
<path d="M574.11,54.9c0.87,0.87,1.16,2.1,1.16,3.35c0,7.17,0.05,21.74,0.05,31.51c0,3.21,0,5.88,0,7.54" style="fill:none;stroke:#999;stroke-width:3" />
<path d="M588.25,46.64c0.04,1.06-0.1,1.83-0.5,2.45c-1.2,1.87-4.1,5.36-6.5,7.57" style="fill:none;stroke:#999;stroke-width:3" />
<path d="M577.3299999999999,56.66c3.93,2.65,7.38,6.2,10.74,10.84" style="fill:none;stroke:#999;stroke-width:3" />
<path d="M611.37,12.75c0.04,1.22-0.38,2.25-1.04,3.22c-2.33,3.41-4.13,5.63-8.54,9.46" style="fill:none;stroke:black;stroke-width:3" />
<circle cx="611.37" cy="12.75" r="5" stroke-width="0" fill="#FF2A00" opacity="0.7" />
<path d="M679.0799999999999,15c2.65,2.18,5.48,5.44,7.75,9.25" style="fill:none;stroke:#999;stroke-width:3" />
<path d="M668.0799999999999,36.5c2.58,0.51,5.31,0.36,7.69-0.45c4.58-1.36,12.65-3.82,15.06-4.55c2.5-0.75,4.67,0.95,3.25,3.25C685.75,48.25,678.5,57,666.0,69.25" style="fill:none;stroke:#999;stroke-width:3" />
<path d="M683.11,54.9c0.87,0.87,1.16,2.1,1.16,3.35c0,7.17,0.05,21.74,0.05,31.51c0,3.21,0,5.88,0,7.54" style="fill:none;stroke:#999;stroke-width:3" />
<path d="M697.25,46.64c0.04,1.06-0.1,1.83-0.5,2.45c-1.2,1.87-4.1,5.36-6.5,7.57" style="fill:none;stroke:#999;stroke-width:3" />
<path d="M686.3299999999999,56.66c3.93,2.65,7.38,6.2,10.74,10.84" style="fill:none;stroke:#999;stroke-width:3" />
<path d="M720.37,12.75c0.04,1.22-0.38,2.25-1.04,3.22c-2.33,3.41-4.13,5.63-8.54,9.46" style="fill:none;stroke:#999;stroke-width:3" />
<path d="M704.47,27.42c0.87,0.87,1.07,1.92,1.03,3.54c-0.02,0.84,0.02,14.86,0.07,25.91c0.01,3.5,0.03,6.71,0.04,9.1" style="fill:none;stroke:black;stroke-width:3" />
<circle cx="704.47" cy="27.42" r="5" stroke-width="0" fill="#FF2A00" opacity="0.7" />
<path d="M788.0799999999999,15c2.65,2.18,5.48,5.44,7.75,9.25" style="fill:none;stroke:#999;stroke-width:3" />
<path d="M777.0799999999999,36.5c2.58,0.51,5.31,0.36,7.69-0.45c4.58-1.36,12.65-3.82,15.06-4.55c2.5-0.75,4.67,0.95,3.25,3.25C794.75,48.25,787.5,57,775.0,69.25" style="fill:none;stroke:#999;stroke-width:3" />
<path d="M792.11,54.9c0.87,0.87,1.16,2.1,1.16,3.35c0,7.17,0.05,21.74,0.05,31.51c0,3.21,0,5.88,0,7.54" style="fill:none;stroke:#999;stroke-width:3" />
<path d="M806.25,46.64c0.04,1.06-0.1,1.83-0.5,2.45c-1.2,1.87-4.1,5.36-6.5,7.57" style="fill:none;stroke:#999;stroke-width:3" />
<path d="M795.3299999999999,56.66c3.93,2.65,7.38,6.2,10.74,10.84" style="fill:none;stroke:#999;stroke-width:3" />
<path d="M829.37,12.75c0.04,1.22-0.38,2.25-1.04,3.22c-2.33,3.41-4.13,5.63-8.54,9.46" style="fill:none;stroke:#999;stroke-width:3" />
<path d="M813.47,27.42c0.87,0.87,1.07,1.92,1.03,3.54c-0.02,0.84,0.02,14.86,0.07,25.91c0.01,3.5,0.03,6.71,0.04,9.1" style="fill:none;stroke:#999;stroke-width:3" />
<path d="M815.75,28.76c4.4-0.85,24.49-3.05,30.2-3.92c3.53-0.54,4.95,0.87,4.94,4.16c-0.02,5.72-0.02,20.47-0.02,29.25c0,3.21,0,5.62,0,6.5" style="fill:none;stroke:black;stroke-width:3" />
<circle cx="815.75" cy="28.76" r="5" stroke-width="0" fill="#FF2A00" opacity="0.7" />
<path d="M897.0799999999999,15c2.65,2.18,5.48,5.44,7.75,9.25" style="fill:none;stroke:#999;stroke-width:3" />
<path d="M886.0799999999999,36.5c2.58,0.51,5.31,0.36,7.69-0.45c4.58-1.36,12.65-3.82,15.06-4.55c2.5-0.75,4.67,0.95,3.25,3.25C903.75,48.25,896.5,57,884.0,69.25" style="fill:none;stroke:#999;stroke-width:3" />
<path d="M901.11,54.9c0.87,0.87,1.16,2.1,1.16,3.35c0,7.17,0.05,21.74,0.05,31.51c0,3.21,0,5.88,0,7.54" style="fill:none;stroke:#999;stroke-width:3" />
<path d="M915.25,46.64c0.04,1.06-0.1,1.83-0.5,2.45c-1.2,1.87-4.1,5.36-6.5,7.57" style="fill:none;stroke:#999;stroke-width:3" />
<path d="M904.3299999999999,56.66c3.93,2.65,7.38,6.2,10.74,10.84" style="fill:none;stroke:#999;stroke-width:3" />
<path d="M938.37,12.75c0.04,1.22-0.38,2.25-1.04,3.22c-2.33,3.41-4.13,5.63-8.54,9.46" style="fill:none;stroke:#999;stroke-width:3" />
<path d="M922.47,27.42c0.87,0.87,1.07,1.92,1.03,3.54c-0.02,0.84,0.02,14.86,0.07,25.91c0.01,3.5,0.03,6.71,0.04,9.1" style="fill:none;stroke:#999;stroke-width:3" />
<path d="M924.75,28.76c4.4-0.85,24.49-3.05,30.2-3.92c3.53-0.54,4.95,0.87,4.94,4.16c-0.02,5.72-0.02,20.47-0.02,29.25c0,3.21,0,5.62,0,6.5" style="fill:none;stroke:#999;stroke-width:3" />
<path d="M930.49,36.64c1.52,0.88,3.81,3.62,4.19,4.99" style="fill:none;stroke:black;stroke-width:3" />
<circle cx="930.49" cy="36.64" r="5" stroke-width="0" fill="#FF2A00" opacity="0.7" />
<path d="M1006.0799999999999,15c2.65,2.18,5.48,5.44,7.75,9.25" style="fill:none;stroke:#999;stroke-width:3" />
<path d="M995.0799999999999,36.5c2.58,0.51,5.31,0.36,7.69-0.45c4.58-1.36,12.65-3.82,15.06-4.55c2.5-0.75,4.67,0.95,3.25,3.25C1012.75,48.25,1005.5,57,993.0,69.25" style="fill:none;stroke:#999;stroke-width:3" />
<path d="M1010.11,54.9c0.87,0.87,1.16,2.1,1.16,3.35c0,7.17,0.05,21.74,0.05,31.51c0,3.21,0,5.88,0,7.54" style="fill:none;stroke:#999;stroke-width:3" />
<path d="M1024.25,46.64c0.04,1.06-0.1,1.83-0.5,2.45c-1.2,1.87-4.1,5.36-6.5,7.57" style="fill:none;stroke:#999;stroke-width:3" />
<path d="M1013.3299999999999,56.66c3.93,2.65,7.38,6.2,10.74,10.84" style="fill:none;stroke:#999;stroke-width:3" />
<path d="M1047.37,12.75c0.04,1.22-0.38,2.25-1.04,3.22c-2.33,3.41-4.13,5.63-8.54,9.46" style="fill:none;stroke:#999;stroke-width:3" />
<path d="M1031.47,27.42c0.87,0.87,1.07,1.92,1.03,3.54c-0.02,0.84,0.02,14.86,0.07,25.91c0.01,3.5,0.03,6.71,0.04,9.1" style="fill:none;stroke:#999;stroke-width:3" />
<path d="M1033.75,28.76c4.4-0.85,24.49-3.05,30.2-3.92c3.53-0.54,4.95,0.87,4.94,4.16c-0.02,5.72-0.02,20.47-0.02,29.25c0,3.21,0,5.62,0,6.5" style="fill:none;stroke:#999;stroke-width:3" />
<path d="M1039.49,36.64c1.52,0.88,3.81,3.62,4.19,4.99" style="fill:none;stroke:#999;stroke-width:3" />
<path d="M1059.29,34.64c0.05,0.56-0.04,1.09-0.26,1.6c-0.69,1.92-2.58,5.06-5.04,7.08" style="fill:none;stroke:black;stroke-width:3" />
<circle cx="1059.29" cy="34.64" r="5" stroke-width="0" fill="#FF2A00" opacity="0.7" />
<path d="M1115.08,15c2.65,2.18,5.48,5.44,7.75,9.25" style="fill:none;stroke:#999;stroke-width:3" />
<path d="M1104.08,36.5c2.58,0.51,5.31,0.36,7.69-0.45c4.58-1.36,12.65-3.82,15.06-4.55c2.5-0.75,4.67,0.95,3.25,3.25C1121.75,48.25,1114.5,57,1102.0,69.25" style="fill:none;stroke:#999;stroke-width:3" />
<path d="M1119.1100000000001,54.9c0.87,0.87,1.16,2.1,1.16,3.35c0,7.17,0.05,21.74,0.05,31.51c0,3.21,0,5.88,0,7.54" style="fill:none;stroke:#999;stroke-width:3" />
<path d="M1133.25,46.64c0.04,1.06-0.1,1.83-0.5,2.45c-1.2,1.87-4.1,5.36-6.5,7.57" style="fill:none;stroke:#999;stroke-width:3" />
<path d="M1122.33,56.66c3.93,2.65,7.38,6.2,10.74,10.84" style="fill:none;stroke:#999;stroke-width:3" />
<path d="M1156.37,12.75c0.04,1.22-0.38,2.25-1.04,3.22c-2.33,3.41-4.13,5.63-8.54,9.46" style="fill:none;stroke:#999;stroke-width:3" />
<path d="M1140.47,27.42c0.87,0.87,1.07,1.92,1.03,3.54c-0.02,0.84,0.02,14.86,0.07,25.91c0.01,3.5,0.03,6.71,0.04,9.1" style="fill:none;stroke:#999;stroke-width:3" />
<path d="M1142.75,28.76c4.4-0.85,24.49-3.05,30.2-3.92c3.53-0.54,4.95,0.87,4.94,4.16c-0.02,5.72-0.02,20.47-0.02,29.25c0,3.21,0,5.62,0,6.5" style="fill:none;stroke:#999;stroke-width:3" />
<path d="M1148.49,36.64c1.52,0.88,3.81,3.62,4.19,4.99" style="fill:none;stroke:#999;stroke-width:3" />
<path d="M1168.29,34.64c0.05,0.56-0.04,1.09-0.26,1.6c-0.69,1.92-2.58,5.06-5.04,7.08" style="fill:none;stroke:#999;stroke-width:3" />
<path d="M1146.67,45.59c1.66,0.13,3.31,0.09,4.94-0.14c4.36-0.5,10.26-0.86,16.09-1.66c1.38-0.19,2.82-0.2,4.19-0.06" style="fill:none;stroke:black;stroke-width:3" />
<circle cx="1146.67" cy="45.59" r="5" stroke-width="0" fill="#FF2A00" opacity="0.7" />
<path d="M1224.08,15c2.65,2.18,5.48,5.44,7.75,9.25" style="fill:none;stroke:#999;stroke-width:3" />
<path d="M1213.08,36.5c2.58,0.51,5.31,0.36,7.69-0.45c4.58-1.36,12.65-3.82,15.06-4.55c2.5-0.75,4.67,0.95,3.25,3.25C1230.75,48.25,1223.5,57,1211.0,69.25" style="fill:none;stroke:#999;stroke-width:3" />
<path d="M1228.1100000000001,54.9c0.87,0.87,1.16,2.1,1.16,3.35c0,7.17,0.05,21.74,0.05,31.51c0,3.21,0,5.88,0,7.54" style="fill:none;stroke:#999;stroke-width:3" />
<path d="M1242.25,46.64c0.04,1.06-0.1,1.83-0.5,2.45c-1.2,1.87-4.1,5.36-6.5,7.57" style="fill:none;stroke:#999;stroke-width:3" />
<path d="M1231.33,56.66c3.93,2.65,7.38,6.2,10.74,10.84" style="fill:none;stroke:#999;stroke-width:3" />
<path d="M1265.37,12.75c0.04,1.22-0.38,2.25-1.04,3.22c-2.33,3.41-4.13,5.63-8.54,9.46" style="fill:none;stroke:#999;stroke-width:3" />
<path d="M1249.47,27.42c0.87,0.87,1.07,1.92,1.03,3.54c-0.02,0.84,0.02,14.86,0.07,25.91c0.01,3.5,0.03,6.71,0.04,9.1" style="fill:none;stroke:#999;stroke-width:3" />
<path d="M1251.75,28.76c4.4-0.85,24.49-3.05,30.2-3.92c3.53-0.54,4.95,0.87,4.94,4.16c-0.02,5.72-0.02,20.47-0.02,29.25c0,3.21,0,5.62,0,6.5" style="fill:none;stroke:#999;stroke-width:3" />
<path d="M1257.49,36.64c1.52,0.88,3.81,3.62,4.19,4.99" style="fill:none;stroke:#999;stroke-width:3" />
<path d="M1277.29,34.64c0.05,0.56-0.04,1.09-0.26,1.6c-0.69,1.92-2.58,5.06-5.04,7.08" style="fill:none;stroke:#999;stroke-width:3" />
<path d="M1255.67,45.59c1.66,0.13,3.31,0.09,4.94-0.14c4.36-0.5,10.26-0.86,16.09-1.66c1.38-0.19,2.82-0.2,4.19-0.06" style="fill:none;stroke:#999;stroke-width:3" />
<path d="M1267.4,32.65c0.71,0.62,0.97,1.6,0.96,2.33c-0.07,4.16-0.15,12.58-0.15,19.27c0,2.19,0,4.2,0.02,5.81" style="fill:none;stroke:black;stroke-width:3" />
<circle cx="1267.4" cy="32.65" r="5" stroke-width="0" fill="#FF2A00" opacity="0.7" />
<path d="M1333.08,15c2.65,2.18,5.48,5.44,7.75,9.25" style="fill:none;stroke:#999;stroke-width:3" />
<path d="M1322.08,36.5c2.58,0.51,5.31,0.36,7.69-0.45c4.58-1.36,12.65-3.82,15.06-4.55c2.5-0.75,4.67,0.95,3.25,3.25C1339.75,48.25,1332.5,57,1320.0,69.25" style="fill:none;stroke:#999;stroke-width:3" />
<path d="M1337.1100000000001,54.9c0.87,0.87,1.16,2.1,1.16,3.35c0,7.17,0.05,21.74,0.05,31.51c0,3.21,0,5.88,0,7.54" style="fill:none;stroke:#999;stroke-width:3" />
<path d="M1351.25,46.64c0.04,1.06-0.1,1.83-0.5,2.45c-1.2,1.87-4.1,5.36-6.5,7.57" style="fill:none;stroke:#999;stroke-width:3" />
<path d="M1340.33,56.66c3.93,2.65,7.38,6.2,10.74,10.84" style="fill:none;stroke:#999;stroke-width:3" />
<path d="M1374.37,12.75c0.04,1.22-0.38,2.25-1.04,3.22c-2.33,3.41-4.13,5.63-8.54,9.46" style="fill:none;stroke:#999;stroke-width:3" />
<path d="M1358.47,27.42c0.87,0.87,1.07,1.92,1.03,3.54c-0.02,0.84,0.02,14.86,0.07,25.91c0.01,3.5,0.03,6.71,0.04,9.1" style="fill:none;stroke:#999;stroke-width:3" />
<path d="M1360.75,28.76c4.4-0.85,24.49-3.05,30.2-3.92c3.53-0.54,4.95,0.87,4.94,4.16c-0.02,5.72-0.02,20.47-0.02,29.25c0,3.21,0,5.62,0,6.5" style="fill:none;stroke:#999;stroke-width:3" />
<path d="M1366.49,36.64c1.52,0.88,3.81,3.62,4.19,4.99" style="fill:none;stroke:#999;stroke-width:3" />
<path d="M1386.29,34.64c0.05,0.56-0.04,1.09-0.26,1.6c-0.69,1.92-2.58,5.06-5.04,7.08" style="fill:none;stroke:#999;stroke-width:3" />
<path d="M1364.67,45.59c1.66,0.13,3.31,0.09,4.94-0.14c4.36-0.5,10.26-0.86,16.09-1.66c1.38-0.19,2.82-0.2,4.19-0.06" style="fill:none;stroke:#999;stroke-width:3" />
<path d="M1376.4,32.65c0.71,0.62,0.97,1.6,0.96,2.33c-0.07,4.16-0.15,12.58-0.15,19.27c0,2.19,0,4.2,0.02,5.81" style="fill:none;stroke:#999;stroke-width:3" />
<path d="M1375.43,45.35c0.01,0.85-0.13,1.47-0.5,2.19c-2.53,4.87-5.82,7.7-10.26,10.77" style="fill:none;stroke:black;stroke-width:3" />
<circle cx="1375.43" cy="45.35" r="5" stroke-width="0" fill="#FF2A00" opacity="0.7" />
<path d="M1442.08,15c2.65,2.18,5.48,5.44,7.75,9.25" style="fill:none;stroke:#999;stroke-width:3" />
<path d="M1431.08,36.5c2.58,0.51,5.31,0.36,7.69-0.45c4.58-1.36,12.65-3.82,15.06-4.55c2.5-0.75,4.67,0.95,3.25,3.25C1448.75,48.25,1441.5,57,1429.0,69.25" style="fill:none;stroke:#999;stroke-width:3" />
<path d="M1446.1100000000001,54.9c0.87,0.87,1.16,2.1,1.16,3.35c0,7.17,0.05,21.74,0.05,31.51c0,3.21,0,5.88,0,7.54" style="fill:none;stroke:#999;stroke-width:3" />
<path d="M1460.25,46.64c0.04,1.06-0.1,1.83-0.5,2.45c-1.2,1.87-4.1,5.36-6.5,7.57" style="fill:none;stroke:#999;stroke-width:3" />
<path d="M1449.33,56.66c3.93,2.65,7.38,6.2,10.74,10.84" style="fill:none;stroke:#999;stroke-width:3" />
<path d="M1483.37,12.75c0.04,1.22-0.38,2.25-1.04,3.22c-2.33,3.41-4.13,5.63-8.54,9.46" style="fill:none;stroke:#999;stroke-width:3" />
<path d="M1467.47,27.42c0.87,0.87,1.07,1.92,1.03,3.54c-0.02,0.84,0.02,14.86,0.07,25.91c0.01,3.5,0.03,6.71,0.04,9.1" style="fill:none;stroke:#999;stroke-width:3" />
<path d="M1469.75,28.76c4.4-0.85,24.49-3.05,30.2-3.92c3.53-0.54,4.95,0.87,4.94,4.16c-0.02,5.72-0.02,20.47-0.02,29.25c0,3.21,0,5.62,0,6.5" style="fill:none;stroke:#999;stroke-width:3" />
<path d="M1475.49,36.64c1.52,0.88,3.81,3.62,4.19,4.99" style="fill:none;stroke:#999;stroke-width:3" />
<path d="M1495.29,34.64c0.05,0.56-0.04,1.09-0.26,1.6c-0.69,1.92-2.58,5.06-5.04,7.08" style="fill:none;stroke:#999;stroke-width:3" />
<path d="M1473.67,45.59c1.66,0.13,3.31,0.09,4.94-0.14c4.36-0.5,10.26-0.86,16.09-1.66c1.38-0.19,2.82-0.2,4.19-0.06" style="fill:none;stroke:#999;stroke-width:3" />
<path d="M1485.4,32.65c0.71,0.62,0.97,1.6,0.96,2.33c-0.07,4.16-0.15,12.58-0.15,19.27c0,2.19,0,4.2,0.02,5.81" style="fill:none;stroke:#999;stroke-width:3" />
<path d="M1484.43,45.35c0.01,0.85-0.13,1.47-0.5,2.19c-2.53,4.87-5.82,7.7-10.26,10.77" style="fill:none;stroke:#999;stroke-width:3" />
<path d="M1489.17,49.11c3.22,1.11,6.64,4.16,8.94,7.26" style="fill:none;stroke:black;stroke-width:3" />
<circle cx="1489.17" cy="49.11" r="5" stroke-width="0" fill="#FF2A00" opacity="0.7" />
<path d="M1551.08,15c2.65,2.18,5.48,5.44,7.75,9.25" style="fill:none;stroke:#999;stroke-width:3" />
<path d="M1540.08,36.5c2.58,0.51,5.31,0.36,7.69-0.45c4.58-1.36,12.65-3.82,15.06-4.55c2.5-0.75,4.67,0.95,3.25,3.25C1557.75,48.25,1550.5,57,1538.0,69.25" style="fill:none;stroke:#999;stroke-width:3" />
<path d="M1555.1100000000001,54.9c0.87,0.87,1.16,2.1,1.16,3.35c0,7.17,0.05,21.74,0.05,31.51c0,3.21,0,5.88,0,7.54" style="fill:none;stroke:#999;stroke-width:3" />
<path d="M1569.25,46.64c0.04,1.06-0.1,1.83-0.5,2.45c-1.2,1.87-4.1,5.36-6.5,7.57" style="fill:none;stroke:#999;stroke-width:3" />
<path d="M1558.33,56.66c3.93,2.65,7.38,6.2,10.74,10.84" style="fill:none;stroke:#999;stroke-width:3" />
<path d="M1592.37,12.75c0.04,1.22-0.38,2.25-1.04,3.22c-2.33,3.41-4.13,5.63-8.54,9.46" style="fill:none;stroke:#999;stroke-width:3" />
<path d="M1576.47,27.42c0.87,0.87,1.07,1.92,1.03,3.54c-0.02,0.84,0.02,14.86,0.07,25.91c0.01,3.5,0.03,6.71,0.04,9.1" style="fill:none;stroke:#999;stroke-width:3" />
<path d="M1578.75,28.76c4.4-0.85,24.49-3.05,30.2-3.92c3.53-0.54,4.95,0.87,4.94,4.16c-0.02,5.72-0.02,20.47-0.02,29.25c0,3.21,0,5.62,0,6.5" style="fill:none;stroke:#999;stroke-width:3" />
<path d="M1584.49,36.64c1.52,0.88,3.81,3.62,4.19,4.99" style="fill:none;stroke:#999;stroke-width:3" />
<path d="M1604.29,34.64c0.05,0.56-0.04,1.09-0.26,1.6c-0.69,1.92-2.58,5.06-5.04,7.08" style="fill:none;stroke:#999;stroke-width:3" />
<path d="M1582.67,45.59c1.66,0.13,3.31,0.09,4.94-0.14c4.36-0.5,10.26-0.86,16.09-1.66c1.38-0.19,2.82-0.2,4.19-0.06" style="fill:none;stroke:#999;stroke-width:3" />
<path d="M1594.4,32.65c0.71,0.62,0.97,1.6,0.96,2.33c-0.07,4.16-0.15,12.58-0.15,19.27c0,2.19,0,4.2,0.02,5.81" style="fill:none;stroke:#999;stroke-width:3" />
<path d="M1593.43,45.35c0.01,0.85-0.13,1.47-0.5,2.19c-2.53,4.87-5.82,7.7-10.26,10.77" style="fill:none;stroke:#999;stroke-width:3" />
<path d="M1598.17,49.11c3.22,1.11,6.64,4.16,8.94,7.26" style="fill:none;stroke:#999;stroke-width:3" />
<path d="M1569.19,72.76c2.73,0.61,5.46,0.75,8.19,0.42C1588.12,72.22,1602.79,71.19,1613.0,70.8c3.16-0.21,6.31,0.06,9.43,0.78" style="fill:none;stroke:black;stroke-width:3" />
<circle cx="1569.19" cy="72.76" r="5" stroke-width="0" fill="#FF2A00" opacity="0.7" />
<path d="M1660.08,15c2.65,2.18,5.48,5.44,7.75,9.25" style="fill:none;stroke:#999;stroke-width:3" />
<path d="M1649.08,36.5c2.58,0.51,5.31,0.36,7.69-0.45c4.58-1.36,12.65-3.82,15.06-4.55c2.5-0.75,4.67,0.95,3.25,3.25C1666.75,48.25,1659.5,57,1647.0,69.25" style="fill:none;stroke:#999;stroke-width:3" />
<path d="M1664.1100000000001,54.9c0.87,0.87,1.16,2.1,1.16,3.35c0,7.17,0.05,21.74,0.05,31.51c0,3.21,0,5.88,0,7.54" style="fill:none;stroke:#999;stroke-width:3" />
<path d="M1678.25,46.64c0.04,1.06-0.1,1.83-0.5,2.45c-1.2,1.87-4.1,5.36-6.5,7.57" style="fill:none;stroke:#999;stroke-width:3" />
<path d="M1667.33,56.66c3.93,2.65,7.38,6.2,10.74,10.84" style="fill:none;stroke:#999;stroke-width:3" />
<path d="M1701.37,12.75c0.04,1.22-0.38,2.25-1.04,3.22c-2.33,3.41-4.13,5.63-8.54,9.46" style="fill:none;stroke:#999;stroke-width:3" />
<path d="M1685.47,27.42c0.87,0.87,1.07,1.92,1.03,3.54c-0.02,0.84,0.02,14.86,0.07,25.91c0.01,3.5,0.03,6.71,0.04,9.1" style="fill:none;stroke:#999;stroke-width:3" />
<path d="M1687.75,28.76c4.4-0.85,24.49-3.05,30.2-3.92c3.53-0.54,4.95,0.87,4.94,4.16c-0.02,5.72-0.02,20.47-0.02,29.25c0,3.21,0,5.62,0,6.5" style="fill:none;stroke:#999;stroke-width:3" />
<path d="M1693.49,36.64c1.52,0.88,3.81,3.62,4.19,4.99" style="fill:none;stroke:#999;stroke-width:3" />
<path d="M1713.29,34.64c0.05,0.56-0.04,1.09-0.26,1.6c-0.69,1.92-2.58,5.06-5.04,7.08" style="fill:none;stroke:#999;stroke-width:3" />
<path d="M1691.67,45.59c1.66,0.13,3.31,0.09,4.94-0.14c4.36-0.5,10.26-0.86,16.09-1.66c1.38-0.19,2.82-0.2,4.19-0.06" style="fill:none;stroke:#999;stroke-width:3" />
<path d="M1703.4,32.65c0.71,0.62,0.97,1.6,0.96,2.33c-0.07,4.16-0.15,12.58-0.15,19.27c0,2.19,0,4.2,0.02,5.81" style="fill:none;stroke:#999;stroke-width:3" />
<path d="M1702.43,45.35c0.01,0.85-0.13,1.47-0.5,2.19c-2.53,4.87-5.82,7.7-10.26,10.77" style="fill:none;stroke:#999;stroke-width:3" />
<path d="M1707.17,49.11c3.22,1.11,6.64,4.16,8.94,7.26" style="fill:none;stroke:#999;stroke-width:3" />
<path d="M1678.19,72.76c2.73,0.61,5.46,0.75,8.19,0.42C1697.12,72.22,1711.79,71.19,1722.0,70.8c3.16-0.21,6.31,0.06,9.43,0.78" style="fill:none;stroke:#999;stroke-width:3" />
<path d="M1703.2,64.42c0.55,1.2,0.65,2.34,0.38,3.51c-2.37,12.73-11.19,23.5-26.3,29.32" style="fill:none;stroke:black;stroke-width:3" />
<circle cx="1703.2" cy="64.42" r="5" stroke-width="0" fill="#FF2A00" opacity="0.7" />
<path d="M1769.08,15c2.65,2.18,5.48,5.44,7.75,9.25" style="fill:none;stroke:#999;stroke-width:3" />
<path d="M1758.08,36.5c2.58,0.51,5.31,0.36,7.69-0.45c4.58-1.36,12.65-3.82,15.06-4.55c2.5-0.75,4.67,0.95,3.25,3.25C1775.75,48.25,1768.5,57,1756.0,69.25" style="fill:none;stroke:#999;stroke-width:3" />
<path d="M1773.1100000000001,54.9c0.87,0.87,1.16,2.1,1.16,3.35c0,7.17,0.05,21.74,0.05,31.51c0,3.21,0,5.88,0,7.54" style="fill:none;stroke:#999;stroke-width:3" />
<path d="M1787.25,46.64c0.04,1.06-0.1,1.83-0.5,2.45c-1.2,1.87-4.1,5.36-6.5,7.57" style="fill:none;stroke:#999;stroke-width:3" />
<path d="M1776.33,56.66c3.93,2.65,7.38,6.2,10.74,10.84" style="fill:none;stroke:#999;stroke-width:3" />
<path d="M1810.37,12.75c0.04,1.22-0.38,2.25-1.04,3.22c-2.33,3.41-4.13,5.63-8.54,9.46" style="fill:none;stroke:#999;stroke-width:3" />
<path d="M1794.47,27.42c0.87,0.87,1.07,1.92,1.03,3.54c-0.02,0.84,0.02,14.86,0.07,25.91c0.01,3.5,0.03,6.71,0.04,9.1" style="fill:none;stroke:#999;stroke-width:3" />
<path d="M1796.75,28.76c4.4-0.85,24.49-3.05,30.2-3.92c3.53-0.54,4.95,0.87,4.94,4.16c-0.02,5.72-0.02,20.47-0.02,29.25c0,3.21,0,5.62,0,6.5" style="fill:none;stroke:#999;stroke-width:3" />
<path d="M1802.49,36.64c1.52,0.88,3.81,3.62,4.19,4.99" style="fill:none;stroke:#999;stroke-width:3" />
<path d="M1822.29,34.64c0.05,0.56-0.04,1.09-0.26,1.6c-0.69,1.92-2.58,5.06-5.04,7.08" style="fill:none;stroke:#999;stroke-width:3" />
<path d="M1800.67,45.59c1.66,0.13,3.31,0.09,4.94-0.14c4.36-0.5,10.26-0.86,16.09-1.66c1.38-0.19,2.82-0.2,4.19-0.06" style="fill:none;stroke:#999;stroke-width:3" />
<path d="M1812.4,32.65c0.71,0.62,0.97,1.6,0.96,2.33c-0.07,4.16-0.15,12.58-0.15,19.27c0,2.19,0,4.2,0.02,5.81" style="fill:none;stroke:#999;stroke-width:3" />
<path d="M1811.43,45.35c0.01,0.85-0.13,1.47-0.5,2.19c-2.53,4.87-5.82,7.7-10.26,10.77" style="fill:none;stroke:#999;stroke-width:3" />
<path d="M1816.17,49.11c3.22,1.11,6.64,4.16,8.94,7.26" style="fill:none;stroke:#999;stroke-width:3" />
<path d="M1787.19,72.76c2.73,0.61,5.46,0.75,8.19,0.42C1806.12,72.22,1820.79,71.19,1831.0,70.8c3.16-0.21,6.31,0.06,9.43,0.78" style="fill:none;stroke:#999;stroke-width:3" />
<path d="M1812.2,64.42c0.55,1.2,0.65,2.34,0.38,3.51c-2.37,12.73-11.19,23.5-26.3,29.32" style="fill:none;stroke:#999;stroke-width:3" />
<path d="M1813.25,73.36c4.47,4.12,11.93,11.6,17.87,16.52c2.58,2.23,5.5,3.95,8.75,5.18" style="fill:none;stroke:black;stroke-width:3" />
<circle cx="1813.25" cy="73.36" r="5" stroke-width="0" fill="#FF2A00" opacity="0.7" />
</svg>