<svg width="1090px" height="109px" viewBox="0 0 1090px 109px" xmlns="http://www.w3.org/2000/svg" xmlns:xlink="http://www.w3.org/1999/xlink" xml:space="preserve" version="1.1"  baseProfile="full">
<line x1="1" y1="1" x2="1089" y2="1" style="stroke:#ddd;stroke-width:2" />
<line x1="1" y1="1" x2="1" y2="108" style="stroke:#ddd;stroke-width:2" />
<line x1="1" y1="108" x2="1089" y2="108" style="stroke:#ddd;stroke-width:2" />
<line x1="1089" y1="1" x2="1089" y2="108" style="stroke:#ddd;stroke-width:2" />
<line x1="109" y1="1" x2="109" y2="108" style="stroke:#ddd;stroke-width:2" />
<line x1="218" y1="1" x2="218" y2="108" style="stroke:#ddd;stroke-width:2" />
<line x1="327" y1="1" x2="327" y2="108" style="stroke:#ddd;stroke-width:2" />
<line x1="436" y1="1" x2="436" y2="108" style="stroke:#ddd;stroke-width:2" />
<line x1="545" y1="1" x2="545" y2="108" style="stroke:#ddd;stroke-width:2" />
<line x1="654" y1="1" x2="654" y2="108" style="stroke:#ddd;stroke-width:2" />
<line x1="763" y1="1" x2="763" y2="108" style="stroke:#ddd;stroke-width:2" />
<line x1="872" y1="1" x2="872" y2="108" style="stroke:#ddd;stroke-width:2" />
<line x1="981" y1="1" x2="981" y2="108" style="stroke:#ddd;stroke-width:2" />
<line x1="1" y1="54" x2="1089" y2="54" style="stroke:#ddd;stroke-width:2;stroke-dasharray:3 3" />
<line x1="55" y1="1" x2="55" y2="108" style="stroke:#ddd;stroke-width:2;stroke-dasharray:3 3" />
<line x1="164" y1="1" x2="164" y2="108" style="stroke:#ddd;stroke-width:2;stroke-dasharray:3 3" />
<line x1="273" y1="1" x2="273" y2="108" style="stroke:#ddd;stroke-width:2;stroke-dasharray:3 3" />
<line x1="382" y1="1" x2="382" y2="108" style="stroke:#ddd;stroke-width:2;stroke-dasharray:3 3" />
<line x1="491" y1="1" x2="491" y2="108" style="stroke:#ddd;stroke-width:2;stroke-dasharray:3 3" />
<line x1="600" y1="1" x2="600" y2="108" style="stroke:#ddd;stroke-width:2;stroke-dasharray:3 3" />
<line x1="709" y1="1" x2="709" y2="108" style="stroke:#ddd;stroke-width:2;stroke-dasharray:3 3" />
<line x1="818" y1="1" x2="818" y2="108" style="stroke:#ddd;stroke-width:2;stroke-dasharray:3 3" />
<line x1="927" y1="1" x2="927" y2="108" style="stroke:#ddd;stroke-width:2;stroke-dasharray:3 3" />
<line x1="1036" y1="1" x2="1036" y2="108" style="stroke:#ddd;stroke-width:2;stroke-dasharray:3 3" />
<path d="M21.88,13.75c2.87,1.5,7.41,6.17,8.12,8.5" style="fill:none;stroke:black;stroke-width:3" />
<circle cx="21.88" cy="13.75" r="5" stroke-width="0" fill="#FF2A00" opacity="0.7" />
<path d="M130.88,13.75c2.87,1.5,7.41,6.17,8.12,8.5" style="fill:none;stroke:#999;stroke-width:3" />
<path d="M119.37,32.13c2.25,0.29,4.5,0.53,6.76,0.26c7.5-0.89,13.5-1.89,19.51-2.54c1.81-0.19,2.57-0.28,4.71-0.23" style="fill:none;stroke:black;stroke-width:3" />
<circle cx="119.37" cy="32.13" r="5" stroke-width="0" fill="#FF2A00" opacity="0.7" />
<path d="M239.88,13.75c2.87,1.5,7.41,6.17,8.12,8.5" style="fill:none;stroke:#999;stroke-width:3" />
<path d="M228.37,32.13c2.25,0.29,4.5,0.53,6.76,0.26c7.5-0.89,13.5-1.89,19.51-2.54c1.81-0.19,2.57-0.28,4.71-0.23" style="fill:none;stroke:#999;stroke-width:3" />
<path d="M235.48,46.06c1.43,0.17,2.85,0.18,4.28,0.04c3.37-0.32,7.15-1.43,10.72-2.05c1.43-0.25,3.23-0.58,4.67-0.3" style="fill:none;stroke:black;stroke-width:3" />
<circle cx="235.48" cy="46.06" r="5" stroke-width="0" fill="#FF2A00" opacity="0.7" />
<path d="M348.88,13.75c2.87,1.5,7.41,6.17,8.12,8.5" style="fill:none;stroke:#999;stroke-width:3" />
<path d="M337.37,32.13c2.25,0.29,4.5,0.53,6.76,0.26c7.5-0.89,13.5-1.89,19.51-2.54c1.81-0.19,2.57-0.28,4.71-0.23" style="fill:none;stroke:#999;stroke-width:3" />
<path d="M344.48,46.06c1.43,0.17,2.85,0.18,4.28,0.04c3.37-0.32,7.15-1.43,10.72-2.05c1.43-0.25,3.23-0.58,4.67-0.3" style="fill:none;stroke:#999;stroke-width:3" />
<path d="M344.73,58.08c1.34,0.17,2.68,0.17,4.02,0.01c3.51-0.41,8.07-0.91,11.89-1.4c1.29-0.19,2.59-0.26,3.9-0.22" style="fill:none;stroke:black;stroke-width:3" />
<circle cx="344.73" cy="58.08" r="5" stroke-width="0" fill="#FF2A00" opacity="0.7" />
<path d="M457.88,13.75c2.87,1.5,7.41,6.17,8.12,8.5" style="fill:none;stroke:#999;stroke-width:3" />
<path d="M446.37,32.13c2.25,0.29,4.5,0.53,6.76,0.26c7.5-0.89,13.5-1.89,19.51-2.54c1.81-0.19,2.57-0.28,4.71-0.23" style="fill:none;stroke:#999;stroke-width:3" />
<path d="M453.48,46.06c1.43,0.17,2.85,0.18,4.28,0.04c3.37-0.32,7.15-1.43,10.72-2.05c1.43-0.25,3.23-0.58,4.67-0.3" style="fill:none;stroke:#999;stroke-width:3" />
<path d="M453.73,58.08c1.34,0.17,2.68,0.17,4.02,0.01c3.51-0.41,8.07-0.91,11.89-1.4c1.29-0.19,2.59-0.26,3.9-0.22" style="fill:none;stroke:#999;stroke-width:3" />
<path d="M452.64,70.9c0.74,0.72,0.99,1.47,1.23,2.82c0.58,3.19,1.36,7.56,2.09,11.78c0.28,1.63,0.55,3.24,0.79,4.75" style="fill:none;stroke:black;stroke-width:3" />
<circle cx="452.64" cy="70.9" r="5" stroke-width="0" fill="#FF2A00" opacity="0.7" />
<path d="M566.88,13.75c2.87,1.5,7.41,6.17,8.12,8.5" style="fill:none;stroke:#999;stroke-width:3" />
<path d="M555.37,32.13c2.25,0.29,4.5,0.53,6.76,0.26c7.5-0.89,13.5-1.89,19.51-2.54c1.81-0.19,2.57-0.28,4.71-0.23" style="fill:none;stroke:#999;stroke-width:3" />
<path d="M562.48,46.06c1.43,0.17,2.85,0.18,4.28,0.04c3.37-0.32,7.15-1.43,10.72-2.05c1.43-0.25,3.23-0.58,4.67-0.3" style="fill:none;stroke:#999;stroke-width:3" />
<path d="M562.73,58.08c1.34,0.17,2.68,0.17,4.02,0.01c3.51-0.41,8.07-0.91,11.89-1.4c1.29-0.19,2.59-0.26,3.9-0.22" style="fill:none;stroke:#999;stroke-width:3" />
<path d="M561.64,70.9c0.74,0.72,0.99,1.47,1.23,2.82c0.58,3.19,1.36,7.56,2.09,11.78c0.28,1.63,0.55,3.24,0.79,4.75" style="fill:none;stroke:#999;stroke-width:3" />
<path d="M563.56,71.62c5.91-0.82,11.7-1.69,17.21-2.53c2.61-0.39,3.88,1.05,3.25,3.57c-0.85,3.38-1.98,6.24-3.34,12.3" style="fill:none;stroke:black;stroke-width:3" />
<circle cx="563.56" cy="71.62" r="5" stroke-width="0" fill="#FF2A00" opacity="0.7" />
<path d="M675.88,13.75c2.87,1.5,7.41,6.17,8.12,8.5" style="fill:none;stroke:#999;stroke-width:3" />
<path d="M664.37,32.13c2.25,0.29,4.5,0.53,6.76,0.26c7.5-0.89,13.5-1.89,19.51-2.54c1.81-0.19,2.57-0.28,4.71-0.23" style="fill:none;stroke:#999;stroke-width:3" />
<path d="M671.48,46.06c1.43,0.17,2.85,0.18,4.28,0.04c3.37-0.32,7.15-1.43,10.72-2.05c1.43-0.25,3.23-0.58,4.67-0.3" style="fill:none;stroke:#999;stroke-width:3" />
<path d="M671.73,58.08c1.34,0.17,2.68,0.17,4.02,0.01c3.51-0.41,8.07-0.91,11.89-1.4c1.29-0.19,2.59-0.26,3.9-0.22" style="fill:none;stroke:#999;stroke-width:3" />
<path d="M670.64,70.9c0.74,0.72,0.99,1.47,1.23,2.82c0.58,3.19,1.36,7.56,2.09,11.78c0.28,1.63,0.55,3.24,0.79,4.75" style="fill:none;stroke:#999;stroke-width:3" />
<path d="M672.56,71.62c5.91-0.82,11.7-1.69,17.21-2.53c2.61-0.39,3.88,1.05,3.25,3.57c-0.85,3.38-1.98,6.24-3.34,12.3" style="fill:none;stroke:#999;stroke-width:3" />
<path d="M675.47,87.8c3.4-0.38,6.46-0.69,10.54-1.15c1.68-0.19,3.53-0.4,5.65-0.66" style="fill:none;stroke:black;stroke-width:3" />
<circle cx="675.47" cy="87.8" r="5" stroke-width="0" fill="#FF2A00" opacity="0.7" />
<path d="M784.88,13.75c2.87,1.5,7.41,6.17,8.12,8.5" style="fill:none;stroke:#999;stroke-width:3" />
<path d="M773.37,32.13c2.25,0.29,4.5,0.53,6.76,0.26c7.5-0.89,13.5-1.89,19.51-2.54c1.81-0.19,2.57-0.28,4.71-0.23" style="fill:none;stroke:#999;stroke-width:3" />
<path d="M780.48,46.06c1.43,0.17,2.85,0.18,4.28,0.04c3.37-0.32,7.15-1.43,10.72-2.05c1.43-0.25,3.23-0.58,4.67-0.3" style="fill:none;stroke:#999;stroke-width:3" />
<path d="M780.73,58.08c1.34,0.17,2.68,0.17,4.02,0.01c3.51-0.41,8.07-0.91,11.89-1.4c1.29-0.19,2.59-0.26,3.9-0.22" style="fill:none;stroke:#999;stroke-width:3" />
<path d="M779.64,70.9c0.74,0.72,0.99,1.47,1.23,2.82c0.58,3.19,1.36,7.56,2.09,11.78c0.28,1.63,0.55,3.24,0.79,4.75" style="fill:none;stroke:#999;stroke-width:3" />
<path d="M781.56,71.62c5.91-0.82,11.7-1.69,17.21-2.53c2.61-0.39,3.88,1.05,3.25,3.57c-0.85,3.38-1.98,6.24-3.34,12.3" style="fill:none;stroke:#999;stroke-width:3" />
<path d="M784.47,87.8c3.4-0.38,6.46-0.69,10.54-1.15c1.68-0.19,3.53-0.4,5.65-0.66" style="fill:none;stroke:#999;stroke-width:3" />
<path d="M809.75,21c2.85,0.54,5.65,0.28,8.51-0.21C828.5,19,833.25,18.12,839.75,17c3.94-0.68,6.01,0.96,5.5,4.75C842.5,42,839.5,71,854.0,89.75c6.27,8.11,6.25,3.5,6.5-3" style="fill:none;stroke:black;stroke-width:3" />
<circle cx="809.75" cy="21.0" r="5" stroke-width="0" fill="#FF2A00" opacity="0.7" />
<path d="M893.88,13.75c2.87,1.5,7.41,6.17,8.12,8.5" style="fill:none;stroke:#999;stroke-width:3" />
<path d="M882.37,32.13c2.25,0.29,4.5,0.53,6.76,0.26c7.5-0.89,13.5-1.89,19.51-2.54c1.81-0.19,2.57-0.28,4.71-0.23" style="fill:none;stroke:#999;stroke-width:3" />
<path d="M889.48,46.06c1.43,0.17,2.85,0.18,4.28,0.04c3.37-0.32,7.15-1.43,10.72-2.05c1.43-0.25,3.23-0.58,4.67-0.3" style="fill:none;stroke:#999;stroke-width:3" />
<path d="M889.73,58.08c1.34,0.17,2.68,0.17,4.02,0.01c3.51-0.41,8.07-0.91,11.89-1.4c1.29-0.19,2.59-0.26,3.9-0.22" style="fill:none;stroke:#999;stroke-width:3" />
<path d="M888.64,70.9c0.74,0.72,0.99,1.47,1.23,2.82c0.58,3.19,1.36,7.56,2.09,11.78c0.28,1.63,0.55,3.24,0.79,4.75" style="fill:none;stroke:#999;stroke-width:3" />
<path d="M890.56,71.62c5.91-0.82,11.7-1.69,17.21-2.53c2.61-0.39,3.88,1.05,3.25,3.57c-0.85,3.38-1.98,6.24-3.34,12.3" style="fill:none;stroke:#999;stroke-width:3" />
<path d="M893.47,87.8c3.4-0.38,6.46-0.69,10.54-1.15c1.68-0.19,3.53-0.4,5.65-0.66" style="fill:none;stroke:#999;stroke-width:3" />
<path d="M918.75,21c2.85,0.54,5.65,0.28,8.51-0.21C937.5,19,942.25,18.12,948.75,17c3.94-0.68,6.01,0.96,5.5,4.75C951.5,42,948.5,71,963.0,89.75c6.27,8.11,6.25,3.5,6.5-3" style="fill:none;stroke:#999;stroke-width:3" />
<path d="M916.75,52.28c1.12,1.1,2.48,1.16,4.01,0.75c10.12-2.66,17.61-4.58,24.62-6.41" style="fill:none;stroke:black;stroke-width:3" />
<circle cx="916.75" cy="52.28" r="5" stroke-width="0" fill="#FF2A00" opacity="0.7" />
<path d="M1002.88,13.75c2.87,1.5,7.41,6.17,8.12,8.5" style="fill:none;stroke:#999;stroke-width:3" />
<path d="M991.37,32.13c2.25,0.29,4.5,0.53,6.76,0.26c7.5-0.89,13.5-1.89,19.51-2.54c1.81-0.19,2.57-0.28,4.71-0.23" style="fill:none;stroke:#999;stroke-width:3" />
<path d="M998.48,46.06c1.43,0.17,2.85,0.18,4.28,0.04c3.37-0.32,7.15-1.43,10.72-2.05c1.43-0.25,3.23-0.58,4.67-0.3" style="fill:none;stroke:#999;stroke-width:3" />
<path d="M998.73,58.08c1.34,0.17,2.68,0.17,4.02,0.01c3.51-0.41,8.07-0.91,11.89-1.4c1.29-0.19,2.59-0.26,3.9-0.22" style="fill:none;stroke:#999;stroke-width:3" />
<path d="M997.64,70.9c0.74,0.72,0.99,1.47,1.23,2.82c0.58,3.19,1.36,7.56,2.09,11.78c0.28,1.63,0.55,3.24,0.79,4.75" style="fill:none;stroke:#999;stroke-width:3" />
<path d="M999.56,71.62c5.91-0.82,11.7-1.69,17.21-2.53c2.61-0.39,3.88,1.05,3.25,3.57c-0.85,3.38-1.98,6.24-3.34,12.3" style="fill:none;stroke:#999;stroke-width:3" />
<path d="M1002.47,87.8c3.4-0.38,6.46-0.69,10.54-1.15c1.68-0.19,3.53-0.4,5.65-0.66" style="fill:none;stroke:#999;stroke-width:3" />
<path d="M1027.75,21c2.85,0.54,5.65,0.28,8.51-0.21C1046.5,19,1051.25,18.12,1057.75,17c3.94-0.68,6.01,0.96,5.5,4.75C1060.5,42,1057.5,71,1072.0,89.75c6.27,8.11,6.25,3.5,6.5-3" style="fill:none;stroke:#999;stroke-width:3" />
<path d="M1025.75,52.28c1.12,1.1,2.48,1.16,4.01,0.75c10.12-2.66,17.61-4.58,24.62-6.41" style="fill:none;stroke:#999;stroke-width:3" />
<path d="M1041.34,27.28c1.25,1.25,1.53,2.84,1.53,4.65c0,20.32-0.5,47.19-18.31,61.81" style="fill:none;stroke:black;stroke-width:3" />
<circle cx="1041.34" cy="27.28" r="5" stroke-width="0" fill="#FF2A00" opacity="0.7" />
</svg>