<svg width="1308px" height="109px" viewBox="0 0 1308px 109px" xmlns="http://www.w3.org/2000/svg" xmlns:xlink="http://www.w3.org/1999/xlink" xml:space="preserve" version="1.1"  baseProfile="full">
<line x1="1" y1="1" x2="1307" y2="1" style="stroke:#ddd;stroke-width:2" />
<line x1="1" y1="1" x2="1" y2="108" style="stroke:#ddd;stroke-width:2" />
<line x1="1" y1="108" x2="1307" y2="108" style="stroke:#ddd;stroke-width:2" />
<line x1="1307" y1="1" x2="1307" y2="108" style="stroke:#ddd;stroke-width:2" />
<line x1="109" y1="1" x2="109" y2="108" style="stroke:#ddd;stroke-width:2" />
<line x1="218" y1="1" x2="218" y2="108" style="stroke:#ddd;stroke-width:2" />
<line x1="327" y1="1" x2="327" y2="108" style="stroke:#ddd;stroke-width:2" />
<line x1="436" y1="1" x2="436" y2="108" style="stroke:#ddd;stroke-width:2" />
<line x1="545" y1="1" x2="545" y2="108" style="stroke:#ddd;stroke-width:2" />
<line x1="654" y1="1" x2="654" y2="108" style="stroke:#ddd;stroke-width:2" />
<line x1="763" y1="1" x2="763" y2="108" style="stroke:#ddd;stroke-width:2" />
<line x1="872" y1="1" x2="872" y2="108" style="stroke:#ddd;stroke-width:2" />
<line x1="981" y1="1" x2="981" y2="108" style="stroke:#ddd;stroke-width:2" />
<line x1="1090" y1="1" x2="1090" y2="108" style="stroke:#ddd;stroke-width:2" />
<line x1="1199" y1="1" x2="1199" y2="108" style="stroke:#ddd;stroke-width:2" />
<line x1="1" y1="54" x2="1307" y2="54" style="stroke:#ddd;stroke-width:2;stroke-dasharray:3 3" />
<line x1="55" y1="1" x2="55" y2="108" style="stroke:#ddd;stroke-width:2;stroke-dasharray:3 3" />
<line x1="164" y1="1" x2="164" y2="108" style="stroke:#ddd;stroke-width:2;stroke-dasharray:3 3" />
<line x1="273" y1="1" x2="273" y2="108" style="stroke:#ddd;stroke-width:2;stroke-dasharray:3 3" />
<line x1="382" y1="1" x2="382" y2="108" style="stroke:#ddd;stroke-width:2;stroke-dasharray:3 3" />
<line x1="491" y1="1" x2="491" y2="108" style="stroke:#ddd;stroke-width:2;stroke-dasharray:3 3" />
<line x1="600" y1="1" x2="600" y2="108" style="stroke:#ddd;stroke-width:2;stroke-dasharray:3 3" />
<line x1="709" y1="1" x2="709" y2="108" style="stroke:#ddd;stroke-width:2;stroke-dasharray:3 3" />
<line x1="818" y1="1" x2="818" y2="108" style="stroke:#ddd;stroke-width:2;stroke-dasharray:3 3" />
<line x1="927" y1="1" x2="927" y2="108" style="stroke:#ddd;stroke-width:2;stroke-dasharray:3 3" />
<line x1="1036" y1="1" x2="1036" y2="108" style="stroke:#ddd;stroke-width:2;stroke-dasharray:3 3" />
<line x1="1145" y1="1" x2="1145" y2="108" style="stroke:#ddd;stroke-width:2;stroke-dasharray:3 3" />
<line x1="1254" y1="1" x2="1254" y2="108" style="stroke:#ddd;stroke-width:2;stroke-dasharray:3 3" />
<path d="M22.88,15.5c2.96,1.81,7.63,7.44,8.37,10.25" style="fill:none;stroke:black;stroke-width:3" />
<circle cx="22.88" cy="15.5" r="5" stroke-width="0" fill="#FF2A00" opacity="0.7" />
<path d="M131.88,15.5c2.96,1.81,7.63,7.44,8.37,10.25" style="fill:none;stroke:#999;stroke-width:3" />
<path d="M119.37,35.08c0.63,0.23,3.04,0.27,3.67,0.23c7.8-0.42,19.47-2.67,25.14-2.87c1.05-0.04,2.64,0.11,3.16,0.23" style="fill:none;stroke:black;stroke-width:3" />
<circle cx="119.37" cy="35.08" r="5" stroke-width="0" fill="#FF2A00" opacity="0.7" />
<path d="M240.88,15.5c2.96,1.81,7.63,7.44,8.37,10.25" style="fill:none;stroke:#999;stroke-width:3" />
<path d="M228.37,35.08c0.63,0.23,3.04,0.27,3.67,0.23c7.8-0.42,19.47-2.67,25.14-2.87c1.05-0.04,2.64,0.11,3.16,0.23" style="fill:none;stroke:#999;stroke-width:3" />
<path d="M235.73,48.56c0.38,0.12,2.71,0.13,3.1,0.12c3.97-0.14,9.8-2.06,13.71-2.05c0.63,0,3.29,0.06,3.61,0.12" style="fill:none;stroke:black;stroke-width:3" />
<circle cx="235.73" cy="48.56" r="5" stroke-width="0" fill="#FF2A00" opacity="0.7" />
<path d="M349.88,15.5c2.96,1.81,7.63,7.44,8.37,10.25" style="fill:none;stroke:#999;stroke-width:3" />
<path d="M337.37,35.08c0.63,0.23,3.04,0.27,3.67,0.23c7.8-0.42,19.47-2.67,25.14-2.87c1.05-0.04,2.64,0.11,3.16,0.23" style="fill:none;stroke:#999;stroke-width:3" />
<path d="M344.73,48.56c0.38,0.12,2.71,0.13,3.1,0.12c3.97-0.14,9.8-2.06,13.71-2.05c0.63,0,3.29,0.06,3.61,0.12" style="fill:none;stroke:#999;stroke-width:3" />
<path d="M346.23,61.33c0.34,0.12,2.42,0.13,2.77,0.12c3.55-0.13,9.32-2.11,12.81-2.09c0.57,0,2.94,0.06,3.22,0.11" style="fill:none;stroke:black;stroke-width:3" />
<circle cx="346.23" cy="61.33" r="5" stroke-width="0" fill="#FF2A00" opacity="0.7" />
<path d="M458.88,15.5c2.96,1.81,7.63,7.44,8.37,10.25" style="fill:none;stroke:#999;stroke-width:3" />
<path d="M446.37,35.08c0.63,0.23,3.04,0.27,3.67,0.23c7.8-0.42,19.47-2.67,25.14-2.87c1.05-0.04,2.64,0.11,3.16,0.23" style="fill:none;stroke:#999;stroke-width:3" />
<path d="M453.73,48.56c0.38,0.12,2.71,0.13,3.1,0.12c3.97-0.14,9.8-2.06,13.71-2.05c0.63,0,3.29,0.06,3.61,0.12" style="fill:none;stroke:#999;stroke-width:3" />
<path d="M455.23,61.33c0.34,0.12,2.42,0.13,2.77,0.12c3.55-0.13,9.32-2.11,12.81-2.09c0.57,0,2.94,0.06,3.22,0.11" style="fill:none;stroke:#999;stroke-width:3" />
<path d="M453.64,73.9c0.35,0.36,0.75,0.65,0.86,1.13c0.99,4.21,2.25,12.04,3.25,18.21" style="fill:none;stroke:black;stroke-width:3" />
<circle cx="453.64" cy="73.9" r="5" stroke-width="0" fill="#FF2A00" opacity="0.7" />
<path d="M567.88,15.5c2.96,1.81,7.63,7.44,8.37,10.25" style="fill:none;stroke:#999;stroke-width:3" />
<path d="M555.37,35.08c0.63,0.23,3.04,0.27,3.67,0.23c7.8-0.42,19.47-2.67,25.14-2.87c1.05-0.04,2.64,0.11,3.16,0.23" style="fill:none;stroke:#999;stroke-width:3" />
<path d="M562.73,48.56c0.38,0.12,2.71,0.13,3.1,0.12c3.97-0.14,9.8-2.06,13.71-2.05c0.63,0,3.29,0.06,3.61,0.12" style="fill:none;stroke:#999;stroke-width:3" />
<path d="M564.23,61.33c0.34,0.12,2.42,0.13,2.77,0.12c3.55-0.13,9.32-2.11,12.81-2.09c0.57,0,2.94,0.06,3.22,0.11" style="fill:none;stroke:#999;stroke-width:3" />
<path d="M562.64,73.9c0.35,0.36,0.75,0.65,0.86,1.13c0.99,4.21,2.25,12.04,3.25,18.21" style="fill:none;stroke:#999;stroke-width:3" />
<path d="M564.31,74.87c6.44-0.89,12.48-2.6,18.42-3.5c1.49-0.22,2.39,1.04,2.18,2.06c-0.89,4.25-1.66,7.72-3.24,14.78" style="fill:none;stroke:black;stroke-width:3" />
<circle cx="564.31" cy="74.87" r="5" stroke-width="0" fill="#FF2A00" opacity="0.7" />
<path d="M676.88,15.5c2.96,1.81,7.63,7.44,8.37,10.25" style="fill:none;stroke:#999;stroke-width:3" />
<path d="M664.37,35.08c0.63,0.23,3.04,0.27,3.67,0.23c7.8-0.42,19.47-2.67,25.14-2.87c1.05-0.04,2.64,0.11,3.16,0.23" style="fill:none;stroke:#999;stroke-width:3" />
<path d="M671.73,48.56c0.38,0.12,2.71,0.13,3.1,0.12c3.97-0.14,9.8-2.06,13.71-2.05c0.63,0,3.29,0.06,3.61,0.12" style="fill:none;stroke:#999;stroke-width:3" />
<path d="M673.23,61.33c0.34,0.12,2.42,0.13,2.77,0.12c3.55-0.13,9.32-2.11,12.81-2.09c0.57,0,2.94,0.06,3.22,0.11" style="fill:none;stroke:#999;stroke-width:3" />
<path d="M671.64,73.9c0.35,0.36,0.75,0.65,0.86,1.13c0.99,4.21,2.25,12.04,3.25,18.21" style="fill:none;stroke:#999;stroke-width:3" />
<path d="M673.31,74.87c6.44-0.89,12.48-2.6,18.42-3.5c1.49-0.22,2.39,1.04,2.18,2.06c-0.89,4.25-1.66,7.72-3.24,14.78" style="fill:none;stroke:#999;stroke-width:3" />
<path d="M676.47,91.05c4.8-0.54,9.1-1.47,15.69-2.31" style="fill:none;stroke:black;stroke-width:3" />
<circle cx="676.47" cy="91.05" r="5" stroke-width="0" fill="#FF2A00" opacity="0.7" />
<path d="M785.88,15.5c2.96,1.81,7.63,7.44,8.37,10.25" style="fill:none;stroke:#999;stroke-width:3" />
<path d="M773.37,35.08c0.63,0.23,3.04,0.27,3.67,0.23c7.8-0.42,19.47-2.67,25.14-2.87c1.05-0.04,2.64,0.11,3.16,0.23" style="fill:none;stroke:#999;stroke-width:3" />
<path d="M780.73,48.56c0.38,0.12,2.71,0.13,3.1,0.12c3.97-0.14,9.8-2.06,13.71-2.05c0.63,0,3.29,0.06,3.61,0.12" style="fill:none;stroke:#999;stroke-width:3" />
<path d="M782.23,61.33c0.34,0.12,2.42,0.13,2.77,0.12c3.55-0.13,9.32-2.11,12.81-2.09c0.57,0,2.94,0.06,3.22,0.11" style="fill:none;stroke:#999;stroke-width:3" />
<path d="M780.64,73.9c0.35,0.36,0.75,0.65,0.86,1.13c0.99,4.21,2.25,12.04,3.25,18.21" style="fill:none;stroke:#999;stroke-width:3" />
<path d="M782.31,74.87c6.44-0.89,12.48-2.6,18.42-3.5c1.49-0.22,2.39,1.04,2.18,2.06c-0.89,4.25-1.66,7.72-3.24,14.78" style="fill:none;stroke:#999;stroke-width:3" />
<path d="M785.47,91.05c4.8-0.54,9.1-1.47,15.69-2.31" style="fill:none;stroke:#999;stroke-width:3" />
<path d="M824.77,14.08c4.24,2.07,10.48,7.91,11.54,11.13" style="fill:none;stroke:black;stroke-width:3" />
<circle cx="824.77" cy="14.08" r="5" stroke-width="0" fill="#FF2A00" opacity="0.7" />
<path d="M894.88,15.5c2.96,1.81,7.63,7.44,8.37,10.25" style="fill:none;stroke:#999;stroke-width:3" />
<path d="M882.37,35.08c0.63,0.23,3.04,0.27,3.67,0.23c7.8-0.42,19.47-2.67,25.14-2.87c1.05-0.04,2.64,0.11,3.16,0.23" style="fill:none;stroke:#999;stroke-width:3" />
<path d="M889.73,48.56c0.38,0.12,2.71,0.13,3.1,0.12c3.97-0.14,9.8-2.06,13.71-2.05c0.63,0,3.29,0.06,3.61,0.12" style="fill:none;stroke:#999;stroke-width:3" />
<path d="M891.23,61.33c0.34,0.12,2.42,0.13,2.77,0.12c3.55-0.13,9.32-2.11,12.81-2.09c0.57,0,2.94,0.06,3.22,0.11" style="fill:none;stroke:#999;stroke-width:3" />
<path d="M889.64,73.9c0.35,0.36,0.75,0.65,0.86,1.13c0.99,4.21,2.25,12.04,3.25,18.21" style="fill:none;stroke:#999;stroke-width:3" />
<path d="M891.31,74.87c6.44-0.89,12.48-2.6,18.42-3.5c1.49-0.22,2.39,1.04,2.18,2.06c-0.89,4.25-1.66,7.72-3.24,14.78" style="fill:none;stroke:#999;stroke-width:3" />
<path d="M894.47,91.05c4.8-0.54,9.1-1.47,15.69-2.31" style="fill:none;stroke:#999;stroke-width:3" />
<path d="M933.77,14.08c4.24,2.07,10.48,7.91,11.54,11.13" style="fill:none;stroke:#999;stroke-width:3" />
<path d="M921.5,39.11c0.95,0.48,4.04,0.16,5,0.03c10.5-1.39,22.25-3.44,33-3.93c1.46-0.07,2.79,0.1,4,0.5" style="fill:none;stroke:black;stroke-width:3" />
<circle cx="921.5" cy="39.11" r="5" stroke-width="0" fill="#FF2A00" opacity="0.7" />
<path d="M1003.88,15.5c2.96,1.81,7.63,7.44,8.37,10.25" style="fill:none;stroke:#999;stroke-width:3" />
<path d="M991.37,35.08c0.63,0.23,3.04,0.27,3.67,0.23c7.8-0.42,19.47-2.67,25.14-2.87c1.05-0.04,2.64,0.11,3.16,0.23" style="fill:none;stroke:#999;stroke-width:3" />
<path d="M998.73,48.56c0.38,0.12,2.71,0.13,3.1,0.12c3.97-0.14,9.8-2.06,13.71-2.05c0.63,0,3.29,0.06,3.61,0.12" style="fill:none;stroke:#999;stroke-width:3" />
<path d="M1000.23,61.33c0.34,0.12,2.42,0.13,2.77,0.12c3.55-0.13,9.32-2.11,12.81-2.09c0.57,0,2.94,0.06,3.22,0.11" style="fill:none;stroke:#999;stroke-width:3" />
<path d="M998.64,73.9c0.35,0.36,0.75,0.65,0.86,1.13c0.99,4.21,2.25,12.04,3.25,18.21" style="fill:none;stroke:#999;stroke-width:3" />
<path d="M1000.31,74.87c6.44-0.89,12.48-2.6,18.42-3.5c1.49-0.22,2.39,1.04,2.18,2.06c-0.89,4.25-1.66,7.72-3.24,14.78" style="fill:none;stroke:#999;stroke-width:3" />
<path d="M1003.47,91.05c4.8-0.54,9.1-1.47,15.69-2.31" style="fill:none;stroke:#999;stroke-width:3" />
<path d="M1042.77,14.08c4.24,2.07,10.48,7.91,11.54,11.13" style="fill:none;stroke:#999;stroke-width:3" />
<path d="M1030.5,39.11c0.95,0.48,4.04,0.16,5,0.03c10.5-1.39,22.25-3.44,33-3.93c1.46-0.07,2.79,0.1,4,0.5" style="fill:none;stroke:#999;stroke-width:3" />
<path d="M1049.5,38.33c1,1.15,2,3.33,2,4.25c0,6.41,0.5,38.25,0.25,44.67" style="fill:none;stroke:black;stroke-width:3" />
<circle cx="1049.5" cy="38.33" r="5" stroke-width="0" fill="#FF2A00" opacity="0.7" />
<path d="M1112.88,15.5c2.96,1.81,7.63,7.44,8.37,10.25" style="fill:none;stroke:#999;stroke-width:3" />
<path d="M1100.37,35.08c0.63,0.23,3.04,0.27,3.67,0.23c7.8-0.42,19.47-2.67,25.14-2.87c1.05-0.04,2.64,0.11,3.16,0.23" style="fill:none;stroke:#999;stroke-width:3" />
<path d="M1107.73,48.56c0.38,0.12,2.71,0.13,3.1,0.12c3.97-0.14,9.8-2.06,13.71-2.05c0.63,0,3.29,0.06,3.61,0.12" style="fill:none;stroke:#999;stroke-width:3" />
<path d="M1109.23,61.33c0.34,0.12,2.42,0.13,2.77,0.12c3.55-0.13,9.32-2.11,12.81-2.09c0.57,0,2.94,0.06,3.22,0.11" style="fill:none;stroke:#999;stroke-width:3" />
<path d="M1107.6399999999999,73.9c0.35,0.36,0.75,0.65,0.86,1.13c0.99,4.21,2.25,12.04,3.25,18.21" style="fill:none;stroke:#999;stroke-width:3" />
<path d="M1109.31,74.87c6.44-0.89,12.48-2.6,18.42-3.5c1.49-0.22,2.39,1.04,2.18,2.06c-0.89,4.25-1.66,7.72-3.24,14.78" style="fill:none;stroke:#999;stroke-width:3" />
<path d="M1112.47,91.05c4.8-0.54,9.1-1.47,15.69-2.31" style="fill:none;stroke:#999;stroke-width:3" />
<path d="M1151.77,14.08c4.24,2.07,10.48,7.91,11.54,11.13" style="fill:none;stroke:#999;stroke-width:3" />
<path d="M1139.5,39.11c0.95,0.48,4.04,0.16,5,0.03c10.5-1.39,22.25-3.44,33-3.93c1.46-0.07,2.79,0.1,4,0.5" style="fill:none;stroke:#999;stroke-width:3" />
<path d="M1158.5,38.33c1,1.15,2,3.33,2,4.25c0,6.41,0.5,38.25,0.25,44.67" style="fill:none;stroke:#999;stroke-width:3" />
<path d="M1142.25,63.07c0.94,0.52,4.04,0.34,5,0.23c11.5-1.3,14.08-1.82,27-2.68c1.17-0.08,3.75-0.21,5.5,0.25" style="fill:none;stroke:black;stroke-width:3" />
<circle cx="1142.25" cy="63.07" r="5" stroke-width="0" fill="#FF2A00" opacity="0.7" />
<path d="M1221.88,15.5c2.96,1.81,7.63,7.44,8.37,10.25" style="fill:none;stroke:#999;stroke-width:3" />
<path d="M1209.37,35.08c0.63,0.23,3.04,0.27,3.67,0.23c7.8-0.42,19.47-2.67,25.14-2.87c1.05-0.04,2.64,0.11,3.16,0.23" style="fill:none;stroke:#999;stroke-width:3" />
<path d="M1216.73,48.56c0.38,0.12,2.71,0.13,3.1,0.12c3.97-0.14,9.8-2.06,13.71-2.05c0.63,0,3.29,0.06,3.61,0.12" style="fill:none;stroke:#999;stroke-width:3" />
<path d="M1218.23,61.33c0.34,0.12,2.42,0.13,2.77,0.12c3.55-0.13,9.32-2.11,12.81-2.09c0.57,0,2.94,0.06,3.22,0.11" style="fill:none;stroke:#999;stroke-width:3" />
<path d="M1216.6399999999999,73.9c0.35,0.36,0.75,0.65,0.86,1.13c0.99,4.21,2.25,12.04,3.25,18.21" style="fill:none;stroke:#999;stroke-width:3" />
<path d="M1218.31,74.87c6.44-0.89,12.48-2.6,18.42-3.5c1.49-0.22,2.39,1.04,2.18,2.06c-0.89,4.25-1.66,7.72-3.24,14.78" style="fill:none;stroke:#999;stroke-width:3" />
<path d="M1221.47,91.05c4.8-0.54,9.1-1.47,15.69-2.31" style="fill:none;stroke:#999;stroke-width:3" />
<path d="M1260.77,14.08c4.24,2.07,10.48,7.91,11.54,11.13" style="fill:none;stroke:#999;stroke-width:3" />
<path d="M1248.5,39.11c0.95,0.48,4.04,0.16,5,0.03c10.5-1.39,22.25-3.44,33-3.93c1.46-0.07,2.79,0.1,4,0.5" style="fill:none;stroke:#999;stroke-width:3" />
<path d="M1267.5,38.33c1,1.15,2,3.33,2,4.25c0,6.41,0.5,38.25,0.25,44.67" style="fill:none;stroke:#999;stroke-width:3" />
<path d="M1251.25,63.07c0.94,0.52,4.04,0.34,5,0.23c11.5-1.3,14.08-1.82,27-2.68c1.17-0.08,3.75-0.21,5.5,0.25" style="fill:none;stroke:#999;stroke-width:3" />
<path d="M1242.25,90.51c0.92,0.29,5.7,0.15,7.25,0c13.5-1.26,31-2.51,42.75-2.8c2.5-0.06,5.5,0.49,6.75,0.94" style="fill:none;stroke:black;stroke-width:3" />
<circle cx="1242.25" cy="90.51" r="5" stroke-width="0" fill="#FF2A00" opacity="0.7" />
</svg>