<svg width="1744px" height="109px" viewBox="0 0 1744px 109px" xmlns="http://www.w3.org/2000/svg" xmlns:xlink="http://www.w3.org/1999/xlink" xml:space="preserve" version="1.1"  baseProfile="full">
<line x1="1" y1="1" x2="1743" y2="1" style="stroke:#ddd;stroke-width:2" />
<line x1="1" y1="1" x2="1" y2="108" style="stroke:#ddd;stroke-width:2" />
<line x1="1" y1="108" x2="1743" y2="108" style="stroke:#ddd;stroke-width:2" />
<line x1="1743" y1="1" x2="1743" y2="108" style="stroke:#ddd;stroke-width:2" />
<line x1="109" y1="1" x2="109" y2="108" style="stroke:#ddd;stroke-width:2" />
<line x1="218" y1="1" x2="218" y2="108" style="stroke:#ddd;stroke-width:2" />
<line x1="327" y1="1" x2="327" y2="108" style="stroke:#ddd;stroke-width:2" />
<line x1="436" y1="1" x2="436" y2="108" style="stroke:#ddd;stroke-width:2" />
<line x1="545" y1="1" x2="545" y2="108" style="stroke:#ddd;stroke-width:2" />
<line x1="654" y1="1" x2="654" y2="108" style="stroke:#ddd;stroke-width:2" />
<line x1="763" y1="1" x2="763" y2="108" style="stroke:#ddd;stroke-width:2" />
<line x1="872" y1="1" x2="872" y2="108" style="stroke:#ddd;stroke-width:2" />
<line x1="981" y1="1" x2="981" y2="108" style="stroke:#ddd;stroke-width:2" />
<line x1="1090" y1="1" x2="1090" y2="108" style="stroke:#ddd;stroke-width:2" />
<line x1="1199" y1="1" x2="1199" y2="108" style="stroke:#ddd;stroke-width:2" />
<line x1="1308" y1="1" x2="1308" y2="108" style="stroke:#ddd;stroke-width:2" />
<line x1="1417" y1="1" x2="1417" y2="108" style="stroke:#ddd;stroke-width:2" />
<line x1="1526" y1="1" x2="1526" y2="108" style="stroke:#ddd;stroke-width:2" />
<line x1="1635" y1="1" x2="1635" y2="108" style="stroke:#ddd;stroke-width:2" />
<line x1="1" y1="54" x2="1743" y2="54" style="stroke:#ddd;stroke-width:2;stroke-dasharray:3 3" />
<line x1="55" y1="1" x2="55" y2="108" style="stroke:#ddd;stroke-width:2;stroke-dasharray:3 3" />
<line x1="164" y1="1" x2="164" y2="108" style="stroke:#ddd;stroke-width:2;stroke-dasharray:3 3" />
<line x1="273" y1="1" x2="273" y2="108" style="stroke:#ddd;stroke-width:2;stroke-dasharray:3 3" />
<line x1="382" y1="1" x2="382" y2="108" style="stroke:#ddd;stroke-width:2;stroke-dasharray:3 3" />
<line x1="491" y1="1" x2="491" y2="108" style="stroke:#ddd;stroke-width:2;stroke-dasharray:3 3" />
<line x1="600" y1="1" x2="600" y2="108" style="stroke:#ddd;stroke-width:2;stroke-dasharray:3 3" />
<line x1="709" y1="1" x2="709" y2="108" style="stroke:#ddd;stroke-width:2;stroke-dasharray:3 3" />
<line x1="818" y1="1" x2="818" y2="108" style="stroke:#ddd;stroke-width:2;stroke-dasharray:3 3" />
<line x1="927" y1="1" x2="927" y2="108" style="stroke:#ddd;stroke-width:2;stroke-dasharray:3 3" />
<line x1="1036" y1="1" x2="1036" y2="108" style="stroke:#ddd;stroke-width:2;stroke-dasharray:3 3" />
<line x1="1145" y1="1" x2="1145" y2="108" style="stroke:#ddd;stroke-width:2;stroke-dasharray:3 3" />
<line x1="1254" y1="1" x2="1254" y2="108" style="stroke:#ddd;stroke-width:2;stroke-dasharray:3 3" />
<line x1="1363" y1="1" x2="1363" y2="108" style="stroke:#ddd;stroke-width:2;stroke-dasharray:3 3" />
<line x1="1472" y1="1" x2="1472" y2="108" style="stroke:#ddd;stroke-width:2;stroke-dasharray:3 3" />
<line x1="1581" y1="1" x2="1581" y2="108" style="stroke:#ddd;stroke-width:2;stroke-dasharray:3 3" />
<line x1="1690" y1="1" x2="1690" y2="108" style="stroke:#ddd;stroke-width:2;stroke-dasharray:3 3" />
<path d="M21.88,14c3.48,1.63,9.5,6.96,10.37,9.5" style="fill:none;stroke:black;stroke-width:3" />
<circle cx="21.88" cy="14.0" r="5" stroke-width="0" fill="#FF2A00" opacity="0.7" />
<path d="M130.88,14c3.48,1.63,9.5,6.96,10.37,9.5" style="fill:none;stroke:#999;stroke-width:3" />
<path d="M121.37,34.08c2.34,0.31,4.68,0.31,7.02,0c5.73-0.47,12.22-1.35,17.12-2.11c2.23-0.34,4.37-0.7,6.58-0.3" style="fill:none;stroke:black;stroke-width:3" />
<circle cx="121.37" cy="34.08" r="5" stroke-width="0" fill="#FF2A00" opacity="0.7" />
<path d="M239.88,14c3.48,1.63,9.5,6.96,10.37,9.5" style="fill:none;stroke:#999;stroke-width:3" />
<path d="M230.37,34.08c2.34,0.31,4.68,0.31,7.02,0c5.73-0.47,12.22-1.35,17.12-2.11c2.23-0.34,4.37-0.7,6.58-0.3" style="fill:none;stroke:#999;stroke-width:3" />
<path d="M236.23,46.56c1.56,0.19,3.12,0.18,4.67-0.01c3.01-0.39,6.35-1.21,9.35-1.56c1.8-0.21,3.5-0.49,5.4-0.49" style="fill:none;stroke:black;stroke-width:3" />
<circle cx="236.23" cy="46.56" r="5" stroke-width="0" fill="#FF2A00" opacity="0.7" />
<path d="M348.88,14c3.48,1.63,9.5,6.96,10.37,9.5" style="fill:none;stroke:#999;stroke-width:3" />
<path d="M339.37,34.08c2.34,0.31,4.68,0.31,7.02,0c5.73-0.47,12.22-1.35,17.12-2.11c2.23-0.34,4.37-0.7,6.58-0.3" style="fill:none;stroke:#999;stroke-width:3" />
<path d="M345.23,46.56c1.56,0.19,3.12,0.18,4.67-0.01c3.01-0.39,6.35-1.21,9.35-1.56c1.8-0.21,3.5-0.49,5.4-0.49" style="fill:none;stroke:#999;stroke-width:3" />
<path d="M344.73,58.33c1.54,0.42,3.09,0.73,4.65,0.43c3.37-0.47,8.08-1.38,11.26-1.98c1.36-0.31,2.74-0.42,4.14-0.32" style="fill:none;stroke:black;stroke-width:3" />
<circle cx="344.73" cy="58.33" r="5" stroke-width="0" fill="#FF2A00" opacity="0.7" />
<path d="M457.88,14c3.48,1.63,9.5,6.96,10.37,9.5" style="fill:none;stroke:#999;stroke-width:3" />
<path d="M448.37,34.08c2.34,0.31,4.68,0.31,7.02,0c5.73-0.47,12.22-1.35,17.12-2.11c2.23-0.34,4.37-0.7,6.58-0.3" style="fill:none;stroke:#999;stroke-width:3" />
<path d="M454.23,46.56c1.56,0.19,3.12,0.18,4.67-0.01c3.01-0.39,6.35-1.21,9.35-1.56c1.8-0.21,3.5-0.49,5.4-0.49" style="fill:none;stroke:#999;stroke-width:3" />
<path d="M453.73,58.33c1.54,0.42,3.09,0.73,4.65,0.43c3.37-0.47,8.08-1.38,11.26-1.98c1.36-0.31,2.74-0.42,4.14-0.32" style="fill:none;stroke:#999;stroke-width:3" />
<path d="M452.64,71.4c0.9,0.85,1.13,1.92,1.29,3.19c0.82,6.28,1.68,11.1,2.32,16.66" style="fill:none;stroke:black;stroke-width:3" />
<circle cx="452.64" cy="71.4" r="5" stroke-width="0" fill="#FF2A00" opacity="0.7" />
<path d="M566.88,14c3.48,1.63,9.5,6.96,10.37,9.5" style="fill:none;stroke:#999;stroke-width:3" />
<path d="M557.37,34.08c2.34,0.31,4.68,0.31,7.02,0c5.73-0.47,12.22-1.35,17.12-2.11c2.23-0.34,4.37-0.7,6.58-0.3" style="fill:none;stroke:#999;stroke-width:3" />
<path d="M563.23,46.56c1.56,0.19,3.12,0.18,4.67-0.01c3.01-0.39,6.35-1.21,9.35-1.56c1.8-0.21,3.5-0.49,5.4-0.49" style="fill:none;stroke:#999;stroke-width:3" />
<path d="M562.73,58.33c1.54,0.42,3.09,0.73,4.65,0.43c3.37-0.47,8.08-1.38,11.26-1.98c1.36-0.31,2.74-0.42,4.14-0.32" style="fill:none;stroke:#999;stroke-width:3" />
<path d="M561.64,71.4c0.9,0.85,1.13,1.92,1.29,3.19c0.82,6.28,1.68,11.1,2.32,16.66" style="fill:none;stroke:#999;stroke-width:3" />
<path d="M563.81,73.12c6.85-1.33,10.61-2.36,15.55-3.2c2.09-0.36,4.39,0.18,3.82,2.84c-0.8,3.75-1.57,6.5-3.01,12.96" style="fill:none;stroke:black;stroke-width:3" />
<circle cx="563.81" cy="73.12" r="5" stroke-width="0" fill="#FF2A00" opacity="0.7" />
<path d="M675.88,14c3.48,1.63,9.5,6.96,10.37,9.5" style="fill:none;stroke:#999;stroke-width:3" />
<path d="M666.37,34.08c2.34,0.31,4.68,0.31,7.02,0c5.73-0.47,12.22-1.35,17.12-2.11c2.23-0.34,4.37-0.7,6.58-0.3" style="fill:none;stroke:#999;stroke-width:3" />
<path d="M672.23,46.56c1.56,0.19,3.12,0.18,4.67-0.01c3.01-0.39,6.35-1.21,9.35-1.56c1.8-0.21,3.5-0.49,5.4-0.49" style="fill:none;stroke:#999;stroke-width:3" />
<path d="M671.73,58.33c1.54,0.42,3.09,0.73,4.65,0.43c3.37-0.47,8.08-1.38,11.26-1.98c1.36-0.31,2.74-0.42,4.14-0.32" style="fill:none;stroke:#999;stroke-width:3" />
<path d="M670.64,71.4c0.9,0.85,1.13,1.92,1.29,3.19c0.82,6.28,1.68,11.1,2.32,16.66" style="fill:none;stroke:#999;stroke-width:3" />
<path d="M672.81,73.12c6.85-1.33,10.61-2.36,15.55-3.2c2.09-0.36,4.39,0.18,3.82,2.84c-0.8,3.75-1.57,6.5-3.01,12.96" style="fill:none;stroke:#999;stroke-width:3" />
<path d="M674.47,88.55c4.8-0.54,9.03-1.3,16.69-2.06" style="fill:none;stroke:black;stroke-width:3" />
<circle cx="674.47" cy="88.55" r="5" stroke-width="0" fill="#FF2A00" opacity="0.7" />
<path d="M784.88,14c3.48,1.63,9.5,6.96,10.37,9.5" style="fill:none;stroke:#999;stroke-width:3" />
<path d="M775.37,34.08c2.34,0.31,4.68,0.31,7.02,0c5.73-0.47,12.22-1.35,17.12-2.11c2.23-0.34,4.37-0.7,6.58-0.3" style="fill:none;stroke:#999;stroke-width:3" />
<path d="M781.23,46.56c1.56,0.19,3.12,0.18,4.67-0.01c3.01-0.39,6.35-1.21,9.35-1.56c1.8-0.21,3.5-0.49,5.4-0.49" style="fill:none;stroke:#999;stroke-width:3" />
<path d="M780.73,58.33c1.54,0.42,3.09,0.73,4.65,0.43c3.37-0.47,8.08-1.38,11.26-1.98c1.36-0.31,2.74-0.42,4.14-0.32" style="fill:none;stroke:#999;stroke-width:3" />
<path d="M779.64,71.4c0.9,0.85,1.13,1.92,1.29,3.19c0.82,6.28,1.68,11.1,2.32,16.66" style="fill:none;stroke:#999;stroke-width:3" />
<path d="M781.81,73.12c6.85-1.33,10.61-2.36,15.55-3.2c2.09-0.36,4.39,0.18,3.82,2.84c-0.8,3.75-1.57,6.5-3.01,12.96" style="fill:none;stroke:#999;stroke-width:3" />
<path d="M783.47,88.55c4.8-0.54,9.03-1.3,16.69-2.06" style="fill:none;stroke:#999;stroke-width:3" />
<path d="M830.41,11.72c0.88,0.74,1.33,1.74,1.33,3.48s0,2.92,0,7.64" style="fill:none;stroke:black;stroke-width:3" />
<circle cx="830.41" cy="11.72" r="5" stroke-width="0" fill="#FF2A00" opacity="0.7" />
<path d="M893.88,14c3.48,1.63,9.5,6.96,10.37,9.5" style="fill:none;stroke:#999;stroke-width:3" />
<path d="M884.37,34.08c2.34,0.31,4.68,0.31,7.02,0c5.73-0.47,12.22-1.35,17.12-2.11c2.23-0.34,4.37-0.7,6.58-0.3" style="fill:none;stroke:#999;stroke-width:3" />
<path d="M890.23,46.56c1.56,0.19,3.12,0.18,4.67-0.01c3.01-0.39,6.35-1.21,9.35-1.56c1.8-0.21,3.5-0.49,5.4-0.49" style="fill:none;stroke:#999;stroke-width:3" />
<path d="M889.73,58.33c1.54,0.42,3.09,0.73,4.65,0.43c3.37-0.47,8.08-1.38,11.26-1.98c1.36-0.31,2.74-0.42,4.14-0.32" style="fill:none;stroke:#999;stroke-width:3" />
<path d="M888.64,71.4c0.9,0.85,1.13,1.92,1.29,3.19c0.82,6.28,1.68,11.1,2.32,16.66" style="fill:none;stroke:#999;stroke-width:3" />
<path d="M890.81,73.12c6.85-1.33,10.61-2.36,15.55-3.2c2.09-0.36,4.39,0.18,3.82,2.84c-0.8,3.75-1.57,6.5-3.01,12.96" style="fill:none;stroke:#999;stroke-width:3" />
<path d="M892.47,88.55c4.8-0.54,9.03-1.3,16.69-2.06" style="fill:none;stroke:#999;stroke-width:3" />
<path d="M939.41,11.72c0.88,0.74,1.33,1.74,1.33,3.48s0,2.92,0,7.64" style="fill:none;stroke:#999;stroke-width:3" />
<path d="M922.72,25.54c2.62,0.46,5.26,0.21,7.91-0.23c6.9-0.89,16.15-2.4,24.12-2.94c2.08-0.28,4.14-0.24,6.2,0.12" style="fill:none;stroke:black;stroke-width:3" />
<circle cx="922.72" cy="25.54" r="5" stroke-width="0" fill="#FF2A00" opacity="0.7" />
<path d="M1002.88,14c3.48,1.63,9.5,6.96,10.37,9.5" style="fill:none;stroke:#999;stroke-width:3" />
<path d="M993.37,34.08c2.34,0.31,4.68,0.31,7.02,0c5.73-0.47,12.22-1.35,17.12-2.11c2.23-0.34,4.37-0.7,6.58-0.3" style="fill:none;stroke:#999;stroke-width:3" />
<path d="M999.23,46.56c1.56,0.19,3.12,0.18,4.67-0.01c3.01-0.39,6.35-1.21,9.35-1.56c1.8-0.21,3.5-0.49,5.4-0.49" style="fill:none;stroke:#999;stroke-width:3" />
<path d="M998.73,58.33c1.54,0.42,3.09,0.73,4.65,0.43c3.37-0.47,8.08-1.38,11.26-1.98c1.36-0.31,2.74-0.42,4.14-0.32" style="fill:none;stroke:#999;stroke-width:3" />
<path d="M997.64,71.4c0.9,0.85,1.13,1.92,1.29,3.19c0.82,6.28,1.68,11.1,2.32,16.66" style="fill:none;stroke:#999;stroke-width:3" />
<path d="M999.81,73.12c6.85-1.33,10.61-2.36,15.55-3.2c2.09-0.36,4.39,0.18,3.82,2.84c-0.8,3.75-1.57,6.5-3.01,12.96" style="fill:none;stroke:#999;stroke-width:3" />
<path d="M1001.47,88.55c4.8-0.54,9.03-1.3,16.69-2.06" style="fill:none;stroke:#999;stroke-width:3" />
<path d="M1048.4099999999999,11.72c0.88,0.74,1.33,1.74,1.33,3.48s0,2.92,0,7.64" style="fill:none;stroke:#999;stroke-width:3" />
<path d="M1031.72,25.54c2.62,0.46,5.26,0.21,7.91-0.23c6.9-0.89,16.15-2.4,24.12-2.94c2.08-0.28,4.14-0.24,6.2,0.12" style="fill:none;stroke:#999;stroke-width:3" />
<path d="M1037.06,31.73c3.73,3.95,5.77,8.17,6.11,10.77" style="fill:none;stroke:black;stroke-width:3" />
<circle cx="1037.06" cy="31.73" r="5" stroke-width="0" fill="#FF2A00" opacity="0.7" />
<path d="M1111.88,14c3.48,1.63,9.5,6.96,10.37,9.5" style="fill:none;stroke:#999;stroke-width:3" />
<path d="M1102.37,34.08c2.34,0.31,4.68,0.31,7.02,0c5.73-0.47,12.22-1.35,17.12-2.11c2.23-0.34,4.37-0.7,6.58-0.3" style="fill:none;stroke:#999;stroke-width:3" />
<path d="M1108.23,46.56c1.56,0.19,3.12,0.18,4.67-0.01c3.01-0.39,6.35-1.21,9.35-1.56c1.8-0.21,3.5-0.49,5.4-0.49" style="fill:none;stroke:#999;stroke-width:3" />
<path d="M1107.73,58.33c1.54,0.42,3.09,0.73,4.65,0.43c3.37-0.47,8.08-1.38,11.26-1.98c1.36-0.31,2.74-0.42,4.14-0.32" style="fill:none;stroke:#999;stroke-width:3" />
<path d="M1106.6399999999999,71.4c0.9,0.85,1.13,1.92,1.29,3.19c0.82,6.28,1.68,11.1,2.32,16.66" style="fill:none;stroke:#999;stroke-width:3" />
<path d="M1108.81,73.12c6.85-1.33,10.61-2.36,15.55-3.2c2.09-0.36,4.39,0.18,3.82,2.84c-0.8,3.75-1.57,6.5-3.01,12.96" style="fill:none;stroke:#999;stroke-width:3" />
<path d="M1110.47,88.55c4.8-0.54,9.03-1.3,16.69-2.06" style="fill:none;stroke:#999;stroke-width:3" />
<path d="M1157.4099999999999,11.72c0.88,0.74,1.33,1.74,1.33,3.48s0,2.92,0,7.64" style="fill:none;stroke:#999;stroke-width:3" />
<path d="M1140.72,25.54c2.62,0.46,5.26,0.21,7.91-0.23c6.9-0.89,16.15-2.4,24.12-2.94c2.08-0.28,4.14-0.24,6.2,0.12" style="fill:none;stroke:#999;stroke-width:3" />
<path d="M1146.06,31.73c3.73,3.95,5.77,8.17,6.11,10.77" style="fill:none;stroke:#999;stroke-width:3" />
<path d="M1170.66,26c0.22,1.12,0.15,1.85-0.18,2.86c-2.11,6.51-3.96,11.61-5.11,14.14" style="fill:none;stroke:black;stroke-width:3" />
<circle cx="1170.66" cy="26.0" r="5" stroke-width="0" fill="#FF2A00" opacity="0.7" />
<path d="M1220.88,14c3.48,1.63,9.5,6.96,10.37,9.5" style="fill:none;stroke:#999;stroke-width:3" />
<path d="M1211.37,34.08c2.34,0.31,4.68,0.31,7.02,0c5.73-0.47,12.22-1.35,17.12-2.11c2.23-0.34,4.37-0.7,6.58-0.3" style="fill:none;stroke:#999;stroke-width:3" />
<path d="M1217.23,46.56c1.56,0.19,3.12,0.18,4.67-0.01c3.01-0.39,6.35-1.21,9.35-1.56c1.8-0.21,3.5-0.49,5.4-0.49" style="fill:none;stroke:#999;stroke-width:3" />
<path d="M1216.73,58.33c1.54,0.42,3.09,0.73,4.65,0.43c3.37-0.47,8.08-1.38,11.26-1.98c1.36-0.31,2.74-0.42,4.14-0.32" style="fill:none;stroke:#999;stroke-width:3" />
<path d="M1215.6399999999999,71.4c0.9,0.85,1.13,1.92,1.29,3.19c0.82,6.28,1.68,11.1,2.32,16.66" style="fill:none;stroke:#999;stroke-width:3" />
<path d="M1217.81,73.12c6.85-1.33,10.61-2.36,15.55-3.2c2.09-0.36,4.39,0.18,3.82,2.84c-0.8,3.75-1.57,6.5-3.01,12.96" style="fill:none;stroke:#999;stroke-width:3" />
<path d="M1219.47,88.55c4.8-0.54,9.03-1.3,16.69-2.06" style="fill:none;stroke:#999;stroke-width:3" />
<path d="M1266.4099999999999,11.72c0.88,0.74,1.33,1.74,1.33,3.48s0,2.92,0,7.64" style="fill:none;stroke:#999;stroke-width:3" />
<path d="M1249.72,25.54c2.62,0.46,5.26,0.21,7.91-0.23c6.9-0.89,16.15-2.4,24.12-2.94c2.08-0.28,4.14-0.24,6.2,0.12" style="fill:none;stroke:#999;stroke-width:3" />
<path d="M1255.06,31.73c3.73,3.95,5.77,8.17,6.11,10.77" style="fill:none;stroke:#999;stroke-width:3" />
<path d="M1279.66,26c0.22,1.12,0.15,1.85-0.18,2.86c-2.11,6.51-3.96,11.61-5.11,14.14" style="fill:none;stroke:#999;stroke-width:3" />
<path d="M1246.48,48.77c3.65,0.61,6.69,0.04,10.01-0.37c9.39-1.15,19.06-2.29,28-3.27c3.24-0.41,6.49-0.53,9.77-0.38" style="fill:none;stroke:black;stroke-width:3" />
<circle cx="1246.48" cy="48.77" r="5" stroke-width="0" fill="#FF2A00" opacity="0.7" />
<path d="M1329.88,14c3.48,1.63,9.5,6.96,10.37,9.5" style="fill:none;stroke:#999;stroke-width:3" />
<path d="M1320.37,34.08c2.34,0.31,4.68,0.31,7.02,0c5.73-0.47,12.22-1.35,17.12-2.11c2.23-0.34,4.37-0.7,6.58-0.3" style="fill:none;stroke:#999;stroke-width:3" />
<path d="M1326.23,46.56c1.56,0.19,3.12,0.18,4.67-0.01c3.01-0.39,6.35-1.21,9.35-1.56c1.8-0.21,3.5-0.49,5.4-0.49" style="fill:none;stroke:#999;stroke-width:3" />
<path d="M1325.73,58.33c1.54,0.42,3.09,0.73,4.65,0.43c3.37-0.47,8.08-1.38,11.26-1.98c1.36-0.31,2.74-0.42,4.14-0.32" style="fill:none;stroke:#999;stroke-width:3" />
<path d="M1324.6399999999999,71.4c0.9,0.85,1.13,1.92,1.29,3.19c0.82,6.28,1.68,11.1,2.32,16.66" style="fill:none;stroke:#999;stroke-width:3" />
<path d="M1326.81,73.12c6.85-1.33,10.61-2.36,15.55-3.2c2.09-0.36,4.39,0.18,3.82,2.84c-0.8,3.75-1.57,6.5-3.01,12.96" style="fill:none;stroke:#999;stroke-width:3" />
<path d="M1328.47,88.55c4.8-0.54,9.03-1.3,16.69-2.06" style="fill:none;stroke:#999;stroke-width:3" />
<path d="M1375.4099999999999,11.72c0.88,0.74,1.33,1.74,1.33,3.48s0,2.92,0,7.64" style="fill:none;stroke:#999;stroke-width:3" />
<path d="M1358.72,25.54c2.62,0.46,5.26,0.21,7.91-0.23c6.9-0.89,16.15-2.4,24.12-2.94c2.08-0.28,4.14-0.24,6.2,0.12" style="fill:none;stroke:#999;stroke-width:3" />
<path d="M1364.06,31.73c3.73,3.95,5.77,8.17,6.11,10.77" style="fill:none;stroke:#999;stroke-width:3" />
<path d="M1388.66,26c0.22,1.12,0.15,1.85-0.18,2.86c-2.11,6.51-3.96,11.61-5.11,14.14" style="fill:none;stroke:#999;stroke-width:3" />
<path d="M1355.48,48.77c3.65,0.61,6.69,0.04,10.01-0.37c9.39-1.15,19.06-2.29,28-3.27c3.24-0.41,6.49-0.53,9.77-0.38" style="fill:none;stroke:#999;stroke-width:3" />
<path d="M1358.82,50c0.9,0.9,0.98,2.04,0.91,3.22C1358.38,77.38,1352.5,88.38,1344.0,95.5" style="fill:none;stroke:black;stroke-width:3" />
<circle cx="1358.82" cy="50.0" r="5" stroke-width="0" fill="#FF2A00" opacity="0.7" />
<path d="M1438.88,14c3.48,1.63,9.5,6.96,10.37,9.5" style="fill:none;stroke:#999;stroke-width:3" />
<path d="M1429.37,34.08c2.34,0.31,4.68,0.31,7.02,0c5.73-0.47,12.22-1.35,17.12-2.11c2.23-0.34,4.37-0.7,6.58-0.3" style="fill:none;stroke:#999;stroke-width:3" />
<path d="M1435.23,46.56c1.56,0.19,3.12,0.18,4.67-0.01c3.01-0.39,6.35-1.21,9.35-1.56c1.8-0.21,3.5-0.49,5.4-0.49" style="fill:none;stroke:#999;stroke-width:3" />
<path d="M1434.73,58.33c1.54,0.42,3.09,0.73,4.65,0.43c3.37-0.47,8.08-1.38,11.26-1.98c1.36-0.31,2.74-0.42,4.14-0.32" style="fill:none;stroke:#999;stroke-width:3" />
<path d="M1433.6399999999999,71.4c0.9,0.85,1.13,1.92,1.29,3.19c0.82,6.28,1.68,11.1,2.32,16.66" style="fill:none;stroke:#999;stroke-width:3" />
<path d="M1435.81,73.12c6.85-1.33,10.61-2.36,15.55-3.2c2.09-0.36,4.39,0.18,3.82,2.84c-0.8,3.75-1.57,6.5-3.01,12.96" style="fill:none;stroke:#999;stroke-width:3" />
<path d="M1437.47,88.55c4.8-0.54,9.03-1.3,16.69-2.06" style="fill:none;stroke:#999;stroke-width:3" />
<path d="M1484.4099999999999,11.72c0.88,0.74,1.33,1.74,1.33,3.48s0,2.92,0,7.64" style="fill:none;stroke:#999;stroke-width:3" />
<path d="M1467.72,25.54c2.62,0.46,5.26,0.21,7.91-0.23c6.9-0.89,16.15-2.4,24.12-2.94c2.08-0.28,4.14-0.24,6.2,0.12" style="fill:none;stroke:#999;stroke-width:3" />
<path d="M1473.06,31.73c3.73,3.95,5.77,8.17,6.11,10.77" style="fill:none;stroke:#999;stroke-width:3" />
<path d="M1497.66,26c0.22,1.12,0.15,1.85-0.18,2.86c-2.11,6.51-3.96,11.61-5.11,14.14" style="fill:none;stroke:#999;stroke-width:3" />
<path d="M1464.48,48.77c3.65,0.61,6.69,0.04,10.01-0.37c9.39-1.15,19.06-2.29,28-3.27c3.24-0.41,6.49-0.53,9.77-0.38" style="fill:none;stroke:#999;stroke-width:3" />
<path d="M1467.82,50c0.9,0.9,0.98,2.04,0.91,3.22C1467.38,77.38,1461.5,88.38,1453.0,95.5" style="fill:none;stroke:#999;stroke-width:3" />
<path d="M1499.63,51.21c-0.13,1.42-0.83,2.24-1.87,3.05c-5.39,4.24-11.39,8.49-23.11,12.49" style="fill:none;stroke:black;stroke-width:3" />
<circle cx="1499.63" cy="51.21" r="5" stroke-width="0" fill="#FF2A00" opacity="0.7" />
<path d="M1547.88,14c3.48,1.63,9.5,6.96,10.37,9.5" style="fill:none;stroke:#999;stroke-width:3" />
<path d="M1538.37,34.08c2.34,0.31,4.68,0.31,7.02,0c5.73-0.47,12.22-1.35,17.12-2.11c2.23-0.34,4.37-0.7,6.58-0.3" style="fill:none;stroke:#999;stroke-width:3" />
<path d="M1544.23,46.56c1.56,0.19,3.12,0.18,4.67-0.01c3.01-0.39,6.35-1.21,9.35-1.56c1.8-0.21,3.5-0.49,5.4-0.49" style="fill:none;stroke:#999;stroke-width:3" />
<path d="M1543.73,58.33c1.54,0.42,3.09,0.73,4.65,0.43c3.37-0.47,8.08-1.38,11.26-1.98c1.36-0.31,2.74-0.42,4.14-0.32" style="fill:none;stroke:#999;stroke-width:3" />
<path d="M1542.6399999999999,71.4c0.9,0.85,1.13,1.92,1.29,3.19c0.82,6.28,1.68,11.1,2.32,16.66" style="fill:none;stroke:#999;stroke-width:3" />
<path d="M1544.81,73.12c6.85-1.33,10.61-2.36,15.55-3.2c2.09-0.36,4.39,0.18,3.82,2.84c-0.8,3.75-1.57,6.5-3.01,12.96" style="fill:none;stroke:#999;stroke-width:3" />
<path d="M1546.47,88.55c4.8-0.54,9.03-1.3,16.69-2.06" style="fill:none;stroke:#999;stroke-width:3" />
<path d="M1593.4099999999999,11.72c0.88,0.74,1.33,1.74,1.33,3.48s0,2.92,0,7.64" style="fill:none;stroke:#999;stroke-width:3" />
<path d="M1576.72,25.54c2.62,0.46,5.26,0.21,7.91-0.23c6.9-0.89,16.15-2.4,24.12-2.94c2.08-0.28,4.14-0.24,6.2,0.12" style="fill:none;stroke:#999;stroke-width:3" />
<path d="M1582.06,31.73c3.73,3.95,5.77,8.17,6.11,10.77" style="fill:none;stroke:#999;stroke-width:3" />
<path d="M1606.66,26c0.22,1.12,0.15,1.85-0.18,2.86c-2.11,6.51-3.96,11.61-5.11,14.14" style="fill:none;stroke:#999;stroke-width:3" />
<path d="M1573.48,48.77c3.65,0.61,6.69,0.04,10.01-0.37c9.39-1.15,19.06-2.29,28-3.27c3.24-0.41,6.49-0.53,9.77-0.38" style="fill:none;stroke:#999;stroke-width:3" />
<path d="M1576.82,50c0.9,0.9,0.98,2.04,0.91,3.22C1576.38,77.38,1570.5,88.38,1562.0,95.5" style="fill:none;stroke:#999;stroke-width:3" />
<path d="M1608.63,51.21c-0.13,1.42-0.83,2.24-1.87,3.05c-5.39,4.24-11.39,8.49-23.11,12.49" style="fill:none;stroke:#999;stroke-width:3" />
<path d="M1613.21,64.76c-0.08,1.36-0.52,2.41-1.61,3.21c-6.22,4.78-15.35,10.16-32.31,15.78" style="fill:none;stroke:black;stroke-width:3" />
<circle cx="1613.21" cy="64.76" r="5" stroke-width="0" fill="#FF2A00" opacity="0.7" />
<path d="M1656.88,14c3.48,1.63,9.5,6.96,10.37,9.5" style="fill:none;stroke:#999;stroke-width:3" />
<path d="M1647.37,34.08c2.34,0.31,4.68,0.31,7.02,0c5.73-0.47,12.22-1.35,17.12-2.11c2.23-0.34,4.37-0.7,6.58-0.3" style="fill:none;stroke:#999;stroke-width:3" />
<path d="M1653.23,46.56c1.56,0.19,3.12,0.18,4.67-0.01c3.01-0.39,6.35-1.21,9.35-1.56c1.8-0.21,3.5-0.49,5.4-0.49" style="fill:none;stroke:#999;stroke-width:3" />
<path d="M1652.73,58.33c1.54,0.42,3.09,0.73,4.65,0.43c3.37-0.47,8.08-1.38,11.26-1.98c1.36-0.31,2.74-0.42,4.14-0.32" style="fill:none;stroke:#999;stroke-width:3" />
<path d="M1651.6399999999999,71.4c0.9,0.85,1.13,1.92,1.29,3.19c0.82,6.28,1.68,11.1,2.32,16.66" style="fill:none;stroke:#999;stroke-width:3" />
<path d="M1653.81,73.12c6.85-1.33,10.61-2.36,15.55-3.2c2.09-0.36,4.39,0.18,3.82,2.84c-0.8,3.75-1.57,6.5-3.01,12.96" style="fill:none;stroke:#999;stroke-width:3" />
<path d="M1655.47,88.55c4.8-0.54,9.03-1.3,16.69-2.06" style="fill:none;stroke:#999;stroke-width:3" />
<path d="M1702.4099999999999,11.72c0.88,0.74,1.33,1.74,1.33,3.48s0,2.92,0,7.64" style="fill:none;stroke:#999;stroke-width:3" />
<path d="M1685.72,25.54c2.62,0.46,5.26,0.21,7.91-0.23c6.9-0.89,16.15-2.4,24.12-2.94c2.08-0.28,4.14-0.24,6.2,0.12" style="fill:none;stroke:#999;stroke-width:3" />
<path d="M1691.06,31.73c3.73,3.95,5.77,8.17,6.11,10.77" style="fill:none;stroke:#999;stroke-width:3" />
<path d="M1715.66,26c0.22,1.12,0.15,1.85-0.18,2.86c-2.11,6.51-3.96,11.61-5.11,14.14" style="fill:none;stroke:#999;stroke-width:3" />
<path d="M1682.48,48.77c3.65,0.61,6.69,0.04,10.01-0.37c9.39-1.15,19.06-2.29,28-3.27c3.24-0.41,6.49-0.53,9.77-0.38" style="fill:none;stroke:#999;stroke-width:3" />
<path d="M1685.82,50c0.9,0.9,0.98,2.04,0.91,3.22C1685.38,77.38,1679.5,88.38,1671.0,95.5" style="fill:none;stroke:#999;stroke-width:3" />
<path d="M1717.63,51.21c-0.13,1.42-0.83,2.24-1.87,3.05c-5.39,4.24-11.39,8.49-23.11,12.49" style="fill:none;stroke:#999;stroke-width:3" />
<path d="M1722.21,64.76c-0.08,1.36-0.52,2.41-1.61,3.21c-6.22,4.78-15.35,10.16-32.31,15.78" style="fill:none;stroke:#999;stroke-width:3" />
<path d="M1727.47,79.03c-0.09,1.22-0.45,2.35-2.04,3.4c-7.67,5.07-21.07,12.17-40.7,16.82" style="fill:none;stroke:black;stroke-width:3" />
<circle cx="1727.47" cy="79.03" r="5" stroke-width="0" fill="#FF2A00" opacity="0.7" />
</svg>