<svg width="1744px" height="109px" viewBox="0 0 1744px 109px" xmlns="http://www.w3.org/2000/svg" xmlns:xlink="http://www.w3.org/1999/xlink" xml:space="preserve" version="1.1"  baseProfile="full">
<line x1="1" y1="1" x2="1743" y2="1" style="stroke:#ddd;stroke-width:2" />
<line x1="1" y1="1" x2="1" y2="108" style="stroke:#ddd;stroke-width:2" />
<line x1="1" y1="108" x2="1743" y2="108" style="stroke:#ddd;stroke-width:2" />
<line x1="1743" y1="1" x2="1743" y2="108" style="stroke:#ddd;stroke-width:2" />
<line x1="109" y1="1" x2="109" y2="108" style="stroke:#ddd;stroke-width:2" />
<line x1="218" y1="1" x2="218" y2="108" style="stroke:#ddd;stroke-width:2" />
<line x1="327" y1="1" x2="327" y2="108" style="stroke:#ddd;stroke-width:2" />
<line x1="436" y1="1" x2="436" y2="108" style="stroke:#ddd;stroke-width:2" />
<line x1="545" y1="1" x2="545" y2="108" style="stroke:#ddd;stroke-width:2" />
<line x1="654" y1="1" x2="654" y2="108" style="stroke:#ddd;stroke-width:2" />
<line x1="763" y1="1" x2="763" y2="108" style="stroke:#ddd;stroke-width:2" />
<line x1="872" y1="1" x2="872" y2="108" style="stroke:#ddd;stroke-width:2" />
<line x1="981" y1="1" x2="981" y2="108" style="stroke:#ddd;stroke-width:2" />
<line x1="1090" y1="1" x2="1090" y2="108" style="stroke:#ddd;stroke-width:2" />
<line x1="1199" y1="1" x2="1199" y2="108" style="stroke:#ddd;stroke-width:2" />
<line x1="1308" y1="1" x2="1308" y2="108" style="stroke:#ddd;stroke-width:2" />
<line x1="1417" y1="1" x2="1417" y2="108" style="stroke:#ddd;stroke-width:2" />
<line x1="1526" y1="1" x2="1526" y2="108" style="stroke:#ddd;stroke-width:2" />
<line x1="1635" y1="1" x2="1635" y2="108" style="stroke:#ddd;stroke-width:2" />
<line x1="1" y1="54" x2="1743" y2="54" style="stroke:#ddd;stroke-width:2;stroke-dasharray:3 3" />
<line x1="55" y1="1" x2="55" y2="108" style="stroke:#ddd;stroke-width:2;stroke-dasharray:3 3" />
<line x1="164" y1="1" x2="164" y2="108" style="stroke:#ddd;stroke-width:2;stroke-dasharray:3 3" />
<line x1="273" y1="1" x2="273" y2="108" style="stroke:#ddd;stroke-width:2;stroke-dasharray:3 3" />
<line x1="382" y1="1" x2="382" y2="108" style="stroke:#ddd;stroke-width:2;stroke-dasharray:3 3" />
<line x1="491" y1="1" x2="491" y2="108" style="stroke:#ddd;stroke-width:2;stroke-dasharray:3 3" />
<line x1="600" y1="1" x2="600" y2="108" style="stroke:#ddd;stroke-width:2;stroke-dasharray:3 3" />
<line x1="709" y1="1" x2="709" y2="108" style="stroke:#ddd;stroke-width:2;stroke-dasharray:3 3" />
<line x1="818" y1="1" x2="818" y2="108" style="stroke:#ddd;stroke-width:2;stroke-dasharray:3 3" />
<line x1="927" y1="1" x2="927" y2="108" style="stroke:#ddd;stroke-width:2;stroke-dasharray:3 3" />
<line x1="1036" y1="1" x2="1036" y2="108" style="stroke:#ddd;stroke-width:2;stroke-dasharray:3 3" />
<line x1="1145" y1="1" x2="1145" y2="108" style="stroke:#ddd;stroke-width:2;stroke-dasharray:3 3" />
<line x1="1254" y1="1" x2="1254" y2="108" style="stroke:#ddd;stroke-width:2;stroke-dasharray:3 3" />
<line x1="1363" y1="1" x2="1363" y2="108" style="stroke:#ddd;stroke-width:2;stroke-dasharray:3 3" />
<line x1="1472" y1="1" x2="1472" y2="108" style="stroke:#ddd;stroke-width:2;stroke-dasharray:3 3" />
<line x1="1581" y1="1" x2="1581" y2="108" style="stroke:#ddd;stroke-width:2;stroke-dasharray:3 3" />
<line x1="1690" y1="1" x2="1690" y2="108" style="stroke:#ddd;stroke-width:2;stroke-dasharray:3 3" />
<path d="M14.28,19.71c0.37,0.32,0.75,0.58,0.91,0.97c1.28,3.13,1.85,15.2,2.73,20.82" style="fill:none;stroke:black;stroke-width:3" />
<circle cx="14.28" cy="19.71" r="5" stroke-width="0" fill="#FF2A00" opacity="0.7" />
<path d="M123.28,19.71c0.37,0.32,0.75,0.58,0.91,0.97c1.28,3.13,1.85,15.2,2.73,20.82" style="fill:none;stroke:#999;stroke-width:3" />
<path d="M125.11,21.4c9.89-1.15,16.29-2,20.63-2.41c1.58-0.15,2.54,0.89,2.31,1.77c-1.04,4.06-2.15,11.85-3.43,16.5" style="fill:none;stroke:black;stroke-width:3" />
<circle cx="125.11" cy="21.4" r="5" stroke-width="0" fill="#FF2A00" opacity="0.7" />
<path d="M232.28,19.71c0.37,0.32,0.75,0.58,0.91,0.97c1.28,3.13,1.85,15.2,2.73,20.82" style="fill:none;stroke:#999;stroke-width:3" />
<path d="M234.11,21.4c9.89-1.15,16.29-2,20.63-2.41c1.58-0.15,2.54,0.89,2.31,1.77c-1.04,4.06-2.15,11.85-3.43,16.5" style="fill:none;stroke:#999;stroke-width:3" />
<path d="M236.56,39.69c5.09-0.46,12.15-0.84,19.14-1.55" style="fill:none;stroke:black;stroke-width:3" />
<circle cx="236.56" cy="39.69" r="5" stroke-width="0" fill="#FF2A00" opacity="0.7" />
<path d="M341.28,19.71c0.37,0.32,0.75,0.58,0.91,0.97c1.28,3.13,1.85,15.2,2.73,20.82" style="fill:none;stroke:#999;stroke-width:3" />
<path d="M343.11,21.4c9.89-1.15,16.29-2,20.63-2.41c1.58-0.15,2.54,0.89,2.31,1.77c-1.04,4.06-2.15,11.85-3.43,16.5" style="fill:none;stroke:#999;stroke-width:3" />
<path d="M345.56,39.69c5.09-0.46,12.15-0.84,19.14-1.55" style="fill:none;stroke:#999;stroke-width:3" />
<path d="M351.87,41.24c1.09,0.5,1.96,2.23,1.96,3.25c0,5.51,0.28,30.51,0.28,40.5" style="fill:none;stroke:black;stroke-width:3" />
<circle cx="351.87" cy="41.24" r="5" stroke-width="0" fill="#FF2A00" opacity="0.7" />
<path d="M450.28,19.71c0.37,0.32,0.75,0.58,0.91,0.97c1.28,3.13,1.85,15.2,2.73,20.82" style="fill:none;stroke:#999;stroke-width:3" />
<path d="M452.11,21.4c9.89-1.15,16.29-2,20.63-2.41c1.58-0.15,2.54,0.89,2.31,1.77c-1.04,4.06-2.15,11.85-3.43,16.5" style="fill:none;stroke:#999;stroke-width:3" />
<path d="M454.56,39.69c5.09-0.46,12.15-0.84,19.14-1.55" style="fill:none;stroke:#999;stroke-width:3" />
<path d="M460.87,41.24c1.09,0.5,1.96,2.23,1.96,3.25c0,5.51,0.28,30.51,0.28,40.5" style="fill:none;stroke:#999;stroke-width:3" />
<path d="M463.38,60.74c3.37-0.49,6.87-1.24,10.35-1.5c1.74-0.13,2.18-0.25,3.26,0" style="fill:none;stroke:black;stroke-width:3" />
<circle cx="463.38" cy="60.74" r="5" stroke-width="0" fill="#FF2A00" opacity="0.7" />
<path d="M559.28,19.71c0.37,0.32,0.75,0.58,0.91,0.97c1.28,3.13,1.85,15.2,2.73,20.82" style="fill:none;stroke:#999;stroke-width:3" />
<path d="M561.11,21.4c9.89-1.15,16.29-2,20.63-2.41c1.58-0.15,2.54,0.89,2.31,1.77c-1.04,4.06-2.15,11.85-3.43,16.5" style="fill:none;stroke:#999;stroke-width:3" />
<path d="M563.56,39.69c5.09-0.46,12.15-0.84,19.14-1.55" style="fill:none;stroke:#999;stroke-width:3" />
<path d="M569.87,41.24c1.09,0.5,1.96,2.23,1.96,3.25c0,5.51,0.28,30.51,0.28,40.5" style="fill:none;stroke:#999;stroke-width:3" />
<path d="M572.38,60.74c3.37-0.49,6.87-1.24,10.35-1.5c1.74-0.13,2.18-0.25,3.26,0" style="fill:none;stroke:#999;stroke-width:3" />
<path d="M559.87,54.49c1.09,0.5,1.74,2.25,1.96,3.25c0.22,1,0.42,21.01,0.42,32.76" style="fill:none;stroke:black;stroke-width:3" />
<circle cx="559.87" cy="54.49" r="5" stroke-width="0" fill="#FF2A00" opacity="0.7" />
<path d="M668.28,19.71c0.37,0.32,0.75,0.58,0.91,0.97c1.28,3.13,1.85,15.2,2.73,20.82" style="fill:none;stroke:#999;stroke-width:3" />
<path d="M670.11,21.4c9.89-1.15,16.29-2,20.63-2.41c1.58-0.15,2.54,0.89,2.31,1.77c-1.04,4.06-2.15,11.85-3.43,16.5" style="fill:none;stroke:#999;stroke-width:3" />
<path d="M672.56,39.69c5.09-0.46,12.15-0.84,19.14-1.55" style="fill:none;stroke:#999;stroke-width:3" />
<path d="M678.87,41.24c1.09,0.5,1.96,2.23,1.96,3.25c0,5.51,0.28,30.51,0.28,40.5" style="fill:none;stroke:#999;stroke-width:3" />
<path d="M681.38,60.74c3.37-0.49,6.87-1.24,10.35-1.5c1.74-0.13,2.18-0.25,3.26,0" style="fill:none;stroke:#999;stroke-width:3" />
<path d="M668.87,54.49c1.09,0.5,1.74,2.25,1.96,3.25c0.22,1,0.42,21.01,0.42,32.76" style="fill:none;stroke:#999;stroke-width:3" />
<path d="M665.0,91.07c1,0.93,2.87,1.35,3.7,0.9C676.91,87.5,684.94,83.5,694.0,78.49" style="fill:none;stroke:black;stroke-width:3" />
<circle cx="665.0" cy="91.07" r="5" stroke-width="0" fill="#FF2A00" opacity="0.7" />
<path d="M777.28,19.71c0.37,0.32,0.75,0.58,0.91,0.97c1.28,3.13,1.85,15.2,2.73,20.82" style="fill:none;stroke:#999;stroke-width:3" />
<path d="M779.11,21.4c9.89-1.15,16.29-2,20.63-2.41c1.58-0.15,2.54,0.89,2.31,1.77c-1.04,4.06-2.15,11.85-3.43,16.5" style="fill:none;stroke:#999;stroke-width:3" />
<path d="M781.56,39.69c5.09-0.46,12.15-0.84,19.14-1.55" style="fill:none;stroke:#999;stroke-width:3" />
<path d="M787.87,41.24c1.09,0.5,1.96,2.23,1.96,3.25c0,5.51,0.28,30.51,0.28,40.5" style="fill:none;stroke:#999;stroke-width:3" />
<path d="M790.38,60.74c3.37-0.49,6.87-1.24,10.35-1.5c1.74-0.13,2.18-0.25,3.26,0" style="fill:none;stroke:#999;stroke-width:3" />
<path d="M777.87,54.49c1.09,0.5,1.74,2.25,1.96,3.25c0.22,1,0.42,21.01,0.42,32.76" style="fill:none;stroke:#999;stroke-width:3" />
<path d="M774.0,91.07c1,0.93,2.87,1.35,3.7,0.9C785.91,87.5,793.94,83.5,803.0,78.49" style="fill:none;stroke:#999;stroke-width:3" />
<path d="M829.46,11c0.07,0.87,0.29,2.31-0.15,3.5C826.68,21.69,817.65,38.16,803.25,48" style="fill:none;stroke:black;stroke-width:3" />
<circle cx="829.46" cy="11.0" r="5" stroke-width="0" fill="#FF2A00" opacity="0.7" />
<path d="M886.28,19.71c0.37,0.32,0.75,0.58,0.91,0.97c1.28,3.13,1.85,15.2,2.73,20.82" style="fill:none;stroke:#999;stroke-width:3" />
<path d="M888.11,21.4c9.89-1.15,16.29-2,20.63-2.41c1.58-0.15,2.54,0.89,2.31,1.77c-1.04,4.06-2.15,11.85-3.43,16.5" style="fill:none;stroke:#999;stroke-width:3" />
<path d="M890.56,39.69c5.09-0.46,12.15-0.84,19.14-1.55" style="fill:none;stroke:#999;stroke-width:3" />
<path d="M896.87,41.24c1.09,0.5,1.96,2.23,1.96,3.25c0,5.51,0.28,30.51,0.28,40.5" style="fill:none;stroke:#999;stroke-width:3" />
<path d="M899.38,60.74c3.37-0.49,6.87-1.24,10.35-1.5c1.74-0.13,2.18-0.25,3.26,0" style="fill:none;stroke:#999;stroke-width:3" />
<path d="M886.87,54.49c1.09,0.5,1.74,2.25,1.96,3.25c0.22,1,0.42,21.01,0.42,32.76" style="fill:none;stroke:#999;stroke-width:3" />
<path d="M883.0,91.07c1,0.93,2.87,1.35,3.7,0.9C894.91,87.5,902.94,83.5,912.0,78.49" style="fill:none;stroke:#999;stroke-width:3" />
<path d="M938.46,11c0.07,0.87,0.29,2.31-0.15,3.5C935.68,21.69,926.65,38.16,912.25,48" style="fill:none;stroke:#999;stroke-width:3" />
<path d="M939.05,14.86c3.76,5.28,19.94,22.51,24.09,26.37c1.41,1.31,3.21,1.87,4.62,2.25" style="fill:none;stroke:black;stroke-width:3" />
<circle cx="939.05" cy="14.86" r="5" stroke-width="0" fill="#FF2A00" opacity="0.7" />
<path d="M995.28,19.71c0.37,0.32,0.75,0.58,0.91,0.97c1.28,3.13,1.85,15.2,2.73,20.82" style="fill:none;stroke:#999;stroke-width:3" />
<path d="M997.11,21.4c9.89-1.15,16.29-2,20.63-2.41c1.58-0.15,2.54,0.89,2.31,1.77c-1.04,4.06-2.15,11.85-3.43,16.5" style="fill:none;stroke:#999;stroke-width:3" />
<path d="M999.56,39.69c5.09-0.46,12.15-0.84,19.14-1.55" style="fill:none;stroke:#999;stroke-width:3" />
<path d="M1005.87,41.24c1.09,0.5,1.96,2.23,1.96,3.25c0,5.51,0.28,30.51,0.28,40.5" style="fill:none;stroke:#999;stroke-width:3" />
<path d="M1008.38,60.74c3.37-0.49,6.87-1.24,10.35-1.5c1.74-0.13,2.18-0.25,3.26,0" style="fill:none;stroke:#999;stroke-width:3" />
<path d="M995.87,54.49c1.09,0.5,1.74,2.25,1.96,3.25c0.22,1,0.42,21.01,0.42,32.76" style="fill:none;stroke:#999;stroke-width:3" />
<path d="M992.0,91.07c1,0.93,2.87,1.35,3.7,0.9C1003.91,87.5,1011.94,83.5,1021.0,78.49" style="fill:none;stroke:#999;stroke-width:3" />
<path d="M1047.46,11c0.07,0.87,0.29,2.31-0.15,3.5C1044.6799999999998,21.69,1035.65,38.16,1021.25,48" style="fill:none;stroke:#999;stroke-width:3" />
<path d="M1048.05,14.86c3.76,5.28,19.94,22.51,24.09,26.37c1.41,1.31,3.21,1.87,4.62,2.25" style="fill:none;stroke:#999;stroke-width:3" />
<path d="M1037.53,42.05c0.66,0.33,1.87,0.31,2.53,0.33C1044.49,42.51,1055.0,41,1059.76,40.3c1.09-0.16,1.76,0.16,2.31,0.32" style="fill:none;stroke:black;stroke-width:3" />
<circle cx="1037.53" cy="42.05" r="5" stroke-width="0" fill="#FF2A00" opacity="0.7" />
<path d="M1104.28,19.71c0.37,0.32,0.75,0.58,0.91,0.97c1.28,3.13,1.85,15.2,2.73,20.82" style="fill:none;stroke:#999;stroke-width:3" />
<path d="M1106.1100000000001,21.4c9.89-1.15,16.29-2,20.63-2.41c1.58-0.15,2.54,0.89,2.31,1.77c-1.04,4.06-2.15,11.85-3.43,16.5" style="fill:none;stroke:#999;stroke-width:3" />
<path d="M1108.56,39.69c5.09-0.46,12.15-0.84,19.14-1.55" style="fill:none;stroke:#999;stroke-width:3" />
<path d="M1114.87,41.24c1.09,0.5,1.96,2.23,1.96,3.25c0,5.51,0.28,30.51,0.28,40.5" style="fill:none;stroke:#999;stroke-width:3" />
<path d="M1117.38,60.74c3.37-0.49,6.87-1.24,10.35-1.5c1.74-0.13,2.18-0.25,3.26,0" style="fill:none;stroke:#999;stroke-width:3" />
<path d="M1104.87,54.49c1.09,0.5,1.74,2.25,1.96,3.25c0.22,1,0.42,21.01,0.42,32.76" style="fill:none;stroke:#999;stroke-width:3" />
<path d="M1101.0,91.07c1,0.93,2.87,1.35,3.7,0.9C1112.9099999999999,87.5,1120.94,83.5,1130.0,78.49" style="fill:none;stroke:#999;stroke-width:3" />
<path d="M1156.46,11c0.07,0.87,0.29,2.31-0.15,3.5C1153.6799999999998,21.69,1144.65,38.16,1130.25,48" style="fill:none;stroke:#999;stroke-width:3" />
<path d="M1157.05,14.86c3.76,5.28,19.94,22.51,24.09,26.37c1.41,1.31,3.21,1.87,4.62,2.25" style="fill:none;stroke:#999;stroke-width:3" />
<path d="M1146.53,42.05c0.66,0.33,1.87,0.31,2.53,0.33C1153.49,42.51,1164.0,41,1168.76,40.3c1.09-0.16,1.76,0.16,2.31,0.32" style="fill:none;stroke:#999;stroke-width:3" />
<path d="M1136.02,52.25c0.61,1,1.02,2,1.22,3c0.2,1,0.29,40,0.2,42.25" style="fill:none;stroke:black;stroke-width:3" />
<circle cx="1136.02" cy="52.25" r="5" stroke-width="0" fill="#FF2A00" opacity="0.7" />
<path d="M1213.28,19.71c0.37,0.32,0.75,0.58,0.91,0.97c1.28,3.13,1.85,15.2,2.73,20.82" style="fill:none;stroke:#999;stroke-width:3" />
<path d="M1215.1100000000001,21.4c9.89-1.15,16.29-2,20.63-2.41c1.58-0.15,2.54,0.89,2.31,1.77c-1.04,4.06-2.15,11.85-3.43,16.5" style="fill:none;stroke:#999;stroke-width:3" />
<path d="M1217.56,39.69c5.09-0.46,12.15-0.84,19.14-1.55" style="fill:none;stroke:#999;stroke-width:3" />
<path d="M1223.87,41.24c1.09,0.5,1.96,2.23,1.96,3.25c0,5.51,0.28,30.51,0.28,40.5" style="fill:none;stroke:#999;stroke-width:3" />
<path d="M1226.38,60.74c3.37-0.49,6.87-1.24,10.35-1.5c1.74-0.13,2.18-0.25,3.26,0" style="fill:none;stroke:#999;stroke-width:3" />
<path d="M1213.87,54.49c1.09,0.5,1.74,2.25,1.96,3.25c0.22,1,0.42,21.01,0.42,32.76" style="fill:none;stroke:#999;stroke-width:3" />
<path d="M1210.0,91.07c1,0.93,2.87,1.35,3.7,0.9C1221.9099999999999,87.5,1229.94,83.5,1239.0,78.49" style="fill:none;stroke:#999;stroke-width:3" />
<path d="M1265.46,11c0.07,0.87,0.29,2.31-0.15,3.5C1262.6799999999998,21.69,1253.65,38.16,1239.25,48" style="fill:none;stroke:#999;stroke-width:3" />
<path d="M1266.05,14.86c3.76,5.28,19.94,22.51,24.09,26.37c1.41,1.31,3.21,1.87,4.62,2.25" style="fill:none;stroke:#999;stroke-width:3" />
<path d="M1255.53,42.05c0.66,0.33,1.87,0.31,2.53,0.33C1262.49,42.51,1273.0,41,1277.76,40.3c1.09-0.16,1.76,0.16,2.31,0.32" style="fill:none;stroke:#999;stroke-width:3" />
<path d="M1245.02,52.25c0.61,1,1.02,2,1.22,3c0.2,1,0.29,40,0.2,42.25" style="fill:none;stroke:#999;stroke-width:3" />
<path d="M1247.46,54.19c1.36-0.14,13.33-2.55,14.34-2.71c1.81-0.28,2.77,1.77,2.77,3.21c0,2.31-0.34,23.56-0.34,35.1c0,10.21-5.03,2.06-6.16,0.78" style="fill:none;stroke:black;stroke-width:3" />
<circle cx="1247.46" cy="54.19" r="5" stroke-width="0" fill="#FF2A00" opacity="0.7" />
<path d="M1322.28,19.71c0.37,0.32,0.75,0.58,0.91,0.97c1.28,3.13,1.85,15.2,2.73,20.82" style="fill:none;stroke:#999;stroke-width:3" />
<path d="M1324.1100000000001,21.4c9.89-1.15,16.29-2,20.63-2.41c1.58-0.15,2.54,0.89,2.31,1.77c-1.04,4.06-2.15,11.85-3.43,16.5" style="fill:none;stroke:#999;stroke-width:3" />
<path d="M1326.56,39.69c5.09-0.46,12.15-0.84,19.14-1.55" style="fill:none;stroke:#999;stroke-width:3" />
<path d="M1332.87,41.24c1.09,0.5,1.96,2.23,1.96,3.25c0,5.51,0.28,30.51,0.28,40.5" style="fill:none;stroke:#999;stroke-width:3" />
<path d="M1335.38,60.74c3.37-0.49,6.87-1.24,10.35-1.5c1.74-0.13,2.18-0.25,3.26,0" style="fill:none;stroke:#999;stroke-width:3" />
<path d="M1322.87,54.49c1.09,0.5,1.74,2.25,1.96,3.25c0.22,1,0.42,21.01,0.42,32.76" style="fill:none;stroke:#999;stroke-width:3" />
<path d="M1319.0,91.07c1,0.93,2.87,1.35,3.7,0.9C1330.9099999999999,87.5,1338.94,83.5,1348.0,78.49" style="fill:none;stroke:#999;stroke-width:3" />
<path d="M1374.46,11c0.07,0.87,0.29,2.31-0.15,3.5C1371.6799999999998,21.69,1362.65,38.16,1348.25,48" style="fill:none;stroke:#999;stroke-width:3" />
<path d="M1375.05,14.86c3.76,5.28,19.94,22.51,24.09,26.37c1.41,1.31,3.21,1.87,4.62,2.25" style="fill:none;stroke:#999;stroke-width:3" />
<path d="M1364.53,42.05c0.66,0.33,1.87,0.31,2.53,0.33C1371.49,42.51,1382.0,41,1386.76,40.3c1.09-0.16,1.76,0.16,2.31,0.32" style="fill:none;stroke:#999;stroke-width:3" />
<path d="M1354.02,52.25c0.61,1,1.02,2,1.22,3c0.2,1,0.29,40,0.2,42.25" style="fill:none;stroke:#999;stroke-width:3" />
<path d="M1356.46,54.19c1.36-0.14,13.33-2.55,14.34-2.71c1.81-0.28,2.77,1.77,2.77,3.21c0,2.31-0.34,23.56-0.34,35.1c0,10.21-5.03,2.06-6.16,0.78" style="fill:none;stroke:#999;stroke-width:3" />
<path d="M1361.18,61.33c2.19,0.95,5.66,3.91,6.21,5.38" style="fill:none;stroke:black;stroke-width:3" />
<circle cx="1361.18" cy="61.33" r="5" stroke-width="0" fill="#FF2A00" opacity="0.7" />
<path d="M1431.28,19.71c0.37,0.32,0.75,0.58,0.91,0.97c1.28,3.13,1.85,15.2,2.73,20.82" style="fill:none;stroke:#999;stroke-width:3" />
<path d="M1433.1100000000001,21.4c9.89-1.15,16.29-2,20.63-2.41c1.58-0.15,2.54,0.89,2.31,1.77c-1.04,4.06-2.15,11.85-3.43,16.5" style="fill:none;stroke:#999;stroke-width:3" />
<path d="M1435.56,39.69c5.09-0.46,12.15-0.84,19.14-1.55" style="fill:none;stroke:#999;stroke-width:3" />
<path d="M1441.87,41.24c1.09,0.5,1.96,2.23,1.96,3.25c0,5.51,0.28,30.51,0.28,40.5" style="fill:none;stroke:#999;stroke-width:3" />
<path d="M1444.38,60.74c3.37-0.49,6.87-1.24,10.35-1.5c1.74-0.13,2.18-0.25,3.26,0" style="fill:none;stroke:#999;stroke-width:3" />
<path d="M1431.87,54.49c1.09,0.5,1.74,2.25,1.96,3.25c0.22,1,0.42,21.01,0.42,32.76" style="fill:none;stroke:#999;stroke-width:3" />
<path d="M1428.0,91.07c1,0.93,2.87,1.35,3.7,0.9C1439.9099999999999,87.5,1447.94,83.5,1457.0,78.49" style="fill:none;stroke:#999;stroke-width:3" />
<path d="M1483.46,11c0.07,0.87,0.29,2.31-0.15,3.5C1480.6799999999998,21.69,1471.65,38.16,1457.25,48" style="fill:none;stroke:#999;stroke-width:3" />
<path d="M1484.05,14.86c3.76,5.28,19.94,22.51,24.09,26.37c1.41,1.31,3.21,1.87,4.62,2.25" style="fill:none;stroke:#999;stroke-width:3" />
<path d="M1473.53,42.05c0.66,0.33,1.87,0.31,2.53,0.33C1480.49,42.51,1491.0,41,1495.76,40.3c1.09-0.16,1.76,0.16,2.31,0.32" style="fill:none;stroke:#999;stroke-width:3" />
<path d="M1463.02,52.25c0.61,1,1.02,2,1.22,3c0.2,1,0.29,40,0.2,42.25" style="fill:none;stroke:#999;stroke-width:3" />
<path d="M1465.46,54.19c1.36-0.14,13.33-2.55,14.34-2.71c1.81-0.28,2.77,1.77,2.77,3.21c0,2.31-0.34,23.56-0.34,35.1c0,10.21-5.03,2.06-6.16,0.78" style="fill:none;stroke:#999;stroke-width:3" />
<path d="M1470.18,61.33c2.19,0.95,5.66,3.91,6.21,5.38" style="fill:none;stroke:#999;stroke-width:3" />
<path d="M1470.58,73.83c1.94,1.08,5.02,4.45,5.51,6.13" style="fill:none;stroke:black;stroke-width:3" />
<circle cx="1470.58" cy="73.83" r="5" stroke-width="0" fill="#FF2A00" opacity="0.7" />
<path d="M1540.28,19.71c0.37,0.32,0.75,0.58,0.91,0.97c1.28,3.13,1.85,15.2,2.73,20.82" style="fill:none;stroke:#999;stroke-width:3" />
<path d="M1542.1100000000001,21.4c9.89-1.15,16.29-2,20.63-2.41c1.58-0.15,2.54,0.89,2.31,1.77c-1.04,4.06-2.15,11.85-3.43,16.5" style="fill:none;stroke:#999;stroke-width:3" />
<path d="M1544.56,39.69c5.09-0.46,12.15-0.84,19.14-1.55" style="fill:none;stroke:#999;stroke-width:3" />
<path d="M1550.87,41.24c1.09,0.5,1.96,2.23,1.96,3.25c0,5.51,0.28,30.51,0.28,40.5" style="fill:none;stroke:#999;stroke-width:3" />
<path d="M1553.38,60.74c3.37-0.49,6.87-1.24,10.35-1.5c1.74-0.13,2.18-0.25,3.26,0" style="fill:none;stroke:#999;stroke-width:3" />
<path d="M1540.87,54.49c1.09,0.5,1.74,2.25,1.96,3.25c0.22,1,0.42,21.01,0.42,32.76" style="fill:none;stroke:#999;stroke-width:3" />
<path d="M1537.0,91.07c1,0.93,2.87,1.35,3.7,0.9C1548.9099999999999,87.5,1556.94,83.5,1566.0,78.49" style="fill:none;stroke:#999;stroke-width:3" />
<path d="M1592.46,11c0.07,0.87,0.29,2.31-0.15,3.5C1589.6799999999998,21.69,1580.65,38.16,1566.25,48" style="fill:none;stroke:#999;stroke-width:3" />
<path d="M1593.05,14.86c3.76,5.28,19.94,22.51,24.09,26.37c1.41,1.31,3.21,1.87,4.62,2.25" style="fill:none;stroke:#999;stroke-width:3" />
<path d="M1582.53,42.05c0.66,0.33,1.87,0.31,2.53,0.33C1589.49,42.51,1600.0,41,1604.76,40.3c1.09-0.16,1.76,0.16,2.31,0.32" style="fill:none;stroke:#999;stroke-width:3" />
<path d="M1572.02,52.25c0.61,1,1.02,2,1.22,3c0.2,1,0.29,40,0.2,42.25" style="fill:none;stroke:#999;stroke-width:3" />
<path d="M1574.46,54.19c1.36-0.14,13.33-2.55,14.34-2.71c1.81-0.28,2.77,1.77,2.77,3.21c0,2.31-0.34,23.56-0.34,35.1c0,10.21-5.03,2.06-6.16,0.78" style="fill:none;stroke:#999;stroke-width:3" />
<path d="M1579.18,61.33c2.19,0.95,5.66,3.91,6.21,5.38" style="fill:none;stroke:#999;stroke-width:3" />
<path d="M1579.58,73.83c1.94,1.08,5.02,4.45,5.51,6.13" style="fill:none;stroke:#999;stroke-width:3" />
<path d="M1605.89,50.12c0.29,1.04,0.58,2.84,0.16,4.27c-1.3,4.37-6.26,11.16-10.21,16.39c-1.08,1.43-0.01,2.34,0.28,2.64c4.79,4.79,7.12,11.23,9.53,21.59" style="fill:none;stroke:black;stroke-width:3" />
<circle cx="1605.89" cy="50.12" r="5" stroke-width="0" fill="#FF2A00" opacity="0.7" />
<path d="M1649.28,19.71c0.37,0.32,0.75,0.58,0.91,0.97c1.28,3.13,1.85,15.2,2.73,20.82" style="fill:none;stroke:#999;stroke-width:3" />
<path d="M1651.1100000000001,21.4c9.89-1.15,16.29-2,20.63-2.41c1.58-0.15,2.54,0.89,2.31,1.77c-1.04,4.06-2.15,11.85-3.43,16.5" style="fill:none;stroke:#999;stroke-width:3" />
<path d="M1653.56,39.69c5.09-0.46,12.15-0.84,19.14-1.55" style="fill:none;stroke:#999;stroke-width:3" />
<path d="M1659.87,41.24c1.09,0.5,1.96,2.23,1.96,3.25c0,5.51,0.28,30.51,0.28,40.5" style="fill:none;stroke:#999;stroke-width:3" />
<path d="M1662.38,60.74c3.37-0.49,6.87-1.24,10.35-1.5c1.74-0.13,2.18-0.25,3.26,0" style="fill:none;stroke:#999;stroke-width:3" />
<path d="M1649.87,54.49c1.09,0.5,1.74,2.25,1.96,3.25c0.22,1,0.42,21.01,0.42,32.76" style="fill:none;stroke:#999;stroke-width:3" />
<path d="M1646.0,91.07c1,0.93,2.87,1.35,3.7,0.9C1657.9099999999999,87.5,1665.94,83.5,1675.0,78.49" style="fill:none;stroke:#999;stroke-width:3" />
<path d="M1701.46,11c0.07,0.87,0.29,2.31-0.15,3.5C1698.6799999999998,21.69,1689.65,38.16,1675.25,48" style="fill:none;stroke:#999;stroke-width:3" />
<path d="M1702.05,14.86c3.76,5.28,19.94,22.51,24.09,26.37c1.41,1.31,3.21,1.87,4.62,2.25" style="fill:none;stroke:#999;stroke-width:3" />
<path d="M1691.53,42.05c0.66,0.33,1.87,0.31,2.53,0.33C1698.49,42.51,1709.0,41,1713.76,40.3c1.09-0.16,1.76,0.16,2.31,0.32" style="fill:none;stroke:#999;stroke-width:3" />
<path d="M1681.02,52.25c0.61,1,1.02,2,1.22,3c0.2,1,0.29,40,0.2,42.25" style="fill:none;stroke:#999;stroke-width:3" />
<path d="M1683.46,54.19c1.36-0.14,13.33-2.55,14.34-2.71c1.81-0.28,2.77,1.77,2.77,3.21c0,2.31-0.34,23.56-0.34,35.1c0,10.21-5.03,2.06-6.16,0.78" style="fill:none;stroke:#999;stroke-width:3" />
<path d="M1688.18,61.33c2.19,0.95,5.66,3.91,6.21,5.38" style="fill:none;stroke:#999;stroke-width:3" />
<path d="M1688.58,73.83c1.94,1.08,5.02,4.45,5.51,6.13" style="fill:none;stroke:#999;stroke-width:3" />
<path d="M1714.89,50.12c0.29,1.04,0.58,2.84,0.16,4.27c-1.3,4.37-6.26,11.16-10.21,16.39c-1.08,1.43-0.01,2.34,0.28,2.64c4.79,4.79,7.12,11.23,9.53,21.59" style="fill:none;stroke:#999;stroke-width:3" />
<path d="M1726.35,52.12c0.29,1.06,0.6,2.88,0.17,4.33c-1.32,4.43-5.48,9.44-9.48,14.74c-1.09,1.45-0.01,2.38,0.29,2.68c4.85,4.85,8.68,11.39,11.01,21.89" style="fill:none;stroke:black;stroke-width:3" />
<circle cx="1726.35" cy="52.12" r="5" stroke-width="0" fill="#FF2A00" opacity="0.7" />
</svg>