<svg width="545px" height="109px" viewBox="0 0 545px 109px" xmlns="http://www.w3.org/2000/svg" xmlns:xlink="http://www.w3.org/1999/xlink" xml:space="preserve" version="1.1"  baseProfile="full">
<line x1="1" y1="1" x2="544" y2="1" style="stroke:#ddd;stroke-width:2" />
<line x1="1" y1="1" x2="1" y2="108" style="stroke:#ddd;stroke-width:2" />
<line x1="1" y1="108" x2="544" y2="108" style="stroke:#ddd;stroke-width:2" />
<line x1="544" y1="1" x2="544" y2="108" style="stroke:#ddd;stroke-width:2" />
<line x1="109" y1="1" x2="109" y2="108" style="stroke:#ddd;stroke-width:2" />
<line x1="218" y1="1" x2="218" y2="108" style="stroke:#ddd;stroke-width:2" />
<line x1="327" y1="1" x2="327" y2="108" style="stroke:#ddd;stroke-width:2" />
<line x1="436" y1="1" x2="436" y2="108" style="stroke:#ddd;stroke-width:2" />
<line x1="1" y1="54" x2="544" y2="54" style="stroke:#ddd;stroke-width:2;stroke-dasharray:3 3" />
<line x1="55" y1="1" x2="55" y2="108" style="stroke:#ddd;stroke-width:2;stroke-dasharray:3 3" />
<line x1="164" y1="1" x2="164" y2="108" style="stroke:#ddd;stroke-width:2;stroke-dasharray:3 3" />
<line x1="273" y1="1" x2="273" y2="108" style="stroke:#ddd;stroke-width:2;stroke-dasharray:3 3" />
<line x1="382" y1="1" x2="382" y2="108" style="stroke:#ddd;stroke-width:2;stroke-dasharray:3 3" />
<line x1="491" y1="1" x2="491" y2="108" style="stroke:#ddd;stroke-width:2;stroke-dasharray:3 3" />
<path d="M42.32,43.34c1.15,0.41,3.26,0.54,4.4,0.41C58.0,42.5,78.83,39.69,88.91,39.53c1.91-0.03,3.06,0.2,4.02,0.4" style="fill:none;stroke:black;stroke-width:3" />
<circle cx="42.32" cy="43.34" r="5" stroke-width="0" fill="#FF2A00" opacity="0.7" />
<path d="M151.32,43.34c1.15,0.41,3.26,0.54,4.4,0.41C167.0,42.5,187.82999999999998,39.69,197.91,39.53c1.91-0.03,3.06,0.2,4.02,0.4" style="fill:none;stroke:#999;stroke-width:3" />
<path d="M174.78,13.88c0.57,0.46,1.79,3.42,1.9,4.33c0.12,0.91-0.07,55.21-0.19,60.92" style="fill:none;stroke:black;stroke-width:3" />
<circle cx="174.78" cy="13.88" r="5" stroke-width="0" fill="#FF2A00" opacity="0.7" />
<path d="M260.32,43.34c1.15,0.41,3.26,0.54,4.4,0.41C276.0,42.5,296.83,39.69,306.90999999999997,39.53c1.91-0.03,3.06,0.2,4.02,0.4" style="fill:none;stroke:#999;stroke-width:3" />
<path d="M283.78,13.88c0.57,0.46,1.79,3.42,1.9,4.33c0.12,0.91-0.07,55.21-0.19,60.92" style="fill:none;stroke:#999;stroke-width:3" />
<path d="M239.21,19.25c3.63,1.74,9.38,7.17,10.29,9.88" style="fill:none;stroke:black;stroke-width:3" />
<circle cx="239.21" cy="19.25" r="5" stroke-width="0" fill="#FF2A00" opacity="0.7" />
<path d="M369.32,43.34c1.15,0.41,3.26,0.54,4.4,0.41C385.0,42.5,405.83,39.69,415.90999999999997,39.53c1.91-0.03,3.06,0.2,4.02,0.4" style="fill:none;stroke:#999;stroke-width:3" />
<path d="M392.78,13.88c0.57,0.46,1.79,3.42,1.9,4.33c0.12,0.91-0.07,55.21-0.19,60.92" style="fill:none;stroke:#999;stroke-width:3" />
<path d="M348.21000000000004,19.25c3.63,1.74,9.38,7.17,10.29,9.88" style="fill:none;stroke:#999;stroke-width:3" />
<path d="M340.0,50.75c2.25,1,3.75,0.5,4.75,0.25s9.5-3.5,11-4s3.75,1.25,2.75,2.75s-4,7.25-4.75,8.5s-0.5,3.5,1,5.25s2.75,3.75,3.5,5.25s0.75,2.75-0.75,4S,348.5,81,347.0,81.5" style="fill:none;stroke:black;stroke-width:3" />
<circle cx="340.0" cy="50.75" r="5" stroke-width="0" fill="#FF2A00" opacity="0.7" />
<path d="M478.32,43.34c1.15,0.41,3.26,0.54,4.4,0.41C494.0,42.5,514.8299999999999,39.69,524.91,39.53c1.91-0.03,3.06,0.2,4.02,0.4" style="fill:none;stroke:#999;stroke-width:3" />
<path d="M501.78,13.88c0.57,0.46,1.79,3.42,1.9,4.33c0.12,0.91-0.07,55.21-0.19,60.92" style="fill:none;stroke:#999;stroke-width:3" />
<path d="M457.21000000000004,19.25c3.63,1.74,9.38,7.17,10.29,9.88" style="fill:none;stroke:#999;stroke-width:3" />
<path d="M449.0,50.75c2.25,1,3.75,0.5,4.75,0.25s9.5-3.5,11-4s3.75,1.25,2.75,2.75s-4,7.25-4.75,8.5s-0.5,3.5,1,5.25s2.75,3.75,3.5,5.25s0.75,2.75-0.75,4S,348.5,81,347.0,81.5" style="fill:none;stroke:#999;stroke-width:3" />
<path d="M451.75,83.43c2.95-0.47,8.86-1.65,13.28-0.71c4.43,0.94,29.59,7.26,33.95,8.48c11.81,3.3,20.91,4.24,29.77,2.59" style="fill:none;stroke:black;stroke-width:3" />
<circle cx="451.75" cy="83.43" r="5" stroke-width="0" fill="#FF2A00" opacity="0.7" />
</svg>