<svg width="654px" height="109px" viewBox="0 0 654px 109px" xmlns="http://www.w3.org/2000/svg" xmlns:xlink="http://www.w3.org/1999/xlink" xml:space="preserve" version="1.1"  baseProfile="full">
<line x1="1" y1="1" x2="653" y2="1" style="stroke:#ddd;stroke-width:2" />
<line x1="1" y1="1" x2="1" y2="108" style="stroke:#ddd;stroke-width:2" />
<line x1="1" y1="108" x2="653" y2="108" style="stroke:#ddd;stroke-width:2" />
<line x1="653" y1="1" x2="653" y2="108" style="stroke:#ddd;stroke-width:2" />
<line x1="109" y1="1" x2="109" y2="108" style="stroke:#ddd;stroke-width:2" />
<line x1="218" y1="1" x2="218" y2="108" style="stroke:#ddd;stroke-width:2" />
<line x1="327" y1="1" x2="327" y2="108" style="stroke:#ddd;stroke-width:2" />
<line x1="436" y1="1" x2="436" y2="108" style="stroke:#ddd;stroke-width:2" />
<line x1="545" y1="1" x2="545" y2="108" style="stroke:#ddd;stroke-width:2" />
<line x1="1" y1="54" x2="653" y2="54" style="stroke:#ddd;stroke-width:2;stroke-dasharray:3 3" />
<line x1="55" y1="1" x2="55" y2="108" style="stroke:#ddd;stroke-width:2;stroke-dasharray:3 3" />
<line x1="164" y1="1" x2="164" y2="108" style="stroke:#ddd;stroke-width:2;stroke-dasharray:3 3" />
<line x1="273" y1="1" x2="273" y2="108" style="stroke:#ddd;stroke-width:2;stroke-dasharray:3 3" />
<line x1="382" y1="1" x2="382" y2="108" style="stroke:#ddd;stroke-width:2;stroke-dasharray:3 3" />
<line x1="491" y1="1" x2="491" y2="108" style="stroke:#ddd;stroke-width:2;stroke-dasharray:3 3" />
<line x1="600" y1="1" x2="600" y2="108" style="stroke:#ddd;stroke-width:2;stroke-dasharray:3 3" />
<path d="M62.12,15.5c0.66,0.39,2.05,2.9,2.18,3.68c0.13,0.78-0.08,46.89-0.22,51.74" style="fill:none;stroke:black;stroke-width:3" />
<circle cx="62.12" cy="15.5" r="5" stroke-width="0" fill="#FF2A00" opacity="0.7" />
<path d="M171.12,15.5c0.66,0.39,2.05,2.9,2.18,3.68c0.13,0.78-0.08,46.89-0.22,51.74" style="fill:none;stroke:#999;stroke-width:3" />
<path d="M153.28,35.84c0.66,0.39,1.32,2.53,1.31,3.31c-0.09,5.35,0.16,22.1-0.67,31.42c-0.16,1.78-0.33,3.49,1.3,3.25c5.85-0.87,30.99-2.98,39.22-3.2" style="fill:none;stroke:black;stroke-width:3" />
<circle cx="153.28" cy="35.84" r="5" stroke-width="0" fill="#FF2A00" opacity="0.7" />
<path d="M280.12,15.5c0.66,0.39,2.05,2.9,2.18,3.68c0.13,0.78-0.08,46.89-0.22,51.74" style="fill:none;stroke:#999;stroke-width:3" />
<path d="M262.28,35.84c0.66,0.39,1.32,2.53,1.31,3.31c-0.09,5.35,0.16,22.1-0.67,31.42c-0.16,1.78-0.33,3.49,1.3,3.25c5.85-0.87,30.99-2.98,39.22-3.2" style="fill:none;stroke:#999;stroke-width:3" />
<path d="M303.19,31.86c0.21,0.53,1.44,3.92,1.41,4.97c-0.2,6.43-0.41,25.43-0.74,37.42" style="fill:none;stroke:black;stroke-width:3" />
<circle cx="303.19" cy="31.86" r="5" stroke-width="0" fill="#FF2A00" opacity="0.7" />
<path d="M389.12,15.5c0.66,0.39,2.05,2.9,2.18,3.68c0.13,0.78-0.08,46.89-0.22,51.74" style="fill:none;stroke:#999;stroke-width:3" />
<path d="M371.28,35.84c0.66,0.39,1.32,2.53,1.31,3.31c-0.09,5.35,0.16,22.1-0.67,31.42c-0.16,1.78-0.33,3.49,1.3,3.25c5.85-0.87,30.99-2.98,39.22-3.2" style="fill:none;stroke:#999;stroke-width:3" />
<path d="M412.19,31.86c0.21,0.53,1.44,3.92,1.41,4.97c-0.2,6.43-0.41,25.43-0.74,37.42" style="fill:none;stroke:#999;stroke-width:3" />
<path d="M343.71,24.75c5.04,1.48,13.03,6.08,14.29,8.38" style="fill:none;stroke:black;stroke-width:3" />
<circle cx="343.71" cy="24.75" r="5" stroke-width="0" fill="#FF2A00" opacity="0.7" />
<path d="M498.12,15.5c0.66,0.39,2.05,2.9,2.18,3.68c0.13,0.78-0.08,46.89-0.22,51.74" style="fill:none;stroke:#999;stroke-width:3" />
<path d="M480.28,35.84c0.66,0.39,1.32,2.53,1.31,3.31c-0.09,5.35,0.16,22.1-0.67,31.42c-0.16,1.78-0.33,3.49,1.3,3.25c5.85-0.87,30.99-2.98,39.22-3.2" style="fill:none;stroke:#999;stroke-width:3" />
<path d="M521.19,31.86c0.21,0.53,1.44,3.92,1.41,4.97c-0.2,6.43-0.41,25.43-0.74,37.42" style="fill:none;stroke:#999;stroke-width:3" />
<path d="M452.71,24.75c5.04,1.48,13.03,6.08,14.29,8.38" style="fill:none;stroke:#999;stroke-width:3" />
<path d="M449.0,58.36c2.25,0.83,3.75,0.42,4.75,0.21s8.51-3.9,10-4.33c2.5-0.74,3.25,1.04,2.25,2.29s-5,7.54-5.75,8.59c-0.75,1.04-0.5,2.92,1,4.38s3.25,3.13,4,4.38C466.0,75.12,466.0,76.16,464.5,77.2c-1.5,1.04-9.5,6.88-11,7.3" style="fill:none;stroke:black;stroke-width:3" />
<circle cx="449.0" cy="58.36" r="5" stroke-width="0" fill="#FF2A00" opacity="0.7" />
<path d="M607.12,15.5c0.66,0.39,2.05,2.9,2.18,3.68c0.13,0.78-0.08,46.89-0.22,51.74" style="fill:none;stroke:#999;stroke-width:3" />
<path d="M589.28,35.84c0.66,0.39,1.32,2.53,1.31,3.31c-0.09,5.35,0.16,22.1-0.67,31.42c-0.16,1.78-0.33,3.49,1.3,3.25c5.85-0.87,30.99-2.98,39.22-3.2" style="fill:none;stroke:#999;stroke-width:3" />
<path d="M630.19,31.86c0.21,0.53,1.44,3.92,1.41,4.97c-0.2,6.43-0.41,25.43-0.74,37.42" style="fill:none;stroke:#999;stroke-width:3" />
<path d="M561.71,24.75c5.04,1.48,13.03,6.08,14.29,8.38" style="fill:none;stroke:#999;stroke-width:3" />
<path d="M558.0,58.36c2.25,0.83,3.75,0.42,4.75,0.21s8.51-3.9,10-4.33c2.5-0.74,3.25,1.04,2.25,2.29s-5,7.54-5.75,8.59c-0.75,1.04-0.5,2.92,1,4.38s3.25,3.13,4,4.38C575.0,75.12,575.0,76.16,573.5,77.2c-1.5,1.04-9.5,6.88-11,7.3" style="fill:none;stroke:#999;stroke-width:3" />
<path d="M557.75,85.59c3.06-0.32,9.17-1.11,13.76-0.47s30.65,4.89,35.16,5.7c12.23,2.22,21.66,2.85,30.83,1.74" style="fill:none;stroke:black;stroke-width:3" />
<circle cx="557.75" cy="85.59" r="5" stroke-width="0" fill="#FF2A00" opacity="0.7" />
</svg>