<svg width="654px" height="109px" viewBox="0 0 654px 109px" xmlns="http://www.w3.org/2000/svg" xmlns:xlink="http://www.w3.org/1999/xlink" xml:space="preserve" version="1.1"  baseProfile="full">
<line x1="1" y1="1" x2="653" y2="1" style="stroke:#ddd;stroke-width:2" />
<line x1="1" y1="1" x2="1" y2="108" style="stroke:#ddd;stroke-width:2" />
<line x1="1" y1="108" x2="653" y2="108" style="stroke:#ddd;stroke-width:2" />
<line x1="653" y1="1" x2="653" y2="108" style="stroke:#ddd;stroke-width:2" />
<line x1="109" y1="1" x2="109" y2="108" style="stroke:#ddd;stroke-width:2" />
<line x1="218" y1="1" x2="218" y2="108" style="stroke:#ddd;stroke-width:2" />
<line x1="327" y1="1" x2="327" y2="108" style="stroke:#ddd;stroke-width:2" />
<line x1="436" y1="1" x2="436" y2="108" style="stroke:#ddd;stroke-width:2" />
<line x1="545" y1="1" x2="545" y2="108" style="stroke:#ddd;stroke-width:2" />
<line x1="1" y1="54" x2="653" y2="54" style="stroke:#ddd;stroke-width:2;stroke-dasharray:3 3" />
<line x1="55" y1="1" x2="55" y2="108" style="stroke:#ddd;stroke-width:2;stroke-dasharray:3 3" />
<line x1="164" y1="1" x2="164" y2="108" style="stroke:#ddd;stroke-width:2;stroke-dasharray:3 3" />
<line x1="273" y1="1" x2="273" y2="108" style="stroke:#ddd;stroke-width:2;stroke-dasharray:3 3" />
<line x1="382" y1="1" x2="382" y2="108" style="stroke:#ddd;stroke-width:2;stroke-dasharray:3 3" />
<line x1="491" y1="1" x2="491" y2="108" style="stroke:#ddd;stroke-width:2;stroke-dasharray:3 3" />
<line x1="600" y1="1" x2="600" y2="108" style="stroke:#ddd;stroke-width:2;stroke-dasharray:3 3" />
<path d="M44.66,21.57c2.71,0.16,5.4,0.06,8.08-0.29c7.84-0.9,20.66-2.27,28.25-2.54c1.84-0.13,3.68-0.04,5.51,0.27" style="fill:none;stroke:black;stroke-width:3" />
<circle cx="44.66" cy="21.57" r="5" stroke-width="0" fill="#FF2A00" opacity="0.7" />
<path d="M153.66,21.57c2.71,0.16,5.4,0.06,8.08-0.29c7.84-0.9,20.66-2.27,28.25-2.54c1.84-0.13,3.68-0.04,5.51,0.27" style="fill:none;stroke:#999;stroke-width:3" />
<path d="M148.77,44.62c2.65,0.57,5.28,0.47,7.96,0.2c11.64-1.19,25.14-2.32,39.05-3.33c2.49-0.18,4.97,0.03,7.44,0.44" style="fill:none;stroke:black;stroke-width:3" />
<circle cx="148.77" cy="44.62" r="5" stroke-width="0" fill="#FF2A00" opacity="0.7" />
<path d="M262.65999999999997,21.57c2.71,0.16,5.4,0.06,8.08-0.29c7.84-0.9,20.66-2.27,28.25-2.54c1.84-0.13,3.68-0.04,5.51,0.27" style="fill:none;stroke:#999;stroke-width:3" />
<path d="M257.77,44.62c2.65,0.57,5.28,0.47,7.96,0.2c11.64-1.19,25.14-2.32,39.05-3.33c2.49-0.18,4.97,0.03,7.44,0.44" style="fill:none;stroke:#999;stroke-width:3" />
<path d="M283.0,22.03c1.06,1.06,1.44,2.41,1.44,4.86c0,11.85,0.03,45.67,0.03,50.98c0,8.47-7.63,0.16-8.61-0.6" style="fill:none;stroke:black;stroke-width:3" />
<circle cx="283.0" cy="22.03" r="5" stroke-width="0" fill="#FF2A00" opacity="0.7" />
<path d="M371.65999999999997,21.57c2.71,0.16,5.4,0.06,8.08-0.29c7.84-0.9,20.66-2.27,28.25-2.54c1.84-0.13,3.68-0.04,5.51,0.27" style="fill:none;stroke:#999;stroke-width:3" />
<path d="M366.77,44.62c2.65,0.57,5.28,0.47,7.96,0.2c11.64-1.19,25.14-2.32,39.05-3.33c2.49-0.18,4.97,0.03,7.44,0.44" style="fill:none;stroke:#999;stroke-width:3" />
<path d="M392.0,22.03c1.06,1.06,1.44,2.41,1.44,4.86c0,11.85,0.03,45.67,0.03,50.98c0,8.47-7.63,0.16-8.61-0.6" style="fill:none;stroke:#999;stroke-width:3" />
<path d="M347.96,19.5c3.63,1.74,9.38,7.17,10.29,9.88" style="fill:none;stroke:black;stroke-width:3" />
<circle cx="347.96" cy="19.5" r="5" stroke-width="0" fill="#FF2A00" opacity="0.7" />
<path d="M480.65999999999997,21.57c2.71,0.16,5.4,0.06,8.08-0.29c7.84-0.9,20.66-2.27,28.25-2.54c1.84-0.13,3.68-0.04,5.51,0.27" style="fill:none;stroke:#999;stroke-width:3" />
<path d="M475.77,44.62c2.65,0.57,5.28,0.47,7.96,0.2c11.64-1.19,25.14-2.32,39.05-3.33c2.49-0.18,4.97,0.03,7.44,0.44" style="fill:none;stroke:#999;stroke-width:3" />
<path d="M501.0,22.03c1.06,1.06,1.44,2.41,1.44,4.86c0,11.85,0.03,45.67,0.03,50.98c0,8.47-7.63,0.16-8.61-0.6" style="fill:none;stroke:#999;stroke-width:3" />
<path d="M456.96,19.5c3.63,1.74,9.38,7.17,10.29,9.88" style="fill:none;stroke:#999;stroke-width:3" />
<path d="M449.25,50.75c2.25,1,3.78,0.6,4.75,0.25c3.75-1.38,6.75-2.38,10.25-4c2.59-1.2,3.75,1.25,2.75,2.75s-4,7.5-4.75,8.75s-0.5,3.5,1,5.25s2.75,3.5,3.5,5s0.75,2.75-0.75,4S,457.0,81,455.5,81.5" style="fill:none;stroke:black;stroke-width:3" />
<circle cx="449.25" cy="50.75" r="5" stroke-width="0" fill="#FF2A00" opacity="0.7" />
<path d="M589.66,21.57c2.71,0.16,5.4,0.06,8.08-0.29c7.84-0.9,20.66-2.27,28.25-2.54c1.84-0.13,3.68-0.04,5.51,0.27" style="fill:none;stroke:#999;stroke-width:3" />
<path d="M584.77,44.62c2.65,0.57,5.28,0.47,7.96,0.2c11.64-1.19,25.14-2.32,39.05-3.33c2.49-0.18,4.97,0.03,7.44,0.44" style="fill:none;stroke:#999;stroke-width:3" />
<path d="M610.0,22.03c1.06,1.06,1.44,2.41,1.44,4.86c0,11.85,0.03,45.67,0.03,50.98c0,8.47-7.63,0.16-8.61-0.6" style="fill:none;stroke:#999;stroke-width:3" />
<path d="M565.96,19.5c3.63,1.74,9.38,7.17,10.29,9.88" style="fill:none;stroke:#999;stroke-width:3" />
<path d="M558.25,50.75c2.25,1,3.78,0.6,4.75,0.25c3.75-1.38,6.75-2.38,10.25-4c2.59-1.2,3.75,1.25,2.75,2.75s-4,7.5-4.75,8.75s-0.5,3.5,1,5.25s2.75,3.5,3.5,5s0.75,2.75-0.75,4S,457.0,81,455.5,81.5" style="fill:none;stroke:#999;stroke-width:3" />
<path d="M560.25,83c3-0.5,9-1.75,13.5-0.75s30.07,7.71,34.5,9c12,3.5,21.25,4.75,30.25,3" style="fill:none;stroke:black;stroke-width:3" />
<circle cx="560.25" cy="83.0" r="5" stroke-width="0" fill="#FF2A00" opacity="0.7" />
</svg>