<svg width="1090px" height="109px" viewBox="0 0 1090px 109px" xmlns="http://www.w3.org/2000/svg" xmlns:xlink="http://www.w3.org/1999/xlink" xml:space="preserve" version="1.1"  baseProfile="full">
<line x1="1" y1="1" x2="1089" y2="1" style="stroke:#ddd;stroke-width:2" />
<line x1="1" y1="1" x2="1" y2="108" style="stroke:#ddd;stroke-width:2" />
<line x1="1" y1="108" x2="1089" y2="108" style="stroke:#ddd;stroke-width:2" />
<line x1="1089" y1="1" x2="1089" y2="108" style="stroke:#ddd;stroke-width:2" />
<line x1="109" y1="1" x2="109" y2="108" style="stroke:#ddd;stroke-width:2" />
<line x1="218" y1="1" x2="218" y2="108" style="stroke:#ddd;stroke-width:2" />
<line x1="327" y1="1" x2="327" y2="108" style="stroke:#ddd;stroke-width:2" />
<line x1="436" y1="1" x2="436" y2="108" style="stroke:#ddd;stroke-width:2" />
<line x1="545" y1="1" x2="545" y2="108" style="stroke:#ddd;stroke-width:2" />
<line x1="654" y1="1" x2="654" y2="108" style="stroke:#ddd;stroke-width:2" />
<line x1="763" y1="1" x2="763" y2="108" style="stroke:#ddd;stroke-width:2" />
<line x1="872" y1="1" x2="872" y2="108" style="stroke:#ddd;stroke-width:2" />
<line x1="981" y1="1" x2="981" y2="108" style="stroke:#ddd;stroke-width:2" />
<line x1="1" y1="54" x2="1089" y2="54" style="stroke:#ddd;stroke-width:2;stroke-dasharray:3 3" />
<line x1="55" y1="1" x2="55" y2="108" style="stroke:#ddd;stroke-width:2;stroke-dasharray:3 3" />
<line x1="164" y1="1" x2="164" y2="108" style="stroke:#ddd;stroke-width:2;stroke-dasharray:3 3" />
<line x1="273" y1="1" x2="273" y2="108" style="stroke:#ddd;stroke-width:2;stroke-dasharray:3 3" />
<line x1="382" y1="1" x2="382" y2="108" style="stroke:#ddd;stroke-width:2;stroke-dasharray:3 3" />
<line x1="491" y1="1" x2="491" y2="108" style="stroke:#ddd;stroke-width:2;stroke-dasharray:3 3" />
<line x1="600" y1="1" x2="600" y2="108" style="stroke:#ddd;stroke-width:2;stroke-dasharray:3 3" />
<line x1="709" y1="1" x2="709" y2="108" style="stroke:#ddd;stroke-width:2;stroke-dasharray:3 3" />
<line x1="818" y1="1" x2="818" y2="108" style="stroke:#ddd;stroke-width:2;stroke-dasharray:3 3" />
<line x1="927" y1="1" x2="927" y2="108" style="stroke:#ddd;stroke-width:2;stroke-dasharray:3 3" />
<line x1="1036" y1="1" x2="1036" y2="108" style="stroke:#ddd;stroke-width:2;stroke-dasharray:3 3" />
<path d="M43.87,19.84c2.63,0.5,5.26,0.49,7.9-0.03c7.21-0.76,16.72-2.28,27.74-2.68c2.44-0.26,4.87-0.18,7.28,0.25" style="fill:none;stroke:black;stroke-width:3" />
<circle cx="43.87" cy="19.84" r="5" stroke-width="0" fill="#FF2A00" opacity="0.7" />
<path d="M152.87,19.84c2.63,0.5,5.26,0.49,7.9-0.03c7.21-0.76,16.72-2.28,27.74-2.68c2.44-0.26,4.87-0.18,7.28,0.25" style="fill:none;stroke:#999;stroke-width:3" />
<path d="M156.29,31.42c0.83,0.83,1.11,1.7,1.32,2.71c0.61,2.85,1.76,6.55,2.48,10.25c0.66,3.37,0.96,4.76,1.46,6.91" style="fill:none;stroke:black;stroke-width:3" />
<circle cx="156.29" cy="31.42" r="5" stroke-width="0" fill="#FF2A00" opacity="0.7" />
<path d="M261.87,19.84c2.63,0.5,5.26,0.49,7.9-0.03c7.21-0.76,16.72-2.28,27.74-2.68c2.44-0.26,4.87-0.18,7.28,0.25" style="fill:none;stroke:#999;stroke-width:3" />
<path d="M265.28999999999996,31.42c0.83,0.83,1.11,1.7,1.32,2.71c0.61,2.85,1.76,6.55,2.48,10.25c0.66,3.37,0.96,4.76,1.46,6.91" style="fill:none;stroke:#999;stroke-width:3" />
<path d="M267.12,32.44c6.72-0.57,23.58-2.75,29.98-3.12c2.61-0.15,4.52,1.53,3.74,4.09c-0.62,2.04-1.02,3.59-2.89,11.39" style="fill:none;stroke:black;stroke-width:3" />
<circle cx="267.12" cy="32.44" r="5" stroke-width="0" fill="#FF2A00" opacity="0.7" />
<path d="M370.87,19.84c2.63,0.5,5.26,0.49,7.9-0.03c7.21-0.76,16.72-2.28,27.74-2.68c2.44-0.26,4.87-0.18,7.28,0.25" style="fill:none;stroke:#999;stroke-width:3" />
<path d="M374.28999999999996,31.42c0.83,0.83,1.11,1.7,1.32,2.71c0.61,2.85,1.76,6.55,2.48,10.25c0.66,3.37,0.96,4.76,1.46,6.91" style="fill:none;stroke:#999;stroke-width:3" />
<path d="M376.12,32.44c6.72-0.57,23.58-2.75,29.98-3.12c2.61-0.15,4.52,1.53,3.74,4.09c-0.62,2.04-1.02,3.59-2.89,11.39" style="fill:none;stroke:#999;stroke-width:3" />
<path d="M380.45,48.47c5.12-0.36,14.48-1.58,22.29-2.14c2.19-0.16,4.17-0.26,5.78-0.28" style="fill:none;stroke:black;stroke-width:3" />
<circle cx="380.45" cy="48.47" r="5" stroke-width="0" fill="#FF2A00" opacity="0.7" />
<path d="M479.87,19.84c2.63,0.5,5.26,0.49,7.9-0.03c7.21-0.76,16.72-2.28,27.74-2.68c2.44-0.26,4.87-0.18,7.28,0.25" style="fill:none;stroke:#999;stroke-width:3" />
<path d="M483.28999999999996,31.42c0.83,0.83,1.11,1.7,1.32,2.71c0.61,2.85,1.76,6.55,2.48,10.25c0.66,3.37,0.96,4.76,1.46,6.91" style="fill:none;stroke:#999;stroke-width:3" />
<path d="M485.12,32.44c6.72-0.57,23.58-2.75,29.98-3.12c2.61-0.15,4.52,1.53,3.74,4.09c-0.62,2.04-1.02,3.59-2.89,11.39" style="fill:none;stroke:#999;stroke-width:3" />
<path d="M489.45,48.47c5.12-0.36,14.48-1.58,22.29-2.14c2.19-0.16,4.17-0.26,5.78-0.28" style="fill:none;stroke:#999;stroke-width:3" />
<path d="M486.65999999999997,56.43c2.28,2.31,5.63,9.26,6.21,12.86" style="fill:none;stroke:black;stroke-width:3" />
<circle cx="486.65999999999997" cy="56.43" r="5" stroke-width="0" fill="#FF2A00" opacity="0.7" />
<path d="M588.87,19.84c2.63,0.5,5.26,0.49,7.9-0.03c7.21-0.76,16.72-2.28,27.74-2.68c2.44-0.26,4.87-0.18,7.28,0.25" style="fill:none;stroke:#999;stroke-width:3" />
<path d="M592.29,31.42c0.83,0.83,1.11,1.7,1.32,2.71c0.61,2.85,1.76,6.55,2.48,10.25c0.66,3.37,0.96,4.76,1.46,6.91" style="fill:none;stroke:#999;stroke-width:3" />
<path d="M594.12,32.44c6.72-0.57,23.58-2.75,29.98-3.12c2.61-0.15,4.52,1.53,3.74,4.09c-0.62,2.04-1.02,3.59-2.89,11.39" style="fill:none;stroke:#999;stroke-width:3" />
<path d="M598.45,48.47c5.12-0.36,14.48-1.58,22.29-2.14c2.19-0.16,4.17-0.26,5.78-0.28" style="fill:none;stroke:#999;stroke-width:3" />
<path d="M595.66,56.43c2.28,2.31,5.63,9.26,6.21,12.86" style="fill:none;stroke:#999;stroke-width:3" />
<path d="M625.2,52.97c0.19,1.11,0.1,2.08-0.33,3.1c-1.74,4.18-2.99,7.8-6.99,14.79" style="fill:none;stroke:black;stroke-width:3" />
<circle cx="625.2" cy="52.97" r="5" stroke-width="0" fill="#FF2A00" opacity="0.7" />
<path d="M697.87,19.84c2.63,0.5,5.26,0.49,7.9-0.03c7.21-0.76,16.72-2.28,27.74-2.68c2.44-0.26,4.87-0.18,7.28,0.25" style="fill:none;stroke:#999;stroke-width:3" />
<path d="M701.29,31.42c0.83,0.83,1.11,1.7,1.32,2.71c0.61,2.85,1.76,6.55,2.48,10.25c0.66,3.37,0.96,4.76,1.46,6.91" style="fill:none;stroke:#999;stroke-width:3" />
<path d="M703.12,32.44c6.72-0.57,23.58-2.75,29.98-3.12c2.61-0.15,4.52,1.53,3.74,4.09c-0.62,2.04-1.02,3.59-2.89,11.39" style="fill:none;stroke:#999;stroke-width:3" />
<path d="M707.45,48.47c5.12-0.36,14.48-1.58,22.29-2.14c2.19-0.16,4.17-0.26,5.78-0.28" style="fill:none;stroke:#999;stroke-width:3" />
<path d="M704.66,56.43c2.28,2.31,5.63,9.26,6.21,12.86" style="fill:none;stroke:#999;stroke-width:3" />
<path d="M734.2,52.97c0.19,1.11,0.1,2.08-0.33,3.1c-1.74,4.18-2.99,7.8-6.99,14.79" style="fill:none;stroke:#999;stroke-width:3" />
<path d="M697.73,75.85c3.71,0.67,7.34,0.4,11.11-0.09c9.65-1.26,18.98-1.8,28.15-2.29c3.36-0.19,6.7-0.05,10.03,0.43" style="fill:none;stroke:black;stroke-width:3" />
<circle cx="697.73" cy="75.85" r="5" stroke-width="0" fill="#FF2A00" opacity="0.7" />
<path d="M806.87,19.84c2.63,0.5,5.26,0.49,7.9-0.03c7.21-0.76,16.72-2.28,27.74-2.68c2.44-0.26,4.87-0.18,7.28,0.25" style="fill:none;stroke:#999;stroke-width:3" />
<path d="M810.29,31.42c0.83,0.83,1.11,1.7,1.32,2.71c0.61,2.85,1.76,6.55,2.48,10.25c0.66,3.37,0.96,4.76,1.46,6.91" style="fill:none;stroke:#999;stroke-width:3" />
<path d="M812.12,32.44c6.72-0.57,23.58-2.75,29.98-3.12c2.61-0.15,4.52,1.53,3.74,4.09c-0.62,2.04-1.02,3.59-2.89,11.39" style="fill:none;stroke:#999;stroke-width:3" />
<path d="M816.45,48.47c5.12-0.36,14.48-1.58,22.29-2.14c2.19-0.16,4.17-0.26,5.78-0.28" style="fill:none;stroke:#999;stroke-width:3" />
<path d="M813.66,56.43c2.28,2.31,5.63,9.26,6.21,12.86" style="fill:none;stroke:#999;stroke-width:3" />
<path d="M843.2,52.97c0.19,1.11,0.1,2.08-0.33,3.1c-1.74,4.18-2.99,7.8-6.99,14.79" style="fill:none;stroke:#999;stroke-width:3" />
<path d="M806.73,75.85c3.71,0.67,7.34,0.4,11.11-0.09c9.65-1.26,18.98-1.8,28.15-2.29c3.36-0.19,6.7-0.05,10.03,0.43" style="fill:none;stroke:#999;stroke-width:3" />
<path d="M783.96,19.25c4.17,2.25,8.54,6.5,10.29,10.13" style="fill:none;stroke:black;stroke-width:3" />
<circle cx="783.96" cy="19.25" r="5" stroke-width="0" fill="#FF2A00" opacity="0.7" />
<path d="M915.87,19.84c2.63,0.5,5.26,0.49,7.9-0.03c7.21-0.76,16.72-2.28,27.74-2.68c2.44-0.26,4.87-0.18,7.28,0.25" style="fill:none;stroke:#999;stroke-width:3" />
<path d="M919.29,31.42c0.83,0.83,1.11,1.7,1.32,2.71c0.61,2.85,1.76,6.55,2.48,10.25c0.66,3.37,0.96,4.76,1.46,6.91" style="fill:none;stroke:#999;stroke-width:3" />
<path d="M921.12,32.44c6.72-0.57,23.58-2.75,29.98-3.12c2.61-0.15,4.52,1.53,3.74,4.09c-0.62,2.04-1.02,3.59-2.89,11.39" style="fill:none;stroke:#999;stroke-width:3" />
<path d="M925.45,48.47c5.12-0.36,14.48-1.58,22.29-2.14c2.19-0.16,4.17-0.26,5.78-0.28" style="fill:none;stroke:#999;stroke-width:3" />
<path d="M922.66,56.43c2.28,2.31,5.63,9.26,6.21,12.86" style="fill:none;stroke:#999;stroke-width:3" />
<path d="M952.2,52.97c0.19,1.11,0.1,2.08-0.33,3.1c-1.74,4.18-2.99,7.8-6.99,14.79" style="fill:none;stroke:#999;stroke-width:3" />
<path d="M915.73,75.85c3.71,0.67,7.34,0.4,11.11-0.09c9.65-1.26,18.98-1.8,28.15-2.29c3.36-0.19,6.7-0.05,10.03,0.43" style="fill:none;stroke:#999;stroke-width:3" />
<path d="M892.96,19.25c4.17,2.25,8.54,6.5,10.29,10.13" style="fill:none;stroke:#999;stroke-width:3" />
<path d="M885.0,50.75c2.25,1,3.76,0.55,4.75,0.25c4.5-1.38,6.75-2.38,10.5-4C901.7,46.37,904.0,48.25,903.0,49.75s-4,7.5-4.75,8.75s-0.75,3.25,0.75,5s2.5,3.25,4,5.25c1.01,1.34,0.75,3.25-0.75,4.5s-7.62,6.38-10.5,8.38" style="fill:none;stroke:black;stroke-width:3" />
<circle cx="885.0" cy="50.75" r="5" stroke-width="0" fill="#FF2A00" opacity="0.7" />
<path d="M1024.87,19.84c2.63,0.5,5.26,0.49,7.9-0.03c7.21-0.76,16.72-2.28,27.74-2.68c2.44-0.26,4.87-0.18,7.28,0.25" style="fill:none;stroke:#999;stroke-width:3" />
<path d="M1028.29,31.42c0.83,0.83,1.11,1.7,1.32,2.71c0.61,2.85,1.76,6.55,2.48,10.25c0.66,3.37,0.96,4.76,1.46,6.91" style="fill:none;stroke:#999;stroke-width:3" />
<path d="M1030.12,32.44c6.72-0.57,23.58-2.75,29.98-3.12c2.61-0.15,4.52,1.53,3.74,4.09c-0.62,2.04-1.02,3.59-2.89,11.39" style="fill:none;stroke:#999;stroke-width:3" />
<path d="M1034.45,48.47c5.12-0.36,14.48-1.58,22.29-2.14c2.19-0.16,4.17-0.26,5.78-0.28" style="fill:none;stroke:#999;stroke-width:3" />
<path d="M1031.6599999999999,56.43c2.28,2.31,5.63,9.26,6.21,12.86" style="fill:none;stroke:#999;stroke-width:3" />
<path d="M1061.2,52.97c0.19,1.11,0.1,2.08-0.33,3.1c-1.74,4.18-2.99,7.8-6.99,14.79" style="fill:none;stroke:#999;stroke-width:3" />
<path d="M1024.73,75.85c3.71,0.67,7.34,0.4,11.11-0.09c9.65-1.26,18.98-1.8,28.15-2.29c3.36-0.19,6.7-0.05,10.03,0.43" style="fill:none;stroke:#999;stroke-width:3" />
<path d="M1001.96,19.25c4.17,2.25,8.54,6.5,10.29,10.13" style="fill:none;stroke:#999;stroke-width:3" />
<path d="M994.0,50.75c2.25,1,3.76,0.55,4.75,0.25c4.5-1.38,6.75-2.38,10.5-4C1010.7,46.37,1013.0,48.25,1012.0,49.75s-4,7.5-4.75,8.75s-0.75,3.25,0.75,5s2.5,3.25,4,5.25c1.01,1.34,0.75,3.25-0.75,4.5s-7.62,6.38-10.5,8.38" style="fill:none;stroke:#999;stroke-width:3" />
<path d="M996.25,83.25c7.58-1.26,13.32-1.09,20.77,0.76c9.34,2.31,23.98,6.29,27.23,7.24c12,3.5,18.25,4,27.12,3.88" style="fill:none;stroke:black;stroke-width:3" />
<circle cx="996.25" cy="83.25" r="5" stroke-width="0" fill="#FF2A00" opacity="0.7" />
</svg>