<svg width="1308px" height="109px" viewBox="0 0 1308px 109px" xmlns="http://www.w3.org/2000/svg" xmlns:xlink="http://www.w3.org/1999/xlink" xml:space="preserve" version="1.1"  baseProfile="full">
<line x1="1" y1="1" x2="1307" y2="1" style="stroke:#ddd;stroke-width:2" />
<line x1="1" y1="1" x2="1" y2="108" style="stroke:#ddd;stroke-width:2" />
<line x1="1" y1="108" x2="1307" y2="108" style="stroke:#ddd;stroke-width:2" />
<line x1="1307" y1="1" x2="1307" y2="108" style="stroke:#ddd;stroke-width:2" />
<line x1="109" y1="1" x2="109" y2="108" style="stroke:#ddd;stroke-width:2" />
<line x1="218" y1="1" x2="218" y2="108" style="stroke:#ddd;stroke-width:2" />
<line x1="327" y1="1" x2="327" y2="108" style="stroke:#ddd;stroke-width:2" />
<line x1="436" y1="1" x2="436" y2="108" style="stroke:#ddd;stroke-width:2" />
<line x1="545" y1="1" x2="545" y2="108" style="stroke:#ddd;stroke-width:2" />
<line x1="654" y1="1" x2="654" y2="108" style="stroke:#ddd;stroke-width:2" />
<line x1="763" y1="1" x2="763" y2="108" style="stroke:#ddd;stroke-width:2" />
<line x1="872" y1="1" x2="872" y2="108" style="stroke:#ddd;stroke-width:2" />
<line x1="981" y1="1" x2="981" y2="108" style="stroke:#ddd;stroke-width:2" />
<line x1="1090" y1="1" x2="1090" y2="108" style="stroke:#ddd;stroke-width:2" />
<line x1="1199" y1="1" x2="1199" y2="108" style="stroke:#ddd;stroke-width:2" />
<line x1="1" y1="54" x2="1307" y2="54" style="stroke:#ddd;stroke-width:2;stroke-dasharray:3 3" />
<line x1="55" y1="1" x2="55" y2="108" style="stroke:#ddd;stroke-width:2;stroke-dasharray:3 3" />
<line x1="164" y1="1" x2="164" y2="108" style="stroke:#ddd;stroke-width:2;stroke-dasharray:3 3" />
<line x1="273" y1="1" x2="273" y2="108" style="stroke:#ddd;stroke-width:2;stroke-dasharray:3 3" />
<line x1="382" y1="1" x2="382" y2="108" style="stroke:#ddd;stroke-width:2;stroke-dasharray:3 3" />
<line x1="491" y1="1" x2="491" y2="108" style="stroke:#ddd;stroke-width:2;stroke-dasharray:3 3" />
<line x1="600" y1="1" x2="600" y2="108" style="stroke:#ddd;stroke-width:2;stroke-dasharray:3 3" />
<line x1="709" y1="1" x2="709" y2="108" style="stroke:#ddd;stroke-width:2;stroke-dasharray:3 3" />
<line x1="818" y1="1" x2="818" y2="108" style="stroke:#ddd;stroke-width:2;stroke-dasharray:3 3" />
<line x1="927" y1="1" x2="927" y2="108" style="stroke:#ddd;stroke-width:2;stroke-dasharray:3 3" />
<line x1="1036" y1="1" x2="1036" y2="108" style="stroke:#ddd;stroke-width:2;stroke-dasharray:3 3" />
<line x1="1145" y1="1" x2="1145" y2="108" style="stroke:#ddd;stroke-width:2;stroke-dasharray:3 3" />
<line x1="1254" y1="1" x2="1254" y2="108" style="stroke:#ddd;stroke-width:2;stroke-dasharray:3 3" />
<path d="M47.26,17.04c1,0.33,2.84,0.42,3.85,0.33c6.39-0.57,19.64-2.62,27.38-3.48c1.66-0.19,2.68,0.16,3.51,0.32" style="fill:none;stroke:black;stroke-width:3" />
<circle cx="47.26" cy="17.04" r="5" stroke-width="0" fill="#FF2A00" opacity="0.7" />
<path d="M156.26,17.04c1,0.33,2.84,0.42,3.85,0.33c6.39-0.57,19.64-2.62,27.38-3.48c1.66-0.19,2.68,0.16,3.51,0.32" style="fill:none;stroke:#999;stroke-width:3" />
<path d="M156.23,28.41c0.36,0.27,0.72,0.49,0.88,0.83c1.24,2.65,2.72,9.97,3.56,14.73" style="fill:none;stroke:black;stroke-width:3" />
<circle cx="156.23" cy="28.41" r="5" stroke-width="0" fill="#FF2A00" opacity="0.7" />
<path d="M265.26,17.04c1,0.33,2.84,0.42,3.85,0.33c6.39-0.57,19.64-2.62,27.38-3.48c1.66-0.19,2.68,0.16,3.51,0.32" style="fill:none;stroke:#999;stroke-width:3" />
<path d="M265.23,28.41c0.36,0.27,0.72,0.49,0.88,0.83c1.24,2.65,2.72,9.97,3.56,14.73" style="fill:none;stroke:#999;stroke-width:3" />
<path d="M267.45,30.26c8.74-1.11,25.36-3.5,29.86-3.88c1.65-0.14,2.64,1.38,2.4,2.19c-0.98,3.34-2.09,6.22-4.18,11.03" style="fill:none;stroke:black;stroke-width:3" />
<circle cx="267.45" cy="30.26" r="5" stroke-width="0" fill="#FF2A00" opacity="0.7" />
<path d="M374.26,17.04c1,0.33,2.84,0.42,3.85,0.33c6.39-0.57,19.64-2.62,27.38-3.48c1.66-0.19,2.68,0.16,3.51,0.32" style="fill:none;stroke:#999;stroke-width:3" />
<path d="M374.23,28.41c0.36,0.27,0.72,0.49,0.88,0.83c1.24,2.65,2.72,9.97,3.56,14.73" style="fill:none;stroke:#999;stroke-width:3" />
<path d="M376.45,30.26c8.74-1.11,25.36-3.5,29.86-3.88c1.65-0.14,2.64,1.38,2.4,2.19c-0.98,3.34-2.09,6.22-4.18,11.03" style="fill:none;stroke:#999;stroke-width:3" />
<path d="M379.03,42.22c5.29-0.42,22.04-2.28,28.75-2.71" style="fill:none;stroke:black;stroke-width:3" />
<circle cx="379.03" cy="42.22" r="5" stroke-width="0" fill="#FF2A00" opacity="0.7" />
<path d="M483.26,17.04c1,0.33,2.84,0.42,3.85,0.33c6.39-0.57,19.64-2.62,27.38-3.48c1.66-0.19,2.68,0.16,3.51,0.32" style="fill:none;stroke:#999;stroke-width:3" />
<path d="M483.23,28.41c0.36,0.27,0.72,0.49,0.88,0.83c1.24,2.65,2.72,9.97,3.56,14.73" style="fill:none;stroke:#999;stroke-width:3" />
<path d="M485.45,30.26c8.74-1.11,25.36-3.5,29.86-3.88c1.65-0.14,2.64,1.38,2.4,2.19c-0.98,3.34-2.09,6.22-4.18,11.03" style="fill:none;stroke:#999;stroke-width:3" />
<path d="M488.03,42.22c5.29-0.42,22.04-2.28,28.75-2.71" style="fill:none;stroke:#999;stroke-width:3" />
<path d="M480.11,53.56c0.3,0.51,0.87,1.84,0.97,2.48c0.92,6.46,2.53,16.15,3.31,25.71" style="fill:none;stroke:black;stroke-width:3" />
<circle cx="480.11" cy="53.56" r="5" stroke-width="0" fill="#FF2A00" opacity="0.7" />
<path d="M592.26,17.04c1,0.33,2.84,0.42,3.85,0.33c6.39-0.57,19.64-2.62,27.38-3.48c1.66-0.19,2.68,0.16,3.51,0.32" style="fill:none;stroke:#999;stroke-width:3" />
<path d="M592.23,28.41c0.36,0.27,0.72,0.49,0.88,0.83c1.24,2.65,2.72,9.97,3.56,14.73" style="fill:none;stroke:#999;stroke-width:3" />
<path d="M594.45,30.26c8.74-1.11,25.36-3.5,29.86-3.88c1.65-0.14,2.64,1.38,2.4,2.19c-0.98,3.34-2.09,6.22-4.18,11.03" style="fill:none;stroke:#999;stroke-width:3" />
<path d="M597.03,42.22c5.29-0.42,22.04-2.28,28.75-2.71" style="fill:none;stroke:#999;stroke-width:3" />
<path d="M589.11,53.56c0.3,0.51,0.87,1.84,0.97,2.48c0.92,6.46,2.53,16.15,3.31,25.71" style="fill:none;stroke:#999;stroke-width:3" />
<path d="M590.52,55.06c13.82-1.68,31.74-3.12,39.62-3.63c2.9-0.19,4.37,1.32,4.22,2.71c-0.58,5.1-2.11,14.61-4.72,25.79" style="fill:none;stroke:black;stroke-width:3" />
<circle cx="590.52" cy="55.06" r="5" stroke-width="0" fill="#FF2A00" opacity="0.7" />
<path d="M701.26,17.04c1,0.33,2.84,0.42,3.85,0.33c6.39-0.57,19.64-2.62,27.38-3.48c1.66-0.19,2.68,0.16,3.51,0.32" style="fill:none;stroke:#999;stroke-width:3" />
<path d="M701.23,28.41c0.36,0.27,0.72,0.49,0.88,0.83c1.24,2.65,2.72,9.97,3.56,14.73" style="fill:none;stroke:#999;stroke-width:3" />
<path d="M703.45,30.26c8.74-1.11,25.36-3.5,29.86-3.88c1.65-0.14,2.64,1.38,2.4,2.19c-0.98,3.34-2.09,6.22-4.18,11.03" style="fill:none;stroke:#999;stroke-width:3" />
<path d="M706.03,42.22c5.29-0.42,22.04-2.28,28.75-2.71" style="fill:none;stroke:#999;stroke-width:3" />
<path d="M698.11,53.56c0.3,0.51,0.87,1.84,0.97,2.48c0.92,6.46,2.53,16.15,3.31,25.71" style="fill:none;stroke:#999;stroke-width:3" />
<path d="M699.52,55.06c13.82-1.68,31.74-3.12,39.62-3.63c2.9-0.19,4.37,1.32,4.22,2.71c-0.58,5.1-2.11,14.61-4.72,25.79" style="fill:none;stroke:#999;stroke-width:3" />
<path d="M718.33,53.62c1.13,0.4,2.01,1.17,2,2.55c-0.01,6.38,0.19,19.75,0.19,21.82" style="fill:none;stroke:black;stroke-width:3" />
<circle cx="718.33" cy="53.62" r="5" stroke-width="0" fill="#FF2A00" opacity="0.7" />
<path d="M810.26,17.04c1,0.33,2.84,0.42,3.85,0.33c6.39-0.57,19.64-2.62,27.38-3.48c1.66-0.19,2.68,0.16,3.51,0.32" style="fill:none;stroke:#999;stroke-width:3" />
<path d="M810.23,28.41c0.36,0.27,0.72,0.49,0.88,0.83c1.24,2.65,2.72,9.97,3.56,14.73" style="fill:none;stroke:#999;stroke-width:3" />
<path d="M812.45,30.26c8.74-1.11,25.36-3.5,29.86-3.88c1.65-0.14,2.64,1.38,2.4,2.19c-0.98,3.34-2.09,6.22-4.18,11.03" style="fill:none;stroke:#999;stroke-width:3" />
<path d="M815.03,42.22c5.29-0.42,22.04-2.28,28.75-2.71" style="fill:none;stroke:#999;stroke-width:3" />
<path d="M807.11,53.56c0.3,0.51,0.87,1.84,0.97,2.48c0.92,6.46,2.53,16.15,3.31,25.71" style="fill:none;stroke:#999;stroke-width:3" />
<path d="M808.52,55.06c13.82-1.68,31.74-3.12,39.62-3.63c2.9-0.19,4.37,1.32,4.22,2.71c-0.58,5.1-2.11,14.61-4.72,25.79" style="fill:none;stroke:#999;stroke-width:3" />
<path d="M827.33,53.62c1.13,0.4,2.01,1.17,2,2.55c-0.01,6.38,0.19,19.75,0.19,21.82" style="fill:none;stroke:#999;stroke-width:3" />
<path d="M810.91,66.65c3.44-0.25,36.23-3.05,39.08-3.05" style="fill:none;stroke:black;stroke-width:3" />
<circle cx="810.91" cy="66.65" r="5" stroke-width="0" fill="#FF2A00" opacity="0.7" />
<path d="M919.26,17.04c1,0.33,2.84,0.42,3.85,0.33c6.39-0.57,19.64-2.62,27.38-3.48c1.66-0.19,2.68,0.16,3.51,0.32" style="fill:none;stroke:#999;stroke-width:3" />
<path d="M919.23,28.41c0.36,0.27,0.72,0.49,0.88,0.83c1.24,2.65,2.72,9.97,3.56,14.73" style="fill:none;stroke:#999;stroke-width:3" />
<path d="M921.45,30.26c8.74-1.11,25.36-3.5,29.86-3.88c1.65-0.14,2.64,1.38,2.4,2.19c-0.98,3.34-2.09,6.22-4.18,11.03" style="fill:none;stroke:#999;stroke-width:3" />
<path d="M924.03,42.22c5.29-0.42,22.04-2.28,28.75-2.71" style="fill:none;stroke:#999;stroke-width:3" />
<path d="M916.11,53.56c0.3,0.51,0.87,1.84,0.97,2.48c0.92,6.46,2.53,16.15,3.31,25.71" style="fill:none;stroke:#999;stroke-width:3" />
<path d="M917.52,55.06c13.82-1.68,31.74-3.12,39.62-3.63c2.9-0.19,4.37,1.32,4.22,2.71c-0.58,5.1-2.11,14.61-4.72,25.79" style="fill:none;stroke:#999;stroke-width:3" />
<path d="M936.33,53.62c1.13,0.4,2.01,1.17,2,2.55c-0.01,6.38,0.19,19.75,0.19,21.82" style="fill:none;stroke:#999;stroke-width:3" />
<path d="M919.91,66.65c3.44-0.25,36.23-3.05,39.08-3.05" style="fill:none;stroke:#999;stroke-width:3" />
<path d="M920.94,80.54c12.43-1.02,22.92-1.66,35.79-2.59" style="fill:none;stroke:black;stroke-width:3" />
<circle cx="920.94" cy="80.54" r="5" stroke-width="0" fill="#FF2A00" opacity="0.7" />
<path d="M1028.26,17.04c1,0.33,2.84,0.42,3.85,0.33c6.39-0.57,19.64-2.62,27.38-3.48c1.66-0.19,2.68,0.16,3.51,0.32" style="fill:none;stroke:#999;stroke-width:3" />
<path d="M1028.23,28.41c0.36,0.27,0.72,0.49,0.88,0.83c1.24,2.65,2.72,9.97,3.56,14.73" style="fill:none;stroke:#999;stroke-width:3" />
<path d="M1030.45,30.26c8.74-1.11,25.36-3.5,29.86-3.88c1.65-0.14,2.64,1.38,2.4,2.19c-0.98,3.34-2.09,6.22-4.18,11.03" style="fill:none;stroke:#999;stroke-width:3" />
<path d="M1033.03,42.22c5.29-0.42,22.04-2.28,28.75-2.71" style="fill:none;stroke:#999;stroke-width:3" />
<path d="M1025.1100000000001,53.56c0.3,0.51,0.87,1.84,0.97,2.48c0.92,6.46,2.53,16.15,3.31,25.71" style="fill:none;stroke:#999;stroke-width:3" />
<path d="M1026.52,55.06c13.82-1.68,31.74-3.12,39.62-3.63c2.9-0.19,4.37,1.32,4.22,2.71c-0.58,5.1-2.11,14.61-4.72,25.79" style="fill:none;stroke:#999;stroke-width:3" />
<path d="M1045.33,53.62c1.13,0.4,2.01,1.17,2,2.55c-0.01,6.38,0.19,19.75,0.19,21.82" style="fill:none;stroke:#999;stroke-width:3" />
<path d="M1028.9099999999999,66.65c3.44-0.25,36.23-3.05,39.08-3.05" style="fill:none;stroke:#999;stroke-width:3" />
<path d="M1029.94,80.54c12.43-1.02,22.92-1.66,35.79-2.59" style="fill:none;stroke:#999;stroke-width:3" />
<path d="M999.21,21.75c3.99,1.66,10.3,6.81,11.29,9.38" style="fill:none;stroke:black;stroke-width:3" />
<circle cx="999.21" cy="21.75" r="5" stroke-width="0" fill="#FF2A00" opacity="0.7" />
<path d="M1137.26,17.04c1,0.33,2.84,0.42,3.85,0.33c6.39-0.57,19.64-2.62,27.38-3.48c1.66-0.19,2.68,0.16,3.51,0.32" style="fill:none;stroke:#999;stroke-width:3" />
<path d="M1137.23,28.41c0.36,0.27,0.72,0.49,0.88,0.83c1.24,2.65,2.72,9.97,3.56,14.73" style="fill:none;stroke:#999;stroke-width:3" />
<path d="M1139.45,30.26c8.74-1.11,25.36-3.5,29.86-3.88c1.65-0.14,2.64,1.38,2.4,2.19c-0.98,3.34-2.09,6.22-4.18,11.03" style="fill:none;stroke:#999;stroke-width:3" />
<path d="M1142.03,42.22c5.29-0.42,22.04-2.28,28.75-2.71" style="fill:none;stroke:#999;stroke-width:3" />
<path d="M1134.1100000000001,53.56c0.3,0.51,0.87,1.84,0.97,2.48c0.92,6.46,2.53,16.15,3.31,25.71" style="fill:none;stroke:#999;stroke-width:3" />
<path d="M1135.52,55.06c13.82-1.68,31.74-3.12,39.62-3.63c2.9-0.19,4.37,1.32,4.22,2.71c-0.58,5.1-2.11,14.61-4.72,25.79" style="fill:none;stroke:#999;stroke-width:3" />
<path d="M1154.33,53.62c1.13,0.4,2.01,1.17,2,2.55c-0.01,6.38,0.19,19.75,0.19,21.82" style="fill:none;stroke:#999;stroke-width:3" />
<path d="M1137.9099999999999,66.65c3.44-0.25,36.23-3.05,39.08-3.05" style="fill:none;stroke:#999;stroke-width:3" />
<path d="M1138.94,80.54c12.43-1.02,22.92-1.66,35.79-2.59" style="fill:none;stroke:#999;stroke-width:3" />
<path d="M1108.21,21.75c3.99,1.66,10.3,6.81,11.29,9.38" style="fill:none;stroke:#999;stroke-width:3" />
<path d="M1102.0,56.25c2.25,1,3.75,0.5,4.75,0.25s12-4.5,13.5-5S,1124.0,52.75,1123.0,54.25s-5.5,8.25-6.25,9.5s-0.5,3.5,1,5.25s3.25,3.25,4,4.75s0.75,2.75-0.75,4S,1111.75,86,1108.5,88" style="fill:none;stroke:black;stroke-width:3" />
<circle cx="1102.0" cy="56.25" r="5" stroke-width="0" fill="#FF2A00" opacity="0.7" />
<path d="M1246.26,17.04c1,0.33,2.84,0.42,3.85,0.33c6.39-0.57,19.64-2.62,27.38-3.48c1.66-0.19,2.68,0.16,3.51,0.32" style="fill:none;stroke:#999;stroke-width:3" />
<path d="M1246.23,28.41c0.36,0.27,0.72,0.49,0.88,0.83c1.24,2.65,2.72,9.97,3.56,14.73" style="fill:none;stroke:#999;stroke-width:3" />
<path d="M1248.45,30.26c8.74-1.11,25.36-3.5,29.86-3.88c1.65-0.14,2.64,1.38,2.4,2.19c-0.98,3.34-2.09,6.22-4.18,11.03" style="fill:none;stroke:#999;stroke-width:3" />
<path d="M1251.03,42.22c5.29-0.42,22.04-2.28,28.75-2.71" style="fill:none;stroke:#999;stroke-width:3" />
<path d="M1243.1100000000001,53.56c0.3,0.51,0.87,1.84,0.97,2.48c0.92,6.46,2.53,16.15,3.31,25.71" style="fill:none;stroke:#999;stroke-width:3" />
<path d="M1244.52,55.06c13.82-1.68,31.74-3.12,39.62-3.63c2.9-0.19,4.37,1.32,4.22,2.71c-0.58,5.1-2.11,14.61-4.72,25.79" style="fill:none;stroke:#999;stroke-width:3" />
<path d="M1263.33,53.62c1.13,0.4,2.01,1.17,2,2.55c-0.01,6.38,0.19,19.75,0.19,21.82" style="fill:none;stroke:#999;stroke-width:3" />
<path d="M1246.9099999999999,66.65c3.44-0.25,36.23-3.05,39.08-3.05" style="fill:none;stroke:#999;stroke-width:3" />
<path d="M1247.94,80.54c12.43-1.02,22.92-1.66,35.79-2.59" style="fill:none;stroke:#999;stroke-width:3" />
<path d="M1217.21,21.75c3.99,1.66,10.3,6.81,11.29,9.38" style="fill:none;stroke:#999;stroke-width:3" />
<path d="M1211.0,56.25c2.25,1,3.75,0.5,4.75,0.25s12-4.5,13.5-5S,1124.0,52.75,1123.0,54.25s-5.5,8.25-6.25,9.5s-0.5,3.5,1,5.25s3.25,3.25,4,4.75s0.75,2.75-0.75,4S,1111.75,86,1108.5,88" style="fill:none;stroke:#999;stroke-width:3" />
<path d="M1212.25,89.44c2.97-0.25,8.91-0.87,13.37-0.37c4.46,0.5,29.79,3.85,34.17,4.49c11.88,1.75,21.05,2.25,29.96,1.37" style="fill:none;stroke:black;stroke-width:3" />
<circle cx="1212.25" cy="89.44" r="5" stroke-width="0" fill="#FF2A00" opacity="0.7" />
</svg>