<svg width="1308px" height="109px" viewBox="0 0 1308px 109px" xmlns="http://www.w3.org/2000/svg" xmlns:xlink="http://www.w3.org/1999/xlink" xml:space="preserve" version="1.1"  baseProfile="full">
<line x1="1" y1="1" x2="1307" y2="1" style="stroke:#ddd;stroke-width:2" />
<line x1="1" y1="1" x2="1" y2="108" style="stroke:#ddd;stroke-width:2" />
<line x1="1" y1="108" x2="1307" y2="108" style="stroke:#ddd;stroke-width:2" />
<line x1="1307" y1="1" x2="1307" y2="108" style="stroke:#ddd;stroke-width:2" />
<line x1="109" y1="1" x2="109" y2="108" style="stroke:#ddd;stroke-width:2" />
<line x1="218" y1="1" x2="218" y2="108" style="stroke:#ddd;stroke-width:2" />
<line x1="327" y1="1" x2="327" y2="108" style="stroke:#ddd;stroke-width:2" />
<line x1="436" y1="1" x2="436" y2="108" style="stroke:#ddd;stroke-width:2" />
<line x1="545" y1="1" x2="545" y2="108" style="stroke:#ddd;stroke-width:2" />
<line x1="654" y1="1" x2="654" y2="108" style="stroke:#ddd;stroke-width:2" />
<line x1="763" y1="1" x2="763" y2="108" style="stroke:#ddd;stroke-width:2" />
<line x1="872" y1="1" x2="872" y2="108" style="stroke:#ddd;stroke-width:2" />
<line x1="981" y1="1" x2="981" y2="108" style="stroke:#ddd;stroke-width:2" />
<line x1="1090" y1="1" x2="1090" y2="108" style="stroke:#ddd;stroke-width:2" />
<line x1="1199" y1="1" x2="1199" y2="108" style="stroke:#ddd;stroke-width:2" />
<line x1="1" y1="54" x2="1307" y2="54" style="stroke:#ddd;stroke-width:2;stroke-dasharray:3 3" />
<line x1="55" y1="1" x2="55" y2="108" style="stroke:#ddd;stroke-width:2;stroke-dasharray:3 3" />
<line x1="164" y1="1" x2="164" y2="108" style="stroke:#ddd;stroke-width:2;stroke-dasharray:3 3" />
<line x1="273" y1="1" x2="273" y2="108" style="stroke:#ddd;stroke-width:2;stroke-dasharray:3 3" />
<line x1="382" y1="1" x2="382" y2="108" style="stroke:#ddd;stroke-width:2;stroke-dasharray:3 3" />
<line x1="491" y1="1" x2="491" y2="108" style="stroke:#ddd;stroke-width:2;stroke-dasharray:3 3" />
<line x1="600" y1="1" x2="600" y2="108" style="stroke:#ddd;stroke-width:2;stroke-dasharray:3 3" />
<line x1="709" y1="1" x2="709" y2="108" style="stroke:#ddd;stroke-width:2;stroke-dasharray:3 3" />
<line x1="818" y1="1" x2="818" y2="108" style="stroke:#ddd;stroke-width:2;stroke-dasharray:3 3" />
<line x1="927" y1="1" x2="927" y2="108" style="stroke:#ddd;stroke-width:2;stroke-dasharray:3 3" />
<line x1="1036" y1="1" x2="1036" y2="108" style="stroke:#ddd;stroke-width:2;stroke-dasharray:3 3" />
<line x1="1145" y1="1" x2="1145" y2="108" style="stroke:#ddd;stroke-width:2;stroke-dasharray:3 3" />
<line x1="1254" y1="1" x2="1254" y2="108" style="stroke:#ddd;stroke-width:2;stroke-dasharray:3 3" />
<path d="M79.14,12.25c0.08,0.29,0.3,0.83-0.16,1.16c-5.7,4.08-14.38,8.22-29.24,11.51" style="fill:none;stroke:black;stroke-width:3" />
<circle cx="79.14" cy="12.25" r="5" stroke-width="0" fill="#FF2A00" opacity="0.7" />
<path d="M188.14,12.25c0.08,0.29,0.3,0.83-0.16,1.16c-5.7,4.08-14.38,8.22-29.24,11.51" style="fill:none;stroke:#999;stroke-width:3" />
<path d="M156.01,23.27c0.3,0.8,0.73,2.58,0.73,4.39c0,16.51-0.5,34.59-9.55,48.79" style="fill:none;stroke:black;stroke-width:3" />
<circle cx="156.01" cy="23.27" r="5" stroke-width="0" fill="#FF2A00" opacity="0.7" />
<path d="M297.14,12.25c0.08,0.29,0.3,0.83-0.16,1.16c-5.7,4.08-14.38,8.22-29.24,11.51" style="fill:none;stroke:#999;stroke-width:3" />
<path d="M265.01,23.27c0.3,0.8,0.73,2.58,0.73,4.39c0,16.51-0.5,34.59-9.55,48.79" style="fill:none;stroke:#999;stroke-width:3" />
<path d="M267.07,33.62c1.18,0.13,3.61,0.44,4.53,0.35c11.69-1.16,26.9-3.22,34.43-4.16c1.52-0.19,2.45,0.17,3.22,0.35" style="fill:none;stroke:black;stroke-width:3" />
<circle cx="267.07" cy="33.62" r="5" stroke-width="0" fill="#FF2A00" opacity="0.7" />
<path d="M406.14,12.25c0.08,0.29,0.3,0.83-0.16,1.16c-5.7,4.08-14.38,8.22-29.24,11.51" style="fill:none;stroke:#999;stroke-width:3" />
<path d="M374.01,23.27c0.3,0.8,0.73,2.58,0.73,4.39c0,16.51-0.5,34.59-9.55,48.79" style="fill:none;stroke:#999;stroke-width:3" />
<path d="M376.07,33.62c1.18,0.13,3.61,0.44,4.53,0.35c11.69-1.16,26.9-3.22,34.43-4.16c1.52-0.19,2.45,0.17,3.22,0.35" style="fill:none;stroke:#999;stroke-width:3" />
<path d="M395.8,22.97c0.46,0.39,1.43,1.72,1.52,2.51c0.09,0.79-1.83,11.03-2.53,17.65" style="fill:none;stroke:black;stroke-width:3" />
<circle cx="395.8" cy="22.97" r="5" stroke-width="0" fill="#FF2A00" opacity="0.7" />
<path d="M515.14,12.25c0.08,0.29,0.3,0.83-0.16,1.16c-5.7,4.08-14.38,8.22-29.24,11.51" style="fill:none;stroke:#999;stroke-width:3" />
<path d="M483.01,23.27c0.3,0.8,0.73,2.58,0.73,4.39c0,16.51-0.5,34.59-9.55,48.79" style="fill:none;stroke:#999;stroke-width:3" />
<path d="M485.07,33.62c1.18,0.13,3.61,0.44,4.53,0.35c11.69-1.16,26.9-3.22,34.43-4.16c1.52-0.19,2.45,0.17,3.22,0.35" style="fill:none;stroke:#999;stroke-width:3" />
<path d="M504.8,22.97c0.46,0.39,1.43,1.72,1.52,2.51c0.09,0.79-1.83,11.03-2.53,17.65" style="fill:none;stroke:#999;stroke-width:3" />
<path d="M492.24,43.47c0.44,0.84,1.08,1.96,1.08,3.08s-0.29,36.24-0.29,36.8" style="fill:none;stroke:black;stroke-width:3" />
<circle cx="492.24" cy="43.47" r="5" stroke-width="0" fill="#FF2A00" opacity="0.7" />
<path d="M624.14,12.25c0.08,0.29,0.3,0.83-0.16,1.16c-5.7,4.08-14.38,8.22-29.24,11.51" style="fill:none;stroke:#999;stroke-width:3" />
<path d="M592.01,23.27c0.3,0.8,0.73,2.58,0.73,4.39c0,16.51-0.5,34.59-9.55,48.79" style="fill:none;stroke:#999;stroke-width:3" />
<path d="M594.0699999999999,33.62c1.18,0.13,3.61,0.44,4.53,0.35c11.69-1.16,26.9-3.22,34.43-4.16c1.52-0.19,2.45,0.17,3.22,0.35" style="fill:none;stroke:#999;stroke-width:3" />
<path d="M613.8,22.97c0.46,0.39,1.43,1.72,1.52,2.51c0.09,0.79-1.83,11.03-2.53,17.65" style="fill:none;stroke:#999;stroke-width:3" />
<path d="M601.24,43.47c0.44,0.84,1.08,1.96,1.08,3.08s-0.29,36.24-0.29,36.8" style="fill:none;stroke:#999;stroke-width:3" />
<path d="M602.68,45.5c2.48-0.14,21.81-3.06,24.06-3.22c1.88-0.14,3.2,0.67,3.2,3.14c0,1.33,0.07,35.26-0.08,36.08" style="fill:none;stroke:black;stroke-width:3" />
<circle cx="602.68" cy="45.5" r="5" stroke-width="0" fill="#FF2A00" opacity="0.7" />
<path d="M733.14,12.25c0.08,0.29,0.3,0.83-0.16,1.16c-5.7,4.08-14.38,8.22-29.24,11.51" style="fill:none;stroke:#999;stroke-width:3" />
<path d="M701.01,23.27c0.3,0.8,0.73,2.58,0.73,4.39c0,16.51-0.5,34.59-9.55,48.79" style="fill:none;stroke:#999;stroke-width:3" />
<path d="M703.0699999999999,33.62c1.18,0.13,3.61,0.44,4.53,0.35c11.69-1.16,26.9-3.22,34.43-4.16c1.52-0.19,2.45,0.17,3.22,0.35" style="fill:none;stroke:#999;stroke-width:3" />
<path d="M722.8,22.97c0.46,0.39,1.43,1.72,1.52,2.51c0.09,0.79-1.83,11.03-2.53,17.65" style="fill:none;stroke:#999;stroke-width:3" />
<path d="M710.24,43.47c0.44,0.84,1.08,1.96,1.08,3.08s-0.29,36.24-0.29,36.8" style="fill:none;stroke:#999;stroke-width:3" />
<path d="M711.68,45.5c2.48-0.14,21.81-3.06,24.06-3.22c1.88-0.14,3.2,0.67,3.2,3.14c0,1.33,0.07,35.26-0.08,36.08" style="fill:none;stroke:#999;stroke-width:3" />
<path d="M712.0,56.12c5.98-0.54,22.48-2.27,26.45-2.27" style="fill:none;stroke:black;stroke-width:3" />
<circle cx="712.0" cy="56.12" r="5" stroke-width="0" fill="#FF2A00" opacity="0.7" />
<path d="M842.14,12.25c0.08,0.29,0.3,0.83-0.16,1.16c-5.7,4.08-14.38,8.22-29.24,11.51" style="fill:none;stroke:#999;stroke-width:3" />
<path d="M810.01,23.27c0.3,0.8,0.73,2.58,0.73,4.39c0,16.51-0.5,34.59-9.55,48.79" style="fill:none;stroke:#999;stroke-width:3" />
<path d="M812.0699999999999,33.62c1.18,0.13,3.61,0.44,4.53,0.35c11.69-1.16,26.9-3.22,34.43-4.16c1.52-0.19,2.45,0.17,3.22,0.35" style="fill:none;stroke:#999;stroke-width:3" />
<path d="M831.8,22.97c0.46,0.39,1.43,1.72,1.52,2.51c0.09,0.79-1.83,11.03-2.53,17.65" style="fill:none;stroke:#999;stroke-width:3" />
<path d="M819.24,43.47c0.44,0.84,1.08,1.96,1.08,3.08s-0.29,36.24-0.29,36.8" style="fill:none;stroke:#999;stroke-width:3" />
<path d="M820.68,45.5c2.48-0.14,21.81-3.06,24.06-3.22c1.88-0.14,3.2,0.67,3.2,3.14c0,1.33,0.07,35.26-0.08,36.08" style="fill:none;stroke:#999;stroke-width:3" />
<path d="M821.0,56.12c5.98-0.54,22.48-2.27,26.45-2.27" style="fill:none;stroke:#999;stroke-width:3" />
<path d="M820.81,67.38c7.17-0.34,19.99-1.94,26.94-2.17" style="fill:none;stroke:black;stroke-width:3" />
<circle cx="820.81" cy="67.38" r="5" stroke-width="0" fill="#FF2A00" opacity="0.7" />
<path d="M951.14,12.25c0.08,0.29,0.3,0.83-0.16,1.16c-5.7,4.08-14.38,8.22-29.24,11.51" style="fill:none;stroke:#999;stroke-width:3" />
<path d="M919.01,23.27c0.3,0.8,0.73,2.58,0.73,4.39c0,16.51-0.5,34.59-9.55,48.79" style="fill:none;stroke:#999;stroke-width:3" />
<path d="M921.0699999999999,33.62c1.18,0.13,3.61,0.44,4.53,0.35c11.69-1.16,26.9-3.22,34.43-4.16c1.52-0.19,2.45,0.17,3.22,0.35" style="fill:none;stroke:#999;stroke-width:3" />
<path d="M940.8,22.97c0.46,0.39,1.43,1.72,1.52,2.51c0.09,0.79-1.83,11.03-2.53,17.65" style="fill:none;stroke:#999;stroke-width:3" />
<path d="M928.24,43.47c0.44,0.84,1.08,1.96,1.08,3.08s-0.29,36.24-0.29,36.8" style="fill:none;stroke:#999;stroke-width:3" />
<path d="M929.68,45.5c2.48-0.14,21.81-3.06,24.06-3.22c1.88-0.14,3.2,0.67,3.2,3.14c0,1.33,0.07,35.26-0.08,36.08" style="fill:none;stroke:#999;stroke-width:3" />
<path d="M930.0,56.12c5.98-0.54,22.48-2.27,26.45-2.27" style="fill:none;stroke:#999;stroke-width:3" />
<path d="M929.81,67.38c7.17-0.34,19.99-1.94,26.94-2.17" style="fill:none;stroke:#999;stroke-width:3" />
<path d="M929.39,80.01c5.79-0.34,20.85-1.75,27.21-1.75" style="fill:none;stroke:black;stroke-width:3" />
<circle cx="929.39" cy="80.01" r="5" stroke-width="0" fill="#FF2A00" opacity="0.7" />
<path d="M1060.1399999999999,12.25c0.08,0.29,0.3,0.83-0.16,1.16c-5.7,4.08-14.38,8.22-29.24,11.51" style="fill:none;stroke:#999;stroke-width:3" />
<path d="M1028.01,23.27c0.3,0.8,0.73,2.58,0.73,4.39c0,16.51-0.5,34.59-9.55,48.79" style="fill:none;stroke:#999;stroke-width:3" />
<path d="M1030.07,33.62c1.18,0.13,3.61,0.44,4.53,0.35c11.69-1.16,26.9-3.22,34.43-4.16c1.52-0.19,2.45,0.17,3.22,0.35" style="fill:none;stroke:#999;stroke-width:3" />
<path d="M1049.8,22.97c0.46,0.39,1.43,1.72,1.52,2.51c0.09,0.79-1.83,11.03-2.53,17.65" style="fill:none;stroke:#999;stroke-width:3" />
<path d="M1037.24,43.47c0.44,0.84,1.08,1.96,1.08,3.08s-0.29,36.24-0.29,36.8" style="fill:none;stroke:#999;stroke-width:3" />
<path d="M1038.6799999999998,45.5c2.48-0.14,21.81-3.06,24.06-3.22c1.88-0.14,3.2,0.67,3.2,3.14c0,1.33,0.07,35.26-0.08,36.08" style="fill:none;stroke:#999;stroke-width:3" />
<path d="M1039.0,56.12c5.98-0.54,22.48-2.27,26.45-2.27" style="fill:none;stroke:#999;stroke-width:3" />
<path d="M1038.81,67.38c7.17-0.34,19.99-1.94,26.94-2.17" style="fill:none;stroke:#999;stroke-width:3" />
<path d="M1038.3899999999999,80.01c5.79-0.34,20.85-1.75,27.21-1.75" style="fill:none;stroke:#999;stroke-width:3" />
<path d="M1001.71,19.25c3.63,1.74,9.38,7.17,10.29,9.88" style="fill:none;stroke:black;stroke-width:3" />
<circle cx="1001.71" cy="19.25" r="5" stroke-width="0" fill="#FF2A00" opacity="0.7" />
<path d="M1169.1399999999999,12.25c0.08,0.29,0.3,0.83-0.16,1.16c-5.7,4.08-14.38,8.22-29.24,11.51" style="fill:none;stroke:#999;stroke-width:3" />
<path d="M1137.01,23.27c0.3,0.8,0.73,2.58,0.73,4.39c0,16.51-0.5,34.59-9.55,48.79" style="fill:none;stroke:#999;stroke-width:3" />
<path d="M1139.07,33.62c1.18,0.13,3.61,0.44,4.53,0.35c11.69-1.16,26.9-3.22,34.43-4.16c1.52-0.19,2.45,0.17,3.22,0.35" style="fill:none;stroke:#999;stroke-width:3" />
<path d="M1158.8,22.97c0.46,0.39,1.43,1.72,1.52,2.51c0.09,0.79-1.83,11.03-2.53,17.65" style="fill:none;stroke:#999;stroke-width:3" />
<path d="M1146.24,43.47c0.44,0.84,1.08,1.96,1.08,3.08s-0.29,36.24-0.29,36.8" style="fill:none;stroke:#999;stroke-width:3" />
<path d="M1147.6799999999998,45.5c2.48-0.14,21.81-3.06,24.06-3.22c1.88-0.14,3.2,0.67,3.2,3.14c0,1.33,0.07,35.26-0.08,36.08" style="fill:none;stroke:#999;stroke-width:3" />
<path d="M1148.0,56.12c5.98-0.54,22.48-2.27,26.45-2.27" style="fill:none;stroke:#999;stroke-width:3" />
<path d="M1147.81,67.38c7.17-0.34,19.99-1.94,26.94-2.17" style="fill:none;stroke:#999;stroke-width:3" />
<path d="M1147.3899999999999,80.01c5.79-0.34,20.85-1.75,27.21-1.75" style="fill:none;stroke:#999;stroke-width:3" />
<path d="M1110.71,19.25c3.63,1.74,9.38,7.17,10.29,9.88" style="fill:none;stroke:#999;stroke-width:3" />
<path d="M1102.5,50.75c2.25,1,3.75,0.5,4.75,0.25s9.5-3.5,11-4S,1122.0,48.25,1121.0,49.75s-4,7.25-4.75,8.5s-0.5,3.5,1,5.25s3.25,3.75,4,5.25s0.75,2.75-0.75,4S,1111.5,81,1110.0,81.5" style="fill:none;stroke:black;stroke-width:3" />
<circle cx="1102.5" cy="50.75" r="5" stroke-width="0" fill="#FF2A00" opacity="0.7" />
<path d="M1278.1399999999999,12.25c0.08,0.29,0.3,0.83-0.16,1.16c-5.7,4.08-14.38,8.22-29.24,11.51" style="fill:none;stroke:#999;stroke-width:3" />
<path d="M1246.01,23.27c0.3,0.8,0.73,2.58,0.73,4.39c0,16.51-0.5,34.59-9.55,48.79" style="fill:none;stroke:#999;stroke-width:3" />
<path d="M1248.07,33.62c1.18,0.13,3.61,0.44,4.53,0.35c11.69-1.16,26.9-3.22,34.43-4.16c1.52-0.19,2.45,0.17,3.22,0.35" style="fill:none;stroke:#999;stroke-width:3" />
<path d="M1267.8,22.97c0.46,0.39,1.43,1.72,1.52,2.51c0.09,0.79-1.83,11.03-2.53,17.65" style="fill:none;stroke:#999;stroke-width:3" />
<path d="M1255.24,43.47c0.44,0.84,1.08,1.96,1.08,3.08s-0.29,36.24-0.29,36.8" style="fill:none;stroke:#999;stroke-width:3" />
<path d="M1256.6799999999998,45.5c2.48-0.14,21.81-3.06,24.06-3.22c1.88-0.14,3.2,0.67,3.2,3.14c0,1.33,0.07,35.26-0.08,36.08" style="fill:none;stroke:#999;stroke-width:3" />
<path d="M1257.0,56.12c5.98-0.54,22.48-2.27,26.45-2.27" style="fill:none;stroke:#999;stroke-width:3" />
<path d="M1256.81,67.38c7.17-0.34,19.99-1.94,26.94-2.17" style="fill:none;stroke:#999;stroke-width:3" />
<path d="M1256.3899999999999,80.01c5.79-0.34,20.85-1.75,27.21-1.75" style="fill:none;stroke:#999;stroke-width:3" />
<path d="M1219.71,19.25c3.63,1.74,9.38,7.17,10.29,9.88" style="fill:none;stroke:#999;stroke-width:3" />
<path d="M1211.5,50.75c2.25,1,3.75,0.5,4.75,0.25s9.5-3.5,11-4S,1122.0,48.25,1121.0,49.75s-4,7.25-4.75,8.5s-0.5,3.5,1,5.25s3.25,3.75,4,5.25s0.75,2.75-0.75,4S,1111.5,81,1110.0,81.5" style="fill:none;stroke:#999;stroke-width:3" />
<path d="M1214.25,83.39c3-0.45,9-1.58,13.5-0.68s30.07,6.97,34.5,8.13c12,3.16,21.25,4.07,30.25,2.48" style="fill:none;stroke:black;stroke-width:3" />
<circle cx="1214.25" cy="83.39" r="5" stroke-width="0" fill="#FF2A00" opacity="0.7" />
</svg>