<svg width="1417px" height="109px" viewBox="0 0 1417px 109px" xmlns="http://www.w3.org/2000/svg" xmlns:xlink="http://www.w3.org/1999/xlink" xml:space="preserve" version="1.1"  baseProfile="full">
<line x1="1" y1="1" x2="1416" y2="1" style="stroke:#ddd;stroke-width:2" />
<line x1="1" y1="1" x2="1" y2="108" style="stroke:#ddd;stroke-width:2" />
<line x1="1" y1="108" x2="1416" y2="108" style="stroke:#ddd;stroke-width:2" />
<line x1="1416" y1="1" x2="1416" y2="108" style="stroke:#ddd;stroke-width:2" />
<line x1="109" y1="1" x2="109" y2="108" style="stroke:#ddd;stroke-width:2" />
<line x1="218" y1="1" x2="218" y2="108" style="stroke:#ddd;stroke-width:2" />
<line x1="327" y1="1" x2="327" y2="108" style="stroke:#ddd;stroke-width:2" />
<line x1="436" y1="1" x2="436" y2="108" style="stroke:#ddd;stroke-width:2" />
<line x1="545" y1="1" x2="545" y2="108" style="stroke:#ddd;stroke-width:2" />
<line x1="654" y1="1" x2="654" y2="108" style="stroke:#ddd;stroke-width:2" />
<line x1="763" y1="1" x2="763" y2="108" style="stroke:#ddd;stroke-width:2" />
<line x1="872" y1="1" x2="872" y2="108" style="stroke:#ddd;stroke-width:2" />
<line x1="981" y1="1" x2="981" y2="108" style="stroke:#ddd;stroke-width:2" />
<line x1="1090" y1="1" x2="1090" y2="108" style="stroke:#ddd;stroke-width:2" />
<line x1="1199" y1="1" x2="1199" y2="108" style="stroke:#ddd;stroke-width:2" />
<line x1="1308" y1="1" x2="1308" y2="108" style="stroke:#ddd;stroke-width:2" />
<line x1="1" y1="54" x2="1416" y2="54" style="stroke:#ddd;stroke-width:2;stroke-dasharray:3 3" />
<line x1="55" y1="1" x2="55" y2="108" style="stroke:#ddd;stroke-width:2;stroke-dasharray:3 3" />
<line x1="164" y1="1" x2="164" y2="108" style="stroke:#ddd;stroke-width:2;stroke-dasharray:3 3" />
<line x1="273" y1="1" x2="273" y2="108" style="stroke:#ddd;stroke-width:2;stroke-dasharray:3 3" />
<line x1="382" y1="1" x2="382" y2="108" style="stroke:#ddd;stroke-width:2;stroke-dasharray:3 3" />
<line x1="491" y1="1" x2="491" y2="108" style="stroke:#ddd;stroke-width:2;stroke-dasharray:3 3" />
<line x1="600" y1="1" x2="600" y2="108" style="stroke:#ddd;stroke-width:2;stroke-dasharray:3 3" />
<line x1="709" y1="1" x2="709" y2="108" style="stroke:#ddd;stroke-width:2;stroke-dasharray:3 3" />
<line x1="818" y1="1" x2="818" y2="108" style="stroke:#ddd;stroke-width:2;stroke-dasharray:3 3" />
<line x1="927" y1="1" x2="927" y2="108" style="stroke:#ddd;stroke-width:2;stroke-dasharray:3 3" />
<line x1="1036" y1="1" x2="1036" y2="108" style="stroke:#ddd;stroke-width:2;stroke-dasharray:3 3" />
<line x1="1145" y1="1" x2="1145" y2="108" style="stroke:#ddd;stroke-width:2;stroke-dasharray:3 3" />
<line x1="1254" y1="1" x2="1254" y2="108" style="stroke:#ddd;stroke-width:2;stroke-dasharray:3 3" />
<line x1="1363" y1="1" x2="1363" y2="108" style="stroke:#ddd;stroke-width:2;stroke-dasharray:3 3" />
<path d="M34.62,19.85c1.95,0.51,3.91,0.6,5.9,0.25c4.54-0.82,11.92-2.35,14.72-2.81c2.69-0.44,3.18,1.22,1.75,2.95c-2.1,2.52-8.09,9.19-10.76,11.74" style="fill:none;stroke:black;stroke-width:3" />
<circle cx="34.62" cy="19.85" r="5" stroke-width="0" fill="#FF2A00" opacity="0.7" />
<path d="M143.62,19.85c1.95,0.51,3.91,0.6,5.9,0.25c4.54-0.82,11.92-2.35,14.72-2.81c2.69-0.44,3.18,1.22,1.75,2.95c-2.1,2.52-8.09,9.19-10.76,11.74" style="fill:none;stroke:#999;stroke-width:3" />
<path d="M153.26,31.49c8.99,6.51,11.77,23.08,7.29,39.73c-2.41,8.97-7.8,3.28-9.18,1.65" style="fill:none;stroke:black;stroke-width:3" />
<circle cx="153.26" cy="31.49" r="5" stroke-width="0" fill="#FF2A00" opacity="0.7" />
<path d="M252.62,19.85c1.95,0.51,3.91,0.6,5.9,0.25c4.54-0.82,11.92-2.35,14.72-2.81c2.69-0.44,3.18,1.22,1.75,2.95c-2.1,2.52-8.09,9.19-10.76,11.74" style="fill:none;stroke:#999;stroke-width:3" />
<path d="M262.26,31.49c8.99,6.51,11.77,23.08,7.29,39.73c-2.41,8.97-7.8,3.28-9.18,1.65" style="fill:none;stroke:#999;stroke-width:3" />
<path d="M253.5,54.98c1.03,0.75,2.25,0.62,3.79-0.43c6.77-4.66,9.6-6.43,18.67-13.44" style="fill:none;stroke:black;stroke-width:3" />
<circle cx="253.5" cy="54.98" r="5" stroke-width="0" fill="#FF2A00" opacity="0.7" />
<path d="M361.62,19.85c1.95,0.51,3.91,0.6,5.9,0.25c4.54-0.82,11.92-2.35,14.72-2.81c2.69-0.44,3.18,1.22,1.75,2.95c-2.1,2.52-8.09,9.19-10.76,11.74" style="fill:none;stroke:#999;stroke-width:3" />
<path d="M371.26,31.49c8.99,6.51,11.77,23.08,7.29,39.73c-2.41,8.97-7.8,3.28-9.18,1.65" style="fill:none;stroke:#999;stroke-width:3" />
<path d="M362.5,54.98c1.03,0.75,2.25,0.62,3.79-0.43c6.77-4.66,9.6-6.43,18.67-13.44" style="fill:none;stroke:#999;stroke-width:3" />
<path d="M414.78,12.14c-0.14,1.12-0.66,1.88-1.55,2.28c-4.48,2.62-9.41,4.84-20.7,8.45" style="fill:none;stroke:black;stroke-width:3" />
<circle cx="414.78" cy="12.14" r="5" stroke-width="0" fill="#FF2A00" opacity="0.7" />
<path d="M470.62,19.85c1.95,0.51,3.91,0.6,5.9,0.25c4.54-0.82,11.92-2.35,14.72-2.81c2.69-0.44,3.18,1.22,1.75,2.95c-2.1,2.52-8.09,9.19-10.76,11.74" style="fill:none;stroke:#999;stroke-width:3" />
<path d="M480.26,31.49c8.99,6.51,11.77,23.08,7.29,39.73c-2.41,8.97-7.8,3.28-9.18,1.65" style="fill:none;stroke:#999;stroke-width:3" />
<path d="M471.5,54.98c1.03,0.75,2.25,0.62,3.79-0.43c6.77-4.66,9.6-6.43,18.67-13.44" style="fill:none;stroke:#999;stroke-width:3" />
<path d="M523.78,12.14c-0.14,1.12-0.66,1.88-1.55,2.28c-4.48,2.62-9.41,4.84-20.7,8.45" style="fill:none;stroke:#999;stroke-width:3" />
<path d="M512.45,22.24c0.27,0.91,0.16,1.8-0.64,2.58c-4.3,4.18-5.96,6.2-8.57,8.81c-1.07,1.08-0.99,2.29,0.35,3.06c3.15,1.81,4.78,2.56,7.65,4.44" style="fill:none;stroke:black;stroke-width:3" />
<circle cx="512.45" cy="22.24" r="5" stroke-width="0" fill="#FF2A00" opacity="0.7" />
<path d="M579.62,19.85c1.95,0.51,3.91,0.6,5.9,0.25c4.54-0.82,11.92-2.35,14.72-2.81c2.69-0.44,3.18,1.22,1.75,2.95c-2.1,2.52-8.09,9.19-10.76,11.74" style="fill:none;stroke:#999;stroke-width:3" />
<path d="M589.26,31.49c8.99,6.51,11.77,23.08,7.29,39.73c-2.41,8.97-7.8,3.28-9.18,1.65" style="fill:none;stroke:#999;stroke-width:3" />
<path d="M580.5,54.98c1.03,0.75,2.25,0.62,3.79-0.43c6.77-4.66,9.6-6.43,18.67-13.44" style="fill:none;stroke:#999;stroke-width:3" />
<path d="M632.78,12.14c-0.14,1.12-0.66,1.88-1.55,2.28c-4.48,2.62-9.41,4.84-20.7,8.45" style="fill:none;stroke:#999;stroke-width:3" />
<path d="M621.45,22.24c0.27,0.91,0.16,1.8-0.64,2.58c-4.3,4.18-5.96,6.2-8.57,8.81c-1.07,1.08-0.99,2.29,0.35,3.06c3.15,1.81,4.78,2.56,7.65,4.44" style="fill:none;stroke:#999;stroke-width:3" />
<path d="M633.19,29.29c0,1.21-0.49,2.13-1,2.67c-7.41,7.94-11.82,11.51-21.31,19.92c-1.4,1.24-1.75,3.08,0.71,2.5c6.11-1.43,14.98-3.17,22.48-4.46" style="fill:none;stroke:black;stroke-width:3" />
<circle cx="633.19" cy="29.29" r="5" stroke-width="0" fill="#FF2A00" opacity="0.7" />
<path d="M688.62,19.85c1.95,0.51,3.91,0.6,5.9,0.25c4.54-0.82,11.92-2.35,14.72-2.81c2.69-0.44,3.18,1.22,1.75,2.95c-2.1,2.52-8.09,9.19-10.76,11.74" style="fill:none;stroke:#999;stroke-width:3" />
<path d="M698.26,31.49c8.99,6.51,11.77,23.08,7.29,39.73c-2.41,8.97-7.8,3.28-9.18,1.65" style="fill:none;stroke:#999;stroke-width:3" />
<path d="M689.5,54.98c1.03,0.75,2.25,0.62,3.79-0.43c6.77-4.66,9.6-6.43,18.67-13.44" style="fill:none;stroke:#999;stroke-width:3" />
<path d="M741.78,12.14c-0.14,1.12-0.66,1.88-1.55,2.28c-4.48,2.62-9.41,4.84-20.7,8.45" style="fill:none;stroke:#999;stroke-width:3" />
<path d="M730.45,22.24c0.27,0.91,0.16,1.8-0.64,2.58c-4.3,4.18-5.96,6.2-8.57,8.81c-1.07,1.08-0.99,2.29,0.35,3.06c3.15,1.81,4.78,2.56,7.65,4.44" style="fill:none;stroke:#999;stroke-width:3" />
<path d="M742.19,29.29c0,1.21-0.49,2.13-1,2.67c-7.41,7.94-11.82,11.51-21.31,19.92c-1.4,1.24-1.75,3.08,0.71,2.5c6.11-1.43,14.98-3.17,22.48-4.46" style="fill:none;stroke:#999;stroke-width:3" />
<path d="M740.71,42.64c2.5,2.36,6.45,9.44,7.07,13.1" style="fill:none;stroke:black;stroke-width:3" />
<circle cx="740.71" cy="42.64" r="5" stroke-width="0" fill="#FF2A00" opacity="0.7" />
<path d="M797.62,19.85c1.95,0.51,3.91,0.6,5.9,0.25c4.54-0.82,11.92-2.35,14.72-2.81c2.69-0.44,3.18,1.22,1.75,2.95c-2.1,2.52-8.09,9.19-10.76,11.74" style="fill:none;stroke:#999;stroke-width:3" />
<path d="M807.26,31.49c8.99,6.51,11.77,23.08,7.29,39.73c-2.41,8.97-7.8,3.28-9.18,1.65" style="fill:none;stroke:#999;stroke-width:3" />
<path d="M798.5,54.98c1.03,0.75,2.25,0.62,3.79-0.43c6.77-4.66,9.6-6.43,18.67-13.44" style="fill:none;stroke:#999;stroke-width:3" />
<path d="M850.78,12.14c-0.14,1.12-0.66,1.88-1.55,2.28c-4.48,2.62-9.41,4.84-20.7,8.45" style="fill:none;stroke:#999;stroke-width:3" />
<path d="M839.45,22.24c0.27,0.91,0.16,1.8-0.64,2.58c-4.3,4.18-5.96,6.2-8.57,8.81c-1.07,1.08-0.99,2.29,0.35,3.06c3.15,1.81,4.78,2.56,7.65,4.44" style="fill:none;stroke:#999;stroke-width:3" />
<path d="M851.19,29.29c0,1.21-0.49,2.13-1,2.67c-7.41,7.94-11.82,11.51-21.31,19.92c-1.4,1.24-1.75,3.08,0.71,2.5c6.11-1.43,14.98-3.17,22.48-4.46" style="fill:none;stroke:#999;stroke-width:3" />
<path d="M849.71,42.64c2.5,2.36,6.45,9.44,7.07,13.1" style="fill:none;stroke:#999;stroke-width:3" />
<path d="M840.4,55.18c0.83,0.83,1.14,1.82,1.14,3.27c0,4.73,0.01,13.62,0.01,19.18c0,2.26,0,3.97,0,4.62" style="fill:none;stroke:black;stroke-width:3" />
<circle cx="840.4" cy="55.18" r="5" stroke-width="0" fill="#FF2A00" opacity="0.7" />
<path d="M906.62,19.85c1.95,0.51,3.91,0.6,5.9,0.25c4.54-0.82,11.92-2.35,14.72-2.81c2.69-0.44,3.18,1.22,1.75,2.95c-2.1,2.52-8.09,9.19-10.76,11.74" style="fill:none;stroke:#999;stroke-width:3" />
<path d="M916.26,31.49c8.99,6.51,11.77,23.08,7.29,39.73c-2.41,8.97-7.8,3.28-9.18,1.65" style="fill:none;stroke:#999;stroke-width:3" />
<path d="M907.5,54.98c1.03,0.75,2.25,0.62,3.79-0.43c6.77-4.66,9.6-6.43,18.67-13.44" style="fill:none;stroke:#999;stroke-width:3" />
<path d="M959.78,12.14c-0.14,1.12-0.66,1.88-1.55,2.28c-4.48,2.62-9.41,4.84-20.7,8.45" style="fill:none;stroke:#999;stroke-width:3" />
<path d="M948.45,22.24c0.27,0.91,0.16,1.8-0.64,2.58c-4.3,4.18-5.96,6.2-8.57,8.81c-1.07,1.08-0.99,2.29,0.35,3.06c3.15,1.81,4.78,2.56,7.65,4.44" style="fill:none;stroke:#999;stroke-width:3" />
<path d="M960.19,29.29c0,1.21-0.49,2.13-1,2.67c-7.41,7.94-11.82,11.51-21.31,19.92c-1.4,1.24-1.75,3.08,0.71,2.5c6.11-1.43,14.98-3.17,22.48-4.46" style="fill:none;stroke:#999;stroke-width:3" />
<path d="M958.71,42.64c2.5,2.36,6.45,9.44,7.07,13.1" style="fill:none;stroke:#999;stroke-width:3" />
<path d="M949.4,55.18c0.83,0.83,1.14,1.82,1.14,3.27c0,4.73,0.01,13.62,0.01,19.18c0,2.26,0,3.97,0,4.62" style="fill:none;stroke:#999;stroke-width:3" />
<path d="M939.92,64.24c0,1.01-0.29,1.76-0.9,2.64c-1.95,2.84-5.82,8.09-8.38,10.6" style="fill:none;stroke:black;stroke-width:3" />
<circle cx="939.92" cy="64.24" r="5" stroke-width="0" fill="#FF2A00" opacity="0.7" />
<path d="M1015.62,19.85c1.95,0.51,3.91,0.6,5.9,0.25c4.54-0.82,11.92-2.35,14.72-2.81c2.69-0.44,3.18,1.22,1.75,2.95c-2.1,2.52-8.09,9.19-10.76,11.74" style="fill:none;stroke:#999;stroke-width:3" />
<path d="M1025.26,31.49c8.99,6.51,11.77,23.08,7.29,39.73c-2.41,8.97-7.8,3.28-9.18,1.65" style="fill:none;stroke:#999;stroke-width:3" />
<path d="M1016.5,54.98c1.03,0.75,2.25,0.62,3.79-0.43c6.77-4.66,9.6-6.43,18.67-13.44" style="fill:none;stroke:#999;stroke-width:3" />
<path d="M1068.78,12.14c-0.14,1.12-0.66,1.88-1.55,2.28c-4.48,2.62-9.41,4.84-20.7,8.45" style="fill:none;stroke:#999;stroke-width:3" />
<path d="M1057.45,22.24c0.27,0.91,0.16,1.8-0.64,2.58c-4.3,4.18-5.96,6.2-8.57,8.81c-1.07,1.08-0.99,2.29,0.35,3.06c3.15,1.81,4.78,2.56,7.65,4.44" style="fill:none;stroke:#999;stroke-width:3" />
<path d="M1069.19,29.29c0,1.21-0.49,2.13-1,2.67c-7.41,7.94-11.82,11.51-21.31,19.92c-1.4,1.24-1.75,3.08,0.71,2.5c6.11-1.43,14.98-3.17,22.48-4.46" style="fill:none;stroke:#999;stroke-width:3" />
<path d="M1067.71,42.64c2.5,2.36,6.45,9.44,7.07,13.1" style="fill:none;stroke:#999;stroke-width:3" />
<path d="M1058.4,55.18c0.83,0.83,1.14,1.82,1.14,3.27c0,4.73,0.01,13.62,0.01,19.18c0,2.26,0,3.97,0,4.62" style="fill:none;stroke:#999;stroke-width:3" />
<path d="M1048.92,64.24c0,1.01-0.29,1.76-0.9,2.64c-1.95,2.84-5.82,8.09-8.38,10.6" style="fill:none;stroke:#999;stroke-width:3" />
<path d="M1069.17,63.11c3.33,2.89,7.58,9.64,8.33,14.18" style="fill:none;stroke:black;stroke-width:3" />
<circle cx="1069.17" cy="63.11" r="5" stroke-width="0" fill="#FF2A00" opacity="0.7" />
<path d="M1124.62,19.85c1.95,0.51,3.91,0.6,5.9,0.25c4.54-0.82,11.92-2.35,14.72-2.81c2.69-0.44,3.18,1.22,1.75,2.95c-2.1,2.52-8.09,9.19-10.76,11.74" style="fill:none;stroke:#999;stroke-width:3" />
<path d="M1134.26,31.49c8.99,6.51,11.77,23.08,7.29,39.73c-2.41,8.97-7.8,3.28-9.18,1.65" style="fill:none;stroke:#999;stroke-width:3" />
<path d="M1125.5,54.98c1.03,0.75,2.25,0.62,3.79-0.43c6.77-4.66,9.6-6.43,18.67-13.44" style="fill:none;stroke:#999;stroke-width:3" />
<path d="M1177.78,12.14c-0.14,1.12-0.66,1.88-1.55,2.28c-4.48,2.62-9.41,4.84-20.7,8.45" style="fill:none;stroke:#999;stroke-width:3" />
<path d="M1166.45,22.24c0.27,0.91,0.16,1.8-0.64,2.58c-4.3,4.18-5.96,6.2-8.57,8.81c-1.07,1.08-0.99,2.29,0.35,3.06c3.15,1.81,4.78,2.56,7.65,4.44" style="fill:none;stroke:#999;stroke-width:3" />
<path d="M1178.19,29.29c0,1.21-0.49,2.13-1,2.67c-7.41,7.94-11.82,11.51-21.31,19.92c-1.4,1.24-1.75,3.08,0.71,2.5c6.11-1.43,14.98-3.17,22.48-4.46" style="fill:none;stroke:#999;stroke-width:3" />
<path d="M1176.71,42.64c2.5,2.36,6.45,9.44,7.07,13.1" style="fill:none;stroke:#999;stroke-width:3" />
<path d="M1167.4,55.18c0.83,0.83,1.14,1.82,1.14,3.27c0,4.73,0.01,13.62,0.01,19.18c0,2.26,0,3.97,0,4.62" style="fill:none;stroke:#999;stroke-width:3" />
<path d="M1157.92,64.24c0,1.01-0.29,1.76-0.9,2.64c-1.95,2.84-5.82,8.09-8.38,10.6" style="fill:none;stroke:#999;stroke-width:3" />
<path d="M1178.17,63.11c3.33,2.89,7.58,9.64,8.33,14.18" style="fill:none;stroke:#999;stroke-width:3" />
<path d="M1105.71,17.75c3.63,1.74,9.38,7.17,10.29,9.88" style="fill:none;stroke:black;stroke-width:3" />
<circle cx="1105.71" cy="17.75" r="5" stroke-width="0" fill="#FF2A00" opacity="0.7" />
<path d="M1233.62,19.85c1.95,0.51,3.91,0.6,5.9,0.25c4.54-0.82,11.92-2.35,14.72-2.81c2.69-0.44,3.18,1.22,1.75,2.95c-2.1,2.52-8.09,9.19-10.76,11.74" style="fill:none;stroke:#999;stroke-width:3" />
<path d="M1243.26,31.49c8.99,6.51,11.77,23.08,7.29,39.73c-2.41,8.97-7.8,3.28-9.18,1.65" style="fill:none;stroke:#999;stroke-width:3" />
<path d="M1234.5,54.98c1.03,0.75,2.25,0.62,3.79-0.43c6.77-4.66,9.6-6.43,18.67-13.44" style="fill:none;stroke:#999;stroke-width:3" />
<path d="M1286.78,12.14c-0.14,1.12-0.66,1.88-1.55,2.28c-4.48,2.62-9.41,4.84-20.7,8.45" style="fill:none;stroke:#999;stroke-width:3" />
<path d="M1275.45,22.24c0.27,0.91,0.16,1.8-0.64,2.58c-4.3,4.18-5.96,6.2-8.57,8.81c-1.07,1.08-0.99,2.29,0.35,3.06c3.15,1.81,4.78,2.56,7.65,4.44" style="fill:none;stroke:#999;stroke-width:3" />
<path d="M1287.19,29.29c0,1.21-0.49,2.13-1,2.67c-7.41,7.94-11.82,11.51-21.31,19.92c-1.4,1.24-1.75,3.08,0.71,2.5c6.11-1.43,14.98-3.17,22.48-4.46" style="fill:none;stroke:#999;stroke-width:3" />
<path d="M1285.71,42.64c2.5,2.36,6.45,9.44,7.07,13.1" style="fill:none;stroke:#999;stroke-width:3" />
<path d="M1276.4,55.18c0.83,0.83,1.14,1.82,1.14,3.27c0,4.73,0.01,13.62,0.01,19.18c0,2.26,0,3.97,0,4.62" style="fill:none;stroke:#999;stroke-width:3" />
<path d="M1266.92,64.24c0,1.01-0.29,1.76-0.9,2.64c-1.95,2.84-5.82,8.09-8.38,10.6" style="fill:none;stroke:#999;stroke-width:3" />
<path d="M1287.17,63.11c3.33,2.89,7.58,9.64,8.33,14.18" style="fill:none;stroke:#999;stroke-width:3" />
<path d="M1214.71,17.75c3.63,1.74,9.38,7.17,10.29,9.88" style="fill:none;stroke:#999;stroke-width:3" />
<path d="M1209.5,47c2.17,0.52,4.3,0.49,6.39-0.09c2.58-0.81,7.88-2.5,9.11-2.91c2.93-0.98,4.07,0.89,2.5,3.25c-1,1.5-6,7.75-6.75,9c-1.26,2.1-0.66,3.32,1,5.25c1.5,1.75,2,2.25,3,3.75c0.93,1.4,0.49,2.49-0.75,4c-3.5,4.25-5.25,6.12-8,8.75" style="fill:none;stroke:black;stroke-width:3" />
<circle cx="1209.5" cy="47.0" r="5" stroke-width="0" fill="#FF2A00" opacity="0.7" />
<path d="M1342.62,19.85c1.95,0.51,3.91,0.6,5.9,0.25c4.54-0.82,11.92-2.35,14.72-2.81c2.69-0.44,3.18,1.22,1.75,2.95c-2.1,2.52-8.09,9.19-10.76,11.74" style="fill:none;stroke:#999;stroke-width:3" />
<path d="M1352.26,31.49c8.99,6.51,11.77,23.08,7.29,39.73c-2.41,8.97-7.8,3.28-9.18,1.65" style="fill:none;stroke:#999;stroke-width:3" />
<path d="M1343.5,54.98c1.03,0.75,2.25,0.62,3.79-0.43c6.77-4.66,9.6-6.43,18.67-13.44" style="fill:none;stroke:#999;stroke-width:3" />
<path d="M1395.78,12.14c-0.14,1.12-0.66,1.88-1.55,2.28c-4.48,2.62-9.41,4.84-20.7,8.45" style="fill:none;stroke:#999;stroke-width:3" />
<path d="M1384.45,22.24c0.27,0.91,0.16,1.8-0.64,2.58c-4.3,4.18-5.96,6.2-8.57,8.81c-1.07,1.08-0.99,2.29,0.35,3.06c3.15,1.81,4.78,2.56,7.65,4.44" style="fill:none;stroke:#999;stroke-width:3" />
<path d="M1396.19,29.29c0,1.21-0.49,2.13-1,2.67c-7.41,7.94-11.82,11.51-21.31,19.92c-1.4,1.24-1.75,3.08,0.71,2.5c6.11-1.43,14.98-3.17,22.48-4.46" style="fill:none;stroke:#999;stroke-width:3" />
<path d="M1394.71,42.64c2.5,2.36,6.45,9.44,7.07,13.1" style="fill:none;stroke:#999;stroke-width:3" />
<path d="M1385.4,55.18c0.83,0.83,1.14,1.82,1.14,3.27c0,4.73,0.01,13.62,0.01,19.18c0,2.26,0,3.97,0,4.62" style="fill:none;stroke:#999;stroke-width:3" />
<path d="M1375.92,64.24c0,1.01-0.29,1.76-0.9,2.64c-1.95,2.84-5.82,8.09-8.38,10.6" style="fill:none;stroke:#999;stroke-width:3" />
<path d="M1396.17,63.11c3.33,2.89,7.58,9.64,8.33,14.18" style="fill:none;stroke:#999;stroke-width:3" />
<path d="M1323.71,17.75c3.63,1.74,9.38,7.17,10.29,9.88" style="fill:none;stroke:#999;stroke-width:3" />
<path d="M1318.5,47c2.17,0.52,4.3,0.49,6.39-0.09c2.58-0.81,7.88-2.5,9.11-2.91c2.93-0.98,4.07,0.89,2.5,3.25c-1,1.5-6,7.75-6.75,9c-1.26,2.1-0.66,3.32,1,5.25c1.5,1.75,2,2.25,3,3.75c0.93,1.4,0.49,2.49-0.75,4c-3.5,4.25-5.25,6.12-8,8.75" style="fill:none;stroke:#999;stroke-width:3" />
<path d="M1319.75,79.61C1338.38,76,1352.0,83.12,1370.36,88.9c12.61,3.97,19.02,5.22,29.39,5.02" style="fill:none;stroke:black;stroke-width:3" />
<circle cx="1319.75" cy="79.61" r="5" stroke-width="0" fill="#FF2A00" opacity="0.7" />
</svg>