<svg width="1417px" height="109px" viewBox="0 0 1417px 109px" xmlns="http://www.w3.org/2000/svg" xmlns:xlink="http://www.w3.org/1999/xlink" xml:space="preserve" version="1.1"  baseProfile="full">
<line x1="1" y1="1" x2="1416" y2="1" style="stroke:#ddd;stroke-width:2" />
<line x1="1" y1="1" x2="1" y2="108" style="stroke:#ddd;stroke-width:2" />
<line x1="1" y1="108" x2="1416" y2="108" style="stroke:#ddd;stroke-width:2" />
<line x1="1416" y1="1" x2="1416" y2="108" style="stroke:#ddd;stroke-width:2" />
<line x1="109" y1="1" x2="109" y2="108" style="stroke:#ddd;stroke-width:2" />
<line x1="218" y1="1" x2="218" y2="108" style="stroke:#ddd;stroke-width:2" />
<line x1="327" y1="1" x2="327" y2="108" style="stroke:#ddd;stroke-width:2" />
<line x1="436" y1="1" x2="436" y2="108" style="stroke:#ddd;stroke-width:2" />
<line x1="545" y1="1" x2="545" y2="108" style="stroke:#ddd;stroke-width:2" />
<line x1="654" y1="1" x2="654" y2="108" style="stroke:#ddd;stroke-width:2" />
<line x1="763" y1="1" x2="763" y2="108" style="stroke:#ddd;stroke-width:2" />
<line x1="872" y1="1" x2="872" y2="108" style="stroke:#ddd;stroke-width:2" />
<line x1="981" y1="1" x2="981" y2="108" style="stroke:#ddd;stroke-width:2" />
<line x1="1090" y1="1" x2="1090" y2="108" style="stroke:#ddd;stroke-width:2" />
<line x1="1199" y1="1" x2="1199" y2="108" style="stroke:#ddd;stroke-width:2" />
<line x1="1308" y1="1" x2="1308" y2="108" style="stroke:#ddd;stroke-width:2" />
<line x1="1" y1="54" x2="1416" y2="54" style="stroke:#ddd;stroke-width:2;stroke-dasharray:3 3" />
<line x1="55" y1="1" x2="55" y2="108" style="stroke:#ddd;stroke-width:2;stroke-dasharray:3 3" />
<line x1="164" y1="1" x2="164" y2="108" style="stroke:#ddd;stroke-width:2;stroke-dasharray:3 3" />
<line x1="273" y1="1" x2="273" y2="108" style="stroke:#ddd;stroke-width:2;stroke-dasharray:3 3" />
<line x1="382" y1="1" x2="382" y2="108" style="stroke:#ddd;stroke-width:2;stroke-dasharray:3 3" />
<line x1="491" y1="1" x2="491" y2="108" style="stroke:#ddd;stroke-width:2;stroke-dasharray:3 3" />
<line x1="600" y1="1" x2="600" y2="108" style="stroke:#ddd;stroke-width:2;stroke-dasharray:3 3" />
<line x1="709" y1="1" x2="709" y2="108" style="stroke:#ddd;stroke-width:2;stroke-dasharray:3 3" />
<line x1="818" y1="1" x2="818" y2="108" style="stroke:#ddd;stroke-width:2;stroke-dasharray:3 3" />
<line x1="927" y1="1" x2="927" y2="108" style="stroke:#ddd;stroke-width:2;stroke-dasharray:3 3" />
<line x1="1036" y1="1" x2="1036" y2="108" style="stroke:#ddd;stroke-width:2;stroke-dasharray:3 3" />
<line x1="1145" y1="1" x2="1145" y2="108" style="stroke:#ddd;stroke-width:2;stroke-dasharray:3 3" />
<line x1="1254" y1="1" x2="1254" y2="108" style="stroke:#ddd;stroke-width:2;stroke-dasharray:3 3" />
<line x1="1363" y1="1" x2="1363" y2="108" style="stroke:#ddd;stroke-width:2;stroke-dasharray:3 3" />
<path d="M37.85,15.26c2.79,2.21,7.21,8.58,7.91,12.02" style="fill:none;stroke:black;stroke-width:3" />
<circle cx="37.85" cy="15.26" r="5" stroke-width="0" fill="#FF2A00" opacity="0.7" />
<path d="M146.85,15.26c2.79,2.21,7.21,8.58,7.91,12.02" style="fill:none;stroke:#999;stroke-width:3" />
<path d="M169.11,12.64c0.08,0.99,0.07,2-0.36,2.9c-1.87,3.96-3.5,8.09-6.73,12.75" style="fill:none;stroke:black;stroke-width:3" />
<circle cx="169.11" cy="12.64" r="5" stroke-width="0" fill="#FF2A00" opacity="0.7" />
<path d="M255.85,15.26c2.79,2.21,7.21,8.58,7.91,12.02" style="fill:none;stroke:#999;stroke-width:3" />
<path d="M278.11,12.64c0.08,0.99,0.07,2-0.36,2.9c-1.87,3.96-3.5,8.09-6.73,12.75" style="fill:none;stroke:#999;stroke-width:3" />
<path d="M252.25,32.64c2.14,0.57,4.31,0.7,6.52,0.39C264.9,32.37,274.25,31,279.5,30.15c1.44-0.23,2.84-0.4,4.27-0.09" style="fill:none;stroke:black;stroke-width:3" />
<circle cx="252.25" cy="32.64" r="5" stroke-width="0" fill="#FF2A00" opacity="0.7" />
<path d="M364.85,15.26c2.79,2.21,7.21,8.58,7.91,12.02" style="fill:none;stroke:#999;stroke-width:3" />
<path d="M387.11,12.64c0.08,0.99,0.07,2-0.36,2.9c-1.87,3.96-3.5,8.09-6.73,12.75" style="fill:none;stroke:#999;stroke-width:3" />
<path d="M361.25,32.64c2.14,0.57,4.31,0.7,6.52,0.39C373.9,32.37,383.25,31,388.5,30.15c1.44-0.23,2.84-0.4,4.27-0.09" style="fill:none;stroke:#999;stroke-width:3" />
<path d="M365.40999999999997,43.15c0.91,0.91,1.18,2.04,1.09,2.82c-0.63,5.77-0.88,7.27-1.72,11.28c-0.43,2.06,0.07,2.53,2.51,2.09c6.08-1.09,11.71-1.72,20.45-2.23" style="fill:none;stroke:black;stroke-width:3" />
<circle cx="365.40999999999997" cy="43.15" r="5" stroke-width="0" fill="#FF2A00" opacity="0.7" />
<path d="M473.85,15.26c2.79,2.21,7.21,8.58,7.91,12.02" style="fill:none;stroke:#999;stroke-width:3" />
<path d="M496.11,12.64c0.08,0.99,0.07,2-0.36,2.9c-1.87,3.96-3.5,8.09-6.73,12.75" style="fill:none;stroke:#999;stroke-width:3" />
<path d="M470.25,32.64c2.14,0.57,4.31,0.7,6.52,0.39C482.9,32.37,492.25,31,497.5,30.15c1.44-0.23,2.84-0.4,4.27-0.09" style="fill:none;stroke:#999;stroke-width:3" />
<path d="M474.40999999999997,43.15c0.91,0.91,1.18,2.04,1.09,2.82c-0.63,5.77-0.88,7.27-1.72,11.28c-0.43,2.06,0.07,2.53,2.51,2.09c6.08-1.09,11.71-1.72,20.45-2.23" style="fill:none;stroke:#999;stroke-width:3" />
<path d="M498.87,40.46c0.51,1.17,0.76,2.29,0.59,3.69c-0.64,5.5-0.96,9.22-1.9,15.38" style="fill:none;stroke:black;stroke-width:3" />
<circle cx="498.87" cy="40.46" r="5" stroke-width="0" fill="#FF2A00" opacity="0.7" />
<path d="M582.85,15.26c2.79,2.21,7.21,8.58,7.91,12.02" style="fill:none;stroke:#999;stroke-width:3" />
<path d="M605.11,12.64c0.08,0.99,0.07,2-0.36,2.9c-1.87,3.96-3.5,8.09-6.73,12.75" style="fill:none;stroke:#999;stroke-width:3" />
<path d="M579.25,32.64c2.14,0.57,4.31,0.7,6.52,0.39C591.9,32.37,601.25,31,606.5,30.15c1.44-0.23,2.84-0.4,4.27-0.09" style="fill:none;stroke:#999;stroke-width:3" />
<path d="M583.41,43.15c0.91,0.91,1.18,2.04,1.09,2.82c-0.63,5.77-0.88,7.27-1.72,11.28c-0.43,2.06,0.07,2.53,2.51,2.09c6.08-1.09,11.71-1.72,20.45-2.23" style="fill:none;stroke:#999;stroke-width:3" />
<path d="M607.87,40.46c0.51,1.17,0.76,2.29,0.59,3.69c-0.64,5.5-0.96,9.22-1.9,15.38" style="fill:none;stroke:#999;stroke-width:3" />
<path d="M595.09,35.02c0.95,0.95,1.16,2.48,1.13,3.83C595.88,57.62,594.62,70,586.25,79" style="fill:none;stroke:black;stroke-width:3" />
<circle cx="595.09" cy="35.02" r="5" stroke-width="0" fill="#FF2A00" opacity="0.7" />
<path d="M691.85,15.26c2.79,2.21,7.21,8.58,7.91,12.02" style="fill:none;stroke:#999;stroke-width:3" />
<path d="M714.11,12.64c0.08,0.99,0.07,2-0.36,2.9c-1.87,3.96-3.5,8.09-6.73,12.75" style="fill:none;stroke:#999;stroke-width:3" />
<path d="M688.25,32.64c2.14,0.57,4.31,0.7,6.52,0.39C700.9,32.37,710.25,31,715.5,30.15c1.44-0.23,2.84-0.4,4.27-0.09" style="fill:none;stroke:#999;stroke-width:3" />
<path d="M692.41,43.15c0.91,0.91,1.18,2.04,1.09,2.82c-0.63,5.77-0.88,7.27-1.72,11.28c-0.43,2.06,0.07,2.53,2.51,2.09c6.08-1.09,11.71-1.72,20.45-2.23" style="fill:none;stroke:#999;stroke-width:3" />
<path d="M716.87,40.46c0.51,1.17,0.76,2.29,0.59,3.69c-0.64,5.5-0.96,9.22-1.9,15.38" style="fill:none;stroke:#999;stroke-width:3" />
<path d="M704.09,35.02c0.95,0.95,1.16,2.48,1.13,3.83C704.88,57.62,703.62,70,695.25,79" style="fill:none;stroke:#999;stroke-width:3" />
<path d="M725.4300000000001,17.33c0.75,0.75,0.84,1.64,0.89,2.51c1.43,25.29,0.18,49.04-10.47,60.08" style="fill:none;stroke:black;stroke-width:3" />
<circle cx="725.4300000000001" cy="17.33" r="5" stroke-width="0" fill="#FF2A00" opacity="0.7" />
<path d="M800.85,15.26c2.79,2.21,7.21,8.58,7.91,12.02" style="fill:none;stroke:#999;stroke-width:3" />
<path d="M823.11,12.64c0.08,0.99,0.07,2-0.36,2.9c-1.87,3.96-3.5,8.09-6.73,12.75" style="fill:none;stroke:#999;stroke-width:3" />
<path d="M797.25,32.64c2.14,0.57,4.31,0.7,6.52,0.39C809.9,32.37,819.25,31,824.5,30.15c1.44-0.23,2.84-0.4,4.27-0.09" style="fill:none;stroke:#999;stroke-width:3" />
<path d="M801.41,43.15c0.91,0.91,1.18,2.04,1.09,2.82c-0.63,5.77-0.88,7.27-1.72,11.28c-0.43,2.06,0.07,2.53,2.51,2.09c6.08-1.09,11.71-1.72,20.45-2.23" style="fill:none;stroke:#999;stroke-width:3" />
<path d="M825.87,40.46c0.51,1.17,0.76,2.29,0.59,3.69c-0.64,5.5-0.96,9.22-1.9,15.38" style="fill:none;stroke:#999;stroke-width:3" />
<path d="M813.09,35.02c0.95,0.95,1.16,2.48,1.13,3.83C813.88,57.62,812.62,70,804.25,79" style="fill:none;stroke:#999;stroke-width:3" />
<path d="M834.4300000000001,17.33c0.75,0.75,0.84,1.64,0.89,2.51c1.43,25.29,0.18,49.04-10.47,60.08" style="fill:none;stroke:#999;stroke-width:3" />
<path d="M835.97,18.53c5.78-1.53,12.33-2.88,13.94-3.11c2.89-0.4,4.11,1.2,4.11,3.81c0,3.89-0.03,40.02-0.03,56.27c0,12.13-4.77,5.27-6.58,3.47" style="fill:none;stroke:black;stroke-width:3" />
<circle cx="835.97" cy="18.53" r="5" stroke-width="0" fill="#FF2A00" opacity="0.7" />
<path d="M909.85,15.26c2.79,2.21,7.21,8.58,7.91,12.02" style="fill:none;stroke:#999;stroke-width:3" />
<path d="M932.11,12.64c0.08,0.99,0.07,2-0.36,2.9c-1.87,3.96-3.5,8.09-6.73,12.75" style="fill:none;stroke:#999;stroke-width:3" />
<path d="M906.25,32.64c2.14,0.57,4.31,0.7,6.52,0.39C918.9,32.37,928.25,31,933.5,30.15c1.44-0.23,2.84-0.4,4.27-0.09" style="fill:none;stroke:#999;stroke-width:3" />
<path d="M910.41,43.15c0.91,0.91,1.18,2.04,1.09,2.82c-0.63,5.77-0.88,7.27-1.72,11.28c-0.43,2.06,0.07,2.53,2.51,2.09c6.08-1.09,11.71-1.72,20.45-2.23" style="fill:none;stroke:#999;stroke-width:3" />
<path d="M934.87,40.46c0.51,1.17,0.76,2.29,0.59,3.69c-0.64,5.5-0.96,9.22-1.9,15.38" style="fill:none;stroke:#999;stroke-width:3" />
<path d="M922.09,35.02c0.95,0.95,1.16,2.48,1.13,3.83C922.88,57.62,921.62,70,913.25,79" style="fill:none;stroke:#999;stroke-width:3" />
<path d="M943.4300000000001,17.33c0.75,0.75,0.84,1.64,0.89,2.51c1.43,25.29,0.18,49.04-10.47,60.08" style="fill:none;stroke:#999;stroke-width:3" />
<path d="M944.97,18.53c5.78-1.53,12.33-2.88,13.94-3.11c2.89-0.4,4.11,1.2,4.11,3.81c0,3.89-0.03,40.02-0.03,56.27c0,12.13-4.77,5.27-6.58,3.47" style="fill:none;stroke:#999;stroke-width:3" />
<path d="M946.0,35.73c6.38-0.85,10.12-1.48,16.37-2.17" style="fill:none;stroke:black;stroke-width:3" />
<circle cx="946.0" cy="35.73" r="5" stroke-width="0" fill="#FF2A00" opacity="0.7" />
<path d="M1018.85,15.26c2.79,2.21,7.21,8.58,7.91,12.02" style="fill:none;stroke:#999;stroke-width:3" />
<path d="M1041.1100000000001,12.64c0.08,0.99,0.07,2-0.36,2.9c-1.87,3.96-3.5,8.09-6.73,12.75" style="fill:none;stroke:#999;stroke-width:3" />
<path d="M1015.25,32.64c2.14,0.57,4.31,0.7,6.52,0.39C1027.9,32.37,1037.25,31,1042.5,30.15c1.44-0.23,2.84-0.4,4.27-0.09" style="fill:none;stroke:#999;stroke-width:3" />
<path d="M1019.41,43.15c0.91,0.91,1.18,2.04,1.09,2.82c-0.63,5.77-0.88,7.27-1.72,11.28c-0.43,2.06,0.07,2.53,2.51,2.09c6.08-1.09,11.71-1.72,20.45-2.23" style="fill:none;stroke:#999;stroke-width:3" />
<path d="M1043.87,40.46c0.51,1.17,0.76,2.29,0.59,3.69c-0.64,5.5-0.96,9.22-1.9,15.38" style="fill:none;stroke:#999;stroke-width:3" />
<path d="M1031.0900000000001,35.02c0.95,0.95,1.16,2.48,1.13,3.83C1031.88,57.62,1030.62,70,1022.25,79" style="fill:none;stroke:#999;stroke-width:3" />
<path d="M1052.43,17.33c0.75,0.75,0.84,1.64,0.89,2.51c1.43,25.29,0.18,49.04-10.47,60.08" style="fill:none;stroke:#999;stroke-width:3" />
<path d="M1053.97,18.53c5.78-1.53,12.33-2.88,13.94-3.11c2.89-0.4,4.11,1.2,4.11,3.81c0,3.89-0.03,40.02-0.03,56.27c0,12.13-4.77,5.27-6.58,3.47" style="fill:none;stroke:#999;stroke-width:3" />
<path d="M1055.0,35.73c6.38-0.85,10.12-1.48,16.37-2.17" style="fill:none;stroke:#999;stroke-width:3" />
<path d="M1053.93,53.58c5.78-0.65,10.9-1.3,17.58-1.74" style="fill:none;stroke:black;stroke-width:3" />
<circle cx="1053.93" cy="53.58" r="5" stroke-width="0" fill="#FF2A00" opacity="0.7" />
<path d="M1127.85,15.26c2.79,2.21,7.21,8.58,7.91,12.02" style="fill:none;stroke:#999;stroke-width:3" />
<path d="M1150.1100000000001,12.64c0.08,0.99,0.07,2-0.36,2.9c-1.87,3.96-3.5,8.09-6.73,12.75" style="fill:none;stroke:#999;stroke-width:3" />
<path d="M1124.25,32.64c2.14,0.57,4.31,0.7,6.52,0.39C1136.9,32.37,1146.25,31,1151.5,30.15c1.44-0.23,2.84-0.4,4.27-0.09" style="fill:none;stroke:#999;stroke-width:3" />
<path d="M1128.4099999999999,43.15c0.91,0.91,1.18,2.04,1.09,2.82c-0.63,5.77-0.88,7.27-1.72,11.28c-0.43,2.06,0.07,2.53,2.51,2.09c6.08-1.09,11.71-1.72,20.45-2.23" style="fill:none;stroke:#999;stroke-width:3" />
<path d="M1152.87,40.46c0.51,1.17,0.76,2.29,0.59,3.69c-0.64,5.5-0.96,9.22-1.9,15.38" style="fill:none;stroke:#999;stroke-width:3" />
<path d="M1140.0900000000001,35.02c0.95,0.95,1.16,2.48,1.13,3.83C1140.88,57.62,1139.62,70,1131.25,79" style="fill:none;stroke:#999;stroke-width:3" />
<path d="M1161.43,17.33c0.75,0.75,0.84,1.64,0.89,2.51c1.43,25.29,0.18,49.04-10.47,60.08" style="fill:none;stroke:#999;stroke-width:3" />
<path d="M1162.97,18.53c5.78-1.53,12.33-2.88,13.94-3.11c2.89-0.4,4.11,1.2,4.11,3.81c0,3.89-0.03,40.02-0.03,56.27c0,12.13-4.77,5.27-6.58,3.47" style="fill:none;stroke:#999;stroke-width:3" />
<path d="M1164.0,35.73c6.38-0.85,10.12-1.48,16.37-2.17" style="fill:none;stroke:#999;stroke-width:3" />
<path d="M1162.93,53.58c5.78-0.65,10.9-1.3,17.58-1.74" style="fill:none;stroke:#999;stroke-width:3" />
<path d="M1105.96,17.75c3.63,1.74,9.38,7.17,10.29,9.88" style="fill:none;stroke:black;stroke-width:3" />
<circle cx="1105.96" cy="17.75" r="5" stroke-width="0" fill="#FF2A00" opacity="0.7" />
<path d="M1236.85,15.26c2.79,2.21,7.21,8.58,7.91,12.02" style="fill:none;stroke:#999;stroke-width:3" />
<path d="M1259.1100000000001,12.64c0.08,0.99,0.07,2-0.36,2.9c-1.87,3.96-3.5,8.09-6.73,12.75" style="fill:none;stroke:#999;stroke-width:3" />
<path d="M1233.25,32.64c2.14,0.57,4.31,0.7,6.52,0.39C1245.9,32.37,1255.25,31,1260.5,30.15c1.44-0.23,2.84-0.4,4.27-0.09" style="fill:none;stroke:#999;stroke-width:3" />
<path d="M1237.4099999999999,43.15c0.91,0.91,1.18,2.04,1.09,2.82c-0.63,5.77-0.88,7.27-1.72,11.28c-0.43,2.06,0.07,2.53,2.51,2.09c6.08-1.09,11.71-1.72,20.45-2.23" style="fill:none;stroke:#999;stroke-width:3" />
<path d="M1261.87,40.46c0.51,1.17,0.76,2.29,0.59,3.69c-0.64,5.5-0.96,9.22-1.9,15.38" style="fill:none;stroke:#999;stroke-width:3" />
<path d="M1249.0900000000001,35.02c0.95,0.95,1.16,2.48,1.13,3.83C1249.88,57.62,1248.62,70,1240.25,79" style="fill:none;stroke:#999;stroke-width:3" />
<path d="M1270.43,17.33c0.75,0.75,0.84,1.64,0.89,2.51c1.43,25.29,0.18,49.04-10.47,60.08" style="fill:none;stroke:#999;stroke-width:3" />
<path d="M1271.97,18.53c5.78-1.53,12.33-2.88,13.94-3.11c2.89-0.4,4.11,1.2,4.11,3.81c0,3.89-0.03,40.02-0.03,56.27c0,12.13-4.77,5.27-6.58,3.47" style="fill:none;stroke:#999;stroke-width:3" />
<path d="M1273.0,35.73c6.38-0.85,10.12-1.48,16.37-2.17" style="fill:none;stroke:#999;stroke-width:3" />
<path d="M1271.93,53.58c5.78-0.65,10.9-1.3,17.58-1.74" style="fill:none;stroke:#999;stroke-width:3" />
<path d="M1214.96,17.75c3.63,1.74,9.38,7.17,10.29,9.88" style="fill:none;stroke:#999;stroke-width:3" />
<path d="M1209.75,47c2.25,1,3.75,0.5,4.75,0.25s9.5-3,11-3.5c2.07-0.69,3.76,0.36,2,3c-1,1.5-6,8.25-6.75,9.5s-0.5,3.5,1,5.25s2.25,2.75,3,4.25s0.75,2.75-0.75,4S,1216.5,77.5,1215.0,78" style="fill:none;stroke:black;stroke-width:3" />
<circle cx="1209.75" cy="47.0" r="5" stroke-width="0" fill="#FF2A00" opacity="0.7" />
<path d="M1345.85,15.26c2.79,2.21,7.21,8.58,7.91,12.02" style="fill:none;stroke:#999;stroke-width:3" />
<path d="M1368.1100000000001,12.64c0.08,0.99,0.07,2-0.36,2.9c-1.87,3.96-3.5,8.09-6.73,12.75" style="fill:none;stroke:#999;stroke-width:3" />
<path d="M1342.25,32.64c2.14,0.57,4.31,0.7,6.52,0.39C1354.9,32.37,1364.25,31,1369.5,30.15c1.44-0.23,2.84-0.4,4.27-0.09" style="fill:none;stroke:#999;stroke-width:3" />
<path d="M1346.4099999999999,43.15c0.91,0.91,1.18,2.04,1.09,2.82c-0.63,5.77-0.88,7.27-1.72,11.28c-0.43,2.06,0.07,2.53,2.51,2.09c6.08-1.09,11.71-1.72,20.45-2.23" style="fill:none;stroke:#999;stroke-width:3" />
<path d="M1370.87,40.46c0.51,1.17,0.76,2.29,0.59,3.69c-0.64,5.5-0.96,9.22-1.9,15.38" style="fill:none;stroke:#999;stroke-width:3" />
<path d="M1358.0900000000001,35.02c0.95,0.95,1.16,2.48,1.13,3.83C1358.88,57.62,1357.62,70,1349.25,79" style="fill:none;stroke:#999;stroke-width:3" />
<path d="M1379.43,17.33c0.75,0.75,0.84,1.64,0.89,2.51c1.43,25.29,0.18,49.04-10.47,60.08" style="fill:none;stroke:#999;stroke-width:3" />
<path d="M1380.97,18.53c5.78-1.53,12.33-2.88,13.94-3.11c2.89-0.4,4.11,1.2,4.11,3.81c0,3.89-0.03,40.02-0.03,56.27c0,12.13-4.77,5.27-6.58,3.47" style="fill:none;stroke:#999;stroke-width:3" />
<path d="M1382.0,35.73c6.38-0.85,10.12-1.48,16.37-2.17" style="fill:none;stroke:#999;stroke-width:3" />
<path d="M1380.93,53.58c5.78-0.65,10.9-1.3,17.58-1.74" style="fill:none;stroke:#999;stroke-width:3" />
<path d="M1323.96,17.75c3.63,1.74,9.38,7.17,10.29,9.88" style="fill:none;stroke:#999;stroke-width:3" />
<path d="M1318.75,47c2.25,1,3.75,0.5,4.75,0.25s9.5-3,11-3.5c2.07-0.69,3.76,0.36,2,3c-1,1.5-6,8.25-6.75,9.5s-0.5,3.5,1,5.25s2.25,2.75,3,4.25s0.75,2.75-0.75,4S,1216.5,77.5,1215.0,78" style="fill:none;stroke:#999;stroke-width:3" />
<path d="M1319.75,79.63c15-3.38,28.38,1.87,50.91,9.21c12.66,4.12,18.21,4.79,29.59,5.04" style="fill:none;stroke:black;stroke-width:3" />
<circle cx="1319.75" cy="79.63" r="5" stroke-width="0" fill="#FF2A00" opacity="0.7" />
</svg>