<svg width="1635px" height="109px" viewBox="0 0 1635px 109px" xmlns="http://www.w3.org/2000/svg" xmlns:xlink="http://www.w3.org/1999/xlink" xml:space="preserve" version="1.1"  baseProfile="full">
<line x1="1" y1="1" x2="1634" y2="1" style="stroke:#ddd;stroke-width:2" />
<line x1="1" y1="1" x2="1" y2="108" style="stroke:#ddd;stroke-width:2" />
<line x1="1" y1="108" x2="1634" y2="108" style="stroke:#ddd;stroke-width:2" />
<line x1="1634" y1="1" x2="1634" y2="108" style="stroke:#ddd;stroke-width:2" />
<line x1="109" y1="1" x2="109" y2="108" style="stroke:#ddd;stroke-width:2" />
<line x1="218" y1="1" x2="218" y2="108" style="stroke:#ddd;stroke-width:2" />
<line x1="327" y1="1" x2="327" y2="108" style="stroke:#ddd;stroke-width:2" />
<line x1="436" y1="1" x2="436" y2="108" style="stroke:#ddd;stroke-width:2" />
<line x1="545" y1="1" x2="545" y2="108" style="stroke:#ddd;stroke-width:2" />
<line x1="654" y1="1" x2="654" y2="108" style="stroke:#ddd;stroke-width:2" />
<line x1="763" y1="1" x2="763" y2="108" style="stroke:#ddd;stroke-width:2" />
<line x1="872" y1="1" x2="872" y2="108" style="stroke:#ddd;stroke-width:2" />
<line x1="981" y1="1" x2="981" y2="108" style="stroke:#ddd;stroke-width:2" />
<line x1="1090" y1="1" x2="1090" y2="108" style="stroke:#ddd;stroke-width:2" />
<line x1="1199" y1="1" x2="1199" y2="108" style="stroke:#ddd;stroke-width:2" />
<line x1="1308" y1="1" x2="1308" y2="108" style="stroke:#ddd;stroke-width:2" />
<line x1="1417" y1="1" x2="1417" y2="108" style="stroke:#ddd;stroke-width:2" />
<line x1="1526" y1="1" x2="1526" y2="108" style="stroke:#ddd;stroke-width:2" />
<line x1="1" y1="54" x2="1634" y2="54" style="stroke:#ddd;stroke-width:2;stroke-dasharray:3 3" />
<line x1="55" y1="1" x2="55" y2="108" style="stroke:#ddd;stroke-width:2;stroke-dasharray:3 3" />
<line x1="164" y1="1" x2="164" y2="108" style="stroke:#ddd;stroke-width:2;stroke-dasharray:3 3" />
<line x1="273" y1="1" x2="273" y2="108" style="stroke:#ddd;stroke-width:2;stroke-dasharray:3 3" />
<line x1="382" y1="1" x2="382" y2="108" style="stroke:#ddd;stroke-width:2;stroke-dasharray:3 3" />
<line x1="491" y1="1" x2="491" y2="108" style="stroke:#ddd;stroke-width:2;stroke-dasharray:3 3" />
<line x1="600" y1="1" x2="600" y2="108" style="stroke:#ddd;stroke-width:2;stroke-dasharray:3 3" />
<line x1="709" y1="1" x2="709" y2="108" style="stroke:#ddd;stroke-width:2;stroke-dasharray:3 3" />
<line x1="818" y1="1" x2="818" y2="108" style="stroke:#ddd;stroke-width:2;stroke-dasharray:3 3" />
<line x1="927" y1="1" x2="927" y2="108" style="stroke:#ddd;stroke-width:2;stroke-dasharray:3 3" />
<line x1="1036" y1="1" x2="1036" y2="108" style="stroke:#ddd;stroke-width:2;stroke-dasharray:3 3" />
<line x1="1145" y1="1" x2="1145" y2="108" style="stroke:#ddd;stroke-width:2;stroke-dasharray:3 3" />
<line x1="1254" y1="1" x2="1254" y2="108" style="stroke:#ddd;stroke-width:2;stroke-dasharray:3 3" />
<line x1="1363" y1="1" x2="1363" y2="108" style="stroke:#ddd;stroke-width:2;stroke-dasharray:3 3" />
<line x1="1472" y1="1" x2="1472" y2="108" style="stroke:#ddd;stroke-width:2;stroke-dasharray:3 3" />
<line x1="1581" y1="1" x2="1581" y2="108" style="stroke:#ddd;stroke-width:2;stroke-dasharray:3 3" />
<path d="M23.19,13.44c2.15,1.27,5.55,5.23,6.09,7.21" style="fill:none;stroke:black;stroke-width:3" />
<circle cx="23.19" cy="13.44" r="5" stroke-width="0" fill="#FF2A00" opacity="0.7" />
<path d="M132.19,13.44c2.15,1.27,5.55,5.23,6.09,7.21" style="fill:none;stroke:#999;stroke-width:3" />
<path d="M155.85,9.96c0.01,0.32,0.03,0.84-0.03,1.3c-0.36,2.75-2.45,8.78-5.3,12.47" style="fill:none;stroke:black;stroke-width:3" />
<circle cx="155.85" cy="9.96" r="5" stroke-width="0" fill="#FF2A00" opacity="0.7" />
<path d="M241.19,13.44c2.15,1.27,5.55,5.23,6.09,7.21" style="fill:none;stroke:#999;stroke-width:3" />
<path d="M264.85,9.96c0.01,0.32,0.03,0.84-0.03,1.3c-0.36,2.75-2.45,8.78-5.3,12.47" style="fill:none;stroke:#999;stroke-width:3" />
<path d="M230.9,28.63c0.77,0.31,3.13,0.39,3.89,0.31c5.11-0.54,29.96-4.29,37.24-4.29c1.28,0,2.68,0.15,3.32,0.3" style="fill:none;stroke:black;stroke-width:3" />
<circle cx="230.9" cy="28.63" r="5" stroke-width="0" fill="#FF2A00" opacity="0.7" />
<path d="M350.19,13.44c2.15,1.27,5.55,5.23,6.09,7.21" style="fill:none;stroke:#999;stroke-width:3" />
<path d="M373.85,9.96c0.01,0.32,0.03,0.84-0.03,1.3c-0.36,2.75-2.45,8.78-5.3,12.47" style="fill:none;stroke:#999;stroke-width:3" />
<path d="M339.9,28.63c0.77,0.31,3.13,0.39,3.89,0.31c5.11-0.54,29.96-4.29,37.24-4.29c1.28,0,2.68,0.15,3.32,0.3" style="fill:none;stroke:#999;stroke-width:3" />
<path d="M346.61,37.31c0.44,0.42,0.61,1.42,0.61,1.98s-0.29,28.09-0.29,28.37" style="fill:none;stroke:black;stroke-width:3" />
<circle cx="346.61" cy="37.31" r="5" stroke-width="0" fill="#FF2A00" opacity="0.7" />
<path d="M459.19,13.44c2.15,1.27,5.55,5.23,6.09,7.21" style="fill:none;stroke:#999;stroke-width:3" />
<path d="M482.85,9.96c0.01,0.32,0.03,0.84-0.03,1.3c-0.36,2.75-2.45,8.78-5.3,12.47" style="fill:none;stroke:#999;stroke-width:3" />
<path d="M448.9,28.63c0.77,0.31,3.13,0.39,3.89,0.31c5.11-0.54,29.96-4.29,37.24-4.29c1.28,0,2.68,0.15,3.32,0.3" style="fill:none;stroke:#999;stroke-width:3" />
<path d="M455.61,37.31c0.44,0.42,0.61,1.42,0.61,1.98s-0.29,28.09-0.29,28.37" style="fill:none;stroke:#999;stroke-width:3" />
<path d="M456.96,38.78c2.51-0.07,28.03-3.72,30.31-3.8c1.9-0.07,3.26,0.67,3.26,2.25c0,0.88-0.41,28.55-0.41,28.97" style="fill:none;stroke:black;stroke-width:3" />
<circle cx="456.96" cy="38.78" r="5" stroke-width="0" fill="#FF2A00" opacity="0.7" />
<path d="M568.19,13.44c2.15,1.27,5.55,5.23,6.09,7.21" style="fill:none;stroke:#999;stroke-width:3" />
<path d="M591.85,9.96c0.01,0.32,0.03,0.84-0.03,1.3c-0.36,2.75-2.45,8.78-5.3,12.47" style="fill:none;stroke:#999;stroke-width:3" />
<path d="M557.9,28.63c0.77,0.31,3.13,0.39,3.89,0.31c5.11-0.54,29.96-4.29,37.24-4.29c1.28,0,2.68,0.15,3.32,0.3" style="fill:none;stroke:#999;stroke-width:3" />
<path d="M564.61,37.31c0.44,0.42,0.61,1.42,0.61,1.98s-0.29,28.09-0.29,28.37" style="fill:none;stroke:#999;stroke-width:3" />
<path d="M565.96,38.78c2.51-0.07,28.03-3.72,30.31-3.8c1.9-0.07,3.26,0.67,3.26,2.25c0,0.88-0.41,28.55-0.41,28.97" style="fill:none;stroke:#999;stroke-width:3" />
<path d="M575.64,28.82c0.83,0.65,0.55,1.53,0.56,2.43c0.1,8.72-0.54,15.95-8.36,19.79" style="fill:none;stroke:black;stroke-width:3" />
<circle cx="575.64" cy="28.82" r="5" stroke-width="0" fill="#FF2A00" opacity="0.7" />
<path d="M677.19,13.44c2.15,1.27,5.55,5.23,6.09,7.21" style="fill:none;stroke:#999;stroke-width:3" />
<path d="M700.85,9.96c0.01,0.32,0.03,0.84-0.03,1.3c-0.36,2.75-2.45,8.78-5.3,12.47" style="fill:none;stroke:#999;stroke-width:3" />
<path d="M666.9,28.63c0.77,0.31,3.13,0.39,3.89,0.31c5.11-0.54,29.96-4.29,37.24-4.29c1.28,0,2.68,0.15,3.32,0.3" style="fill:none;stroke:#999;stroke-width:3" />
<path d="M673.61,37.31c0.44,0.42,0.61,1.42,0.61,1.98s-0.29,28.09-0.29,28.37" style="fill:none;stroke:#999;stroke-width:3" />
<path d="M674.96,38.78c2.51-0.07,28.03-3.72,30.31-3.8c1.9-0.07,3.26,0.67,3.26,2.25c0,0.88-0.41,28.55-0.41,28.97" style="fill:none;stroke:#999;stroke-width:3" />
<path d="M684.64,28.82c0.83,0.65,0.55,1.53,0.56,2.43c0.1,8.72-0.54,15.95-8.36,19.79" style="fill:none;stroke:#999;stroke-width:3" />
<path d="M693.65,28.55c0.41,0.63,0.73,1.37,0.76,2.34c0.08,3.08-0.18,7.23-0.22,11.03c-0.03,3.3,1.15,3.71,5.04,3.71c2.47,0,4.92-0.41,5.2-0.78" style="fill:none;stroke:black;stroke-width:3" />
<circle cx="693.65" cy="28.55" r="5" stroke-width="0" fill="#FF2A00" opacity="0.7" />
<path d="M786.19,13.44c2.15,1.27,5.55,5.23,6.09,7.21" style="fill:none;stroke:#999;stroke-width:3" />
<path d="M809.85,9.96c0.01,0.32,0.03,0.84-0.03,1.3c-0.36,2.75-2.45,8.78-5.3,12.47" style="fill:none;stroke:#999;stroke-width:3" />
<path d="M775.9,28.63c0.77,0.31,3.13,0.39,3.89,0.31c5.11-0.54,29.96-4.29,37.24-4.29c1.28,0,2.68,0.15,3.32,0.3" style="fill:none;stroke:#999;stroke-width:3" />
<path d="M782.61,37.31c0.44,0.42,0.61,1.42,0.61,1.98s-0.29,28.09-0.29,28.37" style="fill:none;stroke:#999;stroke-width:3" />
<path d="M783.96,38.78c2.51-0.07,28.03-3.72,30.31-3.8c1.9-0.07,3.26,0.67,3.26,2.25c0,0.88-0.41,28.55-0.41,28.97" style="fill:none;stroke:#999;stroke-width:3" />
<path d="M793.64,28.82c0.83,0.65,0.55,1.53,0.56,2.43c0.1,8.72-0.54,15.95-8.36,19.79" style="fill:none;stroke:#999;stroke-width:3" />
<path d="M802.65,28.55c0.41,0.63,0.73,1.37,0.76,2.34c0.08,3.08-0.18,7.23-0.22,11.03c-0.03,3.3,1.15,3.71,5.04,3.71c2.47,0,4.92-0.41,5.2-0.78" style="fill:none;stroke:#999;stroke-width:3" />
<path d="M783.23,56.02c3.4,0,29.93-3.2,33.77-3.2" style="fill:none;stroke:black;stroke-width:3" />
<circle cx="783.23" cy="56.02" r="5" stroke-width="0" fill="#FF2A00" opacity="0.7" />
<path d="M895.19,13.44c2.15,1.27,5.55,5.23,6.09,7.21" style="fill:none;stroke:#999;stroke-width:3" />
<path d="M918.85,9.96c0.01,0.32,0.03,0.84-0.03,1.3c-0.36,2.75-2.45,8.78-5.3,12.47" style="fill:none;stroke:#999;stroke-width:3" />
<path d="M884.9,28.63c0.77,0.31,3.13,0.39,3.89,0.31c5.11-0.54,29.96-4.29,37.24-4.29c1.28,0,2.68,0.15,3.32,0.3" style="fill:none;stroke:#999;stroke-width:3" />
<path d="M891.61,37.31c0.44,0.42,0.61,1.42,0.61,1.98s-0.29,28.09-0.29,28.37" style="fill:none;stroke:#999;stroke-width:3" />
<path d="M892.96,38.78c2.51-0.07,28.03-3.72,30.31-3.8c1.9-0.07,3.26,0.67,3.26,2.25c0,0.88-0.41,28.55-0.41,28.97" style="fill:none;stroke:#999;stroke-width:3" />
<path d="M902.64,28.82c0.83,0.65,0.55,1.53,0.56,2.43c0.1,8.72-0.54,15.95-8.36,19.79" style="fill:none;stroke:#999;stroke-width:3" />
<path d="M911.65,28.55c0.41,0.63,0.73,1.37,0.76,2.34c0.08,3.08-0.18,7.23-0.22,11.03c-0.03,3.3,1.15,3.71,5.04,3.71c2.47,0,4.92-0.41,5.2-0.78" style="fill:none;stroke:#999;stroke-width:3" />
<path d="M892.23,56.02c3.4,0,29.93-3.2,33.77-3.2" style="fill:none;stroke:#999;stroke-width:3" />
<path d="M892.41,64.64c6.91-0.3,24.63-2.3,33.24-2.56" style="fill:none;stroke:black;stroke-width:3" />
<circle cx="892.41" cy="64.64" r="5" stroke-width="0" fill="#FF2A00" opacity="0.7" />
<path d="M1004.19,13.44c2.15,1.27,5.55,5.23,6.09,7.21" style="fill:none;stroke:#999;stroke-width:3" />
<path d="M1027.85,9.96c0.01,0.32,0.03,0.84-0.03,1.3c-0.36,2.75-2.45,8.78-5.3,12.47" style="fill:none;stroke:#999;stroke-width:3" />
<path d="M993.9,28.63c0.77,0.31,3.13,0.39,3.89,0.31c5.11-0.54,29.96-4.29,37.24-4.29c1.28,0,2.68,0.15,3.32,0.3" style="fill:none;stroke:#999;stroke-width:3" />
<path d="M1000.61,37.31c0.44,0.42,0.61,1.42,0.61,1.98s-0.29,28.09-0.29,28.37" style="fill:none;stroke:#999;stroke-width:3" />
<path d="M1001.96,38.78c2.51-0.07,28.03-3.72,30.31-3.8c1.9-0.07,3.26,0.67,3.26,2.25c0,0.88-0.41,28.55-0.41,28.97" style="fill:none;stroke:#999;stroke-width:3" />
<path d="M1011.64,28.82c0.83,0.65,0.55,1.53,0.56,2.43c0.1,8.72-0.54,15.95-8.36,19.79" style="fill:none;stroke:#999;stroke-width:3" />
<path d="M1020.65,28.55c0.41,0.63,0.73,1.37,0.76,2.34c0.08,3.08-0.18,7.23-0.22,11.03c-0.03,3.3,1.15,3.71,5.04,3.71c2.47,0,4.92-0.41,5.2-0.78" style="fill:none;stroke:#999;stroke-width:3" />
<path d="M1001.23,56.02c3.4,0,29.93-3.2,33.77-3.2" style="fill:none;stroke:#999;stroke-width:3" />
<path d="M1001.41,64.64c6.91-0.3,24.63-2.3,33.24-2.56" style="fill:none;stroke:#999;stroke-width:3" />
<path d="M992.85,77.33c0.82,0.36,3.03,0.79,4.78,0.63c11.85-1.08,27.41-3.24,38.05-3.76c1.83-0.09,3.3-0.04,4.95,0.24" style="fill:none;stroke:black;stroke-width:3" />
<circle cx="992.85" cy="77.33" r="5" stroke-width="0" fill="#FF2A00" opacity="0.7" />
<path d="M1113.19,13.44c2.15,1.27,5.55,5.23,6.09,7.21" style="fill:none;stroke:#999;stroke-width:3" />
<path d="M1136.85,9.96c0.01,0.32,0.03,0.84-0.03,1.3c-0.36,2.75-2.45,8.78-5.3,12.47" style="fill:none;stroke:#999;stroke-width:3" />
<path d="M1102.9,28.63c0.77,0.31,3.13,0.39,3.89,0.31c5.11-0.54,29.96-4.29,37.24-4.29c1.28,0,2.68,0.15,3.32,0.3" style="fill:none;stroke:#999;stroke-width:3" />
<path d="M1109.6100000000001,37.31c0.44,0.42,0.61,1.42,0.61,1.98s-0.29,28.09-0.29,28.37" style="fill:none;stroke:#999;stroke-width:3" />
<path d="M1110.96,38.78c2.51-0.07,28.03-3.72,30.31-3.8c1.9-0.07,3.26,0.67,3.26,2.25c0,0.88-0.41,28.55-0.41,28.97" style="fill:none;stroke:#999;stroke-width:3" />
<path d="M1120.6399999999999,28.82c0.83,0.65,0.55,1.53,0.56,2.43c0.1,8.72-0.54,15.95-8.36,19.79" style="fill:none;stroke:#999;stroke-width:3" />
<path d="M1129.65,28.55c0.41,0.63,0.73,1.37,0.76,2.34c0.08,3.08-0.18,7.23-0.22,11.03c-0.03,3.3,1.15,3.71,5.04,3.71c2.47,0,4.92-0.41,5.2-0.78" style="fill:none;stroke:#999;stroke-width:3" />
<path d="M1110.23,56.02c3.4,0,29.93-3.2,33.77-3.2" style="fill:none;stroke:#999;stroke-width:3" />
<path d="M1110.4099999999999,64.64c6.91-0.3,24.63-2.3,33.24-2.56" style="fill:none;stroke:#999;stroke-width:3" />
<path d="M1101.85,77.33c0.82,0.36,3.03,0.79,4.78,0.63c11.85-1.08,27.41-3.24,38.05-3.76c1.83-0.09,3.3-0.04,4.95,0.24" style="fill:none;stroke:#999;stroke-width:3" />
<path d="M1125.73,67.25c0.38,0.45,0.57,0.98,0.56,1.95c-0.18,16.94-9.2,25.88-24.04,31.08" style="fill:none;stroke:black;stroke-width:3" />
<circle cx="1125.73" cy="67.25" r="5" stroke-width="0" fill="#FF2A00" opacity="0.7" />
<path d="M1222.19,13.44c2.15,1.27,5.55,5.23,6.09,7.21" style="fill:none;stroke:#999;stroke-width:3" />
<path d="M1245.85,9.96c0.01,0.32,0.03,0.84-0.03,1.3c-0.36,2.75-2.45,8.78-5.3,12.47" style="fill:none;stroke:#999;stroke-width:3" />
<path d="M1211.9,28.63c0.77,0.31,3.13,0.39,3.89,0.31c5.11-0.54,29.96-4.29,37.24-4.29c1.28,0,2.68,0.15,3.32,0.3" style="fill:none;stroke:#999;stroke-width:3" />
<path d="M1218.6100000000001,37.31c0.44,0.42,0.61,1.42,0.61,1.98s-0.29,28.09-0.29,28.37" style="fill:none;stroke:#999;stroke-width:3" />
<path d="M1219.96,38.78c2.51-0.07,28.03-3.72,30.31-3.8c1.9-0.07,3.26,0.67,3.26,2.25c0,0.88-0.41,28.55-0.41,28.97" style="fill:none;stroke:#999;stroke-width:3" />
<path d="M1229.6399999999999,28.82c0.83,0.65,0.55,1.53,0.56,2.43c0.1,8.72-0.54,15.95-8.36,19.79" style="fill:none;stroke:#999;stroke-width:3" />
<path d="M1238.65,28.55c0.41,0.63,0.73,1.37,0.76,2.34c0.08,3.08-0.18,7.23-0.22,11.03c-0.03,3.3,1.15,3.71,5.04,3.71c2.47,0,4.92-0.41,5.2-0.78" style="fill:none;stroke:#999;stroke-width:3" />
<path d="M1219.23,56.02c3.4,0,29.93-3.2,33.77-3.2" style="fill:none;stroke:#999;stroke-width:3" />
<path d="M1219.4099999999999,64.64c6.91-0.3,24.63-2.3,33.24-2.56" style="fill:none;stroke:#999;stroke-width:3" />
<path d="M1210.85,77.33c0.82,0.36,3.03,0.79,4.78,0.63c11.85-1.08,27.41-3.24,38.05-3.76c1.83-0.09,3.3-0.04,4.95,0.24" style="fill:none;stroke:#999;stroke-width:3" />
<path d="M1234.73,67.25c0.38,0.45,0.57,0.98,0.56,1.95c-0.18,16.94-9.2,25.88-24.04,31.08" style="fill:none;stroke:#999;stroke-width:3" />
<path d="M1235.73,81.74c6.77,2.82,14.02,7.96,18.61,14.35" style="fill:none;stroke:black;stroke-width:3" />
<circle cx="1235.73" cy="81.74" r="5" stroke-width="0" fill="#FF2A00" opacity="0.7" />
<path d="M1331.19,13.44c2.15,1.27,5.55,5.23,6.09,7.21" style="fill:none;stroke:#999;stroke-width:3" />
<path d="M1354.85,9.96c0.01,0.32,0.03,0.84-0.03,1.3c-0.36,2.75-2.45,8.78-5.3,12.47" style="fill:none;stroke:#999;stroke-width:3" />
<path d="M1320.9,28.63c0.77,0.31,3.13,0.39,3.89,0.31c5.11-0.54,29.96-4.29,37.24-4.29c1.28,0,2.68,0.15,3.32,0.3" style="fill:none;stroke:#999;stroke-width:3" />
<path d="M1327.6100000000001,37.31c0.44,0.42,0.61,1.42,0.61,1.98s-0.29,28.09-0.29,28.37" style="fill:none;stroke:#999;stroke-width:3" />
<path d="M1328.96,38.78c2.51-0.07,28.03-3.72,30.31-3.8c1.9-0.07,3.26,0.67,3.26,2.25c0,0.88-0.41,28.55-0.41,28.97" style="fill:none;stroke:#999;stroke-width:3" />
<path d="M1338.6399999999999,28.82c0.83,0.65,0.55,1.53,0.56,2.43c0.1,8.72-0.54,15.95-8.36,19.79" style="fill:none;stroke:#999;stroke-width:3" />
<path d="M1347.65,28.55c0.41,0.63,0.73,1.37,0.76,2.34c0.08,3.08-0.18,7.23-0.22,11.03c-0.03,3.3,1.15,3.71,5.04,3.71c2.47,0,4.92-0.41,5.2-0.78" style="fill:none;stroke:#999;stroke-width:3" />
<path d="M1328.23,56.02c3.4,0,29.93-3.2,33.77-3.2" style="fill:none;stroke:#999;stroke-width:3" />
<path d="M1328.4099999999999,64.64c6.91-0.3,24.63-2.3,33.24-2.56" style="fill:none;stroke:#999;stroke-width:3" />
<path d="M1319.85,77.33c0.82,0.36,3.03,0.79,4.78,0.63c11.85-1.08,27.41-3.24,38.05-3.76c1.83-0.09,3.3-0.04,4.95,0.24" style="fill:none;stroke:#999;stroke-width:3" />
<path d="M1343.73,67.25c0.38,0.45,0.57,0.98,0.56,1.95c-0.18,16.94-9.2,25.88-24.04,31.08" style="fill:none;stroke:#999;stroke-width:3" />
<path d="M1344.73,81.74c6.77,2.82,14.02,7.96,18.61,14.35" style="fill:none;stroke:#999;stroke-width:3" />
<path d="M1377.04,19.95c7.66-1.09,13.3-2.17,16.93-3.26c3.63-1.09,5.19,1.3,4.15,4.12c-1.37,3.69-6.47,15.83-9.29,19.45" style="fill:none;stroke:black;stroke-width:3" />
<circle cx="1377.04" cy="19.95" r="5" stroke-width="0" fill="#FF2A00" opacity="0.7" />
<path d="M1440.19,13.44c2.15,1.27,5.55,5.23,6.09,7.21" style="fill:none;stroke:#999;stroke-width:3" />
<path d="M1463.85,9.96c0.01,0.32,0.03,0.84-0.03,1.3c-0.36,2.75-2.45,8.78-5.3,12.47" style="fill:none;stroke:#999;stroke-width:3" />
<path d="M1429.9,28.63c0.77,0.31,3.13,0.39,3.89,0.31c5.11-0.54,29.96-4.29,37.24-4.29c1.28,0,2.68,0.15,3.32,0.3" style="fill:none;stroke:#999;stroke-width:3" />
<path d="M1436.6100000000001,37.31c0.44,0.42,0.61,1.42,0.61,1.98s-0.29,28.09-0.29,28.37" style="fill:none;stroke:#999;stroke-width:3" />
<path d="M1437.96,38.78c2.51-0.07,28.03-3.72,30.31-3.8c1.9-0.07,3.26,0.67,3.26,2.25c0,0.88-0.41,28.55-0.41,28.97" style="fill:none;stroke:#999;stroke-width:3" />
<path d="M1447.6399999999999,28.82c0.83,0.65,0.55,1.53,0.56,2.43c0.1,8.72-0.54,15.95-8.36,19.79" style="fill:none;stroke:#999;stroke-width:3" />
<path d="M1456.65,28.55c0.41,0.63,0.73,1.37,0.76,2.34c0.08,3.08-0.18,7.23-0.22,11.03c-0.03,3.3,1.15,3.71,5.04,3.71c2.47,0,4.92-0.41,5.2-0.78" style="fill:none;stroke:#999;stroke-width:3" />
<path d="M1437.23,56.02c3.4,0,29.93-3.2,33.77-3.2" style="fill:none;stroke:#999;stroke-width:3" />
<path d="M1437.4099999999999,64.64c6.91-0.3,24.63-2.3,33.24-2.56" style="fill:none;stroke:#999;stroke-width:3" />
<path d="M1428.85,77.33c0.82,0.36,3.03,0.79,4.78,0.63c11.85-1.08,27.41-3.24,38.05-3.76c1.83-0.09,3.3-0.04,4.95,0.24" style="fill:none;stroke:#999;stroke-width:3" />
<path d="M1452.73,67.25c0.38,0.45,0.57,0.98,0.56,1.95c-0.18,16.94-9.2,25.88-24.04,31.08" style="fill:none;stroke:#999;stroke-width:3" />
<path d="M1453.73,81.74c6.77,2.82,14.02,7.96,18.61,14.35" style="fill:none;stroke:#999;stroke-width:3" />
<path d="M1486.04,19.95c7.66-1.09,13.3-2.17,16.93-3.26c3.63-1.09,5.19,1.3,4.15,4.12c-1.37,3.69-6.47,15.83-9.29,19.45" style="fill:none;stroke:#999;stroke-width:3" />
<path d="M1497.83,40.26C1517.5,50,1515.0,87.5,1499.35,72.24" style="fill:none;stroke:black;stroke-width:3" />
<circle cx="1497.83" cy="40.26" r="5" stroke-width="0" fill="#FF2A00" opacity="0.7" />
<path d="M1549.19,13.44c2.15,1.27,5.55,5.23,6.09,7.21" style="fill:none;stroke:#999;stroke-width:3" />
<path d="M1572.85,9.96c0.01,0.32,0.03,0.84-0.03,1.3c-0.36,2.75-2.45,8.78-5.3,12.47" style="fill:none;stroke:#999;stroke-width:3" />
<path d="M1538.9,28.63c0.77,0.31,3.13,0.39,3.89,0.31c5.11-0.54,29.96-4.29,37.24-4.29c1.28,0,2.68,0.15,3.32,0.3" style="fill:none;stroke:#999;stroke-width:3" />
<path d="M1545.6100000000001,37.31c0.44,0.42,0.61,1.42,0.61,1.98s-0.29,28.09-0.29,28.37" style="fill:none;stroke:#999;stroke-width:3" />
<path d="M1546.96,38.78c2.51-0.07,28.03-3.72,30.31-3.8c1.9-0.07,3.26,0.67,3.26,2.25c0,0.88-0.41,28.55-0.41,28.97" style="fill:none;stroke:#999;stroke-width:3" />
<path d="M1556.6399999999999,28.82c0.83,0.65,0.55,1.53,0.56,2.43c0.1,8.72-0.54,15.95-8.36,19.79" style="fill:none;stroke:#999;stroke-width:3" />
<path d="M1565.65,28.55c0.41,0.63,0.73,1.37,0.76,2.34c0.08,3.08-0.18,7.23-0.22,11.03c-0.03,3.3,1.15,3.71,5.04,3.71c2.47,0,4.92-0.41,5.2-0.78" style="fill:none;stroke:#999;stroke-width:3" />
<path d="M1546.23,56.02c3.4,0,29.93-3.2,33.77-3.2" style="fill:none;stroke:#999;stroke-width:3" />
<path d="M1546.4099999999999,64.64c6.91-0.3,24.63-2.3,33.24-2.56" style="fill:none;stroke:#999;stroke-width:3" />
<path d="M1537.85,77.33c0.82,0.36,3.03,0.79,4.78,0.63c11.85-1.08,27.41-3.24,38.05-3.76c1.83-0.09,3.3-0.04,4.95,0.24" style="fill:none;stroke:#999;stroke-width:3" />
<path d="M1561.73,67.25c0.38,0.45,0.57,0.98,0.56,1.95c-0.18,16.94-9.2,25.88-24.04,31.08" style="fill:none;stroke:#999;stroke-width:3" />
<path d="M1562.73,81.74c6.77,2.82,14.02,7.96,18.61,14.35" style="fill:none;stroke:#999;stroke-width:3" />
<path d="M1595.04,19.95c7.66-1.09,13.3-2.17,16.93-3.26c3.63-1.09,5.19,1.3,4.15,4.12c-1.37,3.69-6.47,15.83-9.29,19.45" style="fill:none;stroke:#999;stroke-width:3" />
<path d="M1606.83,40.26C1626.5,50,1624.0,87.5,1608.35,72.24" style="fill:none;stroke:#999;stroke-width:3" />
<path d="M1592.87,18.41c1.32,0.54,2.11,2.44,2.37,3.53s0,70.28-0.26,77.06" style="fill:none;stroke:black;stroke-width:3" />
<circle cx="1592.87" cy="18.41" r="5" stroke-width="0" fill="#FF2A00" opacity="0.7" />
</svg>