<svg width="981px" height="109px" viewBox="0 0 981px 109px" xmlns="http://www.w3.org/2000/svg" xmlns:xlink="http://www.w3.org/1999/xlink" xml:space="preserve" version="1.1"  baseProfile="full">
<line x1="1" y1="1" x2="980" y2="1" style="stroke:#ddd;stroke-width:2" />
<line x1="1" y1="1" x2="1" y2="108" style="stroke:#ddd;stroke-width:2" />
<line x1="1" y1="108" x2="980" y2="108" style="stroke:#ddd;stroke-width:2" />
<line x1="980" y1="1" x2="980" y2="108" style="stroke:#ddd;stroke-width:2" />
<line x1="109" y1="1" x2="109" y2="108" style="stroke:#ddd;stroke-width:2" />
<line x1="218" y1="1" x2="218" y2="108" style="stroke:#ddd;stroke-width:2" />
<line x1="327" y1="1" x2="327" y2="108" style="stroke:#ddd;stroke-width:2" />
<line x1="436" y1="1" x2="436" y2="108" style="stroke:#ddd;stroke-width:2" />
<line x1="545" y1="1" x2="545" y2="108" style="stroke:#ddd;stroke-width:2" />
<line x1="654" y1="1" x2="654" y2="108" style="stroke:#ddd;stroke-width:2" />
<line x1="763" y1="1" x2="763" y2="108" style="stroke:#ddd;stroke-width:2" />
<line x1="872" y1="1" x2="872" y2="108" style="stroke:#ddd;stroke-width:2" />
<line x1="1" y1="54" x2="980" y2="54" style="stroke:#ddd;stroke-width:2;stroke-dasharray:3 3" />
<line x1="55" y1="1" x2="55" y2="108" style="stroke:#ddd;stroke-width:2;stroke-dasharray:3 3" />
<line x1="164" y1="1" x2="164" y2="108" style="stroke:#ddd;stroke-width:2;stroke-dasharray:3 3" />
<line x1="273" y1="1" x2="273" y2="108" style="stroke:#ddd;stroke-width:2;stroke-dasharray:3 3" />
<line x1="382" y1="1" x2="382" y2="108" style="stroke:#ddd;stroke-width:2;stroke-dasharray:3 3" />
<line x1="491" y1="1" x2="491" y2="108" style="stroke:#ddd;stroke-width:2;stroke-dasharray:3 3" />
<line x1="600" y1="1" x2="600" y2="108" style="stroke:#ddd;stroke-width:2;stroke-dasharray:3 3" />
<line x1="709" y1="1" x2="709" y2="108" style="stroke:#ddd;stroke-width:2;stroke-dasharray:3 3" />
<line x1="818" y1="1" x2="818" y2="108" style="stroke:#ddd;stroke-width:2;stroke-dasharray:3 3" />
<line x1="927" y1="1" x2="927" y2="108" style="stroke:#ddd;stroke-width:2;stroke-dasharray:3 3" />
<path d="M34.77,14.27c3.37,1.97,8.7,7.84,9.54,10.91" style="fill:none;stroke:black;stroke-width:3" />
<circle cx="34.77" cy="14.27" r="5" stroke-width="0" fill="#FF2A00" opacity="0.7" />
<path d="M143.77,14.27c3.37,1.97,8.7,7.84,9.54,10.91" style="fill:none;stroke:#999;stroke-width:3" />
<path d="M180.78,11.71c0,1.04-0.27,2.02-0.9,2.87c-2,3.67-3.9,6.72-8,11.8" style="fill:none;stroke:black;stroke-width:3" />
<circle cx="180.78" cy="11.71" r="5" stroke-width="0" fill="#FF2A00" opacity="0.7" />
<path d="M252.77,14.27c3.37,1.97,8.7,7.84,9.54,10.91" style="fill:none;stroke:#999;stroke-width:3" />
<path d="M289.78,11.71c0,1.04-0.27,2.02-0.9,2.87c-2,3.67-3.9,6.72-8,11.8" style="fill:none;stroke:#999;stroke-width:3" />
<path d="M236.4,31.86c3.85,0.76,10.13,0.35,13.1,0.07c12.37-1.18,34.15-2.85,46.87-3.45c4.01-0.16,8,0.01,11.97,0.51" style="fill:none;stroke:black;stroke-width:3" />
<circle cx="236.4" cy="31.86" r="5" stroke-width="0" fill="#FF2A00" opacity="0.7" />
<path d="M361.77,14.27c3.37,1.97,8.7,7.84,9.54,10.91" style="fill:none;stroke:#999;stroke-width:3" />
<path d="M398.78,11.71c0,1.04-0.27,2.02-0.9,2.87c-2,3.67-3.9,6.72-8,11.8" style="fill:none;stroke:#999;stroke-width:3" />
<path d="M345.4,31.86c3.85,0.76,10.13,0.35,13.1,0.07c12.37-1.18,34.15-2.85,46.87-3.45c4.01-0.16,8,0.01,11.97,0.51" style="fill:none;stroke:#999;stroke-width:3" />
<path d="M357.48,43.72c0.65,0.7,0.9,2.39,0.9,3.32c0,0.68,0.04,26.45,0.05,40.46c0.01,5.16,0.01,8.72,0.01,8.85" style="fill:none;stroke:black;stroke-width:3" />
<circle cx="357.48" cy="43.72" r="5" stroke-width="0" fill="#FF2A00" opacity="0.7" />
<path d="M470.77,14.27c3.37,1.97,8.7,7.84,9.54,10.91" style="fill:none;stroke:#999;stroke-width:3" />
<path d="M507.78,11.71c0,1.04-0.27,2.02-0.9,2.87c-2,3.67-3.9,6.72-8,11.8" style="fill:none;stroke:#999;stroke-width:3" />
<path d="M454.4,31.86c3.85,0.76,10.13,0.35,13.1,0.07c12.37-1.18,34.15-2.85,46.87-3.45c4.01-0.16,8,0.01,11.97,0.51" style="fill:none;stroke:#999;stroke-width:3" />
<path d="M466.48,43.72c0.65,0.7,0.9,2.39,0.9,3.32c0,0.68,0.04,26.45,0.05,40.46c0.01,5.16,0.01,8.72,0.01,8.85" style="fill:none;stroke:#999;stroke-width:3" />
<path d="M468.47,46.18c6.45-0.39,34.04-2.7,41.9-3.25c4.24-0.3,6.64,0.77,6.63,5.33c-0.02,5.33-0.08,23.84-0.11,36.75c-0.01,4.48-0.02,8.28-0.01,10.63" style="fill:none;stroke:black;stroke-width:3" />
<circle cx="468.47" cy="46.18" r="5" stroke-width="0" fill="#FF2A00" opacity="0.7" />
<path d="M579.77,14.27c3.37,1.97,8.7,7.84,9.54,10.91" style="fill:none;stroke:#999;stroke-width:3" />
<path d="M616.78,11.71c0,1.04-0.27,2.02-0.9,2.87c-2,3.67-3.9,6.72-8,11.8" style="fill:none;stroke:#999;stroke-width:3" />
<path d="M563.4,31.86c3.85,0.76,10.13,0.35,13.1,0.07c12.37-1.18,34.15-2.85,46.87-3.45c4.01-0.16,8,0.01,11.97,0.51" style="fill:none;stroke:#999;stroke-width:3" />
<path d="M575.48,43.72c0.65,0.7,0.9,2.39,0.9,3.32c0,0.68,0.04,26.45,0.05,40.46c0.01,5.16,0.01,8.72,0.01,8.85" style="fill:none;stroke:#999;stroke-width:3" />
<path d="M577.47,46.18c6.45-0.39,34.04-2.7,41.9-3.25c4.24-0.3,6.64,0.77,6.63,5.33c-0.02,5.33-0.08,23.84-0.11,36.75c-0.01,4.48-0.02,8.28-0.01,10.63" style="fill:none;stroke:#999;stroke-width:3" />
<path d="M592.23,31.39c1.07,1.07,1.07,2.58,1.07,4.07c0.07,19.04-2.18,26.29-12.33,32.74" style="fill:none;stroke:black;stroke-width:3" />
<circle cx="592.23" cy="31.39" r="5" stroke-width="0" fill="#FF2A00" opacity="0.7" />
<path d="M688.77,14.27c3.37,1.97,8.7,7.84,9.54,10.91" style="fill:none;stroke:#999;stroke-width:3" />
<path d="M725.78,11.71c0,1.04-0.27,2.02-0.9,2.87c-2,3.67-3.9,6.72-8,11.8" style="fill:none;stroke:#999;stroke-width:3" />
<path d="M672.4,31.86c3.85,0.76,10.13,0.35,13.1,0.07c12.37-1.18,34.15-2.85,46.87-3.45c4.01-0.16,8,0.01,11.97,0.51" style="fill:none;stroke:#999;stroke-width:3" />
<path d="M684.48,43.72c0.65,0.7,0.9,2.39,0.9,3.32c0,0.68,0.04,26.45,0.05,40.46c0.01,5.16,0.01,8.72,0.01,8.85" style="fill:none;stroke:#999;stroke-width:3" />
<path d="M686.47,46.18c6.45-0.39,34.04-2.7,41.9-3.25c4.24-0.3,6.64,0.77,6.63,5.33c-0.02,5.33-0.08,23.84-0.11,36.75c-0.01,4.48-0.02,8.28-0.01,10.63" style="fill:none;stroke:#999;stroke-width:3" />
<path d="M701.23,31.39c1.07,1.07,1.07,2.58,1.07,4.07c0.07,19.04-2.18,26.29-12.33,32.74" style="fill:none;stroke:#999;stroke-width:3" />
<path d="M714.02,32.02c0.98,0.98,1.22,2.1,1.22,3.77c0,5.63-0.1,13.58-0.1,20.64c0,6.03,1.6,6.78,7.87,6.78c3.98,0,7.93-0.75,8.39-1.43" style="fill:none;stroke:black;stroke-width:3" />
<circle cx="714.02" cy="32.02" r="5" stroke-width="0" fill="#FF2A00" opacity="0.7" />
<path d="M797.77,14.27c3.37,1.97,8.7,7.84,9.54,10.91" style="fill:none;stroke:#999;stroke-width:3" />
<path d="M834.78,11.71c0,1.04-0.27,2.02-0.9,2.87c-2,3.67-3.9,6.72-8,11.8" style="fill:none;stroke:#999;stroke-width:3" />
<path d="M781.4,31.86c3.85,0.76,10.13,0.35,13.1,0.07c12.37-1.18,34.15-2.85,46.87-3.45c4.01-0.16,8,0.01,11.97,0.51" style="fill:none;stroke:#999;stroke-width:3" />
<path d="M793.48,43.72c0.65,0.7,0.9,2.39,0.9,3.32c0,0.68,0.04,26.45,0.05,40.46c0.01,5.16,0.01,8.72,0.01,8.85" style="fill:none;stroke:#999;stroke-width:3" />
<path d="M795.47,46.18c6.45-0.39,34.04-2.7,41.9-3.25c4.24-0.3,6.64,0.77,6.63,5.33c-0.02,5.33-0.08,23.84-0.11,36.75c-0.01,4.48-0.02,8.28-0.01,10.63" style="fill:none;stroke:#999;stroke-width:3" />
<path d="M810.23,31.39c1.07,1.07,1.07,2.58,1.07,4.07c0.07,19.04-2.18,26.29-12.33,32.74" style="fill:none;stroke:#999;stroke-width:3" />
<path d="M823.02,32.02c0.98,0.98,1.22,2.1,1.22,3.77c0,5.63-0.1,13.58-0.1,20.64c0,6.03,1.6,6.78,7.87,6.78c3.98,0,7.93-0.75,8.39-1.43" style="fill:none;stroke:#999;stroke-width:3" />
<path d="M795.62,76.23c5.01,0,41.42-1.51,47.08-1.51" style="fill:none;stroke:black;stroke-width:3" />
<circle cx="795.62" cy="76.23" r="5" stroke-width="0" fill="#FF2A00" opacity="0.7" />
<path d="M906.77,14.27c3.37,1.97,8.7,7.84,9.54,10.91" style="fill:none;stroke:#999;stroke-width:3" />
<path d="M943.78,11.71c0,1.04-0.27,2.02-0.9,2.87c-2,3.67-3.9,6.72-8,11.8" style="fill:none;stroke:#999;stroke-width:3" />
<path d="M890.4,31.86c3.85,0.76,10.13,0.35,13.1,0.07c12.37-1.18,34.15-2.85,46.87-3.45c4.01-0.16,8,0.01,11.97,0.51" style="fill:none;stroke:#999;stroke-width:3" />
<path d="M902.48,43.72c0.65,0.7,0.9,2.39,0.9,3.32c0,0.68,0.04,26.45,0.05,40.46c0.01,5.16,0.01,8.72,0.01,8.85" style="fill:none;stroke:#999;stroke-width:3" />
<path d="M904.47,46.18c6.45-0.39,34.04-2.7,41.9-3.25c4.24-0.3,6.64,0.77,6.63,5.33c-0.02,5.33-0.08,23.84-0.11,36.75c-0.01,4.48-0.02,8.28-0.01,10.63" style="fill:none;stroke:#999;stroke-width:3" />
<path d="M919.23,31.39c1.07,1.07,1.07,2.58,1.07,4.07c0.07,19.04-2.18,26.29-12.33,32.74" style="fill:none;stroke:#999;stroke-width:3" />
<path d="M932.02,32.02c0.98,0.98,1.22,2.1,1.22,3.77c0,5.63-0.1,13.58-0.1,20.64c0,6.03,1.6,6.78,7.87,6.78c3.98,0,7.93-0.75,8.39-1.43" style="fill:none;stroke:#999;stroke-width:3" />
<path d="M904.62,76.23c5.01,0,41.42-1.51,47.08-1.51" style="fill:none;stroke:#999;stroke-width:3" />
<path d="M904.64,92.38c10.2-0.5,34.35-0.84,47.05-1.27" style="fill:none;stroke:black;stroke-width:3" />
<circle cx="904.64" cy="92.38" r="5" stroke-width="0" fill="#FF2A00" opacity="0.7" />
</svg>