<svg width="1090px" height="109px" viewBox="0 0 1090px 109px" xmlns="http://www.w3.org/2000/svg" xmlns:xlink="http://www.w3.org/1999/xlink" xml:space="preserve" version="1.1"  baseProfile="full">
<line x1="1" y1="1" x2="1089" y2="1" style="stroke:#ddd;stroke-width:2" />
<line x1="1" y1="1" x2="1" y2="108" style="stroke:#ddd;stroke-width:2" />
<line x1="1" y1="108" x2="1089" y2="108" style="stroke:#ddd;stroke-width:2" />
<line x1="1089" y1="1" x2="1089" y2="108" style="stroke:#ddd;stroke-width:2" />
<line x1="109" y1="1" x2="109" y2="108" style="stroke:#ddd;stroke-width:2" />
<line x1="218" y1="1" x2="218" y2="108" style="stroke:#ddd;stroke-width:2" />
<line x1="327" y1="1" x2="327" y2="108" style="stroke:#ddd;stroke-width:2" />
<line x1="436" y1="1" x2="436" y2="108" style="stroke:#ddd;stroke-width:2" />
<line x1="545" y1="1" x2="545" y2="108" style="stroke:#ddd;stroke-width:2" />
<line x1="654" y1="1" x2="654" y2="108" style="stroke:#ddd;stroke-width:2" />
<line x1="763" y1="1" x2="763" y2="108" style="stroke:#ddd;stroke-width:2" />
<line x1="872" y1="1" x2="872" y2="108" style="stroke:#ddd;stroke-width:2" />
<line x1="981" y1="1" x2="981" y2="108" style="stroke:#ddd;stroke-width:2" />
<line x1="1" y1="54" x2="1089" y2="54" style="stroke:#ddd;stroke-width:2;stroke-dasharray:3 3" />
<line x1="55" y1="1" x2="55" y2="108" style="stroke:#ddd;stroke-width:2;stroke-dasharray:3 3" />
<line x1="164" y1="1" x2="164" y2="108" style="stroke:#ddd;stroke-width:2;stroke-dasharray:3 3" />
<line x1="273" y1="1" x2="273" y2="108" style="stroke:#ddd;stroke-width:2;stroke-dasharray:3 3" />
<line x1="382" y1="1" x2="382" y2="108" style="stroke:#ddd;stroke-width:2;stroke-dasharray:3 3" />
<line x1="491" y1="1" x2="491" y2="108" style="stroke:#ddd;stroke-width:2;stroke-dasharray:3 3" />
<line x1="600" y1="1" x2="600" y2="108" style="stroke:#ddd;stroke-width:2;stroke-dasharray:3 3" />
<line x1="709" y1="1" x2="709" y2="108" style="stroke:#ddd;stroke-width:2;stroke-dasharray:3 3" />
<line x1="818" y1="1" x2="818" y2="108" style="stroke:#ddd;stroke-width:2;stroke-dasharray:3 3" />
<line x1="927" y1="1" x2="927" y2="108" style="stroke:#ddd;stroke-width:2;stroke-dasharray:3 3" />
<line x1="1036" y1="1" x2="1036" y2="108" style="stroke:#ddd;stroke-width:2;stroke-dasharray:3 3" />
<path d="M43.25,16.43c0,0.95-0.31,1.95-1.05,2.68c-5.83,5.77-11.58,9.52-20.46,13.76" style="fill:none;stroke:black;stroke-width:3" />
<circle cx="43.25" cy="16.43" r="5" stroke-width="0" fill="#FF2A00" opacity="0.7" />
<path d="M152.25,16.43c0,0.95-0.31,1.95-1.05,2.68c-5.83,5.77-11.58,9.52-20.46,13.76" style="fill:none;stroke:#999;stroke-width:3" />
<path d="M176.75,15.86c8.28,4.2,12.86,8.95,17,14.06" style="fill:none;stroke:black;stroke-width:3" />
<circle cx="176.75" cy="15.86" r="5" stroke-width="0" fill="#FF2A00" opacity="0.7" />
<path d="M261.25,16.43c0,0.95-0.31,1.95-1.05,2.68c-5.83,5.77-11.58,9.52-20.46,13.76" style="fill:none;stroke:#999;stroke-width:3" />
<path d="M285.75,15.86c8.28,4.2,12.86,8.95,17,14.06" style="fill:none;stroke:#999;stroke-width:3" />
<path d="M285.04,24.93c0,1.07-0.51,2.25-1.82,3.48C271.88,39.12,256.5,49.12,231.75,58.47" style="fill:none;stroke:black;stroke-width:3" />
<circle cx="285.04" cy="24.93" r="5" stroke-width="0" fill="#FF2A00" opacity="0.7" />
<path d="M370.25,16.43c0,0.95-0.31,1.95-1.05,2.68c-5.83,5.77-11.58,9.52-20.46,13.76" style="fill:none;stroke:#999;stroke-width:3" />
<path d="M394.75,15.86c8.28,4.2,12.86,8.95,17,14.06" style="fill:none;stroke:#999;stroke-width:3" />
<path d="M394.04,24.93c0,1.07-0.51,2.25-1.82,3.48C380.88,39.12,365.5,49.12,340.75,58.47" style="fill:none;stroke:#999;stroke-width:3" />
<path d="M368.75,28.97c4.23,0,26.29,16.14,40.66,23.73c3.87,1.88,7.9,3.33,12.09,4.35" style="fill:none;stroke:black;stroke-width:3" />
<circle cx="368.75" cy="28.97" r="5" stroke-width="0" fill="#FF2A00" opacity="0.7" />
<path d="M479.25,16.43c0,0.95-0.31,1.95-1.05,2.68c-5.83,5.77-11.58,9.52-20.46,13.76" style="fill:none;stroke:#999;stroke-width:3" />
<path d="M503.75,15.86c8.28,4.2,12.86,8.95,17,14.06" style="fill:none;stroke:#999;stroke-width:3" />
<path d="M503.04,24.93c0,1.07-0.51,2.25-1.82,3.48C489.88,39.12,474.5,49.12,449.75,58.47" style="fill:none;stroke:#999;stroke-width:3" />
<path d="M477.75,28.97c4.23,0,26.29,16.14,40.66,23.73c3.87,1.88,7.9,3.33,12.09,4.35" style="fill:none;stroke:#999;stroke-width:3" />
<path d="M475.27,55.33c2.11,0.36,4.23,0.66,6.35,0.42c6.22-0.33,12.97-1.01,20.02-1.86c2.17-0.26,4.11-0.52,6.37-0.12" style="fill:none;stroke:black;stroke-width:3" />
<circle cx="475.27" cy="55.33" r="5" stroke-width="0" fill="#FF2A00" opacity="0.7" />
<path d="M588.25,16.43c0,0.95-0.31,1.95-1.05,2.68c-5.83,5.77-11.58,9.52-20.46,13.76" style="fill:none;stroke:#999;stroke-width:3" />
<path d="M612.75,15.86c8.28,4.2,12.86,8.95,17,14.06" style="fill:none;stroke:#999;stroke-width:3" />
<path d="M612.04,24.93c0,1.07-0.51,2.25-1.82,3.48C598.88,39.12,583.5,49.12,558.75,58.47" style="fill:none;stroke:#999;stroke-width:3" />
<path d="M586.75,28.97c4.23,0,26.29,16.14,40.66,23.73c3.87,1.88,7.9,3.33,12.09,4.35" style="fill:none;stroke:#999;stroke-width:3" />
<path d="M584.27,55.33c2.11,0.36,4.23,0.66,6.35,0.42c6.22-0.33,12.97-1.01,20.02-1.86c2.17-0.26,4.11-0.52,6.37-0.12" style="fill:none;stroke:#999;stroke-width:3" />
<path d="M571.55,69.04c3.2,0.71,6.92,0.51,9.83,0.17c11.12-1.33,22.12-2.58,38.87-3.49c3.33-0.18,6.64-0.26,9.96,0.27" style="fill:none;stroke:black;stroke-width:3" />
<circle cx="571.55" cy="69.04" r="5" stroke-width="0" fill="#FF2A00" opacity="0.7" />
<path d="M697.25,16.43c0,0.95-0.31,1.95-1.05,2.68c-5.83,5.77-11.58,9.52-20.46,13.76" style="fill:none;stroke:#999;stroke-width:3" />
<path d="M721.75,15.86c8.28,4.2,12.86,8.95,17,14.06" style="fill:none;stroke:#999;stroke-width:3" />
<path d="M721.04,24.93c0,1.07-0.51,2.25-1.82,3.48C707.88,39.12,692.5,49.12,667.75,58.47" style="fill:none;stroke:#999;stroke-width:3" />
<path d="M695.75,28.97c4.23,0,26.29,16.14,40.66,23.73c3.87,1.88,7.9,3.33,12.09,4.35" style="fill:none;stroke:#999;stroke-width:3" />
<path d="M693.27,55.33c2.11,0.36,4.23,0.66,6.35,0.42c6.22-0.33,12.97-1.01,20.02-1.86c2.17-0.26,4.11-0.52,6.37-0.12" style="fill:none;stroke:#999;stroke-width:3" />
<path d="M680.55,69.04c3.2,0.71,6.92,0.51,9.83,0.17c11.12-1.33,22.12-2.58,38.87-3.49c3.33-0.18,6.64-0.26,9.96,0.27" style="fill:none;stroke:#999;stroke-width:3" />
<path d="M706.97,57.82c0.89,0.85,0.89,2.76,0.89,3.43c0,4.75,0.44,27.57,0.22,32.32" style="fill:none;stroke:black;stroke-width:3" />
<circle cx="706.97" cy="57.82" r="5" stroke-width="0" fill="#FF2A00" opacity="0.7" />
<path d="M806.25,16.43c0,0.95-0.31,1.95-1.05,2.68c-5.83,5.77-11.58,9.52-20.46,13.76" style="fill:none;stroke:#999;stroke-width:3" />
<path d="M830.75,15.86c8.28,4.2,12.86,8.95,17,14.06" style="fill:none;stroke:#999;stroke-width:3" />
<path d="M830.04,24.93c0,1.07-0.51,2.25-1.82,3.48C816.88,39.12,801.5,49.12,776.75,58.47" style="fill:none;stroke:#999;stroke-width:3" />
<path d="M804.75,28.97c4.23,0,26.29,16.14,40.66,23.73c3.87,1.88,7.9,3.33,12.09,4.35" style="fill:none;stroke:#999;stroke-width:3" />
<path d="M802.27,55.33c2.11,0.36,4.23,0.66,6.35,0.42c6.22-0.33,12.97-1.01,20.02-1.86c2.17-0.26,4.11-0.52,6.37-0.12" style="fill:none;stroke:#999;stroke-width:3" />
<path d="M789.55,69.04c3.2,0.71,6.92,0.51,9.83,0.17c11.12-1.33,22.12-2.58,38.87-3.49c3.33-0.18,6.64-0.26,9.96,0.27" style="fill:none;stroke:#999;stroke-width:3" />
<path d="M815.97,57.82c0.89,0.85,0.89,2.76,0.89,3.43c0,4.75,0.44,27.57,0.22,32.32" style="fill:none;stroke:#999;stroke-width:3" />
<path d="M795.75,76.25c5.17,4.88,7.7,10.16,8.75,13" style="fill:none;stroke:black;stroke-width:3" />
<circle cx="795.75" cy="76.25" r="5" stroke-width="0" fill="#FF2A00" opacity="0.7" />
<path d="M915.25,16.43c0,0.95-0.31,1.95-1.05,2.68c-5.83,5.77-11.58,9.52-20.46,13.76" style="fill:none;stroke:#999;stroke-width:3" />
<path d="M939.75,15.86c8.28,4.2,12.86,8.95,17,14.06" style="fill:none;stroke:#999;stroke-width:3" />
<path d="M939.04,24.93c0,1.07-0.51,2.25-1.82,3.48C925.88,39.12,910.5,49.12,885.75,58.47" style="fill:none;stroke:#999;stroke-width:3" />
<path d="M913.75,28.97c4.23,0,26.29,16.14,40.66,23.73c3.87,1.88,7.9,3.33,12.09,4.35" style="fill:none;stroke:#999;stroke-width:3" />
<path d="M911.27,55.33c2.11,0.36,4.23,0.66,6.35,0.42c6.22-0.33,12.97-1.01,20.02-1.86c2.17-0.26,4.11-0.52,6.37-0.12" style="fill:none;stroke:#999;stroke-width:3" />
<path d="M898.55,69.04c3.2,0.71,6.92,0.51,9.83,0.17c11.12-1.33,22.12-2.58,38.87-3.49c3.33-0.18,6.64-0.26,9.96,0.27" style="fill:none;stroke:#999;stroke-width:3" />
<path d="M924.97,57.82c0.89,0.85,0.89,2.76,0.89,3.43c0,4.75,0.44,27.57,0.22,32.32" style="fill:none;stroke:#999;stroke-width:3" />
<path d="M904.75,76.25c5.17,4.88,7.7,10.16,8.75,13" style="fill:none;stroke:#999;stroke-width:3" />
<path d="M949.34,73.86c0.16,1.02-0.56,2.66-1.14,3.44c-3.82,5.08-6.7,8.21-10.95,12.96" style="fill:none;stroke:black;stroke-width:3" />
<circle cx="949.34" cy="73.86" r="5" stroke-width="0" fill="#FF2A00" opacity="0.7" />
<path d="M1024.25,16.43c0,0.95-0.31,1.95-1.05,2.68c-5.83,5.77-11.58,9.52-20.46,13.76" style="fill:none;stroke:#999;stroke-width:3" />
<path d="M1048.75,15.86c8.28,4.2,12.86,8.95,17,14.06" style="fill:none;stroke:#999;stroke-width:3" />
<path d="M1048.04,24.93c0,1.07-0.51,2.25-1.82,3.48C1034.88,39.12,1019.5,49.12,994.75,58.47" style="fill:none;stroke:#999;stroke-width:3" />
<path d="M1022.75,28.97c4.23,0,26.29,16.14,40.66,23.73c3.87,1.88,7.9,3.33,12.09,4.35" style="fill:none;stroke:#999;stroke-width:3" />
<path d="M1020.27,55.33c2.11,0.36,4.23,0.66,6.35,0.42c6.22-0.33,12.97-1.01,20.02-1.86c2.17-0.26,4.11-0.52,6.37-0.12" style="fill:none;stroke:#999;stroke-width:3" />
<path d="M1007.55,69.04c3.2,0.71,6.92,0.51,9.83,0.17c11.12-1.33,22.12-2.58,38.87-3.49c3.33-0.18,6.64-0.26,9.96,0.27" style="fill:none;stroke:#999;stroke-width:3" />
<path d="M1033.97,57.82c0.89,0.85,0.89,2.76,0.89,3.43c0,4.75,0.44,27.57,0.22,32.32" style="fill:none;stroke:#999;stroke-width:3" />
<path d="M1013.75,76.25c5.17,4.88,7.7,10.16,8.75,13" style="fill:none;stroke:#999;stroke-width:3" />
<path d="M1058.3400000000001,73.86c0.16,1.02-0.56,2.66-1.14,3.44c-3.82,5.08-6.7,8.21-10.95,12.96" style="fill:none;stroke:#999;stroke-width:3" />
<path d="M1004.5,94.86c4.07,1.57,9.07,0.7,13.12,0.35c13.08-1.12,25.75-1.96,44.5-2.3c3.4-0.18,6.77,0.04,10.12,0.68" style="fill:none;stroke:black;stroke-width:3" />
<circle cx="1004.5" cy="94.86" r="5" stroke-width="0" fill="#FF2A00" opacity="0.7" />
</svg>