<svg width="1853px" height="109px" viewBox="0 0 1853px 109px" xmlns="http://www.w3.org/2000/svg" xmlns:xlink="http://www.w3.org/1999/xlink" xml:space="preserve" version="1.1"  baseProfile="full">
<line x1="1" y1="1" x2="1852" y2="1" style="stroke:#ddd;stroke-width:2" />
<line x1="1" y1="1" x2="1" y2="108" style="stroke:#ddd;stroke-width:2" />
<line x1="1" y1="108" x2="1852" y2="108" style="stroke:#ddd;stroke-width:2" />
<line x1="1852" y1="1" x2="1852" y2="108" style="stroke:#ddd;stroke-width:2" />
<line x1="109" y1="1" x2="109" y2="108" style="stroke:#ddd;stroke-width:2" />
<line x1="218" y1="1" x2="218" y2="108" style="stroke:#ddd;stroke-width:2" />
<line x1="327" y1="1" x2="327" y2="108" style="stroke:#ddd;stroke-width:2" />
<line x1="436" y1="1" x2="436" y2="108" style="stroke:#ddd;stroke-width:2" />
<line x1="545" y1="1" x2="545" y2="108" style="stroke:#ddd;stroke-width:2" />
<line x1="654" y1="1" x2="654" y2="108" style="stroke:#ddd;stroke-width:2" />
<line x1="763" y1="1" x2="763" y2="108" style="stroke:#ddd;stroke-width:2" />
<line x1="872" y1="1" x2="872" y2="108" style="stroke:#ddd;stroke-width:2" />
<line x1="981" y1="1" x2="981" y2="108" style="stroke:#ddd;stroke-width:2" />
<line x1="1090" y1="1" x2="1090" y2="108" style="stroke:#ddd;stroke-width:2" />
<line x1="1199" y1="1" x2="1199" y2="108" style="stroke:#ddd;stroke-width:2" />
<line x1="1308" y1="1" x2="1308" y2="108" style="stroke:#ddd;stroke-width:2" />
<line x1="1417" y1="1" x2="1417" y2="108" style="stroke:#ddd;stroke-width:2" />
<line x1="1526" y1="1" x2="1526" y2="108" style="stroke:#ddd;stroke-width:2" />
<line x1="1635" y1="1" x2="1635" y2="108" style="stroke:#ddd;stroke-width:2" />
<line x1="1744" y1="1" x2="1744" y2="108" style="stroke:#ddd;stroke-width:2" />
<line x1="1" y1="54" x2="1852" y2="54" style="stroke:#ddd;stroke-width:2;stroke-dasharray:3 3" />
<line x1="55" y1="1" x2="55" y2="108" style="stroke:#ddd;stroke-width:2;stroke-dasharray:3 3" />
<line x1="164" y1="1" x2="164" y2="108" style="stroke:#ddd;stroke-width:2;stroke-dasharray:3 3" />
<line x1="273" y1="1" x2="273" y2="108" style="stroke:#ddd;stroke-width:2;stroke-dasharray:3 3" />
<line x1="382" y1="1" x2="382" y2="108" style="stroke:#ddd;stroke-width:2;stroke-dasharray:3 3" />
<line x1="491" y1="1" x2="491" y2="108" style="stroke:#ddd;stroke-width:2;stroke-dasharray:3 3" />
<line x1="600" y1="1" x2="600" y2="108" style="stroke:#ddd;stroke-width:2;stroke-dasharray:3 3" />
<line x1="709" y1="1" x2="709" y2="108" style="stroke:#ddd;stroke-width:2;stroke-dasharray:3 3" />
<line x1="818" y1="1" x2="818" y2="108" style="stroke:#ddd;stroke-width:2;stroke-dasharray:3 3" />
<line x1="927" y1="1" x2="927" y2="108" style="stroke:#ddd;stroke-width:2;stroke-dasharray:3 3" />
<line x1="1036" y1="1" x2="1036" y2="108" style="stroke:#ddd;stroke-width:2;stroke-dasharray:3 3" />
<line x1="1145" y1="1" x2="1145" y2="108" style="stroke:#ddd;stroke-width:2;stroke-dasharray:3 3" />
<line x1="1254" y1="1" x2="1254" y2="108" style="stroke:#ddd;stroke-width:2;stroke-dasharray:3 3" />
<line x1="1363" y1="1" x2="1363" y2="108" style="stroke:#ddd;stroke-width:2;stroke-dasharray:3 3" />
<line x1="1472" y1="1" x2="1472" y2="108" style="stroke:#ddd;stroke-width:2;stroke-dasharray:3 3" />
<line x1="1581" y1="1" x2="1581" y2="108" style="stroke:#ddd;stroke-width:2;stroke-dasharray:3 3" />
<line x1="1690" y1="1" x2="1690" y2="108" style="stroke:#ddd;stroke-width:2;stroke-dasharray:3 3" />
<line x1="1799" y1="1" x2="1799" y2="108" style="stroke:#ddd;stroke-width:2;stroke-dasharray:3 3" />
<path d="M28.5,15.24c0,1.26-0.1,2.26-0.6,3.56C24.5,26.62,16.62,40,8.72,47.63" style="fill:none;stroke:black;stroke-width:3" />
<circle cx="28.5" cy="15.24" r="5" stroke-width="0" fill="#FF2A00" opacity="0.7" />
<path d="M137.5,15.24c0,1.26-0.1,2.26-0.6,3.56C133.5,26.62,125.62,40,117.72,47.63" style="fill:none;stroke:#999;stroke-width:3" />
<path d="M139.89,21.21C144.0,23,148.75,27.75,150.75,32.25" style="fill:none;stroke:black;stroke-width:3" />
<circle cx="139.89" cy="21.21" r="5" stroke-width="0" fill="#FF2A00" opacity="0.7" />
<path d="M246.5,15.24c0,1.26-0.1,2.26-0.6,3.56C242.5,26.62,234.62,40,226.72,47.63" style="fill:none;stroke:#999;stroke-width:3" />
<path d="M248.89,21.21C253.0,23,257.75,27.75,259.75,32.25" style="fill:none;stroke:#999;stroke-width:3" />
<path d="M237.0,42.5c1.55,0.36,3.1,0.4,4.66,0.13c3.28-0.33,6.71-1.17,10.35-1.96c1.22-0.39,2.46-0.53,3.74-0.42" style="fill:none;stroke:black;stroke-width:3" />
<circle cx="237.0" cy="42.5" r="5" stroke-width="0" fill="#FF2A00" opacity="0.7" />
<path d="M355.5,15.24c0,1.26-0.1,2.26-0.6,3.56C351.5,26.62,343.62,40,335.72,47.63" style="fill:none;stroke:#999;stroke-width:3" />
<path d="M357.89,21.21C362.0,23,366.75,27.75,368.75,32.25" style="fill:none;stroke:#999;stroke-width:3" />
<path d="M346.0,42.5c1.55,0.36,3.1,0.4,4.66,0.13c3.28-0.33,6.71-1.17,10.35-1.96c1.22-0.39,2.46-0.53,3.74-0.42" style="fill:none;stroke:#999;stroke-width:3" />
<path d="M339.09,56.31c2.29,0.51,4.6,0.59,6.93,0.23c4.82-0.67,10.83-1.99,16.11-2.77c1.7-0.29,3.41-0.39,5.15-0.29" style="fill:none;stroke:black;stroke-width:3" />
<circle cx="339.09" cy="56.31" r="5" stroke-width="0" fill="#FF2A00" opacity="0.7" />
<path d="M464.5,15.24c0,1.26-0.1,2.26-0.6,3.56C460.5,26.62,452.62,40,444.72,47.63" style="fill:none;stroke:#999;stroke-width:3" />
<path d="M466.89,21.21C471.0,23,475.75,27.75,477.75,32.25" style="fill:none;stroke:#999;stroke-width:3" />
<path d="M455.0,42.5c1.55,0.36,3.1,0.4,4.66,0.13c3.28-0.33,6.71-1.17,10.35-1.96c1.22-0.39,2.46-0.53,3.74-0.42" style="fill:none;stroke:#999;stroke-width:3" />
<path d="M448.09,56.31c2.29,0.51,4.6,0.59,6.93,0.23c4.82-0.67,10.83-1.99,16.11-2.77c1.7-0.29,3.41-0.39,5.15-0.29" style="fill:none;stroke:#999;stroke-width:3" />
<path d="M462.7,44.94c0.87,0.87,0.99,2.06,0.99,3.14c0,4.4,0.06,28.42,0.06,35.23" style="fill:none;stroke:black;stroke-width:3" />
<circle cx="462.7" cy="44.94" r="5" stroke-width="0" fill="#FF2A00" opacity="0.7" />
<path d="M573.5,15.24c0,1.26-0.1,2.26-0.6,3.56C569.5,26.62,561.62,40,553.72,47.63" style="fill:none;stroke:#999;stroke-width:3" />
<path d="M575.89,21.21C580.0,23,584.75,27.75,586.75,32.25" style="fill:none;stroke:#999;stroke-width:3" />
<path d="M564.0,42.5c1.55,0.36,3.1,0.4,4.66,0.13c3.28-0.33,6.71-1.17,10.35-1.96c1.22-0.39,2.46-0.53,3.74-0.42" style="fill:none;stroke:#999;stroke-width:3" />
<path d="M557.0899999999999,56.31c2.29,0.51,4.6,0.59,6.93,0.23c4.82-0.67,10.83-1.99,16.11-2.77c1.7-0.29,3.41-0.39,5.15-0.29" style="fill:none;stroke:#999;stroke-width:3" />
<path d="M571.7,44.94c0.87,0.87,0.99,2.06,0.99,3.14c0,4.4,0.06,28.42,0.06,35.23" style="fill:none;stroke:#999;stroke-width:3" />
<path d="M558.39,68.01c3.49,3.82,5.19,8.21,5.9,10.44" style="fill:none;stroke:black;stroke-width:3" />
<circle cx="558.39" cy="68.01" r="5" stroke-width="0" fill="#FF2A00" opacity="0.7" />
<path d="M682.5,15.24c0,1.26-0.1,2.26-0.6,3.56C678.5,26.62,670.62,40,662.72,47.63" style="fill:none;stroke:#999;stroke-width:3" />
<path d="M684.89,21.21C689.0,23,693.75,27.75,695.75,32.25" style="fill:none;stroke:#999;stroke-width:3" />
<path d="M673.0,42.5c1.55,0.36,3.1,0.4,4.66,0.13c3.28-0.33,6.71-1.17,10.35-1.96c1.22-0.39,2.46-0.53,3.74-0.42" style="fill:none;stroke:#999;stroke-width:3" />
<path d="M666.0899999999999,56.31c2.29,0.51,4.6,0.59,6.93,0.23c4.82-0.67,10.83-1.99,16.11-2.77c1.7-0.29,3.41-0.39,5.15-0.29" style="fill:none;stroke:#999;stroke-width:3" />
<path d="M680.7,44.94c0.87,0.87,0.99,2.06,0.99,3.14c0,4.4,0.06,28.42,0.06,35.23" style="fill:none;stroke:#999;stroke-width:3" />
<path d="M667.39,68.01c3.49,3.82,5.19,8.21,5.9,10.44" style="fill:none;stroke:#999;stroke-width:3" />
<path d="M693.01,63.05c0.24,1.33,0.08,2.03-0.21,2.66c-1.17,2.54-2.02,4.44-4.88,9.57" style="fill:none;stroke:black;stroke-width:3" />
<circle cx="693.01" cy="63.05" r="5" stroke-width="0" fill="#FF2A00" opacity="0.7" />
<path d="M791.5,15.24c0,1.26-0.1,2.26-0.6,3.56C787.5,26.62,779.62,40,771.72,47.63" style="fill:none;stroke:#999;stroke-width:3" />
<path d="M793.89,21.21C798.0,23,802.75,27.75,804.75,32.25" style="fill:none;stroke:#999;stroke-width:3" />
<path d="M782.0,42.5c1.55,0.36,3.1,0.4,4.66,0.13c3.28-0.33,6.71-1.17,10.35-1.96c1.22-0.39,2.46-0.53,3.74-0.42" style="fill:none;stroke:#999;stroke-width:3" />
<path d="M775.0899999999999,56.31c2.29,0.51,4.6,0.59,6.93,0.23c4.82-0.67,10.83-1.99,16.11-2.77c1.7-0.29,3.41-0.39,5.15-0.29" style="fill:none;stroke:#999;stroke-width:3" />
<path d="M789.7,44.94c0.87,0.87,0.99,2.06,0.99,3.14c0,4.4,0.06,28.42,0.06,35.23" style="fill:none;stroke:#999;stroke-width:3" />
<path d="M776.39,68.01c3.49,3.82,5.19,8.21,5.9,10.44" style="fill:none;stroke:#999;stroke-width:3" />
<path d="M802.01,63.05c0.24,1.33,0.08,2.03-0.21,2.66c-1.17,2.54-2.02,4.44-4.88,9.57" style="fill:none;stroke:#999;stroke-width:3" />
<path d="M776.0,88.19c1.12,1.43,2.25,1.68,4.29,0.82c7.09-3.01,10.15-4.39,22.46-9.76" style="fill:none;stroke:black;stroke-width:3" />
<circle cx="776.0" cy="88.19" r="5" stroke-width="0" fill="#FF2A00" opacity="0.7" />
<path d="M900.5,15.24c0,1.26-0.1,2.26-0.6,3.56C896.5,26.62,888.62,40,880.72,47.63" style="fill:none;stroke:#999;stroke-width:3" />
<path d="M902.89,21.21C907.0,23,911.75,27.75,913.75,32.25" style="fill:none;stroke:#999;stroke-width:3" />
<path d="M891.0,42.5c1.55,0.36,3.1,0.4,4.66,0.13c3.28-0.33,6.71-1.17,10.35-1.96c1.22-0.39,2.46-0.53,3.74-0.42" style="fill:none;stroke:#999;stroke-width:3" />
<path d="M884.0899999999999,56.31c2.29,0.51,4.6,0.59,6.93,0.23c4.82-0.67,10.83-1.99,16.11-2.77c1.7-0.29,3.41-0.39,5.15-0.29" style="fill:none;stroke:#999;stroke-width:3" />
<path d="M898.7,44.94c0.87,0.87,0.99,2.06,0.99,3.14c0,4.4,0.06,28.42,0.06,35.23" style="fill:none;stroke:#999;stroke-width:3" />
<path d="M885.39,68.01c3.49,3.82,5.19,8.21,5.9,10.44" style="fill:none;stroke:#999;stroke-width:3" />
<path d="M911.01,63.05c0.24,1.33,0.08,2.03-0.21,2.66c-1.17,2.54-2.02,4.44-4.88,9.57" style="fill:none;stroke:#999;stroke-width:3" />
<path d="M885.0,88.19c1.12,1.43,2.25,1.68,4.29,0.82c7.09-3.01,10.15-4.39,22.46-9.76" style="fill:none;stroke:#999;stroke-width:3" />
<path d="M934.17,23.95c2.15,0.35,4.3,0.34,6.44-0.04c7.01-0.91,14.14-2.12,18.97-2.46c1.84-0.13,3.1,0.96,2.83,2.95c-0.43,3.15-1.67,11.86-2.51,18.42" style="fill:none;stroke:black;stroke-width:3" />
<circle cx="934.17" cy="23.95" r="5" stroke-width="0" fill="#FF2A00" opacity="0.7" />
<path d="M1009.5,15.24c0,1.26-0.1,2.26-0.6,3.56C1005.5,26.62,997.62,40,989.72,47.63" style="fill:none;stroke:#999;stroke-width:3" />
<path d="M1011.89,21.21C1016.0,23,1020.75,27.75,1022.75,32.25" style="fill:none;stroke:#999;stroke-width:3" />
<path d="M1000.0,42.5c1.55,0.36,3.1,0.4,4.66,0.13c3.28-0.33,6.71-1.17,10.35-1.96c1.22-0.39,2.46-0.53,3.74-0.42" style="fill:none;stroke:#999;stroke-width:3" />
<path d="M993.0899999999999,56.31c2.29,0.51,4.6,0.59,6.93,0.23c4.82-0.67,10.83-1.99,16.11-2.77c1.7-0.29,3.41-0.39,5.15-0.29" style="fill:none;stroke:#999;stroke-width:3" />
<path d="M1007.7,44.94c0.87,0.87,0.99,2.06,0.99,3.14c0,4.4,0.06,28.42,0.06,35.23" style="fill:none;stroke:#999;stroke-width:3" />
<path d="M994.39,68.01c3.49,3.82,5.19,8.21,5.9,10.44" style="fill:none;stroke:#999;stroke-width:3" />
<path d="M1020.01,63.05c0.24,1.33,0.08,2.03-0.21,2.66c-1.17,2.54-2.02,4.44-4.88,9.57" style="fill:none;stroke:#999;stroke-width:3" />
<path d="M994.0,88.19c1.12,1.43,2.25,1.68,4.29,0.82c7.09-3.01,10.15-4.39,22.46-9.76" style="fill:none;stroke:#999;stroke-width:3" />
<path d="M1043.17,23.95c2.15,0.35,4.3,0.34,6.44-0.04c7.01-0.91,14.14-2.12,18.97-2.46c1.84-0.13,3.1,0.96,2.83,2.95c-0.43,3.15-1.67,11.86-2.51,18.42" style="fill:none;stroke:#999;stroke-width:3" />
<path d="M1040.5,35.73c2.56,0.41,5.06,0.09,7.63-0.24c7.87-0.99,17.4-2.48,25.38-3.19c2.25-0.35,4.5-0.32,6.74,0.1" style="fill:none;stroke:black;stroke-width:3" />
<circle cx="1040.5" cy="35.73" r="5" stroke-width="0" fill="#FF2A00" opacity="0.7" />
<path d="M1118.5,15.24c0,1.26-0.1,2.26-0.6,3.56C1114.5,26.62,1106.62,40,1098.72,47.63" style="fill:none;stroke:#999;stroke-width:3" />
<path d="M1120.8899999999999,21.21C1125.0,23,1129.75,27.75,1131.75,32.25" style="fill:none;stroke:#999;stroke-width:3" />
<path d="M1109.0,42.5c1.55,0.36,3.1,0.4,4.66,0.13c3.28-0.33,6.71-1.17,10.35-1.96c1.22-0.39,2.46-0.53,3.74-0.42" style="fill:none;stroke:#999;stroke-width:3" />
<path d="M1102.09,56.31c2.29,0.51,4.6,0.59,6.93,0.23c4.82-0.67,10.83-1.99,16.11-2.77c1.7-0.29,3.41-0.39,5.15-0.29" style="fill:none;stroke:#999;stroke-width:3" />
<path d="M1116.7,44.94c0.87,0.87,0.99,2.06,0.99,3.14c0,4.4,0.06,28.42,0.06,35.23" style="fill:none;stroke:#999;stroke-width:3" />
<path d="M1103.3899999999999,68.01c3.49,3.82,5.19,8.21,5.9,10.44" style="fill:none;stroke:#999;stroke-width:3" />
<path d="M1129.01,63.05c0.24,1.33,0.08,2.03-0.21,2.66c-1.17,2.54-2.02,4.44-4.88,9.57" style="fill:none;stroke:#999;stroke-width:3" />
<path d="M1103.0,88.19c1.12,1.43,2.25,1.68,4.29,0.82c7.09-3.01,10.15-4.39,22.46-9.76" style="fill:none;stroke:#999;stroke-width:3" />
<path d="M1152.17,23.95c2.15,0.35,4.3,0.34,6.44-0.04c7.01-0.91,14.14-2.12,18.97-2.46c1.84-0.13,3.1,0.96,2.83,2.95c-0.43,3.15-1.67,11.86-2.51,18.42" style="fill:none;stroke:#999;stroke-width:3" />
<path d="M1149.5,35.73c2.56,0.41,5.06,0.09,7.63-0.24c7.87-0.99,17.4-2.48,25.38-3.19c2.25-0.35,4.5-0.32,6.74,0.1" style="fill:none;stroke:#999;stroke-width:3" />
<path d="M1153.34,46.61c2.15,0.33,4.28,0.25,6.4-0.24c4.28-0.55,9.99-1.33,15.01-2.02c1.85-0.21,3.71-0.2,5.56,0.05" style="fill:none;stroke:black;stroke-width:3" />
<circle cx="1153.34" cy="46.61" r="5" stroke-width="0" fill="#FF2A00" opacity="0.7" />
<path d="M1227.5,15.24c0,1.26-0.1,2.26-0.6,3.56C1223.5,26.62,1215.62,40,1207.72,47.63" style="fill:none;stroke:#999;stroke-width:3" />
<path d="M1229.8899999999999,21.21C1234.0,23,1238.75,27.75,1240.75,32.25" style="fill:none;stroke:#999;stroke-width:3" />
<path d="M1218.0,42.5c1.55,0.36,3.1,0.4,4.66,0.13c3.28-0.33,6.71-1.17,10.35-1.96c1.22-0.39,2.46-0.53,3.74-0.42" style="fill:none;stroke:#999;stroke-width:3" />
<path d="M1211.09,56.31c2.29,0.51,4.6,0.59,6.93,0.23c4.82-0.67,10.83-1.99,16.11-2.77c1.7-0.29,3.41-0.39,5.15-0.29" style="fill:none;stroke:#999;stroke-width:3" />
<path d="M1225.7,44.94c0.87,0.87,0.99,2.06,0.99,3.14c0,4.4,0.06,28.42,0.06,35.23" style="fill:none;stroke:#999;stroke-width:3" />
<path d="M1212.3899999999999,68.01c3.49,3.82,5.19,8.21,5.9,10.44" style="fill:none;stroke:#999;stroke-width:3" />
<path d="M1238.01,63.05c0.24,1.33,0.08,2.03-0.21,2.66c-1.17,2.54-2.02,4.44-4.88,9.57" style="fill:none;stroke:#999;stroke-width:3" />
<path d="M1212.0,88.19c1.12,1.43,2.25,1.68,4.29,0.82c7.09-3.01,10.15-4.39,22.46-9.76" style="fill:none;stroke:#999;stroke-width:3" />
<path d="M1261.17,23.95c2.15,0.35,4.3,0.34,6.44-0.04c7.01-0.91,14.14-2.12,18.97-2.46c1.84-0.13,3.1,0.96,2.83,2.95c-0.43,3.15-1.67,11.86-2.51,18.42" style="fill:none;stroke:#999;stroke-width:3" />
<path d="M1258.5,35.73c2.56,0.41,5.06,0.09,7.63-0.24c7.87-0.99,17.4-2.48,25.38-3.19c2.25-0.35,4.5-0.32,6.74,0.1" style="fill:none;stroke:#999;stroke-width:3" />
<path d="M1262.34,46.61c2.15,0.33,4.28,0.25,6.4-0.24c4.28-0.55,9.99-1.33,15.01-2.02c1.85-0.21,3.71-0.2,5.56,0.05" style="fill:none;stroke:#999;stroke-width:3" />
<path d="M1263.33,56.67c2.1,0.42,4.2,0.42,6.32,0c5.52-0.81,11.25-1.51,15.97-2.04c2.06-0.3,4.11-0.26,6.14,0.13" style="fill:none;stroke:black;stroke-width:3" />
<circle cx="1263.33" cy="56.67" r="5" stroke-width="0" fill="#FF2A00" opacity="0.7" />
<path d="M1336.5,15.24c0,1.26-0.1,2.26-0.6,3.56C1332.5,26.62,1324.62,40,1316.72,47.63" style="fill:none;stroke:#999;stroke-width:3" />
<path d="M1338.8899999999999,21.21C1343.0,23,1347.75,27.75,1349.75,32.25" style="fill:none;stroke:#999;stroke-width:3" />
<path d="M1327.0,42.5c1.55,0.36,3.1,0.4,4.66,0.13c3.28-0.33,6.71-1.17,10.35-1.96c1.22-0.39,2.46-0.53,3.74-0.42" style="fill:none;stroke:#999;stroke-width:3" />
<path d="M1320.09,56.31c2.29,0.51,4.6,0.59,6.93,0.23c4.82-0.67,10.83-1.99,16.11-2.77c1.7-0.29,3.41-0.39,5.15-0.29" style="fill:none;stroke:#999;stroke-width:3" />
<path d="M1334.7,44.94c0.87,0.87,0.99,2.06,0.99,3.14c0,4.4,0.06,28.42,0.06,35.23" style="fill:none;stroke:#999;stroke-width:3" />
<path d="M1321.3899999999999,68.01c3.49,3.82,5.19,8.21,5.9,10.44" style="fill:none;stroke:#999;stroke-width:3" />
<path d="M1347.01,63.05c0.24,1.33,0.08,2.03-0.21,2.66c-1.17,2.54-2.02,4.44-4.88,9.57" style="fill:none;stroke:#999;stroke-width:3" />
<path d="M1321.0,88.19c1.12,1.43,2.25,1.68,4.29,0.82c7.09-3.01,10.15-4.39,22.46-9.76" style="fill:none;stroke:#999;stroke-width:3" />
<path d="M1370.17,23.95c2.15,0.35,4.3,0.34,6.44-0.04c7.01-0.91,14.14-2.12,18.97-2.46c1.84-0.13,3.1,0.96,2.83,2.95c-0.43,3.15-1.67,11.86-2.51,18.42" style="fill:none;stroke:#999;stroke-width:3" />
<path d="M1367.5,35.73c2.56,0.41,5.06,0.09,7.63-0.24c7.87-0.99,17.4-2.48,25.38-3.19c2.25-0.35,4.5-0.32,6.74,0.1" style="fill:none;stroke:#999;stroke-width:3" />
<path d="M1371.34,46.61c2.15,0.33,4.28,0.25,6.4-0.24c4.28-0.55,9.99-1.33,15.01-2.02c1.85-0.21,3.71-0.2,5.56,0.05" style="fill:none;stroke:#999;stroke-width:3" />
<path d="M1372.33,56.67c2.1,0.42,4.2,0.42,6.32,0c5.52-0.81,11.25-1.51,15.97-2.04c2.06-0.3,4.11-0.26,6.14,0.13" style="fill:none;stroke:#999;stroke-width:3" />
<path d="M1369.81,68.59c2.22,0.51,4.45,0.57,6.69,0.16c7.63-1.1,15.23-1.95,21.5-2.39c2.23-0.37,4.45-0.3,6.65,0.2" style="fill:none;stroke:black;stroke-width:3" />
<circle cx="1369.81" cy="68.59" r="5" stroke-width="0" fill="#FF2A00" opacity="0.7" />
<path d="M1445.5,15.24c0,1.26-0.1,2.26-0.6,3.56C1441.5,26.62,1433.62,40,1425.72,47.63" style="fill:none;stroke:#999;stroke-width:3" />
<path d="M1447.8899999999999,21.21C1452.0,23,1456.75,27.75,1458.75,32.25" style="fill:none;stroke:#999;stroke-width:3" />
<path d="M1436.0,42.5c1.55,0.36,3.1,0.4,4.66,0.13c3.28-0.33,6.71-1.17,10.35-1.96c1.22-0.39,2.46-0.53,3.74-0.42" style="fill:none;stroke:#999;stroke-width:3" />
<path d="M1429.09,56.31c2.29,0.51,4.6,0.59,6.93,0.23c4.82-0.67,10.83-1.99,16.11-2.77c1.7-0.29,3.41-0.39,5.15-0.29" style="fill:none;stroke:#999;stroke-width:3" />
<path d="M1443.7,44.94c0.87,0.87,0.99,2.06,0.99,3.14c0,4.4,0.06,28.42,0.06,35.23" style="fill:none;stroke:#999;stroke-width:3" />
<path d="M1430.3899999999999,68.01c3.49,3.82,5.19,8.21,5.9,10.44" style="fill:none;stroke:#999;stroke-width:3" />
<path d="M1456.01,63.05c0.24,1.33,0.08,2.03-0.21,2.66c-1.17,2.54-2.02,4.44-4.88,9.57" style="fill:none;stroke:#999;stroke-width:3" />
<path d="M1430.0,88.19c1.12,1.43,2.25,1.68,4.29,0.82c7.09-3.01,10.15-4.39,22.46-9.76" style="fill:none;stroke:#999;stroke-width:3" />
<path d="M1479.17,23.95c2.15,0.35,4.3,0.34,6.44-0.04c7.01-0.91,14.14-2.12,18.97-2.46c1.84-0.13,3.1,0.96,2.83,2.95c-0.43,3.15-1.67,11.86-2.51,18.42" style="fill:none;stroke:#999;stroke-width:3" />
<path d="M1476.5,35.73c2.56,0.41,5.06,0.09,7.63-0.24c7.87-0.99,17.4-2.48,25.38-3.19c2.25-0.35,4.5-0.32,6.74,0.1" style="fill:none;stroke:#999;stroke-width:3" />
<path d="M1480.34,46.61c2.15,0.33,4.28,0.25,6.4-0.24c4.28-0.55,9.99-1.33,15.01-2.02c1.85-0.21,3.71-0.2,5.56,0.05" style="fill:none;stroke:#999;stroke-width:3" />
<path d="M1481.33,56.67c2.1,0.42,4.2,0.42,6.32,0c5.52-0.81,11.25-1.51,15.97-2.04c2.06-0.3,4.11-0.26,6.14,0.13" style="fill:none;stroke:#999;stroke-width:3" />
<path d="M1478.81,68.59c2.22,0.51,4.45,0.57,6.69,0.16c7.63-1.1,15.23-1.95,21.5-2.39c2.23-0.37,4.45-0.3,6.65,0.2" style="fill:none;stroke:#999;stroke-width:3" />
<path d="M1491.71,12.5c0.96,0.96,1.46,2.25,1.46,3.56c0,0.63-0.03,36.64-0.04,54.82c0,5.04,0,8.71,0,9.88" style="fill:none;stroke:black;stroke-width:3" />
<circle cx="1491.71" cy="12.5" r="5" stroke-width="0" fill="#FF2A00" opacity="0.7" />
<path d="M1554.5,15.24c0,1.26-0.1,2.26-0.6,3.56C1550.5,26.62,1542.62,40,1534.72,47.63" style="fill:none;stroke:#999;stroke-width:3" />
<path d="M1556.8899999999999,21.21C1561.0,23,1565.75,27.75,1567.75,32.25" style="fill:none;stroke:#999;stroke-width:3" />
<path d="M1545.0,42.5c1.55,0.36,3.1,0.4,4.66,0.13c3.28-0.33,6.71-1.17,10.35-1.96c1.22-0.39,2.46-0.53,3.74-0.42" style="fill:none;stroke:#999;stroke-width:3" />
<path d="M1538.09,56.31c2.29,0.51,4.6,0.59,6.93,0.23c4.82-0.67,10.83-1.99,16.11-2.77c1.7-0.29,3.41-0.39,5.15-0.29" style="fill:none;stroke:#999;stroke-width:3" />
<path d="M1552.7,44.94c0.87,0.87,0.99,2.06,0.99,3.14c0,4.4,0.06,28.42,0.06,35.23" style="fill:none;stroke:#999;stroke-width:3" />
<path d="M1539.3899999999999,68.01c3.49,3.82,5.19,8.21,5.9,10.44" style="fill:none;stroke:#999;stroke-width:3" />
<path d="M1565.01,63.05c0.24,1.33,0.08,2.03-0.21,2.66c-1.17,2.54-2.02,4.44-4.88,9.57" style="fill:none;stroke:#999;stroke-width:3" />
<path d="M1539.0,88.19c1.12,1.43,2.25,1.68,4.29,0.82c7.09-3.01,10.15-4.39,22.46-9.76" style="fill:none;stroke:#999;stroke-width:3" />
<path d="M1588.17,23.95c2.15,0.35,4.3,0.34,6.44-0.04c7.01-0.91,14.14-2.12,18.97-2.46c1.84-0.13,3.1,0.96,2.83,2.95c-0.43,3.15-1.67,11.86-2.51,18.42" style="fill:none;stroke:#999;stroke-width:3" />
<path d="M1585.5,35.73c2.56,0.41,5.06,0.09,7.63-0.24c7.87-0.99,17.4-2.48,25.38-3.19c2.25-0.35,4.5-0.32,6.74,0.1" style="fill:none;stroke:#999;stroke-width:3" />
<path d="M1589.34,46.61c2.15,0.33,4.28,0.25,6.4-0.24c4.28-0.55,9.99-1.33,15.01-2.02c1.85-0.21,3.71-0.2,5.56,0.05" style="fill:none;stroke:#999;stroke-width:3" />
<path d="M1590.33,56.67c2.1,0.42,4.2,0.42,6.32,0c5.52-0.81,11.25-1.51,15.97-2.04c2.06-0.3,4.11-0.26,6.14,0.13" style="fill:none;stroke:#999;stroke-width:3" />
<path d="M1587.81,68.59c2.22,0.51,4.45,0.57,6.69,0.16c7.63-1.1,15.23-1.95,21.5-2.39c2.23-0.37,4.45-0.3,6.65,0.2" style="fill:none;stroke:#999;stroke-width:3" />
<path d="M1600.71,12.5c0.96,0.96,1.46,2.25,1.46,3.56c0,0.63-0.03,36.64-0.04,54.82c0,5.04,0,8.71,0,9.88" style="fill:none;stroke:#999;stroke-width:3" />
<path d="M1569.05,41.44c1.68,0.54,3.21,0.41,4.58-0.41c2.24-1.04,3.66-1.56,5.44-2.54c1.8-0.99,2.6-0.1,1.88,1.43c-1.89,4.04-8.42,15.23-10.62,19.51" style="fill:none;stroke:black;stroke-width:3" />
<circle cx="1569.05" cy="41.44" r="5" stroke-width="0" fill="#FF2A00" opacity="0.7" />
<path d="M1663.5,15.24c0,1.26-0.1,2.26-0.6,3.56C1659.5,26.62,1651.62,40,1643.72,47.63" style="fill:none;stroke:#999;stroke-width:3" />
<path d="M1665.8899999999999,21.21C1670.0,23,1674.75,27.75,1676.75,32.25" style="fill:none;stroke:#999;stroke-width:3" />
<path d="M1654.0,42.5c1.55,0.36,3.1,0.4,4.66,0.13c3.28-0.33,6.71-1.17,10.35-1.96c1.22-0.39,2.46-0.53,3.74-0.42" style="fill:none;stroke:#999;stroke-width:3" />
<path d="M1647.09,56.31c2.29,0.51,4.6,0.59,6.93,0.23c4.82-0.67,10.83-1.99,16.11-2.77c1.7-0.29,3.41-0.39,5.15-0.29" style="fill:none;stroke:#999;stroke-width:3" />
<path d="M1661.7,44.94c0.87,0.87,0.99,2.06,0.99,3.14c0,4.4,0.06,28.42,0.06,35.23" style="fill:none;stroke:#999;stroke-width:3" />
<path d="M1648.3899999999999,68.01c3.49,3.82,5.19,8.21,5.9,10.44" style="fill:none;stroke:#999;stroke-width:3" />
<path d="M1674.01,63.05c0.24,1.33,0.08,2.03-0.21,2.66c-1.17,2.54-2.02,4.44-4.88,9.57" style="fill:none;stroke:#999;stroke-width:3" />
<path d="M1648.0,88.19c1.12,1.43,2.25,1.68,4.29,0.82c7.09-3.01,10.15-4.39,22.46-9.76" style="fill:none;stroke:#999;stroke-width:3" />
<path d="M1697.17,23.95c2.15,0.35,4.3,0.34,6.44-0.04c7.01-0.91,14.14-2.12,18.97-2.46c1.84-0.13,3.1,0.96,2.83,2.95c-0.43,3.15-1.67,11.86-2.51,18.42" style="fill:none;stroke:#999;stroke-width:3" />
<path d="M1694.5,35.73c2.56,0.41,5.06,0.09,7.63-0.24c7.87-0.99,17.4-2.48,25.38-3.19c2.25-0.35,4.5-0.32,6.74,0.1" style="fill:none;stroke:#999;stroke-width:3" />
<path d="M1698.34,46.61c2.15,0.33,4.28,0.25,6.4-0.24c4.28-0.55,9.99-1.33,15.01-2.02c1.85-0.21,3.71-0.2,5.56,0.05" style="fill:none;stroke:#999;stroke-width:3" />
<path d="M1699.33,56.67c2.1,0.42,4.2,0.42,6.32,0c5.52-0.81,11.25-1.51,15.97-2.04c2.06-0.3,4.11-0.26,6.14,0.13" style="fill:none;stroke:#999;stroke-width:3" />
<path d="M1696.81,68.59c2.22,0.51,4.45,0.57,6.69,0.16c7.63-1.1,15.23-1.95,21.5-2.39c2.23-0.37,4.45-0.3,6.65,0.2" style="fill:none;stroke:#999;stroke-width:3" />
<path d="M1709.71,12.5c0.96,0.96,1.46,2.25,1.46,3.56c0,0.63-0.03,36.64-0.04,54.82c0,5.04,0,8.71,0,9.88" style="fill:none;stroke:#999;stroke-width:3" />
<path d="M1678.05,41.44c1.68,0.54,3.21,0.41,4.58-0.41c2.24-1.04,3.66-1.56,5.44-2.54c1.8-0.99,2.6-0.1,1.88,1.43c-1.89,4.04-8.42,15.23-10.62,19.51" style="fill:none;stroke:#999;stroke-width:3" />
<path d="M1679.66,60.08c3.46-1.45,6.96-2.45,9.74-3.5c1.79-0.68,3.32,0.11,2.88,2.39C1689.75,72,1685.5,83.38,1673.25,94.08" style="fill:none;stroke:black;stroke-width:3" />
<circle cx="1679.66" cy="60.08" r="5" stroke-width="0" fill="#FF2A00" opacity="0.7" />
<path d="M1772.5,15.24c0,1.26-0.1,2.26-0.6,3.56C1768.5,26.62,1760.62,40,1752.72,47.63" style="fill:none;stroke:#999;stroke-width:3" />
<path d="M1774.8899999999999,21.21C1779.0,23,1783.75,27.75,1785.75,32.25" style="fill:none;stroke:#999;stroke-width:3" />
<path d="M1763.0,42.5c1.55,0.36,3.1,0.4,4.66,0.13c3.28-0.33,6.71-1.17,10.35-1.96c1.22-0.39,2.46-0.53,3.74-0.42" style="fill:none;stroke:#999;stroke-width:3" />
<path d="M1756.09,56.31c2.29,0.51,4.6,0.59,6.93,0.23c4.82-0.67,10.83-1.99,16.11-2.77c1.7-0.29,3.41-0.39,5.15-0.29" style="fill:none;stroke:#999;stroke-width:3" />
<path d="M1770.7,44.94c0.87,0.87,0.99,2.06,0.99,3.14c0,4.4,0.06,28.42,0.06,35.23" style="fill:none;stroke:#999;stroke-width:3" />
<path d="M1757.3899999999999,68.01c3.49,3.82,5.19,8.21,5.9,10.44" style="fill:none;stroke:#999;stroke-width:3" />
<path d="M1783.01,63.05c0.24,1.33,0.08,2.03-0.21,2.66c-1.17,2.54-2.02,4.44-4.88,9.57" style="fill:none;stroke:#999;stroke-width:3" />
<path d="M1757.0,88.19c1.12,1.43,2.25,1.68,4.29,0.82c7.09-3.01,10.15-4.39,22.46-9.76" style="fill:none;stroke:#999;stroke-width:3" />
<path d="M1806.17,23.95c2.15,0.35,4.3,0.34,6.44-0.04c7.01-0.91,14.14-2.12,18.97-2.46c1.84-0.13,3.1,0.96,2.83,2.95c-0.43,3.15-1.67,11.86-2.51,18.42" style="fill:none;stroke:#999;stroke-width:3" />
<path d="M1803.5,35.73c2.56,0.41,5.06,0.09,7.63-0.24c7.87-0.99,17.4-2.48,25.38-3.19c2.25-0.35,4.5-0.32,6.74,0.1" style="fill:none;stroke:#999;stroke-width:3" />
<path d="M1807.34,46.61c2.15,0.33,4.28,0.25,6.4-0.24c4.28-0.55,9.99-1.33,15.01-2.02c1.85-0.21,3.71-0.2,5.56,0.05" style="fill:none;stroke:#999;stroke-width:3" />
<path d="M1808.33,56.67c2.1,0.42,4.2,0.42,6.32,0c5.52-0.81,11.25-1.51,15.97-2.04c2.06-0.3,4.11-0.26,6.14,0.13" style="fill:none;stroke:#999;stroke-width:3" />
<path d="M1805.81,68.59c2.22,0.51,4.45,0.57,6.69,0.16c7.63-1.1,15.23-1.95,21.5-2.39c2.23-0.37,4.45-0.3,6.65,0.2" style="fill:none;stroke:#999;stroke-width:3" />
<path d="M1818.71,12.5c0.96,0.96,1.46,2.25,1.46,3.56c0,0.63-0.03,36.64-0.04,54.82c0,5.04,0,8.71,0,9.88" style="fill:none;stroke:#999;stroke-width:3" />
<path d="M1787.05,41.44c1.68,0.54,3.21,0.41,4.58-0.41c2.24-1.04,3.66-1.56,5.44-2.54c1.8-0.99,2.6-0.1,1.88,1.43c-1.89,4.04-8.42,15.23-10.62,19.51" style="fill:none;stroke:#999;stroke-width:3" />
<path d="M1788.66,60.08c3.46-1.45,6.96-2.45,9.74-3.5c1.79-0.68,3.32,0.11,2.88,2.39C1798.75,72,1794.5,83.38,1782.25,94.08" style="fill:none;stroke:#999;stroke-width:3" />
<path d="M1787.77,70.75c3.38-0.12,18.61,9.62,36.27,18.21c5.61,2.73,9.83,4.29,15.47,5.54" style="fill:none;stroke:black;stroke-width:3" />
<circle cx="1787.77" cy="70.75" r="5" stroke-width="0" fill="#FF2A00" opacity="0.7" />
</svg>