<svg width="1417px" height="109px" viewBox="0 0 1417px 109px" xmlns="http://www.w3.org/2000/svg" xmlns:xlink="http://www.w3.org/1999/xlink" xml:space="preserve" version="1.1"  baseProfile="full">
<line x1="1" y1="1" x2="1416" y2="1" style="stroke:#ddd;stroke-width:2" />
<line x1="1" y1="1" x2="1" y2="108" style="stroke:#ddd;stroke-width:2" />
<line x1="1" y1="108" x2="1416" y2="108" style="stroke:#ddd;stroke-width:2" />
<line x1="1416" y1="1" x2="1416" y2="108" style="stroke:#ddd;stroke-width:2" />
<line x1="109" y1="1" x2="109" y2="108" style="stroke:#ddd;stroke-width:2" />
<line x1="218" y1="1" x2="218" y2="108" style="stroke:#ddd;stroke-width:2" />
<line x1="327" y1="1" x2="327" y2="108" style="stroke:#ddd;stroke-width:2" />
<line x1="436" y1="1" x2="436" y2="108" style="stroke:#ddd;stroke-width:2" />
<line x1="545" y1="1" x2="545" y2="108" style="stroke:#ddd;stroke-width:2" />
<line x1="654" y1="1" x2="654" y2="108" style="stroke:#ddd;stroke-width:2" />
<line x1="763" y1="1" x2="763" y2="108" style="stroke:#ddd;stroke-width:2" />
<line x1="872" y1="1" x2="872" y2="108" style="stroke:#ddd;stroke-width:2" />
<line x1="981" y1="1" x2="981" y2="108" style="stroke:#ddd;stroke-width:2" />
<line x1="1090" y1="1" x2="1090" y2="108" style="stroke:#ddd;stroke-width:2" />
<line x1="1199" y1="1" x2="1199" y2="108" style="stroke:#ddd;stroke-width:2" />
<line x1="1308" y1="1" x2="1308" y2="108" style="stroke:#ddd;stroke-width:2" />
<line x1="1" y1="54" x2="1416" y2="54" style="stroke:#ddd;stroke-width:2;stroke-dasharray:3 3" />
<line x1="55" y1="1" x2="55" y2="108" style="stroke:#ddd;stroke-width:2;stroke-dasharray:3 3" />
<line x1="164" y1="1" x2="164" y2="108" style="stroke:#ddd;stroke-width:2;stroke-dasharray:3 3" />
<line x1="273" y1="1" x2="273" y2="108" style="stroke:#ddd;stroke-width:2;stroke-dasharray:3 3" />
<line x1="382" y1="1" x2="382" y2="108" style="stroke:#ddd;stroke-width:2;stroke-dasharray:3 3" />
<line x1="491" y1="1" x2="491" y2="108" style="stroke:#ddd;stroke-width:2;stroke-dasharray:3 3" />
<line x1="600" y1="1" x2="600" y2="108" style="stroke:#ddd;stroke-width:2;stroke-dasharray:3 3" />
<line x1="709" y1="1" x2="709" y2="108" style="stroke:#ddd;stroke-width:2;stroke-dasharray:3 3" />
<line x1="818" y1="1" x2="818" y2="108" style="stroke:#ddd;stroke-width:2;stroke-dasharray:3 3" />
<line x1="927" y1="1" x2="927" y2="108" style="stroke:#ddd;stroke-width:2;stroke-dasharray:3 3" />
<line x1="1036" y1="1" x2="1036" y2="108" style="stroke:#ddd;stroke-width:2;stroke-dasharray:3 3" />
<line x1="1145" y1="1" x2="1145" y2="108" style="stroke:#ddd;stroke-width:2;stroke-dasharray:3 3" />
<line x1="1254" y1="1" x2="1254" y2="108" style="stroke:#ddd;stroke-width:2;stroke-dasharray:3 3" />
<line x1="1363" y1="1" x2="1363" y2="108" style="stroke:#ddd;stroke-width:2;stroke-dasharray:3 3" />
<path d="M14.87,15.48c1.5,0.77,3.43,1.14,4.88,0.9C25.0,15.5,28.5,14.62,32.23,13.7c4.02-1,5.58,1.8,4.07,4.83c-1.88,3.75-6.29,12.74-10.43,19.26" style="fill:none;stroke:black;stroke-width:3" />
<circle cx="14.87" cy="15.48" r="5" stroke-width="0" fill="#FF2A00" opacity="0.7" />
<path d="M123.87,15.48c1.5,0.77,3.43,1.14,4.88,0.9C134.0,15.5,137.5,14.62,141.23,13.7c4.02-1,5.58,1.8,4.07,4.83c-1.88,3.75-6.29,12.74-10.43,19.26" style="fill:none;stroke:#999;stroke-width:3" />
<path d="M134.87,37.79c13.18,9.36,13.63,41.46,2.15,33.82" style="fill:none;stroke:black;stroke-width:3" />
<circle cx="134.87" cy="37.79" r="5" stroke-width="0" fill="#FF2A00" opacity="0.7" />
<path d="M232.87,15.48c1.5,0.77,3.43,1.14,4.88,0.9C243.0,15.5,246.5,14.62,250.23,13.7c4.02-1,5.58,1.8,4.07,4.83c-1.88,3.75-6.29,12.74-10.43,19.26" style="fill:none;stroke:#999;stroke-width:3" />
<path d="M243.87,37.79c13.18,9.36,13.63,41.46,2.15,33.82" style="fill:none;stroke:#999;stroke-width:3" />
<path d="M233.87,16.23c0.64,0.64,0.94,2.15,0.94,3.4c0,3.43,0.02,45.28,0.03,66.75c0,5.91,0,10.28,0,11.88" style="fill:none;stroke:black;stroke-width:3" />
<circle cx="233.87" cy="16.23" r="5" stroke-width="0" fill="#FF2A00" opacity="0.7" />
<path d="M341.87,15.48c1.5,0.77,3.43,1.14,4.88,0.9C352.0,15.5,355.5,14.62,359.23,13.7c4.02-1,5.58,1.8,4.07,4.83c-1.88,3.75-6.29,12.74-10.43,19.26" style="fill:none;stroke:#999;stroke-width:3" />
<path d="M352.87,37.79c13.18,9.36,13.63,41.46,2.15,33.82" style="fill:none;stroke:#999;stroke-width:3" />
<path d="M342.87,16.23c0.64,0.64,0.94,2.15,0.94,3.4c0,3.43,0.02,45.28,0.03,66.75c0,5.91,0,10.28,0,11.88" style="fill:none;stroke:#999;stroke-width:3" />
<path d="M393.68,10.34c0.76,0.76,1.07,1.79,1.07,2.79c0,7.09,0.02,18.88,0.02,21.76c0,8.61-4.47,0.62-5.46,0.1" style="fill:none;stroke:black;stroke-width:3" />
<circle cx="393.68" cy="10.34" r="5" stroke-width="0" fill="#FF2A00" opacity="0.7" />
<path d="M450.87,15.48c1.5,0.77,3.43,1.14,4.88,0.9C461.0,15.5,464.5,14.62,468.23,13.7c4.02-1,5.58,1.8,4.07,4.83c-1.88,3.75-6.29,12.74-10.43,19.26" style="fill:none;stroke:#999;stroke-width:3" />
<path d="M461.87,37.79c13.18,9.36,13.63,41.46,2.15,33.82" style="fill:none;stroke:#999;stroke-width:3" />
<path d="M451.87,16.23c0.64,0.64,0.94,2.15,0.94,3.4c0,3.43,0.02,45.28,0.03,66.75c0,5.91,0,10.28,0,11.88" style="fill:none;stroke:#999;stroke-width:3" />
<path d="M502.68,10.34c0.76,0.76,1.07,1.79,1.07,2.79c0,7.09,0.02,18.88,0.02,21.76c0,8.61-4.47,0.62-5.46,0.1" style="fill:none;stroke:#999;stroke-width:3" />
<path d="M491.2,19.07c0,1.06-0.38,2.46-1.18,3.47c-3.01,3.83-7.39,8.39-14.76,14.03" style="fill:none;stroke:black;stroke-width:3" />
<circle cx="491.2" cy="19.07" r="5" stroke-width="0" fill="#FF2A00" opacity="0.7" />
<path d="M559.87,15.48c1.5,0.77,3.43,1.14,4.88,0.9C570.0,15.5,573.5,14.62,577.23,13.7c4.02-1,5.58,1.8,4.07,4.83c-1.88,3.75-6.29,12.74-10.43,19.26" style="fill:none;stroke:#999;stroke-width:3" />
<path d="M570.87,37.79c13.18,9.36,13.63,41.46,2.15,33.82" style="fill:none;stroke:#999;stroke-width:3" />
<path d="M560.87,16.23c0.64,0.64,0.94,2.15,0.94,3.4c0,3.43,0.02,45.28,0.03,66.75c0,5.91,0,10.28,0,11.88" style="fill:none;stroke:#999;stroke-width:3" />
<path d="M611.6800000000001,10.34c0.76,0.76,1.07,1.79,1.07,2.79c0,7.09,0.02,18.88,0.02,21.76c0,8.61-4.47,0.62-5.46,0.1" style="fill:none;stroke:#999;stroke-width:3" />
<path d="M600.2,19.07c0,1.06-0.38,2.46-1.18,3.47c-3.01,3.83-7.39,8.39-14.76,14.03" style="fill:none;stroke:#999;stroke-width:3" />
<path d="M623.0699999999999,19.4c5.18,2.72,13.39,11.18,14.68,15.41" style="fill:none;stroke:black;stroke-width:3" />
<circle cx="623.0699999999999" cy="19.4" r="5" stroke-width="0" fill="#FF2A00" opacity="0.7" />
<path d="M668.87,15.48c1.5,0.77,3.43,1.14,4.88,0.9C679.0,15.5,682.5,14.62,686.23,13.7c4.02-1,5.58,1.8,4.07,4.83c-1.88,3.75-6.29,12.74-10.43,19.26" style="fill:none;stroke:#999;stroke-width:3" />
<path d="M679.87,37.79c13.18,9.36,13.63,41.46,2.15,33.82" style="fill:none;stroke:#999;stroke-width:3" />
<path d="M669.87,16.23c0.64,0.64,0.94,2.15,0.94,3.4c0,3.43,0.02,45.28,0.03,66.75c0,5.91,0,10.28,0,11.88" style="fill:none;stroke:#999;stroke-width:3" />
<path d="M720.6800000000001,10.34c0.76,0.76,1.07,1.79,1.07,2.79c0,7.09,0.02,18.88,0.02,21.76c0,8.61-4.47,0.62-5.46,0.1" style="fill:none;stroke:#999;stroke-width:3" />
<path d="M709.2,19.07c0,1.06-0.38,2.46-1.18,3.47c-3.01,3.83-7.39,8.39-14.76,14.03" style="fill:none;stroke:#999;stroke-width:3" />
<path d="M732.0699999999999,19.4c5.18,2.72,13.39,11.18,14.68,15.41" style="fill:none;stroke:#999;stroke-width:3" />
<path d="M701.99,42.65c0.74,0.74,1.01,1.6,1.18,2.58c0.52,2.95,1.61,8.87,2.45,14.63c0.28,1.92,0.53,3.83,0.72,5.6" style="fill:none;stroke:black;stroke-width:3" />
<circle cx="701.99" cy="42.65" r="5" stroke-width="0" fill="#FF2A00" opacity="0.7" />
<path d="M777.87,15.48c1.5,0.77,3.43,1.14,4.88,0.9C788.0,15.5,791.5,14.62,795.23,13.7c4.02-1,5.58,1.8,4.07,4.83c-1.88,3.75-6.29,12.74-10.43,19.26" style="fill:none;stroke:#999;stroke-width:3" />
<path d="M788.87,37.79c13.18,9.36,13.63,41.46,2.15,33.82" style="fill:none;stroke:#999;stroke-width:3" />
<path d="M778.87,16.23c0.64,0.64,0.94,2.15,0.94,3.4c0,3.43,0.02,45.28,0.03,66.75c0,5.91,0,10.28,0,11.88" style="fill:none;stroke:#999;stroke-width:3" />
<path d="M829.6800000000001,10.34c0.76,0.76,1.07,1.79,1.07,2.79c0,7.09,0.02,18.88,0.02,21.76c0,8.61-4.47,0.62-5.46,0.1" style="fill:none;stroke:#999;stroke-width:3" />
<path d="M818.2,19.07c0,1.06-0.38,2.46-1.18,3.47c-3.01,3.83-7.39,8.39-14.76,14.03" style="fill:none;stroke:#999;stroke-width:3" />
<path d="M841.0699999999999,19.4c5.18,2.72,13.39,11.18,14.68,15.41" style="fill:none;stroke:#999;stroke-width:3" />
<path d="M810.99,42.65c0.74,0.74,1.01,1.6,1.18,2.58c0.52,2.95,1.61,8.87,2.45,14.63c0.28,1.92,0.53,3.83,0.72,5.6" style="fill:none;stroke:#999;stroke-width:3" />
<path d="M813.02,44.16c10.24-1.2,23.99-2.44,31.59-3.22c3.91-0.4,5.5,0.96,5.04,4.66c-0.41,3.3-1.36,8.37-2.22,12.91c-0.4,2.09-0.79,4.08-1.09,5.72" style="fill:none;stroke:black;stroke-width:3" />
<circle cx="813.02" cy="44.16" r="5" stroke-width="0" fill="#FF2A00" opacity="0.7" />
<path d="M886.87,15.48c1.5,0.77,3.43,1.14,4.88,0.9C897.0,15.5,900.5,14.62,904.23,13.7c4.02-1,5.58,1.8,4.07,4.83c-1.88,3.75-6.29,12.74-10.43,19.26" style="fill:none;stroke:#999;stroke-width:3" />
<path d="M897.87,37.79c13.18,9.36,13.63,41.46,2.15,33.82" style="fill:none;stroke:#999;stroke-width:3" />
<path d="M887.87,16.23c0.64,0.64,0.94,2.15,0.94,3.4c0,3.43,0.02,45.28,0.03,66.75c0,5.91,0,10.28,0,11.88" style="fill:none;stroke:#999;stroke-width:3" />
<path d="M938.6800000000001,10.34c0.76,0.76,1.07,1.79,1.07,2.79c0,7.09,0.02,18.88,0.02,21.76c0,8.61-4.47,0.62-5.46,0.1" style="fill:none;stroke:#999;stroke-width:3" />
<path d="M927.2,19.07c0,1.06-0.38,2.46-1.18,3.47c-3.01,3.83-7.39,8.39-14.76,14.03" style="fill:none;stroke:#999;stroke-width:3" />
<path d="M950.0699999999999,19.4c5.18,2.72,13.39,11.18,14.68,15.41" style="fill:none;stroke:#999;stroke-width:3" />
<path d="M919.99,42.65c0.74,0.74,1.01,1.6,1.18,2.58c0.52,2.95,1.61,8.87,2.45,14.63c0.28,1.92,0.53,3.83,0.72,5.6" style="fill:none;stroke:#999;stroke-width:3" />
<path d="M922.02,44.16c10.24-1.2,23.99-2.44,31.59-3.22c3.91-0.4,5.5,0.96,5.04,4.66c-0.41,3.3-1.36,8.37-2.22,12.91c-0.4,2.09-0.79,4.08-1.09,5.72" style="fill:none;stroke:#999;stroke-width:3" />
<path d="M923.81,53.73c3.12-0.37,30.52-2.36,33.1-2.52" style="fill:none;stroke:black;stroke-width:3" />
<circle cx="923.81" cy="53.73" r="5" stroke-width="0" fill="#FF2A00" opacity="0.7" />
<path d="M995.87,15.48c1.5,0.77,3.43,1.14,4.88,0.9C1006.0,15.5,1009.5,14.62,1013.23,13.7c4.02-1,5.58,1.8,4.07,4.83c-1.88,3.75-6.29,12.74-10.43,19.26" style="fill:none;stroke:#999;stroke-width:3" />
<path d="M1006.87,37.79c13.18,9.36,13.63,41.46,2.15,33.82" style="fill:none;stroke:#999;stroke-width:3" />
<path d="M996.87,16.23c0.64,0.64,0.94,2.15,0.94,3.4c0,3.43,0.02,45.28,0.03,66.75c0,5.91,0,10.28,0,11.88" style="fill:none;stroke:#999;stroke-width:3" />
<path d="M1047.68,10.34c0.76,0.76,1.07,1.79,1.07,2.79c0,7.09,0.02,18.88,0.02,21.76c0,8.61-4.47,0.62-5.46,0.1" style="fill:none;stroke:#999;stroke-width:3" />
<path d="M1036.2,19.07c0,1.06-0.38,2.46-1.18,3.47c-3.01,3.83-7.39,8.39-14.76,14.03" style="fill:none;stroke:#999;stroke-width:3" />
<path d="M1059.07,19.4c5.18,2.72,13.39,11.18,14.68,15.41" style="fill:none;stroke:#999;stroke-width:3" />
<path d="M1028.99,42.65c0.74,0.74,1.01,1.6,1.18,2.58c0.52,2.95,1.61,8.87,2.45,14.63c0.28,1.92,0.53,3.83,0.72,5.6" style="fill:none;stroke:#999;stroke-width:3" />
<path d="M1031.02,44.16c10.24-1.2,23.99-2.44,31.59-3.22c3.91-0.4,5.5,0.96,5.04,4.66c-0.41,3.3-1.36,8.37-2.22,12.91c-0.4,2.09-0.79,4.08-1.09,5.72" style="fill:none;stroke:#999;stroke-width:3" />
<path d="M1032.81,53.73c3.12-0.37,30.52-2.36,33.1-2.52" style="fill:none;stroke:#999;stroke-width:3" />
<path d="M1034.33,63.92c8.42-0.67,18.04-1.55,29.25-2.02" style="fill:none;stroke:black;stroke-width:3" />
<circle cx="1034.33" cy="63.92" r="5" stroke-width="0" fill="#FF2A00" opacity="0.7" />
<path d="M1104.87,15.48c1.5,0.77,3.43,1.14,4.88,0.9C1115.0,15.5,1118.5,14.62,1122.23,13.7c4.02-1,5.58,1.8,4.07,4.83c-1.88,3.75-6.29,12.74-10.43,19.26" style="fill:none;stroke:#999;stroke-width:3" />
<path d="M1115.87,37.79c13.18,9.36,13.63,41.46,2.15,33.82" style="fill:none;stroke:#999;stroke-width:3" />
<path d="M1105.87,16.23c0.64,0.64,0.94,2.15,0.94,3.4c0,3.43,0.02,45.28,0.03,66.75c0,5.91,0,10.28,0,11.88" style="fill:none;stroke:#999;stroke-width:3" />
<path d="M1156.68,10.34c0.76,0.76,1.07,1.79,1.07,2.79c0,7.09,0.02,18.88,0.02,21.76c0,8.61-4.47,0.62-5.46,0.1" style="fill:none;stroke:#999;stroke-width:3" />
<path d="M1145.2,19.07c0,1.06-0.38,2.46-1.18,3.47c-3.01,3.83-7.39,8.39-14.76,14.03" style="fill:none;stroke:#999;stroke-width:3" />
<path d="M1168.07,19.4c5.18,2.72,13.39,11.18,14.68,15.41" style="fill:none;stroke:#999;stroke-width:3" />
<path d="M1137.99,42.65c0.74,0.74,1.01,1.6,1.18,2.58c0.52,2.95,1.61,8.87,2.45,14.63c0.28,1.92,0.53,3.83,0.72,5.6" style="fill:none;stroke:#999;stroke-width:3" />
<path d="M1140.02,44.16c10.24-1.2,23.99-2.44,31.59-3.22c3.91-0.4,5.5,0.96,5.04,4.66c-0.41,3.3-1.36,8.37-2.22,12.91c-0.4,2.09-0.79,4.08-1.09,5.72" style="fill:none;stroke:#999;stroke-width:3" />
<path d="M1141.81,53.73c3.12-0.37,30.52-2.36,33.1-2.52" style="fill:none;stroke:#999;stroke-width:3" />
<path d="M1143.33,63.92c8.42-0.67,18.04-1.55,29.25-2.02" style="fill:none;stroke:#999;stroke-width:3" />
<path d="M1156.68,65.71c0.62,0.62,0.82,1.66,0.82,2.79c0,6.72,0.02,21.88,0.02,24.39c0,6.61-4.77,0.86-6.71-1.9" style="fill:none;stroke:black;stroke-width:3" />
<circle cx="1156.68" cy="65.71" r="5" stroke-width="0" fill="#FF2A00" opacity="0.7" />
<path d="M1213.87,15.48c1.5,0.77,3.43,1.14,4.88,0.9C1224.0,15.5,1227.5,14.62,1231.23,13.7c4.02-1,5.58,1.8,4.07,4.83c-1.88,3.75-6.29,12.74-10.43,19.26" style="fill:none;stroke:#999;stroke-width:3" />
<path d="M1224.87,37.79c13.18,9.36,13.63,41.46,2.15,33.82" style="fill:none;stroke:#999;stroke-width:3" />
<path d="M1214.87,16.23c0.64,0.64,0.94,2.15,0.94,3.4c0,3.43,0.02,45.28,0.03,66.75c0,5.91,0,10.28,0,11.88" style="fill:none;stroke:#999;stroke-width:3" />
<path d="M1265.68,10.34c0.76,0.76,1.07,1.79,1.07,2.79c0,7.09,0.02,18.88,0.02,21.76c0,8.61-4.47,0.62-5.46,0.1" style="fill:none;stroke:#999;stroke-width:3" />
<path d="M1254.2,19.07c0,1.06-0.38,2.46-1.18,3.47c-3.01,3.83-7.39,8.39-14.76,14.03" style="fill:none;stroke:#999;stroke-width:3" />
<path d="M1277.07,19.4c5.18,2.72,13.39,11.18,14.68,15.41" style="fill:none;stroke:#999;stroke-width:3" />
<path d="M1246.99,42.65c0.74,0.74,1.01,1.6,1.18,2.58c0.52,2.95,1.61,8.87,2.45,14.63c0.28,1.92,0.53,3.83,0.72,5.6" style="fill:none;stroke:#999;stroke-width:3" />
<path d="M1249.02,44.16c10.24-1.2,23.99-2.44,31.59-3.22c3.91-0.4,5.5,0.96,5.04,4.66c-0.41,3.3-1.36,8.37-2.22,12.91c-0.4,2.09-0.79,4.08-1.09,5.72" style="fill:none;stroke:#999;stroke-width:3" />
<path d="M1250.81,53.73c3.12-0.37,30.52-2.36,33.1-2.52" style="fill:none;stroke:#999;stroke-width:3" />
<path d="M1252.33,63.92c8.42-0.67,18.04-1.55,29.25-2.02" style="fill:none;stroke:#999;stroke-width:3" />
<path d="M1265.68,65.71c0.62,0.62,0.82,1.66,0.82,2.79c0,6.72,0.02,21.88,0.02,24.39c0,6.61-4.77,0.86-6.71-1.9" style="fill:none;stroke:#999;stroke-width:3" />
<path d="M1253.45,73.82c0,0.93-0.1,2.14-0.72,3.08c-2.73,3.85-7.54,8.89-14.98,14.42" style="fill:none;stroke:black;stroke-width:3" />
<circle cx="1253.45" cy="73.82" r="5" stroke-width="0" fill="#FF2A00" opacity="0.7" />
<path d="M1322.87,15.48c1.5,0.77,3.43,1.14,4.88,0.9C1333.0,15.5,1336.5,14.62,1340.23,13.7c4.02-1,5.58,1.8,4.07,4.83c-1.88,3.75-6.29,12.74-10.43,19.26" style="fill:none;stroke:#999;stroke-width:3" />
<path d="M1333.87,37.79c13.18,9.36,13.63,41.46,2.15,33.82" style="fill:none;stroke:#999;stroke-width:3" />
<path d="M1323.87,16.23c0.64,0.64,0.94,2.15,0.94,3.4c0,3.43,0.02,45.28,0.03,66.75c0,5.91,0,10.28,0,11.88" style="fill:none;stroke:#999;stroke-width:3" />
<path d="M1374.68,10.34c0.76,0.76,1.07,1.79,1.07,2.79c0,7.09,0.02,18.88,0.02,21.76c0,8.61-4.47,0.62-5.46,0.1" style="fill:none;stroke:#999;stroke-width:3" />
<path d="M1363.2,19.07c0,1.06-0.38,2.46-1.18,3.47c-3.01,3.83-7.39,8.39-14.76,14.03" style="fill:none;stroke:#999;stroke-width:3" />
<path d="M1386.07,19.4c5.18,2.72,13.39,11.18,14.68,15.41" style="fill:none;stroke:#999;stroke-width:3" />
<path d="M1355.99,42.65c0.74,0.74,1.01,1.6,1.18,2.58c0.52,2.95,1.61,8.87,2.45,14.63c0.28,1.92,0.53,3.83,0.72,5.6" style="fill:none;stroke:#999;stroke-width:3" />
<path d="M1358.02,44.16c10.24-1.2,23.99-2.44,31.59-3.22c3.91-0.4,5.5,0.96,5.04,4.66c-0.41,3.3-1.36,8.37-2.22,12.91c-0.4,2.09-0.79,4.08-1.09,5.72" style="fill:none;stroke:#999;stroke-width:3" />
<path d="M1359.81,53.73c3.12-0.37,30.52-2.36,33.1-2.52" style="fill:none;stroke:#999;stroke-width:3" />
<path d="M1361.33,63.92c8.42-0.67,18.04-1.55,29.25-2.02" style="fill:none;stroke:#999;stroke-width:3" />
<path d="M1374.68,65.71c0.62,0.62,0.82,1.66,0.82,2.79c0,6.72,0.02,21.88,0.02,24.39c0,6.61-4.77,0.86-6.71-1.9" style="fill:none;stroke:#999;stroke-width:3" />
<path d="M1362.45,73.82c0,0.93-0.1,2.14-0.72,3.08c-2.73,3.85-7.54,8.89-14.98,14.42" style="fill:none;stroke:#999;stroke-width:3" />
<path d="M1387.82,74.4c6.68,4.48,11.93,10.35,14.93,16.91" style="fill:none;stroke:black;stroke-width:3" />
<circle cx="1387.82" cy="74.4" r="5" stroke-width="0" fill="#FF2A00" opacity="0.7" />
</svg>