<svg width="981px" height="109px" viewBox="0 0 981px 109px" xmlns="http://www.w3.org/2000/svg" xmlns:xlink="http://www.w3.org/1999/xlink" xml:space="preserve" version="1.1"  baseProfile="full">
<line x1="1" y1="1" x2="980" y2="1" style="stroke:#ddd;stroke-width:2" />
<line x1="1" y1="1" x2="1" y2="108" style="stroke:#ddd;stroke-width:2" />
<line x1="1" y1="108" x2="980" y2="108" style="stroke:#ddd;stroke-width:2" />
<line x1="980" y1="1" x2="980" y2="108" style="stroke:#ddd;stroke-width:2" />
<line x1="109" y1="1" x2="109" y2="108" style="stroke:#ddd;stroke-width:2" />
<line x1="218" y1="1" x2="218" y2="108" style="stroke:#ddd;stroke-width:2" />
<line x1="327" y1="1" x2="327" y2="108" style="stroke:#ddd;stroke-width:2" />
<line x1="436" y1="1" x2="436" y2="108" style="stroke:#ddd;stroke-width:2" />
<line x1="545" y1="1" x2="545" y2="108" style="stroke:#ddd;stroke-width:2" />
<line x1="654" y1="1" x2="654" y2="108" style="stroke:#ddd;stroke-width:2" />
<line x1="763" y1="1" x2="763" y2="108" style="stroke:#ddd;stroke-width:2" />
<line x1="872" y1="1" x2="872" y2="108" style="stroke:#ddd;stroke-width:2" />
<line x1="1" y1="54" x2="980" y2="54" style="stroke:#ddd;stroke-width:2;stroke-dasharray:3 3" />
<line x1="55" y1="1" x2="55" y2="108" style="stroke:#ddd;stroke-width:2;stroke-dasharray:3 3" />
<line x1="164" y1="1" x2="164" y2="108" style="stroke:#ddd;stroke-width:2;stroke-dasharray:3 3" />
<line x1="273" y1="1" x2="273" y2="108" style="stroke:#ddd;stroke-width:2;stroke-dasharray:3 3" />
<line x1="382" y1="1" x2="382" y2="108" style="stroke:#ddd;stroke-width:2;stroke-dasharray:3 3" />
<line x1="491" y1="1" x2="491" y2="108" style="stroke:#ddd;stroke-width:2;stroke-dasharray:3 3" />
<line x1="600" y1="1" x2="600" y2="108" style="stroke:#ddd;stroke-width:2;stroke-dasharray:3 3" />
<line x1="709" y1="1" x2="709" y2="108" style="stroke:#ddd;stroke-width:2;stroke-dasharray:3 3" />
<line x1="818" y1="1" x2="818" y2="108" style="stroke:#ddd;stroke-width:2;stroke-dasharray:3 3" />
<line x1="927" y1="1" x2="927" y2="108" style="stroke:#ddd;stroke-width:2;stroke-dasharray:3 3" />
<path d="M9.06,17.68c1.28,0.35,3.63,0.35,4.91,0.35c8.54-0.03,18.78-1.28,32.36-2.52c2.12-0.19,3.42,0.17,4.48,0.34" style="fill:none;stroke:black;stroke-width:3" />
<circle cx="9.06" cy="17.68" r="5" stroke-width="0" fill="#FF2A00" opacity="0.7" />
<path d="M118.06,17.68c1.28,0.35,3.63,0.35,4.91,0.35c8.54-0.03,18.78-1.28,32.36-2.52c2.12-0.19,3.42,0.17,4.48,0.34" style="fill:none;stroke:#999;stroke-width:3" />
<path d="M138.29,17.64c0.02,0.37,0.04,0.96-0.03,1.5c-0.41,3.16-2.77,10.09-5.99,14.33" style="fill:none;stroke:black;stroke-width:3" />
<circle cx="138.29" cy="17.64" r="5" stroke-width="0" fill="#FF2A00" opacity="0.7" />
<path d="M227.06,17.68c1.28,0.35,3.63,0.35,4.91,0.35c8.54-0.03,18.78-1.28,32.36-2.52c2.12-0.19,3.42,0.17,4.48,0.34" style="fill:none;stroke:#999;stroke-width:3" />
<path d="M247.29,17.64c0.02,0.37,0.04,0.96-0.03,1.5c-0.41,3.16-2.77,10.09-5.99,14.33" style="fill:none;stroke:#999;stroke-width:3" />
<path d="M229.0,33.88c0.55,1.08,1.27,2.39,1.37,3.81c1.09,14.94,0.96,34.92,1.72,54.56" style="fill:none;stroke:black;stroke-width:3" />
<circle cx="229.0" cy="33.88" r="5" stroke-width="0" fill="#FF2A00" opacity="0.7" />
<path d="M336.06,17.68c1.28,0.35,3.63,0.35,4.91,0.35c8.54-0.03,18.78-1.28,32.36-2.52c2.12-0.19,3.42,0.17,4.48,0.34" style="fill:none;stroke:#999;stroke-width:3" />
<path d="M356.28999999999996,17.64c0.02,0.37,0.04,0.96-0.03,1.5c-0.41,3.16-2.77,10.09-5.99,14.33" style="fill:none;stroke:#999;stroke-width:3" />
<path d="M338.0,33.88c0.55,1.08,1.27,2.39,1.37,3.81c1.09,14.94,0.96,34.92,1.72,54.56" style="fill:none;stroke:#999;stroke-width:3" />
<path d="M339.41,35.75c9.02-1.45,27.37-2.69,33.12-3.01c2.38-0.13,3.63,0.95,3.45,4.04c-0.72,12.77-0.95,37.99-2.66,53.27" style="fill:none;stroke:black;stroke-width:3" />
<circle cx="339.41" cy="35.75" r="5" stroke-width="0" fill="#FF2A00" opacity="0.7" />
<path d="M445.06,17.68c1.28,0.35,3.63,0.35,4.91,0.35c8.54-0.03,18.78-1.28,32.36-2.52c2.12-0.19,3.42,0.17,4.48,0.34" style="fill:none;stroke:#999;stroke-width:3" />
<path d="M465.28999999999996,17.64c0.02,0.37,0.04,0.96-0.03,1.5c-0.41,3.16-2.77,10.09-5.99,14.33" style="fill:none;stroke:#999;stroke-width:3" />
<path d="M447.0,33.88c0.55,1.08,1.27,2.39,1.37,3.81c1.09,14.94,0.96,34.92,1.72,54.56" style="fill:none;stroke:#999;stroke-width:3" />
<path d="M448.41,35.75c9.02-1.45,27.37-2.69,33.12-3.01c2.38-0.13,3.63,0.95,3.45,4.04c-0.72,12.77-0.95,37.99-2.66,53.27" style="fill:none;stroke:#999;stroke-width:3" />
<path d="M459.34,36.07c0.55,0.91,1.1,2.43,1.1,3.64c0,1.21-0.26,48.86-0.26,48.86" style="fill:none;stroke:black;stroke-width:3" />
<circle cx="459.34" cy="36.07" r="5" stroke-width="0" fill="#FF2A00" opacity="0.7" />
<path d="M554.06,17.68c1.28,0.35,3.63,0.35,4.91,0.35c8.54-0.03,18.78-1.28,32.36-2.52c2.12-0.19,3.42,0.17,4.48,0.34" style="fill:none;stroke:#999;stroke-width:3" />
<path d="M574.29,17.64c0.02,0.37,0.04,0.96-0.03,1.5c-0.41,3.16-2.77,10.09-5.99,14.33" style="fill:none;stroke:#999;stroke-width:3" />
<path d="M556.0,33.88c0.55,1.08,1.27,2.39,1.37,3.81c1.09,14.94,0.96,34.92,1.72,54.56" style="fill:none;stroke:#999;stroke-width:3" />
<path d="M557.4100000000001,35.75c9.02-1.45,27.37-2.69,33.12-3.01c2.38-0.13,3.63,0.95,3.45,4.04c-0.72,12.77-0.95,37.99-2.66,53.27" style="fill:none;stroke:#999;stroke-width:3" />
<path d="M568.3399999999999,36.07c0.55,0.91,1.1,2.43,1.1,3.64c0,1.21-0.26,48.86-0.26,48.86" style="fill:none;stroke:#999;stroke-width:3" />
<path d="M580.53,35.62c0.37,1.47,0.74,2.36,0.74,3.54c0,1.18-0.86,45.99-0.86,48.93" style="fill:none;stroke:black;stroke-width:3" />
<circle cx="580.53" cy="35.62" r="5" stroke-width="0" fill="#FF2A00" opacity="0.7" />
<path d="M663.06,17.68c1.28,0.35,3.63,0.35,4.91,0.35c8.54-0.03,18.78-1.28,32.36-2.52c2.12-0.19,3.42,0.17,4.48,0.34" style="fill:none;stroke:#999;stroke-width:3" />
<path d="M683.29,17.64c0.02,0.37,0.04,0.96-0.03,1.5c-0.41,3.16-2.77,10.09-5.99,14.33" style="fill:none;stroke:#999;stroke-width:3" />
<path d="M665.0,33.88c0.55,1.08,1.27,2.39,1.37,3.81c1.09,14.94,0.96,34.92,1.72,54.56" style="fill:none;stroke:#999;stroke-width:3" />
<path d="M666.4100000000001,35.75c9.02-1.45,27.37-2.69,33.12-3.01c2.38-0.13,3.63,0.95,3.45,4.04c-0.72,12.77-0.95,37.99-2.66,53.27" style="fill:none;stroke:#999;stroke-width:3" />
<path d="M677.3399999999999,36.07c0.55,0.91,1.1,2.43,1.1,3.64c0,1.21-0.26,48.86-0.26,48.86" style="fill:none;stroke:#999;stroke-width:3" />
<path d="M689.53,35.62c0.37,1.47,0.74,2.36,0.74,3.54c0,1.18-0.86,45.99-0.86,48.93" style="fill:none;stroke:#999;stroke-width:3" />
<path d="M678.75,50.79c1.2,0,9.83-0.53,11.03-0.53" style="fill:none;stroke:black;stroke-width:3" />
<circle cx="678.75" cy="50.79" r="5" stroke-width="0" fill="#FF2A00" opacity="0.7" />
<path d="M772.06,17.68c1.28,0.35,3.63,0.35,4.91,0.35c8.54-0.03,18.78-1.28,32.36-2.52c2.12-0.19,3.42,0.17,4.48,0.34" style="fill:none;stroke:#999;stroke-width:3" />
<path d="M792.29,17.64c0.02,0.37,0.04,0.96-0.03,1.5c-0.41,3.16-2.77,10.09-5.99,14.33" style="fill:none;stroke:#999;stroke-width:3" />
<path d="M774.0,33.88c0.55,1.08,1.27,2.39,1.37,3.81c1.09,14.94,0.96,34.92,1.72,54.56" style="fill:none;stroke:#999;stroke-width:3" />
<path d="M775.4100000000001,35.75c9.02-1.45,27.37-2.69,33.12-3.01c2.38-0.13,3.63,0.95,3.45,4.04c-0.72,12.77-0.95,37.99-2.66,53.27" style="fill:none;stroke:#999;stroke-width:3" />
<path d="M786.3399999999999,36.07c0.55,0.91,1.1,2.43,1.1,3.64c0,1.21-0.26,48.86-0.26,48.86" style="fill:none;stroke:#999;stroke-width:3" />
<path d="M798.53,35.62c0.37,1.47,0.74,2.36,0.74,3.54c0,1.18-0.86,45.99-0.86,48.93" style="fill:none;stroke:#999;stroke-width:3" />
<path d="M787.75,50.79c1.2,0,9.83-0.53,11.03-0.53" style="fill:none;stroke:#999;stroke-width:3" />
<path d="M788.12,66.92c2.08-0.26,9.07-0.27,10.79-0.4" style="fill:none;stroke:black;stroke-width:3" />
<circle cx="788.12" cy="66.92" r="5" stroke-width="0" fill="#FF2A00" opacity="0.7" />
<path d="M881.06,17.68c1.28,0.35,3.63,0.35,4.91,0.35c8.54-0.03,18.78-1.28,32.36-2.52c2.12-0.19,3.42,0.17,4.48,0.34" style="fill:none;stroke:#999;stroke-width:3" />
<path d="M901.29,17.64c0.02,0.37,0.04,0.96-0.03,1.5c-0.41,3.16-2.77,10.09-5.99,14.33" style="fill:none;stroke:#999;stroke-width:3" />
<path d="M883.0,33.88c0.55,1.08,1.27,2.39,1.37,3.81c1.09,14.94,0.96,34.92,1.72,54.56" style="fill:none;stroke:#999;stroke-width:3" />
<path d="M884.4100000000001,35.75c9.02-1.45,27.37-2.69,33.12-3.01c2.38-0.13,3.63,0.95,3.45,4.04c-0.72,12.77-0.95,37.99-2.66,53.27" style="fill:none;stroke:#999;stroke-width:3" />
<path d="M895.3399999999999,36.07c0.55,0.91,1.1,2.43,1.1,3.64c0,1.21-0.26,48.86-0.26,48.86" style="fill:none;stroke:#999;stroke-width:3" />
<path d="M907.53,35.62c0.37,1.47,0.74,2.36,0.74,3.54c0,1.18-0.86,45.99-0.86,48.93" style="fill:none;stroke:#999;stroke-width:3" />
<path d="M896.75,50.79c1.2,0,9.83-0.53,11.03-0.53" style="fill:none;stroke:#999;stroke-width:3" />
<path d="M897.12,66.92c2.08-0.26,9.07-0.27,10.79-0.4" style="fill:none;stroke:#999;stroke-width:3" />
<path d="M886.31,89.51c4.94-0.01,29.56-1.54,31.39-1.54" style="fill:none;stroke:black;stroke-width:3" />
<circle cx="886.31" cy="89.51" r="5" stroke-width="0" fill="#FF2A00" opacity="0.7" />
</svg>