<svg width="1526px" height="109px" viewBox="0 0 1526px 109px" xmlns="http://www.w3.org/2000/svg" xmlns:xlink="http://www.w3.org/1999/xlink" xml:space="preserve" version="1.1"  baseProfile="full">
<line x1="1" y1="1" x2="1525" y2="1" style="stroke:#ddd;stroke-width:2" />
<line x1="1" y1="1" x2="1" y2="108" style="stroke:#ddd;stroke-width:2" />
<line x1="1" y1="108" x2="1525" y2="108" style="stroke:#ddd;stroke-width:2" />
<line x1="1525" y1="1" x2="1525" y2="108" style="stroke:#ddd;stroke-width:2" />
<line x1="109" y1="1" x2="109" y2="108" style="stroke:#ddd;stroke-width:2" />
<line x1="218" y1="1" x2="218" y2="108" style="stroke:#ddd;stroke-width:2" />
<line x1="327" y1="1" x2="327" y2="108" style="stroke:#ddd;stroke-width:2" />
<line x1="436" y1="1" x2="436" y2="108" style="stroke:#ddd;stroke-width:2" />
<line x1="545" y1="1" x2="545" y2="108" style="stroke:#ddd;stroke-width:2" />
<line x1="654" y1="1" x2="654" y2="108" style="stroke:#ddd;stroke-width:2" />
<line x1="763" y1="1" x2="763" y2="108" style="stroke:#ddd;stroke-width:2" />
<line x1="872" y1="1" x2="872" y2="108" style="stroke:#ddd;stroke-width:2" />
<line x1="981" y1="1" x2="981" y2="108" style="stroke:#ddd;stroke-width:2" />
<line x1="1090" y1="1" x2="1090" y2="108" style="stroke:#ddd;stroke-width:2" />
<line x1="1199" y1="1" x2="1199" y2="108" style="stroke:#ddd;stroke-width:2" />
<line x1="1308" y1="1" x2="1308" y2="108" style="stroke:#ddd;stroke-width:2" />
<line x1="1417" y1="1" x2="1417" y2="108" style="stroke:#ddd;stroke-width:2" />
<line x1="1" y1="54" x2="1525" y2="54" style="stroke:#ddd;stroke-width:2;stroke-dasharray:3 3" />
<line x1="55" y1="1" x2="55" y2="108" style="stroke:#ddd;stroke-width:2;stroke-dasharray:3 3" />
<line x1="164" y1="1" x2="164" y2="108" style="stroke:#ddd;stroke-width:2;stroke-dasharray:3 3" />
<line x1="273" y1="1" x2="273" y2="108" style="stroke:#ddd;stroke-width:2;stroke-dasharray:3 3" />
<line x1="382" y1="1" x2="382" y2="108" style="stroke:#ddd;stroke-width:2;stroke-dasharray:3 3" />
<line x1="491" y1="1" x2="491" y2="108" style="stroke:#ddd;stroke-width:2;stroke-dasharray:3 3" />
<line x1="600" y1="1" x2="600" y2="108" style="stroke:#ddd;stroke-width:2;stroke-dasharray:3 3" />
<line x1="709" y1="1" x2="709" y2="108" style="stroke:#ddd;stroke-width:2;stroke-dasharray:3 3" />
<line x1="818" y1="1" x2="818" y2="108" style="stroke:#ddd;stroke-width:2;stroke-dasharray:3 3" />
<line x1="927" y1="1" x2="927" y2="108" style="stroke:#ddd;stroke-width:2;stroke-dasharray:3 3" />
<line x1="1036" y1="1" x2="1036" y2="108" style="stroke:#ddd;stroke-width:2;stroke-dasharray:3 3" />
<line x1="1145" y1="1" x2="1145" y2="108" style="stroke:#ddd;stroke-width:2;stroke-dasharray:3 3" />
<line x1="1254" y1="1" x2="1254" y2="108" style="stroke:#ddd;stroke-width:2;stroke-dasharray:3 3" />
<line x1="1363" y1="1" x2="1363" y2="108" style="stroke:#ddd;stroke-width:2;stroke-dasharray:3 3" />
<line x1="1472" y1="1" x2="1472" y2="108" style="stroke:#ddd;stroke-width:2;stroke-dasharray:3 3" />
<path d="M12.4,27.63c2.45,0.46,4.83,0.27,7.35-0.09c6.64-0.93,15.12-2.29,23.76-2.98c2.1-0.17,4.15-0.12,6.2,0.26" style="fill:none;stroke:black;stroke-width:3" />
<circle cx="12.4" cy="27.63" r="5" stroke-width="0" fill="#FF2A00" opacity="0.7" />
<path d="M121.4,27.63c2.45,0.46,4.83,0.27,7.35-0.09c6.64-0.93,15.12-2.29,23.76-2.98c2.1-0.17,4.15-0.12,6.2,0.26" style="fill:none;stroke:#999;stroke-width:3" />
<path d="M130.35,17.96c0.72,0.72,0.96,1.42,1.09,2.64c0.57,5.35,0.98,8.61,1.49,12.78c0.22,1.79,0.46,3.75,0.73,6.12" style="fill:none;stroke:black;stroke-width:3" />
<circle cx="130.35" cy="17.96" r="5" stroke-width="0" fill="#FF2A00" opacity="0.7" />
<path d="M230.4,27.63c2.45,0.46,4.83,0.27,7.35-0.09c6.64-0.93,15.12-2.29,23.76-2.98c2.1-0.17,4.15-0.12,6.2,0.26" style="fill:none;stroke:#999;stroke-width:3" />
<path d="M239.35,17.96c0.72,0.72,0.96,1.42,1.09,2.64c0.57,5.35,0.98,8.61,1.49,12.78c0.22,1.79,0.46,3.75,0.73,6.12" style="fill:none;stroke:#999;stroke-width:3" />
<path d="M257.31,14.75c0.56,0.75,0.66,1.97,0.59,2.64c-0.77,6.73-0.9,10.11-1.82,17.13" style="fill:none;stroke:black;stroke-width:3" />
<circle cx="257.31" cy="14.75" r="5" stroke-width="0" fill="#FF2A00" opacity="0.7" />
<path d="M339.4,27.63c2.45,0.46,4.83,0.27,7.35-0.09c6.64-0.93,15.12-2.29,23.76-2.98c2.1-0.17,4.15-0.12,6.2,0.26" style="fill:none;stroke:#999;stroke-width:3" />
<path d="M348.35,17.96c0.72,0.72,0.96,1.42,1.09,2.64c0.57,5.35,0.98,8.61,1.49,12.78c0.22,1.79,0.46,3.75,0.73,6.12" style="fill:none;stroke:#999;stroke-width:3" />
<path d="M366.31,14.75c0.56,0.75,0.66,1.97,0.59,2.64c-0.77,6.73-0.9,10.11-1.82,17.13" style="fill:none;stroke:#999;stroke-width:3" />
<path d="M353.33,37.25c1.13,0,5.59-0.5,9.07-0.9c1.97-0.23,3.63-0.42,4.2-0.47" style="fill:none;stroke:black;stroke-width:3" />
<circle cx="353.33" cy="37.25" r="5" stroke-width="0" fill="#FF2A00" opacity="0.7" />
<path d="M448.4,27.63c2.45,0.46,4.83,0.27,7.35-0.09c6.64-0.93,15.12-2.29,23.76-2.98c2.1-0.17,4.15-0.12,6.2,0.26" style="fill:none;stroke:#999;stroke-width:3" />
<path d="M457.35,17.96c0.72,0.72,0.96,1.42,1.09,2.64c0.57,5.35,0.98,8.61,1.49,12.78c0.22,1.79,0.46,3.75,0.73,6.12" style="fill:none;stroke:#999;stroke-width:3" />
<path d="M475.31,14.75c0.56,0.75,0.66,1.97,0.59,2.64c-0.77,6.73-0.9,10.11-1.82,17.13" style="fill:none;stroke:#999;stroke-width:3" />
<path d="M462.33,37.25c1.13,0,5.59-0.5,9.07-0.9c1.97-0.23,3.63-0.42,4.2-0.47" style="fill:none;stroke:#999;stroke-width:3" />
<path d="M452.51,47.6c0.5,0.74,0.8,1.54,0.9,2.41c0.87,4.46,1.39,9.67,2.06,13.94" style="fill:none;stroke:black;stroke-width:3" />
<circle cx="452.51" cy="47.6" r="5" stroke-width="0" fill="#FF2A00" opacity="0.7" />
<path d="M557.4,27.63c2.45,0.46,4.83,0.27,7.35-0.09c6.64-0.93,15.12-2.29,23.76-2.98c2.1-0.17,4.15-0.12,6.2,0.26" style="fill:none;stroke:#999;stroke-width:3" />
<path d="M566.35,17.96c0.72,0.72,0.96,1.42,1.09,2.64c0.57,5.35,0.98,8.61,1.49,12.78c0.22,1.79,0.46,3.75,0.73,6.12" style="fill:none;stroke:#999;stroke-width:3" />
<path d="M584.31,14.75c0.56,0.75,0.66,1.97,0.59,2.64c-0.77,6.73-0.9,10.11-1.82,17.13" style="fill:none;stroke:#999;stroke-width:3" />
<path d="M571.3299999999999,37.25c1.13,0,5.59-0.5,9.07-0.9c1.97-0.23,3.63-0.42,4.2-0.47" style="fill:none;stroke:#999;stroke-width:3" />
<path d="M561.51,47.6c0.5,0.74,0.8,1.54,0.9,2.41c0.87,4.46,1.39,9.67,2.06,13.94" style="fill:none;stroke:#999;stroke-width:3" />
<path d="M562.73,48.46c8.54-1.1,20.19-2.49,25.04-3.23c2.18-0.33,3.85,0.61,3.33,3.17c-0.53,2.67-1.35,5.11-2.68,9.87" style="fill:none;stroke:black;stroke-width:3" />
<circle cx="562.73" cy="48.46" r="5" stroke-width="0" fill="#FF2A00" opacity="0.7" />
<path d="M666.4,27.63c2.45,0.46,4.83,0.27,7.35-0.09c6.64-0.93,15.12-2.29,23.76-2.98c2.1-0.17,4.15-0.12,6.2,0.26" style="fill:none;stroke:#999;stroke-width:3" />
<path d="M675.35,17.96c0.72,0.72,0.96,1.42,1.09,2.64c0.57,5.35,0.98,8.61,1.49,12.78c0.22,1.79,0.46,3.75,0.73,6.12" style="fill:none;stroke:#999;stroke-width:3" />
<path d="M693.31,14.75c0.56,0.75,0.66,1.97,0.59,2.64c-0.77,6.73-0.9,10.11-1.82,17.13" style="fill:none;stroke:#999;stroke-width:3" />
<path d="M680.3299999999999,37.25c1.13,0,5.59-0.5,9.07-0.9c1.97-0.23,3.63-0.42,4.2-0.47" style="fill:none;stroke:#999;stroke-width:3" />
<path d="M670.51,47.6c0.5,0.74,0.8,1.54,0.9,2.41c0.87,4.46,1.39,9.67,2.06,13.94" style="fill:none;stroke:#999;stroke-width:3" />
<path d="M671.73,48.46c8.54-1.1,20.19-2.49,25.04-3.23c2.18-0.33,3.85,0.61,3.33,3.17c-0.53,2.67-1.35,5.11-2.68,9.87" style="fill:none;stroke:#999;stroke-width:3" />
<path d="M674.5,61.88c5.62-0.63,17.5-2.13,24.48-2.63" style="fill:none;stroke:black;stroke-width:3" />
<circle cx="674.5" cy="61.88" r="5" stroke-width="0" fill="#FF2A00" opacity="0.7" />
<path d="M775.4,27.63c2.45,0.46,4.83,0.27,7.35-0.09c6.64-0.93,15.12-2.29,23.76-2.98c2.1-0.17,4.15-0.12,6.2,0.26" style="fill:none;stroke:#999;stroke-width:3" />
<path d="M784.35,17.96c0.72,0.72,0.96,1.42,1.09,2.64c0.57,5.35,0.98,8.61,1.49,12.78c0.22,1.79,0.46,3.75,0.73,6.12" style="fill:none;stroke:#999;stroke-width:3" />
<path d="M802.31,14.75c0.56,0.75,0.66,1.97,0.59,2.64c-0.77,6.73-0.9,10.11-1.82,17.13" style="fill:none;stroke:#999;stroke-width:3" />
<path d="M789.3299999999999,37.25c1.13,0,5.59-0.5,9.07-0.9c1.97-0.23,3.63-0.42,4.2-0.47" style="fill:none;stroke:#999;stroke-width:3" />
<path d="M779.51,47.6c0.5,0.74,0.8,1.54,0.9,2.41c0.87,4.46,1.39,9.67,2.06,13.94" style="fill:none;stroke:#999;stroke-width:3" />
<path d="M780.73,48.46c8.54-1.1,20.19-2.49,25.04-3.23c2.18-0.33,3.85,0.61,3.33,3.17c-0.53,2.67-1.35,5.11-2.68,9.87" style="fill:none;stroke:#999;stroke-width:3" />
<path d="M783.5,61.88c5.62-0.63,17.5-2.13,24.48-2.63" style="fill:none;stroke:#999;stroke-width:3" />
<path d="M775.5,73.95c2.62,0.77,5.14,0.24,7.89-0.12c8.49-1.08,15.11-2.08,22.72-2.66c2.1-0.16,4.51-0.27,6.39,0.62" style="fill:none;stroke:black;stroke-width:3" />
<circle cx="775.5" cy="73.95" r="5" stroke-width="0" fill="#FF2A00" opacity="0.7" />
<path d="M884.4,27.63c2.45,0.46,4.83,0.27,7.35-0.09c6.64-0.93,15.12-2.29,23.76-2.98c2.1-0.17,4.15-0.12,6.2,0.26" style="fill:none;stroke:#999;stroke-width:3" />
<path d="M893.35,17.96c0.72,0.72,0.96,1.42,1.09,2.64c0.57,5.35,0.98,8.61,1.49,12.78c0.22,1.79,0.46,3.75,0.73,6.12" style="fill:none;stroke:#999;stroke-width:3" />
<path d="M911.31,14.75c0.56,0.75,0.66,1.97,0.59,2.64c-0.77,6.73-0.9,10.11-1.82,17.13" style="fill:none;stroke:#999;stroke-width:3" />
<path d="M898.3299999999999,37.25c1.13,0,5.59-0.5,9.07-0.9c1.97-0.23,3.63-0.42,4.2-0.47" style="fill:none;stroke:#999;stroke-width:3" />
<path d="M888.51,47.6c0.5,0.74,0.8,1.54,0.9,2.41c0.87,4.46,1.39,9.67,2.06,13.94" style="fill:none;stroke:#999;stroke-width:3" />
<path d="M889.73,48.46c8.54-1.1,20.19-2.49,25.04-3.23c2.18-0.33,3.85,0.61,3.33,3.17c-0.53,2.67-1.35,5.11-2.68,9.87" style="fill:none;stroke:#999;stroke-width:3" />
<path d="M892.5,61.88c5.62-0.63,17.5-2.13,24.48-2.63" style="fill:none;stroke:#999;stroke-width:3" />
<path d="M884.5,73.95c2.62,0.77,5.14,0.24,7.89-0.12c8.49-1.08,15.11-2.08,22.72-2.66c2.1-0.16,4.51-0.27,6.39,0.62" style="fill:none;stroke:#999;stroke-width:3" />
<path d="M902.46,39.75c0.83,0.83,1.04,2.23,1.04,3.25c0,6.52,0,30.83-0.06,44.62c-0.02,4.19-0.04,7.42-0.07,8.88" style="fill:none;stroke:black;stroke-width:3" />
<circle cx="902.46" cy="39.75" r="5" stroke-width="0" fill="#FF2A00" opacity="0.7" />
<path d="M993.4,27.63c2.45,0.46,4.83,0.27,7.35-0.09c6.64-0.93,15.12-2.29,23.76-2.98c2.1-0.17,4.15-0.12,6.2,0.26" style="fill:none;stroke:#999;stroke-width:3" />
<path d="M1002.35,17.96c0.72,0.72,0.96,1.42,1.09,2.64c0.57,5.35,0.98,8.61,1.49,12.78c0.22,1.79,0.46,3.75,0.73,6.12" style="fill:none;stroke:#999;stroke-width:3" />
<path d="M1020.31,14.75c0.56,0.75,0.66,1.97,0.59,2.64c-0.77,6.73-0.9,10.11-1.82,17.13" style="fill:none;stroke:#999;stroke-width:3" />
<path d="M1007.3299999999999,37.25c1.13,0,5.59-0.5,9.07-0.9c1.97-0.23,3.63-0.42,4.2-0.47" style="fill:none;stroke:#999;stroke-width:3" />
<path d="M997.51,47.6c0.5,0.74,0.8,1.54,0.9,2.41c0.87,4.46,1.39,9.67,2.06,13.94" style="fill:none;stroke:#999;stroke-width:3" />
<path d="M998.73,48.46c8.54-1.1,20.19-2.49,25.04-3.23c2.18-0.33,3.85,0.61,3.33,3.17c-0.53,2.67-1.35,5.11-2.68,9.87" style="fill:none;stroke:#999;stroke-width:3" />
<path d="M1001.5,61.88c5.62-0.63,17.5-2.13,24.48-2.63" style="fill:none;stroke:#999;stroke-width:3" />
<path d="M993.5,73.95c2.62,0.77,5.14,0.24,7.89-0.12c8.49-1.08,15.11-2.08,22.72-2.66c2.1-0.16,4.51-0.27,6.39,0.62" style="fill:none;stroke:#999;stroke-width:3" />
<path d="M1011.46,39.75c0.83,0.83,1.04,2.23,1.04,3.25c0,6.52,0,30.83-0.06,44.62c-0.02,4.19-0.04,7.42-0.07,8.88" style="fill:none;stroke:#999;stroke-width:3" />
<path d="M1047.06,16.25c0.22,1.27,0.06,2.45-0.5,3.56c-2.24,5.61-7.09,14.74-13.95,22.13" style="fill:none;stroke:black;stroke-width:3" />
<circle cx="1047.06" cy="16.25" r="5" stroke-width="0" fill="#FF2A00" opacity="0.7" />
<path d="M1102.4,27.63c2.45,0.46,4.83,0.27,7.35-0.09c6.64-0.93,15.12-2.29,23.76-2.98c2.1-0.17,4.15-0.12,6.2,0.26" style="fill:none;stroke:#999;stroke-width:3" />
<path d="M1111.35,17.96c0.72,0.72,0.96,1.42,1.09,2.64c0.57,5.35,0.98,8.61,1.49,12.78c0.22,1.79,0.46,3.75,0.73,6.12" style="fill:none;stroke:#999;stroke-width:3" />
<path d="M1129.31,14.75c0.56,0.75,0.66,1.97,0.59,2.64c-0.77,6.73-0.9,10.11-1.82,17.13" style="fill:none;stroke:#999;stroke-width:3" />
<path d="M1116.33,37.25c1.13,0,5.59-0.5,9.07-0.9c1.97-0.23,3.63-0.42,4.2-0.47" style="fill:none;stroke:#999;stroke-width:3" />
<path d="M1106.51,47.6c0.5,0.74,0.8,1.54,0.9,2.41c0.87,4.46,1.39,9.67,2.06,13.94" style="fill:none;stroke:#999;stroke-width:3" />
<path d="M1107.73,48.46c8.54-1.1,20.19-2.49,25.04-3.23c2.18-0.33,3.85,0.61,3.33,3.17c-0.53,2.67-1.35,5.11-2.68,9.87" style="fill:none;stroke:#999;stroke-width:3" />
<path d="M1110.5,61.88c5.62-0.63,17.5-2.13,24.48-2.63" style="fill:none;stroke:#999;stroke-width:3" />
<path d="M1102.5,73.95c2.62,0.77,5.14,0.24,7.89-0.12c8.49-1.08,15.11-2.08,22.72-2.66c2.1-0.16,4.51-0.27,6.39,0.62" style="fill:none;stroke:#999;stroke-width:3" />
<path d="M1120.46,39.75c0.83,0.83,1.04,2.23,1.04,3.25c0,6.52,0,30.83-0.06,44.62c-0.02,4.19-0.04,7.42-0.07,8.88" style="fill:none;stroke:#999;stroke-width:3" />
<path d="M1156.06,16.25c0.22,1.27,0.06,2.45-0.5,3.56c-2.24,5.61-7.09,14.74-13.95,22.13" style="fill:none;stroke:#999;stroke-width:3" />
<path d="M1151.59,32.03c1.69,0.48,3.38,0.55,5.06,0.2c4.57-0.67,15.58-2.28,20.2-2.86c3.27-0.41,5.44,0.91,4.99,4.39c-1.27,9.98-3.19,21.73-7.87,33.74c-1.58,4.06-3.86,6-7.46,1.83" style="fill:none;stroke:black;stroke-width:3" />
<circle cx="1151.59" cy="32.03" r="5" stroke-width="0" fill="#FF2A00" opacity="0.7" />
<path d="M1211.4,27.63c2.45,0.46,4.83,0.27,7.35-0.09c6.64-0.93,15.12-2.29,23.76-2.98c2.1-0.17,4.15-0.12,6.2,0.26" style="fill:none;stroke:#999;stroke-width:3" />
<path d="M1220.35,17.96c0.72,0.72,0.96,1.42,1.09,2.64c0.57,5.35,0.98,8.61,1.49,12.78c0.22,1.79,0.46,3.75,0.73,6.12" style="fill:none;stroke:#999;stroke-width:3" />
<path d="M1238.31,14.75c0.56,0.75,0.66,1.97,0.59,2.64c-0.77,6.73-0.9,10.11-1.82,17.13" style="fill:none;stroke:#999;stroke-width:3" />
<path d="M1225.33,37.25c1.13,0,5.59-0.5,9.07-0.9c1.97-0.23,3.63-0.42,4.2-0.47" style="fill:none;stroke:#999;stroke-width:3" />
<path d="M1215.51,47.6c0.5,0.74,0.8,1.54,0.9,2.41c0.87,4.46,1.39,9.67,2.06,13.94" style="fill:none;stroke:#999;stroke-width:3" />
<path d="M1216.73,48.46c8.54-1.1,20.19-2.49,25.04-3.23c2.18-0.33,3.85,0.61,3.33,3.17c-0.53,2.67-1.35,5.11-2.68,9.87" style="fill:none;stroke:#999;stroke-width:3" />
<path d="M1219.5,61.88c5.62-0.63,17.5-2.13,24.48-2.63" style="fill:none;stroke:#999;stroke-width:3" />
<path d="M1211.5,73.95c2.62,0.77,5.14,0.24,7.89-0.12c8.49-1.08,15.11-2.08,22.72-2.66c2.1-0.16,4.51-0.27,6.39,0.62" style="fill:none;stroke:#999;stroke-width:3" />
<path d="M1229.46,39.75c0.83,0.83,1.04,2.23,1.04,3.25c0,6.52,0,30.83-0.06,44.62c-0.02,4.19-0.04,7.42-0.07,8.88" style="fill:none;stroke:#999;stroke-width:3" />
<path d="M1265.06,16.25c0.22,1.27,0.06,2.45-0.5,3.56c-2.24,5.61-7.09,14.74-13.95,22.13" style="fill:none;stroke:#999;stroke-width:3" />
<path d="M1260.59,32.03c1.69,0.48,3.38,0.55,5.06,0.2c4.57-0.67,15.58-2.28,20.2-2.86c3.27-0.41,5.44,0.91,4.99,4.39c-1.27,9.98-3.19,21.73-7.87,33.74c-1.58,4.06-3.86,6-7.46,1.83" style="fill:none;stroke:#999;stroke-width:3" />
<path d="M1253.56,46.09c1.73,0.66,3.47,0.81,5.21,0.46c4.04-0.59,9.37-1.69,11.87-1.94c2.36-0.23,4.06,0.66,3.29,3.16C1272.62,52,1271.75,55,1270.14,59.84" style="fill:none;stroke:black;stroke-width:3" />
<circle cx="1253.56" cy="46.09" r="5" stroke-width="0" fill="#FF2A00" opacity="0.7" />
<path d="M1320.4,27.63c2.45,0.46,4.83,0.27,7.35-0.09c6.64-0.93,15.12-2.29,23.76-2.98c2.1-0.17,4.15-0.12,6.2,0.26" style="fill:none;stroke:#999;stroke-width:3" />
<path d="M1329.35,17.96c0.72,0.72,0.96,1.42,1.09,2.64c0.57,5.35,0.98,8.61,1.49,12.78c0.22,1.79,0.46,3.75,0.73,6.12" style="fill:none;stroke:#999;stroke-width:3" />
<path d="M1347.31,14.75c0.56,0.75,0.66,1.97,0.59,2.64c-0.77,6.73-0.9,10.11-1.82,17.13" style="fill:none;stroke:#999;stroke-width:3" />
<path d="M1334.33,37.25c1.13,0,5.59-0.5,9.07-0.9c1.97-0.23,3.63-0.42,4.2-0.47" style="fill:none;stroke:#999;stroke-width:3" />
<path d="M1324.51,47.6c0.5,0.74,0.8,1.54,0.9,2.41c0.87,4.46,1.39,9.67,2.06,13.94" style="fill:none;stroke:#999;stroke-width:3" />
<path d="M1325.73,48.46c8.54-1.1,20.19-2.49,25.04-3.23c2.18-0.33,3.85,0.61,3.33,3.17c-0.53,2.67-1.35,5.11-2.68,9.87" style="fill:none;stroke:#999;stroke-width:3" />
<path d="M1328.5,61.88c5.62-0.63,17.5-2.13,24.48-2.63" style="fill:none;stroke:#999;stroke-width:3" />
<path d="M1320.5,73.95c2.62,0.77,5.14,0.24,7.89-0.12c8.49-1.08,15.11-2.08,22.72-2.66c2.1-0.16,4.51-0.27,6.39,0.62" style="fill:none;stroke:#999;stroke-width:3" />
<path d="M1338.46,39.75c0.83,0.83,1.04,2.23,1.04,3.25c0,6.52,0,30.83-0.06,44.62c-0.02,4.19-0.04,7.42-0.07,8.88" style="fill:none;stroke:#999;stroke-width:3" />
<path d="M1374.06,16.25c0.22,1.27,0.06,2.45-0.5,3.56c-2.24,5.61-7.09,14.74-13.95,22.13" style="fill:none;stroke:#999;stroke-width:3" />
<path d="M1369.59,32.03c1.69,0.48,3.38,0.55,5.06,0.2c4.57-0.67,15.58-2.28,20.2-2.86c3.27-0.41,5.44,0.91,4.99,4.39c-1.27,9.98-3.19,21.73-7.87,33.74c-1.58,4.06-3.86,6-7.46,1.83" style="fill:none;stroke:#999;stroke-width:3" />
<path d="M1362.56,46.09c1.73,0.66,3.47,0.81,5.21,0.46c4.04-0.59,9.37-1.69,11.87-1.94c2.36-0.23,4.06,0.66,3.29,3.16C1381.62,52,1380.75,55,1379.14,59.84" style="fill:none;stroke:#999;stroke-width:3" />
<path d="M1365.05,62.61c2.77-0.32,7.58-1.09,12.08-1.64c1.66-0.2,3.28-0.37,4.74-0.47" style="fill:none;stroke:black;stroke-width:3" />
<circle cx="1365.05" cy="62.61" r="5" stroke-width="0" fill="#FF2A00" opacity="0.7" />
<path d="M1429.4,27.63c2.45,0.46,4.83,0.27,7.35-0.09c6.64-0.93,15.12-2.29,23.76-2.98c2.1-0.17,4.15-0.12,6.2,0.26" style="fill:none;stroke:#999;stroke-width:3" />
<path d="M1438.35,17.96c0.72,0.72,0.96,1.42,1.09,2.64c0.57,5.35,0.98,8.61,1.49,12.78c0.22,1.79,0.46,3.75,0.73,6.12" style="fill:none;stroke:#999;stroke-width:3" />
<path d="M1456.31,14.75c0.56,0.75,0.66,1.97,0.59,2.64c-0.77,6.73-0.9,10.11-1.82,17.13" style="fill:none;stroke:#999;stroke-width:3" />
<path d="M1443.33,37.25c1.13,0,5.59-0.5,9.07-0.9c1.97-0.23,3.63-0.42,4.2-0.47" style="fill:none;stroke:#999;stroke-width:3" />
<path d="M1433.51,47.6c0.5,0.74,0.8,1.54,0.9,2.41c0.87,4.46,1.39,9.67,2.06,13.94" style="fill:none;stroke:#999;stroke-width:3" />
<path d="M1434.73,48.46c8.54-1.1,20.19-2.49,25.04-3.23c2.18-0.33,3.85,0.61,3.33,3.17c-0.53,2.67-1.35,5.11-2.68,9.87" style="fill:none;stroke:#999;stroke-width:3" />
<path d="M1437.5,61.88c5.62-0.63,17.5-2.13,24.48-2.63" style="fill:none;stroke:#999;stroke-width:3" />
<path d="M1429.5,73.95c2.62,0.77,5.14,0.24,7.89-0.12c8.49-1.08,15.11-2.08,22.72-2.66c2.1-0.16,4.51-0.27,6.39,0.62" style="fill:none;stroke:#999;stroke-width:3" />
<path d="M1447.46,39.75c0.83,0.83,1.04,2.23,1.04,3.25c0,6.52,0,30.83-0.06,44.62c-0.02,4.19-0.04,7.42-0.07,8.88" style="fill:none;stroke:#999;stroke-width:3" />
<path d="M1483.06,16.25c0.22,1.27,0.06,2.45-0.5,3.56c-2.24,5.61-7.09,14.74-13.95,22.13" style="fill:none;stroke:#999;stroke-width:3" />
<path d="M1478.59,32.03c1.69,0.48,3.38,0.55,5.06,0.2c4.57-0.67,15.58-2.28,20.2-2.86c3.27-0.41,5.44,0.91,4.99,4.39c-1.27,9.98-3.19,21.73-7.87,33.74c-1.58,4.06-3.86,6-7.46,1.83" style="fill:none;stroke:#999;stroke-width:3" />
<path d="M1471.56,46.09c1.73,0.66,3.47,0.81,5.21,0.46c4.04-0.59,9.37-1.69,11.87-1.94c2.36-0.23,4.06,0.66,3.29,3.16C1490.62,52,1489.75,55,1488.14,59.84" style="fill:none;stroke:#999;stroke-width:3" />
<path d="M1474.05,62.61c2.77-0.32,7.58-1.09,12.08-1.64c1.66-0.2,3.28-0.37,4.74-0.47" style="fill:none;stroke:#999;stroke-width:3" />
<path d="M1472.11,61.05c0.81,0.81,0.9,2.06,0.89,3.7c-0.03,5.25,0.03,11.41,0.03,15.99c0,9.96,0.2,12.7,19.25,12.7c17.72,0,18.86-2.94,18.86-13.97" style="fill:none;stroke:black;stroke-width:3" />
<circle cx="1472.11" cy="61.05" r="5" stroke-width="0" fill="#FF2A00" opacity="0.7" />
</svg>