<svg width="1744px" height="109px" viewBox="0 0 1744px 109px" xmlns="http://www.w3.org/2000/svg" xmlns:xlink="http://www.w3.org/1999/xlink" xml:space="preserve" version="1.1"  baseProfile="full">
<line x1="1" y1="1" x2="1743" y2="1" style="stroke:#ddd;stroke-width:2" />
<line x1="1" y1="1" x2="1" y2="108" style="stroke:#ddd;stroke-width:2" />
<line x1="1" y1="108" x2="1743" y2="108" style="stroke:#ddd;stroke-width:2" />
<line x1="1743" y1="1" x2="1743" y2="108" style="stroke:#ddd;stroke-width:2" />
<line x1="109" y1="1" x2="109" y2="108" style="stroke:#ddd;stroke-width:2" />
<line x1="218" y1="1" x2="218" y2="108" style="stroke:#ddd;stroke-width:2" />
<line x1="327" y1="1" x2="327" y2="108" style="stroke:#ddd;stroke-width:2" />
<line x1="436" y1="1" x2="436" y2="108" style="stroke:#ddd;stroke-width:2" />
<line x1="545" y1="1" x2="545" y2="108" style="stroke:#ddd;stroke-width:2" />
<line x1="654" y1="1" x2="654" y2="108" style="stroke:#ddd;stroke-width:2" />
<line x1="763" y1="1" x2="763" y2="108" style="stroke:#ddd;stroke-width:2" />
<line x1="872" y1="1" x2="872" y2="108" style="stroke:#ddd;stroke-width:2" />
<line x1="981" y1="1" x2="981" y2="108" style="stroke:#ddd;stroke-width:2" />
<line x1="1090" y1="1" x2="1090" y2="108" style="stroke:#ddd;stroke-width:2" />
<line x1="1199" y1="1" x2="1199" y2="108" style="stroke:#ddd;stroke-width:2" />
<line x1="1308" y1="1" x2="1308" y2="108" style="stroke:#ddd;stroke-width:2" />
<line x1="1417" y1="1" x2="1417" y2="108" style="stroke:#ddd;stroke-width:2" />
<line x1="1526" y1="1" x2="1526" y2="108" style="stroke:#ddd;stroke-width:2" />
<line x1="1635" y1="1" x2="1635" y2="108" style="stroke:#ddd;stroke-width:2" />
<line x1="1" y1="54" x2="1743" y2="54" style="stroke:#ddd;stroke-width:2;stroke-dasharray:3 3" />
<line x1="55" y1="1" x2="55" y2="108" style="stroke:#ddd;stroke-width:2;stroke-dasharray:3 3" />
<line x1="164" y1="1" x2="164" y2="108" style="stroke:#ddd;stroke-width:2;stroke-dasharray:3 3" />
<line x1="273" y1="1" x2="273" y2="108" style="stroke:#ddd;stroke-width:2;stroke-dasharray:3 3" />
<line x1="382" y1="1" x2="382" y2="108" style="stroke:#ddd;stroke-width:2;stroke-dasharray:3 3" />
<line x1="491" y1="1" x2="491" y2="108" style="stroke:#ddd;stroke-width:2;stroke-dasharray:3 3" />
<line x1="600" y1="1" x2="600" y2="108" style="stroke:#ddd;stroke-width:2;stroke-dasharray:3 3" />
<line x1="709" y1="1" x2="709" y2="108" style="stroke:#ddd;stroke-width:2;stroke-dasharray:3 3" />
<line x1="818" y1="1" x2="818" y2="108" style="stroke:#ddd;stroke-width:2;stroke-dasharray:3 3" />
<line x1="927" y1="1" x2="927" y2="108" style="stroke:#ddd;stroke-width:2;stroke-dasharray:3 3" />
<line x1="1036" y1="1" x2="1036" y2="108" style="stroke:#ddd;stroke-width:2;stroke-dasharray:3 3" />
<line x1="1145" y1="1" x2="1145" y2="108" style="stroke:#ddd;stroke-width:2;stroke-dasharray:3 3" />
<line x1="1254" y1="1" x2="1254" y2="108" style="stroke:#ddd;stroke-width:2;stroke-dasharray:3 3" />
<line x1="1363" y1="1" x2="1363" y2="108" style="stroke:#ddd;stroke-width:2;stroke-dasharray:3 3" />
<line x1="1472" y1="1" x2="1472" y2="108" style="stroke:#ddd;stroke-width:2;stroke-dasharray:3 3" />
<line x1="1581" y1="1" x2="1581" y2="108" style="stroke:#ddd;stroke-width:2;stroke-dasharray:3 3" />
<line x1="1690" y1="1" x2="1690" y2="108" style="stroke:#ddd;stroke-width:2;stroke-dasharray:3 3" />
<path d="M11.9,23.88c2.11,0.35,4.23,0.44,6.36,0.13c8.86-1.26,13.99-1.51,23.48-2.2c2.28-0.17,4.5-0.38,6.73,0.02" style="fill:none;stroke:black;stroke-width:3" />
<circle cx="11.9" cy="23.88" r="5" stroke-width="0" fill="#FF2A00" opacity="0.7" />
<path d="M120.9,23.88c2.11,0.35,4.23,0.44,6.36,0.13c8.86-1.26,13.99-1.51,23.48-2.2c2.28-0.17,4.5-0.38,6.73,0.02" style="fill:none;stroke:#999;stroke-width:3" />
<path d="M127.1,15.46c0.91,0.91,1.18,1.86,1.24,3.02c0.53,3.98,1.24,8.18,1.74,13.02c0.19,1.85,0.38,3.83,0.59,6" style="fill:none;stroke:black;stroke-width:3" />
<circle cx="127.1" cy="15.46" r="5" stroke-width="0" fill="#FF2A00" opacity="0.7" />
<path d="M229.9,23.88c2.11,0.35,4.23,0.44,6.36,0.13c8.86-1.26,13.99-1.51,23.48-2.2c2.28-0.17,4.5-0.38,6.73,0.02" style="fill:none;stroke:#999;stroke-width:3" />
<path d="M236.1,15.46c0.91,0.91,1.18,1.86,1.24,3.02c0.53,3.98,1.24,8.18,1.74,13.02c0.19,1.85,0.38,3.83,0.59,6" style="fill:none;stroke:#999;stroke-width:3" />
<path d="M255.56,13.75c0.81,1.25,0.82,2.46,0.67,3.89c-0.61,5.99-0.98,7.49-2.15,16.39" style="fill:none;stroke:black;stroke-width:3" />
<circle cx="255.56" cy="13.75" r="5" stroke-width="0" fill="#FF2A00" opacity="0.7" />
<path d="M338.9,23.88c2.11,0.35,4.23,0.44,6.36,0.13c8.86-1.26,13.99-1.51,23.48-2.2c2.28-0.17,4.5-0.38,6.73,0.02" style="fill:none;stroke:#999;stroke-width:3" />
<path d="M345.1,15.46c0.91,0.91,1.18,1.86,1.24,3.02c0.53,3.98,1.24,8.18,1.74,13.02c0.19,1.85,0.38,3.83,0.59,6" style="fill:none;stroke:#999;stroke-width:3" />
<path d="M364.56,13.75c0.81,1.25,0.82,2.46,0.67,3.89c-0.61,5.99-0.98,7.49-2.15,16.39" style="fill:none;stroke:#999;stroke-width:3" />
<path d="M349.58,36c3.05-0.28,7.82-0.57,11.92-0.85c1.33-0.09,2.57-0.18,3.6-0.27" style="fill:none;stroke:black;stroke-width:3" />
<circle cx="349.58" cy="36.0" r="5" stroke-width="0" fill="#FF2A00" opacity="0.7" />
<path d="M447.9,23.88c2.11,0.35,4.23,0.44,6.36,0.13c8.86-1.26,13.99-1.51,23.48-2.2c2.28-0.17,4.5-0.38,6.73,0.02" style="fill:none;stroke:#999;stroke-width:3" />
<path d="M454.1,15.46c0.91,0.91,1.18,1.86,1.24,3.02c0.53,3.98,1.24,8.18,1.74,13.02c0.19,1.85,0.38,3.83,0.59,6" style="fill:none;stroke:#999;stroke-width:3" />
<path d="M473.56,13.75c0.81,1.25,0.82,2.46,0.67,3.89c-0.61,5.99-0.98,7.49-2.15,16.39" style="fill:none;stroke:#999;stroke-width:3" />
<path d="M458.58,36c3.05-0.28,7.82-0.57,11.92-0.85c1.33-0.09,2.57-0.18,3.6-0.27" style="fill:none;stroke:#999;stroke-width:3" />
<path d="M449.26,46.35c1.07,1.07,1.39,2.42,1.57,3.74c0.57,3.22,1.09,6.2,1.63,9.63c0.25,1.55,0.5,3.19,0.76,4.99" style="fill:none;stroke:black;stroke-width:3" />
<circle cx="449.26" cy="46.35" r="5" stroke-width="0" fill="#FF2A00" opacity="0.7" />
<path d="M556.9,23.88c2.11,0.35,4.23,0.44,6.36,0.13c8.86-1.26,13.99-1.51,23.48-2.2c2.28-0.17,4.5-0.38,6.73,0.02" style="fill:none;stroke:#999;stroke-width:3" />
<path d="M563.1,15.46c0.91,0.91,1.18,1.86,1.24,3.02c0.53,3.98,1.24,8.18,1.74,13.02c0.19,1.85,0.38,3.83,0.59,6" style="fill:none;stroke:#999;stroke-width:3" />
<path d="M582.56,13.75c0.81,1.25,0.82,2.46,0.67,3.89c-0.61,5.99-0.98,7.49-2.15,16.39" style="fill:none;stroke:#999;stroke-width:3" />
<path d="M567.5799999999999,36c3.05-0.28,7.82-0.57,11.92-0.85c1.33-0.09,2.57-0.18,3.6-0.27" style="fill:none;stroke:#999;stroke-width:3" />
<path d="M558.26,46.35c1.07,1.07,1.39,2.42,1.57,3.74c0.57,3.22,1.09,6.2,1.63,9.63c0.25,1.55,0.5,3.19,0.76,4.99" style="fill:none;stroke:#999;stroke-width:3" />
<path d="M560.73,47.96c8.59-1.2,19.27-2.58,25.42-3.21c2.68-0.28,3.91,0.93,3.37,3.65c-0.57,2.87-1.67,6.92-2.59,11.38" style="fill:none;stroke:black;stroke-width:3" />
<circle cx="560.73" cy="47.96" r="5" stroke-width="0" fill="#FF2A00" opacity="0.7" />
<path d="M665.9,23.88c2.11,0.35,4.23,0.44,6.36,0.13c8.86-1.26,13.99-1.51,23.48-2.2c2.28-0.17,4.5-0.38,6.73,0.02" style="fill:none;stroke:#999;stroke-width:3" />
<path d="M672.1,15.46c0.91,0.91,1.18,1.86,1.24,3.02c0.53,3.98,1.24,8.18,1.74,13.02c0.19,1.85,0.38,3.83,0.59,6" style="fill:none;stroke:#999;stroke-width:3" />
<path d="M691.56,13.75c0.81,1.25,0.82,2.46,0.67,3.89c-0.61,5.99-0.98,7.49-2.15,16.39" style="fill:none;stroke:#999;stroke-width:3" />
<path d="M676.5799999999999,36c3.05-0.28,7.82-0.57,11.92-0.85c1.33-0.09,2.57-0.18,3.6-0.27" style="fill:none;stroke:#999;stroke-width:3" />
<path d="M667.26,46.35c1.07,1.07,1.39,2.42,1.57,3.74c0.57,3.22,1.09,6.2,1.63,9.63c0.25,1.55,0.5,3.19,0.76,4.99" style="fill:none;stroke:#999;stroke-width:3" />
<path d="M669.73,47.96c8.59-1.2,19.27-2.58,25.42-3.21c2.68-0.28,3.91,0.93,3.37,3.65c-0.57,2.87-1.67,6.92-2.59,11.38" style="fill:none;stroke:#999;stroke-width:3" />
<path d="M672.0,62.63c4.24-0.39,12.67-1.14,19.63-1.7c2.07-0.17,4-0.31,5.6-0.43" style="fill:none;stroke:black;stroke-width:3" />
<circle cx="672.0" cy="62.63" r="5" stroke-width="0" fill="#FF2A00" opacity="0.7" />
<path d="M774.9,23.88c2.11,0.35,4.23,0.44,6.36,0.13c8.86-1.26,13.99-1.51,23.48-2.2c2.28-0.17,4.5-0.38,6.73,0.02" style="fill:none;stroke:#999;stroke-width:3" />
<path d="M781.1,15.46c0.91,0.91,1.18,1.86,1.24,3.02c0.53,3.98,1.24,8.18,1.74,13.02c0.19,1.85,0.38,3.83,0.59,6" style="fill:none;stroke:#999;stroke-width:3" />
<path d="M800.56,13.75c0.81,1.25,0.82,2.46,0.67,3.89c-0.61,5.99-0.98,7.49-2.15,16.39" style="fill:none;stroke:#999;stroke-width:3" />
<path d="M785.5799999999999,36c3.05-0.28,7.82-0.57,11.92-0.85c1.33-0.09,2.57-0.18,3.6-0.27" style="fill:none;stroke:#999;stroke-width:3" />
<path d="M776.26,46.35c1.07,1.07,1.39,2.42,1.57,3.74c0.57,3.22,1.09,6.2,1.63,9.63c0.25,1.55,0.5,3.19,0.76,4.99" style="fill:none;stroke:#999;stroke-width:3" />
<path d="M778.73,47.96c8.59-1.2,19.27-2.58,25.42-3.21c2.68-0.28,3.91,0.93,3.37,3.65c-0.57,2.87-1.67,6.92-2.59,11.38" style="fill:none;stroke:#999;stroke-width:3" />
<path d="M781.0,62.63c4.24-0.39,12.67-1.14,19.63-1.7c2.07-0.17,4-0.31,5.6-0.43" style="fill:none;stroke:#999;stroke-width:3" />
<path d="M771.75,75.08c2.9,0.58,5.8,0.53,8.74,0.1c7.38-1.06,16.51-1.68,24.26-2.05c2.43-0.11,4.84-0.2,7.25,0.04" style="fill:none;stroke:black;stroke-width:3" />
<circle cx="771.75" cy="75.08" r="5" stroke-width="0" fill="#FF2A00" opacity="0.7" />
<path d="M883.9,23.88c2.11,0.35,4.23,0.44,6.36,0.13c8.86-1.26,13.99-1.51,23.48-2.2c2.28-0.17,4.5-0.38,6.73,0.02" style="fill:none;stroke:#999;stroke-width:3" />
<path d="M890.1,15.46c0.91,0.91,1.18,1.86,1.24,3.02c0.53,3.98,1.24,8.18,1.74,13.02c0.19,1.85,0.38,3.83,0.59,6" style="fill:none;stroke:#999;stroke-width:3" />
<path d="M909.56,13.75c0.81,1.25,0.82,2.46,0.67,3.89c-0.61,5.99-0.98,7.49-2.15,16.39" style="fill:none;stroke:#999;stroke-width:3" />
<path d="M894.5799999999999,36c3.05-0.28,7.82-0.57,11.92-0.85c1.33-0.09,2.57-0.18,3.6-0.27" style="fill:none;stroke:#999;stroke-width:3" />
<path d="M885.26,46.35c1.07,1.07,1.39,2.42,1.57,3.74c0.57,3.22,1.09,6.2,1.63,9.63c0.25,1.55,0.5,3.19,0.76,4.99" style="fill:none;stroke:#999;stroke-width:3" />
<path d="M887.73,47.96c8.59-1.2,19.27-2.58,25.42-3.21c2.68-0.28,3.91,0.93,3.37,3.65c-0.57,2.87-1.67,6.92-2.59,11.38" style="fill:none;stroke:#999;stroke-width:3" />
<path d="M890.0,62.63c4.24-0.39,12.67-1.14,19.63-1.7c2.07-0.17,4-0.31,5.6-0.43" style="fill:none;stroke:#999;stroke-width:3" />
<path d="M880.75,75.08c2.9,0.58,5.8,0.53,8.74,0.1c7.38-1.06,16.51-1.68,24.26-2.05c2.43-0.11,4.84-0.2,7.25,0.04" style="fill:none;stroke:#999;stroke-width:3" />
<path d="M900.57,38.5c1.03,1.03,1.06,2.38,1.06,3.75c0,6.63,0.04,32.58,0.06,47c0,4.06,0.01,7.21,0.01,8.75" style="fill:none;stroke:black;stroke-width:3" />
<circle cx="900.57" cy="38.5" r="5" stroke-width="0" fill="#FF2A00" opacity="0.7" />
<path d="M992.9,23.88c2.11,0.35,4.23,0.44,6.36,0.13c8.86-1.26,13.99-1.51,23.48-2.2c2.28-0.17,4.5-0.38,6.73,0.02" style="fill:none;stroke:#999;stroke-width:3" />
<path d="M999.1,15.46c0.91,0.91,1.18,1.86,1.24,3.02c0.53,3.98,1.24,8.18,1.74,13.02c0.19,1.85,0.38,3.83,0.59,6" style="fill:none;stroke:#999;stroke-width:3" />
<path d="M1018.56,13.75c0.81,1.25,0.82,2.46,0.67,3.89c-0.61,5.99-0.98,7.49-2.15,16.39" style="fill:none;stroke:#999;stroke-width:3" />
<path d="M1003.5799999999999,36c3.05-0.28,7.82-0.57,11.92-0.85c1.33-0.09,2.57-0.18,3.6-0.27" style="fill:none;stroke:#999;stroke-width:3" />
<path d="M994.26,46.35c1.07,1.07,1.39,2.42,1.57,3.74c0.57,3.22,1.09,6.2,1.63,9.63c0.25,1.55,0.5,3.19,0.76,4.99" style="fill:none;stroke:#999;stroke-width:3" />
<path d="M996.73,47.96c8.59-1.2,19.27-2.58,25.42-3.21c2.68-0.28,3.91,0.93,3.37,3.65c-0.57,2.87-1.67,6.92-2.59,11.38" style="fill:none;stroke:#999;stroke-width:3" />
<path d="M999.0,62.63c4.24-0.39,12.67-1.14,19.63-1.7c2.07-0.17,4-0.31,5.6-0.43" style="fill:none;stroke:#999;stroke-width:3" />
<path d="M989.75,75.08c2.9,0.58,5.8,0.53,8.74,0.1c7.38-1.06,16.51-1.68,24.26-2.05c2.43-0.11,4.84-0.2,7.25,0.04" style="fill:none;stroke:#999;stroke-width:3" />
<path d="M1009.57,38.5c1.03,1.03,1.06,2.38,1.06,3.75c0,6.63,0.04,32.58,0.06,47c0,4.06,0.01,7.21,0.01,8.75" style="fill:none;stroke:#999;stroke-width:3" />
<path d="M1052.99,11.75c1.01,1.01,1.17,2.25,1.17,3.84c0,8.16-0.03,20.88-0.03,24.78" style="fill:none;stroke:black;stroke-width:3" />
<circle cx="1052.99" cy="11.75" r="5" stroke-width="0" fill="#FF2A00" opacity="0.7" />
<path d="M1101.9,23.88c2.11,0.35,4.23,0.44,6.36,0.13c8.86-1.26,13.99-1.51,23.48-2.2c2.28-0.17,4.5-0.38,6.73,0.02" style="fill:none;stroke:#999;stroke-width:3" />
<path d="M1108.1,15.46c0.91,0.91,1.18,1.86,1.24,3.02c0.53,3.98,1.24,8.18,1.74,13.02c0.19,1.85,0.38,3.83,0.59,6" style="fill:none;stroke:#999;stroke-width:3" />
<path d="M1127.56,13.75c0.81,1.25,0.82,2.46,0.67,3.89c-0.61,5.99-0.98,7.49-2.15,16.39" style="fill:none;stroke:#999;stroke-width:3" />
<path d="M1112.58,36c3.05-0.28,7.82-0.57,11.92-0.85c1.33-0.09,2.57-0.18,3.6-0.27" style="fill:none;stroke:#999;stroke-width:3" />
<path d="M1103.26,46.35c1.07,1.07,1.39,2.42,1.57,3.74c0.57,3.22,1.09,6.2,1.63,9.63c0.25,1.55,0.5,3.19,0.76,4.99" style="fill:none;stroke:#999;stroke-width:3" />
<path d="M1105.73,47.96c8.59-1.2,19.27-2.58,25.42-3.21c2.68-0.28,3.91,0.93,3.37,3.65c-0.57,2.87-1.67,6.92-2.59,11.38" style="fill:none;stroke:#999;stroke-width:3" />
<path d="M1108.0,62.63c4.24-0.39,12.67-1.14,19.63-1.7c2.07-0.17,4-0.31,5.6-0.43" style="fill:none;stroke:#999;stroke-width:3" />
<path d="M1098.75,75.08c2.9,0.58,5.8,0.53,8.74,0.1c7.38-1.06,16.51-1.68,24.26-2.05c2.43-0.11,4.84-0.2,7.25,0.04" style="fill:none;stroke:#999;stroke-width:3" />
<path d="M1118.5700000000002,38.5c1.03,1.03,1.06,2.38,1.06,3.75c0,6.63,0.04,32.58,0.06,47c0,4.06,0.01,7.21,0.01,8.75" style="fill:none;stroke:#999;stroke-width:3" />
<path d="M1161.99,11.75c1.01,1.01,1.17,2.25,1.17,3.84c0,8.16-0.03,20.88-0.03,24.78" style="fill:none;stroke:#999;stroke-width:3" />
<path d="M1143.81,19.83c3.21,3.02,7.27,10.54,8.07,15.24" style="fill:none;stroke:black;stroke-width:3" />
<circle cx="1143.81" cy="19.83" r="5" stroke-width="0" fill="#FF2A00" opacity="0.7" />
<path d="M1210.9,23.88c2.11,0.35,4.23,0.44,6.36,0.13c8.86-1.26,13.99-1.51,23.48-2.2c2.28-0.17,4.5-0.38,6.73,0.02" style="fill:none;stroke:#999;stroke-width:3" />
<path d="M1217.1,15.46c0.91,0.91,1.18,1.86,1.24,3.02c0.53,3.98,1.24,8.18,1.74,13.02c0.19,1.85,0.38,3.83,0.59,6" style="fill:none;stroke:#999;stroke-width:3" />
<path d="M1236.56,13.75c0.81,1.25,0.82,2.46,0.67,3.89c-0.61,5.99-0.98,7.49-2.15,16.39" style="fill:none;stroke:#999;stroke-width:3" />
<path d="M1221.58,36c3.05-0.28,7.82-0.57,11.92-0.85c1.33-0.09,2.57-0.18,3.6-0.27" style="fill:none;stroke:#999;stroke-width:3" />
<path d="M1212.26,46.35c1.07,1.07,1.39,2.42,1.57,3.74c0.57,3.22,1.09,6.2,1.63,9.63c0.25,1.55,0.5,3.19,0.76,4.99" style="fill:none;stroke:#999;stroke-width:3" />
<path d="M1214.73,47.96c8.59-1.2,19.27-2.58,25.42-3.21c2.68-0.28,3.91,0.93,3.37,3.65c-0.57,2.87-1.67,6.92-2.59,11.38" style="fill:none;stroke:#999;stroke-width:3" />
<path d="M1217.0,62.63c4.24-0.39,12.67-1.14,19.63-1.7c2.07-0.17,4-0.31,5.6-0.43" style="fill:none;stroke:#999;stroke-width:3" />
<path d="M1207.75,75.08c2.9,0.58,5.8,0.53,8.74,0.1c7.38-1.06,16.51-1.68,24.26-2.05c2.43-0.11,4.84-0.2,7.25,0.04" style="fill:none;stroke:#999;stroke-width:3" />
<path d="M1227.5700000000002,38.5c1.03,1.03,1.06,2.38,1.06,3.75c0,6.63,0.04,32.58,0.06,47c0,4.06,0.01,7.21,0.01,8.75" style="fill:none;stroke:#999;stroke-width:3" />
<path d="M1270.99,11.75c1.01,1.01,1.17,2.25,1.17,3.84c0,8.16-0.03,20.88-0.03,24.78" style="fill:none;stroke:#999;stroke-width:3" />
<path d="M1252.81,19.83c3.21,3.02,7.27,10.54,8.07,15.24" style="fill:none;stroke:#999;stroke-width:3" />
<path d="M1292.45,16.35c0,1.15-0.26,2.06-0.83,3.06c-3.24,5.72-5.26,8.87-9.73,14.35" style="fill:none;stroke:black;stroke-width:3" />
<circle cx="1292.45" cy="16.35" r="5" stroke-width="0" fill="#FF2A00" opacity="0.7" />
<path d="M1319.9,23.88c2.11,0.35,4.23,0.44,6.36,0.13c8.86-1.26,13.99-1.51,23.48-2.2c2.28-0.17,4.5-0.38,6.73,0.02" style="fill:none;stroke:#999;stroke-width:3" />
<path d="M1326.1,15.46c0.91,0.91,1.18,1.86,1.24,3.02c0.53,3.98,1.24,8.18,1.74,13.02c0.19,1.85,0.38,3.83,0.59,6" style="fill:none;stroke:#999;stroke-width:3" />
<path d="M1345.56,13.75c0.81,1.25,0.82,2.46,0.67,3.89c-0.61,5.99-0.98,7.49-2.15,16.39" style="fill:none;stroke:#999;stroke-width:3" />
<path d="M1330.58,36c3.05-0.28,7.82-0.57,11.92-0.85c1.33-0.09,2.57-0.18,3.6-0.27" style="fill:none;stroke:#999;stroke-width:3" />
<path d="M1321.26,46.35c1.07,1.07,1.39,2.42,1.57,3.74c0.57,3.22,1.09,6.2,1.63,9.63c0.25,1.55,0.5,3.19,0.76,4.99" style="fill:none;stroke:#999;stroke-width:3" />
<path d="M1323.73,47.96c8.59-1.2,19.27-2.58,25.42-3.21c2.68-0.28,3.91,0.93,3.37,3.65c-0.57,2.87-1.67,6.92-2.59,11.38" style="fill:none;stroke:#999;stroke-width:3" />
<path d="M1326.0,62.63c4.24-0.39,12.67-1.14,19.63-1.7c2.07-0.17,4-0.31,5.6-0.43" style="fill:none;stroke:#999;stroke-width:3" />
<path d="M1316.75,75.08c2.9,0.58,5.8,0.53,8.74,0.1c7.38-1.06,16.51-1.68,24.26-2.05c2.43-0.11,4.84-0.2,7.25,0.04" style="fill:none;stroke:#999;stroke-width:3" />
<path d="M1336.5700000000002,38.5c1.03,1.03,1.06,2.38,1.06,3.75c0,6.63,0.04,32.58,0.06,47c0,4.06,0.01,7.21,0.01,8.75" style="fill:none;stroke:#999;stroke-width:3" />
<path d="M1379.99,11.75c1.01,1.01,1.17,2.25,1.17,3.84c0,8.16-0.03,20.88-0.03,24.78" style="fill:none;stroke:#999;stroke-width:3" />
<path d="M1361.81,19.83c3.21,3.02,7.27,10.54,8.07,15.24" style="fill:none;stroke:#999;stroke-width:3" />
<path d="M1401.45,16.35c0,1.15-0.26,2.06-0.83,3.06c-3.24,5.72-5.26,8.87-9.73,14.35" style="fill:none;stroke:#999;stroke-width:3" />
<path d="M1364.86,42.44c0.91,0.91,1.24,2.31,1.24,3.78c0,0.73-0.03,24.75-0.04,39.52c0,4.56-0.01,8.23-0.01,10.08" style="fill:none;stroke:black;stroke-width:3" />
<circle cx="1364.86" cy="42.44" r="5" stroke-width="0" fill="#FF2A00" opacity="0.7" />
<path d="M1428.9,23.88c2.11,0.35,4.23,0.44,6.36,0.13c8.86-1.26,13.99-1.51,23.48-2.2c2.28-0.17,4.5-0.38,6.73,0.02" style="fill:none;stroke:#999;stroke-width:3" />
<path d="M1435.1,15.46c0.91,0.91,1.18,1.86,1.24,3.02c0.53,3.98,1.24,8.18,1.74,13.02c0.19,1.85,0.38,3.83,0.59,6" style="fill:none;stroke:#999;stroke-width:3" />
<path d="M1454.56,13.75c0.81,1.25,0.82,2.46,0.67,3.89c-0.61,5.99-0.98,7.49-2.15,16.39" style="fill:none;stroke:#999;stroke-width:3" />
<path d="M1439.58,36c3.05-0.28,7.82-0.57,11.92-0.85c1.33-0.09,2.57-0.18,3.6-0.27" style="fill:none;stroke:#999;stroke-width:3" />
<path d="M1430.26,46.35c1.07,1.07,1.39,2.42,1.57,3.74c0.57,3.22,1.09,6.2,1.63,9.63c0.25,1.55,0.5,3.19,0.76,4.99" style="fill:none;stroke:#999;stroke-width:3" />
<path d="M1432.73,47.96c8.59-1.2,19.27-2.58,25.42-3.21c2.68-0.28,3.91,0.93,3.37,3.65c-0.57,2.87-1.67,6.92-2.59,11.38" style="fill:none;stroke:#999;stroke-width:3" />
<path d="M1435.0,62.63c4.24-0.39,12.67-1.14,19.63-1.7c2.07-0.17,4-0.31,5.6-0.43" style="fill:none;stroke:#999;stroke-width:3" />
<path d="M1425.75,75.08c2.9,0.58,5.8,0.53,8.74,0.1c7.38-1.06,16.51-1.68,24.26-2.05c2.43-0.11,4.84-0.2,7.25,0.04" style="fill:none;stroke:#999;stroke-width:3" />
<path d="M1445.5700000000002,38.5c1.03,1.03,1.06,2.38,1.06,3.75c0,6.63,0.04,32.58,0.06,47c0,4.06,0.01,7.21,0.01,8.75" style="fill:none;stroke:#999;stroke-width:3" />
<path d="M1488.99,11.75c1.01,1.01,1.17,2.25,1.17,3.84c0,8.16-0.03,20.88-0.03,24.78" style="fill:none;stroke:#999;stroke-width:3" />
<path d="M1470.81,19.83c3.21,3.02,7.27,10.54,8.07,15.24" style="fill:none;stroke:#999;stroke-width:3" />
<path d="M1510.45,16.35c0,1.15-0.26,2.06-0.83,3.06c-3.24,5.72-5.26,8.87-9.73,14.35" style="fill:none;stroke:#999;stroke-width:3" />
<path d="M1473.86,42.44c0.91,0.91,1.24,2.31,1.24,3.78c0,0.73-0.03,24.75-0.04,39.52c0,4.56-0.01,8.23-0.01,10.08" style="fill:none;stroke:#999;stroke-width:3" />
<path d="M1476.09,43.62c2.21-0.21,20.91-2.32,26.39-3.01c2.88-0.37,5.49,0.61,5.49,3.98c0,10.54-0.1,38.04-0.1,45.54c0,11.25-5.62,1.46-7.48-0.17" style="fill:none;stroke:black;stroke-width:3" />
<circle cx="1476.09" cy="43.62" r="5" stroke-width="0" fill="#FF2A00" opacity="0.7" />
<path d="M1537.9,23.88c2.11,0.35,4.23,0.44,6.36,0.13c8.86-1.26,13.99-1.51,23.48-2.2c2.28-0.17,4.5-0.38,6.73,0.02" style="fill:none;stroke:#999;stroke-width:3" />
<path d="M1544.1,15.46c0.91,0.91,1.18,1.86,1.24,3.02c0.53,3.98,1.24,8.18,1.74,13.02c0.19,1.85,0.38,3.83,0.59,6" style="fill:none;stroke:#999;stroke-width:3" />
<path d="M1563.56,13.75c0.81,1.25,0.82,2.46,0.67,3.89c-0.61,5.99-0.98,7.49-2.15,16.39" style="fill:none;stroke:#999;stroke-width:3" />
<path d="M1548.58,36c3.05-0.28,7.82-0.57,11.92-0.85c1.33-0.09,2.57-0.18,3.6-0.27" style="fill:none;stroke:#999;stroke-width:3" />
<path d="M1539.26,46.35c1.07,1.07,1.39,2.42,1.57,3.74c0.57,3.22,1.09,6.2,1.63,9.63c0.25,1.55,0.5,3.19,0.76,4.99" style="fill:none;stroke:#999;stroke-width:3" />
<path d="M1541.73,47.96c8.59-1.2,19.27-2.58,25.42-3.21c2.68-0.28,3.91,0.93,3.37,3.65c-0.57,2.87-1.67,6.92-2.59,11.38" style="fill:none;stroke:#999;stroke-width:3" />
<path d="M1544.0,62.63c4.24-0.39,12.67-1.14,19.63-1.7c2.07-0.17,4-0.31,5.6-0.43" style="fill:none;stroke:#999;stroke-width:3" />
<path d="M1534.75,75.08c2.9,0.58,5.8,0.53,8.74,0.1c7.38-1.06,16.51-1.68,24.26-2.05c2.43-0.11,4.84-0.2,7.25,0.04" style="fill:none;stroke:#999;stroke-width:3" />
<path d="M1554.5700000000002,38.5c1.03,1.03,1.06,2.38,1.06,3.75c0,6.63,0.04,32.58,0.06,47c0,4.06,0.01,7.21,0.01,8.75" style="fill:none;stroke:#999;stroke-width:3" />
<path d="M1597.99,11.75c1.01,1.01,1.17,2.25,1.17,3.84c0,8.16-0.03,20.88-0.03,24.78" style="fill:none;stroke:#999;stroke-width:3" />
<path d="M1579.81,19.83c3.21,3.02,7.27,10.54,8.07,15.24" style="fill:none;stroke:#999;stroke-width:3" />
<path d="M1619.45,16.35c0,1.15-0.26,2.06-0.83,3.06c-3.24,5.72-5.26,8.87-9.73,14.35" style="fill:none;stroke:#999;stroke-width:3" />
<path d="M1582.86,42.44c0.91,0.91,1.24,2.31,1.24,3.78c0,0.73-0.03,24.75-0.04,39.52c0,4.56-0.01,8.23-0.01,10.08" style="fill:none;stroke:#999;stroke-width:3" />
<path d="M1585.09,43.62c2.21-0.21,20.91-2.32,26.39-3.01c2.88-0.37,5.49,0.61,5.49,3.98c0,10.54-0.1,38.04-0.1,45.54c0,11.25-5.62,1.46-7.48-0.17" style="fill:none;stroke:#999;stroke-width:3" />
<path d="M1585.09,56.94c11.53-1.44,20.28-2.06,31.34-2.78" style="fill:none;stroke:black;stroke-width:3" />
<circle cx="1585.09" cy="56.94" r="5" stroke-width="0" fill="#FF2A00" opacity="0.7" />
<path d="M1646.9,23.88c2.11,0.35,4.23,0.44,6.36,0.13c8.86-1.26,13.99-1.51,23.48-2.2c2.28-0.17,4.5-0.38,6.73,0.02" style="fill:none;stroke:#999;stroke-width:3" />
<path d="M1653.1,15.46c0.91,0.91,1.18,1.86,1.24,3.02c0.53,3.98,1.24,8.18,1.74,13.02c0.19,1.85,0.38,3.83,0.59,6" style="fill:none;stroke:#999;stroke-width:3" />
<path d="M1672.56,13.75c0.81,1.25,0.82,2.46,0.67,3.89c-0.61,5.99-0.98,7.49-2.15,16.39" style="fill:none;stroke:#999;stroke-width:3" />
<path d="M1657.58,36c3.05-0.28,7.82-0.57,11.92-0.85c1.33-0.09,2.57-0.18,3.6-0.27" style="fill:none;stroke:#999;stroke-width:3" />
<path d="M1648.26,46.35c1.07,1.07,1.39,2.42,1.57,3.74c0.57,3.22,1.09,6.2,1.63,9.63c0.25,1.55,0.5,3.19,0.76,4.99" style="fill:none;stroke:#999;stroke-width:3" />
<path d="M1650.73,47.96c8.59-1.2,19.27-2.58,25.42-3.21c2.68-0.28,3.91,0.93,3.37,3.65c-0.57,2.87-1.67,6.92-2.59,11.38" style="fill:none;stroke:#999;stroke-width:3" />
<path d="M1653.0,62.63c4.24-0.39,12.67-1.14,19.63-1.7c2.07-0.17,4-0.31,5.6-0.43" style="fill:none;stroke:#999;stroke-width:3" />
<path d="M1643.75,75.08c2.9,0.58,5.8,0.53,8.74,0.1c7.38-1.06,16.51-1.68,24.26-2.05c2.43-0.11,4.84-0.2,7.25,0.04" style="fill:none;stroke:#999;stroke-width:3" />
<path d="M1663.5700000000002,38.5c1.03,1.03,1.06,2.38,1.06,3.75c0,6.63,0.04,32.58,0.06,47c0,4.06,0.01,7.21,0.01,8.75" style="fill:none;stroke:#999;stroke-width:3" />
<path d="M1706.99,11.75c1.01,1.01,1.17,2.25,1.17,3.84c0,8.16-0.03,20.88-0.03,24.78" style="fill:none;stroke:#999;stroke-width:3" />
<path d="M1688.81,19.83c3.21,3.02,7.27,10.54,8.07,15.24" style="fill:none;stroke:#999;stroke-width:3" />
<path d="M1728.45,16.35c0,1.15-0.26,2.06-0.83,3.06c-3.24,5.72-5.26,8.87-9.73,14.35" style="fill:none;stroke:#999;stroke-width:3" />
<path d="M1691.86,42.44c0.91,0.91,1.24,2.31,1.24,3.78c0,0.73-0.03,24.75-0.04,39.52c0,4.56-0.01,8.23-0.01,10.08" style="fill:none;stroke:#999;stroke-width:3" />
<path d="M1694.09,43.62c2.21-0.21,20.91-2.32,26.39-3.01c2.88-0.37,5.49,0.61,5.49,3.98c0,10.54-0.1,38.04-0.1,45.54c0,11.25-5.62,1.46-7.48-0.17" style="fill:none;stroke:#999;stroke-width:3" />
<path d="M1694.09,56.94c11.53-1.44,20.28-2.06,31.34-2.78" style="fill:none;stroke:#999;stroke-width:3" />
<path d="M1693.97,71.36c9.78-0.98,23.22-2.32,30.89-2.78" style="fill:none;stroke:black;stroke-width:3" />
<circle cx="1693.97" cy="71.36" r="5" stroke-width="0" fill="#FF2A00" opacity="0.7" />
</svg>