<svg width="1635px" height="109px" viewBox="0 0 1635px 109px" xmlns="http://www.w3.org/2000/svg" xmlns:xlink="http://www.w3.org/1999/xlink" xml:space="preserve" version="1.1"  baseProfile="full">
<line x1="1" y1="1" x2="1634" y2="1" style="stroke:#ddd;stroke-width:2" />
<line x1="1" y1="1" x2="1" y2="108" style="stroke:#ddd;stroke-width:2" />
<line x1="1" y1="108" x2="1634" y2="108" style="stroke:#ddd;stroke-width:2" />
<line x1="1634" y1="1" x2="1634" y2="108" style="stroke:#ddd;stroke-width:2" />
<line x1="109" y1="1" x2="109" y2="108" style="stroke:#ddd;stroke-width:2" />
<line x1="218" y1="1" x2="218" y2="108" style="stroke:#ddd;stroke-width:2" />
<line x1="327" y1="1" x2="327" y2="108" style="stroke:#ddd;stroke-width:2" />
<line x1="436" y1="1" x2="436" y2="108" style="stroke:#ddd;stroke-width:2" />
<line x1="545" y1="1" x2="545" y2="108" style="stroke:#ddd;stroke-width:2" />
<line x1="654" y1="1" x2="654" y2="108" style="stroke:#ddd;stroke-width:2" />
<line x1="763" y1="1" x2="763" y2="108" style="stroke:#ddd;stroke-width:2" />
<line x1="872" y1="1" x2="872" y2="108" style="stroke:#ddd;stroke-width:2" />
<line x1="981" y1="1" x2="981" y2="108" style="stroke:#ddd;stroke-width:2" />
<line x1="1090" y1="1" x2="1090" y2="108" style="stroke:#ddd;stroke-width:2" />
<line x1="1199" y1="1" x2="1199" y2="108" style="stroke:#ddd;stroke-width:2" />
<line x1="1308" y1="1" x2="1308" y2="108" style="stroke:#ddd;stroke-width:2" />
<line x1="1417" y1="1" x2="1417" y2="108" style="stroke:#ddd;stroke-width:2" />
<line x1="1526" y1="1" x2="1526" y2="108" style="stroke:#ddd;stroke-width:2" />
<line x1="1" y1="54" x2="1634" y2="54" style="stroke:#ddd;stroke-width:2;stroke-dasharray:3 3" />
<line x1="55" y1="1" x2="55" y2="108" style="stroke:#ddd;stroke-width:2;stroke-dasharray:3 3" />
<line x1="164" y1="1" x2="164" y2="108" style="stroke:#ddd;stroke-width:2;stroke-dasharray:3 3" />
<line x1="273" y1="1" x2="273" y2="108" style="stroke:#ddd;stroke-width:2;stroke-dasharray:3 3" />
<line x1="382" y1="1" x2="382" y2="108" style="stroke:#ddd;stroke-width:2;stroke-dasharray:3 3" />
<line x1="491" y1="1" x2="491" y2="108" style="stroke:#ddd;stroke-width:2;stroke-dasharray:3 3" />
<line x1="600" y1="1" x2="600" y2="108" style="stroke:#ddd;stroke-width:2;stroke-dasharray:3 3" />
<line x1="709" y1="1" x2="709" y2="108" style="stroke:#ddd;stroke-width:2;stroke-dasharray:3 3" />
<line x1="818" y1="1" x2="818" y2="108" style="stroke:#ddd;stroke-width:2;stroke-dasharray:3 3" />
<line x1="927" y1="1" x2="927" y2="108" style="stroke:#ddd;stroke-width:2;stroke-dasharray:3 3" />
<line x1="1036" y1="1" x2="1036" y2="108" style="stroke:#ddd;stroke-width:2;stroke-dasharray:3 3" />
<line x1="1145" y1="1" x2="1145" y2="108" style="stroke:#ddd;stroke-width:2;stroke-dasharray:3 3" />
<line x1="1254" y1="1" x2="1254" y2="108" style="stroke:#ddd;stroke-width:2;stroke-dasharray:3 3" />
<line x1="1363" y1="1" x2="1363" y2="108" style="stroke:#ddd;stroke-width:2;stroke-dasharray:3 3" />
<line x1="1472" y1="1" x2="1472" y2="108" style="stroke:#ddd;stroke-width:2;stroke-dasharray:3 3" />
<line x1="1581" y1="1" x2="1581" y2="108" style="stroke:#ddd;stroke-width:2;stroke-dasharray:3 3" />
<path d="M10.25,19.44c1.13,0.46,3.18,0.52,4.32,0.46C23.22,19.44,34.4,18,45.22,17c1.87-0.17,3.9,0.22,4.83,0.45" style="fill:none;stroke:black;stroke-width:3" />
<circle cx="10.25" cy="19.44" r="5" stroke-width="0" fill="#FF2A00" opacity="0.7" />
<path d="M119.25,19.44c1.13,0.46,3.18,0.52,4.32,0.46C132.22,19.44,143.4,18,154.22,17c1.87-0.17,3.9,0.22,4.83,0.45" style="fill:none;stroke:#999;stroke-width:3" />
<path d="M132.5,38.61c0.48,0.83,1.19,2.44,1.19,3.37c0,10.34-0.51,16.56-0.51,22.87" style="fill:none;stroke:black;stroke-width:3" />
<circle cx="132.5" cy="38.61" r="5" stroke-width="0" fill="#FF2A00" opacity="0.7" />
<path d="M228.25,19.44c1.13,0.46,3.18,0.52,4.32,0.46C241.22,19.44,252.4,18,263.22,17c1.87-0.17,3.9,0.22,4.83,0.45" style="fill:none;stroke:#999;stroke-width:3" />
<path d="M241.5,38.61c0.48,0.83,1.19,2.44,1.19,3.37c0,10.34-0.51,16.56-0.51,22.87" style="fill:none;stroke:#999;stroke-width:3" />
<path d="M262.72,56.22C264.0,49,264.43,43.19,265.45,38.83c0.25-1.05-0.79-2.29-2.52-2.11c-4.72,0.49-5.6,0.9-9.38,1.49c-1.75,0.27-2.5-0.12-2.33-2.33c0.29-3.79,0.88-12.22,0.75-12.84c-0.14-0.62-0.54-1.7-1.21-2.01" style="fill:none;stroke:black;stroke-width:3" />
<circle cx="262.72" cy="56.22" r="5" stroke-width="0" fill="#FF2A00" opacity="0.7" />
<path d="M337.25,19.44c1.13,0.46,3.18,0.52,4.32,0.46C350.22,19.44,361.4,18,372.22,17c1.87-0.17,3.9,0.22,4.83,0.45" style="fill:none;stroke:#999;stroke-width:3" />
<path d="M350.5,38.61c0.48,0.83,1.19,2.44,1.19,3.37c0,10.34-0.51,16.56-0.51,22.87" style="fill:none;stroke:#999;stroke-width:3" />
<path d="M371.72,56.22C373.0,49,373.43,43.19,374.45,38.83c0.25-1.05-0.79-2.29-2.52-2.11c-4.72,0.49-5.6,0.9-9.38,1.49c-1.75,0.27-2.5-0.12-2.33-2.33c0.29-3.79,0.88-12.22,0.75-12.84c-0.14-0.62-0.54-1.7-1.21-2.01" style="fill:none;stroke:#999;stroke-width:3" />
<path d="M361.45,58.92c2.6-0.35,7.89-1.73,12.58-2.29" style="fill:none;stroke:black;stroke-width:3" />
<circle cx="361.45" cy="58.92" r="5" stroke-width="0" fill="#FF2A00" opacity="0.7" />
<path d="M446.25,19.44c1.13,0.46,3.18,0.52,4.32,0.46C459.22,19.44,470.4,18,481.22,17c1.87-0.17,3.9,0.22,4.83,0.45" style="fill:none;stroke:#999;stroke-width:3" />
<path d="M459.5,38.61c0.48,0.83,1.19,2.44,1.19,3.37c0,10.34-0.51,16.56-0.51,22.87" style="fill:none;stroke:#999;stroke-width:3" />
<path d="M480.72,56.22C482.0,49,482.43,43.19,483.45,38.83c0.25-1.05-0.79-2.29-2.52-2.11c-4.72,0.49-5.6,0.9-9.38,1.49c-1.75,0.27-2.5-0.12-2.33-2.33c0.29-3.79,0.88-12.22,0.75-12.84c-0.14-0.62-0.54-1.7-1.21-2.01" style="fill:none;stroke:#999;stroke-width:3" />
<path d="M470.45,58.92c2.6-0.35,7.89-1.73,12.58-2.29" style="fill:none;stroke:#999;stroke-width:3" />
<path d="M468.33,56.56c0.95,0.44,1.52,1.97,1.71,2.84c0.19,0.87,0,21.7-0.19,27.16" style="fill:none;stroke:black;stroke-width:3" />
<circle cx="468.33" cy="56.56" r="5" stroke-width="0" fill="#FF2A00" opacity="0.7" />
<path d="M555.25,19.44c1.13,0.46,3.18,0.52,4.32,0.46C568.22,19.44,579.4,18,590.22,17c1.87-0.17,3.9,0.22,4.83,0.45" style="fill:none;stroke:#999;stroke-width:3" />
<path d="M568.5,38.61c0.48,0.83,1.19,2.44,1.19,3.37c0,10.34-0.51,16.56-0.51,22.87" style="fill:none;stroke:#999;stroke-width:3" />
<path d="M589.72,56.22C591.0,49,591.4300000000001,43.19,592.45,38.83c0.25-1.05-0.79-2.29-2.52-2.11c-4.72,0.49-5.6,0.9-9.38,1.49c-1.75,0.27-2.5-0.12-2.33-2.33c0.29-3.79,0.88-12.22,0.75-12.84c-0.14-0.62-0.54-1.7-1.21-2.01" style="fill:none;stroke:#999;stroke-width:3" />
<path d="M579.45,58.92c2.6-0.35,7.89-1.73,12.58-2.29" style="fill:none;stroke:#999;stroke-width:3" />
<path d="M577.3299999999999,56.56c0.95,0.44,1.52,1.97,1.71,2.84c0.19,0.87,0,21.7-0.19,27.16" style="fill:none;stroke:#999;stroke-width:3" />
<path d="M558.43,19.93c0.32,1.06,0.41,2.55,0.65,3.97c0.24,1.42-0.44,57.69-0.44,63.19c0,0.98,1.21,2.82,1.9,2.72c7.22-1.12,20.21-3.31,31.75-3.93c1.22-0.07,3.39,0.69,3.96,0.9" style="fill:none;stroke:black;stroke-width:3" />
<circle cx="558.43" cy="19.93" r="5" stroke-width="0" fill="#FF2A00" opacity="0.7" />
<path d="M664.25,19.44c1.13,0.46,3.18,0.52,4.32,0.46C677.22,19.44,688.4,18,699.22,17c1.87-0.17,3.9,0.22,4.83,0.45" style="fill:none;stroke:#999;stroke-width:3" />
<path d="M677.5,38.61c0.48,0.83,1.19,2.44,1.19,3.37c0,10.34-0.51,16.56-0.51,22.87" style="fill:none;stroke:#999;stroke-width:3" />
<path d="M698.72,56.22C700.0,49,700.4300000000001,43.19,701.45,38.83c0.25-1.05-0.79-2.29-2.52-2.11c-4.72,0.49-5.6,0.9-9.38,1.49c-1.75,0.27-2.5-0.12-2.33-2.33c0.29-3.79,0.88-12.22,0.75-12.84c-0.14-0.62-0.54-1.7-1.21-2.01" style="fill:none;stroke:#999;stroke-width:3" />
<path d="M688.45,58.92c2.6-0.35,7.89-1.73,12.58-2.29" style="fill:none;stroke:#999;stroke-width:3" />
<path d="M686.3299999999999,56.56c0.95,0.44,1.52,1.97,1.71,2.84c0.19,0.87,0,21.7-0.19,27.16" style="fill:none;stroke:#999;stroke-width:3" />
<path d="M667.43,19.93c0.32,1.06,0.41,2.55,0.65,3.97c0.24,1.42-0.44,57.69-0.44,63.19c0,0.98,1.21,2.82,1.9,2.72c7.22-1.12,20.21-3.31,31.75-3.93c1.22-0.07,3.39,0.69,3.96,0.9" style="fill:none;stroke:#999;stroke-width:3" />
<path d="M708.95,16.5c1.14,0.38,3.22,0.43,4.36,0.38c9.39-0.44,27.31-2.69,34.62-2.87c1.89-0.05,3.03,0.18,3.98,0.37" style="fill:none;stroke:black;stroke-width:3" />
<circle cx="708.95" cy="16.5" r="5" stroke-width="0" fill="#FF2A00" opacity="0.7" />
<path d="M773.25,19.44c1.13,0.46,3.18,0.52,4.32,0.46C786.22,19.44,797.4,18,808.22,17c1.87-0.17,3.9,0.22,4.83,0.45" style="fill:none;stroke:#999;stroke-width:3" />
<path d="M786.5,38.61c0.48,0.83,1.19,2.44,1.19,3.37c0,10.34-0.51,16.56-0.51,22.87" style="fill:none;stroke:#999;stroke-width:3" />
<path d="M807.72,56.22C809.0,49,809.4300000000001,43.19,810.45,38.83c0.25-1.05-0.79-2.29-2.52-2.11c-4.72,0.49-5.6,0.9-9.38,1.49c-1.75,0.27-2.5-0.12-2.33-2.33c0.29-3.79,0.88-12.22,0.75-12.84c-0.14-0.62-0.54-1.7-1.21-2.01" style="fill:none;stroke:#999;stroke-width:3" />
<path d="M797.45,58.92c2.6-0.35,7.89-1.73,12.58-2.29" style="fill:none;stroke:#999;stroke-width:3" />
<path d="M795.3299999999999,56.56c0.95,0.44,1.52,1.97,1.71,2.84c0.19,0.87,0,21.7-0.19,27.16" style="fill:none;stroke:#999;stroke-width:3" />
<path d="M776.43,19.93c0.32,1.06,0.41,2.55,0.65,3.97c0.24,1.42-0.44,57.69-0.44,63.19c0,0.98,1.21,2.82,1.9,2.72c7.22-1.12,20.21-3.31,31.75-3.93c1.22-0.07,3.39,0.69,3.96,0.9" style="fill:none;stroke:#999;stroke-width:3" />
<path d="M817.95,16.5c1.14,0.38,3.22,0.43,4.36,0.38c9.39-0.44,27.31-2.69,34.62-2.87c1.89-0.05,3.03,0.18,3.98,0.37" style="fill:none;stroke:#999;stroke-width:3" />
<path d="M837.23,18.43c0.01,0.29,0.02,0.75-0.02,1.17c-0.23,2.47-2.56,7.88-4.39,11.2" style="fill:none;stroke:black;stroke-width:3" />
<circle cx="837.23" cy="18.43" r="5" stroke-width="0" fill="#FF2A00" opacity="0.7" />
<path d="M882.25,19.44c1.13,0.46,3.18,0.52,4.32,0.46C895.22,19.44,906.4,18,917.22,17c1.87-0.17,3.9,0.22,4.83,0.45" style="fill:none;stroke:#999;stroke-width:3" />
<path d="M895.5,38.61c0.48,0.83,1.19,2.44,1.19,3.37c0,10.34-0.51,16.56-0.51,22.87" style="fill:none;stroke:#999;stroke-width:3" />
<path d="M916.72,56.22C918.0,49,918.4300000000001,43.19,919.45,38.83c0.25-1.05-0.79-2.29-2.52-2.11c-4.72,0.49-5.6,0.9-9.38,1.49c-1.75,0.27-2.5-0.12-2.33-2.33c0.29-3.79,0.88-12.22,0.75-12.84c-0.14-0.62-0.54-1.7-1.21-2.01" style="fill:none;stroke:#999;stroke-width:3" />
<path d="M906.45,58.92c2.6-0.35,7.89-1.73,12.58-2.29" style="fill:none;stroke:#999;stroke-width:3" />
<path d="M904.3299999999999,56.56c0.95,0.44,1.52,1.97,1.71,2.84c0.19,0.87,0,21.7-0.19,27.16" style="fill:none;stroke:#999;stroke-width:3" />
<path d="M885.43,19.93c0.32,1.06,0.41,2.55,0.65,3.97c0.24,1.42-0.44,57.69-0.44,63.19c0,0.98,1.21,2.82,1.9,2.72c7.22-1.12,20.21-3.31,31.75-3.93c1.22-0.07,3.39,0.69,3.96,0.9" style="fill:none;stroke:#999;stroke-width:3" />
<path d="M926.95,16.5c1.14,0.38,3.22,0.43,4.36,0.38c9.39-0.44,27.31-2.69,34.62-2.87c1.89-0.05,3.03,0.18,3.98,0.37" style="fill:none;stroke:#999;stroke-width:3" />
<path d="M946.23,18.43c0.01,0.29,0.02,0.75-0.02,1.17c-0.23,2.47-2.56,7.88-4.39,11.2" style="fill:none;stroke:#999;stroke-width:3" />
<path d="M932.66,31.8c0.48,1.08,1.19,1.88,1.19,3.32c0,1.44-0.32,42.41-0.32,43.13" style="fill:none;stroke:black;stroke-width:3" />
<circle cx="932.66" cy="31.8" r="5" stroke-width="0" fill="#FF2A00" opacity="0.7" />
<path d="M991.25,19.44c1.13,0.46,3.18,0.52,4.32,0.46C1004.22,19.44,1015.4,18,1026.22,17c1.87-0.17,3.9,0.22,4.83,0.45" style="fill:none;stroke:#999;stroke-width:3" />
<path d="M1004.5,38.61c0.48,0.83,1.19,2.44,1.19,3.37c0,10.34-0.51,16.56-0.51,22.87" style="fill:none;stroke:#999;stroke-width:3" />
<path d="M1025.72,56.22C1027.0,49,1027.43,43.19,1028.45,38.83c0.25-1.05-0.79-2.29-2.52-2.11c-4.72,0.49-5.6,0.9-9.38,1.49c-1.75,0.27-2.5-0.12-2.33-2.33c0.29-3.79,0.88-12.22,0.75-12.84c-0.14-0.62-0.54-1.7-1.21-2.01" style="fill:none;stroke:#999;stroke-width:3" />
<path d="M1015.45,58.92c2.6-0.35,7.89-1.73,12.58-2.29" style="fill:none;stroke:#999;stroke-width:3" />
<path d="M1013.3299999999999,56.56c0.95,0.44,1.52,1.97,1.71,2.84c0.19,0.87,0,21.7-0.19,27.16" style="fill:none;stroke:#999;stroke-width:3" />
<path d="M994.43,19.93c0.32,1.06,0.41,2.55,0.65,3.97c0.24,1.42-0.44,57.69-0.44,63.19c0,0.98,1.21,2.82,1.9,2.72c7.22-1.12,20.21-3.31,31.75-3.93c1.22-0.07,3.39,0.69,3.96,0.9" style="fill:none;stroke:#999;stroke-width:3" />
<path d="M1035.95,16.5c1.14,0.38,3.22,0.43,4.36,0.38c9.39-0.44,27.31-2.69,34.62-2.87c1.89-0.05,3.03,0.18,3.98,0.37" style="fill:none;stroke:#999;stroke-width:3" />
<path d="M1055.23,18.43c0.01,0.29,0.02,0.75-0.02,1.17c-0.23,2.47-2.56,7.88-4.39,11.2" style="fill:none;stroke:#999;stroke-width:3" />
<path d="M1041.6599999999999,31.8c0.48,1.08,1.19,1.88,1.19,3.32c0,1.44-0.32,42.41-0.32,43.13" style="fill:none;stroke:#999;stroke-width:3" />
<path d="M1043.65,33.23c2.73-0.18,24.24-1.86,26.73-2.08c2.07-0.18,3.71,1.99,3.53,3.32c-0.22,1.69-0.96,41.25-0.96,42.33" style="fill:none;stroke:black;stroke-width:3" />
<circle cx="1043.65" cy="33.23" r="5" stroke-width="0" fill="#FF2A00" opacity="0.7" />
<path d="M1100.25,19.44c1.13,0.46,3.18,0.52,4.32,0.46C1113.22,19.44,1124.4,18,1135.22,17c1.87-0.17,3.9,0.22,4.83,0.45" style="fill:none;stroke:#999;stroke-width:3" />
<path d="M1113.5,38.61c0.48,0.83,1.19,2.44,1.19,3.37c0,10.34-0.51,16.56-0.51,22.87" style="fill:none;stroke:#999;stroke-width:3" />
<path d="M1134.72,56.22C1136.0,49,1136.43,43.19,1137.45,38.83c0.25-1.05-0.79-2.29-2.52-2.11c-4.72,0.49-5.6,0.9-9.38,1.49c-1.75,0.27-2.5-0.12-2.33-2.33c0.29-3.79,0.88-12.22,0.75-12.84c-0.14-0.62-0.54-1.7-1.21-2.01" style="fill:none;stroke:#999;stroke-width:3" />
<path d="M1124.45,58.92c2.6-0.35,7.89-1.73,12.58-2.29" style="fill:none;stroke:#999;stroke-width:3" />
<path d="M1122.33,56.56c0.95,0.44,1.52,1.97,1.71,2.84c0.19,0.87,0,21.7-0.19,27.16" style="fill:none;stroke:#999;stroke-width:3" />
<path d="M1103.4299999999998,19.93c0.32,1.06,0.41,2.55,0.65,3.97c0.24,1.42-0.44,57.69-0.44,63.19c0,0.98,1.21,2.82,1.9,2.72c7.22-1.12,20.21-3.31,31.75-3.93c1.22-0.07,3.39,0.69,3.96,0.9" style="fill:none;stroke:#999;stroke-width:3" />
<path d="M1144.95,16.5c1.14,0.38,3.22,0.43,4.36,0.38c9.39-0.44,27.31-2.69,34.62-2.87c1.89-0.05,3.03,0.18,3.98,0.37" style="fill:none;stroke:#999;stroke-width:3" />
<path d="M1164.23,18.43c0.01,0.29,0.02,0.75-0.02,1.17c-0.23,2.47-2.56,7.88-4.39,11.2" style="fill:none;stroke:#999;stroke-width:3" />
<path d="M1150.6599999999999,31.8c0.48,1.08,1.19,1.88,1.19,3.32c0,1.44-0.32,42.41-0.32,43.13" style="fill:none;stroke:#999;stroke-width:3" />
<path d="M1152.65,33.23c2.73-0.18,24.24-1.86,26.73-2.08c2.07-0.18,3.71,1.99,3.53,3.32c-0.22,1.69-0.96,41.25-0.96,42.33" style="fill:none;stroke:#999;stroke-width:3" />
<path d="M1152.61,46.32c3.9,0,23.09-0.92,28.93-1.31" style="fill:none;stroke:black;stroke-width:3" />
<circle cx="1152.61" cy="46.32" r="5" stroke-width="0" fill="#FF2A00" opacity="0.7" />
<path d="M1209.25,19.44c1.13,0.46,3.18,0.52,4.32,0.46C1222.22,19.44,1233.4,18,1244.22,17c1.87-0.17,3.9,0.22,4.83,0.45" style="fill:none;stroke:#999;stroke-width:3" />
<path d="M1222.5,38.61c0.48,0.83,1.19,2.44,1.19,3.37c0,10.34-0.51,16.56-0.51,22.87" style="fill:none;stroke:#999;stroke-width:3" />
<path d="M1243.72,56.22C1245.0,49,1245.43,43.19,1246.45,38.83c0.25-1.05-0.79-2.29-2.52-2.11c-4.72,0.49-5.6,0.9-9.38,1.49c-1.75,0.27-2.5-0.12-2.33-2.33c0.29-3.79,0.88-12.22,0.75-12.84c-0.14-0.62-0.54-1.7-1.21-2.01" style="fill:none;stroke:#999;stroke-width:3" />
<path d="M1233.45,58.92c2.6-0.35,7.89-1.73,12.58-2.29" style="fill:none;stroke:#999;stroke-width:3" />
<path d="M1231.33,56.56c0.95,0.44,1.52,1.97,1.71,2.84c0.19,0.87,0,21.7-0.19,27.16" style="fill:none;stroke:#999;stroke-width:3" />
<path d="M1212.4299999999998,19.93c0.32,1.06,0.41,2.55,0.65,3.97c0.24,1.42-0.44,57.69-0.44,63.19c0,0.98,1.21,2.82,1.9,2.72c7.22-1.12,20.21-3.31,31.75-3.93c1.22-0.07,3.39,0.69,3.96,0.9" style="fill:none;stroke:#999;stroke-width:3" />
<path d="M1253.95,16.5c1.14,0.38,3.22,0.43,4.36,0.38c9.39-0.44,27.31-2.69,34.62-2.87c1.89-0.05,3.03,0.18,3.98,0.37" style="fill:none;stroke:#999;stroke-width:3" />
<path d="M1273.23,18.43c0.01,0.29,0.02,0.75-0.02,1.17c-0.23,2.47-2.56,7.88-4.39,11.2" style="fill:none;stroke:#999;stroke-width:3" />
<path d="M1259.6599999999999,31.8c0.48,1.08,1.19,1.88,1.19,3.32c0,1.44-0.32,42.41-0.32,43.13" style="fill:none;stroke:#999;stroke-width:3" />
<path d="M1261.65,33.23c2.73-0.18,24.24-1.86,26.73-2.08c2.07-0.18,3.71,1.99,3.53,3.32c-0.22,1.69-0.96,41.25-0.96,42.33" style="fill:none;stroke:#999;stroke-width:3" />
<path d="M1261.61,46.32c3.9,0,23.09-0.92,28.93-1.31" style="fill:none;stroke:#999;stroke-width:3" />
<path d="M1261.83,60.44c9.74-0.48,20.22-1.05,27.68-1.55" style="fill:none;stroke:black;stroke-width:3" />
<circle cx="1261.83" cy="60.44" r="5" stroke-width="0" fill="#FF2A00" opacity="0.7" />
<path d="M1318.25,19.44c1.13,0.46,3.18,0.52,4.32,0.46C1331.22,19.44,1342.4,18,1353.22,17c1.87-0.17,3.9,0.22,4.83,0.45" style="fill:none;stroke:#999;stroke-width:3" />
<path d="M1331.5,38.61c0.48,0.83,1.19,2.44,1.19,3.37c0,10.34-0.51,16.56-0.51,22.87" style="fill:none;stroke:#999;stroke-width:3" />
<path d="M1352.72,56.22C1354.0,49,1354.43,43.19,1355.45,38.83c0.25-1.05-0.79-2.29-2.52-2.11c-4.72,0.49-5.6,0.9-9.38,1.49c-1.75,0.27-2.5-0.12-2.33-2.33c0.29-3.79,0.88-12.22,0.75-12.84c-0.14-0.62-0.54-1.7-1.21-2.01" style="fill:none;stroke:#999;stroke-width:3" />
<path d="M1342.45,58.92c2.6-0.35,7.89-1.73,12.58-2.29" style="fill:none;stroke:#999;stroke-width:3" />
<path d="M1340.33,56.56c0.95,0.44,1.52,1.97,1.71,2.84c0.19,0.87,0,21.7-0.19,27.16" style="fill:none;stroke:#999;stroke-width:3" />
<path d="M1321.4299999999998,19.93c0.32,1.06,0.41,2.55,0.65,3.97c0.24,1.42-0.44,57.69-0.44,63.19c0,0.98,1.21,2.82,1.9,2.72c7.22-1.12,20.21-3.31,31.75-3.93c1.22-0.07,3.39,0.69,3.96,0.9" style="fill:none;stroke:#999;stroke-width:3" />
<path d="M1362.95,16.5c1.14,0.38,3.22,0.43,4.36,0.38c9.39-0.44,27.31-2.69,34.62-2.87c1.89-0.05,3.03,0.18,3.98,0.37" style="fill:none;stroke:#999;stroke-width:3" />
<path d="M1382.23,18.43c0.01,0.29,0.02,0.75-0.02,1.17c-0.23,2.47-2.56,7.88-4.39,11.2" style="fill:none;stroke:#999;stroke-width:3" />
<path d="M1368.6599999999999,31.8c0.48,1.08,1.19,1.88,1.19,3.32c0,1.44-0.32,42.41-0.32,43.13" style="fill:none;stroke:#999;stroke-width:3" />
<path d="M1370.65,33.23c2.73-0.18,24.24-1.86,26.73-2.08c2.07-0.18,3.71,1.99,3.53,3.32c-0.22,1.69-0.96,41.25-0.96,42.33" style="fill:none;stroke:#999;stroke-width:3" />
<path d="M1370.61,46.32c3.9,0,23.09-0.92,28.93-1.31" style="fill:none;stroke:#999;stroke-width:3" />
<path d="M1370.83,60.44c9.74-0.48,20.22-1.05,27.68-1.55" style="fill:none;stroke:#999;stroke-width:3" />
<path d="M1370.53,75.79c6.29-1.07,20.73-1,28.68-1.54" style="fill:none;stroke:black;stroke-width:3" />
<circle cx="1370.53" cy="75.79" r="5" stroke-width="0" fill="#FF2A00" opacity="0.7" />
<path d="M1427.25,19.44c1.13,0.46,3.18,0.52,4.32,0.46C1440.22,19.44,1451.4,18,1462.22,17c1.87-0.17,3.9,0.22,4.83,0.45" style="fill:none;stroke:#999;stroke-width:3" />
<path d="M1440.5,38.61c0.48,0.83,1.19,2.44,1.19,3.37c0,10.34-0.51,16.56-0.51,22.87" style="fill:none;stroke:#999;stroke-width:3" />
<path d="M1461.72,56.22C1463.0,49,1463.43,43.19,1464.45,38.83c0.25-1.05-0.79-2.29-2.52-2.11c-4.72,0.49-5.6,0.9-9.38,1.49c-1.75,0.27-2.5-0.12-2.33-2.33c0.29-3.79,0.88-12.22,0.75-12.84c-0.14-0.62-0.54-1.7-1.21-2.01" style="fill:none;stroke:#999;stroke-width:3" />
<path d="M1451.45,58.92c2.6-0.35,7.89-1.73,12.58-2.29" style="fill:none;stroke:#999;stroke-width:3" />
<path d="M1449.33,56.56c0.95,0.44,1.52,1.97,1.71,2.84c0.19,0.87,0,21.7-0.19,27.16" style="fill:none;stroke:#999;stroke-width:3" />
<path d="M1430.4299999999998,19.93c0.32,1.06,0.41,2.55,0.65,3.97c0.24,1.42-0.44,57.69-0.44,63.19c0,0.98,1.21,2.82,1.9,2.72c7.22-1.12,20.21-3.31,31.75-3.93c1.22-0.07,3.39,0.69,3.96,0.9" style="fill:none;stroke:#999;stroke-width:3" />
<path d="M1471.95,16.5c1.14,0.38,3.22,0.43,4.36,0.38c9.39-0.44,27.31-2.69,34.62-2.87c1.89-0.05,3.03,0.18,3.98,0.37" style="fill:none;stroke:#999;stroke-width:3" />
<path d="M1491.23,18.43c0.01,0.29,0.02,0.75-0.02,1.17c-0.23,2.47-2.56,7.88-4.39,11.2" style="fill:none;stroke:#999;stroke-width:3" />
<path d="M1477.6599999999999,31.8c0.48,1.08,1.19,1.88,1.19,3.32c0,1.44-0.32,42.41-0.32,43.13" style="fill:none;stroke:#999;stroke-width:3" />
<path d="M1479.65,33.23c2.73-0.18,24.24-1.86,26.73-2.08c2.07-0.18,3.71,1.99,3.53,3.32c-0.22,1.69-0.96,41.25-0.96,42.33" style="fill:none;stroke:#999;stroke-width:3" />
<path d="M1479.61,46.32c3.9,0,23.09-0.92,28.93-1.31" style="fill:none;stroke:#999;stroke-width:3" />
<path d="M1479.83,60.44c9.74-0.48,20.22-1.05,27.68-1.55" style="fill:none;stroke:#999;stroke-width:3" />
<path d="M1479.53,75.79c6.29-1.07,20.73-1,28.68-1.54" style="fill:none;stroke:#999;stroke-width:3" />
<path d="M1484.15,81.48c0.41,1.25-0.2,2.59-1,3.5c-2.43,2.75-7.9,8.02-14.93,11.77" style="fill:none;stroke:black;stroke-width:3" />
<circle cx="1484.15" cy="81.48" r="5" stroke-width="0" fill="#FF2A00" opacity="0.7" />
<path d="M1536.25,19.44c1.13,0.46,3.18,0.52,4.32,0.46C1549.22,19.44,1560.4,18,1571.22,17c1.87-0.17,3.9,0.22,4.83,0.45" style="fill:none;stroke:#999;stroke-width:3" />
<path d="M1549.5,38.61c0.48,0.83,1.19,2.44,1.19,3.37c0,10.34-0.51,16.56-0.51,22.87" style="fill:none;stroke:#999;stroke-width:3" />
<path d="M1570.72,56.22C1572.0,49,1572.43,43.19,1573.45,38.83c0.25-1.05-0.79-2.29-2.52-2.11c-4.72,0.49-5.6,0.9-9.38,1.49c-1.75,0.27-2.5-0.12-2.33-2.33c0.29-3.79,0.88-12.22,0.75-12.84c-0.14-0.62-0.54-1.7-1.21-2.01" style="fill:none;stroke:#999;stroke-width:3" />
<path d="M1560.45,58.92c2.6-0.35,7.89-1.73,12.58-2.29" style="fill:none;stroke:#999;stroke-width:3" />
<path d="M1558.33,56.56c0.95,0.44,1.52,1.97,1.71,2.84c0.19,0.87,0,21.7-0.19,27.16" style="fill:none;stroke:#999;stroke-width:3" />
<path d="M1539.4299999999998,19.93c0.32,1.06,0.41,2.55,0.65,3.97c0.24,1.42-0.44,57.69-0.44,63.19c0,0.98,1.21,2.82,1.9,2.72c7.22-1.12,20.21-3.31,31.75-3.93c1.22-0.07,3.39,0.69,3.96,0.9" style="fill:none;stroke:#999;stroke-width:3" />
<path d="M1580.95,16.5c1.14,0.38,3.22,0.43,4.36,0.38c9.39-0.44,27.31-2.69,34.62-2.87c1.89-0.05,3.03,0.18,3.98,0.37" style="fill:none;stroke:#999;stroke-width:3" />
<path d="M1600.23,18.43c0.01,0.29,0.02,0.75-0.02,1.17c-0.23,2.47-2.56,7.88-4.39,11.2" style="fill:none;stroke:#999;stroke-width:3" />
<path d="M1586.6599999999999,31.8c0.48,1.08,1.19,1.88,1.19,3.32c0,1.44-0.32,42.41-0.32,43.13" style="fill:none;stroke:#999;stroke-width:3" />
<path d="M1588.65,33.23c2.73-0.18,24.24-1.86,26.73-2.08c2.07-0.18,3.71,1.99,3.53,3.32c-0.22,1.69-0.96,41.25-0.96,42.33" style="fill:none;stroke:#999;stroke-width:3" />
<path d="M1588.61,46.32c3.9,0,23.09-0.92,28.93-1.31" style="fill:none;stroke:#999;stroke-width:3" />
<path d="M1588.83,60.44c9.74-0.48,20.22-1.05,27.68-1.55" style="fill:none;stroke:#999;stroke-width:3" />
<path d="M1588.53,75.79c6.29-1.07,20.73-1,28.68-1.54" style="fill:none;stroke:#999;stroke-width:3" />
<path d="M1593.15,81.48c0.41,1.25-0.2,2.59-1,3.5c-2.43,2.75-7.9,8.02-14.93,11.77" style="fill:none;stroke:#999;stroke-width:3" />
<path d="M1607.07,79.87c6.51,4.39,14.21,12.37,15.98,16.21" style="fill:none;stroke:black;stroke-width:3" />
<circle cx="1607.07" cy="79.87" r="5" stroke-width="0" fill="#FF2A00" opacity="0.7" />
</svg>