<svg width="1526px" height="109px" viewBox="0 0 1526px 109px" xmlns="http://www.w3.org/2000/svg" xmlns:xlink="http://www.w3.org/1999/xlink" xml:space="preserve" version="1.1"  baseProfile="full">
<line x1="1" y1="1" x2="1525" y2="1" style="stroke:#ddd;stroke-width:2" />
<line x1="1" y1="1" x2="1" y2="108" style="stroke:#ddd;stroke-width:2" />
<line x1="1" y1="108" x2="1525" y2="108" style="stroke:#ddd;stroke-width:2" />
<line x1="1525" y1="1" x2="1525" y2="108" style="stroke:#ddd;stroke-width:2" />
<line x1="109" y1="1" x2="109" y2="108" style="stroke:#ddd;stroke-width:2" />
<line x1="218" y1="1" x2="218" y2="108" style="stroke:#ddd;stroke-width:2" />
<line x1="327" y1="1" x2="327" y2="108" style="stroke:#ddd;stroke-width:2" />
<line x1="436" y1="1" x2="436" y2="108" style="stroke:#ddd;stroke-width:2" />
<line x1="545" y1="1" x2="545" y2="108" style="stroke:#ddd;stroke-width:2" />
<line x1="654" y1="1" x2="654" y2="108" style="stroke:#ddd;stroke-width:2" />
<line x1="763" y1="1" x2="763" y2="108" style="stroke:#ddd;stroke-width:2" />
<line x1="872" y1="1" x2="872" y2="108" style="stroke:#ddd;stroke-width:2" />
<line x1="981" y1="1" x2="981" y2="108" style="stroke:#ddd;stroke-width:2" />
<line x1="1090" y1="1" x2="1090" y2="108" style="stroke:#ddd;stroke-width:2" />
<line x1="1199" y1="1" x2="1199" y2="108" style="stroke:#ddd;stroke-width:2" />
<line x1="1308" y1="1" x2="1308" y2="108" style="stroke:#ddd;stroke-width:2" />
<line x1="1417" y1="1" x2="1417" y2="108" style="stroke:#ddd;stroke-width:2" />
<line x1="1" y1="54" x2="1525" y2="54" style="stroke:#ddd;stroke-width:2;stroke-dasharray:3 3" />
<line x1="55" y1="1" x2="55" y2="108" style="stroke:#ddd;stroke-width:2;stroke-dasharray:3 3" />
<line x1="164" y1="1" x2="164" y2="108" style="stroke:#ddd;stroke-width:2;stroke-dasharray:3 3" />
<line x1="273" y1="1" x2="273" y2="108" style="stroke:#ddd;stroke-width:2;stroke-dasharray:3 3" />
<line x1="382" y1="1" x2="382" y2="108" style="stroke:#ddd;stroke-width:2;stroke-dasharray:3 3" />
<line x1="491" y1="1" x2="491" y2="108" style="stroke:#ddd;stroke-width:2;stroke-dasharray:3 3" />
<line x1="600" y1="1" x2="600" y2="108" style="stroke:#ddd;stroke-width:2;stroke-dasharray:3 3" />
<line x1="709" y1="1" x2="709" y2="108" style="stroke:#ddd;stroke-width:2;stroke-dasharray:3 3" />
<line x1="818" y1="1" x2="818" y2="108" style="stroke:#ddd;stroke-width:2;stroke-dasharray:3 3" />
<line x1="927" y1="1" x2="927" y2="108" style="stroke:#ddd;stroke-width:2;stroke-dasharray:3 3" />
<line x1="1036" y1="1" x2="1036" y2="108" style="stroke:#ddd;stroke-width:2;stroke-dasharray:3 3" />
<line x1="1145" y1="1" x2="1145" y2="108" style="stroke:#ddd;stroke-width:2;stroke-dasharray:3 3" />
<line x1="1254" y1="1" x2="1254" y2="108" style="stroke:#ddd;stroke-width:2;stroke-dasharray:3 3" />
<line x1="1363" y1="1" x2="1363" y2="108" style="stroke:#ddd;stroke-width:2;stroke-dasharray:3 3" />
<line x1="1472" y1="1" x2="1472" y2="108" style="stroke:#ddd;stroke-width:2;stroke-dasharray:3 3" />
<path d="M31.83,13.67c0.04,1.29-0.22,2.49-0.78,3.6c-3.19,7.3-10.97,17.98-19.55,23.94" style="fill:none;stroke:black;stroke-width:3" />
<circle cx="31.83" cy="13.67" r="5" stroke-width="0" fill="#FF2A00" opacity="0.7" />
<path d="M140.82999999999998,13.67c0.04,1.29-0.22,2.49-0.78,3.6c-3.19,7.3-10.97,17.98-19.55,23.94" style="fill:none;stroke:#999;stroke-width:3" />
<path d="M143.35,19.21c4.15,2.42,8.54,5.83,11.65,10.3" style="fill:none;stroke:black;stroke-width:3" />
<circle cx="143.35" cy="19.21" r="5" stroke-width="0" fill="#FF2A00" opacity="0.7" />
<path d="M249.82999999999998,13.67c0.04,1.29-0.22,2.49-0.78,3.6c-3.19,7.3-10.97,17.98-19.55,23.94" style="fill:none;stroke:#999;stroke-width:3" />
<path d="M252.35,19.21c4.15,2.42,8.54,5.83,11.65,10.3" style="fill:none;stroke:#999;stroke-width:3" />
<path d="M249.54,31.54c0.83,0.83,1.03,2.08,1.03,2.97c0,1-0.07,3.78-0.07,6.24" style="fill:none;stroke:black;stroke-width:3" />
<circle cx="249.54" cy="31.54" r="5" stroke-width="0" fill="#FF2A00" opacity="0.7" />
<path d="M358.83,13.67c0.04,1.29-0.22,2.49-0.78,3.6c-3.19,7.3-10.97,17.98-19.55,23.94" style="fill:none;stroke:#999;stroke-width:3" />
<path d="M361.35,19.21c4.15,2.42,8.54,5.83,11.65,10.3" style="fill:none;stroke:#999;stroke-width:3" />
<path d="M358.53999999999996,31.54c0.83,0.83,1.03,2.08,1.03,2.97c0,1-0.07,3.78-0.07,6.24" style="fill:none;stroke:#999;stroke-width:3" />
<path d="M346.2,42.75c1.3,0.75,3.92,0.84,5.82,0.46c5.33-1.07,14.07-2.7,15.04-2.85c2.27-0.35,2.95,1.3,2.74,2.92c-0.97,7.55-2.5,24.99-2.5,25.63" style="fill:none;stroke:black;stroke-width:3" />
<circle cx="346.2" cy="42.75" r="5" stroke-width="0" fill="#FF2A00" opacity="0.7" />
<path d="M467.83,13.67c0.04,1.29-0.22,2.49-0.78,3.6c-3.19,7.3-10.97,17.98-19.55,23.94" style="fill:none;stroke:#999;stroke-width:3" />
<path d="M470.35,19.21c4.15,2.42,8.54,5.83,11.65,10.3" style="fill:none;stroke:#999;stroke-width:3" />
<path d="M467.53999999999996,31.54c0.83,0.83,1.03,2.08,1.03,2.97c0,1-0.07,3.78-0.07,6.24" style="fill:none;stroke:#999;stroke-width:3" />
<path d="M455.2,42.75c1.3,0.75,3.92,0.84,5.82,0.46c5.33-1.07,14.07-2.7,15.04-2.85c2.27-0.35,2.95,1.3,2.74,2.92c-0.97,7.55-2.5,24.99-2.5,25.63" style="fill:none;stroke:#999;stroke-width:3" />
<path d="M458.25,54.88c5.61-0.66,13.04-1.9,18.12-2.5" style="fill:none;stroke:black;stroke-width:3" />
<circle cx="458.25" cy="54.88" r="5" stroke-width="0" fill="#FF2A00" opacity="0.7" />
<path d="M576.8299999999999,13.67c0.04,1.29-0.22,2.49-0.78,3.6c-3.19,7.3-10.97,17.98-19.55,23.94" style="fill:none;stroke:#999;stroke-width:3" />
<path d="M579.35,19.21c4.15,2.42,8.54,5.83,11.65,10.3" style="fill:none;stroke:#999;stroke-width:3" />
<path d="M576.54,31.54c0.83,0.83,1.03,2.08,1.03,2.97c0,1-0.07,3.78-0.07,6.24" style="fill:none;stroke:#999;stroke-width:3" />
<path d="M564.2,42.75c1.3,0.75,3.92,0.84,5.82,0.46c5.33-1.07,14.07-2.7,15.04-2.85c2.27-0.35,2.95,1.3,2.74,2.92c-0.97,7.55-2.5,24.99-2.5,25.63" style="fill:none;stroke:#999;stroke-width:3" />
<path d="M567.25,54.88c5.61-0.66,13.04-1.9,18.12-2.5" style="fill:none;stroke:#999;stroke-width:3" />
<path d="M567.0,66.75c4.07-0.48,11.19-1.34,17.38-2.12" style="fill:none;stroke:black;stroke-width:3" />
<circle cx="567.0" cy="66.75" r="5" stroke-width="0" fill="#FF2A00" opacity="0.7" />
<path d="M685.8299999999999,13.67c0.04,1.29-0.22,2.49-0.78,3.6c-3.19,7.3-10.97,17.98-19.55,23.94" style="fill:none;stroke:#999;stroke-width:3" />
<path d="M688.35,19.21c4.15,2.42,8.54,5.83,11.65,10.3" style="fill:none;stroke:#999;stroke-width:3" />
<path d="M685.54,31.54c0.83,0.83,1.03,2.08,1.03,2.97c0,1-0.07,3.78-0.07,6.24" style="fill:none;stroke:#999;stroke-width:3" />
<path d="M673.2,42.75c1.3,0.75,3.92,0.84,5.82,0.46c5.33-1.07,14.07-2.7,15.04-2.85c2.27-0.35,2.95,1.3,2.74,2.92c-0.97,7.55-2.5,24.99-2.5,25.63" style="fill:none;stroke:#999;stroke-width:3" />
<path d="M676.25,54.88c5.61-0.66,13.04-1.9,18.12-2.5" style="fill:none;stroke:#999;stroke-width:3" />
<path d="M676.0,66.75c4.07-0.48,11.19-1.34,17.38-2.12" style="fill:none;stroke:#999;stroke-width:3" />
<path d="M673.7,43.5c0.83,0.83,1.01,2.28,1.01,3.32c0,2.93-0.08,37.55-0.08,41.47c0,2.3,1.26,3.45,3.5,1.95c3.61-2.41,12.53-7.88,16.5-10.5" style="fill:none;stroke:black;stroke-width:3" />
<circle cx="673.7" cy="43.5" r="5" stroke-width="0" fill="#FF2A00" opacity="0.7" />
<path d="M794.8299999999999,13.67c0.04,1.29-0.22,2.49-0.78,3.6c-3.19,7.3-10.97,17.98-19.55,23.94" style="fill:none;stroke:#999;stroke-width:3" />
<path d="M797.35,19.21c4.15,2.42,8.54,5.83,11.65,10.3" style="fill:none;stroke:#999;stroke-width:3" />
<path d="M794.54,31.54c0.83,0.83,1.03,2.08,1.03,2.97c0,1-0.07,3.78-0.07,6.24" style="fill:none;stroke:#999;stroke-width:3" />
<path d="M782.2,42.75c1.3,0.75,3.92,0.84,5.82,0.46c5.33-1.07,14.07-2.7,15.04-2.85c2.27-0.35,2.95,1.3,2.74,2.92c-0.97,7.55-2.5,24.99-2.5,25.63" style="fill:none;stroke:#999;stroke-width:3" />
<path d="M785.25,54.88c5.61-0.66,13.04-1.9,18.12-2.5" style="fill:none;stroke:#999;stroke-width:3" />
<path d="M785.0,66.75c4.07-0.48,11.19-1.34,17.38-2.12" style="fill:none;stroke:#999;stroke-width:3" />
<path d="M782.7,43.5c0.83,0.83,1.01,2.28,1.01,3.32c0,2.93-0.08,37.55-0.08,41.47c0,2.3,1.26,3.45,3.5,1.95c3.61-2.41,12.53-7.88,16.5-10.5" style="fill:none;stroke:#999;stroke-width:3" />
<path d="M801.07,73.31c2.43,2.2,6.25,8.05,7.63,12.69" style="fill:none;stroke:black;stroke-width:3" />
<circle cx="801.07" cy="73.31" r="5" stroke-width="0" fill="#FF2A00" opacity="0.7" />
<path d="M903.8299999999999,13.67c0.04,1.29-0.22,2.49-0.78,3.6c-3.19,7.3-10.97,17.98-19.55,23.94" style="fill:none;stroke:#999;stroke-width:3" />
<path d="M906.35,19.21c4.15,2.42,8.54,5.83,11.65,10.3" style="fill:none;stroke:#999;stroke-width:3" />
<path d="M903.54,31.54c0.83,0.83,1.03,2.08,1.03,2.97c0,1-0.07,3.78-0.07,6.24" style="fill:none;stroke:#999;stroke-width:3" />
<path d="M891.2,42.75c1.3,0.75,3.92,0.84,5.82,0.46c5.33-1.07,14.07-2.7,15.04-2.85c2.27-0.35,2.95,1.3,2.74,2.92c-0.97,7.55-2.5,24.99-2.5,25.63" style="fill:none;stroke:#999;stroke-width:3" />
<path d="M894.25,54.88c5.61-0.66,13.04-1.9,18.12-2.5" style="fill:none;stroke:#999;stroke-width:3" />
<path d="M894.0,66.75c4.07-0.48,11.19-1.34,17.38-2.12" style="fill:none;stroke:#999;stroke-width:3" />
<path d="M891.7,43.5c0.83,0.83,1.01,2.28,1.01,3.32c0,2.93-0.08,37.55-0.08,41.47c0,2.3,1.26,3.45,3.5,1.95c3.61-2.41,12.53-7.88,16.5-10.5" style="fill:none;stroke:#999;stroke-width:3" />
<path d="M910.07,73.31c2.43,2.2,6.25,8.05,7.63,12.69" style="fill:none;stroke:#999;stroke-width:3" />
<path d="M926.46,14.59c2.99,2.15,7.23,8.6,7.98,11.96" style="fill:none;stroke:black;stroke-width:3" />
<circle cx="926.46" cy="14.59" r="5" stroke-width="0" fill="#FF2A00" opacity="0.7" />
<path d="M1012.8299999999999,13.67c0.04,1.29-0.22,2.49-0.78,3.6c-3.19,7.3-10.97,17.98-19.55,23.94" style="fill:none;stroke:#999;stroke-width:3" />
<path d="M1015.35,19.21c4.15,2.42,8.54,5.83,11.65,10.3" style="fill:none;stroke:#999;stroke-width:3" />
<path d="M1012.54,31.54c0.83,0.83,1.03,2.08,1.03,2.97c0,1-0.07,3.78-0.07,6.24" style="fill:none;stroke:#999;stroke-width:3" />
<path d="M1000.2,42.75c1.3,0.75,3.92,0.84,5.82,0.46c5.33-1.07,14.07-2.7,15.04-2.85c2.27-0.35,2.95,1.3,2.74,2.92c-0.97,7.55-2.5,24.99-2.5,25.63" style="fill:none;stroke:#999;stroke-width:3" />
<path d="M1003.25,54.88c5.61-0.66,13.04-1.9,18.12-2.5" style="fill:none;stroke:#999;stroke-width:3" />
<path d="M1003.0,66.75c4.07-0.48,11.19-1.34,17.38-2.12" style="fill:none;stroke:#999;stroke-width:3" />
<path d="M1000.7,43.5c0.83,0.83,1.01,2.28,1.01,3.32c0,2.93-0.08,37.55-0.08,41.47c0,2.3,1.26,3.45,3.5,1.95c3.61-2.41,12.53-7.88,16.5-10.5" style="fill:none;stroke:#999;stroke-width:3" />
<path d="M1019.07,73.31c2.43,2.2,6.25,8.05,7.63,12.69" style="fill:none;stroke:#999;stroke-width:3" />
<path d="M1035.46,14.59c2.99,2.15,7.23,8.6,7.98,11.96" style="fill:none;stroke:#999;stroke-width:3" />
<path d="M1067.05,10.39c0.13,1.13-0.03,2.22-0.46,3.26c-1.96,4.97-4.25,9.69-8.12,15.2" style="fill:none;stroke:black;stroke-width:3" />
<circle cx="1067.05" cy="10.39" r="5" stroke-width="0" fill="#FF2A00" opacity="0.7" />
<path d="M1121.83,13.67c0.04,1.29-0.22,2.49-0.78,3.6c-3.19,7.3-10.97,17.98-19.55,23.94" style="fill:none;stroke:#999;stroke-width:3" />
<path d="M1124.35,19.21c4.15,2.42,8.54,5.83,11.65,10.3" style="fill:none;stroke:#999;stroke-width:3" />
<path d="M1121.54,31.54c0.83,0.83,1.03,2.08,1.03,2.97c0,1-0.07,3.78-0.07,6.24" style="fill:none;stroke:#999;stroke-width:3" />
<path d="M1109.2,42.75c1.3,0.75,3.92,0.84,5.82,0.46c5.33-1.07,14.07-2.7,15.04-2.85c2.27-0.35,2.95,1.3,2.74,2.92c-0.97,7.55-2.5,24.99-2.5,25.63" style="fill:none;stroke:#999;stroke-width:3" />
<path d="M1112.25,54.88c5.61-0.66,13.04-1.9,18.12-2.5" style="fill:none;stroke:#999;stroke-width:3" />
<path d="M1112.0,66.75c4.07-0.48,11.19-1.34,17.38-2.12" style="fill:none;stroke:#999;stroke-width:3" />
<path d="M1109.7,43.5c0.83,0.83,1.01,2.28,1.01,3.32c0,2.93-0.08,37.55-0.08,41.47c0,2.3,1.26,3.45,3.5,1.95c3.61-2.41,12.53-7.88,16.5-10.5" style="fill:none;stroke:#999;stroke-width:3" />
<path d="M1128.0700000000002,73.31c2.43,2.2,6.25,8.05,7.63,12.69" style="fill:none;stroke:#999;stroke-width:3" />
<path d="M1144.46,14.59c2.99,2.15,7.23,8.6,7.98,11.96" style="fill:none;stroke:#999;stroke-width:3" />
<path d="M1176.05,10.39c0.13,1.13-0.03,2.22-0.46,3.26c-1.96,4.97-4.25,9.69-8.12,15.2" style="fill:none;stroke:#999;stroke-width:3" />
<path d="M1143.2,34.49c2.44,0.65,4.88,0.42,7.32-0.18c7.99-1.5,18.6-2.81,27.36-3.92c2.22-0.22,4.41-0.33,6.59,0.16" style="fill:none;stroke:black;stroke-width:3" />
<circle cx="1143.2" cy="34.49" r="5" stroke-width="0" fill="#FF2A00" opacity="0.7" />
<path d="M1230.83,13.67c0.04,1.29-0.22,2.49-0.78,3.6c-3.19,7.3-10.97,17.98-19.55,23.94" style="fill:none;stroke:#999;stroke-width:3" />
<path d="M1233.35,19.21c4.15,2.42,8.54,5.83,11.65,10.3" style="fill:none;stroke:#999;stroke-width:3" />
<path d="M1230.54,31.54c0.83,0.83,1.03,2.08,1.03,2.97c0,1-0.07,3.78-0.07,6.24" style="fill:none;stroke:#999;stroke-width:3" />
<path d="M1218.2,42.75c1.3,0.75,3.92,0.84,5.82,0.46c5.33-1.07,14.07-2.7,15.04-2.85c2.27-0.35,2.95,1.3,2.74,2.92c-0.97,7.55-2.5,24.99-2.5,25.63" style="fill:none;stroke:#999;stroke-width:3" />
<path d="M1221.25,54.88c5.61-0.66,13.04-1.9,18.12-2.5" style="fill:none;stroke:#999;stroke-width:3" />
<path d="M1221.0,66.75c4.07-0.48,11.19-1.34,17.38-2.12" style="fill:none;stroke:#999;stroke-width:3" />
<path d="M1218.7,43.5c0.83,0.83,1.01,2.28,1.01,3.32c0,2.93-0.08,37.55-0.08,41.47c0,2.3,1.26,3.45,3.5,1.95c3.61-2.41,12.53-7.88,16.5-10.5" style="fill:none;stroke:#999;stroke-width:3" />
<path d="M1237.0700000000002,73.31c2.43,2.2,6.25,8.05,7.63,12.69" style="fill:none;stroke:#999;stroke-width:3" />
<path d="M1253.46,14.59c2.99,2.15,7.23,8.6,7.98,11.96" style="fill:none;stroke:#999;stroke-width:3" />
<path d="M1285.05,10.39c0.13,1.13-0.03,2.22-0.46,3.26c-1.96,4.97-4.25,9.69-8.12,15.2" style="fill:none;stroke:#999;stroke-width:3" />
<path d="M1252.2,34.49c2.44,0.65,4.88,0.42,7.32-0.18c7.99-1.5,18.6-2.81,27.36-3.92c2.22-0.22,4.41-0.33,6.59,0.16" style="fill:none;stroke:#999;stroke-width:3" />
<path d="M1248.0,58.45c2.9,0.72,5.77,0.27,8.72-0.07c11.64-1.35,21.4-2.26,32.78-3.11c2.87-0.22,5.69-0.27,8.5,0.36" style="fill:none;stroke:black;stroke-width:3" />
<circle cx="1248.0" cy="58.45" r="5" stroke-width="0" fill="#FF2A00" opacity="0.7" />
<path d="M1339.83,13.67c0.04,1.29-0.22,2.49-0.78,3.6c-3.19,7.3-10.97,17.98-19.55,23.94" style="fill:none;stroke:#999;stroke-width:3" />
<path d="M1342.35,19.21c4.15,2.42,8.54,5.83,11.65,10.3" style="fill:none;stroke:#999;stroke-width:3" />
<path d="M1339.54,31.54c0.83,0.83,1.03,2.08,1.03,2.97c0,1-0.07,3.78-0.07,6.24" style="fill:none;stroke:#999;stroke-width:3" />
<path d="M1327.2,42.75c1.3,0.75,3.92,0.84,5.82,0.46c5.33-1.07,14.07-2.7,15.04-2.85c2.27-0.35,2.95,1.3,2.74,2.92c-0.97,7.55-2.5,24.99-2.5,25.63" style="fill:none;stroke:#999;stroke-width:3" />
<path d="M1330.25,54.88c5.61-0.66,13.04-1.9,18.12-2.5" style="fill:none;stroke:#999;stroke-width:3" />
<path d="M1330.0,66.75c4.07-0.48,11.19-1.34,17.38-2.12" style="fill:none;stroke:#999;stroke-width:3" />
<path d="M1327.7,43.5c0.83,0.83,1.01,2.28,1.01,3.32c0,2.93-0.08,37.55-0.08,41.47c0,2.3,1.26,3.45,3.5,1.95c3.61-2.41,12.53-7.88,16.5-10.5" style="fill:none;stroke:#999;stroke-width:3" />
<path d="M1346.0700000000002,73.31c2.43,2.2,6.25,8.05,7.63,12.69" style="fill:none;stroke:#999;stroke-width:3" />
<path d="M1362.46,14.59c2.99,2.15,7.23,8.6,7.98,11.96" style="fill:none;stroke:#999;stroke-width:3" />
<path d="M1394.05,10.39c0.13,1.13-0.03,2.22-0.46,3.26c-1.96,4.97-4.25,9.69-8.12,15.2" style="fill:none;stroke:#999;stroke-width:3" />
<path d="M1361.2,34.49c2.44,0.65,4.88,0.42,7.32-0.18c7.99-1.5,18.6-2.81,27.36-3.92c2.22-0.22,4.41-0.33,6.59,0.16" style="fill:none;stroke:#999;stroke-width:3" />
<path d="M1357.0,58.45c2.9,0.72,5.77,0.27,8.72-0.07c11.64-1.35,21.4-2.26,32.78-3.11c2.87-0.22,5.69-0.27,8.5,0.36" style="fill:none;stroke:#999;stroke-width:3" />
<path d="M1370.42,36.93c0.95,0.95,1.35,2.14,1.36,4.15c0.09,20.79,0.97,41.16-17.94,54.75" style="fill:none;stroke:black;stroke-width:3" />
<circle cx="1370.42" cy="36.93" r="5" stroke-width="0" fill="#FF2A00" opacity="0.7" />
<path d="M1448.83,13.67c0.04,1.29-0.22,2.49-0.78,3.6c-3.19,7.3-10.97,17.98-19.55,23.94" style="fill:none;stroke:#999;stroke-width:3" />
<path d="M1451.35,19.21c4.15,2.42,8.54,5.83,11.65,10.3" style="fill:none;stroke:#999;stroke-width:3" />
<path d="M1448.54,31.54c0.83,0.83,1.03,2.08,1.03,2.97c0,1-0.07,3.78-0.07,6.24" style="fill:none;stroke:#999;stroke-width:3" />
<path d="M1436.2,42.75c1.3,0.75,3.92,0.84,5.82,0.46c5.33-1.07,14.07-2.7,15.04-2.85c2.27-0.35,2.95,1.3,2.74,2.92c-0.97,7.55-2.5,24.99-2.5,25.63" style="fill:none;stroke:#999;stroke-width:3" />
<path d="M1439.25,54.88c5.61-0.66,13.04-1.9,18.12-2.5" style="fill:none;stroke:#999;stroke-width:3" />
<path d="M1439.0,66.75c4.07-0.48,11.19-1.34,17.38-2.12" style="fill:none;stroke:#999;stroke-width:3" />
<path d="M1436.7,43.5c0.83,0.83,1.01,2.28,1.01,3.32c0,2.93-0.08,37.55-0.08,41.47c0,2.3,1.26,3.45,3.5,1.95c3.61-2.41,12.53-7.88,16.5-10.5" style="fill:none;stroke:#999;stroke-width:3" />
<path d="M1455.0700000000002,73.31c2.43,2.2,6.25,8.05,7.63,12.69" style="fill:none;stroke:#999;stroke-width:3" />
<path d="M1471.46,14.59c2.99,2.15,7.23,8.6,7.98,11.96" style="fill:none;stroke:#999;stroke-width:3" />
<path d="M1503.05,10.39c0.13,1.13-0.03,2.22-0.46,3.26c-1.96,4.97-4.25,9.69-8.12,15.2" style="fill:none;stroke:#999;stroke-width:3" />
<path d="M1470.2,34.49c2.44,0.65,4.88,0.42,7.32-0.18c7.99-1.5,18.6-2.81,27.36-3.92c2.22-0.22,4.41-0.33,6.59,0.16" style="fill:none;stroke:#999;stroke-width:3" />
<path d="M1466.0,58.45c2.9,0.72,5.77,0.27,8.72-0.07c11.64-1.35,21.4-2.26,32.78-3.11c2.87-0.22,5.69-0.27,8.5,0.36" style="fill:none;stroke:#999;stroke-width:3" />
<path d="M1479.42,36.93c0.95,0.95,1.35,2.14,1.36,4.15c0.09,20.79,0.97,41.16-17.94,54.75" style="fill:none;stroke:#999;stroke-width:3" />
<path d="M1496.66,34.23c0.99,0.99,1.01,2.14,1.01,3.01c0,0.67-0.08,32.92-0.12,50.88c-0.01,5.18-0.02,9.17-0.02,10.88" style="fill:none;stroke:black;stroke-width:3" />
<circle cx="1496.66" cy="34.23" r="5" stroke-width="0" fill="#FF2A00" opacity="0.7" />
</svg>