<svg width="2180px" height="109px" viewBox="0 0 2180px 109px" xmlns="http://www.w3.org/2000/svg" xmlns:xlink="http://www.w3.org/1999/xlink" xml:space="preserve" version="1.1"  baseProfile="full">
<line x1="1" y1="1" x2="2179" y2="1" style="stroke:#ddd;stroke-width:2" />
<line x1="1" y1="1" x2="1" y2="108" style="stroke:#ddd;stroke-width:2" />
<line x1="1" y1="108" x2="2179" y2="108" style="stroke:#ddd;stroke-width:2" />
<line x1="2179" y1="1" x2="2179" y2="108" style="stroke:#ddd;stroke-width:2" />
<line x1="109" y1="1" x2="109" y2="108" style="stroke:#ddd;stroke-width:2" />
<line x1="218" y1="1" x2="218" y2="108" style="stroke:#ddd;stroke-width:2" />
<line x1="327" y1="1" x2="327" y2="108" style="stroke:#ddd;stroke-width:2" />
<line x1="436" y1="1" x2="436" y2="108" style="stroke:#ddd;stroke-width:2" />
<line x1="545" y1="1" x2="545" y2="108" style="stroke:#ddd;stroke-width:2" />
<line x1="654" y1="1" x2="654" y2="108" style="stroke:#ddd;stroke-width:2" />
<line x1="763" y1="1" x2="763" y2="108" style="stroke:#ddd;stroke-width:2" />
<line x1="872" y1="1" x2="872" y2="108" style="stroke:#ddd;stroke-width:2" />
<line x1="981" y1="1" x2="981" y2="108" style="stroke:#ddd;stroke-width:2" />
<line x1="1090" y1="1" x2="1090" y2="108" style="stroke:#ddd;stroke-width:2" />
<line x1="1199" y1="1" x2="1199" y2="108" style="stroke:#ddd;stroke-width:2" />
<line x1="1308" y1="1" x2="1308" y2="108" style="stroke:#ddd;stroke-width:2" />
<line x1="1417" y1="1" x2="1417" y2="108" style="stroke:#ddd;stroke-width:2" />
<line x1="1526" y1="1" x2="1526" y2="108" style="stroke:#ddd;stroke-width:2" />
<line x1="1635" y1="1" x2="1635" y2="108" style="stroke:#ddd;stroke-width:2" />
<line x1="1744" y1="1" x2="1744" y2="108" style="stroke:#ddd;stroke-width:2" />
<line x1="1853" y1="1" x2="1853" y2="108" style="stroke:#ddd;stroke-width:2" />
<line x1="1962" y1="1" x2="1962" y2="108" style="stroke:#ddd;stroke-width:2" />
<line x1="2071" y1="1" x2="2071" y2="108" style="stroke:#ddd;stroke-width:2" />
<line x1="1" y1="54" x2="2179" y2="54" style="stroke:#ddd;stroke-width:2;stroke-dasharray:3 3" />
<line x1="55" y1="1" x2="55" y2="108" style="stroke:#ddd;stroke-width:2;stroke-dasharray:3 3" />
<line x1="164" y1="1" x2="164" y2="108" style="stroke:#ddd;stroke-width:2;stroke-dasharray:3 3" />
<line x1="273" y1="1" x2="273" y2="108" style="stroke:#ddd;stroke-width:2;stroke-dasharray:3 3" />
<line x1="382" y1="1" x2="382" y2="108" style="stroke:#ddd;stroke-width:2;stroke-dasharray:3 3" />
<line x1="491" y1="1" x2="491" y2="108" style="stroke:#ddd;stroke-width:2;stroke-dasharray:3 3" />
<line x1="600" y1="1" x2="600" y2="108" style="stroke:#ddd;stroke-width:2;stroke-dasharray:3 3" />
<line x1="709" y1="1" x2="709" y2="108" style="stroke:#ddd;stroke-width:2;stroke-dasharray:3 3" />
<line x1="818" y1="1" x2="818" y2="108" style="stroke:#ddd;stroke-width:2;stroke-dasharray:3 3" />
<line x1="927" y1="1" x2="927" y2="108" style="stroke:#ddd;stroke-width:2;stroke-dasharray:3 3" />
<line x1="1036" y1="1" x2="1036" y2="108" style="stroke:#ddd;stroke-width:2;stroke-dasharray:3 3" />
<line x1="1145" y1="1" x2="1145" y2="108" style="stroke:#ddd;stroke-width:2;stroke-dasharray:3 3" />
<line x1="1254" y1="1" x2="1254" y2="108" style="stroke:#ddd;stroke-width:2;stroke-dasharray:3 3" />
<line x1="1363" y1="1" x2="1363" y2="108" style="stroke:#ddd;stroke-width:2;stroke-dasharray:3 3" />
<line x1="1472" y1="1" x2="1472" y2="108" style="stroke:#ddd;stroke-width:2;stroke-dasharray:3 3" />
<line x1="1581" y1="1" x2="1581" y2="108" style="stroke:#ddd;stroke-width:2;stroke-dasharray:3 3" />
<line x1="1690" y1="1" x2="1690" y2="108" style="stroke:#ddd;stroke-width:2;stroke-dasharray:3 3" />
<line x1="1799" y1="1" x2="1799" y2="108" style="stroke:#ddd;stroke-width:2;stroke-dasharray:3 3" />
<line x1="1908" y1="1" x2="1908" y2="108" style="stroke:#ddd;stroke-width:2;stroke-dasharray:3 3" />
<line x1="2017" y1="1" x2="2017" y2="108" style="stroke:#ddd;stroke-width:2;stroke-dasharray:3 3" />
<line x1="2126" y1="1" x2="2126" y2="108" style="stroke:#ddd;stroke-width:2;stroke-dasharray:3 3" />
<path d="M26.46,10.87c0,0.88-0.52,1.91-1.17,2.76c-2.96,3.85-3.78,4.83-7.24,8.42c-1.32,1.37-0.89,2.42,0.83,2.91c2.37,0.67,5.12,1.79,7.05,2.8" style="fill:none;stroke:black;stroke-width:3" />
<circle cx="26.46" cy="10.87" r="5" stroke-width="0" fill="#FF2A00" opacity="0.7" />
<path d="M135.46,10.87c0,0.88-0.52,1.91-1.17,2.76c-2.96,3.85-3.78,4.83-7.24,8.42c-1.32,1.37-0.89,2.42,0.83,2.91c2.37,0.67,5.12,1.79,7.05,2.8" style="fill:none;stroke:#999;stroke-width:3" />
<path d="M145.53,17.9c0,0.6-0.04,1.33-0.71,2c-4.3,4.33-10.73,10.78-16.51,15.58c-1.62,1.35-0.89,2.69,1.09,2.33c5.72-1.05,7.97-1.3,13.39-2.37" style="fill:none;stroke:black;stroke-width:3" />
<circle cx="145.53" cy="17.9" r="5" stroke-width="0" fill="#FF2A00" opacity="0.7" />
<path d="M244.46,10.87c0,0.88-0.52,1.91-1.17,2.76c-2.96,3.85-3.78,4.83-7.24,8.42c-1.32,1.37-0.89,2.42,0.83,2.91c2.37,0.67,5.12,1.79,7.05,2.8" style="fill:none;stroke:#999;stroke-width:3" />
<path d="M254.53,17.9c0,0.6-0.04,1.33-0.71,2c-4.3,4.33-10.73,10.78-16.51,15.58c-1.62,1.35-0.89,2.69,1.09,2.33c5.72-1.05,7.97-1.3,13.39-2.37" style="fill:none;stroke:#999;stroke-width:3" />
<path d="M254.24,28.66c0.26,0.84,0.31,1.48,0.19,2.31c-0.73,5.32-4.69,15.9-16.02,21.86" style="fill:none;stroke:black;stroke-width:3" />
<circle cx="254.24" cy="28.66" r="5" stroke-width="0" fill="#FF2A00" opacity="0.7" />
<path d="M353.46000000000004,10.87c0,0.88-0.52,1.91-1.17,2.76c-2.96,3.85-3.78,4.83-7.24,8.42c-1.32,1.37-0.89,2.42,0.83,2.91c2.37,0.67,5.12,1.79,7.05,2.8" style="fill:none;stroke:#999;stroke-width:3" />
<path d="M363.53,17.9c0,0.6-0.04,1.33-0.71,2c-4.3,4.33-10.73,10.78-16.51,15.58c-1.62,1.35-0.89,2.69,1.09,2.33c5.72-1.05,7.97-1.3,13.39-2.37" style="fill:none;stroke:#999;stroke-width:3" />
<path d="M363.24,28.66c0.26,0.84,0.31,1.48,0.19,2.31c-0.73,5.32-4.69,15.9-16.02,21.86" style="fill:none;stroke:#999;stroke-width:3" />
<path d="M371.1,13.42c1.14,0.51,1.98,0.43,3.28,0.2c5.74-0.99,14.38-1.98,15.35-2.07c2.18-0.2,2.83,0.74,2.63,1.67c-0.93,4.31-1.64,12.51-2.88,18.08" style="fill:none;stroke:black;stroke-width:3" />
<circle cx="371.1" cy="13.42" r="5" stroke-width="0" fill="#FF2A00" opacity="0.7" />
<path d="M462.46000000000004,10.87c0,0.88-0.52,1.91-1.17,2.76c-2.96,3.85-3.78,4.83-7.24,8.42c-1.32,1.37-0.89,2.42,0.83,2.91c2.37,0.67,5.12,1.79,7.05,2.8" style="fill:none;stroke:#999;stroke-width:3" />
<path d="M472.53,17.9c0,0.6-0.04,1.33-0.71,2c-4.3,4.33-10.73,10.78-16.51,15.58c-1.62,1.35-0.89,2.69,1.09,2.33c5.72-1.05,7.97-1.3,13.39-2.37" style="fill:none;stroke:#999;stroke-width:3" />
<path d="M472.24,28.66c0.26,0.84,0.31,1.48,0.19,2.31c-0.73,5.32-4.69,15.9-16.02,21.86" style="fill:none;stroke:#999;stroke-width:3" />
<path d="M480.1,13.42c1.14,0.51,1.98,0.43,3.28,0.2c5.74-0.99,14.38-1.98,15.35-2.07c2.18-0.2,2.83,0.74,2.63,1.67c-0.93,4.31-1.64,12.51-2.88,18.08" style="fill:none;stroke:#999;stroke-width:3" />
<path d="M482.6,21.87c1.92,0,12.85-1.27,16.4-1.69" style="fill:none;stroke:black;stroke-width:3" />
<circle cx="482.6" cy="21.87" r="5" stroke-width="0" fill="#FF2A00" opacity="0.7" />
<path d="M571.46,10.87c0,0.88-0.52,1.91-1.17,2.76c-2.96,3.85-3.78,4.83-7.24,8.42c-1.32,1.37-0.89,2.42,0.83,2.91c2.37,0.67,5.12,1.79,7.05,2.8" style="fill:none;stroke:#999;stroke-width:3" />
<path d="M581.53,17.9c0,0.6-0.04,1.33-0.71,2c-4.3,4.33-10.73,10.78-16.51,15.58c-1.62,1.35-0.89,2.69,1.09,2.33c5.72-1.05,7.97-1.3,13.39-2.37" style="fill:none;stroke:#999;stroke-width:3" />
<path d="M581.24,28.66c0.26,0.84,0.31,1.48,0.19,2.31c-0.73,5.32-4.69,15.9-16.02,21.86" style="fill:none;stroke:#999;stroke-width:3" />
<path d="M589.1,13.42c1.14,0.51,1.98,0.43,3.28,0.2c5.74-0.99,14.38-1.98,15.35-2.07c2.18-0.2,2.83,0.74,2.63,1.67c-0.93,4.31-1.64,12.51-2.88,18.08" style="fill:none;stroke:#999;stroke-width:3" />
<path d="M591.6,21.87c1.92,0,12.85-1.27,16.4-1.69" style="fill:none;stroke:#999;stroke-width:3" />
<path d="M591.51,30.34c3.9-0.27,11.04-1.06,15.39-1.57" style="fill:none;stroke:black;stroke-width:3" />
<circle cx="591.51" cy="30.34" r="5" stroke-width="0" fill="#FF2A00" opacity="0.7" />
<path d="M680.46,10.87c0,0.88-0.52,1.91-1.17,2.76c-2.96,3.85-3.78,4.83-7.24,8.42c-1.32,1.37-0.89,2.42,0.83,2.91c2.37,0.67,5.12,1.79,7.05,2.8" style="fill:none;stroke:#999;stroke-width:3" />
<path d="M690.53,17.9c0,0.6-0.04,1.33-0.71,2c-4.3,4.33-10.73,10.78-16.51,15.58c-1.62,1.35-0.89,2.69,1.09,2.33c5.72-1.05,7.97-1.3,13.39-2.37" style="fill:none;stroke:#999;stroke-width:3" />
<path d="M690.24,28.66c0.26,0.84,0.31,1.48,0.19,2.31c-0.73,5.32-4.69,15.9-16.02,21.86" style="fill:none;stroke:#999;stroke-width:3" />
<path d="M698.1,13.42c1.14,0.51,1.98,0.43,3.28,0.2c5.74-0.99,14.38-1.98,15.35-2.07c2.18-0.2,2.83,0.74,2.63,1.67c-0.93,4.31-1.64,12.51-2.88,18.08" style="fill:none;stroke:#999;stroke-width:3" />
<path d="M700.6,21.87c1.92,0,12.85-1.27,16.4-1.69" style="fill:none;stroke:#999;stroke-width:3" />
<path d="M700.51,30.34c3.9-0.27,11.04-1.06,15.39-1.57" style="fill:none;stroke:#999;stroke-width:3" />
<path d="M699.37,14.31c0.66,0.66,0.7,1.57,0.7,2.64c0,2.8-0.07,24.77-0.07,27.18c0,1.66,0.6,1.78,1.91,1.18c3.72-1.68,8.22-4.06,11.47-5.68" style="fill:none;stroke:black;stroke-width:3" />
<circle cx="699.37" cy="14.31" r="5" stroke-width="0" fill="#FF2A00" opacity="0.7" />
<path d="M789.46,10.87c0,0.88-0.52,1.91-1.17,2.76c-2.96,3.85-3.78,4.83-7.24,8.42c-1.32,1.37-0.89,2.42,0.83,2.91c2.37,0.67,5.12,1.79,7.05,2.8" style="fill:none;stroke:#999;stroke-width:3" />
<path d="M799.53,17.9c0,0.6-0.04,1.33-0.71,2c-4.3,4.33-10.73,10.78-16.51,15.58c-1.62,1.35-0.89,2.69,1.09,2.33c5.72-1.05,7.97-1.3,13.39-2.37" style="fill:none;stroke:#999;stroke-width:3" />
<path d="M799.24,28.66c0.26,0.84,0.31,1.48,0.19,2.31c-0.73,5.32-4.69,15.9-16.02,21.86" style="fill:none;stroke:#999;stroke-width:3" />
<path d="M807.1,13.42c1.14,0.51,1.98,0.43,3.28,0.2c5.74-0.99,14.38-1.98,15.35-2.07c2.18-0.2,2.83,0.74,2.63,1.67c-0.93,4.31-1.64,12.51-2.88,18.08" style="fill:none;stroke:#999;stroke-width:3" />
<path d="M809.6,21.87c1.92,0,12.85-1.27,16.4-1.69" style="fill:none;stroke:#999;stroke-width:3" />
<path d="M809.51,30.34c3.9-0.27,11.04-1.06,15.39-1.57" style="fill:none;stroke:#999;stroke-width:3" />
<path d="M808.37,14.31c0.66,0.66,0.7,1.57,0.7,2.64c0,2.8-0.07,24.77-0.07,27.18c0,1.66,0.6,1.78,1.91,1.18c3.72-1.68,8.22-4.06,11.47-5.68" style="fill:none;stroke:#999;stroke-width:3" />
<path d="M820.88,35.29c2.58,1.8,6.89,7.09,8.37,10.89" style="fill:none;stroke:black;stroke-width:3" />
<circle cx="820.88" cy="35.29" r="5" stroke-width="0" fill="#FF2A00" opacity="0.7" />
<path d="M898.46,10.87c0,0.88-0.52,1.91-1.17,2.76c-2.96,3.85-3.78,4.83-7.24,8.42c-1.32,1.37-0.89,2.42,0.83,2.91c2.37,0.67,5.12,1.79,7.05,2.8" style="fill:none;stroke:#999;stroke-width:3" />
<path d="M908.53,17.9c0,0.6-0.04,1.33-0.71,2c-4.3,4.33-10.73,10.78-16.51,15.58c-1.62,1.35-0.89,2.69,1.09,2.33c5.72-1.05,7.97-1.3,13.39-2.37" style="fill:none;stroke:#999;stroke-width:3" />
<path d="M908.24,28.66c0.26,0.84,0.31,1.48,0.19,2.31c-0.73,5.32-4.69,15.9-16.02,21.86" style="fill:none;stroke:#999;stroke-width:3" />
<path d="M916.1,13.42c1.14,0.51,1.98,0.43,3.28,0.2c5.74-0.99,14.38-1.98,15.35-2.07c2.18-0.2,2.83,0.74,2.63,1.67c-0.93,4.31-1.64,12.51-2.88,18.08" style="fill:none;stroke:#999;stroke-width:3" />
<path d="M918.6,21.87c1.92,0,12.85-1.27,16.4-1.69" style="fill:none;stroke:#999;stroke-width:3" />
<path d="M918.51,30.34c3.9-0.27,11.04-1.06,15.39-1.57" style="fill:none;stroke:#999;stroke-width:3" />
<path d="M917.37,14.31c0.66,0.66,0.7,1.57,0.7,2.64c0,2.8-0.07,24.77-0.07,27.18c0,1.66,0.6,1.78,1.91,1.18c3.72-1.68,8.22-4.06,11.47-5.68" style="fill:none;stroke:#999;stroke-width:3" />
<path d="M929.88,35.29c2.58,1.8,6.89,7.09,8.37,10.89" style="fill:none;stroke:#999;stroke-width:3" />
<path d="M945.56,14.38c0.94,0.12,1.62,0.34,2.42,0.27c4.54-0.44,9.9-1.63,12.06-2.07c3.21-0.66,3.7,0.99,2.23,2.83c-1.76,2.21-5.49,7.28-7.17,8.76" style="fill:none;stroke:black;stroke-width:3" />
<circle cx="945.56" cy="14.38" r="5" stroke-width="0" fill="#FF2A00" opacity="0.7" />
<path d="M1007.46,10.87c0,0.88-0.52,1.91-1.17,2.76c-2.96,3.85-3.78,4.83-7.24,8.42c-1.32,1.37-0.89,2.42,0.83,2.91c2.37,0.67,5.12,1.79,7.05,2.8" style="fill:none;stroke:#999;stroke-width:3" />
<path d="M1017.53,17.9c0,0.6-0.04,1.33-0.71,2c-4.3,4.33-10.73,10.78-16.51,15.58c-1.62,1.35-0.89,2.69,1.09,2.33c5.72-1.05,7.97-1.3,13.39-2.37" style="fill:none;stroke:#999;stroke-width:3" />
<path d="M1017.24,28.66c0.26,0.84,0.31,1.48,0.19,2.31c-0.73,5.32-4.69,15.9-16.02,21.86" style="fill:none;stroke:#999;stroke-width:3" />
<path d="M1025.1,13.42c1.14,0.51,1.98,0.43,3.28,0.2c5.74-0.99,14.38-1.98,15.35-2.07c2.18-0.2,2.83,0.74,2.63,1.67c-0.93,4.31-1.64,12.51-2.88,18.08" style="fill:none;stroke:#999;stroke-width:3" />
<path d="M1027.6,21.87c1.92,0,12.85-1.27,16.4-1.69" style="fill:none;stroke:#999;stroke-width:3" />
<path d="M1027.51,30.34c3.9-0.27,11.04-1.06,15.39-1.57" style="fill:none;stroke:#999;stroke-width:3" />
<path d="M1026.37,14.31c0.66,0.66,0.7,1.57,0.7,2.64c0,2.8-0.07,24.77-0.07,27.18c0,1.66,0.6,1.78,1.91,1.18c3.72-1.68,8.22-4.06,11.47-5.68" style="fill:none;stroke:#999;stroke-width:3" />
<path d="M1038.88,35.29c2.58,1.8,6.89,7.09,8.37,10.89" style="fill:none;stroke:#999;stroke-width:3" />
<path d="M1054.56,14.38c0.94,0.12,1.62,0.34,2.42,0.27c4.54-0.44,9.9-1.63,12.06-2.07c3.21-0.66,3.7,0.99,2.23,2.83c-1.76,2.21-5.49,7.28-7.17,8.76" style="fill:none;stroke:#999;stroke-width:3" />
<path d="M1064.5,24.16c13.5,6.84,10.25,24.09,0.67,18" style="fill:none;stroke:black;stroke-width:3" />
<circle cx="1064.5" cy="24.16" r="5" stroke-width="0" fill="#FF2A00" opacity="0.7" />
<path d="M1116.46,10.87c0,0.88-0.52,1.91-1.17,2.76c-2.96,3.85-3.78,4.83-7.24,8.42c-1.32,1.37-0.89,2.42,0.83,2.91c2.37,0.67,5.12,1.79,7.05,2.8" style="fill:none;stroke:#999;stroke-width:3" />
<path d="M1126.53,17.9c0,0.6-0.04,1.33-0.71,2c-4.3,4.33-10.73,10.78-16.51,15.58c-1.62,1.35-0.89,2.69,1.09,2.33c5.72-1.05,7.97-1.3,13.39-2.37" style="fill:none;stroke:#999;stroke-width:3" />
<path d="M1126.24,28.66c0.26,0.84,0.31,1.48,0.19,2.31c-0.73,5.32-4.69,15.9-16.02,21.86" style="fill:none;stroke:#999;stroke-width:3" />
<path d="M1134.1,13.42c1.14,0.51,1.98,0.43,3.28,0.2c5.74-0.99,14.38-1.98,15.35-2.07c2.18-0.2,2.83,0.74,2.63,1.67c-0.93,4.31-1.64,12.51-2.88,18.08" style="fill:none;stroke:#999;stroke-width:3" />
<path d="M1136.6,21.87c1.92,0,12.85-1.27,16.4-1.69" style="fill:none;stroke:#999;stroke-width:3" />
<path d="M1136.51,30.34c3.9-0.27,11.04-1.06,15.39-1.57" style="fill:none;stroke:#999;stroke-width:3" />
<path d="M1135.37,14.31c0.66,0.66,0.7,1.57,0.7,2.64c0,2.8-0.07,24.77-0.07,27.18c0,1.66,0.6,1.78,1.91,1.18c3.72-1.68,8.22-4.06,11.47-5.68" style="fill:none;stroke:#999;stroke-width:3" />
<path d="M1147.88,35.29c2.58,1.8,6.89,7.09,8.37,10.89" style="fill:none;stroke:#999;stroke-width:3" />
<path d="M1163.56,14.38c0.94,0.12,1.62,0.34,2.42,0.27c4.54-0.44,9.9-1.63,12.06-2.07c3.21-0.66,3.7,0.99,2.23,2.83c-1.76,2.21-5.49,7.28-7.17,8.76" style="fill:none;stroke:#999;stroke-width:3" />
<path d="M1173.5,24.16c13.5,6.84,10.25,24.09,0.67,18" style="fill:none;stroke:#999;stroke-width:3" />
<path d="M1164.37,15.14c0.81,0.81,0.96,1.73,0.96,2.88c0,4.08,0.02,16.47,0.03,24.98c0,3.17,0.01,5.79,0.01,7.25" style="fill:none;stroke:black;stroke-width:3" />
<circle cx="1164.37" cy="15.14" r="5" stroke-width="0" fill="#FF2A00" opacity="0.7" />
<path d="M1225.46,10.87c0,0.88-0.52,1.91-1.17,2.76c-2.96,3.85-3.78,4.83-7.24,8.42c-1.32,1.37-0.89,2.42,0.83,2.91c2.37,0.67,5.12,1.79,7.05,2.8" style="fill:none;stroke:#999;stroke-width:3" />
<path d="M1235.53,17.9c0,0.6-0.04,1.33-0.71,2c-4.3,4.33-10.73,10.78-16.51,15.58c-1.62,1.35-0.89,2.69,1.09,2.33c5.72-1.05,7.97-1.3,13.39-2.37" style="fill:none;stroke:#999;stroke-width:3" />
<path d="M1235.24,28.66c0.26,0.84,0.31,1.48,0.19,2.31c-0.73,5.32-4.69,15.9-16.02,21.86" style="fill:none;stroke:#999;stroke-width:3" />
<path d="M1243.1,13.42c1.14,0.51,1.98,0.43,3.28,0.2c5.74-0.99,14.38-1.98,15.35-2.07c2.18-0.2,2.83,0.74,2.63,1.67c-0.93,4.31-1.64,12.51-2.88,18.08" style="fill:none;stroke:#999;stroke-width:3" />
<path d="M1245.6,21.87c1.92,0,12.85-1.27,16.4-1.69" style="fill:none;stroke:#999;stroke-width:3" />
<path d="M1245.51,30.34c3.9-0.27,11.04-1.06,15.39-1.57" style="fill:none;stroke:#999;stroke-width:3" />
<path d="M1244.37,14.31c0.66,0.66,0.7,1.57,0.7,2.64c0,2.8-0.07,24.77-0.07,27.18c0,1.66,0.6,1.78,1.91,1.18c3.72-1.68,8.22-4.06,11.47-5.68" style="fill:none;stroke:#999;stroke-width:3" />
<path d="M1256.88,35.29c2.58,1.8,6.89,7.09,8.37,10.89" style="fill:none;stroke:#999;stroke-width:3" />
<path d="M1272.56,14.38c0.94,0.12,1.62,0.34,2.42,0.27c4.54-0.44,9.9-1.63,12.06-2.07c3.21-0.66,3.7,0.99,2.23,2.83c-1.76,2.21-5.49,7.28-7.17,8.76" style="fill:none;stroke:#999;stroke-width:3" />
<path d="M1282.5,24.16c13.5,6.84,10.25,24.09,0.67,18" style="fill:none;stroke:#999;stroke-width:3" />
<path d="M1273.37,15.14c0.81,0.81,0.96,1.73,0.96,2.88c0,4.08,0.02,16.47,0.03,24.98c0,3.17,0.01,5.79,0.01,7.25" style="fill:none;stroke:#999;stroke-width:3" />
<path d="M1251.5,48c-0.12,1.25-0.31,1.8-0.97,2.59c-5.39,6.5-21.2,16.08-38.03,21.69" style="fill:none;stroke:black;stroke-width:3" />
<circle cx="1251.5" cy="48.0" r="5" stroke-width="0" fill="#FF2A00" opacity="0.7" />
<path d="M1334.46,10.87c0,0.88-0.52,1.91-1.17,2.76c-2.96,3.85-3.78,4.83-7.24,8.42c-1.32,1.37-0.89,2.42,0.83,2.91c2.37,0.67,5.12,1.79,7.05,2.8" style="fill:none;stroke:#999;stroke-width:3" />
<path d="M1344.53,17.9c0,0.6-0.04,1.33-0.71,2c-4.3,4.33-10.73,10.78-16.51,15.58c-1.62,1.35-0.89,2.69,1.09,2.33c5.72-1.05,7.97-1.3,13.39-2.37" style="fill:none;stroke:#999;stroke-width:3" />
<path d="M1344.24,28.66c0.26,0.84,0.31,1.48,0.19,2.31c-0.73,5.32-4.69,15.9-16.02,21.86" style="fill:none;stroke:#999;stroke-width:3" />
<path d="M1352.1,13.42c1.14,0.51,1.98,0.43,3.28,0.2c5.74-0.99,14.38-1.98,15.35-2.07c2.18-0.2,2.83,0.74,2.63,1.67c-0.93,4.31-1.64,12.51-2.88,18.08" style="fill:none;stroke:#999;stroke-width:3" />
<path d="M1354.6,21.87c1.92,0,12.85-1.27,16.4-1.69" style="fill:none;stroke:#999;stroke-width:3" />
<path d="M1354.51,30.34c3.9-0.27,11.04-1.06,15.39-1.57" style="fill:none;stroke:#999;stroke-width:3" />
<path d="M1353.37,14.31c0.66,0.66,0.7,1.57,0.7,2.64c0,2.8-0.07,24.77-0.07,27.18c0,1.66,0.6,1.78,1.91,1.18c3.72-1.68,8.22-4.06,11.47-5.68" style="fill:none;stroke:#999;stroke-width:3" />
<path d="M1365.88,35.29c2.58,1.8,6.89,7.09,8.37,10.89" style="fill:none;stroke:#999;stroke-width:3" />
<path d="M1381.56,14.38c0.94,0.12,1.62,0.34,2.42,0.27c4.54-0.44,9.9-1.63,12.06-2.07c3.21-0.66,3.7,0.99,2.23,2.83c-1.76,2.21-5.49,7.28-7.17,8.76" style="fill:none;stroke:#999;stroke-width:3" />
<path d="M1391.5,24.16c13.5,6.84,10.25,24.09,0.67,18" style="fill:none;stroke:#999;stroke-width:3" />
<path d="M1382.37,15.14c0.81,0.81,0.96,1.73,0.96,2.88c0,4.08,0.02,16.47,0.03,24.98c0,3.17,0.01,5.79,0.01,7.25" style="fill:none;stroke:#999;stroke-width:3" />
<path d="M1360.5,48c-0.12,1.25-0.31,1.8-0.97,2.59c-5.39,6.5-21.2,16.08-38.03,21.69" style="fill:none;stroke:#999;stroke-width:3" />
<path d="M1361.38,51.62c4.55,2.45,19.69,9.31,28.81,12.93c3.93,1.3,7.46,2.73,11.57,3.27" style="fill:none;stroke:black;stroke-width:3" />
<circle cx="1361.38" cy="51.62" r="5" stroke-width="0" fill="#FF2A00" opacity="0.7" />
<path d="M1443.46,10.87c0,0.88-0.52,1.91-1.17,2.76c-2.96,3.85-3.78,4.83-7.24,8.42c-1.32,1.37-0.89,2.42,0.83,2.91c2.37,0.67,5.12,1.79,7.05,2.8" style="fill:none;stroke:#999;stroke-width:3" />
<path d="M1453.53,17.9c0,0.6-0.04,1.33-0.71,2c-4.3,4.33-10.73,10.78-16.51,15.58c-1.62,1.35-0.89,2.69,1.09,2.33c5.72-1.05,7.97-1.3,13.39-2.37" style="fill:none;stroke:#999;stroke-width:3" />
<path d="M1453.24,28.66c0.26,0.84,0.31,1.48,0.19,2.31c-0.73,5.32-4.69,15.9-16.02,21.86" style="fill:none;stroke:#999;stroke-width:3" />
<path d="M1461.1,13.42c1.14,0.51,1.98,0.43,3.28,0.2c5.74-0.99,14.38-1.98,15.35-2.07c2.18-0.2,2.83,0.74,2.63,1.67c-0.93,4.31-1.64,12.51-2.88,18.08" style="fill:none;stroke:#999;stroke-width:3" />
<path d="M1463.6,21.87c1.92,0,12.85-1.27,16.4-1.69" style="fill:none;stroke:#999;stroke-width:3" />
<path d="M1463.51,30.34c3.9-0.27,11.04-1.06,15.39-1.57" style="fill:none;stroke:#999;stroke-width:3" />
<path d="M1462.37,14.31c0.66,0.66,0.7,1.57,0.7,2.64c0,2.8-0.07,24.77-0.07,27.18c0,1.66,0.6,1.78,1.91,1.18c3.72-1.68,8.22-4.06,11.47-5.68" style="fill:none;stroke:#999;stroke-width:3" />
<path d="M1474.88,35.29c2.58,1.8,6.89,7.09,8.37,10.89" style="fill:none;stroke:#999;stroke-width:3" />
<path d="M1490.56,14.38c0.94,0.12,1.62,0.34,2.42,0.27c4.54-0.44,9.9-1.63,12.06-2.07c3.21-0.66,3.7,0.99,2.23,2.83c-1.76,2.21-5.49,7.28-7.17,8.76" style="fill:none;stroke:#999;stroke-width:3" />
<path d="M1500.5,24.16c13.5,6.84,10.25,24.09,0.67,18" style="fill:none;stroke:#999;stroke-width:3" />
<path d="M1491.37,15.14c0.81,0.81,0.96,1.73,0.96,2.88c0,4.08,0.02,16.47,0.03,24.98c0,3.17,0.01,5.79,0.01,7.25" style="fill:none;stroke:#999;stroke-width:3" />
<path d="M1469.5,48c-0.12,1.25-0.31,1.8-0.97,2.59c-5.39,6.5-21.2,16.08-38.03,21.69" style="fill:none;stroke:#999;stroke-width:3" />
<path d="M1470.38,51.62c4.55,2.45,19.69,9.31,28.81,12.93c3.93,1.3,7.46,2.73,11.57,3.27" style="fill:none;stroke:#999;stroke-width:3" />
<path d="M1469.0,59.41c0.92,0.92,1,1.71,1,3.04c0,1.05,0,2.33,0,4.87" style="fill:none;stroke:black;stroke-width:3" />
<circle cx="1469.0" cy="59.41" r="5" stroke-width="0" fill="#FF2A00" opacity="0.7" />
<path d="M1552.46,10.87c0,0.88-0.52,1.91-1.17,2.76c-2.96,3.85-3.78,4.83-7.24,8.42c-1.32,1.37-0.89,2.42,0.83,2.91c2.37,0.67,5.12,1.79,7.05,2.8" style="fill:none;stroke:#999;stroke-width:3" />
<path d="M1562.53,17.9c0,0.6-0.04,1.33-0.71,2c-4.3,4.33-10.73,10.78-16.51,15.58c-1.62,1.35-0.89,2.69,1.09,2.33c5.72-1.05,7.97-1.3,13.39-2.37" style="fill:none;stroke:#999;stroke-width:3" />
<path d="M1562.24,28.66c0.26,0.84,0.31,1.48,0.19,2.31c-0.73,5.32-4.69,15.9-16.02,21.86" style="fill:none;stroke:#999;stroke-width:3" />
<path d="M1570.1,13.42c1.14,0.51,1.98,0.43,3.28,0.2c5.74-0.99,14.38-1.98,15.35-2.07c2.18-0.2,2.83,0.74,2.63,1.67c-0.93,4.31-1.64,12.51-2.88,18.08" style="fill:none;stroke:#999;stroke-width:3" />
<path d="M1572.6,21.87c1.92,0,12.85-1.27,16.4-1.69" style="fill:none;stroke:#999;stroke-width:3" />
<path d="M1572.51,30.34c3.9-0.27,11.04-1.06,15.39-1.57" style="fill:none;stroke:#999;stroke-width:3" />
<path d="M1571.37,14.31c0.66,0.66,0.7,1.57,0.7,2.64c0,2.8-0.07,24.77-0.07,27.18c0,1.66,0.6,1.78,1.91,1.18c3.72-1.68,8.22-4.06,11.47-5.68" style="fill:none;stroke:#999;stroke-width:3" />
<path d="M1583.88,35.29c2.58,1.8,6.89,7.09,8.37,10.89" style="fill:none;stroke:#999;stroke-width:3" />
<path d="M1599.56,14.38c0.94,0.12,1.62,0.34,2.42,0.27c4.54-0.44,9.9-1.63,12.06-2.07c3.21-0.66,3.7,0.99,2.23,2.83c-1.76,2.21-5.49,7.28-7.17,8.76" style="fill:none;stroke:#999;stroke-width:3" />
<path d="M1609.5,24.16c13.5,6.84,10.25,24.09,0.67,18" style="fill:none;stroke:#999;stroke-width:3" />
<path d="M1600.37,15.14c0.81,0.81,0.96,1.73,0.96,2.88c0,4.08,0.02,16.47,0.03,24.98c0,3.17,0.01,5.79,0.01,7.25" style="fill:none;stroke:#999;stroke-width:3" />
<path d="M1578.5,48c-0.12,1.25-0.31,1.8-0.97,2.59c-5.39,6.5-21.2,16.08-38.03,21.69" style="fill:none;stroke:#999;stroke-width:3" />
<path d="M1579.38,51.62c4.55,2.45,19.69,9.31,28.81,12.93c3.93,1.3,7.46,2.73,11.57,3.27" style="fill:none;stroke:#999;stroke-width:3" />
<path d="M1578.0,59.41c0.92,0.92,1,1.71,1,3.04c0,1.05,0,2.33,0,4.87" style="fill:none;stroke:#999;stroke-width:3" />
<path d="M1561.44,69.37c1.93,0.64,3.87,0.75,5.82,0.31c7.2-0.83,19.93-2.2,24.97-2.7c3.23-0.32,4.79,0.92,4.33,3.41c-0.39,2.13-0.8,4.51-1.4,7.5c-0.27,1.37-0.59,2.87-0.96,4.54" style="fill:none;stroke:black;stroke-width:3" />
<circle cx="1561.44" cy="69.37" r="5" stroke-width="0" fill="#FF2A00" opacity="0.7" />
<path d="M1661.46,10.87c0,0.88-0.52,1.91-1.17,2.76c-2.96,3.85-3.78,4.83-7.24,8.42c-1.32,1.37-0.89,2.42,0.83,2.91c2.37,0.67,5.12,1.79,7.05,2.8" style="fill:none;stroke:#999;stroke-width:3" />
<path d="M1671.53,17.9c0,0.6-0.04,1.33-0.71,2c-4.3,4.33-10.73,10.78-16.51,15.58c-1.62,1.35-0.89,2.69,1.09,2.33c5.72-1.05,7.97-1.3,13.39-2.37" style="fill:none;stroke:#999;stroke-width:3" />
<path d="M1671.24,28.66c0.26,0.84,0.31,1.48,0.19,2.31c-0.73,5.32-4.69,15.9-16.02,21.86" style="fill:none;stroke:#999;stroke-width:3" />
<path d="M1679.1,13.42c1.14,0.51,1.98,0.43,3.28,0.2c5.74-0.99,14.38-1.98,15.35-2.07c2.18-0.2,2.83,0.74,2.63,1.67c-0.93,4.31-1.64,12.51-2.88,18.08" style="fill:none;stroke:#999;stroke-width:3" />
<path d="M1681.6,21.87c1.92,0,12.85-1.27,16.4-1.69" style="fill:none;stroke:#999;stroke-width:3" />
<path d="M1681.51,30.34c3.9-0.27,11.04-1.06,15.39-1.57" style="fill:none;stroke:#999;stroke-width:3" />
<path d="M1680.37,14.31c0.66,0.66,0.7,1.57,0.7,2.64c0,2.8-0.07,24.77-0.07,27.18c0,1.66,0.6,1.78,1.91,1.18c3.72-1.68,8.22-4.06,11.47-5.68" style="fill:none;stroke:#999;stroke-width:3" />
<path d="M1692.88,35.29c2.58,1.8,6.89,7.09,8.37,10.89" style="fill:none;stroke:#999;stroke-width:3" />
<path d="M1708.56,14.38c0.94,0.12,1.62,0.34,2.42,0.27c4.54-0.44,9.9-1.63,12.06-2.07c3.21-0.66,3.7,0.99,2.23,2.83c-1.76,2.21-5.49,7.28-7.17,8.76" style="fill:none;stroke:#999;stroke-width:3" />
<path d="M1718.5,24.16c13.5,6.84,10.25,24.09,0.67,18" style="fill:none;stroke:#999;stroke-width:3" />
<path d="M1709.37,15.14c0.81,0.81,0.96,1.73,0.96,2.88c0,4.08,0.02,16.47,0.03,24.98c0,3.17,0.01,5.79,0.01,7.25" style="fill:none;stroke:#999;stroke-width:3" />
<path d="M1687.5,48c-0.12,1.25-0.31,1.8-0.97,2.59c-5.39,6.5-21.2,16.08-38.03,21.69" style="fill:none;stroke:#999;stroke-width:3" />
<path d="M1688.38,51.62c4.55,2.45,19.69,9.31,28.81,12.93c3.93,1.3,7.46,2.73,11.57,3.27" style="fill:none;stroke:#999;stroke-width:3" />
<path d="M1687.0,59.41c0.92,0.92,1,1.71,1,3.04c0,1.05,0,2.33,0,4.87" style="fill:none;stroke:#999;stroke-width:3" />
<path d="M1670.44,69.37c1.93,0.64,3.87,0.75,5.82,0.31c7.2-0.83,19.93-2.2,24.97-2.7c3.23-0.32,4.79,0.92,4.33,3.41c-0.39,2.13-0.8,4.51-1.4,7.5c-0.27,1.37-0.59,2.87-0.96,4.54" style="fill:none;stroke:#999;stroke-width:3" />
<path d="M1674.08,76.42c10.54-0.92,19.54-1.92,29.67-2.59" style="fill:none;stroke:black;stroke-width:3" />
<circle cx="1674.08" cy="76.42" r="5" stroke-width="0" fill="#FF2A00" opacity="0.7" />
<path d="M1770.46,10.87c0,0.88-0.52,1.91-1.17,2.76c-2.96,3.85-3.78,4.83-7.24,8.42c-1.32,1.37-0.89,2.42,0.83,2.91c2.37,0.67,5.12,1.79,7.05,2.8" style="fill:none;stroke:#999;stroke-width:3" />
<path d="M1780.53,17.9c0,0.6-0.04,1.33-0.71,2c-4.3,4.33-10.73,10.78-16.51,15.58c-1.62,1.35-0.89,2.69,1.09,2.33c5.72-1.05,7.97-1.3,13.39-2.37" style="fill:none;stroke:#999;stroke-width:3" />
<path d="M1780.24,28.66c0.26,0.84,0.31,1.48,0.19,2.31c-0.73,5.32-4.69,15.9-16.02,21.86" style="fill:none;stroke:#999;stroke-width:3" />
<path d="M1788.1,13.42c1.14,0.51,1.98,0.43,3.28,0.2c5.74-0.99,14.38-1.98,15.35-2.07c2.18-0.2,2.83,0.74,2.63,1.67c-0.93,4.31-1.64,12.51-2.88,18.08" style="fill:none;stroke:#999;stroke-width:3" />
<path d="M1790.6,21.87c1.92,0,12.85-1.27,16.4-1.69" style="fill:none;stroke:#999;stroke-width:3" />
<path d="M1790.51,30.34c3.9-0.27,11.04-1.06,15.39-1.57" style="fill:none;stroke:#999;stroke-width:3" />
<path d="M1789.37,14.31c0.66,0.66,0.7,1.57,0.7,2.64c0,2.8-0.07,24.77-0.07,27.18c0,1.66,0.6,1.78,1.91,1.18c3.72-1.68,8.22-4.06,11.47-5.68" style="fill:none;stroke:#999;stroke-width:3" />
<path d="M1801.88,35.29c2.58,1.8,6.89,7.09,8.37,10.89" style="fill:none;stroke:#999;stroke-width:3" />
<path d="M1817.56,14.38c0.94,0.12,1.62,0.34,2.42,0.27c4.54-0.44,9.9-1.63,12.06-2.07c3.21-0.66,3.7,0.99,2.23,2.83c-1.76,2.21-5.49,7.28-7.17,8.76" style="fill:none;stroke:#999;stroke-width:3" />
<path d="M1827.5,24.16c13.5,6.84,10.25,24.09,0.67,18" style="fill:none;stroke:#999;stroke-width:3" />
<path d="M1818.37,15.14c0.81,0.81,0.96,1.73,0.96,2.88c0,4.08,0.02,16.47,0.03,24.98c0,3.17,0.01,5.79,0.01,7.25" style="fill:none;stroke:#999;stroke-width:3" />
<path d="M1796.5,48c-0.12,1.25-0.31,1.8-0.97,2.59c-5.39,6.5-21.2,16.08-38.03,21.69" style="fill:none;stroke:#999;stroke-width:3" />
<path d="M1797.38,51.62c4.55,2.45,19.69,9.31,28.81,12.93c3.93,1.3,7.46,2.73,11.57,3.27" style="fill:none;stroke:#999;stroke-width:3" />
<path d="M1796.0,59.41c0.92,0.92,1,1.71,1,3.04c0,1.05,0,2.33,0,4.87" style="fill:none;stroke:#999;stroke-width:3" />
<path d="M1779.44,69.37c1.93,0.64,3.87,0.75,5.82,0.31c7.2-0.83,19.93-2.2,24.97-2.7c3.23-0.32,4.79,0.92,4.33,3.41c-0.39,2.13-0.8,4.51-1.4,7.5c-0.27,1.37-0.59,2.87-0.96,4.54" style="fill:none;stroke:#999;stroke-width:3" />
<path d="M1783.08,76.42c10.54-0.92,19.54-1.92,29.67-2.59" style="fill:none;stroke:#999;stroke-width:3" />
<path d="M1783.19,83.23c7.93-0.85,20.56-1.99,28.1-2.22" style="fill:none;stroke:black;stroke-width:3" />
<circle cx="1783.19" cy="83.23" r="5" stroke-width="0" fill="#FF2A00" opacity="0.7" />
<path d="M1879.46,10.87c0,0.88-0.52,1.91-1.17,2.76c-2.96,3.85-3.78,4.83-7.24,8.42c-1.32,1.37-0.89,2.42,0.83,2.91c2.37,0.67,5.12,1.79,7.05,2.8" style="fill:none;stroke:#999;stroke-width:3" />
<path d="M1889.53,17.9c0,0.6-0.04,1.33-0.71,2c-4.3,4.33-10.73,10.78-16.51,15.58c-1.62,1.35-0.89,2.69,1.09,2.33c5.72-1.05,7.97-1.3,13.39-2.37" style="fill:none;stroke:#999;stroke-width:3" />
<path d="M1889.24,28.66c0.26,0.84,0.31,1.48,0.19,2.31c-0.73,5.32-4.69,15.9-16.02,21.86" style="fill:none;stroke:#999;stroke-width:3" />
<path d="M1897.1,13.42c1.14,0.51,1.98,0.43,3.28,0.2c5.74-0.99,14.38-1.98,15.35-2.07c2.18-0.2,2.83,0.74,2.63,1.67c-0.93,4.31-1.64,12.51-2.88,18.08" style="fill:none;stroke:#999;stroke-width:3" />
<path d="M1899.6,21.87c1.92,0,12.85-1.27,16.4-1.69" style="fill:none;stroke:#999;stroke-width:3" />
<path d="M1899.51,30.34c3.9-0.27,11.04-1.06,15.39-1.57" style="fill:none;stroke:#999;stroke-width:3" />
<path d="M1898.37,14.31c0.66,0.66,0.7,1.57,0.7,2.64c0,2.8-0.07,24.77-0.07,27.18c0,1.66,0.6,1.78,1.91,1.18c3.72-1.68,8.22-4.06,11.47-5.68" style="fill:none;stroke:#999;stroke-width:3" />
<path d="M1910.88,35.29c2.58,1.8,6.89,7.09,8.37,10.89" style="fill:none;stroke:#999;stroke-width:3" />
<path d="M1926.56,14.38c0.94,0.12,1.62,0.34,2.42,0.27c4.54-0.44,9.9-1.63,12.06-2.07c3.21-0.66,3.7,0.99,2.23,2.83c-1.76,2.21-5.49,7.28-7.17,8.76" style="fill:none;stroke:#999;stroke-width:3" />
<path d="M1936.5,24.16c13.5,6.84,10.25,24.09,0.67,18" style="fill:none;stroke:#999;stroke-width:3" />
<path d="M1927.37,15.14c0.81,0.81,0.96,1.73,0.96,2.88c0,4.08,0.02,16.47,0.03,24.98c0,3.17,0.01,5.79,0.01,7.25" style="fill:none;stroke:#999;stroke-width:3" />
<path d="M1905.5,48c-0.12,1.25-0.31,1.8-0.97,2.59c-5.39,6.5-21.2,16.08-38.03,21.69" style="fill:none;stroke:#999;stroke-width:3" />
<path d="M1906.38,51.62c4.55,2.45,19.69,9.31,28.81,12.93c3.93,1.3,7.46,2.73,11.57,3.27" style="fill:none;stroke:#999;stroke-width:3" />
<path d="M1905.0,59.41c0.92,0.92,1,1.71,1,3.04c0,1.05,0,2.33,0,4.87" style="fill:none;stroke:#999;stroke-width:3" />
<path d="M1888.44,69.37c1.93,0.64,3.87,0.75,5.82,0.31c7.2-0.83,19.93-2.2,24.97-2.7c3.23-0.32,4.79,0.92,4.33,3.41c-0.39,2.13-0.8,4.51-1.4,7.5c-0.27,1.37-0.59,2.87-0.96,4.54" style="fill:none;stroke:#999;stroke-width:3" />
<path d="M1892.08,76.42c10.54-0.92,19.54-1.92,29.67-2.59" style="fill:none;stroke:#999;stroke-width:3" />
<path d="M1892.19,83.23c7.93-0.85,20.56-1.99,28.1-2.22" style="fill:none;stroke:#999;stroke-width:3" />
<path d="M1890.0,70.22c0.83,0.83,1,1.78,1,2.7c0,3.08,0,21.58,0,23.89c0,2.85,0.8,2.9,2.75,2.06c4.38-1.88,10.43-4.25,12.5-5.37" style="fill:none;stroke:black;stroke-width:3" />
<circle cx="1890.0" cy="70.22" r="5" stroke-width="0" fill="#FF2A00" opacity="0.7" />
<path d="M1988.46,10.87c0,0.88-0.52,1.91-1.17,2.76c-2.96,3.85-3.78,4.83-7.24,8.42c-1.32,1.37-0.89,2.42,0.83,2.91c2.37,0.67,5.12,1.79,7.05,2.8" style="fill:none;stroke:#999;stroke-width:3" />
<path d="M1998.53,17.9c0,0.6-0.04,1.33-0.71,2c-4.3,4.33-10.73,10.78-16.51,15.58c-1.62,1.35-0.89,2.69,1.09,2.33c5.72-1.05,7.97-1.3,13.39-2.37" style="fill:none;stroke:#999;stroke-width:3" />
<path d="M1998.24,28.66c0.26,0.84,0.31,1.48,0.19,2.31c-0.73,5.32-4.69,15.9-16.02,21.86" style="fill:none;stroke:#999;stroke-width:3" />
<path d="M2006.1,13.42c1.14,0.51,1.98,0.43,3.28,0.2c5.74-0.99,14.38-1.98,15.35-2.07c2.18-0.2,2.83,0.74,2.63,1.67c-0.93,4.31-1.64,12.51-2.88,18.08" style="fill:none;stroke:#999;stroke-width:3" />
<path d="M2008.6,21.87c1.92,0,12.85-1.27,16.4-1.69" style="fill:none;stroke:#999;stroke-width:3" />
<path d="M2008.51,30.34c3.9-0.27,11.04-1.06,15.39-1.57" style="fill:none;stroke:#999;stroke-width:3" />
<path d="M2007.37,14.31c0.66,0.66,0.7,1.57,0.7,2.64c0,2.8-0.07,24.77-0.07,27.18c0,1.66,0.6,1.78,1.91,1.18c3.72-1.68,8.22-4.06,11.47-5.68" style="fill:none;stroke:#999;stroke-width:3" />
<path d="M2019.88,35.29c2.58,1.8,6.89,7.09,8.37,10.89" style="fill:none;stroke:#999;stroke-width:3" />
<path d="M2035.56,14.38c0.94,0.12,1.62,0.34,2.42,0.27c4.54-0.44,9.9-1.63,12.06-2.07c3.21-0.66,3.7,0.99,2.23,2.83c-1.76,2.21-5.49,7.28-7.17,8.76" style="fill:none;stroke:#999;stroke-width:3" />
<path d="M2045.5,24.16c13.5,6.84,10.25,24.09,0.67,18" style="fill:none;stroke:#999;stroke-width:3" />
<path d="M2036.37,15.14c0.81,0.81,0.96,1.73,0.96,2.88c0,4.08,0.02,16.47,0.03,24.98c0,3.17,0.01,5.79,0.01,7.25" style="fill:none;stroke:#999;stroke-width:3" />
<path d="M2014.5,48c-0.12,1.25-0.31,1.8-0.97,2.59c-5.39,6.5-21.2,16.08-38.03,21.69" style="fill:none;stroke:#999;stroke-width:3" />
<path d="M2015.38,51.62c4.55,2.45,19.69,9.31,28.81,12.93c3.93,1.3,7.46,2.73,11.57,3.27" style="fill:none;stroke:#999;stroke-width:3" />
<path d="M2014.0,59.41c0.92,0.92,1,1.71,1,3.04c0,1.05,0,2.33,0,4.87" style="fill:none;stroke:#999;stroke-width:3" />
<path d="M1997.44,69.37c1.93,0.64,3.87,0.75,5.82,0.31c7.2-0.83,19.93-2.2,24.97-2.7c3.23-0.32,4.79,0.92,4.33,3.41c-0.39,2.13-0.8,4.51-1.4,7.5c-0.27,1.37-0.59,2.87-0.96,4.54" style="fill:none;stroke:#999;stroke-width:3" />
<path d="M2001.08,76.42c10.54-0.92,19.54-1.92,29.67-2.59" style="fill:none;stroke:#999;stroke-width:3" />
<path d="M2001.19,83.23c7.93-0.85,20.56-1.99,28.1-2.22" style="fill:none;stroke:#999;stroke-width:3" />
<path d="M1999.0,70.22c0.83,0.83,1,1.78,1,2.7c0,3.08,0,21.58,0,23.89c0,2.85,0.8,2.9,2.75,2.06c4.38-1.88,10.43-4.25,12.5-5.37" style="fill:none;stroke:#999;stroke-width:3" />
<path d="M2038.02,82.04c-0.15,1.33-0.65,1.96-1.77,2.74c-1.83,1.27-4.75,3.22-8.5,5.34" style="fill:none;stroke:black;stroke-width:3" />
<circle cx="2038.02" cy="82.04" r="5" stroke-width="0" fill="#FF2A00" opacity="0.7" />
<path d="M2097.46,10.87c0,0.88-0.52,1.91-1.17,2.76c-2.96,3.85-3.78,4.83-7.24,8.42c-1.32,1.37-0.89,2.42,0.83,2.91c2.37,0.67,5.12,1.79,7.05,2.8" style="fill:none;stroke:#999;stroke-width:3" />
<path d="M2107.5299999999997,17.9c0,0.6-0.04,1.33-0.71,2c-4.3,4.33-10.73,10.78-16.51,15.58c-1.62,1.35-0.89,2.69,1.09,2.33c5.72-1.05,7.97-1.3,13.39-2.37" style="fill:none;stroke:#999;stroke-width:3" />
<path d="M2107.24,28.66c0.26,0.84,0.31,1.48,0.19,2.31c-0.73,5.32-4.69,15.9-16.02,21.86" style="fill:none;stroke:#999;stroke-width:3" />
<path d="M2115.1,13.42c1.14,0.51,1.98,0.43,3.28,0.2c5.74-0.99,14.38-1.98,15.35-2.07c2.18-0.2,2.83,0.74,2.63,1.67c-0.93,4.31-1.64,12.51-2.88,18.08" style="fill:none;stroke:#999;stroke-width:3" />
<path d="M2117.6,21.87c1.92,0,12.85-1.27,16.4-1.69" style="fill:none;stroke:#999;stroke-width:3" />
<path d="M2117.51,30.34c3.9-0.27,11.04-1.06,15.39-1.57" style="fill:none;stroke:#999;stroke-width:3" />
<path d="M2116.37,14.31c0.66,0.66,0.7,1.57,0.7,2.64c0,2.8-0.07,24.77-0.07,27.18c0,1.66,0.6,1.78,1.91,1.18c3.72-1.68,8.22-4.06,11.47-5.68" style="fill:none;stroke:#999;stroke-width:3" />
<path d="M2128.88,35.29c2.58,1.8,6.89,7.09,8.37,10.89" style="fill:none;stroke:#999;stroke-width:3" />
<path d="M2144.56,14.38c0.94,0.12,1.62,0.34,2.42,0.27c4.54-0.44,9.9-1.63,12.06-2.07c3.21-0.66,3.7,0.99,2.23,2.83c-1.76,2.21-5.49,7.28-7.17,8.76" style="fill:none;stroke:#999;stroke-width:3" />
<path d="M2154.5,24.16c13.5,6.84,10.25,24.09,0.67,18" style="fill:none;stroke:#999;stroke-width:3" />
<path d="M2145.37,15.14c0.81,0.81,0.96,1.73,0.96,2.88c0,4.08,0.02,16.47,0.03,24.98c0,3.17,0.01,5.79,0.01,7.25" style="fill:none;stroke:#999;stroke-width:3" />
<path d="M2123.5,48c-0.12,1.25-0.31,1.8-0.97,2.59c-5.39,6.5-21.2,16.08-38.03,21.69" style="fill:none;stroke:#999;stroke-width:3" />
<path d="M2124.38,51.62c4.55,2.45,19.69,9.31,28.81,12.93c3.93,1.3,7.46,2.73,11.57,3.27" style="fill:none;stroke:#999;stroke-width:3" />
<path d="M2123.0,59.41c0.92,0.92,1,1.71,1,3.04c0,1.05,0,2.33,0,4.87" style="fill:none;stroke:#999;stroke-width:3" />
<path d="M2106.44,69.37c1.93,0.64,3.87,0.75,5.82,0.31c7.2-0.83,19.93-2.2,24.97-2.7c3.23-0.32,4.79,0.92,4.33,3.41c-0.39,2.13-0.8,4.51-1.4,7.5c-0.27,1.37-0.59,2.87-0.96,4.54" style="fill:none;stroke:#999;stroke-width:3" />
<path d="M2110.08,76.42c10.54-0.92,19.54-1.92,29.67-2.59" style="fill:none;stroke:#999;stroke-width:3" />
<path d="M2110.19,83.23c7.93-0.85,20.56-1.99,28.1-2.22" style="fill:none;stroke:#999;stroke-width:3" />
<path d="M2108.0,70.22c0.83,0.83,1,1.78,1,2.7c0,3.08,0,21.58,0,23.89c0,2.85,0.8,2.9,2.75,2.06c4.38-1.88,10.43-4.25,12.5-5.37" style="fill:none;stroke:#999;stroke-width:3" />
<path d="M2147.02,82.04c-0.15,1.33-0.65,1.96-1.77,2.74c-1.83,1.27-4.75,3.22-8.5,5.34" style="fill:none;stroke:#999;stroke-width:3" />
<path d="M2121.5,86.75c3.18,0,16.91,7.47,23.05,10.3c2.57,1.19,5.38,2.04,8.2,2.36" style="fill:none;stroke:black;stroke-width:3" />
<circle cx="2121.5" cy="86.75" r="5" stroke-width="0" fill="#FF2A00" opacity="0.7" />
</svg>