<svg width="2507px" height="109px" viewBox="0 0 2507px 109px" xmlns="http://www.w3.org/2000/svg" xmlns:xlink="http://www.w3.org/1999/xlink" xml:space="preserve" version="1.1"  baseProfile="full">
<line x1="1" y1="1" x2="2506" y2="1" style="stroke:#ddd;stroke-width:2" />
<line x1="1" y1="1" x2="1" y2="108" style="stroke:#ddd;stroke-width:2" />
<line x1="1" y1="108" x2="2506" y2="108" style="stroke:#ddd;stroke-width:2" />
<line x1="2506" y1="1" x2="2506" y2="108" style="stroke:#ddd;stroke-width:2" />
<line x1="109" y1="1" x2="109" y2="108" style="stroke:#ddd;stroke-width:2" />
<line x1="218" y1="1" x2="218" y2="108" style="stroke:#ddd;stroke-width:2" />
<line x1="327" y1="1" x2="327" y2="108" style="stroke:#ddd;stroke-width:2" />
<line x1="436" y1="1" x2="436" y2="108" style="stroke:#ddd;stroke-width:2" />
<line x1="545" y1="1" x2="545" y2="108" style="stroke:#ddd;stroke-width:2" />
<line x1="654" y1="1" x2="654" y2="108" style="stroke:#ddd;stroke-width:2" />
<line x1="763" y1="1" x2="763" y2="108" style="stroke:#ddd;stroke-width:2" />
<line x1="872" y1="1" x2="872" y2="108" style="stroke:#ddd;stroke-width:2" />
<line x1="981" y1="1" x2="981" y2="108" style="stroke:#ddd;stroke-width:2" />
<line x1="1090" y1="1" x2="1090" y2="108" style="stroke:#ddd;stroke-width:2" />
<line x1="1199" y1="1" x2="1199" y2="108" style="stroke:#ddd;stroke-width:2" />
<line x1="1308" y1="1" x2="1308" y2="108" style="stroke:#ddd;stroke-width:2" />
<line x1="1417" y1="1" x2="1417" y2="108" style="stroke:#ddd;stroke-width:2" />
<line x1="1526" y1="1" x2="1526" y2="108" style="stroke:#ddd;stroke-width:2" />
<line x1="1635" y1="1" x2="1635" y2="108" style="stroke:#ddd;stroke-width:2" />
<line x1="1744" y1="1" x2="1744" y2="108" style="stroke:#ddd;stroke-width:2" />
<line x1="1853" y1="1" x2="1853" y2="108" style="stroke:#ddd;stroke-width:2" />
<line x1="1962" y1="1" x2="1962" y2="108" style="stroke:#ddd;stroke-width:2" />
<line x1="2071" y1="1" x2="2071" y2="108" style="stroke:#ddd;stroke-width:2" />
<line x1="2180" y1="1" x2="2180" y2="108" style="stroke:#ddd;stroke-width:2" />
<line x1="2289" y1="1" x2="2289" y2="108" style="stroke:#ddd;stroke-width:2" />
<line x1="2398" y1="1" x2="2398" y2="108" style="stroke:#ddd;stroke-width:2" />
<line x1="1" y1="54" x2="2506" y2="54" style="stroke:#ddd;stroke-width:2;stroke-dasharray:3 3" />
<line x1="55" y1="1" x2="55" y2="108" style="stroke:#ddd;stroke-width:2;stroke-dasharray:3 3" />
<line x1="164" y1="1" x2="164" y2="108" style="stroke:#ddd;stroke-width:2;stroke-dasharray:3 3" />
<line x1="273" y1="1" x2="273" y2="108" style="stroke:#ddd;stroke-width:2;stroke-dasharray:3 3" />
<line x1="382" y1="1" x2="382" y2="108" style="stroke:#ddd;stroke-width:2;stroke-dasharray:3 3" />
<line x1="491" y1="1" x2="491" y2="108" style="stroke:#ddd;stroke-width:2;stroke-dasharray:3 3" />
<line x1="600" y1="1" x2="600" y2="108" style="stroke:#ddd;stroke-width:2;stroke-dasharray:3 3" />
<line x1="709" y1="1" x2="709" y2="108" style="stroke:#ddd;stroke-width:2;stroke-dasharray:3 3" />
<line x1="818" y1="1" x2="818" y2="108" style="stroke:#ddd;stroke-width:2;stroke-dasharray:3 3" />
<line x1="927" y1="1" x2="927" y2="108" style="stroke:#ddd;stroke-width:2;stroke-dasharray:3 3" />
<line x1="1036" y1="1" x2="1036" y2="108" style="stroke:#ddd;stroke-width:2;stroke-dasharray:3 3" />
<line x1="1145" y1="1" x2="1145" y2="108" style="stroke:#ddd;stroke-width:2;stroke-dasharray:3 3" />
<line x1="1254" y1="1" x2="1254" y2="108" style="stroke:#ddd;stroke-width:2;stroke-dasharray:3 3" />
<line x1="1363" y1="1" x2="1363" y2="108" style="stroke:#ddd;stroke-width:2;stroke-dasharray:3 3" />
<line x1="1472" y1="1" x2="1472" y2="108" style="stroke:#ddd;stroke-width:2;stroke-dasharray:3 3" />
<line x1="1581" y1="1" x2="1581" y2="108" style="stroke:#ddd;stroke-width:2;stroke-dasharray:3 3" />
<line x1="1690" y1="1" x2="1690" y2="108" style="stroke:#ddd;stroke-width:2;stroke-dasharray:3 3" />
<line x1="1799" y1="1" x2="1799" y2="108" style="stroke:#ddd;stroke-width:2;stroke-dasharray:3 3" />
<line x1="1908" y1="1" x2="1908" y2="108" style="stroke:#ddd;stroke-width:2;stroke-dasharray:3 3" />
<line x1="2017" y1="1" x2="2017" y2="108" style="stroke:#ddd;stroke-width:2;stroke-dasharray:3 3" />
<line x1="2126" y1="1" x2="2126" y2="108" style="stroke:#ddd;stroke-width:2;stroke-dasharray:3 3" />
<line x1="2235" y1="1" x2="2235" y2="108" style="stroke:#ddd;stroke-width:2;stroke-dasharray:3 3" />
<line x1="2344" y1="1" x2="2344" y2="108" style="stroke:#ddd;stroke-width:2;stroke-dasharray:3 3" />
<line x1="2453" y1="1" x2="2453" y2="108" style="stroke:#ddd;stroke-width:2;stroke-dasharray:3 3" />
<path d="M25.5,14.25c0.04,0.5,0.08,1.29-0.08,2c-0.92,4.21-6.2,13.46-13.43,19.12" style="fill:none;stroke:black;stroke-width:3" />
<circle cx="25.5" cy="14.25" r="5" stroke-width="0" fill="#FF2A00" opacity="0.7" />
<path d="M134.5,14.25c0.04,0.5,0.08,1.29-0.08,2c-0.92,4.21-6.2,13.46-13.43,19.12" style="fill:none;stroke:#999;stroke-width:3" />
<path d="M132.89,21.97c1.93,0,13.82-3.3,15.85-3.57c1.74-0.23,2.13,2.04,1.41,3.21c-3.05,4.89-6.39,9.64-10.95,18.35" style="fill:none;stroke:black;stroke-width:3" />
<circle cx="132.89" cy="21.97" r="5" stroke-width="0" fill="#FF2A00" opacity="0.7" />
<path d="M243.5,14.25c0.04,0.5,0.08,1.29-0.08,2c-0.92,4.21-6.2,13.46-13.43,19.12" style="fill:none;stroke:#999;stroke-width:3" />
<path d="M241.89,21.97c1.93,0,13.82-3.3,15.85-3.57c1.74-0.23,2.13,2.04,1.41,3.21c-3.05,4.89-6.39,9.64-10.95,18.35" style="fill:none;stroke:#999;stroke-width:3" />
<path d="M231.72,41.39c0.23,0.46,0.23,0.77,0.36,1.35c1.02,4.72,2.61,18.14,3.25,26.95" style="fill:none;stroke:black;stroke-width:3" />
<circle cx="231.72" cy="41.39" r="5" stroke-width="0" fill="#FF2A00" opacity="0.7" />
<path d="M352.5,14.25c0.04,0.5,0.08,1.29-0.08,2c-0.92,4.21-6.2,13.46-13.43,19.12" style="fill:none;stroke:#999;stroke-width:3" />
<path d="M350.89,21.97c1.93,0,13.82-3.3,15.85-3.57c1.74-0.23,2.13,2.04,1.41,3.21c-3.05,4.89-6.39,9.64-10.95,18.35" style="fill:none;stroke:#999;stroke-width:3" />
<path d="M340.72,41.39c0.23,0.46,0.23,0.77,0.36,1.35c1.02,4.72,2.61,18.14,3.25,26.95" style="fill:none;stroke:#999;stroke-width:3" />
<path d="M341.78,43.02c7.92-1.19,21.51-3.21,27.42-4.21c2.17-0.37,3.29,0.93,3.17,2.23c-0.41,4.76-1.79,17.26-3.53,26.17" style="fill:none;stroke:black;stroke-width:3" />
<circle cx="341.78" cy="43.02" r="5" stroke-width="0" fill="#FF2A00" opacity="0.7" />
<path d="M461.5,14.25c0.04,0.5,0.08,1.29-0.08,2c-0.92,4.21-6.2,13.46-13.43,19.12" style="fill:none;stroke:#999;stroke-width:3" />
<path d="M459.89,21.97c1.93,0,13.82-3.3,15.85-3.57c1.74-0.23,2.13,2.04,1.41,3.21c-3.05,4.89-6.39,9.64-10.95,18.35" style="fill:none;stroke:#999;stroke-width:3" />
<path d="M449.72,41.39c0.23,0.46,0.23,0.77,0.36,1.35c1.02,4.72,2.61,18.14,3.25,26.95" style="fill:none;stroke:#999;stroke-width:3" />
<path d="M450.78,43.02c7.92-1.19,21.51-3.21,27.42-4.21c2.17-0.37,3.29,0.93,3.17,2.23c-0.41,4.76-1.79,17.26-3.53,26.17" style="fill:none;stroke:#999;stroke-width:3" />
<path d="M464.06,41.73c0.9,0.59,1.58,2.51,1.61,4.04c0.12,6.73,0.03,16.27,0.03,19.6" style="fill:none;stroke:black;stroke-width:3" />
<circle cx="464.06" cy="41.73" r="5" stroke-width="0" fill="#FF2A00" opacity="0.7" />
<path d="M570.5,14.25c0.04,0.5,0.08,1.29-0.08,2c-0.92,4.21-6.2,13.46-13.43,19.12" style="fill:none;stroke:#999;stroke-width:3" />
<path d="M568.89,21.97c1.93,0,13.82-3.3,15.85-3.57c1.74-0.23,2.13,2.04,1.41,3.21c-3.05,4.89-6.39,9.64-10.95,18.35" style="fill:none;stroke:#999;stroke-width:3" />
<path d="M558.72,41.39c0.23,0.46,0.23,0.77,0.36,1.35c1.02,4.72,2.61,18.14,3.25,26.95" style="fill:none;stroke:#999;stroke-width:3" />
<path d="M559.78,43.02c7.92-1.19,21.51-3.21,27.42-4.21c2.17-0.37,3.29,0.93,3.17,2.23c-0.41,4.76-1.79,17.26-3.53,26.17" style="fill:none;stroke:#999;stroke-width:3" />
<path d="M573.06,41.73c0.9,0.59,1.58,2.51,1.61,4.04c0.12,6.73,0.03,16.27,0.03,19.6" style="fill:none;stroke:#999;stroke-width:3" />
<path d="M561.76,55.23c2.58-0.46,24.76-3.87,26.89-4.06" style="fill:none;stroke:black;stroke-width:3" />
<circle cx="561.76" cy="55.23" r="5" stroke-width="0" fill="#FF2A00" opacity="0.7" />
<path d="M679.5,14.25c0.04,0.5,0.08,1.29-0.08,2c-0.92,4.21-6.2,13.46-13.43,19.12" style="fill:none;stroke:#999;stroke-width:3" />
<path d="M677.89,21.97c1.93,0,13.82-3.3,15.85-3.57c1.74-0.23,2.13,2.04,1.41,3.21c-3.05,4.89-6.39,9.64-10.95,18.35" style="fill:none;stroke:#999;stroke-width:3" />
<path d="M667.72,41.39c0.23,0.46,0.23,0.77,0.36,1.35c1.02,4.72,2.61,18.14,3.25,26.95" style="fill:none;stroke:#999;stroke-width:3" />
<path d="M668.78,43.02c7.92-1.19,21.51-3.21,27.42-4.21c2.17-0.37,3.29,0.93,3.17,2.23c-0.41,4.76-1.79,17.26-3.53,26.17" style="fill:none;stroke:#999;stroke-width:3" />
<path d="M682.06,41.73c0.9,0.59,1.58,2.51,1.61,4.04c0.12,6.73,0.03,16.27,0.03,19.6" style="fill:none;stroke:#999;stroke-width:3" />
<path d="M670.76,55.23c2.58-0.46,24.76-3.87,26.89-4.06" style="fill:none;stroke:#999;stroke-width:3" />
<path d="M671.73,67.9c5.71-0.51,16.61-2.12,24.49-2.95" style="fill:none;stroke:black;stroke-width:3" />
<circle cx="671.73" cy="67.9" r="5" stroke-width="0" fill="#FF2A00" opacity="0.7" />
<path d="M788.5,14.25c0.04,0.5,0.08,1.29-0.08,2c-0.92,4.21-6.2,13.46-13.43,19.12" style="fill:none;stroke:#999;stroke-width:3" />
<path d="M786.89,21.97c1.93,0,13.82-3.3,15.85-3.57c1.74-0.23,2.13,2.04,1.41,3.21c-3.05,4.89-6.39,9.64-10.95,18.35" style="fill:none;stroke:#999;stroke-width:3" />
<path d="M776.72,41.39c0.23,0.46,0.23,0.77,0.36,1.35c1.02,4.72,2.61,18.14,3.25,26.95" style="fill:none;stroke:#999;stroke-width:3" />
<path d="M777.78,43.02c7.92-1.19,21.51-3.21,27.42-4.21c2.17-0.37,3.29,0.93,3.17,2.23c-0.41,4.76-1.79,17.26-3.53,26.17" style="fill:none;stroke:#999;stroke-width:3" />
<path d="M791.06,41.73c0.9,0.59,1.58,2.51,1.61,4.04c0.12,6.73,0.03,16.27,0.03,19.6" style="fill:none;stroke:#999;stroke-width:3" />
<path d="M779.76,55.23c2.58-0.46,24.76-3.87,26.89-4.06" style="fill:none;stroke:#999;stroke-width:3" />
<path d="M780.73,67.9c5.71-0.51,16.61-2.12,24.49-2.95" style="fill:none;stroke:#999;stroke-width:3" />
<path d="M777.52,78.32c0,5.13-2.18,12.71-2.74,14.18" style="fill:none;stroke:black;stroke-width:3" />
<circle cx="777.52" cy="78.32" r="5" stroke-width="0" fill="#FF2A00" opacity="0.7" />
<path d="M897.5,14.25c0.04,0.5,0.08,1.29-0.08,2c-0.92,4.21-6.2,13.46-13.43,19.12" style="fill:none;stroke:#999;stroke-width:3" />
<path d="M895.89,21.97c1.93,0,13.82-3.3,15.85-3.57c1.74-0.23,2.13,2.04,1.41,3.21c-3.05,4.89-6.39,9.64-10.95,18.35" style="fill:none;stroke:#999;stroke-width:3" />
<path d="M885.72,41.39c0.23,0.46,0.23,0.77,0.36,1.35c1.02,4.72,2.61,18.14,3.25,26.95" style="fill:none;stroke:#999;stroke-width:3" />
<path d="M886.78,43.02c7.92-1.19,21.51-3.21,27.42-4.21c2.17-0.37,3.29,0.93,3.17,2.23c-0.41,4.76-1.79,17.26-3.53,26.17" style="fill:none;stroke:#999;stroke-width:3" />
<path d="M900.06,41.73c0.9,0.59,1.58,2.51,1.61,4.04c0.12,6.73,0.03,16.27,0.03,19.6" style="fill:none;stroke:#999;stroke-width:3" />
<path d="M888.76,55.23c2.58-0.46,24.76-3.87,26.89-4.06" style="fill:none;stroke:#999;stroke-width:3" />
<path d="M889.73,67.9c5.71-0.51,16.61-2.12,24.49-2.95" style="fill:none;stroke:#999;stroke-width:3" />
<path d="M886.52,78.32c0,5.13-2.18,12.71-2.74,14.18" style="fill:none;stroke:#999;stroke-width:3" />
<path d="M894.7,78.08c1.13,2.22,2.21,8.33,2.49,11.79" style="fill:none;stroke:black;stroke-width:3" />
<circle cx="894.7" cy="78.08" r="5" stroke-width="0" fill="#FF2A00" opacity="0.7" />
<path d="M1006.5,14.25c0.04,0.5,0.08,1.29-0.08,2c-0.92,4.21-6.2,13.46-13.43,19.12" style="fill:none;stroke:#999;stroke-width:3" />
<path d="M1004.89,21.97c1.93,0,13.82-3.3,15.85-3.57c1.74-0.23,2.13,2.04,1.41,3.21c-3.05,4.89-6.39,9.64-10.95,18.35" style="fill:none;stroke:#999;stroke-width:3" />
<path d="M994.72,41.39c0.23,0.46,0.23,0.77,0.36,1.35c1.02,4.72,2.61,18.14,3.25,26.95" style="fill:none;stroke:#999;stroke-width:3" />
<path d="M995.78,43.02c7.92-1.19,21.51-3.21,27.42-4.21c2.17-0.37,3.29,0.93,3.17,2.23c-0.41,4.76-1.79,17.26-3.53,26.17" style="fill:none;stroke:#999;stroke-width:3" />
<path d="M1009.06,41.73c0.9,0.59,1.58,2.51,1.61,4.04c0.12,6.73,0.03,16.27,0.03,19.6" style="fill:none;stroke:#999;stroke-width:3" />
<path d="M997.76,55.23c2.58-0.46,24.76-3.87,26.89-4.06" style="fill:none;stroke:#999;stroke-width:3" />
<path d="M998.73,67.9c5.71-0.51,16.61-2.12,24.49-2.95" style="fill:none;stroke:#999;stroke-width:3" />
<path d="M995.52,78.32c0,5.13-2.18,12.71-2.74,14.18" style="fill:none;stroke:#999;stroke-width:3" />
<path d="M1003.7,78.08c1.13,2.22,2.21,8.33,2.49,11.79" style="fill:none;stroke:#999;stroke-width:3" />
<path d="M1012.75,76.44c1.61,1.89,4.16,7.77,4.57,10.71" style="fill:none;stroke:black;stroke-width:3" />
<circle cx="1012.75" cy="76.44" r="5" stroke-width="0" fill="#FF2A00" opacity="0.7" />
<path d="M1115.5,14.25c0.04,0.5,0.08,1.29-0.08,2c-0.92,4.21-6.2,13.46-13.43,19.12" style="fill:none;stroke:#999;stroke-width:3" />
<path d="M1113.8899999999999,21.97c1.93,0,13.82-3.3,15.85-3.57c1.74-0.23,2.13,2.04,1.41,3.21c-3.05,4.89-6.39,9.64-10.95,18.35" style="fill:none;stroke:#999;stroke-width:3" />
<path d="M1103.72,41.39c0.23,0.46,0.23,0.77,0.36,1.35c1.02,4.72,2.61,18.14,3.25,26.95" style="fill:none;stroke:#999;stroke-width:3" />
<path d="M1104.78,43.02c7.92-1.19,21.51-3.21,27.42-4.21c2.17-0.37,3.29,0.93,3.17,2.23c-0.41,4.76-1.79,17.26-3.53,26.17" style="fill:none;stroke:#999;stroke-width:3" />
<path d="M1118.06,41.73c0.9,0.59,1.58,2.51,1.61,4.04c0.12,6.73,0.03,16.27,0.03,19.6" style="fill:none;stroke:#999;stroke-width:3" />
<path d="M1106.76,55.23c2.58-0.46,24.76-3.87,26.89-4.06" style="fill:none;stroke:#999;stroke-width:3" />
<path d="M1107.73,67.9c5.71-0.51,16.61-2.12,24.49-2.95" style="fill:none;stroke:#999;stroke-width:3" />
<path d="M1104.52,78.32c0,5.13-2.18,12.71-2.74,14.18" style="fill:none;stroke:#999;stroke-width:3" />
<path d="M1112.7,78.08c1.13,2.22,2.21,8.33,2.49,11.79" style="fill:none;stroke:#999;stroke-width:3" />
<path d="M1121.75,76.44c1.61,1.89,4.16,7.77,4.57,10.71" style="fill:none;stroke:#999;stroke-width:3" />
<path d="M1130.55,74.37c2.1,1.81,5.42,7.46,5.95,10.28" style="fill:none;stroke:black;stroke-width:3" />
<circle cx="1130.55" cy="74.37" r="5" stroke-width="0" fill="#FF2A00" opacity="0.7" />
<path d="M1224.5,14.25c0.04,0.5,0.08,1.29-0.08,2c-0.92,4.21-6.2,13.46-13.43,19.12" style="fill:none;stroke:#999;stroke-width:3" />
<path d="M1222.8899999999999,21.97c1.93,0,13.82-3.3,15.85-3.57c1.74-0.23,2.13,2.04,1.41,3.21c-3.05,4.89-6.39,9.64-10.95,18.35" style="fill:none;stroke:#999;stroke-width:3" />
<path d="M1212.72,41.39c0.23,0.46,0.23,0.77,0.36,1.35c1.02,4.72,2.61,18.14,3.25,26.95" style="fill:none;stroke:#999;stroke-width:3" />
<path d="M1213.78,43.02c7.92-1.19,21.51-3.21,27.42-4.21c2.17-0.37,3.29,0.93,3.17,2.23c-0.41,4.76-1.79,17.26-3.53,26.17" style="fill:none;stroke:#999;stroke-width:3" />
<path d="M1227.06,41.73c0.9,0.59,1.58,2.51,1.61,4.04c0.12,6.73,0.03,16.27,0.03,19.6" style="fill:none;stroke:#999;stroke-width:3" />
<path d="M1215.76,55.23c2.58-0.46,24.76-3.87,26.89-4.06" style="fill:none;stroke:#999;stroke-width:3" />
<path d="M1216.73,67.9c5.71-0.51,16.61-2.12,24.49-2.95" style="fill:none;stroke:#999;stroke-width:3" />
<path d="M1213.52,78.32c0,5.13-2.18,12.71-2.74,14.18" style="fill:none;stroke:#999;stroke-width:3" />
<path d="M1221.7,78.08c1.13,2.22,2.21,8.33,2.49,11.79" style="fill:none;stroke:#999;stroke-width:3" />
<path d="M1230.75,76.44c1.61,1.89,4.16,7.77,4.57,10.71" style="fill:none;stroke:#999;stroke-width:3" />
<path d="M1239.55,74.37c2.1,1.81,5.42,7.46,5.95,10.28" style="fill:none;stroke:#999;stroke-width:3" />
<path d="M1255.21,12.33c2.13,1.48,5.5,6.06,6.03,8.36" style="fill:none;stroke:black;stroke-width:3" />
<circle cx="1255.21" cy="12.33" r="5" stroke-width="0" fill="#FF2A00" opacity="0.7" />
<path d="M1333.5,14.25c0.04,0.5,0.08,1.29-0.08,2c-0.92,4.21-6.2,13.46-13.43,19.12" style="fill:none;stroke:#999;stroke-width:3" />
<path d="M1331.8899999999999,21.97c1.93,0,13.82-3.3,15.85-3.57c1.74-0.23,2.13,2.04,1.41,3.21c-3.05,4.89-6.39,9.64-10.95,18.35" style="fill:none;stroke:#999;stroke-width:3" />
<path d="M1321.72,41.39c0.23,0.46,0.23,0.77,0.36,1.35c1.02,4.72,2.61,18.14,3.25,26.95" style="fill:none;stroke:#999;stroke-width:3" />
<path d="M1322.78,43.02c7.92-1.19,21.51-3.21,27.42-4.21c2.17-0.37,3.29,0.93,3.17,2.23c-0.41,4.76-1.79,17.26-3.53,26.17" style="fill:none;stroke:#999;stroke-width:3" />
<path d="M1336.06,41.73c0.9,0.59,1.58,2.51,1.61,4.04c0.12,6.73,0.03,16.27,0.03,19.6" style="fill:none;stroke:#999;stroke-width:3" />
<path d="M1324.76,55.23c2.58-0.46,24.76-3.87,26.89-4.06" style="fill:none;stroke:#999;stroke-width:3" />
<path d="M1325.73,67.9c5.71-0.51,16.61-2.12,24.49-2.95" style="fill:none;stroke:#999;stroke-width:3" />
<path d="M1322.52,78.32c0,5.13-2.18,12.71-2.74,14.18" style="fill:none;stroke:#999;stroke-width:3" />
<path d="M1330.7,78.08c1.13,2.22,2.21,8.33,2.49,11.79" style="fill:none;stroke:#999;stroke-width:3" />
<path d="M1339.75,76.44c1.61,1.89,4.16,7.77,4.57,10.71" style="fill:none;stroke:#999;stroke-width:3" />
<path d="M1348.55,74.37c2.1,1.81,5.42,7.46,5.95,10.28" style="fill:none;stroke:#999;stroke-width:3" />
<path d="M1364.21,12.33c2.13,1.48,5.5,6.06,6.03,8.36" style="fill:none;stroke:#999;stroke-width:3" />
<path d="M1390.19,10.65c0.02,0.31,0.04,0.8-0.04,1.25c-0.5,2.62-3.39,8.38-7.35,11.91" style="fill:none;stroke:black;stroke-width:3" />
<circle cx="1390.19" cy="10.65" r="5" stroke-width="0" fill="#FF2A00" opacity="0.7" />
<path d="M1442.5,14.25c0.04,0.5,0.08,1.29-0.08,2c-0.92,4.21-6.2,13.46-13.43,19.12" style="fill:none;stroke:#999;stroke-width:3" />
<path d="M1440.8899999999999,21.97c1.93,0,13.82-3.3,15.85-3.57c1.74-0.23,2.13,2.04,1.41,3.21c-3.05,4.89-6.39,9.64-10.95,18.35" style="fill:none;stroke:#999;stroke-width:3" />
<path d="M1430.72,41.39c0.23,0.46,0.23,0.77,0.36,1.35c1.02,4.72,2.61,18.14,3.25,26.95" style="fill:none;stroke:#999;stroke-width:3" />
<path d="M1431.78,43.02c7.92-1.19,21.51-3.21,27.42-4.21c2.17-0.37,3.29,0.93,3.17,2.23c-0.41,4.76-1.79,17.26-3.53,26.17" style="fill:none;stroke:#999;stroke-width:3" />
<path d="M1445.06,41.73c0.9,0.59,1.58,2.51,1.61,4.04c0.12,6.73,0.03,16.27,0.03,19.6" style="fill:none;stroke:#999;stroke-width:3" />
<path d="M1433.76,55.23c2.58-0.46,24.76-3.87,26.89-4.06" style="fill:none;stroke:#999;stroke-width:3" />
<path d="M1434.73,67.9c5.71-0.51,16.61-2.12,24.49-2.95" style="fill:none;stroke:#999;stroke-width:3" />
<path d="M1431.52,78.32c0,5.13-2.18,12.71-2.74,14.18" style="fill:none;stroke:#999;stroke-width:3" />
<path d="M1439.7,78.08c1.13,2.22,2.21,8.33,2.49,11.79" style="fill:none;stroke:#999;stroke-width:3" />
<path d="M1448.75,76.44c1.61,1.89,4.16,7.77,4.57,10.71" style="fill:none;stroke:#999;stroke-width:3" />
<path d="M1457.55,74.37c2.1,1.81,5.42,7.46,5.95,10.28" style="fill:none;stroke:#999;stroke-width:3" />
<path d="M1473.21,12.33c2.13,1.48,5.5,6.06,6.03,8.36" style="fill:none;stroke:#999;stroke-width:3" />
<path d="M1499.19,10.65c0.02,0.31,0.04,0.8-0.04,1.25c-0.5,2.62-3.39,8.38-7.35,11.91" style="fill:none;stroke:#999;stroke-width:3" />
<path d="M1467.56,26.82c1.02,0.45,2.87,0.55,3.89,0.45c9.01-0.91,28.81-4.1,38.46-4.1c1.69,0,2.71,0.22,3.55,0.44" style="fill:none;stroke:black;stroke-width:3" />
<circle cx="1467.56" cy="26.82" r="5" stroke-width="0" fill="#FF2A00" opacity="0.7" />
<path d="M1551.5,14.25c0.04,0.5,0.08,1.29-0.08,2c-0.92,4.21-6.2,13.46-13.43,19.12" style="fill:none;stroke:#999;stroke-width:3" />
<path d="M1549.8899999999999,21.97c1.93,0,13.82-3.3,15.85-3.57c1.74-0.23,2.13,2.04,1.41,3.21c-3.05,4.89-6.39,9.64-10.95,18.35" style="fill:none;stroke:#999;stroke-width:3" />
<path d="M1539.72,41.39c0.23,0.46,0.23,0.77,0.36,1.35c1.02,4.72,2.61,18.14,3.25,26.95" style="fill:none;stroke:#999;stroke-width:3" />
<path d="M1540.78,43.02c7.92-1.19,21.51-3.21,27.42-4.21c2.17-0.37,3.29,0.93,3.17,2.23c-0.41,4.76-1.79,17.26-3.53,26.17" style="fill:none;stroke:#999;stroke-width:3" />
<path d="M1554.06,41.73c0.9,0.59,1.58,2.51,1.61,4.04c0.12,6.73,0.03,16.27,0.03,19.6" style="fill:none;stroke:#999;stroke-width:3" />
<path d="M1542.76,55.23c2.58-0.46,24.76-3.87,26.89-4.06" style="fill:none;stroke:#999;stroke-width:3" />
<path d="M1543.73,67.9c5.71-0.51,16.61-2.12,24.49-2.95" style="fill:none;stroke:#999;stroke-width:3" />
<path d="M1540.52,78.32c0,5.13-2.18,12.71-2.74,14.18" style="fill:none;stroke:#999;stroke-width:3" />
<path d="M1548.7,78.08c1.13,2.22,2.21,8.33,2.49,11.79" style="fill:none;stroke:#999;stroke-width:3" />
<path d="M1557.75,76.44c1.61,1.89,4.16,7.77,4.57,10.71" style="fill:none;stroke:#999;stroke-width:3" />
<path d="M1566.55,74.37c2.1,1.81,5.42,7.46,5.95,10.28" style="fill:none;stroke:#999;stroke-width:3" />
<path d="M1582.21,12.33c2.13,1.48,5.5,6.06,6.03,8.36" style="fill:none;stroke:#999;stroke-width:3" />
<path d="M1608.19,10.65c0.02,0.31,0.04,0.8-0.04,1.25c-0.5,2.62-3.39,8.38-7.35,11.91" style="fill:none;stroke:#999;stroke-width:3" />
<path d="M1576.56,26.82c1.02,0.45,2.87,0.55,3.89,0.45c9.01-0.91,28.81-4.1,38.46-4.1c1.69,0,2.71,0.22,3.55,0.44" style="fill:none;stroke:#999;stroke-width:3" />
<path d="M1581.88,35.97c0.45,0.69,0.62,2.35,0.62,3.26c0,0.92,0.03,24.6,0.03,24.86" style="fill:none;stroke:black;stroke-width:3" />
<circle cx="1581.88" cy="35.97" r="5" stroke-width="0" fill="#FF2A00" opacity="0.7" />
<path d="M1660.5,14.25c0.04,0.5,0.08,1.29-0.08,2c-0.92,4.21-6.2,13.46-13.43,19.12" style="fill:none;stroke:#999;stroke-width:3" />
<path d="M1658.8899999999999,21.97c1.93,0,13.82-3.3,15.85-3.57c1.74-0.23,2.13,2.04,1.41,3.21c-3.05,4.89-6.39,9.64-10.95,18.35" style="fill:none;stroke:#999;stroke-width:3" />
<path d="M1648.72,41.39c0.23,0.46,0.23,0.77,0.36,1.35c1.02,4.72,2.61,18.14,3.25,26.95" style="fill:none;stroke:#999;stroke-width:3" />
<path d="M1649.78,43.02c7.92-1.19,21.51-3.21,27.42-4.21c2.17-0.37,3.29,0.93,3.17,2.23c-0.41,4.76-1.79,17.26-3.53,26.17" style="fill:none;stroke:#999;stroke-width:3" />
<path d="M1663.06,41.73c0.9,0.59,1.58,2.51,1.61,4.04c0.12,6.73,0.03,16.27,0.03,19.6" style="fill:none;stroke:#999;stroke-width:3" />
<path d="M1651.76,55.23c2.58-0.46,24.76-3.87,26.89-4.06" style="fill:none;stroke:#999;stroke-width:3" />
<path d="M1652.73,67.9c5.71-0.51,16.61-2.12,24.49-2.95" style="fill:none;stroke:#999;stroke-width:3" />
<path d="M1649.52,78.32c0,5.13-2.18,12.71-2.74,14.18" style="fill:none;stroke:#999;stroke-width:3" />
<path d="M1657.7,78.08c1.13,2.22,2.21,8.33,2.49,11.79" style="fill:none;stroke:#999;stroke-width:3" />
<path d="M1666.75,76.44c1.61,1.89,4.16,7.77,4.57,10.71" style="fill:none;stroke:#999;stroke-width:3" />
<path d="M1675.55,74.37c2.1,1.81,5.42,7.46,5.95,10.28" style="fill:none;stroke:#999;stroke-width:3" />
<path d="M1691.21,12.33c2.13,1.48,5.5,6.06,6.03,8.36" style="fill:none;stroke:#999;stroke-width:3" />
<path d="M1717.19,10.65c0.02,0.31,0.04,0.8-0.04,1.25c-0.5,2.62-3.39,8.38-7.35,11.91" style="fill:none;stroke:#999;stroke-width:3" />
<path d="M1685.56,26.82c1.02,0.45,2.87,0.55,3.89,0.45c9.01-0.91,28.81-4.1,38.46-4.1c1.69,0,2.71,0.22,3.55,0.44" style="fill:none;stroke:#999;stroke-width:3" />
<path d="M1690.88,35.97c0.45,0.69,0.62,2.35,0.62,3.26c0,0.92,0.03,24.6,0.03,24.86" style="fill:none;stroke:#999;stroke-width:3" />
<path d="M1693.2,37.39c2.55-0.11,27.09-3.71,29.26-3.79c1.81-0.07,2.75,1.14,2.75,2.65c0,0.85-0.73,19.67-0.72,25.54" style="fill:none;stroke:black;stroke-width:3" />
<circle cx="1693.2" cy="37.39" r="5" stroke-width="0" fill="#FF2A00" opacity="0.7" />
<path d="M1769.5,14.25c0.04,0.5,0.08,1.29-0.08,2c-0.92,4.21-6.2,13.46-13.43,19.12" style="fill:none;stroke:#999;stroke-width:3" />
<path d="M1767.8899999999999,21.97c1.93,0,13.82-3.3,15.85-3.57c1.74-0.23,2.13,2.04,1.41,3.21c-3.05,4.89-6.39,9.64-10.95,18.35" style="fill:none;stroke:#999;stroke-width:3" />
<path d="M1757.72,41.39c0.23,0.46,0.23,0.77,0.36,1.35c1.02,4.72,2.61,18.14,3.25,26.95" style="fill:none;stroke:#999;stroke-width:3" />
<path d="M1758.78,43.02c7.92-1.19,21.51-3.21,27.42-4.21c2.17-0.37,3.29,0.93,3.17,2.23c-0.41,4.76-1.79,17.26-3.53,26.17" style="fill:none;stroke:#999;stroke-width:3" />
<path d="M1772.06,41.73c0.9,0.59,1.58,2.51,1.61,4.04c0.12,6.73,0.03,16.27,0.03,19.6" style="fill:none;stroke:#999;stroke-width:3" />
<path d="M1760.76,55.23c2.58-0.46,24.76-3.87,26.89-4.06" style="fill:none;stroke:#999;stroke-width:3" />
<path d="M1761.73,67.9c5.71-0.51,16.61-2.12,24.49-2.95" style="fill:none;stroke:#999;stroke-width:3" />
<path d="M1758.52,78.32c0,5.13-2.18,12.71-2.74,14.18" style="fill:none;stroke:#999;stroke-width:3" />
<path d="M1766.7,78.08c1.13,2.22,2.21,8.33,2.49,11.79" style="fill:none;stroke:#999;stroke-width:3" />
<path d="M1775.75,76.44c1.61,1.89,4.16,7.77,4.57,10.71" style="fill:none;stroke:#999;stroke-width:3" />
<path d="M1784.55,74.37c2.1,1.81,5.42,7.46,5.95,10.28" style="fill:none;stroke:#999;stroke-width:3" />
<path d="M1800.21,12.33c2.13,1.48,5.5,6.06,6.03,8.36" style="fill:none;stroke:#999;stroke-width:3" />
<path d="M1826.19,10.65c0.02,0.31,0.04,0.8-0.04,1.25c-0.5,2.62-3.39,8.38-7.35,11.91" style="fill:none;stroke:#999;stroke-width:3" />
<path d="M1794.56,26.82c1.02,0.45,2.87,0.55,3.89,0.45c9.01-0.91,28.81-4.1,38.46-4.1c1.69,0,2.71,0.22,3.55,0.44" style="fill:none;stroke:#999;stroke-width:3" />
<path d="M1799.88,35.97c0.45,0.69,0.62,2.35,0.62,3.26c0,0.92,0.03,24.6,0.03,24.86" style="fill:none;stroke:#999;stroke-width:3" />
<path d="M1802.2,37.39c2.55-0.11,27.09-3.71,29.26-3.79c1.81-0.07,2.75,1.14,2.75,2.65c0,0.85-0.73,19.67-0.72,25.54" style="fill:none;stroke:#999;stroke-width:3" />
<path d="M1811.62,28.89c0.24,0.76,0.54,1.42,0.54,2.24c0.07,8.04-2.37,14.71-7.75,18.26" style="fill:none;stroke:black;stroke-width:3" />
<circle cx="1811.62" cy="28.89" r="5" stroke-width="0" fill="#FF2A00" opacity="0.7" />
<path d="M1878.5,14.25c0.04,0.5,0.08,1.29-0.08,2c-0.92,4.21-6.2,13.46-13.43,19.12" style="fill:none;stroke:#999;stroke-width:3" />
<path d="M1876.8899999999999,21.97c1.93,0,13.82-3.3,15.85-3.57c1.74-0.23,2.13,2.04,1.41,3.21c-3.05,4.89-6.39,9.64-10.95,18.35" style="fill:none;stroke:#999;stroke-width:3" />
<path d="M1866.72,41.39c0.23,0.46,0.23,0.77,0.36,1.35c1.02,4.72,2.61,18.14,3.25,26.95" style="fill:none;stroke:#999;stroke-width:3" />
<path d="M1867.78,43.02c7.92-1.19,21.51-3.21,27.42-4.21c2.17-0.37,3.29,0.93,3.17,2.23c-0.41,4.76-1.79,17.26-3.53,26.17" style="fill:none;stroke:#999;stroke-width:3" />
<path d="M1881.06,41.73c0.9,0.59,1.58,2.51,1.61,4.04c0.12,6.73,0.03,16.27,0.03,19.6" style="fill:none;stroke:#999;stroke-width:3" />
<path d="M1869.76,55.23c2.58-0.46,24.76-3.87,26.89-4.06" style="fill:none;stroke:#999;stroke-width:3" />
<path d="M1870.73,67.9c5.71-0.51,16.61-2.12,24.49-2.95" style="fill:none;stroke:#999;stroke-width:3" />
<path d="M1867.52,78.32c0,5.13-2.18,12.71-2.74,14.18" style="fill:none;stroke:#999;stroke-width:3" />
<path d="M1875.7,78.08c1.13,2.22,2.21,8.33,2.49,11.79" style="fill:none;stroke:#999;stroke-width:3" />
<path d="M1884.75,76.44c1.61,1.89,4.16,7.77,4.57,10.71" style="fill:none;stroke:#999;stroke-width:3" />
<path d="M1893.55,74.37c2.1,1.81,5.42,7.46,5.95,10.28" style="fill:none;stroke:#999;stroke-width:3" />
<path d="M1909.21,12.33c2.13,1.48,5.5,6.06,6.03,8.36" style="fill:none;stroke:#999;stroke-width:3" />
<path d="M1935.19,10.65c0.02,0.31,0.04,0.8-0.04,1.25c-0.5,2.62-3.39,8.38-7.35,11.91" style="fill:none;stroke:#999;stroke-width:3" />
<path d="M1903.56,26.82c1.02,0.45,2.87,0.55,3.89,0.45c9.01-0.91,28.81-4.1,38.46-4.1c1.69,0,2.71,0.22,3.55,0.44" style="fill:none;stroke:#999;stroke-width:3" />
<path d="M1908.88,35.97c0.45,0.69,0.62,2.35,0.62,3.26c0,0.92,0.03,24.6,0.03,24.86" style="fill:none;stroke:#999;stroke-width:3" />
<path d="M1911.2,37.39c2.55-0.11,27.09-3.71,29.26-3.79c1.81-0.07,2.75,1.14,2.75,2.65c0,0.85-0.73,19.67-0.72,25.54" style="fill:none;stroke:#999;stroke-width:3" />
<path d="M1920.62,28.89c0.24,0.76,0.54,1.42,0.54,2.24c0.07,8.04-2.37,14.71-7.75,18.26" style="fill:none;stroke:#999;stroke-width:3" />
<path d="M1929.02,27.73c0.43,0.65,0.76,1.42,0.79,2.42c0.08,3.18-0.19,7.46-0.23,11.39c-0.03,3.41,1.19,3.83,5.24,3.83c2.57,0,5.12-0.42,5.41-0.81" style="fill:none;stroke:black;stroke-width:3" />
<circle cx="1929.02" cy="27.73" r="5" stroke-width="0" fill="#FF2A00" opacity="0.7" />
<path d="M1987.5,14.25c0.04,0.5,0.08,1.29-0.08,2c-0.92,4.21-6.2,13.46-13.43,19.12" style="fill:none;stroke:#999;stroke-width:3" />
<path d="M1985.8899999999999,21.97c1.93,0,13.82-3.3,15.85-3.57c1.74-0.23,2.13,2.04,1.41,3.21c-3.05,4.89-6.39,9.64-10.95,18.35" style="fill:none;stroke:#999;stroke-width:3" />
<path d="M1975.72,41.39c0.23,0.46,0.23,0.77,0.36,1.35c1.02,4.72,2.61,18.14,3.25,26.95" style="fill:none;stroke:#999;stroke-width:3" />
<path d="M1976.78,43.02c7.92-1.19,21.51-3.21,27.42-4.21c2.17-0.37,3.29,0.93,3.17,2.23c-0.41,4.76-1.79,17.26-3.53,26.17" style="fill:none;stroke:#999;stroke-width:3" />
<path d="M1990.06,41.73c0.9,0.59,1.58,2.51,1.61,4.04c0.12,6.73,0.03,16.27,0.03,19.6" style="fill:none;stroke:#999;stroke-width:3" />
<path d="M1978.76,55.23c2.58-0.46,24.76-3.87,26.89-4.06" style="fill:none;stroke:#999;stroke-width:3" />
<path d="M1979.73,67.9c5.71-0.51,16.61-2.12,24.49-2.95" style="fill:none;stroke:#999;stroke-width:3" />
<path d="M1976.52,78.32c0,5.13-2.18,12.71-2.74,14.18" style="fill:none;stroke:#999;stroke-width:3" />
<path d="M1984.7,78.08c1.13,2.22,2.21,8.33,2.49,11.79" style="fill:none;stroke:#999;stroke-width:3" />
<path d="M1993.75,76.44c1.61,1.89,4.16,7.77,4.57,10.71" style="fill:none;stroke:#999;stroke-width:3" />
<path d="M2002.55,74.37c2.1,1.81,5.42,7.46,5.95,10.28" style="fill:none;stroke:#999;stroke-width:3" />
<path d="M2018.21,12.33c2.13,1.48,5.5,6.06,6.03,8.36" style="fill:none;stroke:#999;stroke-width:3" />
<path d="M2044.19,10.65c0.02,0.31,0.04,0.8-0.04,1.25c-0.5,2.62-3.39,8.38-7.35,11.91" style="fill:none;stroke:#999;stroke-width:3" />
<path d="M2012.56,26.82c1.02,0.45,2.87,0.55,3.89,0.45c9.01-0.91,28.81-4.1,38.46-4.1c1.69,0,2.71,0.22,3.55,0.44" style="fill:none;stroke:#999;stroke-width:3" />
<path d="M2017.88,35.97c0.45,0.69,0.62,2.35,0.62,3.26c0,0.92,0.03,24.6,0.03,24.86" style="fill:none;stroke:#999;stroke-width:3" />
<path d="M2020.2,37.39c2.55-0.11,27.09-3.71,29.26-3.79c1.81-0.07,2.75,1.14,2.75,2.65c0,0.85-0.73,19.67-0.72,25.54" style="fill:none;stroke:#999;stroke-width:3" />
<path d="M2029.62,28.89c0.24,0.76,0.54,1.42,0.54,2.24c0.07,8.04-2.37,14.71-7.75,18.26" style="fill:none;stroke:#999;stroke-width:3" />
<path d="M2038.02,27.73c0.43,0.65,0.76,1.42,0.79,2.42c0.08,3.18-0.19,7.46-0.23,11.39c-0.03,3.41,1.19,3.83,5.24,3.83c2.57,0,5.12-0.42,5.41-0.81" style="fill:none;stroke:#999;stroke-width:3" />
<path d="M2019.47,54.76c3.12,0,28.16-3.07,31.69-3.07" style="fill:none;stroke:black;stroke-width:3" />
<circle cx="2019.47" cy="54.76" r="5" stroke-width="0" fill="#FF2A00" opacity="0.7" />
<path d="M2096.5,14.25c0.04,0.5,0.08,1.29-0.08,2c-0.92,4.21-6.2,13.46-13.43,19.12" style="fill:none;stroke:#999;stroke-width:3" />
<path d="M2094.89,21.97c1.93,0,13.82-3.3,15.85-3.57c1.74-0.23,2.13,2.04,1.41,3.21c-3.05,4.89-6.39,9.64-10.95,18.35" style="fill:none;stroke:#999;stroke-width:3" />
<path d="M2084.7200000000003,41.39c0.23,0.46,0.23,0.77,0.36,1.35c1.02,4.72,2.61,18.14,3.25,26.95" style="fill:none;stroke:#999;stroke-width:3" />
<path d="M2085.7799999999997,43.02c7.92-1.19,21.51-3.21,27.42-4.21c2.17-0.37,3.29,0.93,3.17,2.23c-0.41,4.76-1.79,17.26-3.53,26.17" style="fill:none;stroke:#999;stroke-width:3" />
<path d="M2099.06,41.73c0.9,0.59,1.58,2.51,1.61,4.04c0.12,6.73,0.03,16.27,0.03,19.6" style="fill:none;stroke:#999;stroke-width:3" />
<path d="M2087.76,55.23c2.58-0.46,24.76-3.87,26.89-4.06" style="fill:none;stroke:#999;stroke-width:3" />
<path d="M2088.73,67.9c5.71-0.51,16.61-2.12,24.49-2.95" style="fill:none;stroke:#999;stroke-width:3" />
<path d="M2085.52,78.32c0,5.13-2.18,12.71-2.74,14.18" style="fill:none;stroke:#999;stroke-width:3" />
<path d="M2093.7,78.08c1.13,2.22,2.21,8.33,2.49,11.79" style="fill:none;stroke:#999;stroke-width:3" />
<path d="M2102.75,76.44c1.61,1.89,4.16,7.77,4.57,10.71" style="fill:none;stroke:#999;stroke-width:3" />
<path d="M2111.55,74.37c2.1,1.81,5.42,7.46,5.95,10.28" style="fill:none;stroke:#999;stroke-width:3" />
<path d="M2127.21,12.33c2.13,1.48,5.5,6.06,6.03,8.36" style="fill:none;stroke:#999;stroke-width:3" />
<path d="M2153.19,10.65c0.02,0.31,0.04,0.8-0.04,1.25c-0.5,2.62-3.39,8.38-7.35,11.91" style="fill:none;stroke:#999;stroke-width:3" />
<path d="M2121.56,26.82c1.02,0.45,2.87,0.55,3.89,0.45c9.01-0.91,28.81-4.1,38.46-4.1c1.69,0,2.71,0.22,3.55,0.44" style="fill:none;stroke:#999;stroke-width:3" />
<path d="M2126.88,35.97c0.45,0.69,0.62,2.35,0.62,3.26c0,0.92,0.03,24.6,0.03,24.86" style="fill:none;stroke:#999;stroke-width:3" />
<path d="M2129.2,37.39c2.55-0.11,27.09-3.71,29.26-3.79c1.81-0.07,2.75,1.14,2.75,2.65c0,0.85-0.73,19.67-0.72,25.54" style="fill:none;stroke:#999;stroke-width:3" />
<path d="M2138.62,28.89c0.24,0.76,0.54,1.42,0.54,2.24c0.07,8.04-2.37,14.71-7.75,18.26" style="fill:none;stroke:#999;stroke-width:3" />
<path d="M2147.02,27.73c0.43,0.65,0.76,1.42,0.79,2.42c0.08,3.18-0.19,7.46-0.23,11.39c-0.03,3.41,1.19,3.83,5.24,3.83c2.57,0,5.12-0.42,5.41-0.81" style="fill:none;stroke:#999;stroke-width:3" />
<path d="M2128.4700000000003,54.76c3.12,0,28.16-3.07,31.69-3.07" style="fill:none;stroke:#999;stroke-width:3" />
<path d="M2128.97,63.2c6.35-0.28,22.95-2.7,30.86-2.94" style="fill:none;stroke:black;stroke-width:3" />
<circle cx="2128.97" cy="63.2" r="5" stroke-width="0" fill="#FF2A00" opacity="0.7" />
<path d="M2205.5,14.25c0.04,0.5,0.08,1.29-0.08,2c-0.92,4.21-6.2,13.46-13.43,19.12" style="fill:none;stroke:#999;stroke-width:3" />
<path d="M2203.89,21.97c1.93,0,13.82-3.3,15.85-3.57c1.74-0.23,2.13,2.04,1.41,3.21c-3.05,4.89-6.39,9.64-10.95,18.35" style="fill:none;stroke:#999;stroke-width:3" />
<path d="M2193.7200000000003,41.39c0.23,0.46,0.23,0.77,0.36,1.35c1.02,4.72,2.61,18.14,3.25,26.95" style="fill:none;stroke:#999;stroke-width:3" />
<path d="M2194.7799999999997,43.02c7.92-1.19,21.51-3.21,27.42-4.21c2.17-0.37,3.29,0.93,3.17,2.23c-0.41,4.76-1.79,17.26-3.53,26.17" style="fill:none;stroke:#999;stroke-width:3" />
<path d="M2208.06,41.73c0.9,0.59,1.58,2.51,1.61,4.04c0.12,6.73,0.03,16.27,0.03,19.6" style="fill:none;stroke:#999;stroke-width:3" />
<path d="M2196.76,55.23c2.58-0.46,24.76-3.87,26.89-4.06" style="fill:none;stroke:#999;stroke-width:3" />
<path d="M2197.73,67.9c5.71-0.51,16.61-2.12,24.49-2.95" style="fill:none;stroke:#999;stroke-width:3" />
<path d="M2194.52,78.32c0,5.13-2.18,12.71-2.74,14.18" style="fill:none;stroke:#999;stroke-width:3" />
<path d="M2202.7,78.08c1.13,2.22,2.21,8.33,2.49,11.79" style="fill:none;stroke:#999;stroke-width:3" />
<path d="M2211.75,76.44c1.61,1.89,4.16,7.77,4.57,10.71" style="fill:none;stroke:#999;stroke-width:3" />
<path d="M2220.55,74.37c2.1,1.81,5.42,7.46,5.95,10.28" style="fill:none;stroke:#999;stroke-width:3" />
<path d="M2236.21,12.33c2.13,1.48,5.5,6.06,6.03,8.36" style="fill:none;stroke:#999;stroke-width:3" />
<path d="M2262.19,10.65c0.02,0.31,0.04,0.8-0.04,1.25c-0.5,2.62-3.39,8.38-7.35,11.91" style="fill:none;stroke:#999;stroke-width:3" />
<path d="M2230.56,26.82c1.02,0.45,2.87,0.55,3.89,0.45c9.01-0.91,28.81-4.1,38.46-4.1c1.69,0,2.71,0.22,3.55,0.44" style="fill:none;stroke:#999;stroke-width:3" />
<path d="M2235.88,35.97c0.45,0.69,0.62,2.35,0.62,3.26c0,0.92,0.03,24.6,0.03,24.86" style="fill:none;stroke:#999;stroke-width:3" />
<path d="M2238.2,37.39c2.55-0.11,27.09-3.71,29.26-3.79c1.81-0.07,2.75,1.14,2.75,2.65c0,0.85-0.73,19.67-0.72,25.54" style="fill:none;stroke:#999;stroke-width:3" />
<path d="M2247.62,28.89c0.24,0.76,0.54,1.42,0.54,2.24c0.07,8.04-2.37,14.71-7.75,18.26" style="fill:none;stroke:#999;stroke-width:3" />
<path d="M2256.02,27.73c0.43,0.65,0.76,1.42,0.79,2.42c0.08,3.18-0.19,7.46-0.23,11.39c-0.03,3.41,1.19,3.83,5.24,3.83c2.57,0,5.12-0.42,5.41-0.81" style="fill:none;stroke:#999;stroke-width:3" />
<path d="M2237.4700000000003,54.76c3.12,0,28.16-3.07,31.69-3.07" style="fill:none;stroke:#999;stroke-width:3" />
<path d="M2237.97,63.2c6.35-0.28,22.95-2.7,30.86-2.94" style="fill:none;stroke:#999;stroke-width:3" />
<path d="M2230.38,73.64c1.07,0.76,3.01,0.86,4.09,0.76c13.35-1.17,27.14-2.83,40.17-3.99c1.77-0.16,2.85,0.36,3.74,0.75" style="fill:none;stroke:black;stroke-width:3" />
<circle cx="2230.38" cy="73.64" r="5" stroke-width="0" fill="#FF2A00" opacity="0.7" />
<path d="M2314.5,14.25c0.04,0.5,0.08,1.29-0.08,2c-0.92,4.21-6.2,13.46-13.43,19.12" style="fill:none;stroke:#999;stroke-width:3" />
<path d="M2312.89,21.97c1.93,0,13.82-3.3,15.85-3.57c1.74-0.23,2.13,2.04,1.41,3.21c-3.05,4.89-6.39,9.64-10.95,18.35" style="fill:none;stroke:#999;stroke-width:3" />
<path d="M2302.7200000000003,41.39c0.23,0.46,0.23,0.77,0.36,1.35c1.02,4.72,2.61,18.14,3.25,26.95" style="fill:none;stroke:#999;stroke-width:3" />
<path d="M2303.7799999999997,43.02c7.92-1.19,21.51-3.21,27.42-4.21c2.17-0.37,3.29,0.93,3.17,2.23c-0.41,4.76-1.79,17.26-3.53,26.17" style="fill:none;stroke:#999;stroke-width:3" />
<path d="M2317.06,41.73c0.9,0.59,1.58,2.51,1.61,4.04c0.12,6.73,0.03,16.27,0.03,19.6" style="fill:none;stroke:#999;stroke-width:3" />
<path d="M2305.76,55.23c2.58-0.46,24.76-3.87,26.89-4.06" style="fill:none;stroke:#999;stroke-width:3" />
<path d="M2306.73,67.9c5.71-0.51,16.61-2.12,24.49-2.95" style="fill:none;stroke:#999;stroke-width:3" />
<path d="M2303.52,78.32c0,5.13-2.18,12.71-2.74,14.18" style="fill:none;stroke:#999;stroke-width:3" />
<path d="M2311.7,78.08c1.13,2.22,2.21,8.33,2.49,11.79" style="fill:none;stroke:#999;stroke-width:3" />
<path d="M2320.75,76.44c1.61,1.89,4.16,7.77,4.57,10.71" style="fill:none;stroke:#999;stroke-width:3" />
<path d="M2329.55,74.37c2.1,1.81,5.42,7.46,5.95,10.28" style="fill:none;stroke:#999;stroke-width:3" />
<path d="M2345.21,12.33c2.13,1.48,5.5,6.06,6.03,8.36" style="fill:none;stroke:#999;stroke-width:3" />
<path d="M2371.19,10.65c0.02,0.31,0.04,0.8-0.04,1.25c-0.5,2.62-3.39,8.38-7.35,11.91" style="fill:none;stroke:#999;stroke-width:3" />
<path d="M2339.56,26.82c1.02,0.45,2.87,0.55,3.89,0.45c9.01-0.91,28.81-4.1,38.46-4.1c1.69,0,2.71,0.22,3.55,0.44" style="fill:none;stroke:#999;stroke-width:3" />
<path d="M2344.88,35.97c0.45,0.69,0.62,2.35,0.62,3.26c0,0.92,0.03,24.6,0.03,24.86" style="fill:none;stroke:#999;stroke-width:3" />
<path d="M2347.2,37.39c2.55-0.11,27.09-3.71,29.26-3.79c1.81-0.07,2.75,1.14,2.75,2.65c0,0.85-0.73,19.67-0.72,25.54" style="fill:none;stroke:#999;stroke-width:3" />
<path d="M2356.62,28.89c0.24,0.76,0.54,1.42,0.54,2.24c0.07,8.04-2.37,14.71-7.75,18.26" style="fill:none;stroke:#999;stroke-width:3" />
<path d="M2365.02,27.73c0.43,0.65,0.76,1.42,0.79,2.42c0.08,3.18-0.19,7.46-0.23,11.39c-0.03,3.41,1.19,3.83,5.24,3.83c2.57,0,5.12-0.42,5.41-0.81" style="fill:none;stroke:#999;stroke-width:3" />
<path d="M2346.4700000000003,54.76c3.12,0,28.16-3.07,31.69-3.07" style="fill:none;stroke:#999;stroke-width:3" />
<path d="M2346.97,63.2c6.35-0.28,22.95-2.7,30.86-2.94" style="fill:none;stroke:#999;stroke-width:3" />
<path d="M2339.38,73.64c1.07,0.76,3.01,0.86,4.09,0.76c13.35-1.17,27.14-2.83,40.17-3.99c1.77-0.16,2.85,0.36,3.74,0.75" style="fill:none;stroke:#999;stroke-width:3" />
<path d="M2369.72,64.25c0.05,0.37,0.68,1.92,0.68,4.25c0,8.13,0.2,21.48,0.2,25.29c0,9.27-4.99,1.37-6.17,0.19" style="fill:none;stroke:black;stroke-width:3" />
<circle cx="2369.72" cy="64.25" r="5" stroke-width="0" fill="#FF2A00" opacity="0.7" />
<path d="M2423.5,14.25c0.04,0.5,0.08,1.29-0.08,2c-0.92,4.21-6.2,13.46-13.43,19.12" style="fill:none;stroke:#999;stroke-width:3" />
<path d="M2421.89,21.97c1.93,0,13.82-3.3,15.85-3.57c1.74-0.23,2.13,2.04,1.41,3.21c-3.05,4.89-6.39,9.64-10.95,18.35" style="fill:none;stroke:#999;stroke-width:3" />
<path d="M2411.7200000000003,41.39c0.23,0.46,0.23,0.77,0.36,1.35c1.02,4.72,2.61,18.14,3.25,26.95" style="fill:none;stroke:#999;stroke-width:3" />
<path d="M2412.7799999999997,43.02c7.92-1.19,21.51-3.21,27.42-4.21c2.17-0.37,3.29,0.93,3.17,2.23c-0.41,4.76-1.79,17.26-3.53,26.17" style="fill:none;stroke:#999;stroke-width:3" />
<path d="M2426.06,41.73c0.9,0.59,1.58,2.51,1.61,4.04c0.12,6.73,0.03,16.27,0.03,19.6" style="fill:none;stroke:#999;stroke-width:3" />
<path d="M2414.76,55.23c2.58-0.46,24.76-3.87,26.89-4.06" style="fill:none;stroke:#999;stroke-width:3" />
<path d="M2415.73,67.9c5.71-0.51,16.61-2.12,24.49-2.95" style="fill:none;stroke:#999;stroke-width:3" />
<path d="M2412.52,78.32c0,5.13-2.18,12.71-2.74,14.18" style="fill:none;stroke:#999;stroke-width:3" />
<path d="M2420.7,78.08c1.13,2.22,2.21,8.33,2.49,11.79" style="fill:none;stroke:#999;stroke-width:3" />
<path d="M2429.75,76.44c1.61,1.89,4.16,7.77,4.57,10.71" style="fill:none;stroke:#999;stroke-width:3" />
<path d="M2438.55,74.37c2.1,1.81,5.42,7.46,5.95,10.28" style="fill:none;stroke:#999;stroke-width:3" />
<path d="M2454.21,12.33c2.13,1.48,5.5,6.06,6.03,8.36" style="fill:none;stroke:#999;stroke-width:3" />
<path d="M2480.19,10.65c0.02,0.31,0.04,0.8-0.04,1.25c-0.5,2.62-3.39,8.38-7.35,11.91" style="fill:none;stroke:#999;stroke-width:3" />
<path d="M2448.56,26.82c1.02,0.45,2.87,0.55,3.89,0.45c9.01-0.91,28.81-4.1,38.46-4.1c1.69,0,2.71,0.22,3.55,0.44" style="fill:none;stroke:#999;stroke-width:3" />
<path d="M2453.88,35.97c0.45,0.69,0.62,2.35,0.62,3.26c0,0.92,0.03,24.6,0.03,24.86" style="fill:none;stroke:#999;stroke-width:3" />
<path d="M2456.2,37.39c2.55-0.11,27.09-3.71,29.26-3.79c1.81-0.07,2.75,1.14,2.75,2.65c0,0.85-0.73,19.67-0.72,25.54" style="fill:none;stroke:#999;stroke-width:3" />
<path d="M2465.62,28.89c0.24,0.76,0.54,1.42,0.54,2.24c0.07,8.04-2.37,14.71-7.75,18.26" style="fill:none;stroke:#999;stroke-width:3" />
<path d="M2474.02,27.73c0.43,0.65,0.76,1.42,0.79,2.42c0.08,3.18-0.19,7.46-0.23,11.39c-0.03,3.41,1.19,3.83,5.24,3.83c2.57,0,5.12-0.42,5.41-0.81" style="fill:none;stroke:#999;stroke-width:3" />
<path d="M2455.4700000000003,54.76c3.12,0,28.16-3.07,31.69-3.07" style="fill:none;stroke:#999;stroke-width:3" />
<path d="M2455.97,63.2c6.35-0.28,22.95-2.7,30.86-2.94" style="fill:none;stroke:#999;stroke-width:3" />
<path d="M2448.38,73.64c1.07,0.76,3.01,0.86,4.09,0.76c13.35-1.17,27.14-2.83,40.17-3.99c1.77-0.16,2.85,0.36,3.74,0.75" style="fill:none;stroke:#999;stroke-width:3" />
<path d="M2478.72,64.25c0.05,0.37,0.68,1.92,0.68,4.25c0,8.13,0.2,21.48,0.2,25.29c0,9.27-4.99,1.37-6.17,0.19" style="fill:none;stroke:#999;stroke-width:3" />
<path d="M2457.74,80.91c1.97,1.25,5.08,5.15,5.57,7.1" style="fill:none;stroke:black;stroke-width:3" />
<circle cx="2457.74" cy="80.91" r="5" stroke-width="0" fill="#FF2A00" opacity="0.7" />
</svg>