<svg width="2071px" height="109px" viewBox="0 0 2071px 109px" xmlns="http://www.w3.org/2000/svg" xmlns:xlink="http://www.w3.org/1999/xlink" xml:space="preserve" version="1.1"  baseProfile="full">
<line x1="1" y1="1" x2="2070" y2="1" style="stroke:#ddd;stroke-width:2" />
<line x1="1" y1="1" x2="1" y2="108" style="stroke:#ddd;stroke-width:2" />
<line x1="1" y1="108" x2="2070" y2="108" style="stroke:#ddd;stroke-width:2" />
<line x1="2070" y1="1" x2="2070" y2="108" style="stroke:#ddd;stroke-width:2" />
<line x1="109" y1="1" x2="109" y2="108" style="stroke:#ddd;stroke-width:2" />
<line x1="218" y1="1" x2="218" y2="108" style="stroke:#ddd;stroke-width:2" />
<line x1="327" y1="1" x2="327" y2="108" style="stroke:#ddd;stroke-width:2" />
<line x1="436" y1="1" x2="436" y2="108" style="stroke:#ddd;stroke-width:2" />
<line x1="545" y1="1" x2="545" y2="108" style="stroke:#ddd;stroke-width:2" />
<line x1="654" y1="1" x2="654" y2="108" style="stroke:#ddd;stroke-width:2" />
<line x1="763" y1="1" x2="763" y2="108" style="stroke:#ddd;stroke-width:2" />
<line x1="872" y1="1" x2="872" y2="108" style="stroke:#ddd;stroke-width:2" />
<line x1="981" y1="1" x2="981" y2="108" style="stroke:#ddd;stroke-width:2" />
<line x1="1090" y1="1" x2="1090" y2="108" style="stroke:#ddd;stroke-width:2" />
<line x1="1199" y1="1" x2="1199" y2="108" style="stroke:#ddd;stroke-width:2" />
<line x1="1308" y1="1" x2="1308" y2="108" style="stroke:#ddd;stroke-width:2" />
<line x1="1417" y1="1" x2="1417" y2="108" style="stroke:#ddd;stroke-width:2" />
<line x1="1526" y1="1" x2="1526" y2="108" style="stroke:#ddd;stroke-width:2" />
<line x1="1635" y1="1" x2="1635" y2="108" style="stroke:#ddd;stroke-width:2" />
<line x1="1744" y1="1" x2="1744" y2="108" style="stroke:#ddd;stroke-width:2" />
<line x1="1853" y1="1" x2="1853" y2="108" style="stroke:#ddd;stroke-width:2" />
<line x1="1962" y1="1" x2="1962" y2="108" style="stroke:#ddd;stroke-width:2" />
<line x1="1" y1="54" x2="2070" y2="54" style="stroke:#ddd;stroke-width:2;stroke-dasharray:3 3" />
<line x1="55" y1="1" x2="55" y2="108" style="stroke:#ddd;stroke-width:2;stroke-dasharray:3 3" />
<line x1="164" y1="1" x2="164" y2="108" style="stroke:#ddd;stroke-width:2;stroke-dasharray:3 3" />
<line x1="273" y1="1" x2="273" y2="108" style="stroke:#ddd;stroke-width:2;stroke-dasharray:3 3" />
<line x1="382" y1="1" x2="382" y2="108" style="stroke:#ddd;stroke-width:2;stroke-dasharray:3 3" />
<line x1="491" y1="1" x2="491" y2="108" style="stroke:#ddd;stroke-width:2;stroke-dasharray:3 3" />
<line x1="600" y1="1" x2="600" y2="108" style="stroke:#ddd;stroke-width:2;stroke-dasharray:3 3" />
<line x1="709" y1="1" x2="709" y2="108" style="stroke:#ddd;stroke-width:2;stroke-dasharray:3 3" />
<line x1="818" y1="1" x2="818" y2="108" style="stroke:#ddd;stroke-width:2;stroke-dasharray:3 3" />
<line x1="927" y1="1" x2="927" y2="108" style="stroke:#ddd;stroke-width:2;stroke-dasharray:3 3" />
<line x1="1036" y1="1" x2="1036" y2="108" style="stroke:#ddd;stroke-width:2;stroke-dasharray:3 3" />
<line x1="1145" y1="1" x2="1145" y2="108" style="stroke:#ddd;stroke-width:2;stroke-dasharray:3 3" />
<line x1="1254" y1="1" x2="1254" y2="108" style="stroke:#ddd;stroke-width:2;stroke-dasharray:3 3" />
<line x1="1363" y1="1" x2="1363" y2="108" style="stroke:#ddd;stroke-width:2;stroke-dasharray:3 3" />
<line x1="1472" y1="1" x2="1472" y2="108" style="stroke:#ddd;stroke-width:2;stroke-dasharray:3 3" />
<line x1="1581" y1="1" x2="1581" y2="108" style="stroke:#ddd;stroke-width:2;stroke-dasharray:3 3" />
<line x1="1690" y1="1" x2="1690" y2="108" style="stroke:#ddd;stroke-width:2;stroke-dasharray:3 3" />
<line x1="1799" y1="1" x2="1799" y2="108" style="stroke:#ddd;stroke-width:2;stroke-dasharray:3 3" />
<line x1="1908" y1="1" x2="1908" y2="108" style="stroke:#ddd;stroke-width:2;stroke-dasharray:3 3" />
<line x1="2017" y1="1" x2="2017" y2="108" style="stroke:#ddd;stroke-width:2;stroke-dasharray:3 3" />
<path d="M69.04,11.16c0.02,0.31,0.03,0.81-0.03,1.26c-0.37,2.61-2.51,8.22-5.43,11.47" style="fill:none;stroke:black;stroke-width:3" />
<circle cx="69.04" cy="11.16" r="5" stroke-width="0" fill="#FF2A00" opacity="0.7" />
<path d="M178.04000000000002,11.16c0.02,0.31,0.03,0.81-0.03,1.26c-0.37,2.61-2.51,8.22-5.43,11.47" style="fill:none;stroke:#999;stroke-width:3" />
<path d="M166.3,25.75c0.33,0.4,0.6,0.95,0.6,1.61c0,6.75,0.04,33.21-0.17,43.83" style="fill:none;stroke:black;stroke-width:3" />
<circle cx="166.3" cy="25.75" r="5" stroke-width="0" fill="#FF2A00" opacity="0.7" />
<path d="M287.04,11.16c0.02,0.31,0.03,0.81-0.03,1.26c-0.37,2.61-2.51,8.22-5.43,11.47" style="fill:none;stroke:#999;stroke-width:3" />
<path d="M275.3,25.75c0.33,0.4,0.6,0.95,0.6,1.61c0,6.75,0.04,33.21-0.17,43.83" style="fill:none;stroke:#999;stroke-width:3" />
<path d="M276.31,27.99c1.55,0,21-3.96,22.51-3.86c2.24,0.15,3.33,2.01,3.13,3.75c-0.12,1.07-1.14,12.32-2.58,20.52" style="fill:none;stroke:black;stroke-width:3" />
<circle cx="276.31" cy="27.99" r="5" stroke-width="0" fill="#FF2A00" opacity="0.7" />
<path d="M396.04,11.16c0.02,0.31,0.03,0.81-0.03,1.26c-0.37,2.61-2.51,8.22-5.43,11.47" style="fill:none;stroke:#999;stroke-width:3" />
<path d="M384.3,25.75c0.33,0.4,0.6,0.95,0.6,1.61c0,6.75,0.04,33.21-0.17,43.83" style="fill:none;stroke:#999;stroke-width:3" />
<path d="M385.31,27.99c1.55,0,21-3.96,22.51-3.86c2.24,0.15,3.33,2.01,3.13,3.75c-0.12,1.07-1.14,12.32-2.58,20.52" style="fill:none;stroke:#999;stroke-width:3" />
<path d="M385.56,38.02c3.94-0.27,21.6-3.06,23.75-2.92" style="fill:none;stroke:black;stroke-width:3" />
<circle cx="385.56" cy="38.02" r="5" stroke-width="0" fill="#FF2A00" opacity="0.7" />
<path d="M505.04,11.16c0.02,0.31,0.03,0.81-0.03,1.26c-0.37,2.61-2.51,8.22-5.43,11.47" style="fill:none;stroke:#999;stroke-width:3" />
<path d="M493.3,25.75c0.33,0.4,0.6,0.95,0.6,1.61c0,6.75,0.04,33.21-0.17,43.83" style="fill:none;stroke:#999;stroke-width:3" />
<path d="M494.31,27.99c1.55,0,21-3.96,22.51-3.86c2.24,0.15,3.33,2.01,3.13,3.75c-0.12,1.07-1.14,12.32-2.58,20.52" style="fill:none;stroke:#999;stroke-width:3" />
<path d="M494.56,38.02c3.94-0.27,21.6-3.06,23.75-2.92" style="fill:none;stroke:#999;stroke-width:3" />
<path d="M494.47,49.29c3.88-0.13,18.05-2.32,22.88-2.33" style="fill:none;stroke:black;stroke-width:3" />
<circle cx="494.47" cy="49.29" r="5" stroke-width="0" fill="#FF2A00" opacity="0.7" />
<path d="M614.04,11.16c0.02,0.31,0.03,0.81-0.03,1.26c-0.37,2.61-2.51,8.22-5.43,11.47" style="fill:none;stroke:#999;stroke-width:3" />
<path d="M602.3,25.75c0.33,0.4,0.6,0.95,0.6,1.61c0,6.75,0.04,33.21-0.17,43.83" style="fill:none;stroke:#999;stroke-width:3" />
<path d="M603.31,27.99c1.55,0,21-3.96,22.51-3.86c2.24,0.15,3.33,2.01,3.13,3.75c-0.12,1.07-1.14,12.32-2.58,20.52" style="fill:none;stroke:#999;stroke-width:3" />
<path d="M603.56,38.02c3.94-0.27,21.6-3.06,23.75-2.92" style="fill:none;stroke:#999;stroke-width:3" />
<path d="M603.47,49.29c3.88-0.13,18.05-2.32,22.88-2.33" style="fill:none;stroke:#999;stroke-width:3" />
<path d="M603.19,60.58c9.22-1.18,29.6-4,33.56-4.74c1.38-0.26,3.72-0.49,4.42-0.15" style="fill:none;stroke:black;stroke-width:3" />
<circle cx="603.19" cy="60.58" r="5" stroke-width="0" fill="#FF2A00" opacity="0.7" />
<path d="M723.04,11.16c0.02,0.31,0.03,0.81-0.03,1.26c-0.37,2.61-2.51,8.22-5.43,11.47" style="fill:none;stroke:#999;stroke-width:3" />
<path d="M711.3,25.75c0.33,0.4,0.6,0.95,0.6,1.61c0,6.75,0.04,33.21-0.17,43.83" style="fill:none;stroke:#999;stroke-width:3" />
<path d="M712.31,27.99c1.55,0,21-3.96,22.51-3.86c2.24,0.15,3.33,2.01,3.13,3.75c-0.12,1.07-1.14,12.32-2.58,20.52" style="fill:none;stroke:#999;stroke-width:3" />
<path d="M712.56,38.02c3.94-0.27,21.6-3.06,23.75-2.92" style="fill:none;stroke:#999;stroke-width:3" />
<path d="M712.47,49.29c3.88-0.13,18.05-2.32,22.88-2.33" style="fill:none;stroke:#999;stroke-width:3" />
<path d="M712.19,60.58c9.22-1.18,29.6-4,33.56-4.74c1.38-0.26,3.72-0.49,4.42-0.15" style="fill:none;stroke:#999;stroke-width:3" />
<path d="M711.74,71.42c9.1-1.62,29.13-4.4,34.17-4.88c3.28-0.31,5.17,0.93,4.38,4.55C748.0,81.5,746.5,88.25,742.36,95.19c-3.54,5.94-5.97,1.04-7.3-0.24" style="fill:none;stroke:black;stroke-width:3" />
<circle cx="711.74" cy="71.42" r="5" stroke-width="0" fill="#FF2A00" opacity="0.7" />
<path d="M832.04,11.16c0.02,0.31,0.03,0.81-0.03,1.26c-0.37,2.61-2.51,8.22-5.43,11.47" style="fill:none;stroke:#999;stroke-width:3" />
<path d="M820.3,25.75c0.33,0.4,0.6,0.95,0.6,1.61c0,6.75,0.04,33.21-0.17,43.83" style="fill:none;stroke:#999;stroke-width:3" />
<path d="M821.31,27.99c1.55,0,21-3.96,22.51-3.86c2.24,0.15,3.33,2.01,3.13,3.75c-0.12,1.07-1.14,12.32-2.58,20.52" style="fill:none;stroke:#999;stroke-width:3" />
<path d="M821.56,38.02c3.94-0.27,21.6-3.06,23.75-2.92" style="fill:none;stroke:#999;stroke-width:3" />
<path d="M821.47,49.29c3.88-0.13,18.05-2.32,22.88-2.33" style="fill:none;stroke:#999;stroke-width:3" />
<path d="M821.19,60.58c9.22-1.18,29.6-4,33.56-4.74c1.38-0.26,3.72-0.49,4.42-0.15" style="fill:none;stroke:#999;stroke-width:3" />
<path d="M820.74,71.42c9.1-1.62,29.13-4.4,34.17-4.88c3.28-0.31,5.17,0.93,4.38,4.55C857.0,81.5,855.5,88.25,851.36,95.19c-3.54,5.94-5.97,1.04-7.3-0.24" style="fill:none;stroke:#999;stroke-width:3" />
<path d="M816.6,81.58c0.15,5.17-0.93,9.88-2.69,12.63" style="fill:none;stroke:black;stroke-width:3" />
<circle cx="816.6" cy="81.58" r="5" stroke-width="0" fill="#FF2A00" opacity="0.7" />
<path d="M941.04,11.16c0.02,0.31,0.03,0.81-0.03,1.26c-0.37,2.61-2.51,8.22-5.43,11.47" style="fill:none;stroke:#999;stroke-width:3" />
<path d="M929.3,25.75c0.33,0.4,0.6,0.95,0.6,1.61c0,6.75,0.04,33.21-0.17,43.83" style="fill:none;stroke:#999;stroke-width:3" />
<path d="M930.31,27.99c1.55,0,21-3.96,22.51-3.86c2.24,0.15,3.33,2.01,3.13,3.75c-0.12,1.07-1.14,12.32-2.58,20.52" style="fill:none;stroke:#999;stroke-width:3" />
<path d="M930.56,38.02c3.94-0.27,21.6-3.06,23.75-2.92" style="fill:none;stroke:#999;stroke-width:3" />
<path d="M930.47,49.29c3.88-0.13,18.05-2.32,22.88-2.33" style="fill:none;stroke:#999;stroke-width:3" />
<path d="M930.19,60.58c9.22-1.18,29.6-4,33.56-4.74c1.38-0.26,3.72-0.49,4.42-0.15" style="fill:none;stroke:#999;stroke-width:3" />
<path d="M929.74,71.42c9.1-1.62,29.13-4.4,34.17-4.88c3.28-0.31,5.17,0.93,4.38,4.55C966.0,81.5,964.5,88.25,960.36,95.19c-3.54,5.94-5.97,1.04-7.3-0.24" style="fill:none;stroke:#999;stroke-width:3" />
<path d="M925.6,81.58c0.15,5.17-0.93,9.88-2.69,12.63" style="fill:none;stroke:#999;stroke-width:3" />
<path d="M934.32,79.35c1.84,2.07,3.58,7.52,4.04,10.57" style="fill:none;stroke:black;stroke-width:3" />
<circle cx="934.32" cy="79.35" r="5" stroke-width="0" fill="#FF2A00" opacity="0.7" />
<path d="M1050.04,11.16c0.02,0.31,0.03,0.81-0.03,1.26c-0.37,2.61-2.51,8.22-5.43,11.47" style="fill:none;stroke:#999;stroke-width:3" />
<path d="M1038.3,25.75c0.33,0.4,0.6,0.95,0.6,1.61c0,6.75,0.04,33.21-0.17,43.83" style="fill:none;stroke:#999;stroke-width:3" />
<path d="M1039.31,27.99c1.55,0,21-3.96,22.51-3.86c2.24,0.15,3.33,2.01,3.13,3.75c-0.12,1.07-1.14,12.32-2.58,20.52" style="fill:none;stroke:#999;stroke-width:3" />
<path d="M1039.56,38.02c3.94-0.27,21.6-3.06,23.75-2.92" style="fill:none;stroke:#999;stroke-width:3" />
<path d="M1039.47,49.29c3.88-0.13,18.05-2.32,22.88-2.33" style="fill:none;stroke:#999;stroke-width:3" />
<path d="M1039.19,60.58c9.22-1.18,29.6-4,33.56-4.74c1.38-0.26,3.72-0.49,4.42-0.15" style="fill:none;stroke:#999;stroke-width:3" />
<path d="M1038.74,71.42c9.1-1.62,29.13-4.4,34.17-4.88c3.28-0.31,5.17,0.93,4.38,4.55C1075.0,81.5,1073.5,88.25,1069.3600000000001,95.19c-3.54,5.94-5.97,1.04-7.3-0.24" style="fill:none;stroke:#999;stroke-width:3" />
<path d="M1034.6,81.58c0.15,5.17-0.93,9.88-2.69,12.63" style="fill:none;stroke:#999;stroke-width:3" />
<path d="M1043.3200000000002,79.35c1.84,2.07,3.58,7.52,4.04,10.57" style="fill:none;stroke:#999;stroke-width:3" />
<path d="M1052.97,77.4c1.59,1.68,4.11,6.75,4.51,9.22" style="fill:none;stroke:black;stroke-width:3" />
<circle cx="1052.97" cy="77.4" r="5" stroke-width="0" fill="#FF2A00" opacity="0.7" />
<path d="M1159.04,11.16c0.02,0.31,0.03,0.81-0.03,1.26c-0.37,2.61-2.51,8.22-5.43,11.47" style="fill:none;stroke:#999;stroke-width:3" />
<path d="M1147.3,25.75c0.33,0.4,0.6,0.95,0.6,1.61c0,6.75,0.04,33.21-0.17,43.83" style="fill:none;stroke:#999;stroke-width:3" />
<path d="M1148.31,27.99c1.55,0,21-3.96,22.51-3.86c2.24,0.15,3.33,2.01,3.13,3.75c-0.12,1.07-1.14,12.32-2.58,20.52" style="fill:none;stroke:#999;stroke-width:3" />
<path d="M1148.56,38.02c3.94-0.27,21.6-3.06,23.75-2.92" style="fill:none;stroke:#999;stroke-width:3" />
<path d="M1148.47,49.29c3.88-0.13,18.05-2.32,22.88-2.33" style="fill:none;stroke:#999;stroke-width:3" />
<path d="M1148.19,60.58c9.22-1.18,29.6-4,33.56-4.74c1.38-0.26,3.72-0.49,4.42-0.15" style="fill:none;stroke:#999;stroke-width:3" />
<path d="M1147.74,71.42c9.1-1.62,29.13-4.4,34.17-4.88c3.28-0.31,5.17,0.93,4.38,4.55C1184.0,81.5,1182.5,88.25,1178.3600000000001,95.19c-3.54,5.94-5.97,1.04-7.3-0.24" style="fill:none;stroke:#999;stroke-width:3" />
<path d="M1143.6,81.58c0.15,5.17-0.93,9.88-2.69,12.63" style="fill:none;stroke:#999;stroke-width:3" />
<path d="M1152.3200000000002,79.35c1.84,2.07,3.58,7.52,4.04,10.57" style="fill:none;stroke:#999;stroke-width:3" />
<path d="M1161.97,77.4c1.59,1.68,4.11,6.75,4.51,9.22" style="fill:none;stroke:#999;stroke-width:3" />
<path d="M1170.41,75.11c1.98,1.8,5.11,7.21,5.61,9.85" style="fill:none;stroke:black;stroke-width:3" />
<circle cx="1170.41" cy="75.11" r="5" stroke-width="0" fill="#FF2A00" opacity="0.7" />
<path d="M1268.04,11.16c0.02,0.31,0.03,0.81-0.03,1.26c-0.37,2.61-2.51,8.22-5.43,11.47" style="fill:none;stroke:#999;stroke-width:3" />
<path d="M1256.3,25.75c0.33,0.4,0.6,0.95,0.6,1.61c0,6.75,0.04,33.21-0.17,43.83" style="fill:none;stroke:#999;stroke-width:3" />
<path d="M1257.31,27.99c1.55,0,21-3.96,22.51-3.86c2.24,0.15,3.33,2.01,3.13,3.75c-0.12,1.07-1.14,12.32-2.58,20.52" style="fill:none;stroke:#999;stroke-width:3" />
<path d="M1257.56,38.02c3.94-0.27,21.6-3.06,23.75-2.92" style="fill:none;stroke:#999;stroke-width:3" />
<path d="M1257.47,49.29c3.88-0.13,18.05-2.32,22.88-2.33" style="fill:none;stroke:#999;stroke-width:3" />
<path d="M1257.19,60.58c9.22-1.18,29.6-4,33.56-4.74c1.38-0.26,3.72-0.49,4.42-0.15" style="fill:none;stroke:#999;stroke-width:3" />
<path d="M1256.74,71.42c9.1-1.62,29.13-4.4,34.17-4.88c3.28-0.31,5.17,0.93,4.38,4.55C1293.0,81.5,1291.5,88.25,1287.3600000000001,95.19c-3.54,5.94-5.97,1.04-7.3-0.24" style="fill:none;stroke:#999;stroke-width:3" />
<path d="M1252.6,81.58c0.15,5.17-0.93,9.88-2.69,12.63" style="fill:none;stroke:#999;stroke-width:3" />
<path d="M1261.3200000000002,79.35c1.84,2.07,3.58,7.52,4.04,10.57" style="fill:none;stroke:#999;stroke-width:3" />
<path d="M1270.97,77.4c1.59,1.68,4.11,6.75,4.51,9.22" style="fill:none;stroke:#999;stroke-width:3" />
<path d="M1279.41,75.11c1.98,1.8,5.11,7.21,5.61,9.85" style="fill:none;stroke:#999;stroke-width:3" />
<path d="M1212.94,27.71c0.81,0.38,2.3,0.49,3.1,0.38C1224.0,27,1236.5,25.25,1244.23,24.76c1.35-0.09,2.16,0.18,2.84,0.37" style="fill:none;stroke:black;stroke-width:3" />
<circle cx="1212.94" cy="27.71" r="5" stroke-width="0" fill="#FF2A00" opacity="0.7" />
<path d="M1377.04,11.16c0.02,0.31,0.03,0.81-0.03,1.26c-0.37,2.61-2.51,8.22-5.43,11.47" style="fill:none;stroke:#999;stroke-width:3" />
<path d="M1365.3,25.75c0.33,0.4,0.6,0.95,0.6,1.61c0,6.75,0.04,33.21-0.17,43.83" style="fill:none;stroke:#999;stroke-width:3" />
<path d="M1366.31,27.99c1.55,0,21-3.96,22.51-3.86c2.24,0.15,3.33,2.01,3.13,3.75c-0.12,1.07-1.14,12.32-2.58,20.52" style="fill:none;stroke:#999;stroke-width:3" />
<path d="M1366.56,38.02c3.94-0.27,21.6-3.06,23.75-2.92" style="fill:none;stroke:#999;stroke-width:3" />
<path d="M1366.47,49.29c3.88-0.13,18.05-2.32,22.88-2.33" style="fill:none;stroke:#999;stroke-width:3" />
<path d="M1366.19,60.58c9.22-1.18,29.6-4,33.56-4.74c1.38-0.26,3.72-0.49,4.42-0.15" style="fill:none;stroke:#999;stroke-width:3" />
<path d="M1365.74,71.42c9.1-1.62,29.13-4.4,34.17-4.88c3.28-0.31,5.17,0.93,4.38,4.55C1402.0,81.5,1400.5,88.25,1396.3600000000001,95.19c-3.54,5.94-5.97,1.04-7.3-0.24" style="fill:none;stroke:#999;stroke-width:3" />
<path d="M1361.6,81.58c0.15,5.17-0.93,9.88-2.69,12.63" style="fill:none;stroke:#999;stroke-width:3" />
<path d="M1370.3200000000002,79.35c1.84,2.07,3.58,7.52,4.04,10.57" style="fill:none;stroke:#999;stroke-width:3" />
<path d="M1379.97,77.4c1.59,1.68,4.11,6.75,4.51,9.22" style="fill:none;stroke:#999;stroke-width:3" />
<path d="M1388.41,75.11c1.98,1.8,5.11,7.21,5.61,9.85" style="fill:none;stroke:#999;stroke-width:3" />
<path d="M1321.94,27.71c0.81,0.38,2.3,0.49,3.1,0.38C1333.0,27,1345.5,25.25,1353.23,24.76c1.35-0.09,2.16,0.18,2.84,0.37" style="fill:none;stroke:#999;stroke-width:3" />
<path d="M1321.2,38.51c0.27,0.33,1.1,1.34,1.1,2.12c0,0.79,3.02,19.79,3.02,20.18c0,0.39,0.12,0.39,0.23,1.18" style="fill:none;stroke:black;stroke-width:3" />
<circle cx="1321.2" cy="38.51" r="5" stroke-width="0" fill="#FF2A00" opacity="0.7" />
<path d="M1486.04,11.16c0.02,0.31,0.03,0.81-0.03,1.26c-0.37,2.61-2.51,8.22-5.43,11.47" style="fill:none;stroke:#999;stroke-width:3" />
<path d="M1474.3,25.75c0.33,0.4,0.6,0.95,0.6,1.61c0,6.75,0.04,33.21-0.17,43.83" style="fill:none;stroke:#999;stroke-width:3" />
<path d="M1475.31,27.99c1.55,0,21-3.96,22.51-3.86c2.24,0.15,3.33,2.01,3.13,3.75c-0.12,1.07-1.14,12.32-2.58,20.52" style="fill:none;stroke:#999;stroke-width:3" />
<path d="M1475.56,38.02c3.94-0.27,21.6-3.06,23.75-2.92" style="fill:none;stroke:#999;stroke-width:3" />
<path d="M1475.47,49.29c3.88-0.13,18.05-2.32,22.88-2.33" style="fill:none;stroke:#999;stroke-width:3" />
<path d="M1475.19,60.58c9.22-1.18,29.6-4,33.56-4.74c1.38-0.26,3.72-0.49,4.42-0.15" style="fill:none;stroke:#999;stroke-width:3" />
<path d="M1474.74,71.42c9.1-1.62,29.13-4.4,34.17-4.88c3.28-0.31,5.17,0.93,4.38,4.55C1511.0,81.5,1509.5,88.25,1505.3600000000001,95.19c-3.54,5.94-5.97,1.04-7.3-0.24" style="fill:none;stroke:#999;stroke-width:3" />
<path d="M1470.6,81.58c0.15,5.17-0.93,9.88-2.69,12.63" style="fill:none;stroke:#999;stroke-width:3" />
<path d="M1479.3200000000002,79.35c1.84,2.07,3.58,7.52,4.04,10.57" style="fill:none;stroke:#999;stroke-width:3" />
<path d="M1488.97,77.4c1.59,1.68,4.11,6.75,4.51,9.22" style="fill:none;stroke:#999;stroke-width:3" />
<path d="M1497.41,75.11c1.98,1.8,5.11,7.21,5.61,9.85" style="fill:none;stroke:#999;stroke-width:3" />
<path d="M1430.94,27.71c0.81,0.38,2.3,0.49,3.1,0.38C1442.0,27,1454.5,25.25,1462.23,24.76c1.35-0.09,2.16,0.18,2.84,0.37" style="fill:none;stroke:#999;stroke-width:3" />
<path d="M1430.2,38.51c0.27,0.33,1.1,1.34,1.1,2.12c0,0.79,3.02,19.79,3.02,20.18c0,0.39,0.12,0.39,0.23,1.18" style="fill:none;stroke:#999;stroke-width:3" />
<path d="M1431.89,39.42c5.16-0.58,27.94-3.65,29.75-3.76c1.51-0.1,2.93,1.89,2.86,2.48c-0.74,6.33-1.83,13.15-3.39,22.69" style="fill:none;stroke:black;stroke-width:3" />
<circle cx="1431.89" cy="39.42" r="5" stroke-width="0" fill="#FF2A00" opacity="0.7" />
<path d="M1595.04,11.16c0.02,0.31,0.03,0.81-0.03,1.26c-0.37,2.61-2.51,8.22-5.43,11.47" style="fill:none;stroke:#999;stroke-width:3" />
<path d="M1583.3,25.75c0.33,0.4,0.6,0.95,0.6,1.61c0,6.75,0.04,33.21-0.17,43.83" style="fill:none;stroke:#999;stroke-width:3" />
<path d="M1584.31,27.99c1.55,0,21-3.96,22.51-3.86c2.24,0.15,3.33,2.01,3.13,3.75c-0.12,1.07-1.14,12.32-2.58,20.52" style="fill:none;stroke:#999;stroke-width:3" />
<path d="M1584.56,38.02c3.94-0.27,21.6-3.06,23.75-2.92" style="fill:none;stroke:#999;stroke-width:3" />
<path d="M1584.47,49.29c3.88-0.13,18.05-2.32,22.88-2.33" style="fill:none;stroke:#999;stroke-width:3" />
<path d="M1584.19,60.58c9.22-1.18,29.6-4,33.56-4.74c1.38-0.26,3.72-0.49,4.42-0.15" style="fill:none;stroke:#999;stroke-width:3" />
<path d="M1583.74,71.42c9.1-1.62,29.13-4.4,34.17-4.88c3.28-0.31,5.17,0.93,4.38,4.55C1620.0,81.5,1618.5,88.25,1614.3600000000001,95.19c-3.54,5.94-5.97,1.04-7.3-0.24" style="fill:none;stroke:#999;stroke-width:3" />
<path d="M1579.6,81.58c0.15,5.17-0.93,9.88-2.69,12.63" style="fill:none;stroke:#999;stroke-width:3" />
<path d="M1588.3200000000002,79.35c1.84,2.07,3.58,7.52,4.04,10.57" style="fill:none;stroke:#999;stroke-width:3" />
<path d="M1597.97,77.4c1.59,1.68,4.11,6.75,4.51,9.22" style="fill:none;stroke:#999;stroke-width:3" />
<path d="M1606.41,75.11c1.98,1.8,5.11,7.21,5.61,9.85" style="fill:none;stroke:#999;stroke-width:3" />
<path d="M1539.94,27.71c0.81,0.38,2.3,0.49,3.1,0.38C1551.0,27,1563.5,25.25,1571.23,24.76c1.35-0.09,2.16,0.18,2.84,0.37" style="fill:none;stroke:#999;stroke-width:3" />
<path d="M1539.2,38.51c0.27,0.33,1.1,1.34,1.1,2.12c0,0.79,3.02,19.79,3.02,20.18c0,0.39,0.12,0.39,0.23,1.18" style="fill:none;stroke:#999;stroke-width:3" />
<path d="M1540.89,39.42c5.16-0.58,27.94-3.65,29.75-3.76c1.51-0.1,2.93,1.89,2.86,2.48c-0.74,6.33-1.83,13.15-3.39,22.69" style="fill:none;stroke:#999;stroke-width:3" />
<path d="M1542.13,49.31c5.07-0.64,27.18-3.63,30.21-3.63" style="fill:none;stroke:black;stroke-width:3" />
<circle cx="1542.13" cy="49.31" r="5" stroke-width="0" fill="#FF2A00" opacity="0.7" />
<path d="M1704.04,11.16c0.02,0.31,0.03,0.81-0.03,1.26c-0.37,2.61-2.51,8.22-5.43,11.47" style="fill:none;stroke:#999;stroke-width:3" />
<path d="M1692.3,25.75c0.33,0.4,0.6,0.95,0.6,1.61c0,6.75,0.04,33.21-0.17,43.83" style="fill:none;stroke:#999;stroke-width:3" />
<path d="M1693.31,27.99c1.55,0,21-3.96,22.51-3.86c2.24,0.15,3.33,2.01,3.13,3.75c-0.12,1.07-1.14,12.32-2.58,20.52" style="fill:none;stroke:#999;stroke-width:3" />
<path d="M1693.56,38.02c3.94-0.27,21.6-3.06,23.75-2.92" style="fill:none;stroke:#999;stroke-width:3" />
<path d="M1693.47,49.29c3.88-0.13,18.05-2.32,22.88-2.33" style="fill:none;stroke:#999;stroke-width:3" />
<path d="M1693.19,60.58c9.22-1.18,29.6-4,33.56-4.74c1.38-0.26,3.72-0.49,4.42-0.15" style="fill:none;stroke:#999;stroke-width:3" />
<path d="M1692.74,71.42c9.1-1.62,29.13-4.4,34.17-4.88c3.28-0.31,5.17,0.93,4.38,4.55C1729.0,81.5,1727.5,88.25,1723.3600000000001,95.19c-3.54,5.94-5.97,1.04-7.3-0.24" style="fill:none;stroke:#999;stroke-width:3" />
<path d="M1688.6,81.58c0.15,5.17-0.93,9.88-2.69,12.63" style="fill:none;stroke:#999;stroke-width:3" />
<path d="M1697.3200000000002,79.35c1.84,2.07,3.58,7.52,4.04,10.57" style="fill:none;stroke:#999;stroke-width:3" />
<path d="M1706.97,77.4c1.59,1.68,4.11,6.75,4.51,9.22" style="fill:none;stroke:#999;stroke-width:3" />
<path d="M1715.41,75.11c1.98,1.8,5.11,7.21,5.61,9.85" style="fill:none;stroke:#999;stroke-width:3" />
<path d="M1648.94,27.71c0.81,0.38,2.3,0.49,3.1,0.38C1660.0,27,1672.5,25.25,1680.23,24.76c1.35-0.09,2.16,0.18,2.84,0.37" style="fill:none;stroke:#999;stroke-width:3" />
<path d="M1648.2,38.51c0.27,0.33,1.1,1.34,1.1,2.12c0,0.79,3.02,19.79,3.02,20.18c0,0.39,0.12,0.39,0.23,1.18" style="fill:none;stroke:#999;stroke-width:3" />
<path d="M1649.89,39.42c5.16-0.58,27.94-3.65,29.75-3.76c1.51-0.1,2.93,1.89,2.86,2.48c-0.74,6.33-1.83,13.15-3.39,22.69" style="fill:none;stroke:#999;stroke-width:3" />
<path d="M1651.13,49.31c5.07-0.64,27.18-3.63,30.21-3.63" style="fill:none;stroke:#999;stroke-width:3" />
<path d="M1653.38,59.78c5.47-0.42,18.96-2.41,25.77-2.77" style="fill:none;stroke:black;stroke-width:3" />
<circle cx="1653.38" cy="59.78" r="5" stroke-width="0" fill="#FF2A00" opacity="0.7" />
<path d="M1813.04,11.16c0.02,0.31,0.03,0.81-0.03,1.26c-0.37,2.61-2.51,8.22-5.43,11.47" style="fill:none;stroke:#999;stroke-width:3" />
<path d="M1801.3,25.75c0.33,0.4,0.6,0.95,0.6,1.61c0,6.75,0.04,33.21-0.17,43.83" style="fill:none;stroke:#999;stroke-width:3" />
<path d="M1802.31,27.99c1.55,0,21-3.96,22.51-3.86c2.24,0.15,3.33,2.01,3.13,3.75c-0.12,1.07-1.14,12.32-2.58,20.52" style="fill:none;stroke:#999;stroke-width:3" />
<path d="M1802.56,38.02c3.94-0.27,21.6-3.06,23.75-2.92" style="fill:none;stroke:#999;stroke-width:3" />
<path d="M1802.47,49.29c3.88-0.13,18.05-2.32,22.88-2.33" style="fill:none;stroke:#999;stroke-width:3" />
<path d="M1802.19,60.58c9.22-1.18,29.6-4,33.56-4.74c1.38-0.26,3.72-0.49,4.42-0.15" style="fill:none;stroke:#999;stroke-width:3" />
<path d="M1801.74,71.42c9.1-1.62,29.13-4.4,34.17-4.88c3.28-0.31,5.17,0.93,4.38,4.55C1838.0,81.5,1836.5,88.25,1832.3600000000001,95.19c-3.54,5.94-5.97,1.04-7.3-0.24" style="fill:none;stroke:#999;stroke-width:3" />
<path d="M1797.6,81.58c0.15,5.17-0.93,9.88-2.69,12.63" style="fill:none;stroke:#999;stroke-width:3" />
<path d="M1806.3200000000002,79.35c1.84,2.07,3.58,7.52,4.04,10.57" style="fill:none;stroke:#999;stroke-width:3" />
<path d="M1815.97,77.4c1.59,1.68,4.11,6.75,4.51,9.22" style="fill:none;stroke:#999;stroke-width:3" />
<path d="M1824.41,75.11c1.98,1.8,5.11,7.21,5.61,9.85" style="fill:none;stroke:#999;stroke-width:3" />
<path d="M1757.94,27.71c0.81,0.38,2.3,0.49,3.1,0.38C1769.0,27,1781.5,25.25,1789.23,24.76c1.35-0.09,2.16,0.18,2.84,0.37" style="fill:none;stroke:#999;stroke-width:3" />
<path d="M1757.2,38.51c0.27,0.33,1.1,1.34,1.1,2.12c0,0.79,3.02,19.79,3.02,20.18c0,0.39,0.12,0.39,0.23,1.18" style="fill:none;stroke:#999;stroke-width:3" />
<path d="M1758.89,39.42c5.16-0.58,27.94-3.65,29.75-3.76c1.51-0.1,2.93,1.89,2.86,2.48c-0.74,6.33-1.83,13.15-3.39,22.69" style="fill:none;stroke:#999;stroke-width:3" />
<path d="M1760.13,49.31c5.07-0.64,27.18-3.63,30.21-3.63" style="fill:none;stroke:#999;stroke-width:3" />
<path d="M1762.38,59.78c5.47-0.42,18.96-2.41,25.77-2.77" style="fill:none;stroke:#999;stroke-width:3" />
<path d="M1772.91,13c1.08,0.49,1.73,2.22,1.94,3.2c0.22,0.99,0,75.64-0.22,81.8" style="fill:none;stroke:black;stroke-width:3" />
<circle cx="1772.91" cy="13.0" r="5" stroke-width="0" fill="#FF2A00" opacity="0.7" />
<path d="M1922.04,11.16c0.02,0.31,0.03,0.81-0.03,1.26c-0.37,2.61-2.51,8.22-5.43,11.47" style="fill:none;stroke:#999;stroke-width:3" />
<path d="M1910.3,25.75c0.33,0.4,0.6,0.95,0.6,1.61c0,6.75,0.04,33.21-0.17,43.83" style="fill:none;stroke:#999;stroke-width:3" />
<path d="M1911.31,27.99c1.55,0,21-3.96,22.51-3.86c2.24,0.15,3.33,2.01,3.13,3.75c-0.12,1.07-1.14,12.32-2.58,20.52" style="fill:none;stroke:#999;stroke-width:3" />
<path d="M1911.56,38.02c3.94-0.27,21.6-3.06,23.75-2.92" style="fill:none;stroke:#999;stroke-width:3" />
<path d="M1911.47,49.29c3.88-0.13,18.05-2.32,22.88-2.33" style="fill:none;stroke:#999;stroke-width:3" />
<path d="M1911.19,60.58c9.22-1.18,29.6-4,33.56-4.74c1.38-0.26,3.72-0.49,4.42-0.15" style="fill:none;stroke:#999;stroke-width:3" />
<path d="M1910.74,71.42c9.1-1.62,29.13-4.4,34.17-4.88c3.28-0.31,5.17,0.93,4.38,4.55C1947.0,81.5,1945.5,88.25,1941.3600000000001,95.19c-3.54,5.94-5.97,1.04-7.3-0.24" style="fill:none;stroke:#999;stroke-width:3" />
<path d="M1906.6,81.58c0.15,5.17-0.93,9.88-2.69,12.63" style="fill:none;stroke:#999;stroke-width:3" />
<path d="M1915.3200000000002,79.35c1.84,2.07,3.58,7.52,4.04,10.57" style="fill:none;stroke:#999;stroke-width:3" />
<path d="M1924.97,77.4c1.59,1.68,4.11,6.75,4.51,9.22" style="fill:none;stroke:#999;stroke-width:3" />
<path d="M1933.41,75.11c1.98,1.8,5.11,7.21,5.61,9.85" style="fill:none;stroke:#999;stroke-width:3" />
<path d="M1866.94,27.71c0.81,0.38,2.3,0.49,3.1,0.38C1878.0,27,1890.5,25.25,1898.23,24.76c1.35-0.09,2.16,0.18,2.84,0.37" style="fill:none;stroke:#999;stroke-width:3" />
<path d="M1866.2,38.51c0.27,0.33,1.1,1.34,1.1,2.12c0,0.79,3.02,19.79,3.02,20.18c0,0.39,0.12,0.39,0.23,1.18" style="fill:none;stroke:#999;stroke-width:3" />
<path d="M1867.89,39.42c5.16-0.58,27.94-3.65,29.75-3.76c1.51-0.1,2.93,1.89,2.86,2.48c-0.74,6.33-1.83,13.15-3.39,22.69" style="fill:none;stroke:#999;stroke-width:3" />
<path d="M1869.13,49.31c5.07-0.64,27.18-3.63,30.21-3.63" style="fill:none;stroke:#999;stroke-width:3" />
<path d="M1871.38,59.78c5.47-0.42,18.96-2.41,25.77-2.77" style="fill:none;stroke:#999;stroke-width:3" />
<path d="M1881.91,13c1.08,0.49,1.73,2.22,1.94,3.2c0.22,0.99,0,75.64-0.22,81.8" style="fill:none;stroke:#999;stroke-width:3" />
<path d="M1883.63,60.8C1880.16,69.7,1873.0,81.25,1863.88,87.33" style="fill:none;stroke:black;stroke-width:3" />
<circle cx="1883.63" cy="60.8" r="5" stroke-width="0" fill="#FF2A00" opacity="0.7" />
<path d="M2031.04,11.16c0.02,0.31,0.03,0.81-0.03,1.26c-0.37,2.61-2.51,8.22-5.43,11.47" style="fill:none;stroke:#999;stroke-width:3" />
<path d="M2019.3,25.75c0.33,0.4,0.6,0.95,0.6,1.61c0,6.75,0.04,33.21-0.17,43.83" style="fill:none;stroke:#999;stroke-width:3" />
<path d="M2020.31,27.99c1.55,0,21-3.96,22.51-3.86c2.24,0.15,3.33,2.01,3.13,3.75c-0.12,1.07-1.14,12.32-2.58,20.52" style="fill:none;stroke:#999;stroke-width:3" />
<path d="M2020.56,38.02c3.94-0.27,21.6-3.06,23.75-2.92" style="fill:none;stroke:#999;stroke-width:3" />
<path d="M2020.47,49.29c3.88-0.13,18.05-2.32,22.88-2.33" style="fill:none;stroke:#999;stroke-width:3" />
<path d="M2020.19,60.58c9.22-1.18,29.6-4,33.56-4.74c1.38-0.26,3.72-0.49,4.42-0.15" style="fill:none;stroke:#999;stroke-width:3" />
<path d="M2019.74,71.42c9.1-1.62,29.13-4.4,34.17-4.88c3.28-0.31,5.17,0.93,4.38,4.55C2056.0,81.5,2054.5,88.25,2050.36,95.19c-3.54,5.94-5.97,1.04-7.3-0.24" style="fill:none;stroke:#999;stroke-width:3" />
<path d="M2015.6,81.58c0.15,5.17-0.93,9.88-2.69,12.63" style="fill:none;stroke:#999;stroke-width:3" />
<path d="M2024.3200000000002,79.35c1.84,2.07,3.58,7.52,4.04,10.57" style="fill:none;stroke:#999;stroke-width:3" />
<path d="M2033.97,77.4c1.59,1.68,4.11,6.75,4.51,9.22" style="fill:none;stroke:#999;stroke-width:3" />
<path d="M2042.41,75.11c1.98,1.8,5.11,7.21,5.61,9.85" style="fill:none;stroke:#999;stroke-width:3" />
<path d="M1975.94,27.71c0.81,0.38,2.3,0.49,3.1,0.38C1987.0,27,1999.5,25.25,2007.23,24.76c1.35-0.09,2.16,0.18,2.84,0.37" style="fill:none;stroke:#999;stroke-width:3" />
<path d="M1975.2,38.51c0.27,0.33,1.1,1.34,1.1,2.12c0,0.79,3.02,19.79,3.02,20.18c0,0.39,0.12,0.39,0.23,1.18" style="fill:none;stroke:#999;stroke-width:3" />
<path d="M1976.89,39.42c5.16-0.58,27.94-3.65,29.75-3.76c1.51-0.1,2.93,1.89,2.86,2.48c-0.74,6.33-1.83,13.15-3.39,22.69" style="fill:none;stroke:#999;stroke-width:3" />
<path d="M1978.13,49.31c5.07-0.64,27.18-3.63,30.21-3.63" style="fill:none;stroke:#999;stroke-width:3" />
<path d="M1980.38,59.78c5.47-0.42,18.96-2.41,25.77-2.77" style="fill:none;stroke:#999;stroke-width:3" />
<path d="M1990.91,13c1.08,0.49,1.73,2.22,1.94,3.2c0.22,0.99,0,75.64-0.22,81.8" style="fill:none;stroke:#999;stroke-width:3" />
<path d="M1992.63,60.8C1989.16,69.7,1982.0,81.25,1972.88,87.33" style="fill:none;stroke:#999;stroke-width:3" />
<path d="M1995.08,66.24c5.04,2.37,9.71,7,11.88,11.52" style="fill:none;stroke:black;stroke-width:3" />
<circle cx="1995.08" cy="66.24" r="5" stroke-width="0" fill="#FF2A00" opacity="0.7" />
</svg>