<svg width="327px" height="109px" viewBox="0 0 327px 109px" xmlns="http://www.w3.org/2000/svg" xmlns:xlink="http://www.w3.org/1999/xlink" xml:space="preserve" version="1.1"  baseProfile="full">
<line x1="1" y1="1" x2="326" y2="1" style="stroke:#ddd;stroke-width:2" />
<line x1="1" y1="1" x2="1" y2="108" style="stroke:#ddd;stroke-width:2" />
<line x1="1" y1="108" x2="326" y2="108" style="stroke:#ddd;stroke-width:2" />
<line x1="326" y1="1" x2="326" y2="108" style="stroke:#ddd;stroke-width:2" />
<line x1="109" y1="1" x2="109" y2="108" style="stroke:#ddd;stroke-width:2" />
<line x1="218" y1="1" x2="218" y2="108" style="stroke:#ddd;stroke-width:2" />
<line x1="1" y1="54" x2="326" y2="54" style="stroke:#ddd;stroke-width:2;stroke-dasharray:3 3" />
<line x1="55" y1="1" x2="55" y2="108" style="stroke:#ddd;stroke-width:2;stroke-dasharray:3 3" />
<line x1="164" y1="1" x2="164" y2="108" style="stroke:#ddd;stroke-width:2;stroke-dasharray:3 3" />
<line x1="273" y1="1" x2="273" y2="108" style="stroke:#ddd;stroke-width:2;stroke-dasharray:3 3" />
<path d="M44.61,14.41c-8.67,19.8-31.28,70.81-34.46,78.47" style="fill:none;stroke:black;stroke-width:3" />
<circle cx="44.61" cy="14.41" r="5" stroke-width="0" fill="#FF2A00" opacity="0.7" />
<path d="M153.61,14.41c-8.67,19.8-31.28,70.81-34.46,78.47" style="fill:none;stroke:#999;stroke-width:3" />
<path d="M153.61,14.41c5.06,11.27,30.2,68.64,34.54,78.47" style="fill:none;stroke:black;stroke-width:3" />
<circle cx="153.61" cy="14.41" r="5" stroke-width="0" fill="#FF2A00" opacity="0.7" />
<path d="M262.61,14.41c-8.67,19.8-31.28,70.81-34.46,78.47" style="fill:none;stroke:#999;stroke-width:3" />
<path d="M262.61,14.41c5.06,11.27,30.2,68.64,34.54,78.47" style="fill:none;stroke:#999;stroke-width:3" />
<path d="M240.32999999999998,66.14c12.28,0,33.91,0,44.02,0" style="fill:none;stroke:black;stroke-width:3" />
<circle cx="240.32999999999998" cy="66.14" r="5" stroke-width="0" fill="#FF2A00" opacity="0.7" />
</svg>