<svg width="436px" height="109px" viewBox="0 0 436px 109px" xmlns="http://www.w3.org/2000/svg" xmlns:xlink="http://www.w3.org/1999/xlink" xml:space="preserve" version="1.1"  baseProfile="full">
<line x1="1" y1="1" x2="435" y2="1" style="stroke:#ddd;stroke-width:2" />
<line x1="1" y1="1" x2="1" y2="108" style="stroke:#ddd;stroke-width:2" />
<line x1="1" y1="108" x2="435" y2="108" style="stroke:#ddd;stroke-width:2" />
<line x1="435" y1="1" x2="435" y2="108" style="stroke:#ddd;stroke-width:2" />
<line x1="109" y1="1" x2="109" y2="108" style="stroke:#ddd;stroke-width:2" />
<line x1="218" y1="1" x2="218" y2="108" style="stroke:#ddd;stroke-width:2" />
<line x1="327" y1="1" x2="327" y2="108" style="stroke:#ddd;stroke-width:2" />
<line x1="1" y1="54" x2="435" y2="54" style="stroke:#ddd;stroke-width:2;stroke-dasharray:3 3" />
<line x1="55" y1="1" x2="55" y2="108" style="stroke:#ddd;stroke-width:2;stroke-dasharray:3 3" />
<line x1="164" y1="1" x2="164" y2="108" style="stroke:#ddd;stroke-width:2;stroke-dasharray:3 3" />
<line x1="273" y1="1" x2="273" y2="108" style="stroke:#ddd;stroke-width:2;stroke-dasharray:3 3" />
<line x1="382" y1="1" x2="382" y2="108" style="stroke:#ddd;stroke-width:2;stroke-dasharray:3 3" />
<path d="M15.17,17.32c0,9.1,0,62,0,73.27" style="fill:none;stroke:black;stroke-width:3" />
<circle cx="15.17" cy="17.32" r="5" stroke-width="0" fill="#FF2A00" opacity="0.7" />
<path d="M124.17,17.32c0,9.1,0,62,0,73.27" style="fill:none;stroke:#999;stroke-width:3" />
<path d="M124.6,16.8c2.31,0,27.19,0,48.15,0" style="fill:none;stroke:black;stroke-width:3" />
<circle cx="124.6" cy="16.8" r="5" stroke-width="0" fill="#FF2A00" opacity="0.7" />
<path d="M233.17000000000002,17.32c0,9.1,0,62,0,73.27" style="fill:none;stroke:#999;stroke-width:3" />
<path d="M233.6,16.8c2.31,0,27.19,0,48.15,0" style="fill:none;stroke:#999;stroke-width:3" />
<path d="M233.6,52.35c2.31,0,25.44,0,46.4,0" style="fill:none;stroke:black;stroke-width:3" />
<circle cx="233.6" cy="52.35" r="5" stroke-width="0" fill="#FF2A00" opacity="0.7" />
<path d="M342.17,17.32c0,9.1,0,62,0,73.27" style="fill:none;stroke:#999;stroke-width:3" />
<path d="M342.6,16.8c2.31,0,27.19,0,48.15,0" style="fill:none;stroke:#999;stroke-width:3" />
<path d="M342.6,52.35c2.31,0,25.44,0,46.4,0" style="fill:none;stroke:#999;stroke-width:3" />
<path d="M342.6,90.79c2.31,0,28.94,0,49.9,0" style="fill:none;stroke:black;stroke-width:3" />
<circle cx="342.6" cy="90.79" r="5" stroke-width="0" fill="#FF2A00" opacity="0.7" />
</svg>