<svg width="436px" height="109px" viewBox="0 0 436px 109px" xmlns="http://www.w3.org/2000/svg" xmlns:xlink="http://www.w3.org/1999/xlink" xml:space="preserve" version="1.1"  baseProfile="full">
<line x1="1" y1="1" x2="435" y2="1" style="stroke:#ddd;stroke-width:2" />
<line x1="1" y1="1" x2="1" y2="108" style="stroke:#ddd;stroke-width:2" />
<line x1="1" y1="108" x2="435" y2="108" style="stroke:#ddd;stroke-width:2" />
<line x1="435" y1="1" x2="435" y2="108" style="stroke:#ddd;stroke-width:2" />
<line x1="109" y1="1" x2="109" y2="108" style="stroke:#ddd;stroke-width:2" />
<line x1="218" y1="1" x2="218" y2="108" style="stroke:#ddd;stroke-width:2" />
<line x1="327" y1="1" x2="327" y2="108" style="stroke:#ddd;stroke-width:2" />
<line x1="1" y1="54" x2="435" y2="54" style="stroke:#ddd;stroke-width:2;stroke-dasharray:3 3" />
<line x1="55" y1="1" x2="55" y2="108" style="stroke:#ddd;stroke-width:2;stroke-dasharray:3 3" />
<line x1="164" y1="1" x2="164" y2="108" style="stroke:#ddd;stroke-width:2;stroke-dasharray:3 3" />
<line x1="273" y1="1" x2="273" y2="108" style="stroke:#ddd;stroke-width:2;stroke-dasharray:3 3" />
<line x1="382" y1="1" x2="382" y2="108" style="stroke:#ddd;stroke-width:2;stroke-dasharray:3 3" />
<path d="M15.02,15.43c0,5.92,0,71.36,0,77.28" style="fill:none;stroke:black;stroke-width:3" />
<circle cx="15.02" cy="15.43" r="5" stroke-width="0" fill="#FF2A00" opacity="0.7" />
<path d="M124.02,15.43c0,5.92,0,71.36,0,77.28" style="fill:none;stroke:#999;stroke-width:3" />
<path d="M124.45,14.92c10.44,22.4,31.17,67.63,35.71,77.31" style="fill:none;stroke:black;stroke-width:3" />
<circle cx="124.45" cy="14.92" r="5" stroke-width="0" fill="#FF2A00" opacity="0.7" />
<path d="M233.01999999999998,15.43c0,5.92,0,71.36,0,77.28" style="fill:none;stroke:#999;stroke-width:3" />
<path d="M233.45,14.92c10.44,22.4,31.17,67.63,35.71,77.31" style="fill:none;stroke:#999;stroke-width:3" />
<path d="M303.83,16.08c-6.74,15.17-28.84,64.24-34.4,76.23" style="fill:none;stroke:black;stroke-width:3" />
<circle cx="303.83" cy="16.08" r="5" stroke-width="0" fill="#FF2A00" opacity="0.7" />
<path d="M342.02,15.43c0,5.92,0,71.36,0,77.28" style="fill:none;stroke:#999;stroke-width:3" />
<path d="M342.45,14.92c10.44,22.4,31.17,67.63,35.71,77.31" style="fill:none;stroke:#999;stroke-width:3" />
<path d="M412.83,16.08c-6.74,15.17-28.84,64.24-34.4,76.23" style="fill:none;stroke:#999;stroke-width:3" />
<path d="M413.34000000000003,15.5c0,15.03,0,66.33,0,77.02" style="fill:none;stroke:black;stroke-width:3" />
<circle cx="413.34000000000003" cy="15.5" r="5" stroke-width="0" fill="#FF2A00" opacity="0.7" />
</svg>