<svg width="109px" height="109px" viewBox="0 0 109px 109px" xmlns="http://www.w3.org/2000/svg" xmlns:xlink="http://www.w3.org/1999/xlink" xml:space="preserve" version="1.1"  baseProfile="full">
<line x1="1" y1="1" x2="108" y2="1" style="stroke:#ddd;stroke-width:2" />
<line x1="1" y1="1" x2="1" y2="108" style="stroke:#ddd;stroke-width:2" />
<line x1="1" y1="108" x2="108" y2="108" style="stroke:#ddd;stroke-width:2" />
<line x1="108" y1="1" x2="108" y2="108" style="stroke:#ddd;stroke-width:2" />
<line x1="1" y1="54" x2="108" y2="54" style="stroke:#ddd;stroke-width:2;stroke-dasharray:3 3" />
<line x1="55" y1="1" x2="55" y2="108" style="stroke:#ddd;stroke-width:2;stroke-dasharray:3 3" />
<path d="M69.5,33.27C65.89,20.84,53.03,15.5,39.73,15.5c-12.43,0-26.3,6.94-26.3,16.74c0,13.6,8.49,14.9,27.07,20.35c16.87,4.95,29.73,7.23,29.73,20.27c0,15.61-20.81,19.51-28.76,19.51c-15.9,0-26.73-6.5-30.78-17.87" style="fill:none;stroke:black;stroke-width:3" />
<circle cx="69.5" cy="33.27" r="5" stroke-width="0" fill="#FF2A00" opacity="0.7" />
</svg>