<svg width="218px" height="109px" viewBox="0 0 218px 109px" xmlns="http://www.w3.org/2000/svg" xmlns:xlink="http://www.w3.org/1999/xlink" xml:space="preserve" version="1.1"  baseProfile="full">
<line x1="1" y1="1" x2="217" y2="1" style="stroke:#ddd;stroke-width:2" />
<line x1="1" y1="1" x2="1" y2="108" style="stroke:#ddd;stroke-width:2" />
<line x1="1" y1="108" x2="217" y2="108" style="stroke:#ddd;stroke-width:2" />
<line x1="217" y1="1" x2="217" y2="108" style="stroke:#ddd;stroke-width:2" />
<line x1="109" y1="1" x2="109" y2="108" style="stroke:#ddd;stroke-width:2" />
<line x1="1" y1="54" x2="217" y2="54" style="stroke:#ddd;stroke-width:2;stroke-dasharray:3 3" />
<line x1="55" y1="1" x2="55" y2="108" style="stroke:#ddd;stroke-width:2;stroke-dasharray:3 3" />
<line x1="164" y1="1" x2="164" y2="108" style="stroke:#ddd;stroke-width:2;stroke-dasharray:3 3" />
<path d="M12.87,15.17C30.18,37.7,64.57,83.21,72.1,92.95" style="fill:none;stroke:black;stroke-width:3" />
<circle cx="12.87" cy="15.17" r="5" stroke-width="0" fill="#FF2A00" opacity="0.7" />
<path d="M121.87,15.17C139.18,37.7,173.57,83.21,181.1,92.95" style="fill:none;stroke:#999;stroke-width:3" />
<path d="M176.82,15.5C165.4,30.84,127.93,80.44,118.51,92.56" style="fill:none;stroke:black;stroke-width:3" />
<circle cx="176.82" cy="15.5" r="5" stroke-width="0" fill="#FF2A00" opacity="0.7" />
</svg>