<svg width="327px" height="109px" viewBox="0 0 327px 109px" xmlns="http://www.w3.org/2000/svg" xmlns:xlink="http://www.w3.org/1999/xlink" xml:space="preserve" version="1.1"  baseProfile="full">
<line x1="1" y1="1" x2="326" y2="1" style="stroke:#ddd;stroke-width:2" />
<line x1="1" y1="1" x2="1" y2="108" style="stroke:#ddd;stroke-width:2" />
<line x1="1" y1="108" x2="326" y2="108" style="stroke:#ddd;stroke-width:2" />
<line x1="326" y1="1" x2="326" y2="108" style="stroke:#ddd;stroke-width:2" />
<line x1="109" y1="1" x2="109" y2="108" style="stroke:#ddd;stroke-width:2" />
<line x1="218" y1="1" x2="218" y2="108" style="stroke:#ddd;stroke-width:2" />
<line x1="1" y1="54" x2="326" y2="54" style="stroke:#ddd;stroke-width:2;stroke-dasharray:3 3" />
<line x1="55" y1="1" x2="55" y2="108" style="stroke:#ddd;stroke-width:2;stroke-dasharray:3 3" />
<line x1="164" y1="1" x2="164" y2="108" style="stroke:#ddd;stroke-width:2;stroke-dasharray:3 3" />
<line x1="273" y1="1" x2="273" y2="108" style="stroke:#ddd;stroke-width:2;stroke-dasharray:3 3" />
<path d="M9.62,15.17c8.95,11.65,26.73,35.18,30.62,40.21" style="fill:none;stroke:black;stroke-width:3" />
<circle cx="9.62" cy="15.17" r="5" stroke-width="0" fill="#FF2A00" opacity="0.7" />
<path d="M118.62,15.17c8.95,11.65,26.73,35.18,30.62,40.21" style="fill:none;stroke:#999;stroke-width:3" />
<path d="M180.32,15.5c-5.98,8.02-25.58,33.98-30.51,40.32" style="fill:none;stroke:black;stroke-width:3" />
<circle cx="180.32" cy="15.5" r="5" stroke-width="0" fill="#FF2A00" opacity="0.7" />
<path d="M227.62,15.17c8.95,11.65,26.73,35.18,30.62,40.21" style="fill:none;stroke:#999;stroke-width:3" />
<path d="M289.32,15.5c-5.98,8.02-25.58,33.98-30.51,40.32" style="fill:none;stroke:#999;stroke-width:3" />
<path d="M258.75,56.15c0,4.05,0,30.4,0,36.33" style="fill:none;stroke:black;stroke-width:3" />
<circle cx="258.75" cy="56.15" r="5" stroke-width="0" fill="#FF2A00" opacity="0.7" />
</svg>