<svg width="218px" height="109px" viewBox="0 0 218px 109px" xmlns="http://www.w3.org/2000/svg" xmlns:xlink="http://www.w3.org/1999/xlink" xml:space="preserve" version="1.1"  baseProfile="full">
<line x1="1" y1="1" x2="217" y2="1" style="stroke:#ddd;stroke-width:2" />
<line x1="1" y1="1" x2="1" y2="108" style="stroke:#ddd;stroke-width:2" />
<line x1="1" y1="108" x2="217" y2="108" style="stroke:#ddd;stroke-width:2" />
<line x1="217" y1="1" x2="217" y2="108" style="stroke:#ddd;stroke-width:2" />
<line x1="109" y1="1" x2="109" y2="108" style="stroke:#ddd;stroke-width:2" />
<line x1="1" y1="54" x2="217" y2="54" style="stroke:#ddd;stroke-width:2;stroke-dasharray:3 3" />
<line x1="55" y1="1" x2="55" y2="108" style="stroke:#ddd;stroke-width:2;stroke-dasharray:3 3" />
<line x1="164" y1="1" x2="164" y2="108" style="stroke:#ddd;stroke-width:2;stroke-dasharray:3 3" />
<path d="M13.0,50.61c1.88-7.08,5.78-15.61,20.52-15.61c9.97,0,17.34,4.51,17.34,12.31c0,6.79,0.14,36.1,0.14,39.28c0,8.67,6.36,6.65,9.25,0.43" style="fill:none;stroke:black;stroke-width:3" />
<circle cx="13.0" cy="50.61" r="5" stroke-width="0" fill="#FF2A00" opacity="0.7" />
<path d="M122.0,50.61c1.88-7.08,5.78-15.61,20.52-15.61c9.97,0,17.34,4.51,17.34,12.31c0,6.79,0.14,36.1,0.14,39.28c0,8.67,6.36,6.65,9.25,0.43" style="fill:none;stroke:#999;stroke-width:3" />
<path d="M158.56,58.71C138.32999999999998,59.72,118.24,63.04,118.24,80.09c0,16.33,26.59,15.32,40.7,3.01" style="fill:none;stroke:black;stroke-width:3" />
<circle cx="158.56" cy="58.71" r="5" stroke-width="0" fill="#FF2A00" opacity="0.7" />
</svg>