<svg width="218px" height="109px" viewBox="0 0 218px 109px" xmlns="http://www.w3.org/2000/svg" xmlns:xlink="http://www.w3.org/1999/xlink" xml:space="preserve" version="1.1"  baseProfile="full">
<line x1="1" y1="1" x2="217" y2="1" style="stroke:#ddd;stroke-width:2" />
<line x1="1" y1="1" x2="1" y2="108" style="stroke:#ddd;stroke-width:2" />
<line x1="1" y1="108" x2="217" y2="108" style="stroke:#ddd;stroke-width:2" />
<line x1="217" y1="1" x2="217" y2="108" style="stroke:#ddd;stroke-width:2" />
<line x1="109" y1="1" x2="109" y2="108" style="stroke:#ddd;stroke-width:2" />
<line x1="1" y1="54" x2="217" y2="54" style="stroke:#ddd;stroke-width:2;stroke-dasharray:3 3" />
<line x1="55" y1="1" x2="55" y2="108" style="stroke:#ddd;stroke-width:2;stroke-dasharray:3 3" />
<line x1="164" y1="1" x2="164" y2="108" style="stroke:#ddd;stroke-width:2;stroke-dasharray:3 3" />
<path d="M46.24,16.8C33.66,13.04,23.9,17.38,23.9,28.94c0,11.57,0,55.91,0,63.86" style="fill:none;stroke:black;stroke-width:3" />
<circle cx="46.24" cy="16.8" r="5" stroke-width="0" fill="#FF2A00" opacity="0.7" />
<path d="M155.24,16.8C142.66,13.04,132.9,17.38,132.9,28.94c0,11.57,0,55.91,0,63.86" style="fill:none;stroke:#999;stroke-width:3" />
<path d="M118.32,36.74c5.35,0,30.01,0,35.64,0" style="fill:none;stroke:black;stroke-width:3" />
<circle cx="118.32" cy="36.74" r="5" stroke-width="0" fill="#FF2A00" opacity="0.7" />
</svg>