<svg width="327px" height="109px" viewBox="0 0 327px 109px" xmlns="http://www.w3.org/2000/svg" xmlns:xlink="http://www.w3.org/1999/xlink" xml:space="preserve" version="1.1"  baseProfile="full">
<line x1="1" y1="1" x2="326" y2="1" style="stroke:#ddd;stroke-width:2" />
<line x1="1" y1="1" x2="1" y2="108" style="stroke:#ddd;stroke-width:2" />
<line x1="1" y1="108" x2="326" y2="108" style="stroke:#ddd;stroke-width:2" />
<line x1="326" y1="1" x2="326" y2="108" style="stroke:#ddd;stroke-width:2" />
<line x1="109" y1="1" x2="109" y2="108" style="stroke:#ddd;stroke-width:2" />
<line x1="218" y1="1" x2="218" y2="108" style="stroke:#ddd;stroke-width:2" />
<line x1="1" y1="54" x2="326" y2="54" style="stroke:#ddd;stroke-width:2;stroke-dasharray:3 3" />
<line x1="55" y1="1" x2="55" y2="108" style="stroke:#ddd;stroke-width:2;stroke-dasharray:3 3" />
<line x1="164" y1="1" x2="164" y2="108" style="stroke:#ddd;stroke-width:2;stroke-dasharray:3 3" />
<line x1="273" y1="1" x2="273" y2="108" style="stroke:#ddd;stroke-width:2;stroke-dasharray:3 3" />
<path d="M33.38,35.01c-16.18,0-21.35,9.1-21.35,15.9s4.3,16.62,21.64,16.62c15.46,0,20.88-8.38,20.88-15.17s-4.84-17.37-21.12-17.37" style="fill:none;stroke:black;stroke-width:3" />
<circle cx="33.38" cy="35.01" r="5" stroke-width="0" fill="#FF2A00" opacity="0.7" />
<path d="M142.38,35.01c-16.18,0-21.35,9.1-21.35,15.9s4.3,16.62,21.64,16.62c15.46,0,20.88-8.38,20.88-15.17s-4.84-17.37-21.12-17.37" style="fill:none;stroke:#999;stroke-width:3" />
<path d="M169.69,34.72c-5.49-1.45-8.38,0.43-11.17,3.9" style="fill:none;stroke:black;stroke-width:3" />
<circle cx="169.69" cy="34.72" r="5" stroke-width="0" fill="#FF2A00" opacity="0.7" />
<path d="M251.38,35.01c-16.18,0-21.35,9.1-21.35,15.9s4.3,16.62,21.64,16.62c15.46,0,20.88-8.38,20.88-15.17s-4.84-17.37-21.12-17.37" style="fill:none;stroke:#999;stroke-width:3" />
<path d="M278.69,34.72c-5.49-1.45-8.38,0.43-11.17,3.9" style="fill:none;stroke:#999;stroke-width:3" />
<path d="M236.6,65.64c-3.72,2.31-7.39,13.03,4.91,14.16C250.9,80.67,257.0,81.1,264.52,81.65c10.12,0.75,11.57,8.84,11.57,12.32c0,4.48-3.9,14.44-23.27,14.44s-25.58-6.5-25.58-14.4c0-7.66,4.34-11.47,9.49-14.46" style="fill:none;stroke:black;stroke-width:3" />
<circle cx="236.6" cy="65.64" r="5" stroke-width="0" fill="#FF2A00" opacity="0.7" />
</svg>