<svg width="218px" height="109px" viewBox="0 0 218px 109px" xmlns="http://www.w3.org/2000/svg" xmlns:xlink="http://www.w3.org/1999/xlink" xml:space="preserve" version="1.1"  baseProfile="full">
<line x1="1" y1="1" x2="217" y2="1" style="stroke:#ddd;stroke-width:2" />
<line x1="1" y1="1" x2="1" y2="108" style="stroke:#ddd;stroke-width:2" />
<line x1="1" y1="108" x2="217" y2="108" style="stroke:#ddd;stroke-width:2" />
<line x1="217" y1="1" x2="217" y2="108" style="stroke:#ddd;stroke-width:2" />
<line x1="109" y1="1" x2="109" y2="108" style="stroke:#ddd;stroke-width:2" />
<line x1="1" y1="54" x2="217" y2="54" style="stroke:#ddd;stroke-width:2;stroke-dasharray:3 3" />
<line x1="55" y1="1" x2="55" y2="108" style="stroke:#ddd;stroke-width:2;stroke-dasharray:3 3" />
<line x1="164" y1="1" x2="164" y2="108" style="stroke:#ddd;stroke-width:2;stroke-dasharray:3 3" />
<path d="M8.12,48.88c1.66,1.8,2.27,3.91,1.79,6.16C6.5,70.75,9.82,81.59,17.2,89.43c5.04,5.35,3.91,2.61,4.55-4.32" style="fill:none;stroke:black;stroke-width:3" />
<circle cx="8.12" cy="48.88" r="5" stroke-width="0" fill="#FF2A00" opacity="0.7" />
<path d="M117.12,48.88c1.66,1.8,2.27,3.91,1.79,6.16C115.5,70.75,118.82,81.59,126.2,89.43c5.04,5.35,3.91,2.61,4.55-4.32" style="fill:none;stroke:#999;stroke-width:3" />
<path d="M157.5,53.62c7.95,6.66,14.98,15.57,15.5,28" style="fill:none;stroke:black;stroke-width:3" />
<circle cx="157.5" cy="53.62" r="5" stroke-width="0" fill="#FF2A00" opacity="0.7" />
</svg>