<svg width="218px" height="109px" viewBox="0 0 218px 109px" xmlns="http://www.w3.org/2000/svg" xmlns:xlink="http://www.w3.org/1999/xlink" xml:space="preserve" version="1.1"  baseProfile="full">
<line x1="1" y1="1" x2="217" y2="1" style="stroke:#ddd;stroke-width:2" />
<line x1="1" y1="1" x2="1" y2="108" style="stroke:#ddd;stroke-width:2" />
<line x1="1" y1="108" x2="217" y2="108" style="stroke:#ddd;stroke-width:2" />
<line x1="217" y1="1" x2="217" y2="108" style="stroke:#ddd;stroke-width:2" />
<line x1="109" y1="1" x2="109" y2="108" style="stroke:#ddd;stroke-width:2" />
<line x1="1" y1="54" x2="217" y2="54" style="stroke:#ddd;stroke-width:2;stroke-dasharray:3 3" />
<line x1="55" y1="1" x2="55" y2="108" style="stroke:#ddd;stroke-width:2;stroke-dasharray:3 3" />
<line x1="164" y1="1" x2="164" y2="108" style="stroke:#ddd;stroke-width:2;stroke-dasharray:3 3" />
<path d="M22.0,13.25c5.62,2.12,10,3,14.12,3c8.27,0,8,1.12-0.38,5.5" style="fill:none;stroke:black;stroke-width:3" />
<circle cx="22.0" cy="13.25" r="5" stroke-width="0" fill="#FF2A00" opacity="0.7" />
<path d="M131.0,13.25c5.62,2.12,10,3,14.12,3c8.27,0,8,1.12-0.38,5.5" style="fill:none;stroke:#999;stroke-width:3" />
<path d="M123.0,45.12c1.88,1.25,4.5,1.75,7.38,0.62c3.29-1.29,17-7.88,21.25-9.88s8.32,0.04,4.38,4.62C143.75,54.75,128.75,72,116.5,84.88C113.24,88.3,115.92,88.42,118.0,86.25c13.5-14.12,18.12-20.12,23.62-20.12c7.13,0,3.5,16.75,6.75,22.38s19.12,3.75,26.12,2.12" style="fill:none;stroke:black;stroke-width:3" />
<circle cx="123.0" cy="45.12" r="5" stroke-width="0" fill="#FF2A00" opacity="0.7" />
</svg>