<svg width="327px" height="109px" viewBox="0 0 327px 109px" xmlns="http://www.w3.org/2000/svg" xmlns:xlink="http://www.w3.org/1999/xlink" xml:space="preserve" version="1.1"  baseProfile="full">
<line x1="1" y1="1" x2="326" y2="1" style="stroke:#ddd;stroke-width:2" />
<line x1="1" y1="1" x2="1" y2="108" style="stroke:#ddd;stroke-width:2" />
<line x1="1" y1="108" x2="326" y2="108" style="stroke:#ddd;stroke-width:2" />
<line x1="326" y1="1" x2="326" y2="108" style="stroke:#ddd;stroke-width:2" />
<line x1="109" y1="1" x2="109" y2="108" style="stroke:#ddd;stroke-width:2" />
<line x1="218" y1="1" x2="218" y2="108" style="stroke:#ddd;stroke-width:2" />
<line x1="1" y1="54" x2="326" y2="54" style="stroke:#ddd;stroke-width:2;stroke-dasharray:3 3" />
<line x1="55" y1="1" x2="55" y2="108" style="stroke:#ddd;stroke-width:2;stroke-dasharray:3 3" />
<line x1="164" y1="1" x2="164" y2="108" style="stroke:#ddd;stroke-width:2;stroke-dasharray:3 3" />
<line x1="273" y1="1" x2="273" y2="108" style="stroke:#ddd;stroke-width:2;stroke-dasharray:3 3" />
<path d="M11.12,19.75c1.25,1.5,2.62,3.75,2.12,6.38c-3,15.88-6.5,29.5-4.88,44.62c2.02,18.84,2.25,4.75,6.75-3.5" style="fill:none;stroke:black;stroke-width:3" />
<circle cx="11.12" cy="19.75" r="5" stroke-width="0" fill="#FF2A00" opacity="0.7" />
<path d="M120.12,19.75c1.25,1.5,2.62,3.75,2.12,6.38c-3,15.88-6.5,29.5-4.88,44.62c2.02,18.84,2.25,4.75,6.75-3.5" style="fill:none;stroke:#999;stroke-width:3" />
<path d="M149.12,38.62c2.12,1.38,4.28,1.89,6.88,1.5c8.25-1.25,15.39-2.57,20.62-4C179.38,35.38,181.88,35,183.5,35" style="fill:none;stroke:black;stroke-width:3" />
<circle cx="149.12" cy="38.62" r="5" stroke-width="0" fill="#FF2A00" opacity="0.7" />
<path d="M229.12,19.75c1.25,1.5,2.62,3.75,2.12,6.38c-3,15.88-6.5,29.5-4.88,44.62c2.02,18.84,2.25,4.75,6.75-3.5" style="fill:none;stroke:#999;stroke-width:3" />
<path d="M258.12,38.62c2.12,1.38,4.28,1.89,6.88,1.5c8.25-1.25,15.39-2.57,20.62-4C288.38,35.38,290.88,35,292.5,35" style="fill:none;stroke:#999;stroke-width:3" />
<path d="M276.12,14.38C278.25,15.75,279.0,17.73,279.0,19.5c0,11.62,0.12,20.38,0.12,30.12c0,20.75-0.62,30.88-12.5,42.25" style="fill:none;stroke:black;stroke-width:3" />
<circle cx="276.12" cy="14.38" r="5" stroke-width="0" fill="#FF2A00" opacity="0.7" />
</svg>