<svg width="545px" height="109px" viewBox="0 0 545px 109px" xmlns="http://www.w3.org/2000/svg" xmlns:xlink="http://www.w3.org/1999/xlink" xml:space="preserve" version="1.1"  baseProfile="full">
<line x1="1" y1="1" x2="544" y2="1" style="stroke:#ddd;stroke-width:2" />
<line x1="1" y1="1" x2="1" y2="108" style="stroke:#ddd;stroke-width:2" />
<line x1="1" y1="108" x2="544" y2="108" style="stroke:#ddd;stroke-width:2" />
<line x1="544" y1="1" x2="544" y2="108" style="stroke:#ddd;stroke-width:2" />
<line x1="109" y1="1" x2="109" y2="108" style="stroke:#ddd;stroke-width:2" />
<line x1="218" y1="1" x2="218" y2="108" style="stroke:#ddd;stroke-width:2" />
<line x1="327" y1="1" x2="327" y2="108" style="stroke:#ddd;stroke-width:2" />
<line x1="436" y1="1" x2="436" y2="108" style="stroke:#ddd;stroke-width:2" />
<line x1="1" y1="54" x2="544" y2="54" style="stroke:#ddd;stroke-width:2;stroke-dasharray:3 3" />
<line x1="55" y1="1" x2="55" y2="108" style="stroke:#ddd;stroke-width:2;stroke-dasharray:3 3" />
<line x1="164" y1="1" x2="164" y2="108" style="stroke:#ddd;stroke-width:2;stroke-dasharray:3 3" />
<line x1="273" y1="1" x2="273" y2="108" style="stroke:#ddd;stroke-width:2;stroke-dasharray:3 3" />
<line x1="382" y1="1" x2="382" y2="108" style="stroke:#ddd;stroke-width:2;stroke-dasharray:3 3" />
<line x1="491" y1="1" x2="491" y2="108" style="stroke:#ddd;stroke-width:2;stroke-dasharray:3 3" />
<path d="M11.62,20.25c1.25,1.5,2.37,3.75,1.88,6.38c-3,15.88-6.5,29.5-4.88,44.62c2.02,18.84,2.25,4.75,6.75-3.5" style="fill:none;stroke:black;stroke-width:3" />
<circle cx="11.62" cy="20.25" r="5" stroke-width="0" fill="#FF2A00" opacity="0.7" />
<path d="M120.62,20.25c1.25,1.5,2.37,3.75,1.88,6.38c-3,15.88-6.5,29.5-4.88,44.62c2.02,18.84,2.25,4.75,6.75-3.5" style="fill:none;stroke:#999;stroke-width:3" />
<path d="M149.38,39.12c2.12,1.38,4.28,1.89,6.88,1.5c8.25-1.25,15.39-2.57,20.62-4c2.75-0.75,5.25-1.12,6.88-1.12" style="fill:none;stroke:black;stroke-width:3" />
<circle cx="149.38" cy="39.12" r="5" stroke-width="0" fill="#FF2A00" opacity="0.7" />
<path d="M229.62,20.25c1.25,1.5,2.37,3.75,1.88,6.38c-3,15.88-6.5,29.5-4.88,44.62c2.02,18.84,2.25,4.75,6.75-3.5" style="fill:none;stroke:#999;stroke-width:3" />
<path d="M258.38,39.12c2.12,1.38,4.28,1.89,6.88,1.5c8.25-1.25,15.39-2.57,20.62-4c2.75-0.75,5.25-1.12,6.88-1.12" style="fill:none;stroke:#999;stroke-width:3" />
<path d="M276.38,14.62C278.5,16,279.25,18.23,279.25,20c0,11.62,0.12,20.38,0.12,30.12c0,20.75-0.62,30.88-12.5,42.25" style="fill:none;stroke:black;stroke-width:3" />
<circle cx="276.38" cy="14.62" r="5" stroke-width="0" fill="#FF2A00" opacity="0.7" />
<path d="M338.62,20.25c1.25,1.5,2.37,3.75,1.88,6.38c-3,15.88-6.5,29.5-4.88,44.62c2.02,18.84,2.25,4.75,6.75-3.5" style="fill:none;stroke:#999;stroke-width:3" />
<path d="M367.38,39.12c2.12,1.38,4.28,1.89,6.88,1.5c8.25-1.25,15.39-2.57,20.62-4c2.75-0.75,5.25-1.12,6.88-1.12" style="fill:none;stroke:#999;stroke-width:3" />
<path d="M385.38,14.62C387.5,16,388.25,18.23,388.25,20c0,11.62,0.12,20.38,0.12,30.12c0,20.75-0.62,30.88-12.5,42.25" style="fill:none;stroke:#999;stroke-width:3" />
<path d="M399.88,13c2.75,1.75,6,5.38,7.75,8.5" style="fill:none;stroke:black;stroke-width:3" />
<circle cx="399.88" cy="13.0" r="5" stroke-width="0" fill="#FF2A00" opacity="0.7" />
<path d="M447.62,20.25c1.25,1.5,2.37,3.75,1.88,6.38c-3,15.88-6.5,29.5-4.88,44.62c2.02,18.84,2.25,4.75,6.75-3.5" style="fill:none;stroke:#999;stroke-width:3" />
<path d="M476.38,39.12c2.12,1.38,4.28,1.89,6.88,1.5c8.25-1.25,15.39-2.57,20.62-4c2.75-0.75,5.25-1.12,6.88-1.12" style="fill:none;stroke:#999;stroke-width:3" />
<path d="M494.38,14.62C496.5,16,497.25,18.23,497.25,20c0,11.62,0.12,20.38,0.12,30.12c0,20.75-0.62,30.88-12.5,42.25" style="fill:none;stroke:#999;stroke-width:3" />
<path d="M508.88,13c2.75,1.75,6,5.38,7.75,8.5" style="fill:none;stroke:#999;stroke-width:3" />
<path d="M515.25,8.12c3.06,1.57,6.68,4.82,8.62,7.62" style="fill:none;stroke:black;stroke-width:3" />
<circle cx="515.25" cy="8.12" r="5" stroke-width="0" fill="#FF2A00" opacity="0.7" />
</svg>