<svg width="654px" height="109px" viewBox="0 0 654px 109px" xmlns="http://www.w3.org/2000/svg" xmlns:xlink="http://www.w3.org/1999/xlink" xml:space="preserve" version="1.1"  baseProfile="full">
<line x1="1" y1="1" x2="653" y2="1" style="stroke:#ddd;stroke-width:2" />
<line x1="1" y1="1" x2="1" y2="108" style="stroke:#ddd;stroke-width:2" />
<line x1="1" y1="108" x2="653" y2="108" style="stroke:#ddd;stroke-width:2" />
<line x1="653" y1="1" x2="653" y2="108" style="stroke:#ddd;stroke-width:2" />
<line x1="109" y1="1" x2="109" y2="108" style="stroke:#ddd;stroke-width:2" />
<line x1="218" y1="1" x2="218" y2="108" style="stroke:#ddd;stroke-width:2" />
<line x1="327" y1="1" x2="327" y2="108" style="stroke:#ddd;stroke-width:2" />
<line x1="436" y1="1" x2="436" y2="108" style="stroke:#ddd;stroke-width:2" />
<line x1="545" y1="1" x2="545" y2="108" style="stroke:#ddd;stroke-width:2" />
<line x1="1" y1="54" x2="653" y2="54" style="stroke:#ddd;stroke-width:2;stroke-dasharray:3 3" />
<line x1="55" y1="1" x2="55" y2="108" style="stroke:#ddd;stroke-width:2;stroke-dasharray:3 3" />
<line x1="164" y1="1" x2="164" y2="108" style="stroke:#ddd;stroke-width:2;stroke-dasharray:3 3" />
<line x1="273" y1="1" x2="273" y2="108" style="stroke:#ddd;stroke-width:2;stroke-dasharray:3 3" />
<line x1="382" y1="1" x2="382" y2="108" style="stroke:#ddd;stroke-width:2;stroke-dasharray:3 3" />
<line x1="491" y1="1" x2="491" y2="108" style="stroke:#ddd;stroke-width:2;stroke-dasharray:3 3" />
<line x1="600" y1="1" x2="600" y2="108" style="stroke:#ddd;stroke-width:2;stroke-dasharray:3 3" />
<path d="M30.62,15.62c3.62,3.38,7.5,5.38,12.75,6.12c9.59,1.37,3.5,3.38-1.88,6.12" style="fill:none;stroke:black;stroke-width:3" />
<circle cx="30.62" cy="15.62" r="5" stroke-width="0" fill="#FF2A00" opacity="0.7" />
<path d="M139.62,15.62c3.62,3.38,7.5,5.38,12.75,6.12c9.59,1.37,3.5,3.38-1.88,6.12" style="fill:none;stroke:#999;stroke-width:3" />
<path d="M140.62,46.88c1.88,4.62,7.5,9.41,14.25,17.5c10.62,12.75,0.5,30-19.12,21.62" style="fill:none;stroke:black;stroke-width:3" />
<circle cx="140.62" cy="46.88" r="5" stroke-width="0" fill="#FF2A00" opacity="0.7" />
<path d="M248.62,15.62c3.62,3.38,7.5,5.38,12.75,6.12c9.59,1.37,3.5,3.38-1.88,6.12" style="fill:none;stroke:#999;stroke-width:3" />
<path d="M249.62,46.88c1.88,4.62,7.5,9.41,14.25,17.5c10.62,12.75,0.5,30-19.12,21.62" style="fill:none;stroke:#999;stroke-width:3" />
<path d="M223.0,73.88c0.75,4,1.88,8.12,5,10.12c1.16,0.74,0.12-3.38,13.25-9.12" style="fill:none;stroke:black;stroke-width:3" />
<circle cx="223.0" cy="73.88" r="5" stroke-width="0" fill="#FF2A00" opacity="0.7" />
<path d="M357.62,15.62c3.62,3.38,7.5,5.38,12.75,6.12c9.59,1.37,3.5,3.38-1.88,6.12" style="fill:none;stroke:#999;stroke-width:3" />
<path d="M358.62,46.88c1.88,4.62,7.5,9.41,14.25,17.5c10.62,12.75,0.5,30-19.12,21.62" style="fill:none;stroke:#999;stroke-width:3" />
<path d="M332.0,73.88c0.75,4,1.88,8.12,5,10.12c1.16,0.74,0.12-3.38,13.25-9.12" style="fill:none;stroke:#999;stroke-width:3" />
<path d="M395.12,61.88c5.5,3.38,10.28,7.49,11.38,8.88c6.75,8.5-0.25,4.62-4.62,7.12" style="fill:none;stroke:black;stroke-width:3" />
<circle cx="395.12" cy="61.88" r="5" stroke-width="0" fill="#FF2A00" opacity="0.7" />
<path d="M466.62,15.62c3.62,3.38,7.5,5.38,12.75,6.12c9.59,1.37,3.5,3.38-1.88,6.12" style="fill:none;stroke:#999;stroke-width:3" />
<path d="M467.62,46.88c1.88,4.62,7.5,9.41,14.25,17.5c10.62,12.75,0.5,30-19.12,21.62" style="fill:none;stroke:#999;stroke-width:3" />
<path d="M441.0,73.88c0.75,4,1.88,8.12,5,10.12c1.16,0.74,0.12-3.38,13.25-9.12" style="fill:none;stroke:#999;stroke-width:3" />
<path d="M504.12,61.88c5.5,3.38,10.28,7.49,11.38,8.88c6.75,8.5-0.25,4.62-4.62,7.12" style="fill:none;stroke:#999;stroke-width:3" />
<path d="M498.12,16.25c2.75,1.75,6,5.38,7.75,8.5" style="fill:none;stroke:black;stroke-width:3" />
<circle cx="498.12" cy="16.25" r="5" stroke-width="0" fill="#FF2A00" opacity="0.7" />
<path d="M575.62,15.62c3.62,3.38,7.5,5.38,12.75,6.12c9.59,1.37,3.5,3.38-1.88,6.12" style="fill:none;stroke:#999;stroke-width:3" />
<path d="M576.62,46.88c1.88,4.62,7.5,9.41,14.25,17.5c10.62,12.75,0.5,30-19.12,21.62" style="fill:none;stroke:#999;stroke-width:3" />
<path d="M550.0,73.88c0.75,4,1.88,8.12,5,10.12c1.16,0.74,0.12-3.38,13.25-9.12" style="fill:none;stroke:#999;stroke-width:3" />
<path d="M613.12,61.88c5.5,3.38,10.28,7.49,11.38,8.88c6.75,8.5-0.25,4.62-4.62,7.12" style="fill:none;stroke:#999;stroke-width:3" />
<path d="M607.12,16.25c2.75,1.75,6,5.38,7.75,8.5" style="fill:none;stroke:#999;stroke-width:3" />
<path d="M613.5,11.38c3.06,1.57,6.68,4.82,8.62,7.62" style="fill:none;stroke:black;stroke-width:3" />
<circle cx="613.5" cy="11.38" r="5" stroke-width="0" fill="#FF2A00" opacity="0.7" />
</svg>