<svg width="545px" height="109px" viewBox="0 0 545px 109px" xmlns="http://www.w3.org/2000/svg" xmlns:xlink="http://www.w3.org/1999/xlink" xml:space="preserve" version="1.1"  baseProfile="full">
<line x1="1" y1="1" x2="544" y2="1" style="stroke:#ddd;stroke-width:2" />
<line x1="1" y1="1" x2="1" y2="108" style="stroke:#ddd;stroke-width:2" />
<line x1="1" y1="108" x2="544" y2="108" style="stroke:#ddd;stroke-width:2" />
<line x1="544" y1="1" x2="544" y2="108" style="stroke:#ddd;stroke-width:2" />
<line x1="109" y1="1" x2="109" y2="108" style="stroke:#ddd;stroke-width:2" />
<line x1="218" y1="1" x2="218" y2="108" style="stroke:#ddd;stroke-width:2" />
<line x1="327" y1="1" x2="327" y2="108" style="stroke:#ddd;stroke-width:2" />
<line x1="436" y1="1" x2="436" y2="108" style="stroke:#ddd;stroke-width:2" />
<line x1="1" y1="54" x2="544" y2="54" style="stroke:#ddd;stroke-width:2;stroke-dasharray:3 3" />
<line x1="55" y1="1" x2="55" y2="108" style="stroke:#ddd;stroke-width:2;stroke-dasharray:3 3" />
<line x1="164" y1="1" x2="164" y2="108" style="stroke:#ddd;stroke-width:2;stroke-dasharray:3 3" />
<line x1="273" y1="1" x2="273" y2="108" style="stroke:#ddd;stroke-width:2;stroke-dasharray:3 3" />
<line x1="382" y1="1" x2="382" y2="108" style="stroke:#ddd;stroke-width:2;stroke-dasharray:3 3" />
<line x1="491" y1="1" x2="491" y2="108" style="stroke:#ddd;stroke-width:2;stroke-dasharray:3 3" />
<path d="M11.88,19c1.25,1.5,2.15,4,1.62,6.62c-3.5,17.62-6.98,37.4-4,55.88c2.5,15.5,1.12,2,5.62-6.25" style="fill:none;stroke:black;stroke-width:3" />
<circle cx="11.88" cy="19.0" r="5" stroke-width="0" fill="#FF2A00" opacity="0.7" />
<path d="M120.88,19c1.25,1.5,2.15,4,1.62,6.62c-3.5,17.62-6.98,37.4-4,55.88c2.5,15.5,1.12,2,5.62-6.25" style="fill:none;stroke:#999;stroke-width:3" />
<path d="M149.45,21.38c1.9,1.28,3.82,1.76,6.14,1.4c7.36-1.17,13.73-2.4,18.41-3.73c2.46-0.7,4.69-1.05,6.13-1.05" style="fill:none;stroke:black;stroke-width:3" />
<circle cx="149.45" cy="21.38" r="5" stroke-width="0" fill="#FF2A00" opacity="0.7" />
<path d="M229.88,19c1.25,1.5,2.15,4,1.62,6.62c-3.5,17.62-6.98,37.4-4,55.88c2.5,15.5,1.12,2,5.62-6.25" style="fill:none;stroke:#999;stroke-width:3" />
<path d="M258.45,21.38c1.9,1.28,3.82,1.76,6.14,1.4c7.36-1.17,13.73-2.4,18.41-3.73c2.46-0.7,4.69-1.05,6.13-1.05" style="fill:none;stroke:#999;stroke-width:3" />
<path d="M259.2,44.55c2.21,1.44,4.46,1.98,7.16,1.57c8.59-1.31,15.78-2.44,21.23-3.94C290.46,41.39,293.31,41,295.0,41" style="fill:none;stroke:black;stroke-width:3" />
<circle cx="259.2" cy="44.55" r="5" stroke-width="0" fill="#FF2A00" opacity="0.7" />
<path d="M338.88,19c1.25,1.5,2.15,4,1.62,6.62c-3.5,17.62-6.98,37.4-4,55.88c2.5,15.5,1.12,2,5.62-6.25" style="fill:none;stroke:#999;stroke-width:3" />
<path d="M367.45,21.38c1.9,1.28,3.82,1.76,6.14,1.4c7.36-1.17,13.73-2.4,18.41-3.73c2.46-0.7,4.69-1.05,6.13-1.05" style="fill:none;stroke:#999;stroke-width:3" />
<path d="M368.2,44.55c2.21,1.44,4.46,1.98,7.16,1.57c8.59-1.31,15.78-2.44,21.23-3.94C399.46,41.39,402.31,41,404.0,41" style="fill:none;stroke:#999;stroke-width:3" />
<path d="M386.88,23.25c1.38,1.62,1.62,4.12,1.62,6.5s2,35.12,2,44.5c0,17.5-29.88,17.12-29.88,8c0-9.75,21.38-7.88,29.5-2.88c5.33,3.28,12,8.25,13.38,9.38" style="fill:none;stroke:black;stroke-width:3" />
<circle cx="386.88" cy="23.25" r="5" stroke-width="0" fill="#FF2A00" opacity="0.7" />
<path d="M447.88,19c1.25,1.5,2.15,4,1.62,6.62c-3.5,17.62-6.98,37.4-4,55.88c2.5,15.5,1.12,2,5.62-6.25" style="fill:none;stroke:#999;stroke-width:3" />
<path d="M476.45,21.38c1.9,1.28,3.82,1.76,6.14,1.4c7.36-1.17,13.73-2.4,18.41-3.73c2.46-0.7,4.69-1.05,6.13-1.05" style="fill:none;stroke:#999;stroke-width:3" />
<path d="M477.2,44.55c2.21,1.44,4.46,1.98,7.16,1.57c8.59-1.31,15.78-2.44,21.23-3.94C508.46,41.39,511.31,41,513.0,41" style="fill:none;stroke:#999;stroke-width:3" />
<path d="M495.88,23.25c1.38,1.62,1.62,4.12,1.62,6.5s2,35.12,2,44.5c0,17.5-29.88,17.12-29.88,8c0-9.75,21.38-7.88,29.5-2.88c5.33,3.28,12,8.25,13.38,9.38" style="fill:none;stroke:#999;stroke-width:3" />
<path d="M518.5,34.5c-9.62,0-9.25-14.25,0-14.25C528.25,20.25,528.0,34.5,518.5,34.5" style="fill:none;stroke:black;stroke-width:3" />
<circle cx="518.5" cy="34.5" r="5" stroke-width="0" fill="#FF2A00" opacity="0.7" />
</svg>