<svg width="327px" height="109px" viewBox="0 0 327px 109px" xmlns="http://www.w3.org/2000/svg" xmlns:xlink="http://www.w3.org/1999/xlink" xml:space="preserve" version="1.1"  baseProfile="full">
<line x1="1" y1="1" x2="326" y2="1" style="stroke:#ddd;stroke-width:2" />
<line x1="1" y1="1" x2="1" y2="108" style="stroke:#ddd;stroke-width:2" />
<line x1="1" y1="108" x2="326" y2="108" style="stroke:#ddd;stroke-width:2" />
<line x1="326" y1="1" x2="326" y2="108" style="stroke:#ddd;stroke-width:2" />
<line x1="109" y1="1" x2="109" y2="108" style="stroke:#ddd;stroke-width:2" />
<line x1="218" y1="1" x2="218" y2="108" style="stroke:#ddd;stroke-width:2" />
<line x1="1" y1="54" x2="326" y2="54" style="stroke:#ddd;stroke-width:2;stroke-dasharray:3 3" />
<line x1="55" y1="1" x2="55" y2="108" style="stroke:#ddd;stroke-width:2;stroke-dasharray:3 3" />
<line x1="164" y1="1" x2="164" y2="108" style="stroke:#ddd;stroke-width:2;stroke-dasharray:3 3" />
<line x1="273" y1="1" x2="273" y2="108" style="stroke:#ddd;stroke-width:2;stroke-dasharray:3 3" />
<path d="M29.25,14.75c1.88,1.88,1.86,4.52,1.12,8c-3,14.25-5,26.62-7,42.12c-2.55,19.73-0.75,29.88,17,29.86C60.62,94.71,69.0,81.62,60.38,59" style="fill:none;stroke:black;stroke-width:3" />
<circle cx="29.25" cy="14.75" r="5" stroke-width="0" fill="#FF2A00" opacity="0.7" />
<path d="M138.25,14.75c1.88,1.88,1.86,4.52,1.12,8c-3,14.25-5,26.62-7,42.12c-2.55,19.73-0.75,29.88,17,29.86C169.62,94.71,178.0,81.62,169.38,59" style="fill:none;stroke:#999;stroke-width:3" />
<path d="M115.62,34.62c1.12,0.88,2.87,2.21,6,2c11.12-0.75,20-2.12,27.74-3.46c3.88-0.67,5.88-1.17,8.88-1.04" style="fill:none;stroke:black;stroke-width:3" />
<circle cx="115.62" cy="34.62" r="5" stroke-width="0" fill="#FF2A00" opacity="0.7" />
<path d="M247.25,14.75c1.88,1.88,1.86,4.52,1.12,8c-3,14.25-5,26.62-7,42.12c-2.55,19.73-0.75,29.88,17,29.86C278.62,94.71,287.0,81.62,278.38,59" style="fill:none;stroke:#999;stroke-width:3" />
<path d="M224.62,34.62c1.12,0.88,2.87,2.21,6,2c11.12-0.75,20-2.12,27.74-3.46c3.88-0.67,5.88-1.17,8.88-1.04" style="fill:none;stroke:#999;stroke-width:3" />
<path d="M224.5,53.38c-1.5,4,1,6.75,7.75,6.75c8.75,0,17.62-1,22.88-1.88c2.01-0.33,5.38-1,7.5-1.75" style="fill:none;stroke:black;stroke-width:3" />
<circle cx="224.5" cy="53.38" r="5" stroke-width="0" fill="#FF2A00" opacity="0.7" />
</svg>