<svg width="218px" height="109px" viewBox="0 0 218px 109px" xmlns="http://www.w3.org/2000/svg" xmlns:xlink="http://www.w3.org/1999/xlink" xml:space="preserve" version="1.1"  baseProfile="full">
<line x1="1" y1="1" x2="217" y2="1" style="stroke:#ddd;stroke-width:2" />
<line x1="1" y1="1" x2="1" y2="108" style="stroke:#ddd;stroke-width:2" />
<line x1="1" y1="108" x2="217" y2="108" style="stroke:#ddd;stroke-width:2" />
<line x1="217" y1="1" x2="217" y2="108" style="stroke:#ddd;stroke-width:2" />
<line x1="109" y1="1" x2="109" y2="108" style="stroke:#ddd;stroke-width:2" />
<line x1="1" y1="54" x2="217" y2="54" style="stroke:#ddd;stroke-width:2;stroke-dasharray:3 3" />
<line x1="55" y1="1" x2="55" y2="108" style="stroke:#ddd;stroke-width:2;stroke-dasharray:3 3" />
<line x1="164" y1="1" x2="164" y2="108" style="stroke:#ddd;stroke-width:2;stroke-dasharray:3 3" />
<path d="M16.38,31.75c1.75,1,2.41,3.09,2.5,5.25c0.5,11.62,2.75,23.5,7.25,31.38c1.39,2.44,5.38,8.5,7.25,10.38" style="fill:none;stroke:black;stroke-width:3" />
<circle cx="16.38" cy="31.75" r="5" stroke-width="0" fill="#FF2A00" opacity="0.7" />
<path d="M125.38,31.75c1.75,1,2.41,3.09,2.5,5.25c0.5,11.62,2.75,23.5,7.25,31.38c1.39,2.44,5.38,8.5,7.25,10.38" style="fill:none;stroke:#999;stroke-width:3" />
<path d="M157.5,19.38c1,1.5,1.35,4.12,0.88,6.62c-2.75,14.62-13.62,37.75-20.1,47.24C126.0,90.38,121.5,86.38,116.0,73.88C110.62,58.5,142.4,31.7,169.42000000000002,38.6c29.08,8.27,23.96,46.02-7.98,50.15" style="fill:none;stroke:black;stroke-width:3" />
<circle cx="157.5" cy="19.38" r="5" stroke-width="0" fill="#FF2A00" opacity="0.7" />
</svg>