<svg width="109px" height="109px" viewBox="0 0 109px 109px" xmlns="http://www.w3.org/2000/svg" xmlns:xlink="http://www.w3.org/1999/xlink" xml:space="preserve" version="1.1"  baseProfile="full">
<line x1="1" y1="1" x2="108" y2="1" style="stroke:#ddd;stroke-width:2" />
<line x1="1" y1="1" x2="1" y2="108" style="stroke:#ddd;stroke-width:2" />
<line x1="1" y1="108" x2="108" y2="108" style="stroke:#ddd;stroke-width:2" />
<line x1="108" y1="1" x2="108" y2="108" style="stroke:#ddd;stroke-width:2" />
<line x1="1" y1="54" x2="108" y2="54" style="stroke:#ddd;stroke-width:2;stroke-dasharray:3 3" />
<line x1="55" y1="1" x2="55" y2="108" style="stroke:#ddd;stroke-width:2;stroke-dasharray:3 3" />
<path d="M14.62,21.88c1.5,2,4.62,3.62,8.5,2.5s8.12-2.25,14.12-4.38s6.53-0.1,3.38,4.25c-7.88,10.88-18,22.75-27.5,35.25C5.63,69.36,2.44,70.82,16.0,61.75c17.38-11.62,46.62-14,46.62,8.12c0,15.62-16,22.5-32.12,25.12" style="fill:none;stroke:black;stroke-width:3" />
<circle cx="14.62" cy="21.88" r="5" stroke-width="0" fill="#FF2A00" opacity="0.7" />
</svg>