<svg width="109px" height="109px" viewBox="0 0 109px 109px" xmlns="http://www.w3.org/2000/svg" xmlns:xlink="http://www.w3.org/1999/xlink" xml:space="preserve" version="1.1"  baseProfile="full">
<line x1="1" y1="1" x2="108" y2="1" style="stroke:#ddd;stroke-width:2" />
<line x1="1" y1="1" x2="1" y2="108" style="stroke:#ddd;stroke-width:2" />
<line x1="1" y1="108" x2="108" y2="108" style="stroke:#ddd;stroke-width:2" />
<line x1="108" y1="1" x2="108" y2="108" style="stroke:#ddd;stroke-width:2" />
<line x1="1" y1="54" x2="108" y2="54" style="stroke:#ddd;stroke-width:2;stroke-dasharray:3 3" />
<line x1="55" y1="1" x2="55" y2="108" style="stroke:#ddd;stroke-width:2;stroke-dasharray:3 3" />
<path d="M45.38,16.5c0.75,1.75,1.13,5.83-0.38,8.25C38.0,36,17.78,68.22,11.12,79.12c-9,14.75-7.62,16.25,1.5,1.25c17.86-29.36,32-23.76,32-6.75c0,25,19,26.5,34.25-5" style="fill:none;stroke:black;stroke-width:3" />
<circle cx="45.38" cy="16.5" r="5" stroke-width="0" fill="#FF2A00" opacity="0.7" />
</svg>