<svg width="327px" height="109px" viewBox="0 0 327px 109px" xmlns="http://www.w3.org/2000/svg" xmlns:xlink="http://www.w3.org/1999/xlink" xml:space="preserve" version="1.1"  baseProfile="full">
<line x1="1" y1="1" x2="326" y2="1" style="stroke:#ddd;stroke-width:2" />
<line x1="1" y1="1" x2="1" y2="108" style="stroke:#ddd;stroke-width:2" />
<line x1="1" y1="108" x2="326" y2="108" style="stroke:#ddd;stroke-width:2" />
<line x1="326" y1="1" x2="326" y2="108" style="stroke:#ddd;stroke-width:2" />
<line x1="109" y1="1" x2="109" y2="108" style="stroke:#ddd;stroke-width:2" />
<line x1="218" y1="1" x2="218" y2="108" style="stroke:#ddd;stroke-width:2" />
<line x1="1" y1="54" x2="326" y2="54" style="stroke:#ddd;stroke-width:2;stroke-dasharray:3 3" />
<line x1="55" y1="1" x2="55" y2="108" style="stroke:#ddd;stroke-width:2;stroke-dasharray:3 3" />
<line x1="164" y1="1" x2="164" y2="108" style="stroke:#ddd;stroke-width:2;stroke-dasharray:3 3" />
<line x1="273" y1="1" x2="273" y2="108" style="stroke:#ddd;stroke-width:2;stroke-dasharray:3 3" />
<path d="M17.15,50.39c1.73,1.5,4.29,2.15,7.97,0.92c23.56-7.85,27.25-3.81,27.25,7.04c0,8.66-1.15,16.13-3.93,23.33C41.4,99.93,38.4,97.74,33.54,91.73" style="fill:none;stroke:black;stroke-width:3" />
<circle cx="17.15" cy="50.39" r="5" stroke-width="0" fill="#FF2A00" opacity="0.7" />
<path d="M126.15,50.39c1.73,1.5,4.29,2.15,7.97,0.92c23.56-7.85,27.25-3.81,27.25,7.04c0,8.66-1.15,16.13-3.93,23.33C150.4,99.93,147.4,97.74,142.54,91.73" style="fill:none;stroke:#999;stroke-width:3" />
<path d="M148.2,30.88c0.92,1.27,1.2,4.34,0.46,6.58c-4.62,14.09-16.65,37.81-18.13,40.53C127.65,83.3,124.65,88.96,121.88,93" style="fill:none;stroke:black;stroke-width:3" />
<circle cx="148.2" cy="30.88" r="5" stroke-width="0" fill="#FF2A00" opacity="0.7" />
<path d="M235.15,50.39c1.73,1.5,4.29,2.15,7.97,0.92c23.56-7.85,27.25-3.81,27.25,7.04c0,8.66-1.15,16.13-3.93,23.33C259.4,99.93,256.4,97.74,251.54,91.73" style="fill:none;stroke:#999;stroke-width:3" />
<path d="M257.2,30.88c0.92,1.27,1.2,4.34,0.46,6.58c-4.62,14.09-16.65,37.81-18.13,40.53C236.65,83.3,233.65,88.96,230.88,93" style="fill:none;stroke:#999;stroke-width:3" />
<path d="M283.88,43.92c6.93,6.35,12.24,14.55,13.86,22.98" style="fill:none;stroke:black;stroke-width:3" />
<circle cx="283.88" cy="43.92" r="5" stroke-width="0" fill="#FF2A00" opacity="0.7" />
</svg>