<svg width="218px" height="109px" viewBox="0 0 218px 109px" xmlns="http://www.w3.org/2000/svg" xmlns:xlink="http://www.w3.org/1999/xlink" xml:space="preserve" version="1.1"  baseProfile="full">
<line x1="1" y1="1" x2="217" y2="1" style="stroke:#ddd;stroke-width:2" />
<line x1="1" y1="1" x2="1" y2="108" style="stroke:#ddd;stroke-width:2" />
<line x1="1" y1="108" x2="217" y2="108" style="stroke:#ddd;stroke-width:2" />
<line x1="217" y1="1" x2="217" y2="108" style="stroke:#ddd;stroke-width:2" />
<line x1="109" y1="1" x2="109" y2="108" style="stroke:#ddd;stroke-width:2" />
<line x1="1" y1="54" x2="217" y2="54" style="stroke:#ddd;stroke-width:2;stroke-dasharray:3 3" />
<line x1="55" y1="1" x2="55" y2="108" style="stroke:#ddd;stroke-width:2;stroke-dasharray:3 3" />
<line x1="164" y1="1" x2="164" y2="108" style="stroke:#ddd;stroke-width:2;stroke-dasharray:3 3" />
<path d="M28.25,14.75c1.5,1.38,2.22,3.73,2,6.38C29.25,33,27.5,65.62,27.5,74s-0.62,16.62-0.62,19.5" style="fill:none;stroke:black;stroke-width:3" />
<circle cx="28.25" cy="14.75" r="5" stroke-width="0" fill="#FF2A00" opacity="0.7" />
<path d="M137.25,14.75c1.5,1.38,2.22,3.73,2,6.38C138.25,33,136.5,65.62,136.5,74s-0.62,16.62-0.62,19.5" style="fill:none;stroke:#999;stroke-width:3" />
<path d="M116.25,40.75c2.12,1.38,3.68,1.3,7.5,0c5.88-2,9.8-3.16,16.25-6c4.25-1.88,6.12,0,2.75,4c-6.72,7.96-13,16.5-22.12,27.88c-7.75,9.66-7.54,12.21,3,2.88c21.88-19.38,49.75-35.62,63.5-21c14.36,15.27,1.62,36.62-23.38,42.62" style="fill:none;stroke:black;stroke-width:3" />
<circle cx="116.25" cy="40.75" r="5" stroke-width="0" fill="#FF2A00" opacity="0.7" />
</svg>