<svg width="218px" height="109px" viewBox="0 0 218px 109px" xmlns="http://www.w3.org/2000/svg" xmlns:xlink="http://www.w3.org/1999/xlink" xml:space="preserve" version="1.1"  baseProfile="full">
<line x1="1" y1="1" x2="217" y2="1" style="stroke:#ddd;stroke-width:2" />
<line x1="1" y1="1" x2="1" y2="108" style="stroke:#ddd;stroke-width:2" />
<line x1="1" y1="108" x2="217" y2="108" style="stroke:#ddd;stroke-width:2" />
<line x1="217" y1="1" x2="217" y2="108" style="stroke:#ddd;stroke-width:2" />
<line x1="109" y1="1" x2="109" y2="108" style="stroke:#ddd;stroke-width:2" />
<line x1="1" y1="54" x2="217" y2="54" style="stroke:#ddd;stroke-width:2;stroke-dasharray:3 3" />
<line x1="55" y1="1" x2="55" y2="108" style="stroke:#ddd;stroke-width:2;stroke-dasharray:3 3" />
<line x1="164" y1="1" x2="164" y2="108" style="stroke:#ddd;stroke-width:2;stroke-dasharray:3 3" />
<path d="M45.25,32.78c0.1,1.39-0.27,3.07-1.28,4.37C35.99,47.39,25.25,60.7,8.0,71.23" style="fill:none;stroke:black;stroke-width:3" />
<circle cx="45.25" cy="32.78" r="5" stroke-width="0" fill="#FF2A00" opacity="0.7" />
<path d="M154.25,32.78c0.1,1.39-0.27,3.07-1.28,4.37C144.99,47.39,134.25,60.7,117.0,71.23" style="fill:none;stroke:#999;stroke-width:3" />
<path d="M143.69,54.22c0.81,0.92,1.02,2.46,1.02,3.79c0,1.33,0,26.33,0,27.87c0,1.54-0.1,7.48-0.1,9.63" style="fill:none;stroke:black;stroke-width:3" />
<circle cx="143.69" cy="54.22" r="5" stroke-width="0" fill="#FF2A00" opacity="0.7" />
</svg>