<svg width="218px" height="109px" viewBox="0 0 218px 109px" xmlns="http://www.w3.org/2000/svg" xmlns:xlink="http://www.w3.org/1999/xlink" xml:space="preserve" version="1.1"  baseProfile="full">
<line x1="1" y1="1" x2="217" y2="1" style="stroke:#ddd;stroke-width:2" />
<line x1="1" y1="1" x2="1" y2="108" style="stroke:#ddd;stroke-width:2" />
<line x1="1" y1="108" x2="217" y2="108" style="stroke:#ddd;stroke-width:2" />
<line x1="217" y1="1" x2="217" y2="108" style="stroke:#ddd;stroke-width:2" />
<line x1="109" y1="1" x2="109" y2="108" style="stroke:#ddd;stroke-width:2" />
<line x1="1" y1="54" x2="217" y2="54" style="stroke:#ddd;stroke-width:2;stroke-dasharray:3 3" />
<line x1="55" y1="1" x2="55" y2="108" style="stroke:#ddd;stroke-width:2;stroke-dasharray:3 3" />
<line x1="164" y1="1" x2="164" y2="108" style="stroke:#ddd;stroke-width:2;stroke-dasharray:3 3" />
<path d="M28.75,19.62c0.38,1.5,0.34,3.48-0.5,5.12c-4.12,8.12-7.88,15.5-16.12,24.12" style="fill:none;stroke:black;stroke-width:3" />
<circle cx="28.75" cy="19.62" r="5" stroke-width="0" fill="#FF2A00" opacity="0.7" />
<path d="M137.75,19.62c0.38,1.5,0.34,3.48-0.5,5.12c-4.12,8.12-7.88,15.5-16.12,24.12" style="fill:none;stroke:#999;stroke-width:3" />
<path d="M139.0,28.62c2.62,0.25,5.67-0.39,7.62-0.88c6-1.5,9.75-2.38,15.12-3.88c5.79-1.62,7.53-0.42,5.12,4.88C156.5,51.62,140.62,72.88,118.25,89.25" style="fill:none;stroke:black;stroke-width:3" />
<circle cx="139.0" cy="28.62" r="5" stroke-width="0" fill="#FF2A00" opacity="0.7" />
</svg>