<svg width="545px" height="109px" viewBox="0 0 545px 109px" xmlns="http://www.w3.org/2000/svg" xmlns:xlink="http://www.w3.org/1999/xlink" xml:space="preserve" version="1.1"  baseProfile="full">
<line x1="1" y1="1" x2="544" y2="1" style="stroke:#ddd;stroke-width:2" />
<line x1="1" y1="1" x2="1" y2="108" style="stroke:#ddd;stroke-width:2" />
<line x1="1" y1="108" x2="544" y2="108" style="stroke:#ddd;stroke-width:2" />
<line x1="544" y1="1" x2="544" y2="108" style="stroke:#ddd;stroke-width:2" />
<line x1="109" y1="1" x2="109" y2="108" style="stroke:#ddd;stroke-width:2" />
<line x1="218" y1="1" x2="218" y2="108" style="stroke:#ddd;stroke-width:2" />
<line x1="327" y1="1" x2="327" y2="108" style="stroke:#ddd;stroke-width:2" />
<line x1="436" y1="1" x2="436" y2="108" style="stroke:#ddd;stroke-width:2" />
<line x1="1" y1="54" x2="544" y2="54" style="stroke:#ddd;stroke-width:2;stroke-dasharray:3 3" />
<line x1="55" y1="1" x2="55" y2="108" style="stroke:#ddd;stroke-width:2;stroke-dasharray:3 3" />
<line x1="164" y1="1" x2="164" y2="108" style="stroke:#ddd;stroke-width:2;stroke-dasharray:3 3" />
<line x1="273" y1="1" x2="273" y2="108" style="stroke:#ddd;stroke-width:2;stroke-dasharray:3 3" />
<line x1="382" y1="1" x2="382" y2="108" style="stroke:#ddd;stroke-width:2;stroke-dasharray:3 3" />
<line x1="491" y1="1" x2="491" y2="108" style="stroke:#ddd;stroke-width:2;stroke-dasharray:3 3" />
<path d="M19.62,19.75c5.14,1.57,9.79,6.01,11.5,8.62" style="fill:none;stroke:black;stroke-width:3" />
<circle cx="19.62" cy="19.75" r="5" stroke-width="0" fill="#FF2A00" opacity="0.7" />
<path d="M128.62,19.75c5.14,1.57,9.79,6.01,11.5,8.62" style="fill:none;stroke:#999;stroke-width:3" />
<path d="M114.75,42.62C118.0,43.5,125.0,48.12,127.0,50.75" style="fill:none;stroke:black;stroke-width:3" />
<circle cx="114.75" cy="42.62" r="5" stroke-width="0" fill="#FF2A00" opacity="0.7" />
<path d="M237.62,19.75c5.14,1.57,9.79,6.01,11.5,8.62" style="fill:none;stroke:#999;stroke-width:3" />
<path d="M223.75,42.62C227.0,43.5,234.0,48.12,236.0,50.75" style="fill:none;stroke:#999;stroke-width:3" />
<path d="M230.75,85c3.62,1.62,6.5,0.88,10.38-1.38C258.94,73.28,273.5,59.75,287.25,40.75" style="fill:none;stroke:black;stroke-width:3" />
<circle cx="230.75" cy="85.0" r="5" stroke-width="0" fill="#FF2A00" opacity="0.7" />
<path d="M346.62,19.75c5.14,1.57,9.79,6.01,11.5,8.62" style="fill:none;stroke:#999;stroke-width:3" />
<path d="M332.75,42.62C336.0,43.5,343.0,48.12,345.0,50.75" style="fill:none;stroke:#999;stroke-width:3" />
<path d="M339.75,85c3.62,1.62,6.5,0.88,10.38-1.38C367.94,73.28,382.5,59.75,396.25,40.75" style="fill:none;stroke:#999;stroke-width:3" />
<path d="M385.25,18.98c2.85,1.78,6.21,5.47,8.03,8.65" style="fill:none;stroke:black;stroke-width:3" />
<circle cx="385.25" cy="18.98" r="5" stroke-width="0" fill="#FF2A00" opacity="0.7" />
<path d="M455.62,19.75c5.14,1.57,9.79,6.01,11.5,8.62" style="fill:none;stroke:#999;stroke-width:3" />
<path d="M441.75,42.62C445.0,43.5,452.0,48.12,454.0,50.75" style="fill:none;stroke:#999;stroke-width:3" />
<path d="M448.75,85c3.62,1.62,6.5,0.88,10.38-1.38C476.94,73.28,491.5,59.75,505.25,40.75" style="fill:none;stroke:#999;stroke-width:3" />
<path d="M494.25,18.98c2.85,1.78,6.21,5.47,8.03,8.65" style="fill:none;stroke:#999;stroke-width:3" />
<path d="M501.0,14.38c2.93,1.57,6.39,4.83,8.25,7.63" style="fill:none;stroke:black;stroke-width:3" />
<circle cx="501.0" cy="14.38" r="5" stroke-width="0" fill="#FF2A00" opacity="0.7" />
</svg>