<svg width="327px" height="109px" viewBox="0 0 327px 109px" xmlns="http://www.w3.org/2000/svg" xmlns:xlink="http://www.w3.org/1999/xlink" xml:space="preserve" version="1.1"  baseProfile="full">
<line x1="1" y1="1" x2="326" y2="1" style="stroke:#ddd;stroke-width:2" />
<line x1="1" y1="1" x2="1" y2="108" style="stroke:#ddd;stroke-width:2" />
<line x1="1" y1="108" x2="326" y2="108" style="stroke:#ddd;stroke-width:2" />
<line x1="326" y1="1" x2="326" y2="108" style="stroke:#ddd;stroke-width:2" />
<line x1="109" y1="1" x2="109" y2="108" style="stroke:#ddd;stroke-width:2" />
<line x1="218" y1="1" x2="218" y2="108" style="stroke:#ddd;stroke-width:2" />
<line x1="1" y1="54" x2="326" y2="54" style="stroke:#ddd;stroke-width:2;stroke-dasharray:3 3" />
<line x1="55" y1="1" x2="55" y2="108" style="stroke:#ddd;stroke-width:2;stroke-dasharray:3 3" />
<line x1="164" y1="1" x2="164" y2="108" style="stroke:#ddd;stroke-width:2;stroke-dasharray:3 3" />
<line x1="273" y1="1" x2="273" y2="108" style="stroke:#ddd;stroke-width:2;stroke-dasharray:3 3" />
<path d="M22.5,21.5c2.12,1.25,4.38,1.59,7.25,1.25c10.62-1.25,16.88-2.25,24.62-3.25C58.1,19.02,60.0,19,62.5,19.25" style="fill:none;stroke:black;stroke-width:3" />
<circle cx="22.5" cy="21.5" r="5" stroke-width="0" fill="#FF2A00" opacity="0.7" />
<path d="M131.5,21.5c2.12,1.25,4.38,1.59,7.25,1.25c10.62-1.25,16.88-2.25,24.62-3.25C167.1,19.02,169.0,19,171.5,19.25" style="fill:none;stroke:#999;stroke-width:3" />
<path d="M115.0,44.12c2.88,1,5.26,1.05,7.5,0.75c22.38-3,37-5.62,54.13-6.12c5.62-0.16,7.75,0,10.38,0.62" style="fill:none;stroke:black;stroke-width:3" />
<circle cx="115.0" cy="44.12" r="5" stroke-width="0" fill="#FF2A00" opacity="0.7" />
<path d="M240.5,21.5c2.12,1.25,4.38,1.59,7.25,1.25c10.62-1.25,16.88-2.25,24.62-3.25C276.1,19.02,278.0,19,280.5,19.25" style="fill:none;stroke:#999;stroke-width:3" />
<path d="M224.0,44.12c2.88,1,5.26,1.05,7.5,0.75c22.38-3,37-5.62,54.13-6.12c5.62-0.16,7.75,0,10.38,0.62" style="fill:none;stroke:#999;stroke-width:3" />
<path d="M262.0,43.25c0.88,1,1.32,2.63,1.12,4.38C261.38,63,251.5,82.62,238.5,89.5" style="fill:none;stroke:black;stroke-width:3" />
<circle cx="262.0" cy="43.25" r="5" stroke-width="0" fill="#FF2A00" opacity="0.7" />
</svg>