<svg width="436px" height="109px" viewBox="0 0 436px 109px" xmlns="http://www.w3.org/2000/svg" xmlns:xlink="http://www.w3.org/1999/xlink" xml:space="preserve" version="1.1"  baseProfile="full">
<line x1="1" y1="1" x2="435" y2="1" style="stroke:#ddd;stroke-width:2" />
<line x1="1" y1="1" x2="1" y2="108" style="stroke:#ddd;stroke-width:2" />
<line x1="1" y1="108" x2="435" y2="108" style="stroke:#ddd;stroke-width:2" />
<line x1="435" y1="1" x2="435" y2="108" style="stroke:#ddd;stroke-width:2" />
<line x1="109" y1="1" x2="109" y2="108" style="stroke:#ddd;stroke-width:2" />
<line x1="218" y1="1" x2="218" y2="108" style="stroke:#ddd;stroke-width:2" />
<line x1="327" y1="1" x2="327" y2="108" style="stroke:#ddd;stroke-width:2" />
<line x1="1" y1="54" x2="435" y2="54" style="stroke:#ddd;stroke-width:2;stroke-dasharray:3 3" />
<line x1="55" y1="1" x2="55" y2="108" style="stroke:#ddd;stroke-width:2;stroke-dasharray:3 3" />
<line x1="164" y1="1" x2="164" y2="108" style="stroke:#ddd;stroke-width:2;stroke-dasharray:3 3" />
<line x1="273" y1="1" x2="273" y2="108" style="stroke:#ddd;stroke-width:2;stroke-dasharray:3 3" />
<line x1="382" y1="1" x2="382" y2="108" style="stroke:#ddd;stroke-width:2;stroke-dasharray:3 3" />
<path d="M9.38,16.38c1.25,1.12,2.12,3.25,2.12,5.5c0,26.12,0,53.5,0,57.62s0,10.5,0,13.38" style="fill:none;stroke:black;stroke-width:3" />
<circle cx="9.38" cy="16.38" r="5" stroke-width="0" fill="#FF2A00" opacity="0.7" />
<path d="M118.38,16.38c1.25,1.12,2.12,3.25,2.12,5.5c0,26.12,0,53.5,0,57.62s0,10.5,0,13.38" style="fill:none;stroke:#999;stroke-width:3" />
<path d="M123.62,43.12c11.75,4.12,18.25,10.62,24.5,18.75" style="fill:none;stroke:black;stroke-width:3" />
<circle cx="123.62" cy="43.12" r="5" stroke-width="0" fill="#FF2A00" opacity="0.7" />
<path d="M227.38,16.38c1.25,1.12,2.12,3.25,2.12,5.5c0,26.12,0,53.5,0,57.62s0,10.5,0,13.38" style="fill:none;stroke:#999;stroke-width:3" />
<path d="M232.62,43.12c11.75,4.12,18.25,10.62,24.5,18.75" style="fill:none;stroke:#999;stroke-width:3" />
<path d="M250.25,26.75c2.75,1.75,6,5.38,7.75,8.5" style="fill:none;stroke:black;stroke-width:3" />
<circle cx="250.25" cy="26.75" r="5" stroke-width="0" fill="#FF2A00" opacity="0.7" />
<path d="M336.38,16.38c1.25,1.12,2.12,3.25,2.12,5.5c0,26.12,0,53.5,0,57.62s0,10.5,0,13.38" style="fill:none;stroke:#999;stroke-width:3" />
<path d="M341.62,43.12c11.75,4.12,18.25,10.62,24.5,18.75" style="fill:none;stroke:#999;stroke-width:3" />
<path d="M359.25,26.75c2.75,1.75,6,5.38,7.75,8.5" style="fill:none;stroke:#999;stroke-width:3" />
<path d="M365.62,21.88c3.06,1.57,6.68,4.82,8.62,7.62" style="fill:none;stroke:black;stroke-width:3" />
<circle cx="365.62" cy="21.88" r="5" stroke-width="0" fill="#FF2A00" opacity="0.7" />
</svg>