<svg width="218px" height="109px" viewBox="0 0 218px 109px" xmlns="http://www.w3.org/2000/svg" xmlns:xlink="http://www.w3.org/1999/xlink" xml:space="preserve" version="1.1"  baseProfile="full">
<line x1="1" y1="1" x2="217" y2="1" style="stroke:#ddd;stroke-width:2" />
<line x1="1" y1="1" x2="1" y2="108" style="stroke:#ddd;stroke-width:2" />
<line x1="1" y1="108" x2="217" y2="108" style="stroke:#ddd;stroke-width:2" />
<line x1="217" y1="1" x2="217" y2="108" style="stroke:#ddd;stroke-width:2" />
<line x1="109" y1="1" x2="109" y2="108" style="stroke:#ddd;stroke-width:2" />
<line x1="1" y1="54" x2="217" y2="54" style="stroke:#ddd;stroke-width:2;stroke-dasharray:3 3" />
<line x1="55" y1="1" x2="55" y2="108" style="stroke:#ddd;stroke-width:2;stroke-dasharray:3 3" />
<line x1="164" y1="1" x2="164" y2="108" style="stroke:#ddd;stroke-width:2;stroke-dasharray:3 3" />
<path d="M54.25,19.12c0.88,1.75,0.48,4.44-0.38,6.88c-7.75,22.12-21.75,47.62-45,62.88" style="fill:none;stroke:black;stroke-width:3" />
<circle cx="54.25" cy="19.12" r="5" stroke-width="0" fill="#FF2A00" opacity="0.7" />
<path d="M163.25,19.12c0.88,1.75,0.48,4.44-0.38,6.88c-7.75,22.12-21.75,47.62-45,62.88" style="fill:none;stroke:#999;stroke-width:3" />
<path d="M129.38,39.5c16.54,7.76,32.12,18,38.5,30.88" style="fill:none;stroke:black;stroke-width:3" />
<circle cx="129.38" cy="39.5" r="5" stroke-width="0" fill="#FF2A00" opacity="0.7" />
</svg>