<svg width="327px" height="109px" viewBox="0 0 327px 109px" xmlns="http://www.w3.org/2000/svg" xmlns:xlink="http://www.w3.org/1999/xlink" xml:space="preserve" version="1.1"  baseProfile="full">
<line x1="1" y1="1" x2="326" y2="1" style="stroke:#ddd;stroke-width:2" />
<line x1="1" y1="1" x2="1" y2="108" style="stroke:#ddd;stroke-width:2" />
<line x1="1" y1="108" x2="326" y2="108" style="stroke:#ddd;stroke-width:2" />
<line x1="326" y1="1" x2="326" y2="108" style="stroke:#ddd;stroke-width:2" />
<line x1="109" y1="1" x2="109" y2="108" style="stroke:#ddd;stroke-width:2" />
<line x1="218" y1="1" x2="218" y2="108" style="stroke:#ddd;stroke-width:2" />
<line x1="1" y1="54" x2="326" y2="54" style="stroke:#ddd;stroke-width:2;stroke-dasharray:3 3" />
<line x1="55" y1="1" x2="55" y2="108" style="stroke:#ddd;stroke-width:2;stroke-dasharray:3 3" />
<line x1="164" y1="1" x2="164" y2="108" style="stroke:#ddd;stroke-width:2;stroke-dasharray:3 3" />
<line x1="273" y1="1" x2="273" y2="108" style="stroke:#ddd;stroke-width:2;stroke-dasharray:3 3" />
<path d="M10.83,35.44c12.15,6.96,26.51,21.39,34.25,33.81" style="fill:none;stroke:black;stroke-width:3" />
<circle cx="10.83" cy="35.44" r="5" stroke-width="0" fill="#FF2A00" opacity="0.7" />
<path d="M119.83,35.44c12.15,6.96,26.51,21.39,34.25,33.81" style="fill:none;stroke:#999;stroke-width:3" />
<path d="M148.59,34.43c3.56,1.82,7.76,5.58,10.02,8.82" style="fill:none;stroke:black;stroke-width:3" />
<circle cx="148.59" cy="34.43" r="5" stroke-width="0" fill="#FF2A00" opacity="0.7" />
<path d="M228.82999999999998,35.44c12.15,6.96,26.51,21.39,34.25,33.81" style="fill:none;stroke:#999;stroke-width:3" />
<path d="M257.59000000000003,34.43c3.56,1.82,7.76,5.58,10.02,8.82" style="fill:none;stroke:#999;stroke-width:3" />
<path d="M266.84000000000003,25.61c3.7,1.66,8.06,5.09,10.41,8.05" style="fill:none;stroke:black;stroke-width:3" />
<circle cx="266.84000000000003" cy="25.61" r="5" stroke-width="0" fill="#FF2A00" opacity="0.7" />
</svg>