<svg width="1090px" height="109px" viewBox="0 0 1090px 109px" xmlns="http://www.w3.org/2000/svg" xmlns:xlink="http://www.w3.org/1999/xlink" xml:space="preserve" version="1.1"  baseProfile="full">
<line x1="1" y1="1" x2="1089" y2="1" style="stroke:#ddd;stroke-width:2" />
<line x1="1" y1="1" x2="1" y2="108" style="stroke:#ddd;stroke-width:2" />
<line x1="1" y1="108" x2="1089" y2="108" style="stroke:#ddd;stroke-width:2" />
<line x1="1089" y1="1" x2="1089" y2="108" style="stroke:#ddd;stroke-width:2" />
<line x1="109" y1="1" x2="109" y2="108" style="stroke:#ddd;stroke-width:2" />
<line x1="218" y1="1" x2="218" y2="108" style="stroke:#ddd;stroke-width:2" />
<line x1="327" y1="1" x2="327" y2="108" style="stroke:#ddd;stroke-width:2" />
<line x1="436" y1="1" x2="436" y2="108" style="stroke:#ddd;stroke-width:2" />
<line x1="545" y1="1" x2="545" y2="108" style="stroke:#ddd;stroke-width:2" />
<line x1="654" y1="1" x2="654" y2="108" style="stroke:#ddd;stroke-width:2" />
<line x1="763" y1="1" x2="763" y2="108" style="stroke:#ddd;stroke-width:2" />
<line x1="872" y1="1" x2="872" y2="108" style="stroke:#ddd;stroke-width:2" />
<line x1="981" y1="1" x2="981" y2="108" style="stroke:#ddd;stroke-width:2" />
<line x1="1" y1="54" x2="1089" y2="54" style="stroke:#ddd;stroke-width:2;stroke-dasharray:3 3" />
<line x1="55" y1="1" x2="55" y2="108" style="stroke:#ddd;stroke-width:2;stroke-dasharray:3 3" />
<line x1="164" y1="1" x2="164" y2="108" style="stroke:#ddd;stroke-width:2;stroke-dasharray:3 3" />
<line x1="273" y1="1" x2="273" y2="108" style="stroke:#ddd;stroke-width:2;stroke-dasharray:3 3" />
<line x1="382" y1="1" x2="382" y2="108" style="stroke:#ddd;stroke-width:2;stroke-dasharray:3 3" />
<line x1="491" y1="1" x2="491" y2="108" style="stroke:#ddd;stroke-width:2;stroke-dasharray:3 3" />
<line x1="600" y1="1" x2="600" y2="108" style="stroke:#ddd;stroke-width:2;stroke-dasharray:3 3" />
<line x1="709" y1="1" x2="709" y2="108" style="stroke:#ddd;stroke-width:2;stroke-dasharray:3 3" />
<line x1="818" y1="1" x2="818" y2="108" style="stroke:#ddd;stroke-width:2;stroke-dasharray:3 3" />
<line x1="927" y1="1" x2="927" y2="108" style="stroke:#ddd;stroke-width:2;stroke-dasharray:3 3" />
<line x1="1036" y1="1" x2="1036" y2="108" style="stroke:#ddd;stroke-width:2;stroke-dasharray:3 3" />
<path d="M20.91,15.63c0,3.48-3.03,13.05-4.41,15.37" style="fill:none;stroke:black;stroke-width:3" />
<circle cx="20.91" cy="15.63" r="5" stroke-width="0" fill="#FF2A00" opacity="0.7" />
<path d="M129.91,15.63c0,3.48-3.03,13.05-4.41,15.37" style="fill:none;stroke:#999;stroke-width:3" />
<path d="M130.24,17.24c9.51-0.99,56.24-2.53,63.95-2.9c12.05-0.59,2.55,7.16-0.45,9.28" style="fill:none;stroke:black;stroke-width:3" />
<circle cx="130.24" cy="17.24" r="5" stroke-width="0" fill="#FF2A00" opacity="0.7" />
<path d="M238.91,15.63c0,3.48-3.03,13.05-4.41,15.37" style="fill:none;stroke:#999;stroke-width:3" />
<path d="M239.24,17.24c9.51-0.99,56.24-2.53,63.95-2.9c12.05-0.59,2.55,7.16-0.45,9.28" style="fill:none;stroke:#999;stroke-width:3" />
<path d="M261.4,22.15c0.04,0.48,0.09,1.25-0.08,1.94c-1.02,4.1-6.84,13.09-14.82,18.6" style="fill:none;stroke:black;stroke-width:3" />
<circle cx="261.4" cy="22.15" r="5" stroke-width="0" fill="#FF2A00" opacity="0.7" />
<path d="M347.90999999999997,15.63c0,3.48-3.03,13.05-4.41,15.37" style="fill:none;stroke:#999;stroke-width:3" />
<path d="M348.24,17.24c9.51-0.99,56.24-2.53,63.95-2.9c12.05-0.59,2.55,7.16-0.45,9.28" style="fill:none;stroke:#999;stroke-width:3" />
<path d="M370.4,22.15c0.04,0.48,0.09,1.25-0.08,1.94c-1.02,4.1-6.84,13.09-14.82,18.6" style="fill:none;stroke:#999;stroke-width:3" />
<path d="M368.83,30.04c2.69,0,18.69-2.44,21.52-2.65c2.43-0.18,3.12,1.91,2.17,2.9C388.0,35,384.0,39.5,380.0,45.19" style="fill:none;stroke:black;stroke-width:3" />
<circle cx="368.83" cy="30.04" r="5" stroke-width="0" fill="#FF2A00" opacity="0.7" />
<path d="M456.90999999999997,15.63c0,3.48-3.03,13.05-4.41,15.37" style="fill:none;stroke:#999;stroke-width:3" />
<path d="M457.24,17.24c9.51-0.99,56.24-2.53,63.95-2.9c12.05-0.59,2.55,7.16-0.45,9.28" style="fill:none;stroke:#999;stroke-width:3" />
<path d="M479.4,22.15c0.04,0.48,0.09,1.25-0.08,1.94c-1.02,4.1-6.84,13.09-14.82,18.6" style="fill:none;stroke:#999;stroke-width:3" />
<path d="M477.83,30.04c2.69,0,18.69-2.44,21.52-2.65c2.43-0.18,3.12,1.91,2.17,2.9C497.0,35,493.0,39.5,489.0,45.19" style="fill:none;stroke:#999;stroke-width:3" />
<path d="M458.19,48.28c0.57,0.43,1.15,0.79,1.4,1.33c1.97,4.26,2.6,10.92,3.94,18.56" style="fill:none;stroke:black;stroke-width:3" />
<circle cx="458.19" cy="48.28" r="5" stroke-width="0" fill="#FF2A00" opacity="0.7" />
<path d="M565.91,15.63c0,3.48-3.03,13.05-4.41,15.37" style="fill:none;stroke:#999;stroke-width:3" />
<path d="M566.24,17.24c9.51-0.99,56.24-2.53,63.95-2.9c12.05-0.59,2.55,7.16-0.45,9.28" style="fill:none;stroke:#999;stroke-width:3" />
<path d="M588.4,22.15c0.04,0.48,0.09,1.25-0.08,1.94c-1.02,4.1-6.84,13.09-14.82,18.6" style="fill:none;stroke:#999;stroke-width:3" />
<path d="M586.8299999999999,30.04c2.69,0,18.69-2.44,21.52-2.65c2.43-0.18,3.12,1.91,2.17,2.9C606.0,35,602.0,39.5,598.0,45.19" style="fill:none;stroke:#999;stroke-width:3" />
<path d="M567.19,48.28c0.57,0.43,1.15,0.79,1.4,1.33c1.97,4.26,2.6,10.92,3.94,18.56" style="fill:none;stroke:#999;stroke-width:3" />
<path d="M570.73,49.74c13.89-1.79,45.17-4.54,52.34-5.15c2.62-0.22,4.19,2.22,3.82,3.52c-1.55,5.36-3.14,10.89-4.78,15.47" style="fill:none;stroke:black;stroke-width:3" />
<circle cx="570.73" cy="49.74" r="5" stroke-width="0" fill="#FF2A00" opacity="0.7" />
<path d="M674.91,15.63c0,3.48-3.03,13.05-4.41,15.37" style="fill:none;stroke:#999;stroke-width:3" />
<path d="M675.24,17.24c9.51-0.99,56.24-2.53,63.95-2.9c12.05-0.59,2.55,7.16-0.45,9.28" style="fill:none;stroke:#999;stroke-width:3" />
<path d="M697.4,22.15c0.04,0.48,0.09,1.25-0.08,1.94c-1.02,4.1-6.84,13.09-14.82,18.6" style="fill:none;stroke:#999;stroke-width:3" />
<path d="M695.8299999999999,30.04c2.69,0,18.69-2.44,21.52-2.65c2.43-0.18,3.12,1.91,2.17,2.9C715.0,35,711.0,39.5,707.0,45.19" style="fill:none;stroke:#999;stroke-width:3" />
<path d="M676.19,48.28c0.57,0.43,1.15,0.79,1.4,1.33c1.97,4.26,2.6,10.92,3.94,18.56" style="fill:none;stroke:#999;stroke-width:3" />
<path d="M679.73,49.74c13.89-1.79,45.17-4.54,52.34-5.15c2.62-0.22,4.19,2.22,3.82,3.52c-1.55,5.36-3.14,10.89-4.78,15.47" style="fill:none;stroke:#999;stroke-width:3" />
<path d="M682.66,66.34c5.62-0.46,42.2-3.88,48.38-4.11" style="fill:none;stroke:black;stroke-width:3" />
<circle cx="682.66" cy="66.34" r="5" stroke-width="0" fill="#FF2A00" opacity="0.7" />
<path d="M783.91,15.63c0,3.48-3.03,13.05-4.41,15.37" style="fill:none;stroke:#999;stroke-width:3" />
<path d="M784.24,17.24c9.51-0.99,56.24-2.53,63.95-2.9c12.05-0.59,2.55,7.16-0.45,9.28" style="fill:none;stroke:#999;stroke-width:3" />
<path d="M806.4,22.15c0.04,0.48,0.09,1.25-0.08,1.94c-1.02,4.1-6.84,13.09-14.82,18.6" style="fill:none;stroke:#999;stroke-width:3" />
<path d="M804.8299999999999,30.04c2.69,0,18.69-2.44,21.52-2.65c2.43-0.18,3.12,1.91,2.17,2.9C824.0,35,820.0,39.5,816.0,45.19" style="fill:none;stroke:#999;stroke-width:3" />
<path d="M785.19,48.28c0.57,0.43,1.15,0.79,1.4,1.33c1.97,4.26,2.6,10.92,3.94,18.56" style="fill:none;stroke:#999;stroke-width:3" />
<path d="M788.73,49.74c13.89-1.79,45.17-4.54,52.34-5.15c2.62-0.22,4.19,2.22,3.82,3.52c-1.55,5.36-3.14,10.89-4.78,15.47" style="fill:none;stroke:#999;stroke-width:3" />
<path d="M791.66,66.34c5.62-0.46,42.2-3.88,48.38-4.11" style="fill:none;stroke:#999;stroke-width:3" />
<path d="M815.23,49.85c0.09,1.13,0.12,2.91-0.18,4.56c-2.02,11.16-11.2,35.66-31.38,44.5" style="fill:none;stroke:black;stroke-width:3" />
<circle cx="815.23" cy="49.85" r="5" stroke-width="0" fill="#FF2A00" opacity="0.7" />
<path d="M892.91,15.63c0,3.48-3.03,13.05-4.41,15.37" style="fill:none;stroke:#999;stroke-width:3" />
<path d="M893.24,17.24c9.51-0.99,56.24-2.53,63.95-2.9c12.05-0.59,2.55,7.16-0.45,9.28" style="fill:none;stroke:#999;stroke-width:3" />
<path d="M915.4,22.15c0.04,0.48,0.09,1.25-0.08,1.94c-1.02,4.1-6.84,13.09-14.82,18.6" style="fill:none;stroke:#999;stroke-width:3" />
<path d="M913.8299999999999,30.04c2.69,0,18.69-2.44,21.52-2.65c2.43-0.18,3.12,1.91,2.17,2.9C933.0,35,929.0,39.5,925.0,45.19" style="fill:none;stroke:#999;stroke-width:3" />
<path d="M894.19,48.28c0.57,0.43,1.15,0.79,1.4,1.33c1.97,4.26,2.6,10.92,3.94,18.56" style="fill:none;stroke:#999;stroke-width:3" />
<path d="M897.73,49.74c13.89-1.79,45.17-4.54,52.34-5.15c2.62-0.22,4.19,2.22,3.82,3.52c-1.55,5.36-3.14,10.89-4.78,15.47" style="fill:none;stroke:#999;stroke-width:3" />
<path d="M900.66,66.34c5.62-0.46,42.2-3.88,48.38-4.11" style="fill:none;stroke:#999;stroke-width:3" />
<path d="M924.23,49.85c0.09,1.13,0.12,2.91-0.18,4.56c-2.02,11.16-11.2,35.66-31.38,44.5" style="fill:none;stroke:#999;stroke-width:3" />
<path d="M925.99,65.48c0.74,0.96,1.33,2.1,1.38,3.59c0.2,6.64-0.53,13.48-0.53,18c0,10.55,8.9,9.76,17.67,9.76c9.25,0,15.34-1.36,16.64-2.13c2.75-1.62,2-2.43,2.25-5.28" style="fill:none;stroke:black;stroke-width:3" />
<circle cx="925.99" cy="65.48" r="5" stroke-width="0" fill="#FF2A00" opacity="0.7" />
<path d="M1001.91,15.63c0,3.48-3.03,13.05-4.41,15.37" style="fill:none;stroke:#999;stroke-width:3" />
<path d="M1002.24,17.24c9.51-0.99,56.24-2.53,63.95-2.9c12.05-0.59,2.55,7.16-0.45,9.28" style="fill:none;stroke:#999;stroke-width:3" />
<path d="M1024.4,22.15c0.04,0.48,0.09,1.25-0.08,1.94c-1.02,4.1-6.84,13.09-14.82,18.6" style="fill:none;stroke:#999;stroke-width:3" />
<path d="M1022.8299999999999,30.04c2.69,0,18.69-2.44,21.52-2.65c2.43-0.18,3.12,1.91,2.17,2.9C1042.0,35,1038.0,39.5,1034.0,45.19" style="fill:none;stroke:#999;stroke-width:3" />
<path d="M1003.19,48.28c0.57,0.43,1.15,0.79,1.4,1.33c1.97,4.26,2.6,10.92,3.94,18.56" style="fill:none;stroke:#999;stroke-width:3" />
<path d="M1006.73,49.74c13.89-1.79,45.17-4.54,52.34-5.15c2.62-0.22,4.19,2.22,3.82,3.52c-1.55,5.36-3.14,10.89-4.78,15.47" style="fill:none;stroke:#999;stroke-width:3" />
<path d="M1009.66,66.34c5.62-0.46,42.2-3.88,48.38-4.11" style="fill:none;stroke:#999;stroke-width:3" />
<path d="M1033.23,49.85c0.09,1.13,0.12,2.91-0.18,4.56c-2.02,11.16-11.2,35.66-31.38,44.5" style="fill:none;stroke:#999;stroke-width:3" />
<path d="M1034.99,65.48c0.74,0.96,1.33,2.1,1.38,3.59c0.2,6.64-0.53,13.48-0.53,18c0,10.55,8.9,9.76,17.67,9.76c9.25,0,15.34-1.36,16.64-2.13c2.75-1.62,2-2.43,2.25-5.28" style="fill:none;stroke:#999;stroke-width:3" />
<path d="M1051.0,72.24c2.47,2.1,6.38,8.66,7,11.93" style="fill:none;stroke:black;stroke-width:3" />
<circle cx="1051.0" cy="72.24" r="5" stroke-width="0" fill="#FF2A00" opacity="0.7" />
</svg>