<svg width="1308px" height="109px" viewBox="0 0 1308px 109px" xmlns="http://www.w3.org/2000/svg" xmlns:xlink="http://www.w3.org/1999/xlink" xml:space="preserve" version="1.1"  baseProfile="full">
<line x1="1" y1="1" x2="1307" y2="1" style="stroke:#ddd;stroke-width:2" />
<line x1="1" y1="1" x2="1" y2="108" style="stroke:#ddd;stroke-width:2" />
<line x1="1" y1="108" x2="1307" y2="108" style="stroke:#ddd;stroke-width:2" />
<line x1="1307" y1="1" x2="1307" y2="108" style="stroke:#ddd;stroke-width:2" />
<line x1="109" y1="1" x2="109" y2="108" style="stroke:#ddd;stroke-width:2" />
<line x1="218" y1="1" x2="218" y2="108" style="stroke:#ddd;stroke-width:2" />
<line x1="327" y1="1" x2="327" y2="108" style="stroke:#ddd;stroke-width:2" />
<line x1="436" y1="1" x2="436" y2="108" style="stroke:#ddd;stroke-width:2" />
<line x1="545" y1="1" x2="545" y2="108" style="stroke:#ddd;stroke-width:2" />
<line x1="654" y1="1" x2="654" y2="108" style="stroke:#ddd;stroke-width:2" />
<line x1="763" y1="1" x2="763" y2="108" style="stroke:#ddd;stroke-width:2" />
<line x1="872" y1="1" x2="872" y2="108" style="stroke:#ddd;stroke-width:2" />
<line x1="981" y1="1" x2="981" y2="108" style="stroke:#ddd;stroke-width:2" />
<line x1="1090" y1="1" x2="1090" y2="108" style="stroke:#ddd;stroke-width:2" />
<line x1="1199" y1="1" x2="1199" y2="108" style="stroke:#ddd;stroke-width:2" />
<line x1="1" y1="54" x2="1307" y2="54" style="stroke:#ddd;stroke-width:2;stroke-dasharray:3 3" />
<line x1="55" y1="1" x2="55" y2="108" style="stroke:#ddd;stroke-width:2;stroke-dasharray:3 3" />
<line x1="164" y1="1" x2="164" y2="108" style="stroke:#ddd;stroke-width:2;stroke-dasharray:3 3" />
<line x1="273" y1="1" x2="273" y2="108" style="stroke:#ddd;stroke-width:2;stroke-dasharray:3 3" />
<line x1="382" y1="1" x2="382" y2="108" style="stroke:#ddd;stroke-width:2;stroke-dasharray:3 3" />
<line x1="491" y1="1" x2="491" y2="108" style="stroke:#ddd;stroke-width:2;stroke-dasharray:3 3" />
<line x1="600" y1="1" x2="600" y2="108" style="stroke:#ddd;stroke-width:2;stroke-dasharray:3 3" />
<line x1="709" y1="1" x2="709" y2="108" style="stroke:#ddd;stroke-width:2;stroke-dasharray:3 3" />
<line x1="818" y1="1" x2="818" y2="108" style="stroke:#ddd;stroke-width:2;stroke-dasharray:3 3" />
<line x1="927" y1="1" x2="927" y2="108" style="stroke:#ddd;stroke-width:2;stroke-dasharray:3 3" />
<line x1="1036" y1="1" x2="1036" y2="108" style="stroke:#ddd;stroke-width:2;stroke-dasharray:3 3" />
<line x1="1145" y1="1" x2="1145" y2="108" style="stroke:#ddd;stroke-width:2;stroke-dasharray:3 3" />
<line x1="1254" y1="1" x2="1254" y2="108" style="stroke:#ddd;stroke-width:2;stroke-dasharray:3 3" />
<path d="M20.13,18.73c2.49,0.53,4.99,0.68,7.5,0.44c15.14-0.93,40.05-3.16,55.24-3.99c2.68-0.27,5.35-0.14,8.01,0.39" style="fill:none;stroke:black;stroke-width:3" />
<circle cx="20.13" cy="18.73" r="5" stroke-width="0" fill="#FF2A00" opacity="0.7" />
<path d="M129.13,18.73c2.49,0.53,4.99,0.68,7.5,0.44c15.14-0.93,40.05-3.16,55.24-3.99c2.68-0.27,5.35-0.14,8.01,0.39" style="fill:none;stroke:#999;stroke-width:3" />
<path d="M131.5,19.75c0.81,0.81,1.18,1.9,1.18,4.36c0,20.14-2.18,50.64-12.87,67.36" style="fill:none;stroke:black;stroke-width:3" />
<circle cx="131.5" cy="19.75" r="5" stroke-width="0" fill="#FF2A00" opacity="0.7" />
<path d="M238.13,18.73c2.49,0.53,4.99,0.68,7.5,0.44c15.14-0.93,40.05-3.16,55.24-3.99c2.68-0.27,5.35-0.14,8.01,0.39" style="fill:none;stroke:#999;stroke-width:3" />
<path d="M240.5,19.75c0.81,0.81,1.18,1.9,1.18,4.36c0,20.14-2.18,50.64-12.87,67.36" style="fill:none;stroke:#999;stroke-width:3" />
<path d="M248.5,34.19c0.97,0.97,2,1.06,3.96,0.79c4.73-0.65,15.82-2.08,16.75-2.21c1.95-0.28,2.4,1.02,2.36,2.31c-0.14,5.05-1.35,15.57-2.15,22.15c-0.29,2.34-0.52,4.18-0.65,5.1" style="fill:none;stroke:black;stroke-width:3" />
<circle cx="248.5" cy="34.19" r="5" stroke-width="0" fill="#FF2A00" opacity="0.7" />
<path d="M347.13,18.73c2.49,0.53,4.99,0.68,7.5,0.44c15.14-0.93,40.05-3.16,55.24-3.99c2.68-0.27,5.35-0.14,8.01,0.39" style="fill:none;stroke:#999;stroke-width:3" />
<path d="M349.5,19.75c0.81,0.81,1.18,1.9,1.18,4.36c0,20.14-2.18,50.64-12.87,67.36" style="fill:none;stroke:#999;stroke-width:3" />
<path d="M357.5,34.19c0.97,0.97,2,1.06,3.96,0.79c4.73-0.65,15.82-2.08,16.75-2.21c1.95-0.28,2.4,1.02,2.36,2.31c-0.14,5.05-1.35,15.57-2.15,22.15c-0.29,2.34-0.52,4.18-0.65,5.1" style="fill:none;stroke:#999;stroke-width:3" />
<path d="M360.54,47.93c4.72-0.69,12.85-1.97,18.37-2.52" style="fill:none;stroke:black;stroke-width:3" />
<circle cx="360.54" cy="47.93" r="5" stroke-width="0" fill="#FF2A00" opacity="0.7" />
<path d="M456.13,18.73c2.49,0.53,4.99,0.68,7.5,0.44c15.14-0.93,40.05-3.16,55.24-3.99c2.68-0.27,5.35-0.14,8.01,0.39" style="fill:none;stroke:#999;stroke-width:3" />
<path d="M458.5,19.75c0.81,0.81,1.18,1.9,1.18,4.36c0,20.14-2.18,50.64-12.87,67.36" style="fill:none;stroke:#999;stroke-width:3" />
<path d="M466.5,34.19c0.97,0.97,2,1.06,3.96,0.79c4.73-0.65,15.82-2.08,16.75-2.21c1.95-0.28,2.4,1.02,2.36,2.31c-0.14,5.05-1.35,15.57-2.15,22.15c-0.29,2.34-0.52,4.18-0.65,5.1" style="fill:none;stroke:#999;stroke-width:3" />
<path d="M469.54,47.93c4.72-0.69,12.85-1.97,18.37-2.52" style="fill:none;stroke:#999;stroke-width:3" />
<path d="M469.46,61.39c3.5-0.38,12.25-1.56,17.21-2.11" style="fill:none;stroke:black;stroke-width:3" />
<circle cx="469.46" cy="61.39" r="5" stroke-width="0" fill="#FF2A00" opacity="0.7" />
<path d="M565.13,18.73c2.49,0.53,4.99,0.68,7.5,0.44c15.14-0.93,40.05-3.16,55.24-3.99c2.68-0.27,5.35-0.14,8.01,0.39" style="fill:none;stroke:#999;stroke-width:3" />
<path d="M567.5,19.75c0.81,0.81,1.18,1.9,1.18,4.36c0,20.14-2.18,50.64-12.87,67.36" style="fill:none;stroke:#999;stroke-width:3" />
<path d="M575.5,34.19c0.97,0.97,2,1.06,3.96,0.79c4.73-0.65,15.82-2.08,16.75-2.21c1.95-0.28,2.4,1.02,2.36,2.31c-0.14,5.05-1.35,15.57-2.15,22.15c-0.29,2.34-0.52,4.18-0.65,5.1" style="fill:none;stroke:#999;stroke-width:3" />
<path d="M578.54,47.93c4.72-0.69,12.85-1.97,18.37-2.52" style="fill:none;stroke:#999;stroke-width:3" />
<path d="M578.46,61.39c3.5-0.38,12.25-1.56,17.21-2.11" style="fill:none;stroke:#999;stroke-width:3" />
<path d="M576.5,34.94c0.72,0.4,1.05,1.8,1.05,2.62c0,6.07,0.14,47.06,0.14,51.24c0,3.7-0.2,4.2,2.84,1.88c4.29-3.28,10.96-8.3,14.34-10.93" style="fill:none;stroke:black;stroke-width:3" />
<circle cx="576.5" cy="34.94" r="5" stroke-width="0" fill="#FF2A00" opacity="0.7" />
<path d="M674.13,18.73c2.49,0.53,4.99,0.68,7.5,0.44c15.14-0.93,40.05-3.16,55.24-3.99c2.68-0.27,5.35-0.14,8.01,0.39" style="fill:none;stroke:#999;stroke-width:3" />
<path d="M676.5,19.75c0.81,0.81,1.18,1.9,1.18,4.36c0,20.14-2.18,50.64-12.87,67.36" style="fill:none;stroke:#999;stroke-width:3" />
<path d="M684.5,34.19c0.97,0.97,2,1.06,3.96,0.79c4.73-0.65,15.82-2.08,16.75-2.21c1.95-0.28,2.4,1.02,2.36,2.31c-0.14,5.05-1.35,15.57-2.15,22.15c-0.29,2.34-0.52,4.18-0.65,5.1" style="fill:none;stroke:#999;stroke-width:3" />
<path d="M687.54,47.93c4.72-0.69,12.85-1.97,18.37-2.52" style="fill:none;stroke:#999;stroke-width:3" />
<path d="M687.46,61.39c3.5-0.38,12.25-1.56,17.21-2.11" style="fill:none;stroke:#999;stroke-width:3" />
<path d="M685.5,34.94c0.72,0.4,1.05,1.8,1.05,2.62c0,6.07,0.14,47.06,0.14,51.24c0,3.7-0.2,4.2,2.84,1.88c4.29-3.28,10.96-8.3,14.34-10.93" style="fill:none;stroke:#999;stroke-width:3" />
<path d="M700.59,71.1c2.9,2.48,7.24,9.19,8.48,14.9" style="fill:none;stroke:black;stroke-width:3" />
<circle cx="700.59" cy="71.1" r="5" stroke-width="0" fill="#FF2A00" opacity="0.7" />
<path d="M783.13,18.73c2.49,0.53,4.99,0.68,7.5,0.44c15.14-0.93,40.05-3.16,55.24-3.99c2.68-0.27,5.35-0.14,8.01,0.39" style="fill:none;stroke:#999;stroke-width:3" />
<path d="M785.5,19.75c0.81,0.81,1.18,1.9,1.18,4.36c0,20.14-2.18,50.64-12.87,67.36" style="fill:none;stroke:#999;stroke-width:3" />
<path d="M793.5,34.19c0.97,0.97,2,1.06,3.96,0.79c4.73-0.65,15.82-2.08,16.75-2.21c1.95-0.28,2.4,1.02,2.36,2.31c-0.14,5.05-1.35,15.57-2.15,22.15c-0.29,2.34-0.52,4.18-0.65,5.1" style="fill:none;stroke:#999;stroke-width:3" />
<path d="M796.54,47.93c4.72-0.69,12.85-1.97,18.37-2.52" style="fill:none;stroke:#999;stroke-width:3" />
<path d="M796.46,61.39c3.5-0.38,12.25-1.56,17.21-2.11" style="fill:none;stroke:#999;stroke-width:3" />
<path d="M794.5,34.94c0.72,0.4,1.05,1.8,1.05,2.62c0,6.07,0.14,47.06,0.14,51.24c0,3.7-0.2,4.2,2.84,1.88c4.29-3.28,10.96-8.3,14.34-10.93" style="fill:none;stroke:#999;stroke-width:3" />
<path d="M809.59,71.1c2.9,2.48,7.24,9.19,8.48,14.9" style="fill:none;stroke:#999;stroke-width:3" />
<path d="M823.54,32.18c1.88,0.31,3.75,0.32,5.61,0.03c5.08-0.6,13.99-1.56,19.61-1.95c1.55-0.18,3.09-0.11,4.63,0.21" style="fill:none;stroke:black;stroke-width:3" />
<circle cx="823.54" cy="32.18" r="5" stroke-width="0" fill="#FF2A00" opacity="0.7" />
<path d="M892.13,18.73c2.49,0.53,4.99,0.68,7.5,0.44c15.14-0.93,40.05-3.16,55.24-3.99c2.68-0.27,5.35-0.14,8.01,0.39" style="fill:none;stroke:#999;stroke-width:3" />
<path d="M894.5,19.75c0.81,0.81,1.18,1.9,1.18,4.36c0,20.14-2.18,50.64-12.87,67.36" style="fill:none;stroke:#999;stroke-width:3" />
<path d="M902.5,34.19c0.97,0.97,2,1.06,3.96,0.79c4.73-0.65,15.82-2.08,16.75-2.21c1.95-0.28,2.4,1.02,2.36,2.31c-0.14,5.05-1.35,15.57-2.15,22.15c-0.29,2.34-0.52,4.18-0.65,5.1" style="fill:none;stroke:#999;stroke-width:3" />
<path d="M905.54,47.93c4.72-0.69,12.85-1.97,18.37-2.52" style="fill:none;stroke:#999;stroke-width:3" />
<path d="M905.46,61.39c3.5-0.38,12.25-1.56,17.21-2.11" style="fill:none;stroke:#999;stroke-width:3" />
<path d="M903.5,34.94c0.72,0.4,1.05,1.8,1.05,2.62c0,6.07,0.14,47.06,0.14,51.24c0,3.7-0.2,4.2,2.84,1.88c4.29-3.28,10.96-8.3,14.34-10.93" style="fill:none;stroke:#999;stroke-width:3" />
<path d="M918.59,71.1c2.9,2.48,7.24,9.19,8.48,14.9" style="fill:none;stroke:#999;stroke-width:3" />
<path d="M932.54,32.18c1.88,0.31,3.75,0.32,5.61,0.03c5.08-0.6,13.99-1.56,19.61-1.95c1.55-0.18,3.09-0.11,4.63,0.21" style="fill:none;stroke:#999;stroke-width:3" />
<path d="M929.59,56.45c1.53,0.55,3.52,0.37,5.27,0.11c7.38-0.8,18.76-1.94,27.39-2.7c1.92-0.17,3.85-0.02,5.77,0.17" style="fill:none;stroke:black;stroke-width:3" />
<circle cx="929.59" cy="56.45" r="5" stroke-width="0" fill="#FF2A00" opacity="0.7" />
<path d="M1001.13,18.73c2.49,0.53,4.99,0.68,7.5,0.44c15.14-0.93,40.05-3.16,55.24-3.99c2.68-0.27,5.35-0.14,8.01,0.39" style="fill:none;stroke:#999;stroke-width:3" />
<path d="M1003.5,19.75c0.81,0.81,1.18,1.9,1.18,4.36c0,20.14-2.18,50.64-12.87,67.36" style="fill:none;stroke:#999;stroke-width:3" />
<path d="M1011.5,34.19c0.97,0.97,2,1.06,3.96,0.79c4.73-0.65,15.82-2.08,16.75-2.21c1.95-0.28,2.4,1.02,2.36,2.31c-0.14,5.05-1.35,15.57-2.15,22.15c-0.29,2.34-0.52,4.18-0.65,5.1" style="fill:none;stroke:#999;stroke-width:3" />
<path d="M1014.54,47.93c4.72-0.69,12.85-1.97,18.37-2.52" style="fill:none;stroke:#999;stroke-width:3" />
<path d="M1014.46,61.39c3.5-0.38,12.25-1.56,17.21-2.11" style="fill:none;stroke:#999;stroke-width:3" />
<path d="M1012.5,34.94c0.72,0.4,1.05,1.8,1.05,2.62c0,6.07,0.14,47.06,0.14,51.24c0,3.7-0.2,4.2,2.84,1.88c4.29-3.28,10.96-8.3,14.34-10.93" style="fill:none;stroke:#999;stroke-width:3" />
<path d="M1027.5900000000001,71.1c2.9,2.48,7.24,9.19,8.48,14.9" style="fill:none;stroke:#999;stroke-width:3" />
<path d="M1041.54,32.18c1.88,0.31,3.75,0.32,5.61,0.03c5.08-0.6,13.99-1.56,19.61-1.95c1.55-0.18,3.09-0.11,4.63,0.21" style="fill:none;stroke:#999;stroke-width:3" />
<path d="M1038.5900000000001,56.45c1.53,0.55,3.52,0.37,5.27,0.11c7.38-0.8,18.76-1.94,27.39-2.7c1.92-0.17,3.85-0.02,5.77,0.17" style="fill:none;stroke:#999;stroke-width:3" />
<path d="M1045.92,34.27c0.71,1.19,0.99,2.44,0.82,3.74c-0.29,5.28-0.75,8.94-1.01,17.02" style="fill:none;stroke:black;stroke-width:3" />
<circle cx="1045.92" cy="34.27" r="5" stroke-width="0" fill="#FF2A00" opacity="0.7" />
<path d="M1110.13,18.73c2.49,0.53,4.99,0.68,7.5,0.44c15.14-0.93,40.05-3.16,55.24-3.99c2.68-0.27,5.35-0.14,8.01,0.39" style="fill:none;stroke:#999;stroke-width:3" />
<path d="M1112.5,19.75c0.81,0.81,1.18,1.9,1.18,4.36c0,20.14-2.18,50.64-12.87,67.36" style="fill:none;stroke:#999;stroke-width:3" />
<path d="M1120.5,34.19c0.97,0.97,2,1.06,3.96,0.79c4.73-0.65,15.82-2.08,16.75-2.21c1.95-0.28,2.4,1.02,2.36,2.31c-0.14,5.05-1.35,15.57-2.15,22.15c-0.29,2.34-0.52,4.18-0.65,5.1" style="fill:none;stroke:#999;stroke-width:3" />
<path d="M1123.54,47.93c4.72-0.69,12.85-1.97,18.37-2.52" style="fill:none;stroke:#999;stroke-width:3" />
<path d="M1123.46,61.39c3.5-0.38,12.25-1.56,17.21-2.11" style="fill:none;stroke:#999;stroke-width:3" />
<path d="M1121.5,34.94c0.72,0.4,1.05,1.8,1.05,2.62c0,6.07,0.14,47.06,0.14,51.24c0,3.7-0.2,4.2,2.84,1.88c4.29-3.28,10.96-8.3,14.34-10.93" style="fill:none;stroke:#999;stroke-width:3" />
<path d="M1136.5900000000001,71.1c2.9,2.48,7.24,9.19,8.48,14.9" style="fill:none;stroke:#999;stroke-width:3" />
<path d="M1150.54,32.18c1.88,0.31,3.75,0.32,5.61,0.03c5.08-0.6,13.99-1.56,19.61-1.95c1.55-0.18,3.09-0.11,4.63,0.21" style="fill:none;stroke:#999;stroke-width:3" />
<path d="M1147.5900000000001,56.45c1.53,0.55,3.52,0.37,5.27,0.11c7.38-0.8,18.76-1.94,27.39-2.7c1.92-0.17,3.85-0.02,5.77,0.17" style="fill:none;stroke:#999;stroke-width:3" />
<path d="M1154.92,34.27c0.71,1.19,0.99,2.44,0.82,3.74c-0.29,5.28-0.75,8.94-1.01,17.02" style="fill:none;stroke:#999;stroke-width:3" />
<path d="M1168.32,33.84c0.86,0.86,0.9,2.28,0.7,4.38c-1.66,16.76-7.68,42.7-23.92,57.03" style="fill:none;stroke:black;stroke-width:3" />
<circle cx="1168.32" cy="33.84" r="5" stroke-width="0" fill="#FF2A00" opacity="0.7" />
<path d="M1219.13,18.73c2.49,0.53,4.99,0.68,7.5,0.44c15.14-0.93,40.05-3.16,55.24-3.99c2.68-0.27,5.35-0.14,8.01,0.39" style="fill:none;stroke:#999;stroke-width:3" />
<path d="M1221.5,19.75c0.81,0.81,1.18,1.9,1.18,4.36c0,20.14-2.18,50.64-12.87,67.36" style="fill:none;stroke:#999;stroke-width:3" />
<path d="M1229.5,34.19c0.97,0.97,2,1.06,3.96,0.79c4.73-0.65,15.82-2.08,16.75-2.21c1.95-0.28,2.4,1.02,2.36,2.31c-0.14,5.05-1.35,15.57-2.15,22.15c-0.29,2.34-0.52,4.18-0.65,5.1" style="fill:none;stroke:#999;stroke-width:3" />
<path d="M1232.54,47.93c4.72-0.69,12.85-1.97,18.37-2.52" style="fill:none;stroke:#999;stroke-width:3" />
<path d="M1232.46,61.39c3.5-0.38,12.25-1.56,17.21-2.11" style="fill:none;stroke:#999;stroke-width:3" />
<path d="M1230.5,34.94c0.72,0.4,1.05,1.8,1.05,2.62c0,6.07,0.14,47.06,0.14,51.24c0,3.7-0.2,4.2,2.84,1.88c4.29-3.28,10.96-8.3,14.34-10.93" style="fill:none;stroke:#999;stroke-width:3" />
<path d="M1245.5900000000001,71.1c2.9,2.48,7.24,9.19,8.48,14.9" style="fill:none;stroke:#999;stroke-width:3" />
<path d="M1259.54,32.18c1.88,0.31,3.75,0.32,5.61,0.03c5.08-0.6,13.99-1.56,19.61-1.95c1.55-0.18,3.09-0.11,4.63,0.21" style="fill:none;stroke:#999;stroke-width:3" />
<path d="M1256.5900000000001,56.45c1.53,0.55,3.52,0.37,5.27,0.11c7.38-0.8,18.76-1.94,27.39-2.7c1.92-0.17,3.85-0.02,5.77,0.17" style="fill:none;stroke:#999;stroke-width:3" />
<path d="M1263.92,34.27c0.71,1.19,0.99,2.44,0.82,3.74c-0.29,5.28-0.75,8.94-1.01,17.02" style="fill:none;stroke:#999;stroke-width:3" />
<path d="M1277.32,33.84c0.86,0.86,0.9,2.28,0.7,4.38c-1.66,16.76-7.68,42.7-23.92,57.03" style="fill:none;stroke:#999;stroke-width:3" />
<path d="M1276.85,62.7c0.85,0.85,1.09,2.48,1.09,4.23c0,8.07-0.23,12.15-0.39,17.88c-0.27,10.04,1.87,11.02,10,11.02c7.33,0,8.82-1.7,8.82-8.72" style="fill:none;stroke:black;stroke-width:3" />
<circle cx="1276.85" cy="62.7" r="5" stroke-width="0" fill="#FF2A00" opacity="0.7" />
</svg>