<svg width="545px" height="109px" viewBox="0 0 545px 109px" xmlns="http://www.w3.org/2000/svg" xmlns:xlink="http://www.w3.org/1999/xlink" xml:space="preserve" version="1.1"  baseProfile="full">
<line x1="1" y1="1" x2="544" y2="1" style="stroke:#ddd;stroke-width:2" />
<line x1="1" y1="1" x2="1" y2="108" style="stroke:#ddd;stroke-width:2" />
<line x1="1" y1="108" x2="544" y2="108" style="stroke:#ddd;stroke-width:2" />
<line x1="544" y1="1" x2="544" y2="108" style="stroke:#ddd;stroke-width:2" />
<line x1="109" y1="1" x2="109" y2="108" style="stroke:#ddd;stroke-width:2" />
<line x1="218" y1="1" x2="218" y2="108" style="stroke:#ddd;stroke-width:2" />
<line x1="327" y1="1" x2="327" y2="108" style="stroke:#ddd;stroke-width:2" />
<line x1="436" y1="1" x2="436" y2="108" style="stroke:#ddd;stroke-width:2" />
<line x1="1" y1="54" x2="544" y2="54" style="stroke:#ddd;stroke-width:2;stroke-dasharray:3 3" />
<line x1="55" y1="1" x2="55" y2="108" style="stroke:#ddd;stroke-width:2;stroke-dasharray:3 3" />
<line x1="164" y1="1" x2="164" y2="108" style="stroke:#ddd;stroke-width:2;stroke-dasharray:3 3" />
<line x1="273" y1="1" x2="273" y2="108" style="stroke:#ddd;stroke-width:2;stroke-dasharray:3 3" />
<line x1="382" y1="1" x2="382" y2="108" style="stroke:#ddd;stroke-width:2;stroke-dasharray:3 3" />
<line x1="491" y1="1" x2="491" y2="108" style="stroke:#ddd;stroke-width:2;stroke-dasharray:3 3" />
<path d="M35.25,14.75c1,1,1.5,2.5,1.5,4c0,4.88-0.1,46.5-0.1,67.75c0,2.12-0.1,6.98-0.15,8.25" style="fill:none;stroke:black;stroke-width:3" />
<circle cx="35.25" cy="14.75" r="5" stroke-width="0" fill="#FF2A00" opacity="0.7" />
<path d="M144.25,14.75c1,1,1.5,2.5,1.5,4c0,4.88-0.1,46.5-0.1,67.75c0,2.12-0.1,6.98-0.15,8.25" style="fill:none;stroke:#999;stroke-width:3" />
<path d="M126.12,31.26c1,1,1.53,2.61,1.53,4.24c0,18.5-0.09,21.75-0.09,36.44" style="fill:none;stroke:black;stroke-width:3" />
<circle cx="126.12" cy="31.26" r="5" stroke-width="0" fill="#FF2A00" opacity="0.7" />
<path d="M253.25,14.75c1,1,1.5,2.5,1.5,4c0,4.88-0.1,46.5-0.1,67.75c0,2.12-0.1,6.98-0.15,8.25" style="fill:none;stroke:#999;stroke-width:3" />
<path d="M235.12,31.26c1,1,1.53,2.61,1.53,4.24c0,18.5-0.09,21.75-0.09,36.44" style="fill:none;stroke:#999;stroke-width:3" />
<path d="M233.88,73.37c1.22,0.92,2.35,0.83,3.65-0.47c0.99-1,16.76-17.11,20.97-21.9" style="fill:none;stroke:black;stroke-width:3" />
<circle cx="233.88" cy="73.37" r="5" stroke-width="0" fill="#FF2A00" opacity="0.7" />
<path d="M362.25,14.75c1,1,1.5,2.5,1.5,4c0,4.88-0.1,46.5-0.1,67.75c0,2.12-0.1,6.98-0.15,8.25" style="fill:none;stroke:#999;stroke-width:3" />
<path d="M344.12,31.26c1,1,1.53,2.61,1.53,4.24c0,18.5-0.09,21.75-0.09,36.44" style="fill:none;stroke:#999;stroke-width:3" />
<path d="M342.88,73.37c1.22,0.92,2.35,0.83,3.65-0.47c0.99-1,16.76-17.11,20.97-21.9" style="fill:none;stroke:#999;stroke-width:3" />
<path d="M380.05,30.11c1.32,0.42,2.96,0.68,5.64,0.17c4.19-0.79,16.89-4.79,18.75-5.3c2.69-0.73,4.45,0.86,3.48,4.43C401.25,54,394.25,71.38,373.26,86.25" style="fill:none;stroke:black;stroke-width:3" />
<circle cx="380.05" cy="30.11" r="5" stroke-width="0" fill="#FF2A00" opacity="0.7" />
<path d="M471.25,14.75c1,1,1.5,2.5,1.5,4c0,4.88-0.1,46.5-0.1,67.75c0,2.12-0.1,6.98-0.15,8.25" style="fill:none;stroke:#999;stroke-width:3" />
<path d="M453.12,31.26c1,1,1.53,2.61,1.53,4.24c0,18.5-0.09,21.75-0.09,36.44" style="fill:none;stroke:#999;stroke-width:3" />
<path d="M451.88,73.37c1.22,0.92,2.35,0.83,3.65-0.47c0.99-1,16.76-17.11,20.97-21.9" style="fill:none;stroke:#999;stroke-width:3" />
<path d="M489.05,30.11c1.32,0.42,2.96,0.68,5.64,0.17c4.19-0.79,16.89-4.79,18.75-5.3c2.69-0.73,4.45,0.86,3.48,4.43C510.25,54,503.25,71.38,482.26,86.25" style="fill:none;stroke:#999;stroke-width:3" />
<path d="M485.98,41.91c4.63,0.87,20.72,23.24,33.14,37.71c2.25,2.62,5,5.12,8.62,7.64" style="fill:none;stroke:black;stroke-width:3" />
<circle cx="485.98" cy="41.91" r="5" stroke-width="0" fill="#FF2A00" opacity="0.7" />
</svg>