<svg width="981px" height="109px" viewBox="0 0 981px 109px" xmlns="http://www.w3.org/2000/svg" xmlns:xlink="http://www.w3.org/1999/xlink" xml:space="preserve" version="1.1"  baseProfile="full">
<line x1="1" y1="1" x2="980" y2="1" style="stroke:#ddd;stroke-width:2" />
<line x1="1" y1="1" x2="1" y2="108" style="stroke:#ddd;stroke-width:2" />
<line x1="1" y1="108" x2="980" y2="108" style="stroke:#ddd;stroke-width:2" />
<line x1="980" y1="1" x2="980" y2="108" style="stroke:#ddd;stroke-width:2" />
<line x1="109" y1="1" x2="109" y2="108" style="stroke:#ddd;stroke-width:2" />
<line x1="218" y1="1" x2="218" y2="108" style="stroke:#ddd;stroke-width:2" />
<line x1="327" y1="1" x2="327" y2="108" style="stroke:#ddd;stroke-width:2" />
<line x1="436" y1="1" x2="436" y2="108" style="stroke:#ddd;stroke-width:2" />
<line x1="545" y1="1" x2="545" y2="108" style="stroke:#ddd;stroke-width:2" />
<line x1="654" y1="1" x2="654" y2="108" style="stroke:#ddd;stroke-width:2" />
<line x1="763" y1="1" x2="763" y2="108" style="stroke:#ddd;stroke-width:2" />
<line x1="872" y1="1" x2="872" y2="108" style="stroke:#ddd;stroke-width:2" />
<line x1="1" y1="54" x2="980" y2="54" style="stroke:#ddd;stroke-width:2;stroke-dasharray:3 3" />
<line x1="55" y1="1" x2="55" y2="108" style="stroke:#ddd;stroke-width:2;stroke-dasharray:3 3" />
<line x1="164" y1="1" x2="164" y2="108" style="stroke:#ddd;stroke-width:2;stroke-dasharray:3 3" />
<line x1="273" y1="1" x2="273" y2="108" style="stroke:#ddd;stroke-width:2;stroke-dasharray:3 3" />
<line x1="382" y1="1" x2="382" y2="108" style="stroke:#ddd;stroke-width:2;stroke-dasharray:3 3" />
<line x1="491" y1="1" x2="491" y2="108" style="stroke:#ddd;stroke-width:2;stroke-dasharray:3 3" />
<line x1="600" y1="1" x2="600" y2="108" style="stroke:#ddd;stroke-width:2;stroke-dasharray:3 3" />
<line x1="709" y1="1" x2="709" y2="108" style="stroke:#ddd;stroke-width:2;stroke-dasharray:3 3" />
<line x1="818" y1="1" x2="818" y2="108" style="stroke:#ddd;stroke-width:2;stroke-dasharray:3 3" />
<line x1="927" y1="1" x2="927" y2="108" style="stroke:#ddd;stroke-width:2;stroke-dasharray:3 3" />
<path d="M16.08,29.25c2.35,2.11,6.07,8.68,6.65,11.97" style="fill:none;stroke:black;stroke-width:3" />
<circle cx="16.08" cy="29.25" r="5" stroke-width="0" fill="#FF2A00" opacity="0.7" />
<path d="M125.08,29.25c2.35,2.11,6.07,8.68,6.65,11.97" style="fill:none;stroke:#999;stroke-width:3" />
<path d="M157.04,25.25c0.06,0.84,0,1.66-0.28,2.45c-1.38,3.8-3.51,7.18-7.01,11.3" style="fill:none;stroke:black;stroke-width:3" />
<circle cx="157.04" cy="25.25" r="5" stroke-width="0" fill="#FF2A00" opacity="0.7" />
<path d="M234.07999999999998,29.25c2.35,2.11,6.07,8.68,6.65,11.97" style="fill:none;stroke:#999;stroke-width:3" />
<path d="M266.03999999999996,25.25c0.06,0.84,0,1.66-0.28,2.45c-1.38,3.8-3.51,7.18-7.01,11.3" style="fill:none;stroke:#999;stroke-width:3" />
<path d="M235.07999999999998,49.58c1.39,0.62,2.85,0.54,4.26,0.27c6.54-1.26,14.59-2.94,21.32-3.49c1.28-0.18,2.55-0.11,3.81,0.21" style="fill:none;stroke:black;stroke-width:3" />
<circle cx="235.07999999999998" cy="49.58" r="5" stroke-width="0" fill="#FF2A00" opacity="0.7" />
<path d="M343.08,29.25c2.35,2.11,6.07,8.68,6.65,11.97" style="fill:none;stroke:#999;stroke-width:3" />
<path d="M375.03999999999996,25.25c0.06,0.84,0,1.66-0.28,2.45c-1.38,3.8-3.51,7.18-7.01,11.3" style="fill:none;stroke:#999;stroke-width:3" />
<path d="M344.08,49.58c1.39,0.62,2.85,0.54,4.26,0.27c6.54-1.26,14.59-2.94,21.32-3.49c1.28-0.18,2.55-0.11,3.81,0.21" style="fill:none;stroke:#999;stroke-width:3" />
<path d="M340.25,68.56c0.75,1.19,1.97,1.77,4.93,0.69C351.33,67,360.75,64,371.25,60.5" style="fill:none;stroke:black;stroke-width:3" />
<circle cx="340.25" cy="68.56" r="5" stroke-width="0" fill="#FF2A00" opacity="0.7" />
<path d="M452.08,29.25c2.35,2.11,6.07,8.68,6.65,11.97" style="fill:none;stroke:#999;stroke-width:3" />
<path d="M484.03999999999996,25.25c0.06,0.84,0,1.66-0.28,2.45c-1.38,3.8-3.51,7.18-7.01,11.3" style="fill:none;stroke:#999;stroke-width:3" />
<path d="M453.08,49.58c1.39,0.62,2.85,0.54,4.26,0.27c6.54-1.26,14.59-2.94,21.32-3.49c1.28-0.18,2.55-0.11,3.81,0.21" style="fill:none;stroke:#999;stroke-width:3" />
<path d="M449.25,68.56c0.75,1.19,1.97,1.77,4.93,0.69C460.33,67,469.75,64,480.25,60.5" style="fill:none;stroke:#999;stroke-width:3" />
<path d="M467.31,15.42c1.19,1.42,1.87,3.27,1.87,6.08c0,25.67,5.15,59.84-20.35,74.51" style="fill:none;stroke:black;stroke-width:3" />
<circle cx="467.31" cy="15.42" r="5" stroke-width="0" fill="#FF2A00" opacity="0.7" />
<path d="M561.0799999999999,29.25c2.35,2.11,6.07,8.68,6.65,11.97" style="fill:none;stroke:#999;stroke-width:3" />
<path d="M593.04,25.25c0.06,0.84,0,1.66-0.28,2.45c-1.38,3.8-3.51,7.18-7.01,11.3" style="fill:none;stroke:#999;stroke-width:3" />
<path d="M562.0799999999999,49.58c1.39,0.62,2.85,0.54,4.26,0.27c6.54-1.26,14.59-2.94,21.32-3.49c1.28-0.18,2.55-0.11,3.81,0.21" style="fill:none;stroke:#999;stroke-width:3" />
<path d="M558.25,68.56c0.75,1.19,1.97,1.77,4.93,0.69C569.3299999999999,67,578.75,64,589.25,60.5" style="fill:none;stroke:#999;stroke-width:3" />
<path d="M576.31,15.42c1.19,1.42,1.87,3.27,1.87,6.08c0,25.67,5.15,59.84-20.35,74.51" style="fill:none;stroke:#999;stroke-width:3" />
<path d="M600.06,25.29c1.66,0.79,3.56,0.62,5.3,0.32c9.18-1.63,16.48-2.69,24.58-3.64c1.96-0.23,3.54-0.21,5.43,0.32" style="fill:none;stroke:black;stroke-width:3" />
<circle cx="600.06" cy="25.29" r="5" stroke-width="0" fill="#FF2A00" opacity="0.7" />
<path d="M670.0799999999999,29.25c2.35,2.11,6.07,8.68,6.65,11.97" style="fill:none;stroke:#999;stroke-width:3" />
<path d="M702.04,25.25c0.06,0.84,0,1.66-0.28,2.45c-1.38,3.8-3.51,7.18-7.01,11.3" style="fill:none;stroke:#999;stroke-width:3" />
<path d="M671.0799999999999,49.58c1.39,0.62,2.85,0.54,4.26,0.27c6.54-1.26,14.59-2.94,21.32-3.49c1.28-0.18,2.55-0.11,3.81,0.21" style="fill:none;stroke:#999;stroke-width:3" />
<path d="M667.25,68.56c0.75,1.19,1.97,1.77,4.93,0.69C678.3299999999999,67,687.75,64,698.25,60.5" style="fill:none;stroke:#999;stroke-width:3" />
<path d="M685.31,15.42c1.19,1.42,1.87,3.27,1.87,6.08c0,25.67,5.15,59.84-20.35,74.51" style="fill:none;stroke:#999;stroke-width:3" />
<path d="M709.06,25.29c1.66,0.79,3.56,0.62,5.3,0.32c9.18-1.63,16.48-2.69,24.58-3.64c1.96-0.23,3.54-0.21,5.43,0.32" style="fill:none;stroke:#999;stroke-width:3" />
<path d="M710.47,26.18c0.97,0.97,1.07,2.26,0.99,4.37C710.73,51.68,707.83,77.5,695.5,91.33" style="fill:none;stroke:black;stroke-width:3" />
<circle cx="710.47" cy="26.18" r="5" stroke-width="0" fill="#FF2A00" opacity="0.7" />
<path d="M779.0799999999999,29.25c2.35,2.11,6.07,8.68,6.65,11.97" style="fill:none;stroke:#999;stroke-width:3" />
<path d="M811.04,25.25c0.06,0.84,0,1.66-0.28,2.45c-1.38,3.8-3.51,7.18-7.01,11.3" style="fill:none;stroke:#999;stroke-width:3" />
<path d="M780.0799999999999,49.58c1.39,0.62,2.85,0.54,4.26,0.27c6.54-1.26,14.59-2.94,21.32-3.49c1.28-0.18,2.55-0.11,3.81,0.21" style="fill:none;stroke:#999;stroke-width:3" />
<path d="M776.25,68.56c0.75,1.19,1.97,1.77,4.93,0.69C787.3299999999999,67,796.75,64,807.25,60.5" style="fill:none;stroke:#999;stroke-width:3" />
<path d="M794.31,15.42c1.19,1.42,1.87,3.27,1.87,6.08c0,25.67,5.15,59.84-20.35,74.51" style="fill:none;stroke:#999;stroke-width:3" />
<path d="M818.06,25.29c1.66,0.79,3.56,0.62,5.3,0.32c9.18-1.63,16.48-2.69,24.58-3.64c1.96-0.23,3.54-0.21,5.43,0.32" style="fill:none;stroke:#999;stroke-width:3" />
<path d="M819.47,26.18c0.97,0.97,1.07,2.26,0.99,4.37C819.73,51.68,816.83,77.5,804.5,91.33" style="fill:none;stroke:#999;stroke-width:3" />
<path d="M823.45,47.19c1.94,0.52,3.21,0.59,5.24,0.06c4.02-1.04,14.25-4.2,17.86-5.27c2.38-0.7,4.37,0.87,3.47,3.55C842.39,68.32,834.0,82,814.85,94.26" style="fill:none;stroke:black;stroke-width:3" />
<circle cx="823.45" cy="47.19" r="5" stroke-width="0" fill="#FF2A00" opacity="0.7" />
<path d="M888.0799999999999,29.25c2.35,2.11,6.07,8.68,6.65,11.97" style="fill:none;stroke:#999;stroke-width:3" />
<path d="M920.04,25.25c0.06,0.84,0,1.66-0.28,2.45c-1.38,3.8-3.51,7.18-7.01,11.3" style="fill:none;stroke:#999;stroke-width:3" />
<path d="M889.0799999999999,49.58c1.39,0.62,2.85,0.54,4.26,0.27c6.54-1.26,14.59-2.94,21.32-3.49c1.28-0.18,2.55-0.11,3.81,0.21" style="fill:none;stroke:#999;stroke-width:3" />
<path d="M885.25,68.56c0.75,1.19,1.97,1.77,4.93,0.69C896.3299999999999,67,905.75,64,916.25,60.5" style="fill:none;stroke:#999;stroke-width:3" />
<path d="M903.31,15.42c1.19,1.42,1.87,3.27,1.87,6.08c0,25.67,5.15,59.84-20.35,74.51" style="fill:none;stroke:#999;stroke-width:3" />
<path d="M927.06,25.29c1.66,0.79,3.56,0.62,5.3,0.32c9.18-1.63,16.48-2.69,24.58-3.64c1.96-0.23,3.54-0.21,5.43,0.32" style="fill:none;stroke:#999;stroke-width:3" />
<path d="M928.47,26.18c0.97,0.97,1.07,2.26,0.99,4.37C928.73,51.68,925.83,77.5,913.5,91.33" style="fill:none;stroke:#999;stroke-width:3" />
<path d="M932.45,47.19c1.94,0.52,3.21,0.59,5.24,0.06c4.02-1.04,14.25-4.2,17.86-5.27c2.38-0.7,4.37,0.87,3.47,3.55C951.39,68.32,943.0,82,923.85,94.26" style="fill:none;stroke:#999;stroke-width:3" />
<path d="M932.74,56.38c3.08,0.85,16.38,21.19,27.6,32.36c2.16,2.15,4.66,4.9,7.67,5.84" style="fill:none;stroke:black;stroke-width:3" />
<circle cx="932.74" cy="56.38" r="5" stroke-width="0" fill="#FF2A00" opacity="0.7" />
</svg>