<svg width="981px" height="109px" viewBox="0 0 981px 109px" xmlns="http://www.w3.org/2000/svg" xmlns:xlink="http://www.w3.org/1999/xlink" xml:space="preserve" version="1.1"  baseProfile="full">
<line x1="1" y1="1" x2="980" y2="1" style="stroke:#ddd;stroke-width:2" />
<line x1="1" y1="1" x2="1" y2="108" style="stroke:#ddd;stroke-width:2" />
<line x1="1" y1="108" x2="980" y2="108" style="stroke:#ddd;stroke-width:2" />
<line x1="980" y1="1" x2="980" y2="108" style="stroke:#ddd;stroke-width:2" />
<line x1="109" y1="1" x2="109" y2="108" style="stroke:#ddd;stroke-width:2" />
<line x1="218" y1="1" x2="218" y2="108" style="stroke:#ddd;stroke-width:2" />
<line x1="327" y1="1" x2="327" y2="108" style="stroke:#ddd;stroke-width:2" />
<line x1="436" y1="1" x2="436" y2="108" style="stroke:#ddd;stroke-width:2" />
<line x1="545" y1="1" x2="545" y2="108" style="stroke:#ddd;stroke-width:2" />
<line x1="654" y1="1" x2="654" y2="108" style="stroke:#ddd;stroke-width:2" />
<line x1="763" y1="1" x2="763" y2="108" style="stroke:#ddd;stroke-width:2" />
<line x1="872" y1="1" x2="872" y2="108" style="stroke:#ddd;stroke-width:2" />
<line x1="1" y1="54" x2="980" y2="54" style="stroke:#ddd;stroke-width:2;stroke-dasharray:3 3" />
<line x1="55" y1="1" x2="55" y2="108" style="stroke:#ddd;stroke-width:2;stroke-dasharray:3 3" />
<line x1="164" y1="1" x2="164" y2="108" style="stroke:#ddd;stroke-width:2;stroke-dasharray:3 3" />
<line x1="273" y1="1" x2="273" y2="108" style="stroke:#ddd;stroke-width:2;stroke-dasharray:3 3" />
<line x1="382" y1="1" x2="382" y2="108" style="stroke:#ddd;stroke-width:2;stroke-dasharray:3 3" />
<line x1="491" y1="1" x2="491" y2="108" style="stroke:#ddd;stroke-width:2;stroke-dasharray:3 3" />
<line x1="600" y1="1" x2="600" y2="108" style="stroke:#ddd;stroke-width:2;stroke-dasharray:3 3" />
<line x1="709" y1="1" x2="709" y2="108" style="stroke:#ddd;stroke-width:2;stroke-dasharray:3 3" />
<line x1="818" y1="1" x2="818" y2="108" style="stroke:#ddd;stroke-width:2;stroke-dasharray:3 3" />
<line x1="927" y1="1" x2="927" y2="108" style="stroke:#ddd;stroke-width:2;stroke-dasharray:3 3" />
<path d="M43.51,15.71c0.05,0.25-0.28,1.24-0.6,1.52c-4.28,3.62-8.26,6.35-18.01,9.23" style="fill:none;stroke:black;stroke-width:3" />
<circle cx="43.51" cy="15.71" r="5" stroke-width="0" fill="#FF2A00" opacity="0.7" />
<path d="M152.51,15.71c0.05,0.25-0.28,1.24-0.6,1.52c-4.28,3.62-8.26,6.35-18.01,9.23" style="fill:none;stroke:#999;stroke-width:3" />
<path d="M133.24,24.92c0.84,0.75,1.19,2.42,1.4,3.96c0.76,5.61,2.67,16.53,3.44,24.12" style="fill:none;stroke:black;stroke-width:3" />
<circle cx="133.24" cy="24.92" r="5" stroke-width="0" fill="#FF2A00" opacity="0.7" />
<path d="M261.51,15.71c0.05,0.25-0.28,1.24-0.6,1.52c-4.28,3.62-8.26,6.35-18.01,9.23" style="fill:none;stroke:#999;stroke-width:3" />
<path d="M242.24,24.92c0.84,0.75,1.19,2.42,1.4,3.96c0.76,5.61,2.67,16.53,3.44,24.12" style="fill:none;stroke:#999;stroke-width:3" />
<path d="M280.9,18.71c0.99,0.17,1.79,0.51,3.18,0.51S,299.18,17.17,300.77,17s2.91,0.84,2.78,1.88c-1.19,9.89-4.47,29.56-4.67,30.24" style="fill:none;stroke:black;stroke-width:3" />
<circle cx="280.9" cy="18.71" r="5" stroke-width="0" fill="#FF2A00" opacity="0.7" />
<path d="M370.51,15.71c0.05,0.25-0.28,1.24-0.6,1.52c-4.28,3.62-8.26,6.35-18.01,9.23" style="fill:none;stroke:#999;stroke-width:3" />
<path d="M351.24,24.92c0.84,0.75,1.19,2.42,1.4,3.96c0.76,5.61,2.67,16.53,3.44,24.12" style="fill:none;stroke:#999;stroke-width:3" />
<path d="M389.9,18.71c0.99,0.17,1.79,0.51,3.18,0.51S,299.18,17.17,300.77,17s2.91,0.84,2.78,1.88c-1.19,9.89-4.47,29.56-4.67,30.24" style="fill:none;stroke:#999;stroke-width:3" />
<path d="M354.09,36.66c4.17-0.34,13.7-2.21,14.69-2.21s2.38,0,3.18,0" style="fill:none;stroke:black;stroke-width:3" />
<circle cx="354.09" cy="36.66" r="5" stroke-width="0" fill="#FF2A00" opacity="0.7" />
<path d="M479.51,15.71c0.05,0.25-0.28,1.24-0.6,1.52c-4.28,3.62-8.26,6.35-18.01,9.23" style="fill:none;stroke:#999;stroke-width:3" />
<path d="M460.24,24.92c0.84,0.75,1.19,2.42,1.4,3.96c0.76,5.61,2.67,16.53,3.44,24.12" style="fill:none;stroke:#999;stroke-width:3" />
<path d="M498.9,18.71c0.99,0.17,1.79,0.51,3.18,0.51S,299.18,17.17,300.77,17s2.91,0.84,2.78,1.88c-1.19,9.89-4.47,29.56-4.67,30.24" style="fill:none;stroke:#999;stroke-width:3" />
<path d="M463.09,36.66c4.17-0.34,13.7-2.21,14.69-2.21s2.38,0,3.18,0" style="fill:none;stroke:#999;stroke-width:3" />
<path d="M498.8,33.27c0.99,0.17,1.79,0.51,3.18,0.51s15.7-0.86,17.29-1.04" style="fill:none;stroke:black;stroke-width:3" />
<circle cx="498.8" cy="33.27" r="5" stroke-width="0" fill="#FF2A00" opacity="0.7" />
<path d="M588.51,15.71c0.05,0.25-0.28,1.24-0.6,1.52c-4.28,3.62-8.26,6.35-18.01,9.23" style="fill:none;stroke:#999;stroke-width:3" />
<path d="M569.24,24.92c0.84,0.75,1.19,2.42,1.4,3.96c0.76,5.61,2.67,16.53,3.44,24.12" style="fill:none;stroke:#999;stroke-width:3" />
<path d="M607.9,18.71c0.99,0.17,1.79,0.51,3.18,0.51S,299.18,17.17,300.77,17s2.91,0.84,2.78,1.88c-1.19,9.89-4.47,29.56-4.67,30.24" style="fill:none;stroke:#999;stroke-width:3" />
<path d="M572.0899999999999,36.66c4.17-0.34,13.7-2.21,14.69-2.21s2.38,0,3.18,0" style="fill:none;stroke:#999;stroke-width:3" />
<path d="M607.8,33.27c0.99,0.17,1.79,0.51,3.18,0.51s15.7-0.86,17.29-1.04" style="fill:none;stroke:#999;stroke-width:3" />
<path d="M574.28,51.1c4.97-0.6,45.72-3.85,51.8-3.89" style="fill:none;stroke:black;stroke-width:3" />
<circle cx="574.28" cy="51.1" r="5" stroke-width="0" fill="#FF2A00" opacity="0.7" />
<path d="M697.51,15.71c0.05,0.25-0.28,1.24-0.6,1.52c-4.28,3.62-8.26,6.35-18.01,9.23" style="fill:none;stroke:#999;stroke-width:3" />
<path d="M678.24,24.92c0.84,0.75,1.19,2.42,1.4,3.96c0.76,5.61,2.67,16.53,3.44,24.12" style="fill:none;stroke:#999;stroke-width:3" />
<path d="M716.9,18.71c0.99,0.17,1.79,0.51,3.18,0.51S,299.18,17.17,300.77,17s2.91,0.84,2.78,1.88c-1.19,9.89-4.47,29.56-4.67,30.24" style="fill:none;stroke:#999;stroke-width:3" />
<path d="M681.0899999999999,36.66c4.17-0.34,13.7-2.21,14.69-2.21s2.38,0,3.18,0" style="fill:none;stroke:#999;stroke-width:3" />
<path d="M716.8,33.27c0.99,0.17,1.79,0.51,3.18,0.51s15.7-0.86,17.29-1.04" style="fill:none;stroke:#999;stroke-width:3" />
<path d="M683.28,51.1c4.97-0.6,45.72-3.85,51.8-3.89" style="fill:none;stroke:#999;stroke-width:3" />
<path d="M706.25,10.25c1.25,0.5,2,2.25,2.25,3.25s0,41.75-0.25,48" style="fill:none;stroke:black;stroke-width:3" />
<circle cx="706.25" cy="10.25" r="5" stroke-width="0" fill="#FF2A00" opacity="0.7" />
<path d="M806.51,15.71c0.05,0.25-0.28,1.24-0.6,1.52c-4.28,3.62-8.26,6.35-18.01,9.23" style="fill:none;stroke:#999;stroke-width:3" />
<path d="M787.24,24.92c0.84,0.75,1.19,2.42,1.4,3.96c0.76,5.61,2.67,16.53,3.44,24.12" style="fill:none;stroke:#999;stroke-width:3" />
<path d="M825.9,18.71c0.99,0.17,1.79,0.51,3.18,0.51S,299.18,17.17,300.77,17s2.91,0.84,2.78,1.88c-1.19,9.89-4.47,29.56-4.67,30.24" style="fill:none;stroke:#999;stroke-width:3" />
<path d="M790.0899999999999,36.66c4.17-0.34,13.7-2.21,14.69-2.21s2.38,0,3.18,0" style="fill:none;stroke:#999;stroke-width:3" />
<path d="M825.8,33.27c0.99,0.17,1.79,0.51,3.18,0.51s15.7-0.86,17.29-1.04" style="fill:none;stroke:#999;stroke-width:3" />
<path d="M792.28,51.1c4.97-0.6,45.72-3.85,51.8-3.89" style="fill:none;stroke:#999;stroke-width:3" />
<path d="M815.25,10.25c1.25,0.5,2,2.25,2.25,3.25s0,41.75-0.25,48" style="fill:none;stroke:#999;stroke-width:3" />
<path d="M794.5,63.71c2,0.28,2.28,0.91,6.25,0.28C807.0,63,833.5,59.88,836.25,59.46c2.75-0.42,3.93,2.7,2.75,4.12C824.75,80.75,805.0,92.55,782.5,99.5" style="fill:none;stroke:black;stroke-width:3" />
<circle cx="794.5" cy="63.71" r="5" stroke-width="0" fill="#FF2A00" opacity="0.7" />
<path d="M915.51,15.71c0.05,0.25-0.28,1.24-0.6,1.52c-4.28,3.62-8.26,6.35-18.01,9.23" style="fill:none;stroke:#999;stroke-width:3" />
<path d="M896.24,24.92c0.84,0.75,1.19,2.42,1.4,3.96c0.76,5.61,2.67,16.53,3.44,24.12" style="fill:none;stroke:#999;stroke-width:3" />
<path d="M934.9,18.71c0.99,0.17,1.79,0.51,3.18,0.51S,299.18,17.17,300.77,17s2.91,0.84,2.78,1.88c-1.19,9.89-4.47,29.56-4.67,30.24" style="fill:none;stroke:#999;stroke-width:3" />
<path d="M899.0899999999999,36.66c4.17-0.34,13.7-2.21,14.69-2.21s2.38,0,3.18,0" style="fill:none;stroke:#999;stroke-width:3" />
<path d="M934.8,33.27c0.99,0.17,1.79,0.51,3.18,0.51s15.7-0.86,17.29-1.04" style="fill:none;stroke:#999;stroke-width:3" />
<path d="M901.28,51.1c4.97-0.6,45.72-3.85,51.8-3.89" style="fill:none;stroke:#999;stroke-width:3" />
<path d="M924.25,10.25c1.25,0.5,2,2.25,2.25,3.25s0,41.75-0.25,48" style="fill:none;stroke:#999;stroke-width:3" />
<path d="M903.5,63.71c2,0.28,2.28,0.91,6.25,0.28C916.0,63,942.5,59.88,945.25,59.46c2.75-0.42,3.93,2.7,2.75,4.12C933.75,80.75,914.0,92.55,891.5,99.5" style="fill:none;stroke:#999;stroke-width:3" />
<path d="M907.5,70.83C915.0,71,936.9,89.72,954.3,97.18c2.71,1.16,4.68,1.94,7.2,2.32" style="fill:none;stroke:black;stroke-width:3" />
<circle cx="907.5" cy="70.83" r="5" stroke-width="0" fill="#FF2A00" opacity="0.7" />
</svg>