<svg width="1308px" height="109px" viewBox="0 0 1308px 109px" xmlns="http://www.w3.org/2000/svg" xmlns:xlink="http://www.w3.org/1999/xlink" xml:space="preserve" version="1.1"  baseProfile="full">
<line x1="1" y1="1" x2="1307" y2="1" style="stroke:#ddd;stroke-width:2" />
<line x1="1" y1="1" x2="1" y2="108" style="stroke:#ddd;stroke-width:2" />
<line x1="1" y1="108" x2="1307" y2="108" style="stroke:#ddd;stroke-width:2" />
<line x1="1307" y1="1" x2="1307" y2="108" style="stroke:#ddd;stroke-width:2" />
<line x1="109" y1="1" x2="109" y2="108" style="stroke:#ddd;stroke-width:2" />
<line x1="218" y1="1" x2="218" y2="108" style="stroke:#ddd;stroke-width:2" />
<line x1="327" y1="1" x2="327" y2="108" style="stroke:#ddd;stroke-width:2" />
<line x1="436" y1="1" x2="436" y2="108" style="stroke:#ddd;stroke-width:2" />
<line x1="545" y1="1" x2="545" y2="108" style="stroke:#ddd;stroke-width:2" />
<line x1="654" y1="1" x2="654" y2="108" style="stroke:#ddd;stroke-width:2" />
<line x1="763" y1="1" x2="763" y2="108" style="stroke:#ddd;stroke-width:2" />
<line x1="872" y1="1" x2="872" y2="108" style="stroke:#ddd;stroke-width:2" />
<line x1="981" y1="1" x2="981" y2="108" style="stroke:#ddd;stroke-width:2" />
<line x1="1090" y1="1" x2="1090" y2="108" style="stroke:#ddd;stroke-width:2" />
<line x1="1199" y1="1" x2="1199" y2="108" style="stroke:#ddd;stroke-width:2" />
<line x1="1" y1="54" x2="1307" y2="54" style="stroke:#ddd;stroke-width:2;stroke-dasharray:3 3" />
<line x1="55" y1="1" x2="55" y2="108" style="stroke:#ddd;stroke-width:2;stroke-dasharray:3 3" />
<line x1="164" y1="1" x2="164" y2="108" style="stroke:#ddd;stroke-width:2;stroke-dasharray:3 3" />
<line x1="273" y1="1" x2="273" y2="108" style="stroke:#ddd;stroke-width:2;stroke-dasharray:3 3" />
<line x1="382" y1="1" x2="382" y2="108" style="stroke:#ddd;stroke-width:2;stroke-dasharray:3 3" />
<line x1="491" y1="1" x2="491" y2="108" style="stroke:#ddd;stroke-width:2;stroke-dasharray:3 3" />
<line x1="600" y1="1" x2="600" y2="108" style="stroke:#ddd;stroke-width:2;stroke-dasharray:3 3" />
<line x1="709" y1="1" x2="709" y2="108" style="stroke:#ddd;stroke-width:2;stroke-dasharray:3 3" />
<line x1="818" y1="1" x2="818" y2="108" style="stroke:#ddd;stroke-width:2;stroke-dasharray:3 3" />
<line x1="927" y1="1" x2="927" y2="108" style="stroke:#ddd;stroke-width:2;stroke-dasharray:3 3" />
<line x1="1036" y1="1" x2="1036" y2="108" style="stroke:#ddd;stroke-width:2;stroke-dasharray:3 3" />
<line x1="1145" y1="1" x2="1145" y2="108" style="stroke:#ddd;stroke-width:2;stroke-dasharray:3 3" />
<line x1="1254" y1="1" x2="1254" y2="108" style="stroke:#ddd;stroke-width:2;stroke-dasharray:3 3" />
<path d="M11.75,34.26c0.64,0.84,1,1.78,1.1,2.82c0.73,6.37,1.45,12.45,2.2,18.92c0.3,2.59,0.6,5.25,0.92,8" style="fill:none;stroke:black;stroke-width:3" />
<circle cx="11.75" cy="34.26" r="5" stroke-width="0" fill="#FF2A00" opacity="0.7" />
<path d="M120.75,34.26c0.64,0.84,1,1.78,1.1,2.82c0.73,6.37,1.45,12.45,2.2,18.92c0.3,2.59,0.6,5.25,0.92,8" style="fill:none;stroke:#999;stroke-width:3" />
<path d="M122.86,35.91c7.69-1.2,12.39-1.78,16.27-2.61c2.15-0.46,4.28-0.1,3.94,2.52c-0.83,6.43-1.86,14.83-3.14,22.88" style="fill:none;stroke:black;stroke-width:3" />
<circle cx="122.86" cy="35.91" r="5" stroke-width="0" fill="#FF2A00" opacity="0.7" />
<path d="M229.75,34.26c0.64,0.84,1,1.78,1.1,2.82c0.73,6.37,1.45,12.45,2.2,18.92c0.3,2.59,0.6,5.25,0.92,8" style="fill:none;stroke:#999;stroke-width:3" />
<path d="M231.86,35.91c7.69-1.2,12.39-1.78,16.27-2.61c2.15-0.46,4.28-0.1,3.94,2.52c-0.83,6.43-1.86,14.83-3.14,22.88" style="fill:none;stroke:#999;stroke-width:3" />
<path d="M234.62,61.59c3.38-0.54,6.99-0.94,11.26-1.38c1.62-0.17,3.33-0.35,5.16-0.54" style="fill:none;stroke:black;stroke-width:3" />
<circle cx="234.62" cy="61.59" r="5" stroke-width="0" fill="#FF2A00" opacity="0.7" />
<path d="M338.75,34.26c0.64,0.84,1,1.78,1.1,2.82c0.73,6.37,1.45,12.45,2.2,18.92c0.3,2.59,0.6,5.25,0.92,8" style="fill:none;stroke:#999;stroke-width:3" />
<path d="M340.86,35.91c7.69-1.2,12.39-1.78,16.27-2.61c2.15-0.46,4.28-0.1,3.94,2.52c-0.83,6.43-1.86,14.83-3.14,22.88" style="fill:none;stroke:#999;stroke-width:3" />
<path d="M343.62,61.59c3.38-0.54,6.99-0.94,11.26-1.38c1.62-0.17,3.33-0.35,5.16-0.54" style="fill:none;stroke:#999;stroke-width:3" />
<path d="M389.54,10.25c-0.1,1.48-0.4,2.92-1.07,4.21c-4.59,8.79-12.59,20.41-23.1,28.79" style="fill:none;stroke:black;stroke-width:3" />
<circle cx="389.54" cy="10.25" r="5" stroke-width="0" fill="#FF2A00" opacity="0.7" />
<path d="M447.75,34.26c0.64,0.84,1,1.78,1.1,2.82c0.73,6.37,1.45,12.45,2.2,18.92c0.3,2.59,0.6,5.25,0.92,8" style="fill:none;stroke:#999;stroke-width:3" />
<path d="M449.86,35.91c7.69-1.2,12.39-1.78,16.27-2.61c2.15-0.46,4.28-0.1,3.94,2.52c-0.83,6.43-1.86,14.83-3.14,22.88" style="fill:none;stroke:#999;stroke-width:3" />
<path d="M452.62,61.59c3.38-0.54,6.99-0.94,11.26-1.38c1.62-0.17,3.33-0.35,5.16-0.54" style="fill:none;stroke:#999;stroke-width:3" />
<path d="M498.54,10.25c-0.1,1.48-0.4,2.92-1.07,4.21c-4.59,8.79-12.59,20.41-23.1,28.79" style="fill:none;stroke:#999;stroke-width:3" />
<path d="M499.96,14.7c3.68,2.54,14.92,13.05,21.79,18.68c3.29,2.69,6.62,4.5,9.62,5.86" style="fill:none;stroke:black;stroke-width:3" />
<circle cx="499.96" cy="14.7" r="5" stroke-width="0" fill="#FF2A00" opacity="0.7" />
<path d="M556.75,34.26c0.64,0.84,1,1.78,1.1,2.82c0.73,6.37,1.45,12.45,2.2,18.92c0.3,2.59,0.6,5.25,0.92,8" style="fill:none;stroke:#999;stroke-width:3" />
<path d="M558.86,35.91c7.69-1.2,12.39-1.78,16.27-2.61c2.15-0.46,4.28-0.1,3.94,2.52c-0.83,6.43-1.86,14.83-3.14,22.88" style="fill:none;stroke:#999;stroke-width:3" />
<path d="M561.62,61.59c3.38-0.54,6.99-0.94,11.26-1.38c1.62-0.17,3.33-0.35,5.16-0.54" style="fill:none;stroke:#999;stroke-width:3" />
<path d="M607.54,10.25c-0.1,1.48-0.4,2.92-1.07,4.21c-4.59,8.79-12.59,20.41-23.1,28.79" style="fill:none;stroke:#999;stroke-width:3" />
<path d="M608.96,14.7c3.68,2.54,14.92,13.05,21.79,18.68c3.29,2.69,6.62,4.5,9.62,5.86" style="fill:none;stroke:#999;stroke-width:3" />
<path d="M608.5,28.5c0.88,0.88,1.25,2.12,1.25,3.25c0,1.03,0,4.38,0,7.25" style="fill:none;stroke:black;stroke-width:3" />
<circle cx="608.5" cy="28.5" r="5" stroke-width="0" fill="#FF2A00" opacity="0.7" />
<path d="M665.75,34.26c0.64,0.84,1,1.78,1.1,2.82c0.73,6.37,1.45,12.45,2.2,18.92c0.3,2.59,0.6,5.25,0.92,8" style="fill:none;stroke:#999;stroke-width:3" />
<path d="M667.86,35.91c7.69-1.2,12.39-1.78,16.27-2.61c2.15-0.46,4.28-0.1,3.94,2.52c-0.83,6.43-1.86,14.83-3.14,22.88" style="fill:none;stroke:#999;stroke-width:3" />
<path d="M670.62,61.59c3.38-0.54,6.99-0.94,11.26-1.38c1.62-0.17,3.33-0.35,5.16-0.54" style="fill:none;stroke:#999;stroke-width:3" />
<path d="M716.54,10.25c-0.1,1.48-0.4,2.92-1.07,4.21c-4.59,8.79-12.59,20.41-23.1,28.79" style="fill:none;stroke:#999;stroke-width:3" />
<path d="M717.96,14.7c3.68,2.54,14.92,13.05,21.79,18.68c3.29,2.69,6.62,4.5,9.62,5.86" style="fill:none;stroke:#999;stroke-width:3" />
<path d="M717.5,28.5c0.88,0.88,1.25,2.12,1.25,3.25c0,1.03,0,4.38,0,7.25" style="fill:none;stroke:#999;stroke-width:3" />
<path d="M703.0,41c1.46,0.87,2.95,1.07,4.51,0.91C716.25,41,724.0,39.75,730.37,39.23c1.88-0.15,4.01,1.05,3.7,3.28c-0.36,2.65-1.21,9.37-2.24,15.38c-0.32,1.87-0.65,3.67-1,5.25" style="fill:none;stroke:black;stroke-width:3" />
<circle cx="703.0" cy="41.0" r="5" stroke-width="0" fill="#FF2A00" opacity="0.7" />
<path d="M774.75,34.26c0.64,0.84,1,1.78,1.1,2.82c0.73,6.37,1.45,12.45,2.2,18.92c0.3,2.59,0.6,5.25,0.92,8" style="fill:none;stroke:#999;stroke-width:3" />
<path d="M776.86,35.91c7.69-1.2,12.39-1.78,16.27-2.61c2.15-0.46,4.28-0.1,3.94,2.52c-0.83,6.43-1.86,14.83-3.14,22.88" style="fill:none;stroke:#999;stroke-width:3" />
<path d="M779.62,61.59c3.38-0.54,6.99-0.94,11.26-1.38c1.62-0.17,3.33-0.35,5.16-0.54" style="fill:none;stroke:#999;stroke-width:3" />
<path d="M825.54,10.25c-0.1,1.48-0.4,2.92-1.07,4.21c-4.59,8.79-12.59,20.41-23.1,28.79" style="fill:none;stroke:#999;stroke-width:3" />
<path d="M826.96,14.7c3.68,2.54,14.92,13.05,21.79,18.68c3.29,2.69,6.62,4.5,9.62,5.86" style="fill:none;stroke:#999;stroke-width:3" />
<path d="M826.5,28.5c0.88,0.88,1.25,2.12,1.25,3.25c0,1.03,0,4.38,0,7.25" style="fill:none;stroke:#999;stroke-width:3" />
<path d="M812.0,41c1.46,0.87,2.95,1.07,4.51,0.91C825.25,41,833.0,39.75,839.37,39.23c1.88-0.15,4.01,1.05,3.7,3.28c-0.36,2.65-1.21,9.37-2.24,15.38c-0.32,1.87-0.65,3.67-1,5.25" style="fill:none;stroke:#999;stroke-width:3" />
<path d="M815.08,52.23C824.25,51.12,832.88,50.62,841.0,50" style="fill:none;stroke:black;stroke-width:3" />
<circle cx="815.08" cy="52.23" r="5" stroke-width="0" fill="#FF2A00" opacity="0.7" />
<path d="M883.75,34.26c0.64,0.84,1,1.78,1.1,2.82c0.73,6.37,1.45,12.45,2.2,18.92c0.3,2.59,0.6,5.25,0.92,8" style="fill:none;stroke:#999;stroke-width:3" />
<path d="M885.86,35.91c7.69-1.2,12.39-1.78,16.27-2.61c2.15-0.46,4.28-0.1,3.94,2.52c-0.83,6.43-1.86,14.83-3.14,22.88" style="fill:none;stroke:#999;stroke-width:3" />
<path d="M888.62,61.59c3.38-0.54,6.99-0.94,11.26-1.38c1.62-0.17,3.33-0.35,5.16-0.54" style="fill:none;stroke:#999;stroke-width:3" />
<path d="M934.54,10.25c-0.1,1.48-0.4,2.92-1.07,4.21c-4.59,8.79-12.59,20.41-23.1,28.79" style="fill:none;stroke:#999;stroke-width:3" />
<path d="M935.96,14.7c3.68,2.54,14.92,13.05,21.79,18.68c3.29,2.69,6.62,4.5,9.62,5.86" style="fill:none;stroke:#999;stroke-width:3" />
<path d="M935.5,28.5c0.88,0.88,1.25,2.12,1.25,3.25c0,1.03,0,4.38,0,7.25" style="fill:none;stroke:#999;stroke-width:3" />
<path d="M921.0,41c1.46,0.87,2.95,1.07,4.51,0.91C934.25,41,942.0,39.75,948.37,39.23c1.88-0.15,4.01,1.05,3.7,3.28c-0.36,2.65-1.21,9.37-2.24,15.38c-0.32,1.87-0.65,3.67-1,5.25" style="fill:none;stroke:#999;stroke-width:3" />
<path d="M924.08,52.23C933.25,51.12,941.88,50.62,950.0,50" style="fill:none;stroke:#999;stroke-width:3" />
<path d="M923.94,63.65c8.06-0.77,15.81-1.27,24.35-2.04" style="fill:none;stroke:black;stroke-width:3" />
<circle cx="923.94" cy="63.65" r="5" stroke-width="0" fill="#FF2A00" opacity="0.7" />
<path d="M992.75,34.26c0.64,0.84,1,1.78,1.1,2.82c0.73,6.37,1.45,12.45,2.2,18.92c0.3,2.59,0.6,5.25,0.92,8" style="fill:none;stroke:#999;stroke-width:3" />
<path d="M994.86,35.91c7.69-1.2,12.39-1.78,16.27-2.61c2.15-0.46,4.28-0.1,3.94,2.52c-0.83,6.43-1.86,14.83-3.14,22.88" style="fill:none;stroke:#999;stroke-width:3" />
<path d="M997.62,61.59c3.38-0.54,6.99-0.94,11.26-1.38c1.62-0.17,3.33-0.35,5.16-0.54" style="fill:none;stroke:#999;stroke-width:3" />
<path d="M1043.54,10.25c-0.1,1.48-0.4,2.92-1.07,4.21c-4.59,8.79-12.59,20.41-23.1,28.79" style="fill:none;stroke:#999;stroke-width:3" />
<path d="M1044.96,14.7c3.68,2.54,14.92,13.05,21.79,18.68c3.29,2.69,6.62,4.5,9.62,5.86" style="fill:none;stroke:#999;stroke-width:3" />
<path d="M1044.5,28.5c0.88,0.88,1.25,2.12,1.25,3.25c0,1.03,0,4.38,0,7.25" style="fill:none;stroke:#999;stroke-width:3" />
<path d="M1030.0,41c1.46,0.87,2.95,1.07,4.51,0.91C1043.25,41,1051.0,39.75,1057.37,39.23c1.88-0.15,4.01,1.05,3.7,3.28c-0.36,2.65-1.21,9.37-2.24,15.38c-0.32,1.87-0.65,3.67-1,5.25" style="fill:none;stroke:#999;stroke-width:3" />
<path d="M1033.08,52.23C1042.25,51.12,1050.88,50.62,1059.0,50" style="fill:none;stroke:#999;stroke-width:3" />
<path d="M1032.94,63.65c8.06-0.77,15.81-1.27,24.35-2.04" style="fill:none;stroke:#999;stroke-width:3" />
<path d="M1031.0,41.75c0.88,0.88,1,2,1,3.5c0,1.03,0,42.38,0,46.75c0,4.2-0.06,5.58,4.36,2.36c4.77-3.48,8.92-6.08,10.89-7.86" style="fill:none;stroke:black;stroke-width:3" />
<circle cx="1031.0" cy="41.75" r="5" stroke-width="0" fill="#FF2A00" opacity="0.7" />
<path d="M1101.75,34.26c0.64,0.84,1,1.78,1.1,2.82c0.73,6.37,1.45,12.45,2.2,18.92c0.3,2.59,0.6,5.25,0.92,8" style="fill:none;stroke:#999;stroke-width:3" />
<path d="M1103.8600000000001,35.91c7.69-1.2,12.39-1.78,16.27-2.61c2.15-0.46,4.28-0.1,3.94,2.52c-0.83,6.43-1.86,14.83-3.14,22.88" style="fill:none;stroke:#999;stroke-width:3" />
<path d="M1106.62,61.59c3.38-0.54,6.99-0.94,11.26-1.38c1.62-0.17,3.33-0.35,5.16-0.54" style="fill:none;stroke:#999;stroke-width:3" />
<path d="M1152.54,10.25c-0.1,1.48-0.4,2.92-1.07,4.21c-4.59,8.79-12.59,20.41-23.1,28.79" style="fill:none;stroke:#999;stroke-width:3" />
<path d="M1153.96,14.7c3.68,2.54,14.92,13.05,21.79,18.68c3.29,2.69,6.62,4.5,9.62,5.86" style="fill:none;stroke:#999;stroke-width:3" />
<path d="M1153.5,28.5c0.88,0.88,1.25,2.12,1.25,3.25c0,1.03,0,4.38,0,7.25" style="fill:none;stroke:#999;stroke-width:3" />
<path d="M1139.0,41c1.46,0.87,2.95,1.07,4.51,0.91C1152.25,41,1160.0,39.75,1166.37,39.23c1.88-0.15,4.01,1.05,3.7,3.28c-0.36,2.65-1.21,9.37-2.24,15.38c-0.32,1.87-0.65,3.67-1,5.25" style="fill:none;stroke:#999;stroke-width:3" />
<path d="M1142.08,52.23C1151.25,51.12,1159.88,50.62,1168.0,50" style="fill:none;stroke:#999;stroke-width:3" />
<path d="M1141.94,63.65c8.06-0.77,15.81-1.27,24.35-2.04" style="fill:none;stroke:#999;stroke-width:3" />
<path d="M1140.0,41.75c0.88,0.88,1,2,1,3.5c0,1.03,0,42.38,0,46.75c0,4.2-0.06,5.58,4.36,2.36c4.77-3.48,8.92-6.08,10.89-7.86" style="fill:none;stroke:#999;stroke-width:3" />
<path d="M1176.39,64c-0.26,1.25-1.24,2.31-2.14,3.05c-3.25,2.7-5.24,4.07-8,5.7" style="fill:none;stroke:black;stroke-width:3" />
<circle cx="1176.39" cy="64.0" r="5" stroke-width="0" fill="#FF2A00" opacity="0.7" />
<path d="M1210.75,34.26c0.64,0.84,1,1.78,1.1,2.82c0.73,6.37,1.45,12.45,2.2,18.92c0.3,2.59,0.6,5.25,0.92,8" style="fill:none;stroke:#999;stroke-width:3" />
<path d="M1212.8600000000001,35.91c7.69-1.2,12.39-1.78,16.27-2.61c2.15-0.46,4.28-0.1,3.94,2.52c-0.83,6.43-1.86,14.83-3.14,22.88" style="fill:none;stroke:#999;stroke-width:3" />
<path d="M1215.62,61.59c3.38-0.54,6.99-0.94,11.26-1.38c1.62-0.17,3.33-0.35,5.16-0.54" style="fill:none;stroke:#999;stroke-width:3" />
<path d="M1261.54,10.25c-0.1,1.48-0.4,2.92-1.07,4.21c-4.59,8.79-12.59,20.41-23.1,28.79" style="fill:none;stroke:#999;stroke-width:3" />
<path d="M1262.96,14.7c3.68,2.54,14.92,13.05,21.79,18.68c3.29,2.69,6.62,4.5,9.62,5.86" style="fill:none;stroke:#999;stroke-width:3" />
<path d="M1262.5,28.5c0.88,0.88,1.25,2.12,1.25,3.25c0,1.03,0,4.38,0,7.25" style="fill:none;stroke:#999;stroke-width:3" />
<path d="M1248.0,41c1.46,0.87,2.95,1.07,4.51,0.91C1261.25,41,1269.0,39.75,1275.37,39.23c1.88-0.15,4.01,1.05,3.7,3.28c-0.36,2.65-1.21,9.37-2.24,15.38c-0.32,1.87-0.65,3.67-1,5.25" style="fill:none;stroke:#999;stroke-width:3" />
<path d="M1251.08,52.23C1260.25,51.12,1268.88,50.62,1277.0,50" style="fill:none;stroke:#999;stroke-width:3" />
<path d="M1250.94,63.65c8.06-0.77,15.81-1.27,24.35-2.04" style="fill:none;stroke:#999;stroke-width:3" />
<path d="M1249.0,41.75c0.88,0.88,1,2,1,3.5c0,1.03,0,42.38,0,46.75c0,4.2-0.06,5.58,4.36,2.36c4.77-3.48,8.92-6.08,10.89-7.86" style="fill:none;stroke:#999;stroke-width:3" />
<path d="M1285.39,64c-0.26,1.25-1.24,2.31-2.14,3.05c-3.25,2.7-5.24,4.07-8,5.7" style="fill:none;stroke:#999;stroke-width:3" />
<path d="M1260.25,67.75c3.34,0,16.79,14.46,23.57,20.92c2.53,2.41,6.12,6.03,9.68,6.83" style="fill:none;stroke:black;stroke-width:3" />
<circle cx="1260.25" cy="67.75" r="5" stroke-width="0" fill="#FF2A00" opacity="0.7" />
</svg>