<svg width="1635px" height="109px" viewBox="0 0 1635px 109px" xmlns="http://www.w3.org/2000/svg" xmlns:xlink="http://www.w3.org/1999/xlink" xml:space="preserve" version="1.1"  baseProfile="full">
<line x1="1" y1="1" x2="1634" y2="1" style="stroke:#ddd;stroke-width:2" />
<line x1="1" y1="1" x2="1" y2="108" style="stroke:#ddd;stroke-width:2" />
<line x1="1" y1="108" x2="1634" y2="108" style="stroke:#ddd;stroke-width:2" />
<line x1="1634" y1="1" x2="1634" y2="108" style="stroke:#ddd;stroke-width:2" />
<line x1="109" y1="1" x2="109" y2="108" style="stroke:#ddd;stroke-width:2" />
<line x1="218" y1="1" x2="218" y2="108" style="stroke:#ddd;stroke-width:2" />
<line x1="327" y1="1" x2="327" y2="108" style="stroke:#ddd;stroke-width:2" />
<line x1="436" y1="1" x2="436" y2="108" style="stroke:#ddd;stroke-width:2" />
<line x1="545" y1="1" x2="545" y2="108" style="stroke:#ddd;stroke-width:2" />
<line x1="654" y1="1" x2="654" y2="108" style="stroke:#ddd;stroke-width:2" />
<line x1="763" y1="1" x2="763" y2="108" style="stroke:#ddd;stroke-width:2" />
<line x1="872" y1="1" x2="872" y2="108" style="stroke:#ddd;stroke-width:2" />
<line x1="981" y1="1" x2="981" y2="108" style="stroke:#ddd;stroke-width:2" />
<line x1="1090" y1="1" x2="1090" y2="108" style="stroke:#ddd;stroke-width:2" />
<line x1="1199" y1="1" x2="1199" y2="108" style="stroke:#ddd;stroke-width:2" />
<line x1="1308" y1="1" x2="1308" y2="108" style="stroke:#ddd;stroke-width:2" />
<line x1="1417" y1="1" x2="1417" y2="108" style="stroke:#ddd;stroke-width:2" />
<line x1="1526" y1="1" x2="1526" y2="108" style="stroke:#ddd;stroke-width:2" />
<line x1="1" y1="54" x2="1634" y2="54" style="stroke:#ddd;stroke-width:2;stroke-dasharray:3 3" />
<line x1="55" y1="1" x2="55" y2="108" style="stroke:#ddd;stroke-width:2;stroke-dasharray:3 3" />
<line x1="164" y1="1" x2="164" y2="108" style="stroke:#ddd;stroke-width:2;stroke-dasharray:3 3" />
<line x1="273" y1="1" x2="273" y2="108" style="stroke:#ddd;stroke-width:2;stroke-dasharray:3 3" />
<line x1="382" y1="1" x2="382" y2="108" style="stroke:#ddd;stroke-width:2;stroke-dasharray:3 3" />
<line x1="491" y1="1" x2="491" y2="108" style="stroke:#ddd;stroke-width:2;stroke-dasharray:3 3" />
<line x1="600" y1="1" x2="600" y2="108" style="stroke:#ddd;stroke-width:2;stroke-dasharray:3 3" />
<line x1="709" y1="1" x2="709" y2="108" style="stroke:#ddd;stroke-width:2;stroke-dasharray:3 3" />
<line x1="818" y1="1" x2="818" y2="108" style="stroke:#ddd;stroke-width:2;stroke-dasharray:3 3" />
<line x1="927" y1="1" x2="927" y2="108" style="stroke:#ddd;stroke-width:2;stroke-dasharray:3 3" />
<line x1="1036" y1="1" x2="1036" y2="108" style="stroke:#ddd;stroke-width:2;stroke-dasharray:3 3" />
<line x1="1145" y1="1" x2="1145" y2="108" style="stroke:#ddd;stroke-width:2;stroke-dasharray:3 3" />
<line x1="1254" y1="1" x2="1254" y2="108" style="stroke:#ddd;stroke-width:2;stroke-dasharray:3 3" />
<line x1="1363" y1="1" x2="1363" y2="108" style="stroke:#ddd;stroke-width:2;stroke-dasharray:3 3" />
<line x1="1472" y1="1" x2="1472" y2="108" style="stroke:#ddd;stroke-width:2;stroke-dasharray:3 3" />
<line x1="1581" y1="1" x2="1581" y2="108" style="stroke:#ddd;stroke-width:2;stroke-dasharray:3 3" />
<path d="M11.5,34.79c0.72,0.86,1.12,1.84,1.21,2.94c0.79,8.07,1.53,15.81,2.15,22.28c0.19,1.96,0.37,3.79,0.53,5.49" style="fill:none;stroke:black;stroke-width:3" />
<circle cx="11.5" cy="34.79" r="5" stroke-width="0" fill="#FF2A00" opacity="0.7" />
<path d="M120.5,34.79c0.72,0.86,1.12,1.84,1.21,2.94c0.79,8.07,1.53,15.81,2.15,22.28c0.19,1.96,0.37,3.79,0.53,5.49" style="fill:none;stroke:#999;stroke-width:3" />
<path d="M122.83,36.72c8.67-1.85,11.66-2.25,15.33-3.03c2.09-0.45,3.97,0.18,3.67,2.67C141.1,42.31,140.0,50,138.86,59.11" style="fill:none;stroke:black;stroke-width:3" />
<circle cx="122.83" cy="36.72" r="5" stroke-width="0" fill="#FF2A00" opacity="0.7" />
<path d="M229.5,34.79c0.72,0.86,1.12,1.84,1.21,2.94c0.79,8.07,1.53,15.81,2.15,22.28c0.19,1.96,0.37,3.79,0.53,5.49" style="fill:none;stroke:#999;stroke-width:3" />
<path d="M231.82999999999998,36.72c8.67-1.85,11.66-2.25,15.33-3.03c2.09-0.45,3.97,0.18,3.67,2.67C250.1,42.31,249.0,50,247.86,59.11" style="fill:none;stroke:#999;stroke-width:3" />
<path d="M233.57,61.55c4.28-0.63,7.1-0.94,12.68-1.41c1.11-0.09,2.34-0.19,3.71-0.3" style="fill:none;stroke:black;stroke-width:3" />
<circle cx="233.57" cy="61.55" r="5" stroke-width="0" fill="#FF2A00" opacity="0.7" />
<path d="M338.5,34.79c0.72,0.86,1.12,1.84,1.21,2.94c0.79,8.07,1.53,15.81,2.15,22.28c0.19,1.96,0.37,3.79,0.53,5.49" style="fill:none;stroke:#999;stroke-width:3" />
<path d="M340.83,36.72c8.67-1.85,11.66-2.25,15.33-3.03c2.09-0.45,3.97,0.18,3.67,2.67C359.1,42.31,358.0,50,356.86,59.11" style="fill:none;stroke:#999;stroke-width:3" />
<path d="M342.57,61.55c4.28-0.63,7.1-0.94,12.68-1.41c1.11-0.09,2.34-0.19,3.71-0.3" style="fill:none;stroke:#999;stroke-width:3" />
<path d="M375.23,12.37c2.51,1.82,6.49,6.75,7.11,9.59" style="fill:none;stroke:black;stroke-width:3" />
<circle cx="375.23" cy="12.37" r="5" stroke-width="0" fill="#FF2A00" opacity="0.7" />
<path d="M447.5,34.79c0.72,0.86,1.12,1.84,1.21,2.94c0.79,8.07,1.53,15.81,2.15,22.28c0.19,1.96,0.37,3.79,0.53,5.49" style="fill:none;stroke:#999;stroke-width:3" />
<path d="M449.83,36.72c8.67-1.85,11.66-2.25,15.33-3.03c2.09-0.45,3.97,0.18,3.67,2.67C468.1,42.31,467.0,50,465.86,59.11" style="fill:none;stroke:#999;stroke-width:3" />
<path d="M451.57,61.55c4.28-0.63,7.1-0.94,12.68-1.41c1.11-0.09,2.34-0.19,3.71-0.3" style="fill:none;stroke:#999;stroke-width:3" />
<path d="M484.23,12.37c2.51,1.82,6.49,6.75,7.11,9.59" style="fill:none;stroke:#999;stroke-width:3" />
<path d="M514.15,9.9c0.09,0.85-0.05,1.67-0.42,2.44c-2.1,3.17-2.9,4.55-8.1,9.92" style="fill:none;stroke:black;stroke-width:3" />
<circle cx="514.15" cy="9.9" r="5" stroke-width="0" fill="#FF2A00" opacity="0.7" />
<path d="M556.5,34.79c0.72,0.86,1.12,1.84,1.21,2.94c0.79,8.07,1.53,15.81,2.15,22.28c0.19,1.96,0.37,3.79,0.53,5.49" style="fill:none;stroke:#999;stroke-width:3" />
<path d="M558.8299999999999,36.72c8.67-1.85,11.66-2.25,15.33-3.03c2.09-0.45,3.97,0.18,3.67,2.67C577.1,42.31,576.0,50,574.86,59.11" style="fill:none;stroke:#999;stroke-width:3" />
<path d="M560.5699999999999,61.55c4.28-0.63,7.1-0.94,12.68-1.41c1.11-0.09,2.34-0.19,3.71-0.3" style="fill:none;stroke:#999;stroke-width:3" />
<path d="M593.23,12.37c2.51,1.82,6.49,6.75,7.11,9.59" style="fill:none;stroke:#999;stroke-width:3" />
<path d="M623.15,9.9c0.09,0.85-0.05,1.67-0.42,2.44c-2.1,3.17-2.9,4.55-8.1,9.92" style="fill:none;stroke:#999;stroke-width:3" />
<path d="M585.43,27.72c2.23,0.59,4.46,0.61,6.7,0.06c8.8-1.03,25.05-3.01,34.75-3.61c2.56-0.38,5.08-0.29,7.59,0.27" style="fill:none;stroke:black;stroke-width:3" />
<circle cx="585.43" cy="27.72" r="5" stroke-width="0" fill="#FF2A00" opacity="0.7" />
<path d="M665.5,34.79c0.72,0.86,1.12,1.84,1.21,2.94c0.79,8.07,1.53,15.81,2.15,22.28c0.19,1.96,0.37,3.79,0.53,5.49" style="fill:none;stroke:#999;stroke-width:3" />
<path d="M667.8299999999999,36.72c8.67-1.85,11.66-2.25,15.33-3.03c2.09-0.45,3.97,0.18,3.67,2.67C686.1,42.31,685.0,50,683.86,59.11" style="fill:none;stroke:#999;stroke-width:3" />
<path d="M669.5699999999999,61.55c4.28-0.63,7.1-0.94,12.68-1.41c1.11-0.09,2.34-0.19,3.71-0.3" style="fill:none;stroke:#999;stroke-width:3" />
<path d="M702.23,12.37c2.51,1.82,6.49,6.75,7.11,9.59" style="fill:none;stroke:#999;stroke-width:3" />
<path d="M732.15,9.9c0.09,0.85-0.05,1.67-0.42,2.44c-2.1,3.17-2.9,4.55-8.1,9.92" style="fill:none;stroke:#999;stroke-width:3" />
<path d="M694.43,27.72c2.23,0.59,4.46,0.61,6.7,0.06c8.8-1.03,25.05-3.01,34.75-3.61c2.56-0.38,5.08-0.29,7.59,0.27" style="fill:none;stroke:#999;stroke-width:3" />
<path d="M700.59,37.51c0.82,0.82,0.91,2.11,0.91,3.23c0,1.39,0.02,10.93,0.02,18.14c0,2.5,0,4.71,0,6.21" style="fill:none;stroke:black;stroke-width:3" />
<circle cx="700.59" cy="37.51" r="5" stroke-width="0" fill="#FF2A00" opacity="0.7" />
<path d="M774.5,34.79c0.72,0.86,1.12,1.84,1.21,2.94c0.79,8.07,1.53,15.81,2.15,22.28c0.19,1.96,0.37,3.79,0.53,5.49" style="fill:none;stroke:#999;stroke-width:3" />
<path d="M776.8299999999999,36.72c8.67-1.85,11.66-2.25,15.33-3.03c2.09-0.45,3.97,0.18,3.67,2.67C795.1,42.31,794.0,50,792.86,59.11" style="fill:none;stroke:#999;stroke-width:3" />
<path d="M778.5699999999999,61.55c4.28-0.63,7.1-0.94,12.68-1.41c1.11-0.09,2.34-0.19,3.71-0.3" style="fill:none;stroke:#999;stroke-width:3" />
<path d="M811.23,12.37c2.51,1.82,6.49,6.75,7.11,9.59" style="fill:none;stroke:#999;stroke-width:3" />
<path d="M841.15,9.9c0.09,0.85-0.05,1.67-0.42,2.44c-2.1,3.17-2.9,4.55-8.1,9.92" style="fill:none;stroke:#999;stroke-width:3" />
<path d="M803.43,27.72c2.23,0.59,4.46,0.61,6.7,0.06c8.8-1.03,25.05-3.01,34.75-3.61c2.56-0.38,5.08-0.29,7.59,0.27" style="fill:none;stroke:#999;stroke-width:3" />
<path d="M809.59,37.51c0.82,0.82,0.91,2.11,0.91,3.23c0,1.39,0.02,10.93,0.02,18.14c0,2.5,0,4.71,0,6.21" style="fill:none;stroke:#999;stroke-width:3" />
<path d="M811.54,38.92c2.69-0.11,28.79-3.67,31.08-3.75c1.9-0.07,2.9,1.12,2.9,2.62c0,0.61-0.01,10.57-0.01,18.21c0,2.9,0,5.46,0,7.06" style="fill:none;stroke:black;stroke-width:3" />
<circle cx="811.54" cy="38.92" r="5" stroke-width="0" fill="#FF2A00" opacity="0.7" />
<path d="M883.5,34.79c0.72,0.86,1.12,1.84,1.21,2.94c0.79,8.07,1.53,15.81,2.15,22.28c0.19,1.96,0.37,3.79,0.53,5.49" style="fill:none;stroke:#999;stroke-width:3" />
<path d="M885.8299999999999,36.72c8.67-1.85,11.66-2.25,15.33-3.03c2.09-0.45,3.97,0.18,3.67,2.67C904.1,42.31,903.0,50,901.86,59.11" style="fill:none;stroke:#999;stroke-width:3" />
<path d="M887.5699999999999,61.55c4.28-0.63,7.1-0.94,12.68-1.41c1.11-0.09,2.34-0.19,3.71-0.3" style="fill:none;stroke:#999;stroke-width:3" />
<path d="M920.23,12.37c2.51,1.82,6.49,6.75,7.11,9.59" style="fill:none;stroke:#999;stroke-width:3" />
<path d="M950.15,9.9c0.09,0.85-0.05,1.67-0.42,2.44c-2.1,3.17-2.9,4.55-8.1,9.92" style="fill:none;stroke:#999;stroke-width:3" />
<path d="M912.43,27.72c2.23,0.59,4.46,0.61,6.7,0.06c8.8-1.03,25.05-3.01,34.75-3.61c2.56-0.38,5.08-0.29,7.59,0.27" style="fill:none;stroke:#999;stroke-width:3" />
<path d="M918.59,37.51c0.82,0.82,0.91,2.11,0.91,3.23c0,1.39,0.02,10.93,0.02,18.14c0,2.5,0,4.71,0,6.21" style="fill:none;stroke:#999;stroke-width:3" />
<path d="M920.54,38.92c2.69-0.11,28.79-3.67,31.08-3.75c1.9-0.07,2.9,1.12,2.9,2.62c0,0.61-0.01,10.57-0.01,18.21c0,2.9,0,5.46,0,7.06" style="fill:none;stroke:#999;stroke-width:3" />
<path d="M929.72,27.52c0.69,0.69,0.83,1.7,0.84,2.54C930.64,38.29,929.0,44,924.8,47.73" style="fill:none;stroke:black;stroke-width:3" />
<circle cx="929.72" cy="27.52" r="5" stroke-width="0" fill="#FF2A00" opacity="0.7" />
<path d="M992.5,34.79c0.72,0.86,1.12,1.84,1.21,2.94c0.79,8.07,1.53,15.81,2.15,22.28c0.19,1.96,0.37,3.79,0.53,5.49" style="fill:none;stroke:#999;stroke-width:3" />
<path d="M994.8299999999999,36.72c8.67-1.85,11.66-2.25,15.33-3.03c2.09-0.45,3.97,0.18,3.67,2.67C1013.1,42.31,1012.0,50,1010.86,59.11" style="fill:none;stroke:#999;stroke-width:3" />
<path d="M996.5699999999999,61.55c4.28-0.63,7.1-0.94,12.68-1.41c1.11-0.09,2.34-0.19,3.71-0.3" style="fill:none;stroke:#999;stroke-width:3" />
<path d="M1029.23,12.37c2.51,1.82,6.49,6.75,7.11,9.59" style="fill:none;stroke:#999;stroke-width:3" />
<path d="M1059.15,9.9c0.09,0.85-0.05,1.67-0.42,2.44c-2.1,3.17-2.9,4.55-8.1,9.92" style="fill:none;stroke:#999;stroke-width:3" />
<path d="M1021.43,27.72c2.23,0.59,4.46,0.61,6.7,0.06c8.8-1.03,25.05-3.01,34.75-3.61c2.56-0.38,5.08-0.29,7.59,0.27" style="fill:none;stroke:#999;stroke-width:3" />
<path d="M1027.5900000000001,37.51c0.82,0.82,0.91,2.11,0.91,3.23c0,1.39,0.02,10.93,0.02,18.14c0,2.5,0,4.71,0,6.21" style="fill:none;stroke:#999;stroke-width:3" />
<path d="M1029.54,38.92c2.69-0.11,28.79-3.67,31.08-3.75c1.9-0.07,2.9,1.12,2.9,2.62c0,0.61-0.01,10.57-0.01,18.21c0,2.9,0,5.46,0,7.06" style="fill:none;stroke:#999;stroke-width:3" />
<path d="M1038.72,27.52c0.69,0.69,0.83,1.7,0.84,2.54C1039.6399999999999,38.29,1038.0,44,1033.8,47.73" style="fill:none;stroke:#999;stroke-width:3" />
<path d="M1047.83,27.63c0.46,0.66,0.83,1.45,0.86,2.47c0.09,3.25,0.05,7.13,0,11.15c-0.04,3.49,1.3,3.92,5.71,3.92c2.8,0,5.58-0.43,5.89-0.83" style="fill:none;stroke:black;stroke-width:3" />
<circle cx="1047.83" cy="27.63" r="5" stroke-width="0" fill="#FF2A00" opacity="0.7" />
<path d="M1101.5,34.79c0.72,0.86,1.12,1.84,1.21,2.94c0.79,8.07,1.53,15.81,2.15,22.28c0.19,1.96,0.37,3.79,0.53,5.49" style="fill:none;stroke:#999;stroke-width:3" />
<path d="M1103.83,36.72c8.67-1.85,11.66-2.25,15.33-3.03c2.09-0.45,3.97,0.18,3.67,2.67C1122.1,42.31,1121.0,50,1119.8600000000001,59.11" style="fill:none;stroke:#999;stroke-width:3" />
<path d="M1105.57,61.55c4.28-0.63,7.1-0.94,12.68-1.41c1.11-0.09,2.34-0.19,3.71-0.3" style="fill:none;stroke:#999;stroke-width:3" />
<path d="M1138.23,12.37c2.51,1.82,6.49,6.75,7.11,9.59" style="fill:none;stroke:#999;stroke-width:3" />
<path d="M1168.15,9.9c0.09,0.85-0.05,1.67-0.42,2.44c-2.1,3.17-2.9,4.55-8.1,9.92" style="fill:none;stroke:#999;stroke-width:3" />
<path d="M1130.4299999999998,27.72c2.23,0.59,4.46,0.61,6.7,0.06c8.8-1.03,25.05-3.01,34.75-3.61c2.56-0.38,5.08-0.29,7.59,0.27" style="fill:none;stroke:#999;stroke-width:3" />
<path d="M1136.5900000000001,37.51c0.82,0.82,0.91,2.11,0.91,3.23c0,1.39,0.02,10.93,0.02,18.14c0,2.5,0,4.71,0,6.21" style="fill:none;stroke:#999;stroke-width:3" />
<path d="M1138.54,38.92c2.69-0.11,28.79-3.67,31.08-3.75c1.9-0.07,2.9,1.12,2.9,2.62c0,0.61-0.01,10.57-0.01,18.21c0,2.9,0,5.46,0,7.06" style="fill:none;stroke:#999;stroke-width:3" />
<path d="M1147.72,27.52c0.69,0.69,0.83,1.7,0.84,2.54C1148.6399999999999,38.29,1147.0,44,1142.8,47.73" style="fill:none;stroke:#999;stroke-width:3" />
<path d="M1156.83,27.63c0.46,0.66,0.83,1.45,0.86,2.47c0.09,3.25,0.05,7.13,0,11.15c-0.04,3.49,1.3,3.92,5.71,3.92c2.8,0,5.58-0.43,5.89-0.83" style="fill:none;stroke:#999;stroke-width:3" />
<path d="M1138.71,54.26c3.4,0,29.18-2.12,33.02-2.12" style="fill:none;stroke:black;stroke-width:3" />
<circle cx="1138.71" cy="54.26" r="5" stroke-width="0" fill="#FF2A00" opacity="0.7" />
<path d="M1210.5,34.79c0.72,0.86,1.12,1.84,1.21,2.94c0.79,8.07,1.53,15.81,2.15,22.28c0.19,1.96,0.37,3.79,0.53,5.49" style="fill:none;stroke:#999;stroke-width:3" />
<path d="M1212.83,36.72c8.67-1.85,11.66-2.25,15.33-3.03c2.09-0.45,3.97,0.18,3.67,2.67C1231.1,42.31,1230.0,50,1228.8600000000001,59.11" style="fill:none;stroke:#999;stroke-width:3" />
<path d="M1214.57,61.55c4.28-0.63,7.1-0.94,12.68-1.41c1.11-0.09,2.34-0.19,3.71-0.3" style="fill:none;stroke:#999;stroke-width:3" />
<path d="M1247.23,12.37c2.51,1.82,6.49,6.75,7.11,9.59" style="fill:none;stroke:#999;stroke-width:3" />
<path d="M1277.15,9.9c0.09,0.85-0.05,1.67-0.42,2.44c-2.1,3.17-2.9,4.55-8.1,9.92" style="fill:none;stroke:#999;stroke-width:3" />
<path d="M1239.4299999999998,27.72c2.23,0.59,4.46,0.61,6.7,0.06c8.8-1.03,25.05-3.01,34.75-3.61c2.56-0.38,5.08-0.29,7.59,0.27" style="fill:none;stroke:#999;stroke-width:3" />
<path d="M1245.5900000000001,37.51c0.82,0.82,0.91,2.11,0.91,3.23c0,1.39,0.02,10.93,0.02,18.14c0,2.5,0,4.71,0,6.21" style="fill:none;stroke:#999;stroke-width:3" />
<path d="M1247.54,38.92c2.69-0.11,28.79-3.67,31.08-3.75c1.9-0.07,2.9,1.12,2.9,2.62c0,0.61-0.01,10.57-0.01,18.21c0,2.9,0,5.46,0,7.06" style="fill:none;stroke:#999;stroke-width:3" />
<path d="M1256.72,27.52c0.69,0.69,0.83,1.7,0.84,2.54C1257.6399999999999,38.29,1256.0,44,1251.8,47.73" style="fill:none;stroke:#999;stroke-width:3" />
<path d="M1265.83,27.63c0.46,0.66,0.83,1.45,0.86,2.47c0.09,3.25,0.05,7.13,0,11.15c-0.04,3.49,1.3,3.92,5.71,3.92c2.8,0,5.58-0.43,5.89-0.83" style="fill:none;stroke:#999;stroke-width:3" />
<path d="M1247.71,54.26c3.4,0,29.18-2.12,33.02-2.12" style="fill:none;stroke:#999;stroke-width:3" />
<path d="M1247.76,62.64c6.92-0.28,24-1.49,32.62-1.73" style="fill:none;stroke:black;stroke-width:3" />
<circle cx="1247.76" cy="62.64" r="5" stroke-width="0" fill="#FF2A00" opacity="0.7" />
<path d="M1319.5,34.79c0.72,0.86,1.12,1.84,1.21,2.94c0.79,8.07,1.53,15.81,2.15,22.28c0.19,1.96,0.37,3.79,0.53,5.49" style="fill:none;stroke:#999;stroke-width:3" />
<path d="M1321.83,36.72c8.67-1.85,11.66-2.25,15.33-3.03c2.09-0.45,3.97,0.18,3.67,2.67C1340.1,42.31,1339.0,50,1337.8600000000001,59.11" style="fill:none;stroke:#999;stroke-width:3" />
<path d="M1323.57,61.55c4.28-0.63,7.1-0.94,12.68-1.41c1.11-0.09,2.34-0.19,3.71-0.3" style="fill:none;stroke:#999;stroke-width:3" />
<path d="M1356.23,12.37c2.51,1.82,6.49,6.75,7.11,9.59" style="fill:none;stroke:#999;stroke-width:3" />
<path d="M1386.15,9.9c0.09,0.85-0.05,1.67-0.42,2.44c-2.1,3.17-2.9,4.55-8.1,9.92" style="fill:none;stroke:#999;stroke-width:3" />
<path d="M1348.4299999999998,27.72c2.23,0.59,4.46,0.61,6.7,0.06c8.8-1.03,25.05-3.01,34.75-3.61c2.56-0.38,5.08-0.29,7.59,0.27" style="fill:none;stroke:#999;stroke-width:3" />
<path d="M1354.5900000000001,37.51c0.82,0.82,0.91,2.11,0.91,3.23c0,1.39,0.02,10.93,0.02,18.14c0,2.5,0,4.71,0,6.21" style="fill:none;stroke:#999;stroke-width:3" />
<path d="M1356.54,38.92c2.69-0.11,28.79-3.67,31.08-3.75c1.9-0.07,2.9,1.12,2.9,2.62c0,0.61-0.01,10.57-0.01,18.21c0,2.9,0,5.46,0,7.06" style="fill:none;stroke:#999;stroke-width:3" />
<path d="M1365.72,27.52c0.69,0.69,0.83,1.7,0.84,2.54C1366.6399999999999,38.29,1365.0,44,1360.8,47.73" style="fill:none;stroke:#999;stroke-width:3" />
<path d="M1374.83,27.63c0.46,0.66,0.83,1.45,0.86,2.47c0.09,3.25,0.05,7.13,0,11.15c-0.04,3.49,1.3,3.92,5.71,3.92c2.8,0,5.58-0.43,5.89-0.83" style="fill:none;stroke:#999;stroke-width:3" />
<path d="M1356.71,54.26c3.4,0,29.18-2.12,33.02-2.12" style="fill:none;stroke:#999;stroke-width:3" />
<path d="M1356.76,62.64c6.92-0.28,24-1.49,32.62-1.73" style="fill:none;stroke:#999;stroke-width:3" />
<path d="M1344.13,75.37c2.48,0.82,4.95,0.8,7.51,0.52c14.23-1.52,30.36-2.77,44.84-3.97c2.86-0.24,5.64-0.17,8.4,0.65" style="fill:none;stroke:black;stroke-width:3" />
<circle cx="1344.13" cy="75.37" r="5" stroke-width="0" fill="#FF2A00" opacity="0.7" />
<path d="M1428.5,34.79c0.72,0.86,1.12,1.84,1.21,2.94c0.79,8.07,1.53,15.81,2.15,22.28c0.19,1.96,0.37,3.79,0.53,5.49" style="fill:none;stroke:#999;stroke-width:3" />
<path d="M1430.83,36.72c8.67-1.85,11.66-2.25,15.33-3.03c2.09-0.45,3.97,0.18,3.67,2.67C1449.1,42.31,1448.0,50,1446.8600000000001,59.11" style="fill:none;stroke:#999;stroke-width:3" />
<path d="M1432.57,61.55c4.28-0.63,7.1-0.94,12.68-1.41c1.11-0.09,2.34-0.19,3.71-0.3" style="fill:none;stroke:#999;stroke-width:3" />
<path d="M1465.23,12.37c2.51,1.82,6.49,6.75,7.11,9.59" style="fill:none;stroke:#999;stroke-width:3" />
<path d="M1495.15,9.9c0.09,0.85-0.05,1.67-0.42,2.44c-2.1,3.17-2.9,4.55-8.1,9.92" style="fill:none;stroke:#999;stroke-width:3" />
<path d="M1457.4299999999998,27.72c2.23,0.59,4.46,0.61,6.7,0.06c8.8-1.03,25.05-3.01,34.75-3.61c2.56-0.38,5.08-0.29,7.59,0.27" style="fill:none;stroke:#999;stroke-width:3" />
<path d="M1463.5900000000001,37.51c0.82,0.82,0.91,2.11,0.91,3.23c0,1.39,0.02,10.93,0.02,18.14c0,2.5,0,4.71,0,6.21" style="fill:none;stroke:#999;stroke-width:3" />
<path d="M1465.54,38.92c2.69-0.11,28.79-3.67,31.08-3.75c1.9-0.07,2.9,1.12,2.9,2.62c0,0.61-0.01,10.57-0.01,18.21c0,2.9,0,5.46,0,7.06" style="fill:none;stroke:#999;stroke-width:3" />
<path d="M1474.72,27.52c0.69,0.69,0.83,1.7,0.84,2.54C1475.6399999999999,38.29,1474.0,44,1469.8,47.73" style="fill:none;stroke:#999;stroke-width:3" />
<path d="M1483.83,27.63c0.46,0.66,0.83,1.45,0.86,2.47c0.09,3.25,0.05,7.13,0,11.15c-0.04,3.49,1.3,3.92,5.71,3.92c2.8,0,5.58-0.43,5.89-0.83" style="fill:none;stroke:#999;stroke-width:3" />
<path d="M1465.71,54.26c3.4,0,29.18-2.12,33.02-2.12" style="fill:none;stroke:#999;stroke-width:3" />
<path d="M1465.76,62.64c6.92-0.28,24-1.49,32.62-1.73" style="fill:none;stroke:#999;stroke-width:3" />
<path d="M1453.13,75.37c2.48,0.82,4.95,0.8,7.51,0.52c14.23-1.52,30.36-2.77,44.84-3.97c2.86-0.24,5.64-0.17,8.4,0.65" style="fill:none;stroke:#999;stroke-width:3" />
<path d="M1491.13,65.24c0.69,0.69,0.99,2.14,0.99,3.6c0,8.32-0.03,21.95-0.03,25.85c0,9.48-5.43,1.41-6.73,0.2" style="fill:none;stroke:black;stroke-width:3" />
<circle cx="1491.13" cy="65.24" r="5" stroke-width="0" fill="#FF2A00" opacity="0.7" />
<path d="M1537.5,34.79c0.72,0.86,1.12,1.84,1.21,2.94c0.79,8.07,1.53,15.81,2.15,22.28c0.19,1.96,0.37,3.79,0.53,5.49" style="fill:none;stroke:#999;stroke-width:3" />
<path d="M1539.83,36.72c8.67-1.85,11.66-2.25,15.33-3.03c2.09-0.45,3.97,0.18,3.67,2.67C1558.1,42.31,1557.0,50,1555.8600000000001,59.11" style="fill:none;stroke:#999;stroke-width:3" />
<path d="M1541.57,61.55c4.28-0.63,7.1-0.94,12.68-1.41c1.11-0.09,2.34-0.19,3.71-0.3" style="fill:none;stroke:#999;stroke-width:3" />
<path d="M1574.23,12.37c2.51,1.82,6.49,6.75,7.11,9.59" style="fill:none;stroke:#999;stroke-width:3" />
<path d="M1604.15,9.9c0.09,0.85-0.05,1.67-0.42,2.44c-2.1,3.17-2.9,4.55-8.1,9.92" style="fill:none;stroke:#999;stroke-width:3" />
<path d="M1566.4299999999998,27.72c2.23,0.59,4.46,0.61,6.7,0.06c8.8-1.03,25.05-3.01,34.75-3.61c2.56-0.38,5.08-0.29,7.59,0.27" style="fill:none;stroke:#999;stroke-width:3" />
<path d="M1572.5900000000001,37.51c0.82,0.82,0.91,2.11,0.91,3.23c0,1.39,0.02,10.93,0.02,18.14c0,2.5,0,4.71,0,6.21" style="fill:none;stroke:#999;stroke-width:3" />
<path d="M1574.54,38.92c2.69-0.11,28.79-3.67,31.08-3.75c1.9-0.07,2.9,1.12,2.9,2.62c0,0.61-0.01,10.57-0.01,18.21c0,2.9,0,5.46,0,7.06" style="fill:none;stroke:#999;stroke-width:3" />
<path d="M1583.72,27.52c0.69,0.69,0.83,1.7,0.84,2.54C1584.6399999999999,38.29,1583.0,44,1578.8,47.73" style="fill:none;stroke:#999;stroke-width:3" />
<path d="M1592.83,27.63c0.46,0.66,0.83,1.45,0.86,2.47c0.09,3.25,0.05,7.13,0,11.15c-0.04,3.49,1.3,3.92,5.71,3.92c2.8,0,5.58-0.43,5.89-0.83" style="fill:none;stroke:#999;stroke-width:3" />
<path d="M1574.71,54.26c3.4,0,29.18-2.12,33.02-2.12" style="fill:none;stroke:#999;stroke-width:3" />
<path d="M1574.76,62.64c6.92-0.28,24-1.49,32.62-1.73" style="fill:none;stroke:#999;stroke-width:3" />
<path d="M1562.13,75.37c2.48,0.82,4.95,0.8,7.51,0.52c14.23-1.52,30.36-2.77,44.84-3.97c2.86-0.24,5.64-0.17,8.4,0.65" style="fill:none;stroke:#999;stroke-width:3" />
<path d="M1600.13,65.24c0.69,0.69,0.99,2.14,0.99,3.6c0,8.32-0.03,21.95-0.03,25.85c0,9.48-5.43,1.41-6.73,0.2" style="fill:none;stroke:#999;stroke-width:3" />
<path d="M1576.11,80.23c2.24,1.64,5.53,6.75,6.09,9.31" style="fill:none;stroke:black;stroke-width:3" />
<circle cx="1576.11" cy="80.23" r="5" stroke-width="0" fill="#FF2A00" opacity="0.7" />
</svg>