<svg width="981px" height="109px" viewBox="0 0 981px 109px" xmlns="http://www.w3.org/2000/svg" xmlns:xlink="http://www.w3.org/1999/xlink" xml:space="preserve" version="1.1"  baseProfile="full">
<line x1="1" y1="1" x2="980" y2="1" style="stroke:#ddd;stroke-width:2" />
<line x1="1" y1="1" x2="1" y2="108" style="stroke:#ddd;stroke-width:2" />
<line x1="1" y1="108" x2="980" y2="108" style="stroke:#ddd;stroke-width:2" />
<line x1="980" y1="1" x2="980" y2="108" style="stroke:#ddd;stroke-width:2" />
<line x1="109" y1="1" x2="109" y2="108" style="stroke:#ddd;stroke-width:2" />
<line x1="218" y1="1" x2="218" y2="108" style="stroke:#ddd;stroke-width:2" />
<line x1="327" y1="1" x2="327" y2="108" style="stroke:#ddd;stroke-width:2" />
<line x1="436" y1="1" x2="436" y2="108" style="stroke:#ddd;stroke-width:2" />
<line x1="545" y1="1" x2="545" y2="108" style="stroke:#ddd;stroke-width:2" />
<line x1="654" y1="1" x2="654" y2="108" style="stroke:#ddd;stroke-width:2" />
<line x1="763" y1="1" x2="763" y2="108" style="stroke:#ddd;stroke-width:2" />
<line x1="872" y1="1" x2="872" y2="108" style="stroke:#ddd;stroke-width:2" />
<line x1="1" y1="54" x2="980" y2="54" style="stroke:#ddd;stroke-width:2;stroke-dasharray:3 3" />
<line x1="55" y1="1" x2="55" y2="108" style="stroke:#ddd;stroke-width:2;stroke-dasharray:3 3" />
<line x1="164" y1="1" x2="164" y2="108" style="stroke:#ddd;stroke-width:2;stroke-dasharray:3 3" />
<line x1="273" y1="1" x2="273" y2="108" style="stroke:#ddd;stroke-width:2;stroke-dasharray:3 3" />
<line x1="382" y1="1" x2="382" y2="108" style="stroke:#ddd;stroke-width:2;stroke-dasharray:3 3" />
<line x1="491" y1="1" x2="491" y2="108" style="stroke:#ddd;stroke-width:2;stroke-dasharray:3 3" />
<line x1="600" y1="1" x2="600" y2="108" style="stroke:#ddd;stroke-width:2;stroke-dasharray:3 3" />
<line x1="709" y1="1" x2="709" y2="108" style="stroke:#ddd;stroke-width:2;stroke-dasharray:3 3" />
<line x1="818" y1="1" x2="818" y2="108" style="stroke:#ddd;stroke-width:2;stroke-dasharray:3 3" />
<line x1="927" y1="1" x2="927" y2="108" style="stroke:#ddd;stroke-width:2;stroke-dasharray:3 3" />
<path d="M25.0,29.38c4,0.62,6.98,0.46,11,0c10.24-1.17,28.49-2.66,38.63-3.23c2.96-0.32,5.92-0.28,8.87,0.1" style="fill:none;stroke:black;stroke-width:3" />
<circle cx="25.0" cy="29.38" r="5" stroke-width="0" fill="#FF2A00" opacity="0.7" />
<path d="M134.0,29.38c4,0.62,6.98,0.46,11,0c10.24-1.17,28.49-2.66,38.63-3.23c2.96-0.32,5.92-0.28,8.87,0.1" style="fill:none;stroke:#999;stroke-width:3" />
<path d="M147.37,12.86c0.82,0.82,1.38,2.14,1.46,3.36c0.38,5.81,0.92,22.03,1.17,29.39" style="fill:none;stroke:black;stroke-width:3" />
<circle cx="147.37" cy="12.86" r="5" stroke-width="0" fill="#FF2A00" opacity="0.7" />
<path d="M243.0,29.38c4,0.62,6.98,0.46,11,0c10.24-1.17,28.49-2.66,38.63-3.23c2.96-0.32,5.92-0.28,8.87,0.1" style="fill:none;stroke:#999;stroke-width:3" />
<path d="M256.37,12.86c0.82,0.82,1.38,2.14,1.46,3.36c0.38,5.81,0.92,22.03,1.17,29.39" style="fill:none;stroke:#999;stroke-width:3" />
<path d="M287.37,11.5c0.75,1.12,0.61,2.55,0.46,3.36C286.21,23.8,284.5,33,282.75,43.96" style="fill:none;stroke:black;stroke-width:3" />
<circle cx="287.37" cy="11.5" r="5" stroke-width="0" fill="#FF2A00" opacity="0.7" />
<path d="M352.0,29.38c4,0.62,6.98,0.46,11,0c10.24-1.17,28.49-2.66,38.63-3.23c2.96-0.32,5.92-0.28,8.87,0.1" style="fill:none;stroke:#999;stroke-width:3" />
<path d="M365.37,12.86c0.82,0.82,1.38,2.14,1.46,3.36c0.38,5.81,0.92,22.03,1.17,29.39" style="fill:none;stroke:#999;stroke-width:3" />
<path d="M396.37,11.5c0.75,1.12,0.61,2.55,0.46,3.36C395.21,23.8,393.5,33,391.75,43.96" style="fill:none;stroke:#999;stroke-width:3" />
<path d="M341.75,48.38c3.95,0.42,7.87,0.38,11.77-0.1c13.84-1.51,35.54-3.18,53.24-3.93c4.63-0.2,9.2-0.46,13.75,0.34" style="fill:none;stroke:black;stroke-width:3" />
<circle cx="341.75" cy="48.38" r="5" stroke-width="0" fill="#FF2A00" opacity="0.7" />
<path d="M461.0,29.38c4,0.62,6.98,0.46,11,0c10.24-1.17,28.49-2.66,38.63-3.23c2.96-0.32,5.92-0.28,8.87,0.1" style="fill:none;stroke:#999;stroke-width:3" />
<path d="M474.37,12.86c0.82,0.82,1.38,2.14,1.46,3.36c0.38,5.81,0.92,22.03,1.17,29.39" style="fill:none;stroke:#999;stroke-width:3" />
<path d="M505.37,11.5c0.75,1.12,0.61,2.55,0.46,3.36C504.21,23.8,502.5,33,500.75,43.96" style="fill:none;stroke:#999;stroke-width:3" />
<path d="M450.75,48.38c3.95,0.42,7.87,0.38,11.77-0.1c13.84-1.51,35.54-3.18,53.24-3.93c4.63-0.2,9.2-0.46,13.75,0.34" style="fill:none;stroke:#999;stroke-width:3" />
<path d="M477.74,50.25c-0.03,1.33-0.5,2.39-1.43,3.18c-4.96,5.23-12.26,11.37-22.5,18.13" style="fill:none;stroke:black;stroke-width:3" />
<circle cx="477.74" cy="50.25" r="5" stroke-width="0" fill="#FF2A00" opacity="0.7" />
<path d="M570.0,29.38c4,0.62,6.98,0.46,11,0c10.24-1.17,28.49-2.66,38.63-3.23c2.96-0.32,5.92-0.28,8.87,0.1" style="fill:none;stroke:#999;stroke-width:3" />
<path d="M583.37,12.86c0.82,0.82,1.38,2.14,1.46,3.36c0.38,5.81,0.92,22.03,1.17,29.39" style="fill:none;stroke:#999;stroke-width:3" />
<path d="M614.37,11.5c0.75,1.12,0.61,2.55,0.46,3.36C613.21,23.8,611.5,33,609.75,43.96" style="fill:none;stroke:#999;stroke-width:3" />
<path d="M559.75,48.38c3.95,0.42,7.87,0.38,11.77-0.1c13.84-1.51,35.54-3.18,53.24-3.93c4.63-0.2,9.2-0.46,13.75,0.34" style="fill:none;stroke:#999;stroke-width:3" />
<path d="M586.74,50.25c-0.03,1.33-0.5,2.39-1.43,3.18c-4.96,5.23-12.26,11.37-22.5,18.13" style="fill:none;stroke:#999;stroke-width:3" />
<path d="M608.5,46.5c1.85,1.32,12.8,11.84,21.74,17.71c2.94,2.31,6.2,3.99,9.76,5.04" style="fill:none;stroke:black;stroke-width:3" />
<circle cx="608.5" cy="46.5" r="5" stroke-width="0" fill="#FF2A00" opacity="0.7" />
<path d="M679.0,29.38c4,0.62,6.98,0.46,11,0c10.24-1.17,28.49-2.66,38.63-3.23c2.96-0.32,5.92-0.28,8.87,0.1" style="fill:none;stroke:#999;stroke-width:3" />
<path d="M692.37,12.86c0.82,0.82,1.38,2.14,1.46,3.36c0.38,5.81,0.92,22.03,1.17,29.39" style="fill:none;stroke:#999;stroke-width:3" />
<path d="M723.37,11.5c0.75,1.12,0.61,2.55,0.46,3.36C722.21,23.8,720.5,33,718.75,43.96" style="fill:none;stroke:#999;stroke-width:3" />
<path d="M668.75,48.38c3.95,0.42,7.87,0.38,11.77-0.1c13.84-1.51,35.54-3.18,53.24-3.93c4.63-0.2,9.2-0.46,13.75,0.34" style="fill:none;stroke:#999;stroke-width:3" />
<path d="M695.74,50.25c-0.03,1.33-0.5,2.39-1.43,3.18c-4.96,5.23-12.26,11.37-22.5,18.13" style="fill:none;stroke:#999;stroke-width:3" />
<path d="M717.5,46.5c1.85,1.32,12.8,11.84,21.74,17.71c2.94,2.31,6.2,3.99,9.76,5.04" style="fill:none;stroke:#999;stroke-width:3" />
<path d="M693.27,62.71c2.58,0.7,5.15,0.72,7.72,0.07c5.16-0.77,13.96-2.16,18.03-2.77c2.67-0.4,4.92,0.81,4.14,3.89c-0.45,1.77-1.28,5.6-2.59,9.94" style="fill:none;stroke:black;stroke-width:3" />
<circle cx="693.27" cy="62.71" r="5" stroke-width="0" fill="#FF2A00" opacity="0.7" />
<path d="M788.0,29.38c4,0.62,6.98,0.46,11,0c10.24-1.17,28.49-2.66,38.63-3.23c2.96-0.32,5.92-0.28,8.87,0.1" style="fill:none;stroke:#999;stroke-width:3" />
<path d="M801.37,12.86c0.82,0.82,1.38,2.14,1.46,3.36c0.38,5.81,0.92,22.03,1.17,29.39" style="fill:none;stroke:#999;stroke-width:3" />
<path d="M832.37,11.5c0.75,1.12,0.61,2.55,0.46,3.36C831.21,23.8,829.5,33,827.75,43.96" style="fill:none;stroke:#999;stroke-width:3" />
<path d="M777.75,48.38c3.95,0.42,7.87,0.38,11.77-0.1c13.84-1.51,35.54-3.18,53.24-3.93c4.63-0.2,9.2-0.46,13.75,0.34" style="fill:none;stroke:#999;stroke-width:3" />
<path d="M804.74,50.25c-0.03,1.33-0.5,2.39-1.43,3.18c-4.96,5.23-12.26,11.37-22.5,18.13" style="fill:none;stroke:#999;stroke-width:3" />
<path d="M826.5,46.5c1.85,1.32,12.8,11.84,21.74,17.71c2.94,2.31,6.2,3.99,9.76,5.04" style="fill:none;stroke:#999;stroke-width:3" />
<path d="M802.27,62.71c2.58,0.7,5.15,0.72,7.72,0.07c5.16-0.77,13.96-2.16,18.03-2.77c2.67-0.4,4.92,0.81,4.14,3.89c-0.45,1.77-1.28,5.6-2.59,9.94" style="fill:none;stroke:#999;stroke-width:3" />
<path d="M799.75,75.42c1,0.83,3.43,1.29,5.74,1.3c6.26,0.03,15.14-0.72,21.13-1.29c2.05-0.2,3.8-0.37,5.04-0.51" style="fill:none;stroke:black;stroke-width:3" />
<circle cx="799.75" cy="75.42" r="5" stroke-width="0" fill="#FF2A00" opacity="0.7" />
<path d="M897.0,29.38c4,0.62,6.98,0.46,11,0c10.24-1.17,28.49-2.66,38.63-3.23c2.96-0.32,5.92-0.28,8.87,0.1" style="fill:none;stroke:#999;stroke-width:3" />
<path d="M910.37,12.86c0.82,0.82,1.38,2.14,1.46,3.36c0.38,5.81,0.92,22.03,1.17,29.39" style="fill:none;stroke:#999;stroke-width:3" />
<path d="M941.37,11.5c0.75,1.12,0.61,2.55,0.46,3.36C940.21,23.8,938.5,33,936.75,43.96" style="fill:none;stroke:#999;stroke-width:3" />
<path d="M886.75,48.38c3.95,0.42,7.87,0.38,11.77-0.1c13.84-1.51,35.54-3.18,53.24-3.93c4.63-0.2,9.2-0.46,13.75,0.34" style="fill:none;stroke:#999;stroke-width:3" />
<path d="M913.74,50.25c-0.03,1.33-0.5,2.39-1.43,3.18c-4.96,5.23-12.26,11.37-22.5,18.13" style="fill:none;stroke:#999;stroke-width:3" />
<path d="M935.5,46.5c1.85,1.32,12.8,11.84,21.74,17.71c2.94,2.31,6.2,3.99,9.76,5.04" style="fill:none;stroke:#999;stroke-width:3" />
<path d="M911.27,62.71c2.58,0.7,5.15,0.72,7.72,0.07c5.16-0.77,13.96-2.16,18.03-2.77c2.67-0.4,4.92,0.81,4.14,3.89c-0.45,1.77-1.28,5.6-2.59,9.94" style="fill:none;stroke:#999;stroke-width:3" />
<path d="M908.75,75.42c1,0.83,3.43,1.29,5.74,1.3c6.26,0.03,15.14-0.72,21.13-1.29c2.05-0.2,3.8-0.37,5.04-0.51" style="fill:none;stroke:#999;stroke-width:3" />
<path d="M909.5,76.42c0.85,0.85,1.1,1.83,1.1,3.1c0,2.52-0.09,4.99-0.09,7.23c0,7.76,2.26,9.99,20.39,9.54c20.78-0.52,22.34-2.04,22.34-10.02" style="fill:none;stroke:black;stroke-width:3" />
<circle cx="909.5" cy="76.42" r="5" stroke-width="0" fill="#FF2A00" opacity="0.7" />
</svg>