<svg width="1308px" height="109px" viewBox="0 0 1308px 109px" xmlns="http://www.w3.org/2000/svg" xmlns:xlink="http://www.w3.org/1999/xlink" xml:space="preserve" version="1.1"  baseProfile="full">
<line x1="1" y1="1" x2="1307" y2="1" style="stroke:#ddd;stroke-width:2" />
<line x1="1" y1="1" x2="1" y2="108" style="stroke:#ddd;stroke-width:2" />
<line x1="1" y1="108" x2="1307" y2="108" style="stroke:#ddd;stroke-width:2" />
<line x1="1307" y1="1" x2="1307" y2="108" style="stroke:#ddd;stroke-width:2" />
<line x1="109" y1="1" x2="109" y2="108" style="stroke:#ddd;stroke-width:2" />
<line x1="218" y1="1" x2="218" y2="108" style="stroke:#ddd;stroke-width:2" />
<line x1="327" y1="1" x2="327" y2="108" style="stroke:#ddd;stroke-width:2" />
<line x1="436" y1="1" x2="436" y2="108" style="stroke:#ddd;stroke-width:2" />
<line x1="545" y1="1" x2="545" y2="108" style="stroke:#ddd;stroke-width:2" />
<line x1="654" y1="1" x2="654" y2="108" style="stroke:#ddd;stroke-width:2" />
<line x1="763" y1="1" x2="763" y2="108" style="stroke:#ddd;stroke-width:2" />
<line x1="872" y1="1" x2="872" y2="108" style="stroke:#ddd;stroke-width:2" />
<line x1="981" y1="1" x2="981" y2="108" style="stroke:#ddd;stroke-width:2" />
<line x1="1090" y1="1" x2="1090" y2="108" style="stroke:#ddd;stroke-width:2" />
<line x1="1199" y1="1" x2="1199" y2="108" style="stroke:#ddd;stroke-width:2" />
<line x1="1" y1="54" x2="1307" y2="54" style="stroke:#ddd;stroke-width:2;stroke-dasharray:3 3" />
<line x1="55" y1="1" x2="55" y2="108" style="stroke:#ddd;stroke-width:2;stroke-dasharray:3 3" />
<line x1="164" y1="1" x2="164" y2="108" style="stroke:#ddd;stroke-width:2;stroke-dasharray:3 3" />
<line x1="273" y1="1" x2="273" y2="108" style="stroke:#ddd;stroke-width:2;stroke-dasharray:3 3" />
<line x1="382" y1="1" x2="382" y2="108" style="stroke:#ddd;stroke-width:2;stroke-dasharray:3 3" />
<line x1="491" y1="1" x2="491" y2="108" style="stroke:#ddd;stroke-width:2;stroke-dasharray:3 3" />
<line x1="600" y1="1" x2="600" y2="108" style="stroke:#ddd;stroke-width:2;stroke-dasharray:3 3" />
<line x1="709" y1="1" x2="709" y2="108" style="stroke:#ddd;stroke-width:2;stroke-dasharray:3 3" />
<line x1="818" y1="1" x2="818" y2="108" style="stroke:#ddd;stroke-width:2;stroke-dasharray:3 3" />
<line x1="927" y1="1" x2="927" y2="108" style="stroke:#ddd;stroke-width:2;stroke-dasharray:3 3" />
<line x1="1036" y1="1" x2="1036" y2="108" style="stroke:#ddd;stroke-width:2;stroke-dasharray:3 3" />
<line x1="1145" y1="1" x2="1145" y2="108" style="stroke:#ddd;stroke-width:2;stroke-dasharray:3 3" />
<line x1="1254" y1="1" x2="1254" y2="108" style="stroke:#ddd;stroke-width:2;stroke-dasharray:3 3" />
<path d="m29.367094,17.05221c1.187197,0.783808,2.224116,2.103385,2.224116,3.115391,0,3.333667-0.09017,5.317992-0.09017,8.602051" style="fill:none;stroke:black;stroke-width:3" />
<circle cx="29.367094" cy="17.05221" r="5" stroke-width="0" fill="#FF2A00" opacity="0.7" />
<path d="m29.367094,17.05221c1.187197,0.783808,2.224116,2.103385,2.224116,3.115391,0,3.333667-0.09017,5.317992-0.09017,8.602051" style="fill:none;stroke:#999;stroke-width:3" />
<path d="m15.105705,30.198366c0.886641,0.07937,4.373092,0.446473,5.244705,0.416709,7.063069,-0.287728,17.206839,-1.656912,25.472133,-2.272053,1.457697,-0.109138,2.314282,-0.138903,3.050645,-0.11906" style="fill:none;stroke:black;stroke-width:3" />
<circle cx="124.105705" cy="30.198366" r="5" stroke-width="0" fill="#FF2A00" opacity="0.7" />
<path d="m29.367094,17.05221c1.187197,0.783808,2.224116,2.103385,2.224116,3.115391,0,3.333667-0.09017,5.317992-0.09017,8.602051" style="fill:none;stroke:#999;stroke-width:3" />
<path d="m15.105705,30.198366c0.886641,0.07937,4.373092,0.446473,5.244705,0.416709,7.063069,-0.287728,17.206839,-1.656912,25.472133,-2.272053,1.457697,-0.109138,2.314282,-0.138903,3.050645,-0.11906" style="fill:none;stroke:#999;stroke-width:3" />
<path d="m17.269709,38.51269c4.598509,3.581708,7.363626,8.086126,8.009822,10.596298" style="fill:none;stroke:black;stroke-width:3" />
<circle cx="235.269709" cy="38.51269" r="5" stroke-width="0" fill="#FF2A00" opacity="0.7" />
<path d="m29.367094,17.05221c1.187197,0.783808,2.224116,2.103385,2.224116,3.115391,0,3.333667-0.09017,5.317992-0.09017,8.602051" style="fill:none;stroke:#999;stroke-width:3" />
<path d="m15.105705,30.198366c0.886641,0.07937,4.373092,0.446473,5.244705,0.416709,7.063069,-0.287728,17.206839,-1.656912,25.472133,-2.272053,1.457697,-0.109138,2.314282,-0.138903,3.050645,-0.11906" style="fill:none;stroke:#999;stroke-width:3" />
<path d="m17.269709,38.51269c4.598509,3.581708,7.363626,8.086126,8.009822,10.596298" style="fill:none;stroke:#999;stroke-width:3" />
<path d="m43.297871,32.926814c0.450834,0.992163,0.646196,2.361347,0.165306,3.472569-2.148976,5.079874-3.276062,7.19318-5.665483,12.898116" style="fill:none;stroke:black;stroke-width:3" />
<circle cx="370.297871" cy="32.926814" r="5" stroke-width="0" fill="#FF2A00" opacity="0.7" />
<path d="m29.367094,17.05221c1.187197,0.783808,2.224116,2.103385,2.224116,3.115391,0,3.333667-0.09017,5.317992-0.09017,8.602051" style="fill:none;stroke:#999;stroke-width:3" />
<path d="m15.105705,30.198366c0.886641,0.07937,4.373092,0.446473,5.244705,0.416709,7.063069,-0.287728,17.206839,-1.656912,25.472133,-2.272053,1.457697,-0.109138,2.314282,-0.138903,3.050645,-0.11906" style="fill:none;stroke:#999;stroke-width:3" />
<path d="m17.269709,38.51269c4.598509,3.581708,7.363626,8.086126,8.009822,10.596298" style="fill:none;stroke:#999;stroke-width:3" />
<path d="m43.297871,32.926814c0.450834,0.992163,0.646196,2.361347,0.165306,3.472569-2.148976,5.079874-3.276062,7.19318-5.665483,12.898116" style="fill:none;stroke:#999;stroke-width:3" />
<path d="m10.882892,52.273987c3.291089,0.188511,6.64229,0.42663,9.918352,0.08929,22.015737,-2.242288,44.046502,-4.256378,64.48432,-5.605719,3.065673,-0.208355,6.882736,-0.654828,9.768075,0.347256" style="fill:none;stroke:black;stroke-width:3" />
<circle cx="446.882892" cy="52.273987" r="5" stroke-width="0" fill="#FF2A00" opacity="0.7" />
<path d="m29.367094,17.05221c1.187197,0.783808,2.224116,2.103385,2.224116,3.115391,0,3.333667-0.09017,5.317992-0.09017,8.602051" style="fill:none;stroke:#999;stroke-width:3" />
<path d="m15.105705,30.198366c0.886641,0.07937,4.373092,0.446473,5.244705,0.416709,7.063069,-0.287728,17.206839,-1.656912,25.472133,-2.272053,1.457697,-0.109138,2.314282,-0.138903,3.050645,-0.11906" style="fill:none;stroke:#999;stroke-width:3" />
<path d="m17.269709,38.51269c4.598509,3.581708,7.363626,8.086126,8.009822,10.596298" style="fill:none;stroke:#999;stroke-width:3" />
<path d="m43.297871,32.926814c0.450834,0.992163,0.646196,2.361347,0.165306,3.472569-2.148976,5.079874-3.276062,7.19318-5.665483,12.898116" style="fill:none;stroke:#999;stroke-width:3" />
<path d="m10.882892,52.273987c3.291089,0.188511,6.64229,0.42663,9.918352,0.08929,22.015737,-2.242288,44.046502,-4.256378,64.48432,-5.605719,3.065673,-0.208355,6.882736,-0.654828,9.768075,0.347256" style="fill:none;stroke:#999;stroke-width:3" />
<path d="m17.555238,62.036869c1.09703,0.724279,1.592947,1.895031,1.592947,2.996331,0,2.172837,0.04508,14.426047,0.06011,20.974321,0,1.726363,0,3.055861,0,3.700767" style="fill:none;stroke:black;stroke-width:3" />
<circle cx="562.555238" cy="62.036869" r="5" stroke-width="0" fill="#FF2A00" opacity="0.7" />
<path d="m29.367094,17.05221c1.187197,0.783808,2.224116,2.103385,2.224116,3.115391,0,3.333667-0.09017,5.317992-0.09017,8.602051" style="fill:none;stroke:#999;stroke-width:3" />
<path d="m15.105705,30.198366c0.886641,0.07937,4.373092,0.446473,5.244705,0.416709,7.063069,-0.287728,17.206839,-1.656912,25.472133,-2.272053,1.457697,-0.109138,2.314282,-0.138903,3.050645,-0.11906" style="fill:none;stroke:#999;stroke-width:3" />
<path d="m17.269709,38.51269c4.598509,3.581708,7.363626,8.086126,8.009822,10.596298" style="fill:none;stroke:#999;stroke-width:3" />
<path d="m43.297871,32.926814c0.450834,0.992163,0.646196,2.361347,0.165306,3.472569-2.148976,5.079874-3.276062,7.19318-5.665483,12.898116" style="fill:none;stroke:#999;stroke-width:3" />
<path d="m10.882892,52.273987c3.291089,0.188511,6.64229,0.42663,9.918352,0.08929,22.015737,-2.242288,44.046502,-4.256378,64.48432,-5.605719,3.065673,-0.208355,6.882736,-0.654828,9.768075,0.347256" style="fill:none;stroke:#999;stroke-width:3" />
<path d="m17.555238,62.036869c1.09703,0.724279,1.592947,1.895031,1.592947,2.996331,0,2.172837,0.04508,14.426047,0.06011,20.974321,0,1.726363,0,3.055861,0,3.700767" style="fill:none;stroke:#999;stroke-width:3" />
<path d="m20.696049,63.50527c2.40445,-0.198433,15.328364,-1.656912,21.730209,-2.490329,4.087564,-0.535768,6.356763,0.317492,6.356763,2.549858,0,3.671003-0.01503,14.515342,0,20.468318,0,1.785893,0.01503,3.135234,0.01503,3.72061" style="fill:none;stroke:black;stroke-width:3" />
<circle cx="674.696049" cy="63.50527" r="5" stroke-width="0" fill="#FF2A00" opacity="0.7" />
<path d="m29.367094,17.05221c1.187197,0.783808,2.224116,2.103385,2.224116,3.115391,0,3.333667-0.09017,5.317992-0.09017,8.602051" style="fill:none;stroke:#999;stroke-width:3" />
<path d="m15.105705,30.198366c0.886641,0.07937,4.373092,0.446473,5.244705,0.416709,7.063069,-0.287728,17.206839,-1.656912,25.472133,-2.272053,1.457697,-0.109138,2.314282,-0.138903,3.050645,-0.11906" style="fill:none;stroke:#999;stroke-width:3" />
<path d="m17.269709,38.51269c4.598509,3.581708,7.363626,8.086126,8.009822,10.596298" style="fill:none;stroke:#999;stroke-width:3" />
<path d="m43.297871,32.926814c0.450834,0.992163,0.646196,2.361347,0.165306,3.472569-2.148976,5.079874-3.276062,7.19318-5.665483,12.898116" style="fill:none;stroke:#999;stroke-width:3" />
<path d="m10.882892,52.273987c3.291089,0.188511,6.64229,0.42663,9.918352,0.08929,22.015737,-2.242288,44.046502,-4.256378,64.48432,-5.605719,3.065673,-0.208355,6.882736,-0.654828,9.768075,0.347256" style="fill:none;stroke:#999;stroke-width:3" />
<path d="m17.555238,62.036869c1.09703,0.724279,1.592947,1.895031,1.592947,2.996331,0,2.172837,0.04508,14.426047,0.06011,20.974321,0,1.726363,0,3.055861,0,3.700767" style="fill:none;stroke:#999;stroke-width:3" />
<path d="m20.696049,63.50527c2.40445,-0.198433,15.328364,-1.656912,21.730209,-2.490329,4.087564,-0.535768,6.356763,0.317492,6.356763,2.549858,0,3.671003-0.01503,14.515342,0,20.468318,0,1.785893,0.01503,3.135234,0.01503,3.72061" style="fill:none;stroke:#999;stroke-width:3" />
<path d="m20.410521,74.766317c4.929121,-0.416708,22.286238,-1.805736,26.358774,-1.984326" style="fill:none;stroke:black;stroke-width:3" />
<circle cx="783.410521" cy="74.766317" r="5" stroke-width="0" fill="#FF2A00" opacity="0.7" />
<path d="m29.367094,17.05221c1.187197,0.783808,2.224116,2.103385,2.224116,3.115391,0,3.333667-0.09017,5.317992-0.09017,8.602051" style="fill:none;stroke:#999;stroke-width:3" />
<path d="m15.105705,30.198366c0.886641,0.07937,4.373092,0.446473,5.244705,0.416709,7.063069,-0.287728,17.206839,-1.656912,25.472133,-2.272053,1.457697,-0.109138,2.314282,-0.138903,3.050645,-0.11906" style="fill:none;stroke:#999;stroke-width:3" />
<path d="m17.269709,38.51269c4.598509,3.581708,7.363626,8.086126,8.009822,10.596298" style="fill:none;stroke:#999;stroke-width:3" />
<path d="m43.297871,32.926814c0.450834,0.992163,0.646196,2.361347,0.165306,3.472569-2.148976,5.079874-3.276062,7.19318-5.665483,12.898116" style="fill:none;stroke:#999;stroke-width:3" />
<path d="m10.882892,52.273987c3.291089,0.188511,6.64229,0.42663,9.918352,0.08929,22.015737,-2.242288,44.046502,-4.256378,64.48432,-5.605719,3.065673,-0.208355,6.882736,-0.654828,9.768075,0.347256" style="fill:none;stroke:#999;stroke-width:3" />
<path d="m17.555238,62.036869c1.09703,0.724279,1.592947,1.895031,1.592947,2.996331,0,2.172837,0.04508,14.426047,0.06011,20.974321,0,1.726363,0,3.055861,0,3.700767" style="fill:none;stroke:#999;stroke-width:3" />
<path d="m20.696049,63.50527c2.40445,-0.198433,15.328364,-1.656912,21.730209,-2.490329,4.087564,-0.535768,6.356763,0.317492,6.356763,2.549858,0,3.671003-0.01503,14.515342,0,20.468318,0,1.785893,0.01503,3.135234,0.01503,3.72061" style="fill:none;stroke:#999;stroke-width:3" />
<path d="m20.410521,74.766317c4.929121,-0.416708,22.286238,-1.805736,26.358774,-1.984326" style="fill:none;stroke:#999;stroke-width:3" />
<path d="m21.071745,86.682192c6.522068,-0.42663,18.49923,-1.468401,25.396994,-1.76605" style="fill:none;stroke:black;stroke-width:3" />
<circle cx="893.071745" cy="86.682192" r="5" stroke-width="0" fill="#FF2A00" opacity="0.7" />
<path d="m29.367094,17.05221c1.187197,0.783808,2.224116,2.103385,2.224116,3.115391,0,3.333667-0.09017,5.317992-0.09017,8.602051" style="fill:none;stroke:#999;stroke-width:3" />
<path d="m15.105705,30.198366c0.886641,0.07937,4.373092,0.446473,5.244705,0.416709,7.063069,-0.287728,17.206839,-1.656912,25.472133,-2.272053,1.457697,-0.109138,2.314282,-0.138903,3.050645,-0.11906" style="fill:none;stroke:#999;stroke-width:3" />
<path d="m17.269709,38.51269c4.598509,3.581708,7.363626,8.086126,8.009822,10.596298" style="fill:none;stroke:#999;stroke-width:3" />
<path d="m43.297871,32.926814c0.450834,0.992163,0.646196,2.361347,0.165306,3.472569-2.148976,5.079874-3.276062,7.19318-5.665483,12.898116" style="fill:none;stroke:#999;stroke-width:3" />
<path d="m10.882892,52.273987c3.291089,0.188511,6.64229,0.42663,9.918352,0.08929,22.015737,-2.242288,44.046502,-4.256378,64.48432,-5.605719,3.065673,-0.208355,6.882736,-0.654828,9.768075,0.347256" style="fill:none;stroke:#999;stroke-width:3" />
<path d="m17.555238,62.036869c1.09703,0.724279,1.592947,1.895031,1.592947,2.996331,0,2.172837,0.04508,14.426047,0.06011,20.974321,0,1.726363,0,3.055861,0,3.700767" style="fill:none;stroke:#999;stroke-width:3" />
<path d="m20.696049,63.50527c2.40445,-0.198433,15.328364,-1.656912,21.730209,-2.490329,4.087564,-0.535768,6.356763,0.317492,6.356763,2.549858,0,3.671003-0.01503,14.515342,0,20.468318,0,1.785893,0.01503,3.135234,0.01503,3.72061" style="fill:none;stroke:#999;stroke-width:3" />
<path d="m20.410521,74.766317c4.929121,-0.416708,22.286238,-1.805736,26.358774,-1.984326" style="fill:none;stroke:#999;stroke-width:3" />
<path d="m21.071745,86.682192c6.522068,-0.42663,18.49923,-1.468401,25.396994,-1.76605" style="fill:none;stroke:#999;stroke-width:3" />
<path d="m59.708236,13.331599c1.78831,1.180674,2.479589,2.599467,2.614839,5.357679,1.532836,30.608221,10.369187,65.214858,31.603478,76.952143,6.522067,3.601551,5.425038,1.260047,4.628565,-6.617725" style="fill:none;stroke:black;stroke-width:3" />
<circle cx="1040.708236" cy="13.331599" r="5" stroke-width="0" fill="#FF2A00" opacity="0.7" />
<path d="m29.367094,17.05221c1.187197,0.783808,2.224116,2.103385,2.224116,3.115391,0,3.333667-0.09017,5.317992-0.09017,8.602051" style="fill:none;stroke:#999;stroke-width:3" />
<path d="m15.105705,30.198366c0.886641,0.07937,4.373092,0.446473,5.244705,0.416709,7.063069,-0.287728,17.206839,-1.656912,25.472133,-2.272053,1.457697,-0.109138,2.314282,-0.138903,3.050645,-0.11906" style="fill:none;stroke:#999;stroke-width:3" />
<path d="m17.269709,38.51269c4.598509,3.581708,7.363626,8.086126,8.009822,10.596298" style="fill:none;stroke:#999;stroke-width:3" />
<path d="m43.297871,32.926814c0.450834,0.992163,0.646196,2.361347,0.165306,3.472569-2.148976,5.079874-3.276062,7.19318-5.665483,12.898116" style="fill:none;stroke:#999;stroke-width:3" />
<path d="m10.882892,52.273987c3.291089,0.188511,6.64229,0.42663,9.918352,0.08929,22.015737,-2.242288,44.046502,-4.256378,64.48432,-5.605719,3.065673,-0.208355,6.882736,-0.654828,9.768075,0.347256" style="fill:none;stroke:#999;stroke-width:3" />
<path d="m17.555238,62.036869c1.09703,0.724279,1.592947,1.895031,1.592947,2.996331,0,2.172837,0.04508,14.426047,0.06011,20.974321,0,1.726363,0,3.055861,0,3.700767" style="fill:none;stroke:#999;stroke-width:3" />
<path d="m20.696049,63.50527c2.40445,-0.198433,15.328364,-1.656912,21.730209,-2.490329,4.087564,-0.535768,6.356763,0.317492,6.356763,2.549858,0,3.671003-0.01503,14.515342,0,20.468318,0,1.785893,0.01503,3.135234,0.01503,3.72061" style="fill:none;stroke:#999;stroke-width:3" />
<path d="m20.410521,74.766317c4.929121,-0.416708,22.286238,-1.805736,26.358774,-1.984326" style="fill:none;stroke:#999;stroke-width:3" />
<path d="m21.071745,86.682192c6.522068,-0.42663,18.49923,-1.468401,25.396994,-1.76605" style="fill:none;stroke:#999;stroke-width:3" />
<path d="m59.708236,13.331599c1.78831,1.180674,2.479589,2.599467,2.614839,5.357679,1.532836,30.608221,10.369187,65.214858,31.603478,76.952143,6.522067,3.601551,5.425038,1.260047,4.628565,-6.617725" style="fill:none;stroke:#999;stroke-width:3" />
<path d="m89.403183,55.895381c0.07514,0.734201-0.09017,2.152994-0.525973,3.184843-2.855283,6.587961-12.247663,19.734117-27.560998,29.02076" style="fill:none;stroke:black;stroke-width:3" />
<circle cx="1179.403183" cy="55.895381" r="5" stroke-width="0" fill="#FF2A00" opacity="0.7" />
<path d="m29.367094,17.05221c1.187197,0.783808,2.224116,2.103385,2.224116,3.115391,0,3.333667-0.09017,5.317992-0.09017,8.602051" style="fill:none;stroke:#999;stroke-width:3" />
<path d="m15.105705,30.198366c0.886641,0.07937,4.373092,0.446473,5.244705,0.416709,7.063069,-0.287728,17.206839,-1.656912,25.472133,-2.272053,1.457697,-0.109138,2.314282,-0.138903,3.050645,-0.11906" style="fill:none;stroke:#999;stroke-width:3" />
<path d="m17.269709,38.51269c4.598509,3.581708,7.363626,8.086126,8.009822,10.596298" style="fill:none;stroke:#999;stroke-width:3" />
<path d="m43.297871,32.926814c0.450834,0.992163,0.646196,2.361347,0.165306,3.472569-2.148976,5.079874-3.276062,7.19318-5.665483,12.898116" style="fill:none;stroke:#999;stroke-width:3" />
<path d="m10.882892,52.273987c3.291089,0.188511,6.64229,0.42663,9.918352,0.08929,22.015737,-2.242288,44.046502,-4.256378,64.48432,-5.605719,3.065673,-0.208355,6.882736,-0.654828,9.768075,0.347256" style="fill:none;stroke:#999;stroke-width:3" />
<path d="m17.555238,62.036869c1.09703,0.724279,1.592947,1.895031,1.592947,2.996331,0,2.172837,0.04508,14.426047,0.06011,20.974321,0,1.726363,0,3.055861,0,3.700767" style="fill:none;stroke:#999;stroke-width:3" />
<path d="m20.696049,63.50527c2.40445,-0.198433,15.328364,-1.656912,21.730209,-2.490329,4.087564,-0.535768,6.356763,0.317492,6.356763,2.549858,0,3.671003-0.01503,14.515342,0,20.468318,0,1.785893,0.01503,3.135234,0.01503,3.72061" style="fill:none;stroke:#999;stroke-width:3" />
<path d="m20.410521,74.766317c4.929121,-0.416708,22.286238,-1.805736,26.358774,-1.984326" style="fill:none;stroke:#999;stroke-width:3" />
<path d="m21.071745,86.682192c6.522068,-0.42663,18.49923,-1.468401,25.396994,-1.76605" style="fill:none;stroke:#999;stroke-width:3" />
<path d="m59.708236,13.331599c1.78831,1.180674,2.479589,2.599467,2.614839,5.357679,1.532836,30.608221,10.369187,65.214858,31.603478,76.952143,6.522067,3.601551,5.425038,1.260047,4.628565,-6.617725" style="fill:none;stroke:#999;stroke-width:3" />
<path d="m89.403183,55.895381c0.07514,0.734201-0.09017,2.152994-0.525973,3.184843-2.855283,6.587961-12.247663,19.734117-27.560998,29.02076" style="fill:none;stroke:#999;stroke-width:3" />
<path d="m78.808579,22.648008c3.877174,2.103385,10.083659,6.925296,11.886996,10.536768" style="fill:none;stroke:black;stroke-width:3" />
<circle cx="1277.808579" cy="22.648008" r="5" stroke-width="0" fill="#FF2A00" opacity="0.7" />
</svg>