<svg width="1308px" height="109px" viewBox="0 0 1308px 109px" xmlns="http://www.w3.org/2000/svg" xmlns:xlink="http://www.w3.org/1999/xlink" xml:space="preserve" version="1.1"  baseProfile="full">
<line x1="1" y1="1" x2="1307" y2="1" style="stroke:#ddd;stroke-width:2" />
<line x1="1" y1="1" x2="1" y2="108" style="stroke:#ddd;stroke-width:2" />
<line x1="1" y1="108" x2="1307" y2="108" style="stroke:#ddd;stroke-width:2" />
<line x1="1307" y1="1" x2="1307" y2="108" style="stroke:#ddd;stroke-width:2" />
<line x1="109" y1="1" x2="109" y2="108" style="stroke:#ddd;stroke-width:2" />
<line x1="218" y1="1" x2="218" y2="108" style="stroke:#ddd;stroke-width:2" />
<line x1="327" y1="1" x2="327" y2="108" style="stroke:#ddd;stroke-width:2" />
<line x1="436" y1="1" x2="436" y2="108" style="stroke:#ddd;stroke-width:2" />
<line x1="545" y1="1" x2="545" y2="108" style="stroke:#ddd;stroke-width:2" />
<line x1="654" y1="1" x2="654" y2="108" style="stroke:#ddd;stroke-width:2" />
<line x1="763" y1="1" x2="763" y2="108" style="stroke:#ddd;stroke-width:2" />
<line x1="872" y1="1" x2="872" y2="108" style="stroke:#ddd;stroke-width:2" />
<line x1="981" y1="1" x2="981" y2="108" style="stroke:#ddd;stroke-width:2" />
<line x1="1090" y1="1" x2="1090" y2="108" style="stroke:#ddd;stroke-width:2" />
<line x1="1199" y1="1" x2="1199" y2="108" style="stroke:#ddd;stroke-width:2" />
<line x1="1" y1="54" x2="1307" y2="54" style="stroke:#ddd;stroke-width:2;stroke-dasharray:3 3" />
<line x1="55" y1="1" x2="55" y2="108" style="stroke:#ddd;stroke-width:2;stroke-dasharray:3 3" />
<line x1="164" y1="1" x2="164" y2="108" style="stroke:#ddd;stroke-width:2;stroke-dasharray:3 3" />
<line x1="273" y1="1" x2="273" y2="108" style="stroke:#ddd;stroke-width:2;stroke-dasharray:3 3" />
<line x1="382" y1="1" x2="382" y2="108" style="stroke:#ddd;stroke-width:2;stroke-dasharray:3 3" />
<line x1="491" y1="1" x2="491" y2="108" style="stroke:#ddd;stroke-width:2;stroke-dasharray:3 3" />
<line x1="600" y1="1" x2="600" y2="108" style="stroke:#ddd;stroke-width:2;stroke-dasharray:3 3" />
<line x1="709" y1="1" x2="709" y2="108" style="stroke:#ddd;stroke-width:2;stroke-dasharray:3 3" />
<line x1="818" y1="1" x2="818" y2="108" style="stroke:#ddd;stroke-width:2;stroke-dasharray:3 3" />
<line x1="927" y1="1" x2="927" y2="108" style="stroke:#ddd;stroke-width:2;stroke-dasharray:3 3" />
<line x1="1036" y1="1" x2="1036" y2="108" style="stroke:#ddd;stroke-width:2;stroke-dasharray:3 3" />
<line x1="1145" y1="1" x2="1145" y2="108" style="stroke:#ddd;stroke-width:2;stroke-dasharray:3 3" />
<line x1="1254" y1="1" x2="1254" y2="108" style="stroke:#ddd;stroke-width:2;stroke-dasharray:3 3" />
<path d="M12.25,38c2.14,0.26,4.07,0.43,6.27,0.11c4.13-0.59,9.07-1.73,15.09-2.58c1.06-0.15,2.16-0.3,3.31-0.44" style="fill:none;stroke:black;stroke-width:3" />
<circle cx="12.25" cy="38.0" r="5" stroke-width="0" fill="#FF2A00" opacity="0.7" />
<path d="M121.25,38c2.14,0.26,4.07,0.43,6.27,0.11c4.13-0.59,9.07-1.73,15.09-2.58c1.06-0.15,2.16-0.3,3.31-0.44" style="fill:none;stroke:#999;stroke-width:3" />
<path d="M134.77,13.33c0.95,0.95,1.26,2.42,1.26,4.52c0,14.56-0.01,64.94-0.01,69.9c0,14.25-6.57,4.53-8.02,3" style="fill:none;stroke:black;stroke-width:3" />
<circle cx="134.77" cy="13.33" r="5" stroke-width="0" fill="#FF2A00" opacity="0.7" />
<path d="M230.25,38c2.14,0.26,4.07,0.43,6.27,0.11c4.13-0.59,9.07-1.73,15.09-2.58c1.06-0.15,2.16-0.3,3.31-0.44" style="fill:none;stroke:#999;stroke-width:3" />
<path d="M243.77,13.33c0.95,0.95,1.26,2.42,1.26,4.52c0,14.56-0.01,64.94-0.01,69.9c0,14.25-6.57,4.53-8.02,3" style="fill:none;stroke:#999;stroke-width:3" />
<path d="M228.25,67.58c1.62,1.05,3.03,0.97,5.08-0.41c5.3-3.55,12.47-8.61,19.17-13.67" style="fill:none;stroke:black;stroke-width:3" />
<circle cx="228.25" cy="67.58" r="5" stroke-width="0" fill="#FF2A00" opacity="0.7" />
<path d="M339.25,38c2.14,0.26,4.07,0.43,6.27,0.11c4.13-0.59,9.07-1.73,15.09-2.58c1.06-0.15,2.16-0.3,3.31-0.44" style="fill:none;stroke:#999;stroke-width:3" />
<path d="M352.77,13.33c0.95,0.95,1.26,2.42,1.26,4.52c0,14.56-0.01,64.94-0.01,69.9c0,14.25-6.57,4.53-8.02,3" style="fill:none;stroke:#999;stroke-width:3" />
<path d="M337.25,67.58c1.62,1.05,3.03,0.97,5.08-0.41c5.3-3.55,12.47-8.61,19.17-13.67" style="fill:none;stroke:#999;stroke-width:3" />
<path d="M373.35,19.83c3.22,1.77,7.83,7.12,8.64,9.88" style="fill:none;stroke:black;stroke-width:3" />
<circle cx="373.35" cy="19.83" r="5" stroke-width="0" fill="#FF2A00" opacity="0.7" />
<path d="M448.25,38c2.14,0.26,4.07,0.43,6.27,0.11c4.13-0.59,9.07-1.73,15.09-2.58c1.06-0.15,2.16-0.3,3.31-0.44" style="fill:none;stroke:#999;stroke-width:3" />
<path d="M461.77,13.33c0.95,0.95,1.26,2.42,1.26,4.52c0,14.56-0.01,64.94-0.01,69.9c0,14.25-6.57,4.53-8.02,3" style="fill:none;stroke:#999;stroke-width:3" />
<path d="M446.25,67.58c1.62,1.05,3.03,0.97,5.08-0.41c5.3-3.55,12.47-8.61,19.17-13.67" style="fill:none;stroke:#999;stroke-width:3" />
<path d="M482.35,19.83c3.22,1.77,7.83,7.12,8.64,9.88" style="fill:none;stroke:#999;stroke-width:3" />
<path d="M521.9,16.45c0,1.17-0.34,2.03-0.83,2.96c-2.31,3.47-4.56,6.59-8.31,10.97" style="fill:none;stroke:black;stroke-width:3" />
<circle cx="521.9" cy="16.45" r="5" stroke-width="0" fill="#FF2A00" opacity="0.7" />
<path d="M557.25,38c2.14,0.26,4.07,0.43,6.27,0.11c4.13-0.59,9.07-1.73,15.09-2.58c1.06-0.15,2.16-0.3,3.31-0.44" style="fill:none;stroke:#999;stroke-width:3" />
<path d="M570.77,13.33c0.95,0.95,1.26,2.42,1.26,4.52c0,14.56-0.01,64.94-0.01,69.9c0,14.25-6.57,4.53-8.02,3" style="fill:none;stroke:#999;stroke-width:3" />
<path d="M555.25,67.58c1.62,1.05,3.03,0.97,5.08-0.41c5.3-3.55,12.47-8.61,19.17-13.67" style="fill:none;stroke:#999;stroke-width:3" />
<path d="M591.35,19.83c3.22,1.77,7.83,7.12,8.64,9.88" style="fill:none;stroke:#999;stroke-width:3" />
<path d="M630.9,16.45c0,1.17-0.34,2.03-0.83,2.96c-2.31,3.47-4.56,6.59-8.31,10.97" style="fill:none;stroke:#999;stroke-width:3" />
<path d="M589.62,35.53c2.95,0.49,5.9,0.38,8.89,0.01c8.25-1.04,21.62-2.54,29.76-3.32c2.83-0.27,5.57-0.54,8.35-0.04" style="fill:none;stroke:black;stroke-width:3" />
<circle cx="589.62" cy="35.53" r="5" stroke-width="0" fill="#FF2A00" opacity="0.7" />
<path d="M666.25,38c2.14,0.26,4.07,0.43,6.27,0.11c4.13-0.59,9.07-1.73,15.09-2.58c1.06-0.15,2.16-0.3,3.31-0.44" style="fill:none;stroke:#999;stroke-width:3" />
<path d="M679.77,13.33c0.95,0.95,1.26,2.42,1.26,4.52c0,14.56-0.01,64.94-0.01,69.9c0,14.25-6.57,4.53-8.02,3" style="fill:none;stroke:#999;stroke-width:3" />
<path d="M664.25,67.58c1.62,1.05,3.03,0.97,5.08-0.41c5.3-3.55,12.47-8.61,19.17-13.67" style="fill:none;stroke:#999;stroke-width:3" />
<path d="M700.35,19.83c3.22,1.77,7.83,7.12,8.64,9.88" style="fill:none;stroke:#999;stroke-width:3" />
<path d="M739.9,16.45c0,1.17-0.34,2.03-0.83,2.96c-2.31,3.47-4.56,6.59-8.31,10.97" style="fill:none;stroke:#999;stroke-width:3" />
<path d="M698.62,35.53c2.95,0.49,5.9,0.38,8.89,0.01c8.25-1.04,21.62-2.54,29.76-3.32c2.83-0.27,5.57-0.54,8.35-0.04" style="fill:none;stroke:#999;stroke-width:3" />
<path d="M694.0,48.79c3.08,0.61,6.17,0.68,9.27,0.19c10.17-1.15,25.73-2.36,37.62-3.52c3.24-0.43,6.46-0.34,9.66,0.27" style="fill:none;stroke:black;stroke-width:3" />
<circle cx="694.0" cy="48.79" r="5" stroke-width="0" fill="#FF2A00" opacity="0.7" />
<path d="M775.25,38c2.14,0.26,4.07,0.43,6.27,0.11c4.13-0.59,9.07-1.73,15.09-2.58c1.06-0.15,2.16-0.3,3.31-0.44" style="fill:none;stroke:#999;stroke-width:3" />
<path d="M788.77,13.33c0.95,0.95,1.26,2.42,1.26,4.52c0,14.56-0.01,64.94-0.01,69.9c0,14.25-6.57,4.53-8.02,3" style="fill:none;stroke:#999;stroke-width:3" />
<path d="M773.25,67.58c1.62,1.05,3.03,0.97,5.08-0.41c5.3-3.55,12.47-8.61,19.17-13.67" style="fill:none;stroke:#999;stroke-width:3" />
<path d="M809.35,19.83c3.22,1.77,7.83,7.12,8.64,9.88" style="fill:none;stroke:#999;stroke-width:3" />
<path d="M848.9,16.45c0,1.17-0.34,2.03-0.83,2.96c-2.31,3.47-4.56,6.59-8.31,10.97" style="fill:none;stroke:#999;stroke-width:3" />
<path d="M807.62,35.53c2.95,0.49,5.9,0.38,8.89,0.01c8.25-1.04,21.62-2.54,29.76-3.32c2.83-0.27,5.57-0.54,8.35-0.04" style="fill:none;stroke:#999;stroke-width:3" />
<path d="M803.0,48.79c3.08,0.61,6.17,0.68,9.27,0.19c10.17-1.15,25.73-2.36,37.62-3.52c3.24-0.43,6.46-0.34,9.66,0.27" style="fill:none;stroke:#999;stroke-width:3" />
<path d="M829.89,13.65c0.61,1.48,0.62,2.74,0.17,4.69C825.75,37.25,819.25,59.75,798.0,72.06" style="fill:none;stroke:black;stroke-width:3" />
<circle cx="829.89" cy="13.65" r="5" stroke-width="0" fill="#FF2A00" opacity="0.7" />
<path d="M884.25,38c2.14,0.26,4.07,0.43,6.27,0.11c4.13-0.59,9.07-1.73,15.09-2.58c1.06-0.15,2.16-0.3,3.31-0.44" style="fill:none;stroke:#999;stroke-width:3" />
<path d="M897.77,13.33c0.95,0.95,1.26,2.42,1.26,4.52c0,14.56-0.01,64.94-0.01,69.9c0,14.25-6.57,4.53-8.02,3" style="fill:none;stroke:#999;stroke-width:3" />
<path d="M882.25,67.58c1.62,1.05,3.03,0.97,5.08-0.41c5.3-3.55,12.47-8.61,19.17-13.67" style="fill:none;stroke:#999;stroke-width:3" />
<path d="M918.35,19.83c3.22,1.77,7.83,7.12,8.64,9.88" style="fill:none;stroke:#999;stroke-width:3" />
<path d="M957.9,16.45c0,1.17-0.34,2.03-0.83,2.96c-2.31,3.47-4.56,6.59-8.31,10.97" style="fill:none;stroke:#999;stroke-width:3" />
<path d="M916.62,35.53c2.95,0.49,5.9,0.38,8.89,0.01c8.25-1.04,21.62-2.54,29.76-3.32c2.83-0.27,5.57-0.54,8.35-0.04" style="fill:none;stroke:#999;stroke-width:3" />
<path d="M912.0,48.79c3.08,0.61,6.17,0.68,9.27,0.19c10.17-1.15,25.73-2.36,37.62-3.52c3.24-0.43,6.46-0.34,9.66,0.27" style="fill:none;stroke:#999;stroke-width:3" />
<path d="M938.89,13.65c0.61,1.48,0.62,2.74,0.17,4.69C934.75,37.25,928.25,59.75,907.0,72.06" style="fill:none;stroke:#999;stroke-width:3" />
<path d="M939.48,35.3c3.44,5.35,14.02,18.2,20.68,25.05c2.56,2.63,4.98,5.19,8.34,6.73" style="fill:none;stroke:black;stroke-width:3" />
<circle cx="939.48" cy="35.3" r="5" stroke-width="0" fill="#FF2A00" opacity="0.7" />
<path d="M993.25,38c2.14,0.26,4.07,0.43,6.27,0.11c4.13-0.59,9.07-1.73,15.09-2.58c1.06-0.15,2.16-0.3,3.31-0.44" style="fill:none;stroke:#999;stroke-width:3" />
<path d="M1006.77,13.33c0.95,0.95,1.26,2.42,1.26,4.52c0,14.56-0.01,64.94-0.01,69.9c0,14.25-6.57,4.53-8.02,3" style="fill:none;stroke:#999;stroke-width:3" />
<path d="M991.25,67.58c1.62,1.05,3.03,0.97,5.08-0.41c5.3-3.55,12.47-8.61,19.17-13.67" style="fill:none;stroke:#999;stroke-width:3" />
<path d="M1027.35,19.83c3.22,1.77,7.83,7.12,8.64,9.88" style="fill:none;stroke:#999;stroke-width:3" />
<path d="M1066.9,16.45c0,1.17-0.34,2.03-0.83,2.96c-2.31,3.47-4.56,6.59-8.31,10.97" style="fill:none;stroke:#999;stroke-width:3" />
<path d="M1025.62,35.53c2.95,0.49,5.9,0.38,8.89,0.01c8.25-1.04,21.62-2.54,29.76-3.32c2.83-0.27,5.57-0.54,8.35-0.04" style="fill:none;stroke:#999;stroke-width:3" />
<path d="M1021.0,48.79c3.08,0.61,6.17,0.68,9.27,0.19c10.17-1.15,25.73-2.36,37.62-3.52c3.24-0.43,6.46-0.34,9.66,0.27" style="fill:none;stroke:#999;stroke-width:3" />
<path d="M1047.8899999999999,13.65c0.61,1.48,0.62,2.74,0.17,4.69C1043.75,37.25,1037.25,59.75,1016.0,72.06" style="fill:none;stroke:#999;stroke-width:3" />
<path d="M1048.48,35.3c3.44,5.35,14.02,18.2,20.68,25.05c2.56,2.63,4.98,5.19,8.34,6.73" style="fill:none;stroke:#999;stroke-width:3" />
<path d="M1036.37,62.5c2.07,0.43,4.15,0.27,6.24,0.02c4.25-0.6,10.94-1.56,13.78-1.96c1.73-0.24,3.08,0.69,2.67,2.7c-0.36,1.78-1.31,6.72-1.93,10.47" style="fill:none;stroke:black;stroke-width:3" />
<circle cx="1036.37" cy="62.5" r="5" stroke-width="0" fill="#FF2A00" opacity="0.7" />
<path d="M1102.25,38c2.14,0.26,4.07,0.43,6.27,0.11c4.13-0.59,9.07-1.73,15.09-2.58c1.06-0.15,2.16-0.3,3.31-0.44" style="fill:none;stroke:#999;stroke-width:3" />
<path d="M1115.77,13.33c0.95,0.95,1.26,2.42,1.26,4.52c0,14.56-0.01,64.94-0.01,69.9c0,14.25-6.57,4.53-8.02,3" style="fill:none;stroke:#999;stroke-width:3" />
<path d="M1100.25,67.58c1.62,1.05,3.03,0.97,5.08-0.41c5.3-3.55,12.47-8.61,19.17-13.67" style="fill:none;stroke:#999;stroke-width:3" />
<path d="M1136.35,19.83c3.22,1.77,7.83,7.12,8.64,9.88" style="fill:none;stroke:#999;stroke-width:3" />
<path d="M1175.9,16.45c0,1.17-0.34,2.03-0.83,2.96c-2.31,3.47-4.56,6.59-8.31,10.97" style="fill:none;stroke:#999;stroke-width:3" />
<path d="M1134.62,35.53c2.95,0.49,5.9,0.38,8.89,0.01c8.25-1.04,21.62-2.54,29.76-3.32c2.83-0.27,5.57-0.54,8.35-0.04" style="fill:none;stroke:#999;stroke-width:3" />
<path d="M1130.0,48.79c3.08,0.61,6.17,0.68,9.27,0.19c10.17-1.15,25.73-2.36,37.62-3.52c3.24-0.43,6.46-0.34,9.66,0.27" style="fill:none;stroke:#999;stroke-width:3" />
<path d="M1156.8899999999999,13.65c0.61,1.48,0.62,2.74,0.17,4.69C1152.75,37.25,1146.25,59.75,1125.0,72.06" style="fill:none;stroke:#999;stroke-width:3" />
<path d="M1157.48,35.3c3.44,5.35,14.02,18.2,20.68,25.05c2.56,2.63,4.98,5.19,8.34,6.73" style="fill:none;stroke:#999;stroke-width:3" />
<path d="M1145.37,62.5c2.07,0.43,4.15,0.27,6.24,0.02c4.25-0.6,10.94-1.56,13.78-1.96c1.73-0.24,3.08,0.69,2.67,2.7c-0.36,1.78-1.31,6.72-1.93,10.47" style="fill:none;stroke:#999;stroke-width:3" />
<path d="M1142.66,74.75c1.91,0.96,3.9,1.32,5.96,1.09c4.2-0.14,10.3-0.66,15.13-0.98c1.86-0.12,3.61-0.22,5.12-0.26" style="fill:none;stroke:black;stroke-width:3" />
<circle cx="1142.66" cy="74.75" r="5" stroke-width="0" fill="#FF2A00" opacity="0.7" />
<path d="M1211.25,38c2.14,0.26,4.07,0.43,6.27,0.11c4.13-0.59,9.07-1.73,15.09-2.58c1.06-0.15,2.16-0.3,3.31-0.44" style="fill:none;stroke:#999;stroke-width:3" />
<path d="M1224.77,13.33c0.95,0.95,1.26,2.42,1.26,4.52c0,14.56-0.01,64.94-0.01,69.9c0,14.25-6.57,4.53-8.02,3" style="fill:none;stroke:#999;stroke-width:3" />
<path d="M1209.25,67.58c1.62,1.05,3.03,0.97,5.08-0.41c5.3-3.55,12.47-8.61,19.17-13.67" style="fill:none;stroke:#999;stroke-width:3" />
<path d="M1245.35,19.83c3.22,1.77,7.83,7.12,8.64,9.88" style="fill:none;stroke:#999;stroke-width:3" />
<path d="M1284.9,16.45c0,1.17-0.34,2.03-0.83,2.96c-2.31,3.47-4.56,6.59-8.31,10.97" style="fill:none;stroke:#999;stroke-width:3" />
<path d="M1243.62,35.53c2.95,0.49,5.9,0.38,8.89,0.01c8.25-1.04,21.62-2.54,29.76-3.32c2.83-0.27,5.57-0.54,8.35-0.04" style="fill:none;stroke:#999;stroke-width:3" />
<path d="M1239.0,48.79c3.08,0.61,6.17,0.68,9.27,0.19c10.17-1.15,25.73-2.36,37.62-3.52c3.24-0.43,6.46-0.34,9.66,0.27" style="fill:none;stroke:#999;stroke-width:3" />
<path d="M1265.8899999999999,13.65c0.61,1.48,0.62,2.74,0.17,4.69C1261.75,37.25,1255.25,59.75,1234.0,72.06" style="fill:none;stroke:#999;stroke-width:3" />
<path d="M1266.48,35.3c3.44,5.35,14.02,18.2,20.68,25.05c2.56,2.63,4.98,5.19,8.34,6.73" style="fill:none;stroke:#999;stroke-width:3" />
<path d="M1254.37,62.5c2.07,0.43,4.15,0.27,6.24,0.02c4.25-0.6,10.94-1.56,13.78-1.96c1.73-0.24,3.08,0.69,2.67,2.7c-0.36,1.78-1.31,6.72-1.93,10.47" style="fill:none;stroke:#999;stroke-width:3" />
<path d="M1251.66,74.75c1.91,0.96,3.9,1.32,5.96,1.09c4.2-0.14,10.3-0.66,15.13-0.98c1.86-0.12,3.61-0.22,5.12-0.26" style="fill:none;stroke:#999;stroke-width:3" />
<path d="M1252.41,75.25c0.92,0.92,1.23,1.62,1.23,2.6c0,3.15,0.06,6.25,0.06,9.1c0,5.8,2.24,8.42,18.68,8.42c14.37,0,14.85-2.97,14.85-9.96" style="fill:none;stroke:black;stroke-width:3" />
<circle cx="1252.41" cy="75.25" r="5" stroke-width="0" fill="#FF2A00" opacity="0.7" />
</svg>