<svg width="1308px" height="109px" viewBox="0 0 1308px 109px" xmlns="http://www.w3.org/2000/svg" xmlns:xlink="http://www.w3.org/1999/xlink" xml:space="preserve" version="1.1"  baseProfile="full">
<line x1="1" y1="1" x2="1307" y2="1" style="stroke:#ddd;stroke-width:2" />
<line x1="1" y1="1" x2="1" y2="108" style="stroke:#ddd;stroke-width:2" />
<line x1="1" y1="108" x2="1307" y2="108" style="stroke:#ddd;stroke-width:2" />
<line x1="1307" y1="1" x2="1307" y2="108" style="stroke:#ddd;stroke-width:2" />
<line x1="109" y1="1" x2="109" y2="108" style="stroke:#ddd;stroke-width:2" />
<line x1="218" y1="1" x2="218" y2="108" style="stroke:#ddd;stroke-width:2" />
<line x1="327" y1="1" x2="327" y2="108" style="stroke:#ddd;stroke-width:2" />
<line x1="436" y1="1" x2="436" y2="108" style="stroke:#ddd;stroke-width:2" />
<line x1="545" y1="1" x2="545" y2="108" style="stroke:#ddd;stroke-width:2" />
<line x1="654" y1="1" x2="654" y2="108" style="stroke:#ddd;stroke-width:2" />
<line x1="763" y1="1" x2="763" y2="108" style="stroke:#ddd;stroke-width:2" />
<line x1="872" y1="1" x2="872" y2="108" style="stroke:#ddd;stroke-width:2" />
<line x1="981" y1="1" x2="981" y2="108" style="stroke:#ddd;stroke-width:2" />
<line x1="1090" y1="1" x2="1090" y2="108" style="stroke:#ddd;stroke-width:2" />
<line x1="1199" y1="1" x2="1199" y2="108" style="stroke:#ddd;stroke-width:2" />
<line x1="1" y1="54" x2="1307" y2="54" style="stroke:#ddd;stroke-width:2;stroke-dasharray:3 3" />
<line x1="55" y1="1" x2="55" y2="108" style="stroke:#ddd;stroke-width:2;stroke-dasharray:3 3" />
<line x1="164" y1="1" x2="164" y2="108" style="stroke:#ddd;stroke-width:2;stroke-dasharray:3 3" />
<line x1="273" y1="1" x2="273" y2="108" style="stroke:#ddd;stroke-width:2;stroke-dasharray:3 3" />
<line x1="382" y1="1" x2="382" y2="108" style="stroke:#ddd;stroke-width:2;stroke-dasharray:3 3" />
<line x1="491" y1="1" x2="491" y2="108" style="stroke:#ddd;stroke-width:2;stroke-dasharray:3 3" />
<line x1="600" y1="1" x2="600" y2="108" style="stroke:#ddd;stroke-width:2;stroke-dasharray:3 3" />
<line x1="709" y1="1" x2="709" y2="108" style="stroke:#ddd;stroke-width:2;stroke-dasharray:3 3" />
<line x1="818" y1="1" x2="818" y2="108" style="stroke:#ddd;stroke-width:2;stroke-dasharray:3 3" />
<line x1="927" y1="1" x2="927" y2="108" style="stroke:#ddd;stroke-width:2;stroke-dasharray:3 3" />
<line x1="1036" y1="1" x2="1036" y2="108" style="stroke:#ddd;stroke-width:2;stroke-dasharray:3 3" />
<line x1="1145" y1="1" x2="1145" y2="108" style="stroke:#ddd;stroke-width:2;stroke-dasharray:3 3" />
<line x1="1254" y1="1" x2="1254" y2="108" style="stroke:#ddd;stroke-width:2;stroke-dasharray:3 3" />
<path d="M12.5,41.25c1.93,0.23,3.78,0.46,5.74,0.2c4.1-0.55,8.65-1.53,14.64-2.36c1.25-0.19,2.51-0.27,3.78-0.25" style="fill:none;stroke:black;stroke-width:3" />
<circle cx="12.5" cy="41.25" r="5" stroke-width="0" fill="#FF2A00" opacity="0.7" />
<path d="M121.5,41.25c1.93,0.23,3.78,0.46,5.74,0.2c4.1-0.55,8.65-1.53,14.64-2.36c1.25-0.19,2.51-0.27,3.78-0.25" style="fill:none;stroke:#999;stroke-width:3" />
<path d="M135.52,17.08c1.2,1.2,1.51,2.92,1.51,4.77c0,14.56-0.01,60.69-0.01,65.65c0,14.25-4.82,5.53-6.27,4" style="fill:none;stroke:black;stroke-width:3" />
<circle cx="135.52" cy="17.08" r="5" stroke-width="0" fill="#FF2A00" opacity="0.7" />
<path d="M230.5,41.25c1.93,0.23,3.78,0.46,5.74,0.2c4.1-0.55,8.65-1.53,14.64-2.36c1.25-0.19,2.51-0.27,3.78-0.25" style="fill:none;stroke:#999;stroke-width:3" />
<path d="M244.52,17.08c1.2,1.2,1.51,2.92,1.51,4.77c0,14.56-0.01,60.69-0.01,65.65c0,14.25-4.82,5.53-6.27,4" style="fill:none;stroke:#999;stroke-width:3" />
<path d="M230.0,68.08c1.62,1.05,3,0.94,4.75-0.33C241.04,63.2,246.77,59.06,253.0,54" style="fill:none;stroke:black;stroke-width:3" />
<circle cx="230.0" cy="68.08" r="5" stroke-width="0" fill="#FF2A00" opacity="0.7" />
<path d="M339.5,41.25c1.93,0.23,3.78,0.46,5.74,0.2c4.1-0.55,8.65-1.53,14.64-2.36c1.25-0.19,2.51-0.27,3.78-0.25" style="fill:none;stroke:#999;stroke-width:3" />
<path d="M353.52,17.08c1.2,1.2,1.51,2.92,1.51,4.77c0,14.56-0.01,60.69-0.01,65.65c0,14.25-4.82,5.53-6.27,4" style="fill:none;stroke:#999;stroke-width:3" />
<path d="M339.0,68.08c1.62,1.05,3,0.94,4.75-0.33C350.03999999999996,63.2,355.77,59.06,362.0,54" style="fill:none;stroke:#999;stroke-width:3" />
<path d="M374.40999999999997,15.17c3.42,1.99,8.84,8.2,9.69,11.3" style="fill:none;stroke:black;stroke-width:3" />
<circle cx="374.40999999999997" cy="15.17" r="5" stroke-width="0" fill="#FF2A00" opacity="0.7" />
<path d="M448.5,41.25c1.93,0.23,3.78,0.46,5.74,0.2c4.1-0.55,8.65-1.53,14.64-2.36c1.25-0.19,2.51-0.27,3.78-0.25" style="fill:none;stroke:#999;stroke-width:3" />
<path d="M462.52,17.08c1.2,1.2,1.51,2.92,1.51,4.77c0,14.56-0.01,60.69-0.01,65.65c0,14.25-4.82,5.53-6.27,4" style="fill:none;stroke:#999;stroke-width:3" />
<path d="M448.0,68.08c1.62,1.05,3,0.94,4.75-0.33C459.03999999999996,63.2,464.77,59.06,471.0,54" style="fill:none;stroke:#999;stroke-width:3" />
<path d="M483.40999999999997,15.17c3.42,1.99,8.84,8.2,9.69,11.3" style="fill:none;stroke:#999;stroke-width:3" />
<path d="M517.0699999999999,13.25c0,1.12-0.32,1.97-0.86,2.76c-1.94,3.14-6.01,8.46-8.49,10.99" style="fill:none;stroke:black;stroke-width:3" />
<circle cx="517.0699999999999" cy="13.25" r="5" stroke-width="0" fill="#FF2A00" opacity="0.7" />
<path d="M557.5,41.25c1.93,0.23,3.78,0.46,5.74,0.2c4.1-0.55,8.65-1.53,14.64-2.36c1.25-0.19,2.51-0.27,3.78-0.25" style="fill:none;stroke:#999;stroke-width:3" />
<path d="M571.52,17.08c1.2,1.2,1.51,2.92,1.51,4.77c0,14.56-0.01,60.69-0.01,65.65c0,14.25-4.82,5.53-6.27,4" style="fill:none;stroke:#999;stroke-width:3" />
<path d="M557.0,68.08c1.62,1.05,3,0.94,4.75-0.33C568.04,63.2,573.77,59.06,580.0,54" style="fill:none;stroke:#999;stroke-width:3" />
<path d="M592.41,15.17c3.42,1.99,8.84,8.2,9.69,11.3" style="fill:none;stroke:#999;stroke-width:3" />
<path d="M626.0699999999999,13.25c0,1.12-0.32,1.97-0.86,2.76c-1.94,3.14-6.01,8.46-8.49,10.99" style="fill:none;stroke:#999;stroke-width:3" />
<path d="M584.88,32.48c3.23,0.74,6.42,0.43,9.73-0.01C606.5,30.88,616.12,30,629.88,29.21c3.61-0.21,7.33-0.4,10.83,0.36" style="fill:none;stroke:black;stroke-width:3" />
<circle cx="584.88" cy="32.48" r="5" stroke-width="0" fill="#FF2A00" opacity="0.7" />
<path d="M666.5,41.25c1.93,0.23,3.78,0.46,5.74,0.2c4.1-0.55,8.65-1.53,14.64-2.36c1.25-0.19,2.51-0.27,3.78-0.25" style="fill:none;stroke:#999;stroke-width:3" />
<path d="M680.52,17.08c1.2,1.2,1.51,2.92,1.51,4.77c0,14.56-0.01,60.69-0.01,65.65c0,14.25-4.82,5.53-6.27,4" style="fill:none;stroke:#999;stroke-width:3" />
<path d="M666.0,68.08c1.62,1.05,3,0.94,4.75-0.33C677.04,63.2,682.77,59.06,689.0,54" style="fill:none;stroke:#999;stroke-width:3" />
<path d="M701.41,15.17c3.42,1.99,8.84,8.2,9.69,11.3" style="fill:none;stroke:#999;stroke-width:3" />
<path d="M735.0699999999999,13.25c0,1.12-0.32,1.97-0.86,2.76c-1.94,3.14-6.01,8.46-8.49,10.99" style="fill:none;stroke:#999;stroke-width:3" />
<path d="M693.88,32.48c3.23,0.74,6.42,0.43,9.73-0.01C715.5,30.88,725.12,30,738.88,29.21c3.61-0.21,7.33-0.4,10.83,0.36" style="fill:none;stroke:#999;stroke-width:3" />
<path d="M697.73,45.21c0.78,0.78,0.96,2.04,0.96,3.04c0,0.54-0.04,25.2-0.06,38.12c0,3.72-0.01,6.46-0.01,7.38" style="fill:none;stroke:black;stroke-width:3" />
<circle cx="697.73" cy="45.21" r="5" stroke-width="0" fill="#FF2A00" opacity="0.7" />
<path d="M775.5,41.25c1.93,0.23,3.78,0.46,5.74,0.2c4.1-0.55,8.65-1.53,14.64-2.36c1.25-0.19,2.51-0.27,3.78-0.25" style="fill:none;stroke:#999;stroke-width:3" />
<path d="M789.52,17.08c1.2,1.2,1.51,2.92,1.51,4.77c0,14.56-0.01,60.69-0.01,65.65c0,14.25-4.82,5.53-6.27,4" style="fill:none;stroke:#999;stroke-width:3" />
<path d="M775.0,68.08c1.62,1.05,3,0.94,4.75-0.33C786.04,63.2,791.77,59.06,798.0,54" style="fill:none;stroke:#999;stroke-width:3" />
<path d="M810.41,15.17c3.42,1.99,8.84,8.2,9.69,11.3" style="fill:none;stroke:#999;stroke-width:3" />
<path d="M844.0699999999999,13.25c0,1.12-0.32,1.97-0.86,2.76c-1.94,3.14-6.01,8.46-8.49,10.99" style="fill:none;stroke:#999;stroke-width:3" />
<path d="M802.88,32.48c3.23,0.74,6.42,0.43,9.73-0.01C824.5,30.88,834.12,30,847.88,29.21c3.61-0.21,7.33-0.4,10.83,0.36" style="fill:none;stroke:#999;stroke-width:3" />
<path d="M806.73,45.21c0.78,0.78,0.96,2.04,0.96,3.04c0,0.54-0.04,25.2-0.06,38.12c0,3.72-0.01,6.46-0.01,7.38" style="fill:none;stroke:#999;stroke-width:3" />
<path d="M808.4,46.89c1.18-0.14,10.14-2.03,13.83-2.71c3.06-0.56,3.83,0.92,3.83,3.82c0,6-0.04,31.82-0.04,44.27c0,6.73-3.52,1.98-5.3,0.03" style="fill:none;stroke:black;stroke-width:3" />
<circle cx="808.4" cy="46.89" r="5" stroke-width="0" fill="#FF2A00" opacity="0.7" />
<path d="M884.5,41.25c1.93,0.23,3.78,0.46,5.74,0.2c4.1-0.55,8.65-1.53,14.64-2.36c1.25-0.19,2.51-0.27,3.78-0.25" style="fill:none;stroke:#999;stroke-width:3" />
<path d="M898.52,17.08c1.2,1.2,1.51,2.92,1.51,4.77c0,14.56-0.01,60.69-0.01,65.65c0,14.25-4.82,5.53-6.27,4" style="fill:none;stroke:#999;stroke-width:3" />
<path d="M884.0,68.08c1.62,1.05,3,0.94,4.75-0.33C895.04,63.2,900.77,59.06,907.0,54" style="fill:none;stroke:#999;stroke-width:3" />
<path d="M919.41,15.17c3.42,1.99,8.84,8.2,9.69,11.3" style="fill:none;stroke:#999;stroke-width:3" />
<path d="M953.0699999999999,13.25c0,1.12-0.32,1.97-0.86,2.76c-1.94,3.14-6.01,8.46-8.49,10.99" style="fill:none;stroke:#999;stroke-width:3" />
<path d="M911.88,32.48c3.23,0.74,6.42,0.43,9.73-0.01C933.5,30.88,943.12,30,956.88,29.21c3.61-0.21,7.33-0.4,10.83,0.36" style="fill:none;stroke:#999;stroke-width:3" />
<path d="M915.73,45.21c0.78,0.78,0.96,2.04,0.96,3.04c0,0.54-0.04,25.2-0.06,38.12c0,3.72-0.01,6.46-0.01,7.38" style="fill:none;stroke:#999;stroke-width:3" />
<path d="M917.4,46.89c1.18-0.14,10.14-2.03,13.83-2.71c3.06-0.56,3.83,0.92,3.83,3.82c0,6-0.04,31.82-0.04,44.27c0,6.73-3.52,1.98-5.3,0.03" style="fill:none;stroke:#999;stroke-width:3" />
<path d="M917.65,60.01c6.85-0.76,9.85-1.39,16.64-2.07" style="fill:none;stroke:black;stroke-width:3" />
<circle cx="917.65" cy="60.01" r="5" stroke-width="0" fill="#FF2A00" opacity="0.7" />
<path d="M993.5,41.25c1.93,0.23,3.78,0.46,5.74,0.2c4.1-0.55,8.65-1.53,14.64-2.36c1.25-0.19,2.51-0.27,3.78-0.25" style="fill:none;stroke:#999;stroke-width:3" />
<path d="M1007.52,17.08c1.2,1.2,1.51,2.92,1.51,4.77c0,14.56-0.01,60.69-0.01,65.65c0,14.25-4.82,5.53-6.27,4" style="fill:none;stroke:#999;stroke-width:3" />
<path d="M993.0,68.08c1.62,1.05,3,0.94,4.75-0.33C1004.04,63.2,1009.77,59.06,1016.0,54" style="fill:none;stroke:#999;stroke-width:3" />
<path d="M1028.4099999999999,15.17c3.42,1.99,8.84,8.2,9.69,11.3" style="fill:none;stroke:#999;stroke-width:3" />
<path d="M1062.07,13.25c0,1.12-0.32,1.97-0.86,2.76c-1.94,3.14-6.01,8.46-8.49,10.99" style="fill:none;stroke:#999;stroke-width:3" />
<path d="M1020.88,32.48c3.23,0.74,6.42,0.43,9.73-0.01C1042.5,30.88,1052.12,30,1065.88,29.21c3.61-0.21,7.33-0.4,10.83,0.36" style="fill:none;stroke:#999;stroke-width:3" />
<path d="M1024.73,45.21c0.78,0.78,0.96,2.04,0.96,3.04c0,0.54-0.04,25.2-0.06,38.12c0,3.72-0.01,6.46-0.01,7.38" style="fill:none;stroke:#999;stroke-width:3" />
<path d="M1026.4,46.89c1.18-0.14,10.14-2.03,13.83-2.71c3.06-0.56,3.83,0.92,3.83,3.82c0,6-0.04,31.82-0.04,44.27c0,6.73-3.52,1.98-5.3,0.03" style="fill:none;stroke:#999;stroke-width:3" />
<path d="M1026.65,60.01c6.85-0.76,9.85-1.39,16.64-2.07" style="fill:none;stroke:#999;stroke-width:3" />
<path d="M1026.76,73.97c3.81-0.51,11.89-1.04,16.29-1.39" style="fill:none;stroke:black;stroke-width:3" />
<circle cx="1026.76" cy="73.97" r="5" stroke-width="0" fill="#FF2A00" opacity="0.7" />
<path d="M1102.5,41.25c1.93,0.23,3.78,0.46,5.74,0.2c4.1-0.55,8.65-1.53,14.64-2.36c1.25-0.19,2.51-0.27,3.78-0.25" style="fill:none;stroke:#999;stroke-width:3" />
<path d="M1116.52,17.08c1.2,1.2,1.51,2.92,1.51,4.77c0,14.56-0.01,60.69-0.01,65.65c0,14.25-4.82,5.53-6.27,4" style="fill:none;stroke:#999;stroke-width:3" />
<path d="M1102.0,68.08c1.62,1.05,3,0.94,4.75-0.33C1113.04,63.2,1118.77,59.06,1125.0,54" style="fill:none;stroke:#999;stroke-width:3" />
<path d="M1137.4099999999999,15.17c3.42,1.99,8.84,8.2,9.69,11.3" style="fill:none;stroke:#999;stroke-width:3" />
<path d="M1171.07,13.25c0,1.12-0.32,1.97-0.86,2.76c-1.94,3.14-6.01,8.46-8.49,10.99" style="fill:none;stroke:#999;stroke-width:3" />
<path d="M1129.88,32.48c3.23,0.74,6.42,0.43,9.73-0.01C1151.5,30.88,1161.12,30,1174.88,29.21c3.61-0.21,7.33-0.4,10.83,0.36" style="fill:none;stroke:#999;stroke-width:3" />
<path d="M1133.73,45.21c0.78,0.78,0.96,2.04,0.96,3.04c0,0.54-0.04,25.2-0.06,38.12c0,3.72-0.01,6.46-0.01,7.38" style="fill:none;stroke:#999;stroke-width:3" />
<path d="M1135.4,46.89c1.18-0.14,10.14-2.03,13.83-2.71c3.06-0.56,3.83,0.92,3.83,3.82c0,6-0.04,31.82-0.04,44.27c0,6.73-3.52,1.98-5.3,0.03" style="fill:none;stroke:#999;stroke-width:3" />
<path d="M1135.65,60.01c6.85-0.76,9.85-1.39,16.64-2.07" style="fill:none;stroke:#999;stroke-width:3" />
<path d="M1135.76,73.97c3.81-0.51,11.89-1.04,16.29-1.39" style="fill:none;stroke:#999;stroke-width:3" />
<path d="M1166.71,45.33c0.98,0.98,1.18,2.54,1.18,4.33c0,3.58,0,12.04-0.01,18.59c0,2.76,0,5.18,0,6.75" style="fill:none;stroke:black;stroke-width:3" />
<circle cx="1166.71" cy="45.33" r="5" stroke-width="0" fill="#FF2A00" opacity="0.7" />
<path d="M1211.5,41.25c1.93,0.23,3.78,0.46,5.74,0.2c4.1-0.55,8.65-1.53,14.64-2.36c1.25-0.19,2.51-0.27,3.78-0.25" style="fill:none;stroke:#999;stroke-width:3" />
<path d="M1225.52,17.08c1.2,1.2,1.51,2.92,1.51,4.77c0,14.56-0.01,60.69-0.01,65.65c0,14.25-4.82,5.53-6.27,4" style="fill:none;stroke:#999;stroke-width:3" />
<path d="M1211.0,68.08c1.62,1.05,3,0.94,4.75-0.33C1222.04,63.2,1227.77,59.06,1234.0,54" style="fill:none;stroke:#999;stroke-width:3" />
<path d="M1246.4099999999999,15.17c3.42,1.99,8.84,8.2,9.69,11.3" style="fill:none;stroke:#999;stroke-width:3" />
<path d="M1280.07,13.25c0,1.12-0.32,1.97-0.86,2.76c-1.94,3.14-6.01,8.46-8.49,10.99" style="fill:none;stroke:#999;stroke-width:3" />
<path d="M1238.88,32.48c3.23,0.74,6.42,0.43,9.73-0.01C1260.5,30.88,1270.12,30,1283.88,29.21c3.61-0.21,7.33-0.4,10.83,0.36" style="fill:none;stroke:#999;stroke-width:3" />
<path d="M1242.73,45.21c0.78,0.78,0.96,2.04,0.96,3.04c0,0.54-0.04,25.2-0.06,38.12c0,3.72-0.01,6.46-0.01,7.38" style="fill:none;stroke:#999;stroke-width:3" />
<path d="M1244.4,46.89c1.18-0.14,10.14-2.03,13.83-2.71c3.06-0.56,3.83,0.92,3.83,3.82c0,6-0.04,31.82-0.04,44.27c0,6.73-3.52,1.98-5.3,0.03" style="fill:none;stroke:#999;stroke-width:3" />
<path d="M1244.65,60.01c6.85-0.76,9.85-1.39,16.64-2.07" style="fill:none;stroke:#999;stroke-width:3" />
<path d="M1244.76,73.97c3.81-0.51,11.89-1.04,16.29-1.39" style="fill:none;stroke:#999;stroke-width:3" />
<path d="M1275.71,45.33c0.98,0.98,1.18,2.54,1.18,4.33c0,3.58,0,12.04-0.01,18.59c0,2.76,0,5.18,0,6.75" style="fill:none;stroke:#999;stroke-width:3" />
<path d="M1289.44,39.25c1.09,1.09,1.32,2.75,1.32,4.52c0,14.48-0.02,43.15-0.02,48.11c0,7.37-4,2.62-6.74,0.01" style="fill:none;stroke:black;stroke-width:3" />
<circle cx="1289.44" cy="39.25" r="5" stroke-width="0" fill="#FF2A00" opacity="0.7" />
</svg>