<svg width="1853px" height="109px" viewBox="0 0 1853px 109px" xmlns="http://www.w3.org/2000/svg" xmlns:xlink="http://www.w3.org/1999/xlink" xml:space="preserve" version="1.1"  baseProfile="full">
<line x1="1" y1="1" x2="1852" y2="1" style="stroke:#ddd;stroke-width:2" />
<line x1="1" y1="1" x2="1" y2="108" style="stroke:#ddd;stroke-width:2" />
<line x1="1" y1="108" x2="1852" y2="108" style="stroke:#ddd;stroke-width:2" />
<line x1="1852" y1="1" x2="1852" y2="108" style="stroke:#ddd;stroke-width:2" />
<line x1="109" y1="1" x2="109" y2="108" style="stroke:#ddd;stroke-width:2" />
<line x1="218" y1="1" x2="218" y2="108" style="stroke:#ddd;stroke-width:2" />
<line x1="327" y1="1" x2="327" y2="108" style="stroke:#ddd;stroke-width:2" />
<line x1="436" y1="1" x2="436" y2="108" style="stroke:#ddd;stroke-width:2" />
<line x1="545" y1="1" x2="545" y2="108" style="stroke:#ddd;stroke-width:2" />
<line x1="654" y1="1" x2="654" y2="108" style="stroke:#ddd;stroke-width:2" />
<line x1="763" y1="1" x2="763" y2="108" style="stroke:#ddd;stroke-width:2" />
<line x1="872" y1="1" x2="872" y2="108" style="stroke:#ddd;stroke-width:2" />
<line x1="981" y1="1" x2="981" y2="108" style="stroke:#ddd;stroke-width:2" />
<line x1="1090" y1="1" x2="1090" y2="108" style="stroke:#ddd;stroke-width:2" />
<line x1="1199" y1="1" x2="1199" y2="108" style="stroke:#ddd;stroke-width:2" />
<line x1="1308" y1="1" x2="1308" y2="108" style="stroke:#ddd;stroke-width:2" />
<line x1="1417" y1="1" x2="1417" y2="108" style="stroke:#ddd;stroke-width:2" />
<line x1="1526" y1="1" x2="1526" y2="108" style="stroke:#ddd;stroke-width:2" />
<line x1="1635" y1="1" x2="1635" y2="108" style="stroke:#ddd;stroke-width:2" />
<line x1="1744" y1="1" x2="1744" y2="108" style="stroke:#ddd;stroke-width:2" />
<line x1="1" y1="54" x2="1852" y2="54" style="stroke:#ddd;stroke-width:2;stroke-dasharray:3 3" />
<line x1="55" y1="1" x2="55" y2="108" style="stroke:#ddd;stroke-width:2;stroke-dasharray:3 3" />
<line x1="164" y1="1" x2="164" y2="108" style="stroke:#ddd;stroke-width:2;stroke-dasharray:3 3" />
<line x1="273" y1="1" x2="273" y2="108" style="stroke:#ddd;stroke-width:2;stroke-dasharray:3 3" />
<line x1="382" y1="1" x2="382" y2="108" style="stroke:#ddd;stroke-width:2;stroke-dasharray:3 3" />
<line x1="491" y1="1" x2="491" y2="108" style="stroke:#ddd;stroke-width:2;stroke-dasharray:3 3" />
<line x1="600" y1="1" x2="600" y2="108" style="stroke:#ddd;stroke-width:2;stroke-dasharray:3 3" />
<line x1="709" y1="1" x2="709" y2="108" style="stroke:#ddd;stroke-width:2;stroke-dasharray:3 3" />
<line x1="818" y1="1" x2="818" y2="108" style="stroke:#ddd;stroke-width:2;stroke-dasharray:3 3" />
<line x1="927" y1="1" x2="927" y2="108" style="stroke:#ddd;stroke-width:2;stroke-dasharray:3 3" />
<line x1="1036" y1="1" x2="1036" y2="108" style="stroke:#ddd;stroke-width:2;stroke-dasharray:3 3" />
<line x1="1145" y1="1" x2="1145" y2="108" style="stroke:#ddd;stroke-width:2;stroke-dasharray:3 3" />
<line x1="1254" y1="1" x2="1254" y2="108" style="stroke:#ddd;stroke-width:2;stroke-dasharray:3 3" />
<line x1="1363" y1="1" x2="1363" y2="108" style="stroke:#ddd;stroke-width:2;stroke-dasharray:3 3" />
<line x1="1472" y1="1" x2="1472" y2="108" style="stroke:#ddd;stroke-width:2;stroke-dasharray:3 3" />
<line x1="1581" y1="1" x2="1581" y2="108" style="stroke:#ddd;stroke-width:2;stroke-dasharray:3 3" />
<line x1="1690" y1="1" x2="1690" y2="108" style="stroke:#ddd;stroke-width:2;stroke-dasharray:3 3" />
<line x1="1799" y1="1" x2="1799" y2="108" style="stroke:#ddd;stroke-width:2;stroke-dasharray:3 3" />
<path d="M14.5,39.42c2.08,0.25,1.27,0.55,3.5,0.25c5.5-0.75,13.5-2,22.67-3.17" style="fill:none;stroke:black;stroke-width:3" />
<circle cx="14.5" cy="39.42" r="5" stroke-width="0" fill="#FF2A00" opacity="0.7" />
<path d="M123.5,39.42c2.08,0.25,1.27,0.55,3.5,0.25c5.5-0.75,13.5-2,22.67-3.17" style="fill:none;stroke:#999;stroke-width:3" />
<path d="M139.27,14.5c0.48,0.92,1.67,2.49,1.76,5.52c0.4,14.55,0.24,60.44,0.24,65.4c0,14.25-5.82,4.03-7.27,2.5" style="fill:none;stroke:black;stroke-width:3" />
<circle cx="139.27" cy="14.5" r="5" stroke-width="0" fill="#FF2A00" opacity="0.7" />
<path d="M232.5,39.42c2.08,0.25,1.27,0.55,3.5,0.25c5.5-0.75,13.5-2,22.67-3.17" style="fill:none;stroke:#999;stroke-width:3" />
<path d="M248.27,14.5c0.48,0.92,1.67,2.49,1.76,5.52c0.4,14.55,0.24,60.44,0.24,65.4c0,14.25-5.82,4.03-7.27,2.5" style="fill:none;stroke:#999;stroke-width:3" />
<path d="M230.5,65.14c2.79,2.26,4.58,1.22,7.36-0.71c1.64-1.14,11.67-8.79,18.64-14.27" style="fill:none;stroke:black;stroke-width:3" />
<circle cx="230.5" cy="65.14" r="5" stroke-width="0" fill="#FF2A00" opacity="0.7" />
<path d="M341.5,39.42c2.08,0.25,1.27,0.55,3.5,0.25c5.5-0.75,13.5-2,22.67-3.17" style="fill:none;stroke:#999;stroke-width:3" />
<path d="M357.27,14.5c0.48,0.92,1.67,2.49,1.76,5.52c0.4,14.55,0.24,60.44,0.24,65.4c0,14.25-5.82,4.03-7.27,2.5" style="fill:none;stroke:#999;stroke-width:3" />
<path d="M339.5,65.14c2.79,2.26,4.58,1.22,7.36-0.71c1.64-1.14,11.67-8.79,18.64-14.27" style="fill:none;stroke:#999;stroke-width:3" />
<path d="M372.25,15.75c1.5,0.75,2,0.75,4.25,0.5s9.5-1.75,11-2s3.5,1.5,3.5,3s0.25,18.5,0.25,20.75" style="fill:none;stroke:black;stroke-width:3" />
<circle cx="372.25" cy="15.75" r="5" stroke-width="0" fill="#FF2A00" opacity="0.7" />
<path d="M450.5,39.42c2.08,0.25,1.27,0.55,3.5,0.25c5.5-0.75,13.5-2,22.67-3.17" style="fill:none;stroke:#999;stroke-width:3" />
<path d="M466.27,14.5c0.48,0.92,1.67,2.49,1.76,5.52c0.4,14.55,0.24,60.44,0.24,65.4c0,14.25-5.82,4.03-7.27,2.5" style="fill:none;stroke:#999;stroke-width:3" />
<path d="M448.5,65.14c2.79,2.26,4.58,1.22,7.36-0.71c1.64-1.14,11.67-8.79,18.64-14.27" style="fill:none;stroke:#999;stroke-width:3" />
<path d="M481.25,15.75c1.5,0.75,2,0.75,4.25,0.5s9.5-1.75,11-2s3.5,1.5,3.5,3s0.25,18.5,0.25,20.75" style="fill:none;stroke:#999;stroke-width:3" />
<path d="M482.25,26c1.25,0.5,2.5,0.5,3.5,0.25S,496.0,25,498.25,24.75" style="fill:none;stroke:black;stroke-width:3" />
<circle cx="482.25" cy="26.0" r="5" stroke-width="0" fill="#FF2A00" opacity="0.7" />
<path d="M559.5,39.42c2.08,0.25,1.27,0.55,3.5,0.25c5.5-0.75,13.5-2,22.67-3.17" style="fill:none;stroke:#999;stroke-width:3" />
<path d="M575.27,14.5c0.48,0.92,1.67,2.49,1.76,5.52c0.4,14.55,0.24,60.44,0.24,65.4c0,14.25-5.82,4.03-7.27,2.5" style="fill:none;stroke:#999;stroke-width:3" />
<path d="M557.5,65.14c2.79,2.26,4.58,1.22,7.36-0.71c1.64-1.14,11.67-8.79,18.64-14.27" style="fill:none;stroke:#999;stroke-width:3" />
<path d="M590.25,15.75c1.5,0.75,2,0.75,4.25,0.5s9.5-1.75,11-2s3.5,1.5,3.5,3s0.25,18.5,0.25,20.75" style="fill:none;stroke:#999;stroke-width:3" />
<path d="M591.25,26c1.25,0.5,2.5,0.5,3.5,0.25S,496.0,25,498.25,24.75" style="fill:none;stroke:#999;stroke-width:3" />
<path d="M590.5,36.25c1.25,0.5,2.5,0.5,3.5,0.25s12.25-1.25,14.5-1.5" style="fill:none;stroke:black;stroke-width:3" />
<circle cx="590.5" cy="36.25" r="5" stroke-width="0" fill="#FF2A00" opacity="0.7" />
<path d="M668.5,39.42c2.08,0.25,1.27,0.55,3.5,0.25c5.5-0.75,13.5-2,22.67-3.17" style="fill:none;stroke:#999;stroke-width:3" />
<path d="M684.27,14.5c0.48,0.92,1.67,2.49,1.76,5.52c0.4,14.55,0.24,60.44,0.24,65.4c0,14.25-5.82,4.03-7.27,2.5" style="fill:none;stroke:#999;stroke-width:3" />
<path d="M666.5,65.14c2.79,2.26,4.58,1.22,7.36-0.71c1.64-1.14,11.67-8.79,18.64-14.27" style="fill:none;stroke:#999;stroke-width:3" />
<path d="M699.25,15.75c1.5,0.75,2,0.75,4.25,0.5s9.5-1.75,11-2s3.5,1.5,3.5,3s0.25,18.5,0.25,20.75" style="fill:none;stroke:#999;stroke-width:3" />
<path d="M700.25,26c1.25,0.5,2.5,0.5,3.5,0.25S,496.0,25,498.25,24.75" style="fill:none;stroke:#999;stroke-width:3" />
<path d="M699.5,36.25c1.25,0.5,2.5,0.5,3.5,0.25s12.25-1.25,14.5-1.5" style="fill:none;stroke:#999;stroke-width:3" />
<path d="M725.5,14c1.5,0.75,2,0.75,4.25,0.5s11-1.75,12.5-2s3.5,1.5,3.5,3S,745.5,35,745.5,37.25" style="fill:none;stroke:black;stroke-width:3" />
<circle cx="725.5" cy="14.0" r="5" stroke-width="0" fill="#FF2A00" opacity="0.7" />
<path d="M777.5,39.42c2.08,0.25,1.27,0.55,3.5,0.25c5.5-0.75,13.5-2,22.67-3.17" style="fill:none;stroke:#999;stroke-width:3" />
<path d="M793.27,14.5c0.48,0.92,1.67,2.49,1.76,5.52c0.4,14.55,0.24,60.44,0.24,65.4c0,14.25-5.82,4.03-7.27,2.5" style="fill:none;stroke:#999;stroke-width:3" />
<path d="M775.5,65.14c2.79,2.26,4.58,1.22,7.36-0.71c1.64-1.14,11.67-8.79,18.64-14.27" style="fill:none;stroke:#999;stroke-width:3" />
<path d="M808.25,15.75c1.5,0.75,2,0.75,4.25,0.5s9.5-1.75,11-2s3.5,1.5,3.5,3s0.25,18.5,0.25,20.75" style="fill:none;stroke:#999;stroke-width:3" />
<path d="M809.25,26c1.25,0.5,2.5,0.5,3.5,0.25S,496.0,25,498.25,24.75" style="fill:none;stroke:#999;stroke-width:3" />
<path d="M808.5,36.25c1.25,0.5,2.5,0.5,3.5,0.25s12.25-1.25,14.5-1.5" style="fill:none;stroke:#999;stroke-width:3" />
<path d="M834.5,14c1.5,0.75,2,0.75,4.25,0.5s11-1.75,12.5-2s3.5,1.5,3.5,3S,745.5,35,745.5,37.25" style="fill:none;stroke:#999;stroke-width:3" />
<path d="M835.5,24.75c1.25,0.5,2.5,0.5,3.5,0.25s12.25-1.25,14.5-1.5" style="fill:none;stroke:black;stroke-width:3" />
<circle cx="835.5" cy="24.75" r="5" stroke-width="0" fill="#FF2A00" opacity="0.7" />
<path d="M886.5,39.42c2.08,0.25,1.27,0.55,3.5,0.25c5.5-0.75,13.5-2,22.67-3.17" style="fill:none;stroke:#999;stroke-width:3" />
<path d="M902.27,14.5c0.48,0.92,1.67,2.49,1.76,5.52c0.4,14.55,0.24,60.44,0.24,65.4c0,14.25-5.82,4.03-7.27,2.5" style="fill:none;stroke:#999;stroke-width:3" />
<path d="M884.5,65.14c2.79,2.26,4.58,1.22,7.36-0.71c1.64-1.14,11.67-8.79,18.64-14.27" style="fill:none;stroke:#999;stroke-width:3" />
<path d="M917.25,15.75c1.5,0.75,2,0.75,4.25,0.5s9.5-1.75,11-2s3.5,1.5,3.5,3s0.25,18.5,0.25,20.75" style="fill:none;stroke:#999;stroke-width:3" />
<path d="M918.25,26c1.25,0.5,2.5,0.5,3.5,0.25S,496.0,25,498.25,24.75" style="fill:none;stroke:#999;stroke-width:3" />
<path d="M917.5,36.25c1.25,0.5,2.5,0.5,3.5,0.25s12.25-1.25,14.5-1.5" style="fill:none;stroke:#999;stroke-width:3" />
<path d="M943.5,14c1.5,0.75,2,0.75,4.25,0.5s11-1.75,12.5-2s3.5,1.5,3.5,3S,745.5,35,745.5,37.25" style="fill:none;stroke:#999;stroke-width:3" />
<path d="M944.5,24.75c1.25,0.5,2.5,0.5,3.5,0.25s12.25-1.25,14.5-1.5" style="fill:none;stroke:#999;stroke-width:3" />
<path d="M944.25,35c1.25,0.5,2.5,0.5,3.5,0.25s12.75-1.75,15-2" style="fill:none;stroke:black;stroke-width:3" />
<circle cx="944.25" cy="35.0" r="5" stroke-width="0" fill="#FF2A00" opacity="0.7" />
<path d="M995.5,39.42c2.08,0.25,1.27,0.55,3.5,0.25c5.5-0.75,13.5-2,22.67-3.17" style="fill:none;stroke:#999;stroke-width:3" />
<path d="M1011.27,14.5c0.48,0.92,1.67,2.49,1.76,5.52c0.4,14.55,0.24,60.44,0.24,65.4c0,14.25-5.82,4.03-7.27,2.5" style="fill:none;stroke:#999;stroke-width:3" />
<path d="M993.5,65.14c2.79,2.26,4.58,1.22,7.36-0.71c1.64-1.14,11.67-8.79,18.64-14.27" style="fill:none;stroke:#999;stroke-width:3" />
<path d="M1026.25,15.75c1.5,0.75,2,0.75,4.25,0.5s9.5-1.75,11-2s3.5,1.5,3.5,3s0.25,18.5,0.25,20.75" style="fill:none;stroke:#999;stroke-width:3" />
<path d="M1027.25,26c1.25,0.5,2.5,0.5,3.5,0.25S,496.0,25,498.25,24.75" style="fill:none;stroke:#999;stroke-width:3" />
<path d="M1026.5,36.25c1.25,0.5,2.5,0.5,3.5,0.25s12.25-1.25,14.5-1.5" style="fill:none;stroke:#999;stroke-width:3" />
<path d="M1052.5,14c1.5,0.75,2,0.75,4.25,0.5s11-1.75,12.5-2s3.5,1.5,3.5,3S,745.5,35,745.5,37.25" style="fill:none;stroke:#999;stroke-width:3" />
<path d="M1053.5,24.75c1.25,0.5,2.5,0.5,3.5,0.25s12.25-1.25,14.5-1.5" style="fill:none;stroke:#999;stroke-width:3" />
<path d="M1053.25,35c1.25,0.5,2.5,0.5,3.5,0.25s12.75-1.75,15-2" style="fill:none;stroke:#999;stroke-width:3" />
<path d="M1036.5,42.25c0.15,1.21-0.04,2.79-0.54,3.82c-3.17,6.59-7.19,12.16-14.46,20.18" style="fill:none;stroke:black;stroke-width:3" />
<circle cx="1036.5" cy="42.25" r="5" stroke-width="0" fill="#FF2A00" opacity="0.7" />
<path d="M1104.5,39.42c2.08,0.25,1.27,0.55,3.5,0.25c5.5-0.75,13.5-2,22.67-3.17" style="fill:none;stroke:#999;stroke-width:3" />
<path d="M1120.27,14.5c0.48,0.92,1.67,2.49,1.76,5.52c0.4,14.55,0.24,60.44,0.24,65.4c0,14.25-5.82,4.03-7.27,2.5" style="fill:none;stroke:#999;stroke-width:3" />
<path d="M1102.5,65.14c2.79,2.26,4.58,1.22,7.36-0.71c1.64-1.14,11.67-8.79,18.64-14.27" style="fill:none;stroke:#999;stroke-width:3" />
<path d="M1135.25,15.75c1.5,0.75,2,0.75,4.25,0.5s9.5-1.75,11-2s3.5,1.5,3.5,3s0.25,18.5,0.25,20.75" style="fill:none;stroke:#999;stroke-width:3" />
<path d="M1136.25,26c1.25,0.5,2.5,0.5,3.5,0.25S,496.0,25,498.25,24.75" style="fill:none;stroke:#999;stroke-width:3" />
<path d="M1135.5,36.25c1.25,0.5,2.5,0.5,3.5,0.25s12.25-1.25,14.5-1.5" style="fill:none;stroke:#999;stroke-width:3" />
<path d="M1161.5,14c1.5,0.75,2,0.75,4.25,0.5s11-1.75,12.5-2s3.5,1.5,3.5,3S,745.5,35,745.5,37.25" style="fill:none;stroke:#999;stroke-width:3" />
<path d="M1162.5,24.75c1.25,0.5,2.5,0.5,3.5,0.25s12.25-1.25,14.5-1.5" style="fill:none;stroke:#999;stroke-width:3" />
<path d="M1162.25,35c1.25,0.5,2.5,0.5,3.5,0.25s12.75-1.75,15-2" style="fill:none;stroke:#999;stroke-width:3" />
<path d="M1145.5,42.25c0.15,1.21-0.04,2.79-0.54,3.82c-3.17,6.59-7.19,12.16-14.46,20.18" style="fill:none;stroke:#999;stroke-width:3" />
<path d="M1142.05,55.29c0.75,5.8-0.36,36.11-0.02,41.21" style="fill:none;stroke:black;stroke-width:3" />
<circle cx="1142.05" cy="55.29" r="5" stroke-width="0" fill="#FF2A00" opacity="0.7" />
<path d="M1213.5,39.42c2.08,0.25,1.27,0.55,3.5,0.25c5.5-0.75,13.5-2,22.67-3.17" style="fill:none;stroke:#999;stroke-width:3" />
<path d="M1229.27,14.5c0.48,0.92,1.67,2.49,1.76,5.52c0.4,14.55,0.24,60.44,0.24,65.4c0,14.25-5.82,4.03-7.27,2.5" style="fill:none;stroke:#999;stroke-width:3" />
<path d="M1211.5,65.14c2.79,2.26,4.58,1.22,7.36-0.71c1.64-1.14,11.67-8.79,18.64-14.27" style="fill:none;stroke:#999;stroke-width:3" />
<path d="M1244.25,15.75c1.5,0.75,2,0.75,4.25,0.5s9.5-1.75,11-2s3.5,1.5,3.5,3s0.25,18.5,0.25,20.75" style="fill:none;stroke:#999;stroke-width:3" />
<path d="M1245.25,26c1.25,0.5,2.5,0.5,3.5,0.25S,496.0,25,498.25,24.75" style="fill:none;stroke:#999;stroke-width:3" />
<path d="M1244.5,36.25c1.25,0.5,2.5,0.5,3.5,0.25s12.25-1.25,14.5-1.5" style="fill:none;stroke:#999;stroke-width:3" />
<path d="M1270.5,14c1.5,0.75,2,0.75,4.25,0.5s11-1.75,12.5-2s3.5,1.5,3.5,3S,745.5,35,745.5,37.25" style="fill:none;stroke:#999;stroke-width:3" />
<path d="M1271.5,24.75c1.25,0.5,2.5,0.5,3.5,0.25s12.25-1.25,14.5-1.5" style="fill:none;stroke:#999;stroke-width:3" />
<path d="M1271.25,35c1.25,0.5,2.5,0.5,3.5,0.25s12.75-1.75,15-2" style="fill:none;stroke:#999;stroke-width:3" />
<path d="M1254.5,42.25c0.15,1.21-0.04,2.79-0.54,3.82c-3.17,6.59-7.19,12.16-14.46,20.18" style="fill:none;stroke:#999;stroke-width:3" />
<path d="M1251.05,55.29c0.75,5.8-0.36,36.11-0.02,41.21" style="fill:none;stroke:#999;stroke-width:3" />
<path d="M1275.74,41.5c0.07,0.57-0.02,1.33-0.25,1.82c-1.48,3.14-3.35,5.56-6.73,9.38" style="fill:none;stroke:black;stroke-width:3" />
<circle cx="1275.74" cy="41.5" r="5" stroke-width="0" fill="#FF2A00" opacity="0.7" />
<path d="M1322.5,39.42c2.08,0.25,1.27,0.55,3.5,0.25c5.5-0.75,13.5-2,22.67-3.17" style="fill:none;stroke:#999;stroke-width:3" />
<path d="M1338.27,14.5c0.48,0.92,1.67,2.49,1.76,5.52c0.4,14.55,0.24,60.44,0.24,65.4c0,14.25-5.82,4.03-7.27,2.5" style="fill:none;stroke:#999;stroke-width:3" />
<path d="M1320.5,65.14c2.79,2.26,4.58,1.22,7.36-0.71c1.64-1.14,11.67-8.79,18.64-14.27" style="fill:none;stroke:#999;stroke-width:3" />
<path d="M1353.25,15.75c1.5,0.75,2,0.75,4.25,0.5s9.5-1.75,11-2s3.5,1.5,3.5,3s0.25,18.5,0.25,20.75" style="fill:none;stroke:#999;stroke-width:3" />
<path d="M1354.25,26c1.25,0.5,2.5,0.5,3.5,0.25S,496.0,25,498.25,24.75" style="fill:none;stroke:#999;stroke-width:3" />
<path d="M1353.5,36.25c1.25,0.5,2.5,0.5,3.5,0.25s12.25-1.25,14.5-1.5" style="fill:none;stroke:#999;stroke-width:3" />
<path d="M1379.5,14c1.5,0.75,2,0.75,4.25,0.5s11-1.75,12.5-2s3.5,1.5,3.5,3S,745.5,35,745.5,37.25" style="fill:none;stroke:#999;stroke-width:3" />
<path d="M1380.5,24.75c1.25,0.5,2.5,0.5,3.5,0.25s12.25-1.25,14.5-1.5" style="fill:none;stroke:#999;stroke-width:3" />
<path d="M1380.25,35c1.25,0.5,2.5,0.5,3.5,0.25s12.75-1.75,15-2" style="fill:none;stroke:#999;stroke-width:3" />
<path d="M1363.5,42.25c0.15,1.21-0.04,2.79-0.54,3.82c-3.17,6.59-7.19,12.16-14.46,20.18" style="fill:none;stroke:#999;stroke-width:3" />
<path d="M1360.05,55.29c0.75,5.8-0.36,36.11-0.02,41.21" style="fill:none;stroke:#999;stroke-width:3" />
<path d="M1384.74,41.5c0.07,0.57-0.02,1.33-0.25,1.82c-1.48,3.14-3.35,5.56-6.73,9.38" style="fill:none;stroke:#999;stroke-width:3" />
<path d="M1360.23,55.03c7.19-0.83,34.55-3.24,37.63-3.7" style="fill:none;stroke:black;stroke-width:3" />
<circle cx="1360.23" cy="55.03" r="5" stroke-width="0" fill="#FF2A00" opacity="0.7" />
<path d="M1431.5,39.42c2.08,0.25,1.27,0.55,3.5,0.25c5.5-0.75,13.5-2,22.67-3.17" style="fill:none;stroke:#999;stroke-width:3" />
<path d="M1447.27,14.5c0.48,0.92,1.67,2.49,1.76,5.52c0.4,14.55,0.24,60.44,0.24,65.4c0,14.25-5.82,4.03-7.27,2.5" style="fill:none;stroke:#999;stroke-width:3" />
<path d="M1429.5,65.14c2.79,2.26,4.58,1.22,7.36-0.71c1.64-1.14,11.67-8.79,18.64-14.27" style="fill:none;stroke:#999;stroke-width:3" />
<path d="M1462.25,15.75c1.5,0.75,2,0.75,4.25,0.5s9.5-1.75,11-2s3.5,1.5,3.5,3s0.25,18.5,0.25,20.75" style="fill:none;stroke:#999;stroke-width:3" />
<path d="M1463.25,26c1.25,0.5,2.5,0.5,3.5,0.25S,496.0,25,498.25,24.75" style="fill:none;stroke:#999;stroke-width:3" />
<path d="M1462.5,36.25c1.25,0.5,2.5,0.5,3.5,0.25s12.25-1.25,14.5-1.5" style="fill:none;stroke:#999;stroke-width:3" />
<path d="M1488.5,14c1.5,0.75,2,0.75,4.25,0.5s11-1.75,12.5-2s3.5,1.5,3.5,3S,745.5,35,745.5,37.25" style="fill:none;stroke:#999;stroke-width:3" />
<path d="M1489.5,24.75c1.25,0.5,2.5,0.5,3.5,0.25s12.25-1.25,14.5-1.5" style="fill:none;stroke:#999;stroke-width:3" />
<path d="M1489.25,35c1.25,0.5,2.5,0.5,3.5,0.25s12.75-1.75,15-2" style="fill:none;stroke:#999;stroke-width:3" />
<path d="M1472.5,42.25c0.15,1.21-0.04,2.79-0.54,3.82c-3.17,6.59-7.19,12.16-14.46,20.18" style="fill:none;stroke:#999;stroke-width:3" />
<path d="M1469.05,55.29c0.75,5.8-0.36,36.11-0.02,41.21" style="fill:none;stroke:#999;stroke-width:3" />
<path d="M1493.74,41.5c0.07,0.57-0.02,1.33-0.25,1.82c-1.48,3.14-3.35,5.56-6.73,9.38" style="fill:none;stroke:#999;stroke-width:3" />
<path d="M1469.23,55.03c7.19-0.83,34.55-3.24,37.63-3.7" style="fill:none;stroke:#999;stroke-width:3" />
<path d="M1488.58,55.38c0.35,0.32,0.62,0.77,0.62,1.33c0,5.71,0.04,23.65-0.17,32.64" style="fill:none;stroke:black;stroke-width:3" />
<circle cx="1488.58" cy="55.38" r="5" stroke-width="0" fill="#FF2A00" opacity="0.7" />
<path d="M1540.5,39.42c2.08,0.25,1.27,0.55,3.5,0.25c5.5-0.75,13.5-2,22.67-3.17" style="fill:none;stroke:#999;stroke-width:3" />
<path d="M1556.27,14.5c0.48,0.92,1.67,2.49,1.76,5.52c0.4,14.55,0.24,60.44,0.24,65.4c0,14.25-5.82,4.03-7.27,2.5" style="fill:none;stroke:#999;stroke-width:3" />
<path d="M1538.5,65.14c2.79,2.26,4.58,1.22,7.36-0.71c1.64-1.14,11.67-8.79,18.64-14.27" style="fill:none;stroke:#999;stroke-width:3" />
<path d="M1571.25,15.75c1.5,0.75,2,0.75,4.25,0.5s9.5-1.75,11-2s3.5,1.5,3.5,3s0.25,18.5,0.25,20.75" style="fill:none;stroke:#999;stroke-width:3" />
<path d="M1572.25,26c1.25,0.5,2.5,0.5,3.5,0.25S,496.0,25,498.25,24.75" style="fill:none;stroke:#999;stroke-width:3" />
<path d="M1571.5,36.25c1.25,0.5,2.5,0.5,3.5,0.25s12.25-1.25,14.5-1.5" style="fill:none;stroke:#999;stroke-width:3" />
<path d="M1597.5,14c1.5,0.75,2,0.75,4.25,0.5s11-1.75,12.5-2s3.5,1.5,3.5,3S,745.5,35,745.5,37.25" style="fill:none;stroke:#999;stroke-width:3" />
<path d="M1598.5,24.75c1.25,0.5,2.5,0.5,3.5,0.25s12.25-1.25,14.5-1.5" style="fill:none;stroke:#999;stroke-width:3" />
<path d="M1598.25,35c1.25,0.5,2.5,0.5,3.5,0.25s12.75-1.75,15-2" style="fill:none;stroke:#999;stroke-width:3" />
<path d="M1581.5,42.25c0.15,1.21-0.04,2.79-0.54,3.82c-3.17,6.59-7.19,12.16-14.46,20.18" style="fill:none;stroke:#999;stroke-width:3" />
<path d="M1578.05,55.29c0.75,5.8-0.36,36.11-0.02,41.21" style="fill:none;stroke:#999;stroke-width:3" />
<path d="M1602.74,41.5c0.07,0.57-0.02,1.33-0.25,1.82c-1.48,3.14-3.35,5.56-6.73,9.38" style="fill:none;stroke:#999;stroke-width:3" />
<path d="M1578.23,55.03c7.19-0.83,34.55-3.24,37.63-3.7" style="fill:none;stroke:#999;stroke-width:3" />
<path d="M1597.58,55.38c0.35,0.32,0.62,0.77,0.62,1.33c0,5.71,0.04,23.65-0.17,32.64" style="fill:none;stroke:#999;stroke-width:3" />
<path d="M1579.51,66.86c6.78-0.69,32-2.68,34.91-3.06" style="fill:none;stroke:black;stroke-width:3" />
<circle cx="1579.51" cy="66.86" r="5" stroke-width="0" fill="#FF2A00" opacity="0.7" />
<path d="M1649.5,39.42c2.08,0.25,1.27,0.55,3.5,0.25c5.5-0.75,13.5-2,22.67-3.17" style="fill:none;stroke:#999;stroke-width:3" />
<path d="M1665.27,14.5c0.48,0.92,1.67,2.49,1.76,5.52c0.4,14.55,0.24,60.44,0.24,65.4c0,14.25-5.82,4.03-7.27,2.5" style="fill:none;stroke:#999;stroke-width:3" />
<path d="M1647.5,65.14c2.79,2.26,4.58,1.22,7.36-0.71c1.64-1.14,11.67-8.79,18.64-14.27" style="fill:none;stroke:#999;stroke-width:3" />
<path d="M1680.25,15.75c1.5,0.75,2,0.75,4.25,0.5s9.5-1.75,11-2s3.5,1.5,3.5,3s0.25,18.5,0.25,20.75" style="fill:none;stroke:#999;stroke-width:3" />
<path d="M1681.25,26c1.25,0.5,2.5,0.5,3.5,0.25S,496.0,25,498.25,24.75" style="fill:none;stroke:#999;stroke-width:3" />
<path d="M1680.5,36.25c1.25,0.5,2.5,0.5,3.5,0.25s12.25-1.25,14.5-1.5" style="fill:none;stroke:#999;stroke-width:3" />
<path d="M1706.5,14c1.5,0.75,2,0.75,4.25,0.5s11-1.75,12.5-2s3.5,1.5,3.5,3S,745.5,35,745.5,37.25" style="fill:none;stroke:#999;stroke-width:3" />
<path d="M1707.5,24.75c1.25,0.5,2.5,0.5,3.5,0.25s12.25-1.25,14.5-1.5" style="fill:none;stroke:#999;stroke-width:3" />
<path d="M1707.25,35c1.25,0.5,2.5,0.5,3.5,0.25s12.75-1.75,15-2" style="fill:none;stroke:#999;stroke-width:3" />
<path d="M1690.5,42.25c0.15,1.21-0.04,2.79-0.54,3.82c-3.17,6.59-7.19,12.16-14.46,20.18" style="fill:none;stroke:#999;stroke-width:3" />
<path d="M1687.05,55.29c0.75,5.8-0.36,36.11-0.02,41.21" style="fill:none;stroke:#999;stroke-width:3" />
<path d="M1711.74,41.5c0.07,0.57-0.02,1.33-0.25,1.82c-1.48,3.14-3.35,5.56-6.73,9.38" style="fill:none;stroke:#999;stroke-width:3" />
<path d="M1687.23,55.03c7.19-0.83,34.55-3.24,37.63-3.7" style="fill:none;stroke:#999;stroke-width:3" />
<path d="M1706.58,55.38c0.35,0.32,0.62,0.77,0.62,1.33c0,5.71,0.04,23.65-0.17,32.64" style="fill:none;stroke:#999;stroke-width:3" />
<path d="M1688.51,66.86c6.78-0.69,32-2.68,34.91-3.06" style="fill:none;stroke:#999;stroke-width:3" />
<path d="M1687.68,78.46c7.16-0.58,33.62-2.25,36.69-2.57" style="fill:none;stroke:black;stroke-width:3" />
<circle cx="1687.68" cy="78.46" r="5" stroke-width="0" fill="#FF2A00" opacity="0.7" />
<path d="M1758.5,39.42c2.08,0.25,1.27,0.55,3.5,0.25c5.5-0.75,13.5-2,22.67-3.17" style="fill:none;stroke:#999;stroke-width:3" />
<path d="M1774.27,14.5c0.48,0.92,1.67,2.49,1.76,5.52c0.4,14.55,0.24,60.44,0.24,65.4c0,14.25-5.82,4.03-7.27,2.5" style="fill:none;stroke:#999;stroke-width:3" />
<path d="M1756.5,65.14c2.79,2.26,4.58,1.22,7.36-0.71c1.64-1.14,11.67-8.79,18.64-14.27" style="fill:none;stroke:#999;stroke-width:3" />
<path d="M1789.25,15.75c1.5,0.75,2,0.75,4.25,0.5s9.5-1.75,11-2s3.5,1.5,3.5,3s0.25,18.5,0.25,20.75" style="fill:none;stroke:#999;stroke-width:3" />
<path d="M1790.25,26c1.25,0.5,2.5,0.5,3.5,0.25S,496.0,25,498.25,24.75" style="fill:none;stroke:#999;stroke-width:3" />
<path d="M1789.5,36.25c1.25,0.5,2.5,0.5,3.5,0.25s12.25-1.25,14.5-1.5" style="fill:none;stroke:#999;stroke-width:3" />
<path d="M1815.5,14c1.5,0.75,2,0.75,4.25,0.5s11-1.75,12.5-2s3.5,1.5,3.5,3S,745.5,35,745.5,37.25" style="fill:none;stroke:#999;stroke-width:3" />
<path d="M1816.5,24.75c1.25,0.5,2.5,0.5,3.5,0.25s12.25-1.25,14.5-1.5" style="fill:none;stroke:#999;stroke-width:3" />
<path d="M1816.25,35c1.25,0.5,2.5,0.5,3.5,0.25s12.75-1.75,15-2" style="fill:none;stroke:#999;stroke-width:3" />
<path d="M1799.5,42.25c0.15,1.21-0.04,2.79-0.54,3.82c-3.17,6.59-7.19,12.16-14.46,20.18" style="fill:none;stroke:#999;stroke-width:3" />
<path d="M1796.05,55.29c0.75,5.8-0.36,36.11-0.02,41.21" style="fill:none;stroke:#999;stroke-width:3" />
<path d="M1820.74,41.5c0.07,0.57-0.02,1.33-0.25,1.82c-1.48,3.14-3.35,5.56-6.73,9.38" style="fill:none;stroke:#999;stroke-width:3" />
<path d="M1796.23,55.03c7.19-0.83,34.55-3.24,37.63-3.7" style="fill:none;stroke:#999;stroke-width:3" />
<path d="M1815.58,55.38c0.35,0.32,0.62,0.77,0.62,1.33c0,5.71,0.04,23.65-0.17,32.64" style="fill:none;stroke:#999;stroke-width:3" />
<path d="M1797.51,66.86c6.78-0.69,32-2.68,34.91-3.06" style="fill:none;stroke:#999;stroke-width:3" />
<path d="M1796.68,78.46c7.16-0.58,33.62-2.25,36.69-2.57" style="fill:none;stroke:#999;stroke-width:3" />
<path d="M1797.36,91.27c7.19-0.83,39.99-3.42,43.08-3.87" style="fill:none;stroke:black;stroke-width:3" />
<circle cx="1797.36" cy="91.27" r="5" stroke-width="0" fill="#FF2A00" opacity="0.7" />
</svg>