<svg width="1417px" height="109px" viewBox="0 0 1417px 109px" xmlns="http://www.w3.org/2000/svg" xmlns:xlink="http://www.w3.org/1999/xlink" xml:space="preserve" version="1.1"  baseProfile="full">
<line x1="1" y1="1" x2="1416" y2="1" style="stroke:#ddd;stroke-width:2" />
<line x1="1" y1="1" x2="1" y2="108" style="stroke:#ddd;stroke-width:2" />
<line x1="1" y1="108" x2="1416" y2="108" style="stroke:#ddd;stroke-width:2" />
<line x1="1416" y1="1" x2="1416" y2="108" style="stroke:#ddd;stroke-width:2" />
<line x1="109" y1="1" x2="109" y2="108" style="stroke:#ddd;stroke-width:2" />
<line x1="218" y1="1" x2="218" y2="108" style="stroke:#ddd;stroke-width:2" />
<line x1="327" y1="1" x2="327" y2="108" style="stroke:#ddd;stroke-width:2" />
<line x1="436" y1="1" x2="436" y2="108" style="stroke:#ddd;stroke-width:2" />
<line x1="545" y1="1" x2="545" y2="108" style="stroke:#ddd;stroke-width:2" />
<line x1="654" y1="1" x2="654" y2="108" style="stroke:#ddd;stroke-width:2" />
<line x1="763" y1="1" x2="763" y2="108" style="stroke:#ddd;stroke-width:2" />
<line x1="872" y1="1" x2="872" y2="108" style="stroke:#ddd;stroke-width:2" />
<line x1="981" y1="1" x2="981" y2="108" style="stroke:#ddd;stroke-width:2" />
<line x1="1090" y1="1" x2="1090" y2="108" style="stroke:#ddd;stroke-width:2" />
<line x1="1199" y1="1" x2="1199" y2="108" style="stroke:#ddd;stroke-width:2" />
<line x1="1308" y1="1" x2="1308" y2="108" style="stroke:#ddd;stroke-width:2" />
<line x1="1" y1="54" x2="1416" y2="54" style="stroke:#ddd;stroke-width:2;stroke-dasharray:3 3" />
<line x1="55" y1="1" x2="55" y2="108" style="stroke:#ddd;stroke-width:2;stroke-dasharray:3 3" />
<line x1="164" y1="1" x2="164" y2="108" style="stroke:#ddd;stroke-width:2;stroke-dasharray:3 3" />
<line x1="273" y1="1" x2="273" y2="108" style="stroke:#ddd;stroke-width:2;stroke-dasharray:3 3" />
<line x1="382" y1="1" x2="382" y2="108" style="stroke:#ddd;stroke-width:2;stroke-dasharray:3 3" />
<line x1="491" y1="1" x2="491" y2="108" style="stroke:#ddd;stroke-width:2;stroke-dasharray:3 3" />
<line x1="600" y1="1" x2="600" y2="108" style="stroke:#ddd;stroke-width:2;stroke-dasharray:3 3" />
<line x1="709" y1="1" x2="709" y2="108" style="stroke:#ddd;stroke-width:2;stroke-dasharray:3 3" />
<line x1="818" y1="1" x2="818" y2="108" style="stroke:#ddd;stroke-width:2;stroke-dasharray:3 3" />
<line x1="927" y1="1" x2="927" y2="108" style="stroke:#ddd;stroke-width:2;stroke-dasharray:3 3" />
<line x1="1036" y1="1" x2="1036" y2="108" style="stroke:#ddd;stroke-width:2;stroke-dasharray:3 3" />
<line x1="1145" y1="1" x2="1145" y2="108" style="stroke:#ddd;stroke-width:2;stroke-dasharray:3 3" />
<line x1="1254" y1="1" x2="1254" y2="108" style="stroke:#ddd;stroke-width:2;stroke-dasharray:3 3" />
<line x1="1363" y1="1" x2="1363" y2="108" style="stroke:#ddd;stroke-width:2;stroke-dasharray:3 3" />
<path d="M12.53,38.72c2.07,0.32,4.16,0.54,6.24,0.26c5.36-0.73,13.11-1.6,18.75-2.54c1.18-0.2,2.57-0.17,3.75-0.07" style="fill:none;stroke:black;stroke-width:3" />
<circle cx="12.53" cy="38.72" r="5" stroke-width="0" fill="#FF2A00" opacity="0.7" />
<path d="M121.53,38.72c2.07,0.32,4.16,0.54,6.24,0.26c5.36-0.73,13.11-1.6,18.75-2.54c1.18-0.2,2.57-0.17,3.75-0.07" style="fill:none;stroke:#999;stroke-width:3" />
<path d="M137.11,15.75c1.13,1.13,1.29,2.5,1.29,4.17c0,0.76-0.02,45.49-0.02,66.08c0,5,0,8.58,0,9.75" style="fill:none;stroke:black;stroke-width:3" />
<circle cx="137.11" cy="15.75" r="5" stroke-width="0" fill="#FF2A00" opacity="0.7" />
<path d="M230.53,38.72c2.07,0.32,4.16,0.54,6.24,0.26c5.36-0.73,13.11-1.6,18.75-2.54c1.18-0.2,2.57-0.17,3.75-0.07" style="fill:none;stroke:#999;stroke-width:3" />
<path d="M246.11,15.75c1.13,1.13,1.29,2.5,1.29,4.17c0,0.76-0.02,45.49-0.02,66.08c0,5,0,8.58,0,9.75" style="fill:none;stroke:#999;stroke-width:3" />
<path d="M246.69,38.53c0,1.34-0.77,3.79-1.22,5.21C240.88,58.12,237.75,66,229.86,77.84" style="fill:none;stroke:black;stroke-width:3" />
<circle cx="246.69" cy="38.53" r="5" stroke-width="0" fill="#FF2A00" opacity="0.7" />
<path d="M339.53,38.72c2.07,0.32,4.16,0.54,6.24,0.26c5.36-0.73,13.11-1.6,18.75-2.54c1.18-0.2,2.57-0.17,3.75-0.07" style="fill:none;stroke:#999;stroke-width:3" />
<path d="M355.11,15.75c1.13,1.13,1.29,2.5,1.29,4.17c0,0.76-0.02,45.49-0.02,66.08c0,5,0,8.58,0,9.75" style="fill:none;stroke:#999;stroke-width:3" />
<path d="M355.69,38.53c0,1.34-0.77,3.79-1.22,5.21C349.88,58.12,346.75,66,338.86,77.84" style="fill:none;stroke:#999;stroke-width:3" />
<path d="M359.47,48.9c3.03,1.6,6.03,5.35,7.66,8.89" style="fill:none;stroke:black;stroke-width:3" />
<circle cx="359.47" cy="48.9" r="5" stroke-width="0" fill="#FF2A00" opacity="0.7" />
<path d="M448.53,38.72c2.07,0.32,4.16,0.54,6.24,0.26c5.36-0.73,13.11-1.6,18.75-2.54c1.18-0.2,2.57-0.17,3.75-0.07" style="fill:none;stroke:#999;stroke-width:3" />
<path d="M464.11,15.75c1.13,1.13,1.29,2.5,1.29,4.17c0,0.76-0.02,45.49-0.02,66.08c0,5,0,8.58,0,9.75" style="fill:none;stroke:#999;stroke-width:3" />
<path d="M464.69,38.53c0,1.34-0.77,3.79-1.22,5.21C458.88,58.12,455.75,66,447.86,77.84" style="fill:none;stroke:#999;stroke-width:3" />
<path d="M468.47,48.9c3.03,1.6,6.03,5.35,7.66,8.89" style="fill:none;stroke:#999;stroke-width:3" />
<path d="M483.72,19.83c3.66,2.55,6.61,6.48,9.35,11.01" style="fill:none;stroke:black;stroke-width:3" />
<circle cx="483.72" cy="19.83" r="5" stroke-width="0" fill="#FF2A00" opacity="0.7" />
<path d="M557.53,38.72c2.07,0.32,4.16,0.54,6.24,0.26c5.36-0.73,13.11-1.6,18.75-2.54c1.18-0.2,2.57-0.17,3.75-0.07" style="fill:none;stroke:#999;stroke-width:3" />
<path d="M573.11,15.75c1.13,1.13,1.29,2.5,1.29,4.17c0,0.76-0.02,45.49-0.02,66.08c0,5,0,8.58,0,9.75" style="fill:none;stroke:#999;stroke-width:3" />
<path d="M573.69,38.53c0,1.34-0.77,3.79-1.22,5.21C567.88,58.12,564.75,66,556.86,77.84" style="fill:none;stroke:#999;stroke-width:3" />
<path d="M577.47,48.9c3.03,1.6,6.03,5.35,7.66,8.89" style="fill:none;stroke:#999;stroke-width:3" />
<path d="M592.72,19.83c3.66,2.55,6.61,6.48,9.35,11.01" style="fill:none;stroke:#999;stroke-width:3" />
<path d="M586.29,42.35c1.4,0.73,3.65,0.57,5.13,0.23c2.11-0.48,11.31-2.86,13.07-3.59c2.19-0.9,3.76,0.24,2.46,2.9c-3.69,7.51-13.99,20.85-20.13,28.35" style="fill:none;stroke:black;stroke-width:3" />
<circle cx="586.29" cy="42.35" r="5" stroke-width="0" fill="#FF2A00" opacity="0.7" />
<path d="M666.53,38.72c2.07,0.32,4.16,0.54,6.24,0.26c5.36-0.73,13.11-1.6,18.75-2.54c1.18-0.2,2.57-0.17,3.75-0.07" style="fill:none;stroke:#999;stroke-width:3" />
<path d="M682.11,15.75c1.13,1.13,1.29,2.5,1.29,4.17c0,0.76-0.02,45.49-0.02,66.08c0,5,0,8.58,0,9.75" style="fill:none;stroke:#999;stroke-width:3" />
<path d="M682.69,38.53c0,1.34-0.77,3.79-1.22,5.21C676.88,58.12,673.75,66,665.86,77.84" style="fill:none;stroke:#999;stroke-width:3" />
<path d="M686.47,48.9c3.03,1.6,6.03,5.35,7.66,8.89" style="fill:none;stroke:#999;stroke-width:3" />
<path d="M701.72,19.83c3.66,2.55,6.61,6.48,9.35,11.01" style="fill:none;stroke:#999;stroke-width:3" />
<path d="M695.29,42.35c1.4,0.73,3.65,0.57,5.13,0.23c2.11-0.48,11.31-2.86,13.07-3.59c2.19-0.9,3.76,0.24,2.46,2.9c-3.69,7.51-13.99,20.85-20.13,28.35" style="fill:none;stroke:#999;stroke-width:3" />
<path d="M707.87,57.27c0.81,0.8,1.17,1.98,1.17,3.28c0,6.02,0.02,19.22,0.03,27.7c0,3.71,0.01,6.51,0.01,7.41" style="fill:none;stroke:black;stroke-width:3" />
<circle cx="707.87" cy="57.27" r="5" stroke-width="0" fill="#FF2A00" opacity="0.7" />
<path d="M775.53,38.72c2.07,0.32,4.16,0.54,6.24,0.26c5.36-0.73,13.11-1.6,18.75-2.54c1.18-0.2,2.57-0.17,3.75-0.07" style="fill:none;stroke:#999;stroke-width:3" />
<path d="M791.11,15.75c1.13,1.13,1.29,2.5,1.29,4.17c0,0.76-0.02,45.49-0.02,66.08c0,5,0,8.58,0,9.75" style="fill:none;stroke:#999;stroke-width:3" />
<path d="M791.69,38.53c0,1.34-0.77,3.79-1.22,5.21C785.88,58.12,782.75,66,774.86,77.84" style="fill:none;stroke:#999;stroke-width:3" />
<path d="M795.47,48.9c3.03,1.6,6.03,5.35,7.66,8.89" style="fill:none;stroke:#999;stroke-width:3" />
<path d="M810.72,19.83c3.66,2.55,6.61,6.48,9.35,11.01" style="fill:none;stroke:#999;stroke-width:3" />
<path d="M804.29,42.35c1.4,0.73,3.65,0.57,5.13,0.23c2.11-0.48,11.31-2.86,13.07-3.59c2.19-0.9,3.76,0.24,2.46,2.9c-3.69,7.51-13.99,20.85-20.13,28.35" style="fill:none;stroke:#999;stroke-width:3" />
<path d="M816.87,57.27c0.81,0.8,1.17,1.98,1.17,3.28c0,6.02,0.02,19.22,0.03,27.7c0,3.71,0.01,6.51,0.01,7.41" style="fill:none;stroke:#999;stroke-width:3" />
<path d="M820.63,56.99c2.74,2.28,6.31,5.66,8.66,9.65" style="fill:none;stroke:black;stroke-width:3" />
<circle cx="820.63" cy="56.99" r="5" stroke-width="0" fill="#FF2A00" opacity="0.7" />
<path d="M884.53,38.72c2.07,0.32,4.16,0.54,6.24,0.26c5.36-0.73,13.11-1.6,18.75-2.54c1.18-0.2,2.57-0.17,3.75-0.07" style="fill:none;stroke:#999;stroke-width:3" />
<path d="M900.11,15.75c1.13,1.13,1.29,2.5,1.29,4.17c0,0.76-0.02,45.49-0.02,66.08c0,5,0,8.58,0,9.75" style="fill:none;stroke:#999;stroke-width:3" />
<path d="M900.69,38.53c0,1.34-0.77,3.79-1.22,5.21C894.88,58.12,891.75,66,883.86,77.84" style="fill:none;stroke:#999;stroke-width:3" />
<path d="M904.47,48.9c3.03,1.6,6.03,5.35,7.66,8.89" style="fill:none;stroke:#999;stroke-width:3" />
<path d="M919.72,19.83c3.66,2.55,6.61,6.48,9.35,11.01" style="fill:none;stroke:#999;stroke-width:3" />
<path d="M913.29,42.35c1.4,0.73,3.65,0.57,5.13,0.23c2.11-0.48,11.31-2.86,13.07-3.59c2.19-0.9,3.76,0.24,2.46,2.9c-3.69,7.51-13.99,20.85-20.13,28.35" style="fill:none;stroke:#999;stroke-width:3" />
<path d="M925.87,57.27c0.81,0.8,1.17,1.98,1.17,3.28c0,6.02,0.02,19.22,0.03,27.7c0,3.71,0.01,6.51,0.01,7.41" style="fill:none;stroke:#999;stroke-width:3" />
<path d="M929.63,56.99c2.74,2.28,6.31,5.66,8.66,9.65" style="fill:none;stroke:#999;stroke-width:3" />
<path d="M941.15,36.27c0.85,0.85,1.25,1.89,1.31,2.56C942.95,44.4,943.33,51.58,943.7,59c0.13,2.63,0.26,5.29,0.4,7.92" style="fill:none;stroke:black;stroke-width:3" />
<circle cx="941.15" cy="36.27" r="5" stroke-width="0" fill="#FF2A00" opacity="0.7" />
<path d="M993.53,38.72c2.07,0.32,4.16,0.54,6.24,0.26c5.36-0.73,13.11-1.6,18.75-2.54c1.18-0.2,2.57-0.17,3.75-0.07" style="fill:none;stroke:#999;stroke-width:3" />
<path d="M1009.11,15.75c1.13,1.13,1.29,2.5,1.29,4.17c0,0.76-0.02,45.49-0.02,66.08c0,5,0,8.58,0,9.75" style="fill:none;stroke:#999;stroke-width:3" />
<path d="M1009.69,38.53c0,1.34-0.77,3.79-1.22,5.21C1003.88,58.12,1000.75,66,992.86,77.84" style="fill:none;stroke:#999;stroke-width:3" />
<path d="M1013.47,48.9c3.03,1.6,6.03,5.35,7.66,8.89" style="fill:none;stroke:#999;stroke-width:3" />
<path d="M1028.72,19.83c3.66,2.55,6.61,6.48,9.35,11.01" style="fill:none;stroke:#999;stroke-width:3" />
<path d="M1022.29,42.35c1.4,0.73,3.65,0.57,5.13,0.23c2.11-0.48,11.31-2.86,13.07-3.59c2.19-0.9,3.76,0.24,2.46,2.9c-3.69,7.51-13.99,20.85-20.13,28.35" style="fill:none;stroke:#999;stroke-width:3" />
<path d="M1034.87,57.27c0.81,0.8,1.17,1.98,1.17,3.28c0,6.02,0.02,19.22,0.03,27.7c0,3.71,0.01,6.51,0.01,7.41" style="fill:none;stroke:#999;stroke-width:3" />
<path d="M1038.63,56.99c2.74,2.28,6.31,5.66,8.66,9.65" style="fill:none;stroke:#999;stroke-width:3" />
<path d="M1050.15,36.27c0.85,0.85,1.25,1.89,1.31,2.56C1051.95,44.4,1052.33,51.58,1052.7,59c0.13,2.63,0.26,5.29,0.4,7.92" style="fill:none;stroke:#999;stroke-width:3" />
<path d="M1052.33,38.28c7.26-1.18,17.31-2.64,22.92-3.29c2.52-0.29,4.25,1.48,4.09,4c-0.28,4.19-0.79,10.88-1.44,18.13c-0.24,2.73-0.51,5.54-0.79,8.33" style="fill:none;stroke:black;stroke-width:3" />
<circle cx="1052.33" cy="38.28" r="5" stroke-width="0" fill="#FF2A00" opacity="0.7" />
<path d="M1102.53,38.72c2.07,0.32,4.16,0.54,6.24,0.26c5.36-0.73,13.11-1.6,18.75-2.54c1.18-0.2,2.57-0.17,3.75-0.07" style="fill:none;stroke:#999;stroke-width:3" />
<path d="M1118.1100000000001,15.75c1.13,1.13,1.29,2.5,1.29,4.17c0,0.76-0.02,45.49-0.02,66.08c0,5,0,8.58,0,9.75" style="fill:none;stroke:#999;stroke-width:3" />
<path d="M1118.69,38.53c0,1.34-0.77,3.79-1.22,5.21C1112.88,58.12,1109.75,66,1101.8600000000001,77.84" style="fill:none;stroke:#999;stroke-width:3" />
<path d="M1122.47,48.9c3.03,1.6,6.03,5.35,7.66,8.89" style="fill:none;stroke:#999;stroke-width:3" />
<path d="M1137.72,19.83c3.66,2.55,6.61,6.48,9.35,11.01" style="fill:none;stroke:#999;stroke-width:3" />
<path d="M1131.29,42.35c1.4,0.73,3.65,0.57,5.13,0.23c2.11-0.48,11.31-2.86,13.07-3.59c2.19-0.9,3.76,0.24,2.46,2.9c-3.69,7.51-13.99,20.85-20.13,28.35" style="fill:none;stroke:#999;stroke-width:3" />
<path d="M1143.87,57.27c0.81,0.8,1.17,1.98,1.17,3.28c0,6.02,0.02,19.22,0.03,27.7c0,3.71,0.01,6.51,0.01,7.41" style="fill:none;stroke:#999;stroke-width:3" />
<path d="M1147.63,56.99c2.74,2.28,6.31,5.66,8.66,9.65" style="fill:none;stroke:#999;stroke-width:3" />
<path d="M1159.15,36.27c0.85,0.85,1.25,1.89,1.31,2.56C1160.95,44.4,1161.33,51.58,1161.7,59c0.13,2.63,0.26,5.29,0.4,7.92" style="fill:none;stroke:#999;stroke-width:3" />
<path d="M1161.33,38.28c7.26-1.18,17.31-2.64,22.92-3.29c2.52-0.29,4.25,1.48,4.09,4c-0.28,4.19-0.79,10.88-1.44,18.13c-0.24,2.73-0.51,5.54-0.79,8.33" style="fill:none;stroke:#999;stroke-width:3" />
<path d="M1162.53,51c8.22-1,15.59-2,24.13-2.57" style="fill:none;stroke:black;stroke-width:3" />
<circle cx="1162.53" cy="51.0" r="5" stroke-width="0" fill="#FF2A00" opacity="0.7" />
<path d="M1211.53,38.72c2.07,0.32,4.16,0.54,6.24,0.26c5.36-0.73,13.11-1.6,18.75-2.54c1.18-0.2,2.57-0.17,3.75-0.07" style="fill:none;stroke:#999;stroke-width:3" />
<path d="M1227.1100000000001,15.75c1.13,1.13,1.29,2.5,1.29,4.17c0,0.76-0.02,45.49-0.02,66.08c0,5,0,8.58,0,9.75" style="fill:none;stroke:#999;stroke-width:3" />
<path d="M1227.69,38.53c0,1.34-0.77,3.79-1.22,5.21C1221.88,58.12,1218.75,66,1210.8600000000001,77.84" style="fill:none;stroke:#999;stroke-width:3" />
<path d="M1231.47,48.9c3.03,1.6,6.03,5.35,7.66,8.89" style="fill:none;stroke:#999;stroke-width:3" />
<path d="M1246.72,19.83c3.66,2.55,6.61,6.48,9.35,11.01" style="fill:none;stroke:#999;stroke-width:3" />
<path d="M1240.29,42.35c1.4,0.73,3.65,0.57,5.13,0.23c2.11-0.48,11.31-2.86,13.07-3.59c2.19-0.9,3.76,0.24,2.46,2.9c-3.69,7.51-13.99,20.85-20.13,28.35" style="fill:none;stroke:#999;stroke-width:3" />
<path d="M1252.87,57.27c0.81,0.8,1.17,1.98,1.17,3.28c0,6.02,0.02,19.22,0.03,27.7c0,3.71,0.01,6.51,0.01,7.41" style="fill:none;stroke:#999;stroke-width:3" />
<path d="M1256.63,56.99c2.74,2.28,6.31,5.66,8.66,9.65" style="fill:none;stroke:#999;stroke-width:3" />
<path d="M1268.15,36.27c0.85,0.85,1.25,1.89,1.31,2.56C1269.95,44.4,1270.33,51.58,1270.7,59c0.13,2.63,0.26,5.29,0.4,7.92" style="fill:none;stroke:#999;stroke-width:3" />
<path d="M1270.33,38.28c7.26-1.18,17.31-2.64,22.92-3.29c2.52-0.29,4.25,1.48,4.09,4c-0.28,4.19-0.79,10.88-1.44,18.13c-0.24,2.73-0.51,5.54-0.79,8.33" style="fill:none;stroke:#999;stroke-width:3" />
<path d="M1271.53,51c8.22-1,15.59-2,24.13-2.57" style="fill:none;stroke:#999;stroke-width:3" />
<path d="M1272.21,64.95c6.41-0.7,14.46-1.52,22.03-2.03" style="fill:none;stroke:black;stroke-width:3" />
<circle cx="1272.21" cy="64.95" r="5" stroke-width="0" fill="#FF2A00" opacity="0.7" />
<path d="M1320.53,38.72c2.07,0.32,4.16,0.54,6.24,0.26c5.36-0.73,13.11-1.6,18.75-2.54c1.18-0.2,2.57-0.17,3.75-0.07" style="fill:none;stroke:#999;stroke-width:3" />
<path d="M1336.1100000000001,15.75c1.13,1.13,1.29,2.5,1.29,4.17c0,0.76-0.02,45.49-0.02,66.08c0,5,0,8.58,0,9.75" style="fill:none;stroke:#999;stroke-width:3" />
<path d="M1336.69,38.53c0,1.34-0.77,3.79-1.22,5.21C1330.88,58.12,1327.75,66,1319.8600000000001,77.84" style="fill:none;stroke:#999;stroke-width:3" />
<path d="M1340.47,48.9c3.03,1.6,6.03,5.35,7.66,8.89" style="fill:none;stroke:#999;stroke-width:3" />
<path d="M1355.72,19.83c3.66,2.55,6.61,6.48,9.35,11.01" style="fill:none;stroke:#999;stroke-width:3" />
<path d="M1349.29,42.35c1.4,0.73,3.65,0.57,5.13,0.23c2.11-0.48,11.31-2.86,13.07-3.59c2.19-0.9,3.76,0.24,2.46,2.9c-3.69,7.51-13.99,20.85-20.13,28.35" style="fill:none;stroke:#999;stroke-width:3" />
<path d="M1361.87,57.27c0.81,0.8,1.17,1.98,1.17,3.28c0,6.02,0.02,19.22,0.03,27.7c0,3.71,0.01,6.51,0.01,7.41" style="fill:none;stroke:#999;stroke-width:3" />
<path d="M1365.63,56.99c2.74,2.28,6.31,5.66,8.66,9.65" style="fill:none;stroke:#999;stroke-width:3" />
<path d="M1377.15,36.27c0.85,0.85,1.25,1.89,1.31,2.56C1378.95,44.4,1379.33,51.58,1379.7,59c0.13,2.63,0.26,5.29,0.4,7.92" style="fill:none;stroke:#999;stroke-width:3" />
<path d="M1379.33,38.28c7.26-1.18,17.31-2.64,22.92-3.29c2.52-0.29,4.25,1.48,4.09,4c-0.28,4.19-0.79,10.88-1.44,18.13c-0.24,2.73-0.51,5.54-0.79,8.33" style="fill:none;stroke:#999;stroke-width:3" />
<path d="M1380.53,51c8.22-1,15.59-2,24.13-2.57" style="fill:none;stroke:#999;stroke-width:3" />
<path d="M1381.21,64.95c6.41-0.7,14.46-1.52,22.03-2.03" style="fill:none;stroke:#999;stroke-width:3" />
<path d="M1390.83,14c1.02,1.02,1.38,2.38,1.38,3.4c0,0.82-0.06,45.62-0.08,68.85c0,4.7-0.01,8.51-0.01,10.88" style="fill:none;stroke:black;stroke-width:3" />
<circle cx="1390.83" cy="14.0" r="5" stroke-width="0" fill="#FF2A00" opacity="0.7" />
</svg>