<svg width="1744px" height="109px" viewBox="0 0 1744px 109px" xmlns="http://www.w3.org/2000/svg" xmlns:xlink="http://www.w3.org/1999/xlink" xml:space="preserve" version="1.1"  baseProfile="full">
<line x1="1" y1="1" x2="1743" y2="1" style="stroke:#ddd;stroke-width:2" />
<line x1="1" y1="1" x2="1" y2="108" style="stroke:#ddd;stroke-width:2" />
<line x1="1" y1="108" x2="1743" y2="108" style="stroke:#ddd;stroke-width:2" />
<line x1="1743" y1="1" x2="1743" y2="108" style="stroke:#ddd;stroke-width:2" />
<line x1="109" y1="1" x2="109" y2="108" style="stroke:#ddd;stroke-width:2" />
<line x1="218" y1="1" x2="218" y2="108" style="stroke:#ddd;stroke-width:2" />
<line x1="327" y1="1" x2="327" y2="108" style="stroke:#ddd;stroke-width:2" />
<line x1="436" y1="1" x2="436" y2="108" style="stroke:#ddd;stroke-width:2" />
<line x1="545" y1="1" x2="545" y2="108" style="stroke:#ddd;stroke-width:2" />
<line x1="654" y1="1" x2="654" y2="108" style="stroke:#ddd;stroke-width:2" />
<line x1="763" y1="1" x2="763" y2="108" style="stroke:#ddd;stroke-width:2" />
<line x1="872" y1="1" x2="872" y2="108" style="stroke:#ddd;stroke-width:2" />
<line x1="981" y1="1" x2="981" y2="108" style="stroke:#ddd;stroke-width:2" />
<line x1="1090" y1="1" x2="1090" y2="108" style="stroke:#ddd;stroke-width:2" />
<line x1="1199" y1="1" x2="1199" y2="108" style="stroke:#ddd;stroke-width:2" />
<line x1="1308" y1="1" x2="1308" y2="108" style="stroke:#ddd;stroke-width:2" />
<line x1="1417" y1="1" x2="1417" y2="108" style="stroke:#ddd;stroke-width:2" />
<line x1="1526" y1="1" x2="1526" y2="108" style="stroke:#ddd;stroke-width:2" />
<line x1="1635" y1="1" x2="1635" y2="108" style="stroke:#ddd;stroke-width:2" />
<line x1="1" y1="54" x2="1743" y2="54" style="stroke:#ddd;stroke-width:2;stroke-dasharray:3 3" />
<line x1="55" y1="1" x2="55" y2="108" style="stroke:#ddd;stroke-width:2;stroke-dasharray:3 3" />
<line x1="164" y1="1" x2="164" y2="108" style="stroke:#ddd;stroke-width:2;stroke-dasharray:3 3" />
<line x1="273" y1="1" x2="273" y2="108" style="stroke:#ddd;stroke-width:2;stroke-dasharray:3 3" />
<line x1="382" y1="1" x2="382" y2="108" style="stroke:#ddd;stroke-width:2;stroke-dasharray:3 3" />
<line x1="491" y1="1" x2="491" y2="108" style="stroke:#ddd;stroke-width:2;stroke-dasharray:3 3" />
<line x1="600" y1="1" x2="600" y2="108" style="stroke:#ddd;stroke-width:2;stroke-dasharray:3 3" />
<line x1="709" y1="1" x2="709" y2="108" style="stroke:#ddd;stroke-width:2;stroke-dasharray:3 3" />
<line x1="818" y1="1" x2="818" y2="108" style="stroke:#ddd;stroke-width:2;stroke-dasharray:3 3" />
<line x1="927" y1="1" x2="927" y2="108" style="stroke:#ddd;stroke-width:2;stroke-dasharray:3 3" />
<line x1="1036" y1="1" x2="1036" y2="108" style="stroke:#ddd;stroke-width:2;stroke-dasharray:3 3" />
<line x1="1145" y1="1" x2="1145" y2="108" style="stroke:#ddd;stroke-width:2;stroke-dasharray:3 3" />
<line x1="1254" y1="1" x2="1254" y2="108" style="stroke:#ddd;stroke-width:2;stroke-dasharray:3 3" />
<line x1="1363" y1="1" x2="1363" y2="108" style="stroke:#ddd;stroke-width:2;stroke-dasharray:3 3" />
<line x1="1472" y1="1" x2="1472" y2="108" style="stroke:#ddd;stroke-width:2;stroke-dasharray:3 3" />
<line x1="1581" y1="1" x2="1581" y2="108" style="stroke:#ddd;stroke-width:2;stroke-dasharray:3 3" />
<line x1="1690" y1="1" x2="1690" y2="108" style="stroke:#ddd;stroke-width:2;stroke-dasharray:3 3" />
<path d="M14.28,40.72c0.35,0.24,2.39,0.41,3.31,0.31c3.94-0.41,17.62-2.21,23.95-3.41c0.92-0.17,1.15-0.24,1.73,0" style="fill:none;stroke:black;stroke-width:3" />
<circle cx="14.28" cy="40.72" r="5" stroke-width="0" fill="#FF2A00" opacity="0.7" />
<path d="M123.28,40.72c0.35,0.24,2.39,0.41,3.31,0.31c3.94-0.41,17.62-2.21,23.95-3.41c0.92-0.17,1.15-0.24,1.73,0" style="fill:none;stroke:#999;stroke-width:3" />
<path d="M138.86,14.5c0.91,0.47,2.54,3.25,2.54,5.42c0,0.95-0.12,70.75-0.3,76.58" style="fill:none;stroke:black;stroke-width:3" />
<circle cx="138.86" cy="14.5" r="5" stroke-width="0" fill="#FF2A00" opacity="0.7" />
<path d="M232.28,40.72c0.35,0.24,2.39,0.41,3.31,0.31c3.94-0.41,17.62-2.21,23.95-3.41c0.92-0.17,1.15-0.24,1.73,0" style="fill:none;stroke:#999;stroke-width:3" />
<path d="M247.86,14.5c0.91,0.47,2.54,3.25,2.54,5.42c0,0.95-0.12,70.75-0.3,76.58" style="fill:none;stroke:#999;stroke-width:3" />
<path d="M249.94,42.28c-5.9,14.39-9.19,20.47-18.33,33.06" style="fill:none;stroke:black;stroke-width:3" />
<circle cx="249.94" cy="42.28" r="5" stroke-width="0" fill="#FF2A00" opacity="0.7" />
<path d="M341.28,40.72c0.35,0.24,2.39,0.41,3.31,0.31c3.94-0.41,17.62-2.21,23.95-3.41c0.92-0.17,1.15-0.24,1.73,0" style="fill:none;stroke:#999;stroke-width:3" />
<path d="M356.86,14.5c0.91,0.47,2.54,3.25,2.54,5.42c0,0.95-0.12,70.75-0.3,76.58" style="fill:none;stroke:#999;stroke-width:3" />
<path d="M358.94,42.28c-5.9,14.39-9.19,20.47-18.33,33.06" style="fill:none;stroke:#999;stroke-width:3" />
<path d="M362.47,48.9c2.61,1.28,6.21,5.66,8.41,8.14" style="fill:none;stroke:black;stroke-width:3" />
<circle cx="362.47" cy="48.9" r="5" stroke-width="0" fill="#FF2A00" opacity="0.7" />
<path d="M450.28,40.72c0.35,0.24,2.39,0.41,3.31,0.31c3.94-0.41,17.62-2.21,23.95-3.41c0.92-0.17,1.15-0.24,1.73,0" style="fill:none;stroke:#999;stroke-width:3" />
<path d="M465.86,14.5c0.91,0.47,2.54,3.25,2.54,5.42c0,0.95-0.12,70.75-0.3,76.58" style="fill:none;stroke:#999;stroke-width:3" />
<path d="M467.94,42.28c-5.9,14.39-9.19,20.47-18.33,33.06" style="fill:none;stroke:#999;stroke-width:3" />
<path d="M471.47,48.9c2.61,1.28,6.21,5.66,8.41,8.14" style="fill:none;stroke:#999;stroke-width:3" />
<path d="M490.73,14.82c2.33,1.59,6.03,6.54,6.61,9.02" style="fill:none;stroke:black;stroke-width:3" />
<circle cx="490.73" cy="14.82" r="5" stroke-width="0" fill="#FF2A00" opacity="0.7" />
<path d="M559.28,40.72c0.35,0.24,2.39,0.41,3.31,0.31c3.94-0.41,17.62-2.21,23.95-3.41c0.92-0.17,1.15-0.24,1.73,0" style="fill:none;stroke:#999;stroke-width:3" />
<path d="M574.86,14.5c0.91,0.47,2.54,3.25,2.54,5.42c0,0.95-0.12,70.75-0.3,76.58" style="fill:none;stroke:#999;stroke-width:3" />
<path d="M576.94,42.28c-5.9,14.39-9.19,20.47-18.33,33.06" style="fill:none;stroke:#999;stroke-width:3" />
<path d="M580.47,48.9c2.61,1.28,6.21,5.66,8.41,8.14" style="fill:none;stroke:#999;stroke-width:3" />
<path d="M599.73,14.82c2.33,1.59,6.03,6.54,6.61,9.02" style="fill:none;stroke:#999;stroke-width:3" />
<path d="M625.16,12.65c0.02,0.25,0.04,0.66-0.04,1.02c-0.42,2.15-2.86,6.87-6.2,9.76" style="fill:none;stroke:black;stroke-width:3" />
<circle cx="625.16" cy="12.65" r="5" stroke-width="0" fill="#FF2A00" opacity="0.7" />
<path d="M668.28,40.72c0.35,0.24,2.39,0.41,3.31,0.31c3.94-0.41,17.62-2.21,23.95-3.41c0.92-0.17,1.15-0.24,1.73,0" style="fill:none;stroke:#999;stroke-width:3" />
<path d="M683.86,14.5c0.91,0.47,2.54,3.25,2.54,5.42c0,0.95-0.12,70.75-0.3,76.58" style="fill:none;stroke:#999;stroke-width:3" />
<path d="M685.94,42.28c-5.9,14.39-9.19,20.47-18.33,33.06" style="fill:none;stroke:#999;stroke-width:3" />
<path d="M689.47,48.9c2.61,1.28,6.21,5.66,8.41,8.14" style="fill:none;stroke:#999;stroke-width:3" />
<path d="M708.73,14.82c2.33,1.59,6.03,6.54,6.61,9.02" style="fill:none;stroke:#999;stroke-width:3" />
<path d="M734.16,12.65c0.02,0.25,0.04,0.66-0.04,1.02c-0.42,2.15-2.86,6.87-6.2,9.76" style="fill:none;stroke:#999;stroke-width:3" />
<path d="M700.43,27.92c0.87,0.45,2.46,0.55,3.34,0.45c7.73-0.9,33.11-4.56,41.39-4.56c1.45,0,2.32,0.21,3.05,0.44" style="fill:none;stroke:black;stroke-width:3" />
<circle cx="700.43" cy="27.92" r="5" stroke-width="0" fill="#FF2A00" opacity="0.7" />
<path d="M777.28,40.72c0.35,0.24,2.39,0.41,3.31,0.31c3.94-0.41,17.62-2.21,23.95-3.41c0.92-0.17,1.15-0.24,1.73,0" style="fill:none;stroke:#999;stroke-width:3" />
<path d="M792.86,14.5c0.91,0.47,2.54,3.25,2.54,5.42c0,0.95-0.12,70.75-0.3,76.58" style="fill:none;stroke:#999;stroke-width:3" />
<path d="M794.94,42.28c-5.9,14.39-9.19,20.47-18.33,33.06" style="fill:none;stroke:#999;stroke-width:3" />
<path d="M798.47,48.9c2.61,1.28,6.21,5.66,8.41,8.14" style="fill:none;stroke:#999;stroke-width:3" />
<path d="M817.73,14.82c2.33,1.59,6.03,6.54,6.61,9.02" style="fill:none;stroke:#999;stroke-width:3" />
<path d="M843.16,12.65c0.02,0.25,0.04,0.66-0.04,1.02c-0.42,2.15-2.86,6.87-6.2,9.76" style="fill:none;stroke:#999;stroke-width:3" />
<path d="M809.43,27.92c0.87,0.45,2.46,0.55,3.34,0.45c7.73-0.9,33.11-4.56,41.39-4.56c1.45,0,2.32,0.21,3.05,0.44" style="fill:none;stroke:#999;stroke-width:3" />
<path d="M816.59,35.91c0.46,0.66,0.63,2.25,0.63,3.13s0.03,23.58,0.03,23.84" style="fill:none;stroke:black;stroke-width:3" />
<circle cx="816.59" cy="35.91" r="5" stroke-width="0" fill="#FF2A00" opacity="0.7" />
<path d="M886.28,40.72c0.35,0.24,2.39,0.41,3.31,0.31c3.94-0.41,17.62-2.21,23.95-3.41c0.92-0.17,1.15-0.24,1.73,0" style="fill:none;stroke:#999;stroke-width:3" />
<path d="M901.86,14.5c0.91,0.47,2.54,3.25,2.54,5.42c0,0.95-0.12,70.75-0.3,76.58" style="fill:none;stroke:#999;stroke-width:3" />
<path d="M903.94,42.28c-5.9,14.39-9.19,20.47-18.33,33.06" style="fill:none;stroke:#999;stroke-width:3" />
<path d="M907.47,48.9c2.61,1.28,6.21,5.66,8.41,8.14" style="fill:none;stroke:#999;stroke-width:3" />
<path d="M926.73,14.82c2.33,1.59,6.03,6.54,6.61,9.02" style="fill:none;stroke:#999;stroke-width:3" />
<path d="M952.16,12.65c0.02,0.25,0.04,0.66-0.04,1.02c-0.42,2.15-2.86,6.87-6.2,9.76" style="fill:none;stroke:#999;stroke-width:3" />
<path d="M918.43,27.92c0.87,0.45,2.46,0.55,3.34,0.45c7.73-0.9,33.11-4.56,41.39-4.56c1.45,0,2.32,0.21,3.05,0.44" style="fill:none;stroke:#999;stroke-width:3" />
<path d="M925.59,35.91c0.46,0.66,0.63,2.25,0.63,3.13s0.03,23.58,0.03,23.84" style="fill:none;stroke:#999;stroke-width:3" />
<path d="M927.94,37.27c2.58-0.11,27.36-3.56,29.55-3.63c1.83-0.06,2.78,1.09,2.78,2.54c0,0.81-0.73,18.86-0.73,24.49" style="fill:none;stroke:black;stroke-width:3" />
<circle cx="927.94" cy="37.27" r="5" stroke-width="0" fill="#FF2A00" opacity="0.7" />
<path d="M995.28,40.72c0.35,0.24,2.39,0.41,3.31,0.31c3.94-0.41,17.62-2.21,23.95-3.41c0.92-0.17,1.15-0.24,1.73,0" style="fill:none;stroke:#999;stroke-width:3" />
<path d="M1010.86,14.5c0.91,0.47,2.54,3.25,2.54,5.42c0,0.95-0.12,70.75-0.3,76.58" style="fill:none;stroke:#999;stroke-width:3" />
<path d="M1012.94,42.28c-5.9,14.39-9.19,20.47-18.33,33.06" style="fill:none;stroke:#999;stroke-width:3" />
<path d="M1016.47,48.9c2.61,1.28,6.21,5.66,8.41,8.14" style="fill:none;stroke:#999;stroke-width:3" />
<path d="M1035.73,14.82c2.33,1.59,6.03,6.54,6.61,9.02" style="fill:none;stroke:#999;stroke-width:3" />
<path d="M1061.1599999999999,12.65c0.02,0.25,0.04,0.66-0.04,1.02c-0.42,2.15-2.86,6.87-6.2,9.76" style="fill:none;stroke:#999;stroke-width:3" />
<path d="M1027.4299999999998,27.92c0.87,0.45,2.46,0.55,3.34,0.45c7.73-0.9,33.11-4.56,41.39-4.56c1.45,0,2.32,0.21,3.05,0.44" style="fill:none;stroke:#999;stroke-width:3" />
<path d="M1034.5900000000001,35.91c0.46,0.66,0.63,2.25,0.63,3.13s0.03,23.58,0.03,23.84" style="fill:none;stroke:#999;stroke-width:3" />
<path d="M1036.94,37.27c2.58-0.11,27.36-3.56,29.55-3.63c1.83-0.06,2.78,1.09,2.78,2.54c0,0.81-0.73,18.86-0.73,24.49" style="fill:none;stroke:#999;stroke-width:3" />
<path d="M1045.92,27.25c0.28,0.71,0.63,1.32,0.64,2.08c0.08,7.48-0.44,13.69-6.76,16.99" style="fill:none;stroke:black;stroke-width:3" />
<circle cx="1045.92" cy="27.25" r="5" stroke-width="0" fill="#FF2A00" opacity="0.7" />
<path d="M1104.28,40.72c0.35,0.24,2.39,0.41,3.31,0.31c3.94-0.41,17.62-2.21,23.95-3.41c0.92-0.17,1.15-0.24,1.73,0" style="fill:none;stroke:#999;stroke-width:3" />
<path d="M1119.8600000000001,14.5c0.91,0.47,2.54,3.25,2.54,5.42c0,0.95-0.12,70.75-0.3,76.58" style="fill:none;stroke:#999;stroke-width:3" />
<path d="M1121.94,42.28c-5.9,14.39-9.19,20.47-18.33,33.06" style="fill:none;stroke:#999;stroke-width:3" />
<path d="M1125.47,48.9c2.61,1.28,6.21,5.66,8.41,8.14" style="fill:none;stroke:#999;stroke-width:3" />
<path d="M1144.73,14.82c2.33,1.59,6.03,6.54,6.61,9.02" style="fill:none;stroke:#999;stroke-width:3" />
<path d="M1170.1599999999999,12.65c0.02,0.25,0.04,0.66-0.04,1.02c-0.42,2.15-2.86,6.87-6.2,9.76" style="fill:none;stroke:#999;stroke-width:3" />
<path d="M1136.4299999999998,27.92c0.87,0.45,2.46,0.55,3.34,0.45c7.73-0.9,33.11-4.56,41.39-4.56c1.45,0,2.32,0.21,3.05,0.44" style="fill:none;stroke:#999;stroke-width:3" />
<path d="M1143.5900000000001,35.91c0.46,0.66,0.63,2.25,0.63,3.13s0.03,23.58,0.03,23.84" style="fill:none;stroke:#999;stroke-width:3" />
<path d="M1145.94,37.27c2.58-0.11,27.36-3.56,29.55-3.63c1.83-0.06,2.78,1.09,2.78,2.54c0,0.81-0.73,18.86-0.73,24.49" style="fill:none;stroke:#999;stroke-width:3" />
<path d="M1154.92,27.25c0.28,0.71,0.63,1.32,0.64,2.08c0.08,7.48-0.44,13.69-6.76,16.99" style="fill:none;stroke:#999;stroke-width:3" />
<path d="M1163.08,26.83c0.46,0.64,0.83,1.4,0.86,2.39c0.09,3.15-0.2,7.4-0.25,11.29c-0.04,3.38,1.3,3.8,5.71,3.8c2.8,0,5.58-0.42,5.89-0.8" style="fill:none;stroke:black;stroke-width:3" />
<circle cx="1163.08" cy="26.83" r="5" stroke-width="0" fill="#FF2A00" opacity="0.7" />
<path d="M1213.28,40.72c0.35,0.24,2.39,0.41,3.31,0.31c3.94-0.41,17.62-2.21,23.95-3.41c0.92-0.17,1.15-0.24,1.73,0" style="fill:none;stroke:#999;stroke-width:3" />
<path d="M1228.8600000000001,14.5c0.91,0.47,2.54,3.25,2.54,5.42c0,0.95-0.12,70.75-0.3,76.58" style="fill:none;stroke:#999;stroke-width:3" />
<path d="M1230.94,42.28c-5.9,14.39-9.19,20.47-18.33,33.06" style="fill:none;stroke:#999;stroke-width:3" />
<path d="M1234.47,48.9c2.61,1.28,6.21,5.66,8.41,8.14" style="fill:none;stroke:#999;stroke-width:3" />
<path d="M1253.73,14.82c2.33,1.59,6.03,6.54,6.61,9.02" style="fill:none;stroke:#999;stroke-width:3" />
<path d="M1279.1599999999999,12.65c0.02,0.25,0.04,0.66-0.04,1.02c-0.42,2.15-2.86,6.87-6.2,9.76" style="fill:none;stroke:#999;stroke-width:3" />
<path d="M1245.4299999999998,27.92c0.87,0.45,2.46,0.55,3.34,0.45c7.73-0.9,33.11-4.56,41.39-4.56c1.45,0,2.32,0.21,3.05,0.44" style="fill:none;stroke:#999;stroke-width:3" />
<path d="M1252.5900000000001,35.91c0.46,0.66,0.63,2.25,0.63,3.13s0.03,23.58,0.03,23.84" style="fill:none;stroke:#999;stroke-width:3" />
<path d="M1254.94,37.27c2.58-0.11,27.36-3.56,29.55-3.63c1.83-0.06,2.78,1.09,2.78,2.54c0,0.81-0.73,18.86-0.73,24.49" style="fill:none;stroke:#999;stroke-width:3" />
<path d="M1263.92,27.25c0.28,0.71,0.63,1.32,0.64,2.08c0.08,7.48-0.44,13.69-6.76,16.99" style="fill:none;stroke:#999;stroke-width:3" />
<path d="M1272.08,26.83c0.46,0.64,0.83,1.4,0.86,2.39c0.09,3.15-0.2,7.4-0.25,11.29c-0.04,3.38,1.3,3.8,5.71,3.8c2.8,0,5.58-0.42,5.89-0.8" style="fill:none;stroke:#999;stroke-width:3" />
<path d="M1253.66,52.14c3.26,0,29.4-2.05,33.08-2.05" style="fill:none;stroke:black;stroke-width:3" />
<circle cx="1253.66" cy="52.14" r="5" stroke-width="0" fill="#FF2A00" opacity="0.7" />
<path d="M1322.28,40.72c0.35,0.24,2.39,0.41,3.31,0.31c3.94-0.41,17.62-2.21,23.95-3.41c0.92-0.17,1.15-0.24,1.73,0" style="fill:none;stroke:#999;stroke-width:3" />
<path d="M1337.8600000000001,14.5c0.91,0.47,2.54,3.25,2.54,5.42c0,0.95-0.12,70.75-0.3,76.58" style="fill:none;stroke:#999;stroke-width:3" />
<path d="M1339.94,42.28c-5.9,14.39-9.19,20.47-18.33,33.06" style="fill:none;stroke:#999;stroke-width:3" />
<path d="M1343.47,48.9c2.61,1.28,6.21,5.66,8.41,8.14" style="fill:none;stroke:#999;stroke-width:3" />
<path d="M1362.73,14.82c2.33,1.59,6.03,6.54,6.61,9.02" style="fill:none;stroke:#999;stroke-width:3" />
<path d="M1388.1599999999999,12.65c0.02,0.25,0.04,0.66-0.04,1.02c-0.42,2.15-2.86,6.87-6.2,9.76" style="fill:none;stroke:#999;stroke-width:3" />
<path d="M1354.4299999999998,27.92c0.87,0.45,2.46,0.55,3.34,0.45c7.73-0.9,33.11-4.56,41.39-4.56c1.45,0,2.32,0.21,3.05,0.44" style="fill:none;stroke:#999;stroke-width:3" />
<path d="M1361.5900000000001,35.91c0.46,0.66,0.63,2.25,0.63,3.13s0.03,23.58,0.03,23.84" style="fill:none;stroke:#999;stroke-width:3" />
<path d="M1363.94,37.27c2.58-0.11,27.36-3.56,29.55-3.63c1.83-0.06,2.78,1.09,2.78,2.54c0,0.81-0.73,18.86-0.73,24.49" style="fill:none;stroke:#999;stroke-width:3" />
<path d="M1372.92,27.25c0.28,0.71,0.63,1.32,0.64,2.08c0.08,7.48-0.44,13.69-6.76,16.99" style="fill:none;stroke:#999;stroke-width:3" />
<path d="M1381.08,26.83c0.46,0.64,0.83,1.4,0.86,2.39c0.09,3.15-0.2,7.4-0.25,11.29c-0.04,3.38,1.3,3.8,5.71,3.8c2.8,0,5.58-0.42,5.89-0.8" style="fill:none;stroke:#999;stroke-width:3" />
<path d="M1362.66,52.14c3.26,0,29.4-2.05,33.08-2.05" style="fill:none;stroke:#999;stroke-width:3" />
<path d="M1363.19,60.5c6.63-0.28,23.96-1.69,32.22-1.92" style="fill:none;stroke:black;stroke-width:3" />
<circle cx="1363.19" cy="60.5" r="5" stroke-width="0" fill="#FF2A00" opacity="0.7" />
<path d="M1431.28,40.72c0.35,0.24,2.39,0.41,3.31,0.31c3.94-0.41,17.62-2.21,23.95-3.41c0.92-0.17,1.15-0.24,1.73,0" style="fill:none;stroke:#999;stroke-width:3" />
<path d="M1446.8600000000001,14.5c0.91,0.47,2.54,3.25,2.54,5.42c0,0.95-0.12,70.75-0.3,76.58" style="fill:none;stroke:#999;stroke-width:3" />
<path d="M1448.94,42.28c-5.9,14.39-9.19,20.47-18.33,33.06" style="fill:none;stroke:#999;stroke-width:3" />
<path d="M1452.47,48.9c2.61,1.28,6.21,5.66,8.41,8.14" style="fill:none;stroke:#999;stroke-width:3" />
<path d="M1471.73,14.82c2.33,1.59,6.03,6.54,6.61,9.02" style="fill:none;stroke:#999;stroke-width:3" />
<path d="M1497.1599999999999,12.65c0.02,0.25,0.04,0.66-0.04,1.02c-0.42,2.15-2.86,6.87-6.2,9.76" style="fill:none;stroke:#999;stroke-width:3" />
<path d="M1463.4299999999998,27.92c0.87,0.45,2.46,0.55,3.34,0.45c7.73-0.9,33.11-4.56,41.39-4.56c1.45,0,2.32,0.21,3.05,0.44" style="fill:none;stroke:#999;stroke-width:3" />
<path d="M1470.5900000000001,35.91c0.46,0.66,0.63,2.25,0.63,3.13s0.03,23.58,0.03,23.84" style="fill:none;stroke:#999;stroke-width:3" />
<path d="M1472.94,37.27c2.58-0.11,27.36-3.56,29.55-3.63c1.83-0.06,2.78,1.09,2.78,2.54c0,0.81-0.73,18.86-0.73,24.49" style="fill:none;stroke:#999;stroke-width:3" />
<path d="M1481.92,27.25c0.28,0.71,0.63,1.32,0.64,2.08c0.08,7.48-0.44,13.69-6.76,16.99" style="fill:none;stroke:#999;stroke-width:3" />
<path d="M1490.08,26.83c0.46,0.64,0.83,1.4,0.86,2.39c0.09,3.15-0.2,7.4-0.25,11.29c-0.04,3.38,1.3,3.8,5.71,3.8c2.8,0,5.58-0.42,5.89-0.8" style="fill:none;stroke:#999;stroke-width:3" />
<path d="M1471.66,52.14c3.26,0,29.4-2.05,33.08-2.05" style="fill:none;stroke:#999;stroke-width:3" />
<path d="M1472.19,60.5c6.63-0.28,23.96-1.69,32.22-1.92" style="fill:none;stroke:#999;stroke-width:3" />
<path d="M1460.88,72.54c1.5,0.97,4.22,1.09,5.74,0.97c18.71-1.49,24.51-2.31,42.78-3.8c2.49-0.2,3.99,0.46,5.24,0.95" style="fill:none;stroke:black;stroke-width:3" />
<circle cx="1460.88" cy="72.54" r="5" stroke-width="0" fill="#FF2A00" opacity="0.7" />
<path d="M1540.28,40.72c0.35,0.24,2.39,0.41,3.31,0.31c3.94-0.41,17.62-2.21,23.95-3.41c0.92-0.17,1.15-0.24,1.73,0" style="fill:none;stroke:#999;stroke-width:3" />
<path d="M1555.8600000000001,14.5c0.91,0.47,2.54,3.25,2.54,5.42c0,0.95-0.12,70.75-0.3,76.58" style="fill:none;stroke:#999;stroke-width:3" />
<path d="M1557.94,42.28c-5.9,14.39-9.19,20.47-18.33,33.06" style="fill:none;stroke:#999;stroke-width:3" />
<path d="M1561.47,48.9c2.61,1.28,6.21,5.66,8.41,8.14" style="fill:none;stroke:#999;stroke-width:3" />
<path d="M1580.73,14.82c2.33,1.59,6.03,6.54,6.61,9.02" style="fill:none;stroke:#999;stroke-width:3" />
<path d="M1606.1599999999999,12.65c0.02,0.25,0.04,0.66-0.04,1.02c-0.42,2.15-2.86,6.87-6.2,9.76" style="fill:none;stroke:#999;stroke-width:3" />
<path d="M1572.4299999999998,27.92c0.87,0.45,2.46,0.55,3.34,0.45c7.73-0.9,33.11-4.56,41.39-4.56c1.45,0,2.32,0.21,3.05,0.44" style="fill:none;stroke:#999;stroke-width:3" />
<path d="M1579.5900000000001,35.91c0.46,0.66,0.63,2.25,0.63,3.13s0.03,23.58,0.03,23.84" style="fill:none;stroke:#999;stroke-width:3" />
<path d="M1581.94,37.27c2.58-0.11,27.36-3.56,29.55-3.63c1.83-0.06,2.78,1.09,2.78,2.54c0,0.81-0.73,18.86-0.73,24.49" style="fill:none;stroke:#999;stroke-width:3" />
<path d="M1590.92,27.25c0.28,0.71,0.63,1.32,0.64,2.08c0.08,7.48-0.44,13.69-6.76,16.99" style="fill:none;stroke:#999;stroke-width:3" />
<path d="M1599.08,26.83c0.46,0.64,0.83,1.4,0.86,2.39c0.09,3.15-0.2,7.4-0.25,11.29c-0.04,3.38,1.3,3.8,5.71,3.8c2.8,0,5.58-0.42,5.89-0.8" style="fill:none;stroke:#999;stroke-width:3" />
<path d="M1580.66,52.14c3.26,0,29.4-2.05,33.08-2.05" style="fill:none;stroke:#999;stroke-width:3" />
<path d="M1581.19,60.5c6.63-0.28,23.96-1.69,32.22-1.92" style="fill:none;stroke:#999;stroke-width:3" />
<path d="M1569.88,72.54c1.5,0.97,4.22,1.09,5.74,0.97c18.71-1.49,24.51-2.31,42.78-3.8c2.49-0.2,3.99,0.46,5.24,0.95" style="fill:none;stroke:#999;stroke-width:3" />
<path d="M1606.38,63.03c0.05,0.36,0.74,1.9,0.74,4.21c0,8.06,0.22,20.3,0.22,24.08c0,9.19-5.43,1.36-6.73,0.19" style="fill:none;stroke:black;stroke-width:3" />
<circle cx="1606.38" cy="63.03" r="5" stroke-width="0" fill="#FF2A00" opacity="0.7" />
<path d="M1649.28,40.72c0.35,0.24,2.39,0.41,3.31,0.31c3.94-0.41,17.62-2.21,23.95-3.41c0.92-0.17,1.15-0.24,1.73,0" style="fill:none;stroke:#999;stroke-width:3" />
<path d="M1664.8600000000001,14.5c0.91,0.47,2.54,3.25,2.54,5.42c0,0.95-0.12,70.75-0.3,76.58" style="fill:none;stroke:#999;stroke-width:3" />
<path d="M1666.94,42.28c-5.9,14.39-9.19,20.47-18.33,33.06" style="fill:none;stroke:#999;stroke-width:3" />
<path d="M1670.47,48.9c2.61,1.28,6.21,5.66,8.41,8.14" style="fill:none;stroke:#999;stroke-width:3" />
<path d="M1689.73,14.82c2.33,1.59,6.03,6.54,6.61,9.02" style="fill:none;stroke:#999;stroke-width:3" />
<path d="M1715.1599999999999,12.65c0.02,0.25,0.04,0.66-0.04,1.02c-0.42,2.15-2.86,6.87-6.2,9.76" style="fill:none;stroke:#999;stroke-width:3" />
<path d="M1681.4299999999998,27.92c0.87,0.45,2.46,0.55,3.34,0.45c7.73-0.9,33.11-4.56,41.39-4.56c1.45,0,2.32,0.21,3.05,0.44" style="fill:none;stroke:#999;stroke-width:3" />
<path d="M1688.5900000000001,35.91c0.46,0.66,0.63,2.25,0.63,3.13s0.03,23.58,0.03,23.84" style="fill:none;stroke:#999;stroke-width:3" />
<path d="M1690.94,37.27c2.58-0.11,27.36-3.56,29.55-3.63c1.83-0.06,2.78,1.09,2.78,2.54c0,0.81-0.73,18.86-0.73,24.49" style="fill:none;stroke:#999;stroke-width:3" />
<path d="M1699.92,27.25c0.28,0.71,0.63,1.32,0.64,2.08c0.08,7.48-0.44,13.69-6.76,16.99" style="fill:none;stroke:#999;stroke-width:3" />
<path d="M1708.08,26.83c0.46,0.64,0.83,1.4,0.86,2.39c0.09,3.15-0.2,7.4-0.25,11.29c-0.04,3.38,1.3,3.8,5.71,3.8c2.8,0,5.58-0.42,5.89-0.8" style="fill:none;stroke:#999;stroke-width:3" />
<path d="M1689.66,52.14c3.26,0,29.4-2.05,33.08-2.05" style="fill:none;stroke:#999;stroke-width:3" />
<path d="M1690.19,60.5c6.63-0.28,23.96-1.69,32.22-1.92" style="fill:none;stroke:#999;stroke-width:3" />
<path d="M1678.88,72.54c1.5,0.97,4.22,1.09,5.74,0.97c18.71-1.49,24.51-2.31,42.78-3.8c2.49-0.2,3.99,0.46,5.24,0.95" style="fill:none;stroke:#999;stroke-width:3" />
<path d="M1715.38,63.03c0.05,0.36,0.74,1.9,0.74,4.21c0,8.06,0.22,20.3,0.22,24.08c0,9.19-5.43,1.36-6.73,0.19" style="fill:none;stroke:#999;stroke-width:3" />
<path d="M1692.36,77.81c2.33,1.46,6.01,6,6.59,8.27" style="fill:none;stroke:black;stroke-width:3" />
<circle cx="1692.36" cy="77.81" r="5" stroke-width="0" fill="#FF2A00" opacity="0.7" />
</svg>