<svg width="1417px" height="109px" viewBox="0 0 1417px 109px" xmlns="http://www.w3.org/2000/svg" xmlns:xlink="http://www.w3.org/1999/xlink" xml:space="preserve" version="1.1"  baseProfile="full">
<line x1="1" y1="1" x2="1416" y2="1" style="stroke:#ddd;stroke-width:2" />
<line x1="1" y1="1" x2="1" y2="108" style="stroke:#ddd;stroke-width:2" />
<line x1="1" y1="108" x2="1416" y2="108" style="stroke:#ddd;stroke-width:2" />
<line x1="1416" y1="1" x2="1416" y2="108" style="stroke:#ddd;stroke-width:2" />
<line x1="109" y1="1" x2="109" y2="108" style="stroke:#ddd;stroke-width:2" />
<line x1="218" y1="1" x2="218" y2="108" style="stroke:#ddd;stroke-width:2" />
<line x1="327" y1="1" x2="327" y2="108" style="stroke:#ddd;stroke-width:2" />
<line x1="436" y1="1" x2="436" y2="108" style="stroke:#ddd;stroke-width:2" />
<line x1="545" y1="1" x2="545" y2="108" style="stroke:#ddd;stroke-width:2" />
<line x1="654" y1="1" x2="654" y2="108" style="stroke:#ddd;stroke-width:2" />
<line x1="763" y1="1" x2="763" y2="108" style="stroke:#ddd;stroke-width:2" />
<line x1="872" y1="1" x2="872" y2="108" style="stroke:#ddd;stroke-width:2" />
<line x1="981" y1="1" x2="981" y2="108" style="stroke:#ddd;stroke-width:2" />
<line x1="1090" y1="1" x2="1090" y2="108" style="stroke:#ddd;stroke-width:2" />
<line x1="1199" y1="1" x2="1199" y2="108" style="stroke:#ddd;stroke-width:2" />
<line x1="1308" y1="1" x2="1308" y2="108" style="stroke:#ddd;stroke-width:2" />
<line x1="1" y1="54" x2="1416" y2="54" style="stroke:#ddd;stroke-width:2;stroke-dasharray:3 3" />
<line x1="55" y1="1" x2="55" y2="108" style="stroke:#ddd;stroke-width:2;stroke-dasharray:3 3" />
<line x1="164" y1="1" x2="164" y2="108" style="stroke:#ddd;stroke-width:2;stroke-dasharray:3 3" />
<line x1="273" y1="1" x2="273" y2="108" style="stroke:#ddd;stroke-width:2;stroke-dasharray:3 3" />
<line x1="382" y1="1" x2="382" y2="108" style="stroke:#ddd;stroke-width:2;stroke-dasharray:3 3" />
<line x1="491" y1="1" x2="491" y2="108" style="stroke:#ddd;stroke-width:2;stroke-dasharray:3 3" />
<line x1="600" y1="1" x2="600" y2="108" style="stroke:#ddd;stroke-width:2;stroke-dasharray:3 3" />
<line x1="709" y1="1" x2="709" y2="108" style="stroke:#ddd;stroke-width:2;stroke-dasharray:3 3" />
<line x1="818" y1="1" x2="818" y2="108" style="stroke:#ddd;stroke-width:2;stroke-dasharray:3 3" />
<line x1="927" y1="1" x2="927" y2="108" style="stroke:#ddd;stroke-width:2;stroke-dasharray:3 3" />
<line x1="1036" y1="1" x2="1036" y2="108" style="stroke:#ddd;stroke-width:2;stroke-dasharray:3 3" />
<line x1="1145" y1="1" x2="1145" y2="108" style="stroke:#ddd;stroke-width:2;stroke-dasharray:3 3" />
<line x1="1254" y1="1" x2="1254" y2="108" style="stroke:#ddd;stroke-width:2;stroke-dasharray:3 3" />
<line x1="1363" y1="1" x2="1363" y2="108" style="stroke:#ddd;stroke-width:2;stroke-dasharray:3 3" />
<path d="M69.75,14c0.04,0.78,0.08,2.01-0.08,3.12C68.72,23.71,63.3,38.16,55.89,47" style="fill:none;stroke:black;stroke-width:3" />
<circle cx="69.75" cy="14.0" r="5" stroke-width="0" fill="#FF2A00" opacity="0.7" />
<path d="M178.75,14c0.04,0.78,0.08,2.01-0.08,3.12C177.72,23.71,172.3,38.16,164.89,47" style="fill:none;stroke:#999;stroke-width:3" />
<path d="M176.72,32.93c0.79,0.25,2.29,0.66,3.49,0.43c1.45-0.27,18.33-3.49,19.71-3.63C206.87,29.02,200.0,37,197.31,39.5" style="fill:none;stroke:black;stroke-width:3" />
<circle cx="176.72" cy="32.93" r="5" stroke-width="0" fill="#FF2A00" opacity="0.7" />
<path d="M287.75,14c0.04,0.78,0.08,2.01-0.08,3.12C286.72,23.71,281.3,38.16,273.89,47" style="fill:none;stroke:#999;stroke-width:3" />
<path d="M285.72,32.93c0.79,0.25,2.29,0.66,3.49,0.43c1.45-0.27,18.33-3.49,19.71-3.63C315.87,29.02,309.0,37,306.31,39.5" style="fill:none;stroke:#999;stroke-width:3" />
<path d="M289.11,41c0.05,1.26,0.05,3.22-0.11,5.04C287.5,63.25,284.5,82,269.75,94.25" style="fill:none;stroke:black;stroke-width:3" />
<circle cx="289.11" cy="41.0" r="5" stroke-width="0" fill="#FF2A00" opacity="0.7" />
<path d="M396.75,14c0.04,0.78,0.08,2.01-0.08,3.12C395.72,23.71,390.3,38.16,382.89,47" style="fill:none;stroke:#999;stroke-width:3" />
<path d="M394.72,32.93c0.79,0.25,2.29,0.66,3.49,0.43c1.45-0.27,18.33-3.49,19.71-3.63C424.87,29.02,418.0,37,415.31,39.5" style="fill:none;stroke:#999;stroke-width:3" />
<path d="M398.11,41c0.05,1.26,0.05,3.22-0.11,5.04C396.5,63.25,393.5,82,378.75,94.25" style="fill:none;stroke:#999;stroke-width:3" />
<path d="M397.67,57c3.59,8.14,16.56,27.3,22.46,34.03c1.25,1.42,2.19,2.26,3.37,2.72" style="fill:none;stroke:black;stroke-width:3" />
<circle cx="397.67" cy="57.0" r="5" stroke-width="0" fill="#FF2A00" opacity="0.7" />
<path d="M505.75,14c0.04,0.78,0.08,2.01-0.08,3.12C504.72,23.71,499.3,38.16,491.89,47" style="fill:none;stroke:#999;stroke-width:3" />
<path d="M503.72,32.93c0.79,0.25,2.29,0.66,3.49,0.43c1.45-0.27,18.33-3.49,19.71-3.63C533.87,29.02,527.0,37,524.31,39.5" style="fill:none;stroke:#999;stroke-width:3" />
<path d="M507.11,41c0.05,1.26,0.05,3.22-0.11,5.04C505.5,63.25,502.5,82,487.75,94.25" style="fill:none;stroke:#999;stroke-width:3" />
<path d="M506.67,57c3.59,8.14,16.56,27.3,22.46,34.03c1.25,1.42,2.19,2.26,3.37,2.72" style="fill:none;stroke:#999;stroke-width:3" />
<path d="M452.87,15.32c0.27,0.45,0.27,0.76,0.42,1.32c1.2,4.63,2.5,16.74,3.24,25.38" style="fill:none;stroke:black;stroke-width:3" />
<circle cx="452.87" cy="15.32" r="5" stroke-width="0" fill="#FF2A00" opacity="0.7" />
<path d="M614.75,14c0.04,0.78,0.08,2.01-0.08,3.12C613.72,23.71,608.3,38.16,600.89,47" style="fill:none;stroke:#999;stroke-width:3" />
<path d="M612.72,32.93c0.79,0.25,2.29,0.66,3.49,0.43c1.45-0.27,18.33-3.49,19.71-3.63C642.87,29.02,636.0,37,633.31,39.5" style="fill:none;stroke:#999;stroke-width:3" />
<path d="M616.11,41c0.05,1.26,0.05,3.22-0.11,5.04C614.5,63.25,611.5,82,596.75,94.25" style="fill:none;stroke:#999;stroke-width:3" />
<path d="M615.6700000000001,57c3.59,8.14,16.56,27.3,22.46,34.03c1.25,1.42,2.19,2.26,3.37,2.72" style="fill:none;stroke:#999;stroke-width:3" />
<path d="M561.87,15.32c0.27,0.45,0.27,0.76,0.42,1.32c1.2,4.63,2.5,16.74,3.24,25.38" style="fill:none;stroke:#999;stroke-width:3" />
<path d="M562.73,17.27c8.23-0.99,22.54-2.39,30.16-3.04c2.27-0.19,3.22,1.75,3.1,2.83c-0.42,3.96-2.64,16.95-3.67,23.57" style="fill:none;stroke:black;stroke-width:3" />
<circle cx="562.73" cy="17.27" r="5" stroke-width="0" fill="#FF2A00" opacity="0.7" />
<path d="M723.75,14c0.04,0.78,0.08,2.01-0.08,3.12C722.72,23.71,717.3,38.16,709.89,47" style="fill:none;stroke:#999;stroke-width:3" />
<path d="M721.72,32.93c0.79,0.25,2.29,0.66,3.49,0.43c1.45-0.27,18.33-3.49,19.71-3.63C751.87,29.02,745.0,37,742.31,39.5" style="fill:none;stroke:#999;stroke-width:3" />
<path d="M725.11,41c0.05,1.26,0.05,3.22-0.11,5.04C723.5,63.25,720.5,82,705.75,94.25" style="fill:none;stroke:#999;stroke-width:3" />
<path d="M724.6700000000001,57c3.59,8.14,16.56,27.3,22.46,34.03c1.25,1.42,2.19,2.26,3.37,2.72" style="fill:none;stroke:#999;stroke-width:3" />
<path d="M670.87,15.32c0.27,0.45,0.27,0.76,0.42,1.32c1.2,4.63,2.5,16.74,3.24,25.38" style="fill:none;stroke:#999;stroke-width:3" />
<path d="M671.73,17.27c8.23-0.99,22.54-2.39,30.16-3.04c2.27-0.19,3.22,1.75,3.1,2.83c-0.42,3.96-2.64,16.95-3.67,23.57" style="fill:none;stroke:#999;stroke-width:3" />
<path d="M673.45,28.24c4.72-0.35,27.52-2.37,29.91-2.47" style="fill:none;stroke:black;stroke-width:3" />
<circle cx="673.45" cy="28.24" r="5" stroke-width="0" fill="#FF2A00" opacity="0.7" />
<path d="M832.75,14c0.04,0.78,0.08,2.01-0.08,3.12C831.72,23.71,826.3,38.16,818.89,47" style="fill:none;stroke:#999;stroke-width:3" />
<path d="M830.72,32.93c0.79,0.25,2.29,0.66,3.49,0.43c1.45-0.27,18.33-3.49,19.71-3.63C860.87,29.02,854.0,37,851.31,39.5" style="fill:none;stroke:#999;stroke-width:3" />
<path d="M834.11,41c0.05,1.26,0.05,3.22-0.11,5.04C832.5,63.25,829.5,82,814.75,94.25" style="fill:none;stroke:#999;stroke-width:3" />
<path d="M833.6700000000001,57c3.59,8.14,16.56,27.3,22.46,34.03c1.25,1.42,2.19,2.26,3.37,2.72" style="fill:none;stroke:#999;stroke-width:3" />
<path d="M779.87,15.32c0.27,0.45,0.27,0.76,0.42,1.32c1.2,4.63,2.5,16.74,3.24,25.38" style="fill:none;stroke:#999;stroke-width:3" />
<path d="M780.73,17.27c8.23-0.99,22.54-2.39,30.16-3.04c2.27-0.19,3.22,1.75,3.1,2.83c-0.42,3.96-2.64,16.95-3.67,23.57" style="fill:none;stroke:#999;stroke-width:3" />
<path d="M782.45,28.24c4.72-0.35,27.52-2.37,29.91-2.47" style="fill:none;stroke:#999;stroke-width:3" />
<path d="M783.59,39.3c8.4-0.45,18.65-1.38,27.08-1.58" style="fill:none;stroke:black;stroke-width:3" />
<circle cx="783.59" cy="39.3" r="5" stroke-width="0" fill="#FF2A00" opacity="0.7" />
<path d="M941.75,14c0.04,0.78,0.08,2.01-0.08,3.12C940.72,23.71,935.3,38.16,927.89,47" style="fill:none;stroke:#999;stroke-width:3" />
<path d="M939.72,32.93c0.79,0.25,2.29,0.66,3.49,0.43c1.45-0.27,18.33-3.49,19.71-3.63C969.87,29.02,963.0,37,960.31,39.5" style="fill:none;stroke:#999;stroke-width:3" />
<path d="M943.11,41c0.05,1.26,0.05,3.22-0.11,5.04C941.5,63.25,938.5,82,923.75,94.25" style="fill:none;stroke:#999;stroke-width:3" />
<path d="M942.6700000000001,57c3.59,8.14,16.56,27.3,22.46,34.03c1.25,1.42,2.19,2.26,3.37,2.72" style="fill:none;stroke:#999;stroke-width:3" />
<path d="M888.87,15.32c0.27,0.45,0.27,0.76,0.42,1.32c1.2,4.63,2.5,16.74,3.24,25.38" style="fill:none;stroke:#999;stroke-width:3" />
<path d="M889.73,17.27c8.23-0.99,22.54-2.39,30.16-3.04c2.27-0.19,3.22,1.75,3.1,2.83c-0.42,3.96-2.64,16.95-3.67,23.57" style="fill:none;stroke:#999;stroke-width:3" />
<path d="M891.45,28.24c4.72-0.35,27.52-2.37,29.91-2.47" style="fill:none;stroke:#999;stroke-width:3" />
<path d="M892.59,39.3c8.4-0.45,18.65-1.38,27.08-1.58" style="fill:none;stroke:#999;stroke-width:3" />
<path d="M897.89,42.48c0.05,0.57,0.23,1.5-0.1,2.27C895.35,50.56,889.8,59.07,880.5,66.5" style="fill:none;stroke:black;stroke-width:3" />
<circle cx="897.89" cy="42.48" r="5" stroke-width="0" fill="#FF2A00" opacity="0.7" />
<path d="M1050.75,14c0.04,0.78,0.08,2.01-0.08,3.12C1049.72,23.71,1044.3,38.16,1036.8899999999999,47" style="fill:none;stroke:#999;stroke-width:3" />
<path d="M1048.72,32.93c0.79,0.25,2.29,0.66,3.49,0.43c1.45-0.27,18.33-3.49,19.71-3.63C1078.87,29.02,1072.0,37,1069.31,39.5" style="fill:none;stroke:#999;stroke-width:3" />
<path d="M1052.1100000000001,41c0.05,1.26,0.05,3.22-0.11,5.04C1050.5,63.25,1047.5,82,1032.75,94.25" style="fill:none;stroke:#999;stroke-width:3" />
<path d="M1051.67,57c3.59,8.14,16.56,27.3,22.46,34.03c1.25,1.42,2.19,2.26,3.37,2.72" style="fill:none;stroke:#999;stroke-width:3" />
<path d="M997.87,15.32c0.27,0.45,0.27,0.76,0.42,1.32c1.2,4.63,2.5,16.74,3.24,25.38" style="fill:none;stroke:#999;stroke-width:3" />
<path d="M998.73,17.27c8.23-0.99,22.54-2.39,30.16-3.04c2.27-0.19,3.22,1.75,3.1,2.83c-0.42,3.96-2.64,16.95-3.67,23.57" style="fill:none;stroke:#999;stroke-width:3" />
<path d="M1000.45,28.24c4.72-0.35,27.52-2.37,29.91-2.47" style="fill:none;stroke:#999;stroke-width:3" />
<path d="M1001.59,39.3c8.4-0.45,18.65-1.38,27.08-1.58" style="fill:none;stroke:#999;stroke-width:3" />
<path d="M1006.89,42.48c0.05,0.57,0.23,1.5-0.1,2.27C1004.35,50.56,998.8,59.07,989.5,66.5" style="fill:none;stroke:#999;stroke-width:3" />
<path d="M1003.08,52.65c0.73,0.5,1.76,0.67,2.93,0.33c1.17-0.33,20.34-1.09,23.26-1.49c1.81-0.25,3.08,1.32,2.77,4.84c-1.07,12.16-2.11,24.89-6.79,36.26c-1.81,4.4-3.4,4.15-5.32-0.83" style="fill:none;stroke:black;stroke-width:3" />
<circle cx="1003.08" cy="52.65" r="5" stroke-width="0" fill="#FF2A00" opacity="0.7" />
<path d="M1159.75,14c0.04,0.78,0.08,2.01-0.08,3.12C1158.72,23.71,1153.3,38.16,1145.8899999999999,47" style="fill:none;stroke:#999;stroke-width:3" />
<path d="M1157.72,32.93c0.79,0.25,2.29,0.66,3.49,0.43c1.45-0.27,18.33-3.49,19.71-3.63C1187.87,29.02,1181.0,37,1178.31,39.5" style="fill:none;stroke:#999;stroke-width:3" />
<path d="M1161.1100000000001,41c0.05,1.26,0.05,3.22-0.11,5.04C1159.5,63.25,1156.5,82,1141.75,94.25" style="fill:none;stroke:#999;stroke-width:3" />
<path d="M1160.67,57c3.59,8.14,16.56,27.3,22.46,34.03c1.25,1.42,2.19,2.26,3.37,2.72" style="fill:none;stroke:#999;stroke-width:3" />
<path d="M1106.87,15.32c0.27,0.45,0.27,0.76,0.42,1.32c1.2,4.63,2.5,16.74,3.24,25.38" style="fill:none;stroke:#999;stroke-width:3" />
<path d="M1107.73,17.27c8.23-0.99,22.54-2.39,30.16-3.04c2.27-0.19,3.22,1.75,3.1,2.83c-0.42,3.96-2.64,16.95-3.67,23.57" style="fill:none;stroke:#999;stroke-width:3" />
<path d="M1109.45,28.24c4.72-0.35,27.52-2.37,29.91-2.47" style="fill:none;stroke:#999;stroke-width:3" />
<path d="M1110.5900000000001,39.3c8.4-0.45,18.65-1.38,27.08-1.58" style="fill:none;stroke:#999;stroke-width:3" />
<path d="M1115.8899999999999,42.48c0.05,0.57,0.23,1.5-0.1,2.27C1113.35,50.56,1107.8,59.07,1098.5,66.5" style="fill:none;stroke:#999;stroke-width:3" />
<path d="M1112.08,52.65c0.73,0.5,1.76,0.67,2.93,0.33c1.17-0.33,20.34-1.09,23.26-1.49c1.81-0.25,3.08,1.32,2.77,4.84c-1.07,12.16-2.11,24.89-6.79,36.26c-1.81,4.4-3.4,4.15-5.32-0.83" style="fill:none;stroke:#999;stroke-width:3" />
<path d="M1121.71,58.12c0.26,0.3-0.04,1.86-0.22,2.44C1119.67,66.28,1117.87,71.11,1111.37,78" style="fill:none;stroke:black;stroke-width:3" />
<circle cx="1121.71" cy="58.12" r="5" stroke-width="0" fill="#FF2A00" opacity="0.7" />
<path d="M1268.75,14c0.04,0.78,0.08,2.01-0.08,3.12C1267.72,23.71,1262.3,38.16,1254.8899999999999,47" style="fill:none;stroke:#999;stroke-width:3" />
<path d="M1266.72,32.93c0.79,0.25,2.29,0.66,3.49,0.43c1.45-0.27,18.33-3.49,19.71-3.63C1296.87,29.02,1290.0,37,1287.31,39.5" style="fill:none;stroke:#999;stroke-width:3" />
<path d="M1270.1100000000001,41c0.05,1.26,0.05,3.22-0.11,5.04C1268.5,63.25,1265.5,82,1250.75,94.25" style="fill:none;stroke:#999;stroke-width:3" />
<path d="M1269.67,57c3.59,8.14,16.56,27.3,22.46,34.03c1.25,1.42,2.19,2.26,3.37,2.72" style="fill:none;stroke:#999;stroke-width:3" />
<path d="M1215.87,15.32c0.27,0.45,0.27,0.76,0.42,1.32c1.2,4.63,2.5,16.74,3.24,25.38" style="fill:none;stroke:#999;stroke-width:3" />
<path d="M1216.73,17.27c8.23-0.99,22.54-2.39,30.16-3.04c2.27-0.19,3.22,1.75,3.1,2.83c-0.42,3.96-2.64,16.95-3.67,23.57" style="fill:none;stroke:#999;stroke-width:3" />
<path d="M1218.45,28.24c4.72-0.35,27.52-2.37,29.91-2.47" style="fill:none;stroke:#999;stroke-width:3" />
<path d="M1219.5900000000001,39.3c8.4-0.45,18.65-1.38,27.08-1.58" style="fill:none;stroke:#999;stroke-width:3" />
<path d="M1224.8899999999999,42.48c0.05,0.57,0.23,1.5-0.1,2.27C1222.35,50.56,1216.8,59.07,1207.5,66.5" style="fill:none;stroke:#999;stroke-width:3" />
<path d="M1221.08,52.65c0.73,0.5,1.76,0.67,2.93,0.33c1.17-0.33,20.34-1.09,23.26-1.49c1.81-0.25,3.08,1.32,2.77,4.84c-1.07,12.16-2.11,24.89-6.79,36.26c-1.81,4.4-3.4,4.15-5.32-0.83" style="fill:none;stroke:#999;stroke-width:3" />
<path d="M1230.71,58.12c0.26,0.3-0.04,1.86-0.22,2.44C1228.67,66.28,1226.87,71.11,1220.37,78" style="fill:none;stroke:#999;stroke-width:3" />
<path d="M1228.75,66.54c3.42,1.5,7.78,5.48,9.44,9.25" style="fill:none;stroke:black;stroke-width:3" />
<circle cx="1228.75" cy="66.54" r="5" stroke-width="0" fill="#FF2A00" opacity="0.7" />
<path d="M1377.75,14c0.04,0.78,0.08,2.01-0.08,3.12C1376.72,23.71,1371.3,38.16,1363.8899999999999,47" style="fill:none;stroke:#999;stroke-width:3" />
<path d="M1375.72,32.93c0.79,0.25,2.29,0.66,3.49,0.43c1.45-0.27,18.33-3.49,19.71-3.63C1405.87,29.02,1399.0,37,1396.31,39.5" style="fill:none;stroke:#999;stroke-width:3" />
<path d="M1379.1100000000001,41c0.05,1.26,0.05,3.22-0.11,5.04C1377.5,63.25,1374.5,82,1359.75,94.25" style="fill:none;stroke:#999;stroke-width:3" />
<path d="M1378.67,57c3.59,8.14,16.56,27.3,22.46,34.03c1.25,1.42,2.19,2.26,3.37,2.72" style="fill:none;stroke:#999;stroke-width:3" />
<path d="M1324.87,15.32c0.27,0.45,0.27,0.76,0.42,1.32c1.2,4.63,2.5,16.74,3.24,25.38" style="fill:none;stroke:#999;stroke-width:3" />
<path d="M1325.73,17.27c8.23-0.99,22.54-2.39,30.16-3.04c2.27-0.19,3.22,1.75,3.1,2.83c-0.42,3.96-2.64,16.95-3.67,23.57" style="fill:none;stroke:#999;stroke-width:3" />
<path d="M1327.45,28.24c4.72-0.35,27.52-2.37,29.91-2.47" style="fill:none;stroke:#999;stroke-width:3" />
<path d="M1328.5900000000001,39.3c8.4-0.45,18.65-1.38,27.08-1.58" style="fill:none;stroke:#999;stroke-width:3" />
<path d="M1333.8899999999999,42.48c0.05,0.57,0.23,1.5-0.1,2.27C1331.35,50.56,1325.8,59.07,1316.5,66.5" style="fill:none;stroke:#999;stroke-width:3" />
<path d="M1330.08,52.65c0.73,0.5,1.76,0.67,2.93,0.33c1.17-0.33,20.34-1.09,23.26-1.49c1.81-0.25,3.08,1.32,2.77,4.84c-1.07,12.16-2.11,24.89-6.79,36.26c-1.81,4.4-3.4,4.15-5.32-0.83" style="fill:none;stroke:#999;stroke-width:3" />
<path d="M1339.71,58.12c0.26,0.3-0.04,1.86-0.22,2.44C1337.67,66.28,1335.87,71.11,1329.37,78" style="fill:none;stroke:#999;stroke-width:3" />
<path d="M1337.75,66.54c3.42,1.5,7.78,5.48,9.44,9.25" style="fill:none;stroke:#999;stroke-width:3" />
<path d="M1324.31,63.51c0.65,0.46,1.04,2.07,1.17,2.99c0.12,0.83-0.96,6.72-0.96,14.87c0,1.88,0.56,2.76,2.31,2.36C1332.25,82.5,1337.0,82,1345.03,81.87c1.59-0.03,2.85,0.38,3.63,0.38" style="fill:none;stroke:black;stroke-width:3" />
<circle cx="1324.31" cy="63.51" r="5" stroke-width="0" fill="#FF2A00" opacity="0.7" />
</svg>