<svg width="1417px" height="109px" viewBox="0 0 1417px 109px" xmlns="http://www.w3.org/2000/svg" xmlns:xlink="http://www.w3.org/1999/xlink" xml:space="preserve" version="1.1"  baseProfile="full">
<line x1="1" y1="1" x2="1416" y2="1" style="stroke:#ddd;stroke-width:2" />
<line x1="1" y1="1" x2="1" y2="108" style="stroke:#ddd;stroke-width:2" />
<line x1="1" y1="108" x2="1416" y2="108" style="stroke:#ddd;stroke-width:2" />
<line x1="1416" y1="1" x2="1416" y2="108" style="stroke:#ddd;stroke-width:2" />
<line x1="109" y1="1" x2="109" y2="108" style="stroke:#ddd;stroke-width:2" />
<line x1="218" y1="1" x2="218" y2="108" style="stroke:#ddd;stroke-width:2" />
<line x1="327" y1="1" x2="327" y2="108" style="stroke:#ddd;stroke-width:2" />
<line x1="436" y1="1" x2="436" y2="108" style="stroke:#ddd;stroke-width:2" />
<line x1="545" y1="1" x2="545" y2="108" style="stroke:#ddd;stroke-width:2" />
<line x1="654" y1="1" x2="654" y2="108" style="stroke:#ddd;stroke-width:2" />
<line x1="763" y1="1" x2="763" y2="108" style="stroke:#ddd;stroke-width:2" />
<line x1="872" y1="1" x2="872" y2="108" style="stroke:#ddd;stroke-width:2" />
<line x1="981" y1="1" x2="981" y2="108" style="stroke:#ddd;stroke-width:2" />
<line x1="1090" y1="1" x2="1090" y2="108" style="stroke:#ddd;stroke-width:2" />
<line x1="1199" y1="1" x2="1199" y2="108" style="stroke:#ddd;stroke-width:2" />
<line x1="1308" y1="1" x2="1308" y2="108" style="stroke:#ddd;stroke-width:2" />
<line x1="1" y1="54" x2="1416" y2="54" style="stroke:#ddd;stroke-width:2;stroke-dasharray:3 3" />
<line x1="55" y1="1" x2="55" y2="108" style="stroke:#ddd;stroke-width:2;stroke-dasharray:3 3" />
<line x1="164" y1="1" x2="164" y2="108" style="stroke:#ddd;stroke-width:2;stroke-dasharray:3 3" />
<line x1="273" y1="1" x2="273" y2="108" style="stroke:#ddd;stroke-width:2;stroke-dasharray:3 3" />
<line x1="382" y1="1" x2="382" y2="108" style="stroke:#ddd;stroke-width:2;stroke-dasharray:3 3" />
<line x1="491" y1="1" x2="491" y2="108" style="stroke:#ddd;stroke-width:2;stroke-dasharray:3 3" />
<line x1="600" y1="1" x2="600" y2="108" style="stroke:#ddd;stroke-width:2;stroke-dasharray:3 3" />
<line x1="709" y1="1" x2="709" y2="108" style="stroke:#ddd;stroke-width:2;stroke-dasharray:3 3" />
<line x1="818" y1="1" x2="818" y2="108" style="stroke:#ddd;stroke-width:2;stroke-dasharray:3 3" />
<line x1="927" y1="1" x2="927" y2="108" style="stroke:#ddd;stroke-width:2;stroke-dasharray:3 3" />
<line x1="1036" y1="1" x2="1036" y2="108" style="stroke:#ddd;stroke-width:2;stroke-dasharray:3 3" />
<line x1="1145" y1="1" x2="1145" y2="108" style="stroke:#ddd;stroke-width:2;stroke-dasharray:3 3" />
<line x1="1254" y1="1" x2="1254" y2="108" style="stroke:#ddd;stroke-width:2;stroke-dasharray:3 3" />
<line x1="1363" y1="1" x2="1363" y2="108" style="stroke:#ddd;stroke-width:2;stroke-dasharray:3 3" />
<path d="M19.88,16.25c3.31,1.47,8.54,6.05,9.37,8.34" style="fill:none;stroke:black;stroke-width:3" />
<circle cx="19.88" cy="16.25" r="5" stroke-width="0" fill="#FF2A00" opacity="0.7" />
<path d="M128.88,16.25c3.31,1.47,8.54,6.05,9.37,8.34" style="fill:none;stroke:#999;stroke-width:3" />
<path d="M122.25,40.25c3.62,1.37,9.34,5.62,10.25,7.75" style="fill:none;stroke:black;stroke-width:3" />
<circle cx="122.25" cy="40.25" r="5" stroke-width="0" fill="#FF2A00" opacity="0.7" />
<path d="M237.88,16.25c3.31,1.47,8.54,6.05,9.37,8.34" style="fill:none;stroke:#999;stroke-width:3" />
<path d="M231.25,40.25c3.62,1.37,9.34,5.62,10.25,7.75" style="fill:none;stroke:#999;stroke-width:3" />
<path d="M232.25,87.71c1.5,1.31,3.31,1.36,4.25-0.25C239.25,82.75,242.0,77,244.5,71" style="fill:none;stroke:black;stroke-width:3" />
<circle cx="232.25" cy="87.71" r="5" stroke-width="0" fill="#FF2A00" opacity="0.7" />
<path d="M346.88,16.25c3.31,1.47,8.54,6.05,9.37,8.34" style="fill:none;stroke:#999;stroke-width:3" />
<path d="M340.25,40.25c3.62,1.37,9.34,5.62,10.25,7.75" style="fill:none;stroke:#999;stroke-width:3" />
<path d="M341.25,87.71c1.5,1.31,3.31,1.36,4.25-0.25C348.25,82.75,351.0,77,353.5,71" style="fill:none;stroke:#999;stroke-width:3" />
<path d="M364.08,17.91c1.17,0.59,3.74,0.55,4.89,0.45c7.04-0.61,11.79-1.86,16.01-2.62c2.34-0.42,3.57-0.26,2.89,1.68c-0.56,1.59-1.9,7.72-3.28,12.18c-0.3,0.96-0.59,1.85-0.89,2.59" style="fill:none;stroke:black;stroke-width:3" />
<circle cx="364.08" cy="17.91" r="5" stroke-width="0" fill="#FF2A00" opacity="0.7" />
<path d="M455.88,16.25c3.31,1.47,8.54,6.05,9.37,8.34" style="fill:none;stroke:#999;stroke-width:3" />
<path d="M449.25,40.25c3.62,1.37,9.34,5.62,10.25,7.75" style="fill:none;stroke:#999;stroke-width:3" />
<path d="M450.25,87.71c1.5,1.31,3.31,1.36,4.25-0.25C457.25,82.75,460.0,77,462.5,71" style="fill:none;stroke:#999;stroke-width:3" />
<path d="M473.08,17.91c1.17,0.59,3.74,0.55,4.89,0.45c7.04-0.61,11.79-1.86,16.01-2.62c2.34-0.42,3.57-0.26,2.89,1.68c-0.56,1.59-1.9,7.72-3.28,12.18c-0.3,0.96-0.59,1.85-0.89,2.59" style="fill:none;stroke:#999;stroke-width:3" />
<path d="M477.75,35.25c4.5-0.5,12-2,13.25-2s2.5-0.5,3.5-0.5" style="fill:none;stroke:black;stroke-width:3" />
<circle cx="477.75" cy="35.25" r="5" stroke-width="0" fill="#FF2A00" opacity="0.7" />
<path d="M564.88,16.25c3.31,1.47,8.54,6.05,9.37,8.34" style="fill:none;stroke:#999;stroke-width:3" />
<path d="M558.25,40.25c3.62,1.37,9.34,5.62,10.25,7.75" style="fill:none;stroke:#999;stroke-width:3" />
<path d="M559.25,87.71c1.5,1.31,3.31,1.36,4.25-0.25C566.25,82.75,569.0,77,571.5,71" style="fill:none;stroke:#999;stroke-width:3" />
<path d="M582.0799999999999,17.91c1.17,0.59,3.74,0.55,4.89,0.45c7.04-0.61,11.79-1.86,16.01-2.62c2.34-0.42,3.57-0.26,2.89,1.68c-0.56,1.59-1.9,7.72-3.28,12.18c-0.3,0.96-0.59,1.85-0.89,2.59" style="fill:none;stroke:#999;stroke-width:3" />
<path d="M586.75,35.25c4.5-0.5,12-2,13.25-2s2.5-0.5,3.5-0.5" style="fill:none;stroke:#999;stroke-width:3" />
<path d="M585.29,33.62c0.53,0.97,1.02,2.1,0.67,3.63c-0.39,1.76-1.18,7.52-2.58,11.82c-0.63,1.94,0.34,3.41,1.91,2.91c3.75-1.22,12.51-3.41,15.39-3.58c2.35-0.14,3.52,1.28,3.29,4.6c-0.72,10.51-2.47,25.76-8.04,38.08c-1.92,4.25-5.19,2.42-6.73-1.53" style="fill:none;stroke:black;stroke-width:3" />
<circle cx="585.29" cy="33.62" r="5" stroke-width="0" fill="#FF2A00" opacity="0.7" />
<path d="M673.88,16.25c3.31,1.47,8.54,6.05,9.37,8.34" style="fill:none;stroke:#999;stroke-width:3" />
<path d="M667.25,40.25c3.62,1.37,9.34,5.62,10.25,7.75" style="fill:none;stroke:#999;stroke-width:3" />
<path d="M668.25,87.71c1.5,1.31,3.31,1.36,4.25-0.25C675.25,82.75,678.0,77,680.5,71" style="fill:none;stroke:#999;stroke-width:3" />
<path d="M691.0799999999999,17.91c1.17,0.59,3.74,0.55,4.89,0.45c7.04-0.61,11.79-1.86,16.01-2.62c2.34-0.42,3.57-0.26,2.89,1.68c-0.56,1.59-1.9,7.72-3.28,12.18c-0.3,0.96-0.59,1.85-0.89,2.59" style="fill:none;stroke:#999;stroke-width:3" />
<path d="M695.75,35.25c4.5-0.5,12-2,13.25-2s2.5-0.5,3.5-0.5" style="fill:none;stroke:#999;stroke-width:3" />
<path d="M694.29,33.62c0.53,0.97,1.02,2.1,0.67,3.63c-0.39,1.76-1.18,7.52-2.58,11.82c-0.63,1.94,0.34,3.41,1.91,2.91c3.75-1.22,12.51-3.41,15.39-3.58c2.35-0.14,3.52,1.28,3.29,4.6c-0.72,10.51-2.47,25.76-8.04,38.08c-1.92,4.25-5.19,2.42-6.73-1.53" style="fill:none;stroke:#999;stroke-width:3" />
<path d="M692.73,59c2.6,1.32,6.73,5.43,7.38,7.49" style="fill:none;stroke:black;stroke-width:3" />
<circle cx="692.73" cy="59.0" r="5" stroke-width="0" fill="#FF2A00" opacity="0.7" />
<path d="M782.88,16.25c3.31,1.47,8.54,6.05,9.37,8.34" style="fill:none;stroke:#999;stroke-width:3" />
<path d="M776.25,40.25c3.62,1.37,9.34,5.62,10.25,7.75" style="fill:none;stroke:#999;stroke-width:3" />
<path d="M777.25,87.71c1.5,1.31,3.31,1.36,4.25-0.25C784.25,82.75,787.0,77,789.5,71" style="fill:none;stroke:#999;stroke-width:3" />
<path d="M800.0799999999999,17.91c1.17,0.59,3.74,0.55,4.89,0.45c7.04-0.61,11.79-1.86,16.01-2.62c2.34-0.42,3.57-0.26,2.89,1.68c-0.56,1.59-1.9,7.72-3.28,12.18c-0.3,0.96-0.59,1.85-0.89,2.59" style="fill:none;stroke:#999;stroke-width:3" />
<path d="M804.75,35.25c4.5-0.5,12-2,13.25-2s2.5-0.5,3.5-0.5" style="fill:none;stroke:#999;stroke-width:3" />
<path d="M803.29,33.62c0.53,0.97,1.02,2.1,0.67,3.63c-0.39,1.76-1.18,7.52-2.58,11.82c-0.63,1.94,0.34,3.41,1.91,2.91c3.75-1.22,12.51-3.41,15.39-3.58c2.35-0.14,3.52,1.28,3.29,4.6c-0.72,10.51-2.47,25.76-8.04,38.08c-1.92,4.25-5.19,2.42-6.73-1.53" style="fill:none;stroke:#999;stroke-width:3" />
<path d="M801.73,59c2.6,1.32,6.73,5.43,7.38,7.49" style="fill:none;stroke:#999;stroke-width:3" />
<path d="M796.84,79.6c1.64,1,3.77,0.84,4.91,0c1.11-0.82,5.8-4.49,12.39-8.6" style="fill:none;stroke:black;stroke-width:3" />
<circle cx="796.84" cy="79.6" r="5" stroke-width="0" fill="#FF2A00" opacity="0.7" />
<path d="M891.88,16.25c3.31,1.47,8.54,6.05,9.37,8.34" style="fill:none;stroke:#999;stroke-width:3" />
<path d="M885.25,40.25c3.62,1.37,9.34,5.62,10.25,7.75" style="fill:none;stroke:#999;stroke-width:3" />
<path d="M886.25,87.71c1.5,1.31,3.31,1.36,4.25-0.25C893.25,82.75,896.0,77,898.5,71" style="fill:none;stroke:#999;stroke-width:3" />
<path d="M909.0799999999999,17.91c1.17,0.59,3.74,0.55,4.89,0.45c7.04-0.61,11.79-1.86,16.01-2.62c2.34-0.42,3.57-0.26,2.89,1.68c-0.56,1.59-1.9,7.72-3.28,12.18c-0.3,0.96-0.59,1.85-0.89,2.59" style="fill:none;stroke:#999;stroke-width:3" />
<path d="M913.75,35.25c4.5-0.5,12-2,13.25-2s2.5-0.5,3.5-0.5" style="fill:none;stroke:#999;stroke-width:3" />
<path d="M912.29,33.62c0.53,0.97,1.02,2.1,0.67,3.63c-0.39,1.76-1.18,7.52-2.58,11.82c-0.63,1.94,0.34,3.41,1.91,2.91c3.75-1.22,12.51-3.41,15.39-3.58c2.35-0.14,3.52,1.28,3.29,4.6c-0.72,10.51-2.47,25.76-8.04,38.08c-1.92,4.25-5.19,2.42-6.73-1.53" style="fill:none;stroke:#999;stroke-width:3" />
<path d="M910.73,59c2.6,1.32,6.73,5.43,7.38,7.49" style="fill:none;stroke:#999;stroke-width:3" />
<path d="M905.84,79.6c1.64,1,3.77,0.84,4.91,0c1.11-0.82,5.8-4.49,12.39-8.6" style="fill:none;stroke:#999;stroke-width:3" />
<path d="M941.8199999999999,15.91c1.93,0.84,3.75,0.62,4.89,0.45c4.04-0.61,12.75-1.39,15.01-2.12c2.26-0.73,3.57-0.26,2.89,1.68c-0.59,1.67-1.36,6.3-2.88,12.32c-0.24,0.95-0.5,1.94-0.78,2.95" style="fill:none;stroke:black;stroke-width:3" />
<circle cx="941.8199999999999" cy="15.91" r="5" stroke-width="0" fill="#FF2A00" opacity="0.7" />
<path d="M1000.88,16.25c3.31,1.47,8.54,6.05,9.37,8.34" style="fill:none;stroke:#999;stroke-width:3" />
<path d="M994.25,40.25c3.62,1.37,9.34,5.62,10.25,7.75" style="fill:none;stroke:#999;stroke-width:3" />
<path d="M995.25,87.71c1.5,1.31,3.31,1.36,4.25-0.25C1002.25,82.75,1005.0,77,1007.5,71" style="fill:none;stroke:#999;stroke-width:3" />
<path d="M1018.0799999999999,17.91c1.17,0.59,3.74,0.55,4.89,0.45c7.04-0.61,11.79-1.86,16.01-2.62c2.34-0.42,3.57-0.26,2.89,1.68c-0.56,1.59-1.9,7.72-3.28,12.18c-0.3,0.96-0.59,1.85-0.89,2.59" style="fill:none;stroke:#999;stroke-width:3" />
<path d="M1022.75,35.25c4.5-0.5,12-2,13.25-2s2.5-0.5,3.5-0.5" style="fill:none;stroke:#999;stroke-width:3" />
<path d="M1021.29,33.62c0.53,0.97,1.02,2.1,0.67,3.63c-0.39,1.76-1.18,7.52-2.58,11.82c-0.63,1.94,0.34,3.41,1.91,2.91c3.75-1.22,12.51-3.41,15.39-3.58c2.35-0.14,3.52,1.28,3.29,4.6c-0.72,10.51-2.47,25.76-8.04,38.08c-1.92,4.25-5.19,2.42-6.73-1.53" style="fill:none;stroke:#999;stroke-width:3" />
<path d="M1019.73,59c2.6,1.32,6.73,5.43,7.38,7.49" style="fill:none;stroke:#999;stroke-width:3" />
<path d="M1014.84,79.6c1.64,1,3.77,0.84,4.91,0c1.11-0.82,5.8-4.49,12.39-8.6" style="fill:none;stroke:#999;stroke-width:3" />
<path d="M1050.82,15.91c1.93,0.84,3.75,0.62,4.89,0.45c4.04-0.61,12.75-1.39,15.01-2.12c2.26-0.73,3.57-0.26,2.89,1.68c-0.59,1.67-1.36,6.3-2.88,12.32c-0.24,0.95-0.5,1.94-0.78,2.95" style="fill:none;stroke:#999;stroke-width:3" />
<path d="M1054.5,33.25c3.26-0.43,12.5-1.5,14.25-1.5c1.25,0,2.5-0.5,3.5-0.5" style="fill:none;stroke:black;stroke-width:3" />
<circle cx="1054.5" cy="33.25" r="5" stroke-width="0" fill="#FF2A00" opacity="0.7" />
<path d="M1109.88,16.25c3.31,1.47,8.54,6.05,9.37,8.34" style="fill:none;stroke:#999;stroke-width:3" />
<path d="M1103.25,40.25c3.62,1.37,9.34,5.62,10.25,7.75" style="fill:none;stroke:#999;stroke-width:3" />
<path d="M1104.25,87.71c1.5,1.31,3.31,1.36,4.25-0.25C1111.25,82.75,1114.0,77,1116.5,71" style="fill:none;stroke:#999;stroke-width:3" />
<path d="M1127.08,17.91c1.17,0.59,3.74,0.55,4.89,0.45c7.04-0.61,11.79-1.86,16.01-2.62c2.34-0.42,3.57-0.26,2.89,1.68c-0.56,1.59-1.9,7.72-3.28,12.18c-0.3,0.96-0.59,1.85-0.89,2.59" style="fill:none;stroke:#999;stroke-width:3" />
<path d="M1131.75,35.25c4.5-0.5,12-2,13.25-2s2.5-0.5,3.5-0.5" style="fill:none;stroke:#999;stroke-width:3" />
<path d="M1130.29,33.62c0.53,0.97,1.02,2.1,0.67,3.63c-0.39,1.76-1.18,7.52-2.58,11.82c-0.63,1.94,0.34,3.41,1.91,2.91c3.75-1.22,12.51-3.41,15.39-3.58c2.35-0.14,3.52,1.28,3.29,4.6c-0.72,10.51-2.47,25.76-8.04,38.08c-1.92,4.25-5.19,2.42-6.73-1.53" style="fill:none;stroke:#999;stroke-width:3" />
<path d="M1128.73,59c2.6,1.32,6.73,5.43,7.38,7.49" style="fill:none;stroke:#999;stroke-width:3" />
<path d="M1123.8400000000001,79.6c1.64,1,3.77,0.84,4.91,0c1.11-0.82,5.8-4.49,12.39-8.6" style="fill:none;stroke:#999;stroke-width:3" />
<path d="M1159.82,15.91c1.93,0.84,3.75,0.62,4.89,0.45c4.04-0.61,12.75-1.39,15.01-2.12c2.26-0.73,3.57-0.26,2.89,1.68c-0.59,1.67-1.36,6.3-2.88,12.32c-0.24,0.95-0.5,1.94-0.78,2.95" style="fill:none;stroke:#999;stroke-width:3" />
<path d="M1163.5,33.25c3.26-0.43,12.5-1.5,14.25-1.5c1.25,0,2.5-0.5,3.5-0.5" style="fill:none;stroke:#999;stroke-width:3" />
<path d="M1161.99,31.62c0.53,0.97,1.01,2.1,0.67,3.63c-0.39,1.76-2.12,10.51-2.54,11.32c-0.62,1.19,0.32,3.33,1.91,2.91c6.47-1.72,15.74-2.91,18.62-3.08c2.35-0.14,3.75,1.3,3.29,4.6c-2.2,16.01-4.05,31.41-9.4,42.08c-2.09,4.17-4.79,0.67-6.23-2.03" style="fill:none;stroke:black;stroke-width:3" />
<circle cx="1161.99" cy="31.62" r="5" stroke-width="0" fill="#FF2A00" opacity="0.7" />
<path d="M1218.88,16.25c3.31,1.47,8.54,6.05,9.37,8.34" style="fill:none;stroke:#999;stroke-width:3" />
<path d="M1212.25,40.25c3.62,1.37,9.34,5.62,10.25,7.75" style="fill:none;stroke:#999;stroke-width:3" />
<path d="M1213.25,87.71c1.5,1.31,3.31,1.36,4.25-0.25C1220.25,82.75,1223.0,77,1225.5,71" style="fill:none;stroke:#999;stroke-width:3" />
<path d="M1236.08,17.91c1.17,0.59,3.74,0.55,4.89,0.45c7.04-0.61,11.79-1.86,16.01-2.62c2.34-0.42,3.57-0.26,2.89,1.68c-0.56,1.59-1.9,7.72-3.28,12.18c-0.3,0.96-0.59,1.85-0.89,2.59" style="fill:none;stroke:#999;stroke-width:3" />
<path d="M1240.75,35.25c4.5-0.5,12-2,13.25-2s2.5-0.5,3.5-0.5" style="fill:none;stroke:#999;stroke-width:3" />
<path d="M1239.29,33.62c0.53,0.97,1.02,2.1,0.67,3.63c-0.39,1.76-1.18,7.52-2.58,11.82c-0.63,1.94,0.34,3.41,1.91,2.91c3.75-1.22,12.51-3.41,15.39-3.58c2.35-0.14,3.52,1.28,3.29,4.6c-0.72,10.51-2.47,25.76-8.04,38.08c-1.92,4.25-5.19,2.42-6.73-1.53" style="fill:none;stroke:#999;stroke-width:3" />
<path d="M1237.73,59c2.6,1.32,6.73,5.43,7.38,7.49" style="fill:none;stroke:#999;stroke-width:3" />
<path d="M1232.8400000000001,79.6c1.64,1,3.77,0.84,4.91,0c1.11-0.82,5.8-4.49,12.39-8.6" style="fill:none;stroke:#999;stroke-width:3" />
<path d="M1268.82,15.91c1.93,0.84,3.75,0.62,4.89,0.45c4.04-0.61,12.75-1.39,15.01-2.12c2.26-0.73,3.57-0.26,2.89,1.68c-0.59,1.67-1.36,6.3-2.88,12.32c-0.24,0.95-0.5,1.94-0.78,2.95" style="fill:none;stroke:#999;stroke-width:3" />
<path d="M1272.5,33.25c3.26-0.43,12.5-1.5,14.25-1.5c1.25,0,2.5-0.5,3.5-0.5" style="fill:none;stroke:#999;stroke-width:3" />
<path d="M1270.99,31.62c0.53,0.97,1.01,2.1,0.67,3.63c-0.39,1.76-2.12,10.51-2.54,11.32c-0.62,1.19,0.32,3.33,1.91,2.91c6.47-1.72,15.74-2.91,18.62-3.08c2.35-0.14,3.75,1.3,3.29,4.6c-2.2,16.01-4.05,31.41-9.4,42.08c-2.09,4.17-4.79,0.67-6.23-2.03" style="fill:none;stroke:#999;stroke-width:3" />
<path d="M1272.02,56.75c2.49,1.54,6.44,6.34,7.06,8.74" style="fill:none;stroke:black;stroke-width:3" />
<circle cx="1272.02" cy="56.75" r="5" stroke-width="0" fill="#FF2A00" opacity="0.7" />
<path d="M1327.88,16.25c3.31,1.47,8.54,6.05,9.37,8.34" style="fill:none;stroke:#999;stroke-width:3" />
<path d="M1321.25,40.25c3.62,1.37,9.34,5.62,10.25,7.75" style="fill:none;stroke:#999;stroke-width:3" />
<path d="M1322.25,87.71c1.5,1.31,3.31,1.36,4.25-0.25C1329.25,82.75,1332.0,77,1334.5,71" style="fill:none;stroke:#999;stroke-width:3" />
<path d="M1345.08,17.91c1.17,0.59,3.74,0.55,4.89,0.45c7.04-0.61,11.79-1.86,16.01-2.62c2.34-0.42,3.57-0.26,2.89,1.68c-0.56,1.59-1.9,7.72-3.28,12.18c-0.3,0.96-0.59,1.85-0.89,2.59" style="fill:none;stroke:#999;stroke-width:3" />
<path d="M1349.75,35.25c4.5-0.5,12-2,13.25-2s2.5-0.5,3.5-0.5" style="fill:none;stroke:#999;stroke-width:3" />
<path d="M1348.29,33.62c0.53,0.97,1.02,2.1,0.67,3.63c-0.39,1.76-1.18,7.52-2.58,11.82c-0.63,1.94,0.34,3.41,1.91,2.91c3.75-1.22,12.51-3.41,15.39-3.58c2.35-0.14,3.52,1.28,3.29,4.6c-0.72,10.51-2.47,25.76-8.04,38.08c-1.92,4.25-5.19,2.42-6.73-1.53" style="fill:none;stroke:#999;stroke-width:3" />
<path d="M1346.73,59c2.6,1.32,6.73,5.43,7.38,7.49" style="fill:none;stroke:#999;stroke-width:3" />
<path d="M1341.8400000000001,79.6c1.64,1,3.77,0.84,4.91,0c1.11-0.82,5.8-4.49,12.39-8.6" style="fill:none;stroke:#999;stroke-width:3" />
<path d="M1377.82,15.91c1.93,0.84,3.75,0.62,4.89,0.45c4.04-0.61,12.75-1.39,15.01-2.12c2.26-0.73,3.57-0.26,2.89,1.68c-0.59,1.67-1.36,6.3-2.88,12.32c-0.24,0.95-0.5,1.94-0.78,2.95" style="fill:none;stroke:#999;stroke-width:3" />
<path d="M1381.5,33.25c3.26-0.43,12.5-1.5,14.25-1.5c1.25,0,2.5-0.5,3.5-0.5" style="fill:none;stroke:#999;stroke-width:3" />
<path d="M1379.99,31.62c0.53,0.97,1.01,2.1,0.67,3.63c-0.39,1.76-2.12,10.51-2.54,11.32c-0.62,1.19,0.32,3.33,1.91,2.91c6.47-1.72,15.74-2.91,18.62-3.08c2.35-0.14,3.75,1.3,3.29,4.6c-2.2,16.01-4.05,31.41-9.4,42.08c-2.09,4.17-4.79,0.67-6.23-2.03" style="fill:none;stroke:#999;stroke-width:3" />
<path d="M1381.02,56.75c2.49,1.54,6.44,6.34,7.06,8.74" style="fill:none;stroke:#999;stroke-width:3" />
<path d="M1372.26,78.55c2.02,1.08,4.64,0.91,6.05,0c1.37-0.89,7.14-4.86,15.26-9.3" style="fill:none;stroke:black;stroke-width:3" />
<circle cx="1372.26" cy="78.55" r="5" stroke-width="0" fill="#FF2A00" opacity="0.7" />
</svg>