<svg width="2180px" height="109px" viewBox="0 0 2180px 109px" xmlns="http://www.w3.org/2000/svg" xmlns:xlink="http://www.w3.org/1999/xlink" xml:space="preserve" version="1.1"  baseProfile="full">
<line x1="1" y1="1" x2="2179" y2="1" style="stroke:#ddd;stroke-width:2" />
<line x1="1" y1="1" x2="1" y2="108" style="stroke:#ddd;stroke-width:2" />
<line x1="1" y1="108" x2="2179" y2="108" style="stroke:#ddd;stroke-width:2" />
<line x1="2179" y1="1" x2="2179" y2="108" style="stroke:#ddd;stroke-width:2" />
<line x1="109" y1="1" x2="109" y2="108" style="stroke:#ddd;stroke-width:2" />
<line x1="218" y1="1" x2="218" y2="108" style="stroke:#ddd;stroke-width:2" />
<line x1="327" y1="1" x2="327" y2="108" style="stroke:#ddd;stroke-width:2" />
<line x1="436" y1="1" x2="436" y2="108" style="stroke:#ddd;stroke-width:2" />
<line x1="545" y1="1" x2="545" y2="108" style="stroke:#ddd;stroke-width:2" />
<line x1="654" y1="1" x2="654" y2="108" style="stroke:#ddd;stroke-width:2" />
<line x1="763" y1="1" x2="763" y2="108" style="stroke:#ddd;stroke-width:2" />
<line x1="872" y1="1" x2="872" y2="108" style="stroke:#ddd;stroke-width:2" />
<line x1="981" y1="1" x2="981" y2="108" style="stroke:#ddd;stroke-width:2" />
<line x1="1090" y1="1" x2="1090" y2="108" style="stroke:#ddd;stroke-width:2" />
<line x1="1199" y1="1" x2="1199" y2="108" style="stroke:#ddd;stroke-width:2" />
<line x1="1308" y1="1" x2="1308" y2="108" style="stroke:#ddd;stroke-width:2" />
<line x1="1417" y1="1" x2="1417" y2="108" style="stroke:#ddd;stroke-width:2" />
<line x1="1526" y1="1" x2="1526" y2="108" style="stroke:#ddd;stroke-width:2" />
<line x1="1635" y1="1" x2="1635" y2="108" style="stroke:#ddd;stroke-width:2" />
<line x1="1744" y1="1" x2="1744" y2="108" style="stroke:#ddd;stroke-width:2" />
<line x1="1853" y1="1" x2="1853" y2="108" style="stroke:#ddd;stroke-width:2" />
<line x1="1962" y1="1" x2="1962" y2="108" style="stroke:#ddd;stroke-width:2" />
<line x1="2071" y1="1" x2="2071" y2="108" style="stroke:#ddd;stroke-width:2" />
<line x1="1" y1="54" x2="2179" y2="54" style="stroke:#ddd;stroke-width:2;stroke-dasharray:3 3" />
<line x1="55" y1="1" x2="55" y2="108" style="stroke:#ddd;stroke-width:2;stroke-dasharray:3 3" />
<line x1="164" y1="1" x2="164" y2="108" style="stroke:#ddd;stroke-width:2;stroke-dasharray:3 3" />
<line x1="273" y1="1" x2="273" y2="108" style="stroke:#ddd;stroke-width:2;stroke-dasharray:3 3" />
<line x1="382" y1="1" x2="382" y2="108" style="stroke:#ddd;stroke-width:2;stroke-dasharray:3 3" />
<line x1="491" y1="1" x2="491" y2="108" style="stroke:#ddd;stroke-width:2;stroke-dasharray:3 3" />
<line x1="600" y1="1" x2="600" y2="108" style="stroke:#ddd;stroke-width:2;stroke-dasharray:3 3" />
<line x1="709" y1="1" x2="709" y2="108" style="stroke:#ddd;stroke-width:2;stroke-dasharray:3 3" />
<line x1="818" y1="1" x2="818" y2="108" style="stroke:#ddd;stroke-width:2;stroke-dasharray:3 3" />
<line x1="927" y1="1" x2="927" y2="108" style="stroke:#ddd;stroke-width:2;stroke-dasharray:3 3" />
<line x1="1036" y1="1" x2="1036" y2="108" style="stroke:#ddd;stroke-width:2;stroke-dasharray:3 3" />
<line x1="1145" y1="1" x2="1145" y2="108" style="stroke:#ddd;stroke-width:2;stroke-dasharray:3 3" />
<line x1="1254" y1="1" x2="1254" y2="108" style="stroke:#ddd;stroke-width:2;stroke-dasharray:3 3" />
<line x1="1363" y1="1" x2="1363" y2="108" style="stroke:#ddd;stroke-width:2;stroke-dasharray:3 3" />
<line x1="1472" y1="1" x2="1472" y2="108" style="stroke:#ddd;stroke-width:2;stroke-dasharray:3 3" />
<line x1="1581" y1="1" x2="1581" y2="108" style="stroke:#ddd;stroke-width:2;stroke-dasharray:3 3" />
<line x1="1690" y1="1" x2="1690" y2="108" style="stroke:#ddd;stroke-width:2;stroke-dasharray:3 3" />
<line x1="1799" y1="1" x2="1799" y2="108" style="stroke:#ddd;stroke-width:2;stroke-dasharray:3 3" />
<line x1="1908" y1="1" x2="1908" y2="108" style="stroke:#ddd;stroke-width:2;stroke-dasharray:3 3" />
<line x1="2017" y1="1" x2="2017" y2="108" style="stroke:#ddd;stroke-width:2;stroke-dasharray:3 3" />
<line x1="2126" y1="1" x2="2126" y2="108" style="stroke:#ddd;stroke-width:2;stroke-dasharray:3 3" />
<path d="M57.74,44.45c0.52,0.3,2.27,0.58,3.3,0.5c7.21-0.57,22.42-2.6,28.75-3.24c0.72-0.07,1.75,0.12,3.37,0.63" style="fill:none;stroke:black;stroke-width:3" />
<circle cx="57.74" cy="44.45" r="5" stroke-width="0" fill="#FF2A00" opacity="0.7" />
<path d="M166.74,44.45c0.52,0.3,2.27,0.58,3.3,0.5c7.21-0.57,22.42-2.6,28.75-3.24c0.72-0.07,1.75,0.12,3.37,0.63" style="fill:none;stroke:#999;stroke-width:3" />
<path d="M181.6,15.75c0.44,1.15,0.71,2.29,0.77,4.59C183.14,50.27,179.95999999999998,83.22,167.0,96.5" style="fill:none;stroke:black;stroke-width:3" />
<circle cx="181.6" cy="15.75" r="5" stroke-width="0" fill="#FF2A00" opacity="0.7" />
<path d="M275.74,44.45c0.52,0.3,2.27,0.58,3.3,0.5c7.21-0.57,22.42-2.6,28.75-3.24c0.72-0.07,1.75,0.12,3.37,0.63" style="fill:none;stroke:#999;stroke-width:3" />
<path d="M290.6,15.75c0.44,1.15,0.71,2.29,0.77,4.59C292.14,50.27,288.96,83.22,276.0,96.5" style="fill:none;stroke:#999;stroke-width:3" />
<path d="M291.08,45.5c4.17,16,13.42,37,21.76,48.03c1.91,2.52,2.36,2.98,3.16,3.22" style="fill:none;stroke:black;stroke-width:3" />
<circle cx="291.08" cy="45.5" r="5" stroke-width="0" fill="#FF2A00" opacity="0.7" />
<path d="M384.74,44.45c0.52,0.3,2.27,0.58,3.3,0.5c7.21-0.57,22.42-2.6,28.75-3.24c0.72-0.07,1.75,0.12,3.37,0.63" style="fill:none;stroke:#999;stroke-width:3" />
<path d="M399.6,15.75c0.44,1.15,0.71,2.29,0.77,4.59C401.14,50.27,397.96,83.22,385.0,96.5" style="fill:none;stroke:#999;stroke-width:3" />
<path d="M400.08,45.5c4.17,16,13.42,37,21.76,48.03c1.91,2.52,2.36,2.98,3.16,3.22" style="fill:none;stroke:#999;stroke-width:3" />
<path d="M409.35,22.5c5.13,3.98,6.54,7.02,8.13,10.75" style="fill:none;stroke:black;stroke-width:3" />
<circle cx="409.35" cy="22.5" r="5" stroke-width="0" fill="#FF2A00" opacity="0.7" />
<path d="M493.74,44.45c0.52,0.3,2.27,0.58,3.3,0.5c7.21-0.57,22.42-2.6,28.75-3.24c0.72-0.07,1.75,0.12,3.37,0.63" style="fill:none;stroke:#999;stroke-width:3" />
<path d="M508.6,15.75c0.44,1.15,0.71,2.29,0.77,4.59C510.14,50.27,506.96,83.22,494.0,96.5" style="fill:none;stroke:#999;stroke-width:3" />
<path d="M509.08,45.5c4.17,16,13.42,37,21.76,48.03c1.91,2.52,2.36,2.98,3.16,3.22" style="fill:none;stroke:#999;stroke-width:3" />
<path d="M518.35,22.5c5.13,3.98,6.54,7.02,8.13,10.75" style="fill:none;stroke:#999;stroke-width:3" />
<path d="M469.94,11.08c0.65,0.88,1.15,1.92,1.15,4.85c0,5.7-0.01,6.46-0.01,11.25" style="fill:none;stroke:black;stroke-width:3" />
<circle cx="469.94" cy="11.08" r="5" stroke-width="0" fill="#FF2A00" opacity="0.7" />
<path d="M602.74,44.45c0.52,0.3,2.27,0.58,3.3,0.5c7.21-0.57,22.42-2.6,28.75-3.24c0.72-0.07,1.75,0.12,3.37,0.63" style="fill:none;stroke:#999;stroke-width:3" />
<path d="M617.6,15.75c0.44,1.15,0.71,2.29,0.77,4.59C619.14,50.27,615.96,83.22,603.0,96.5" style="fill:none;stroke:#999;stroke-width:3" />
<path d="M618.0799999999999,45.5c4.17,16,13.42,37,21.76,48.03c1.91,2.52,2.36,2.98,3.16,3.22" style="fill:none;stroke:#999;stroke-width:3" />
<path d="M627.35,22.5c5.13,3.98,6.54,7.02,8.13,10.75" style="fill:none;stroke:#999;stroke-width:3" />
<path d="M578.94,11.08c0.65,0.88,1.15,1.92,1.15,4.85c0,5.7-0.01,6.46-0.01,11.25" style="fill:none;stroke:#999;stroke-width:3" />
<path d="M580.63,18.97c4.44-0.75,10.8-1.21,15.3-1.8c1.48-0.19,2.39,0.18,3.14,0.36" style="fill:none;stroke:black;stroke-width:3" />
<circle cx="580.63" cy="18.97" r="5" stroke-width="0" fill="#FF2A00" opacity="0.7" />
<path d="M711.74,44.45c0.52,0.3,2.27,0.58,3.3,0.5c7.21-0.57,22.42-2.6,28.75-3.24c0.72-0.07,1.75,0.12,3.37,0.63" style="fill:none;stroke:#999;stroke-width:3" />
<path d="M726.6,15.75c0.44,1.15,0.71,2.29,0.77,4.59C728.14,50.27,724.96,83.22,712.0,96.5" style="fill:none;stroke:#999;stroke-width:3" />
<path d="M727.0799999999999,45.5c4.17,16,13.42,37,21.76,48.03c1.91,2.52,2.36,2.98,3.16,3.22" style="fill:none;stroke:#999;stroke-width:3" />
<path d="M736.35,22.5c5.13,3.98,6.54,7.02,8.13,10.75" style="fill:none;stroke:#999;stroke-width:3" />
<path d="M687.94,11.08c0.65,0.88,1.15,1.92,1.15,4.85c0,5.7-0.01,6.46-0.01,11.25" style="fill:none;stroke:#999;stroke-width:3" />
<path d="M689.63,18.97c4.44-0.75,10.8-1.21,15.3-1.8c1.48-0.19,2.39,0.18,3.14,0.36" style="fill:none;stroke:#999;stroke-width:3" />
<path d="M672.41,27.97c0.59,1.03,1.47,3.61,1.48,5.62C674.0,58,674.25,75,663.2,94.42" style="fill:none;stroke:black;stroke-width:3" />
<circle cx="672.41" cy="27.97" r="5" stroke-width="0" fill="#FF2A00" opacity="0.7" />
<path d="M820.74,44.45c0.52,0.3,2.27,0.58,3.3,0.5c7.21-0.57,22.42-2.6,28.75-3.24c0.72-0.07,1.75,0.12,3.37,0.63" style="fill:none;stroke:#999;stroke-width:3" />
<path d="M835.6,15.75c0.44,1.15,0.71,2.29,0.77,4.59C837.14,50.27,833.96,83.22,821.0,96.5" style="fill:none;stroke:#999;stroke-width:3" />
<path d="M836.0799999999999,45.5c4.17,16,13.42,37,21.76,48.03c1.91,2.52,2.36,2.98,3.16,3.22" style="fill:none;stroke:#999;stroke-width:3" />
<path d="M845.35,22.5c5.13,3.98,6.54,7.02,8.13,10.75" style="fill:none;stroke:#999;stroke-width:3" />
<path d="M796.94,11.08c0.65,0.88,1.15,1.92,1.15,4.85c0,5.7-0.01,6.46-0.01,11.25" style="fill:none;stroke:#999;stroke-width:3" />
<path d="M798.63,18.97c4.44-0.75,10.8-1.21,15.3-1.8c1.48-0.19,2.39,0.18,3.14,0.36" style="fill:none;stroke:#999;stroke-width:3" />
<path d="M781.41,27.97c0.59,1.03,1.47,3.61,1.48,5.62C783.0,58,783.25,75,772.2,94.42" style="fill:none;stroke:#999;stroke-width:3" />
<path d="M782.58,30.35c8.79-1.95,26.24-4.36,33.77-4.52c7.93-0.17,3.16,3.67-0.14,6.03" style="fill:none;stroke:black;stroke-width:3" />
<circle cx="782.58" cy="30.35" r="5" stroke-width="0" fill="#FF2A00" opacity="0.7" />
<path d="M929.74,44.45c0.52,0.3,2.27,0.58,3.3,0.5c7.21-0.57,22.42-2.6,28.75-3.24c0.72-0.07,1.75,0.12,3.37,0.63" style="fill:none;stroke:#999;stroke-width:3" />
<path d="M944.6,15.75c0.44,1.15,0.71,2.29,0.77,4.59C946.14,50.27,942.96,83.22,930.0,96.5" style="fill:none;stroke:#999;stroke-width:3" />
<path d="M945.0799999999999,45.5c4.17,16,13.42,37,21.76,48.03c1.91,2.52,2.36,2.98,3.16,3.22" style="fill:none;stroke:#999;stroke-width:3" />
<path d="M954.35,22.5c5.13,3.98,6.54,7.02,8.13,10.75" style="fill:none;stroke:#999;stroke-width:3" />
<path d="M905.94,11.08c0.65,0.88,1.15,1.92,1.15,4.85c0,5.7-0.01,6.46-0.01,11.25" style="fill:none;stroke:#999;stroke-width:3" />
<path d="M907.63,18.97c4.44-0.75,10.8-1.21,15.3-1.8c1.48-0.19,2.39,0.18,3.14,0.36" style="fill:none;stroke:#999;stroke-width:3" />
<path d="M890.41,27.97c0.59,1.03,1.47,3.61,1.48,5.62C892.0,58,892.25,75,881.2,94.42" style="fill:none;stroke:#999;stroke-width:3" />
<path d="M891.58,30.35c8.79-1.95,26.24-4.36,33.77-4.52c7.93-0.17,3.16,3.67-0.14,6.03" style="fill:none;stroke:#999;stroke-width:3" />
<path d="M894.59,37.73c0.54,0.35,1.88,0.41,2.42,0.35c5.44-0.54,14.69-3,20.56-3.87c0.9-0.13,1.45,0.17,1.9,0.35" style="fill:none;stroke:black;stroke-width:3" />
<circle cx="894.59" cy="37.73" r="5" stroke-width="0" fill="#FF2A00" opacity="0.7" />
<path d="M1038.74,44.45c0.52,0.3,2.27,0.58,3.3,0.5c7.21-0.57,22.42-2.6,28.75-3.24c0.72-0.07,1.75,0.12,3.37,0.63" style="fill:none;stroke:#999;stroke-width:3" />
<path d="M1053.6,15.75c0.44,1.15,0.71,2.29,0.77,4.59C1055.1399999999999,50.27,1051.96,83.22,1039.0,96.5" style="fill:none;stroke:#999;stroke-width:3" />
<path d="M1054.08,45.5c4.17,16,13.42,37,21.76,48.03c1.91,2.52,2.36,2.98,3.16,3.22" style="fill:none;stroke:#999;stroke-width:3" />
<path d="M1063.35,22.5c5.13,3.98,6.54,7.02,8.13,10.75" style="fill:none;stroke:#999;stroke-width:3" />
<path d="M1014.94,11.08c0.65,0.88,1.15,1.92,1.15,4.85c0,5.7-0.01,6.46-0.01,11.25" style="fill:none;stroke:#999;stroke-width:3" />
<path d="M1016.63,18.97c4.44-0.75,10.8-1.21,15.3-1.8c1.48-0.19,2.39,0.18,3.14,0.36" style="fill:none;stroke:#999;stroke-width:3" />
<path d="M999.41,27.97c0.59,1.03,1.47,3.61,1.48,5.62C1001.0,58,1001.25,75,990.2,94.42" style="fill:none;stroke:#999;stroke-width:3" />
<path d="M1000.58,30.35c8.79-1.95,26.24-4.36,33.77-4.52c7.93-0.17,3.16,3.67-0.14,6.03" style="fill:none;stroke:#999;stroke-width:3" />
<path d="M1003.59,37.73c0.54,0.35,1.88,0.41,2.42,0.35c5.44-0.54,14.69-3,20.56-3.87c0.9-0.13,1.45,0.17,1.9,0.35" style="fill:none;stroke:#999;stroke-width:3" />
<path d="M1015.18,28.75c0.36,0.37,0.84,1.82,0.84,2.34c0,4.1-0.07,3.82-0.07,5.65c0,5.44,2.01,5.03,7.19,5.03c1.93,0,6.72-0.42,8.38-1.15" style="fill:none;stroke:black;stroke-width:3" />
<circle cx="1015.18" cy="28.75" r="5" stroke-width="0" fill="#FF2A00" opacity="0.7" />
<path d="M1147.74,44.45c0.52,0.3,2.27,0.58,3.3,0.5c7.21-0.57,22.42-2.6,28.75-3.24c0.72-0.07,1.75,0.12,3.37,0.63" style="fill:none;stroke:#999;stroke-width:3" />
<path d="M1162.6,15.75c0.44,1.15,0.71,2.29,0.77,4.59C1164.1399999999999,50.27,1160.96,83.22,1148.0,96.5" style="fill:none;stroke:#999;stroke-width:3" />
<path d="M1163.08,45.5c4.17,16,13.42,37,21.76,48.03c1.91,2.52,2.36,2.98,3.16,3.22" style="fill:none;stroke:#999;stroke-width:3" />
<path d="M1172.35,22.5c5.13,3.98,6.54,7.02,8.13,10.75" style="fill:none;stroke:#999;stroke-width:3" />
<path d="M1123.94,11.08c0.65,0.88,1.15,1.92,1.15,4.85c0,5.7-0.01,6.46-0.01,11.25" style="fill:none;stroke:#999;stroke-width:3" />
<path d="M1125.63,18.97c4.44-0.75,10.8-1.21,15.3-1.8c1.48-0.19,2.39,0.18,3.14,0.36" style="fill:none;stroke:#999;stroke-width:3" />
<path d="M1108.4099999999999,27.97c0.59,1.03,1.47,3.61,1.48,5.62C1110.0,58,1110.25,75,1099.2,94.42" style="fill:none;stroke:#999;stroke-width:3" />
<path d="M1109.58,30.35c8.79-1.95,26.24-4.36,33.77-4.52c7.93-0.17,3.16,3.67-0.14,6.03" style="fill:none;stroke:#999;stroke-width:3" />
<path d="M1112.5900000000001,37.73c0.54,0.35,1.88,0.41,2.42,0.35c5.44-0.54,14.69-3,20.56-3.87c0.9-0.13,1.45,0.17,1.9,0.35" style="fill:none;stroke:#999;stroke-width:3" />
<path d="M1124.1799999999998,28.75c0.36,0.37,0.84,1.82,0.84,2.34c0,4.1-0.07,3.82-0.07,5.65c0,5.44,2.01,5.03,7.19,5.03c1.93,0,6.72-0.42,8.38-1.15" style="fill:none;stroke:#999;stroke-width:3" />
<path d="M1115.29,49.18c0.7,0.23,1.98,0.29,2.68,0.23c7.19-0.63,14.79-1.66,21.31-2.52c1.15-0.15,1.86,0.11,2.44,0.23" style="fill:none;stroke:black;stroke-width:3" />
<circle cx="1115.29" cy="49.18" r="5" stroke-width="0" fill="#FF2A00" opacity="0.7" />
<path d="M1256.74,44.45c0.52,0.3,2.27,0.58,3.3,0.5c7.21-0.57,22.42-2.6,28.75-3.24c0.72-0.07,1.75,0.12,3.37,0.63" style="fill:none;stroke:#999;stroke-width:3" />
<path d="M1271.6,15.75c0.44,1.15,0.71,2.29,0.77,4.59C1273.1399999999999,50.27,1269.96,83.22,1257.0,96.5" style="fill:none;stroke:#999;stroke-width:3" />
<path d="M1272.08,45.5c4.17,16,13.42,37,21.76,48.03c1.91,2.52,2.36,2.98,3.16,3.22" style="fill:none;stroke:#999;stroke-width:3" />
<path d="M1281.35,22.5c5.13,3.98,6.54,7.02,8.13,10.75" style="fill:none;stroke:#999;stroke-width:3" />
<path d="M1232.94,11.08c0.65,0.88,1.15,1.92,1.15,4.85c0,5.7-0.01,6.46-0.01,11.25" style="fill:none;stroke:#999;stroke-width:3" />
<path d="M1234.63,18.97c4.44-0.75,10.8-1.21,15.3-1.8c1.48-0.19,2.39,0.18,3.14,0.36" style="fill:none;stroke:#999;stroke-width:3" />
<path d="M1217.4099999999999,27.97c0.59,1.03,1.47,3.61,1.48,5.62C1219.0,58,1219.25,75,1208.2,94.42" style="fill:none;stroke:#999;stroke-width:3" />
<path d="M1218.58,30.35c8.79-1.95,26.24-4.36,33.77-4.52c7.93-0.17,3.16,3.67-0.14,6.03" style="fill:none;stroke:#999;stroke-width:3" />
<path d="M1221.5900000000001,37.73c0.54,0.35,1.88,0.41,2.42,0.35c5.44-0.54,14.69-3,20.56-3.87c0.9-0.13,1.45,0.17,1.9,0.35" style="fill:none;stroke:#999;stroke-width:3" />
<path d="M1233.1799999999998,28.75c0.36,0.37,0.84,1.82,0.84,2.34c0,4.1-0.07,3.82-0.07,5.65c0,5.44,2.01,5.03,7.19,5.03c1.93,0,6.72-0.42,8.38-1.15" style="fill:none;stroke:#999;stroke-width:3" />
<path d="M1224.29,49.18c0.7,0.23,1.98,0.29,2.68,0.23c7.19-0.63,14.79-1.66,21.31-2.52c1.15-0.15,1.86,0.11,2.44,0.23" style="fill:none;stroke:#999;stroke-width:3" />
<path d="M1226.17,55.29c0.23,0.18,0.47,0.33,0.57,0.56c0.8,1.79,1.76,6.42,2.3,9.64" style="fill:none;stroke:black;stroke-width:3" />
<circle cx="1226.17" cy="55.29" r="5" stroke-width="0" fill="#FF2A00" opacity="0.7" />
<path d="M1365.74,44.45c0.52,0.3,2.27,0.58,3.3,0.5c7.21-0.57,22.42-2.6,28.75-3.24c0.72-0.07,1.75,0.12,3.37,0.63" style="fill:none;stroke:#999;stroke-width:3" />
<path d="M1380.6,15.75c0.44,1.15,0.71,2.29,0.77,4.59C1382.1399999999999,50.27,1378.96,83.22,1366.0,96.5" style="fill:none;stroke:#999;stroke-width:3" />
<path d="M1381.08,45.5c4.17,16,13.42,37,21.76,48.03c1.91,2.52,2.36,2.98,3.16,3.22" style="fill:none;stroke:#999;stroke-width:3" />
<path d="M1390.35,22.5c5.13,3.98,6.54,7.02,8.13,10.75" style="fill:none;stroke:#999;stroke-width:3" />
<path d="M1341.94,11.08c0.65,0.88,1.15,1.92,1.15,4.85c0,5.7-0.01,6.46-0.01,11.25" style="fill:none;stroke:#999;stroke-width:3" />
<path d="M1343.63,18.97c4.44-0.75,10.8-1.21,15.3-1.8c1.48-0.19,2.39,0.18,3.14,0.36" style="fill:none;stroke:#999;stroke-width:3" />
<path d="M1326.4099999999999,27.97c0.59,1.03,1.47,3.61,1.48,5.62C1328.0,58,1328.25,75,1317.2,94.42" style="fill:none;stroke:#999;stroke-width:3" />
<path d="M1327.58,30.35c8.79-1.95,26.24-4.36,33.77-4.52c7.93-0.17,3.16,3.67-0.14,6.03" style="fill:none;stroke:#999;stroke-width:3" />
<path d="M1330.5900000000001,37.73c0.54,0.35,1.88,0.41,2.42,0.35c5.44-0.54,14.69-3,20.56-3.87c0.9-0.13,1.45,0.17,1.9,0.35" style="fill:none;stroke:#999;stroke-width:3" />
<path d="M1342.1799999999998,28.75c0.36,0.37,0.84,1.82,0.84,2.34c0,4.1-0.07,3.82-0.07,5.65c0,5.44,2.01,5.03,7.19,5.03c1.93,0,6.72-0.42,8.38-1.15" style="fill:none;stroke:#999;stroke-width:3" />
<path d="M1333.29,49.18c0.7,0.23,1.98,0.29,2.68,0.23c7.19-0.63,14.79-1.66,21.31-2.52c1.15-0.15,1.86,0.11,2.44,0.23" style="fill:none;stroke:#999;stroke-width:3" />
<path d="M1335.17,55.29c0.23,0.18,0.47,0.33,0.57,0.56c0.8,1.79,1.76,6.42,2.3,9.64" style="fill:none;stroke:#999;stroke-width:3" />
<path d="M1336.35,56.2c5.65-0.75,16.57-2.54,19.48-2.79c1.07-0.09,1.71,0.93,1.55,1.48c-0.63,2.25-1.34,4.89-2.19,7.34" style="fill:none;stroke:black;stroke-width:3" />
<circle cx="1336.35" cy="56.2" r="5" stroke-width="0" fill="#FF2A00" opacity="0.7" />
<path d="M1474.74,44.45c0.52,0.3,2.27,0.58,3.3,0.5c7.21-0.57,22.42-2.6,28.75-3.24c0.72-0.07,1.75,0.12,3.37,0.63" style="fill:none;stroke:#999;stroke-width:3" />
<path d="M1489.6,15.75c0.44,1.15,0.71,2.29,0.77,4.59C1491.1399999999999,50.27,1487.96,83.22,1475.0,96.5" style="fill:none;stroke:#999;stroke-width:3" />
<path d="M1490.08,45.5c4.17,16,13.42,37,21.76,48.03c1.91,2.52,2.36,2.98,3.16,3.22" style="fill:none;stroke:#999;stroke-width:3" />
<path d="M1499.35,22.5c5.13,3.98,6.54,7.02,8.13,10.75" style="fill:none;stroke:#999;stroke-width:3" />
<path d="M1450.94,11.08c0.65,0.88,1.15,1.92,1.15,4.85c0,5.7-0.01,6.46-0.01,11.25" style="fill:none;stroke:#999;stroke-width:3" />
<path d="M1452.63,18.97c4.44-0.75,10.8-1.21,15.3-1.8c1.48-0.19,2.39,0.18,3.14,0.36" style="fill:none;stroke:#999;stroke-width:3" />
<path d="M1435.4099999999999,27.97c0.59,1.03,1.47,3.61,1.48,5.62C1437.0,58,1437.25,75,1426.2,94.42" style="fill:none;stroke:#999;stroke-width:3" />
<path d="M1436.58,30.35c8.79-1.95,26.24-4.36,33.77-4.52c7.93-0.17,3.16,3.67-0.14,6.03" style="fill:none;stroke:#999;stroke-width:3" />
<path d="M1439.5900000000001,37.73c0.54,0.35,1.88,0.41,2.42,0.35c5.44-0.54,14.69-3,20.56-3.87c0.9-0.13,1.45,0.17,1.9,0.35" style="fill:none;stroke:#999;stroke-width:3" />
<path d="M1451.1799999999998,28.75c0.36,0.37,0.84,1.82,0.84,2.34c0,4.1-0.07,3.82-0.07,5.65c0,5.44,2.01,5.03,7.19,5.03c1.93,0,6.72-0.42,8.38-1.15" style="fill:none;stroke:#999;stroke-width:3" />
<path d="M1442.29,49.18c0.7,0.23,1.98,0.29,2.68,0.23c7.19-0.63,14.79-1.66,21.31-2.52c1.15-0.15,1.86,0.11,2.44,0.23" style="fill:none;stroke:#999;stroke-width:3" />
<path d="M1444.17,55.29c0.23,0.18,0.47,0.33,0.57,0.56c0.8,1.79,1.76,6.42,2.3,9.64" style="fill:none;stroke:#999;stroke-width:3" />
<path d="M1445.35,56.2c5.65-0.75,16.57-2.54,19.48-2.79c1.07-0.09,1.71,0.93,1.55,1.48c-0.63,2.25-1.34,4.89-2.19,7.34" style="fill:none;stroke:#999;stroke-width:3" />
<path d="M1447.28,64.6c3.42-0.29,14.42-1.8,18.77-2.09" style="fill:none;stroke:black;stroke-width:3" />
<circle cx="1447.28" cy="64.6" r="5" stroke-width="0" fill="#FF2A00" opacity="0.7" />
<path d="M1583.74,44.45c0.52,0.3,2.27,0.58,3.3,0.5c7.21-0.57,22.42-2.6,28.75-3.24c0.72-0.07,1.75,0.12,3.37,0.63" style="fill:none;stroke:#999;stroke-width:3" />
<path d="M1598.6,15.75c0.44,1.15,0.71,2.29,0.77,4.59C1600.1399999999999,50.27,1596.96,83.22,1584.0,96.5" style="fill:none;stroke:#999;stroke-width:3" />
<path d="M1599.08,45.5c4.17,16,13.42,37,21.76,48.03c1.91,2.52,2.36,2.98,3.16,3.22" style="fill:none;stroke:#999;stroke-width:3" />
<path d="M1608.35,22.5c5.13,3.98,6.54,7.02,8.13,10.75" style="fill:none;stroke:#999;stroke-width:3" />
<path d="M1559.94,11.08c0.65,0.88,1.15,1.92,1.15,4.85c0,5.7-0.01,6.46-0.01,11.25" style="fill:none;stroke:#999;stroke-width:3" />
<path d="M1561.63,18.97c4.44-0.75,10.8-1.21,15.3-1.8c1.48-0.19,2.39,0.18,3.14,0.36" style="fill:none;stroke:#999;stroke-width:3" />
<path d="M1544.4099999999999,27.97c0.59,1.03,1.47,3.61,1.48,5.62C1546.0,58,1546.25,75,1535.2,94.42" style="fill:none;stroke:#999;stroke-width:3" />
<path d="M1545.58,30.35c8.79-1.95,26.24-4.36,33.77-4.52c7.93-0.17,3.16,3.67-0.14,6.03" style="fill:none;stroke:#999;stroke-width:3" />
<path d="M1548.5900000000001,37.73c0.54,0.35,1.88,0.41,2.42,0.35c5.44-0.54,14.69-3,20.56-3.87c0.9-0.13,1.45,0.17,1.9,0.35" style="fill:none;stroke:#999;stroke-width:3" />
<path d="M1560.1799999999998,28.75c0.36,0.37,0.84,1.82,0.84,2.34c0,4.1-0.07,3.82-0.07,5.65c0,5.44,2.01,5.03,7.19,5.03c1.93,0,6.72-0.42,8.38-1.15" style="fill:none;stroke:#999;stroke-width:3" />
<path d="M1551.29,49.18c0.7,0.23,1.98,0.29,2.68,0.23c7.19-0.63,14.79-1.66,21.31-2.52c1.15-0.15,1.86,0.11,2.44,0.23" style="fill:none;stroke:#999;stroke-width:3" />
<path d="M1553.17,55.29c0.23,0.18,0.47,0.33,0.57,0.56c0.8,1.79,1.76,6.42,2.3,9.64" style="fill:none;stroke:#999;stroke-width:3" />
<path d="M1554.35,56.2c5.65-0.75,16.57-2.54,19.48-2.79c1.07-0.09,1.71,0.93,1.55,1.48c-0.63,2.25-1.34,4.89-2.19,7.34" style="fill:none;stroke:#999;stroke-width:3" />
<path d="M1556.28,64.6c3.42-0.29,14.42-1.8,18.77-2.09" style="fill:none;stroke:#999;stroke-width:3" />
<path d="M1549.81,69.89c0.31,0.63,0.52,1.65,0.42,2.79c-0.1,1.14,0.1,22.66,0.1,24.56" style="fill:none;stroke:black;stroke-width:3" />
<circle cx="1549.81" cy="69.89" r="5" stroke-width="0" fill="#FF2A00" opacity="0.7" />
<path d="M1692.74,44.45c0.52,0.3,2.27,0.58,3.3,0.5c7.21-0.57,22.42-2.6,28.75-3.24c0.72-0.07,1.75,0.12,3.37,0.63" style="fill:none;stroke:#999;stroke-width:3" />
<path d="M1707.6,15.75c0.44,1.15,0.71,2.29,0.77,4.59C1709.1399999999999,50.27,1705.96,83.22,1693.0,96.5" style="fill:none;stroke:#999;stroke-width:3" />
<path d="M1708.08,45.5c4.17,16,13.42,37,21.76,48.03c1.91,2.52,2.36,2.98,3.16,3.22" style="fill:none;stroke:#999;stroke-width:3" />
<path d="M1717.35,22.5c5.13,3.98,6.54,7.02,8.13,10.75" style="fill:none;stroke:#999;stroke-width:3" />
<path d="M1668.94,11.08c0.65,0.88,1.15,1.92,1.15,4.85c0,5.7-0.01,6.46-0.01,11.25" style="fill:none;stroke:#999;stroke-width:3" />
<path d="M1670.63,18.97c4.44-0.75,10.8-1.21,15.3-1.8c1.48-0.19,2.39,0.18,3.14,0.36" style="fill:none;stroke:#999;stroke-width:3" />
<path d="M1653.4099999999999,27.97c0.59,1.03,1.47,3.61,1.48,5.62C1655.0,58,1655.25,75,1644.2,94.42" style="fill:none;stroke:#999;stroke-width:3" />
<path d="M1654.58,30.35c8.79-1.95,26.24-4.36,33.77-4.52c7.93-0.17,3.16,3.67-0.14,6.03" style="fill:none;stroke:#999;stroke-width:3" />
<path d="M1657.5900000000001,37.73c0.54,0.35,1.88,0.41,2.42,0.35c5.44-0.54,14.69-3,20.56-3.87c0.9-0.13,1.45,0.17,1.9,0.35" style="fill:none;stroke:#999;stroke-width:3" />
<path d="M1669.1799999999998,28.75c0.36,0.37,0.84,1.82,0.84,2.34c0,4.1-0.07,3.82-0.07,5.65c0,5.44,2.01,5.03,7.19,5.03c1.93,0,6.72-0.42,8.38-1.15" style="fill:none;stroke:#999;stroke-width:3" />
<path d="M1660.29,49.18c0.7,0.23,1.98,0.29,2.68,0.23c7.19-0.63,14.79-1.66,21.31-2.52c1.15-0.15,1.86,0.11,2.44,0.23" style="fill:none;stroke:#999;stroke-width:3" />
<path d="M1662.17,55.29c0.23,0.18,0.47,0.33,0.57,0.56c0.8,1.79,1.76,6.42,2.3,9.64" style="fill:none;stroke:#999;stroke-width:3" />
<path d="M1663.35,56.2c5.65-0.75,16.57-2.54,19.48-2.79c1.07-0.09,1.71,0.93,1.55,1.48c-0.63,2.25-1.34,4.89-2.19,7.34" style="fill:none;stroke:#999;stroke-width:3" />
<path d="M1665.28,64.6c3.42-0.29,14.42-1.8,18.77-2.09" style="fill:none;stroke:#999;stroke-width:3" />
<path d="M1658.81,69.89c0.31,0.63,0.52,1.65,0.42,2.79c-0.1,1.14,0.1,22.66,0.1,24.56" style="fill:none;stroke:#999;stroke-width:3" />
<path d="M1659.23,71.16c3.97-0.51,26.41-3.52,27.19-3.7c1.25-0.28,2.03,0.59,2.03,2.39c0,1.97-0.31,21.3-0.31,24.22c0,4.7-3.77,1.41-5.03-0.24" style="fill:none;stroke:black;stroke-width:3" />
<circle cx="1659.23" cy="71.16" r="5" stroke-width="0" fill="#FF2A00" opacity="0.7" />
<path d="M1801.74,44.45c0.52,0.3,2.27,0.58,3.3,0.5c7.21-0.57,22.42-2.6,28.75-3.24c0.72-0.07,1.75,0.12,3.37,0.63" style="fill:none;stroke:#999;stroke-width:3" />
<path d="M1816.6,15.75c0.44,1.15,0.71,2.29,0.77,4.59C1818.1399999999999,50.27,1814.96,83.22,1802.0,96.5" style="fill:none;stroke:#999;stroke-width:3" />
<path d="M1817.08,45.5c4.17,16,13.42,37,21.76,48.03c1.91,2.52,2.36,2.98,3.16,3.22" style="fill:none;stroke:#999;stroke-width:3" />
<path d="M1826.35,22.5c5.13,3.98,6.54,7.02,8.13,10.75" style="fill:none;stroke:#999;stroke-width:3" />
<path d="M1777.94,11.08c0.65,0.88,1.15,1.92,1.15,4.85c0,5.7-0.01,6.46-0.01,11.25" style="fill:none;stroke:#999;stroke-width:3" />
<path d="M1779.63,18.97c4.44-0.75,10.8-1.21,15.3-1.8c1.48-0.19,2.39,0.18,3.14,0.36" style="fill:none;stroke:#999;stroke-width:3" />
<path d="M1762.4099999999999,27.97c0.59,1.03,1.47,3.61,1.48,5.62C1764.0,58,1764.25,75,1753.2,94.42" style="fill:none;stroke:#999;stroke-width:3" />
<path d="M1763.58,30.35c8.79-1.95,26.24-4.36,33.77-4.52c7.93-0.17,3.16,3.67-0.14,6.03" style="fill:none;stroke:#999;stroke-width:3" />
<path d="M1766.5900000000001,37.73c0.54,0.35,1.88,0.41,2.42,0.35c5.44-0.54,14.69-3,20.56-3.87c0.9-0.13,1.45,0.17,1.9,0.35" style="fill:none;stroke:#999;stroke-width:3" />
<path d="M1778.1799999999998,28.75c0.36,0.37,0.84,1.82,0.84,2.34c0,4.1-0.07,3.82-0.07,5.65c0,5.44,2.01,5.03,7.19,5.03c1.93,0,6.72-0.42,8.38-1.15" style="fill:none;stroke:#999;stroke-width:3" />
<path d="M1769.29,49.18c0.7,0.23,1.98,0.29,2.68,0.23c7.19-0.63,14.79-1.66,21.31-2.52c1.15-0.15,1.86,0.11,2.44,0.23" style="fill:none;stroke:#999;stroke-width:3" />
<path d="M1771.17,55.29c0.23,0.18,0.47,0.33,0.57,0.56c0.8,1.79,1.76,6.42,2.3,9.64" style="fill:none;stroke:#999;stroke-width:3" />
<path d="M1772.35,56.2c5.65-0.75,16.57-2.54,19.48-2.79c1.07-0.09,1.71,0.93,1.55,1.48c-0.63,2.25-1.34,4.89-2.19,7.34" style="fill:none;stroke:#999;stroke-width:3" />
<path d="M1774.28,64.6c3.42-0.29,14.42-1.8,18.77-2.09" style="fill:none;stroke:#999;stroke-width:3" />
<path d="M1767.81,69.89c0.31,0.63,0.52,1.65,0.42,2.79c-0.1,1.14,0.1,22.66,0.1,24.56" style="fill:none;stroke:#999;stroke-width:3" />
<path d="M1768.23,71.16c3.97-0.51,26.41-3.52,27.19-3.7c1.25-0.28,2.03,0.59,2.03,2.39c0,1.97-0.31,21.3-0.31,24.22c0,4.7-3.77,1.41-5.03-0.24" style="fill:none;stroke:#999;stroke-width:3" />
<path d="M1778.66,71.52c0.22,0.58,0.25,0.63,0.19,0.98c-0.43,2.63-2.03,6.39-6.26,9.13" style="fill:none;stroke:black;stroke-width:3" />
<circle cx="1778.66" cy="71.52" r="5" stroke-width="0" fill="#FF2A00" opacity="0.7" />
<path d="M1910.74,44.45c0.52,0.3,2.27,0.58,3.3,0.5c7.21-0.57,22.42-2.6,28.75-3.24c0.72-0.07,1.75,0.12,3.37,0.63" style="fill:none;stroke:#999;stroke-width:3" />
<path d="M1925.6,15.75c0.44,1.15,0.71,2.29,0.77,4.59C1927.1399999999999,50.27,1923.96,83.22,1911.0,96.5" style="fill:none;stroke:#999;stroke-width:3" />
<path d="M1926.08,45.5c4.17,16,13.42,37,21.76,48.03c1.91,2.52,2.36,2.98,3.16,3.22" style="fill:none;stroke:#999;stroke-width:3" />
<path d="M1935.35,22.5c5.13,3.98,6.54,7.02,8.13,10.75" style="fill:none;stroke:#999;stroke-width:3" />
<path d="M1886.94,11.08c0.65,0.88,1.15,1.92,1.15,4.85c0,5.7-0.01,6.46-0.01,11.25" style="fill:none;stroke:#999;stroke-width:3" />
<path d="M1888.63,18.97c4.44-0.75,10.8-1.21,15.3-1.8c1.48-0.19,2.39,0.18,3.14,0.36" style="fill:none;stroke:#999;stroke-width:3" />
<path d="M1871.4099999999999,27.97c0.59,1.03,1.47,3.61,1.48,5.62C1873.0,58,1873.25,75,1862.2,94.42" style="fill:none;stroke:#999;stroke-width:3" />
<path d="M1872.58,30.35c8.79-1.95,26.24-4.36,33.77-4.52c7.93-0.17,3.16,3.67-0.14,6.03" style="fill:none;stroke:#999;stroke-width:3" />
<path d="M1875.5900000000001,37.73c0.54,0.35,1.88,0.41,2.42,0.35c5.44-0.54,14.69-3,20.56-3.87c0.9-0.13,1.45,0.17,1.9,0.35" style="fill:none;stroke:#999;stroke-width:3" />
<path d="M1887.1799999999998,28.75c0.36,0.37,0.84,1.82,0.84,2.34c0,4.1-0.07,3.82-0.07,5.65c0,5.44,2.01,5.03,7.19,5.03c1.93,0,6.72-0.42,8.38-1.15" style="fill:none;stroke:#999;stroke-width:3" />
<path d="M1878.29,49.18c0.7,0.23,1.98,0.29,2.68,0.23c7.19-0.63,14.79-1.66,21.31-2.52c1.15-0.15,1.86,0.11,2.44,0.23" style="fill:none;stroke:#999;stroke-width:3" />
<path d="M1880.17,55.29c0.23,0.18,0.47,0.33,0.57,0.56c0.8,1.79,1.76,6.42,2.3,9.64" style="fill:none;stroke:#999;stroke-width:3" />
<path d="M1881.35,56.2c5.65-0.75,16.57-2.54,19.48-2.79c1.07-0.09,1.71,0.93,1.55,1.48c-0.63,2.25-1.34,4.89-2.19,7.34" style="fill:none;stroke:#999;stroke-width:3" />
<path d="M1883.28,64.6c3.42-0.29,14.42-1.8,18.77-2.09" style="fill:none;stroke:#999;stroke-width:3" />
<path d="M1876.81,69.89c0.31,0.63,0.52,1.65,0.42,2.79c-0.1,1.14,0.1,22.66,0.1,24.56" style="fill:none;stroke:#999;stroke-width:3" />
<path d="M1877.23,71.16c3.97-0.51,26.41-3.52,27.19-3.7c1.25-0.28,2.03,0.59,2.03,2.39c0,1.97-0.31,21.3-0.31,24.22c0,4.7-3.77,1.41-5.03-0.24" style="fill:none;stroke:#999;stroke-width:3" />
<path d="M1887.66,71.52c0.22,0.58,0.25,0.63,0.19,0.98c-0.43,2.63-2.03,6.39-6.26,9.13" style="fill:none;stroke:#999;stroke-width:3" />
<path d="M1894.47,70c0.21,0.45,0.38,0.97,0.39,1.66c0.06,3.07,0.04,2.77,0.04,3.9c0,2.62,2.15,2.32,4.27,2.32c2.24,0,3.71-0.34,4.03-0.53" style="fill:none;stroke:black;stroke-width:3" />
<circle cx="1894.47" cy="70.0" r="5" stroke-width="0" fill="#FF2A00" opacity="0.7" />
<path d="M2019.74,44.45c0.52,0.3,2.27,0.58,3.3,0.5c7.21-0.57,22.42-2.6,28.75-3.24c0.72-0.07,1.75,0.12,3.37,0.63" style="fill:none;stroke:#999;stroke-width:3" />
<path d="M2034.6,15.75c0.44,1.15,0.71,2.29,0.77,4.59C2036.1399999999999,50.27,2032.96,83.22,2020.0,96.5" style="fill:none;stroke:#999;stroke-width:3" />
<path d="M2035.08,45.5c4.17,16,13.42,37,21.76,48.03c1.91,2.52,2.36,2.98,3.16,3.22" style="fill:none;stroke:#999;stroke-width:3" />
<path d="M2044.35,22.5c5.13,3.98,6.54,7.02,8.13,10.75" style="fill:none;stroke:#999;stroke-width:3" />
<path d="M1995.94,11.08c0.65,0.88,1.15,1.92,1.15,4.85c0,5.7-0.01,6.46-0.01,11.25" style="fill:none;stroke:#999;stroke-width:3" />
<path d="M1997.63,18.97c4.44-0.75,10.8-1.21,15.3-1.8c1.48-0.19,2.39,0.18,3.14,0.36" style="fill:none;stroke:#999;stroke-width:3" />
<path d="M1980.4099999999999,27.97c0.59,1.03,1.47,3.61,1.48,5.62C1982.0,58,1982.25,75,1971.2,94.42" style="fill:none;stroke:#999;stroke-width:3" />
<path d="M1981.58,30.35c8.79-1.95,26.24-4.36,33.77-4.52c7.93-0.17,3.16,3.67-0.14,6.03" style="fill:none;stroke:#999;stroke-width:3" />
<path d="M1984.5900000000001,37.73c0.54,0.35,1.88,0.41,2.42,0.35c5.44-0.54,14.69-3,20.56-3.87c0.9-0.13,1.45,0.17,1.9,0.35" style="fill:none;stroke:#999;stroke-width:3" />
<path d="M1996.1799999999998,28.75c0.36,0.37,0.84,1.82,0.84,2.34c0,4.1-0.07,3.82-0.07,5.65c0,5.44,2.01,5.03,7.19,5.03c1.93,0,6.72-0.42,8.38-1.15" style="fill:none;stroke:#999;stroke-width:3" />
<path d="M1987.29,49.18c0.7,0.23,1.98,0.29,2.68,0.23c7.19-0.63,14.79-1.66,21.31-2.52c1.15-0.15,1.86,0.11,2.44,0.23" style="fill:none;stroke:#999;stroke-width:3" />
<path d="M1989.17,55.29c0.23,0.18,0.47,0.33,0.57,0.56c0.8,1.79,1.76,6.42,2.3,9.64" style="fill:none;stroke:#999;stroke-width:3" />
<path d="M1990.35,56.2c5.65-0.75,16.57-2.54,19.48-2.79c1.07-0.09,1.71,0.93,1.55,1.48c-0.63,2.25-1.34,4.89-2.19,7.34" style="fill:none;stroke:#999;stroke-width:3" />
<path d="M1992.28,64.6c3.42-0.29,14.42-1.8,18.77-2.09" style="fill:none;stroke:#999;stroke-width:3" />
<path d="M1985.81,69.89c0.31,0.63,0.52,1.65,0.42,2.79c-0.1,1.14,0.1,22.66,0.1,24.56" style="fill:none;stroke:#999;stroke-width:3" />
<path d="M1986.23,71.16c3.97-0.51,26.41-3.52,27.19-3.7c1.25-0.28,2.03,0.59,2.03,2.39c0,1.97-0.31,21.3-0.31,24.22c0,4.7-3.77,1.41-5.03-0.24" style="fill:none;stroke:#999;stroke-width:3" />
<path d="M1996.66,71.52c0.22,0.58,0.25,0.63,0.19,0.98c-0.43,2.63-2.03,6.39-6.26,9.13" style="fill:none;stroke:#999;stroke-width:3" />
<path d="M2003.47,70c0.21,0.45,0.38,0.97,0.39,1.66c0.06,3.07,0.04,2.77,0.04,3.9c0,2.62,2.15,2.32,4.27,2.32c2.24,0,3.71-0.34,4.03-0.53" style="fill:none;stroke:#999;stroke-width:3" />
<path d="M1992.45,83.65c0.2,0.08,0.72,0.22,1.24,0.25c1.43,0.08,9.3-1.11,13.58-1.61c0.62-0.07,0.78-0.1,1.17,0" style="fill:none;stroke:black;stroke-width:3" />
<circle cx="1992.45" cy="83.65" r="5" stroke-width="0" fill="#FF2A00" opacity="0.7" />
<path d="M2128.74,44.45c0.52,0.3,2.27,0.58,3.3,0.5c7.21-0.57,22.42-2.6,28.75-3.24c0.72-0.07,1.75,0.12,3.37,0.63" style="fill:none;stroke:#999;stroke-width:3" />
<path d="M2143.6,15.75c0.44,1.15,0.71,2.29,0.77,4.59C2145.14,50.27,2141.96,83.22,2129.0,96.5" style="fill:none;stroke:#999;stroke-width:3" />
<path d="M2144.08,45.5c4.17,16,13.42,37,21.76,48.03c1.91,2.52,2.36,2.98,3.16,3.22" style="fill:none;stroke:#999;stroke-width:3" />
<path d="M2153.35,22.5c5.13,3.98,6.54,7.02,8.13,10.75" style="fill:none;stroke:#999;stroke-width:3" />
<path d="M2104.94,11.08c0.65,0.88,1.15,1.92,1.15,4.85c0,5.7-0.01,6.46-0.01,11.25" style="fill:none;stroke:#999;stroke-width:3" />
<path d="M2106.63,18.97c4.44-0.75,10.8-1.21,15.3-1.8c1.48-0.19,2.39,0.18,3.14,0.36" style="fill:none;stroke:#999;stroke-width:3" />
<path d="M2089.41,27.97c0.59,1.03,1.47,3.61,1.48,5.62C2091.0,58,2091.25,75,2080.2,94.42" style="fill:none;stroke:#999;stroke-width:3" />
<path d="M2090.58,30.35c8.79-1.95,26.24-4.36,33.77-4.52c7.93-0.17,3.16,3.67-0.14,6.03" style="fill:none;stroke:#999;stroke-width:3" />
<path d="M2093.59,37.73c0.54,0.35,1.88,0.41,2.42,0.35c5.44-0.54,14.69-3,20.56-3.87c0.9-0.13,1.45,0.17,1.9,0.35" style="fill:none;stroke:#999;stroke-width:3" />
<path d="M2105.18,28.75c0.36,0.37,0.84,1.82,0.84,2.34c0,4.1-0.07,3.82-0.07,5.65c0,5.44,2.01,5.03,7.19,5.03c1.93,0,6.72-0.42,8.38-1.15" style="fill:none;stroke:#999;stroke-width:3" />
<path d="M2096.29,49.18c0.7,0.23,1.98,0.29,2.68,0.23c7.19-0.63,14.79-1.66,21.31-2.52c1.15-0.15,1.86,0.11,2.44,0.23" style="fill:none;stroke:#999;stroke-width:3" />
<path d="M2098.17,55.29c0.23,0.18,0.47,0.33,0.57,0.56c0.8,1.79,1.76,6.42,2.3,9.64" style="fill:none;stroke:#999;stroke-width:3" />
<path d="M2099.35,56.2c5.65-0.75,16.57-2.54,19.48-2.79c1.07-0.09,1.71,0.93,1.55,1.48c-0.63,2.25-1.34,4.89-2.19,7.34" style="fill:none;stroke:#999;stroke-width:3" />
<path d="M2101.2799999999997,64.6c3.42-0.29,14.42-1.8,18.77-2.09" style="fill:none;stroke:#999;stroke-width:3" />
<path d="M2094.81,69.89c0.31,0.63,0.52,1.65,0.42,2.79c-0.1,1.14,0.1,22.66,0.1,24.56" style="fill:none;stroke:#999;stroke-width:3" />
<path d="M2095.23,71.16c3.97-0.51,26.41-3.52,27.19-3.7c1.25-0.28,2.03,0.59,2.03,2.39c0,1.97-0.31,21.3-0.31,24.22c0,4.7-3.77,1.41-5.03-0.24" style="fill:none;stroke:#999;stroke-width:3" />
<path d="M2105.66,71.52c0.22,0.58,0.25,0.63,0.19,0.98c-0.43,2.63-2.03,6.39-6.26,9.13" style="fill:none;stroke:#999;stroke-width:3" />
<path d="M2112.4700000000003,70c0.21,0.45,0.38,0.97,0.39,1.66c0.06,3.07,0.04,2.77,0.04,3.9c0,2.62,2.15,2.32,4.27,2.32c2.24,0,3.71-0.34,4.03-0.53" style="fill:none;stroke:#999;stroke-width:3" />
<path d="M2101.45,83.65c0.2,0.08,0.72,0.22,1.24,0.25c1.43,0.08,9.3-1.11,13.58-1.61c0.62-0.07,0.78-0.1,1.17,0" style="fill:none;stroke:#999;stroke-width:3" />
<path d="M2108.67,84.04c0.43,0.56,0.72,0.9,0.72,1.45c0,2.15-0.11,7.21-0.11,12.07" style="fill:none;stroke:black;stroke-width:3" />
<circle cx="2108.67" cy="84.04" r="5" stroke-width="0" fill="#FF2A00" opacity="0.7" />
</svg>