<svg width="763px" height="109px" viewBox="0 0 763px 109px" xmlns="http://www.w3.org/2000/svg" xmlns:xlink="http://www.w3.org/1999/xlink" xml:space="preserve" version="1.1"  baseProfile="full">
<line x1="1" y1="1" x2="762" y2="1" style="stroke:#ddd;stroke-width:2" />
<line x1="1" y1="1" x2="1" y2="108" style="stroke:#ddd;stroke-width:2" />
<line x1="1" y1="108" x2="762" y2="108" style="stroke:#ddd;stroke-width:2" />
<line x1="762" y1="1" x2="762" y2="108" style="stroke:#ddd;stroke-width:2" />
<line x1="109" y1="1" x2="109" y2="108" style="stroke:#ddd;stroke-width:2" />
<line x1="218" y1="1" x2="218" y2="108" style="stroke:#ddd;stroke-width:2" />
<line x1="327" y1="1" x2="327" y2="108" style="stroke:#ddd;stroke-width:2" />
<line x1="436" y1="1" x2="436" y2="108" style="stroke:#ddd;stroke-width:2" />
<line x1="545" y1="1" x2="545" y2="108" style="stroke:#ddd;stroke-width:2" />
<line x1="654" y1="1" x2="654" y2="108" style="stroke:#ddd;stroke-width:2" />
<line x1="1" y1="54" x2="762" y2="54" style="stroke:#ddd;stroke-width:2;stroke-dasharray:3 3" />
<line x1="55" y1="1" x2="55" y2="108" style="stroke:#ddd;stroke-width:2;stroke-dasharray:3 3" />
<line x1="164" y1="1" x2="164" y2="108" style="stroke:#ddd;stroke-width:2;stroke-dasharray:3 3" />
<line x1="273" y1="1" x2="273" y2="108" style="stroke:#ddd;stroke-width:2;stroke-dasharray:3 3" />
<line x1="382" y1="1" x2="382" y2="108" style="stroke:#ddd;stroke-width:2;stroke-dasharray:3 3" />
<line x1="491" y1="1" x2="491" y2="108" style="stroke:#ddd;stroke-width:2;stroke-dasharray:3 3" />
<line x1="600" y1="1" x2="600" y2="108" style="stroke:#ddd;stroke-width:2;stroke-dasharray:3 3" />
<line x1="709" y1="1" x2="709" y2="108" style="stroke:#ddd;stroke-width:2;stroke-dasharray:3 3" />
<path d="M84.6,11.42c0.09,0.41-0.68,2.57-1.17,3.01c-3.76,3.36-13.31,8.9-29.98,13.57" style="fill:none;stroke:black;stroke-width:3" />
<circle cx="84.6" cy="11.42" r="5" stroke-width="0" fill="#FF2A00" opacity="0.7" />
<path d="M193.6,11.42c0.09,0.41-0.68,2.57-1.17,3.01c-3.76,3.36-13.31,8.9-29.98,13.57" style="fill:none;stroke:#999;stroke-width:3" />
<path d="M157.93,46.45c0.98,0.39,3.42,0.48,4.39,0.39c11.3-1.08,22.2-2.49,41.08-3.08c1.63-0.05,2.61,0.18,3.42,0.38" style="fill:none;stroke:black;stroke-width:3" />
<circle cx="157.93" cy="46.45" r="5" stroke-width="0" fill="#FF2A00" opacity="0.7" />
<path d="M302.6,11.42c0.09,0.41-0.68,2.57-1.17,3.01c-3.76,3.36-13.31,8.9-29.98,13.57" style="fill:none;stroke:#999;stroke-width:3" />
<path d="M266.93,46.45c0.98,0.39,3.42,0.48,4.39,0.39c11.3-1.08,22.2-2.49,41.08-3.08c1.63-0.05,2.61,0.18,3.42,0.38" style="fill:none;stroke:#999;stroke-width:3" />
<path d="M287.61,25.75c0.49,0.43,1.52,3.24,1.62,4.1c0.1,0.86-0.06,52.25-0.16,57.65" style="fill:none;stroke:black;stroke-width:3" />
<circle cx="287.61" cy="25.75" r="5" stroke-width="0" fill="#FF2A00" opacity="0.7" />
<path d="M411.6,11.42c0.09,0.41-0.68,2.57-1.17,3.01c-3.76,3.36-13.31,8.9-29.98,13.57" style="fill:none;stroke:#999;stroke-width:3" />
<path d="M375.93,46.45c0.98,0.39,3.42,0.48,4.39,0.39c11.3-1.08,22.2-2.49,41.08-3.08c1.63-0.05,2.61,0.18,3.42,0.38" style="fill:none;stroke:#999;stroke-width:3" />
<path d="M396.61,25.75c0.49,0.43,1.52,3.24,1.62,4.1c0.1,0.86-0.06,52.25-0.16,57.65" style="fill:none;stroke:#999;stroke-width:3" />
<path d="M338.55,19.25c1.12,0.57,3.17,0.7,4.28,0.57c7.42-0.82,21.32-1.14,28.29-1.39c1.86-0.07,2.98,0.27,3.91,0.56" style="fill:none;stroke:black;stroke-width:3" />
<circle cx="338.55" cy="19.25" r="5" stroke-width="0" fill="#FF2A00" opacity="0.7" />
<path d="M520.6,11.42c0.09,0.41-0.68,2.57-1.17,3.01c-3.76,3.36-13.31,8.9-29.98,13.57" style="fill:none;stroke:#999;stroke-width:3" />
<path d="M484.93,46.45c0.98,0.39,3.42,0.48,4.39,0.39c11.3-1.08,22.2-2.49,41.08-3.08c1.63-0.05,2.61,0.18,3.42,0.38" style="fill:none;stroke:#999;stroke-width:3" />
<path d="M505.61,25.75c0.49,0.43,1.52,3.24,1.62,4.1c0.1,0.86-0.06,52.25-0.16,57.65" style="fill:none;stroke:#999;stroke-width:3" />
<path d="M447.55,19.25c1.12,0.57,3.17,0.7,4.28,0.57c7.42-0.82,21.32-1.14,28.29-1.39c1.86-0.07,2.98,0.27,3.91,0.56" style="fill:none;stroke:#999;stroke-width:3" />
<path d="M460.42,22.25c0.76,0.5,1.54,2.76,1.36,3.75C460.33,33.75,453.0,78.75,451.0,86.98c-0.42,1.74,1.06,2.02,2.52,1.17c5.54-3.23,11.84-6.33,17.49-9.15" style="fill:none;stroke:black;stroke-width:3" />
<circle cx="460.42" cy="22.25" r="5" stroke-width="0" fill="#FF2A00" opacity="0.7" />
<path d="M629.6,11.42c0.09,0.41-0.68,2.57-1.17,3.01c-3.76,3.36-13.31,8.9-29.98,13.57" style="fill:none;stroke:#999;stroke-width:3" />
<path d="M593.9300000000001,46.45c0.98,0.39,3.42,0.48,4.39,0.39c11.3-1.08,22.2-2.49,41.08-3.08c1.63-0.05,2.61,0.18,3.42,0.38" style="fill:none;stroke:#999;stroke-width:3" />
<path d="M614.61,25.75c0.49,0.43,1.52,3.24,1.62,4.1c0.1,0.86-0.06,52.25-0.16,57.65" style="fill:none;stroke:#999;stroke-width:3" />
<path d="M556.55,19.25c1.12,0.57,3.17,0.7,4.28,0.57c7.42-0.82,21.32-1.14,28.29-1.39c1.86-0.07,2.98,0.27,3.91,0.56" style="fill:none;stroke:#999;stroke-width:3" />
<path d="M569.4200000000001,22.25c0.76,0.5,1.54,2.76,1.36,3.75C569.3299999999999,33.75,562.0,78.75,560.0,86.98c-0.42,1.74,1.06,2.02,2.52,1.17c5.54-3.23,11.84-6.33,17.49-9.15" style="fill:none;stroke:#999;stroke-width:3" />
<path d="M568.24,40.54c0.87,0.21,1.79,0.69,2.64,0.5c2.39-0.54,11.41-2.65,13.77-3.29c1.85-0.5,2.85,1,2.66,2.53c-0.57,4.49-1.5,22.23-2.24,35.01C584.0,93.75,585.25,96.82,615.73,96.82c23.52,0,24.27-3.07,24.75-15.04" style="fill:none;stroke:black;stroke-width:3" />
<circle cx="568.24" cy="40.54" r="5" stroke-width="0" fill="#FF2A00" opacity="0.7" />
<path d="M738.6,11.42c0.09,0.41-0.68,2.57-1.17,3.01c-3.76,3.36-13.31,8.9-29.98,13.57" style="fill:none;stroke:#999;stroke-width:3" />
<path d="M702.9300000000001,46.45c0.98,0.39,3.42,0.48,4.39,0.39c11.3-1.08,22.2-2.49,41.08-3.08c1.63-0.05,2.61,0.18,3.42,0.38" style="fill:none;stroke:#999;stroke-width:3" />
<path d="M723.61,25.75c0.49,0.43,1.52,3.24,1.62,4.1c0.1,0.86-0.06,52.25-0.16,57.65" style="fill:none;stroke:#999;stroke-width:3" />
<path d="M665.55,19.25c1.12,0.57,3.17,0.7,4.28,0.57c7.42-0.82,21.32-1.14,28.29-1.39c1.86-0.07,2.98,0.27,3.91,0.56" style="fill:none;stroke:#999;stroke-width:3" />
<path d="M678.4200000000001,22.25c0.76,0.5,1.54,2.76,1.36,3.75C678.3299999999999,33.75,671.0,78.75,669.0,86.98c-0.42,1.74,1.06,2.02,2.52,1.17c5.54-3.23,11.84-6.33,17.49-9.15" style="fill:none;stroke:#999;stroke-width:3" />
<path d="M677.24,40.54c0.87,0.21,1.79,0.69,2.64,0.5c2.39-0.54,11.41-2.65,13.77-3.29c1.85-0.5,2.85,1,2.66,2.53c-0.57,4.49-1.5,22.23-2.24,35.01C693.0,93.75,694.25,96.82,724.73,96.82c23.52,0,24.27-3.07,24.75-15.04" style="fill:none;stroke:#999;stroke-width:3" />
<path d="M678.85,54.33c3.15,2.36,8.15,9.71,8.94,13.38" style="fill:none;stroke:black;stroke-width:3" />
<circle cx="678.85" cy="54.33" r="5" stroke-width="0" fill="#FF2A00" opacity="0.7" />
</svg>