<svg width="654px" height="109px" viewBox="0 0 654px 109px" xmlns="http://www.w3.org/2000/svg" xmlns:xlink="http://www.w3.org/1999/xlink" xml:space="preserve" version="1.1"  baseProfile="full">
<line x1="1" y1="1" x2="653" y2="1" style="stroke:#ddd;stroke-width:2" />
<line x1="1" y1="1" x2="1" y2="108" style="stroke:#ddd;stroke-width:2" />
<line x1="1" y1="108" x2="653" y2="108" style="stroke:#ddd;stroke-width:2" />
<line x1="653" y1="1" x2="653" y2="108" style="stroke:#ddd;stroke-width:2" />
<line x1="109" y1="1" x2="109" y2="108" style="stroke:#ddd;stroke-width:2" />
<line x1="218" y1="1" x2="218" y2="108" style="stroke:#ddd;stroke-width:2" />
<line x1="327" y1="1" x2="327" y2="108" style="stroke:#ddd;stroke-width:2" />
<line x1="436" y1="1" x2="436" y2="108" style="stroke:#ddd;stroke-width:2" />
<line x1="545" y1="1" x2="545" y2="108" style="stroke:#ddd;stroke-width:2" />
<line x1="1" y1="54" x2="653" y2="54" style="stroke:#ddd;stroke-width:2;stroke-dasharray:3 3" />
<line x1="55" y1="1" x2="55" y2="108" style="stroke:#ddd;stroke-width:2;stroke-dasharray:3 3" />
<line x1="164" y1="1" x2="164" y2="108" style="stroke:#ddd;stroke-width:2;stroke-dasharray:3 3" />
<line x1="273" y1="1" x2="273" y2="108" style="stroke:#ddd;stroke-width:2;stroke-dasharray:3 3" />
<line x1="382" y1="1" x2="382" y2="108" style="stroke:#ddd;stroke-width:2;stroke-dasharray:3 3" />
<line x1="491" y1="1" x2="491" y2="108" style="stroke:#ddd;stroke-width:2;stroke-dasharray:3 3" />
<line x1="600" y1="1" x2="600" y2="108" style="stroke:#ddd;stroke-width:2;stroke-dasharray:3 3" />
<path d="M11.55,18.75c1.12,0.57,3.17,0.7,4.28,0.57c8.91-1.05,25.32-2.64,32.29-2.89c1.86-0.07,2.98,0.27,3.91,0.56" style="fill:none;stroke:black;stroke-width:3" />
<circle cx="11.55" cy="18.75" r="5" stroke-width="0" fill="#FF2A00" opacity="0.7" />
<path d="M120.55,18.75c1.12,0.57,3.17,0.7,4.28,0.57c8.91-1.05,25.32-2.64,32.29-2.89c1.86-0.07,2.98,0.27,3.91,0.56" style="fill:none;stroke:#999;stroke-width:3" />
<path d="M134.42000000000002,20.75c0.76,0.5,1.54,2.76,1.36,3.75C134.32999999999998,32.25,125.5,78.25,123.5,86.48c-0.42,1.74,1.06,2.02,2.52,1.17c5.54-3.23,11.84-6.33,17.49-9.15" style="fill:none;stroke:black;stroke-width:3" />
<circle cx="134.42000000000002" cy="20.75" r="5" stroke-width="0" fill="#FF2A00" opacity="0.7" />
<path d="M229.55,18.75c1.12,0.57,3.17,0.7,4.28,0.57c8.91-1.05,25.32-2.64,32.29-2.89c1.86-0.07,2.98,0.27,3.91,0.56" style="fill:none;stroke:#999;stroke-width:3" />
<path d="M243.42000000000002,20.75c0.76,0.5,1.54,2.76,1.36,3.75C243.32999999999998,32.25,234.5,78.25,232.5,86.48c-0.42,1.74,1.06,2.02,2.52,1.17c5.54-3.23,11.84-6.33,17.49-9.15" style="fill:none;stroke:#999;stroke-width:3" />
<path d="M242.24,40.04c0.87,0.21,1.79,0.69,2.64,0.5c2.39-0.54,11.41-2.65,13.77-3.29c1.85-0.5,2.85,1,2.66,2.53c-0.57,4.49-1.5,18.73-2.24,31.51C258.0,89.75,259.25,93.82,289.73,93.82c23.52,0,25.25-3.07,25.25-12.54" style="fill:none;stroke:black;stroke-width:3" />
<circle cx="242.24" cy="40.04" r="5" stroke-width="0" fill="#FF2A00" opacity="0.7" />
<path d="M338.55,18.75c1.12,0.57,3.17,0.7,4.28,0.57c8.91-1.05,25.32-2.64,32.29-2.89c1.86-0.07,2.98,0.27,3.91,0.56" style="fill:none;stroke:#999;stroke-width:3" />
<path d="M352.42,20.75c0.76,0.5,1.54,2.76,1.36,3.75C352.33,32.25,343.5,78.25,341.5,86.48c-0.42,1.74,1.06,2.02,2.52,1.17c5.54-3.23,11.84-6.33,17.49-9.15" style="fill:none;stroke:#999;stroke-width:3" />
<path d="M351.24,40.04c0.87,0.21,1.79,0.69,2.64,0.5c2.39-0.54,11.41-2.65,13.77-3.29c1.85-0.5,2.85,1,2.66,2.53c-0.57,4.49-1.5,18.73-2.24,31.51C367.0,89.75,368.25,93.82,398.73,93.82c23.52,0,25.25-3.07,25.25-12.54" style="fill:none;stroke:#999;stroke-width:3" />
<path d="M351.85,53.83c3.15,2.36,8.15,9.71,8.94,13.38" style="fill:none;stroke:black;stroke-width:3" />
<circle cx="351.85" cy="53.83" r="5" stroke-width="0" fill="#FF2A00" opacity="0.7" />
<path d="M447.55,18.75c1.12,0.57,3.17,0.7,4.28,0.57c8.91-1.05,25.32-2.64,32.29-2.89c1.86-0.07,2.98,0.27,3.91,0.56" style="fill:none;stroke:#999;stroke-width:3" />
<path d="M461.42,20.75c0.76,0.5,1.54,2.76,1.36,3.75C461.33,32.25,452.5,78.25,450.5,86.48c-0.42,1.74,1.06,2.02,2.52,1.17c5.54-3.23,11.84-6.33,17.49-9.15" style="fill:none;stroke:#999;stroke-width:3" />
<path d="M460.24,40.04c0.87,0.21,1.79,0.69,2.64,0.5c2.39-0.54,11.41-2.65,13.77-3.29c1.85-0.5,2.85,1,2.66,2.53c-0.57,4.49-1.5,18.73-2.24,31.51C476.0,89.75,477.25,93.82,507.73,93.82c23.52,0,25.25-3.07,25.25-12.54" style="fill:none;stroke:#999;stroke-width:3" />
<path d="M460.85,53.83c3.15,2.36,8.15,9.71,8.94,13.38" style="fill:none;stroke:#999;stroke-width:3" />
<path d="M487.25,44.41c1.55,0.31,3.3,0.4,5.08,0.31c9.06-0.5,22.09-2.24,35.78-2.83c1.76-0.08,2.87,0.05,4.64,0.27" style="fill:none;stroke:black;stroke-width:3" />
<circle cx="487.25" cy="44.41" r="5" stroke-width="0" fill="#FF2A00" opacity="0.7" />
<path d="M556.55,18.75c1.12,0.57,3.17,0.7,4.28,0.57c8.91-1.05,25.32-2.64,32.29-2.89c1.86-0.07,2.98,0.27,3.91,0.56" style="fill:none;stroke:#999;stroke-width:3" />
<path d="M570.4200000000001,20.75c0.76,0.5,1.54,2.76,1.36,3.75C570.3299999999999,32.25,561.5,78.25,559.5,86.48c-0.42,1.74,1.06,2.02,2.52,1.17c5.54-3.23,11.84-6.33,17.49-9.15" style="fill:none;stroke:#999;stroke-width:3" />
<path d="M569.24,40.04c0.87,0.21,1.79,0.69,2.64,0.5c2.39-0.54,11.41-2.65,13.77-3.29c1.85-0.5,2.85,1,2.66,2.53c-0.57,4.49-1.5,18.73-2.24,31.51C585.0,89.75,586.25,93.82,616.73,93.82c23.52,0,25.25-3.07,25.25-12.54" style="fill:none;stroke:#999;stroke-width:3" />
<path d="M569.85,53.83c3.15,2.36,8.15,9.71,8.94,13.38" style="fill:none;stroke:#999;stroke-width:3" />
<path d="M596.25,44.41c1.55,0.31,3.3,0.4,5.08,0.31c9.06-0.5,22.09-2.24,35.78-2.83c1.76-0.08,2.87,0.05,4.64,0.27" style="fill:none;stroke:#999;stroke-width:3" />
<path d="M614.75,14.25C616.0,14.75,617.0,16.47,617.0,17.5c0,10.5,0,61.75-0.25,68" style="fill:none;stroke:black;stroke-width:3" />
<circle cx="614.75" cy="14.25" r="5" stroke-width="0" fill="#FF2A00" opacity="0.7" />
</svg>