<svg width="872px" height="109px" viewBox="0 0 872px 109px" xmlns="http://www.w3.org/2000/svg" xmlns:xlink="http://www.w3.org/1999/xlink" xml:space="preserve" version="1.1"  baseProfile="full">
<line x1="1" y1="1" x2="871" y2="1" style="stroke:#ddd;stroke-width:2" />
<line x1="1" y1="1" x2="1" y2="108" style="stroke:#ddd;stroke-width:2" />
<line x1="1" y1="108" x2="871" y2="108" style="stroke:#ddd;stroke-width:2" />
<line x1="871" y1="1" x2="871" y2="108" style="stroke:#ddd;stroke-width:2" />
<line x1="109" y1="1" x2="109" y2="108" style="stroke:#ddd;stroke-width:2" />
<line x1="218" y1="1" x2="218" y2="108" style="stroke:#ddd;stroke-width:2" />
<line x1="327" y1="1" x2="327" y2="108" style="stroke:#ddd;stroke-width:2" />
<line x1="436" y1="1" x2="436" y2="108" style="stroke:#ddd;stroke-width:2" />
<line x1="545" y1="1" x2="545" y2="108" style="stroke:#ddd;stroke-width:2" />
<line x1="654" y1="1" x2="654" y2="108" style="stroke:#ddd;stroke-width:2" />
<line x1="763" y1="1" x2="763" y2="108" style="stroke:#ddd;stroke-width:2" />
<line x1="1" y1="54" x2="871" y2="54" style="stroke:#ddd;stroke-width:2;stroke-dasharray:3 3" />
<line x1="55" y1="1" x2="55" y2="108" style="stroke:#ddd;stroke-width:2;stroke-dasharray:3 3" />
<line x1="164" y1="1" x2="164" y2="108" style="stroke:#ddd;stroke-width:2;stroke-dasharray:3 3" />
<line x1="273" y1="1" x2="273" y2="108" style="stroke:#ddd;stroke-width:2;stroke-dasharray:3 3" />
<line x1="382" y1="1" x2="382" y2="108" style="stroke:#ddd;stroke-width:2;stroke-dasharray:3 3" />
<line x1="491" y1="1" x2="491" y2="108" style="stroke:#ddd;stroke-width:2;stroke-dasharray:3 3" />
<line x1="600" y1="1" x2="600" y2="108" style="stroke:#ddd;stroke-width:2;stroke-dasharray:3 3" />
<line x1="709" y1="1" x2="709" y2="108" style="stroke:#ddd;stroke-width:2;stroke-dasharray:3 3" />
<line x1="818" y1="1" x2="818" y2="108" style="stroke:#ddd;stroke-width:2;stroke-dasharray:3 3" />
<path d="M11.55,18.75c1.28,0.57,3.64,0.71,4.92,0.57c10.26-1.07,21.06-2.64,29.07-2.89c2.14-0.07,3.42,0.27,4.49,0.56" style="fill:none;stroke:black;stroke-width:3" />
<circle cx="11.55" cy="18.75" r="5" stroke-width="0" fill="#FF2A00" opacity="0.7" />
<path d="M120.55,18.75c1.28,0.57,3.64,0.71,4.92,0.57c10.26-1.07,21.06-2.64,29.07-2.89c2.14-0.07,3.42,0.27,4.49,0.56" style="fill:none;stroke:#999;stroke-width:3" />
<path d="M134.42000000000002,21.25c0.76,0.5,1.04,3.26,0.86,4.25C133.82999999999998,33.25,125.0,81.25,123.0,89.48c-0.42,1.74,1.06,2.02,2.52,1.17c5.54-3.23,11.84-6.33,17.49-9.15" style="fill:none;stroke:black;stroke-width:3" />
<circle cx="134.42000000000002" cy="21.25" r="5" stroke-width="0" fill="#FF2A00" opacity="0.7" />
<path d="M229.55,18.75c1.28,0.57,3.64,0.71,4.92,0.57c10.26-1.07,21.06-2.64,29.07-2.89c2.14-0.07,3.42,0.27,4.49,0.56" style="fill:none;stroke:#999;stroke-width:3" />
<path d="M243.42000000000002,21.25c0.76,0.5,1.04,3.26,0.86,4.25C242.82999999999998,33.25,234.0,81.25,232.0,89.48c-0.42,1.74,1.06,2.02,2.52,1.17c5.54-3.23,11.84-6.33,17.49-9.15" style="fill:none;stroke:#999;stroke-width:3" />
<path d="M242.24,39.54c0.87,0.21,1.78,0.63,2.64,0.5c5.37-0.79,10.91-2.15,13.27-2.79c1.85-0.5,3.35,1,3.16,2.53c-0.57,4.49-2,20.73-2.74,33.51c-1.07,18.45,0.18,22.52,30.66,22.52c23.52,0,25.25-3.07,25.25-12.54" style="fill:none;stroke:black;stroke-width:3" />
<circle cx="242.24" cy="39.54" r="5" stroke-width="0" fill="#FF2A00" opacity="0.7" />
<path d="M338.55,18.75c1.28,0.57,3.64,0.71,4.92,0.57c10.26-1.07,21.06-2.64,29.07-2.89c2.14-0.07,3.42,0.27,4.49,0.56" style="fill:none;stroke:#999;stroke-width:3" />
<path d="M352.42,21.25c0.76,0.5,1.04,3.26,0.86,4.25C351.83,33.25,343.0,81.25,341.0,89.48c-0.42,1.74,1.06,2.02,2.52,1.17c5.54-3.23,11.84-6.33,17.49-9.15" style="fill:none;stroke:#999;stroke-width:3" />
<path d="M351.24,39.54c0.87,0.21,1.78,0.63,2.64,0.5c5.37-0.79,10.91-2.15,13.27-2.79c1.85-0.5,3.35,1,3.16,2.53c-0.57,4.49-2,20.73-2.74,33.51c-1.07,18.45,0.18,22.52,30.66,22.52c23.52,0,25.25-3.07,25.25-12.54" style="fill:none;stroke:#999;stroke-width:3" />
<path d="M351.1,54.58c3.42,2.23,8.83,9.17,9.69,12.63" style="fill:none;stroke:black;stroke-width:3" />
<circle cx="351.1" cy="54.58" r="5" stroke-width="0" fill="#FF2A00" opacity="0.7" />
<path d="M447.55,18.75c1.28,0.57,3.64,0.71,4.92,0.57c10.26-1.07,21.06-2.64,29.07-2.89c2.14-0.07,3.42,0.27,4.49,0.56" style="fill:none;stroke:#999;stroke-width:3" />
<path d="M461.42,21.25c0.76,0.5,1.04,3.26,0.86,4.25C460.83,33.25,452.0,81.25,450.0,89.48c-0.42,1.74,1.06,2.02,2.52,1.17c5.54-3.23,11.84-6.33,17.49-9.15" style="fill:none;stroke:#999;stroke-width:3" />
<path d="M460.24,39.54c0.87,0.21,1.78,0.63,2.64,0.5c5.37-0.79,10.91-2.15,13.27-2.79c1.85-0.5,3.35,1,3.16,2.53c-0.57,4.49-2,20.73-2.74,33.51c-1.07,18.45,0.18,22.52,30.66,22.52c23.52,0,25.25-3.07,25.25-12.54" style="fill:none;stroke:#999;stroke-width:3" />
<path d="M460.1,54.58c3.42,2.23,8.83,9.17,9.69,12.63" style="fill:none;stroke:#999;stroke-width:3" />
<path d="M517.11,14c0.08,0.36,0.36,1.04-0.17,1.46c-4.9,3.9-16.09,9.92-28.96,13.94" style="fill:none;stroke:black;stroke-width:3" />
<circle cx="517.11" cy="14.0" r="5" stroke-width="0" fill="#FF2A00" opacity="0.7" />
<path d="M556.55,18.75c1.28,0.57,3.64,0.71,4.92,0.57c10.26-1.07,21.06-2.64,29.07-2.89c2.14-0.07,3.42,0.27,4.49,0.56" style="fill:none;stroke:#999;stroke-width:3" />
<path d="M570.4200000000001,21.25c0.76,0.5,1.04,3.26,0.86,4.25C569.8299999999999,33.25,561.0,81.25,559.0,89.48c-0.42,1.74,1.06,2.02,2.52,1.17c5.54-3.23,11.84-6.33,17.49-9.15" style="fill:none;stroke:#999;stroke-width:3" />
<path d="M569.24,39.54c0.87,0.21,1.78,0.63,2.64,0.5c5.37-0.79,10.91-2.15,13.27-2.79c1.85-0.5,3.35,1,3.16,2.53c-0.57,4.49-2,20.73-2.74,33.51c-1.07,18.45,0.18,22.52,30.66,22.52c23.52,0,25.25-3.07,25.25-12.54" style="fill:none;stroke:#999;stroke-width:3" />
<path d="M569.1,54.58c3.42,2.23,8.83,9.17,9.69,12.63" style="fill:none;stroke:#999;stroke-width:3" />
<path d="M626.11,14c0.08,0.36,0.36,1.04-0.17,1.46c-4.9,3.9-16.09,9.92-28.96,13.94" style="fill:none;stroke:#999;stroke-width:3" />
<path d="M596.31,41.73c1.06,0.26,3.02,0.41,4.06,0.26C607.0,41,623.0,38,629.87,37.71c1.75-0.08,2.83,0.12,3.71,0.25" style="fill:none;stroke:black;stroke-width:3" />
<circle cx="596.31" cy="41.73" r="5" stroke-width="0" fill="#FF2A00" opacity="0.7" />
<path d="M665.55,18.75c1.28,0.57,3.64,0.71,4.92,0.57c10.26-1.07,21.06-2.64,29.07-2.89c2.14-0.07,3.42,0.27,4.49,0.56" style="fill:none;stroke:#999;stroke-width:3" />
<path d="M679.4200000000001,21.25c0.76,0.5,1.04,3.26,0.86,4.25C678.8299999999999,33.25,670.0,81.25,668.0,89.48c-0.42,1.74,1.06,2.02,2.52,1.17c5.54-3.23,11.84-6.33,17.49-9.15" style="fill:none;stroke:#999;stroke-width:3" />
<path d="M678.24,39.54c0.87,0.21,1.78,0.63,2.64,0.5c5.37-0.79,10.91-2.15,13.27-2.79c1.85-0.5,3.35,1,3.16,2.53c-0.57,4.49-2,20.73-2.74,33.51c-1.07,18.45,0.18,22.52,30.66,22.52c23.52,0,25.25-3.07,25.25-12.54" style="fill:none;stroke:#999;stroke-width:3" />
<path d="M678.1,54.58c3.42,2.23,8.83,9.17,9.69,12.63" style="fill:none;stroke:#999;stroke-width:3" />
<path d="M735.11,14c0.08,0.36,0.36,1.04-0.17,1.46c-4.9,3.9-16.09,9.92-28.96,13.94" style="fill:none;stroke:#999;stroke-width:3" />
<path d="M705.31,41.73c1.06,0.26,3.02,0.41,4.06,0.26C716.0,41,732.0,38,738.87,37.71c1.75-0.08,2.83,0.12,3.71,0.25" style="fill:none;stroke:#999;stroke-width:3" />
<path d="M701.63,57.67c1.08,0.18,4.22,0.22,5.3,0.18c13.55-0.6,25.8-3.7,35.58-4.11c1.79-0.07,4.03,0.08,4.94,0.17" style="fill:none;stroke:black;stroke-width:3" />
<circle cx="701.63" cy="57.67" r="5" stroke-width="0" fill="#FF2A00" opacity="0.7" />
<path d="M774.55,18.75c1.28,0.57,3.64,0.71,4.92,0.57c10.26-1.07,21.06-2.64,29.07-2.89c2.14-0.07,3.42,0.27,4.49,0.56" style="fill:none;stroke:#999;stroke-width:3" />
<path d="M788.4200000000001,21.25c0.76,0.5,1.04,3.26,0.86,4.25C787.8299999999999,33.25,779.0,81.25,777.0,89.48c-0.42,1.74,1.06,2.02,2.52,1.17c5.54-3.23,11.84-6.33,17.49-9.15" style="fill:none;stroke:#999;stroke-width:3" />
<path d="M787.24,39.54c0.87,0.21,1.78,0.63,2.64,0.5c5.37-0.79,10.91-2.15,13.27-2.79c1.85-0.5,3.35,1,3.16,2.53c-0.57,4.49-2,20.73-2.74,33.51c-1.07,18.45,0.18,22.52,30.66,22.52c23.52,0,25.25-3.07,25.25-12.54" style="fill:none;stroke:#999;stroke-width:3" />
<path d="M787.1,54.58c3.42,2.23,8.83,9.17,9.69,12.63" style="fill:none;stroke:#999;stroke-width:3" />
<path d="M844.11,14c0.08,0.36,0.36,1.04-0.17,1.46c-4.9,3.9-16.09,9.92-28.96,13.94" style="fill:none;stroke:#999;stroke-width:3" />
<path d="M814.31,41.73c1.06,0.26,3.02,0.41,4.06,0.26C825.0,41,841.0,38,847.87,37.71c1.75-0.08,2.83,0.12,3.71,0.25" style="fill:none;stroke:#999;stroke-width:3" />
<path d="M810.63,57.67c1.08,0.18,4.22,0.22,5.3,0.18c13.55-0.6,25.8-3.7,35.58-4.11c1.79-0.07,4.03,0.08,4.94,0.17" style="fill:none;stroke:#999;stroke-width:3" />
<path d="M829.87,27.13c0.44,0.97,0.79,2.11,0.82,3.6c0.12,6.67-0.43,33.74-0.43,37.83c0,10.79,2.61,11.22,11.37,11.22c11,0,10.63-2.06,10.63-9.18" style="fill:none;stroke:black;stroke-width:3" />
<circle cx="829.87" cy="27.13" r="5" stroke-width="0" fill="#FF2A00" opacity="0.7" />
</svg>