<svg width="872px" height="109px" viewBox="0 0 872px 109px" xmlns="http://www.w3.org/2000/svg" xmlns:xlink="http://www.w3.org/1999/xlink" xml:space="preserve" version="1.1"  baseProfile="full">
<line x1="1" y1="1" x2="871" y2="1" style="stroke:#ddd;stroke-width:2" />
<line x1="1" y1="1" x2="1" y2="108" style="stroke:#ddd;stroke-width:2" />
<line x1="1" y1="108" x2="871" y2="108" style="stroke:#ddd;stroke-width:2" />
<line x1="871" y1="1" x2="871" y2="108" style="stroke:#ddd;stroke-width:2" />
<line x1="109" y1="1" x2="109" y2="108" style="stroke:#ddd;stroke-width:2" />
<line x1="218" y1="1" x2="218" y2="108" style="stroke:#ddd;stroke-width:2" />
<line x1="327" y1="1" x2="327" y2="108" style="stroke:#ddd;stroke-width:2" />
<line x1="436" y1="1" x2="436" y2="108" style="stroke:#ddd;stroke-width:2" />
<line x1="545" y1="1" x2="545" y2="108" style="stroke:#ddd;stroke-width:2" />
<line x1="654" y1="1" x2="654" y2="108" style="stroke:#ddd;stroke-width:2" />
<line x1="763" y1="1" x2="763" y2="108" style="stroke:#ddd;stroke-width:2" />
<line x1="1" y1="54" x2="871" y2="54" style="stroke:#ddd;stroke-width:2;stroke-dasharray:3 3" />
<line x1="55" y1="1" x2="55" y2="108" style="stroke:#ddd;stroke-width:2;stroke-dasharray:3 3" />
<line x1="164" y1="1" x2="164" y2="108" style="stroke:#ddd;stroke-width:2;stroke-dasharray:3 3" />
<line x1="273" y1="1" x2="273" y2="108" style="stroke:#ddd;stroke-width:2;stroke-dasharray:3 3" />
<line x1="382" y1="1" x2="382" y2="108" style="stroke:#ddd;stroke-width:2;stroke-dasharray:3 3" />
<line x1="491" y1="1" x2="491" y2="108" style="stroke:#ddd;stroke-width:2;stroke-dasharray:3 3" />
<line x1="600" y1="1" x2="600" y2="108" style="stroke:#ddd;stroke-width:2;stroke-dasharray:3 3" />
<line x1="709" y1="1" x2="709" y2="108" style="stroke:#ddd;stroke-width:2;stroke-dasharray:3 3" />
<line x1="818" y1="1" x2="818" y2="108" style="stroke:#ddd;stroke-width:2;stroke-dasharray:3 3" />
<path d="M85.73,19.71c0.09,0.32-0.15,1.42-0.68,1.78C78.46,26,69.22,29.64,52.06,33.27" style="fill:none;stroke:black;stroke-width:3" />
<circle cx="85.73" cy="19.71" r="5" stroke-width="0" fill="#FF2A00" opacity="0.7" />
<path d="M194.73000000000002,19.71c0.09,0.32-0.15,1.42-0.68,1.78C187.45999999999998,26,178.22,29.64,161.06,33.27" style="fill:none;stroke:#999;stroke-width:3" />
<path d="M162.07999999999998,41.39c0.46,0.28,1.19,1.07,1.19,2.84c0,2.06-0.74,10.58-0.99,14.22c-0.13,1.88-0.49,3.19,1.71,2.65c7.99-1.95,19.26-3.35,31.42-4.12" style="fill:none;stroke:black;stroke-width:3" />
<circle cx="162.07999999999998" cy="41.39" r="5" stroke-width="0" fill="#FF2A00" opacity="0.7" />
<path d="M303.73,19.71c0.09,0.32-0.15,1.42-0.68,1.78C296.46,26,287.22,29.64,270.06,33.27" style="fill:none;stroke:#999;stroke-width:3" />
<path d="M271.08,41.39c0.46,0.28,1.19,1.07,1.19,2.84c0,2.06-0.74,10.58-0.99,14.22c-0.13,1.88-0.49,3.19,1.71,2.65c7.99-1.95,19.26-3.35,31.42-4.12" style="fill:none;stroke:#999;stroke-width:3" />
<path d="M304.55,37.32c0.4,0.39,1.25,1.66,1.19,2.51c-0.27,3.94-0.49,12.91-1.43,20.17" style="fill:none;stroke:black;stroke-width:3" />
<circle cx="304.55" cy="37.32" r="5" stroke-width="0" fill="#FF2A00" opacity="0.7" />
<path d="M412.73,19.71c0.09,0.32-0.15,1.42-0.68,1.78C405.46,26,396.22,29.64,379.06,33.27" style="fill:none;stroke:#999;stroke-width:3" />
<path d="M380.08,41.39c0.46,0.28,1.19,1.07,1.19,2.84c0,2.06-0.74,10.58-0.99,14.22c-0.13,1.88-0.49,3.19,1.71,2.65c7.99-1.95,19.26-3.35,31.42-4.12" style="fill:none;stroke:#999;stroke-width:3" />
<path d="M413.55,37.32c0.4,0.39,1.25,1.66,1.19,2.51c-0.27,3.94-0.49,12.91-1.43,20.17" style="fill:none;stroke:#999;stroke-width:3" />
<path d="M394.61,13.62c0.74,1.09,1.32,2.38,1.37,4.06c0.2,7.51-0.01,40.16-0.01,50.51s1.28,12.58,10.68,12.58C415.5,80.77,417.0,78.25,417.0,69.4" style="fill:none;stroke:black;stroke-width:3" />
<circle cx="394.61" cy="13.62" r="5" stroke-width="0" fill="#FF2A00" opacity="0.7" />
<path d="M521.73,19.71c0.09,0.32-0.15,1.42-0.68,1.78C514.46,26,505.22,29.64,488.06,33.27" style="fill:none;stroke:#999;stroke-width:3" />
<path d="M489.08,41.39c0.46,0.28,1.19,1.07,1.19,2.84c0,2.06-0.74,10.58-0.99,14.22c-0.13,1.88-0.49,3.19,1.71,2.65c7.99-1.95,19.26-3.35,31.42-4.12" style="fill:none;stroke:#999;stroke-width:3" />
<path d="M522.55,37.32c0.4,0.39,1.25,1.66,1.19,2.51c-0.27,3.94-0.49,12.91-1.43,20.17" style="fill:none;stroke:#999;stroke-width:3" />
<path d="M503.61,13.62c0.74,1.09,1.32,2.38,1.37,4.06c0.2,7.51-0.01,40.16-0.01,50.51s1.28,12.58,10.68,12.58C524.5,80.77,526.0,78.25,526.0,69.4" style="fill:none;stroke:#999;stroke-width:3" />
<path d="M447.55,18.67c1.3,0.36,3.68,0.39,4.98,0.36c8.64-0.2,19.58-2.15,27.7-2.31c2.16-0.04,3.47,0.17,4.55,0.35" style="fill:none;stroke:black;stroke-width:3" />
<circle cx="447.55" cy="18.67" r="5" stroke-width="0" fill="#FF2A00" opacity="0.7" />
<path d="M630.73,19.71c0.09,0.32-0.15,1.42-0.68,1.78C623.46,26,614.22,29.64,597.06,33.27" style="fill:none;stroke:#999;stroke-width:3" />
<path d="M598.0799999999999,41.39c0.46,0.28,1.19,1.07,1.19,2.84c0,2.06-0.74,10.58-0.99,14.22c-0.13,1.88-0.49,3.19,1.71,2.65c7.99-1.95,19.26-3.35,31.42-4.12" style="fill:none;stroke:#999;stroke-width:3" />
<path d="M631.55,37.32c0.4,0.39,1.25,1.66,1.19,2.51c-0.27,3.94-0.49,12.91-1.43,20.17" style="fill:none;stroke:#999;stroke-width:3" />
<path d="M612.61,13.62c0.74,1.09,1.32,2.38,1.37,4.06c0.2,7.51-0.01,40.16-0.01,50.51s1.28,12.58,10.68,12.58C633.5,80.77,635.0,78.25,635.0,69.4" style="fill:none;stroke:#999;stroke-width:3" />
<path d="M556.55,18.67c1.3,0.36,3.68,0.39,4.98,0.36c8.64-0.2,19.58-2.15,27.7-2.31c2.16-0.04,3.47,0.17,4.55,0.35" style="fill:none;stroke:#999;stroke-width:3" />
<path d="M569.42,21.25c0.76,0.5,0.96,2.75,0.86,3.75C569.25,35.25,561.5,78.75,559.5,86.98c-0.42,1.74,1.06,2.02,2.52,1.17c5.54-3.23,11.84-6.33,17.49-9.15" style="fill:none;stroke:black;stroke-width:3" />
<circle cx="569.42" cy="21.25" r="5" stroke-width="0" fill="#FF2A00" opacity="0.7" />
<path d="M739.73,19.71c0.09,0.32-0.15,1.42-0.68,1.78C732.46,26,723.22,29.64,706.06,33.27" style="fill:none;stroke:#999;stroke-width:3" />
<path d="M707.0799999999999,41.39c0.46,0.28,1.19,1.07,1.19,2.84c0,2.06-0.74,10.58-0.99,14.22c-0.13,1.88-0.49,3.19,1.71,2.65c7.99-1.95,19.26-3.35,31.42-4.12" style="fill:none;stroke:#999;stroke-width:3" />
<path d="M740.55,37.32c0.4,0.39,1.25,1.66,1.19,2.51c-0.27,3.94-0.49,12.91-1.43,20.17" style="fill:none;stroke:#999;stroke-width:3" />
<path d="M721.61,13.62c0.74,1.09,1.32,2.38,1.37,4.06c0.2,7.51-0.01,40.16-0.01,50.51s1.28,12.58,10.68,12.58C742.5,80.77,744.0,78.25,744.0,69.4" style="fill:none;stroke:#999;stroke-width:3" />
<path d="M665.55,18.67c1.3,0.36,3.68,0.39,4.98,0.36c8.64-0.2,19.58-2.15,27.7-2.31c2.16-0.04,3.47,0.17,4.55,0.35" style="fill:none;stroke:#999;stroke-width:3" />
<path d="M678.42,21.25c0.76,0.5,0.96,2.75,0.86,3.75C678.25,35.25,670.5,78.75,668.5,86.98c-0.42,1.74,1.06,2.02,2.52,1.17c5.54-3.23,11.84-6.33,17.49-9.15" style="fill:none;stroke:#999;stroke-width:3" />
<path d="M677.24,40.54c0.87,0.21,1.79,0.69,2.64,0.5c2.39-0.54,11.91-2.65,14.27-3.29c1.85-0.5,2.85,1,2.66,2.53c-0.7,5.52-2.34,18.44-2.74,31.51c-0.56,18.48-0.82,24.02,29.66,24.02c25.52,0,26.75-2.07,26.75-14.04" style="fill:none;stroke:black;stroke-width:3" />
<circle cx="677.24" cy="40.54" r="5" stroke-width="0" fill="#FF2A00" opacity="0.7" />
<path d="M848.73,19.71c0.09,0.32-0.15,1.42-0.68,1.78C841.46,26,832.22,29.64,815.06,33.27" style="fill:none;stroke:#999;stroke-width:3" />
<path d="M816.0799999999999,41.39c0.46,0.28,1.19,1.07,1.19,2.84c0,2.06-0.74,10.58-0.99,14.22c-0.13,1.88-0.49,3.19,1.71,2.65c7.99-1.95,19.26-3.35,31.42-4.12" style="fill:none;stroke:#999;stroke-width:3" />
<path d="M849.55,37.32c0.4,0.39,1.25,1.66,1.19,2.51c-0.27,3.94-0.49,12.91-1.43,20.17" style="fill:none;stroke:#999;stroke-width:3" />
<path d="M830.61,13.62c0.74,1.09,1.32,2.38,1.37,4.06c0.2,7.51-0.01,40.16-0.01,50.51s1.28,12.58,10.68,12.58C851.5,80.77,853.0,78.25,853.0,69.4" style="fill:none;stroke:#999;stroke-width:3" />
<path d="M774.55,18.67c1.3,0.36,3.68,0.39,4.98,0.36c8.64-0.2,19.58-2.15,27.7-2.31c2.16-0.04,3.47,0.17,4.55,0.35" style="fill:none;stroke:#999;stroke-width:3" />
<path d="M787.42,21.25c0.76,0.5,0.96,2.75,0.86,3.75C787.25,35.25,779.5,78.75,777.5,86.98c-0.42,1.74,1.06,2.02,2.52,1.17c5.54-3.23,11.84-6.33,17.49-9.15" style="fill:none;stroke:#999;stroke-width:3" />
<path d="M786.24,40.54c0.87,0.21,1.79,0.69,2.64,0.5c2.39-0.54,11.91-2.65,14.27-3.29c1.85-0.5,2.85,1,2.66,2.53c-0.7,5.52-2.34,18.44-2.74,31.51c-0.56,18.48-0.82,24.02,29.66,24.02c25.52,0,26.75-2.07,26.75-14.04" style="fill:none;stroke:#999;stroke-width:3" />
<path d="M786.85,55.33c3.33,1.74,8.6,7.17,9.44,9.88" style="fill:none;stroke:black;stroke-width:3" />
<circle cx="786.85" cy="55.33" r="5" stroke-width="0" fill="#FF2A00" opacity="0.7" />
</svg>