<svg width="1090px" height="109px" viewBox="0 0 1090px 109px" xmlns="http://www.w3.org/2000/svg" xmlns:xlink="http://www.w3.org/1999/xlink" xml:space="preserve" version="1.1"  baseProfile="full">
<line x1="1" y1="1" x2="1089" y2="1" style="stroke:#ddd;stroke-width:2" />
<line x1="1" y1="1" x2="1" y2="108" style="stroke:#ddd;stroke-width:2" />
<line x1="1" y1="108" x2="1089" y2="108" style="stroke:#ddd;stroke-width:2" />
<line x1="1089" y1="1" x2="1089" y2="108" style="stroke:#ddd;stroke-width:2" />
<line x1="109" y1="1" x2="109" y2="108" style="stroke:#ddd;stroke-width:2" />
<line x1="218" y1="1" x2="218" y2="108" style="stroke:#ddd;stroke-width:2" />
<line x1="327" y1="1" x2="327" y2="108" style="stroke:#ddd;stroke-width:2" />
<line x1="436" y1="1" x2="436" y2="108" style="stroke:#ddd;stroke-width:2" />
<line x1="545" y1="1" x2="545" y2="108" style="stroke:#ddd;stroke-width:2" />
<line x1="654" y1="1" x2="654" y2="108" style="stroke:#ddd;stroke-width:2" />
<line x1="763" y1="1" x2="763" y2="108" style="stroke:#ddd;stroke-width:2" />
<line x1="872" y1="1" x2="872" y2="108" style="stroke:#ddd;stroke-width:2" />
<line x1="981" y1="1" x2="981" y2="108" style="stroke:#ddd;stroke-width:2" />
<line x1="1" y1="54" x2="1089" y2="54" style="stroke:#ddd;stroke-width:2;stroke-dasharray:3 3" />
<line x1="55" y1="1" x2="55" y2="108" style="stroke:#ddd;stroke-width:2;stroke-dasharray:3 3" />
<line x1="164" y1="1" x2="164" y2="108" style="stroke:#ddd;stroke-width:2;stroke-dasharray:3 3" />
<line x1="273" y1="1" x2="273" y2="108" style="stroke:#ddd;stroke-width:2;stroke-dasharray:3 3" />
<line x1="382" y1="1" x2="382" y2="108" style="stroke:#ddd;stroke-width:2;stroke-dasharray:3 3" />
<line x1="491" y1="1" x2="491" y2="108" style="stroke:#ddd;stroke-width:2;stroke-dasharray:3 3" />
<line x1="600" y1="1" x2="600" y2="108" style="stroke:#ddd;stroke-width:2;stroke-dasharray:3 3" />
<line x1="709" y1="1" x2="709" y2="108" style="stroke:#ddd;stroke-width:2;stroke-dasharray:3 3" />
<line x1="818" y1="1" x2="818" y2="108" style="stroke:#ddd;stroke-width:2;stroke-dasharray:3 3" />
<line x1="927" y1="1" x2="927" y2="108" style="stroke:#ddd;stroke-width:2;stroke-dasharray:3 3" />
<line x1="1036" y1="1" x2="1036" y2="108" style="stroke:#ddd;stroke-width:2;stroke-dasharray:3 3" />
<path d="M12.05,19.25c1.12,0.57,3.17,0.7,4.28,0.57c8.91-1.05,20.32-2.64,27.29-2.89c1.86-0.07,2.98,0.27,3.91,0.56" style="fill:none;stroke:black;stroke-width:3" />
<circle cx="12.05" cy="19.25" r="5" stroke-width="0" fill="#FF2A00" opacity="0.7" />
<path d="M121.05,19.25c1.12,0.57,3.17,0.7,4.28,0.57c8.91-1.05,20.32-2.64,27.29-2.89c1.86-0.07,2.98,0.27,3.91,0.56" style="fill:none;stroke:#999;stroke-width:3" />
<path d="M134.92000000000002,21.75c0.76,0.5,1,2.75,0.86,3.75C134.25,36.75,126.0,74.75,123.0,84.98c-0.5,1.71,1.06,2.52,2.52,1.67c5.54-3.23,12.34-5.83,17.99-8.65" style="fill:none;stroke:black;stroke-width:3" />
<circle cx="134.92000000000002" cy="21.75" r="5" stroke-width="0" fill="#FF2A00" opacity="0.7" />
<path d="M230.05,19.25c1.12,0.57,3.17,0.7,4.28,0.57c8.91-1.05,20.32-2.64,27.29-2.89c1.86-0.07,2.98,0.27,3.91,0.56" style="fill:none;stroke:#999;stroke-width:3" />
<path d="M243.92000000000002,21.75c0.76,0.5,1,2.75,0.86,3.75C243.25,36.75,235.0,74.75,232.0,84.98c-0.5,1.71,1.06,2.52,2.52,1.67c5.54-3.23,12.34-5.83,17.99-8.65" style="fill:none;stroke:#999;stroke-width:3" />
<path d="M242.24,39.04c0.87,0.21,1.79,0.69,2.64,0.5c2.39-0.54,11.91-2.65,14.27-3.29c1.85-0.5,2.85,1,2.66,2.53c-0.57,4.49-2.5,18.73-3.24,31.51c-1.07,18.45-3.32,24.02,27.16,24.02c28.02,0,27.75-1.32,27.75-13.54" style="fill:none;stroke:black;stroke-width:3" />
<circle cx="242.24" cy="39.04" r="5" stroke-width="0" fill="#FF2A00" opacity="0.7" />
<path d="M339.05,19.25c1.12,0.57,3.17,0.7,4.28,0.57c8.91-1.05,20.32-2.64,27.29-2.89c1.86-0.07,2.98,0.27,3.91,0.56" style="fill:none;stroke:#999;stroke-width:3" />
<path d="M352.92,21.75c0.76,0.5,1,2.75,0.86,3.75C352.25,36.75,344.0,74.75,341.0,84.98c-0.5,1.71,1.06,2.52,2.52,1.67c5.54-3.23,12.34-5.83,17.99-8.65" style="fill:none;stroke:#999;stroke-width:3" />
<path d="M351.24,39.04c0.87,0.21,1.79,0.69,2.64,0.5c2.39-0.54,11.91-2.65,14.27-3.29c1.85-0.5,2.85,1,2.66,2.53c-0.57,4.49-2.5,18.73-3.24,31.51c-1.07,18.45-3.32,24.02,27.16,24.02c28.02,0,27.75-1.32,27.75-13.54" style="fill:none;stroke:#999;stroke-width:3" />
<path d="M353.1,54.08c2.36,1.88,6.1,7.71,6.69,10.63" style="fill:none;stroke:black;stroke-width:3" />
<circle cx="353.1" cy="54.08" r="5" stroke-width="0" fill="#FF2A00" opacity="0.7" />
<path d="M448.05,19.25c1.12,0.57,3.17,0.7,4.28,0.57c8.91-1.05,20.32-2.64,27.29-2.89c1.86-0.07,2.98,0.27,3.91,0.56" style="fill:none;stroke:#999;stroke-width:3" />
<path d="M461.92,21.75c0.76,0.5,1,2.75,0.86,3.75C461.25,36.75,453.0,74.75,450.0,84.98c-0.5,1.71,1.06,2.52,2.52,1.67c5.54-3.23,12.34-5.83,17.99-8.65" style="fill:none;stroke:#999;stroke-width:3" />
<path d="M460.24,39.04c0.87,0.21,1.79,0.69,2.64,0.5c2.39-0.54,11.91-2.65,14.27-3.29c1.85-0.5,2.85,1,2.66,2.53c-0.57,4.49-2.5,18.73-3.24,31.51c-1.07,18.45-3.32,24.02,27.16,24.02c28.02,0,27.75-1.32,27.75-13.54" style="fill:none;stroke:#999;stroke-width:3" />
<path d="M462.1,54.08c2.36,1.88,6.1,7.71,6.69,10.63" style="fill:none;stroke:#999;stroke-width:3" />
<path d="M489.46,18.17c1.19,0.37,3.37,0.45,4.56,0.37c7.47-0.53,15.25-1.41,30.61-2.17c1.98-0.1,3.17,0.18,4.17,0.36" style="fill:none;stroke:black;stroke-width:3" />
<circle cx="489.46" cy="18.17" r="5" stroke-width="0" fill="#FF2A00" opacity="0.7" />
<path d="M557.05,19.25c1.12,0.57,3.17,0.7,4.28,0.57c8.91-1.05,20.32-2.64,27.29-2.89c1.86-0.07,2.98,0.27,3.91,0.56" style="fill:none;stroke:#999;stroke-width:3" />
<path d="M570.9200000000001,21.75c0.76,0.5,1,2.75,0.86,3.75C570.25,36.75,562.0,74.75,559.0,84.98c-0.5,1.71,1.06,2.52,2.52,1.67c5.54-3.23,12.34-5.83,17.99-8.65" style="fill:none;stroke:#999;stroke-width:3" />
<path d="M569.24,39.04c0.87,0.21,1.79,0.69,2.64,0.5c2.39-0.54,11.91-2.65,14.27-3.29c1.85-0.5,2.85,1,2.66,2.53c-0.57,4.49-2.5,18.73-3.24,31.51c-1.07,18.45-3.32,24.02,27.16,24.02c28.02,0,27.75-1.32,27.75-13.54" style="fill:none;stroke:#999;stroke-width:3" />
<path d="M571.1,54.08c2.36,1.88,6.1,7.71,6.69,10.63" style="fill:none;stroke:#999;stroke-width:3" />
<path d="M598.46,18.17c1.19,0.37,3.37,0.45,4.56,0.37c7.47-0.53,15.25-1.41,30.61-2.17c1.98-0.1,3.17,0.18,4.17,0.36" style="fill:none;stroke:#999;stroke-width:3" />
<path d="M616.81,20.92c0.26,0.43,0.3,0.95,0.24,1.33c-0.36,2.21-3.5,8.18-6.35,11.15" style="fill:none;stroke:black;stroke-width:3" />
<circle cx="616.81" cy="20.92" r="5" stroke-width="0" fill="#FF2A00" opacity="0.7" />
<path d="M666.05,19.25c1.12,0.57,3.17,0.7,4.28,0.57c8.91-1.05,20.32-2.64,27.29-2.89c1.86-0.07,2.98,0.27,3.91,0.56" style="fill:none;stroke:#999;stroke-width:3" />
<path d="M679.9200000000001,21.75c0.76,0.5,1,2.75,0.86,3.75C679.25,36.75,671.0,74.75,668.0,84.98c-0.5,1.71,1.06,2.52,2.52,1.67c5.54-3.23,12.34-5.83,17.99-8.65" style="fill:none;stroke:#999;stroke-width:3" />
<path d="M678.24,39.04c0.87,0.21,1.79,0.69,2.64,0.5c2.39-0.54,11.91-2.65,14.27-3.29c1.85-0.5,2.85,1,2.66,2.53c-0.57,4.49-2.5,18.73-3.24,31.51c-1.07,18.45-3.32,24.02,27.16,24.02c28.02,0,27.75-1.32,27.75-13.54" style="fill:none;stroke:#999;stroke-width:3" />
<path d="M680.1,54.08c2.36,1.88,6.1,7.71,6.69,10.63" style="fill:none;stroke:#999;stroke-width:3" />
<path d="M707.46,18.17c1.19,0.37,3.37,0.45,4.56,0.37c7.47-0.53,15.25-1.41,30.61-2.17c1.98-0.1,3.17,0.18,4.17,0.36" style="fill:none;stroke:#999;stroke-width:3" />
<path d="M725.81,20.92c0.26,0.43,0.3,0.95,0.24,1.33c-0.36,2.21-3.5,8.18-6.35,11.15" style="fill:none;stroke:#999;stroke-width:3" />
<path d="M710.95,33.34c0.46,1.12,0.8,1.69,0.94,3.18c0.82,9.04,0.45,34.62,0.63,41.99" style="fill:none;stroke:black;stroke-width:3" />
<circle cx="710.95" cy="33.34" r="5" stroke-width="0" fill="#FF2A00" opacity="0.7" />
<path d="M775.05,19.25c1.12,0.57,3.17,0.7,4.28,0.57c8.91-1.05,20.32-2.64,27.29-2.89c1.86-0.07,2.98,0.27,3.91,0.56" style="fill:none;stroke:#999;stroke-width:3" />
<path d="M788.9200000000001,21.75c0.76,0.5,1,2.75,0.86,3.75C788.25,36.75,780.0,74.75,777.0,84.98c-0.5,1.71,1.06,2.52,2.52,1.67c5.54-3.23,12.34-5.83,17.99-8.65" style="fill:none;stroke:#999;stroke-width:3" />
<path d="M787.24,39.04c0.87,0.21,1.79,0.69,2.64,0.5c2.39-0.54,11.91-2.65,14.27-3.29c1.85-0.5,2.85,1,2.66,2.53c-0.57,4.49-2.5,18.73-3.24,31.51c-1.07,18.45-3.32,24.02,27.16,24.02c28.02,0,27.75-1.32,27.75-13.54" style="fill:none;stroke:#999;stroke-width:3" />
<path d="M789.1,54.08c2.36,1.88,6.1,7.71,6.69,10.63" style="fill:none;stroke:#999;stroke-width:3" />
<path d="M816.46,18.17c1.19,0.37,3.37,0.45,4.56,0.37c7.47-0.53,15.25-1.41,30.61-2.17c1.98-0.1,3.17,0.18,4.17,0.36" style="fill:none;stroke:#999;stroke-width:3" />
<path d="M834.81,20.92c0.26,0.43,0.3,0.95,0.24,1.33c-0.36,2.21-3.5,8.18-6.35,11.15" style="fill:none;stroke:#999;stroke-width:3" />
<path d="M819.95,33.34c0.46,1.12,0.8,1.69,0.94,3.18c0.82,9.04,0.45,34.62,0.63,41.99" style="fill:none;stroke:#999;stroke-width:3" />
<path d="M821.16,35.12c2.64-0.19,23.75-2.17,26.15-2.39c2-0.19,3.29,1.25,3.14,2.36c-0.31,2.24-0.61,30.39-0.86,42.32" style="fill:none;stroke:black;stroke-width:3" />
<circle cx="821.16" cy="35.12" r="5" stroke-width="0" fill="#FF2A00" opacity="0.7" />
<path d="M884.05,19.25c1.12,0.57,3.17,0.7,4.28,0.57c8.91-1.05,20.32-2.64,27.29-2.89c1.86-0.07,2.98,0.27,3.91,0.56" style="fill:none;stroke:#999;stroke-width:3" />
<path d="M897.9200000000001,21.75c0.76,0.5,1,2.75,0.86,3.75C897.25,36.75,889.0,74.75,886.0,84.98c-0.5,1.71,1.06,2.52,2.52,1.67c5.54-3.23,12.34-5.83,17.99-8.65" style="fill:none;stroke:#999;stroke-width:3" />
<path d="M896.24,39.04c0.87,0.21,1.79,0.69,2.64,0.5c2.39-0.54,11.91-2.65,14.27-3.29c1.85-0.5,2.85,1,2.66,2.53c-0.57,4.49-2.5,18.73-3.24,31.51c-1.07,18.45-3.32,24.02,27.16,24.02c28.02,0,27.75-1.32,27.75-13.54" style="fill:none;stroke:#999;stroke-width:3" />
<path d="M898.1,54.08c2.36,1.88,6.1,7.71,6.69,10.63" style="fill:none;stroke:#999;stroke-width:3" />
<path d="M925.46,18.17c1.19,0.37,3.37,0.45,4.56,0.37c7.47-0.53,15.25-1.41,30.61-2.17c1.98-0.1,3.17,0.18,4.17,0.36" style="fill:none;stroke:#999;stroke-width:3" />
<path d="M943.81,20.92c0.26,0.43,0.3,0.95,0.24,1.33c-0.36,2.21-3.5,8.18-6.35,11.15" style="fill:none;stroke:#999;stroke-width:3" />
<path d="M928.95,33.34c0.46,1.12,0.8,1.69,0.94,3.18c0.82,9.04,0.45,34.62,0.63,41.99" style="fill:none;stroke:#999;stroke-width:3" />
<path d="M930.16,35.12c2.64-0.19,23.75-2.17,26.15-2.39c2-0.19,3.29,1.25,3.14,2.36c-0.31,2.24-0.61,30.39-0.86,42.32" style="fill:none;stroke:#999;stroke-width:3" />
<path d="M930.77,54.34c10.73-0.84,21.27-1.83,27.6-1.71" style="fill:none;stroke:black;stroke-width:3" />
<circle cx="930.77" cy="54.34" r="5" stroke-width="0" fill="#FF2A00" opacity="0.7" />
<path d="M993.05,19.25c1.12,0.57,3.17,0.7,4.28,0.57c8.91-1.05,20.32-2.64,27.29-2.89c1.86-0.07,2.98,0.27,3.91,0.56" style="fill:none;stroke:#999;stroke-width:3" />
<path d="M1006.9200000000001,21.75c0.76,0.5,1,2.75,0.86,3.75C1006.25,36.75,998.0,74.75,995.0,84.98c-0.5,1.71,1.06,2.52,2.52,1.67c5.54-3.23,12.34-5.83,17.99-8.65" style="fill:none;stroke:#999;stroke-width:3" />
<path d="M1005.24,39.04c0.87,0.21,1.79,0.69,2.64,0.5c2.39-0.54,11.91-2.65,14.27-3.29c1.85-0.5,2.85,1,2.66,2.53c-0.57,4.49-2.5,18.73-3.24,31.51c-1.07,18.45-3.32,24.02,27.16,24.02c28.02,0,27.75-1.32,27.75-13.54" style="fill:none;stroke:#999;stroke-width:3" />
<path d="M1007.1,54.08c2.36,1.88,6.1,7.71,6.69,10.63" style="fill:none;stroke:#999;stroke-width:3" />
<path d="M1034.46,18.17c1.19,0.37,3.37,0.45,4.56,0.37c7.47-0.53,15.25-1.41,30.61-2.17c1.98-0.1,3.17,0.18,4.17,0.36" style="fill:none;stroke:#999;stroke-width:3" />
<path d="M1052.81,20.92c0.26,0.43,0.3,0.95,0.24,1.33c-0.36,2.21-3.5,8.18-6.35,11.15" style="fill:none;stroke:#999;stroke-width:3" />
<path d="M1037.95,33.34c0.46,1.12,0.8,1.69,0.94,3.18c0.82,9.04,0.45,34.62,0.63,41.99" style="fill:none;stroke:#999;stroke-width:3" />
<path d="M1039.1599999999999,35.12c2.64-0.19,23.75-2.17,26.15-2.39c2-0.19,3.29,1.25,3.14,2.36c-0.31,2.24-0.61,30.39-0.86,42.32" style="fill:none;stroke:#999;stroke-width:3" />
<path d="M1039.77,54.34c10.73-0.84,21.27-1.83,27.6-1.71" style="fill:none;stroke:#999;stroke-width:3" />
<path d="M1040.29,76.01c8.67-0.74,18.9-1.39,27.05-1.41" style="fill:none;stroke:black;stroke-width:3" />
<circle cx="1040.29" cy="76.01" r="5" stroke-width="0" fill="#FF2A00" opacity="0.7" />
</svg>