<svg width="763px" height="109px" viewBox="0 0 763px 109px" xmlns="http://www.w3.org/2000/svg" xmlns:xlink="http://www.w3.org/1999/xlink" xml:space="preserve" version="1.1"  baseProfile="full">
<line x1="1" y1="1" x2="762" y2="1" style="stroke:#ddd;stroke-width:2" />
<line x1="1" y1="1" x2="1" y2="108" style="stroke:#ddd;stroke-width:2" />
<line x1="1" y1="108" x2="762" y2="108" style="stroke:#ddd;stroke-width:2" />
<line x1="762" y1="1" x2="762" y2="108" style="stroke:#ddd;stroke-width:2" />
<line x1="109" y1="1" x2="109" y2="108" style="stroke:#ddd;stroke-width:2" />
<line x1="218" y1="1" x2="218" y2="108" style="stroke:#ddd;stroke-width:2" />
<line x1="327" y1="1" x2="327" y2="108" style="stroke:#ddd;stroke-width:2" />
<line x1="436" y1="1" x2="436" y2="108" style="stroke:#ddd;stroke-width:2" />
<line x1="545" y1="1" x2="545" y2="108" style="stroke:#ddd;stroke-width:2" />
<line x1="654" y1="1" x2="654" y2="108" style="stroke:#ddd;stroke-width:2" />
<line x1="1" y1="54" x2="762" y2="54" style="stroke:#ddd;stroke-width:2;stroke-dasharray:3 3" />
<line x1="55" y1="1" x2="55" y2="108" style="stroke:#ddd;stroke-width:2;stroke-dasharray:3 3" />
<line x1="164" y1="1" x2="164" y2="108" style="stroke:#ddd;stroke-width:2;stroke-dasharray:3 3" />
<line x1="273" y1="1" x2="273" y2="108" style="stroke:#ddd;stroke-width:2;stroke-dasharray:3 3" />
<line x1="382" y1="1" x2="382" y2="108" style="stroke:#ddd;stroke-width:2;stroke-dasharray:3 3" />
<line x1="491" y1="1" x2="491" y2="108" style="stroke:#ddd;stroke-width:2;stroke-dasharray:3 3" />
<line x1="600" y1="1" x2="600" y2="108" style="stroke:#ddd;stroke-width:2;stroke-dasharray:3 3" />
<line x1="709" y1="1" x2="709" y2="108" style="stroke:#ddd;stroke-width:2;stroke-dasharray:3 3" />
<path d="M29.83,13c3.58,2.88,7.67,7.75,10,12.75" style="fill:none;stroke:black;stroke-width:3" />
<circle cx="29.83" cy="13.0" r="5" stroke-width="0" fill="#FF2A00" opacity="0.7" />
<path d="M138.82999999999998,13c3.58,2.88,7.67,7.75,10,12.75" style="fill:none;stroke:#999;stroke-width:3" />
<path d="M122.83,38.26c2.93,0.6,5.84,0.55,8.71-0.14c6.53-1.51,20.79-5.09,23.5-5.84c3.32-0.91,5.16,0.98,3.15,3.71c-6.97,9.44-21.24,25.82-32.85,35.25" style="fill:none;stroke:black;stroke-width:3" />
<circle cx="122.83" cy="38.26" r="5" stroke-width="0" fill="#FF2A00" opacity="0.7" />
<path d="M247.82999999999998,13c3.58,2.88,7.67,7.75,10,12.75" style="fill:none;stroke:#999;stroke-width:3" />
<path d="M231.82999999999998,38.26c2.93,0.6,5.84,0.55,8.71-0.14c6.53-1.51,20.79-5.09,23.5-5.84c3.32-0.91,5.16,0.98,3.15,3.71c-6.97,9.44-21.24,25.82-32.85,35.25" style="fill:none;stroke:#999;stroke-width:3" />
<path d="M252.75,56.11c1.07,1.07,1.27,2.39,1.27,3.64c0,6.42,0.03,19.98,0.04,28.88c0.01,3.5,0.01,6.28,0.01,7.62" style="fill:none;stroke:black;stroke-width:3" />
<circle cx="252.75" cy="56.11" r="5" stroke-width="0" fill="#FF2A00" opacity="0.7" />
<path d="M356.83,13c3.58,2.88,7.67,7.75,10,12.75" style="fill:none;stroke:#999;stroke-width:3" />
<path d="M340.83,38.26c2.93,0.6,5.84,0.55,8.71-0.14c6.53-1.51,20.79-5.09,23.5-5.84c3.32-0.91,5.16,0.98,3.15,3.71c-6.97,9.44-21.24,25.82-32.85,35.25" style="fill:none;stroke:#999;stroke-width:3" />
<path d="M361.75,56.11c1.07,1.07,1.27,2.39,1.27,3.64c0,6.42,0.03,19.98,0.04,28.88c0.01,3.5,0.01,6.28,0.01,7.62" style="fill:none;stroke:#999;stroke-width:3" />
<path d="M366.58,53.5c4.78,3.06,9.15,7.65,13.25,13" style="fill:none;stroke:black;stroke-width:3" />
<circle cx="366.58" cy="53.5" r="5" stroke-width="0" fill="#FF2A00" opacity="0.7" />
<path d="M465.83,13c3.58,2.88,7.67,7.75,10,12.75" style="fill:none;stroke:#999;stroke-width:3" />
<path d="M449.83,38.26c2.93,0.6,5.84,0.55,8.71-0.14c6.53-1.51,20.79-5.09,23.5-5.84c3.32-0.91,5.16,0.98,3.15,3.71c-6.97,9.44-21.24,25.82-32.85,35.25" style="fill:none;stroke:#999;stroke-width:3" />
<path d="M470.75,56.11c1.07,1.07,1.27,2.39,1.27,3.64c0,6.42,0.03,19.98,0.04,28.88c0.01,3.5,0.01,6.28,0.01,7.62" style="fill:none;stroke:#999;stroke-width:3" />
<path d="M475.58,53.5c4.78,3.06,9.15,7.65,13.25,13" style="fill:none;stroke:#999;stroke-width:3" />
<path d="M498.92,18.56c2.29,0.57,4.56,0.65,6.81,0.25c5.68-0.83,12.9-1.81,17.56-2.89c3.45-0.79,5,1.05,4.01,3.73c-1.92,5.21-7.67,17.59-10.34,22.84" style="fill:none;stroke:black;stroke-width:3" />
<circle cx="498.92" cy="18.56" r="5" stroke-width="0" fill="#FF2A00" opacity="0.7" />
<path d="M574.8299999999999,13c3.58,2.88,7.67,7.75,10,12.75" style="fill:none;stroke:#999;stroke-width:3" />
<path d="M558.8299999999999,38.26c2.93,0.6,5.84,0.55,8.71-0.14c6.53-1.51,20.79-5.09,23.5-5.84c3.32-0.91,5.16,0.98,3.15,3.71c-6.97,9.44-21.24,25.82-32.85,35.25" style="fill:none;stroke:#999;stroke-width:3" />
<path d="M579.75,56.11c1.07,1.07,1.27,2.39,1.27,3.64c0,6.42,0.03,19.98,0.04,28.88c0.01,3.5,0.01,6.28,0.01,7.62" style="fill:none;stroke:#999;stroke-width:3" />
<path d="M584.5799999999999,53.5c4.78,3.06,9.15,7.65,13.25,13" style="fill:none;stroke:#999;stroke-width:3" />
<path d="M607.9200000000001,18.56c2.29,0.57,4.56,0.65,6.81,0.25c5.68-0.83,12.9-1.81,17.56-2.89c3.45-0.79,5,1.05,4.01,3.73c-1.92,5.21-7.67,17.59-10.34,22.84" style="fill:none;stroke:#999;stroke-width:3" />
<path d="M626.0,43.25C645.62,56.38,644.25,88,628.73,77.16" style="fill:none;stroke:black;stroke-width:3" />
<circle cx="626.0" cy="43.25" r="5" stroke-width="0" fill="#FF2A00" opacity="0.7" />
<path d="M683.8299999999999,13c3.58,2.88,7.67,7.75,10,12.75" style="fill:none;stroke:#999;stroke-width:3" />
<path d="M667.8299999999999,38.26c2.93,0.6,5.84,0.55,8.71-0.14c6.53-1.51,20.79-5.09,23.5-5.84c3.32-0.91,5.16,0.98,3.15,3.71c-6.97,9.44-21.24,25.82-32.85,35.25" style="fill:none;stroke:#999;stroke-width:3" />
<path d="M688.75,56.11c1.07,1.07,1.27,2.39,1.27,3.64c0,6.42,0.03,19.98,0.04,28.88c0.01,3.5,0.01,6.28,0.01,7.62" style="fill:none;stroke:#999;stroke-width:3" />
<path d="M693.5799999999999,53.5c4.78,3.06,9.15,7.65,13.25,13" style="fill:none;stroke:#999;stroke-width:3" />
<path d="M716.9200000000001,18.56c2.29,0.57,4.56,0.65,6.81,0.25c5.68-0.83,12.9-1.81,17.56-2.89c3.45-0.79,5,1.05,4.01,3.73c-1.92,5.21-7.67,17.59-10.34,22.84" style="fill:none;stroke:#999;stroke-width:3" />
<path d="M735.0,43.25C754.62,56.38,753.25,88,737.73,77.16" style="fill:none;stroke:#999;stroke-width:3" />
<path d="M719.25,19.75c0.81,0.81,1.13,2.14,1.13,3.87c0,9.75-0.01,43.33-0.02,61.63c0,5.64,0,9.78,0,11.25" style="fill:none;stroke:black;stroke-width:3" />
<circle cx="719.25" cy="19.75" r="5" stroke-width="0" fill="#FF2A00" opacity="0.7" />
</svg>