<svg width="1090px" height="109px" viewBox="0 0 1090px 109px" xmlns="http://www.w3.org/2000/svg" xmlns:xlink="http://www.w3.org/1999/xlink" xml:space="preserve" version="1.1"  baseProfile="full">
<line x1="1" y1="1" x2="1089" y2="1" style="stroke:#ddd;stroke-width:2" />
<line x1="1" y1="1" x2="1" y2="108" style="stroke:#ddd;stroke-width:2" />
<line x1="1" y1="108" x2="1089" y2="108" style="stroke:#ddd;stroke-width:2" />
<line x1="1089" y1="1" x2="1089" y2="108" style="stroke:#ddd;stroke-width:2" />
<line x1="109" y1="1" x2="109" y2="108" style="stroke:#ddd;stroke-width:2" />
<line x1="218" y1="1" x2="218" y2="108" style="stroke:#ddd;stroke-width:2" />
<line x1="327" y1="1" x2="327" y2="108" style="stroke:#ddd;stroke-width:2" />
<line x1="436" y1="1" x2="436" y2="108" style="stroke:#ddd;stroke-width:2" />
<line x1="545" y1="1" x2="545" y2="108" style="stroke:#ddd;stroke-width:2" />
<line x1="654" y1="1" x2="654" y2="108" style="stroke:#ddd;stroke-width:2" />
<line x1="763" y1="1" x2="763" y2="108" style="stroke:#ddd;stroke-width:2" />
<line x1="872" y1="1" x2="872" y2="108" style="stroke:#ddd;stroke-width:2" />
<line x1="981" y1="1" x2="981" y2="108" style="stroke:#ddd;stroke-width:2" />
<line x1="1" y1="54" x2="1089" y2="54" style="stroke:#ddd;stroke-width:2;stroke-dasharray:3 3" />
<line x1="55" y1="1" x2="55" y2="108" style="stroke:#ddd;stroke-width:2;stroke-dasharray:3 3" />
<line x1="164" y1="1" x2="164" y2="108" style="stroke:#ddd;stroke-width:2;stroke-dasharray:3 3" />
<line x1="273" y1="1" x2="273" y2="108" style="stroke:#ddd;stroke-width:2;stroke-dasharray:3 3" />
<line x1="382" y1="1" x2="382" y2="108" style="stroke:#ddd;stroke-width:2;stroke-dasharray:3 3" />
<line x1="491" y1="1" x2="491" y2="108" style="stroke:#ddd;stroke-width:2;stroke-dasharray:3 3" />
<line x1="600" y1="1" x2="600" y2="108" style="stroke:#ddd;stroke-width:2;stroke-dasharray:3 3" />
<line x1="709" y1="1" x2="709" y2="108" style="stroke:#ddd;stroke-width:2;stroke-dasharray:3 3" />
<line x1="818" y1="1" x2="818" y2="108" style="stroke:#ddd;stroke-width:2;stroke-dasharray:3 3" />
<line x1="927" y1="1" x2="927" y2="108" style="stroke:#ddd;stroke-width:2;stroke-dasharray:3 3" />
<line x1="1036" y1="1" x2="1036" y2="108" style="stroke:#ddd;stroke-width:2;stroke-dasharray:3 3" />
<path d="M39.25,14.75c0.07,0.34,0.14,0.87-0.14,1.35c-1.63,2.84-11.02,9.08-23.86,12.9" style="fill:none;stroke:black;stroke-width:3" />
<circle cx="39.25" cy="14.75" r="5" stroke-width="0" fill="#FF2A00" opacity="0.7" />
<path d="M148.25,14.75c0.07,0.34,0.14,0.87-0.14,1.35c-1.63,2.84-11.02,9.08-23.86,12.9" style="fill:none;stroke:#999;stroke-width:3" />
<path d="M120.37,43.34c0.35,0.23,1.27,0.59,2.19,0.67c2.54,0.22,23.34-3.35,29.69-4.47c0.92-0.16,1.15-0.22,1.73,0" style="fill:none;stroke:black;stroke-width:3" />
<circle cx="120.37" cy="43.34" r="5" stroke-width="0" fill="#FF2A00" opacity="0.7" />
<path d="M257.25,14.75c0.07,0.34,0.14,0.87-0.14,1.35c-1.63,2.84-11.02,9.08-23.86,12.9" style="fill:none;stroke:#999;stroke-width:3" />
<path d="M229.37,43.34c0.35,0.23,1.27,0.59,2.19,0.67c2.54,0.22,23.34-3.35,29.69-4.47c0.92-0.16,1.15-0.22,1.73,0" style="fill:none;stroke:#999;stroke-width:3" />
<path d="M249.75,25.66c0.44,0.5,0.71,2.26,0.8,3.27c0.09,1.01,0,60.79-0.09,67.08" style="fill:none;stroke:black;stroke-width:3" />
<circle cx="249.75" cy="25.66" r="5" stroke-width="0" fill="#FF2A00" opacity="0.7" />
<path d="M366.25,14.75c0.07,0.34,0.14,0.87-0.14,1.35c-1.63,2.84-11.02,9.08-23.86,12.9" style="fill:none;stroke:#999;stroke-width:3" />
<path d="M338.37,43.34c0.35,0.23,1.27,0.59,2.19,0.67c2.54,0.22,23.34-3.35,29.69-4.47c0.92-0.16,1.15-0.22,1.73,0" style="fill:none;stroke:#999;stroke-width:3" />
<path d="M358.75,25.66c0.44,0.5,0.71,2.26,0.8,3.27c0.09,1.01,0,60.79-0.09,67.08" style="fill:none;stroke:#999;stroke-width:3" />
<path d="M359.43,42.47C355.44,53.46,348.78,67.01,339.75,76" style="fill:none;stroke:black;stroke-width:3" />
<circle cx="359.43" cy="42.47" r="5" stroke-width="0" fill="#FF2A00" opacity="0.7" />
<path d="M475.25,14.75c0.07,0.34,0.14,0.87-0.14,1.35c-1.63,2.84-11.02,9.08-23.86,12.9" style="fill:none;stroke:#999;stroke-width:3" />
<path d="M447.37,43.34c0.35,0.23,1.27,0.59,2.19,0.67c2.54,0.22,23.34-3.35,29.69-4.47c0.92-0.16,1.15-0.22,1.73,0" style="fill:none;stroke:#999;stroke-width:3" />
<path d="M467.75,25.66c0.44,0.5,0.71,2.26,0.8,3.27c0.09,1.01,0,60.79-0.09,67.08" style="fill:none;stroke:#999;stroke-width:3" />
<path d="M468.43,42.47C464.44,53.46,457.78,67.01,448.75,76" style="fill:none;stroke:#999;stroke-width:3" />
<path d="M471.25,50.75c3.04,2.57,5.61,7.7,7.25,11" style="fill:none;stroke:black;stroke-width:3" />
<circle cx="471.25" cy="50.75" r="5" stroke-width="0" fill="#FF2A00" opacity="0.7" />
<path d="M584.25,14.75c0.07,0.34,0.14,0.87-0.14,1.35c-1.63,2.84-11.02,9.08-23.86,12.9" style="fill:none;stroke:#999;stroke-width:3" />
<path d="M556.37,43.34c0.35,0.23,1.27,0.59,2.19,0.67c2.54,0.22,23.34-3.35,29.69-4.47c0.92-0.16,1.15-0.22,1.73,0" style="fill:none;stroke:#999;stroke-width:3" />
<path d="M576.75,25.66c0.44,0.5,0.71,2.26,0.8,3.27c0.09,1.01,0,60.79-0.09,67.08" style="fill:none;stroke:#999;stroke-width:3" />
<path d="M577.4300000000001,42.47C573.44,53.46,566.78,67.01,557.75,76" style="fill:none;stroke:#999;stroke-width:3" />
<path d="M580.25,50.75c3.04,2.57,5.61,7.7,7.25,11" style="fill:none;stroke:#999;stroke-width:3" />
<path d="M595.26,18.9c0.71,0.25,3.13,0.26,3.84,0.23C606.0,18.75,624.0,15.98,632.3199999999999,15.49c1.17-0.07,3.64,0.21,4.22,0.34" style="fill:none;stroke:black;stroke-width:3" />
<circle cx="595.26" cy="18.9" r="5" stroke-width="0" fill="#FF2A00" opacity="0.7" />
<path d="M693.25,14.75c0.07,0.34,0.14,0.87-0.14,1.35c-1.63,2.84-11.02,9.08-23.86,12.9" style="fill:none;stroke:#999;stroke-width:3" />
<path d="M665.37,43.34c0.35,0.23,1.27,0.59,2.19,0.67c2.54,0.22,23.34-3.35,29.69-4.47c0.92-0.16,1.15-0.22,1.73,0" style="fill:none;stroke:#999;stroke-width:3" />
<path d="M685.75,25.66c0.44,0.5,0.71,2.26,0.8,3.27c0.09,1.01,0,60.79-0.09,67.08" style="fill:none;stroke:#999;stroke-width:3" />
<path d="M686.4300000000001,42.47C682.44,53.46,675.78,67.01,666.75,76" style="fill:none;stroke:#999;stroke-width:3" />
<path d="M689.25,50.75c3.04,2.57,5.61,7.7,7.25,11" style="fill:none;stroke:#999;stroke-width:3" />
<path d="M704.26,18.9c0.71,0.25,3.13,0.26,3.84,0.23C715.0,18.75,733.0,15.98,741.3199999999999,15.49c1.17-0.07,3.64,0.21,4.22,0.34" style="fill:none;stroke:#999;stroke-width:3" />
<path d="M705.23,30.92c3.55,3.01,7.47,9.32,8.36,14" style="fill:none;stroke:black;stroke-width:3" />
<circle cx="705.23" cy="30.92" r="5" stroke-width="0" fill="#FF2A00" opacity="0.7" />
<path d="M802.25,14.75c0.07,0.34,0.14,0.87-0.14,1.35c-1.63,2.84-11.02,9.08-23.86,12.9" style="fill:none;stroke:#999;stroke-width:3" />
<path d="M774.37,43.34c0.35,0.23,1.27,0.59,2.19,0.67c2.54,0.22,23.34-3.35,29.69-4.47c0.92-0.16,1.15-0.22,1.73,0" style="fill:none;stroke:#999;stroke-width:3" />
<path d="M794.75,25.66c0.44,0.5,0.71,2.26,0.8,3.27c0.09,1.01,0,60.79-0.09,67.08" style="fill:none;stroke:#999;stroke-width:3" />
<path d="M795.4300000000001,42.47C791.44,53.46,784.78,67.01,775.75,76" style="fill:none;stroke:#999;stroke-width:3" />
<path d="M798.25,50.75c3.04,2.57,5.61,7.7,7.25,11" style="fill:none;stroke:#999;stroke-width:3" />
<path d="M813.26,18.9c0.71,0.25,3.13,0.26,3.84,0.23C824.0,18.75,842.0,15.98,850.3199999999999,15.49c1.17-0.07,3.64,0.21,4.22,0.34" style="fill:none;stroke:#999;stroke-width:3" />
<path d="M814.23,30.92c3.55,3.01,7.47,9.32,8.36,14" style="fill:none;stroke:#999;stroke-width:3" />
<path d="M856.08,25.48c0.03,0.46,0.07,1.19-0.06,1.85c-0.79,3.9-5.3,12.47-11.47,17.71" style="fill:none;stroke:black;stroke-width:3" />
<circle cx="856.08" cy="25.48" r="5" stroke-width="0" fill="#FF2A00" opacity="0.7" />
<path d="M911.25,14.75c0.07,0.34,0.14,0.87-0.14,1.35c-1.63,2.84-11.02,9.08-23.86,12.9" style="fill:none;stroke:#999;stroke-width:3" />
<path d="M883.37,43.34c0.35,0.23,1.27,0.59,2.19,0.67c2.54,0.22,23.34-3.35,29.69-4.47c0.92-0.16,1.15-0.22,1.73,0" style="fill:none;stroke:#999;stroke-width:3" />
<path d="M903.75,25.66c0.44,0.5,0.71,2.26,0.8,3.27c0.09,1.01,0,60.79-0.09,67.08" style="fill:none;stroke:#999;stroke-width:3" />
<path d="M904.4300000000001,42.47C900.44,53.46,893.78,67.01,884.75,76" style="fill:none;stroke:#999;stroke-width:3" />
<path d="M907.25,50.75c3.04,2.57,5.61,7.7,7.25,11" style="fill:none;stroke:#999;stroke-width:3" />
<path d="M922.26,18.9c0.71,0.25,3.13,0.26,3.84,0.23C933.0,18.75,951.0,15.98,959.3199999999999,15.49c1.17-0.07,3.64,0.21,4.22,0.34" style="fill:none;stroke:#999;stroke-width:3" />
<path d="M923.23,30.92c3.55,3.01,7.47,9.32,8.36,14" style="fill:none;stroke:#999;stroke-width:3" />
<path d="M965.08,25.48c0.03,0.46,0.07,1.19-0.06,1.85c-0.79,3.9-5.3,12.47-11.47,17.71" style="fill:none;stroke:#999;stroke-width:3" />
<path d="M918.5,53.72c1.14,0.4,3.23,0.45,4.37,0.4c12.63-0.62,29.63-1.87,44.88-3.23c1.89-0.17,3.04,0.19,3.99,0.39" style="fill:none;stroke:black;stroke-width:3" />
<circle cx="918.5" cy="53.72" r="5" stroke-width="0" fill="#FF2A00" opacity="0.7" />
<path d="M1020.25,14.75c0.07,0.34,0.14,0.87-0.14,1.35c-1.63,2.84-11.02,9.08-23.86,12.9" style="fill:none;stroke:#999;stroke-width:3" />
<path d="M992.37,43.34c0.35,0.23,1.27,0.59,2.19,0.67c2.54,0.22,23.34-3.35,29.69-4.47c0.92-0.16,1.15-0.22,1.73,0" style="fill:none;stroke:#999;stroke-width:3" />
<path d="M1012.75,25.66c0.44,0.5,0.71,2.26,0.8,3.27c0.09,1.01,0,60.79-0.09,67.08" style="fill:none;stroke:#999;stroke-width:3" />
<path d="M1013.4300000000001,42.47C1009.44,53.46,1002.78,67.01,993.75,76" style="fill:none;stroke:#999;stroke-width:3" />
<path d="M1016.25,50.75c3.04,2.57,5.61,7.7,7.25,11" style="fill:none;stroke:#999;stroke-width:3" />
<path d="M1031.26,18.9c0.71,0.25,3.13,0.26,3.84,0.23C1042.0,18.75,1060.0,15.98,1068.32,15.49c1.17-0.07,3.64,0.21,4.22,0.34" style="fill:none;stroke:#999;stroke-width:3" />
<path d="M1032.23,30.92c3.55,3.01,7.47,9.32,8.36,14" style="fill:none;stroke:#999;stroke-width:3" />
<path d="M1074.08,25.48c0.03,0.46,0.07,1.19-0.06,1.85c-0.79,3.9-5.3,12.47-11.47,17.71" style="fill:none;stroke:#999;stroke-width:3" />
<path d="M1027.5,53.72c1.14,0.4,3.23,0.45,4.37,0.4c12.63-0.62,29.63-1.87,44.88-3.23c1.89-0.17,3.04,0.19,3.99,0.39" style="fill:none;stroke:#999;stroke-width:3" />
<path d="M1051.35,20.32c0.41,0.47,1.26,3.49,1.34,4.42c0.08,0.93-0.05,65.57-0.13,71.39" style="fill:none;stroke:black;stroke-width:3" />
<circle cx="1051.35" cy="20.32" r="5" stroke-width="0" fill="#FF2A00" opacity="0.7" />
</svg>