<svg width="2071px" height="109px" viewBox="0 0 2071px 109px" xmlns="http://www.w3.org/2000/svg" xmlns:xlink="http://www.w3.org/1999/xlink" xml:space="preserve" version="1.1"  baseProfile="full">
<line x1="1" y1="1" x2="2070" y2="1" style="stroke:#ddd;stroke-width:2" />
<line x1="1" y1="1" x2="1" y2="108" style="stroke:#ddd;stroke-width:2" />
<line x1="1" y1="108" x2="2070" y2="108" style="stroke:#ddd;stroke-width:2" />
<line x1="2070" y1="1" x2="2070" y2="108" style="stroke:#ddd;stroke-width:2" />
<line x1="109" y1="1" x2="109" y2="108" style="stroke:#ddd;stroke-width:2" />
<line x1="218" y1="1" x2="218" y2="108" style="stroke:#ddd;stroke-width:2" />
<line x1="327" y1="1" x2="327" y2="108" style="stroke:#ddd;stroke-width:2" />
<line x1="436" y1="1" x2="436" y2="108" style="stroke:#ddd;stroke-width:2" />
<line x1="545" y1="1" x2="545" y2="108" style="stroke:#ddd;stroke-width:2" />
<line x1="654" y1="1" x2="654" y2="108" style="stroke:#ddd;stroke-width:2" />
<line x1="763" y1="1" x2="763" y2="108" style="stroke:#ddd;stroke-width:2" />
<line x1="872" y1="1" x2="872" y2="108" style="stroke:#ddd;stroke-width:2" />
<line x1="981" y1="1" x2="981" y2="108" style="stroke:#ddd;stroke-width:2" />
<line x1="1090" y1="1" x2="1090" y2="108" style="stroke:#ddd;stroke-width:2" />
<line x1="1199" y1="1" x2="1199" y2="108" style="stroke:#ddd;stroke-width:2" />
<line x1="1308" y1="1" x2="1308" y2="108" style="stroke:#ddd;stroke-width:2" />
<line x1="1417" y1="1" x2="1417" y2="108" style="stroke:#ddd;stroke-width:2" />
<line x1="1526" y1="1" x2="1526" y2="108" style="stroke:#ddd;stroke-width:2" />
<line x1="1635" y1="1" x2="1635" y2="108" style="stroke:#ddd;stroke-width:2" />
<line x1="1744" y1="1" x2="1744" y2="108" style="stroke:#ddd;stroke-width:2" />
<line x1="1853" y1="1" x2="1853" y2="108" style="stroke:#ddd;stroke-width:2" />
<line x1="1962" y1="1" x2="1962" y2="108" style="stroke:#ddd;stroke-width:2" />
<line x1="1" y1="54" x2="2070" y2="54" style="stroke:#ddd;stroke-width:2;stroke-dasharray:3 3" />
<line x1="55" y1="1" x2="55" y2="108" style="stroke:#ddd;stroke-width:2;stroke-dasharray:3 3" />
<line x1="164" y1="1" x2="164" y2="108" style="stroke:#ddd;stroke-width:2;stroke-dasharray:3 3" />
<line x1="273" y1="1" x2="273" y2="108" style="stroke:#ddd;stroke-width:2;stroke-dasharray:3 3" />
<line x1="382" y1="1" x2="382" y2="108" style="stroke:#ddd;stroke-width:2;stroke-dasharray:3 3" />
<line x1="491" y1="1" x2="491" y2="108" style="stroke:#ddd;stroke-width:2;stroke-dasharray:3 3" />
<line x1="600" y1="1" x2="600" y2="108" style="stroke:#ddd;stroke-width:2;stroke-dasharray:3 3" />
<line x1="709" y1="1" x2="709" y2="108" style="stroke:#ddd;stroke-width:2;stroke-dasharray:3 3" />
<line x1="818" y1="1" x2="818" y2="108" style="stroke:#ddd;stroke-width:2;stroke-dasharray:3 3" />
<line x1="927" y1="1" x2="927" y2="108" style="stroke:#ddd;stroke-width:2;stroke-dasharray:3 3" />
<line x1="1036" y1="1" x2="1036" y2="108" style="stroke:#ddd;stroke-width:2;stroke-dasharray:3 3" />
<line x1="1145" y1="1" x2="1145" y2="108" style="stroke:#ddd;stroke-width:2;stroke-dasharray:3 3" />
<line x1="1254" y1="1" x2="1254" y2="108" style="stroke:#ddd;stroke-width:2;stroke-dasharray:3 3" />
<line x1="1363" y1="1" x2="1363" y2="108" style="stroke:#ddd;stroke-width:2;stroke-dasharray:3 3" />
<line x1="1472" y1="1" x2="1472" y2="108" style="stroke:#ddd;stroke-width:2;stroke-dasharray:3 3" />
<line x1="1581" y1="1" x2="1581" y2="108" style="stroke:#ddd;stroke-width:2;stroke-dasharray:3 3" />
<line x1="1690" y1="1" x2="1690" y2="108" style="stroke:#ddd;stroke-width:2;stroke-dasharray:3 3" />
<line x1="1799" y1="1" x2="1799" y2="108" style="stroke:#ddd;stroke-width:2;stroke-dasharray:3 3" />
<line x1="1908" y1="1" x2="1908" y2="108" style="stroke:#ddd;stroke-width:2;stroke-dasharray:3 3" />
<line x1="2017" y1="1" x2="2017" y2="108" style="stroke:#ddd;stroke-width:2;stroke-dasharray:3 3" />
<path d="M30.5,11.75c0.04,0.44,0.08,1.12-0.07,1.75c-0.89,3.69-5.97,11.79-12.93,16.75" style="fill:none;stroke:black;stroke-width:3" />
<circle cx="30.5" cy="11.75" r="5" stroke-width="0" fill="#FF2A00" opacity="0.7" />
<path d="M139.5,11.75c0.04,0.44,0.08,1.12-0.07,1.75c-0.89,3.69-5.97,11.79-12.93,16.75" style="fill:none;stroke:#999;stroke-width:3" />
<path d="M138.23,20.79c3.71,0,16.11-2.29,20.27-2.29" style="fill:none;stroke:black;stroke-width:3" />
<circle cx="138.23" cy="20.79" r="5" stroke-width="0" fill="#FF2A00" opacity="0.7" />
<path d="M248.5,11.75c0.04,0.44,0.08,1.12-0.07,1.75c-0.89,3.69-5.97,11.79-12.93,16.75" style="fill:none;stroke:#999;stroke-width:3" />
<path d="M247.23,20.79c3.71,0,16.11-2.29,20.27-2.29" style="fill:none;stroke:#999;stroke-width:3" />
<path d="M253.52,21.83c1.6,1.44,4.14,5.9,4.54,8.13" style="fill:none;stroke:black;stroke-width:3" />
<circle cx="253.52" cy="21.83" r="5" stroke-width="0" fill="#FF2A00" opacity="0.7" />
<path d="M357.5,11.75c0.04,0.44,0.08,1.12-0.07,1.75c-0.89,3.69-5.97,11.79-12.93,16.75" style="fill:none;stroke:#999;stroke-width:3" />
<path d="M356.23,20.79c3.71,0,16.11-2.29,20.27-2.29" style="fill:none;stroke:#999;stroke-width:3" />
<path d="M362.52,21.83c1.6,1.44,4.14,5.9,4.54,8.13" style="fill:none;stroke:#999;stroke-width:3" />
<path d="M388.75,11c0.03,0.31,0.11,0.81-0.05,1.25c-1.2,3.28-4.53,7.96-8.95,12" style="fill:none;stroke:black;stroke-width:3" />
<circle cx="388.75" cy="11.0" r="5" stroke-width="0" fill="#FF2A00" opacity="0.7" />
<path d="M466.5,11.75c0.04,0.44,0.08,1.12-0.07,1.75c-0.89,3.69-5.97,11.79-12.93,16.75" style="fill:none;stroke:#999;stroke-width:3" />
<path d="M465.23,20.79c3.71,0,16.11-2.29,20.27-2.29" style="fill:none;stroke:#999;stroke-width:3" />
<path d="M471.52,21.83c1.6,1.44,4.14,5.9,4.54,8.13" style="fill:none;stroke:#999;stroke-width:3" />
<path d="M497.75,11c0.03,0.31,0.11,0.81-0.05,1.25c-1.2,3.28-4.53,7.96-8.95,12" style="fill:none;stroke:#999;stroke-width:3" />
<path d="M495.98,19.16c4.73,0,22.08-3.57,27.4-3.57" style="fill:none;stroke:black;stroke-width:3" />
<circle cx="495.98" cy="19.16" r="5" stroke-width="0" fill="#FF2A00" opacity="0.7" />
<path d="M575.5,11.75c0.04,0.44,0.08,1.12-0.07,1.75c-0.89,3.69-5.97,11.79-12.93,16.75" style="fill:none;stroke:#999;stroke-width:3" />
<path d="M574.23,20.79c3.71,0,16.11-2.29,20.27-2.29" style="fill:none;stroke:#999;stroke-width:3" />
<path d="M580.52,21.83c1.6,1.44,4.14,5.9,4.54,8.13" style="fill:none;stroke:#999;stroke-width:3" />
<path d="M606.75,11c0.03,0.31,0.11,0.81-0.05,1.25c-1.2,3.28-4.53,7.96-8.95,12" style="fill:none;stroke:#999;stroke-width:3" />
<path d="M604.98,19.16c4.73,0,22.08-3.57,27.4-3.57" style="fill:none;stroke:#999;stroke-width:3" />
<path d="M618.78,18.25c0.01,0.24,0.03,0.61-0.03,0.95c-0.36,2-2.42,6.37-5.25,9.05" style="fill:none;stroke:black;stroke-width:3" />
<circle cx="618.78" cy="18.25" r="5" stroke-width="0" fill="#FF2A00" opacity="0.7" />
<path d="M684.5,11.75c0.04,0.44,0.08,1.12-0.07,1.75c-0.89,3.69-5.97,11.79-12.93,16.75" style="fill:none;stroke:#999;stroke-width:3" />
<path d="M683.23,20.79c3.71,0,16.11-2.29,20.27-2.29" style="fill:none;stroke:#999;stroke-width:3" />
<path d="M689.52,21.83c1.6,1.44,4.14,5.9,4.54,8.13" style="fill:none;stroke:#999;stroke-width:3" />
<path d="M715.75,11c0.03,0.31,0.11,0.81-0.05,1.25c-1.2,3.28-4.53,7.96-8.95,12" style="fill:none;stroke:#999;stroke-width:3" />
<path d="M713.98,19.16c4.73,0,22.08-3.57,27.4-3.57" style="fill:none;stroke:#999;stroke-width:3" />
<path d="M727.78,18.25c0.01,0.24,0.03,0.61-0.03,0.95c-0.36,2-2.42,6.37-5.25,9.05" style="fill:none;stroke:#999;stroke-width:3" />
<path d="M705.99,26.38c0.6,0.27,1.86,2.01,1.98,2.54c0.12,0.54,0.06,3.24-0.06,6.59" style="fill:none;stroke:black;stroke-width:3" />
<circle cx="705.99" cy="26.38" r="5" stroke-width="0" fill="#FF2A00" opacity="0.7" />
<path d="M793.5,11.75c0.04,0.44,0.08,1.12-0.07,1.75c-0.89,3.69-5.97,11.79-12.93,16.75" style="fill:none;stroke:#999;stroke-width:3" />
<path d="M792.23,20.79c3.71,0,16.11-2.29,20.27-2.29" style="fill:none;stroke:#999;stroke-width:3" />
<path d="M798.52,21.83c1.6,1.44,4.14,5.9,4.54,8.13" style="fill:none;stroke:#999;stroke-width:3" />
<path d="M824.75,11c0.03,0.31,0.11,0.81-0.05,1.25c-1.2,3.28-4.53,7.96-8.95,12" style="fill:none;stroke:#999;stroke-width:3" />
<path d="M822.98,19.16c4.73,0,22.08-3.57,27.4-3.57" style="fill:none;stroke:#999;stroke-width:3" />
<path d="M836.78,18.25c0.01,0.24,0.03,0.61-0.03,0.95c-0.36,2-2.42,6.37-5.25,9.05" style="fill:none;stroke:#999;stroke-width:3" />
<path d="M814.99,26.38c0.6,0.27,1.86,2.01,1.98,2.54c0.12,0.54,0.06,3.24-0.06,6.59" style="fill:none;stroke:#999;stroke-width:3" />
<path d="M787.07,37.59c1.44,0.45,4.09,0.53,5.53,0.45c15-0.76,35.89-3.8,49.48-4.81c2.39-0.18,3.84,0.22,5.05,0.45" style="fill:none;stroke:black;stroke-width:3" />
<circle cx="787.07" cy="37.59" r="5" stroke-width="0" fill="#FF2A00" opacity="0.7" />
<path d="M902.5,11.75c0.04,0.44,0.08,1.12-0.07,1.75c-0.89,3.69-5.97,11.79-12.93,16.75" style="fill:none;stroke:#999;stroke-width:3" />
<path d="M901.23,20.79c3.71,0,16.11-2.29,20.27-2.29" style="fill:none;stroke:#999;stroke-width:3" />
<path d="M907.52,21.83c1.6,1.44,4.14,5.9,4.54,8.13" style="fill:none;stroke:#999;stroke-width:3" />
<path d="M933.75,11c0.03,0.31,0.11,0.81-0.05,1.25c-1.2,3.28-4.53,7.96-8.95,12" style="fill:none;stroke:#999;stroke-width:3" />
<path d="M931.98,19.16c4.73,0,22.08-3.57,27.4-3.57" style="fill:none;stroke:#999;stroke-width:3" />
<path d="M945.78,18.25c0.01,0.24,0.03,0.61-0.03,0.95c-0.36,2-2.42,6.37-5.25,9.05" style="fill:none;stroke:#999;stroke-width:3" />
<path d="M923.99,26.38c0.6,0.27,1.86,2.01,1.98,2.54c0.12,0.54,0.06,3.24-0.06,6.59" style="fill:none;stroke:#999;stroke-width:3" />
<path d="M896.07,37.59c1.44,0.45,4.09,0.53,5.53,0.45c15-0.76,35.89-3.8,49.48-4.81c2.39-0.18,3.84,0.22,5.05,0.45" style="fill:none;stroke:#999;stroke-width:3" />
<path d="M900.69,39.92c0.04,1.28,0.09,3.3-0.08,5.14c-1.02,10.84-3.32,37.14-14.33,48.81" style="fill:none;stroke:black;stroke-width:3" />
<circle cx="900.69" cy="39.92" r="5" stroke-width="0" fill="#FF2A00" opacity="0.7" />
<path d="M1011.5,11.75c0.04,0.44,0.08,1.12-0.07,1.75c-0.89,3.69-5.97,11.79-12.93,16.75" style="fill:none;stroke:#999;stroke-width:3" />
<path d="M1010.23,20.79c3.71,0,16.11-2.29,20.27-2.29" style="fill:none;stroke:#999;stroke-width:3" />
<path d="M1016.52,21.83c1.6,1.44,4.14,5.9,4.54,8.13" style="fill:none;stroke:#999;stroke-width:3" />
<path d="M1042.75,11c0.03,0.31,0.11,0.81-0.05,1.25c-1.2,3.28-4.53,7.96-8.95,12" style="fill:none;stroke:#999;stroke-width:3" />
<path d="M1040.98,19.16c4.73,0,22.08-3.57,27.4-3.57" style="fill:none;stroke:#999;stroke-width:3" />
<path d="M1054.78,18.25c0.01,0.24,0.03,0.61-0.03,0.95c-0.36,2-2.42,6.37-5.25,9.05" style="fill:none;stroke:#999;stroke-width:3" />
<path d="M1032.99,26.38c0.6,0.27,1.86,2.01,1.98,2.54c0.12,0.54,0.06,3.24-0.06,6.59" style="fill:none;stroke:#999;stroke-width:3" />
<path d="M1005.07,37.59c1.44,0.45,4.09,0.53,5.53,0.45c15-0.76,35.89-3.8,49.48-4.81c2.39-0.18,3.84,0.22,5.05,0.45" style="fill:none;stroke:#999;stroke-width:3" />
<path d="M1009.69,39.92c0.04,1.28,0.09,3.3-0.08,5.14c-1.02,10.84-3.32,37.14-14.33,48.81" style="fill:none;stroke:#999;stroke-width:3" />
<path d="M1023.63,39.9c2.25,0.95,5.8,3.89,6.37,5.36" style="fill:none;stroke:black;stroke-width:3" />
<circle cx="1023.63" cy="39.9" r="5" stroke-width="0" fill="#FF2A00" opacity="0.7" />
<path d="M1120.5,11.75c0.04,0.44,0.08,1.12-0.07,1.75c-0.89,3.69-5.97,11.79-12.93,16.75" style="fill:none;stroke:#999;stroke-width:3" />
<path d="M1119.23,20.79c3.71,0,16.11-2.29,20.27-2.29" style="fill:none;stroke:#999;stroke-width:3" />
<path d="M1125.52,21.83c1.6,1.44,4.14,5.9,4.54,8.13" style="fill:none;stroke:#999;stroke-width:3" />
<path d="M1151.75,11c0.03,0.31,0.11,0.81-0.05,1.25c-1.2,3.28-4.53,7.96-8.95,12" style="fill:none;stroke:#999;stroke-width:3" />
<path d="M1149.98,19.16c4.73,0,22.08-3.57,27.4-3.57" style="fill:none;stroke:#999;stroke-width:3" />
<path d="M1163.78,18.25c0.01,0.24,0.03,0.61-0.03,0.95c-0.36,2-2.42,6.37-5.25,9.05" style="fill:none;stroke:#999;stroke-width:3" />
<path d="M1141.99,26.38c0.6,0.27,1.86,2.01,1.98,2.54c0.12,0.54,0.06,3.24-0.06,6.59" style="fill:none;stroke:#999;stroke-width:3" />
<path d="M1114.0700000000002,37.59c1.44,0.45,4.09,0.53,5.53,0.45c15-0.76,35.89-3.8,49.48-4.81c2.39-0.18,3.84,0.22,5.05,0.45" style="fill:none;stroke:#999;stroke-width:3" />
<path d="M1118.69,39.92c0.04,1.28,0.09,3.3-0.08,5.14c-1.02,10.84-3.32,37.14-14.33,48.81" style="fill:none;stroke:#999;stroke-width:3" />
<path d="M1132.63,39.9c2.25,0.95,5.8,3.89,6.37,5.36" style="fill:none;stroke:#999;stroke-width:3" />
<path d="M1154.6,37.73c0.01,0.19,0.03,0.5-0.03,0.77c-0.33,1.63-2.24,5.21-4.84,7.4" style="fill:none;stroke:black;stroke-width:3" />
<circle cx="1154.6" cy="37.73" r="5" stroke-width="0" fill="#FF2A00" opacity="0.7" />
<path d="M1229.5,11.75c0.04,0.44,0.08,1.12-0.07,1.75c-0.89,3.69-5.97,11.79-12.93,16.75" style="fill:none;stroke:#999;stroke-width:3" />
<path d="M1228.23,20.79c3.71,0,16.11-2.29,20.27-2.29" style="fill:none;stroke:#999;stroke-width:3" />
<path d="M1234.52,21.83c1.6,1.44,4.14,5.9,4.54,8.13" style="fill:none;stroke:#999;stroke-width:3" />
<path d="M1260.75,11c0.03,0.31,0.11,0.81-0.05,1.25c-1.2,3.28-4.53,7.96-8.95,12" style="fill:none;stroke:#999;stroke-width:3" />
<path d="M1258.98,19.16c4.73,0,22.08-3.57,27.4-3.57" style="fill:none;stroke:#999;stroke-width:3" />
<path d="M1272.78,18.25c0.01,0.24,0.03,0.61-0.03,0.95c-0.36,2-2.42,6.37-5.25,9.05" style="fill:none;stroke:#999;stroke-width:3" />
<path d="M1250.99,26.38c0.6,0.27,1.86,2.01,1.98,2.54c0.12,0.54,0.06,3.24-0.06,6.59" style="fill:none;stroke:#999;stroke-width:3" />
<path d="M1223.0700000000002,37.59c1.44,0.45,4.09,0.53,5.53,0.45c15-0.76,35.89-3.8,49.48-4.81c2.39-0.18,3.84,0.22,5.05,0.45" style="fill:none;stroke:#999;stroke-width:3" />
<path d="M1227.69,39.92c0.04,1.28,0.09,3.3-0.08,5.14c-1.02,10.84-3.32,37.14-14.33,48.81" style="fill:none;stroke:#999;stroke-width:3" />
<path d="M1241.63,39.9c2.25,0.95,5.8,3.89,6.37,5.36" style="fill:none;stroke:#999;stroke-width:3" />
<path d="M1263.6,37.73c0.01,0.19,0.03,0.5-0.03,0.77c-0.33,1.63-2.24,5.21-4.84,7.4" style="fill:none;stroke:#999;stroke-width:3" />
<path d="M1231.38,49.08c1.01,0.37,2.85,0.44,3.85,0.37c6.75-0.52,31.9-3.96,41.94-4.69c1.67-0.12,2.68,0.17,3.52,0.36" style="fill:none;stroke:black;stroke-width:3" />
<circle cx="1231.38" cy="49.08" r="5" stroke-width="0" fill="#FF2A00" opacity="0.7" />
<path d="M1338.5,11.75c0.04,0.44,0.08,1.12-0.07,1.75c-0.89,3.69-5.97,11.79-12.93,16.75" style="fill:none;stroke:#999;stroke-width:3" />
<path d="M1337.23,20.79c3.71,0,16.11-2.29,20.27-2.29" style="fill:none;stroke:#999;stroke-width:3" />
<path d="M1343.52,21.83c1.6,1.44,4.14,5.9,4.54,8.13" style="fill:none;stroke:#999;stroke-width:3" />
<path d="M1369.75,11c0.03,0.31,0.11,0.81-0.05,1.25c-1.2,3.28-4.53,7.96-8.95,12" style="fill:none;stroke:#999;stroke-width:3" />
<path d="M1367.98,19.16c4.73,0,22.08-3.57,27.4-3.57" style="fill:none;stroke:#999;stroke-width:3" />
<path d="M1381.78,18.25c0.01,0.24,0.03,0.61-0.03,0.95c-0.36,2-2.42,6.37-5.25,9.05" style="fill:none;stroke:#999;stroke-width:3" />
<path d="M1359.99,26.38c0.6,0.27,1.86,2.01,1.98,2.54c0.12,0.54,0.06,3.24-0.06,6.59" style="fill:none;stroke:#999;stroke-width:3" />
<path d="M1332.0700000000002,37.59c1.44,0.45,4.09,0.53,5.53,0.45c15-0.76,35.89-3.8,49.48-4.81c2.39-0.18,3.84,0.22,5.05,0.45" style="fill:none;stroke:#999;stroke-width:3" />
<path d="M1336.69,39.92c0.04,1.28,0.09,3.3-0.08,5.14c-1.02,10.84-3.32,37.14-14.33,48.81" style="fill:none;stroke:#999;stroke-width:3" />
<path d="M1350.63,39.9c2.25,0.95,5.8,3.89,6.37,5.36" style="fill:none;stroke:#999;stroke-width:3" />
<path d="M1372.6,37.73c0.01,0.19,0.03,0.5-0.03,0.77c-0.33,1.63-2.24,5.21-4.84,7.4" style="fill:none;stroke:#999;stroke-width:3" />
<path d="M1340.38,49.08c1.01,0.37,2.85,0.44,3.85,0.37c6.75-0.52,31.9-3.96,41.94-4.69c1.67-0.12,2.68,0.17,3.52,0.36" style="fill:none;stroke:#999;stroke-width:3" />
<path d="M1343.55,57.02c1.44,0.17,2.22,0.54,4.1,0.35C1357.89,56.33,1373.77,53.6,1383.0,53.08c1.84-0.1,2.87,1.21,2.46,2.93c-1.1,4.62-2.01,6.75-3.43,14.46" style="fill:none;stroke:black;stroke-width:3" />
<circle cx="1343.55" cy="57.02" r="5" stroke-width="0" fill="#FF2A00" opacity="0.7" />
<path d="M1447.5,11.75c0.04,0.44,0.08,1.12-0.07,1.75c-0.89,3.69-5.97,11.79-12.93,16.75" style="fill:none;stroke:#999;stroke-width:3" />
<path d="M1446.23,20.79c3.71,0,16.11-2.29,20.27-2.29" style="fill:none;stroke:#999;stroke-width:3" />
<path d="M1452.52,21.83c1.6,1.44,4.14,5.9,4.54,8.13" style="fill:none;stroke:#999;stroke-width:3" />
<path d="M1478.75,11c0.03,0.31,0.11,0.81-0.05,1.25c-1.2,3.28-4.53,7.96-8.95,12" style="fill:none;stroke:#999;stroke-width:3" />
<path d="M1476.98,19.16c4.73,0,22.08-3.57,27.4-3.57" style="fill:none;stroke:#999;stroke-width:3" />
<path d="M1490.78,18.25c0.01,0.24,0.03,0.61-0.03,0.95c-0.36,2-2.42,6.37-5.25,9.05" style="fill:none;stroke:#999;stroke-width:3" />
<path d="M1468.99,26.38c0.6,0.27,1.86,2.01,1.98,2.54c0.12,0.54,0.06,3.24-0.06,6.59" style="fill:none;stroke:#999;stroke-width:3" />
<path d="M1441.0700000000002,37.59c1.44,0.45,4.09,0.53,5.53,0.45c15-0.76,35.89-3.8,49.48-4.81c2.39-0.18,3.84,0.22,5.05,0.45" style="fill:none;stroke:#999;stroke-width:3" />
<path d="M1445.69,39.92c0.04,1.28,0.09,3.3-0.08,5.14c-1.02,10.84-3.32,37.14-14.33,48.81" style="fill:none;stroke:#999;stroke-width:3" />
<path d="M1459.63,39.9c2.25,0.95,5.8,3.89,6.37,5.36" style="fill:none;stroke:#999;stroke-width:3" />
<path d="M1481.6,37.73c0.01,0.19,0.03,0.5-0.03,0.77c-0.33,1.63-2.24,5.21-4.84,7.4" style="fill:none;stroke:#999;stroke-width:3" />
<path d="M1449.38,49.08c1.01,0.37,2.85,0.44,3.85,0.37c6.75-0.52,31.9-3.96,41.94-4.69c1.67-0.12,2.68,0.17,3.52,0.36" style="fill:none;stroke:#999;stroke-width:3" />
<path d="M1452.55,57.02c1.44,0.17,2.22,0.54,4.1,0.35C1466.89,56.33,1482.77,53.6,1492.0,53.08c1.84-0.1,2.87,1.21,2.46,2.93c-1.1,4.62-2.01,6.75-3.43,14.46" style="fill:none;stroke:#999;stroke-width:3" />
<path d="M1449.75,65.82c1.84,0.17,3.29,0.5,5.33,0.35c17.84-1.38,30.97-3.34,43.63-4.39c2.25-0.19,4.1,0.34,5.12,0.52" style="fill:none;stroke:black;stroke-width:3" />
<circle cx="1449.75" cy="65.82" r="5" stroke-width="0" fill="#FF2A00" opacity="0.7" />
<path d="M1556.5,11.75c0.04,0.44,0.08,1.12-0.07,1.75c-0.89,3.69-5.97,11.79-12.93,16.75" style="fill:none;stroke:#999;stroke-width:3" />
<path d="M1555.23,20.79c3.71,0,16.11-2.29,20.27-2.29" style="fill:none;stroke:#999;stroke-width:3" />
<path d="M1561.52,21.83c1.6,1.44,4.14,5.9,4.54,8.13" style="fill:none;stroke:#999;stroke-width:3" />
<path d="M1587.75,11c0.03,0.31,0.11,0.81-0.05,1.25c-1.2,3.28-4.53,7.96-8.95,12" style="fill:none;stroke:#999;stroke-width:3" />
<path d="M1585.98,19.16c4.73,0,22.08-3.57,27.4-3.57" style="fill:none;stroke:#999;stroke-width:3" />
<path d="M1599.78,18.25c0.01,0.24,0.03,0.61-0.03,0.95c-0.36,2-2.42,6.37-5.25,9.05" style="fill:none;stroke:#999;stroke-width:3" />
<path d="M1577.99,26.38c0.6,0.27,1.86,2.01,1.98,2.54c0.12,0.54,0.06,3.24-0.06,6.59" style="fill:none;stroke:#999;stroke-width:3" />
<path d="M1550.0700000000002,37.59c1.44,0.45,4.09,0.53,5.53,0.45c15-0.76,35.89-3.8,49.48-4.81c2.39-0.18,3.84,0.22,5.05,0.45" style="fill:none;stroke:#999;stroke-width:3" />
<path d="M1554.69,39.92c0.04,1.28,0.09,3.3-0.08,5.14c-1.02,10.84-3.32,37.14-14.33,48.81" style="fill:none;stroke:#999;stroke-width:3" />
<path d="M1568.63,39.9c2.25,0.95,5.8,3.89,6.37,5.36" style="fill:none;stroke:#999;stroke-width:3" />
<path d="M1590.6,37.73c0.01,0.19,0.03,0.5-0.03,0.77c-0.33,1.63-2.24,5.21-4.84,7.4" style="fill:none;stroke:#999;stroke-width:3" />
<path d="M1558.38,49.08c1.01,0.37,2.85,0.44,3.85,0.37c6.75-0.52,31.9-3.96,41.94-4.69c1.67-0.12,2.68,0.17,3.52,0.36" style="fill:none;stroke:#999;stroke-width:3" />
<path d="M1561.55,57.02c1.44,0.17,2.22,0.54,4.1,0.35C1575.89,56.33,1591.77,53.6,1601.0,53.08c1.84-0.1,2.87,1.21,2.46,2.93c-1.1,4.62-2.01,6.75-3.43,14.46" style="fill:none;stroke:#999;stroke-width:3" />
<path d="M1558.75,65.82c1.84,0.17,3.29,0.5,5.33,0.35c17.84-1.38,30.97-3.34,43.63-4.39c2.25-0.19,4.1,0.34,5.12,0.52" style="fill:none;stroke:#999;stroke-width:3" />
<path d="M1560.77,74.54c1.02,0.1,2.87,0.37,4.1,0.31c11.27-0.52,23.52-3.06,33.77-3.27c1.64-0.03,2.67,0,3.9,0.1" style="fill:none;stroke:black;stroke-width:3" />
<circle cx="1560.77" cy="74.54" r="5" stroke-width="0" fill="#FF2A00" opacity="0.7" />
<path d="M1665.5,11.75c0.04,0.44,0.08,1.12-0.07,1.75c-0.89,3.69-5.97,11.79-12.93,16.75" style="fill:none;stroke:#999;stroke-width:3" />
<path d="M1664.23,20.79c3.71,0,16.11-2.29,20.27-2.29" style="fill:none;stroke:#999;stroke-width:3" />
<path d="M1670.52,21.83c1.6,1.44,4.14,5.9,4.54,8.13" style="fill:none;stroke:#999;stroke-width:3" />
<path d="M1696.75,11c0.03,0.31,0.11,0.81-0.05,1.25c-1.2,3.28-4.53,7.96-8.95,12" style="fill:none;stroke:#999;stroke-width:3" />
<path d="M1694.98,19.16c4.73,0,22.08-3.57,27.4-3.57" style="fill:none;stroke:#999;stroke-width:3" />
<path d="M1708.78,18.25c0.01,0.24,0.03,0.61-0.03,0.95c-0.36,2-2.42,6.37-5.25,9.05" style="fill:none;stroke:#999;stroke-width:3" />
<path d="M1686.99,26.38c0.6,0.27,1.86,2.01,1.98,2.54c0.12,0.54,0.06,3.24-0.06,6.59" style="fill:none;stroke:#999;stroke-width:3" />
<path d="M1659.0700000000002,37.59c1.44,0.45,4.09,0.53,5.53,0.45c15-0.76,35.89-3.8,49.48-4.81c2.39-0.18,3.84,0.22,5.05,0.45" style="fill:none;stroke:#999;stroke-width:3" />
<path d="M1663.69,39.92c0.04,1.28,0.09,3.3-0.08,5.14c-1.02,10.84-3.32,37.14-14.33,48.81" style="fill:none;stroke:#999;stroke-width:3" />
<path d="M1677.63,39.9c2.25,0.95,5.8,3.89,6.37,5.36" style="fill:none;stroke:#999;stroke-width:3" />
<path d="M1699.6,37.73c0.01,0.19,0.03,0.5-0.03,0.77c-0.33,1.63-2.24,5.21-4.84,7.4" style="fill:none;stroke:#999;stroke-width:3" />
<path d="M1667.38,49.08c1.01,0.37,2.85,0.44,3.85,0.37c6.75-0.52,31.9-3.96,41.94-4.69c1.67-0.12,2.68,0.17,3.52,0.36" style="fill:none;stroke:#999;stroke-width:3" />
<path d="M1670.55,57.02c1.44,0.17,2.22,0.54,4.1,0.35C1684.89,56.33,1700.77,53.6,1710.0,53.08c1.84-0.1,2.87,1.21,2.46,2.93c-1.1,4.62-2.01,6.75-3.43,14.46" style="fill:none;stroke:#999;stroke-width:3" />
<path d="M1667.75,65.82c1.84,0.17,3.29,0.5,5.33,0.35c17.84-1.38,30.97-3.34,43.63-4.39c2.25-0.19,4.1,0.34,5.12,0.52" style="fill:none;stroke:#999;stroke-width:3" />
<path d="M1669.77,74.54c1.02,0.1,2.87,0.37,4.1,0.31c11.27-0.52,23.52-3.06,33.77-3.27c1.64-0.03,2.67,0,3.9,0.1" style="fill:none;stroke:#999;stroke-width:3" />
<path d="M1683.54,49.94c0.94,0.38,1.5,1.72,1.69,2.48c0.19,0.76,0,42.81-0.19,47.58" style="fill:none;stroke:black;stroke-width:3" />
<circle cx="1683.54" cy="49.94" r="5" stroke-width="0" fill="#FF2A00" opacity="0.7" />
<path d="M1774.5,11.75c0.04,0.44,0.08,1.12-0.07,1.75c-0.89,3.69-5.97,11.79-12.93,16.75" style="fill:none;stroke:#999;stroke-width:3" />
<path d="M1773.23,20.79c3.71,0,16.11-2.29,20.27-2.29" style="fill:none;stroke:#999;stroke-width:3" />
<path d="M1779.52,21.83c1.6,1.44,4.14,5.9,4.54,8.13" style="fill:none;stroke:#999;stroke-width:3" />
<path d="M1805.75,11c0.03,0.31,0.11,0.81-0.05,1.25c-1.2,3.28-4.53,7.96-8.95,12" style="fill:none;stroke:#999;stroke-width:3" />
<path d="M1803.98,19.16c4.73,0,22.08-3.57,27.4-3.57" style="fill:none;stroke:#999;stroke-width:3" />
<path d="M1817.78,18.25c0.01,0.24,0.03,0.61-0.03,0.95c-0.36,2-2.42,6.37-5.25,9.05" style="fill:none;stroke:#999;stroke-width:3" />
<path d="M1795.99,26.38c0.6,0.27,1.86,2.01,1.98,2.54c0.12,0.54,0.06,3.24-0.06,6.59" style="fill:none;stroke:#999;stroke-width:3" />
<path d="M1768.0700000000002,37.59c1.44,0.45,4.09,0.53,5.53,0.45c15-0.76,35.89-3.8,49.48-4.81c2.39-0.18,3.84,0.22,5.05,0.45" style="fill:none;stroke:#999;stroke-width:3" />
<path d="M1772.69,39.92c0.04,1.28,0.09,3.3-0.08,5.14c-1.02,10.84-3.32,37.14-14.33,48.81" style="fill:none;stroke:#999;stroke-width:3" />
<path d="M1786.63,39.9c2.25,0.95,5.8,3.89,6.37,5.36" style="fill:none;stroke:#999;stroke-width:3" />
<path d="M1808.6,37.73c0.01,0.19,0.03,0.5-0.03,0.77c-0.33,1.63-2.24,5.21-4.84,7.4" style="fill:none;stroke:#999;stroke-width:3" />
<path d="M1776.38,49.08c1.01,0.37,2.85,0.44,3.85,0.37c6.75-0.52,31.9-3.96,41.94-4.69c1.67-0.12,2.68,0.17,3.52,0.36" style="fill:none;stroke:#999;stroke-width:3" />
<path d="M1779.55,57.02c1.44,0.17,2.22,0.54,4.1,0.35C1793.89,56.33,1809.77,53.6,1819.0,53.08c1.84-0.1,2.87,1.21,2.46,2.93c-1.1,4.62-2.01,6.75-3.43,14.46" style="fill:none;stroke:#999;stroke-width:3" />
<path d="M1776.75,65.82c1.84,0.17,3.29,0.5,5.33,0.35c17.84-1.38,30.97-3.34,43.63-4.39c2.25-0.19,4.1,0.34,5.12,0.52" style="fill:none;stroke:#999;stroke-width:3" />
<path d="M1778.77,74.54c1.02,0.1,2.87,0.37,4.1,0.31c11.27-0.52,23.52-3.06,33.77-3.27c1.64-0.03,2.67,0,3.9,0.1" style="fill:none;stroke:#999;stroke-width:3" />
<path d="M1792.54,49.94c0.94,0.38,1.5,1.72,1.69,2.48c0.19,0.76,0,42.81-0.19,47.58" style="fill:none;stroke:#999;stroke-width:3" />
<path d="M1805.05,47.65c0.94,0.38,1.5,1.72,1.69,2.48c0.19,0.76,0,44.33-0.19,49.1" style="fill:none;stroke:black;stroke-width:3" />
<circle cx="1805.05" cy="47.65" r="5" stroke-width="0" fill="#FF2A00" opacity="0.7" />
<path d="M1883.5,11.75c0.04,0.44,0.08,1.12-0.07,1.75c-0.89,3.69-5.97,11.79-12.93,16.75" style="fill:none;stroke:#999;stroke-width:3" />
<path d="M1882.23,20.79c3.71,0,16.11-2.29,20.27-2.29" style="fill:none;stroke:#999;stroke-width:3" />
<path d="M1888.52,21.83c1.6,1.44,4.14,5.9,4.54,8.13" style="fill:none;stroke:#999;stroke-width:3" />
<path d="M1914.75,11c0.03,0.31,0.11,0.81-0.05,1.25c-1.2,3.28-4.53,7.96-8.95,12" style="fill:none;stroke:#999;stroke-width:3" />
<path d="M1912.98,19.16c4.73,0,22.08-3.57,27.4-3.57" style="fill:none;stroke:#999;stroke-width:3" />
<path d="M1926.78,18.25c0.01,0.24,0.03,0.61-0.03,0.95c-0.36,2-2.42,6.37-5.25,9.05" style="fill:none;stroke:#999;stroke-width:3" />
<path d="M1904.99,26.38c0.6,0.27,1.86,2.01,1.98,2.54c0.12,0.54,0.06,3.24-0.06,6.59" style="fill:none;stroke:#999;stroke-width:3" />
<path d="M1877.0700000000002,37.59c1.44,0.45,4.09,0.53,5.53,0.45c15-0.76,35.89-3.8,49.48-4.81c2.39-0.18,3.84,0.22,5.05,0.45" style="fill:none;stroke:#999;stroke-width:3" />
<path d="M1881.69,39.92c0.04,1.28,0.09,3.3-0.08,5.14c-1.02,10.84-3.32,37.14-14.33,48.81" style="fill:none;stroke:#999;stroke-width:3" />
<path d="M1895.63,39.9c2.25,0.95,5.8,3.89,6.37,5.36" style="fill:none;stroke:#999;stroke-width:3" />
<path d="M1917.6,37.73c0.01,0.19,0.03,0.5-0.03,0.77c-0.33,1.63-2.24,5.21-4.84,7.4" style="fill:none;stroke:#999;stroke-width:3" />
<path d="M1885.38,49.08c1.01,0.37,2.85,0.44,3.85,0.37c6.75-0.52,31.9-3.96,41.94-4.69c1.67-0.12,2.68,0.17,3.52,0.36" style="fill:none;stroke:#999;stroke-width:3" />
<path d="M1888.55,57.02c1.44,0.17,2.22,0.54,4.1,0.35C1902.89,56.33,1918.77,53.6,1928.0,53.08c1.84-0.1,2.87,1.21,2.46,2.93c-1.1,4.62-2.01,6.75-3.43,14.46" style="fill:none;stroke:#999;stroke-width:3" />
<path d="M1885.75,65.82c1.84,0.17,3.29,0.5,5.33,0.35c17.84-1.38,30.97-3.34,43.63-4.39c2.25-0.19,4.1,0.34,5.12,0.52" style="fill:none;stroke:#999;stroke-width:3" />
<path d="M1887.77,74.54c1.02,0.1,2.87,0.37,4.1,0.31c11.27-0.52,23.52-3.06,33.77-3.27c1.64-0.03,2.67,0,3.9,0.1" style="fill:none;stroke:#999;stroke-width:3" />
<path d="M1901.54,49.94c0.94,0.38,1.5,1.72,1.69,2.48c0.19,0.76,0,42.81-0.19,47.58" style="fill:none;stroke:#999;stroke-width:3" />
<path d="M1914.05,47.65c0.94,0.38,1.5,1.72,1.69,2.48c0.19,0.76,0,44.33-0.19,49.1" style="fill:none;stroke:#999;stroke-width:3" />
<path d="M1902.3,75.37c-4.3,7.18-15.49,17.34-24.44,21.4" style="fill:none;stroke:black;stroke-width:3" />
<circle cx="1902.3" cy="75.37" r="5" stroke-width="0" fill="#FF2A00" opacity="0.7" />
<path d="M1992.5,11.75c0.04,0.44,0.08,1.12-0.07,1.75c-0.89,3.69-5.97,11.79-12.93,16.75" style="fill:none;stroke:#999;stroke-width:3" />
<path d="M1991.23,20.79c3.71,0,16.11-2.29,20.27-2.29" style="fill:none;stroke:#999;stroke-width:3" />
<path d="M1997.52,21.83c1.6,1.44,4.14,5.9,4.54,8.13" style="fill:none;stroke:#999;stroke-width:3" />
<path d="M2023.75,11c0.03,0.31,0.11,0.81-0.05,1.25c-1.2,3.28-4.53,7.96-8.95,12" style="fill:none;stroke:#999;stroke-width:3" />
<path d="M2021.98,19.16c4.73,0,22.08-3.57,27.4-3.57" style="fill:none;stroke:#999;stroke-width:3" />
<path d="M2035.78,18.25c0.01,0.24,0.03,0.61-0.03,0.95c-0.36,2-2.42,6.37-5.25,9.05" style="fill:none;stroke:#999;stroke-width:3" />
<path d="M2013.99,26.38c0.6,0.27,1.86,2.01,1.98,2.54c0.12,0.54,0.06,3.24-0.06,6.59" style="fill:none;stroke:#999;stroke-width:3" />
<path d="M1986.0700000000002,37.59c1.44,0.45,4.09,0.53,5.53,0.45c15-0.76,35.89-3.8,49.48-4.81c2.39-0.18,3.84,0.22,5.05,0.45" style="fill:none;stroke:#999;stroke-width:3" />
<path d="M1990.69,39.92c0.04,1.28,0.09,3.3-0.08,5.14c-1.02,10.84-3.32,37.14-14.33,48.81" style="fill:none;stroke:#999;stroke-width:3" />
<path d="M2004.63,39.9c2.25,0.95,5.8,3.89,6.37,5.36" style="fill:none;stroke:#999;stroke-width:3" />
<path d="M2026.6,37.73c0.01,0.19,0.03,0.5-0.03,0.77c-0.33,1.63-2.24,5.21-4.84,7.4" style="fill:none;stroke:#999;stroke-width:3" />
<path d="M1994.38,49.08c1.01,0.37,2.85,0.44,3.85,0.37c6.75-0.52,31.9-3.96,41.94-4.69c1.67-0.12,2.68,0.17,3.52,0.36" style="fill:none;stroke:#999;stroke-width:3" />
<path d="M1997.55,57.02c1.44,0.17,2.22,0.54,4.1,0.35C2011.89,56.33,2027.77,53.6,2037.0,53.08c1.84-0.1,2.87,1.21,2.46,2.93c-1.1,4.62-2.01,6.75-3.43,14.46" style="fill:none;stroke:#999;stroke-width:3" />
<path d="M1994.75,65.82c1.84,0.17,3.29,0.5,5.33,0.35c17.84-1.38,30.97-3.34,43.63-4.39c2.25-0.19,4.1,0.34,5.12,0.52" style="fill:none;stroke:#999;stroke-width:3" />
<path d="M1996.77,74.54c1.02,0.1,2.87,0.37,4.1,0.31c11.27-0.52,23.52-3.06,33.77-3.27c1.64-0.03,2.67,0,3.9,0.1" style="fill:none;stroke:#999;stroke-width:3" />
<path d="M2010.54,49.94c0.94,0.38,1.5,1.72,1.69,2.48c0.19,0.76,0,42.81-0.19,47.58" style="fill:none;stroke:#999;stroke-width:3" />
<path d="M2023.05,47.65c0.94,0.38,1.5,1.72,1.69,2.48c0.19,0.76,0,44.33-0.19,49.1" style="fill:none;stroke:#999;stroke-width:3" />
<path d="M2011.3,75.37c-4.3,7.18-15.49,17.34-24.44,21.4" style="fill:none;stroke:#999;stroke-width:3" />
<path d="M2024.89,73.27c3.98,2.88,21.46,16.52,25.79,19.35c1.47,0.96,2.73,1.37,4.2,1.65" style="fill:none;stroke:black;stroke-width:3" />
<circle cx="2024.89" cy="73.27" r="5" stroke-width="0" fill="#FF2A00" opacity="0.7" />
</svg>