<svg width="1417px" height="109px" viewBox="0 0 1417px 109px" xmlns="http://www.w3.org/2000/svg" xmlns:xlink="http://www.w3.org/1999/xlink" xml:space="preserve" version="1.1"  baseProfile="full">
<line x1="1" y1="1" x2="1416" y2="1" style="stroke:#ddd;stroke-width:2" />
<line x1="1" y1="1" x2="1" y2="108" style="stroke:#ddd;stroke-width:2" />
<line x1="1" y1="108" x2="1416" y2="108" style="stroke:#ddd;stroke-width:2" />
<line x1="1416" y1="1" x2="1416" y2="108" style="stroke:#ddd;stroke-width:2" />
<line x1="109" y1="1" x2="109" y2="108" style="stroke:#ddd;stroke-width:2" />
<line x1="218" y1="1" x2="218" y2="108" style="stroke:#ddd;stroke-width:2" />
<line x1="327" y1="1" x2="327" y2="108" style="stroke:#ddd;stroke-width:2" />
<line x1="436" y1="1" x2="436" y2="108" style="stroke:#ddd;stroke-width:2" />
<line x1="545" y1="1" x2="545" y2="108" style="stroke:#ddd;stroke-width:2" />
<line x1="654" y1="1" x2="654" y2="108" style="stroke:#ddd;stroke-width:2" />
<line x1="763" y1="1" x2="763" y2="108" style="stroke:#ddd;stroke-width:2" />
<line x1="872" y1="1" x2="872" y2="108" style="stroke:#ddd;stroke-width:2" />
<line x1="981" y1="1" x2="981" y2="108" style="stroke:#ddd;stroke-width:2" />
<line x1="1090" y1="1" x2="1090" y2="108" style="stroke:#ddd;stroke-width:2" />
<line x1="1199" y1="1" x2="1199" y2="108" style="stroke:#ddd;stroke-width:2" />
<line x1="1308" y1="1" x2="1308" y2="108" style="stroke:#ddd;stroke-width:2" />
<line x1="1" y1="54" x2="1416" y2="54" style="stroke:#ddd;stroke-width:2;stroke-dasharray:3 3" />
<line x1="55" y1="1" x2="55" y2="108" style="stroke:#ddd;stroke-width:2;stroke-dasharray:3 3" />
<line x1="164" y1="1" x2="164" y2="108" style="stroke:#ddd;stroke-width:2;stroke-dasharray:3 3" />
<line x1="273" y1="1" x2="273" y2="108" style="stroke:#ddd;stroke-width:2;stroke-dasharray:3 3" />
<line x1="382" y1="1" x2="382" y2="108" style="stroke:#ddd;stroke-width:2;stroke-dasharray:3 3" />
<line x1="491" y1="1" x2="491" y2="108" style="stroke:#ddd;stroke-width:2;stroke-dasharray:3 3" />
<line x1="600" y1="1" x2="600" y2="108" style="stroke:#ddd;stroke-width:2;stroke-dasharray:3 3" />
<line x1="709" y1="1" x2="709" y2="108" style="stroke:#ddd;stroke-width:2;stroke-dasharray:3 3" />
<line x1="818" y1="1" x2="818" y2="108" style="stroke:#ddd;stroke-width:2;stroke-dasharray:3 3" />
<line x1="927" y1="1" x2="927" y2="108" style="stroke:#ddd;stroke-width:2;stroke-dasharray:3 3" />
<line x1="1036" y1="1" x2="1036" y2="108" style="stroke:#ddd;stroke-width:2;stroke-dasharray:3 3" />
<line x1="1145" y1="1" x2="1145" y2="108" style="stroke:#ddd;stroke-width:2;stroke-dasharray:3 3" />
<line x1="1254" y1="1" x2="1254" y2="108" style="stroke:#ddd;stroke-width:2;stroke-dasharray:3 3" />
<line x1="1363" y1="1" x2="1363" y2="108" style="stroke:#ddd;stroke-width:2;stroke-dasharray:3 3" />
<path d="M16.55,18.74c0.47,0.95,0.78,1.88,0.94,2.8c0.16,0.92,0.14,25.9-0.36,33.63c-0.71,11-0.88,23.83-6.63,34.72" style="fill:none;stroke:black;stroke-width:3" />
<circle cx="16.55" cy="18.74" r="5" stroke-width="0" fill="#FF2A00" opacity="0.7" />
<path d="M125.55,18.74c0.47,0.95,0.78,1.88,0.94,2.8c0.16,0.92,0.14,25.9-0.36,33.63c-0.71,11-0.88,23.83-6.63,34.72" style="fill:none;stroke:#999;stroke-width:3" />
<path d="M127.43,19.81c1.87-0.06,10.84-2.34,12.23-2.46c2.5-0.23,3.12,1.31,3.12,2.67c0,3.23-0.47,48.22-0.47,66.55c0,12.61-5.27,3.55-6.87,2.04" style="fill:none;stroke:black;stroke-width:3" />
<circle cx="127.43" cy="19.81" r="5" stroke-width="0" fill="#FF2A00" opacity="0.7" />
<path d="M234.55,18.74c0.47,0.95,0.78,1.88,0.94,2.8c0.16,0.92,0.14,25.9-0.36,33.63c-0.71,11-0.88,23.83-6.63,34.72" style="fill:none;stroke:#999;stroke-width:3" />
<path d="M236.43,19.81c1.87-0.06,10.84-2.34,12.23-2.46c2.5-0.23,3.12,1.31,3.12,2.67c0,3.23-0.47,48.22-0.47,66.55c0,12.61-5.27,3.55-6.87,2.04" style="fill:none;stroke:#999;stroke-width:3" />
<path d="M236.43,38.7c4.11-0.35,11.63-2.04,15.24-2.07" style="fill:none;stroke:black;stroke-width:3" />
<circle cx="236.43" cy="38.7" r="5" stroke-width="0" fill="#FF2A00" opacity="0.7" />
<path d="M343.55,18.74c0.47,0.95,0.78,1.88,0.94,2.8c0.16,0.92,0.14,25.9-0.36,33.63c-0.71,11-0.88,23.83-6.63,34.72" style="fill:none;stroke:#999;stroke-width:3" />
<path d="M345.43,19.81c1.87-0.06,10.84-2.34,12.23-2.46c2.5-0.23,3.12,1.31,3.12,2.67c0,3.23-0.47,48.22-0.47,66.55c0,12.61-5.27,3.55-6.87,2.04" style="fill:none;stroke:#999;stroke-width:3" />
<path d="M345.43,38.7c4.11-0.35,11.63-2.04,15.24-2.07" style="fill:none;stroke:#999;stroke-width:3" />
<path d="M344.88,58.15c3.38-0.08,10.38-1.28,14.97-1.7" style="fill:none;stroke:black;stroke-width:3" />
<circle cx="344.88" cy="58.15" r="5" stroke-width="0" fill="#FF2A00" opacity="0.7" />
<path d="M452.55,18.74c0.47,0.95,0.78,1.88,0.94,2.8c0.16,0.92,0.14,25.9-0.36,33.63c-0.71,11-0.88,23.83-6.63,34.72" style="fill:none;stroke:#999;stroke-width:3" />
<path d="M454.43,19.81c1.87-0.06,10.84-2.34,12.23-2.46c2.5-0.23,3.12,1.31,3.12,2.67c0,3.23-0.47,48.22-0.47,66.55c0,12.61-5.27,3.55-6.87,2.04" style="fill:none;stroke:#999;stroke-width:3" />
<path d="M454.43,38.7c4.11-0.35,11.63-2.04,15.24-2.07" style="fill:none;stroke:#999;stroke-width:3" />
<path d="M453.88,58.15c3.38-0.08,10.38-1.28,14.97-1.7" style="fill:none;stroke:#999;stroke-width:3" />
<path d="M501.79,17.97c1.59-0.11,17.14-2.22,18.59-2.35c1.21-0.11,1.91,1.23,1.89,1.9c-0.08,4.76-1.75,21.46-2.44,24.74" style="fill:none;stroke:black;stroke-width:3" />
<circle cx="501.79" cy="17.97" r="5" stroke-width="0" fill="#FF2A00" opacity="0.7" />
<path d="M561.55,18.74c0.47,0.95,0.78,1.88,0.94,2.8c0.16,0.92,0.14,25.9-0.36,33.63c-0.71,11-0.88,23.83-6.63,34.72" style="fill:none;stroke:#999;stroke-width:3" />
<path d="M563.4300000000001,19.81c1.87-0.06,10.84-2.34,12.23-2.46c2.5-0.23,3.12,1.31,3.12,2.67c0,3.23-0.47,48.22-0.47,66.55c0,12.61-5.27,3.55-6.87,2.04" style="fill:none;stroke:#999;stroke-width:3" />
<path d="M563.4300000000001,38.7c4.11-0.35,11.63-2.04,15.24-2.07" style="fill:none;stroke:#999;stroke-width:3" />
<path d="M562.88,58.15c3.38-0.08,10.38-1.28,14.97-1.7" style="fill:none;stroke:#999;stroke-width:3" />
<path d="M610.79,17.97c1.59-0.11,17.14-2.22,18.59-2.35c1.21-0.11,1.91,1.23,1.89,1.9c-0.08,4.76-1.75,21.46-2.44,24.74" style="fill:none;stroke:#999;stroke-width:3" />
<path d="M610.63,28.88c4-0.53,15.61-1.65,19.45-2.07" style="fill:none;stroke:black;stroke-width:3" />
<circle cx="610.63" cy="28.88" r="5" stroke-width="0" fill="#FF2A00" opacity="0.7" />
<path d="M670.55,18.74c0.47,0.95,0.78,1.88,0.94,2.8c0.16,0.92,0.14,25.9-0.36,33.63c-0.71,11-0.88,23.83-6.63,34.72" style="fill:none;stroke:#999;stroke-width:3" />
<path d="M672.4300000000001,19.81c1.87-0.06,10.84-2.34,12.23-2.46c2.5-0.23,3.12,1.31,3.12,2.67c0,3.23-0.47,48.22-0.47,66.55c0,12.61-5.27,3.55-6.87,2.04" style="fill:none;stroke:#999;stroke-width:3" />
<path d="M672.4300000000001,38.7c4.11-0.35,11.63-2.04,15.24-2.07" style="fill:none;stroke:#999;stroke-width:3" />
<path d="M671.88,58.15c3.38-0.08,10.38-1.28,14.97-1.7" style="fill:none;stroke:#999;stroke-width:3" />
<path d="M719.79,17.97c1.59-0.11,17.14-2.22,18.59-2.35c1.21-0.11,1.91,1.23,1.89,1.9c-0.08,4.76-1.75,21.46-2.44,24.74" style="fill:none;stroke:#999;stroke-width:3" />
<path d="M719.63,28.88c4-0.53,15.61-1.65,19.45-2.07" style="fill:none;stroke:#999;stroke-width:3" />
<path d="M718.47,40.62c6.03-0.87,13.54-1.08,19.51-1.9" style="fill:none;stroke:black;stroke-width:3" />
<circle cx="718.47" cy="40.62" r="5" stroke-width="0" fill="#FF2A00" opacity="0.7" />
<path d="M779.55,18.74c0.47,0.95,0.78,1.88,0.94,2.8c0.16,0.92,0.14,25.9-0.36,33.63c-0.71,11-0.88,23.83-6.63,34.72" style="fill:none;stroke:#999;stroke-width:3" />
<path d="M781.4300000000001,19.81c1.87-0.06,10.84-2.34,12.23-2.46c2.5-0.23,3.12,1.31,3.12,2.67c0,3.23-0.47,48.22-0.47,66.55c0,12.61-5.27,3.55-6.87,2.04" style="fill:none;stroke:#999;stroke-width:3" />
<path d="M781.4300000000001,38.7c4.11-0.35,11.63-2.04,15.24-2.07" style="fill:none;stroke:#999;stroke-width:3" />
<path d="M780.88,58.15c3.38-0.08,10.38-1.28,14.97-1.7" style="fill:none;stroke:#999;stroke-width:3" />
<path d="M828.79,17.97c1.59-0.11,17.14-2.22,18.59-2.35c1.21-0.11,1.91,1.23,1.89,1.9c-0.08,4.76-1.75,21.46-2.44,24.74" style="fill:none;stroke:#999;stroke-width:3" />
<path d="M828.63,28.88c4-0.53,15.61-1.65,19.45-2.07" style="fill:none;stroke:#999;stroke-width:3" />
<path d="M827.47,40.62c6.03-0.87,13.54-1.08,19.51-1.9" style="fill:none;stroke:#999;stroke-width:3" />
<path d="M825.71,16.44c0.91,0.54,1.07,1.91,1.25,2.98c0.18,1.07,0.38,51.32,0.18,53.98c-0.18,2.41-0.8,7.13,1.38,5.26c2.17-1.87,6.48-5.91,11.18-8.97" style="fill:none;stroke:black;stroke-width:3" />
<circle cx="825.71" cy="16.44" r="5" stroke-width="0" fill="#FF2A00" opacity="0.7" />
<path d="M888.55,18.74c0.47,0.95,0.78,1.88,0.94,2.8c0.16,0.92,0.14,25.9-0.36,33.63c-0.71,11-0.88,23.83-6.63,34.72" style="fill:none;stroke:#999;stroke-width:3" />
<path d="M890.4300000000001,19.81c1.87-0.06,10.84-2.34,12.23-2.46c2.5-0.23,3.12,1.31,3.12,2.67c0,3.23-0.47,48.22-0.47,66.55c0,12.61-5.27,3.55-6.87,2.04" style="fill:none;stroke:#999;stroke-width:3" />
<path d="M890.4300000000001,38.7c4.11-0.35,11.63-2.04,15.24-2.07" style="fill:none;stroke:#999;stroke-width:3" />
<path d="M889.88,58.15c3.38-0.08,10.38-1.28,14.97-1.7" style="fill:none;stroke:#999;stroke-width:3" />
<path d="M937.79,17.97c1.59-0.11,17.14-2.22,18.59-2.35c1.21-0.11,1.91,1.23,1.89,1.9c-0.08,4.76-1.75,21.46-2.44,24.74" style="fill:none;stroke:#999;stroke-width:3" />
<path d="M937.63,28.88c4-0.53,15.61-1.65,19.45-2.07" style="fill:none;stroke:#999;stroke-width:3" />
<path d="M936.47,40.62c6.03-0.87,13.54-1.08,19.51-1.9" style="fill:none;stroke:#999;stroke-width:3" />
<path d="M934.71,16.44c0.91,0.54,1.07,1.91,1.25,2.98c0.18,1.07,0.38,51.32,0.18,53.98c-0.18,2.41-0.8,7.13,1.38,5.26c2.17-1.87,6.48-5.91,11.18-8.97" style="fill:none;stroke:#999;stroke-width:3" />
<path d="M961.53,44.87c0.24,1.19,0.85,2.35-0.01,3.18c-1.26,1.21-8.96,7.39-11.15,9.06" style="fill:none;stroke:black;stroke-width:3" />
<circle cx="961.53" cy="44.87" r="5" stroke-width="0" fill="#FF2A00" opacity="0.7" />
<path d="M997.55,18.74c0.47,0.95,0.78,1.88,0.94,2.8c0.16,0.92,0.14,25.9-0.36,33.63c-0.71,11-0.88,23.83-6.63,34.72" style="fill:none;stroke:#999;stroke-width:3" />
<path d="M999.4300000000001,19.81c1.87-0.06,10.84-2.34,12.23-2.46c2.5-0.23,3.12,1.31,3.12,2.67c0,3.23-0.47,48.22-0.47,66.55c0,12.61-5.27,3.55-6.87,2.04" style="fill:none;stroke:#999;stroke-width:3" />
<path d="M999.4300000000001,38.7c4.11-0.35,11.63-2.04,15.24-2.07" style="fill:none;stroke:#999;stroke-width:3" />
<path d="M998.88,58.15c3.38-0.08,10.38-1.28,14.97-1.7" style="fill:none;stroke:#999;stroke-width:3" />
<path d="M1046.79,17.97c1.59-0.11,17.14-2.22,18.59-2.35c1.21-0.11,1.91,1.23,1.89,1.9c-0.08,4.76-1.75,21.46-2.44,24.74" style="fill:none;stroke:#999;stroke-width:3" />
<path d="M1046.63,28.88c4-0.53,15.61-1.65,19.45-2.07" style="fill:none;stroke:#999;stroke-width:3" />
<path d="M1045.47,40.62c6.03-0.87,13.54-1.08,19.51-1.9" style="fill:none;stroke:#999;stroke-width:3" />
<path d="M1043.71,16.44c0.91,0.54,1.07,1.91,1.25,2.98c0.18,1.07,0.38,51.32,0.18,53.98c-0.18,2.41-0.8,7.13,1.38,5.26c2.17-1.87,6.48-5.91,11.18-8.97" style="fill:none;stroke:#999;stroke-width:3" />
<path d="M1070.53,44.87c0.24,1.19,0.85,2.35-0.01,3.18c-1.26,1.21-8.96,7.39-11.15,9.06" style="fill:none;stroke:#999;stroke-width:3" />
<path d="M1049.0,40.5c3.35,5.22,19.09,31.39,22.73,36.52c1.23,1.74,2.29,2.48,3.52,2.98" style="fill:none;stroke:black;stroke-width:3" />
<circle cx="1049.0" cy="40.5" r="5" stroke-width="0" fill="#FF2A00" opacity="0.7" />
<path d="M1106.55,18.74c0.47,0.95,0.78,1.88,0.94,2.8c0.16,0.92,0.14,25.9-0.36,33.63c-0.71,11-0.88,23.83-6.63,34.72" style="fill:none;stroke:#999;stroke-width:3" />
<path d="M1108.43,19.81c1.87-0.06,10.84-2.34,12.23-2.46c2.5-0.23,3.12,1.31,3.12,2.67c0,3.23-0.47,48.22-0.47,66.55c0,12.61-5.27,3.55-6.87,2.04" style="fill:none;stroke:#999;stroke-width:3" />
<path d="M1108.43,38.7c4.11-0.35,11.63-2.04,15.24-2.07" style="fill:none;stroke:#999;stroke-width:3" />
<path d="M1107.88,58.15c3.38-0.08,10.38-1.28,14.97-1.7" style="fill:none;stroke:#999;stroke-width:3" />
<path d="M1155.79,17.97c1.59-0.11,17.14-2.22,18.59-2.35c1.21-0.11,1.91,1.23,1.89,1.9c-0.08,4.76-1.75,21.46-2.44,24.74" style="fill:none;stroke:#999;stroke-width:3" />
<path d="M1155.63,28.88c4-0.53,15.61-1.65,19.45-2.07" style="fill:none;stroke:#999;stroke-width:3" />
<path d="M1154.47,40.62c6.03-0.87,13.54-1.08,19.51-1.9" style="fill:none;stroke:#999;stroke-width:3" />
<path d="M1152.71,16.44c0.91,0.54,1.07,1.91,1.25,2.98c0.18,1.07,0.38,51.32,0.18,53.98c-0.18,2.41-0.8,7.13,1.38,5.26c2.17-1.87,6.48-5.91,11.18-8.97" style="fill:none;stroke:#999;stroke-width:3" />
<path d="M1179.53,44.87c0.24,1.19,0.85,2.35-0.01,3.18c-1.26,1.21-8.96,7.39-11.15,9.06" style="fill:none;stroke:#999;stroke-width:3" />
<path d="M1158.0,40.5c3.35,5.22,19.09,31.39,22.73,36.52c1.23,1.74,2.29,2.48,3.52,2.98" style="fill:none;stroke:#999;stroke-width:3" />
<path d="M1133.6,25.25c3.65,1.66,9.42,6.81,10.33,9.38" style="fill:none;stroke:black;stroke-width:3" />
<circle cx="1133.6" cy="25.25" r="5" stroke-width="0" fill="#FF2A00" opacity="0.7" />
<path d="M1215.55,18.74c0.47,0.95,0.78,1.88,0.94,2.8c0.16,0.92,0.14,25.9-0.36,33.63c-0.71,11-0.88,23.83-6.63,34.72" style="fill:none;stroke:#999;stroke-width:3" />
<path d="M1217.43,19.81c1.87-0.06,10.84-2.34,12.23-2.46c2.5-0.23,3.12,1.31,3.12,2.67c0,3.23-0.47,48.22-0.47,66.55c0,12.61-5.27,3.55-6.87,2.04" style="fill:none;stroke:#999;stroke-width:3" />
<path d="M1217.43,38.7c4.11-0.35,11.63-2.04,15.24-2.07" style="fill:none;stroke:#999;stroke-width:3" />
<path d="M1216.88,58.15c3.38-0.08,10.38-1.28,14.97-1.7" style="fill:none;stroke:#999;stroke-width:3" />
<path d="M1264.79,17.97c1.59-0.11,17.14-2.22,18.59-2.35c1.21-0.11,1.91,1.23,1.89,1.9c-0.08,4.76-1.75,21.46-2.44,24.74" style="fill:none;stroke:#999;stroke-width:3" />
<path d="M1264.63,28.88c4-0.53,15.61-1.65,19.45-2.07" style="fill:none;stroke:#999;stroke-width:3" />
<path d="M1263.47,40.62c6.03-0.87,13.54-1.08,19.51-1.9" style="fill:none;stroke:#999;stroke-width:3" />
<path d="M1261.71,16.44c0.91,0.54,1.07,1.91,1.25,2.98c0.18,1.07,0.38,51.32,0.18,53.98c-0.18,2.41-0.8,7.13,1.38,5.26c2.17-1.87,6.48-5.91,11.18-8.97" style="fill:none;stroke:#999;stroke-width:3" />
<path d="M1288.53,44.87c0.24,1.19,0.85,2.35-0.01,3.18c-1.26,1.21-8.96,7.39-11.15,9.06" style="fill:none;stroke:#999;stroke-width:3" />
<path d="M1267.0,40.5c3.35,5.22,19.09,31.39,22.73,36.52c1.23,1.74,2.29,2.48,3.52,2.98" style="fill:none;stroke:#999;stroke-width:3" />
<path d="M1242.6,25.25c3.65,1.66,9.42,6.81,10.33,9.38" style="fill:none;stroke:#999;stroke-width:3" />
<path d="M1238.0,55.64c1.71,0.91,2.85,0.45,3.61,0.23s7.09-2.66,8.23-3.12c2.41-0.99,3.16,0.26,2.09,2.49c-0.67,1.41-3.92,7.07-4.5,8.2s-0.38,3.17,0.76,4.76c1.14,1.59,2.89,2.84,4.04,3.76c1,0.8,0.75,2.05-0.57,3.62c-1.04,1.23-8.35,7.47-9.49,7.93" style="fill:none;stroke:black;stroke-width:3" />
<circle cx="1238.0" cy="55.64" r="5" stroke-width="0" fill="#FF2A00" opacity="0.7" />
<path d="M1324.55,18.74c0.47,0.95,0.78,1.88,0.94,2.8c0.16,0.92,0.14,25.9-0.36,33.63c-0.71,11-0.88,23.83-6.63,34.72" style="fill:none;stroke:#999;stroke-width:3" />
<path d="M1326.43,19.81c1.87-0.06,10.84-2.34,12.23-2.46c2.5-0.23,3.12,1.31,3.12,2.67c0,3.23-0.47,48.22-0.47,66.55c0,12.61-5.27,3.55-6.87,2.04" style="fill:none;stroke:#999;stroke-width:3" />
<path d="M1326.43,38.7c4.11-0.35,11.63-2.04,15.24-2.07" style="fill:none;stroke:#999;stroke-width:3" />
<path d="M1325.88,58.15c3.38-0.08,10.38-1.28,14.97-1.7" style="fill:none;stroke:#999;stroke-width:3" />
<path d="M1373.79,17.97c1.59-0.11,17.14-2.22,18.59-2.35c1.21-0.11,1.91,1.23,1.89,1.9c-0.08,4.76-1.75,21.46-2.44,24.74" style="fill:none;stroke:#999;stroke-width:3" />
<path d="M1373.63,28.88c4-0.53,15.61-1.65,19.45-2.07" style="fill:none;stroke:#999;stroke-width:3" />
<path d="M1372.47,40.62c6.03-0.87,13.54-1.08,19.51-1.9" style="fill:none;stroke:#999;stroke-width:3" />
<path d="M1370.71,16.44c0.91,0.54,1.07,1.91,1.25,2.98c0.18,1.07,0.38,51.32,0.18,53.98c-0.18,2.41-0.8,7.13,1.38,5.26c2.17-1.87,6.48-5.91,11.18-8.97" style="fill:none;stroke:#999;stroke-width:3" />
<path d="M1397.53,44.87c0.24,1.19,0.85,2.35-0.01,3.18c-1.26,1.21-8.96,7.39-11.15,9.06" style="fill:none;stroke:#999;stroke-width:3" />
<path d="M1376.0,40.5c3.35,5.22,19.09,31.39,22.73,36.52c1.23,1.74,2.29,2.48,3.52,2.98" style="fill:none;stroke:#999;stroke-width:3" />
<path d="M1351.6,25.25c3.65,1.66,9.42,6.81,10.33,9.38" style="fill:none;stroke:#999;stroke-width:3" />
<path d="M1347.0,55.64c1.71,0.91,2.85,0.45,3.61,0.23s7.09-2.66,8.23-3.12c2.41-0.99,3.16,0.26,2.09,2.49c-0.67,1.41-3.92,7.07-4.5,8.2s-0.38,3.17,0.76,4.76c1.14,1.59,2.89,2.84,4.04,3.76c1,0.8,0.75,2.05-0.57,3.62c-1.04,1.23-8.35,7.47-9.49,7.93" style="fill:none;stroke:#999;stroke-width:3" />
<path d="M1348.2,84.87c2.19-0.44,6.56-1.55,9.84-0.66c3.28,0.88,21.93,6.82,25.15,7.96c8.75,3.09,15.49,3.98,22.05,2.43" style="fill:none;stroke:black;stroke-width:3" />
<circle cx="1348.2" cy="84.87" r="5" stroke-width="0" fill="#FF2A00" opacity="0.7" />
</svg>