<svg width="1635px" height="109px" viewBox="0 0 1635px 109px" xmlns="http://www.w3.org/2000/svg" xmlns:xlink="http://www.w3.org/1999/xlink" xml:space="preserve" version="1.1"  baseProfile="full">
<line x1="1" y1="1" x2="1634" y2="1" style="stroke:#ddd;stroke-width:2" />
<line x1="1" y1="1" x2="1" y2="108" style="stroke:#ddd;stroke-width:2" />
<line x1="1" y1="108" x2="1634" y2="108" style="stroke:#ddd;stroke-width:2" />
<line x1="1634" y1="1" x2="1634" y2="108" style="stroke:#ddd;stroke-width:2" />
<line x1="109" y1="1" x2="109" y2="108" style="stroke:#ddd;stroke-width:2" />
<line x1="218" y1="1" x2="218" y2="108" style="stroke:#ddd;stroke-width:2" />
<line x1="327" y1="1" x2="327" y2="108" style="stroke:#ddd;stroke-width:2" />
<line x1="436" y1="1" x2="436" y2="108" style="stroke:#ddd;stroke-width:2" />
<line x1="545" y1="1" x2="545" y2="108" style="stroke:#ddd;stroke-width:2" />
<line x1="654" y1="1" x2="654" y2="108" style="stroke:#ddd;stroke-width:2" />
<line x1="763" y1="1" x2="763" y2="108" style="stroke:#ddd;stroke-width:2" />
<line x1="872" y1="1" x2="872" y2="108" style="stroke:#ddd;stroke-width:2" />
<line x1="981" y1="1" x2="981" y2="108" style="stroke:#ddd;stroke-width:2" />
<line x1="1090" y1="1" x2="1090" y2="108" style="stroke:#ddd;stroke-width:2" />
<line x1="1199" y1="1" x2="1199" y2="108" style="stroke:#ddd;stroke-width:2" />
<line x1="1308" y1="1" x2="1308" y2="108" style="stroke:#ddd;stroke-width:2" />
<line x1="1417" y1="1" x2="1417" y2="108" style="stroke:#ddd;stroke-width:2" />
<line x1="1526" y1="1" x2="1526" y2="108" style="stroke:#ddd;stroke-width:2" />
<line x1="1" y1="54" x2="1634" y2="54" style="stroke:#ddd;stroke-width:2;stroke-dasharray:3 3" />
<line x1="55" y1="1" x2="55" y2="108" style="stroke:#ddd;stroke-width:2;stroke-dasharray:3 3" />
<line x1="164" y1="1" x2="164" y2="108" style="stroke:#ddd;stroke-width:2;stroke-dasharray:3 3" />
<line x1="273" y1="1" x2="273" y2="108" style="stroke:#ddd;stroke-width:2;stroke-dasharray:3 3" />
<line x1="382" y1="1" x2="382" y2="108" style="stroke:#ddd;stroke-width:2;stroke-dasharray:3 3" />
<line x1="491" y1="1" x2="491" y2="108" style="stroke:#ddd;stroke-width:2;stroke-dasharray:3 3" />
<line x1="600" y1="1" x2="600" y2="108" style="stroke:#ddd;stroke-width:2;stroke-dasharray:3 3" />
<line x1="709" y1="1" x2="709" y2="108" style="stroke:#ddd;stroke-width:2;stroke-dasharray:3 3" />
<line x1="818" y1="1" x2="818" y2="108" style="stroke:#ddd;stroke-width:2;stroke-dasharray:3 3" />
<line x1="927" y1="1" x2="927" y2="108" style="stroke:#ddd;stroke-width:2;stroke-dasharray:3 3" />
<line x1="1036" y1="1" x2="1036" y2="108" style="stroke:#ddd;stroke-width:2;stroke-dasharray:3 3" />
<line x1="1145" y1="1" x2="1145" y2="108" style="stroke:#ddd;stroke-width:2;stroke-dasharray:3 3" />
<line x1="1254" y1="1" x2="1254" y2="108" style="stroke:#ddd;stroke-width:2;stroke-dasharray:3 3" />
<line x1="1363" y1="1" x2="1363" y2="108" style="stroke:#ddd;stroke-width:2;stroke-dasharray:3 3" />
<line x1="1472" y1="1" x2="1472" y2="108" style="stroke:#ddd;stroke-width:2;stroke-dasharray:3 3" />
<line x1="1581" y1="1" x2="1581" y2="108" style="stroke:#ddd;stroke-width:2;stroke-dasharray:3 3" />
<path d="M29.42,9.75c0.33,1.25,0.53,2.1-0.3,3.5c-2.36,4-3.36,6.5-6.28,10.16" style="fill:none;stroke:black;stroke-width:3" />
<circle cx="29.42" cy="9.75" r="5" stroke-width="0" fill="#FF2A00" opacity="0.7" />
<path d="M138.42000000000002,9.75c0.33,1.25,0.53,2.1-0.3,3.5c-2.36,4-3.36,6.5-6.28,10.16" style="fill:none;stroke:#999;stroke-width:3" />
<path d="M127.42,25.08c0.79,1.36,1,2.46,1,4.17s-0.07,22.44,0.02,25.5c0.54,18.58-2.44,31-9.69,39.5" style="fill:none;stroke:black;stroke-width:3" />
<circle cx="127.42" cy="25.08" r="5" stroke-width="0" fill="#FF2A00" opacity="0.7" />
<path d="M247.42000000000002,9.75c0.33,1.25,0.53,2.1-0.3,3.5c-2.36,4-3.36,6.5-6.28,10.16" style="fill:none;stroke:#999;stroke-width:3" />
<path d="M236.42000000000002,25.08c0.79,1.36,1,2.46,1,4.17s-0.07,22.44,0.02,25.5c0.54,18.58-2.44,31-9.69,39.5" style="fill:none;stroke:#999;stroke-width:3" />
<path d="M237.25,26.08c3.32-0.65,12.21-2.21,15.27-2.44c1.98-0.15,3.34,0.8,3.34,3.08c0,2.28-0.32,57.09-0.32,60.35c0,10.92-6,3.65-6.63,3" style="fill:none;stroke:black;stroke-width:3" />
<circle cx="237.25" cy="26.08" r="5" stroke-width="0" fill="#FF2A00" opacity="0.7" />
<path d="M356.42,9.75c0.33,1.25,0.53,2.1-0.3,3.5c-2.36,4-3.36,6.5-6.28,10.16" style="fill:none;stroke:#999;stroke-width:3" />
<path d="M345.42,25.08c0.79,1.36,1,2.46,1,4.17s-0.07,22.44,0.02,25.5c0.54,18.58-2.44,31-9.69,39.5" style="fill:none;stroke:#999;stroke-width:3" />
<path d="M346.25,26.08c3.32-0.65,12.21-2.21,15.27-2.44c1.98-0.15,3.34,0.8,3.34,3.08c0,2.28-0.32,57.09-0.32,60.35c0,10.92-6,3.65-6.63,3" style="fill:none;stroke:#999;stroke-width:3" />
<path d="M351.36,31.69c1.38,2.2,4.83,8.07,5.17,10.63" style="fill:none;stroke:black;stroke-width:3" />
<circle cx="351.36" cy="31.69" r="5" stroke-width="0" fill="#FF2A00" opacity="0.7" />
<path d="M465.42,9.75c0.33,1.25,0.53,2.1-0.3,3.5c-2.36,4-3.36,6.5-6.28,10.16" style="fill:none;stroke:#999;stroke-width:3" />
<path d="M454.42,25.08c0.79,1.36,1,2.46,1,4.17s-0.07,22.44,0.02,25.5c0.54,18.58-2.44,31-9.69,39.5" style="fill:none;stroke:#999;stroke-width:3" />
<path d="M455.25,26.08c3.32-0.65,12.21-2.21,15.27-2.44c1.98-0.15,3.34,0.8,3.34,3.08c0,2.28-0.32,57.09-0.32,60.35c0,10.92-6,3.65-6.63,3" style="fill:none;stroke:#999;stroke-width:3" />
<path d="M460.36,31.69c1.38,2.2,4.83,8.07,5.17,10.63" style="fill:none;stroke:#999;stroke-width:3" />
<path d="M462.16,55.3c1.37,1.51,1.64,2.42,1.64,3.63c0,1.21-0.22,15.98-0.22,19.48" style="fill:none;stroke:black;stroke-width:3" />
<circle cx="462.16" cy="55.3" r="5" stroke-width="0" fill="#FF2A00" opacity="0.7" />
<path d="M574.4200000000001,9.75c0.33,1.25,0.53,2.1-0.3,3.5c-2.36,4-3.36,6.5-6.28,10.16" style="fill:none;stroke:#999;stroke-width:3" />
<path d="M563.4200000000001,25.08c0.79,1.36,1,2.46,1,4.17s-0.07,22.44,0.02,25.5c0.54,18.58-2.44,31-9.69,39.5" style="fill:none;stroke:#999;stroke-width:3" />
<path d="M564.25,26.08c3.32-0.65,12.21-2.21,15.27-2.44c1.98-0.15,3.34,0.8,3.34,3.08c0,2.28-0.32,57.09-0.32,60.35c0,10.92-6,3.65-6.63,3" style="fill:none;stroke:#999;stroke-width:3" />
<path d="M569.36,31.69c1.38,2.2,4.83,8.07,5.17,10.63" style="fill:none;stroke:#999;stroke-width:3" />
<path d="M571.1600000000001,55.3c1.37,1.51,1.64,2.42,1.64,3.63c0,1.21-0.22,15.98-0.22,19.48" style="fill:none;stroke:#999;stroke-width:3" />
<path d="M554.42,55.42c0.38,1.34,2.86,2.18,4.07,1.82c1.2-0.36,28.68-11.07,30.18-11.07" style="fill:none;stroke:black;stroke-width:3" />
<circle cx="554.42" cy="55.42" r="5" stroke-width="0" fill="#FF2A00" opacity="0.7" />
<path d="M683.4200000000001,9.75c0.33,1.25,0.53,2.1-0.3,3.5c-2.36,4-3.36,6.5-6.28,10.16" style="fill:none;stroke:#999;stroke-width:3" />
<path d="M672.4200000000001,25.08c0.79,1.36,1,2.46,1,4.17s-0.07,22.44,0.02,25.5c0.54,18.58-2.44,31-9.69,39.5" style="fill:none;stroke:#999;stroke-width:3" />
<path d="M673.25,26.08c3.32-0.65,12.21-2.21,15.27-2.44c1.98-0.15,3.34,0.8,3.34,3.08c0,2.28-0.32,57.09-0.32,60.35c0,10.92-6,3.65-6.63,3" style="fill:none;stroke:#999;stroke-width:3" />
<path d="M678.36,31.69c1.38,2.2,4.83,8.07,5.17,10.63" style="fill:none;stroke:#999;stroke-width:3" />
<path d="M680.1600000000001,55.3c1.37,1.51,1.64,2.42,1.64,3.63c0,1.21-0.22,15.98-0.22,19.48" style="fill:none;stroke:#999;stroke-width:3" />
<path d="M663.42,55.42c0.38,1.34,2.86,2.18,4.07,1.82c1.2-0.36,28.68-11.07,30.18-11.07" style="fill:none;stroke:#999;stroke-width:3" />
<path d="M712.77,18.87c0.03,0.16-0.66,1.3-0.85,1.48c-2.48,2.33-4.29,3.59-9.93,5.45" style="fill:none;stroke:black;stroke-width:3" />
<circle cx="712.77" cy="18.87" r="5" stroke-width="0" fill="#FF2A00" opacity="0.7" />
<path d="M792.4200000000001,9.75c0.33,1.25,0.53,2.1-0.3,3.5c-2.36,4-3.36,6.5-6.28,10.16" style="fill:none;stroke:#999;stroke-width:3" />
<path d="M781.4200000000001,25.08c0.79,1.36,1,2.46,1,4.17s-0.07,22.44,0.02,25.5c0.54,18.58-2.44,31-9.69,39.5" style="fill:none;stroke:#999;stroke-width:3" />
<path d="M782.25,26.08c3.32-0.65,12.21-2.21,15.27-2.44c1.98-0.15,3.34,0.8,3.34,3.08c0,2.28-0.32,57.09-0.32,60.35c0,10.92-6,3.65-6.63,3" style="fill:none;stroke:#999;stroke-width:3" />
<path d="M787.36,31.69c1.38,2.2,4.83,8.07,5.17,10.63" style="fill:none;stroke:#999;stroke-width:3" />
<path d="M789.1600000000001,55.3c1.37,1.51,1.64,2.42,1.64,3.63c0,1.21-0.22,15.98-0.22,19.48" style="fill:none;stroke:#999;stroke-width:3" />
<path d="M772.42,55.42c0.38,1.34,2.86,2.18,4.07,1.82c1.2-0.36,28.68-11.07,30.18-11.07" style="fill:none;stroke:#999;stroke-width:3" />
<path d="M821.77,18.87c0.03,0.16-0.66,1.3-0.85,1.48c-2.48,2.33-4.29,3.59-9.93,5.45" style="fill:none;stroke:#999;stroke-width:3" />
<path d="M808.42,25.08c1.58,0.92,2.35,2.39,2.5,3.83c0.53,5.26,1.97,14.21,2.5,21.33" style="fill:none;stroke:black;stroke-width:3" />
<circle cx="808.42" cy="25.08" r="5" stroke-width="0" fill="#FF2A00" opacity="0.7" />
<path d="M901.4200000000001,9.75c0.33,1.25,0.53,2.1-0.3,3.5c-2.36,4-3.36,6.5-6.28,10.16" style="fill:none;stroke:#999;stroke-width:3" />
<path d="M890.4200000000001,25.08c0.79,1.36,1,2.46,1,4.17s-0.07,22.44,0.02,25.5c0.54,18.58-2.44,31-9.69,39.5" style="fill:none;stroke:#999;stroke-width:3" />
<path d="M891.25,26.08c3.32-0.65,12.21-2.21,15.27-2.44c1.98-0.15,3.34,0.8,3.34,3.08c0,2.28-0.32,57.09-0.32,60.35c0,10.92-6,3.65-6.63,3" style="fill:none;stroke:#999;stroke-width:3" />
<path d="M896.36,31.69c1.38,2.2,4.83,8.07,5.17,10.63" style="fill:none;stroke:#999;stroke-width:3" />
<path d="M898.1600000000001,55.3c1.37,1.51,1.64,2.42,1.64,3.63c0,1.21-0.22,15.98-0.22,19.48" style="fill:none;stroke:#999;stroke-width:3" />
<path d="M881.42,55.42c0.38,1.34,2.86,2.18,4.07,1.82c1.2-0.36,28.68-11.07,30.18-11.07" style="fill:none;stroke:#999;stroke-width:3" />
<path d="M930.77,18.87c0.03,0.16-0.66,1.3-0.85,1.48c-2.48,2.33-4.29,3.59-9.93,5.45" style="fill:none;stroke:#999;stroke-width:3" />
<path d="M917.42,25.08c1.58,0.92,2.35,2.39,2.5,3.83c0.53,5.26,1.97,14.21,2.5,21.33" style="fill:none;stroke:#999;stroke-width:3" />
<path d="M946.76,20.27c0.62,0.15,2.79,0.65,3.66,0.65c0.86,0,7.71-2.01,8.7-2.16c0.99-0.15,1.81,0.75,1.73,1.66c-0.74,8.77-3.64,26.23-3.76,26.83" style="fill:none;stroke:black;stroke-width:3" />
<circle cx="946.76" cy="20.27" r="5" stroke-width="0" fill="#FF2A00" opacity="0.7" />
<path d="M1010.4200000000001,9.75c0.33,1.25,0.53,2.1-0.3,3.5c-2.36,4-3.36,6.5-6.28,10.16" style="fill:none;stroke:#999;stroke-width:3" />
<path d="M999.4200000000001,25.08c0.79,1.36,1,2.46,1,4.17s-0.07,22.44,0.02,25.5c0.54,18.58-2.44,31-9.69,39.5" style="fill:none;stroke:#999;stroke-width:3" />
<path d="M1000.25,26.08c3.32-0.65,12.21-2.21,15.27-2.44c1.98-0.15,3.34,0.8,3.34,3.08c0,2.28-0.32,57.09-0.32,60.35c0,10.92-6,3.65-6.63,3" style="fill:none;stroke:#999;stroke-width:3" />
<path d="M1005.36,31.69c1.38,2.2,4.83,8.07,5.17,10.63" style="fill:none;stroke:#999;stroke-width:3" />
<path d="M1007.1600000000001,55.3c1.37,1.51,1.64,2.42,1.64,3.63c0,1.21-0.22,15.98-0.22,19.48" style="fill:none;stroke:#999;stroke-width:3" />
<path d="M990.42,55.42c0.38,1.34,2.86,2.18,4.07,1.82c1.2-0.36,28.68-11.07,30.18-11.07" style="fill:none;stroke:#999;stroke-width:3" />
<path d="M1039.77,18.87c0.03,0.16-0.66,1.3-0.85,1.48c-2.48,2.33-4.29,3.59-9.93,5.45" style="fill:none;stroke:#999;stroke-width:3" />
<path d="M1026.42,25.08c1.58,0.92,2.35,2.39,2.5,3.83c0.53,5.26,1.97,14.21,2.5,21.33" style="fill:none;stroke:#999;stroke-width:3" />
<path d="M1055.76,20.27c0.62,0.15,2.79,0.65,3.66,0.65c0.86,0,7.71-2.01,8.7-2.16c0.99-0.15,1.81,0.75,1.73,1.66c-0.74,8.77-3.64,26.23-3.76,26.83" style="fill:none;stroke:#999;stroke-width:3" />
<path d="M1030.42,36.08c2.9-0.32,7.14-1.33,7.83-1.33c0.69,0,3.28,0.17,3.83,0.17" style="fill:none;stroke:black;stroke-width:3" />
<circle cx="1030.42" cy="36.08" r="5" stroke-width="0" fill="#FF2A00" opacity="0.7" />
<path d="M1119.42,9.75c0.33,1.25,0.53,2.1-0.3,3.5c-2.36,4-3.36,6.5-6.28,10.16" style="fill:none;stroke:#999;stroke-width:3" />
<path d="M1108.42,25.08c0.79,1.36,1,2.46,1,4.17s-0.07,22.44,0.02,25.5c0.54,18.58-2.44,31-9.69,39.5" style="fill:none;stroke:#999;stroke-width:3" />
<path d="M1109.25,26.08c3.32-0.65,12.21-2.21,15.27-2.44c1.98-0.15,3.34,0.8,3.34,3.08c0,2.28-0.32,57.09-0.32,60.35c0,10.92-6,3.65-6.63,3" style="fill:none;stroke:#999;stroke-width:3" />
<path d="M1114.3600000000001,31.69c1.38,2.2,4.83,8.07,5.17,10.63" style="fill:none;stroke:#999;stroke-width:3" />
<path d="M1116.16,55.3c1.37,1.51,1.64,2.42,1.64,3.63c0,1.21-0.22,15.98-0.22,19.48" style="fill:none;stroke:#999;stroke-width:3" />
<path d="M1099.42,55.42c0.38,1.34,2.86,2.18,4.07,1.82c1.2-0.36,28.68-11.07,30.18-11.07" style="fill:none;stroke:#999;stroke-width:3" />
<path d="M1148.77,18.87c0.03,0.16-0.66,1.3-0.85,1.48c-2.48,2.33-4.29,3.59-9.93,5.45" style="fill:none;stroke:#999;stroke-width:3" />
<path d="M1135.42,25.08c1.58,0.92,2.35,2.39,2.5,3.83c0.53,5.26,1.97,14.21,2.5,21.33" style="fill:none;stroke:#999;stroke-width:3" />
<path d="M1164.76,20.27c0.62,0.15,2.79,0.65,3.66,0.65c0.86,0,7.71-2.01,8.7-2.16c0.99-0.15,1.81,0.75,1.73,1.66c-0.74,8.77-3.64,26.23-3.76,26.83" style="fill:none;stroke:#999;stroke-width:3" />
<path d="M1139.42,36.08c2.9-0.32,7.14-1.33,7.83-1.33c0.69,0,3.28,0.17,3.83,0.17" style="fill:none;stroke:#999;stroke-width:3" />
<path d="M1163.58,32.75c0.69,0.16,2.2,0.83,3.17,0.83s8.23-1.01,9.33-1.17" style="fill:none;stroke:black;stroke-width:3" />
<circle cx="1163.58" cy="32.75" r="5" stroke-width="0" fill="#FF2A00" opacity="0.7" />
<path d="M1228.42,9.75c0.33,1.25,0.53,2.1-0.3,3.5c-2.36,4-3.36,6.5-6.28,10.16" style="fill:none;stroke:#999;stroke-width:3" />
<path d="M1217.42,25.08c0.79,1.36,1,2.46,1,4.17s-0.07,22.44,0.02,25.5c0.54,18.58-2.44,31-9.69,39.5" style="fill:none;stroke:#999;stroke-width:3" />
<path d="M1218.25,26.08c3.32-0.65,12.21-2.21,15.27-2.44c1.98-0.15,3.34,0.8,3.34,3.08c0,2.28-0.32,57.09-0.32,60.35c0,10.92-6,3.65-6.63,3" style="fill:none;stroke:#999;stroke-width:3" />
<path d="M1223.3600000000001,31.69c1.38,2.2,4.83,8.07,5.17,10.63" style="fill:none;stroke:#999;stroke-width:3" />
<path d="M1225.16,55.3c1.37,1.51,1.64,2.42,1.64,3.63c0,1.21-0.22,15.98-0.22,19.48" style="fill:none;stroke:#999;stroke-width:3" />
<path d="M1208.42,55.42c0.38,1.34,2.86,2.18,4.07,1.82c1.2-0.36,28.68-11.07,30.18-11.07" style="fill:none;stroke:#999;stroke-width:3" />
<path d="M1257.77,18.87c0.03,0.16-0.66,1.3-0.85,1.48c-2.48,2.33-4.29,3.59-9.93,5.45" style="fill:none;stroke:#999;stroke-width:3" />
<path d="M1244.42,25.08c1.58,0.92,2.35,2.39,2.5,3.83c0.53,5.26,1.97,14.21,2.5,21.33" style="fill:none;stroke:#999;stroke-width:3" />
<path d="M1273.76,20.27c0.62,0.15,2.79,0.65,3.66,0.65c0.86,0,7.71-2.01,8.7-2.16c0.99-0.15,1.81,0.75,1.73,1.66c-0.74,8.77-3.64,26.23-3.76,26.83" style="fill:none;stroke:#999;stroke-width:3" />
<path d="M1248.42,36.08c2.9-0.32,7.14-1.33,7.83-1.33c0.69,0,3.28,0.17,3.83,0.17" style="fill:none;stroke:#999;stroke-width:3" />
<path d="M1272.58,32.75c0.69,0.16,2.2,0.83,3.17,0.83s8.23-1.01,9.33-1.17" style="fill:none;stroke:#999;stroke-width:3" />
<path d="M1249.92,47.75c3.46-0.56,28.94-3.13,33.17-3.17" style="fill:none;stroke:black;stroke-width:3" />
<circle cx="1249.92" cy="47.75" r="5" stroke-width="0" fill="#FF2A00" opacity="0.7" />
<path d="M1337.42,9.75c0.33,1.25,0.53,2.1-0.3,3.5c-2.36,4-3.36,6.5-6.28,10.16" style="fill:none;stroke:#999;stroke-width:3" />
<path d="M1326.42,25.08c0.79,1.36,1,2.46,1,4.17s-0.07,22.44,0.02,25.5c0.54,18.58-2.44,31-9.69,39.5" style="fill:none;stroke:#999;stroke-width:3" />
<path d="M1327.25,26.08c3.32-0.65,12.21-2.21,15.27-2.44c1.98-0.15,3.34,0.8,3.34,3.08c0,2.28-0.32,57.09-0.32,60.35c0,10.92-6,3.65-6.63,3" style="fill:none;stroke:#999;stroke-width:3" />
<path d="M1332.3600000000001,31.69c1.38,2.2,4.83,8.07,5.17,10.63" style="fill:none;stroke:#999;stroke-width:3" />
<path d="M1334.16,55.3c1.37,1.51,1.64,2.42,1.64,3.63c0,1.21-0.22,15.98-0.22,19.48" style="fill:none;stroke:#999;stroke-width:3" />
<path d="M1317.42,55.42c0.38,1.34,2.86,2.18,4.07,1.82c1.2-0.36,28.68-11.07,30.18-11.07" style="fill:none;stroke:#999;stroke-width:3" />
<path d="M1366.77,18.87c0.03,0.16-0.66,1.3-0.85,1.48c-2.48,2.33-4.29,3.59-9.93,5.45" style="fill:none;stroke:#999;stroke-width:3" />
<path d="M1353.42,25.08c1.58,0.92,2.35,2.39,2.5,3.83c0.53,5.26,1.97,14.21,2.5,21.33" style="fill:none;stroke:#999;stroke-width:3" />
<path d="M1382.76,20.27c0.62,0.15,2.79,0.65,3.66,0.65c0.86,0,7.71-2.01,8.7-2.16c0.99-0.15,1.81,0.75,1.73,1.66c-0.74,8.77-3.64,26.23-3.76,26.83" style="fill:none;stroke:#999;stroke-width:3" />
<path d="M1357.42,36.08c2.9-0.32,7.14-1.33,7.83-1.33c0.69,0,3.28,0.17,3.83,0.17" style="fill:none;stroke:#999;stroke-width:3" />
<path d="M1381.58,32.75c0.69,0.16,2.2,0.83,3.17,0.83s8.23-1.01,9.33-1.17" style="fill:none;stroke:#999;stroke-width:3" />
<path d="M1358.92,47.75c3.46-0.56,28.94-3.13,33.17-3.17" style="fill:none;stroke:#999;stroke-width:3" />
<path d="M1373.69,10.75c0.87,0.47,1.39,2.11,1.56,3.05s0,39.18-0.17,45.04" style="fill:none;stroke:black;stroke-width:3" />
<circle cx="1373.69" cy="10.75" r="5" stroke-width="0" fill="#FF2A00" opacity="0.7" />
<path d="M1446.42,9.75c0.33,1.25,0.53,2.1-0.3,3.5c-2.36,4-3.36,6.5-6.28,10.16" style="fill:none;stroke:#999;stroke-width:3" />
<path d="M1435.42,25.08c0.79,1.36,1,2.46,1,4.17s-0.07,22.44,0.02,25.5c0.54,18.58-2.44,31-9.69,39.5" style="fill:none;stroke:#999;stroke-width:3" />
<path d="M1436.25,26.08c3.32-0.65,12.21-2.21,15.27-2.44c1.98-0.15,3.34,0.8,3.34,3.08c0,2.28-0.32,57.09-0.32,60.35c0,10.92-6,3.65-6.63,3" style="fill:none;stroke:#999;stroke-width:3" />
<path d="M1441.3600000000001,31.69c1.38,2.2,4.83,8.07,5.17,10.63" style="fill:none;stroke:#999;stroke-width:3" />
<path d="M1443.16,55.3c1.37,1.51,1.64,2.42,1.64,3.63c0,1.21-0.22,15.98-0.22,19.48" style="fill:none;stroke:#999;stroke-width:3" />
<path d="M1426.42,55.42c0.38,1.34,2.86,2.18,4.07,1.82c1.2-0.36,28.68-11.07,30.18-11.07" style="fill:none;stroke:#999;stroke-width:3" />
<path d="M1475.77,18.87c0.03,0.16-0.66,1.3-0.85,1.48c-2.48,2.33-4.29,3.59-9.93,5.45" style="fill:none;stroke:#999;stroke-width:3" />
<path d="M1462.42,25.08c1.58,0.92,2.35,2.39,2.5,3.83c0.53,5.26,1.97,14.21,2.5,21.33" style="fill:none;stroke:#999;stroke-width:3" />
<path d="M1491.76,20.27c0.62,0.15,2.79,0.65,3.66,0.65c0.86,0,7.71-2.01,8.7-2.16c0.99-0.15,1.81,0.75,1.73,1.66c-0.74,8.77-3.64,26.23-3.76,26.83" style="fill:none;stroke:#999;stroke-width:3" />
<path d="M1466.42,36.08c2.9-0.32,7.14-1.33,7.83-1.33c0.69,0,3.28,0.17,3.83,0.17" style="fill:none;stroke:#999;stroke-width:3" />
<path d="M1490.58,32.75c0.69,0.16,2.2,0.83,3.17,0.83s8.23-1.01,9.33-1.17" style="fill:none;stroke:#999;stroke-width:3" />
<path d="M1467.92,47.75c3.46-0.56,28.94-3.13,33.17-3.17" style="fill:none;stroke:#999;stroke-width:3" />
<path d="M1482.69,10.75c0.87,0.47,1.39,2.11,1.56,3.05s0,39.18-0.17,45.04" style="fill:none;stroke:#999;stroke-width:3" />
<path d="M1466.25,60.58c1.43,0.28,2.62,1.17,5.5,0.83c5.75-0.67,22.54-4.08,24.5-4.5c1.96-0.42,3.79,2.67,2.95,4.08C1489.03,77.97,1474.95,89.63,1458.91,96.5" style="fill:none;stroke:black;stroke-width:3" />
<circle cx="1466.25" cy="60.58" r="5" stroke-width="0" fill="#FF2A00" opacity="0.7" />
<path d="M1555.42,9.75c0.33,1.25,0.53,2.1-0.3,3.5c-2.36,4-3.36,6.5-6.28,10.16" style="fill:none;stroke:#999;stroke-width:3" />
<path d="M1544.42,25.08c0.79,1.36,1,2.46,1,4.17s-0.07,22.44,0.02,25.5c0.54,18.58-2.44,31-9.69,39.5" style="fill:none;stroke:#999;stroke-width:3" />
<path d="M1545.25,26.08c3.32-0.65,12.21-2.21,15.27-2.44c1.98-0.15,3.34,0.8,3.34,3.08c0,2.28-0.32,57.09-0.32,60.35c0,10.92-6,3.65-6.63,3" style="fill:none;stroke:#999;stroke-width:3" />
<path d="M1550.3600000000001,31.69c1.38,2.2,4.83,8.07,5.17,10.63" style="fill:none;stroke:#999;stroke-width:3" />
<path d="M1552.16,55.3c1.37,1.51,1.64,2.42,1.64,3.63c0,1.21-0.22,15.98-0.22,19.48" style="fill:none;stroke:#999;stroke-width:3" />
<path d="M1535.42,55.42c0.38,1.34,2.86,2.18,4.07,1.82c1.2-0.36,28.68-11.07,30.18-11.07" style="fill:none;stroke:#999;stroke-width:3" />
<path d="M1584.77,18.87c0.03,0.16-0.66,1.3-0.85,1.48c-2.48,2.33-4.29,3.59-9.93,5.45" style="fill:none;stroke:#999;stroke-width:3" />
<path d="M1571.42,25.08c1.58,0.92,2.35,2.39,2.5,3.83c0.53,5.26,1.97,14.21,2.5,21.33" style="fill:none;stroke:#999;stroke-width:3" />
<path d="M1600.76,20.27c0.62,0.15,2.79,0.65,3.66,0.65c0.86,0,7.71-2.01,8.7-2.16c0.99-0.15,1.81,0.75,1.73,1.66c-0.74,8.77-3.64,26.23-3.76,26.83" style="fill:none;stroke:#999;stroke-width:3" />
<path d="M1575.42,36.08c2.9-0.32,7.14-1.33,7.83-1.33c0.69,0,3.28,0.17,3.83,0.17" style="fill:none;stroke:#999;stroke-width:3" />
<path d="M1599.58,32.75c0.69,0.16,2.2,0.83,3.17,0.83s8.23-1.01,9.33-1.17" style="fill:none;stroke:#999;stroke-width:3" />
<path d="M1576.92,47.75c3.46-0.56,28.94-3.13,33.17-3.17" style="fill:none;stroke:#999;stroke-width:3" />
<path d="M1591.69,10.75c0.87,0.47,1.39,2.11,1.56,3.05s0,39.18-0.17,45.04" style="fill:none;stroke:#999;stroke-width:3" />
<path d="M1575.25,60.58c1.43,0.28,2.62,1.17,5.5,0.83c5.75-0.67,22.54-4.08,24.5-4.5c1.96-0.42,3.79,2.67,2.95,4.08C1598.03,77.97,1583.95,89.63,1567.91,96.5" style="fill:none;stroke:#999;stroke-width:3" />
<path d="M1576.75,66.58c3.92,0.11,28.9,22.22,39.38,27.85c2.24,1.21,3.88,2.01,5.97,2.41" style="fill:none;stroke:black;stroke-width:3" />
<circle cx="1576.75" cy="66.58" r="5" stroke-width="0" fill="#FF2A00" opacity="0.7" />
</svg>