<svg width="763px" height="109px" viewBox="0 0 763px 109px" xmlns="http://www.w3.org/2000/svg" xmlns:xlink="http://www.w3.org/1999/xlink" xml:space="preserve" version="1.1"  baseProfile="full">
<line x1="1" y1="1" x2="762" y2="1" style="stroke:#ddd;stroke-width:2" />
<line x1="1" y1="1" x2="1" y2="108" style="stroke:#ddd;stroke-width:2" />
<line x1="1" y1="108" x2="762" y2="108" style="stroke:#ddd;stroke-width:2" />
<line x1="762" y1="1" x2="762" y2="108" style="stroke:#ddd;stroke-width:2" />
<line x1="109" y1="1" x2="109" y2="108" style="stroke:#ddd;stroke-width:2" />
<line x1="218" y1="1" x2="218" y2="108" style="stroke:#ddd;stroke-width:2" />
<line x1="327" y1="1" x2="327" y2="108" style="stroke:#ddd;stroke-width:2" />
<line x1="436" y1="1" x2="436" y2="108" style="stroke:#ddd;stroke-width:2" />
<line x1="545" y1="1" x2="545" y2="108" style="stroke:#ddd;stroke-width:2" />
<line x1="654" y1="1" x2="654" y2="108" style="stroke:#ddd;stroke-width:2" />
<line x1="1" y1="54" x2="762" y2="54" style="stroke:#ddd;stroke-width:2;stroke-dasharray:3 3" />
<line x1="55" y1="1" x2="55" y2="108" style="stroke:#ddd;stroke-width:2;stroke-dasharray:3 3" />
<line x1="164" y1="1" x2="164" y2="108" style="stroke:#ddd;stroke-width:2;stroke-dasharray:3 3" />
<line x1="273" y1="1" x2="273" y2="108" style="stroke:#ddd;stroke-width:2;stroke-dasharray:3 3" />
<line x1="382" y1="1" x2="382" y2="108" style="stroke:#ddd;stroke-width:2;stroke-dasharray:3 3" />
<line x1="491" y1="1" x2="491" y2="108" style="stroke:#ddd;stroke-width:2;stroke-dasharray:3 3" />
<line x1="600" y1="1" x2="600" y2="108" style="stroke:#ddd;stroke-width:2;stroke-dasharray:3 3" />
<line x1="709" y1="1" x2="709" y2="108" style="stroke:#ddd;stroke-width:2;stroke-dasharray:3 3" />
<path d="M20.25,26.27c2.02,0.82,5.5,0.97,7.63,0.75c13.88-1.48,39.3-3.29,53.25-3.68c2.88-0.08,5.8-0.25,8.63,0.44" style="fill:none;stroke:black;stroke-width:3" />
<circle cx="20.25" cy="26.27" r="5" stroke-width="0" fill="#FF2A00" opacity="0.7" />
<path d="M129.25,26.27c2.02,0.82,5.5,0.97,7.63,0.75c13.88-1.48,39.3-3.29,53.25-3.68c2.88-0.08,5.8-0.25,8.63,0.44" style="fill:none;stroke:#999;stroke-width:3" />
<path d="M147.75,14.25c1.19,1.19,1.62,2.61,1.75,3.5C150.88,27,151.38,30.12,152.0,35" style="fill:none;stroke:black;stroke-width:3" />
<circle cx="147.75" cy="14.25" r="5" stroke-width="0" fill="#FF2A00" opacity="0.7" />
<path d="M238.25,26.27c2.02,0.82,5.5,0.97,7.63,0.75c13.88-1.48,39.3-3.29,53.25-3.68c2.88-0.08,5.8-0.25,8.63,0.44" style="fill:none;stroke:#999;stroke-width:3" />
<path d="M256.75,14.25c1.19,1.19,1.62,2.61,1.75,3.5C259.88,27,260.38,30.12,261.0,35" style="fill:none;stroke:#999;stroke-width:3" />
<path d="M285.5,12c0.42,1.18,0.58,2.52,0.25,4c-1,4.5-2,10.75-3.5,17" style="fill:none;stroke:black;stroke-width:3" />
<circle cx="285.5" cy="12.0" r="5" stroke-width="0" fill="#FF2A00" opacity="0.7" />
<path d="M347.25,26.27c2.02,0.82,5.5,0.97,7.63,0.75c13.88-1.48,39.3-3.29,53.25-3.68c2.88-0.08,5.8-0.25,8.63,0.44" style="fill:none;stroke:#999;stroke-width:3" />
<path d="M365.75,14.25c1.19,1.19,1.62,2.61,1.75,3.5C368.88,27,369.38,30.12,370.0,35" style="fill:none;stroke:#999;stroke-width:3" />
<path d="M394.5,12c0.42,1.18,0.58,2.52,0.25,4c-1,4.5-2,10.75-3.5,17" style="fill:none;stroke:#999;stroke-width:3" />
<path d="M352.88,41.4c2.55,0.85,6.28,0.38,8.88,0.13c12-1.15,26-2.67,41.12-3.81c2.5-0.19,5.29-0.15,7.75,0.34" style="fill:none;stroke:black;stroke-width:3" />
<circle cx="352.88" cy="41.4" r="5" stroke-width="0" fill="#FF2A00" opacity="0.7" />
<path d="M456.25,26.27c2.02,0.82,5.5,0.97,7.63,0.75c13.88-1.48,39.3-3.29,53.25-3.68c2.88-0.08,5.8-0.25,8.63,0.44" style="fill:none;stroke:#999;stroke-width:3" />
<path d="M474.75,14.25c1.19,1.19,1.62,2.61,1.75,3.5C477.88,27,478.38,30.12,479.0,35" style="fill:none;stroke:#999;stroke-width:3" />
<path d="M503.5,12c0.42,1.18,0.58,2.52,0.25,4c-1,4.5-2,10.75-3.5,17" style="fill:none;stroke:#999;stroke-width:3" />
<path d="M461.88,41.4c2.55,0.85,6.28,0.38,8.88,0.13c12-1.15,26-2.67,41.12-3.81c2.5-0.19,5.29-0.15,7.75,0.34" style="fill:none;stroke:#999;stroke-width:3" />
<path d="M464.6,51.62c1.15,0.75,3.08,0.88,5.5,0.65c12.55-1.18,37.66-3.9,42.16-4.27c2.98-0.25,4.21,0.76,3.22,3.61c-1.42,4.09-1.69,6.47-3.56,13.4" style="fill:none;stroke:black;stroke-width:3" />
<circle cx="464.6" cy="51.62" r="5" stroke-width="0" fill="#FF2A00" opacity="0.7" />
<path d="M565.25,26.27c2.02,0.82,5.5,0.97,7.63,0.75c13.88-1.48,39.3-3.29,53.25-3.68c2.88-0.08,5.8-0.25,8.63,0.44" style="fill:none;stroke:#999;stroke-width:3" />
<path d="M583.75,14.25c1.19,1.19,1.62,2.61,1.75,3.5C586.88,27,587.38,30.12,588.0,35" style="fill:none;stroke:#999;stroke-width:3" />
<path d="M612.5,12c0.42,1.18,0.58,2.52,0.25,4c-1,4.5-2,10.75-3.5,17" style="fill:none;stroke:#999;stroke-width:3" />
<path d="M570.88,41.4c2.55,0.85,6.28,0.38,8.88,0.13c12-1.15,26-2.67,41.12-3.81c2.5-0.19,5.29-0.15,7.75,0.34" style="fill:none;stroke:#999;stroke-width:3" />
<path d="M573.6,51.62c1.15,0.75,3.08,0.88,5.5,0.65c12.55-1.18,37.66-3.9,42.16-4.27c2.98-0.25,4.21,0.76,3.22,3.61c-1.42,4.09-1.69,6.47-3.56,13.4" style="fill:none;stroke:#999;stroke-width:3" />
<path d="M573.75,70c15.38-1.38,27.5-2.38,44.88-3.78c1.98-0.16,3.72-0.19,5.12-0.22" style="fill:none;stroke:black;stroke-width:3" />
<circle cx="573.75" cy="70.0" r="5" stroke-width="0" fill="#FF2A00" opacity="0.7" />
<path d="M674.25,26.27c2.02,0.82,5.5,0.97,7.63,0.75c13.88-1.48,39.3-3.29,53.25-3.68c2.88-0.08,5.8-0.25,8.63,0.44" style="fill:none;stroke:#999;stroke-width:3" />
<path d="M692.75,14.25c1.19,1.19,1.62,2.61,1.75,3.5C695.88,27,696.38,30.12,697.0,35" style="fill:none;stroke:#999;stroke-width:3" />
<path d="M721.5,12c0.42,1.18,0.58,2.52,0.25,4c-1,4.5-2,10.75-3.5,17" style="fill:none;stroke:#999;stroke-width:3" />
<path d="M679.88,41.4c2.55,0.85,6.28,0.38,8.88,0.13c12-1.15,26-2.67,41.12-3.81c2.5-0.19,5.29-0.15,7.75,0.34" style="fill:none;stroke:#999;stroke-width:3" />
<path d="M682.6,51.62c1.15,0.75,3.08,0.88,5.5,0.65c12.55-1.18,37.66-3.9,42.16-4.27c2.98-0.25,4.21,0.76,3.22,3.61c-1.42,4.09-1.69,6.47-3.56,13.4" style="fill:none;stroke:#999;stroke-width:3" />
<path d="M682.75,70c15.38-1.38,27.5-2.38,44.88-3.78c1.98-0.16,3.72-0.19,5.12-0.22" style="fill:none;stroke:#999;stroke-width:3" />
<path d="M683.71,52.68c0.74,0.74,0.77,1.79,0.63,3.49C682.5,78.25,675.0,89,665.5,100" style="fill:none;stroke:black;stroke-width:3" />
<circle cx="683.71" cy="52.68" r="5" stroke-width="0" fill="#FF2A00" opacity="0.7" />
</svg>