<svg width="1199px" height="109px" viewBox="0 0 1199px 109px" xmlns="http://www.w3.org/2000/svg" xmlns:xlink="http://www.w3.org/1999/xlink" xml:space="preserve" version="1.1"  baseProfile="full">
<line x1="1" y1="1" x2="1198" y2="1" style="stroke:#ddd;stroke-width:2" />
<line x1="1" y1="1" x2="1" y2="108" style="stroke:#ddd;stroke-width:2" />
<line x1="1" y1="108" x2="1198" y2="108" style="stroke:#ddd;stroke-width:2" />
<line x1="1198" y1="1" x2="1198" y2="108" style="stroke:#ddd;stroke-width:2" />
<line x1="109" y1="1" x2="109" y2="108" style="stroke:#ddd;stroke-width:2" />
<line x1="218" y1="1" x2="218" y2="108" style="stroke:#ddd;stroke-width:2" />
<line x1="327" y1="1" x2="327" y2="108" style="stroke:#ddd;stroke-width:2" />
<line x1="436" y1="1" x2="436" y2="108" style="stroke:#ddd;stroke-width:2" />
<line x1="545" y1="1" x2="545" y2="108" style="stroke:#ddd;stroke-width:2" />
<line x1="654" y1="1" x2="654" y2="108" style="stroke:#ddd;stroke-width:2" />
<line x1="763" y1="1" x2="763" y2="108" style="stroke:#ddd;stroke-width:2" />
<line x1="872" y1="1" x2="872" y2="108" style="stroke:#ddd;stroke-width:2" />
<line x1="981" y1="1" x2="981" y2="108" style="stroke:#ddd;stroke-width:2" />
<line x1="1090" y1="1" x2="1090" y2="108" style="stroke:#ddd;stroke-width:2" />
<line x1="1" y1="54" x2="1198" y2="54" style="stroke:#ddd;stroke-width:2;stroke-dasharray:3 3" />
<line x1="55" y1="1" x2="55" y2="108" style="stroke:#ddd;stroke-width:2;stroke-dasharray:3 3" />
<line x1="164" y1="1" x2="164" y2="108" style="stroke:#ddd;stroke-width:2;stroke-dasharray:3 3" />
<line x1="273" y1="1" x2="273" y2="108" style="stroke:#ddd;stroke-width:2;stroke-dasharray:3 3" />
<line x1="382" y1="1" x2="382" y2="108" style="stroke:#ddd;stroke-width:2;stroke-dasharray:3 3" />
<line x1="491" y1="1" x2="491" y2="108" style="stroke:#ddd;stroke-width:2;stroke-dasharray:3 3" />
<line x1="600" y1="1" x2="600" y2="108" style="stroke:#ddd;stroke-width:2;stroke-dasharray:3 3" />
<line x1="709" y1="1" x2="709" y2="108" style="stroke:#ddd;stroke-width:2;stroke-dasharray:3 3" />
<line x1="818" y1="1" x2="818" y2="108" style="stroke:#ddd;stroke-width:2;stroke-dasharray:3 3" />
<line x1="927" y1="1" x2="927" y2="108" style="stroke:#ddd;stroke-width:2;stroke-dasharray:3 3" />
<line x1="1036" y1="1" x2="1036" y2="108" style="stroke:#ddd;stroke-width:2;stroke-dasharray:3 3" />
<line x1="1145" y1="1" x2="1145" y2="108" style="stroke:#ddd;stroke-width:2;stroke-dasharray:3 3" />
<path d="M23.25,22.02c2.86,0.66,5.7,0.8,8.62,0.4c13.4-1.83,33.51-3.05,47.26-3.84c2.98-0.17,5.93-0.09,8.87,0.44" style="fill:none;stroke:black;stroke-width:3" />
<circle cx="23.25" cy="22.02" r="5" stroke-width="0" fill="#FF2A00" opacity="0.7" />
<path d="M132.25,22.02c2.86,0.66,5.7,0.8,8.62,0.4c13.4-1.83,33.51-3.05,47.26-3.84c2.98-0.17,5.93-0.09,8.87,0.44" style="fill:none;stroke:#999;stroke-width:3" />
<path d="M148.25,10.75c1.19,1.19,1.6,2.36,1.75,3.25c1.38,8.38,1.5,11.5,2,14.5" style="fill:none;stroke:black;stroke-width:3" />
<circle cx="148.25" cy="10.75" r="5" stroke-width="0" fill="#FF2A00" opacity="0.7" />
<path d="M241.25,22.02c2.86,0.66,5.7,0.8,8.62,0.4c13.4-1.83,33.51-3.05,47.26-3.84c2.98-0.17,5.93-0.09,8.87,0.44" style="fill:none;stroke:#999;stroke-width:3" />
<path d="M257.25,10.75c1.19,1.19,1.6,2.36,1.75,3.25c1.38,8.38,1.5,11.5,2,14.5" style="fill:none;stroke:#999;stroke-width:3" />
<path d="M286.25,8c0.5,1.38,0.6,2.52,0.25,4c-1.38,5.75-1.88,7.25-3.5,14" style="fill:none;stroke:black;stroke-width:3" />
<circle cx="286.25" cy="8.0" r="5" stroke-width="0" fill="#FF2A00" opacity="0.7" />
<path d="M350.25,22.02c2.86,0.66,5.7,0.8,8.62,0.4c13.4-1.83,33.51-3.05,47.26-3.84c2.98-0.17,5.93-0.09,8.87,0.44" style="fill:none;stroke:#999;stroke-width:3" />
<path d="M366.25,10.75c1.19,1.19,1.6,2.36,1.75,3.25c1.38,8.38,1.5,11.5,2,14.5" style="fill:none;stroke:#999;stroke-width:3" />
<path d="M395.25,8c0.5,1.38,0.6,2.52,0.25,4c-1.38,5.75-1.88,7.25-3.5,14" style="fill:none;stroke:#999;stroke-width:3" />
<path d="M359.81,31.96c0.87,0.87,1.19,1.29,1.46,2.63c0.6,2.96,1.79,9.76,2.56,14.44c0.31,1.9,0.55,3.44,0.65,4.24" style="fill:none;stroke:black;stroke-width:3" />
<circle cx="359.81" cy="31.96" r="5" stroke-width="0" fill="#FF2A00" opacity="0.7" />
<path d="M459.25,22.02c2.86,0.66,5.7,0.8,8.62,0.4c13.4-1.83,33.51-3.05,47.26-3.84c2.98-0.17,5.93-0.09,8.87,0.44" style="fill:none;stroke:#999;stroke-width:3" />
<path d="M475.25,10.75c1.19,1.19,1.6,2.36,1.75,3.25c1.38,8.38,1.5,11.5,2,14.5" style="fill:none;stroke:#999;stroke-width:3" />
<path d="M504.25,8c0.5,1.38,0.6,2.52,0.25,4c-1.38,5.75-1.88,7.25-3.5,14" style="fill:none;stroke:#999;stroke-width:3" />
<path d="M468.81,31.96c0.87,0.87,1.19,1.29,1.46,2.63c0.6,2.96,1.79,9.76,2.56,14.44c0.31,1.9,0.55,3.44,0.65,4.24" style="fill:none;stroke:#999;stroke-width:3" />
<path d="M471.28,33.81c7.61-0.72,29.21-2.93,36.23-3.44c3.05-0.22,5.33,1.33,4.78,3.99c-1,4.79-1.78,8.77-2.82,12.41c-0.43,1.5-0.9,2.94-1.44,4.35" style="fill:none;stroke:black;stroke-width:3" />
<circle cx="471.28" cy="33.81" r="5" stroke-width="0" fill="#FF2A00" opacity="0.7" />
<path d="M568.25,22.02c2.86,0.66,5.7,0.8,8.62,0.4c13.4-1.83,33.51-3.05,47.26-3.84c2.98-0.17,5.93-0.09,8.87,0.44" style="fill:none;stroke:#999;stroke-width:3" />
<path d="M584.25,10.75c1.19,1.19,1.6,2.36,1.75,3.25c1.38,8.38,1.5,11.5,2,14.5" style="fill:none;stroke:#999;stroke-width:3" />
<path d="M613.25,8c0.5,1.38,0.6,2.52,0.25,4c-1.38,5.75-1.88,7.25-3.5,14" style="fill:none;stroke:#999;stroke-width:3" />
<path d="M577.81,31.96c0.87,0.87,1.19,1.29,1.46,2.63c0.6,2.96,1.79,9.76,2.56,14.44c0.31,1.9,0.55,3.44,0.65,4.24" style="fill:none;stroke:#999;stroke-width:3" />
<path d="M580.28,33.81c7.61-0.72,29.21-2.93,36.23-3.44c3.05-0.22,5.33,1.33,4.78,3.99c-1,4.79-1.78,8.77-2.82,12.41c-0.43,1.5-0.9,2.94-1.44,4.35" style="fill:none;stroke:#999;stroke-width:3" />
<path d="M581.71,42.32C594.62,41,609.5,39.75,619.06,39.27" style="fill:none;stroke:black;stroke-width:3" />
<circle cx="581.71" cy="42.32" r="5" stroke-width="0" fill="#FF2A00" opacity="0.7" />
<path d="M677.25,22.02c2.86,0.66,5.7,0.8,8.62,0.4c13.4-1.83,33.51-3.05,47.26-3.84c2.98-0.17,5.93-0.09,8.87,0.44" style="fill:none;stroke:#999;stroke-width:3" />
<path d="M693.25,10.75c1.19,1.19,1.6,2.36,1.75,3.25c1.38,8.38,1.5,11.5,2,14.5" style="fill:none;stroke:#999;stroke-width:3" />
<path d="M722.25,8c0.5,1.38,0.6,2.52,0.25,4c-1.38,5.75-1.88,7.25-3.5,14" style="fill:none;stroke:#999;stroke-width:3" />
<path d="M686.81,31.96c0.87,0.87,1.19,1.29,1.46,2.63c0.6,2.96,1.79,9.76,2.56,14.44c0.31,1.9,0.55,3.44,0.65,4.24" style="fill:none;stroke:#999;stroke-width:3" />
<path d="M689.28,33.81c7.61-0.72,29.21-2.93,36.23-3.44c3.05-0.22,5.33,1.33,4.78,3.99c-1,4.79-1.78,8.77-2.82,12.41c-0.43,1.5-0.9,2.94-1.44,4.35" style="fill:none;stroke:#999;stroke-width:3" />
<path d="M690.71,42.32C703.62,41,718.5,39.75,728.06,39.27" style="fill:none;stroke:#999;stroke-width:3" />
<path d="M692.16,51.55c11.46-0.92,22.21-2.05,33.41-2.61" style="fill:none;stroke:black;stroke-width:3" />
<circle cx="692.16" cy="51.55" r="5" stroke-width="0" fill="#FF2A00" opacity="0.7" />
<path d="M786.25,22.02c2.86,0.66,5.7,0.8,8.62,0.4c13.4-1.83,33.51-3.05,47.26-3.84c2.98-0.17,5.93-0.09,8.87,0.44" style="fill:none;stroke:#999;stroke-width:3" />
<path d="M802.25,10.75c1.19,1.19,1.6,2.36,1.75,3.25c1.38,8.38,1.5,11.5,2,14.5" style="fill:none;stroke:#999;stroke-width:3" />
<path d="M831.25,8c0.5,1.38,0.6,2.52,0.25,4c-1.38,5.75-1.88,7.25-3.5,14" style="fill:none;stroke:#999;stroke-width:3" />
<path d="M795.81,31.96c0.87,0.87,1.19,1.29,1.46,2.63c0.6,2.96,1.79,9.76,2.56,14.44c0.31,1.9,0.55,3.44,0.65,4.24" style="fill:none;stroke:#999;stroke-width:3" />
<path d="M798.28,33.81c7.61-0.72,29.21-2.93,36.23-3.44c3.05-0.22,5.33,1.33,4.78,3.99c-1,4.79-1.78,8.77-2.82,12.41c-0.43,1.5-0.9,2.94-1.44,4.35" style="fill:none;stroke:#999;stroke-width:3" />
<path d="M799.71,42.32C812.62,41,827.5,39.75,837.06,39.27" style="fill:none;stroke:#999;stroke-width:3" />
<path d="M801.16,51.55c11.46-0.92,22.21-2.05,33.41-2.61" style="fill:none;stroke:#999;stroke-width:3" />
<path d="M805.91,53.92c0.12,1.33-0.22,2.46-0.99,3.4c-3.97,5.5-11.55,13.21-24.42,19.81" style="fill:none;stroke:black;stroke-width:3" />
<circle cx="805.91" cy="53.92" r="5" stroke-width="0" fill="#FF2A00" opacity="0.7" />
<path d="M895.25,22.02c2.86,0.66,5.7,0.8,8.62,0.4c13.4-1.83,33.51-3.05,47.26-3.84c2.98-0.17,5.93-0.09,8.87,0.44" style="fill:none;stroke:#999;stroke-width:3" />
<path d="M911.25,10.75c1.19,1.19,1.6,2.36,1.75,3.25c1.38,8.38,1.5,11.5,2,14.5" style="fill:none;stroke:#999;stroke-width:3" />
<path d="M940.25,8c0.5,1.38,0.6,2.52,0.25,4c-1.38,5.75-1.88,7.25-3.5,14" style="fill:none;stroke:#999;stroke-width:3" />
<path d="M904.81,31.96c0.87,0.87,1.19,1.29,1.46,2.63c0.6,2.96,1.79,9.76,2.56,14.44c0.31,1.9,0.55,3.44,0.65,4.24" style="fill:none;stroke:#999;stroke-width:3" />
<path d="M907.28,33.81c7.61-0.72,29.21-2.93,36.23-3.44c3.05-0.22,5.33,1.33,4.78,3.99c-1,4.79-1.78,8.77-2.82,12.41c-0.43,1.5-0.9,2.94-1.44,4.35" style="fill:none;stroke:#999;stroke-width:3" />
<path d="M908.71,42.32C921.62,41,936.5,39.75,946.06,39.27" style="fill:none;stroke:#999;stroke-width:3" />
<path d="M910.16,51.55c11.46-0.92,22.21-2.05,33.41-2.61" style="fill:none;stroke:#999;stroke-width:3" />
<path d="M914.91,53.92c0.12,1.33-0.22,2.46-0.99,3.4c-3.97,5.5-11.55,13.21-24.42,19.81" style="fill:none;stroke:#999;stroke-width:3" />
<path d="M914.06,62.29c2.56,0.33,5.12,0.38,7.68,0.12c8.89-0.91,28.69-3.3,32.12-3.42c4.49-0.15,5.31,1.58,4.73,5.37c-1.18,7.73-2.01,18.44-9.49,32.51c-2.6,4.88-4.6,3.38-6.73-0.7" style="fill:none;stroke:black;stroke-width:3" />
<circle cx="914.06" cy="62.29" r="5" stroke-width="0" fill="#FF2A00" opacity="0.7" />
<path d="M1004.25,22.02c2.86,0.66,5.7,0.8,8.62,0.4c13.4-1.83,33.51-3.05,47.26-3.84c2.98-0.17,5.93-0.09,8.87,0.44" style="fill:none;stroke:#999;stroke-width:3" />
<path d="M1020.25,10.75c1.19,1.19,1.6,2.36,1.75,3.25c1.38,8.38,1.5,11.5,2,14.5" style="fill:none;stroke:#999;stroke-width:3" />
<path d="M1049.25,8c0.5,1.38,0.6,2.52,0.25,4c-1.38,5.75-1.88,7.25-3.5,14" style="fill:none;stroke:#999;stroke-width:3" />
<path d="M1013.81,31.96c0.87,0.87,1.19,1.29,1.46,2.63c0.6,2.96,1.79,9.76,2.56,14.44c0.31,1.9,0.55,3.44,0.65,4.24" style="fill:none;stroke:#999;stroke-width:3" />
<path d="M1016.28,33.81c7.61-0.72,29.21-2.93,36.23-3.44c3.05-0.22,5.33,1.33,4.78,3.99c-1,4.79-1.78,8.77-2.82,12.41c-0.43,1.5-0.9,2.94-1.44,4.35" style="fill:none;stroke:#999;stroke-width:3" />
<path d="M1017.71,42.32C1030.62,41,1045.5,39.75,1055.06,39.27" style="fill:none;stroke:#999;stroke-width:3" />
<path d="M1019.16,51.55c11.46-0.92,22.21-2.05,33.41-2.61" style="fill:none;stroke:#999;stroke-width:3" />
<path d="M1023.91,53.92c0.12,1.33-0.22,2.46-0.99,3.4c-3.97,5.5-11.55,13.21-24.42,19.81" style="fill:none;stroke:#999;stroke-width:3" />
<path d="M1023.06,62.29c2.56,0.33,5.12,0.38,7.68,0.12c8.89-0.91,28.69-3.3,32.12-3.42c4.49-0.15,5.31,1.58,4.73,5.37c-1.18,7.73-2.01,18.44-9.49,32.51c-2.6,4.88-4.6,3.38-6.73-0.7" style="fill:none;stroke:#999;stroke-width:3" />
<path d="M1043.08,68.38c-0.21,1.25-1.3,2.18-2.35,2.81c-4.98,2.94-10.27,5.06-19.85,7.69" style="fill:none;stroke:black;stroke-width:3" />
<circle cx="1043.08" cy="68.38" r="5" stroke-width="0" fill="#FF2A00" opacity="0.7" />
<path d="M1113.25,22.02c2.86,0.66,5.7,0.8,8.62,0.4c13.4-1.83,33.51-3.05,47.26-3.84c2.98-0.17,5.93-0.09,8.87,0.44" style="fill:none;stroke:#999;stroke-width:3" />
<path d="M1129.25,10.75c1.19,1.19,1.6,2.36,1.75,3.25c1.38,8.38,1.5,11.5,2,14.5" style="fill:none;stroke:#999;stroke-width:3" />
<path d="M1158.25,8c0.5,1.38,0.6,2.52,0.25,4c-1.38,5.75-1.88,7.25-3.5,14" style="fill:none;stroke:#999;stroke-width:3" />
<path d="M1122.81,31.96c0.87,0.87,1.19,1.29,1.46,2.63c0.6,2.96,1.79,9.76,2.56,14.44c0.31,1.9,0.55,3.44,0.65,4.24" style="fill:none;stroke:#999;stroke-width:3" />
<path d="M1125.28,33.81c7.61-0.72,29.21-2.93,36.23-3.44c3.05-0.22,5.33,1.33,4.78,3.99c-1,4.79-1.78,8.77-2.82,12.41c-0.43,1.5-0.9,2.94-1.44,4.35" style="fill:none;stroke:#999;stroke-width:3" />
<path d="M1126.71,42.32C1139.62,41,1154.5,39.75,1164.06,39.27" style="fill:none;stroke:#999;stroke-width:3" />
<path d="M1128.1599999999999,51.55c11.46-0.92,22.21-2.05,33.41-2.61" style="fill:none;stroke:#999;stroke-width:3" />
<path d="M1132.9099999999999,53.92c0.12,1.33-0.22,2.46-0.99,3.4c-3.97,5.5-11.55,13.21-24.42,19.81" style="fill:none;stroke:#999;stroke-width:3" />
<path d="M1132.06,62.29c2.56,0.33,5.12,0.38,7.68,0.12c8.89-0.91,28.69-3.3,32.12-3.42c4.49-0.15,5.31,1.58,4.73,5.37c-1.18,7.73-2.01,18.44-9.49,32.51c-2.6,4.88-4.6,3.38-6.73-0.7" style="fill:none;stroke:#999;stroke-width:3" />
<path d="M1152.08,68.38c-0.21,1.25-1.3,2.18-2.35,2.81c-4.98,2.94-10.27,5.06-19.85,7.69" style="fill:none;stroke:#999;stroke-width:3" />
<path d="M1124.85,69.01c1.03,0.77,1.45,2,1.45,3.05c0,4.06-0.07,6.56-0.07,9.03c0,6.36,2.89,7.61,17.51,7.61c13.82,0,14.79-2.12,14.79-6.69" style="fill:none;stroke:black;stroke-width:3" />
<circle cx="1124.85" cy="69.01" r="5" stroke-width="0" fill="#FF2A00" opacity="0.7" />
</svg>