<svg width="1417px" height="109px" viewBox="0 0 1417px 109px" xmlns="http://www.w3.org/2000/svg" xmlns:xlink="http://www.w3.org/1999/xlink" xml:space="preserve" version="1.1"  baseProfile="full">
<line x1="1" y1="1" x2="1416" y2="1" style="stroke:#ddd;stroke-width:2" />
<line x1="1" y1="1" x2="1" y2="108" style="stroke:#ddd;stroke-width:2" />
<line x1="1" y1="108" x2="1416" y2="108" style="stroke:#ddd;stroke-width:2" />
<line x1="1416" y1="1" x2="1416" y2="108" style="stroke:#ddd;stroke-width:2" />
<line x1="109" y1="1" x2="109" y2="108" style="stroke:#ddd;stroke-width:2" />
<line x1="218" y1="1" x2="218" y2="108" style="stroke:#ddd;stroke-width:2" />
<line x1="327" y1="1" x2="327" y2="108" style="stroke:#ddd;stroke-width:2" />
<line x1="436" y1="1" x2="436" y2="108" style="stroke:#ddd;stroke-width:2" />
<line x1="545" y1="1" x2="545" y2="108" style="stroke:#ddd;stroke-width:2" />
<line x1="654" y1="1" x2="654" y2="108" style="stroke:#ddd;stroke-width:2" />
<line x1="763" y1="1" x2="763" y2="108" style="stroke:#ddd;stroke-width:2" />
<line x1="872" y1="1" x2="872" y2="108" style="stroke:#ddd;stroke-width:2" />
<line x1="981" y1="1" x2="981" y2="108" style="stroke:#ddd;stroke-width:2" />
<line x1="1090" y1="1" x2="1090" y2="108" style="stroke:#ddd;stroke-width:2" />
<line x1="1199" y1="1" x2="1199" y2="108" style="stroke:#ddd;stroke-width:2" />
<line x1="1308" y1="1" x2="1308" y2="108" style="stroke:#ddd;stroke-width:2" />
<line x1="1" y1="54" x2="1416" y2="54" style="stroke:#ddd;stroke-width:2;stroke-dasharray:3 3" />
<line x1="55" y1="1" x2="55" y2="108" style="stroke:#ddd;stroke-width:2;stroke-dasharray:3 3" />
<line x1="164" y1="1" x2="164" y2="108" style="stroke:#ddd;stroke-width:2;stroke-dasharray:3 3" />
<line x1="273" y1="1" x2="273" y2="108" style="stroke:#ddd;stroke-width:2;stroke-dasharray:3 3" />
<line x1="382" y1="1" x2="382" y2="108" style="stroke:#ddd;stroke-width:2;stroke-dasharray:3 3" />
<line x1="491" y1="1" x2="491" y2="108" style="stroke:#ddd;stroke-width:2;stroke-dasharray:3 3" />
<line x1="600" y1="1" x2="600" y2="108" style="stroke:#ddd;stroke-width:2;stroke-dasharray:3 3" />
<line x1="709" y1="1" x2="709" y2="108" style="stroke:#ddd;stroke-width:2;stroke-dasharray:3 3" />
<line x1="818" y1="1" x2="818" y2="108" style="stroke:#ddd;stroke-width:2;stroke-dasharray:3 3" />
<line x1="927" y1="1" x2="927" y2="108" style="stroke:#ddd;stroke-width:2;stroke-dasharray:3 3" />
<line x1="1036" y1="1" x2="1036" y2="108" style="stroke:#ddd;stroke-width:2;stroke-dasharray:3 3" />
<line x1="1145" y1="1" x2="1145" y2="108" style="stroke:#ddd;stroke-width:2;stroke-dasharray:3 3" />
<line x1="1254" y1="1" x2="1254" y2="108" style="stroke:#ddd;stroke-width:2;stroke-dasharray:3 3" />
<line x1="1363" y1="1" x2="1363" y2="108" style="stroke:#ddd;stroke-width:2;stroke-dasharray:3 3" />
<path d="M13.26,39.4c0.46,0.51,1.02,1.4,1.12,2.06c0.87,5.79,1.87,13.29,3.12,21.93" style="fill:none;stroke:black;stroke-width:3" />
<circle cx="13.26" cy="39.4" r="5" stroke-width="0" fill="#FF2A00" opacity="0.7" />
<path d="M122.26,39.4c0.46,0.51,1.02,1.4,1.12,2.06c0.87,5.79,1.87,13.29,3.12,21.93" style="fill:none;stroke:#999;stroke-width:3" />
<path d="M124.22,41.48c6.93-0.97,20.61-3.33,25.63-3.7c1.96-0.14,2.86,1.38,2.62,2.83c-0.83,4.98-1.98,9.34-3.33,17.62" style="fill:none;stroke:black;stroke-width:3" />
<circle cx="124.22" cy="41.48" r="5" stroke-width="0" fill="#FF2A00" opacity="0.7" />
<path d="M231.26,39.4c0.46,0.51,1.02,1.4,1.12,2.06c0.87,5.79,1.87,13.29,3.12,21.93" style="fill:none;stroke:#999;stroke-width:3" />
<path d="M233.22,41.48c6.93-0.97,20.61-3.33,25.63-3.7c1.96-0.14,2.86,1.38,2.62,2.83c-0.83,4.98-1.98,9.34-3.33,17.62" style="fill:none;stroke:#999;stroke-width:3" />
<path d="M235.76,61.43c5.58-0.98,16.96-2.48,24.76-3.39" style="fill:none;stroke:black;stroke-width:3" />
<circle cx="235.76" cy="61.43" r="5" stroke-width="0" fill="#FF2A00" opacity="0.7" />
<path d="M340.26,39.4c0.46,0.51,1.02,1.4,1.12,2.06c0.87,5.79,1.87,13.29,3.12,21.93" style="fill:none;stroke:#999;stroke-width:3" />
<path d="M342.22,41.48c6.93-0.97,20.61-3.33,25.63-3.7c1.96-0.14,2.86,1.38,2.62,2.83c-0.83,4.98-1.98,9.34-3.33,17.62" style="fill:none;stroke:#999;stroke-width:3" />
<path d="M344.76,61.43c5.58-0.98,16.96-2.48,24.76-3.39" style="fill:none;stroke:#999;stroke-width:3" />
<path d="M352.92,17.75c1.08,1,2.26,2.75,2.26,4.47c0,4.78-0.2,44.28-0.2,57.66" style="fill:none;stroke:black;stroke-width:3" />
<circle cx="352.92" cy="17.75" r="5" stroke-width="0" fill="#FF2A00" opacity="0.7" />
<path d="M449.26,39.4c0.46,0.51,1.02,1.4,1.12,2.06c0.87,5.79,1.87,13.29,3.12,21.93" style="fill:none;stroke:#999;stroke-width:3" />
<path d="M451.22,41.48c6.93-0.97,20.61-3.33,25.63-3.7c1.96-0.14,2.86,1.38,2.62,2.83c-0.83,4.98-1.98,9.34-3.33,17.62" style="fill:none;stroke:#999;stroke-width:3" />
<path d="M453.76,61.43c5.58-0.98,16.96-2.48,24.76-3.39" style="fill:none;stroke:#999;stroke-width:3" />
<path d="M461.92,17.75c1.08,1,2.26,2.75,2.26,4.47c0,4.78-0.2,44.28-0.2,57.66" style="fill:none;stroke:#999;stroke-width:3" />
<path d="M448.07,85.77c0.6,1.16,2.46,1.11,3.06,0.82c0.6-0.29,23.04-12.15,26.76-14.47" style="fill:none;stroke:black;stroke-width:3" />
<circle cx="448.07" cy="85.77" r="5" stroke-width="0" fill="#FF2A00" opacity="0.7" />
<path d="M558.26,39.4c0.46,0.51,1.02,1.4,1.12,2.06c0.87,5.79,1.87,13.29,3.12,21.93" style="fill:none;stroke:#999;stroke-width:3" />
<path d="M560.22,41.48c6.93-0.97,20.61-3.33,25.63-3.7c1.96-0.14,2.86,1.38,2.62,2.83c-0.83,4.98-1.98,9.34-3.33,17.62" style="fill:none;stroke:#999;stroke-width:3" />
<path d="M562.76,61.43c5.58-0.98,16.96-2.48,24.76-3.39" style="fill:none;stroke:#999;stroke-width:3" />
<path d="M570.9200000000001,17.75c1.08,1,2.26,2.75,2.26,4.47c0,4.78-0.2,44.28-0.2,57.66" style="fill:none;stroke:#999;stroke-width:3" />
<path d="M557.0699999999999,85.77c0.6,1.16,2.46,1.11,3.06,0.82c0.6-0.29,23.04-12.15,26.76-14.47" style="fill:none;stroke:#999;stroke-width:3" />
<path d="M583.5,65.25c2.67,2.94,6.89,12.08,7.56,16.64" style="fill:none;stroke:black;stroke-width:3" />
<circle cx="583.5" cy="65.25" r="5" stroke-width="0" fill="#FF2A00" opacity="0.7" />
<path d="M667.26,39.4c0.46,0.51,1.02,1.4,1.12,2.06c0.87,5.79,1.87,13.29,3.12,21.93" style="fill:none;stroke:#999;stroke-width:3" />
<path d="M669.22,41.48c6.93-0.97,20.61-3.33,25.63-3.7c1.96-0.14,2.86,1.38,2.62,2.83c-0.83,4.98-1.98,9.34-3.33,17.62" style="fill:none;stroke:#999;stroke-width:3" />
<path d="M671.76,61.43c5.58-0.98,16.96-2.48,24.76-3.39" style="fill:none;stroke:#999;stroke-width:3" />
<path d="M679.9200000000001,17.75c1.08,1,2.26,2.75,2.26,4.47c0,4.78-0.2,44.28-0.2,57.66" style="fill:none;stroke:#999;stroke-width:3" />
<path d="M666.0699999999999,85.77c0.6,1.16,2.46,1.11,3.06,0.82c0.6-0.29,23.04-12.15,26.76-14.47" style="fill:none;stroke:#999;stroke-width:3" />
<path d="M692.5,65.25c2.67,2.94,6.89,12.08,7.56,16.64" style="fill:none;stroke:#999;stroke-width:3" />
<path d="M723.49,10.5c0.12,0.38,1.67,1.95,1.67,4.34c0,8.16,0.09,21.01,0.09,24.91" style="fill:none;stroke:black;stroke-width:3" />
<circle cx="723.49" cy="10.5" r="5" stroke-width="0" fill="#FF2A00" opacity="0.7" />
<path d="M776.26,39.4c0.46,0.51,1.02,1.4,1.12,2.06c0.87,5.79,1.87,13.29,3.12,21.93" style="fill:none;stroke:#999;stroke-width:3" />
<path d="M778.22,41.48c6.93-0.97,20.61-3.33,25.63-3.7c1.96-0.14,2.86,1.38,2.62,2.83c-0.83,4.98-1.98,9.34-3.33,17.62" style="fill:none;stroke:#999;stroke-width:3" />
<path d="M780.76,61.43c5.58-0.98,16.96-2.48,24.76-3.39" style="fill:none;stroke:#999;stroke-width:3" />
<path d="M788.9200000000001,17.75c1.08,1,2.26,2.75,2.26,4.47c0,4.78-0.2,44.28-0.2,57.66" style="fill:none;stroke:#999;stroke-width:3" />
<path d="M775.0699999999999,85.77c0.6,1.16,2.46,1.11,3.06,0.82c0.6-0.29,23.04-12.15,26.76-14.47" style="fill:none;stroke:#999;stroke-width:3" />
<path d="M801.5,65.25c2.67,2.94,6.89,12.08,7.56,16.64" style="fill:none;stroke:#999;stroke-width:3" />
<path d="M832.49,10.5c0.12,0.38,1.67,1.95,1.67,4.34c0,8.16,0.09,21.01,0.09,24.91" style="fill:none;stroke:#999;stroke-width:3" />
<path d="M813.81,18.83c3.61,2.62,7.67,8.92,8.57,12.99" style="fill:none;stroke:black;stroke-width:3" />
<circle cx="813.81" cy="18.83" r="5" stroke-width="0" fill="#FF2A00" opacity="0.7" />
<path d="M885.26,39.4c0.46,0.51,1.02,1.4,1.12,2.06c0.87,5.79,1.87,13.29,3.12,21.93" style="fill:none;stroke:#999;stroke-width:3" />
<path d="M887.22,41.48c6.93-0.97,20.61-3.33,25.63-3.7c1.96-0.14,2.86,1.38,2.62,2.83c-0.83,4.98-1.98,9.34-3.33,17.62" style="fill:none;stroke:#999;stroke-width:3" />
<path d="M889.76,61.43c5.58-0.98,16.96-2.48,24.76-3.39" style="fill:none;stroke:#999;stroke-width:3" />
<path d="M897.9200000000001,17.75c1.08,1,2.26,2.75,2.26,4.47c0,4.78-0.2,44.28-0.2,57.66" style="fill:none;stroke:#999;stroke-width:3" />
<path d="M884.0699999999999,85.77c0.6,1.16,2.46,1.11,3.06,0.82c0.6-0.29,23.04-12.15,26.76-14.47" style="fill:none;stroke:#999;stroke-width:3" />
<path d="M910.5,65.25c2.67,2.94,6.89,12.08,7.56,16.64" style="fill:none;stroke:#999;stroke-width:3" />
<path d="M941.49,10.5c0.12,0.38,1.67,1.95,1.67,4.34c0,8.16,0.09,21.01,0.09,24.91" style="fill:none;stroke:#999;stroke-width:3" />
<path d="M922.81,18.83c3.61,2.62,7.67,8.92,8.57,12.99" style="fill:none;stroke:#999;stroke-width:3" />
<path d="M962.71,15.1c0.03,0.46,0.07,1.19-0.07,1.85c-0.84,3.9-4.91,10.02-9.5,14.32" style="fill:none;stroke:black;stroke-width:3" />
<circle cx="962.71" cy="15.1" r="5" stroke-width="0" fill="#FF2A00" opacity="0.7" />
<path d="M994.26,39.4c0.46,0.51,1.02,1.4,1.12,2.06c0.87,5.79,1.87,13.29,3.12,21.93" style="fill:none;stroke:#999;stroke-width:3" />
<path d="M996.22,41.48c6.93-0.97,20.61-3.33,25.63-3.7c1.96-0.14,2.86,1.38,2.62,2.83c-0.83,4.98-1.98,9.34-3.33,17.62" style="fill:none;stroke:#999;stroke-width:3" />
<path d="M998.76,61.43c5.58-0.98,16.96-2.48,24.76-3.39" style="fill:none;stroke:#999;stroke-width:3" />
<path d="M1006.9200000000001,17.75c1.08,1,2.26,2.75,2.26,4.47c0,4.78-0.2,44.28-0.2,57.66" style="fill:none;stroke:#999;stroke-width:3" />
<path d="M993.0699999999999,85.77c0.6,1.16,2.46,1.11,3.06,0.82c0.6-0.29,23.04-12.15,26.76-14.47" style="fill:none;stroke:#999;stroke-width:3" />
<path d="M1019.5,65.25c2.67,2.94,6.89,12.08,7.56,16.64" style="fill:none;stroke:#999;stroke-width:3" />
<path d="M1050.49,10.5c0.12,0.38,1.67,1.95,1.67,4.34c0,8.16,0.09,21.01,0.09,24.91" style="fill:none;stroke:#999;stroke-width:3" />
<path d="M1031.81,18.83c3.61,2.62,7.67,8.92,8.57,12.99" style="fill:none;stroke:#999;stroke-width:3" />
<path d="M1071.71,15.1c0.03,0.46,0.07,1.19-0.07,1.85c-0.84,3.9-4.91,10.02-9.5,14.32" style="fill:none;stroke:#999;stroke-width:3" />
<path d="M1034.36,39.94c0.62,0.93,1.04,1.85,1.24,2.78s0.29,51.02,0.21,53.1" style="fill:none;stroke:black;stroke-width:3" />
<circle cx="1034.36" cy="39.94" r="5" stroke-width="0" fill="#FF2A00" opacity="0.7" />
<path d="M1103.26,39.4c0.46,0.51,1.02,1.4,1.12,2.06c0.87,5.79,1.87,13.29,3.12,21.93" style="fill:none;stroke:#999;stroke-width:3" />
<path d="M1105.22,41.48c6.93-0.97,20.61-3.33,25.63-3.7c1.96-0.14,2.86,1.38,2.62,2.83c-0.83,4.98-1.98,9.34-3.33,17.62" style="fill:none;stroke:#999;stroke-width:3" />
<path d="M1107.76,61.43c5.58-0.98,16.96-2.48,24.76-3.39" style="fill:none;stroke:#999;stroke-width:3" />
<path d="M1115.92,17.75c1.08,1,2.26,2.75,2.26,4.47c0,4.78-0.2,44.28-0.2,57.66" style="fill:none;stroke:#999;stroke-width:3" />
<path d="M1102.07,85.77c0.6,1.16,2.46,1.11,3.06,0.82c0.6-0.29,23.04-12.15,26.76-14.47" style="fill:none;stroke:#999;stroke-width:3" />
<path d="M1128.5,65.25c2.67,2.94,6.89,12.08,7.56,16.64" style="fill:none;stroke:#999;stroke-width:3" />
<path d="M1159.49,10.5c0.12,0.38,1.67,1.95,1.67,4.34c0,8.16,0.09,21.01,0.09,24.91" style="fill:none;stroke:#999;stroke-width:3" />
<path d="M1140.81,18.83c3.61,2.62,7.67,8.92,8.57,12.99" style="fill:none;stroke:#999;stroke-width:3" />
<path d="M1180.71,15.1c0.03,0.46,0.07,1.19-0.07,1.85c-0.84,3.9-4.91,10.02-9.5,14.32" style="fill:none;stroke:#999;stroke-width:3" />
<path d="M1143.36,39.94c0.62,0.93,1.04,1.85,1.24,2.78s0.29,51.02,0.21,53.1" style="fill:none;stroke:#999;stroke-width:3" />
<path d="M1144.84,41.37c2.49-0.23,29.38-2.68,31.24-2.94c3.32-0.46,4.15,2.94,4.15,4.4c0,9.99-0.62,30.4-0.62,49.17c0,11.25-5.59,2.58-7.46,0.96" style="fill:none;stroke:black;stroke-width:3" />
<circle cx="1144.84" cy="41.37" r="5" stroke-width="0" fill="#FF2A00" opacity="0.7" />
<path d="M1212.26,39.4c0.46,0.51,1.02,1.4,1.12,2.06c0.87,5.79,1.87,13.29,3.12,21.93" style="fill:none;stroke:#999;stroke-width:3" />
<path d="M1214.22,41.48c6.93-0.97,20.61-3.33,25.63-3.7c1.96-0.14,2.86,1.38,2.62,2.83c-0.83,4.98-1.98,9.34-3.33,17.62" style="fill:none;stroke:#999;stroke-width:3" />
<path d="M1216.76,61.43c5.58-0.98,16.96-2.48,24.76-3.39" style="fill:none;stroke:#999;stroke-width:3" />
<path d="M1224.92,17.75c1.08,1,2.26,2.75,2.26,4.47c0,4.78-0.2,44.28-0.2,57.66" style="fill:none;stroke:#999;stroke-width:3" />
<path d="M1211.07,85.77c0.6,1.16,2.46,1.11,3.06,0.82c0.6-0.29,23.04-12.15,26.76-14.47" style="fill:none;stroke:#999;stroke-width:3" />
<path d="M1237.5,65.25c2.67,2.94,6.89,12.08,7.56,16.64" style="fill:none;stroke:#999;stroke-width:3" />
<path d="M1268.49,10.5c0.12,0.38,1.67,1.95,1.67,4.34c0,8.16,0.09,21.01,0.09,24.91" style="fill:none;stroke:#999;stroke-width:3" />
<path d="M1249.81,18.83c3.61,2.62,7.67,8.92,8.57,12.99" style="fill:none;stroke:#999;stroke-width:3" />
<path d="M1289.71,15.1c0.03,0.46,0.07,1.19-0.07,1.85c-0.84,3.9-4.91,10.02-9.5,14.32" style="fill:none;stroke:#999;stroke-width:3" />
<path d="M1252.36,39.94c0.62,0.93,1.04,1.85,1.24,2.78s0.29,51.02,0.21,53.1" style="fill:none;stroke:#999;stroke-width:3" />
<path d="M1253.84,41.37c2.49-0.23,29.38-2.68,31.24-2.94c3.32-0.46,4.15,2.94,4.15,4.4c0,9.99-0.62,30.4-0.62,49.17c0,11.25-5.59,2.58-7.46,0.96" style="fill:none;stroke:#999;stroke-width:3" />
<path d="M1253.84,56.19c8.5-1.39,27.88-2.58,35.34-3.28" style="fill:none;stroke:black;stroke-width:3" />
<circle cx="1253.84" cy="56.19" r="5" stroke-width="0" fill="#FF2A00" opacity="0.7" />
<path d="M1321.26,39.4c0.46,0.51,1.02,1.4,1.12,2.06c0.87,5.79,1.87,13.29,3.12,21.93" style="fill:none;stroke:#999;stroke-width:3" />
<path d="M1323.22,41.48c6.93-0.97,20.61-3.33,25.63-3.7c1.96-0.14,2.86,1.38,2.62,2.83c-0.83,4.98-1.98,9.34-3.33,17.62" style="fill:none;stroke:#999;stroke-width:3" />
<path d="M1325.76,61.43c5.58-0.98,16.96-2.48,24.76-3.39" style="fill:none;stroke:#999;stroke-width:3" />
<path d="M1333.92,17.75c1.08,1,2.26,2.75,2.26,4.47c0,4.78-0.2,44.28-0.2,57.66" style="fill:none;stroke:#999;stroke-width:3" />
<path d="M1320.07,85.77c0.6,1.16,2.46,1.11,3.06,0.82c0.6-0.29,23.04-12.15,26.76-14.47" style="fill:none;stroke:#999;stroke-width:3" />
<path d="M1346.5,65.25c2.67,2.94,6.89,12.08,7.56,16.64" style="fill:none;stroke:#999;stroke-width:3" />
<path d="M1377.49,10.5c0.12,0.38,1.67,1.95,1.67,4.34c0,8.16,0.09,21.01,0.09,24.91" style="fill:none;stroke:#999;stroke-width:3" />
<path d="M1358.81,18.83c3.61,2.62,7.67,8.92,8.57,12.99" style="fill:none;stroke:#999;stroke-width:3" />
<path d="M1398.71,15.1c0.03,0.46,0.07,1.19-0.07,1.85c-0.84,3.9-4.91,10.02-9.5,14.32" style="fill:none;stroke:#999;stroke-width:3" />
<path d="M1361.36,39.94c0.62,0.93,1.04,1.85,1.24,2.78s0.29,51.02,0.21,53.1" style="fill:none;stroke:#999;stroke-width:3" />
<path d="M1362.84,41.37c2.49-0.23,29.38-2.68,31.24-2.94c3.32-0.46,4.15,2.94,4.15,4.4c0,9.99-0.62,30.4-0.62,49.17c0,11.25-5.59,2.58-7.46,0.96" style="fill:none;stroke:#999;stroke-width:3" />
<path d="M1362.84,56.19c8.5-1.39,27.88-2.58,35.34-3.28" style="fill:none;stroke:#999;stroke-width:3" />
<path d="M1363.22,70.86c6.63-0.7,26.47-1.82,34.14-2.28" style="fill:none;stroke:black;stroke-width:3" />
<circle cx="1363.22" cy="70.86" r="5" stroke-width="0" fill="#FF2A00" opacity="0.7" />
</svg>