<svg width="1417px" height="109px" viewBox="0 0 1417px 109px" xmlns="http://www.w3.org/2000/svg" xmlns:xlink="http://www.w3.org/1999/xlink" xml:space="preserve" version="1.1"  baseProfile="full">
<line x1="1" y1="1" x2="1416" y2="1" style="stroke:#ddd;stroke-width:2" />
<line x1="1" y1="1" x2="1" y2="108" style="stroke:#ddd;stroke-width:2" />
<line x1="1" y1="108" x2="1416" y2="108" style="stroke:#ddd;stroke-width:2" />
<line x1="1416" y1="1" x2="1416" y2="108" style="stroke:#ddd;stroke-width:2" />
<line x1="109" y1="1" x2="109" y2="108" style="stroke:#ddd;stroke-width:2" />
<line x1="218" y1="1" x2="218" y2="108" style="stroke:#ddd;stroke-width:2" />
<line x1="327" y1="1" x2="327" y2="108" style="stroke:#ddd;stroke-width:2" />
<line x1="436" y1="1" x2="436" y2="108" style="stroke:#ddd;stroke-width:2" />
<line x1="545" y1="1" x2="545" y2="108" style="stroke:#ddd;stroke-width:2" />
<line x1="654" y1="1" x2="654" y2="108" style="stroke:#ddd;stroke-width:2" />
<line x1="763" y1="1" x2="763" y2="108" style="stroke:#ddd;stroke-width:2" />
<line x1="872" y1="1" x2="872" y2="108" style="stroke:#ddd;stroke-width:2" />
<line x1="981" y1="1" x2="981" y2="108" style="stroke:#ddd;stroke-width:2" />
<line x1="1090" y1="1" x2="1090" y2="108" style="stroke:#ddd;stroke-width:2" />
<line x1="1199" y1="1" x2="1199" y2="108" style="stroke:#ddd;stroke-width:2" />
<line x1="1308" y1="1" x2="1308" y2="108" style="stroke:#ddd;stroke-width:2" />
<line x1="1" y1="54" x2="1416" y2="54" style="stroke:#ddd;stroke-width:2;stroke-dasharray:3 3" />
<line x1="55" y1="1" x2="55" y2="108" style="stroke:#ddd;stroke-width:2;stroke-dasharray:3 3" />
<line x1="164" y1="1" x2="164" y2="108" style="stroke:#ddd;stroke-width:2;stroke-dasharray:3 3" />
<line x1="273" y1="1" x2="273" y2="108" style="stroke:#ddd;stroke-width:2;stroke-dasharray:3 3" />
<line x1="382" y1="1" x2="382" y2="108" style="stroke:#ddd;stroke-width:2;stroke-dasharray:3 3" />
<line x1="491" y1="1" x2="491" y2="108" style="stroke:#ddd;stroke-width:2;stroke-dasharray:3 3" />
<line x1="600" y1="1" x2="600" y2="108" style="stroke:#ddd;stroke-width:2;stroke-dasharray:3 3" />
<line x1="709" y1="1" x2="709" y2="108" style="stroke:#ddd;stroke-width:2;stroke-dasharray:3 3" />
<line x1="818" y1="1" x2="818" y2="108" style="stroke:#ddd;stroke-width:2;stroke-dasharray:3 3" />
<line x1="927" y1="1" x2="927" y2="108" style="stroke:#ddd;stroke-width:2;stroke-dasharray:3 3" />
<line x1="1036" y1="1" x2="1036" y2="108" style="stroke:#ddd;stroke-width:2;stroke-dasharray:3 3" />
<line x1="1145" y1="1" x2="1145" y2="108" style="stroke:#ddd;stroke-width:2;stroke-dasharray:3 3" />
<line x1="1254" y1="1" x2="1254" y2="108" style="stroke:#ddd;stroke-width:2;stroke-dasharray:3 3" />
<line x1="1363" y1="1" x2="1363" y2="108" style="stroke:#ddd;stroke-width:2;stroke-dasharray:3 3" />
<path d="M52.29,53.75c0.66,0.35,1.75,1.59,1.75,2.42c0,1.35-0.09,5.27-0.09,6.76" style="fill:none;stroke:black;stroke-width:3" />
<circle cx="52.29" cy="53.75" r="5" stroke-width="0" fill="#FF2A00" opacity="0.7" />
<path d="M161.29,53.75c0.66,0.35,1.75,1.59,1.75,2.42c0,1.35-0.09,5.27-0.09,6.76" style="fill:none;stroke:#999;stroke-width:3" />
<path d="M130.5,65.77c1.69,0.06,5.54,0.49,7.18,0.32C150.5,64.75,177.5,61,191.0,60.49c2.78-0.11,4.2,0.03,6.27,0.41" style="fill:none;stroke:black;stroke-width:3" />
<circle cx="130.5" cy="65.77" r="5" stroke-width="0" fill="#FF2A00" opacity="0.7" />
<path d="M270.28999999999996,53.75c0.66,0.35,1.75,1.59,1.75,2.42c0,1.35-0.09,5.27-0.09,6.76" style="fill:none;stroke:#999;stroke-width:3" />
<path d="M239.5,65.77c1.69,0.06,5.54,0.49,7.18,0.32C259.5,64.75,286.5,61,300.0,60.49c2.78-0.11,4.2,0.03,6.27,0.41" style="fill:none;stroke:#999;stroke-width:3" />
<path d="M270.42,63.16c0.1,0.57,0.38,1.52-0.19,2.29C266.53,70.44,253.0,81.25,236.05,87.4" style="fill:none;stroke:black;stroke-width:3" />
<circle cx="270.42" cy="63.16" r="5" stroke-width="0" fill="#FF2A00" opacity="0.7" />
<path d="M379.28999999999996,53.75c0.66,0.35,1.75,1.59,1.75,2.42c0,1.35-0.09,5.27-0.09,6.76" style="fill:none;stroke:#999;stroke-width:3" />
<path d="M348.5,65.77c1.69,0.06,5.54,0.49,7.18,0.32C368.5,64.75,395.5,61,409.0,60.49c2.78-0.11,4.2,0.03,6.27,0.41" style="fill:none;stroke:#999;stroke-width:3" />
<path d="M379.42,63.16c0.1,0.57,0.38,1.52-0.19,2.29C375.53,70.44,362.0,81.25,345.05,87.4" style="fill:none;stroke:#999;stroke-width:3" />
<path d="M369.22,78.67c0.45,0.31,0.94,1.62,0.94,2.16c-0.03,6.85-0.3,15.67-0.3,16.83c0,1.16,1.11,1.82,2.52,0.95c1.41-0.87,10.88-8.86,16.34-12.74" style="fill:none;stroke:black;stroke-width:3" />
<circle cx="369.22" cy="78.67" r="5" stroke-width="0" fill="#FF2A00" opacity="0.7" />
<path d="M488.28999999999996,53.75c0.66,0.35,1.75,1.59,1.75,2.42c0,1.35-0.09,5.27-0.09,6.76" style="fill:none;stroke:#999;stroke-width:3" />
<path d="M457.5,65.77c1.69,0.06,5.54,0.49,7.18,0.32C477.5,64.75,504.5,61,518.0,60.49c2.78-0.11,4.2,0.03,6.27,0.41" style="fill:none;stroke:#999;stroke-width:3" />
<path d="M488.42,63.16c0.1,0.57,0.38,1.52-0.19,2.29C484.53,70.44,471.0,81.25,454.05,87.4" style="fill:none;stroke:#999;stroke-width:3" />
<path d="M478.22,78.67c0.45,0.31,0.94,1.62,0.94,2.16c-0.03,6.85-0.3,15.67-0.3,16.83c0,1.16,1.11,1.82,2.52,0.95c1.41-0.87,10.88-8.86,16.34-12.74" style="fill:none;stroke:#999;stroke-width:3" />
<path d="M513.04,66.62c0.02,0.22,0.22,1.07,0.09,1.37c-0.77,1.84-3.18,4.46-7.11,8.12" style="fill:none;stroke:black;stroke-width:3" />
<circle cx="513.04" cy="66.62" r="5" stroke-width="0" fill="#FF2A00" opacity="0.7" />
<path d="M597.29,53.75c0.66,0.35,1.75,1.59,1.75,2.42c0,1.35-0.09,5.27-0.09,6.76" style="fill:none;stroke:#999;stroke-width:3" />
<path d="M566.5,65.77c1.69,0.06,5.54,0.49,7.18,0.32C586.5,64.75,613.5,61,627.0,60.49c2.78-0.11,4.2,0.03,6.27,0.41" style="fill:none;stroke:#999;stroke-width:3" />
<path d="M597.4200000000001,63.16c0.1,0.57,0.38,1.52-0.19,2.29C593.53,70.44,580.0,81.25,563.05,87.4" style="fill:none;stroke:#999;stroke-width:3" />
<path d="M587.22,78.67c0.45,0.31,0.94,1.62,0.94,2.16c-0.03,6.85-0.3,15.67-0.3,16.83c0,1.16,1.11,1.82,2.52,0.95c1.41-0.87,10.88-8.86,16.34-12.74" style="fill:none;stroke:#999;stroke-width:3" />
<path d="M622.04,66.62c0.02,0.22,0.22,1.07,0.09,1.37c-0.77,1.84-3.18,4.46-7.11,8.12" style="fill:none;stroke:#999;stroke-width:3" />
<path d="M600.54,64.83c1.47,0.84,3.84,3.18,4.22,3.57c6.49,6.6,17.99,18.1,24.63,21.91c1.67,0.96,2.83,1.68,4.36,2.01" style="fill:none;stroke:black;stroke-width:3" />
<circle cx="600.54" cy="64.83" r="5" stroke-width="0" fill="#FF2A00" opacity="0.7" />
<path d="M706.29,53.75c0.66,0.35,1.75,1.59,1.75,2.42c0,1.35-0.09,5.27-0.09,6.76" style="fill:none;stroke:#999;stroke-width:3" />
<path d="M675.5,65.77c1.69,0.06,5.54,0.49,7.18,0.32C695.5,64.75,722.5,61,736.0,60.49c2.78-0.11,4.2,0.03,6.27,0.41" style="fill:none;stroke:#999;stroke-width:3" />
<path d="M706.4200000000001,63.16c0.1,0.57,0.38,1.52-0.19,2.29C702.53,70.44,689.0,81.25,672.05,87.4" style="fill:none;stroke:#999;stroke-width:3" />
<path d="M696.22,78.67c0.45,0.31,0.94,1.62,0.94,2.16c-0.03,6.85-0.3,15.67-0.3,16.83c0,1.16,1.11,1.82,2.52,0.95c1.41-0.87,10.88-8.86,16.34-12.74" style="fill:none;stroke:#999;stroke-width:3" />
<path d="M731.04,66.62c0.02,0.22,0.22,1.07,0.09,1.37c-0.77,1.84-3.18,4.46-7.11,8.12" style="fill:none;stroke:#999;stroke-width:3" />
<path d="M709.54,64.83c1.47,0.84,3.84,3.18,4.22,3.57c6.49,6.6,17.99,18.1,24.63,21.91c1.67,0.96,2.83,1.68,4.36,2.01" style="fill:none;stroke:#999;stroke-width:3" />
<path d="M677.2,24.41c1.32,0.37,3.73,0.42,5.04,0.37c14.01-0.52,40.32-4.71,52.82-4.71c2.19,0,3.51,0.18,4.6,0.36" style="fill:none;stroke:black;stroke-width:3" />
<circle cx="677.2" cy="24.41" r="5" stroke-width="0" fill="#FF2A00" opacity="0.7" />
<path d="M815.29,53.75c0.66,0.35,1.75,1.59,1.75,2.42c0,1.35-0.09,5.27-0.09,6.76" style="fill:none;stroke:#999;stroke-width:3" />
<path d="M784.5,65.77c1.69,0.06,5.54,0.49,7.18,0.32C804.5,64.75,831.5,61,845.0,60.49c2.78-0.11,4.2,0.03,6.27,0.41" style="fill:none;stroke:#999;stroke-width:3" />
<path d="M815.4200000000001,63.16c0.1,0.57,0.38,1.52-0.19,2.29C811.53,70.44,798.0,81.25,781.05,87.4" style="fill:none;stroke:#999;stroke-width:3" />
<path d="M805.22,78.67c0.45,0.31,0.94,1.62,0.94,2.16c-0.03,6.85-0.3,15.67-0.3,16.83c0,1.16,1.11,1.82,2.52,0.95c1.41-0.87,10.88-8.86,16.34-12.74" style="fill:none;stroke:#999;stroke-width:3" />
<path d="M840.04,66.62c0.02,0.22,0.22,1.07,0.09,1.37c-0.77,1.84-3.18,4.46-7.11,8.12" style="fill:none;stroke:#999;stroke-width:3" />
<path d="M818.54,64.83c1.47,0.84,3.84,3.18,4.22,3.57c6.49,6.6,17.99,18.1,24.63,21.91c1.67,0.96,2.83,1.68,4.36,2.01" style="fill:none;stroke:#999;stroke-width:3" />
<path d="M786.2,24.41c1.32,0.37,3.73,0.42,5.04,0.37c14.01-0.52,40.32-4.71,52.82-4.71c2.19,0,3.51,0.18,4.6,0.36" style="fill:none;stroke:#999;stroke-width:3" />
<path d="M816.58,11.58c0.06,0.32,0.79,1.67,0.84,3.71c0.27,9.79-0.17,24.54-0.17,27.87c0,7.58-4.25,1.58-5.36,0.17" style="fill:none;stroke:black;stroke-width:3" />
<circle cx="816.58" cy="11.58" r="5" stroke-width="0" fill="#FF2A00" opacity="0.7" />
<path d="M924.29,53.75c0.66,0.35,1.75,1.59,1.75,2.42c0,1.35-0.09,5.27-0.09,6.76" style="fill:none;stroke:#999;stroke-width:3" />
<path d="M893.5,65.77c1.69,0.06,5.54,0.49,7.18,0.32C913.5,64.75,940.5,61,954.0,60.49c2.78-0.11,4.2,0.03,6.27,0.41" style="fill:none;stroke:#999;stroke-width:3" />
<path d="M924.4200000000001,63.16c0.1,0.57,0.38,1.52-0.19,2.29C920.53,70.44,907.0,81.25,890.05,87.4" style="fill:none;stroke:#999;stroke-width:3" />
<path d="M914.22,78.67c0.45,0.31,0.94,1.62,0.94,2.16c-0.03,6.85-0.3,15.67-0.3,16.83c0,1.16,1.11,1.82,2.52,0.95c1.41-0.87,10.88-8.86,16.34-12.74" style="fill:none;stroke:#999;stroke-width:3" />
<path d="M949.04,66.62c0.02,0.22,0.22,1.07,0.09,1.37c-0.77,1.84-3.18,4.46-7.11,8.12" style="fill:none;stroke:#999;stroke-width:3" />
<path d="M927.54,64.83c1.47,0.84,3.84,3.18,4.22,3.57c6.49,6.6,17.99,18.1,24.63,21.91c1.67,0.96,2.83,1.68,4.36,2.01" style="fill:none;stroke:#999;stroke-width:3" />
<path d="M895.2,24.41c1.32,0.37,3.73,0.42,5.04,0.37c14.01-0.52,40.32-4.71,52.82-4.71c2.19,0,3.51,0.18,4.6,0.36" style="fill:none;stroke:#999;stroke-width:3" />
<path d="M925.58,11.58c0.06,0.32,0.79,1.67,0.84,3.71c0.27,9.79-0.17,24.54-0.17,27.87c0,7.58-4.25,1.58-5.36,0.17" style="fill:none;stroke:#999;stroke-width:3" />
<path d="M900.75,30.23c3.21,1.13,8.29,4.64,9.1,6.39" style="fill:none;stroke:black;stroke-width:3" />
<circle cx="900.75" cy="30.23" r="5" stroke-width="0" fill="#FF2A00" opacity="0.7" />
<path d="M1033.29,53.75c0.66,0.35,1.75,1.59,1.75,2.42c0,1.35-0.09,5.27-0.09,6.76" style="fill:none;stroke:#999;stroke-width:3" />
<path d="M1002.5,65.77c1.69,0.06,5.54,0.49,7.18,0.32C1022.5,64.75,1049.5,61,1063.0,60.49c2.78-0.11,4.2,0.03,6.27,0.41" style="fill:none;stroke:#999;stroke-width:3" />
<path d="M1033.42,63.16c0.1,0.57,0.38,1.52-0.19,2.29C1029.53,70.44,1016.0,81.25,999.05,87.4" style="fill:none;stroke:#999;stroke-width:3" />
<path d="M1023.22,78.67c0.45,0.31,0.94,1.62,0.94,2.16c-0.03,6.85-0.3,15.67-0.3,16.83c0,1.16,1.11,1.82,2.52,0.95c1.41-0.87,10.88-8.86,16.34-12.74" style="fill:none;stroke:#999;stroke-width:3" />
<path d="M1058.04,66.62c0.02,0.22,0.22,1.07,0.09,1.37c-0.77,1.84-3.18,4.46-7.11,8.12" style="fill:none;stroke:#999;stroke-width:3" />
<path d="M1036.54,64.83c1.47,0.84,3.84,3.18,4.22,3.57c6.49,6.6,17.99,18.1,24.63,21.91c1.67,0.96,2.83,1.68,4.36,2.01" style="fill:none;stroke:#999;stroke-width:3" />
<path d="M1004.2,24.41c1.32,0.37,3.73,0.42,5.04,0.37c14.01-0.52,40.32-4.71,52.82-4.71c2.19,0,3.51,0.18,4.6,0.36" style="fill:none;stroke:#999;stroke-width:3" />
<path d="M1034.58,11.58c0.06,0.32,0.79,1.67,0.84,3.71c0.27,9.79-0.17,24.54-0.17,27.87c0,7.58-4.25,1.58-5.36,0.17" style="fill:none;stroke:#999;stroke-width:3" />
<path d="M1009.75,30.23c3.21,1.13,8.29,4.64,9.1,6.39" style="fill:none;stroke:#999;stroke-width:3" />
<path d="M1003.02,49.48c2.08,1.58,3.81,0.7,5.89-0.65c1.22-0.8,9.87-6.03,16.28-10.17" style="fill:none;stroke:black;stroke-width:3" />
<circle cx="1003.02" cy="49.48" r="5" stroke-width="0" fill="#FF2A00" opacity="0.7" />
<path d="M1142.29,53.75c0.66,0.35,1.75,1.59,1.75,2.42c0,1.35-0.09,5.27-0.09,6.76" style="fill:none;stroke:#999;stroke-width:3" />
<path d="M1111.5,65.77c1.69,0.06,5.54,0.49,7.18,0.32C1131.5,64.75,1158.5,61,1172.0,60.49c2.78-0.11,4.2,0.03,6.27,0.41" style="fill:none;stroke:#999;stroke-width:3" />
<path d="M1142.42,63.16c0.1,0.57,0.38,1.52-0.19,2.29C1138.53,70.44,1125.0,81.25,1108.05,87.4" style="fill:none;stroke:#999;stroke-width:3" />
<path d="M1132.22,78.67c0.45,0.31,0.94,1.62,0.94,2.16c-0.03,6.85-0.3,15.67-0.3,16.83c0,1.16,1.11,1.82,2.52,0.95c1.41-0.87,10.88-8.86,16.34-12.74" style="fill:none;stroke:#999;stroke-width:3" />
<path d="M1167.04,66.62c0.02,0.22,0.22,1.07,0.09,1.37c-0.77,1.84-3.18,4.46-7.11,8.12" style="fill:none;stroke:#999;stroke-width:3" />
<path d="M1145.54,64.83c1.47,0.84,3.84,3.18,4.22,3.57c6.49,6.6,17.99,18.1,24.63,21.91c1.67,0.96,2.83,1.68,4.36,2.01" style="fill:none;stroke:#999;stroke-width:3" />
<path d="M1113.2,24.41c1.32,0.37,3.73,0.42,5.04,0.37c14.01-0.52,40.32-4.71,52.82-4.71c2.19,0,3.51,0.18,4.6,0.36" style="fill:none;stroke:#999;stroke-width:3" />
<path d="M1143.58,11.58c0.06,0.32,0.79,1.67,0.84,3.71c0.27,9.79-0.17,24.54-0.17,27.87c0,7.58-4.25,1.58-5.36,0.17" style="fill:none;stroke:#999;stroke-width:3" />
<path d="M1118.75,30.23c3.21,1.13,8.29,4.64,9.1,6.39" style="fill:none;stroke:#999;stroke-width:3" />
<path d="M1112.02,49.48c2.08,1.58,3.81,0.7,5.89-0.65c1.22-0.8,9.87-6.03,16.28-10.17" style="fill:none;stroke:#999;stroke-width:3" />
<path d="M1164.73,25.55c0.07,0.22,0.13,0.59-0.14,0.87c-2.53,2.68-7.81,5.72-12.78,7.63" style="fill:none;stroke:black;stroke-width:3" />
<circle cx="1164.73" cy="25.55" r="5" stroke-width="0" fill="#FF2A00" opacity="0.7" />
<path d="M1251.29,53.75c0.66,0.35,1.75,1.59,1.75,2.42c0,1.35-0.09,5.27-0.09,6.76" style="fill:none;stroke:#999;stroke-width:3" />
<path d="M1220.5,65.77c1.69,0.06,5.54,0.49,7.18,0.32C1240.5,64.75,1267.5,61,1281.0,60.49c2.78-0.11,4.2,0.03,6.27,0.41" style="fill:none;stroke:#999;stroke-width:3" />
<path d="M1251.42,63.16c0.1,0.57,0.38,1.52-0.19,2.29C1247.53,70.44,1234.0,81.25,1217.05,87.4" style="fill:none;stroke:#999;stroke-width:3" />
<path d="M1241.22,78.67c0.45,0.31,0.94,1.62,0.94,2.16c-0.03,6.85-0.3,15.67-0.3,16.83c0,1.16,1.11,1.82,2.52,0.95c1.41-0.87,10.88-8.86,16.34-12.74" style="fill:none;stroke:#999;stroke-width:3" />
<path d="M1276.04,66.62c0.02,0.22,0.22,1.07,0.09,1.37c-0.77,1.84-3.18,4.46-7.11,8.12" style="fill:none;stroke:#999;stroke-width:3" />
<path d="M1254.54,64.83c1.47,0.84,3.84,3.18,4.22,3.57c6.49,6.6,17.99,18.1,24.63,21.91c1.67,0.96,2.83,1.68,4.36,2.01" style="fill:none;stroke:#999;stroke-width:3" />
<path d="M1222.2,24.41c1.32,0.37,3.73,0.42,5.04,0.37c14.01-0.52,40.32-4.71,52.82-4.71c2.19,0,3.51,0.18,4.6,0.36" style="fill:none;stroke:#999;stroke-width:3" />
<path d="M1252.58,11.58c0.06,0.32,0.79,1.67,0.84,3.71c0.27,9.79-0.17,24.54-0.17,27.87c0,7.58-4.25,1.58-5.36,0.17" style="fill:none;stroke:#999;stroke-width:3" />
<path d="M1227.75,30.23c3.21,1.13,8.29,4.64,9.1,6.39" style="fill:none;stroke:#999;stroke-width:3" />
<path d="M1221.02,49.48c2.08,1.58,3.81,0.7,5.89-0.65c1.22-0.8,9.87-6.03,16.28-10.17" style="fill:none;stroke:#999;stroke-width:3" />
<path d="M1273.73,25.55c0.07,0.22,0.13,0.59-0.14,0.87c-2.53,2.68-7.81,5.72-12.78,7.63" style="fill:none;stroke:#999;stroke-width:3" />
<path d="M1258.12,35.51C1267.0,38.5,1275.75,43.75,1280.65,48.88" style="fill:none;stroke:black;stroke-width:3" />
<circle cx="1258.12" cy="35.51" r="5" stroke-width="0" fill="#FF2A00" opacity="0.7" />
<path d="M1360.29,53.75c0.66,0.35,1.75,1.59,1.75,2.42c0,1.35-0.09,5.27-0.09,6.76" style="fill:none;stroke:#999;stroke-width:3" />
<path d="M1329.5,65.77c1.69,0.06,5.54,0.49,7.18,0.32C1349.5,64.75,1376.5,61,1390.0,60.49c2.78-0.11,4.2,0.03,6.27,0.41" style="fill:none;stroke:#999;stroke-width:3" />
<path d="M1360.42,63.16c0.1,0.57,0.38,1.52-0.19,2.29C1356.53,70.44,1343.0,81.25,1326.05,87.4" style="fill:none;stroke:#999;stroke-width:3" />
<path d="M1350.22,78.67c0.45,0.31,0.94,1.62,0.94,2.16c-0.03,6.85-0.3,15.67-0.3,16.83c0,1.16,1.11,1.82,2.52,0.95c1.41-0.87,10.88-8.86,16.34-12.74" style="fill:none;stroke:#999;stroke-width:3" />
<path d="M1385.04,66.62c0.02,0.22,0.22,1.07,0.09,1.37c-0.77,1.84-3.18,4.46-7.11,8.12" style="fill:none;stroke:#999;stroke-width:3" />
<path d="M1363.54,64.83c1.47,0.84,3.84,3.18,4.22,3.57c6.49,6.6,17.99,18.1,24.63,21.91c1.67,0.96,2.83,1.68,4.36,2.01" style="fill:none;stroke:#999;stroke-width:3" />
<path d="M1331.2,24.41c1.32,0.37,3.73,0.42,5.04,0.37c14.01-0.52,40.32-4.71,52.82-4.71c2.19,0,3.51,0.18,4.6,0.36" style="fill:none;stroke:#999;stroke-width:3" />
<path d="M1361.58,11.58c0.06,0.32,0.79,1.67,0.84,3.71c0.27,9.79-0.17,24.54-0.17,27.87c0,7.58-4.25,1.58-5.36,0.17" style="fill:none;stroke:#999;stroke-width:3" />
<path d="M1336.75,30.23c3.21,1.13,8.29,4.64,9.1,6.39" style="fill:none;stroke:#999;stroke-width:3" />
<path d="M1330.02,49.48c2.08,1.58,3.81,0.7,5.89-0.65c1.22-0.8,9.87-6.03,16.28-10.17" style="fill:none;stroke:#999;stroke-width:3" />
<path d="M1382.73,25.55c0.07,0.22,0.13,0.59-0.14,0.87c-2.53,2.68-7.81,5.72-12.78,7.63" style="fill:none;stroke:#999;stroke-width:3" />
<path d="M1367.12,35.51C1376.0,38.5,1384.75,43.75,1389.65,48.88" style="fill:none;stroke:#999;stroke-width:3" />
<path d="M1374.18,9.33c3.62,1.04,9.36,4.27,10.26,5.89" style="fill:none;stroke:black;stroke-width:3" />
<circle cx="1374.18" cy="9.33" r="5" stroke-width="0" fill="#FF2A00" opacity="0.7" />
</svg>