<svg width="1417px" height="109px" viewBox="0 0 1417px 109px" xmlns="http://www.w3.org/2000/svg" xmlns:xlink="http://www.w3.org/1999/xlink" xml:space="preserve" version="1.1"  baseProfile="full">
<line x1="1" y1="1" x2="1416" y2="1" style="stroke:#ddd;stroke-width:2" />
<line x1="1" y1="1" x2="1" y2="108" style="stroke:#ddd;stroke-width:2" />
<line x1="1" y1="108" x2="1416" y2="108" style="stroke:#ddd;stroke-width:2" />
<line x1="1416" y1="1" x2="1416" y2="108" style="stroke:#ddd;stroke-width:2" />
<line x1="109" y1="1" x2="109" y2="108" style="stroke:#ddd;stroke-width:2" />
<line x1="218" y1="1" x2="218" y2="108" style="stroke:#ddd;stroke-width:2" />
<line x1="327" y1="1" x2="327" y2="108" style="stroke:#ddd;stroke-width:2" />
<line x1="436" y1="1" x2="436" y2="108" style="stroke:#ddd;stroke-width:2" />
<line x1="545" y1="1" x2="545" y2="108" style="stroke:#ddd;stroke-width:2" />
<line x1="654" y1="1" x2="654" y2="108" style="stroke:#ddd;stroke-width:2" />
<line x1="763" y1="1" x2="763" y2="108" style="stroke:#ddd;stroke-width:2" />
<line x1="872" y1="1" x2="872" y2="108" style="stroke:#ddd;stroke-width:2" />
<line x1="981" y1="1" x2="981" y2="108" style="stroke:#ddd;stroke-width:2" />
<line x1="1090" y1="1" x2="1090" y2="108" style="stroke:#ddd;stroke-width:2" />
<line x1="1199" y1="1" x2="1199" y2="108" style="stroke:#ddd;stroke-width:2" />
<line x1="1308" y1="1" x2="1308" y2="108" style="stroke:#ddd;stroke-width:2" />
<line x1="1" y1="54" x2="1416" y2="54" style="stroke:#ddd;stroke-width:2;stroke-dasharray:3 3" />
<line x1="55" y1="1" x2="55" y2="108" style="stroke:#ddd;stroke-width:2;stroke-dasharray:3 3" />
<line x1="164" y1="1" x2="164" y2="108" style="stroke:#ddd;stroke-width:2;stroke-dasharray:3 3" />
<line x1="273" y1="1" x2="273" y2="108" style="stroke:#ddd;stroke-width:2;stroke-dasharray:3 3" />
<line x1="382" y1="1" x2="382" y2="108" style="stroke:#ddd;stroke-width:2;stroke-dasharray:3 3" />
<line x1="491" y1="1" x2="491" y2="108" style="stroke:#ddd;stroke-width:2;stroke-dasharray:3 3" />
<line x1="600" y1="1" x2="600" y2="108" style="stroke:#ddd;stroke-width:2;stroke-dasharray:3 3" />
<line x1="709" y1="1" x2="709" y2="108" style="stroke:#ddd;stroke-width:2;stroke-dasharray:3 3" />
<line x1="818" y1="1" x2="818" y2="108" style="stroke:#ddd;stroke-width:2;stroke-dasharray:3 3" />
<line x1="927" y1="1" x2="927" y2="108" style="stroke:#ddd;stroke-width:2;stroke-dasharray:3 3" />
<line x1="1036" y1="1" x2="1036" y2="108" style="stroke:#ddd;stroke-width:2;stroke-dasharray:3 3" />
<line x1="1145" y1="1" x2="1145" y2="108" style="stroke:#ddd;stroke-width:2;stroke-dasharray:3 3" />
<line x1="1254" y1="1" x2="1254" y2="108" style="stroke:#ddd;stroke-width:2;stroke-dasharray:3 3" />
<line x1="1363" y1="1" x2="1363" y2="108" style="stroke:#ddd;stroke-width:2;stroke-dasharray:3 3" />
<path d="M24.13,16c2.25,1.5,5.81,6.42,6.37,8.75" style="fill:none;stroke:black;stroke-width:3" />
<circle cx="24.13" cy="16.0" r="5" stroke-width="0" fill="#FF2A00" opacity="0.7" />
<path d="M133.13,16c2.25,1.5,5.81,6.42,6.37,8.75" style="fill:none;stroke:#999;stroke-width:3" />
<path d="M120.37,34.08c2.05,0.18,4.11,0.52,6.15,0.3c7.2-0.78,13.98-1.75,19.36-2.57c1.68-0.25,3.53-0.3,5.22,0.11" style="fill:none;stroke:black;stroke-width:3" />
<circle cx="120.37" cy="34.08" r="5" stroke-width="0" fill="#FF2A00" opacity="0.7" />
<path d="M242.13,16c2.25,1.5,5.81,6.42,6.37,8.75" style="fill:none;stroke:#999;stroke-width:3" />
<path d="M229.37,34.08c2.05,0.18,4.11,0.52,6.15,0.3c7.2-0.78,13.98-1.75,19.36-2.57c1.68-0.25,3.53-0.3,5.22,0.11" style="fill:none;stroke:#999;stroke-width:3" />
<path d="M235.73,47.06c1.54,0.38,3.09,0.46,4.65,0.27c3.62-0.45,7.74-0.7,11.25-1.42c1.21-0.25,2.87-0.28,4.52-0.16" style="fill:none;stroke:black;stroke-width:3" />
<circle cx="235.73" cy="47.06" r="5" stroke-width="0" fill="#FF2A00" opacity="0.7" />
<path d="M351.13,16c2.25,1.5,5.81,6.42,6.37,8.75" style="fill:none;stroke:#999;stroke-width:3" />
<path d="M338.37,34.08c2.05,0.18,4.11,0.52,6.15,0.3c7.2-0.78,13.98-1.75,19.36-2.57c1.68-0.25,3.53-0.3,5.22,0.11" style="fill:none;stroke:#999;stroke-width:3" />
<path d="M344.73,47.06c1.54,0.38,3.09,0.46,4.65,0.27c3.62-0.45,7.74-0.7,11.25-1.42c1.21-0.25,2.87-0.28,4.52-0.16" style="fill:none;stroke:#999;stroke-width:3" />
<path d="M345.73,60.33c1.51,0.06,3.02,0.38,4.52,0.19c4.25-0.53,6.25-0.78,11.26-1.82c1.32-0.27,2.67-0.27,4.02-0.24" style="fill:none;stroke:black;stroke-width:3" />
<circle cx="345.73" cy="60.33" r="5" stroke-width="0" fill="#FF2A00" opacity="0.7" />
<path d="M460.13,16c2.25,1.5,5.81,6.42,6.37,8.75" style="fill:none;stroke:#999;stroke-width:3" />
<path d="M447.37,34.08c2.05,0.18,4.11,0.52,6.15,0.3c7.2-0.78,13.98-1.75,19.36-2.57c1.68-0.25,3.53-0.3,5.22,0.11" style="fill:none;stroke:#999;stroke-width:3" />
<path d="M453.73,47.06c1.54,0.38,3.09,0.46,4.65,0.27c3.62-0.45,7.74-0.7,11.25-1.42c1.21-0.25,2.87-0.28,4.52-0.16" style="fill:none;stroke:#999;stroke-width:3" />
<path d="M454.73,60.33c1.51,0.06,3.02,0.38,4.52,0.19c4.25-0.53,6.25-0.78,11.26-1.82c1.32-0.27,2.67-0.27,4.02-0.24" style="fill:none;stroke:#999;stroke-width:3" />
<path d="M453.39,72.4c0.92,0.92,1.11,1.94,1.3,3.21c0.7,4.58,1.44,8.92,2.13,13.02c0.23,1.4,0.46,2.77,0.68,4.12" style="fill:none;stroke:black;stroke-width:3" />
<circle cx="453.39" cy="72.4" r="5" stroke-width="0" fill="#FF2A00" opacity="0.7" />
<path d="M569.13,16c2.25,1.5,5.81,6.42,6.37,8.75" style="fill:none;stroke:#999;stroke-width:3" />
<path d="M556.37,34.08c2.05,0.18,4.11,0.52,6.15,0.3c7.2-0.78,13.98-1.75,19.36-2.57c1.68-0.25,3.53-0.3,5.22,0.11" style="fill:none;stroke:#999;stroke-width:3" />
<path d="M562.73,47.06c1.54,0.38,3.09,0.46,4.65,0.27c3.62-0.45,7.74-0.7,11.25-1.42c1.21-0.25,2.87-0.28,4.52-0.16" style="fill:none;stroke:#999;stroke-width:3" />
<path d="M563.73,60.33c1.51,0.06,3.02,0.38,4.52,0.19c4.25-0.53,6.25-0.78,11.26-1.82c1.32-0.27,2.67-0.27,4.02-0.24" style="fill:none;stroke:#999;stroke-width:3" />
<path d="M562.39,72.4c0.92,0.92,1.11,1.94,1.3,3.21c0.7,4.58,1.44,8.92,2.13,13.02c0.23,1.4,0.46,2.77,0.68,4.12" style="fill:none;stroke:#999;stroke-width:3" />
<path d="M564.31,73.87c6.93-1.39,11.52-2.23,16.95-3.06c2.09-0.32,3.59,0.93,3.15,3.08c-0.79,3.87-1.48,7.09-2.91,13.49" style="fill:none;stroke:black;stroke-width:3" />
<circle cx="564.31" cy="73.87" r="5" stroke-width="0" fill="#FF2A00" opacity="0.7" />
<path d="M678.13,16c2.25,1.5,5.81,6.42,6.37,8.75" style="fill:none;stroke:#999;stroke-width:3" />
<path d="M665.37,34.08c2.05,0.18,4.11,0.52,6.15,0.3c7.2-0.78,13.98-1.75,19.36-2.57c1.68-0.25,3.53-0.3,5.22,0.11" style="fill:none;stroke:#999;stroke-width:3" />
<path d="M671.73,47.06c1.54,0.38,3.09,0.46,4.65,0.27c3.62-0.45,7.74-0.7,11.25-1.42c1.21-0.25,2.87-0.28,4.52-0.16" style="fill:none;stroke:#999;stroke-width:3" />
<path d="M672.73,60.33c1.51,0.06,3.02,0.38,4.52,0.19c4.25-0.53,6.25-0.78,11.26-1.82c1.32-0.27,2.67-0.27,4.02-0.24" style="fill:none;stroke:#999;stroke-width:3" />
<path d="M671.39,72.4c0.92,0.92,1.11,1.94,1.3,3.21c0.7,4.58,1.44,8.92,2.13,13.02c0.23,1.4,0.46,2.77,0.68,4.12" style="fill:none;stroke:#999;stroke-width:3" />
<path d="M673.31,73.87c6.93-1.39,11.52-2.23,16.95-3.06c2.09-0.32,3.59,0.93,3.15,3.08c-0.79,3.87-1.48,7.09-2.91,13.49" style="fill:none;stroke:#999;stroke-width:3" />
<path d="M675.72,90.05c4.8-0.54,9.53-0.92,16.94-1.81" style="fill:none;stroke:black;stroke-width:3" />
<circle cx="675.72" cy="90.05" r="5" stroke-width="0" fill="#FF2A00" opacity="0.7" />
<path d="M787.13,16c2.25,1.5,5.81,6.42,6.37,8.75" style="fill:none;stroke:#999;stroke-width:3" />
<path d="M774.37,34.08c2.05,0.18,4.11,0.52,6.15,0.3c7.2-0.78,13.98-1.75,19.36-2.57c1.68-0.25,3.53-0.3,5.22,0.11" style="fill:none;stroke:#999;stroke-width:3" />
<path d="M780.73,47.06c1.54,0.38,3.09,0.46,4.65,0.27c3.62-0.45,7.74-0.7,11.25-1.42c1.21-0.25,2.87-0.28,4.52-0.16" style="fill:none;stroke:#999;stroke-width:3" />
<path d="M781.73,60.33c1.51,0.06,3.02,0.38,4.52,0.19c4.25-0.53,6.25-0.78,11.26-1.82c1.32-0.27,2.67-0.27,4.02-0.24" style="fill:none;stroke:#999;stroke-width:3" />
<path d="M780.39,72.4c0.92,0.92,1.11,1.94,1.3,3.21c0.7,4.58,1.44,8.92,2.13,13.02c0.23,1.4,0.46,2.77,0.68,4.12" style="fill:none;stroke:#999;stroke-width:3" />
<path d="M782.31,73.87c6.93-1.39,11.52-2.23,16.95-3.06c2.09-0.32,3.59,0.93,3.15,3.08c-0.79,3.87-1.48,7.09-2.91,13.49" style="fill:none;stroke:#999;stroke-width:3" />
<path d="M784.72,90.05c4.8-0.54,9.53-0.92,16.94-1.81" style="fill:none;stroke:#999;stroke-width:3" />
<path d="M829.1800000000001,13.75c0.07,0.91,0.11,2.18-0.38,3.39C824.25,28.38,815.88,44.5,805.25,52.02" style="fill:none;stroke:black;stroke-width:3" />
<circle cx="829.1800000000001" cy="13.75" r="5" stroke-width="0" fill="#FF2A00" opacity="0.7" />
<path d="M896.13,16c2.25,1.5,5.81,6.42,6.37,8.75" style="fill:none;stroke:#999;stroke-width:3" />
<path d="M883.37,34.08c2.05,0.18,4.11,0.52,6.15,0.3c7.2-0.78,13.98-1.75,19.36-2.57c1.68-0.25,3.53-0.3,5.22,0.11" style="fill:none;stroke:#999;stroke-width:3" />
<path d="M889.73,47.06c1.54,0.38,3.09,0.46,4.65,0.27c3.62-0.45,7.74-0.7,11.25-1.42c1.21-0.25,2.87-0.28,4.52-0.16" style="fill:none;stroke:#999;stroke-width:3" />
<path d="M890.73,60.33c1.51,0.06,3.02,0.38,4.52,0.19c4.25-0.53,6.25-0.78,11.26-1.82c1.32-0.27,2.67-0.27,4.02-0.24" style="fill:none;stroke:#999;stroke-width:3" />
<path d="M889.39,72.4c0.92,0.92,1.11,1.94,1.3,3.21c0.7,4.58,1.44,8.92,2.13,13.02c0.23,1.4,0.46,2.77,0.68,4.12" style="fill:none;stroke:#999;stroke-width:3" />
<path d="M891.31,73.87c6.93-1.39,11.52-2.23,16.95-3.06c2.09-0.32,3.59,0.93,3.15,3.08c-0.79,3.87-1.48,7.09-2.91,13.49" style="fill:none;stroke:#999;stroke-width:3" />
<path d="M893.72,90.05c4.8-0.54,9.53-0.92,16.94-1.81" style="fill:none;stroke:#999;stroke-width:3" />
<path d="M938.1800000000001,13.75c0.07,0.91,0.11,2.18-0.38,3.39C933.25,28.38,924.88,44.5,914.25,52.02" style="fill:none;stroke:#999;stroke-width:3" />
<path d="M939.12,19.75c3.65,3.81,12.25,13.38,18.7,19.69c2.66,2.6,5.31,5.34,8.43,7.34" style="fill:none;stroke:black;stroke-width:3" />
<circle cx="939.12" cy="19.75" r="5" stroke-width="0" fill="#FF2A00" opacity="0.7" />
<path d="M1005.13,16c2.25,1.5,5.81,6.42,6.37,8.75" style="fill:none;stroke:#999;stroke-width:3" />
<path d="M992.37,34.08c2.05,0.18,4.11,0.52,6.15,0.3c7.2-0.78,13.98-1.75,19.36-2.57c1.68-0.25,3.53-0.3,5.22,0.11" style="fill:none;stroke:#999;stroke-width:3" />
<path d="M998.73,47.06c1.54,0.38,3.09,0.46,4.65,0.27c3.62-0.45,7.74-0.7,11.25-1.42c1.21-0.25,2.87-0.28,4.52-0.16" style="fill:none;stroke:#999;stroke-width:3" />
<path d="M999.73,60.33c1.51,0.06,3.02,0.38,4.52,0.19c4.25-0.53,6.25-0.78,11.26-1.82c1.32-0.27,2.67-0.27,4.02-0.24" style="fill:none;stroke:#999;stroke-width:3" />
<path d="M998.39,72.4c0.92,0.92,1.11,1.94,1.3,3.21c0.7,4.58,1.44,8.92,2.13,13.02c0.23,1.4,0.46,2.77,0.68,4.12" style="fill:none;stroke:#999;stroke-width:3" />
<path d="M1000.31,73.87c6.93-1.39,11.52-2.23,16.95-3.06c2.09-0.32,3.59,0.93,3.15,3.08c-0.79,3.87-1.48,7.09-2.91,13.49" style="fill:none;stroke:#999;stroke-width:3" />
<path d="M1002.72,90.05c4.8-0.54,9.53-0.92,16.94-1.81" style="fill:none;stroke:#999;stroke-width:3" />
<path d="M1047.18,13.75c0.07,0.91,0.11,2.18-0.38,3.39C1042.25,28.38,1033.88,44.5,1023.25,52.02" style="fill:none;stroke:#999;stroke-width:3" />
<path d="M1048.12,19.75c3.65,3.81,12.25,13.38,18.7,19.69c2.66,2.6,5.31,5.34,8.43,7.34" style="fill:none;stroke:#999;stroke-width:3" />
<path d="M1032.22,49.66c2.13,0.34,4.27,0.37,6.4,0.1c5-0.63,13-1.75,19.25-2.16c2.04-0.13,3.97-0.31,5.92,0.29" style="fill:none;stroke:black;stroke-width:3" />
<circle cx="1032.22" cy="49.66" r="5" stroke-width="0" fill="#FF2A00" opacity="0.7" />
<path d="M1114.13,16c2.25,1.5,5.81,6.42,6.37,8.75" style="fill:none;stroke:#999;stroke-width:3" />
<path d="M1101.37,34.08c2.05,0.18,4.11,0.52,6.15,0.3c7.2-0.78,13.98-1.75,19.36-2.57c1.68-0.25,3.53-0.3,5.22,0.11" style="fill:none;stroke:#999;stroke-width:3" />
<path d="M1107.73,47.06c1.54,0.38,3.09,0.46,4.65,0.27c3.62-0.45,7.74-0.7,11.25-1.42c1.21-0.25,2.87-0.28,4.52-0.16" style="fill:none;stroke:#999;stroke-width:3" />
<path d="M1108.73,60.33c1.51,0.06,3.02,0.38,4.52,0.19c4.25-0.53,6.25-0.78,11.26-1.82c1.32-0.27,2.67-0.27,4.02-0.24" style="fill:none;stroke:#999;stroke-width:3" />
<path d="M1107.3899999999999,72.4c0.92,0.92,1.11,1.94,1.3,3.21c0.7,4.58,1.44,8.92,2.13,13.02c0.23,1.4,0.46,2.77,0.68,4.12" style="fill:none;stroke:#999;stroke-width:3" />
<path d="M1109.31,73.87c6.93-1.39,11.52-2.23,16.95-3.06c2.09-0.32,3.59,0.93,3.15,3.08c-0.79,3.87-1.48,7.09-2.91,13.49" style="fill:none;stroke:#999;stroke-width:3" />
<path d="M1111.72,90.05c4.8-0.54,9.53-0.92,16.94-1.81" style="fill:none;stroke:#999;stroke-width:3" />
<path d="M1156.18,13.75c0.07,0.91,0.11,2.18-0.38,3.39C1151.25,28.38,1142.88,44.5,1132.25,52.02" style="fill:none;stroke:#999;stroke-width:3" />
<path d="M1157.12,19.75c3.65,3.81,12.25,13.38,18.7,19.69c2.66,2.6,5.31,5.34,8.43,7.34" style="fill:none;stroke:#999;stroke-width:3" />
<path d="M1141.22,49.66c2.13,0.34,4.27,0.37,6.4,0.1c5-0.63,13-1.75,19.25-2.16c2.04-0.13,3.97-0.31,5.92,0.29" style="fill:none;stroke:#999;stroke-width:3" />
<path d="M1156.74,51.67c0.86,0.86,0.99,1.95,0.99,2.97c0,6.92-0.11,27.53-0.11,34.61" style="fill:none;stroke:black;stroke-width:3" />
<circle cx="1156.74" cy="51.67" r="5" stroke-width="0" fill="#FF2A00" opacity="0.7" />
<path d="M1223.13,16c2.25,1.5,5.81,6.42,6.37,8.75" style="fill:none;stroke:#999;stroke-width:3" />
<path d="M1210.37,34.08c2.05,0.18,4.11,0.52,6.15,0.3c7.2-0.78,13.98-1.75,19.36-2.57c1.68-0.25,3.53-0.3,5.22,0.11" style="fill:none;stroke:#999;stroke-width:3" />
<path d="M1216.73,47.06c1.54,0.38,3.09,0.46,4.65,0.27c3.62-0.45,7.74-0.7,11.25-1.42c1.21-0.25,2.87-0.28,4.52-0.16" style="fill:none;stroke:#999;stroke-width:3" />
<path d="M1217.73,60.33c1.51,0.06,3.02,0.38,4.52,0.19c4.25-0.53,6.25-0.78,11.26-1.82c1.32-0.27,2.67-0.27,4.02-0.24" style="fill:none;stroke:#999;stroke-width:3" />
<path d="M1216.3899999999999,72.4c0.92,0.92,1.11,1.94,1.3,3.21c0.7,4.58,1.44,8.92,2.13,13.02c0.23,1.4,0.46,2.77,0.68,4.12" style="fill:none;stroke:#999;stroke-width:3" />
<path d="M1218.31,73.87c6.93-1.39,11.52-2.23,16.95-3.06c2.09-0.32,3.59,0.93,3.15,3.08c-0.79,3.87-1.48,7.09-2.91,13.49" style="fill:none;stroke:#999;stroke-width:3" />
<path d="M1220.72,90.05c4.8-0.54,9.53-0.92,16.94-1.81" style="fill:none;stroke:#999;stroke-width:3" />
<path d="M1265.18,13.75c0.07,0.91,0.11,2.18-0.38,3.39C1260.25,28.38,1251.88,44.5,1241.25,52.02" style="fill:none;stroke:#999;stroke-width:3" />
<path d="M1266.12,19.75c3.65,3.81,12.25,13.38,18.7,19.69c2.66,2.6,5.31,5.34,8.43,7.34" style="fill:none;stroke:#999;stroke-width:3" />
<path d="M1250.22,49.66c2.13,0.34,4.27,0.37,6.4,0.1c5-0.63,13-1.75,19.25-2.16c2.04-0.13,3.97-0.31,5.92,0.29" style="fill:none;stroke:#999;stroke-width:3" />
<path d="M1265.74,51.67c0.86,0.86,0.99,1.95,0.99,2.97c0,6.92-0.11,27.53-0.11,34.61" style="fill:none;stroke:#999;stroke-width:3" />
<path d="M1250.52,69.5c2.2,0.55,4.39,0.49,6.62,0.19c6.99-0.94,12.74-1.56,20.37-2.25c2.11-0.19,4.2-0.27,6.32,0.05" style="fill:none;stroke:black;stroke-width:3" />
<circle cx="1250.52" cy="69.5" r="5" stroke-width="0" fill="#FF2A00" opacity="0.7" />
<path d="M1332.13,16c2.25,1.5,5.81,6.42,6.37,8.75" style="fill:none;stroke:#999;stroke-width:3" />
<path d="M1319.37,34.08c2.05,0.18,4.11,0.52,6.15,0.3c7.2-0.78,13.98-1.75,19.36-2.57c1.68-0.25,3.53-0.3,5.22,0.11" style="fill:none;stroke:#999;stroke-width:3" />
<path d="M1325.73,47.06c1.54,0.38,3.09,0.46,4.65,0.27c3.62-0.45,7.74-0.7,11.25-1.42c1.21-0.25,2.87-0.28,4.52-0.16" style="fill:none;stroke:#999;stroke-width:3" />
<path d="M1326.73,60.33c1.51,0.06,3.02,0.38,4.52,0.19c4.25-0.53,6.25-0.78,11.26-1.82c1.32-0.27,2.67-0.27,4.02-0.24" style="fill:none;stroke:#999;stroke-width:3" />
<path d="M1325.3899999999999,72.4c0.92,0.92,1.11,1.94,1.3,3.21c0.7,4.58,1.44,8.92,2.13,13.02c0.23,1.4,0.46,2.77,0.68,4.12" style="fill:none;stroke:#999;stroke-width:3" />
<path d="M1327.31,73.87c6.93-1.39,11.52-2.23,16.95-3.06c2.09-0.32,3.59,0.93,3.15,3.08c-0.79,3.87-1.48,7.09-2.91,13.49" style="fill:none;stroke:#999;stroke-width:3" />
<path d="M1329.72,90.05c4.8-0.54,9.53-0.92,16.94-1.81" style="fill:none;stroke:#999;stroke-width:3" />
<path d="M1374.18,13.75c0.07,0.91,0.11,2.18-0.38,3.39C1369.25,28.38,1360.88,44.5,1350.25,52.02" style="fill:none;stroke:#999;stroke-width:3" />
<path d="M1375.12,19.75c3.65,3.81,12.25,13.38,18.7,19.69c2.66,2.6,5.31,5.34,8.43,7.34" style="fill:none;stroke:#999;stroke-width:3" />
<path d="M1359.22,49.66c2.13,0.34,4.27,0.37,6.4,0.1c5-0.63,13-1.75,19.25-2.16c2.04-0.13,3.97-0.31,5.92,0.29" style="fill:none;stroke:#999;stroke-width:3" />
<path d="M1374.74,51.67c0.86,0.86,0.99,1.95,0.99,2.97c0,6.92-0.11,27.53-0.11,34.61" style="fill:none;stroke:#999;stroke-width:3" />
<path d="M1359.52,69.5c2.2,0.55,4.39,0.49,6.62,0.19c6.99-0.94,12.74-1.56,20.37-2.25c2.11-0.19,4.2-0.27,6.32,0.05" style="fill:none;stroke:#999;stroke-width:3" />
<path d="M1353.19,91.02c2.21,0.96,5.67,0.61,7.94,0.35c12.24-1.38,20.99-1.86,33.12-2.57c3.24-0.32,6.42-0.03,9.55,0.87" style="fill:none;stroke:black;stroke-width:3" />
<circle cx="1353.19" cy="91.02" r="5" stroke-width="0" fill="#FF2A00" opacity="0.7" />
</svg>