<svg width="1744px" height="109px" viewBox="0 0 1744px 109px" xmlns="http://www.w3.org/2000/svg" xmlns:xlink="http://www.w3.org/1999/xlink" xml:space="preserve" version="1.1"  baseProfile="full">
<line x1="1" y1="1" x2="1743" y2="1" style="stroke:#ddd;stroke-width:2" />
<line x1="1" y1="1" x2="1" y2="108" style="stroke:#ddd;stroke-width:2" />
<line x1="1" y1="108" x2="1743" y2="108" style="stroke:#ddd;stroke-width:2" />
<line x1="1743" y1="1" x2="1743" y2="108" style="stroke:#ddd;stroke-width:2" />
<line x1="109" y1="1" x2="109" y2="108" style="stroke:#ddd;stroke-width:2" />
<line x1="218" y1="1" x2="218" y2="108" style="stroke:#ddd;stroke-width:2" />
<line x1="327" y1="1" x2="327" y2="108" style="stroke:#ddd;stroke-width:2" />
<line x1="436" y1="1" x2="436" y2="108" style="stroke:#ddd;stroke-width:2" />
<line x1="545" y1="1" x2="545" y2="108" style="stroke:#ddd;stroke-width:2" />
<line x1="654" y1="1" x2="654" y2="108" style="stroke:#ddd;stroke-width:2" />
<line x1="763" y1="1" x2="763" y2="108" style="stroke:#ddd;stroke-width:2" />
<line x1="872" y1="1" x2="872" y2="108" style="stroke:#ddd;stroke-width:2" />
<line x1="981" y1="1" x2="981" y2="108" style="stroke:#ddd;stroke-width:2" />
<line x1="1090" y1="1" x2="1090" y2="108" style="stroke:#ddd;stroke-width:2" />
<line x1="1199" y1="1" x2="1199" y2="108" style="stroke:#ddd;stroke-width:2" />
<line x1="1308" y1="1" x2="1308" y2="108" style="stroke:#ddd;stroke-width:2" />
<line x1="1417" y1="1" x2="1417" y2="108" style="stroke:#ddd;stroke-width:2" />
<line x1="1526" y1="1" x2="1526" y2="108" style="stroke:#ddd;stroke-width:2" />
<line x1="1635" y1="1" x2="1635" y2="108" style="stroke:#ddd;stroke-width:2" />
<line x1="1" y1="54" x2="1743" y2="54" style="stroke:#ddd;stroke-width:2;stroke-dasharray:3 3" />
<line x1="55" y1="1" x2="55" y2="108" style="stroke:#ddd;stroke-width:2;stroke-dasharray:3 3" />
<line x1="164" y1="1" x2="164" y2="108" style="stroke:#ddd;stroke-width:2;stroke-dasharray:3 3" />
<line x1="273" y1="1" x2="273" y2="108" style="stroke:#ddd;stroke-width:2;stroke-dasharray:3 3" />
<line x1="382" y1="1" x2="382" y2="108" style="stroke:#ddd;stroke-width:2;stroke-dasharray:3 3" />
<line x1="491" y1="1" x2="491" y2="108" style="stroke:#ddd;stroke-width:2;stroke-dasharray:3 3" />
<line x1="600" y1="1" x2="600" y2="108" style="stroke:#ddd;stroke-width:2;stroke-dasharray:3 3" />
<line x1="709" y1="1" x2="709" y2="108" style="stroke:#ddd;stroke-width:2;stroke-dasharray:3 3" />
<line x1="818" y1="1" x2="818" y2="108" style="stroke:#ddd;stroke-width:2;stroke-dasharray:3 3" />
<line x1="927" y1="1" x2="927" y2="108" style="stroke:#ddd;stroke-width:2;stroke-dasharray:3 3" />
<line x1="1036" y1="1" x2="1036" y2="108" style="stroke:#ddd;stroke-width:2;stroke-dasharray:3 3" />
<line x1="1145" y1="1" x2="1145" y2="108" style="stroke:#ddd;stroke-width:2;stroke-dasharray:3 3" />
<line x1="1254" y1="1" x2="1254" y2="108" style="stroke:#ddd;stroke-width:2;stroke-dasharray:3 3" />
<line x1="1363" y1="1" x2="1363" y2="108" style="stroke:#ddd;stroke-width:2;stroke-dasharray:3 3" />
<line x1="1472" y1="1" x2="1472" y2="108" style="stroke:#ddd;stroke-width:2;stroke-dasharray:3 3" />
<line x1="1581" y1="1" x2="1581" y2="108" style="stroke:#ddd;stroke-width:2;stroke-dasharray:3 3" />
<line x1="1690" y1="1" x2="1690" y2="108" style="stroke:#ddd;stroke-width:2;stroke-dasharray:3 3" />
<path d="M20.38,14.25c2.25,1.5,5.81,6.17,6.37,8.5" style="fill:none;stroke:black;stroke-width:3" />
<circle cx="20.38" cy="14.25" r="5" stroke-width="0" fill="#FF2A00" opacity="0.7" />
<path d="M129.38,14.25c2.25,1.5,5.81,6.17,6.37,8.5" style="fill:none;stroke:#999;stroke-width:3" />
<path d="M117.87,33.08c0.63,0.23,3.04,0.27,3.67,0.23c7.8-0.42,15.47-3.17,21.14-3.37c1.05-0.04,2.64,0.11,3.16,0.23" style="fill:none;stroke:black;stroke-width:3" />
<circle cx="117.87" cy="33.08" r="5" stroke-width="0" fill="#FF2A00" opacity="0.7" />
<path d="M238.38,14.25c2.25,1.5,5.81,6.17,6.37,8.5" style="fill:none;stroke:#999;stroke-width:3" />
<path d="M226.87,33.08c0.63,0.23,3.04,0.27,3.67,0.23c7.8-0.42,15.47-3.17,21.14-3.37c1.05-0.04,2.64,0.11,3.16,0.23" style="fill:none;stroke:#999;stroke-width:3" />
<path d="M232.23,46.06c0.38,0.12,2.71,0.13,3.1,0.12c3.97-0.14,8.92-1.93,12.71-2.55c0.63-0.1,3.29,0.06,3.61,0.12" style="fill:none;stroke:black;stroke-width:3" />
<circle cx="232.23" cy="46.06" r="5" stroke-width="0" fill="#FF2A00" opacity="0.7" />
<path d="M347.38,14.25c2.25,1.5,5.81,6.17,6.37,8.5" style="fill:none;stroke:#999;stroke-width:3" />
<path d="M335.87,33.08c0.63,0.23,3.04,0.27,3.67,0.23c7.8-0.42,15.47-3.17,21.14-3.37c1.05-0.04,2.64,0.11,3.16,0.23" style="fill:none;stroke:#999;stroke-width:3" />
<path d="M341.23,46.06c0.38,0.12,2.71,0.13,3.1,0.12c3.97-0.14,8.92-1.93,12.71-2.55c0.63-0.1,3.29,0.06,3.61,0.12" style="fill:none;stroke:#999;stroke-width:3" />
<path d="M342.23,58.33c0.34,0.12,2.42,0.13,2.77,0.12c3.55-0.13,9.32-2.11,12.81-2.09c0.57,0,2.94,0.06,3.22,0.11" style="fill:none;stroke:black;stroke-width:3" />
<circle cx="342.23" cy="58.33" r="5" stroke-width="0" fill="#FF2A00" opacity="0.7" />
<path d="M456.38,14.25c2.25,1.5,5.81,6.17,6.37,8.5" style="fill:none;stroke:#999;stroke-width:3" />
<path d="M444.87,33.08c0.63,0.23,3.04,0.27,3.67,0.23c7.8-0.42,15.47-3.17,21.14-3.37c1.05-0.04,2.64,0.11,3.16,0.23" style="fill:none;stroke:#999;stroke-width:3" />
<path d="M450.23,46.06c0.38,0.12,2.71,0.13,3.1,0.12c3.97-0.14,8.92-1.93,12.71-2.55c0.63-0.1,3.29,0.06,3.61,0.12" style="fill:none;stroke:#999;stroke-width:3" />
<path d="M451.23,58.33c0.34,0.12,2.42,0.13,2.77,0.12c3.55-0.13,9.32-2.11,12.81-2.09c0.57,0,2.94,0.06,3.22,0.11" style="fill:none;stroke:#999;stroke-width:3" />
<path d="M449.64,70.9c0.35,0.36,0.75,0.65,0.86,1.13c0.99,4.21,2.25,12.04,3.25,18.21" style="fill:none;stroke:black;stroke-width:3" />
<circle cx="449.64" cy="70.9" r="5" stroke-width="0" fill="#FF2A00" opacity="0.7" />
<path d="M565.38,14.25c2.25,1.5,5.81,6.17,6.37,8.5" style="fill:none;stroke:#999;stroke-width:3" />
<path d="M553.87,33.08c0.63,0.23,3.04,0.27,3.67,0.23c7.8-0.42,15.47-3.17,21.14-3.37c1.05-0.04,2.64,0.11,3.16,0.23" style="fill:none;stroke:#999;stroke-width:3" />
<path d="M559.23,46.06c0.38,0.12,2.71,0.13,3.1,0.12c3.97-0.14,8.92-1.93,12.71-2.55c0.63-0.1,3.29,0.06,3.61,0.12" style="fill:none;stroke:#999;stroke-width:3" />
<path d="M560.23,58.33c0.34,0.12,2.42,0.13,2.77,0.12c3.55-0.13,9.32-2.11,12.81-2.09c0.57,0,2.94,0.06,3.22,0.11" style="fill:none;stroke:#999;stroke-width:3" />
<path d="M558.64,70.9c0.35,0.36,0.75,0.65,0.86,1.13c0.99,4.21,2.25,12.04,3.25,18.21" style="fill:none;stroke:#999;stroke-width:3" />
<path d="M560.81,71.87c6.44-0.89,10.48-1.6,16.42-2.5c1.49-0.22,2.39,1.04,2.18,2.06c-0.89,4.25-1.66,6.72-3.24,13.78" style="fill:none;stroke:black;stroke-width:3" />
<circle cx="560.81" cy="71.87" r="5" stroke-width="0" fill="#FF2A00" opacity="0.7" />
<path d="M674.38,14.25c2.25,1.5,5.81,6.17,6.37,8.5" style="fill:none;stroke:#999;stroke-width:3" />
<path d="M662.87,33.08c0.63,0.23,3.04,0.27,3.67,0.23c7.8-0.42,15.47-3.17,21.14-3.37c1.05-0.04,2.64,0.11,3.16,0.23" style="fill:none;stroke:#999;stroke-width:3" />
<path d="M668.23,46.06c0.38,0.12,2.71,0.13,3.1,0.12c3.97-0.14,8.92-1.93,12.71-2.55c0.63-0.1,3.29,0.06,3.61,0.12" style="fill:none;stroke:#999;stroke-width:3" />
<path d="M669.23,58.33c0.34,0.12,2.42,0.13,2.77,0.12c3.55-0.13,9.32-2.11,12.81-2.09c0.57,0,2.94,0.06,3.22,0.11" style="fill:none;stroke:#999;stroke-width:3" />
<path d="M667.64,70.9c0.35,0.36,0.75,0.65,0.86,1.13c0.99,4.21,2.25,12.04,3.25,18.21" style="fill:none;stroke:#999;stroke-width:3" />
<path d="M669.81,71.87c6.44-0.89,10.48-1.6,16.42-2.5c1.49-0.22,2.39,1.04,2.18,2.06c-0.89,4.25-1.66,6.72-3.24,13.78" style="fill:none;stroke:#999;stroke-width:3" />
<path d="M672.47,87.55c4.8-0.54,7.6-0.97,14.19-1.81" style="fill:none;stroke:black;stroke-width:3" />
<circle cx="672.47" cy="87.55" r="5" stroke-width="0" fill="#FF2A00" opacity="0.7" />
<path d="M783.38,14.25c2.25,1.5,5.81,6.17,6.37,8.5" style="fill:none;stroke:#999;stroke-width:3" />
<path d="M771.87,33.08c0.63,0.23,3.04,0.27,3.67,0.23c7.8-0.42,15.47-3.17,21.14-3.37c1.05-0.04,2.64,0.11,3.16,0.23" style="fill:none;stroke:#999;stroke-width:3" />
<path d="M777.23,46.06c0.38,0.12,2.71,0.13,3.1,0.12c3.97-0.14,8.92-1.93,12.71-2.55c0.63-0.1,3.29,0.06,3.61,0.12" style="fill:none;stroke:#999;stroke-width:3" />
<path d="M778.23,58.33c0.34,0.12,2.42,0.13,2.77,0.12c3.55-0.13,9.32-2.11,12.81-2.09c0.57,0,2.94,0.06,3.22,0.11" style="fill:none;stroke:#999;stroke-width:3" />
<path d="M776.64,70.9c0.35,0.36,0.75,0.65,0.86,1.13c0.99,4.21,2.25,12.04,3.25,18.21" style="fill:none;stroke:#999;stroke-width:3" />
<path d="M778.81,71.87c6.44-0.89,10.48-1.6,16.42-2.5c1.49-0.22,2.39,1.04,2.18,2.06c-0.89,4.25-1.66,6.72-3.24,13.78" style="fill:none;stroke:#999;stroke-width:3" />
<path d="M781.47,87.55c4.8-0.54,7.6-0.97,14.19-1.81" style="fill:none;stroke:#999;stroke-width:3" />
<path d="M821.08,26.05c2.5,2.11,6.29,8.09,6.91,11.38" style="fill:none;stroke:black;stroke-width:3" />
<circle cx="821.08" cy="26.05" r="5" stroke-width="0" fill="#FF2A00" opacity="0.7" />
<path d="M892.38,14.25c2.25,1.5,5.81,6.17,6.37,8.5" style="fill:none;stroke:#999;stroke-width:3" />
<path d="M880.87,33.08c0.63,0.23,3.04,0.27,3.67,0.23c7.8-0.42,15.47-3.17,21.14-3.37c1.05-0.04,2.64,0.11,3.16,0.23" style="fill:none;stroke:#999;stroke-width:3" />
<path d="M886.23,46.06c0.38,0.12,2.71,0.13,3.1,0.12c3.97-0.14,8.92-1.93,12.71-2.55c0.63-0.1,3.29,0.06,3.61,0.12" style="fill:none;stroke:#999;stroke-width:3" />
<path d="M887.23,58.33c0.34,0.12,2.42,0.13,2.77,0.12c3.55-0.13,9.32-2.11,12.81-2.09c0.57,0,2.94,0.06,3.22,0.11" style="fill:none;stroke:#999;stroke-width:3" />
<path d="M885.64,70.9c0.35,0.36,0.75,0.65,0.86,1.13c0.99,4.21,2.25,12.04,3.25,18.21" style="fill:none;stroke:#999;stroke-width:3" />
<path d="M887.81,71.87c6.44-0.89,10.48-1.6,16.42-2.5c1.49-0.22,2.39,1.04,2.18,2.06c-0.89,4.25-1.66,6.72-3.24,13.78" style="fill:none;stroke:#999;stroke-width:3" />
<path d="M890.47,87.55c4.8-0.54,7.6-0.97,14.19-1.81" style="fill:none;stroke:#999;stroke-width:3" />
<path d="M930.08,26.05c2.5,2.11,6.29,8.09,6.91,11.38" style="fill:none;stroke:#999;stroke-width:3" />
<path d="M962.85,22.61c0.02,0.33,0.04,0.86-0.04,1.34c-0.53,2.83-3.58,9.03-7.76,12.83" style="fill:none;stroke:black;stroke-width:3" />
<circle cx="962.85" cy="22.61" r="5" stroke-width="0" fill="#FF2A00" opacity="0.7" />
<path d="M1001.38,14.25c2.25,1.5,5.81,6.17,6.37,8.5" style="fill:none;stroke:#999;stroke-width:3" />
<path d="M989.87,33.08c0.63,0.23,3.04,0.27,3.67,0.23c7.8-0.42,15.47-3.17,21.14-3.37c1.05-0.04,2.64,0.11,3.16,0.23" style="fill:none;stroke:#999;stroke-width:3" />
<path d="M995.23,46.06c0.38,0.12,2.71,0.13,3.1,0.12c3.97-0.14,8.92-1.93,12.71-2.55c0.63-0.1,3.29,0.06,3.61,0.12" style="fill:none;stroke:#999;stroke-width:3" />
<path d="M996.23,58.33c0.34,0.12,2.42,0.13,2.77,0.12c3.55-0.13,9.32-2.11,12.81-2.09c0.57,0,2.94,0.06,3.22,0.11" style="fill:none;stroke:#999;stroke-width:3" />
<path d="M994.64,70.9c0.35,0.36,0.75,0.65,0.86,1.13c0.99,4.21,2.25,12.04,3.25,18.21" style="fill:none;stroke:#999;stroke-width:3" />
<path d="M996.81,71.87c6.44-0.89,10.48-1.6,16.42-2.5c1.49-0.22,2.39,1.04,2.18,2.06c-0.89,4.25-1.66,6.72-3.24,13.78" style="fill:none;stroke:#999;stroke-width:3" />
<path d="M999.47,87.55c4.8-0.54,7.6-0.97,14.19-1.81" style="fill:none;stroke:#999;stroke-width:3" />
<path d="M1039.08,26.05c2.5,2.11,6.29,8.09,6.91,11.38" style="fill:none;stroke:#999;stroke-width:3" />
<path d="M1071.85,22.61c0.02,0.33,0.04,0.86-0.04,1.34c-0.53,2.83-3.58,9.03-7.76,12.83" style="fill:none;stroke:#999;stroke-width:3" />
<path d="M1037.26,45.69c0.58,0.21,2.13,0.43,3.67,0.31c5.53-0.42,25.02-2.73,32.23-2.85c1.55-0.03,1.93-0.21,2.9,0" style="fill:none;stroke:black;stroke-width:3" />
<circle cx="1037.26" cy="45.69" r="5" stroke-width="0" fill="#FF2A00" opacity="0.7" />
<path d="M1110.38,14.25c2.25,1.5,5.81,6.17,6.37,8.5" style="fill:none;stroke:#999;stroke-width:3" />
<path d="M1098.87,33.08c0.63,0.23,3.04,0.27,3.67,0.23c7.8-0.42,15.47-3.17,21.14-3.37c1.05-0.04,2.64,0.11,3.16,0.23" style="fill:none;stroke:#999;stroke-width:3" />
<path d="M1104.23,46.06c0.38,0.12,2.71,0.13,3.1,0.12c3.97-0.14,8.92-1.93,12.71-2.55c0.63-0.1,3.29,0.06,3.61,0.12" style="fill:none;stroke:#999;stroke-width:3" />
<path d="M1105.23,58.33c0.34,0.12,2.42,0.13,2.77,0.12c3.55-0.13,9.32-2.11,12.81-2.09c0.57,0,2.94,0.06,3.22,0.11" style="fill:none;stroke:#999;stroke-width:3" />
<path d="M1103.6399999999999,70.9c0.35,0.36,0.75,0.65,0.86,1.13c0.99,4.21,2.25,12.04,3.25,18.21" style="fill:none;stroke:#999;stroke-width:3" />
<path d="M1105.81,71.87c6.44-0.89,10.48-1.6,16.42-2.5c1.49-0.22,2.39,1.04,2.18,2.06c-0.89,4.25-1.66,6.72-3.24,13.78" style="fill:none;stroke:#999;stroke-width:3" />
<path d="M1108.47,87.55c4.8-0.54,7.6-0.97,14.19-1.81" style="fill:none;stroke:#999;stroke-width:3" />
<path d="M1148.08,26.05c2.5,2.11,6.29,8.09,6.91,11.38" style="fill:none;stroke:#999;stroke-width:3" />
<path d="M1180.85,22.61c0.02,0.33,0.04,0.86-0.04,1.34c-0.53,2.83-3.58,9.03-7.76,12.83" style="fill:none;stroke:#999;stroke-width:3" />
<path d="M1146.26,45.69c0.58,0.21,2.13,0.43,3.67,0.31c5.53-0.42,25.02-2.73,32.23-2.85c1.55-0.03,1.93-0.21,2.9,0" style="fill:none;stroke:#999;stroke-width:3" />
<path d="M1164.08,16.93c0.61,0.42,0.97,1.87,1.09,2.7c0.12,0.83,0,59.45-0.12,64.63" style="fill:none;stroke:black;stroke-width:3" />
<circle cx="1164.08" cy="16.93" r="5" stroke-width="0" fill="#FF2A00" opacity="0.7" />
<path d="M1219.38,14.25c2.25,1.5,5.81,6.17,6.37,8.5" style="fill:none;stroke:#999;stroke-width:3" />
<path d="M1207.87,33.08c0.63,0.23,3.04,0.27,3.67,0.23c7.8-0.42,15.47-3.17,21.14-3.37c1.05-0.04,2.64,0.11,3.16,0.23" style="fill:none;stroke:#999;stroke-width:3" />
<path d="M1213.23,46.06c0.38,0.12,2.71,0.13,3.1,0.12c3.97-0.14,8.92-1.93,12.71-2.55c0.63-0.1,3.29,0.06,3.61,0.12" style="fill:none;stroke:#999;stroke-width:3" />
<path d="M1214.23,58.33c0.34,0.12,2.42,0.13,2.77,0.12c3.55-0.13,9.32-2.11,12.81-2.09c0.57,0,2.94,0.06,3.22,0.11" style="fill:none;stroke:#999;stroke-width:3" />
<path d="M1212.6399999999999,70.9c0.35,0.36,0.75,0.65,0.86,1.13c0.99,4.21,2.25,12.04,3.25,18.21" style="fill:none;stroke:#999;stroke-width:3" />
<path d="M1214.81,71.87c6.44-0.89,10.48-1.6,16.42-2.5c1.49-0.22,2.39,1.04,2.18,2.06c-0.89,4.25-1.66,6.72-3.24,13.78" style="fill:none;stroke:#999;stroke-width:3" />
<path d="M1217.47,87.55c4.8-0.54,7.6-0.97,14.19-1.81" style="fill:none;stroke:#999;stroke-width:3" />
<path d="M1257.08,26.05c2.5,2.11,6.29,8.09,6.91,11.38" style="fill:none;stroke:#999;stroke-width:3" />
<path d="M1289.85,22.61c0.02,0.33,0.04,0.86-0.04,1.34c-0.53,2.83-3.58,9.03-7.76,12.83" style="fill:none;stroke:#999;stroke-width:3" />
<path d="M1255.26,45.69c0.58,0.21,2.13,0.43,3.67,0.31c5.53-0.42,25.02-2.73,32.23-2.85c1.55-0.03,1.93-0.21,2.9,0" style="fill:none;stroke:#999;stroke-width:3" />
<path d="M1273.08,16.93c0.61,0.42,0.97,1.87,1.09,2.7c0.12,0.83,0,59.45-0.12,64.63" style="fill:none;stroke:#999;stroke-width:3" />
<path d="M1273.04,46.14c-2.71,7.68-9.29,18.46-15.37,22.89" style="fill:none;stroke:black;stroke-width:3" />
<circle cx="1273.04" cy="46.14" r="5" stroke-width="0" fill="#FF2A00" opacity="0.7" />
<path d="M1328.38,14.25c2.25,1.5,5.81,6.17,6.37,8.5" style="fill:none;stroke:#999;stroke-width:3" />
<path d="M1316.87,33.08c0.63,0.23,3.04,0.27,3.67,0.23c7.8-0.42,15.47-3.17,21.14-3.37c1.05-0.04,2.64,0.11,3.16,0.23" style="fill:none;stroke:#999;stroke-width:3" />
<path d="M1322.23,46.06c0.38,0.12,2.71,0.13,3.1,0.12c3.97-0.14,8.92-1.93,12.71-2.55c0.63-0.1,3.29,0.06,3.61,0.12" style="fill:none;stroke:#999;stroke-width:3" />
<path d="M1323.23,58.33c0.34,0.12,2.42,0.13,2.77,0.12c3.55-0.13,9.32-2.11,12.81-2.09c0.57,0,2.94,0.06,3.22,0.11" style="fill:none;stroke:#999;stroke-width:3" />
<path d="M1321.6399999999999,70.9c0.35,0.36,0.75,0.65,0.86,1.13c0.99,4.21,2.25,12.04,3.25,18.21" style="fill:none;stroke:#999;stroke-width:3" />
<path d="M1323.81,71.87c6.44-0.89,10.48-1.6,16.42-2.5c1.49-0.22,2.39,1.04,2.18,2.06c-0.89,4.25-1.66,6.72-3.24,13.78" style="fill:none;stroke:#999;stroke-width:3" />
<path d="M1326.47,87.55c4.8-0.54,7.6-0.97,14.19-1.81" style="fill:none;stroke:#999;stroke-width:3" />
<path d="M1366.08,26.05c2.5,2.11,6.29,8.09,6.91,11.38" style="fill:none;stroke:#999;stroke-width:3" />
<path d="M1398.85,22.61c0.02,0.33,0.04,0.86-0.04,1.34c-0.53,2.83-3.58,9.03-7.76,12.83" style="fill:none;stroke:#999;stroke-width:3" />
<path d="M1364.26,45.69c0.58,0.21,2.13,0.43,3.67,0.31c5.53-0.42,25.02-2.73,32.23-2.85c1.55-0.03,1.93-0.21,2.9,0" style="fill:none;stroke:#999;stroke-width:3" />
<path d="M1382.08,16.93c0.61,0.42,0.97,1.87,1.09,2.7c0.12,0.83,0,59.45-0.12,64.63" style="fill:none;stroke:#999;stroke-width:3" />
<path d="M1382.04,46.14c-2.71,7.68-9.29,18.46-15.37,22.89" style="fill:none;stroke:#999;stroke-width:3" />
<path d="M1385.7,53.27c6.1,4.65,11.38,10.2,15.96,18.94" style="fill:none;stroke:black;stroke-width:3" />
<circle cx="1385.7" cy="53.27" r="5" stroke-width="0" fill="#FF2A00" opacity="0.7" />
<path d="M1437.38,14.25c2.25,1.5,5.81,6.17,6.37,8.5" style="fill:none;stroke:#999;stroke-width:3" />
<path d="M1425.87,33.08c0.63,0.23,3.04,0.27,3.67,0.23c7.8-0.42,15.47-3.17,21.14-3.37c1.05-0.04,2.64,0.11,3.16,0.23" style="fill:none;stroke:#999;stroke-width:3" />
<path d="M1431.23,46.06c0.38,0.12,2.71,0.13,3.1,0.12c3.97-0.14,8.92-1.93,12.71-2.55c0.63-0.1,3.29,0.06,3.61,0.12" style="fill:none;stroke:#999;stroke-width:3" />
<path d="M1432.23,58.33c0.34,0.12,2.42,0.13,2.77,0.12c3.55-0.13,9.32-2.11,12.81-2.09c0.57,0,2.94,0.06,3.22,0.11" style="fill:none;stroke:#999;stroke-width:3" />
<path d="M1430.6399999999999,70.9c0.35,0.36,0.75,0.65,0.86,1.13c0.99,4.21,2.25,12.04,3.25,18.21" style="fill:none;stroke:#999;stroke-width:3" />
<path d="M1432.81,71.87c6.44-0.89,10.48-1.6,16.42-2.5c1.49-0.22,2.39,1.04,2.18,2.06c-0.89,4.25-1.66,6.72-3.24,13.78" style="fill:none;stroke:#999;stroke-width:3" />
<path d="M1435.47,87.55c4.8-0.54,7.6-0.97,14.19-1.81" style="fill:none;stroke:#999;stroke-width:3" />
<path d="M1475.08,26.05c2.5,2.11,6.29,8.09,6.91,11.38" style="fill:none;stroke:#999;stroke-width:3" />
<path d="M1507.85,22.61c0.02,0.33,0.04,0.86-0.04,1.34c-0.53,2.83-3.58,9.03-7.76,12.83" style="fill:none;stroke:#999;stroke-width:3" />
<path d="M1473.26,45.69c0.58,0.21,2.13,0.43,3.67,0.31c5.53-0.42,25.02-2.73,32.23-2.85c1.55-0.03,1.93-0.21,2.9,0" style="fill:none;stroke:#999;stroke-width:3" />
<path d="M1491.08,16.93c0.61,0.42,0.97,1.87,1.09,2.7c0.12,0.83,0,59.45-0.12,64.63" style="fill:none;stroke:#999;stroke-width:3" />
<path d="M1491.04,46.14c-2.71,7.68-9.29,18.46-15.37,22.89" style="fill:none;stroke:#999;stroke-width:3" />
<path d="M1494.7,53.27c6.1,4.65,11.38,10.2,15.96,18.94" style="fill:none;stroke:#999;stroke-width:3" />
<path d="M1458.34,25.99c3.21,1.25,8.29,5.13,9.09,7.08" style="fill:none;stroke:black;stroke-width:3" />
<circle cx="1458.34" cy="25.99" r="5" stroke-width="0" fill="#FF2A00" opacity="0.7" />
<path d="M1546.38,14.25c2.25,1.5,5.81,6.17,6.37,8.5" style="fill:none;stroke:#999;stroke-width:3" />
<path d="M1534.87,33.08c0.63,0.23,3.04,0.27,3.67,0.23c7.8-0.42,15.47-3.17,21.14-3.37c1.05-0.04,2.64,0.11,3.16,0.23" style="fill:none;stroke:#999;stroke-width:3" />
<path d="M1540.23,46.06c0.38,0.12,2.71,0.13,3.1,0.12c3.97-0.14,8.92-1.93,12.71-2.55c0.63-0.1,3.29,0.06,3.61,0.12" style="fill:none;stroke:#999;stroke-width:3" />
<path d="M1541.23,58.33c0.34,0.12,2.42,0.13,2.77,0.12c3.55-0.13,9.32-2.11,12.81-2.09c0.57,0,2.94,0.06,3.22,0.11" style="fill:none;stroke:#999;stroke-width:3" />
<path d="M1539.6399999999999,70.9c0.35,0.36,0.75,0.65,0.86,1.13c0.99,4.21,2.25,12.04,3.25,18.21" style="fill:none;stroke:#999;stroke-width:3" />
<path d="M1541.81,71.87c6.44-0.89,10.48-1.6,16.42-2.5c1.49-0.22,2.39,1.04,2.18,2.06c-0.89,4.25-1.66,6.72-3.24,13.78" style="fill:none;stroke:#999;stroke-width:3" />
<path d="M1544.47,87.55c4.8-0.54,7.6-0.97,14.19-1.81" style="fill:none;stroke:#999;stroke-width:3" />
<path d="M1584.08,26.05c2.5,2.11,6.29,8.09,6.91,11.38" style="fill:none;stroke:#999;stroke-width:3" />
<path d="M1616.85,22.61c0.02,0.33,0.04,0.86-0.04,1.34c-0.53,2.83-3.58,9.03-7.76,12.83" style="fill:none;stroke:#999;stroke-width:3" />
<path d="M1582.26,45.69c0.58,0.21,2.13,0.43,3.67,0.31c5.53-0.42,25.02-2.73,32.23-2.85c1.55-0.03,1.93-0.21,2.9,0" style="fill:none;stroke:#999;stroke-width:3" />
<path d="M1600.08,16.93c0.61,0.42,0.97,1.87,1.09,2.7c0.12,0.83,0,59.45-0.12,64.63" style="fill:none;stroke:#999;stroke-width:3" />
<path d="M1600.04,46.14c-2.71,7.68-9.29,18.46-15.37,22.89" style="fill:none;stroke:#999;stroke-width:3" />
<path d="M1603.7,53.27c6.1,4.65,11.38,10.2,15.96,18.94" style="fill:none;stroke:#999;stroke-width:3" />
<path d="M1567.34,25.99c3.21,1.25,8.29,5.13,9.09,7.08" style="fill:none;stroke:#999;stroke-width:3" />
<path d="M1564.75,55.7c1.91,0.82,3.18,0.41,4.03,0.21c0.85-0.21,7.28-1.88,8.56-2.29c1.27-0.41,3.18,1.03,2.33,2.26c-0.85,1.23-4.89,6.96-5.53,7.99c-0.64,1.03-0.42,2.88,0.85,4.32s2.33,3.08,2.97,4.32c0.64,1.23,0.64,2.26-0.64,3.29c-1.27,1.03-7.63,6.78-8.91,7.2" style="fill:none;stroke:black;stroke-width:3" />
<circle cx="1564.75" cy="55.7" r="5" stroke-width="0" fill="#FF2A00" opacity="0.7" />
<path d="M1655.38,14.25c2.25,1.5,5.81,6.17,6.37,8.5" style="fill:none;stroke:#999;stroke-width:3" />
<path d="M1643.87,33.08c0.63,0.23,3.04,0.27,3.67,0.23c7.8-0.42,15.47-3.17,21.14-3.37c1.05-0.04,2.64,0.11,3.16,0.23" style="fill:none;stroke:#999;stroke-width:3" />
<path d="M1649.23,46.06c0.38,0.12,2.71,0.13,3.1,0.12c3.97-0.14,8.92-1.93,12.71-2.55c0.63-0.1,3.29,0.06,3.61,0.12" style="fill:none;stroke:#999;stroke-width:3" />
<path d="M1650.23,58.33c0.34,0.12,2.42,0.13,2.77,0.12c3.55-0.13,9.32-2.11,12.81-2.09c0.57,0,2.94,0.06,3.22,0.11" style="fill:none;stroke:#999;stroke-width:3" />
<path d="M1648.6399999999999,70.9c0.35,0.36,0.75,0.65,0.86,1.13c0.99,4.21,2.25,12.04,3.25,18.21" style="fill:none;stroke:#999;stroke-width:3" />
<path d="M1650.81,71.87c6.44-0.89,10.48-1.6,16.42-2.5c1.49-0.22,2.39,1.04,2.18,2.06c-0.89,4.25-1.66,6.72-3.24,13.78" style="fill:none;stroke:#999;stroke-width:3" />
<path d="M1653.47,87.55c4.8-0.54,7.6-0.97,14.19-1.81" style="fill:none;stroke:#999;stroke-width:3" />
<path d="M1693.08,26.05c2.5,2.11,6.29,8.09,6.91,11.38" style="fill:none;stroke:#999;stroke-width:3" />
<path d="M1725.85,22.61c0.02,0.33,0.04,0.86-0.04,1.34c-0.53,2.83-3.58,9.03-7.76,12.83" style="fill:none;stroke:#999;stroke-width:3" />
<path d="M1691.26,45.69c0.58,0.21,2.13,0.43,3.67,0.31c5.53-0.42,25.02-2.73,32.23-2.85c1.55-0.03,1.93-0.21,2.9,0" style="fill:none;stroke:#999;stroke-width:3" />
<path d="M1709.08,16.93c0.61,0.42,0.97,1.87,1.09,2.7c0.12,0.83,0,59.45-0.12,64.63" style="fill:none;stroke:#999;stroke-width:3" />
<path d="M1709.04,46.14c-2.71,7.68-9.29,18.46-15.37,22.89" style="fill:none;stroke:#999;stroke-width:3" />
<path d="M1712.7,53.27c6.1,4.65,11.38,10.2,15.96,18.94" style="fill:none;stroke:#999;stroke-width:3" />
<path d="M1676.34,25.99c3.21,1.25,8.29,5.13,9.09,7.08" style="fill:none;stroke:#999;stroke-width:3" />
<path d="M1673.75,55.7c1.91,0.82,3.18,0.41,4.03,0.21c0.85-0.21,7.28-1.88,8.56-2.29c1.27-0.41,3.18,1.03,2.33,2.26c-0.85,1.23-4.89,6.96-5.53,7.99c-0.64,1.03-0.42,2.88,0.85,4.32s2.33,3.08,2.97,4.32c0.64,1.23,0.64,2.26-0.64,3.29c-1.27,1.03-7.63,6.78-8.91,7.2" style="fill:none;stroke:#999;stroke-width:3" />
<path d="M1673.61,84.77c2.19-0.42,6.57-1.45,9.86-0.62c3.29,0.83,21.96,5.57,25.19,6.64c8.76,2.9,15.52,2.9,22.09,1.45" style="fill:none;stroke:black;stroke-width:3" />
<circle cx="1673.61" cy="84.77" r="5" stroke-width="0" fill="#FF2A00" opacity="0.7" />
</svg>