<svg width="1199px" height="109px" viewBox="0 0 1199px 109px" xmlns="http://www.w3.org/2000/svg" xmlns:xlink="http://www.w3.org/1999/xlink" xml:space="preserve" version="1.1"  baseProfile="full">
<line x1="1" y1="1" x2="1198" y2="1" style="stroke:#ddd;stroke-width:2" />
<line x1="1" y1="1" x2="1" y2="108" style="stroke:#ddd;stroke-width:2" />
<line x1="1" y1="108" x2="1198" y2="108" style="stroke:#ddd;stroke-width:2" />
<line x1="1198" y1="1" x2="1198" y2="108" style="stroke:#ddd;stroke-width:2" />
<line x1="109" y1="1" x2="109" y2="108" style="stroke:#ddd;stroke-width:2" />
<line x1="218" y1="1" x2="218" y2="108" style="stroke:#ddd;stroke-width:2" />
<line x1="327" y1="1" x2="327" y2="108" style="stroke:#ddd;stroke-width:2" />
<line x1="436" y1="1" x2="436" y2="108" style="stroke:#ddd;stroke-width:2" />
<line x1="545" y1="1" x2="545" y2="108" style="stroke:#ddd;stroke-width:2" />
<line x1="654" y1="1" x2="654" y2="108" style="stroke:#ddd;stroke-width:2" />
<line x1="763" y1="1" x2="763" y2="108" style="stroke:#ddd;stroke-width:2" />
<line x1="872" y1="1" x2="872" y2="108" style="stroke:#ddd;stroke-width:2" />
<line x1="981" y1="1" x2="981" y2="108" style="stroke:#ddd;stroke-width:2" />
<line x1="1090" y1="1" x2="1090" y2="108" style="stroke:#ddd;stroke-width:2" />
<line x1="1" y1="54" x2="1198" y2="54" style="stroke:#ddd;stroke-width:2;stroke-dasharray:3 3" />
<line x1="55" y1="1" x2="55" y2="108" style="stroke:#ddd;stroke-width:2;stroke-dasharray:3 3" />
<line x1="164" y1="1" x2="164" y2="108" style="stroke:#ddd;stroke-width:2;stroke-dasharray:3 3" />
<line x1="273" y1="1" x2="273" y2="108" style="stroke:#ddd;stroke-width:2;stroke-dasharray:3 3" />
<line x1="382" y1="1" x2="382" y2="108" style="stroke:#ddd;stroke-width:2;stroke-dasharray:3 3" />
<line x1="491" y1="1" x2="491" y2="108" style="stroke:#ddd;stroke-width:2;stroke-dasharray:3 3" />
<line x1="600" y1="1" x2="600" y2="108" style="stroke:#ddd;stroke-width:2;stroke-dasharray:3 3" />
<line x1="709" y1="1" x2="709" y2="108" style="stroke:#ddd;stroke-width:2;stroke-dasharray:3 3" />
<line x1="818" y1="1" x2="818" y2="108" style="stroke:#ddd;stroke-width:2;stroke-dasharray:3 3" />
<line x1="927" y1="1" x2="927" y2="108" style="stroke:#ddd;stroke-width:2;stroke-dasharray:3 3" />
<line x1="1036" y1="1" x2="1036" y2="108" style="stroke:#ddd;stroke-width:2;stroke-dasharray:3 3" />
<line x1="1145" y1="1" x2="1145" y2="108" style="stroke:#ddd;stroke-width:2;stroke-dasharray:3 3" />
<path d="M59.61,20.45c1.01,0.42,2.85,0.47,3.87,0.42c7.68-0.37,18.53-2.42,28.61-2.69c1.68-0.05,2.69,0.2,3.53,0.41" style="fill:none;stroke:black;stroke-width:3" />
<circle cx="59.61" cy="20.45" r="5" stroke-width="0" fill="#FF2A00" opacity="0.7" />
<path d="M168.61,20.45c1.01,0.42,2.85,0.47,3.87,0.42c7.68-0.37,18.53-2.42,28.61-2.69c1.68-0.05,2.69,0.2,3.53,0.41" style="fill:none;stroke:#999;stroke-width:3" />
<path d="M171.37,25.9c1.22,1.09,1.32,2.46,1.31,3.7c-0.9,6.53-3.22,15.81-4.47,19.07c-0.93,2.43,0.39,2.68,2.27,2.18c4.9-1.31,24.8-3.57,33.07-3.01c1.43,0.1,2.3,0.2,3.01,0.41" style="fill:none;stroke:black;stroke-width:3" />
<circle cx="171.37" cy="25.9" r="5" stroke-width="0" fill="#FF2A00" opacity="0.7" />
<path d="M277.61,20.45c1.01,0.42,2.85,0.47,3.87,0.42c7.68-0.37,18.53-2.42,28.61-2.69c1.68-0.05,2.69,0.2,3.53,0.41" style="fill:none;stroke:#999;stroke-width:3" />
<path d="M280.37,25.9c1.22,1.09,1.32,2.46,1.31,3.7c-0.9,6.53-3.22,15.81-4.47,19.07c-0.93,2.43,0.39,2.68,2.27,2.18c4.9-1.31,24.8-3.57,33.07-3.01c1.43,0.1,2.3,0.2,3.01,0.41" style="fill:none;stroke:#999;stroke-width:3" />
<path d="M298.48,22.96c0.98,0.97,1.81,2.84,1.88,6.3c0.34,16.61-0.22,53.19-0.22,58.85c0,11.31-5.99,2.83-8.18,0.72" style="fill:none;stroke:black;stroke-width:3" />
<circle cx="298.48" cy="22.96" r="5" stroke-width="0" fill="#FF2A00" opacity="0.7" />
<path d="M386.61,20.45c1.01,0.42,2.85,0.47,3.87,0.42c7.68-0.37,18.53-2.42,28.61-2.69c1.68-0.05,2.69,0.2,3.53,0.41" style="fill:none;stroke:#999;stroke-width:3" />
<path d="M389.37,25.9c1.22,1.09,1.32,2.46,1.31,3.7c-0.9,6.53-3.22,15.81-4.47,19.07c-0.93,2.43,0.39,2.68,2.27,2.18c4.9-1.31,24.8-3.57,33.07-3.01c1.43,0.1,2.3,0.2,3.01,0.41" style="fill:none;stroke:#999;stroke-width:3" />
<path d="M407.48,22.96c0.98,0.97,1.81,2.84,1.88,6.3c0.34,16.61-0.22,53.19-0.22,58.85c0,11.31-5.99,2.83-8.18,0.72" style="fill:none;stroke:#999;stroke-width:3" />
<path d="M409.0,48.22c0.67,0.42,0.43,1.78,0.05,2.54C405.19,58.54,396.5,71.25,379.7,81.26" style="fill:none;stroke:black;stroke-width:3" />
<circle cx="409.0" cy="48.22" r="5" stroke-width="0" fill="#FF2A00" opacity="0.7" />
<path d="M495.61,20.45c1.01,0.42,2.85,0.47,3.87,0.42c7.68-0.37,18.53-2.42,28.61-2.69c1.68-0.05,2.69,0.2,3.53,0.41" style="fill:none;stroke:#999;stroke-width:3" />
<path d="M498.37,25.9c1.22,1.09,1.32,2.46,1.31,3.7c-0.9,6.53-3.22,15.81-4.47,19.07c-0.93,2.43,0.39,2.68,2.27,2.18c4.9-1.31,24.8-3.57,33.07-3.01c1.43,0.1,2.3,0.2,3.01,0.41" style="fill:none;stroke:#999;stroke-width:3" />
<path d="M516.48,22.96c0.98,0.97,1.81,2.84,1.88,6.3c0.34,16.61-0.22,53.19-0.22,58.85c0,11.31-5.99,2.83-8.18,0.72" style="fill:none;stroke:#999;stroke-width:3" />
<path d="M518.0,48.22c0.67,0.42,0.43,1.78,0.05,2.54C514.19,58.54,505.5,71.25,488.7,81.26" style="fill:none;stroke:#999;stroke-width:3" />
<path d="M462.17,18.26c0.04,0.38,0.08,0.98-0.07,1.53C461.24,23,456.29,30.05,449.51,34.37" style="fill:none;stroke:black;stroke-width:3" />
<circle cx="462.17" cy="18.26" r="5" stroke-width="0" fill="#FF2A00" opacity="0.7" />
<path d="M604.61,20.45c1.01,0.42,2.85,0.47,3.87,0.42c7.68-0.37,18.53-2.42,28.61-2.69c1.68-0.05,2.69,0.2,3.53,0.41" style="fill:none;stroke:#999;stroke-width:3" />
<path d="M607.37,25.9c1.22,1.09,1.32,2.46,1.31,3.7c-0.9,6.53-3.22,15.81-4.47,19.07c-0.93,2.43,0.39,2.68,2.27,2.18c4.9-1.31,24.8-3.57,33.07-3.01c1.43,0.1,2.3,0.2,3.01,0.41" style="fill:none;stroke:#999;stroke-width:3" />
<path d="M625.48,22.96c0.98,0.97,1.81,2.84,1.88,6.3c0.34,16.61-0.22,53.19-0.22,58.85c0,11.31-5.99,2.83-8.18,0.72" style="fill:none;stroke:#999;stroke-width:3" />
<path d="M627.0,48.22c0.67,0.42,0.43,1.78,0.05,2.54C623.19,58.54,614.5,71.25,597.7,81.26" style="fill:none;stroke:#999;stroke-width:3" />
<path d="M571.1700000000001,18.26c0.04,0.38,0.08,0.98-0.07,1.53C570.24,23,565.29,30.05,558.51,34.37" style="fill:none;stroke:#999;stroke-width:3" />
<path d="M585.65,17.83c5.11,3.3,11.34,9.59,13.09,12.96" style="fill:none;stroke:black;stroke-width:3" />
<circle cx="585.65" cy="17.83" r="5" stroke-width="0" fill="#FF2A00" opacity="0.7" />
<path d="M713.61,20.45c1.01,0.42,2.85,0.47,3.87,0.42c7.68-0.37,18.53-2.42,28.61-2.69c1.68-0.05,2.69,0.2,3.53,0.41" style="fill:none;stroke:#999;stroke-width:3" />
<path d="M716.37,25.9c1.22,1.09,1.32,2.46,1.31,3.7c-0.9,6.53-3.22,15.81-4.47,19.07c-0.93,2.43,0.39,2.68,2.27,2.18c4.9-1.31,24.8-3.57,33.07-3.01c1.43,0.1,2.3,0.2,3.01,0.41" style="fill:none;stroke:#999;stroke-width:3" />
<path d="M734.48,22.96c0.98,0.97,1.81,2.84,1.88,6.3c0.34,16.61-0.22,53.19-0.22,58.85c0,11.31-5.99,2.83-8.18,0.72" style="fill:none;stroke:#999;stroke-width:3" />
<path d="M736.0,48.22c0.67,0.42,0.43,1.78,0.05,2.54C732.19,58.54,723.5,71.25,706.7,81.26" style="fill:none;stroke:#999;stroke-width:3" />
<path d="M680.1700000000001,18.26c0.04,0.38,0.08,0.98-0.07,1.53C679.24,23,674.29,30.05,667.51,34.37" style="fill:none;stroke:#999;stroke-width:3" />
<path d="M694.65,17.83c5.11,3.3,11.34,9.59,13.09,12.96" style="fill:none;stroke:#999;stroke-width:3" />
<path d="M689.05,29.91c0.06,0.71,0.27,1.89-0.12,2.85c-3.26,7.97-10.65,19.44-20.51,27.23" style="fill:none;stroke:black;stroke-width:3" />
<circle cx="689.05" cy="29.91" r="5" stroke-width="0" fill="#FF2A00" opacity="0.7" />
<path d="M822.61,20.45c1.01,0.42,2.85,0.47,3.87,0.42c7.68-0.37,18.53-2.42,28.61-2.69c1.68-0.05,2.69,0.2,3.53,0.41" style="fill:none;stroke:#999;stroke-width:3" />
<path d="M825.37,25.9c1.22,1.09,1.32,2.46,1.31,3.7c-0.9,6.53-3.22,15.81-4.47,19.07c-0.93,2.43,0.39,2.68,2.27,2.18c4.9-1.31,24.8-3.57,33.07-3.01c1.43,0.1,2.3,0.2,3.01,0.41" style="fill:none;stroke:#999;stroke-width:3" />
<path d="M843.48,22.96c0.98,0.97,1.81,2.84,1.88,6.3c0.34,16.61-0.22,53.19-0.22,58.85c0,11.31-5.99,2.83-8.18,0.72" style="fill:none;stroke:#999;stroke-width:3" />
<path d="M845.0,48.22c0.67,0.42,0.43,1.78,0.05,2.54C841.19,58.54,832.5,71.25,815.7,81.26" style="fill:none;stroke:#999;stroke-width:3" />
<path d="M789.1700000000001,18.26c0.04,0.38,0.08,0.98-0.07,1.53C788.24,23,783.29,30.05,776.51,34.37" style="fill:none;stroke:#999;stroke-width:3" />
<path d="M803.65,17.83c5.11,3.3,11.34,9.59,13.09,12.96" style="fill:none;stroke:#999;stroke-width:3" />
<path d="M798.05,29.91c0.06,0.71,0.27,1.89-0.12,2.85c-3.26,7.97-10.65,19.44-20.51,27.23" style="fill:none;stroke:#999;stroke-width:3" />
<path d="M798.8,34.76c5.81,3.41,11.82,9.82,16.38,16.18" style="fill:none;stroke:black;stroke-width:3" />
<circle cx="798.8" cy="34.76" r="5" stroke-width="0" fill="#FF2A00" opacity="0.7" />
<path d="M931.61,20.45c1.01,0.42,2.85,0.47,3.87,0.42c7.68-0.37,18.53-2.42,28.61-2.69c1.68-0.05,2.69,0.2,3.53,0.41" style="fill:none;stroke:#999;stroke-width:3" />
<path d="M934.37,25.9c1.22,1.09,1.32,2.46,1.31,3.7c-0.9,6.53-3.22,15.81-4.47,19.07c-0.93,2.43,0.39,2.68,2.27,2.18c4.9-1.31,24.8-3.57,33.07-3.01c1.43,0.1,2.3,0.2,3.01,0.41" style="fill:none;stroke:#999;stroke-width:3" />
<path d="M952.48,22.96c0.98,0.97,1.81,2.84,1.88,6.3c0.34,16.61-0.22,53.19-0.22,58.85c0,11.31-5.99,2.83-8.18,0.72" style="fill:none;stroke:#999;stroke-width:3" />
<path d="M954.0,48.22c0.67,0.42,0.43,1.78,0.05,2.54C950.19,58.54,941.5,71.25,924.7,81.26" style="fill:none;stroke:#999;stroke-width:3" />
<path d="M898.1700000000001,18.26c0.04,0.38,0.08,0.98-0.07,1.53C897.24,23,892.29,30.05,885.51,34.37" style="fill:none;stroke:#999;stroke-width:3" />
<path d="M912.65,17.83c5.11,3.3,11.34,9.59,13.09,12.96" style="fill:none;stroke:#999;stroke-width:3" />
<path d="M907.05,29.91c0.06,0.71,0.27,1.89-0.12,2.85c-3.26,7.97-10.65,19.44-20.51,27.23" style="fill:none;stroke:#999;stroke-width:3" />
<path d="M907.8,34.76c5.81,3.41,11.82,9.82,16.38,16.18" style="fill:none;stroke:#999;stroke-width:3" />
<path d="M893.46,60.56c0.29,0.45,0.6,0.83,0.72,1.4c1.02,4.5,2.24,16.91,2.94,24.99" style="fill:none;stroke:black;stroke-width:3" />
<circle cx="893.46" cy="60.56" r="5" stroke-width="0" fill="#FF2A00" opacity="0.7" />
<path d="M1040.6100000000001,20.45c1.01,0.42,2.85,0.47,3.87,0.42c7.68-0.37,18.53-2.42,28.61-2.69c1.68-0.05,2.69,0.2,3.53,0.41" style="fill:none;stroke:#999;stroke-width:3" />
<path d="M1043.37,25.9c1.22,1.09,1.32,2.46,1.31,3.7c-0.9,6.53-3.22,15.81-4.47,19.07c-0.93,2.43,0.39,2.68,2.27,2.18c4.9-1.31,24.8-3.57,33.07-3.01c1.43,0.1,2.3,0.2,3.01,0.41" style="fill:none;stroke:#999;stroke-width:3" />
<path d="M1061.48,22.96c0.98,0.97,1.81,2.84,1.88,6.3c0.34,16.61-0.22,53.19-0.22,58.85c0,11.31-5.99,2.83-8.18,0.72" style="fill:none;stroke:#999;stroke-width:3" />
<path d="M1063.0,48.22c0.67,0.42,0.43,1.78,0.05,2.54C1059.19,58.54,1050.5,71.25,1033.7,81.26" style="fill:none;stroke:#999;stroke-width:3" />
<path d="M1007.1700000000001,18.26c0.04,0.38,0.08,0.98-0.07,1.53C1006.24,23,1001.29,30.05,994.51,34.37" style="fill:none;stroke:#999;stroke-width:3" />
<path d="M1021.65,17.83c5.11,3.3,11.34,9.59,13.09,12.96" style="fill:none;stroke:#999;stroke-width:3" />
<path d="M1016.05,29.91c0.06,0.71,0.27,1.89-0.12,2.85c-3.26,7.97-10.65,19.44-20.51,27.23" style="fill:none;stroke:#999;stroke-width:3" />
<path d="M1016.8,34.76c5.81,3.41,11.82,9.82,16.38,16.18" style="fill:none;stroke:#999;stroke-width:3" />
<path d="M1002.46,60.56c0.29,0.45,0.6,0.83,0.72,1.4c1.02,4.5,2.24,16.91,2.94,24.99" style="fill:none;stroke:#999;stroke-width:3" />
<path d="M1003.84,62.45c8.04-2.08,17.46-3.12,22.38-4.01c1.68-0.31,2.71,2.06,2.45,3.4c-1.22,6.43-2.14,11.7-3.27,19.59" style="fill:none;stroke:black;stroke-width:3" />
<circle cx="1003.84" cy="62.45" r="5" stroke-width="0" fill="#FF2A00" opacity="0.7" />
<path d="M1149.6100000000001,20.45c1.01,0.42,2.85,0.47,3.87,0.42c7.68-0.37,18.53-2.42,28.61-2.69c1.68-0.05,2.69,0.2,3.53,0.41" style="fill:none;stroke:#999;stroke-width:3" />
<path d="M1152.37,25.9c1.22,1.09,1.32,2.46,1.31,3.7c-0.9,6.53-3.22,15.81-4.47,19.07c-0.93,2.43,0.39,2.68,2.27,2.18c4.9-1.31,24.8-3.57,33.07-3.01c1.43,0.1,2.3,0.2,3.01,0.41" style="fill:none;stroke:#999;stroke-width:3" />
<path d="M1170.48,22.96c0.98,0.97,1.81,2.84,1.88,6.3c0.34,16.61-0.22,53.19-0.22,58.85c0,11.31-5.99,2.83-8.18,0.72" style="fill:none;stroke:#999;stroke-width:3" />
<path d="M1172.0,48.22c0.67,0.42,0.43,1.78,0.05,2.54C1168.19,58.54,1159.5,71.25,1142.7,81.26" style="fill:none;stroke:#999;stroke-width:3" />
<path d="M1116.17,18.26c0.04,0.38,0.08,0.98-0.07,1.53C1115.24,23,1110.29,30.05,1103.51,34.37" style="fill:none;stroke:#999;stroke-width:3" />
<path d="M1130.65,17.83c5.11,3.3,11.34,9.59,13.09,12.96" style="fill:none;stroke:#999;stroke-width:3" />
<path d="M1125.05,29.91c0.06,0.71,0.27,1.89-0.12,2.85c-3.26,7.97-10.65,19.44-20.51,27.23" style="fill:none;stroke:#999;stroke-width:3" />
<path d="M1125.8,34.76c5.81,3.41,11.82,9.82,16.38,16.18" style="fill:none;stroke:#999;stroke-width:3" />
<path d="M1111.46,60.56c0.29,0.45,0.6,0.83,0.72,1.4c1.02,4.5,2.24,16.91,2.94,24.99" style="fill:none;stroke:#999;stroke-width:3" />
<path d="M1112.8400000000001,62.45c8.04-2.08,17.46-3.12,22.38-4.01c1.68-0.31,2.71,2.06,2.45,3.4c-1.22,6.43-2.14,11.7-3.27,19.59" style="fill:none;stroke:#999;stroke-width:3" />
<path d="M1115.92,84.18c6.47-0.62,12.04-1.55,20.47-2.28" style="fill:none;stroke:black;stroke-width:3" />
<circle cx="1115.92" cy="84.18" r="5" stroke-width="0" fill="#FF2A00" opacity="0.7" />
</svg>