<svg width="654px" height="109px" viewBox="0 0 654px 109px" xmlns="http://www.w3.org/2000/svg" xmlns:xlink="http://www.w3.org/1999/xlink" xml:space="preserve" version="1.1"  baseProfile="full">
<line x1="1" y1="1" x2="653" y2="1" style="stroke:#ddd;stroke-width:2" />
<line x1="1" y1="1" x2="1" y2="108" style="stroke:#ddd;stroke-width:2" />
<line x1="1" y1="108" x2="653" y2="108" style="stroke:#ddd;stroke-width:2" />
<line x1="653" y1="1" x2="653" y2="108" style="stroke:#ddd;stroke-width:2" />
<line x1="109" y1="1" x2="109" y2="108" style="stroke:#ddd;stroke-width:2" />
<line x1="218" y1="1" x2="218" y2="108" style="stroke:#ddd;stroke-width:2" />
<line x1="327" y1="1" x2="327" y2="108" style="stroke:#ddd;stroke-width:2" />
<line x1="436" y1="1" x2="436" y2="108" style="stroke:#ddd;stroke-width:2" />
<line x1="545" y1="1" x2="545" y2="108" style="stroke:#ddd;stroke-width:2" />
<line x1="1" y1="54" x2="653" y2="54" style="stroke:#ddd;stroke-width:2;stroke-dasharray:3 3" />
<line x1="55" y1="1" x2="55" y2="108" style="stroke:#ddd;stroke-width:2;stroke-dasharray:3 3" />
<line x1="164" y1="1" x2="164" y2="108" style="stroke:#ddd;stroke-width:2;stroke-dasharray:3 3" />
<line x1="273" y1="1" x2="273" y2="108" style="stroke:#ddd;stroke-width:2;stroke-dasharray:3 3" />
<line x1="382" y1="1" x2="382" y2="108" style="stroke:#ddd;stroke-width:2;stroke-dasharray:3 3" />
<line x1="491" y1="1" x2="491" y2="108" style="stroke:#ddd;stroke-width:2;stroke-dasharray:3 3" />
<line x1="600" y1="1" x2="600" y2="108" style="stroke:#ddd;stroke-width:2;stroke-dasharray:3 3" />
<path d="M54.0,11c0.04,0.7,0.17,2-0.08,2.79C50.78,23.6,46.16,32.59,38.0,40.5" style="fill:none;stroke:black;stroke-width:3" />
<circle cx="54.0" cy="11.0" r="5" stroke-width="0" fill="#FF2A00" opacity="0.7" />
<path d="M163.0,11c0.04,0.7,0.17,2-0.08,2.79C159.78,23.6,155.16,32.59,147.0,40.5" style="fill:none;stroke:#999;stroke-width:3" />
<path d="M159.25,28.32c1.33-0.16,1.82-0.08,3.13-0.16c7.29-0.49,17.63-2.38,28.02-4.04c1.86-0.15,3.42-0.16,4.59,0" style="fill:none;stroke:black;stroke-width:3" />
<circle cx="159.25" cy="28.32" r="5" stroke-width="0" fill="#FF2A00" opacity="0.7" />
<path d="M272.0,11c0.04,0.7,0.17,2-0.08,2.79C268.78,23.6,264.15999999999997,32.59,256.0,40.5" style="fill:none;stroke:#999;stroke-width:3" />
<path d="M268.25,28.32c1.33-0.16,1.82-0.08,3.13-0.16c7.29-0.49,17.63-2.38,28.02-4.04c1.86-0.15,3.42-0.16,4.59,0" style="fill:none;stroke:#999;stroke-width:3" />
<path d="M265.25,45.09c1.5,0.66,4.3,1.3,5.12,1.15c4.13-0.75,21.39-4.85,22.2-4.75c1.31,0.16,2.36,1.55,0.82,2.95C283.75,53.25,278.75,57,271.0,66.5c-5.59,6.85-3,11.79,17.48,11.79C308.0,78.29,309.25,75,309.0,71.5" style="fill:none;stroke:black;stroke-width:3" />
<circle cx="265.25" cy="45.09" r="5" stroke-width="0" fill="#FF2A00" opacity="0.7" />
<path d="M381.0,11c0.04,0.7,0.17,2-0.08,2.79C377.78,23.6,373.15999999999997,32.59,365.0,40.5" style="fill:none;stroke:#999;stroke-width:3" />
<path d="M377.25,28.32c1.33-0.16,1.82-0.08,3.13-0.16c7.29-0.49,17.63-2.38,28.02-4.04c1.86-0.15,3.42-0.16,4.59,0" style="fill:none;stroke:#999;stroke-width:3" />
<path d="M374.25,45.09c1.5,0.66,4.3,1.3,5.12,1.15c4.13-0.75,21.39-4.85,22.2-4.75c1.31,0.16,2.36,1.55,0.82,2.95C392.75,53.25,387.75,57,380.0,66.5c-5.59,6.85-3,11.79,17.48,11.79C417.0,78.29,418.25,75,418.0,71.5" style="fill:none;stroke:#999;stroke-width:3" />
<path d="M342.96,17.25c4.43,1.66,11.44,6.81,12.54,9.38" style="fill:none;stroke:black;stroke-width:3" />
<circle cx="342.96" cy="17.25" r="5" stroke-width="0" fill="#FF2A00" opacity="0.7" />
<path d="M490.0,11c0.04,0.7,0.17,2-0.08,2.79C486.78,23.6,482.15999999999997,32.59,474.0,40.5" style="fill:none;stroke:#999;stroke-width:3" />
<path d="M486.25,28.32c1.33-0.16,1.82-0.08,3.13-0.16c7.29-0.49,17.63-2.38,28.02-4.04c1.86-0.15,3.42-0.16,4.59,0" style="fill:none;stroke:#999;stroke-width:3" />
<path d="M483.25,45.09c1.5,0.66,4.3,1.3,5.12,1.15c4.13-0.75,21.39-4.85,22.2-4.75c1.31,0.16,2.36,1.55,0.82,2.95C501.75,53.25,496.75,57,489.0,66.5c-5.59,6.85-3,11.79,17.48,11.79C526.0,78.29,527.25,75,527.0,71.5" style="fill:none;stroke:#999;stroke-width:3" />
<path d="M451.96,17.25c4.43,1.66,11.44,6.81,12.54,9.38" style="fill:none;stroke:#999;stroke-width:3" />
<path d="M449.5,55.03c2.25,0.94,3.75,0.47,4.75,0.24s10-3.3,11.5-3.77c1.5-0.47,2.75,1.18,1.75,2.59s-5.32,7.97-6.25,9.01c-1.25,1.41-0.88,3.75,1,4.95c1.5,0.96,4.25,2.53,5,3.95s0.75,2.59-0.75,3.77S,458.0,82.75,455.0,85" style="fill:none;stroke:black;stroke-width:3" />
<circle cx="449.5" cy="55.03" r="5" stroke-width="0" fill="#FF2A00" opacity="0.7" />
<path d="M599.0,11c0.04,0.7,0.17,2-0.08,2.79C595.78,23.6,591.16,32.59,583.0,40.5" style="fill:none;stroke:#999;stroke-width:3" />
<path d="M595.25,28.32c1.33-0.16,1.82-0.08,3.13-0.16c7.29-0.49,17.63-2.38,28.02-4.04c1.86-0.15,3.42-0.16,4.59,0" style="fill:none;stroke:#999;stroke-width:3" />
<path d="M592.25,45.09c1.5,0.66,4.3,1.3,5.12,1.15c4.13-0.75,21.39-4.85,22.2-4.75c1.31,0.16,2.36,1.55,0.82,2.95C610.75,53.25,605.75,57,598.0,66.5c-5.59,6.85-3,11.79,17.48,11.79C635.0,78.29,636.25,75,636.0,71.5" style="fill:none;stroke:#999;stroke-width:3" />
<path d="M560.96,17.25c4.43,1.66,11.44,6.81,12.54,9.38" style="fill:none;stroke:#999;stroke-width:3" />
<path d="M558.5,55.03c2.25,0.94,3.75,0.47,4.75,0.24s10-3.3,11.5-3.77c1.5-0.47,2.75,1.18,1.75,2.59s-5.32,7.97-6.25,9.01c-1.25,1.41-0.88,3.75,1,4.95c1.5,0.96,4.25,2.53,5,3.95s0.75,2.59-0.75,3.77S,458.0,82.75,455.0,85" style="fill:none;stroke:#999;stroke-width:3" />
<path d="M559.25,86.3c3.01-0.41,9.03-1.45,13.54-0.62c4.51,0.83,30.17,6.37,34.61,7.44c12.04,2.89,21.32,3.72,30.35,2.27" style="fill:none;stroke:black;stroke-width:3" />
<circle cx="559.25" cy="86.3" r="5" stroke-width="0" fill="#FF2A00" opacity="0.7" />
</svg>