<svg width="872px" height="109px" viewBox="0 0 872px 109px" xmlns="http://www.w3.org/2000/svg" xmlns:xlink="http://www.w3.org/1999/xlink" xml:space="preserve" version="1.1"  baseProfile="full">
<line x1="1" y1="1" x2="871" y2="1" style="stroke:#ddd;stroke-width:2" />
<line x1="1" y1="1" x2="1" y2="108" style="stroke:#ddd;stroke-width:2" />
<line x1="1" y1="108" x2="871" y2="108" style="stroke:#ddd;stroke-width:2" />
<line x1="871" y1="1" x2="871" y2="108" style="stroke:#ddd;stroke-width:2" />
<line x1="109" y1="1" x2="109" y2="108" style="stroke:#ddd;stroke-width:2" />
<line x1="218" y1="1" x2="218" y2="108" style="stroke:#ddd;stroke-width:2" />
<line x1="327" y1="1" x2="327" y2="108" style="stroke:#ddd;stroke-width:2" />
<line x1="436" y1="1" x2="436" y2="108" style="stroke:#ddd;stroke-width:2" />
<line x1="545" y1="1" x2="545" y2="108" style="stroke:#ddd;stroke-width:2" />
<line x1="654" y1="1" x2="654" y2="108" style="stroke:#ddd;stroke-width:2" />
<line x1="763" y1="1" x2="763" y2="108" style="stroke:#ddd;stroke-width:2" />
<line x1="1" y1="54" x2="871" y2="54" style="stroke:#ddd;stroke-width:2;stroke-dasharray:3 3" />
<line x1="55" y1="1" x2="55" y2="108" style="stroke:#ddd;stroke-width:2;stroke-dasharray:3 3" />
<line x1="164" y1="1" x2="164" y2="108" style="stroke:#ddd;stroke-width:2;stroke-dasharray:3 3" />
<line x1="273" y1="1" x2="273" y2="108" style="stroke:#ddd;stroke-width:2;stroke-dasharray:3 3" />
<line x1="382" y1="1" x2="382" y2="108" style="stroke:#ddd;stroke-width:2;stroke-dasharray:3 3" />
<line x1="491" y1="1" x2="491" y2="108" style="stroke:#ddd;stroke-width:2;stroke-dasharray:3 3" />
<line x1="600" y1="1" x2="600" y2="108" style="stroke:#ddd;stroke-width:2;stroke-dasharray:3 3" />
<line x1="709" y1="1" x2="709" y2="108" style="stroke:#ddd;stroke-width:2;stroke-dasharray:3 3" />
<line x1="818" y1="1" x2="818" y2="108" style="stroke:#ddd;stroke-width:2;stroke-dasharray:3 3" />
<path d="M35.79,34.37c2.15,0.39,4.33,0.55,6.45,0.1c6.35-1.34,13.41-2.98,16.77-3.66c2.44-0.49,4.57-0.15,4.43,3.08c-0.31,7.18-4.72,32.66-8.95,41.43c-3.46,7.18-5.21,0.67-6.06-0.18" style="fill:none;stroke:black;stroke-width:3" />
<circle cx="35.79" cy="34.37" r="5" stroke-width="0" fill="#FF2A00" opacity="0.7" />
<path d="M144.79,34.37c2.15,0.39,4.33,0.55,6.45,0.1c6.35-1.34,13.41-2.98,16.77-3.66c2.44-0.49,4.57-0.15,4.43,3.08c-0.31,7.18-4.72,32.66-8.95,41.43c-3.46,7.18-5.21,0.67-6.06-0.18" style="fill:none;stroke:#999;stroke-width:3" />
<path d="M159.37,13.43c0.18,0.34,0.72,1.86,0.62,3.58C159.14,33.06,155.51,62.1,143.4,76.07" style="fill:none;stroke:black;stroke-width:3" />
<circle cx="159.37" cy="13.43" r="5" stroke-width="0" fill="#FF2A00" opacity="0.7" />
<path d="M253.79,34.37c2.15,0.39,4.33,0.55,6.45,0.1c6.35-1.34,13.41-2.98,16.77-3.66c2.44-0.49,4.57-0.15,4.43,3.08c-0.31,7.18-4.72,32.66-8.95,41.43c-3.46,7.18-5.21,0.67-6.06-0.18" style="fill:none;stroke:#999;stroke-width:3" />
<path d="M268.37,13.43c0.18,0.34,0.72,1.86,0.62,3.58C268.14,33.06,264.51,62.1,252.4,76.07" style="fill:none;stroke:#999;stroke-width:3" />
<path d="M288.31,31.27c0.9,0.9,1.28,1.99,1.39,3.02c0.76,6.73,1.98,23.33,2.73,37.09c0.15,2.76,0.28,5.41,0.38,7.84" style="fill:none;stroke:black;stroke-width:3" />
<circle cx="288.31" cy="31.27" r="5" stroke-width="0" fill="#FF2A00" opacity="0.7" />
<path d="M362.78999999999996,34.37c2.15,0.39,4.33,0.55,6.45,0.1c6.35-1.34,13.41-2.98,16.77-3.66c2.44-0.49,4.57-0.15,4.43,3.08c-0.31,7.18-4.72,32.66-8.95,41.43c-3.46,7.18-5.21,0.67-6.06-0.18" style="fill:none;stroke:#999;stroke-width:3" />
<path d="M377.37,13.43c0.18,0.34,0.72,1.86,0.62,3.58C377.14,33.06,373.51,62.1,361.4,76.07" style="fill:none;stroke:#999;stroke-width:3" />
<path d="M397.31,31.27c0.9,0.9,1.28,1.99,1.39,3.02c0.76,6.73,1.98,23.33,2.73,37.09c0.15,2.76,0.28,5.41,0.38,7.84" style="fill:none;stroke:#999;stroke-width:3" />
<path d="M399.94,33.22c6.84-1.02,10.18-1.34,15.69-2.25c3.76-0.62,5.2,0.49,4.83,3.91c-0.84,7.87-2.69,27.7-3.91,39.42" style="fill:none;stroke:black;stroke-width:3" />
<circle cx="399.94" cy="33.22" r="5" stroke-width="0" fill="#FF2A00" opacity="0.7" />
<path d="M471.78999999999996,34.37c2.15,0.39,4.33,0.55,6.45,0.1c6.35-1.34,13.41-2.98,16.77-3.66c2.44-0.49,4.57-0.15,4.43,3.08c-0.31,7.18-4.72,32.66-8.95,41.43c-3.46,7.18-5.21,0.67-6.06-0.18" style="fill:none;stroke:#999;stroke-width:3" />
<path d="M486.37,13.43c0.18,0.34,0.72,1.86,0.62,3.58C486.14,33.06,482.51,62.1,470.4,76.07" style="fill:none;stroke:#999;stroke-width:3" />
<path d="M506.31,31.27c0.9,0.9,1.28,1.99,1.39,3.02c0.76,6.73,1.98,23.33,2.73,37.09c0.15,2.76,0.28,5.41,0.38,7.84" style="fill:none;stroke:#999;stroke-width:3" />
<path d="M508.94,33.22c6.84-1.02,10.18-1.34,15.69-2.25c3.76-0.62,5.2,0.49,4.83,3.91c-0.84,7.87-2.69,27.7-3.91,39.42" style="fill:none;stroke:#999;stroke-width:3" />
<path d="M511.83,76.32c5.08-0.52,7.76-0.86,11.57-1.32c1.28-0.16,2.69-0.33,4.37-0.52" style="fill:none;stroke:black;stroke-width:3" />
<circle cx="511.83" cy="76.32" r="5" stroke-width="0" fill="#FF2A00" opacity="0.7" />
<path d="M580.79,34.37c2.15,0.39,4.33,0.55,6.45,0.1c6.35-1.34,13.41-2.98,16.77-3.66c2.44-0.49,4.57-0.15,4.43,3.08c-0.31,7.18-4.72,32.66-8.95,41.43c-3.46,7.18-5.21,0.67-6.06-0.18" style="fill:none;stroke:#999;stroke-width:3" />
<path d="M595.37,13.43c0.18,0.34,0.72,1.86,0.62,3.58C595.14,33.06,591.51,62.1,579.4,76.07" style="fill:none;stroke:#999;stroke-width:3" />
<path d="M615.31,31.27c0.9,0.9,1.28,1.99,1.39,3.02c0.76,6.73,1.98,23.33,2.73,37.09c0.15,2.76,0.28,5.41,0.38,7.84" style="fill:none;stroke:#999;stroke-width:3" />
<path d="M617.94,33.22c6.84-1.02,10.18-1.34,15.69-2.25c3.76-0.62,5.2,0.49,4.83,3.91c-0.84,7.87-2.69,27.7-3.91,39.42" style="fill:none;stroke:#999;stroke-width:3" />
<path d="M620.8299999999999,76.32c5.08-0.52,7.76-0.86,11.57-1.32c1.28-0.16,2.69-0.33,4.37-0.52" style="fill:none;stroke:#999;stroke-width:3" />
<path d="M562.71,19.25c3.63,1.74,9.38,7.17,10.29,9.88" style="fill:none;stroke:black;stroke-width:3" />
<circle cx="562.71" cy="19.25" r="5" stroke-width="0" fill="#FF2A00" opacity="0.7" />
<path d="M689.79,34.37c2.15,0.39,4.33,0.55,6.45,0.1c6.35-1.34,13.41-2.98,16.77-3.66c2.44-0.49,4.57-0.15,4.43,3.08c-0.31,7.18-4.72,32.66-8.95,41.43c-3.46,7.18-5.21,0.67-6.06-0.18" style="fill:none;stroke:#999;stroke-width:3" />
<path d="M704.37,13.43c0.18,0.34,0.72,1.86,0.62,3.58C704.14,33.06,700.51,62.1,688.4,76.07" style="fill:none;stroke:#999;stroke-width:3" />
<path d="M724.31,31.27c0.9,0.9,1.28,1.99,1.39,3.02c0.76,6.73,1.98,23.33,2.73,37.09c0.15,2.76,0.28,5.41,0.38,7.84" style="fill:none;stroke:#999;stroke-width:3" />
<path d="M726.94,33.22c6.84-1.02,10.18-1.34,15.69-2.25c3.76-0.62,5.2,0.49,4.83,3.91c-0.84,7.87-2.69,27.7-3.91,39.42" style="fill:none;stroke:#999;stroke-width:3" />
<path d="M729.8299999999999,76.32c5.08-0.52,7.76-0.86,11.57-1.32c1.28-0.16,2.69-0.33,4.37-0.52" style="fill:none;stroke:#999;stroke-width:3" />
<path d="M671.71,19.25c3.63,1.74,9.38,7.17,10.29,9.88" style="fill:none;stroke:#999;stroke-width:3" />
<path d="M664.0,49.75c2.25,1,3.75,0.5,4.75,0.25s9.07-3.32,10.5-4c2.38-1.12,3.88,0.12,2.75,2.75c-0.71,1.66-3,5.75-4.5,8.75c-0.65,1.3-0.9,3.42,0.5,5.25c1.62,2.12,2,2.75,3.75,5c1.03,1.32,0.68,2.68-0.75,4C679.38,73.25,672.25,80,670.25,81" style="fill:none;stroke:black;stroke-width:3" />
<circle cx="664.0" cy="49.75" r="5" stroke-width="0" fill="#FF2A00" opacity="0.7" />
<path d="M798.79,34.37c2.15,0.39,4.33,0.55,6.45,0.1c6.35-1.34,13.41-2.98,16.77-3.66c2.44-0.49,4.57-0.15,4.43,3.08c-0.31,7.18-4.72,32.66-8.95,41.43c-3.46,7.18-5.21,0.67-6.06-0.18" style="fill:none;stroke:#999;stroke-width:3" />
<path d="M813.37,13.43c0.18,0.34,0.72,1.86,0.62,3.58C813.14,33.06,809.51,62.1,797.4,76.07" style="fill:none;stroke:#999;stroke-width:3" />
<path d="M833.31,31.27c0.9,0.9,1.28,1.99,1.39,3.02c0.76,6.73,1.98,23.33,2.73,37.09c0.15,2.76,0.28,5.41,0.38,7.84" style="fill:none;stroke:#999;stroke-width:3" />
<path d="M835.94,33.22c6.84-1.02,10.18-1.34,15.69-2.25c3.76-0.62,5.2,0.49,4.83,3.91c-0.84,7.87-2.69,27.7-3.91,39.42" style="fill:none;stroke:#999;stroke-width:3" />
<path d="M838.8299999999999,76.32c5.08-0.52,7.76-0.86,11.57-1.32c1.28-0.16,2.69-0.33,4.37-0.52" style="fill:none;stroke:#999;stroke-width:3" />
<path d="M780.71,19.25c3.63,1.74,9.38,7.17,10.29,9.88" style="fill:none;stroke:#999;stroke-width:3" />
<path d="M773.0,49.75c2.25,1,3.75,0.5,4.75,0.25s9.07-3.32,10.5-4c2.38-1.12,3.88,0.12,2.75,2.75c-0.71,1.66-3,5.75-4.5,8.75c-0.65,1.3-0.9,3.42,0.5,5.25c1.62,2.12,2,2.75,3.75,5c1.03,1.32,0.68,2.68-0.75,4C788.38,73.25,781.25,80,779.25,81" style="fill:none;stroke:#999;stroke-width:3" />
<path d="M775.25,82.04c3.14-0.52,9.41-1.44,14.15-0.53c8.35,1.61,31.52,7.76,36.15,9.1c12.58,3.64,22.27,4.67,31.7,2.86" style="fill:none;stroke:black;stroke-width:3" />
<circle cx="775.25" cy="82.04" r="5" stroke-width="0" fill="#FF2A00" opacity="0.7" />
</svg>