<svg width="1090px" height="109px" viewBox="0 0 1090px 109px" xmlns="http://www.w3.org/2000/svg" xmlns:xlink="http://www.w3.org/1999/xlink" xml:space="preserve" version="1.1"  baseProfile="full">
<line x1="1" y1="1" x2="1089" y2="1" style="stroke:#ddd;stroke-width:2" />
<line x1="1" y1="1" x2="1" y2="108" style="stroke:#ddd;stroke-width:2" />
<line x1="1" y1="108" x2="1089" y2="108" style="stroke:#ddd;stroke-width:2" />
<line x1="1089" y1="1" x2="1089" y2="108" style="stroke:#ddd;stroke-width:2" />
<line x1="109" y1="1" x2="109" y2="108" style="stroke:#ddd;stroke-width:2" />
<line x1="218" y1="1" x2="218" y2="108" style="stroke:#ddd;stroke-width:2" />
<line x1="327" y1="1" x2="327" y2="108" style="stroke:#ddd;stroke-width:2" />
<line x1="436" y1="1" x2="436" y2="108" style="stroke:#ddd;stroke-width:2" />
<line x1="545" y1="1" x2="545" y2="108" style="stroke:#ddd;stroke-width:2" />
<line x1="654" y1="1" x2="654" y2="108" style="stroke:#ddd;stroke-width:2" />
<line x1="763" y1="1" x2="763" y2="108" style="stroke:#ddd;stroke-width:2" />
<line x1="872" y1="1" x2="872" y2="108" style="stroke:#ddd;stroke-width:2" />
<line x1="981" y1="1" x2="981" y2="108" style="stroke:#ddd;stroke-width:2" />
<line x1="1" y1="54" x2="1089" y2="54" style="stroke:#ddd;stroke-width:2;stroke-dasharray:3 3" />
<line x1="55" y1="1" x2="55" y2="108" style="stroke:#ddd;stroke-width:2;stroke-dasharray:3 3" />
<line x1="164" y1="1" x2="164" y2="108" style="stroke:#ddd;stroke-width:2;stroke-dasharray:3 3" />
<line x1="273" y1="1" x2="273" y2="108" style="stroke:#ddd;stroke-width:2;stroke-dasharray:3 3" />
<line x1="382" y1="1" x2="382" y2="108" style="stroke:#ddd;stroke-width:2;stroke-dasharray:3 3" />
<line x1="491" y1="1" x2="491" y2="108" style="stroke:#ddd;stroke-width:2;stroke-dasharray:3 3" />
<line x1="600" y1="1" x2="600" y2="108" style="stroke:#ddd;stroke-width:2;stroke-dasharray:3 3" />
<line x1="709" y1="1" x2="709" y2="108" style="stroke:#ddd;stroke-width:2;stroke-dasharray:3 3" />
<line x1="818" y1="1" x2="818" y2="108" style="stroke:#ddd;stroke-width:2;stroke-dasharray:3 3" />
<line x1="927" y1="1" x2="927" y2="108" style="stroke:#ddd;stroke-width:2;stroke-dasharray:3 3" />
<line x1="1036" y1="1" x2="1036" y2="108" style="stroke:#ddd;stroke-width:2;stroke-dasharray:3 3" />
<path d="M51.46,16.51c0.49,0.19,2.21,0.21,2.7,0.19c5.12-0.22,18.25-2,21.24-2.19c0.82-0.05,2.95,0.09,3.36,0.19" style="fill:none;stroke:black;stroke-width:3" />
<circle cx="51.46" cy="16.51" r="5" stroke-width="0" fill="#FF2A00" opacity="0.7" />
<path d="M160.46,16.51c0.49,0.19,2.21,0.21,2.7,0.19c5.12-0.22,18.25-2,21.24-2.19c0.82-0.05,2.95,0.09,3.36,0.19" style="fill:none;stroke:#999;stroke-width:3" />
<path d="M149.38,29.5c1.24,0.45,3.53,0.57,4.77,0.45C167.9,28.68,184.0,26.5,196.28,25.64c2.07-0.14,3.31,0.22,4.35,0.45" style="fill:none;stroke:black;stroke-width:3" />
<circle cx="149.38" cy="29.5" r="5" stroke-width="0" fill="#FF2A00" opacity="0.7" />
<path d="M269.46000000000004,16.51c0.49,0.19,2.21,0.21,2.7,0.19c5.12-0.22,18.25-2,21.24-2.19c0.82-0.05,2.95,0.09,3.36,0.19" style="fill:none;stroke:#999;stroke-width:3" />
<path d="M258.38,29.5c1.24,0.45,3.53,0.57,4.77,0.45C276.9,28.68,293.0,26.5,305.28,25.64c2.07-0.14,3.31,0.22,4.35,0.45" style="fill:none;stroke:#999;stroke-width:3" />
<path d="M270.21,41.51c0.49,0.19,2.21,0.21,2.7,0.19c5.12-0.22,17.75-2.5,20.74-2.69c0.82-0.05,2.95,0.09,3.36,0.19" style="fill:none;stroke:black;stroke-width:3" />
<circle cx="270.21" cy="41.51" r="5" stroke-width="0" fill="#FF2A00" opacity="0.7" />
<path d="M378.46000000000004,16.51c0.49,0.19,2.21,0.21,2.7,0.19c5.12-0.22,18.25-2,21.24-2.19c0.82-0.05,2.95,0.09,3.36,0.19" style="fill:none;stroke:#999;stroke-width:3" />
<path d="M367.38,29.5c1.24,0.45,3.53,0.57,4.77,0.45C385.9,28.68,402.0,26.5,414.28,25.64c2.07-0.14,3.31,0.22,4.35,0.45" style="fill:none;stroke:#999;stroke-width:3" />
<path d="M379.21,41.51c0.49,0.19,2.21,0.21,2.7,0.19c5.12-0.22,17.75-2.5,20.74-2.69c0.82-0.05,2.95,0.09,3.36,0.19" style="fill:none;stroke:#999;stroke-width:3" />
<path d="M378.71,53.6c0.49,0.19,2.21,0.21,2.7,0.19c5.12-0.22,17.96-2.71,21.56-2.69c0.82,0,2.95,0.09,3.36,0.19" style="fill:none;stroke:black;stroke-width:3" />
<circle cx="378.71" cy="53.6" r="5" stroke-width="0" fill="#FF2A00" opacity="0.7" />
<path d="M487.46000000000004,16.51c0.49,0.19,2.21,0.21,2.7,0.19c5.12-0.22,18.25-2,21.24-2.19c0.82-0.05,2.95,0.09,3.36,0.19" style="fill:none;stroke:#999;stroke-width:3" />
<path d="M476.38,29.5c1.24,0.45,3.53,0.57,4.77,0.45C494.9,28.68,511.0,26.5,523.28,25.64c2.07-0.14,3.31,0.22,4.35,0.45" style="fill:none;stroke:#999;stroke-width:3" />
<path d="M488.21,41.51c0.49,0.19,2.21,0.21,2.7,0.19c5.12-0.22,17.75-2.5,20.74-2.69c0.82-0.05,2.95,0.09,3.36,0.19" style="fill:none;stroke:#999;stroke-width:3" />
<path d="M487.71,53.6c0.49,0.19,2.21,0.21,2.7,0.19c5.12-0.22,17.96-2.71,21.56-2.69c0.82,0,2.95,0.09,3.36,0.19" style="fill:none;stroke:#999;stroke-width:3" />
<path d="M485.38,65.85c0.47,0.31,1.01,0.55,1.16,0.95c1.34,3.53,2.19,11.47,3.31,16.95" style="fill:none;stroke:black;stroke-width:3" />
<circle cx="485.38" cy="65.85" r="5" stroke-width="0" fill="#FF2A00" opacity="0.7" />
<path d="M596.46,16.51c0.49,0.19,2.21,0.21,2.7,0.19c5.12-0.22,18.25-2,21.24-2.19c0.82-0.05,2.95,0.09,3.36,0.19" style="fill:none;stroke:#999;stroke-width:3" />
<path d="M585.38,29.5c1.24,0.45,3.53,0.57,4.77,0.45C603.9,28.68,620.0,26.5,632.28,25.64c2.07-0.14,3.31,0.22,4.35,0.45" style="fill:none;stroke:#999;stroke-width:3" />
<path d="M597.21,41.51c0.49,0.19,2.21,0.21,2.7,0.19c5.12-0.22,17.75-2.5,20.74-2.69c0.82-0.05,2.95,0.09,3.36,0.19" style="fill:none;stroke:#999;stroke-width:3" />
<path d="M596.71,53.6c0.49,0.19,2.21,0.21,2.7,0.19c5.12-0.22,17.96-2.71,21.56-2.69c0.82,0,2.95,0.09,3.36,0.19" style="fill:none;stroke:#999;stroke-width:3" />
<path d="M594.38,65.85c0.47,0.31,1.01,0.55,1.16,0.95c1.34,3.53,2.19,11.47,3.31,16.95" style="fill:none;stroke:#999;stroke-width:3" />
<path d="M596.02,67.43c8.68-1.79,22.01-3.38,29.23-4.22c1.81-0.21,2.91,0.98,2.65,1.95c-1.08,4.01-2.34,7.86-3.94,13.41" style="fill:none;stroke:black;stroke-width:3" />
<circle cx="596.02" cy="67.43" r="5" stroke-width="0" fill="#FF2A00" opacity="0.7" />
<path d="M705.46,16.51c0.49,0.19,2.21,0.21,2.7,0.19c5.12-0.22,18.25-2,21.24-2.19c0.82-0.05,2.95,0.09,3.36,0.19" style="fill:none;stroke:#999;stroke-width:3" />
<path d="M694.38,29.5c1.24,0.45,3.53,0.57,4.77,0.45C712.9,28.68,729.0,26.5,741.28,25.64c2.07-0.14,3.31,0.22,4.35,0.45" style="fill:none;stroke:#999;stroke-width:3" />
<path d="M706.21,41.51c0.49,0.19,2.21,0.21,2.7,0.19c5.12-0.22,17.75-2.5,20.74-2.69c0.82-0.05,2.95,0.09,3.36,0.19" style="fill:none;stroke:#999;stroke-width:3" />
<path d="M705.71,53.6c0.49,0.19,2.21,0.21,2.7,0.19c5.12-0.22,17.96-2.71,21.56-2.69c0.82,0,2.95,0.09,3.36,0.19" style="fill:none;stroke:#999;stroke-width:3" />
<path d="M703.38,65.85c0.47,0.31,1.01,0.55,1.16,0.95c1.34,3.53,2.19,11.47,3.31,16.95" style="fill:none;stroke:#999;stroke-width:3" />
<path d="M705.02,67.43c8.68-1.79,22.01-3.38,29.23-4.22c1.81-0.21,2.91,0.98,2.65,1.95c-1.08,4.01-2.34,7.86-3.94,13.41" style="fill:none;stroke:#999;stroke-width:3" />
<path d="M708.55,80.73c5.84-0.51,18.22-1.39,26.24-2.18" style="fill:none;stroke:black;stroke-width:3" />
<circle cx="708.55" cy="80.73" r="5" stroke-width="0" fill="#FF2A00" opacity="0.7" />
<path d="M814.46,16.51c0.49,0.19,2.21,0.21,2.7,0.19c5.12-0.22,18.25-2,21.24-2.19c0.82-0.05,2.95,0.09,3.36,0.19" style="fill:none;stroke:#999;stroke-width:3" />
<path d="M803.38,29.5c1.24,0.45,3.53,0.57,4.77,0.45C821.9,28.68,838.0,26.5,850.28,25.64c2.07-0.14,3.31,0.22,4.35,0.45" style="fill:none;stroke:#999;stroke-width:3" />
<path d="M815.21,41.51c0.49,0.19,2.21,0.21,2.7,0.19c5.12-0.22,17.75-2.5,20.74-2.69c0.82-0.05,2.95,0.09,3.36,0.19" style="fill:none;stroke:#999;stroke-width:3" />
<path d="M814.71,53.6c0.49,0.19,2.21,0.21,2.7,0.19c5.12-0.22,17.96-2.71,21.56-2.69c0.82,0,2.95,0.09,3.36,0.19" style="fill:none;stroke:#999;stroke-width:3" />
<path d="M812.38,65.85c0.47,0.31,1.01,0.55,1.16,0.95c1.34,3.53,2.19,11.47,3.31,16.95" style="fill:none;stroke:#999;stroke-width:3" />
<path d="M814.02,67.43c8.68-1.79,22.01-3.38,29.23-4.22c1.81-0.21,2.91,0.98,2.65,1.95c-1.08,4.01-2.34,7.86-3.94,13.41" style="fill:none;stroke:#999;stroke-width:3" />
<path d="M817.55,80.73c5.84-0.51,18.22-1.39,26.24-2.18" style="fill:none;stroke:#999;stroke-width:3" />
<path d="M782.96,24.5c3.72,1.44,9.61,5.9,10.54,8.13" style="fill:none;stroke:black;stroke-width:3" />
<circle cx="782.96" cy="24.5" r="5" stroke-width="0" fill="#FF2A00" opacity="0.7" />
<path d="M923.46,16.51c0.49,0.19,2.21,0.21,2.7,0.19c5.12-0.22,18.25-2,21.24-2.19c0.82-0.05,2.95,0.09,3.36,0.19" style="fill:none;stroke:#999;stroke-width:3" />
<path d="M912.38,29.5c1.24,0.45,3.53,0.57,4.77,0.45C930.9,28.68,947.0,26.5,959.28,25.64c2.07-0.14,3.31,0.22,4.35,0.45" style="fill:none;stroke:#999;stroke-width:3" />
<path d="M924.21,41.51c0.49,0.19,2.21,0.21,2.7,0.19c5.12-0.22,17.75-2.5,20.74-2.69c0.82-0.05,2.95,0.09,3.36,0.19" style="fill:none;stroke:#999;stroke-width:3" />
<path d="M923.71,53.6c0.49,0.19,2.21,0.21,2.7,0.19c5.12-0.22,17.96-2.71,21.56-2.69c0.82,0,2.95,0.09,3.36,0.19" style="fill:none;stroke:#999;stroke-width:3" />
<path d="M921.38,65.85c0.47,0.31,1.01,0.55,1.16,0.95c1.34,3.53,2.19,11.47,3.31,16.95" style="fill:none;stroke:#999;stroke-width:3" />
<path d="M923.02,67.43c8.68-1.79,22.01-3.38,29.23-4.22c1.81-0.21,2.91,0.98,2.65,1.95c-1.08,4.01-2.34,7.86-3.94,13.41" style="fill:none;stroke:#999;stroke-width:3" />
<path d="M926.55,80.73c5.84-0.51,18.22-1.39,26.24-2.18" style="fill:none;stroke:#999;stroke-width:3" />
<path d="M891.96,24.5c3.72,1.44,9.61,5.9,10.54,8.13" style="fill:none;stroke:#999;stroke-width:3" />
<path d="M887.0,56.03c2.25,0.94,3.75,0.47,4.75,0.24s10-2.3,11.5-2.77c1.5-0.47,3.75,1.18,2.75,2.59s-6,6.83-6.75,8.01s-0.5,3.3,1,4.95c1.5,1.65,3.75,3.03,4.5,4.45s0.75,3.09-0.75,4.27S,894.0,85.53,892.5,86" style="fill:none;stroke:black;stroke-width:3" />
<circle cx="887.0" cy="56.03" r="5" stroke-width="0" fill="#FF2A00" opacity="0.7" />
<path d="M1032.46,16.51c0.49,0.19,2.21,0.21,2.7,0.19c5.12-0.22,18.25-2,21.24-2.19c0.82-0.05,2.95,0.09,3.36,0.19" style="fill:none;stroke:#999;stroke-width:3" />
<path d="M1021.38,29.5c1.24,0.45,3.53,0.57,4.77,0.45C1039.9,28.68,1056.0,26.5,1068.28,25.64c2.07-0.14,3.31,0.22,4.35,0.45" style="fill:none;stroke:#999;stroke-width:3" />
<path d="M1033.21,41.51c0.49,0.19,2.21,0.21,2.7,0.19c5.12-0.22,17.75-2.5,20.74-2.69c0.82-0.05,2.95,0.09,3.36,0.19" style="fill:none;stroke:#999;stroke-width:3" />
<path d="M1032.71,53.6c0.49,0.19,2.21,0.21,2.7,0.19c5.12-0.22,17.96-2.71,21.56-2.69c0.82,0,2.95,0.09,3.36,0.19" style="fill:none;stroke:#999;stroke-width:3" />
<path d="M1030.38,65.85c0.47,0.31,1.01,0.55,1.16,0.95c1.34,3.53,2.19,11.47,3.31,16.95" style="fill:none;stroke:#999;stroke-width:3" />
<path d="M1032.02,67.43c8.68-1.79,22.01-3.38,29.23-4.22c1.81-0.21,2.91,0.98,2.65,1.95c-1.08,4.01-2.34,7.86-3.94,13.41" style="fill:none;stroke:#999;stroke-width:3" />
<path d="M1035.55,80.73c5.84-0.51,18.22-1.39,26.24-2.18" style="fill:none;stroke:#999;stroke-width:3" />
<path d="M1000.96,24.5c3.72,1.44,9.61,5.9,10.54,8.13" style="fill:none;stroke:#999;stroke-width:3" />
<path d="M996.0,56.03c2.25,0.94,3.75,0.47,4.75,0.24s10-2.3,11.5-2.77c1.5-0.47,3.75,1.18,2.75,2.59s-6,6.83-6.75,8.01s-0.5,3.3,1,4.95c1.5,1.65,3.75,3.03,4.5,4.45s0.75,3.09-0.75,4.27S,894.0,85.53,892.5,86" style="fill:none;stroke:#999;stroke-width:3" />
<path d="M995.75,87.07c2.96-0.31,8.88-1.08,13.33-0.46c4.44,0.61,29.69,4.74,34.06,5.53C1054.98,94.29,1064.12,94.9,1073.0,93.83" style="fill:none;stroke:black;stroke-width:3" />
<circle cx="995.75" cy="87.07" r="5" stroke-width="0" fill="#FF2A00" opacity="0.7" />
</svg>