<svg width="1090px" height="109px" viewBox="0 0 1090px 109px" xmlns="http://www.w3.org/2000/svg" xmlns:xlink="http://www.w3.org/1999/xlink" xml:space="preserve" version="1.1"  baseProfile="full">
<line x1="1" y1="1" x2="1089" y2="1" style="stroke:#ddd;stroke-width:2" />
<line x1="1" y1="1" x2="1" y2="108" style="stroke:#ddd;stroke-width:2" />
<line x1="1" y1="108" x2="1089" y2="108" style="stroke:#ddd;stroke-width:2" />
<line x1="1089" y1="1" x2="1089" y2="108" style="stroke:#ddd;stroke-width:2" />
<line x1="109" y1="1" x2="109" y2="108" style="stroke:#ddd;stroke-width:2" />
<line x1="218" y1="1" x2="218" y2="108" style="stroke:#ddd;stroke-width:2" />
<line x1="327" y1="1" x2="327" y2="108" style="stroke:#ddd;stroke-width:2" />
<line x1="436" y1="1" x2="436" y2="108" style="stroke:#ddd;stroke-width:2" />
<line x1="545" y1="1" x2="545" y2="108" style="stroke:#ddd;stroke-width:2" />
<line x1="654" y1="1" x2="654" y2="108" style="stroke:#ddd;stroke-width:2" />
<line x1="763" y1="1" x2="763" y2="108" style="stroke:#ddd;stroke-width:2" />
<line x1="872" y1="1" x2="872" y2="108" style="stroke:#ddd;stroke-width:2" />
<line x1="981" y1="1" x2="981" y2="108" style="stroke:#ddd;stroke-width:2" />
<line x1="1" y1="54" x2="1089" y2="54" style="stroke:#ddd;stroke-width:2;stroke-dasharray:3 3" />
<line x1="55" y1="1" x2="55" y2="108" style="stroke:#ddd;stroke-width:2;stroke-dasharray:3 3" />
<line x1="164" y1="1" x2="164" y2="108" style="stroke:#ddd;stroke-width:2;stroke-dasharray:3 3" />
<line x1="273" y1="1" x2="273" y2="108" style="stroke:#ddd;stroke-width:2;stroke-dasharray:3 3" />
<line x1="382" y1="1" x2="382" y2="108" style="stroke:#ddd;stroke-width:2;stroke-dasharray:3 3" />
<line x1="491" y1="1" x2="491" y2="108" style="stroke:#ddd;stroke-width:2;stroke-dasharray:3 3" />
<line x1="600" y1="1" x2="600" y2="108" style="stroke:#ddd;stroke-width:2;stroke-dasharray:3 3" />
<line x1="709" y1="1" x2="709" y2="108" style="stroke:#ddd;stroke-width:2;stroke-dasharray:3 3" />
<line x1="818" y1="1" x2="818" y2="108" style="stroke:#ddd;stroke-width:2;stroke-dasharray:3 3" />
<line x1="927" y1="1" x2="927" y2="108" style="stroke:#ddd;stroke-width:2;stroke-dasharray:3 3" />
<line x1="1036" y1="1" x2="1036" y2="108" style="stroke:#ddd;stroke-width:2;stroke-dasharray:3 3" />
<path d="M56.08,12c0.1,1.14-0.23,2.41-0.77,3.44c-2.94,5.68-7.56,12.06-15.06,18.48" style="fill:none;stroke:black;stroke-width:3" />
<circle cx="56.08" cy="12.0" r="5" stroke-width="0" fill="#FF2A00" opacity="0.7" />
<path d="M165.07999999999998,12c0.1,1.14-0.23,2.41-0.77,3.44c-2.94,5.68-7.56,12.06-15.06,18.48" style="fill:none;stroke:#999;stroke-width:3" />
<path d="M165.54,18.98c1.09,0.4,2.3,0.23,3.48,0.04c2.54-0.41,7.49-1.98,10.73-2.76c2.67-0.64,4.67,0.55,3.4,3.31c-4.07,8.91-20.02,22.68-35.19,28.59" style="fill:none;stroke:black;stroke-width:3" />
<circle cx="165.54" cy="18.98" r="5" stroke-width="0" fill="#FF2A00" opacity="0.7" />
<path d="M274.08,12c0.1,1.14-0.23,2.41-0.77,3.44c-2.94,5.68-7.56,12.06-15.06,18.48" style="fill:none;stroke:#999;stroke-width:3" />
<path d="M274.53999999999996,18.98c1.09,0.4,2.3,0.23,3.48,0.04c2.54-0.41,7.49-1.98,10.73-2.76c2.67-0.64,4.67,0.55,3.4,3.31c-4.07,8.91-20.02,22.68-35.19,28.59" style="fill:none;stroke:#999;stroke-width:3" />
<path d="M268.92,26.28c3.7-0.02,22.27,12.14,31.97,17.66c3.01,1.72,6.45,3.19,9.89,3.68" style="fill:none;stroke:black;stroke-width:3" />
<circle cx="268.92" cy="26.28" r="5" stroke-width="0" fill="#FF2A00" opacity="0.7" />
<path d="M383.08,12c0.1,1.14-0.23,2.41-0.77,3.44c-2.94,5.68-7.56,12.06-15.06,18.48" style="fill:none;stroke:#999;stroke-width:3" />
<path d="M383.53999999999996,18.98c1.09,0.4,2.3,0.23,3.48,0.04c2.54-0.41,7.49-1.98,10.73-2.76c2.67-0.64,4.67,0.55,3.4,3.31c-4.07,8.91-20.02,22.68-35.19,28.59" style="fill:none;stroke:#999;stroke-width:3" />
<path d="M377.92,26.28c3.7-0.02,22.27,12.14,31.97,17.66c3.01,1.72,6.45,3.19,9.89,3.68" style="fill:none;stroke:#999;stroke-width:3" />
<path d="M375.67,51.93c1.53,0.7,3.71,0.69,5.35,0.5c6.8-0.76,14.58-1.88,20.48-2.62c1.55-0.19,3.26-0.62,4.8-0.2" style="fill:none;stroke:black;stroke-width:3" />
<circle cx="375.67" cy="51.93" r="5" stroke-width="0" fill="#FF2A00" opacity="0.7" />
<path d="M492.08,12c0.1,1.14-0.23,2.41-0.77,3.44c-2.94,5.68-7.56,12.06-15.06,18.48" style="fill:none;stroke:#999;stroke-width:3" />
<path d="M492.53999999999996,18.98c1.09,0.4,2.3,0.23,3.48,0.04c2.54-0.41,7.49-1.98,10.73-2.76c2.67-0.64,4.67,0.55,3.4,3.31c-4.07,8.91-20.02,22.68-35.19,28.59" style="fill:none;stroke:#999;stroke-width:3" />
<path d="M486.92,26.28c3.7-0.02,22.27,12.14,31.97,17.66c3.01,1.72,6.45,3.19,9.89,3.68" style="fill:none;stroke:#999;stroke-width:3" />
<path d="M484.67,51.93c1.53,0.7,3.71,0.69,5.35,0.5c6.8-0.76,14.58-1.88,20.48-2.62c1.55-0.19,3.26-0.62,4.8-0.2" style="fill:none;stroke:#999;stroke-width:3" />
<path d="M484.26,62.88c1.47,0.68,3.95,0.47,5.53,0.29c6.83-0.78,13.68-1.85,19.61-2.65c1.57-0.21,3.41-0.64,5-0.2" style="fill:none;stroke:black;stroke-width:3" />
<circle cx="484.26" cy="62.88" r="5" stroke-width="0" fill="#FF2A00" opacity="0.7" />
<path d="M601.0799999999999,12c0.1,1.14-0.23,2.41-0.77,3.44c-2.94,5.68-7.56,12.06-15.06,18.48" style="fill:none;stroke:#999;stroke-width:3" />
<path d="M601.54,18.98c1.09,0.4,2.3,0.23,3.48,0.04c2.54-0.41,7.49-1.98,10.73-2.76c2.67-0.64,4.67,0.55,3.4,3.31c-4.07,8.91-20.02,22.68-35.19,28.59" style="fill:none;stroke:#999;stroke-width:3" />
<path d="M595.9200000000001,26.28c3.7-0.02,22.27,12.14,31.97,17.66c3.01,1.72,6.45,3.19,9.89,3.68" style="fill:none;stroke:#999;stroke-width:3" />
<path d="M593.6700000000001,51.93c1.53,0.7,3.71,0.69,5.35,0.5c6.8-0.76,14.58-1.88,20.48-2.62c1.55-0.19,3.26-0.62,4.8-0.2" style="fill:none;stroke:#999;stroke-width:3" />
<path d="M593.26,62.88c1.47,0.68,3.95,0.47,5.53,0.29c6.83-0.78,13.68-1.85,19.61-2.65c1.57-0.21,3.41-0.64,5-0.2" style="fill:none;stroke:#999;stroke-width:3" />
<path d="M587.99,74.8c2.24,1.03,4.71,0.56,7.03,0.2c9.01-1.41,19.92-2.86,28.98-3.77c2.23-0.22,4.09-0.23,6.25,0.37" style="fill:none;stroke:black;stroke-width:3" />
<circle cx="587.99" cy="74.8" r="5" stroke-width="0" fill="#FF2A00" opacity="0.7" />
<path d="M710.0799999999999,12c0.1,1.14-0.23,2.41-0.77,3.44c-2.94,5.68-7.56,12.06-15.06,18.48" style="fill:none;stroke:#999;stroke-width:3" />
<path d="M710.54,18.98c1.09,0.4,2.3,0.23,3.48,0.04c2.54-0.41,7.49-1.98,10.73-2.76c2.67-0.64,4.67,0.55,3.4,3.31c-4.07,8.91-20.02,22.68-35.19,28.59" style="fill:none;stroke:#999;stroke-width:3" />
<path d="M704.9200000000001,26.28c3.7-0.02,22.27,12.14,31.97,17.66c3.01,1.72,6.45,3.19,9.89,3.68" style="fill:none;stroke:#999;stroke-width:3" />
<path d="M702.6700000000001,51.93c1.53,0.7,3.71,0.69,5.35,0.5c6.8-0.76,14.58-1.88,20.48-2.62c1.55-0.19,3.26-0.62,4.8-0.2" style="fill:none;stroke:#999;stroke-width:3" />
<path d="M702.26,62.88c1.47,0.68,3.95,0.47,5.53,0.29c6.83-0.78,13.68-1.85,19.61-2.65c1.57-0.21,3.41-0.64,5-0.2" style="fill:none;stroke:#999;stroke-width:3" />
<path d="M696.99,74.8c2.24,1.03,4.71,0.56,7.03,0.2c9.01-1.41,19.92-2.86,28.98-3.77c2.23-0.22,4.09-0.23,6.25,0.37" style="fill:none;stroke:#999;stroke-width:3" />
<path d="M716.81,42.44c0.81,0.81,1.27,1.93,1.27,3.67c0,6.18,0,26.38,0,36.64c0,2.27,0,4.06,0,5.1" style="fill:none;stroke:black;stroke-width:3" />
<circle cx="716.81" cy="42.44" r="5" stroke-width="0" fill="#FF2A00" opacity="0.7" />
<path d="M819.0799999999999,12c0.1,1.14-0.23,2.41-0.77,3.44c-2.94,5.68-7.56,12.06-15.06,18.48" style="fill:none;stroke:#999;stroke-width:3" />
<path d="M819.54,18.98c1.09,0.4,2.3,0.23,3.48,0.04c2.54-0.41,7.49-1.98,10.73-2.76c2.67-0.64,4.67,0.55,3.4,3.31c-4.07,8.91-20.02,22.68-35.19,28.59" style="fill:none;stroke:#999;stroke-width:3" />
<path d="M813.9200000000001,26.28c3.7-0.02,22.27,12.14,31.97,17.66c3.01,1.72,6.45,3.19,9.89,3.68" style="fill:none;stroke:#999;stroke-width:3" />
<path d="M811.6700000000001,51.93c1.53,0.7,3.71,0.69,5.35,0.5c6.8-0.76,14.58-1.88,20.48-2.62c1.55-0.19,3.26-0.62,4.8-0.2" style="fill:none;stroke:#999;stroke-width:3" />
<path d="M811.26,62.88c1.47,0.68,3.95,0.47,5.53,0.29c6.83-0.78,13.68-1.85,19.61-2.65c1.57-0.21,3.41-0.64,5-0.2" style="fill:none;stroke:#999;stroke-width:3" />
<path d="M805.99,74.8c2.24,1.03,4.71,0.56,7.03,0.2c9.01-1.41,19.92-2.86,28.98-3.77c2.23-0.22,4.09-0.23,6.25,0.37" style="fill:none;stroke:#999;stroke-width:3" />
<path d="M825.81,42.44c0.81,0.81,1.27,1.93,1.27,3.67c0,6.18,0,26.38,0,36.64c0,2.27,0,4.06,0,5.1" style="fill:none;stroke:#999;stroke-width:3" />
<path d="M780.96,21.5c3.72,1.48,9.11,6.33,10.04,8.63" style="fill:none;stroke:black;stroke-width:3" />
<circle cx="780.96" cy="21.5" r="5" stroke-width="0" fill="#FF2A00" opacity="0.7" />
<path d="M928.0799999999999,12c0.1,1.14-0.23,2.41-0.77,3.44c-2.94,5.68-7.56,12.06-15.06,18.48" style="fill:none;stroke:#999;stroke-width:3" />
<path d="M928.54,18.98c1.09,0.4,2.3,0.23,3.48,0.04c2.54-0.41,7.49-1.98,10.73-2.76c2.67-0.64,4.67,0.55,3.4,3.31c-4.07,8.91-20.02,22.68-35.19,28.59" style="fill:none;stroke:#999;stroke-width:3" />
<path d="M922.9200000000001,26.28c3.7-0.02,22.27,12.14,31.97,17.66c3.01,1.72,6.45,3.19,9.89,3.68" style="fill:none;stroke:#999;stroke-width:3" />
<path d="M920.6700000000001,51.93c1.53,0.7,3.71,0.69,5.35,0.5c6.8-0.76,14.58-1.88,20.48-2.62c1.55-0.19,3.26-0.62,4.8-0.2" style="fill:none;stroke:#999;stroke-width:3" />
<path d="M920.26,62.88c1.47,0.68,3.95,0.47,5.53,0.29c6.83-0.78,13.68-1.85,19.61-2.65c1.57-0.21,3.41-0.64,5-0.2" style="fill:none;stroke:#999;stroke-width:3" />
<path d="M914.99,74.8c2.24,1.03,4.71,0.56,7.03,0.2c9.01-1.41,19.92-2.86,28.98-3.77c2.23-0.22,4.09-0.23,6.25,0.37" style="fill:none;stroke:#999;stroke-width:3" />
<path d="M934.81,42.44c0.81,0.81,1.27,1.93,1.27,3.67c0,6.18,0,26.38,0,36.64c0,2.27,0,4.06,0,5.1" style="fill:none;stroke:#999;stroke-width:3" />
<path d="M889.96,21.5c3.72,1.48,9.11,6.33,10.04,8.63" style="fill:none;stroke:#999;stroke-width:3" />
<path d="M886.0,55.28c2.25,0.88,3.75,0.19,4.75-0.03c1-0.22,7.75-2.82,9.25-3.26s2.87,1.01,2,2.41c-7.62,12.35-8.5,9.6-1.5,16.92c1.05,1.09,1.25,2.41-0.25,3.51S,893.62,80,889.5,82.5" style="fill:none;stroke:black;stroke-width:3" />
<circle cx="886.0" cy="55.28" r="5" stroke-width="0" fill="#FF2A00" opacity="0.7" />
<path d="M1037.08,12c0.1,1.14-0.23,2.41-0.77,3.44c-2.94,5.68-7.56,12.06-15.06,18.48" style="fill:none;stroke:#999;stroke-width:3" />
<path d="M1037.54,18.98c1.09,0.4,2.3,0.23,3.48,0.04c2.54-0.41,7.49-1.98,10.73-2.76c2.67-0.64,4.67,0.55,3.4,3.31c-4.07,8.91-20.02,22.68-35.19,28.59" style="fill:none;stroke:#999;stroke-width:3" />
<path d="M1031.92,26.28c3.7-0.02,22.27,12.14,31.97,17.66c3.01,1.72,6.45,3.19,9.89,3.68" style="fill:none;stroke:#999;stroke-width:3" />
<path d="M1029.67,51.93c1.53,0.7,3.71,0.69,5.35,0.5c6.8-0.76,14.58-1.88,20.48-2.62c1.55-0.19,3.26-0.62,4.8-0.2" style="fill:none;stroke:#999;stroke-width:3" />
<path d="M1029.26,62.88c1.47,0.68,3.95,0.47,5.53,0.29c6.83-0.78,13.68-1.85,19.61-2.65c1.57-0.21,3.41-0.64,5-0.2" style="fill:none;stroke:#999;stroke-width:3" />
<path d="M1023.99,74.8c2.24,1.03,4.71,0.56,7.03,0.2c9.01-1.41,19.92-2.86,28.98-3.77c2.23-0.22,4.09-0.23,6.25,0.37" style="fill:none;stroke:#999;stroke-width:3" />
<path d="M1043.81,42.44c0.81,0.81,1.27,1.93,1.27,3.67c0,6.18,0,26.38,0,36.64c0,2.27,0,4.06,0,5.1" style="fill:none;stroke:#999;stroke-width:3" />
<path d="M998.96,21.5c3.72,1.48,9.11,6.33,10.04,8.63" style="fill:none;stroke:#999;stroke-width:3" />
<path d="M995.0,55.28c2.25,0.88,3.75,0.19,4.75-0.03c1-0.22,7.75-2.82,9.25-3.26s2.87,1.01,2,2.41c-7.62,12.35-8.5,9.6-1.5,16.92c1.05,1.09,1.25,2.41-0.25,3.51S,893.62,80,889.5,82.5" style="fill:none;stroke:#999;stroke-width:3" />
<path d="M993.75,83.92c3.75-0.92,9.48-1.23,14.13-0.62c12.75,1.69,30.36,8.15,34.83,9.64c12.12,4.04,19.67,5.18,28.79,5.42" style="fill:none;stroke:black;stroke-width:3" />
<circle cx="993.75" cy="83.92" r="5" stroke-width="0" fill="#FF2A00" opacity="0.7" />
</svg>