<svg width="1744px" height="109px" viewBox="0 0 1744px 109px" xmlns="http://www.w3.org/2000/svg" xmlns:xlink="http://www.w3.org/1999/xlink" xml:space="preserve" version="1.1"  baseProfile="full">
<line x1="1" y1="1" x2="1743" y2="1" style="stroke:#ddd;stroke-width:2" />
<line x1="1" y1="1" x2="1" y2="108" style="stroke:#ddd;stroke-width:2" />
<line x1="1" y1="108" x2="1743" y2="108" style="stroke:#ddd;stroke-width:2" />
<line x1="1743" y1="1" x2="1743" y2="108" style="stroke:#ddd;stroke-width:2" />
<line x1="109" y1="1" x2="109" y2="108" style="stroke:#ddd;stroke-width:2" />
<line x1="218" y1="1" x2="218" y2="108" style="stroke:#ddd;stroke-width:2" />
<line x1="327" y1="1" x2="327" y2="108" style="stroke:#ddd;stroke-width:2" />
<line x1="436" y1="1" x2="436" y2="108" style="stroke:#ddd;stroke-width:2" />
<line x1="545" y1="1" x2="545" y2="108" style="stroke:#ddd;stroke-width:2" />
<line x1="654" y1="1" x2="654" y2="108" style="stroke:#ddd;stroke-width:2" />
<line x1="763" y1="1" x2="763" y2="108" style="stroke:#ddd;stroke-width:2" />
<line x1="872" y1="1" x2="872" y2="108" style="stroke:#ddd;stroke-width:2" />
<line x1="981" y1="1" x2="981" y2="108" style="stroke:#ddd;stroke-width:2" />
<line x1="1090" y1="1" x2="1090" y2="108" style="stroke:#ddd;stroke-width:2" />
<line x1="1199" y1="1" x2="1199" y2="108" style="stroke:#ddd;stroke-width:2" />
<line x1="1308" y1="1" x2="1308" y2="108" style="stroke:#ddd;stroke-width:2" />
<line x1="1417" y1="1" x2="1417" y2="108" style="stroke:#ddd;stroke-width:2" />
<line x1="1526" y1="1" x2="1526" y2="108" style="stroke:#ddd;stroke-width:2" />
<line x1="1635" y1="1" x2="1635" y2="108" style="stroke:#ddd;stroke-width:2" />
<line x1="1" y1="54" x2="1743" y2="54" style="stroke:#ddd;stroke-width:2;stroke-dasharray:3 3" />
<line x1="55" y1="1" x2="55" y2="108" style="stroke:#ddd;stroke-width:2;stroke-dasharray:3 3" />
<line x1="164" y1="1" x2="164" y2="108" style="stroke:#ddd;stroke-width:2;stroke-dasharray:3 3" />
<line x1="273" y1="1" x2="273" y2="108" style="stroke:#ddd;stroke-width:2;stroke-dasharray:3 3" />
<line x1="382" y1="1" x2="382" y2="108" style="stroke:#ddd;stroke-width:2;stroke-dasharray:3 3" />
<line x1="491" y1="1" x2="491" y2="108" style="stroke:#ddd;stroke-width:2;stroke-dasharray:3 3" />
<line x1="600" y1="1" x2="600" y2="108" style="stroke:#ddd;stroke-width:2;stroke-dasharray:3 3" />
<line x1="709" y1="1" x2="709" y2="108" style="stroke:#ddd;stroke-width:2;stroke-dasharray:3 3" />
<line x1="818" y1="1" x2="818" y2="108" style="stroke:#ddd;stroke-width:2;stroke-dasharray:3 3" />
<line x1="927" y1="1" x2="927" y2="108" style="stroke:#ddd;stroke-width:2;stroke-dasharray:3 3" />
<line x1="1036" y1="1" x2="1036" y2="108" style="stroke:#ddd;stroke-width:2;stroke-dasharray:3 3" />
<line x1="1145" y1="1" x2="1145" y2="108" style="stroke:#ddd;stroke-width:2;stroke-dasharray:3 3" />
<line x1="1254" y1="1" x2="1254" y2="108" style="stroke:#ddd;stroke-width:2;stroke-dasharray:3 3" />
<line x1="1363" y1="1" x2="1363" y2="108" style="stroke:#ddd;stroke-width:2;stroke-dasharray:3 3" />
<line x1="1472" y1="1" x2="1472" y2="108" style="stroke:#ddd;stroke-width:2;stroke-dasharray:3 3" />
<line x1="1581" y1="1" x2="1581" y2="108" style="stroke:#ddd;stroke-width:2;stroke-dasharray:3 3" />
<line x1="1690" y1="1" x2="1690" y2="108" style="stroke:#ddd;stroke-width:2;stroke-dasharray:3 3" />
<path d="M31.0,15.49c0,0.78,0.05,1.4-0.15,2.33c-1.04,4.87-10.6,19.42-19.63,28.3" style="fill:none;stroke:black;stroke-width:3" />
<circle cx="31.0" cy="15.49" r="5" stroke-width="0" fill="#FF2A00" opacity="0.7" />
<path d="M140.0,15.49c0,0.78,0.05,1.4-0.15,2.33c-1.04,4.87-10.6,19.42-19.63,28.3" style="fill:none;stroke:#999;stroke-width:3" />
<path d="M142.12,22c4.83,1.79,9.02,5.25,11.38,9.75" style="fill:none;stroke:black;stroke-width:3" />
<circle cx="142.12" cy="22.0" r="5" stroke-width="0" fill="#FF2A00" opacity="0.7" />
<path d="M249.0,15.49c0,0.78,0.05,1.4-0.15,2.33c-1.04,4.87-10.6,19.42-19.63,28.3" style="fill:none;stroke:#999;stroke-width:3" />
<path d="M251.12,22c4.83,1.79,9.02,5.25,11.38,9.75" style="fill:none;stroke:#999;stroke-width:3" />
<path d="M240.0,41.75c1.3,0.34,2.6,0.4,3.9,0.18c3.64-0.44,7.47-1.31,11.59-2.01c1.24-0.21,2.5-0.17,3.76-0.17" style="fill:none;stroke:black;stroke-width:3" />
<circle cx="240.0" cy="41.75" r="5" stroke-width="0" fill="#FF2A00" opacity="0.7" />
<path d="M358.0,15.49c0,0.78,0.05,1.4-0.15,2.33c-1.04,4.87-10.6,19.42-19.63,28.3" style="fill:none;stroke:#999;stroke-width:3" />
<path d="M360.12,22c4.83,1.79,9.02,5.25,11.38,9.75" style="fill:none;stroke:#999;stroke-width:3" />
<path d="M349.0,41.75c1.3,0.34,2.6,0.4,3.9,0.18c3.64-0.44,7.47-1.31,11.59-2.01c1.24-0.21,2.5-0.17,3.76-0.17" style="fill:none;stroke:#999;stroke-width:3" />
<path d="M342.09,56.56c2.42,0.53,4.86,0.59,7.32,0.19c5.38-0.73,12.31-1.97,17.84-2.88c1.74-0.41,3.63-0.62,5.27-0.39" style="fill:none;stroke:black;stroke-width:3" />
<circle cx="342.09" cy="56.56" r="5" stroke-width="0" fill="#FF2A00" opacity="0.7" />
<path d="M467.0,15.49c0,0.78,0.05,1.4-0.15,2.33c-1.04,4.87-10.6,19.42-19.63,28.3" style="fill:none;stroke:#999;stroke-width:3" />
<path d="M469.12,22c4.83,1.79,9.02,5.25,11.38,9.75" style="fill:none;stroke:#999;stroke-width:3" />
<path d="M458.0,41.75c1.3,0.34,2.6,0.4,3.9,0.18c3.64-0.44,7.47-1.31,11.59-2.01c1.24-0.21,2.5-0.17,3.76-0.17" style="fill:none;stroke:#999;stroke-width:3" />
<path d="M451.09,56.56c2.42,0.53,4.86,0.59,7.32,0.19c5.38-0.73,12.31-1.97,17.84-2.88c1.74-0.41,3.63-0.62,5.27-0.39" style="fill:none;stroke:#999;stroke-width:3" />
<path d="M465.95,43.94c0.93,0.93,1.24,2.06,1.24,3.64c0,4.35-0.06,25.73-0.06,38.54" style="fill:none;stroke:black;stroke-width:3" />
<circle cx="465.95" cy="43.94" r="5" stroke-width="0" fill="#FF2A00" opacity="0.7" />
<path d="M576.0,15.49c0,0.78,0.05,1.4-0.15,2.33c-1.04,4.87-10.6,19.42-19.63,28.3" style="fill:none;stroke:#999;stroke-width:3" />
<path d="M578.12,22c4.83,1.79,9.02,5.25,11.38,9.75" style="fill:none;stroke:#999;stroke-width:3" />
<path d="M567.0,41.75c1.3,0.34,2.6,0.4,3.9,0.18c3.64-0.44,7.47-1.31,11.59-2.01c1.24-0.21,2.5-0.17,3.76-0.17" style="fill:none;stroke:#999;stroke-width:3" />
<path d="M560.0899999999999,56.56c2.42,0.53,4.86,0.59,7.32,0.19c5.38-0.73,12.31-1.97,17.84-2.88c1.74-0.41,3.63-0.62,5.27-0.39" style="fill:none;stroke:#999;stroke-width:3" />
<path d="M574.95,43.94c0.93,0.93,1.24,2.06,1.24,3.64c0,4.35-0.06,25.73-0.06,38.54" style="fill:none;stroke:#999;stroke-width:3" />
<path d="M560.89,68.26c3.63,4.85,5.66,10.11,6.4,12.94" style="fill:none;stroke:black;stroke-width:3" />
<circle cx="560.89" cy="68.26" r="5" stroke-width="0" fill="#FF2A00" opacity="0.7" />
<path d="M685.0,15.49c0,0.78,0.05,1.4-0.15,2.33c-1.04,4.87-10.6,19.42-19.63,28.3" style="fill:none;stroke:#999;stroke-width:3" />
<path d="M687.12,22c4.83,1.79,9.02,5.25,11.38,9.75" style="fill:none;stroke:#999;stroke-width:3" />
<path d="M676.0,41.75c1.3,0.34,2.6,0.4,3.9,0.18c3.64-0.44,7.47-1.31,11.59-2.01c1.24-0.21,2.5-0.17,3.76-0.17" style="fill:none;stroke:#999;stroke-width:3" />
<path d="M669.0899999999999,56.56c2.42,0.53,4.86,0.59,7.32,0.19c5.38-0.73,12.31-1.97,17.84-2.88c1.74-0.41,3.63-0.62,5.27-0.39" style="fill:none;stroke:#999;stroke-width:3" />
<path d="M683.95,43.94c0.93,0.93,1.24,2.06,1.24,3.64c0,4.35-0.06,25.73-0.06,38.54" style="fill:none;stroke:#999;stroke-width:3" />
<path d="M669.89,68.26c3.63,4.85,5.66,10.11,6.4,12.94" style="fill:none;stroke:#999;stroke-width:3" />
<path d="M698.21,63.55c0.04,0.95-0.13,2-0.42,2.61c-1.29,2.72-2.35,5.09-5.62,10.12" style="fill:none;stroke:black;stroke-width:3" />
<circle cx="698.21" cy="63.55" r="5" stroke-width="0" fill="#FF2A00" opacity="0.7" />
<path d="M794.0,15.49c0,0.78,0.05,1.4-0.15,2.33c-1.04,4.87-10.6,19.42-19.63,28.3" style="fill:none;stroke:#999;stroke-width:3" />
<path d="M796.12,22c4.83,1.79,9.02,5.25,11.38,9.75" style="fill:none;stroke:#999;stroke-width:3" />
<path d="M785.0,41.75c1.3,0.34,2.6,0.4,3.9,0.18c3.64-0.44,7.47-1.31,11.59-2.01c1.24-0.21,2.5-0.17,3.76-0.17" style="fill:none;stroke:#999;stroke-width:3" />
<path d="M778.0899999999999,56.56c2.42,0.53,4.86,0.59,7.32,0.19c5.38-0.73,12.31-1.97,17.84-2.88c1.74-0.41,3.63-0.62,5.27-0.39" style="fill:none;stroke:#999;stroke-width:3" />
<path d="M792.95,43.94c0.93,0.93,1.24,2.06,1.24,3.64c0,4.35-0.06,25.73-0.06,38.54" style="fill:none;stroke:#999;stroke-width:3" />
<path d="M778.89,68.26c3.63,4.85,5.66,10.11,6.4,12.94" style="fill:none;stroke:#999;stroke-width:3" />
<path d="M807.21,63.55c0.04,0.95-0.13,2-0.42,2.61c-1.29,2.72-2.35,5.09-5.62,10.12" style="fill:none;stroke:#999;stroke-width:3" />
<path d="M778.25,91.62c1.5,0.88,2.91,0.87,4.03,0.39c5.84-2.5,10.59-4.38,24.97-10.5" style="fill:none;stroke:black;stroke-width:3" />
<circle cx="778.25" cy="91.62" r="5" stroke-width="0" fill="#FF2A00" opacity="0.7" />
<path d="M903.0,15.49c0,0.78,0.05,1.4-0.15,2.33c-1.04,4.87-10.6,19.42-19.63,28.3" style="fill:none;stroke:#999;stroke-width:3" />
<path d="M905.12,22c4.83,1.79,9.02,5.25,11.38,9.75" style="fill:none;stroke:#999;stroke-width:3" />
<path d="M894.0,41.75c1.3,0.34,2.6,0.4,3.9,0.18c3.64-0.44,7.47-1.31,11.59-2.01c1.24-0.21,2.5-0.17,3.76-0.17" style="fill:none;stroke:#999;stroke-width:3" />
<path d="M887.0899999999999,56.56c2.42,0.53,4.86,0.59,7.32,0.19c5.38-0.73,12.31-1.97,17.84-2.88c1.74-0.41,3.63-0.62,5.27-0.39" style="fill:none;stroke:#999;stroke-width:3" />
<path d="M901.95,43.94c0.93,0.93,1.24,2.06,1.24,3.64c0,4.35-0.06,25.73-0.06,38.54" style="fill:none;stroke:#999;stroke-width:3" />
<path d="M887.89,68.26c3.63,4.85,5.66,10.11,6.4,12.94" style="fill:none;stroke:#999;stroke-width:3" />
<path d="M916.21,63.55c0.04,0.95-0.13,2-0.42,2.61c-1.29,2.72-2.35,5.09-5.62,10.12" style="fill:none;stroke:#999;stroke-width:3" />
<path d="M887.25,91.62c1.5,0.88,2.91,0.87,4.03,0.39c5.84-2.5,10.59-4.38,24.97-10.5" style="fill:none;stroke:#999;stroke-width:3" />
<path d="M924.11,24.89c2.28,0.46,4.58,0.53,6.89,0.19c6.61-0.75,18.44-2.35,24.38-3.05c2.08-0.42,4.17-0.46,6.26-0.11" style="fill:none;stroke:black;stroke-width:3" />
<circle cx="924.11" cy="24.89" r="5" stroke-width="0" fill="#FF2A00" opacity="0.7" />
<path d="M1012.0,15.49c0,0.78,0.05,1.4-0.15,2.33c-1.04,4.87-10.6,19.42-19.63,28.3" style="fill:none;stroke:#999;stroke-width:3" />
<path d="M1014.12,22c4.83,1.79,9.02,5.25,11.38,9.75" style="fill:none;stroke:#999;stroke-width:3" />
<path d="M1003.0,41.75c1.3,0.34,2.6,0.4,3.9,0.18c3.64-0.44,7.47-1.31,11.59-2.01c1.24-0.21,2.5-0.17,3.76-0.17" style="fill:none;stroke:#999;stroke-width:3" />
<path d="M996.0899999999999,56.56c2.42,0.53,4.86,0.59,7.32,0.19c5.38-0.73,12.31-1.97,17.84-2.88c1.74-0.41,3.63-0.62,5.27-0.39" style="fill:none;stroke:#999;stroke-width:3" />
<path d="M1010.95,43.94c0.93,0.93,1.24,2.06,1.24,3.64c0,4.35-0.06,25.73-0.06,38.54" style="fill:none;stroke:#999;stroke-width:3" />
<path d="M996.89,68.26c3.63,4.85,5.66,10.11,6.4,12.94" style="fill:none;stroke:#999;stroke-width:3" />
<path d="M1025.21,63.55c0.04,0.95-0.13,2-0.42,2.61c-1.29,2.72-2.35,5.09-5.62,10.12" style="fill:none;stroke:#999;stroke-width:3" />
<path d="M996.25,91.62c1.5,0.88,2.91,0.87,4.03,0.39c5.84-2.5,10.59-4.38,24.97-10.5" style="fill:none;stroke:#999;stroke-width:3" />
<path d="M1033.1100000000001,24.89c2.28,0.46,4.58,0.53,6.89,0.19c6.61-0.75,18.44-2.35,24.38-3.05c2.08-0.42,4.17-0.46,6.26-0.11" style="fill:none;stroke:#999;stroke-width:3" />
<path d="M1049.4,12.38c0.86,0.86,1.03,1.87,1.03,2.87c0,0.52-0.05,20.99-0.05,29.74" style="fill:none;stroke:black;stroke-width:3" />
<circle cx="1049.4" cy="12.38" r="5" stroke-width="0" fill="#FF2A00" opacity="0.7" />
<path d="M1121.0,15.49c0,0.78,0.05,1.4-0.15,2.33c-1.04,4.87-10.6,19.42-19.63,28.3" style="fill:none;stroke:#999;stroke-width:3" />
<path d="M1123.12,22c4.83,1.79,9.02,5.25,11.38,9.75" style="fill:none;stroke:#999;stroke-width:3" />
<path d="M1112.0,41.75c1.3,0.34,2.6,0.4,3.9,0.18c3.64-0.44,7.47-1.31,11.59-2.01c1.24-0.21,2.5-0.17,3.76-0.17" style="fill:none;stroke:#999;stroke-width:3" />
<path d="M1105.09,56.56c2.42,0.53,4.86,0.59,7.32,0.19c5.38-0.73,12.31-1.97,17.84-2.88c1.74-0.41,3.63-0.62,5.27-0.39" style="fill:none;stroke:#999;stroke-width:3" />
<path d="M1119.95,43.94c0.93,0.93,1.24,2.06,1.24,3.64c0,4.35-0.06,25.73-0.06,38.54" style="fill:none;stroke:#999;stroke-width:3" />
<path d="M1105.8899999999999,68.26c3.63,4.85,5.66,10.11,6.4,12.94" style="fill:none;stroke:#999;stroke-width:3" />
<path d="M1134.21,63.55c0.04,0.95-0.13,2-0.42,2.61c-1.29,2.72-2.35,5.09-5.62,10.12" style="fill:none;stroke:#999;stroke-width:3" />
<path d="M1105.25,91.62c1.5,0.88,2.91,0.87,4.03,0.39c5.84-2.5,10.59-4.38,24.97-10.5" style="fill:none;stroke:#999;stroke-width:3" />
<path d="M1142.1100000000001,24.89c2.28,0.46,4.58,0.53,6.89,0.19c6.61-0.75,18.44-2.35,24.38-3.05c2.08-0.42,4.17-0.46,6.26-0.11" style="fill:none;stroke:#999;stroke-width:3" />
<path d="M1158.4,12.38c0.86,0.86,1.03,1.87,1.03,2.87c0,0.52-0.05,20.99-0.05,29.74" style="fill:none;stroke:#999;stroke-width:3" />
<path d="M1142.77,36.27c2.68,0.18,5.34-0.14,7.98-0.51c7.25-1.01,14-2.01,19.5-2.55c2.52-0.25,4.96-0.6,7.45-0.23" style="fill:none;stroke:black;stroke-width:3" />
<circle cx="1142.77" cy="36.27" r="5" stroke-width="0" fill="#FF2A00" opacity="0.7" />
<path d="M1230.0,15.49c0,0.78,0.05,1.4-0.15,2.33c-1.04,4.87-10.6,19.42-19.63,28.3" style="fill:none;stroke:#999;stroke-width:3" />
<path d="M1232.12,22c4.83,1.79,9.02,5.25,11.38,9.75" style="fill:none;stroke:#999;stroke-width:3" />
<path d="M1221.0,41.75c1.3,0.34,2.6,0.4,3.9,0.18c3.64-0.44,7.47-1.31,11.59-2.01c1.24-0.21,2.5-0.17,3.76-0.17" style="fill:none;stroke:#999;stroke-width:3" />
<path d="M1214.09,56.56c2.42,0.53,4.86,0.59,7.32,0.19c5.38-0.73,12.31-1.97,17.84-2.88c1.74-0.41,3.63-0.62,5.27-0.39" style="fill:none;stroke:#999;stroke-width:3" />
<path d="M1228.95,43.94c0.93,0.93,1.24,2.06,1.24,3.64c0,4.35-0.06,25.73-0.06,38.54" style="fill:none;stroke:#999;stroke-width:3" />
<path d="M1214.8899999999999,68.26c3.63,4.85,5.66,10.11,6.4,12.94" style="fill:none;stroke:#999;stroke-width:3" />
<path d="M1243.21,63.55c0.04,0.95-0.13,2-0.42,2.61c-1.29,2.72-2.35,5.09-5.62,10.12" style="fill:none;stroke:#999;stroke-width:3" />
<path d="M1214.25,91.62c1.5,0.88,2.91,0.87,4.03,0.39c5.84-2.5,10.59-4.38,24.97-10.5" style="fill:none;stroke:#999;stroke-width:3" />
<path d="M1251.1100000000001,24.89c2.28,0.46,4.58,0.53,6.89,0.19c6.61-0.75,18.44-2.35,24.38-3.05c2.08-0.42,4.17-0.46,6.26-0.11" style="fill:none;stroke:#999;stroke-width:3" />
<path d="M1267.4,12.38c0.86,0.86,1.03,1.87,1.03,2.87c0,0.52-0.05,20.99-0.05,29.74" style="fill:none;stroke:#999;stroke-width:3" />
<path d="M1251.77,36.27c2.68,0.18,5.34-0.14,7.98-0.51c7.25-1.01,14-2.01,19.5-2.55c2.52-0.25,4.96-0.6,7.45-0.23" style="fill:none;stroke:#999;stroke-width:3" />
<path d="M1246.63,47.7c3.38,0.44,6.75,0.39,10.11-0.15c8.96-1.08,21.33-2.53,29.26-3.33c3.58-0.57,7.16-0.56,10.75,0.05" style="fill:none;stroke:black;stroke-width:3" />
<circle cx="1246.63" cy="47.7" r="5" stroke-width="0" fill="#FF2A00" opacity="0.7" />
<path d="M1339.0,15.49c0,0.78,0.05,1.4-0.15,2.33c-1.04,4.87-10.6,19.42-19.63,28.3" style="fill:none;stroke:#999;stroke-width:3" />
<path d="M1341.12,22c4.83,1.79,9.02,5.25,11.38,9.75" style="fill:none;stroke:#999;stroke-width:3" />
<path d="M1330.0,41.75c1.3,0.34,2.6,0.4,3.9,0.18c3.64-0.44,7.47-1.31,11.59-2.01c1.24-0.21,2.5-0.17,3.76-0.17" style="fill:none;stroke:#999;stroke-width:3" />
<path d="M1323.09,56.56c2.42,0.53,4.86,0.59,7.32,0.19c5.38-0.73,12.31-1.97,17.84-2.88c1.74-0.41,3.63-0.62,5.27-0.39" style="fill:none;stroke:#999;stroke-width:3" />
<path d="M1337.95,43.94c0.93,0.93,1.24,2.06,1.24,3.64c0,4.35-0.06,25.73-0.06,38.54" style="fill:none;stroke:#999;stroke-width:3" />
<path d="M1323.8899999999999,68.26c3.63,4.85,5.66,10.11,6.4,12.94" style="fill:none;stroke:#999;stroke-width:3" />
<path d="M1352.21,63.55c0.04,0.95-0.13,2-0.42,2.61c-1.29,2.72-2.35,5.09-5.62,10.12" style="fill:none;stroke:#999;stroke-width:3" />
<path d="M1323.25,91.62c1.5,0.88,2.91,0.87,4.03,0.39c5.84-2.5,10.59-4.38,24.97-10.5" style="fill:none;stroke:#999;stroke-width:3" />
<path d="M1360.1100000000001,24.89c2.28,0.46,4.58,0.53,6.89,0.19c6.61-0.75,18.44-2.35,24.38-3.05c2.08-0.42,4.17-0.46,6.26-0.11" style="fill:none;stroke:#999;stroke-width:3" />
<path d="M1376.4,12.38c0.86,0.86,1.03,1.87,1.03,2.87c0,0.52-0.05,20.99-0.05,29.74" style="fill:none;stroke:#999;stroke-width:3" />
<path d="M1360.77,36.27c2.68,0.18,5.34-0.14,7.98-0.51c7.25-1.01,14-2.01,19.5-2.55c2.52-0.25,4.96-0.6,7.45-0.23" style="fill:none;stroke:#999;stroke-width:3" />
<path d="M1355.63,47.7c3.38,0.44,6.75,0.39,10.11-0.15c8.96-1.08,21.33-2.53,29.26-3.33c3.58-0.57,7.16-0.56,10.75,0.05" style="fill:none;stroke:#999;stroke-width:3" />
<path d="M1364.15,54.97c1,1,0.94,2.03,0.94,3.29c0,3.85-0.04,16.41-0.06,28.87c0,2.91-0.01,5.82-0.01,8.61" style="fill:none;stroke:black;stroke-width:3" />
<circle cx="1364.15" cy="54.97" r="5" stroke-width="0" fill="#FF2A00" opacity="0.7" />
<path d="M1448.0,15.49c0,0.78,0.05,1.4-0.15,2.33c-1.04,4.87-10.6,19.42-19.63,28.3" style="fill:none;stroke:#999;stroke-width:3" />
<path d="M1450.12,22c4.83,1.79,9.02,5.25,11.38,9.75" style="fill:none;stroke:#999;stroke-width:3" />
<path d="M1439.0,41.75c1.3,0.34,2.6,0.4,3.9,0.18c3.64-0.44,7.47-1.31,11.59-2.01c1.24-0.21,2.5-0.17,3.76-0.17" style="fill:none;stroke:#999;stroke-width:3" />
<path d="M1432.09,56.56c2.42,0.53,4.86,0.59,7.32,0.19c5.38-0.73,12.31-1.97,17.84-2.88c1.74-0.41,3.63-0.62,5.27-0.39" style="fill:none;stroke:#999;stroke-width:3" />
<path d="M1446.95,43.94c0.93,0.93,1.24,2.06,1.24,3.64c0,4.35-0.06,25.73-0.06,38.54" style="fill:none;stroke:#999;stroke-width:3" />
<path d="M1432.8899999999999,68.26c3.63,4.85,5.66,10.11,6.4,12.94" style="fill:none;stroke:#999;stroke-width:3" />
<path d="M1461.21,63.55c0.04,0.95-0.13,2-0.42,2.61c-1.29,2.72-2.35,5.09-5.62,10.12" style="fill:none;stroke:#999;stroke-width:3" />
<path d="M1432.25,91.62c1.5,0.88,2.91,0.87,4.03,0.39c5.84-2.5,10.59-4.38,24.97-10.5" style="fill:none;stroke:#999;stroke-width:3" />
<path d="M1469.1100000000001,24.89c2.28,0.46,4.58,0.53,6.89,0.19c6.61-0.75,18.44-2.35,24.38-3.05c2.08-0.42,4.17-0.46,6.26-0.11" style="fill:none;stroke:#999;stroke-width:3" />
<path d="M1485.4,12.38c0.86,0.86,1.03,1.87,1.03,2.87c0,0.52-0.05,20.99-0.05,29.74" style="fill:none;stroke:#999;stroke-width:3" />
<path d="M1469.77,36.27c2.68,0.18,5.34-0.14,7.98-0.51c7.25-1.01,14-2.01,19.5-2.55c2.52-0.25,4.96-0.6,7.45-0.23" style="fill:none;stroke:#999;stroke-width:3" />
<path d="M1464.63,47.7c3.38,0.44,6.75,0.39,10.11-0.15c8.96-1.08,21.33-2.53,29.26-3.33c3.58-0.57,7.16-0.56,10.75,0.05" style="fill:none;stroke:#999;stroke-width:3" />
<path d="M1473.15,54.97c1,1,0.94,2.03,0.94,3.29c0,3.85-0.04,16.41-0.06,28.87c0,2.91-0.01,5.82-0.01,8.61" style="fill:none;stroke:#999;stroke-width:3" />
<path d="M1474.78,56.56c2.12-0.13,17.66-2.33,22.33-2.93c2.67-0.35,5.15,1.51,5.15,4.24c0,5.5-0.01,21.61-0.01,32.5c0,8.61-4.5,2.88-6.07,0.85" style="fill:none;stroke:black;stroke-width:3" />
<circle cx="1474.78" cy="56.56" r="5" stroke-width="0" fill="#FF2A00" opacity="0.7" />
<path d="M1557.0,15.49c0,0.78,0.05,1.4-0.15,2.33c-1.04,4.87-10.6,19.42-19.63,28.3" style="fill:none;stroke:#999;stroke-width:3" />
<path d="M1559.12,22c4.83,1.79,9.02,5.25,11.38,9.75" style="fill:none;stroke:#999;stroke-width:3" />
<path d="M1548.0,41.75c1.3,0.34,2.6,0.4,3.9,0.18c3.64-0.44,7.47-1.31,11.59-2.01c1.24-0.21,2.5-0.17,3.76-0.17" style="fill:none;stroke:#999;stroke-width:3" />
<path d="M1541.09,56.56c2.42,0.53,4.86,0.59,7.32,0.19c5.38-0.73,12.31-1.97,17.84-2.88c1.74-0.41,3.63-0.62,5.27-0.39" style="fill:none;stroke:#999;stroke-width:3" />
<path d="M1555.95,43.94c0.93,0.93,1.24,2.06,1.24,3.64c0,4.35-0.06,25.73-0.06,38.54" style="fill:none;stroke:#999;stroke-width:3" />
<path d="M1541.8899999999999,68.26c3.63,4.85,5.66,10.11,6.4,12.94" style="fill:none;stroke:#999;stroke-width:3" />
<path d="M1570.21,63.55c0.04,0.95-0.13,2-0.42,2.61c-1.29,2.72-2.35,5.09-5.62,10.12" style="fill:none;stroke:#999;stroke-width:3" />
<path d="M1541.25,91.62c1.5,0.88,2.91,0.87,4.03,0.39c5.84-2.5,10.59-4.38,24.97-10.5" style="fill:none;stroke:#999;stroke-width:3" />
<path d="M1578.1100000000001,24.89c2.28,0.46,4.58,0.53,6.89,0.19c6.61-0.75,18.44-2.35,24.38-3.05c2.08-0.42,4.17-0.46,6.26-0.11" style="fill:none;stroke:#999;stroke-width:3" />
<path d="M1594.4,12.38c0.86,0.86,1.03,1.87,1.03,2.87c0,0.52-0.05,20.99-0.05,29.74" style="fill:none;stroke:#999;stroke-width:3" />
<path d="M1578.77,36.27c2.68,0.18,5.34-0.14,7.98-0.51c7.25-1.01,14-2.01,19.5-2.55c2.52-0.25,4.96-0.6,7.45-0.23" style="fill:none;stroke:#999;stroke-width:3" />
<path d="M1573.63,47.7c3.38,0.44,6.75,0.39,10.11-0.15c8.96-1.08,21.33-2.53,29.26-3.33c3.58-0.57,7.16-0.56,10.75,0.05" style="fill:none;stroke:#999;stroke-width:3" />
<path d="M1582.15,54.97c1,1,0.94,2.03,0.94,3.29c0,3.85-0.04,16.41-0.06,28.87c0,2.91-0.01,5.82-0.01,8.61" style="fill:none;stroke:#999;stroke-width:3" />
<path d="M1583.78,56.56c2.12-0.13,17.66-2.33,22.33-2.93c2.67-0.35,5.15,1.51,5.15,4.24c0,5.5-0.01,21.61-0.01,32.5c0,8.61-4.5,2.88-6.07,0.85" style="fill:none;stroke:#999;stroke-width:3" />
<path d="M1584.28,66.78c8.09-0.9,16.72-2.28,25.85-2.68" style="fill:none;stroke:black;stroke-width:3" />
<circle cx="1584.28" cy="66.78" r="5" stroke-width="0" fill="#FF2A00" opacity="0.7" />
<path d="M1666.0,15.49c0,0.78,0.05,1.4-0.15,2.33c-1.04,4.87-10.6,19.42-19.63,28.3" style="fill:none;stroke:#999;stroke-width:3" />
<path d="M1668.12,22c4.83,1.79,9.02,5.25,11.38,9.75" style="fill:none;stroke:#999;stroke-width:3" />
<path d="M1657.0,41.75c1.3,0.34,2.6,0.4,3.9,0.18c3.64-0.44,7.47-1.31,11.59-2.01c1.24-0.21,2.5-0.17,3.76-0.17" style="fill:none;stroke:#999;stroke-width:3" />
<path d="M1650.09,56.56c2.42,0.53,4.86,0.59,7.32,0.19c5.38-0.73,12.31-1.97,17.84-2.88c1.74-0.41,3.63-0.62,5.27-0.39" style="fill:none;stroke:#999;stroke-width:3" />
<path d="M1664.95,43.94c0.93,0.93,1.24,2.06,1.24,3.64c0,4.35-0.06,25.73-0.06,38.54" style="fill:none;stroke:#999;stroke-width:3" />
<path d="M1650.8899999999999,68.26c3.63,4.85,5.66,10.11,6.4,12.94" style="fill:none;stroke:#999;stroke-width:3" />
<path d="M1679.21,63.55c0.04,0.95-0.13,2-0.42,2.61c-1.29,2.72-2.35,5.09-5.62,10.12" style="fill:none;stroke:#999;stroke-width:3" />
<path d="M1650.25,91.62c1.5,0.88,2.91,0.87,4.03,0.39c5.84-2.5,10.59-4.38,24.97-10.5" style="fill:none;stroke:#999;stroke-width:3" />
<path d="M1687.1100000000001,24.89c2.28,0.46,4.58,0.53,6.89,0.19c6.61-0.75,18.44-2.35,24.38-3.05c2.08-0.42,4.17-0.46,6.26-0.11" style="fill:none;stroke:#999;stroke-width:3" />
<path d="M1703.4,12.38c0.86,0.86,1.03,1.87,1.03,2.87c0,0.52-0.05,20.99-0.05,29.74" style="fill:none;stroke:#999;stroke-width:3" />
<path d="M1687.77,36.27c2.68,0.18,5.34-0.14,7.98-0.51c7.25-1.01,14-2.01,19.5-2.55c2.52-0.25,4.96-0.6,7.45-0.23" style="fill:none;stroke:#999;stroke-width:3" />
<path d="M1682.63,47.7c3.38,0.44,6.75,0.39,10.11-0.15c8.96-1.08,21.33-2.53,29.26-3.33c3.58-0.57,7.16-0.56,10.75,0.05" style="fill:none;stroke:#999;stroke-width:3" />
<path d="M1691.15,54.97c1,1,0.94,2.03,0.94,3.29c0,3.85-0.04,16.41-0.06,28.87c0,2.91-0.01,5.82-0.01,8.61" style="fill:none;stroke:#999;stroke-width:3" />
<path d="M1692.78,56.56c2.12-0.13,17.66-2.33,22.33-2.93c2.67-0.35,5.15,1.51,5.15,4.24c0,5.5-0.01,21.61-0.01,32.5c0,8.61-4.5,2.88-6.07,0.85" style="fill:none;stroke:#999;stroke-width:3" />
<path d="M1693.28,66.78c8.09-0.9,16.72-2.28,25.85-2.68" style="fill:none;stroke:#999;stroke-width:3" />
<path d="M1693.38,77.77c9.25-0.9,17.62-1.65,25.61-2.08" style="fill:none;stroke:black;stroke-width:3" />
<circle cx="1693.38" cy="77.77" r="5" stroke-width="0" fill="#FF2A00" opacity="0.7" />
</svg>