<svg width="1417px" height="109px" viewBox="0 0 1417px 109px" xmlns="http://www.w3.org/2000/svg" xmlns:xlink="http://www.w3.org/1999/xlink" xml:space="preserve" version="1.1"  baseProfile="full">
<line x1="1" y1="1" x2="1416" y2="1" style="stroke:#ddd;stroke-width:2" />
<line x1="1" y1="1" x2="1" y2="108" style="stroke:#ddd;stroke-width:2" />
<line x1="1" y1="108" x2="1416" y2="108" style="stroke:#ddd;stroke-width:2" />
<line x1="1416" y1="1" x2="1416" y2="108" style="stroke:#ddd;stroke-width:2" />
<line x1="109" y1="1" x2="109" y2="108" style="stroke:#ddd;stroke-width:2" />
<line x1="218" y1="1" x2="218" y2="108" style="stroke:#ddd;stroke-width:2" />
<line x1="327" y1="1" x2="327" y2="108" style="stroke:#ddd;stroke-width:2" />
<line x1="436" y1="1" x2="436" y2="108" style="stroke:#ddd;stroke-width:2" />
<line x1="545" y1="1" x2="545" y2="108" style="stroke:#ddd;stroke-width:2" />
<line x1="654" y1="1" x2="654" y2="108" style="stroke:#ddd;stroke-width:2" />
<line x1="763" y1="1" x2="763" y2="108" style="stroke:#ddd;stroke-width:2" />
<line x1="872" y1="1" x2="872" y2="108" style="stroke:#ddd;stroke-width:2" />
<line x1="981" y1="1" x2="981" y2="108" style="stroke:#ddd;stroke-width:2" />
<line x1="1090" y1="1" x2="1090" y2="108" style="stroke:#ddd;stroke-width:2" />
<line x1="1199" y1="1" x2="1199" y2="108" style="stroke:#ddd;stroke-width:2" />
<line x1="1308" y1="1" x2="1308" y2="108" style="stroke:#ddd;stroke-width:2" />
<line x1="1" y1="54" x2="1416" y2="54" style="stroke:#ddd;stroke-width:2;stroke-dasharray:3 3" />
<line x1="55" y1="1" x2="55" y2="108" style="stroke:#ddd;stroke-width:2;stroke-dasharray:3 3" />
<line x1="164" y1="1" x2="164" y2="108" style="stroke:#ddd;stroke-width:2;stroke-dasharray:3 3" />
<line x1="273" y1="1" x2="273" y2="108" style="stroke:#ddd;stroke-width:2;stroke-dasharray:3 3" />
<line x1="382" y1="1" x2="382" y2="108" style="stroke:#ddd;stroke-width:2;stroke-dasharray:3 3" />
<line x1="491" y1="1" x2="491" y2="108" style="stroke:#ddd;stroke-width:2;stroke-dasharray:3 3" />
<line x1="600" y1="1" x2="600" y2="108" style="stroke:#ddd;stroke-width:2;stroke-dasharray:3 3" />
<line x1="709" y1="1" x2="709" y2="108" style="stroke:#ddd;stroke-width:2;stroke-dasharray:3 3" />
<line x1="818" y1="1" x2="818" y2="108" style="stroke:#ddd;stroke-width:2;stroke-dasharray:3 3" />
<line x1="927" y1="1" x2="927" y2="108" style="stroke:#ddd;stroke-width:2;stroke-dasharray:3 3" />
<line x1="1036" y1="1" x2="1036" y2="108" style="stroke:#ddd;stroke-width:2;stroke-dasharray:3 3" />
<line x1="1145" y1="1" x2="1145" y2="108" style="stroke:#ddd;stroke-width:2;stroke-dasharray:3 3" />
<line x1="1254" y1="1" x2="1254" y2="108" style="stroke:#ddd;stroke-width:2;stroke-dasharray:3 3" />
<line x1="1363" y1="1" x2="1363" y2="108" style="stroke:#ddd;stroke-width:2;stroke-dasharray:3 3" />
<path d="M15.37,16.66c1.08,0.09,2.15,0.28,3.14,0.08c5.99-1.23,10.55-2.05,13.13-3.02c3.06-1.15,5.77,1,4.76,3.83c-1.15,3.21-6.63,17.71-9.01,21.55" style="fill:none;stroke:black;stroke-width:3" />
<circle cx="15.37" cy="16.66" r="5" stroke-width="0" fill="#FF2A00" opacity="0.7" />
<path d="M124.37,16.66c1.08,0.09,2.15,0.28,3.14,0.08c5.99-1.23,10.55-2.05,13.13-3.02c3.06-1.15,5.77,1,4.76,3.83c-1.15,3.21-6.63,17.71-9.01,21.55" style="fill:none;stroke:#999;stroke-width:3" />
<path d="M135.88,40.09c15.62,8.66,10.87,44.16-0.8,29.84" style="fill:none;stroke:black;stroke-width:3" />
<circle cx="135.88" cy="40.09" r="5" stroke-width="0" fill="#FF2A00" opacity="0.7" />
<path d="M233.37,16.66c1.08,0.09,2.15,0.28,3.14,0.08c5.99-1.23,10.55-2.05,13.13-3.02c3.06-1.15,5.77,1,4.76,3.83c-1.15,3.21-6.63,17.71-9.01,21.55" style="fill:none;stroke:#999;stroke-width:3" />
<path d="M244.88,40.09c15.62,8.66,10.87,44.16-0.8,29.84" style="fill:none;stroke:#999;stroke-width:3" />
<path d="M234.54,17.03c0.46,1.47,0.28,2.59,0.5,3.74c0.22,1.15,0,69.8-0.22,76.99" style="fill:none;stroke:black;stroke-width:3" />
<circle cx="234.54" cy="17.03" r="5" stroke-width="0" fill="#FF2A00" opacity="0.7" />
<path d="M342.37,16.66c1.08,0.09,2.15,0.28,3.14,0.08c5.99-1.23,10.55-2.05,13.13-3.02c3.06-1.15,5.77,1,4.76,3.83c-1.15,3.21-6.63,17.71-9.01,21.55" style="fill:none;stroke:#999;stroke-width:3" />
<path d="M353.88,40.09c15.62,8.66,10.87,44.16-0.8,29.84" style="fill:none;stroke:#999;stroke-width:3" />
<path d="M343.53999999999996,17.03c0.46,1.47,0.28,2.59,0.5,3.74c0.22,1.15,0,69.8-0.22,76.99" style="fill:none;stroke:#999;stroke-width:3" />
<path d="M391.47,11c0.02,0.3,0.09,0.87-0.05,1.21c-1.76,4.24-4.36,8.13-8.95,11.54" style="fill:none;stroke:black;stroke-width:3" />
<circle cx="391.47" cy="11.0" r="5" stroke-width="0" fill="#FF2A00" opacity="0.7" />
<path d="M451.37,16.66c1.08,0.09,2.15,0.28,3.14,0.08c5.99-1.23,10.55-2.05,13.13-3.02c3.06-1.15,5.77,1,4.76,3.83c-1.15,3.21-6.63,17.71-9.01,21.55" style="fill:none;stroke:#999;stroke-width:3" />
<path d="M462.88,40.09c15.62,8.66,10.87,44.16-0.8,29.84" style="fill:none;stroke:#999;stroke-width:3" />
<path d="M452.53999999999996,17.03c0.46,1.47,0.28,2.59,0.5,3.74c0.22,1.15,0,69.8-0.22,76.99" style="fill:none;stroke:#999;stroke-width:3" />
<path d="M500.47,11c0.02,0.3,0.09,0.87-0.05,1.21c-1.76,4.24-4.36,8.13-8.95,11.54" style="fill:none;stroke:#999;stroke-width:3" />
<path d="M479.75,24.77c0.28,0.57,0.28,0.95,0.44,1.65c1.24,5.77,2.77,17.54,3.5,28.15" style="fill:none;stroke:black;stroke-width:3" />
<circle cx="479.75" cy="24.77" r="5" stroke-width="0" fill="#FF2A00" opacity="0.7" />
<path d="M560.37,16.66c1.08,0.09,2.15,0.28,3.14,0.08c5.99-1.23,10.55-2.05,13.13-3.02c3.06-1.15,5.77,1,4.76,3.83c-1.15,3.21-6.63,17.71-9.01,21.55" style="fill:none;stroke:#999;stroke-width:3" />
<path d="M571.88,40.09c15.62,8.66,10.87,44.16-0.8,29.84" style="fill:none;stroke:#999;stroke-width:3" />
<path d="M561.54,17.03c0.46,1.47,0.28,2.59,0.5,3.74c0.22,1.15,0,69.8-0.22,76.99" style="fill:none;stroke:#999;stroke-width:3" />
<path d="M609.47,11c0.02,0.3,0.09,0.87-0.05,1.21c-1.76,4.24-4.36,8.13-8.95,11.54" style="fill:none;stroke:#999;stroke-width:3" />
<path d="M588.75,24.77c0.28,0.57,0.28,0.95,0.44,1.65c1.24,5.77,2.77,17.54,3.5,28.15" style="fill:none;stroke:#999;stroke-width:3" />
<path d="M590.07,25.74c10.69-0.59,31.84-2.24,39.82-2.82c2.93-0.21,4.13,1.68,3.82,4.12c-0.74,5.73-2.23,15.65-4.82,25.9" style="fill:none;stroke:black;stroke-width:3" />
<circle cx="590.07" cy="25.74" r="5" stroke-width="0" fill="#FF2A00" opacity="0.7" />
<path d="M669.37,16.66c1.08,0.09,2.15,0.28,3.14,0.08c5.99-1.23,10.55-2.05,13.13-3.02c3.06-1.15,5.77,1,4.76,3.83c-1.15,3.21-6.63,17.71-9.01,21.55" style="fill:none;stroke:#999;stroke-width:3" />
<path d="M680.88,40.09c15.62,8.66,10.87,44.16-0.8,29.84" style="fill:none;stroke:#999;stroke-width:3" />
<path d="M670.54,17.03c0.46,1.47,0.28,2.59,0.5,3.74c0.22,1.15,0,69.8-0.22,76.99" style="fill:none;stroke:#999;stroke-width:3" />
<path d="M718.47,11c0.02,0.3,0.09,0.87-0.05,1.21c-1.76,4.24-4.36,8.13-8.95,11.54" style="fill:none;stroke:#999;stroke-width:3" />
<path d="M697.75,24.77c0.28,0.57,0.28,0.95,0.44,1.65c1.24,5.77,2.77,17.54,3.5,28.15" style="fill:none;stroke:#999;stroke-width:3" />
<path d="M699.07,25.74c10.69-0.59,31.84-2.24,39.82-2.82c2.93-0.21,4.13,1.68,3.82,4.12c-0.74,5.73-2.23,15.65-4.82,25.9" style="fill:none;stroke:#999;stroke-width:3" />
<path d="M718.4300000000001,33.99c0.4,2.27,2.39,15.29,3.69,22.7c0.3,1.7,1.1,3.05,1.91,3.39" style="fill:none;stroke:black;stroke-width:3" />
<circle cx="718.4300000000001" cy="33.99" r="5" stroke-width="0" fill="#FF2A00" opacity="0.7" />
<path d="M778.37,16.66c1.08,0.09,2.15,0.28,3.14,0.08c5.99-1.23,10.55-2.05,13.13-3.02c3.06-1.15,5.77,1,4.76,3.83c-1.15,3.21-6.63,17.71-9.01,21.55" style="fill:none;stroke:#999;stroke-width:3" />
<path d="M789.88,40.09c15.62,8.66,10.87,44.16-0.8,29.84" style="fill:none;stroke:#999;stroke-width:3" />
<path d="M779.54,17.03c0.46,1.47,0.28,2.59,0.5,3.74c0.22,1.15,0,69.8-0.22,76.99" style="fill:none;stroke:#999;stroke-width:3" />
<path d="M827.47,11c0.02,0.3,0.09,0.87-0.05,1.21c-1.76,4.24-4.36,8.13-8.95,11.54" style="fill:none;stroke:#999;stroke-width:3" />
<path d="M806.75,24.77c0.28,0.57,0.28,0.95,0.44,1.65c1.24,5.77,2.77,17.54,3.5,28.15" style="fill:none;stroke:#999;stroke-width:3" />
<path d="M808.07,25.74c10.69-0.59,31.84-2.24,39.82-2.82c2.93-0.21,4.13,1.68,3.82,4.12c-0.74,5.73-2.23,15.65-4.82,25.9" style="fill:none;stroke:#999;stroke-width:3" />
<path d="M827.4300000000001,33.99c0.4,2.27,2.39,15.29,3.69,22.7c0.3,1.7,1.1,3.05,1.91,3.39" style="fill:none;stroke:#999;stroke-width:3" />
<path d="M809.48,38.17c3.48-0.28,35.41-1.56,40.28-2.15" style="fill:none;stroke:black;stroke-width:3" />
<circle cx="809.48" cy="38.17" r="5" stroke-width="0" fill="#FF2A00" opacity="0.7" />
<path d="M887.37,16.66c1.08,0.09,2.15,0.28,3.14,0.08c5.99-1.23,10.55-2.05,13.13-3.02c3.06-1.15,5.77,1,4.76,3.83c-1.15,3.21-6.63,17.71-9.01,21.55" style="fill:none;stroke:#999;stroke-width:3" />
<path d="M898.88,40.09c15.62,8.66,10.87,44.16-0.8,29.84" style="fill:none;stroke:#999;stroke-width:3" />
<path d="M888.54,17.03c0.46,1.47,0.28,2.59,0.5,3.74c0.22,1.15,0,69.8-0.22,76.99" style="fill:none;stroke:#999;stroke-width:3" />
<path d="M936.47,11c0.02,0.3,0.09,0.87-0.05,1.21c-1.76,4.24-4.36,8.13-8.95,11.54" style="fill:none;stroke:#999;stroke-width:3" />
<path d="M915.75,24.77c0.28,0.57,0.28,0.95,0.44,1.65c1.24,5.77,2.77,17.54,3.5,28.15" style="fill:none;stroke:#999;stroke-width:3" />
<path d="M917.07,25.74c10.69-0.59,31.84-2.24,39.82-2.82c2.93-0.21,4.13,1.68,3.82,4.12c-0.74,5.73-2.23,15.65-4.82,25.9" style="fill:none;stroke:#999;stroke-width:3" />
<path d="M936.4300000000001,33.99c0.4,2.27,2.39,15.29,3.69,22.7c0.3,1.7,1.1,3.05,1.91,3.39" style="fill:none;stroke:#999;stroke-width:3" />
<path d="M918.48,38.17c3.48-0.28,35.41-1.56,40.28-2.15" style="fill:none;stroke:#999;stroke-width:3" />
<path d="M920.47,53.05c13.03-0.55,21.28-1.3,34.51-2.12" style="fill:none;stroke:black;stroke-width:3" />
<circle cx="920.47" cy="53.05" r="5" stroke-width="0" fill="#FF2A00" opacity="0.7" />
<path d="M996.37,16.66c1.08,0.09,2.15,0.28,3.14,0.08c5.99-1.23,10.55-2.05,13.13-3.02c3.06-1.15,5.77,1,4.76,3.83c-1.15,3.21-6.63,17.71-9.01,21.55" style="fill:none;stroke:#999;stroke-width:3" />
<path d="M1007.88,40.09c15.62,8.66,10.87,44.16-0.8,29.84" style="fill:none;stroke:#999;stroke-width:3" />
<path d="M997.54,17.03c0.46,1.47,0.28,2.59,0.5,3.74c0.22,1.15,0,69.8-0.22,76.99" style="fill:none;stroke:#999;stroke-width:3" />
<path d="M1045.47,11c0.02,0.3,0.09,0.87-0.05,1.21c-1.76,4.24-4.36,8.13-8.95,11.54" style="fill:none;stroke:#999;stroke-width:3" />
<path d="M1024.75,24.77c0.28,0.57,0.28,0.95,0.44,1.65c1.24,5.77,2.77,17.54,3.5,28.15" style="fill:none;stroke:#999;stroke-width:3" />
<path d="M1026.0700000000002,25.74c10.69-0.59,31.84-2.24,39.82-2.82c2.93-0.21,4.13,1.68,3.82,4.12c-0.74,5.73-2.23,15.65-4.82,25.9" style="fill:none;stroke:#999;stroke-width:3" />
<path d="M1045.43,33.99c0.4,2.27,2.39,15.29,3.69,22.7c0.3,1.7,1.1,3.05,1.91,3.39" style="fill:none;stroke:#999;stroke-width:3" />
<path d="M1027.48,38.17c3.48-0.28,35.41-1.56,40.28-2.15" style="fill:none;stroke:#999;stroke-width:3" />
<path d="M1029.47,53.05c13.03-0.55,21.28-1.3,34.51-2.12" style="fill:none;stroke:#999;stroke-width:3" />
<path d="M1037.09,55.75c0.24,0.83,0.74,2.49,0.35,3.81C1034.72,68.73,1027.3,86.13,1015.0,96" style="fill:none;stroke:black;stroke-width:3" />
<circle cx="1037.09" cy="55.75" r="5" stroke-width="0" fill="#FF2A00" opacity="0.7" />
<path d="M1105.37,16.66c1.08,0.09,2.15,0.28,3.14,0.08c5.99-1.23,10.55-2.05,13.13-3.02c3.06-1.15,5.77,1,4.76,3.83c-1.15,3.21-6.63,17.71-9.01,21.55" style="fill:none;stroke:#999;stroke-width:3" />
<path d="M1116.88,40.09c15.62,8.66,10.87,44.16-0.8,29.84" style="fill:none;stroke:#999;stroke-width:3" />
<path d="M1106.54,17.03c0.46,1.47,0.28,2.59,0.5,3.74c0.22,1.15,0,69.8-0.22,76.99" style="fill:none;stroke:#999;stroke-width:3" />
<path d="M1154.47,11c0.02,0.3,0.09,0.87-0.05,1.21c-1.76,4.24-4.36,8.13-8.95,11.54" style="fill:none;stroke:#999;stroke-width:3" />
<path d="M1133.75,24.77c0.28,0.57,0.28,0.95,0.44,1.65c1.24,5.77,2.77,17.54,3.5,28.15" style="fill:none;stroke:#999;stroke-width:3" />
<path d="M1135.0700000000002,25.74c10.69-0.59,31.84-2.24,39.82-2.82c2.93-0.21,4.13,1.68,3.82,4.12c-0.74,5.73-2.23,15.65-4.82,25.9" style="fill:none;stroke:#999;stroke-width:3" />
<path d="M1154.43,33.99c0.4,2.27,2.39,15.29,3.69,22.7c0.3,1.7,1.1,3.05,1.91,3.39" style="fill:none;stroke:#999;stroke-width:3" />
<path d="M1136.48,38.17c3.48-0.28,35.41-1.56,40.28-2.15" style="fill:none;stroke:#999;stroke-width:3" />
<path d="M1138.47,53.05c13.03-0.55,21.28-1.3,34.51-2.12" style="fill:none;stroke:#999;stroke-width:3" />
<path d="M1146.09,55.75c0.24,0.83,0.74,2.49,0.35,3.81C1143.72,68.73,1136.3,86.13,1124.0,96" style="fill:none;stroke:#999;stroke-width:3" />
<path d="M1155.91,54.37c0.76,1.22,1.36,2.67,1.41,4.56c0.2,8.44,0.04,13.93-0.34,25.37c-0.38,11.44,1.78,11.65,14.63,11.65c14.64,0,15.64-0.45,15.64-9.22" style="fill:none;stroke:black;stroke-width:3" />
<circle cx="1155.91" cy="54.37" r="5" stroke-width="0" fill="#FF2A00" opacity="0.7" />
<path d="M1214.37,16.66c1.08,0.09,2.15,0.28,3.14,0.08c5.99-1.23,10.55-2.05,13.13-3.02c3.06-1.15,5.77,1,4.76,3.83c-1.15,3.21-6.63,17.71-9.01,21.55" style="fill:none;stroke:#999;stroke-width:3" />
<path d="M1225.88,40.09c15.62,8.66,10.87,44.16-0.8,29.84" style="fill:none;stroke:#999;stroke-width:3" />
<path d="M1215.54,17.03c0.46,1.47,0.28,2.59,0.5,3.74c0.22,1.15,0,69.8-0.22,76.99" style="fill:none;stroke:#999;stroke-width:3" />
<path d="M1263.47,11c0.02,0.3,0.09,0.87-0.05,1.21c-1.76,4.24-4.36,8.13-8.95,11.54" style="fill:none;stroke:#999;stroke-width:3" />
<path d="M1242.75,24.77c0.28,0.57,0.28,0.95,0.44,1.65c1.24,5.77,2.77,17.54,3.5,28.15" style="fill:none;stroke:#999;stroke-width:3" />
<path d="M1244.0700000000002,25.74c10.69-0.59,31.84-2.24,39.82-2.82c2.93-0.21,4.13,1.68,3.82,4.12c-0.74,5.73-2.23,15.65-4.82,25.9" style="fill:none;stroke:#999;stroke-width:3" />
<path d="M1263.43,33.99c0.4,2.27,2.39,15.29,3.69,22.7c0.3,1.7,1.1,3.05,1.91,3.39" style="fill:none;stroke:#999;stroke-width:3" />
<path d="M1245.48,38.17c3.48-0.28,35.41-1.56,40.28-2.15" style="fill:none;stroke:#999;stroke-width:3" />
<path d="M1247.47,53.05c13.03-0.55,21.28-1.3,34.51-2.12" style="fill:none;stroke:#999;stroke-width:3" />
<path d="M1255.09,55.75c0.24,0.83,0.74,2.49,0.35,3.81C1252.72,68.73,1245.3,86.13,1233.0,96" style="fill:none;stroke:#999;stroke-width:3" />
<path d="M1264.91,54.37c0.76,1.22,1.36,2.67,1.41,4.56c0.2,8.44,0.04,13.93-0.34,25.37c-0.38,11.44,1.78,11.65,14.63,11.65c14.64,0,15.64-0.45,15.64-9.22" style="fill:none;stroke:#999;stroke-width:3" />
<path d="M1279.96,59.16c0.23,0.43,0.14,2.39-0.07,2.93c-1.98,4.82-3.98,9.22-7.12,14.13c-0.99,1.56,0.08,3.12,1.49,2.58c4.91-1.86,8.05-3.16,12.82-5.1" style="fill:none;stroke:black;stroke-width:3" />
<circle cx="1279.96" cy="59.16" r="5" stroke-width="0" fill="#FF2A00" opacity="0.7" />
<path d="M1323.37,16.66c1.08,0.09,2.15,0.28,3.14,0.08c5.99-1.23,10.55-2.05,13.13-3.02c3.06-1.15,5.77,1,4.76,3.83c-1.15,3.21-6.63,17.71-9.01,21.55" style="fill:none;stroke:#999;stroke-width:3" />
<path d="M1334.88,40.09c15.62,8.66,10.87,44.16-0.8,29.84" style="fill:none;stroke:#999;stroke-width:3" />
<path d="M1324.54,17.03c0.46,1.47,0.28,2.59,0.5,3.74c0.22,1.15,0,69.8-0.22,76.99" style="fill:none;stroke:#999;stroke-width:3" />
<path d="M1372.47,11c0.02,0.3,0.09,0.87-0.05,1.21c-1.76,4.24-4.36,8.13-8.95,11.54" style="fill:none;stroke:#999;stroke-width:3" />
<path d="M1351.75,24.77c0.28,0.57,0.28,0.95,0.44,1.65c1.24,5.77,2.77,17.54,3.5,28.15" style="fill:none;stroke:#999;stroke-width:3" />
<path d="M1353.0700000000002,25.74c10.69-0.59,31.84-2.24,39.82-2.82c2.93-0.21,4.13,1.68,3.82,4.12c-0.74,5.73-2.23,15.65-4.82,25.9" style="fill:none;stroke:#999;stroke-width:3" />
<path d="M1372.43,33.99c0.4,2.27,2.39,15.29,3.69,22.7c0.3,1.7,1.1,3.05,1.91,3.39" style="fill:none;stroke:#999;stroke-width:3" />
<path d="M1354.48,38.17c3.48-0.28,35.41-1.56,40.28-2.15" style="fill:none;stroke:#999;stroke-width:3" />
<path d="M1356.47,53.05c13.03-0.55,21.28-1.3,34.51-2.12" style="fill:none;stroke:#999;stroke-width:3" />
<path d="M1364.09,55.75c0.24,0.83,0.74,2.49,0.35,3.81C1361.72,68.73,1354.3,86.13,1342.0,96" style="fill:none;stroke:#999;stroke-width:3" />
<path d="M1373.91,54.37c0.76,1.22,1.36,2.67,1.41,4.56c0.2,8.44,0.04,13.93-0.34,25.37c-0.38,11.44,1.78,11.65,14.63,11.65c14.64,0,15.64-0.45,15.64-9.22" style="fill:none;stroke:#999;stroke-width:3" />
<path d="M1388.96,59.16c0.23,0.43,0.14,2.39-0.07,2.93c-1.98,4.82-3.98,9.22-7.12,14.13c-0.99,1.56,0.08,3.12,1.49,2.58c4.91-1.86,8.05-3.16,12.82-5.1" style="fill:none;stroke:#999;stroke-width:3" />
<path d="M1393.14,67.16c1.69,2.27,5.39,11.25,5.81,14.79" style="fill:none;stroke:black;stroke-width:3" />
<circle cx="1393.14" cy="67.16" r="5" stroke-width="0" fill="#FF2A00" opacity="0.7" />
</svg>