<svg width="1417px" height="109px" viewBox="0 0 1417px 109px" xmlns="http://www.w3.org/2000/svg" xmlns:xlink="http://www.w3.org/1999/xlink" xml:space="preserve" version="1.1"  baseProfile="full">
<line x1="1" y1="1" x2="1416" y2="1" style="stroke:#ddd;stroke-width:2" />
<line x1="1" y1="1" x2="1" y2="108" style="stroke:#ddd;stroke-width:2" />
<line x1="1" y1="108" x2="1416" y2="108" style="stroke:#ddd;stroke-width:2" />
<line x1="1416" y1="1" x2="1416" y2="108" style="stroke:#ddd;stroke-width:2" />
<line x1="109" y1="1" x2="109" y2="108" style="stroke:#ddd;stroke-width:2" />
<line x1="218" y1="1" x2="218" y2="108" style="stroke:#ddd;stroke-width:2" />
<line x1="327" y1="1" x2="327" y2="108" style="stroke:#ddd;stroke-width:2" />
<line x1="436" y1="1" x2="436" y2="108" style="stroke:#ddd;stroke-width:2" />
<line x1="545" y1="1" x2="545" y2="108" style="stroke:#ddd;stroke-width:2" />
<line x1="654" y1="1" x2="654" y2="108" style="stroke:#ddd;stroke-width:2" />
<line x1="763" y1="1" x2="763" y2="108" style="stroke:#ddd;stroke-width:2" />
<line x1="872" y1="1" x2="872" y2="108" style="stroke:#ddd;stroke-width:2" />
<line x1="981" y1="1" x2="981" y2="108" style="stroke:#ddd;stroke-width:2" />
<line x1="1090" y1="1" x2="1090" y2="108" style="stroke:#ddd;stroke-width:2" />
<line x1="1199" y1="1" x2="1199" y2="108" style="stroke:#ddd;stroke-width:2" />
<line x1="1308" y1="1" x2="1308" y2="108" style="stroke:#ddd;stroke-width:2" />
<line x1="1" y1="54" x2="1416" y2="54" style="stroke:#ddd;stroke-width:2;stroke-dasharray:3 3" />
<line x1="55" y1="1" x2="55" y2="108" style="stroke:#ddd;stroke-width:2;stroke-dasharray:3 3" />
<line x1="164" y1="1" x2="164" y2="108" style="stroke:#ddd;stroke-width:2;stroke-dasharray:3 3" />
<line x1="273" y1="1" x2="273" y2="108" style="stroke:#ddd;stroke-width:2;stroke-dasharray:3 3" />
<line x1="382" y1="1" x2="382" y2="108" style="stroke:#ddd;stroke-width:2;stroke-dasharray:3 3" />
<line x1="491" y1="1" x2="491" y2="108" style="stroke:#ddd;stroke-width:2;stroke-dasharray:3 3" />
<line x1="600" y1="1" x2="600" y2="108" style="stroke:#ddd;stroke-width:2;stroke-dasharray:3 3" />
<line x1="709" y1="1" x2="709" y2="108" style="stroke:#ddd;stroke-width:2;stroke-dasharray:3 3" />
<line x1="818" y1="1" x2="818" y2="108" style="stroke:#ddd;stroke-width:2;stroke-dasharray:3 3" />
<line x1="927" y1="1" x2="927" y2="108" style="stroke:#ddd;stroke-width:2;stroke-dasharray:3 3" />
<line x1="1036" y1="1" x2="1036" y2="108" style="stroke:#ddd;stroke-width:2;stroke-dasharray:3 3" />
<line x1="1145" y1="1" x2="1145" y2="108" style="stroke:#ddd;stroke-width:2;stroke-dasharray:3 3" />
<line x1="1254" y1="1" x2="1254" y2="108" style="stroke:#ddd;stroke-width:2;stroke-dasharray:3 3" />
<line x1="1363" y1="1" x2="1363" y2="108" style="stroke:#ddd;stroke-width:2;stroke-dasharray:3 3" />
<path d="M29.48,13.46c1.17,0.47,1.87,1.92,1.84,3.04c-0.12,4.27-0.22,8.68-0.09,12.3" style="fill:none;stroke:black;stroke-width:3" />
<circle cx="29.48" cy="13.46" r="5" stroke-width="0" fill="#FF2A00" opacity="0.7" />
<path d="M138.48,13.46c1.17,0.47,1.87,1.92,1.84,3.04c-0.12,4.27-0.22,8.68-0.09,12.3" style="fill:none;stroke:#999;stroke-width:3" />
<path d="M121.14,30.67c0.89,0.1,2.92,0.12,3.8,0.04c7.56-0.7,17.29-2.13,27.57-2.67c1.48-0.08,2.35-0.18,3.09-0.16" style="fill:none;stroke:black;stroke-width:3" />
<circle cx="121.14" cy="30.67" r="5" stroke-width="0" fill="#FF2A00" opacity="0.7" />
<path d="M247.48,13.46c1.17,0.47,1.87,1.92,1.84,3.04c-0.12,4.27-0.22,8.68-0.09,12.3" style="fill:none;stroke:#999;stroke-width:3" />
<path d="M230.14,30.67c0.89,0.1,2.92,0.12,3.8,0.04c7.56-0.7,17.29-2.13,27.57-2.67c1.48-0.08,2.35-0.18,3.09-0.16" style="fill:none;stroke:#999;stroke-width:3" />
<path d="M236.86,33.89c2.35,2.49,4.55,9.76,5.09,12.56" style="fill:none;stroke:black;stroke-width:3" />
<circle cx="236.86" cy="33.89" r="5" stroke-width="0" fill="#FF2A00" opacity="0.7" />
<path d="M356.48,13.46c1.17,0.47,1.87,1.92,1.84,3.04c-0.12,4.27-0.22,8.68-0.09,12.3" style="fill:none;stroke:#999;stroke-width:3" />
<path d="M339.14,30.67c0.89,0.1,2.92,0.12,3.8,0.04c7.56-0.7,17.29-2.13,27.57-2.67c1.48-0.08,2.35-0.18,3.09-0.16" style="fill:none;stroke:#999;stroke-width:3" />
<path d="M345.86,33.89c2.35,2.49,4.55,9.76,5.09,12.56" style="fill:none;stroke:#999;stroke-width:3" />
<path d="M367.69,30.86C368.0,31.75,368.40999999999997,33,368.3,33.38c-1.07,3.84-2.73,8.54-4.44,11.59" style="fill:none;stroke:black;stroke-width:3" />
<circle cx="367.69" cy="30.86" r="5" stroke-width="0" fill="#FF2A00" opacity="0.7" />
<path d="M465.48,13.46c1.17,0.47,1.87,1.92,1.84,3.04c-0.12,4.27-0.22,8.68-0.09,12.3" style="fill:none;stroke:#999;stroke-width:3" />
<path d="M448.14,30.67c0.89,0.1,2.92,0.12,3.8,0.04c7.56-0.7,17.29-2.13,27.57-2.67c1.48-0.08,2.35-0.18,3.09-0.16" style="fill:none;stroke:#999;stroke-width:3" />
<path d="M454.86,33.89c2.35,2.49,4.55,9.76,5.09,12.56" style="fill:none;stroke:#999;stroke-width:3" />
<path d="M476.69,30.86C477.0,31.75,477.40999999999997,33,477.3,33.38c-1.07,3.84-2.73,8.54-4.44,11.59" style="fill:none;stroke:#999;stroke-width:3" />
<path d="M445.88,50.75c1.12,0.25,2.51,0.41,3.63,0.39c6.65-0.13,20.28-2.63,31.17-3.15c1.45-0.1,3.07,0,3.95,0.49" style="fill:none;stroke:black;stroke-width:3" />
<circle cx="445.88" cy="50.75" r="5" stroke-width="0" fill="#FF2A00" opacity="0.7" />
<path d="M574.48,13.46c1.17,0.47,1.87,1.92,1.84,3.04c-0.12,4.27-0.22,8.68-0.09,12.3" style="fill:none;stroke:#999;stroke-width:3" />
<path d="M557.14,30.67c0.89,0.1,2.92,0.12,3.8,0.04c7.56-0.7,17.29-2.13,27.57-2.67c1.48-0.08,2.35-0.18,3.09-0.16" style="fill:none;stroke:#999;stroke-width:3" />
<path d="M563.86,33.89c2.35,2.49,4.55,9.76,5.09,12.56" style="fill:none;stroke:#999;stroke-width:3" />
<path d="M585.69,30.86C586.0,31.75,586.41,33,586.3,33.38c-1.07,3.84-2.73,8.54-4.44,11.59" style="fill:none;stroke:#999;stroke-width:3" />
<path d="M554.88,50.75c1.12,0.25,2.51,0.41,3.63,0.39c6.65-0.13,20.28-2.63,31.17-3.15c1.45-0.1,3.07,0,3.95,0.49" style="fill:none;stroke:#999;stroke-width:3" />
<path d="M561.2,61.35c0.45,0.78,0.82,1.38,1.01,2.43c0.82,4.63,2.73,29.68,2.73,30.76" style="fill:none;stroke:black;stroke-width:3" />
<circle cx="561.2" cy="61.35" r="5" stroke-width="0" fill="#FF2A00" opacity="0.7" />
<path d="M683.48,13.46c1.17,0.47,1.87,1.92,1.84,3.04c-0.12,4.27-0.22,8.68-0.09,12.3" style="fill:none;stroke:#999;stroke-width:3" />
<path d="M666.14,30.67c0.89,0.1,2.92,0.12,3.8,0.04c7.56-0.7,17.29-2.13,27.57-2.67c1.48-0.08,2.35-0.18,3.09-0.16" style="fill:none;stroke:#999;stroke-width:3" />
<path d="M672.86,33.89c2.35,2.49,4.55,9.76,5.09,12.56" style="fill:none;stroke:#999;stroke-width:3" />
<path d="M694.69,30.86C695.0,31.75,695.41,33,695.3,33.38c-1.07,3.84-2.73,8.54-4.44,11.59" style="fill:none;stroke:#999;stroke-width:3" />
<path d="M663.88,50.75c1.12,0.25,2.51,0.41,3.63,0.39c6.65-0.13,20.28-2.63,31.17-3.15c1.45-0.1,3.07,0,3.95,0.49" style="fill:none;stroke:#999;stroke-width:3" />
<path d="M670.2,61.35c0.45,0.78,0.82,1.38,1.01,2.43c0.82,4.63,2.73,29.68,2.73,30.76" style="fill:none;stroke:#999;stroke-width:3" />
<path d="M672.52,62.76c2.57-0.27,19.23-2.01,23.38-2.43c2.35-0.24,3.33,0.93,3.33,2.76c0,3.06-2.79,28.4-3.18,29.72" style="fill:none;stroke:black;stroke-width:3" />
<circle cx="672.52" cy="62.76" r="5" stroke-width="0" fill="#FF2A00" opacity="0.7" />
<path d="M792.48,13.46c1.17,0.47,1.87,1.92,1.84,3.04c-0.12,4.27-0.22,8.68-0.09,12.3" style="fill:none;stroke:#999;stroke-width:3" />
<path d="M775.14,30.67c0.89,0.1,2.92,0.12,3.8,0.04c7.56-0.7,17.29-2.13,27.57-2.67c1.48-0.08,2.35-0.18,3.09-0.16" style="fill:none;stroke:#999;stroke-width:3" />
<path d="M781.86,33.89c2.35,2.49,4.55,9.76,5.09,12.56" style="fill:none;stroke:#999;stroke-width:3" />
<path d="M803.69,30.86C804.0,31.75,804.41,33,804.3,33.38c-1.07,3.84-2.73,8.54-4.44,11.59" style="fill:none;stroke:#999;stroke-width:3" />
<path d="M772.88,50.75c1.12,0.25,2.51,0.41,3.63,0.39c6.65-0.13,20.28-2.63,31.17-3.15c1.45-0.1,3.07,0,3.95,0.49" style="fill:none;stroke:#999;stroke-width:3" />
<path d="M779.2,61.35c0.45,0.78,0.82,1.38,1.01,2.43c0.82,4.63,2.73,29.68,2.73,30.76" style="fill:none;stroke:#999;stroke-width:3" />
<path d="M781.52,62.76c2.57-0.27,19.23-2.01,23.38-2.43c2.35-0.24,3.33,0.93,3.33,2.76c0,3.06-2.79,28.4-3.18,29.72" style="fill:none;stroke:#999;stroke-width:3" />
<path d="M782.03,76.63c7.22-0.63,20.41-1.68,24.34-1.9" style="fill:none;stroke:black;stroke-width:3" />
<circle cx="782.03" cy="76.63" r="5" stroke-width="0" fill="#FF2A00" opacity="0.7" />
<path d="M901.48,13.46c1.17,0.47,1.87,1.92,1.84,3.04c-0.12,4.27-0.22,8.68-0.09,12.3" style="fill:none;stroke:#999;stroke-width:3" />
<path d="M884.14,30.67c0.89,0.1,2.92,0.12,3.8,0.04c7.56-0.7,17.29-2.13,27.57-2.67c1.48-0.08,2.35-0.18,3.09-0.16" style="fill:none;stroke:#999;stroke-width:3" />
<path d="M890.86,33.89c2.35,2.49,4.55,9.76,5.09,12.56" style="fill:none;stroke:#999;stroke-width:3" />
<path d="M912.69,30.86C913.0,31.75,913.41,33,913.3,33.38c-1.07,3.84-2.73,8.54-4.44,11.59" style="fill:none;stroke:#999;stroke-width:3" />
<path d="M881.88,50.75c1.12,0.25,2.51,0.41,3.63,0.39c6.65-0.13,20.28-2.63,31.17-3.15c1.45-0.1,3.07,0,3.95,0.49" style="fill:none;stroke:#999;stroke-width:3" />
<path d="M888.2,61.35c0.45,0.78,0.82,1.38,1.01,2.43c0.82,4.63,2.73,29.68,2.73,30.76" style="fill:none;stroke:#999;stroke-width:3" />
<path d="M890.52,62.76c2.57-0.27,19.23-2.01,23.38-2.43c2.35-0.24,3.33,0.93,3.33,2.76c0,3.06-2.79,28.4-3.18,29.72" style="fill:none;stroke:#999;stroke-width:3" />
<path d="M891.03,76.63c7.22-0.63,20.41-1.68,24.34-1.9" style="fill:none;stroke:#999;stroke-width:3" />
<path d="M892.81,93.15c5.14-0.28,14.01-1.11,20.66-1.48" style="fill:none;stroke:black;stroke-width:3" />
<circle cx="892.81" cy="93.15" r="5" stroke-width="0" fill="#FF2A00" opacity="0.7" />
<path d="M1010.48,13.46c1.17,0.47,1.87,1.92,1.84,3.04c-0.12,4.27-0.22,8.68-0.09,12.3" style="fill:none;stroke:#999;stroke-width:3" />
<path d="M993.14,30.67c0.89,0.1,2.92,0.12,3.8,0.04c7.56-0.7,17.29-2.13,27.57-2.67c1.48-0.08,2.35-0.18,3.09-0.16" style="fill:none;stroke:#999;stroke-width:3" />
<path d="M999.86,33.89c2.35,2.49,4.55,9.76,5.09,12.56" style="fill:none;stroke:#999;stroke-width:3" />
<path d="M1021.69,30.86C1022.0,31.75,1022.41,33,1022.3,33.38c-1.07,3.84-2.73,8.54-4.44,11.59" style="fill:none;stroke:#999;stroke-width:3" />
<path d="M990.88,50.75c1.12,0.25,2.51,0.41,3.63,0.39c6.65-0.13,20.28-2.63,31.17-3.15c1.45-0.1,3.07,0,3.95,0.49" style="fill:none;stroke:#999;stroke-width:3" />
<path d="M997.2,61.35c0.45,0.78,0.82,1.38,1.01,2.43c0.82,4.63,2.73,29.68,2.73,30.76" style="fill:none;stroke:#999;stroke-width:3" />
<path d="M999.52,62.76c2.57-0.27,19.23-2.01,23.38-2.43c2.35-0.24,3.33,0.93,3.33,2.76c0,3.06-2.79,28.4-3.18,29.72" style="fill:none;stroke:#999;stroke-width:3" />
<path d="M1000.03,76.63c7.22-0.63,20.41-1.68,24.34-1.9" style="fill:none;stroke:#999;stroke-width:3" />
<path d="M1001.81,93.15c5.14-0.28,14.01-1.11,20.66-1.48" style="fill:none;stroke:#999;stroke-width:3" />
<path d="M1046.8,14.75c0.04,0.79,0.07,2.04-0.07,3.18c-0.86,6.71-5.76,21.43-12.48,30.45" style="fill:none;stroke:black;stroke-width:3" />
<circle cx="1046.8" cy="14.75" r="5" stroke-width="0" fill="#FF2A00" opacity="0.7" />
<path d="M1119.48,13.46c1.17,0.47,1.87,1.92,1.84,3.04c-0.12,4.27-0.22,8.68-0.09,12.3" style="fill:none;stroke:#999;stroke-width:3" />
<path d="M1102.1399999999999,30.67c0.89,0.1,2.92,0.12,3.8,0.04c7.56-0.7,17.29-2.13,27.57-2.67c1.48-0.08,2.35-0.18,3.09-0.16" style="fill:none;stroke:#999;stroke-width:3" />
<path d="M1108.8600000000001,33.89c2.35,2.49,4.55,9.76,5.09,12.56" style="fill:none;stroke:#999;stroke-width:3" />
<path d="M1130.69,30.86C1131.0,31.75,1131.4099999999999,33,1131.3,33.38c-1.07,3.84-2.73,8.54-4.44,11.59" style="fill:none;stroke:#999;stroke-width:3" />
<path d="M1099.88,50.75c1.12,0.25,2.51,0.41,3.63,0.39c6.65-0.13,20.28-2.63,31.17-3.15c1.45-0.1,3.07,0,3.95,0.49" style="fill:none;stroke:#999;stroke-width:3" />
<path d="M1106.2,61.35c0.45,0.78,0.82,1.38,1.01,2.43c0.82,4.63,2.73,29.68,2.73,30.76" style="fill:none;stroke:#999;stroke-width:3" />
<path d="M1108.52,62.76c2.57-0.27,19.23-2.01,23.38-2.43c2.35-0.24,3.33,0.93,3.33,2.76c0,3.06-2.79,28.4-3.18,29.72" style="fill:none;stroke:#999;stroke-width:3" />
<path d="M1109.03,76.63c7.22-0.63,20.41-1.68,24.34-1.9" style="fill:none;stroke:#999;stroke-width:3" />
<path d="M1110.81,93.15c5.14-0.28,14.01-1.11,20.66-1.48" style="fill:none;stroke:#999;stroke-width:3" />
<path d="M1155.8,14.75c0.04,0.79,0.07,2.04-0.07,3.18c-0.86,6.71-5.76,21.43-12.48,30.45" style="fill:none;stroke:#999;stroke-width:3" />
<path d="M1154.54,29.92c1.46,0.33,3.1,0.17,4.6-0.04C1165.5,29,1176.0,27.25,1180.28,26.25c3.51-0.82,5.12,0.3,4.78,5.19c-0.79,11.29-2.75,44.6-8.24,58.98c-2.32,6.08-5.57,4.33-8.76-0.16" style="fill:none;stroke:black;stroke-width:3" />
<circle cx="1154.54" cy="29.92" r="5" stroke-width="0" fill="#FF2A00" opacity="0.7" />
<path d="M1228.48,13.46c1.17,0.47,1.87,1.92,1.84,3.04c-0.12,4.27-0.22,8.68-0.09,12.3" style="fill:none;stroke:#999;stroke-width:3" />
<path d="M1211.1399999999999,30.67c0.89,0.1,2.92,0.12,3.8,0.04c7.56-0.7,17.29-2.13,27.57-2.67c1.48-0.08,2.35-0.18,3.09-0.16" style="fill:none;stroke:#999;stroke-width:3" />
<path d="M1217.8600000000001,33.89c2.35,2.49,4.55,9.76,5.09,12.56" style="fill:none;stroke:#999;stroke-width:3" />
<path d="M1239.69,30.86C1240.0,31.75,1240.4099999999999,33,1240.3,33.38c-1.07,3.84-2.73,8.54-4.44,11.59" style="fill:none;stroke:#999;stroke-width:3" />
<path d="M1208.88,50.75c1.12,0.25,2.51,0.41,3.63,0.39c6.65-0.13,20.28-2.63,31.17-3.15c1.45-0.1,3.07,0,3.95,0.49" style="fill:none;stroke:#999;stroke-width:3" />
<path d="M1215.2,61.35c0.45,0.78,0.82,1.38,1.01,2.43c0.82,4.63,2.73,29.68,2.73,30.76" style="fill:none;stroke:#999;stroke-width:3" />
<path d="M1217.52,62.76c2.57-0.27,19.23-2.01,23.38-2.43c2.35-0.24,3.33,0.93,3.33,2.76c0,3.06-2.79,28.4-3.18,29.72" style="fill:none;stroke:#999;stroke-width:3" />
<path d="M1218.03,76.63c7.22-0.63,20.41-1.68,24.34-1.9" style="fill:none;stroke:#999;stroke-width:3" />
<path d="M1219.81,93.15c5.14-0.28,14.01-1.11,20.66-1.48" style="fill:none;stroke:#999;stroke-width:3" />
<path d="M1264.8,14.75c0.04,0.79,0.07,2.04-0.07,3.18c-0.86,6.71-5.76,21.43-12.48,30.45" style="fill:none;stroke:#999;stroke-width:3" />
<path d="M1263.54,29.92c1.46,0.33,3.1,0.17,4.6-0.04C1274.5,29,1285.0,27.25,1289.28,26.25c3.51-0.82,5.12,0.3,4.78,5.19c-0.79,11.29-2.75,44.6-8.24,58.98c-2.32,6.08-5.57,4.33-8.76-0.16" style="fill:none;stroke:#999;stroke-width:3" />
<path d="M1258.09,51.08c0.49,0.24,2.13,0.36,2.63,0.32c4.56-0.37,11.03-1.91,15.41-2.5c0.61-0.08,1.97-0.1,2.9,0.11" style="fill:none;stroke:black;stroke-width:3" />
<circle cx="1258.09" cy="51.08" r="5" stroke-width="0" fill="#FF2A00" opacity="0.7" />
<path d="M1337.48,13.46c1.17,0.47,1.87,1.92,1.84,3.04c-0.12,4.27-0.22,8.68-0.09,12.3" style="fill:none;stroke:#999;stroke-width:3" />
<path d="M1320.1399999999999,30.67c0.89,0.1,2.92,0.12,3.8,0.04c7.56-0.7,17.29-2.13,27.57-2.67c1.48-0.08,2.35-0.18,3.09-0.16" style="fill:none;stroke:#999;stroke-width:3" />
<path d="M1326.8600000000001,33.89c2.35,2.49,4.55,9.76,5.09,12.56" style="fill:none;stroke:#999;stroke-width:3" />
<path d="M1348.69,30.86C1349.0,31.75,1349.4099999999999,33,1349.3,33.38c-1.07,3.84-2.73,8.54-4.44,11.59" style="fill:none;stroke:#999;stroke-width:3" />
<path d="M1317.88,50.75c1.12,0.25,2.51,0.41,3.63,0.39c6.65-0.13,20.28-2.63,31.17-3.15c1.45-0.1,3.07,0,3.95,0.49" style="fill:none;stroke:#999;stroke-width:3" />
<path d="M1324.2,61.35c0.45,0.78,0.82,1.38,1.01,2.43c0.82,4.63,2.73,29.68,2.73,30.76" style="fill:none;stroke:#999;stroke-width:3" />
<path d="M1326.52,62.76c2.57-0.27,19.23-2.01,23.38-2.43c2.35-0.24,3.33,0.93,3.33,2.76c0,3.06-2.79,28.4-3.18,29.72" style="fill:none;stroke:#999;stroke-width:3" />
<path d="M1327.03,76.63c7.22-0.63,20.41-1.68,24.34-1.9" style="fill:none;stroke:#999;stroke-width:3" />
<path d="M1328.81,93.15c5.14-0.28,14.01-1.11,20.66-1.48" style="fill:none;stroke:#999;stroke-width:3" />
<path d="M1373.8,14.75c0.04,0.79,0.07,2.04-0.07,3.18c-0.86,6.71-5.76,21.43-12.48,30.45" style="fill:none;stroke:#999;stroke-width:3" />
<path d="M1372.54,29.92c1.46,0.33,3.1,0.17,4.6-0.04C1383.5,29,1394.0,27.25,1398.28,26.25c3.51-0.82,5.12,0.3,4.78,5.19c-0.79,11.29-2.75,44.6-8.24,58.98c-2.32,6.08-5.57,4.33-8.76-0.16" style="fill:none;stroke:#999;stroke-width:3" />
<path d="M1367.09,51.08c0.49,0.24,2.13,0.36,2.63,0.32c4.56-0.37,11.03-1.91,15.41-2.5c0.61-0.08,1.97-0.1,2.9,0.11" style="fill:none;stroke:#999;stroke-width:3" />
<path d="M1389.19,61.77c-4.93,2.68-14.31,8.24-19.24,10.92c-1.77,0.96-2.91-0.07-3.93-0.42" style="fill:none;stroke:black;stroke-width:3" />
<circle cx="1389.19" cy="61.77" r="5" stroke-width="0" fill="#FF2A00" opacity="0.7" />
</svg>