<svg width="1417px" height="109px" viewBox="0 0 1417px 109px" xmlns="http://www.w3.org/2000/svg" xmlns:xlink="http://www.w3.org/1999/xlink" xml:space="preserve" version="1.1"  baseProfile="full">
<line x1="1" y1="1" x2="1416" y2="1" style="stroke:#ddd;stroke-width:2" />
<line x1="1" y1="1" x2="1" y2="108" style="stroke:#ddd;stroke-width:2" />
<line x1="1" y1="108" x2="1416" y2="108" style="stroke:#ddd;stroke-width:2" />
<line x1="1416" y1="1" x2="1416" y2="108" style="stroke:#ddd;stroke-width:2" />
<line x1="109" y1="1" x2="109" y2="108" style="stroke:#ddd;stroke-width:2" />
<line x1="218" y1="1" x2="218" y2="108" style="stroke:#ddd;stroke-width:2" />
<line x1="327" y1="1" x2="327" y2="108" style="stroke:#ddd;stroke-width:2" />
<line x1="436" y1="1" x2="436" y2="108" style="stroke:#ddd;stroke-width:2" />
<line x1="545" y1="1" x2="545" y2="108" style="stroke:#ddd;stroke-width:2" />
<line x1="654" y1="1" x2="654" y2="108" style="stroke:#ddd;stroke-width:2" />
<line x1="763" y1="1" x2="763" y2="108" style="stroke:#ddd;stroke-width:2" />
<line x1="872" y1="1" x2="872" y2="108" style="stroke:#ddd;stroke-width:2" />
<line x1="981" y1="1" x2="981" y2="108" style="stroke:#ddd;stroke-width:2" />
<line x1="1090" y1="1" x2="1090" y2="108" style="stroke:#ddd;stroke-width:2" />
<line x1="1199" y1="1" x2="1199" y2="108" style="stroke:#ddd;stroke-width:2" />
<line x1="1308" y1="1" x2="1308" y2="108" style="stroke:#ddd;stroke-width:2" />
<line x1="1" y1="54" x2="1416" y2="54" style="stroke:#ddd;stroke-width:2;stroke-dasharray:3 3" />
<line x1="55" y1="1" x2="55" y2="108" style="stroke:#ddd;stroke-width:2;stroke-dasharray:3 3" />
<line x1="164" y1="1" x2="164" y2="108" style="stroke:#ddd;stroke-width:2;stroke-dasharray:3 3" />
<line x1="273" y1="1" x2="273" y2="108" style="stroke:#ddd;stroke-width:2;stroke-dasharray:3 3" />
<line x1="382" y1="1" x2="382" y2="108" style="stroke:#ddd;stroke-width:2;stroke-dasharray:3 3" />
<line x1="491" y1="1" x2="491" y2="108" style="stroke:#ddd;stroke-width:2;stroke-dasharray:3 3" />
<line x1="600" y1="1" x2="600" y2="108" style="stroke:#ddd;stroke-width:2;stroke-dasharray:3 3" />
<line x1="709" y1="1" x2="709" y2="108" style="stroke:#ddd;stroke-width:2;stroke-dasharray:3 3" />
<line x1="818" y1="1" x2="818" y2="108" style="stroke:#ddd;stroke-width:2;stroke-dasharray:3 3" />
<line x1="927" y1="1" x2="927" y2="108" style="stroke:#ddd;stroke-width:2;stroke-dasharray:3 3" />
<line x1="1036" y1="1" x2="1036" y2="108" style="stroke:#ddd;stroke-width:2;stroke-dasharray:3 3" />
<line x1="1145" y1="1" x2="1145" y2="108" style="stroke:#ddd;stroke-width:2;stroke-dasharray:3 3" />
<line x1="1254" y1="1" x2="1254" y2="108" style="stroke:#ddd;stroke-width:2;stroke-dasharray:3 3" />
<line x1="1363" y1="1" x2="1363" y2="108" style="stroke:#ddd;stroke-width:2;stroke-dasharray:3 3" />
<path d="M34.28,12.42c0.1,1.08,0.01,1.89-0.38,2.85C30.66,23.16,22.12,35.12,12.18,43" style="fill:none;stroke:black;stroke-width:3" />
<circle cx="34.28" cy="12.42" r="5" stroke-width="0" fill="#FF2A00" opacity="0.7" />
<path d="M143.28,12.42c0.1,1.08,0.01,1.89-0.38,2.85C139.66,23.16,131.12,35.12,121.18,43" style="fill:none;stroke:#999;stroke-width:3" />
<path d="M144.88,17.75c7,4,13.5,11.12,15.59,14.74" style="fill:none;stroke:black;stroke-width:3" />
<circle cx="144.88" cy="17.75" r="5" stroke-width="0" fill="#FF2A00" opacity="0.7" />
<path d="M252.28,12.42c0.1,1.08,0.01,1.89-0.38,2.85C248.66,23.16,240.12,35.12,230.18,43" style="fill:none;stroke:#999;stroke-width:3" />
<path d="M253.88,17.75c7,4,13.5,11.12,15.59,14.74" style="fill:none;stroke:#999;stroke-width:3" />
<path d="M252.19,30.61c0.81,0.76,1.12,1.74,1.12,2.76c0,1.76-0.06,3.68-0.06,5.88" style="fill:none;stroke:black;stroke-width:3" />
<circle cx="252.19" cy="30.61" r="5" stroke-width="0" fill="#FF2A00" opacity="0.7" />
<path d="M361.28,12.42c0.1,1.08,0.01,1.89-0.38,2.85C357.65999999999997,23.16,349.12,35.12,339.18,43" style="fill:none;stroke:#999;stroke-width:3" />
<path d="M362.88,17.75c7,4,13.5,11.12,15.59,14.74" style="fill:none;stroke:#999;stroke-width:3" />
<path d="M361.19,30.61c0.81,0.76,1.12,1.74,1.12,2.76c0,1.76-0.06,3.68-0.06,5.88" style="fill:none;stroke:#999;stroke-width:3" />
<path d="M350.72,42.46c6.4-0.95,18.51-2.95,19.52-3.09c2.41-0.36,3.13,1.33,2.91,2.98c-0.73,5.47-1.76,17.52-2.29,23.4c-0.22,2.39-0.35,4.01-0.35,4.2" style="fill:none;stroke:black;stroke-width:3" />
<circle cx="350.72" cy="42.46" r="5" stroke-width="0" fill="#FF2A00" opacity="0.7" />
<path d="M470.28,12.42c0.1,1.08,0.01,1.89-0.38,2.85C466.65999999999997,23.16,458.12,35.12,448.18,43" style="fill:none;stroke:#999;stroke-width:3" />
<path d="M471.88,17.75c7,4,13.5,11.12,15.59,14.74" style="fill:none;stroke:#999;stroke-width:3" />
<path d="M470.19,30.61c0.81,0.76,1.12,1.74,1.12,2.76c0,1.76-0.06,3.68-0.06,5.88" style="fill:none;stroke:#999;stroke-width:3" />
<path d="M459.72,42.46c6.4-0.95,18.51-2.95,19.52-3.09c2.41-0.36,3.13,1.33,2.91,2.98c-0.73,5.47-1.76,17.52-2.29,23.4c-0.22,2.39-0.35,4.01-0.35,4.2" style="fill:none;stroke:#999;stroke-width:3" />
<path d="M459.83,55.44c5.55-0.81,13.42-1.81,20.21-2.57" style="fill:none;stroke:black;stroke-width:3" />
<circle cx="459.83" cy="55.44" r="5" stroke-width="0" fill="#FF2A00" opacity="0.7" />
<path d="M579.28,12.42c0.1,1.08,0.01,1.89-0.38,2.85C575.66,23.16,567.12,35.12,557.1800000000001,43" style="fill:none;stroke:#999;stroke-width:3" />
<path d="M580.88,17.75c7,4,13.5,11.12,15.59,14.74" style="fill:none;stroke:#999;stroke-width:3" />
<path d="M579.19,30.61c0.81,0.76,1.12,1.74,1.12,2.76c0,1.76-0.06,3.68-0.06,5.88" style="fill:none;stroke:#999;stroke-width:3" />
<path d="M568.72,42.46c6.4-0.95,18.51-2.95,19.52-3.09c2.41-0.36,3.13,1.33,2.91,2.98c-0.73,5.47-1.76,17.52-2.29,23.4c-0.22,2.39-0.35,4.01-0.35,4.2" style="fill:none;stroke:#999;stroke-width:3" />
<path d="M568.8299999999999,55.44c5.55-0.81,13.42-1.81,20.21-2.57" style="fill:none;stroke:#999;stroke-width:3" />
<path d="M568.98,69.02c4.31-0.48,11.78-1.55,18.34-2.35" style="fill:none;stroke:black;stroke-width:3" />
<circle cx="568.98" cy="69.02" r="5" stroke-width="0" fill="#FF2A00" opacity="0.7" />
<path d="M688.28,12.42c0.1,1.08,0.01,1.89-0.38,2.85C684.66,23.16,676.12,35.12,666.1800000000001,43" style="fill:none;stroke:#999;stroke-width:3" />
<path d="M689.88,17.75c7,4,13.5,11.12,15.59,14.74" style="fill:none;stroke:#999;stroke-width:3" />
<path d="M688.19,30.61c0.81,0.76,1.12,1.74,1.12,2.76c0,1.76-0.06,3.68-0.06,5.88" style="fill:none;stroke:#999;stroke-width:3" />
<path d="M677.72,42.46c6.4-0.95,18.51-2.95,19.52-3.09c2.41-0.36,3.13,1.33,2.91,2.98c-0.73,5.47-1.76,17.52-2.29,23.4c-0.22,2.39-0.35,4.01-0.35,4.2" style="fill:none;stroke:#999;stroke-width:3" />
<path d="M677.8299999999999,55.44c5.55-0.81,13.42-1.81,20.21-2.57" style="fill:none;stroke:#999;stroke-width:3" />
<path d="M677.98,69.02c4.31-0.48,11.78-1.55,18.34-2.35" style="fill:none;stroke:#999;stroke-width:3" />
<path d="M675.63,41.78c0.73,0.73,1.1,1.97,1.1,3.38c0,1.05-0.07,41.59-0.07,48.06c0,3.34,0.39,4.22,3.23,1.94c3.48-2.79,11.78-9.15,16.34-12.46" style="fill:none;stroke:black;stroke-width:3" />
<circle cx="675.63" cy="41.78" r="5" stroke-width="0" fill="#FF2A00" opacity="0.7" />
<path d="M797.28,12.42c0.1,1.08,0.01,1.89-0.38,2.85C793.66,23.16,785.12,35.12,775.1800000000001,43" style="fill:none;stroke:#999;stroke-width:3" />
<path d="M798.88,17.75c7,4,13.5,11.12,15.59,14.74" style="fill:none;stroke:#999;stroke-width:3" />
<path d="M797.19,30.61c0.81,0.76,1.12,1.74,1.12,2.76c0,1.76-0.06,3.68-0.06,5.88" style="fill:none;stroke:#999;stroke-width:3" />
<path d="M786.72,42.46c6.4-0.95,18.51-2.95,19.52-3.09c2.41-0.36,3.13,1.33,2.91,2.98c-0.73,5.47-1.76,17.52-2.29,23.4c-0.22,2.39-0.35,4.01-0.35,4.2" style="fill:none;stroke:#999;stroke-width:3" />
<path d="M786.8299999999999,55.44c5.55-0.81,13.42-1.81,20.21-2.57" style="fill:none;stroke:#999;stroke-width:3" />
<path d="M786.98,69.02c4.31-0.48,11.78-1.55,18.34-2.35" style="fill:none;stroke:#999;stroke-width:3" />
<path d="M784.63,41.78c0.73,0.73,1.1,1.97,1.1,3.38c0,1.05-0.07,41.59-0.07,48.06c0,3.34,0.39,4.22,3.23,1.94c3.48-2.79,11.78-9.15,16.34-12.46" style="fill:none;stroke:#999;stroke-width:3" />
<path d="M802.82,75.69c2.58,3.07,6.62,11.25,8.09,17.73" style="fill:none;stroke:black;stroke-width:3" />
<circle cx="802.82" cy="75.69" r="5" stroke-width="0" fill="#FF2A00" opacity="0.7" />
<path d="M906.28,12.42c0.1,1.08,0.01,1.89-0.38,2.85C902.66,23.16,894.12,35.12,884.1800000000001,43" style="fill:none;stroke:#999;stroke-width:3" />
<path d="M907.88,17.75c7,4,13.5,11.12,15.59,14.74" style="fill:none;stroke:#999;stroke-width:3" />
<path d="M906.19,30.61c0.81,0.76,1.12,1.74,1.12,2.76c0,1.76-0.06,3.68-0.06,5.88" style="fill:none;stroke:#999;stroke-width:3" />
<path d="M895.72,42.46c6.4-0.95,18.51-2.95,19.52-3.09c2.41-0.36,3.13,1.33,2.91,2.98c-0.73,5.47-1.76,17.52-2.29,23.4c-0.22,2.39-0.35,4.01-0.35,4.2" style="fill:none;stroke:#999;stroke-width:3" />
<path d="M895.8299999999999,55.44c5.55-0.81,13.42-1.81,20.21-2.57" style="fill:none;stroke:#999;stroke-width:3" />
<path d="M895.98,69.02c4.31-0.48,11.78-1.55,18.34-2.35" style="fill:none;stroke:#999;stroke-width:3" />
<path d="M893.63,41.78c0.73,0.73,1.1,1.97,1.1,3.38c0,1.05-0.07,41.59-0.07,48.06c0,3.34,0.39,4.22,3.23,1.94c3.48-2.79,11.78-9.15,16.34-12.46" style="fill:none;stroke:#999;stroke-width:3" />
<path d="M911.82,75.69c2.58,3.07,6.62,11.25,8.09,17.73" style="fill:none;stroke:#999;stroke-width:3" />
<path d="M945.38,14.41c0.24,1.5-0.13,2.51-1,4.29c-6.5,13.29-10,20.42-15.89,30.86c-2.04,3.62-1.63,4.69,2.39,3.71c10.09-2.46,19.63-4.4,33.48-7.78" style="fill:none;stroke:black;stroke-width:3" />
<circle cx="945.38" cy="14.41" r="5" stroke-width="0" fill="#FF2A00" opacity="0.7" />
<path d="M1015.28,12.42c0.1,1.08,0.01,1.89-0.38,2.85C1011.66,23.16,1003.12,35.12,993.1800000000001,43" style="fill:none;stroke:#999;stroke-width:3" />
<path d="M1016.88,17.75c7,4,13.5,11.12,15.59,14.74" style="fill:none;stroke:#999;stroke-width:3" />
<path d="M1015.19,30.61c0.81,0.76,1.12,1.74,1.12,2.76c0,1.76-0.06,3.68-0.06,5.88" style="fill:none;stroke:#999;stroke-width:3" />
<path d="M1004.72,42.46c6.4-0.95,18.51-2.95,19.52-3.09c2.41-0.36,3.13,1.33,2.91,2.98c-0.73,5.47-1.76,17.52-2.29,23.4c-0.22,2.39-0.35,4.01-0.35,4.2" style="fill:none;stroke:#999;stroke-width:3" />
<path d="M1004.8299999999999,55.44c5.55-0.81,13.42-1.81,20.21-2.57" style="fill:none;stroke:#999;stroke-width:3" />
<path d="M1004.98,69.02c4.31-0.48,11.78-1.55,18.34-2.35" style="fill:none;stroke:#999;stroke-width:3" />
<path d="M1002.63,41.78c0.73,0.73,1.1,1.97,1.1,3.38c0,1.05-0.07,41.59-0.07,48.06c0,3.34,0.39,4.22,3.23,1.94c3.48-2.79,11.78-9.15,16.34-12.46" style="fill:none;stroke:#999;stroke-width:3" />
<path d="M1020.82,75.69c2.58,3.07,6.62,11.25,8.09,17.73" style="fill:none;stroke:#999;stroke-width:3" />
<path d="M1054.38,14.41c0.24,1.5-0.13,2.51-1,4.29c-6.5,13.29-10,20.42-15.89,30.86c-2.04,3.62-1.63,4.69,2.39,3.71c10.09-2.46,19.63-4.4,33.48-7.78" style="fill:none;stroke:#999;stroke-width:3" />
<path d="M1064.49,31c4.68,3.93,12.09,16.14,13.26,22.25" style="fill:none;stroke:black;stroke-width:3" />
<circle cx="1064.49" cy="31.0" r="5" stroke-width="0" fill="#FF2A00" opacity="0.7" />
<path d="M1124.28,12.42c0.1,1.08,0.01,1.89-0.38,2.85C1120.6599999999999,23.16,1112.12,35.12,1102.18,43" style="fill:none;stroke:#999;stroke-width:3" />
<path d="M1125.88,17.75c7,4,13.5,11.12,15.59,14.74" style="fill:none;stroke:#999;stroke-width:3" />
<path d="M1124.19,30.61c0.81,0.76,1.12,1.74,1.12,2.76c0,1.76-0.06,3.68-0.06,5.88" style="fill:none;stroke:#999;stroke-width:3" />
<path d="M1113.72,42.46c6.4-0.95,18.51-2.95,19.52-3.09c2.41-0.36,3.13,1.33,2.91,2.98c-0.73,5.47-1.76,17.52-2.29,23.4c-0.22,2.39-0.35,4.01-0.35,4.2" style="fill:none;stroke:#999;stroke-width:3" />
<path d="M1113.83,55.44c5.55-0.81,13.42-1.81,20.21-2.57" style="fill:none;stroke:#999;stroke-width:3" />
<path d="M1113.98,69.02c4.31-0.48,11.78-1.55,18.34-2.35" style="fill:none;stroke:#999;stroke-width:3" />
<path d="M1111.63,41.78c0.73,0.73,1.1,1.97,1.1,3.38c0,1.05-0.07,41.59-0.07,48.06c0,3.34,0.39,4.22,3.23,1.94c3.48-2.79,11.78-9.15,16.34-12.46" style="fill:none;stroke:#999;stroke-width:3" />
<path d="M1129.8200000000002,75.69c2.58,3.07,6.62,11.25,8.09,17.73" style="fill:none;stroke:#999;stroke-width:3" />
<path d="M1163.38,14.41c0.24,1.5-0.13,2.51-1,4.29c-6.5,13.29-10,20.42-15.89,30.86c-2.04,3.62-1.63,4.69,2.39,3.71c10.09-2.46,19.63-4.4,33.48-7.78" style="fill:none;stroke:#999;stroke-width:3" />
<path d="M1173.49,31c4.68,3.93,12.09,16.14,13.26,22.25" style="fill:none;stroke:#999;stroke-width:3" />
<path d="M1147.34,67.01c1.1,1.1,1.24,2.53,1.54,3.96c1.05,5.01,2.3,13.59,3.29,20.69c0.23,1.62,0.42,3.17,0.57,4.59" style="fill:none;stroke:black;stroke-width:3" />
<circle cx="1147.34" cy="67.01" r="5" stroke-width="0" fill="#FF2A00" opacity="0.7" />
<path d="M1233.28,12.42c0.1,1.08,0.01,1.89-0.38,2.85C1229.6599999999999,23.16,1221.12,35.12,1211.18,43" style="fill:none;stroke:#999;stroke-width:3" />
<path d="M1234.88,17.75c7,4,13.5,11.12,15.59,14.74" style="fill:none;stroke:#999;stroke-width:3" />
<path d="M1233.19,30.61c0.81,0.76,1.12,1.74,1.12,2.76c0,1.76-0.06,3.68-0.06,5.88" style="fill:none;stroke:#999;stroke-width:3" />
<path d="M1222.72,42.46c6.4-0.95,18.51-2.95,19.52-3.09c2.41-0.36,3.13,1.33,2.91,2.98c-0.73,5.47-1.76,17.52-2.29,23.4c-0.22,2.39-0.35,4.01-0.35,4.2" style="fill:none;stroke:#999;stroke-width:3" />
<path d="M1222.83,55.44c5.55-0.81,13.42-1.81,20.21-2.57" style="fill:none;stroke:#999;stroke-width:3" />
<path d="M1222.98,69.02c4.31-0.48,11.78-1.55,18.34-2.35" style="fill:none;stroke:#999;stroke-width:3" />
<path d="M1220.63,41.78c0.73,0.73,1.1,1.97,1.1,3.38c0,1.05-0.07,41.59-0.07,48.06c0,3.34,0.39,4.22,3.23,1.94c3.48-2.79,11.78-9.15,16.34-12.46" style="fill:none;stroke:#999;stroke-width:3" />
<path d="M1238.8200000000002,75.69c2.58,3.07,6.62,11.25,8.09,17.73" style="fill:none;stroke:#999;stroke-width:3" />
<path d="M1272.38,14.41c0.24,1.5-0.13,2.51-1,4.29c-6.5,13.29-10,20.42-15.89,30.86c-2.04,3.62-1.63,4.69,2.39,3.71c10.09-2.46,19.63-4.4,33.48-7.78" style="fill:none;stroke:#999;stroke-width:3" />
<path d="M1282.49,31c4.68,3.93,12.09,16.14,13.26,22.25" style="fill:none;stroke:#999;stroke-width:3" />
<path d="M1256.34,67.01c1.1,1.1,1.24,2.53,1.54,3.96c1.05,5.01,2.3,13.59,3.29,20.69c0.23,1.62,0.42,3.17,0.57,4.59" style="fill:none;stroke:#999;stroke-width:3" />
<path d="M1258.44,68.58c9.24-1.33,22.06-3.1,29.19-4.15c3.83-0.56,5.56,1.17,4.7,4.97c-1.49,6.59-2.49,12.11-3.9,20.17" style="fill:none;stroke:black;stroke-width:3" />
<circle cx="1258.44" cy="68.58" r="5" stroke-width="0" fill="#FF2A00" opacity="0.7" />
<path d="M1342.28,12.42c0.1,1.08,0.01,1.89-0.38,2.85C1338.6599999999999,23.16,1330.12,35.12,1320.18,43" style="fill:none;stroke:#999;stroke-width:3" />
<path d="M1343.88,17.75c7,4,13.5,11.12,15.59,14.74" style="fill:none;stroke:#999;stroke-width:3" />
<path d="M1342.19,30.61c0.81,0.76,1.12,1.74,1.12,2.76c0,1.76-0.06,3.68-0.06,5.88" style="fill:none;stroke:#999;stroke-width:3" />
<path d="M1331.72,42.46c6.4-0.95,18.51-2.95,19.52-3.09c2.41-0.36,3.13,1.33,2.91,2.98c-0.73,5.47-1.76,17.52-2.29,23.4c-0.22,2.39-0.35,4.01-0.35,4.2" style="fill:none;stroke:#999;stroke-width:3" />
<path d="M1331.83,55.44c5.55-0.81,13.42-1.81,20.21-2.57" style="fill:none;stroke:#999;stroke-width:3" />
<path d="M1331.98,69.02c4.31-0.48,11.78-1.55,18.34-2.35" style="fill:none;stroke:#999;stroke-width:3" />
<path d="M1329.63,41.78c0.73,0.73,1.1,1.97,1.1,3.38c0,1.05-0.07,41.59-0.07,48.06c0,3.34,0.39,4.22,3.23,1.94c3.48-2.79,11.78-9.15,16.34-12.46" style="fill:none;stroke:#999;stroke-width:3" />
<path d="M1347.8200000000002,75.69c2.58,3.07,6.62,11.25,8.09,17.73" style="fill:none;stroke:#999;stroke-width:3" />
<path d="M1381.38,14.41c0.24,1.5-0.13,2.51-1,4.29c-6.5,13.29-10,20.42-15.89,30.86c-2.04,3.62-1.63,4.69,2.39,3.71c10.09-2.46,19.63-4.4,33.48-7.78" style="fill:none;stroke:#999;stroke-width:3" />
<path d="M1391.49,31c4.68,3.93,12.09,16.14,13.26,22.25" style="fill:none;stroke:#999;stroke-width:3" />
<path d="M1365.34,67.01c1.1,1.1,1.24,2.53,1.54,3.96c1.05,5.01,2.3,13.59,3.29,20.69c0.23,1.62,0.42,3.17,0.57,4.59" style="fill:none;stroke:#999;stroke-width:3" />
<path d="M1367.44,68.58c9.24-1.33,22.06-3.1,29.19-4.15c3.83-0.56,5.56,1.17,4.7,4.97c-1.49,6.59-2.49,12.11-3.9,20.17" style="fill:none;stroke:#999;stroke-width:3" />
<path d="M1372.05,93.49c7.31-0.57,13.28-1.24,22.47-2.26c1.7-0.19,3.51-0.39,5.47-0.6" style="fill:none;stroke:black;stroke-width:3" />
<circle cx="1372.05" cy="93.49" r="5" stroke-width="0" fill="#FF2A00" opacity="0.7" />
</svg>