<svg width="1526px" height="109px" viewBox="0 0 1526px 109px" xmlns="http://www.w3.org/2000/svg" xmlns:xlink="http://www.w3.org/1999/xlink" xml:space="preserve" version="1.1"  baseProfile="full">
<line x1="1" y1="1" x2="1525" y2="1" style="stroke:#ddd;stroke-width:2" />
<line x1="1" y1="1" x2="1" y2="108" style="stroke:#ddd;stroke-width:2" />
<line x1="1" y1="108" x2="1525" y2="108" style="stroke:#ddd;stroke-width:2" />
<line x1="1525" y1="1" x2="1525" y2="108" style="stroke:#ddd;stroke-width:2" />
<line x1="109" y1="1" x2="109" y2="108" style="stroke:#ddd;stroke-width:2" />
<line x1="218" y1="1" x2="218" y2="108" style="stroke:#ddd;stroke-width:2" />
<line x1="327" y1="1" x2="327" y2="108" style="stroke:#ddd;stroke-width:2" />
<line x1="436" y1="1" x2="436" y2="108" style="stroke:#ddd;stroke-width:2" />
<line x1="545" y1="1" x2="545" y2="108" style="stroke:#ddd;stroke-width:2" />
<line x1="654" y1="1" x2="654" y2="108" style="stroke:#ddd;stroke-width:2" />
<line x1="763" y1="1" x2="763" y2="108" style="stroke:#ddd;stroke-width:2" />
<line x1="872" y1="1" x2="872" y2="108" style="stroke:#ddd;stroke-width:2" />
<line x1="981" y1="1" x2="981" y2="108" style="stroke:#ddd;stroke-width:2" />
<line x1="1090" y1="1" x2="1090" y2="108" style="stroke:#ddd;stroke-width:2" />
<line x1="1199" y1="1" x2="1199" y2="108" style="stroke:#ddd;stroke-width:2" />
<line x1="1308" y1="1" x2="1308" y2="108" style="stroke:#ddd;stroke-width:2" />
<line x1="1417" y1="1" x2="1417" y2="108" style="stroke:#ddd;stroke-width:2" />
<line x1="1" y1="54" x2="1525" y2="54" style="stroke:#ddd;stroke-width:2;stroke-dasharray:3 3" />
<line x1="55" y1="1" x2="55" y2="108" style="stroke:#ddd;stroke-width:2;stroke-dasharray:3 3" />
<line x1="164" y1="1" x2="164" y2="108" style="stroke:#ddd;stroke-width:2;stroke-dasharray:3 3" />
<line x1="273" y1="1" x2="273" y2="108" style="stroke:#ddd;stroke-width:2;stroke-dasharray:3 3" />
<line x1="382" y1="1" x2="382" y2="108" style="stroke:#ddd;stroke-width:2;stroke-dasharray:3 3" />
<line x1="491" y1="1" x2="491" y2="108" style="stroke:#ddd;stroke-width:2;stroke-dasharray:3 3" />
<line x1="600" y1="1" x2="600" y2="108" style="stroke:#ddd;stroke-width:2;stroke-dasharray:3 3" />
<line x1="709" y1="1" x2="709" y2="108" style="stroke:#ddd;stroke-width:2;stroke-dasharray:3 3" />
<line x1="818" y1="1" x2="818" y2="108" style="stroke:#ddd;stroke-width:2;stroke-dasharray:3 3" />
<line x1="927" y1="1" x2="927" y2="108" style="stroke:#ddd;stroke-width:2;stroke-dasharray:3 3" />
<line x1="1036" y1="1" x2="1036" y2="108" style="stroke:#ddd;stroke-width:2;stroke-dasharray:3 3" />
<line x1="1145" y1="1" x2="1145" y2="108" style="stroke:#ddd;stroke-width:2;stroke-dasharray:3 3" />
<line x1="1254" y1="1" x2="1254" y2="108" style="stroke:#ddd;stroke-width:2;stroke-dasharray:3 3" />
<line x1="1363" y1="1" x2="1363" y2="108" style="stroke:#ddd;stroke-width:2;stroke-dasharray:3 3" />
<line x1="1472" y1="1" x2="1472" y2="108" style="stroke:#ddd;stroke-width:2;stroke-dasharray:3 3" />
<path d="M34.82,12.42c0,1.71-0.23,2.7-0.97,4.01c-3.59,7.99-11.79,19.98-21.09,26.42" style="fill:none;stroke:black;stroke-width:3" />
<circle cx="34.82" cy="12.42" r="5" stroke-width="0" fill="#FF2A00" opacity="0.7" />
<path d="M143.82,12.42c0,1.71-0.23,2.7-0.97,4.01c-3.59,7.99-11.79,19.98-21.09,26.42" style="fill:none;stroke:#999;stroke-width:3" />
<path d="M146.31,18.32c5.81,3.75,9.56,7.78,12.94,13.08" style="fill:none;stroke:black;stroke-width:3" />
<circle cx="146.31" cy="18.32" r="5" stroke-width="0" fill="#FF2A00" opacity="0.7" />
<path d="M252.82,12.42c0,1.71-0.23,2.7-0.97,4.01c-3.59,7.99-11.79,19.98-21.09,26.42" style="fill:none;stroke:#999;stroke-width:3" />
<path d="M255.31,18.32c5.81,3.75,9.56,7.78,12.94,13.08" style="fill:none;stroke:#999;stroke-width:3" />
<path d="M252.25,30.42c0.78,0.78,1.08,1.98,1.08,2.76c0,1.02-0.11,3.6-0.11,6.12" style="fill:none;stroke:black;stroke-width:3" />
<circle cx="252.25" cy="30.42" r="5" stroke-width="0" fill="#FF2A00" opacity="0.7" />
<path d="M361.82,12.42c0,1.71-0.23,2.7-0.97,4.01c-3.59,7.99-11.79,19.98-21.09,26.42" style="fill:none;stroke:#999;stroke-width:3" />
<path d="M364.31,18.32c5.81,3.75,9.56,7.78,12.94,13.08" style="fill:none;stroke:#999;stroke-width:3" />
<path d="M361.25,30.42c0.78,0.78,1.08,1.98,1.08,2.76c0,1.02-0.11,3.6-0.11,6.12" style="fill:none;stroke:#999;stroke-width:3" />
<path d="M348.87,41.35c1.5,0.6,3.16,0.55,4.9,0.3c4.6-0.66,12.91-1.86,15.79-2.3c3.07-0.47,4.09,0.88,3.74,3.8c-0.5,4.23-1.34,13.15-1.9,19.44c-0.33,3.73-0.56,6.45-0.56,6.51" style="fill:none;stroke:black;stroke-width:3" />
<circle cx="348.87" cy="41.35" r="5" stroke-width="0" fill="#FF2A00" opacity="0.7" />
<path d="M470.82,12.42c0,1.71-0.23,2.7-0.97,4.01c-3.59,7.99-11.79,19.98-21.09,26.42" style="fill:none;stroke:#999;stroke-width:3" />
<path d="M473.31,18.32c5.81,3.75,9.56,7.78,12.94,13.08" style="fill:none;stroke:#999;stroke-width:3" />
<path d="M470.25,30.42c0.78,0.78,1.08,1.98,1.08,2.76c0,1.02-0.11,3.6-0.11,6.12" style="fill:none;stroke:#999;stroke-width:3" />
<path d="M457.87,41.35c1.5,0.6,3.16,0.55,4.9,0.3c4.6-0.66,12.91-1.86,15.79-2.3c3.07-0.47,4.09,0.88,3.74,3.8c-0.5,4.23-1.34,13.15-1.9,19.44c-0.33,3.73-0.56,6.45-0.56,6.51" style="fill:none;stroke:#999;stroke-width:3" />
<path d="M460.39,55.07c3.65-0.36,14.19-1.75,19.52-2.45" style="fill:none;stroke:black;stroke-width:3" />
<circle cx="460.39" cy="55.07" r="5" stroke-width="0" fill="#FF2A00" opacity="0.7" />
<path d="M579.8199999999999,12.42c0,1.71-0.23,2.7-0.97,4.01c-3.59,7.99-11.79,19.98-21.09,26.42" style="fill:none;stroke:#999;stroke-width:3" />
<path d="M582.31,18.32c5.81,3.75,9.56,7.78,12.94,13.08" style="fill:none;stroke:#999;stroke-width:3" />
<path d="M579.25,30.42c0.78,0.78,1.08,1.98,1.08,2.76c0,1.02-0.11,3.6-0.11,6.12" style="fill:none;stroke:#999;stroke-width:3" />
<path d="M566.87,41.35c1.5,0.6,3.16,0.55,4.9,0.3c4.6-0.66,12.91-1.86,15.79-2.3c3.07-0.47,4.09,0.88,3.74,3.8c-0.5,4.23-1.34,13.15-1.9,19.44c-0.33,3.73-0.56,6.45-0.56,6.51" style="fill:none;stroke:#999;stroke-width:3" />
<path d="M569.39,55.07c3.65-0.36,14.19-1.75,19.52-2.45" style="fill:none;stroke:#999;stroke-width:3" />
<path d="M569.33,68.03c4.21-0.49,11.95-1.4,18.36-2.2" style="fill:none;stroke:black;stroke-width:3" />
<circle cx="569.33" cy="68.03" r="5" stroke-width="0" fill="#FF2A00" opacity="0.7" />
<path d="M688.8199999999999,12.42c0,1.71-0.23,2.7-0.97,4.01c-3.59,7.99-11.79,19.98-21.09,26.42" style="fill:none;stroke:#999;stroke-width:3" />
<path d="M691.31,18.32c5.81,3.75,9.56,7.78,12.94,13.08" style="fill:none;stroke:#999;stroke-width:3" />
<path d="M688.25,30.42c0.78,0.78,1.08,1.98,1.08,2.76c0,1.02-0.11,3.6-0.11,6.12" style="fill:none;stroke:#999;stroke-width:3" />
<path d="M675.87,41.35c1.5,0.6,3.16,0.55,4.9,0.3c4.6-0.66,12.91-1.86,15.79-2.3c3.07-0.47,4.09,0.88,3.74,3.8c-0.5,4.23-1.34,13.15-1.9,19.44c-0.33,3.73-0.56,6.45-0.56,6.51" style="fill:none;stroke:#999;stroke-width:3" />
<path d="M678.39,55.07c3.65-0.36,14.19-1.75,19.52-2.45" style="fill:none;stroke:#999;stroke-width:3" />
<path d="M678.33,68.03c4.21-0.49,11.95-1.4,18.36-2.2" style="fill:none;stroke:#999;stroke-width:3" />
<path d="M676.75,42.12c0.77,0.77,0.81,2.33,0.81,3.39c0,3.41,0.17,42.59,0.17,46.7c0,4.4,0.28,4.04,2.93,1.98c4.24-3.29,11.94-9.19,15.39-11.43" style="fill:none;stroke:black;stroke-width:3" />
<circle cx="676.75" cy="42.12" r="5" stroke-width="0" fill="#FF2A00" opacity="0.7" />
<path d="M797.8199999999999,12.42c0,1.71-0.23,2.7-0.97,4.01c-3.59,7.99-11.79,19.98-21.09,26.42" style="fill:none;stroke:#999;stroke-width:3" />
<path d="M800.31,18.32c5.81,3.75,9.56,7.78,12.94,13.08" style="fill:none;stroke:#999;stroke-width:3" />
<path d="M797.25,30.42c0.78,0.78,1.08,1.98,1.08,2.76c0,1.02-0.11,3.6-0.11,6.12" style="fill:none;stroke:#999;stroke-width:3" />
<path d="M784.87,41.35c1.5,0.6,3.16,0.55,4.9,0.3c4.6-0.66,12.91-1.86,15.79-2.3c3.07-0.47,4.09,0.88,3.74,3.8c-0.5,4.23-1.34,13.15-1.9,19.44c-0.33,3.73-0.56,6.45-0.56,6.51" style="fill:none;stroke:#999;stroke-width:3" />
<path d="M787.39,55.07c3.65-0.36,14.19-1.75,19.52-2.45" style="fill:none;stroke:#999;stroke-width:3" />
<path d="M787.33,68.03c4.21-0.49,11.95-1.4,18.36-2.2" style="fill:none;stroke:#999;stroke-width:3" />
<path d="M785.75,42.12c0.77,0.77,0.81,2.33,0.81,3.39c0,3.41,0.17,42.59,0.17,46.7c0,4.4,0.28,4.04,2.93,1.98c4.24-3.29,11.94-9.19,15.39-11.43" style="fill:none;stroke:#999;stroke-width:3" />
<path d="M803.49,75.38c2.52,2.82,6.46,10.33,7.9,16.28" style="fill:none;stroke:black;stroke-width:3" />
<circle cx="803.49" cy="75.38" r="5" stroke-width="0" fill="#FF2A00" opacity="0.7" />
<path d="M906.8199999999999,12.42c0,1.71-0.23,2.7-0.97,4.01c-3.59,7.99-11.79,19.98-21.09,26.42" style="fill:none;stroke:#999;stroke-width:3" />
<path d="M909.31,18.32c5.81,3.75,9.56,7.78,12.94,13.08" style="fill:none;stroke:#999;stroke-width:3" />
<path d="M906.25,30.42c0.78,0.78,1.08,1.98,1.08,2.76c0,1.02-0.11,3.6-0.11,6.12" style="fill:none;stroke:#999;stroke-width:3" />
<path d="M893.87,41.35c1.5,0.6,3.16,0.55,4.9,0.3c4.6-0.66,12.91-1.86,15.79-2.3c3.07-0.47,4.09,0.88,3.74,3.8c-0.5,4.23-1.34,13.15-1.9,19.44c-0.33,3.73-0.56,6.45-0.56,6.51" style="fill:none;stroke:#999;stroke-width:3" />
<path d="M896.39,55.07c3.65-0.36,14.19-1.75,19.52-2.45" style="fill:none;stroke:#999;stroke-width:3" />
<path d="M896.33,68.03c4.21-0.49,11.95-1.4,18.36-2.2" style="fill:none;stroke:#999;stroke-width:3" />
<path d="M894.75,42.12c0.77,0.77,0.81,2.33,0.81,3.39c0,3.41,0.17,42.59,0.17,46.7c0,4.4,0.28,4.04,2.93,1.98c4.24-3.29,11.94-9.19,15.39-11.43" style="fill:none;stroke:#999;stroke-width:3" />
<path d="M912.49,75.38c2.52,2.82,6.46,10.33,7.9,16.28" style="fill:none;stroke:#999;stroke-width:3" />
<path d="M925.5,25.51c2.17,0.51,4.35,0.58,6.54,0.21c7.68-0.64,14.45-1.87,28.04-2.94c2.25-0.42,4.49-0.37,6.71,0.16" style="fill:none;stroke:black;stroke-width:3" />
<circle cx="925.5" cy="25.51" r="5" stroke-width="0" fill="#FF2A00" opacity="0.7" />
<path d="M1015.8199999999999,12.42c0,1.71-0.23,2.7-0.97,4.01c-3.59,7.99-11.79,19.98-21.09,26.42" style="fill:none;stroke:#999;stroke-width:3" />
<path d="M1018.31,18.32c5.81,3.75,9.56,7.78,12.94,13.08" style="fill:none;stroke:#999;stroke-width:3" />
<path d="M1015.25,30.42c0.78,0.78,1.08,1.98,1.08,2.76c0,1.02-0.11,3.6-0.11,6.12" style="fill:none;stroke:#999;stroke-width:3" />
<path d="M1002.87,41.35c1.5,0.6,3.16,0.55,4.9,0.3c4.6-0.66,12.91-1.86,15.79-2.3c3.07-0.47,4.09,0.88,3.74,3.8c-0.5,4.23-1.34,13.15-1.9,19.44c-0.33,3.73-0.56,6.45-0.56,6.51" style="fill:none;stroke:#999;stroke-width:3" />
<path d="M1005.39,55.07c3.65-0.36,14.19-1.75,19.52-2.45" style="fill:none;stroke:#999;stroke-width:3" />
<path d="M1005.33,68.03c4.21-0.49,11.95-1.4,18.36-2.2" style="fill:none;stroke:#999;stroke-width:3" />
<path d="M1003.75,42.12c0.77,0.77,0.81,2.33,0.81,3.39c0,3.41,0.17,42.59,0.17,46.7c0,4.4,0.28,4.04,2.93,1.98c4.24-3.29,11.94-9.19,15.39-11.43" style="fill:none;stroke:#999;stroke-width:3" />
<path d="M1021.49,75.38c2.52,2.82,6.46,10.33,7.9,16.28" style="fill:none;stroke:#999;stroke-width:3" />
<path d="M1034.5,25.51c2.17,0.51,4.35,0.58,6.54,0.21c7.68-0.64,14.45-1.87,28.04-2.94c2.25-0.42,4.49-0.37,6.71,0.16" style="fill:none;stroke:#999;stroke-width:3" />
<path d="M1041.11,28.39c0.7,0.7,1.2,1.98,1.2,3.16c0,1.35,0.01,42.31,0.01,47.16" style="fill:none;stroke:black;stroke-width:3" />
<circle cx="1041.11" cy="28.39" r="5" stroke-width="0" fill="#FF2A00" opacity="0.7" />
<path d="M1124.82,12.42c0,1.71-0.23,2.7-0.97,4.01c-3.59,7.99-11.79,19.98-21.09,26.42" style="fill:none;stroke:#999;stroke-width:3" />
<path d="M1127.31,18.32c5.81,3.75,9.56,7.78,12.94,13.08" style="fill:none;stroke:#999;stroke-width:3" />
<path d="M1124.25,30.42c0.78,0.78,1.08,1.98,1.08,2.76c0,1.02-0.11,3.6-0.11,6.12" style="fill:none;stroke:#999;stroke-width:3" />
<path d="M1111.87,41.35c1.5,0.6,3.16,0.55,4.9,0.3c4.6-0.66,12.91-1.86,15.79-2.3c3.07-0.47,4.09,0.88,3.74,3.8c-0.5,4.23-1.34,13.15-1.9,19.44c-0.33,3.73-0.56,6.45-0.56,6.51" style="fill:none;stroke:#999;stroke-width:3" />
<path d="M1114.3899999999999,55.07c3.65-0.36,14.19-1.75,19.52-2.45" style="fill:none;stroke:#999;stroke-width:3" />
<path d="M1114.33,68.03c4.21-0.49,11.95-1.4,18.36-2.2" style="fill:none;stroke:#999;stroke-width:3" />
<path d="M1112.75,42.12c0.77,0.77,0.81,2.33,0.81,3.39c0,3.41,0.17,42.59,0.17,46.7c0,4.4,0.28,4.04,2.93,1.98c4.24-3.29,11.94-9.19,15.39-11.43" style="fill:none;stroke:#999;stroke-width:3" />
<path d="M1130.49,75.38c2.52,2.82,6.46,10.33,7.9,16.28" style="fill:none;stroke:#999;stroke-width:3" />
<path d="M1143.5,25.51c2.17,0.51,4.35,0.58,6.54,0.21c7.68-0.64,14.45-1.87,28.04-2.94c2.25-0.42,4.49-0.37,6.71,0.16" style="fill:none;stroke:#999;stroke-width:3" />
<path d="M1150.11,28.39c0.7,0.7,1.2,1.98,1.2,3.16c0,1.35,0.01,42.31,0.01,47.16" style="fill:none;stroke:#999;stroke-width:3" />
<path d="M1152.88,43.73c4.88-0.66,12.63-1.66,19.81-2.1" style="fill:none;stroke:black;stroke-width:3" />
<circle cx="1152.88" cy="43.73" r="5" stroke-width="0" fill="#FF2A00" opacity="0.7" />
<path d="M1233.82,12.42c0,1.71-0.23,2.7-0.97,4.01c-3.59,7.99-11.79,19.98-21.09,26.42" style="fill:none;stroke:#999;stroke-width:3" />
<path d="M1236.31,18.32c5.81,3.75,9.56,7.78,12.94,13.08" style="fill:none;stroke:#999;stroke-width:3" />
<path d="M1233.25,30.42c0.78,0.78,1.08,1.98,1.08,2.76c0,1.02-0.11,3.6-0.11,6.12" style="fill:none;stroke:#999;stroke-width:3" />
<path d="M1220.87,41.35c1.5,0.6,3.16,0.55,4.9,0.3c4.6-0.66,12.91-1.86,15.79-2.3c3.07-0.47,4.09,0.88,3.74,3.8c-0.5,4.23-1.34,13.15-1.9,19.44c-0.33,3.73-0.56,6.45-0.56,6.51" style="fill:none;stroke:#999;stroke-width:3" />
<path d="M1223.3899999999999,55.07c3.65-0.36,14.19-1.75,19.52-2.45" style="fill:none;stroke:#999;stroke-width:3" />
<path d="M1223.33,68.03c4.21-0.49,11.95-1.4,18.36-2.2" style="fill:none;stroke:#999;stroke-width:3" />
<path d="M1221.75,42.12c0.77,0.77,0.81,2.33,0.81,3.39c0,3.41,0.17,42.59,0.17,46.7c0,4.4,0.28,4.04,2.93,1.98c4.24-3.29,11.94-9.19,15.39-11.43" style="fill:none;stroke:#999;stroke-width:3" />
<path d="M1239.49,75.38c2.52,2.82,6.46,10.33,7.9,16.28" style="fill:none;stroke:#999;stroke-width:3" />
<path d="M1252.5,25.51c2.17,0.51,4.35,0.58,6.54,0.21c7.68-0.64,14.45-1.87,28.04-2.94c2.25-0.42,4.49-0.37,6.71,0.16" style="fill:none;stroke:#999;stroke-width:3" />
<path d="M1259.11,28.39c0.7,0.7,1.2,1.98,1.2,3.16c0,1.35,0.01,42.31,0.01,47.16" style="fill:none;stroke:#999;stroke-width:3" />
<path d="M1261.88,43.73c4.88-0.66,12.63-1.66,19.81-2.1" style="fill:none;stroke:#999;stroke-width:3" />
<path d="M1261.51,61.48c5.93-0.89,12.56-2.18,20.33-2.63" style="fill:none;stroke:black;stroke-width:3" />
<circle cx="1261.51" cy="61.48" r="5" stroke-width="0" fill="#FF2A00" opacity="0.7" />
<path d="M1342.82,12.42c0,1.71-0.23,2.7-0.97,4.01c-3.59,7.99-11.79,19.98-21.09,26.42" style="fill:none;stroke:#999;stroke-width:3" />
<path d="M1345.31,18.32c5.81,3.75,9.56,7.78,12.94,13.08" style="fill:none;stroke:#999;stroke-width:3" />
<path d="M1342.25,30.42c0.78,0.78,1.08,1.98,1.08,2.76c0,1.02-0.11,3.6-0.11,6.12" style="fill:none;stroke:#999;stroke-width:3" />
<path d="M1329.87,41.35c1.5,0.6,3.16,0.55,4.9,0.3c4.6-0.66,12.91-1.86,15.79-2.3c3.07-0.47,4.09,0.88,3.74,3.8c-0.5,4.23-1.34,13.15-1.9,19.44c-0.33,3.73-0.56,6.45-0.56,6.51" style="fill:none;stroke:#999;stroke-width:3" />
<path d="M1332.3899999999999,55.07c3.65-0.36,14.19-1.75,19.52-2.45" style="fill:none;stroke:#999;stroke-width:3" />
<path d="M1332.33,68.03c4.21-0.49,11.95-1.4,18.36-2.2" style="fill:none;stroke:#999;stroke-width:3" />
<path d="M1330.75,42.12c0.77,0.77,0.81,2.33,0.81,3.39c0,3.41,0.17,42.59,0.17,46.7c0,4.4,0.28,4.04,2.93,1.98c4.24-3.29,11.94-9.19,15.39-11.43" style="fill:none;stroke:#999;stroke-width:3" />
<path d="M1348.49,75.38c2.52,2.82,6.46,10.33,7.9,16.28" style="fill:none;stroke:#999;stroke-width:3" />
<path d="M1361.5,25.51c2.17,0.51,4.35,0.58,6.54,0.21c7.68-0.64,14.45-1.87,28.04-2.94c2.25-0.42,4.49-0.37,6.71,0.16" style="fill:none;stroke:#999;stroke-width:3" />
<path d="M1368.11,28.39c0.7,0.7,1.2,1.98,1.2,3.16c0,1.35,0.01,42.31,0.01,47.16" style="fill:none;stroke:#999;stroke-width:3" />
<path d="M1370.88,43.73c4.88-0.66,12.63-1.66,19.81-2.1" style="fill:none;stroke:#999;stroke-width:3" />
<path d="M1370.51,61.48c5.93-0.89,12.56-2.18,20.33-2.63" style="fill:none;stroke:#999;stroke-width:3" />
<path d="M1360.71,80.97c1.63,0.85,3.77,0.37,5.56-0.23c6.76-1.83,29.48-8.07,36.23-9.96" style="fill:none;stroke:black;stroke-width:3" />
<circle cx="1360.71" cy="80.97" r="5" stroke-width="0" fill="#FF2A00" opacity="0.7" />
<path d="M1451.82,12.42c0,1.71-0.23,2.7-0.97,4.01c-3.59,7.99-11.79,19.98-21.09,26.42" style="fill:none;stroke:#999;stroke-width:3" />
<path d="M1454.31,18.32c5.81,3.75,9.56,7.78,12.94,13.08" style="fill:none;stroke:#999;stroke-width:3" />
<path d="M1451.25,30.42c0.78,0.78,1.08,1.98,1.08,2.76c0,1.02-0.11,3.6-0.11,6.12" style="fill:none;stroke:#999;stroke-width:3" />
<path d="M1438.87,41.35c1.5,0.6,3.16,0.55,4.9,0.3c4.6-0.66,12.91-1.86,15.79-2.3c3.07-0.47,4.09,0.88,3.74,3.8c-0.5,4.23-1.34,13.15-1.9,19.44c-0.33,3.73-0.56,6.45-0.56,6.51" style="fill:none;stroke:#999;stroke-width:3" />
<path d="M1441.3899999999999,55.07c3.65-0.36,14.19-1.75,19.52-2.45" style="fill:none;stroke:#999;stroke-width:3" />
<path d="M1441.33,68.03c4.21-0.49,11.95-1.4,18.36-2.2" style="fill:none;stroke:#999;stroke-width:3" />
<path d="M1439.75,42.12c0.77,0.77,0.81,2.33,0.81,3.39c0,3.41,0.17,42.59,0.17,46.7c0,4.4,0.28,4.04,2.93,1.98c4.24-3.29,11.94-9.19,15.39-11.43" style="fill:none;stroke:#999;stroke-width:3" />
<path d="M1457.49,75.38c2.52,2.82,6.46,10.33,7.9,16.28" style="fill:none;stroke:#999;stroke-width:3" />
<path d="M1470.5,25.51c2.17,0.51,4.35,0.58,6.54,0.21c7.68-0.64,14.45-1.87,28.04-2.94c2.25-0.42,4.49-0.37,6.71,0.16" style="fill:none;stroke:#999;stroke-width:3" />
<path d="M1477.11,28.39c0.7,0.7,1.2,1.98,1.2,3.16c0,1.35,0.01,42.31,0.01,47.16" style="fill:none;stroke:#999;stroke-width:3" />
<path d="M1479.88,43.73c4.88-0.66,12.63-1.66,19.81-2.1" style="fill:none;stroke:#999;stroke-width:3" />
<path d="M1479.51,61.48c5.93-0.89,12.56-2.18,20.33-2.63" style="fill:none;stroke:#999;stroke-width:3" />
<path d="M1469.71,80.97c1.63,0.85,3.77,0.37,5.56-0.23c6.76-1.83,29.48-8.07,36.23-9.96" style="fill:none;stroke:#999;stroke-width:3" />
<path d="M1499.62,25.79c0.77,0.77,1.16,2.09,1.16,3.11c0,0.87,0.13,44.69,0.17,63.1c0.01,3.27,0.01,5.74,0.01,7" style="fill:none;stroke:black;stroke-width:3" />
<circle cx="1499.62" cy="25.79" r="5" stroke-width="0" fill="#FF2A00" opacity="0.7" />
</svg>