<svg width="2289px" height="109px" viewBox="0 0 2289px 109px" xmlns="http://www.w3.org/2000/svg" xmlns:xlink="http://www.w3.org/1999/xlink" xml:space="preserve" version="1.1"  baseProfile="full">
<line x1="1" y1="1" x2="2288" y2="1" style="stroke:#ddd;stroke-width:2" />
<line x1="1" y1="1" x2="1" y2="108" style="stroke:#ddd;stroke-width:2" />
<line x1="1" y1="108" x2="2288" y2="108" style="stroke:#ddd;stroke-width:2" />
<line x1="2288" y1="1" x2="2288" y2="108" style="stroke:#ddd;stroke-width:2" />
<line x1="109" y1="1" x2="109" y2="108" style="stroke:#ddd;stroke-width:2" />
<line x1="218" y1="1" x2="218" y2="108" style="stroke:#ddd;stroke-width:2" />
<line x1="327" y1="1" x2="327" y2="108" style="stroke:#ddd;stroke-width:2" />
<line x1="436" y1="1" x2="436" y2="108" style="stroke:#ddd;stroke-width:2" />
<line x1="545" y1="1" x2="545" y2="108" style="stroke:#ddd;stroke-width:2" />
<line x1="654" y1="1" x2="654" y2="108" style="stroke:#ddd;stroke-width:2" />
<line x1="763" y1="1" x2="763" y2="108" style="stroke:#ddd;stroke-width:2" />
<line x1="872" y1="1" x2="872" y2="108" style="stroke:#ddd;stroke-width:2" />
<line x1="981" y1="1" x2="981" y2="108" style="stroke:#ddd;stroke-width:2" />
<line x1="1090" y1="1" x2="1090" y2="108" style="stroke:#ddd;stroke-width:2" />
<line x1="1199" y1="1" x2="1199" y2="108" style="stroke:#ddd;stroke-width:2" />
<line x1="1308" y1="1" x2="1308" y2="108" style="stroke:#ddd;stroke-width:2" />
<line x1="1417" y1="1" x2="1417" y2="108" style="stroke:#ddd;stroke-width:2" />
<line x1="1526" y1="1" x2="1526" y2="108" style="stroke:#ddd;stroke-width:2" />
<line x1="1635" y1="1" x2="1635" y2="108" style="stroke:#ddd;stroke-width:2" />
<line x1="1744" y1="1" x2="1744" y2="108" style="stroke:#ddd;stroke-width:2" />
<line x1="1853" y1="1" x2="1853" y2="108" style="stroke:#ddd;stroke-width:2" />
<line x1="1962" y1="1" x2="1962" y2="108" style="stroke:#ddd;stroke-width:2" />
<line x1="2071" y1="1" x2="2071" y2="108" style="stroke:#ddd;stroke-width:2" />
<line x1="2180" y1="1" x2="2180" y2="108" style="stroke:#ddd;stroke-width:2" />
<line x1="1" y1="54" x2="2288" y2="54" style="stroke:#ddd;stroke-width:2;stroke-dasharray:3 3" />
<line x1="55" y1="1" x2="55" y2="108" style="stroke:#ddd;stroke-width:2;stroke-dasharray:3 3" />
<line x1="164" y1="1" x2="164" y2="108" style="stroke:#ddd;stroke-width:2;stroke-dasharray:3 3" />
<line x1="273" y1="1" x2="273" y2="108" style="stroke:#ddd;stroke-width:2;stroke-dasharray:3 3" />
<line x1="382" y1="1" x2="382" y2="108" style="stroke:#ddd;stroke-width:2;stroke-dasharray:3 3" />
<line x1="491" y1="1" x2="491" y2="108" style="stroke:#ddd;stroke-width:2;stroke-dasharray:3 3" />
<line x1="600" y1="1" x2="600" y2="108" style="stroke:#ddd;stroke-width:2;stroke-dasharray:3 3" />
<line x1="709" y1="1" x2="709" y2="108" style="stroke:#ddd;stroke-width:2;stroke-dasharray:3 3" />
<line x1="818" y1="1" x2="818" y2="108" style="stroke:#ddd;stroke-width:2;stroke-dasharray:3 3" />
<line x1="927" y1="1" x2="927" y2="108" style="stroke:#ddd;stroke-width:2;stroke-dasharray:3 3" />
<line x1="1036" y1="1" x2="1036" y2="108" style="stroke:#ddd;stroke-width:2;stroke-dasharray:3 3" />
<line x1="1145" y1="1" x2="1145" y2="108" style="stroke:#ddd;stroke-width:2;stroke-dasharray:3 3" />
<line x1="1254" y1="1" x2="1254" y2="108" style="stroke:#ddd;stroke-width:2;stroke-dasharray:3 3" />
<line x1="1363" y1="1" x2="1363" y2="108" style="stroke:#ddd;stroke-width:2;stroke-dasharray:3 3" />
<line x1="1472" y1="1" x2="1472" y2="108" style="stroke:#ddd;stroke-width:2;stroke-dasharray:3 3" />
<line x1="1581" y1="1" x2="1581" y2="108" style="stroke:#ddd;stroke-width:2;stroke-dasharray:3 3" />
<line x1="1690" y1="1" x2="1690" y2="108" style="stroke:#ddd;stroke-width:2;stroke-dasharray:3 3" />
<line x1="1799" y1="1" x2="1799" y2="108" style="stroke:#ddd;stroke-width:2;stroke-dasharray:3 3" />
<line x1="1908" y1="1" x2="1908" y2="108" style="stroke:#ddd;stroke-width:2;stroke-dasharray:3 3" />
<line x1="2017" y1="1" x2="2017" y2="108" style="stroke:#ddd;stroke-width:2;stroke-dasharray:3 3" />
<line x1="2126" y1="1" x2="2126" y2="108" style="stroke:#ddd;stroke-width:2;stroke-dasharray:3 3" />
<line x1="2235" y1="1" x2="2235" y2="108" style="stroke:#ddd;stroke-width:2;stroke-dasharray:3 3" />
<path d="M26.57,13c0.23,1.38,0.06,2.68-0.5,3.91c-2.75,7.57-7.14,14.83-15.84,24.58" style="fill:none;stroke:black;stroke-width:3" />
<circle cx="26.57" cy="13.0" r="5" stroke-width="0" fill="#FF2A00" opacity="0.7" />
<path d="M135.57,13c0.23,1.38,0.06,2.68-0.5,3.91c-2.75,7.57-7.14,14.83-15.84,24.58" style="fill:none;stroke:#999;stroke-width:3" />
<path d="M133.82999999999998,23.96c1.04,0.29,1.72,0.07,3.26-0.21c3.45-0.62,8.29-1.5,11.27-2.23c2.12-0.52,3.61,0.92,1.9,3.48c-3.15,4.73-6,8.25-9.88,14.5" style="fill:none;stroke:black;stroke-width:3" />
<circle cx="133.82999999999998" cy="23.96" r="5" stroke-width="0" fill="#FF2A00" opacity="0.7" />
<path d="M244.57,13c0.23,1.38,0.06,2.68-0.5,3.91c-2.75,7.57-7.14,14.83-15.84,24.58" style="fill:none;stroke:#999;stroke-width:3" />
<path d="M242.82999999999998,23.96c1.04,0.29,1.72,0.07,3.26-0.21c3.45-0.62,8.29-1.5,11.27-2.23c2.12-0.52,3.61,0.92,1.9,3.48c-3.15,4.73-6,8.25-9.88,14.5" style="fill:none;stroke:#999;stroke-width:3" />
<path d="M233.79,41.58c0.69,0.69,0.77,1.77,0.82,2.37c0.64,7.68,1.48,13.68,2.04,20.56c0.25,3.09,0.42,5.37,0.45,5.78" style="fill:none;stroke:black;stroke-width:3" />
<circle cx="233.79" cy="41.58" r="5" stroke-width="0" fill="#FF2A00" opacity="0.7" />
<path d="M353.57,13c0.23,1.38,0.06,2.68-0.5,3.91c-2.75,7.57-7.14,14.83-15.84,24.58" style="fill:none;stroke:#999;stroke-width:3" />
<path d="M351.83,23.96c1.04,0.29,1.72,0.07,3.26-0.21c3.45-0.62,8.29-1.5,11.27-2.23c2.12-0.52,3.61,0.92,1.9,3.48c-3.15,4.73-6,8.25-9.88,14.5" style="fill:none;stroke:#999;stroke-width:3" />
<path d="M342.78999999999996,41.58c0.69,0.69,0.77,1.77,0.82,2.37c0.64,7.68,1.48,13.68,2.04,20.56c0.25,3.09,0.42,5.37,0.45,5.78" style="fill:none;stroke:#999;stroke-width:3" />
<path d="M344.5,43.24c6.26-1.05,16.77-2.38,22.9-3.38c3.47-0.56,5.45-0.59,5.1,3.5c-0.4,4.53-1.22,12.03-2.15,19.4c-0.21,1.7-0.44,3.38-0.66,5.03" style="fill:none;stroke:black;stroke-width:3" />
<circle cx="344.5" cy="43.24" r="5" stroke-width="0" fill="#FF2A00" opacity="0.7" />
<path d="M462.57,13c0.23,1.38,0.06,2.68-0.5,3.91c-2.75,7.57-7.14,14.83-15.84,24.58" style="fill:none;stroke:#999;stroke-width:3" />
<path d="M460.83,23.96c1.04,0.29,1.72,0.07,3.26-0.21c3.45-0.62,8.29-1.5,11.27-2.23c2.12-0.52,3.61,0.92,1.9,3.48c-3.15,4.73-6,8.25-9.88,14.5" style="fill:none;stroke:#999;stroke-width:3" />
<path d="M451.78999999999996,41.58c0.69,0.69,0.77,1.77,0.82,2.37c0.64,7.68,1.48,13.68,2.04,20.56c0.25,3.09,0.42,5.37,0.45,5.78" style="fill:none;stroke:#999;stroke-width:3" />
<path d="M453.5,43.24c6.26-1.05,16.77-2.38,22.9-3.38c3.47-0.56,5.45-0.59,5.1,3.5c-0.4,4.53-1.22,12.03-2.15,19.4c-0.21,1.7-0.44,3.38-0.66,5.03" style="fill:none;stroke:#999;stroke-width:3" />
<path d="M465.71,42.66c1,1,1.21,2.3,1.21,3.85c0,7.99,0.02,15.76,0.02,19.15" style="fill:none;stroke:black;stroke-width:3" />
<circle cx="465.71" cy="42.66" r="5" stroke-width="0" fill="#FF2A00" opacity="0.7" />
<path d="M571.5699999999999,13c0.23,1.38,0.06,2.68-0.5,3.91c-2.75,7.57-7.14,14.83-15.84,24.58" style="fill:none;stroke:#999;stroke-width:3" />
<path d="M569.8299999999999,23.96c1.04,0.29,1.72,0.07,3.26-0.21c3.45-0.62,8.29-1.5,11.27-2.23c2.12-0.52,3.61,0.92,1.9,3.48c-3.15,4.73-6,8.25-9.88,14.5" style="fill:none;stroke:#999;stroke-width:3" />
<path d="M560.79,41.58c0.69,0.69,0.77,1.77,0.82,2.37c0.64,7.68,1.48,13.68,2.04,20.56c0.25,3.09,0.42,5.37,0.45,5.78" style="fill:none;stroke:#999;stroke-width:3" />
<path d="M562.5,43.24c6.26-1.05,16.77-2.38,22.9-3.38c3.47-0.56,5.45-0.59,5.1,3.5c-0.4,4.53-1.22,12.03-2.15,19.4c-0.21,1.7-0.44,3.38-0.66,5.03" style="fill:none;stroke:#999;stroke-width:3" />
<path d="M574.71,42.66c1,1,1.21,2.3,1.21,3.85c0,7.99,0.02,15.76,0.02,19.15" style="fill:none;stroke:#999;stroke-width:3" />
<path d="M564.29,55.37C570.5,54.5,582.38,53,588.57,52.75" style="fill:none;stroke:black;stroke-width:3" />
<circle cx="564.29" cy="55.37" r="5" stroke-width="0" fill="#FF2A00" opacity="0.7" />
<path d="M680.5699999999999,13c0.23,1.38,0.06,2.68-0.5,3.91c-2.75,7.57-7.14,14.83-15.84,24.58" style="fill:none;stroke:#999;stroke-width:3" />
<path d="M678.8299999999999,23.96c1.04,0.29,1.72,0.07,3.26-0.21c3.45-0.62,8.29-1.5,11.27-2.23c2.12-0.52,3.61,0.92,1.9,3.48c-3.15,4.73-6,8.25-9.88,14.5" style="fill:none;stroke:#999;stroke-width:3" />
<path d="M669.79,41.58c0.69,0.69,0.77,1.77,0.82,2.37c0.64,7.68,1.48,13.68,2.04,20.56c0.25,3.09,0.42,5.37,0.45,5.78" style="fill:none;stroke:#999;stroke-width:3" />
<path d="M671.5,43.24c6.26-1.05,16.77-2.38,22.9-3.38c3.47-0.56,5.45-0.59,5.1,3.5c-0.4,4.53-1.22,12.03-2.15,19.4c-0.21,1.7-0.44,3.38-0.66,5.03" style="fill:none;stroke:#999;stroke-width:3" />
<path d="M683.71,42.66c1,1,1.21,2.3,1.21,3.85c0,7.99,0.02,15.76,0.02,19.15" style="fill:none;stroke:#999;stroke-width:3" />
<path d="M673.29,55.37C679.5,54.5,691.38,53,697.57,52.75" style="fill:none;stroke:#999;stroke-width:3" />
<path d="M674.21,68.48c5.91-0.85,14.41-2.35,21.56-2.75" style="fill:none;stroke:black;stroke-width:3" />
<circle cx="674.21" cy="68.48" r="5" stroke-width="0" fill="#FF2A00" opacity="0.7" />
<path d="M789.5699999999999,13c0.23,1.38,0.06,2.68-0.5,3.91c-2.75,7.57-7.14,14.83-15.84,24.58" style="fill:none;stroke:#999;stroke-width:3" />
<path d="M787.8299999999999,23.96c1.04,0.29,1.72,0.07,3.26-0.21c3.45-0.62,8.29-1.5,11.27-2.23c2.12-0.52,3.61,0.92,1.9,3.48c-3.15,4.73-6,8.25-9.88,14.5" style="fill:none;stroke:#999;stroke-width:3" />
<path d="M778.79,41.58c0.69,0.69,0.77,1.77,0.82,2.37c0.64,7.68,1.48,13.68,2.04,20.56c0.25,3.09,0.42,5.37,0.45,5.78" style="fill:none;stroke:#999;stroke-width:3" />
<path d="M780.5,43.24c6.26-1.05,16.77-2.38,22.9-3.38c3.47-0.56,5.45-0.59,5.1,3.5c-0.4,4.53-1.22,12.03-2.15,19.4c-0.21,1.7-0.44,3.38-0.66,5.03" style="fill:none;stroke:#999;stroke-width:3" />
<path d="M792.71,42.66c1,1,1.21,2.3,1.21,3.85c0,7.99,0.02,15.76,0.02,19.15" style="fill:none;stroke:#999;stroke-width:3" />
<path d="M782.29,55.37C788.5,54.5,800.38,53,806.57,52.75" style="fill:none;stroke:#999;stroke-width:3" />
<path d="M783.21,68.48c5.91-0.85,14.41-2.35,21.56-2.75" style="fill:none;stroke:#999;stroke-width:3" />
<path d="M779.27,81.35c0,4.85-3.12,12.02-3.94,13.4" style="fill:none;stroke:black;stroke-width:3" />
<circle cx="779.27" cy="81.35" r="5" stroke-width="0" fill="#FF2A00" opacity="0.7" />
<path d="M898.5699999999999,13c0.23,1.38,0.06,2.68-0.5,3.91c-2.75,7.57-7.14,14.83-15.84,24.58" style="fill:none;stroke:#999;stroke-width:3" />
<path d="M896.8299999999999,23.96c1.04,0.29,1.72,0.07,3.26-0.21c3.45-0.62,8.29-1.5,11.27-2.23c2.12-0.52,3.61,0.92,1.9,3.48c-3.15,4.73-6,8.25-9.88,14.5" style="fill:none;stroke:#999;stroke-width:3" />
<path d="M887.79,41.58c0.69,0.69,0.77,1.77,0.82,2.37c0.64,7.68,1.48,13.68,2.04,20.56c0.25,3.09,0.42,5.37,0.45,5.78" style="fill:none;stroke:#999;stroke-width:3" />
<path d="M889.5,43.24c6.26-1.05,16.77-2.38,22.9-3.38c3.47-0.56,5.45-0.59,5.1,3.5c-0.4,4.53-1.22,12.03-2.15,19.4c-0.21,1.7-0.44,3.38-0.66,5.03" style="fill:none;stroke:#999;stroke-width:3" />
<path d="M901.71,42.66c1,1,1.21,2.3,1.21,3.85c0,7.99,0.02,15.76,0.02,19.15" style="fill:none;stroke:#999;stroke-width:3" />
<path d="M891.29,55.37C897.5,54.5,909.38,53,915.57,52.75" style="fill:none;stroke:#999;stroke-width:3" />
<path d="M892.21,68.48c5.91-0.85,14.41-2.35,21.56-2.75" style="fill:none;stroke:#999;stroke-width:3" />
<path d="M888.27,81.35c0,4.85-3.12,12.02-3.94,13.4" style="fill:none;stroke:#999;stroke-width:3" />
<path d="M895.88,79.88c1.24,2.2,2.42,8.26,2.72,11.69" style="fill:none;stroke:black;stroke-width:3" />
<circle cx="895.88" cy="79.88" r="5" stroke-width="0" fill="#FF2A00" opacity="0.7" />
<path d="M1007.5699999999999,13c0.23,1.38,0.06,2.68-0.5,3.91c-2.75,7.57-7.14,14.83-15.84,24.58" style="fill:none;stroke:#999;stroke-width:3" />
<path d="M1005.8299999999999,23.96c1.04,0.29,1.72,0.07,3.26-0.21c3.45-0.62,8.29-1.5,11.27-2.23c2.12-0.52,3.61,0.92,1.9,3.48c-3.15,4.73-6,8.25-9.88,14.5" style="fill:none;stroke:#999;stroke-width:3" />
<path d="M996.79,41.58c0.69,0.69,0.77,1.77,0.82,2.37c0.64,7.68,1.48,13.68,2.04,20.56c0.25,3.09,0.42,5.37,0.45,5.78" style="fill:none;stroke:#999;stroke-width:3" />
<path d="M998.5,43.24c6.26-1.05,16.77-2.38,22.9-3.38c3.47-0.56,5.45-0.59,5.1,3.5c-0.4,4.53-1.22,12.03-2.15,19.4c-0.21,1.7-0.44,3.38-0.66,5.03" style="fill:none;stroke:#999;stroke-width:3" />
<path d="M1010.71,42.66c1,1,1.21,2.3,1.21,3.85c0,7.99,0.02,15.76,0.02,19.15" style="fill:none;stroke:#999;stroke-width:3" />
<path d="M1000.29,55.37C1006.5,54.5,1018.38,53,1024.5700000000002,52.75" style="fill:none;stroke:#999;stroke-width:3" />
<path d="M1001.21,68.48c5.91-0.85,14.41-2.35,21.56-2.75" style="fill:none;stroke:#999;stroke-width:3" />
<path d="M997.27,81.35c0,4.85-3.12,12.02-3.94,13.4" style="fill:none;stroke:#999;stroke-width:3" />
<path d="M1004.88,79.88c1.24,2.2,2.42,8.26,2.72,11.69" style="fill:none;stroke:#999;stroke-width:3" />
<path d="M1013.68,77.67c1.75,2.05,4.52,8.45,4.96,11.64" style="fill:none;stroke:black;stroke-width:3" />
<circle cx="1013.68" cy="77.67" r="5" stroke-width="0" fill="#FF2A00" opacity="0.7" />
<path d="M1116.57,13c0.23,1.38,0.06,2.68-0.5,3.91c-2.75,7.57-7.14,14.83-15.84,24.58" style="fill:none;stroke:#999;stroke-width:3" />
<path d="M1114.83,23.96c1.04,0.29,1.72,0.07,3.26-0.21c3.45-0.62,8.29-1.5,11.27-2.23c2.12-0.52,3.61,0.92,1.9,3.48c-3.15,4.73-6,8.25-9.88,14.5" style="fill:none;stroke:#999;stroke-width:3" />
<path d="M1105.79,41.58c0.69,0.69,0.77,1.77,0.82,2.37c0.64,7.68,1.48,13.68,2.04,20.56c0.25,3.09,0.42,5.37,0.45,5.78" style="fill:none;stroke:#999;stroke-width:3" />
<path d="M1107.5,43.24c6.26-1.05,16.77-2.38,22.9-3.38c3.47-0.56,5.45-0.59,5.1,3.5c-0.4,4.53-1.22,12.03-2.15,19.4c-0.21,1.7-0.44,3.38-0.66,5.03" style="fill:none;stroke:#999;stroke-width:3" />
<path d="M1119.71,42.66c1,1,1.21,2.3,1.21,3.85c0,7.99,0.02,15.76,0.02,19.15" style="fill:none;stroke:#999;stroke-width:3" />
<path d="M1109.29,55.37C1115.5,54.5,1127.38,53,1133.5700000000002,52.75" style="fill:none;stroke:#999;stroke-width:3" />
<path d="M1110.21,68.48c5.91-0.85,14.41-2.35,21.56-2.75" style="fill:none;stroke:#999;stroke-width:3" />
<path d="M1106.27,81.35c0,4.85-3.12,12.02-3.94,13.4" style="fill:none;stroke:#999;stroke-width:3" />
<path d="M1113.88,79.88c1.24,2.2,2.42,8.26,2.72,11.69" style="fill:none;stroke:#999;stroke-width:3" />
<path d="M1122.6799999999998,77.67c1.75,2.05,4.52,8.45,4.96,11.64" style="fill:none;stroke:#999;stroke-width:3" />
<path d="M1131.22,75.31c1.96,1.84,5.07,7.58,5.55,10.45" style="fill:none;stroke:black;stroke-width:3" />
<circle cx="1131.22" cy="75.31" r="5" stroke-width="0" fill="#FF2A00" opacity="0.7" />
<path d="M1225.57,13c0.23,1.38,0.06,2.68-0.5,3.91c-2.75,7.57-7.14,14.83-15.84,24.58" style="fill:none;stroke:#999;stroke-width:3" />
<path d="M1223.83,23.96c1.04,0.29,1.72,0.07,3.26-0.21c3.45-0.62,8.29-1.5,11.27-2.23c2.12-0.52,3.61,0.92,1.9,3.48c-3.15,4.73-6,8.25-9.88,14.5" style="fill:none;stroke:#999;stroke-width:3" />
<path d="M1214.79,41.58c0.69,0.69,0.77,1.77,0.82,2.37c0.64,7.68,1.48,13.68,2.04,20.56c0.25,3.09,0.42,5.37,0.45,5.78" style="fill:none;stroke:#999;stroke-width:3" />
<path d="M1216.5,43.24c6.26-1.05,16.77-2.38,22.9-3.38c3.47-0.56,5.45-0.59,5.1,3.5c-0.4,4.53-1.22,12.03-2.15,19.4c-0.21,1.7-0.44,3.38-0.66,5.03" style="fill:none;stroke:#999;stroke-width:3" />
<path d="M1228.71,42.66c1,1,1.21,2.3,1.21,3.85c0,7.99,0.02,15.76,0.02,19.15" style="fill:none;stroke:#999;stroke-width:3" />
<path d="M1218.29,55.37C1224.5,54.5,1236.38,53,1242.5700000000002,52.75" style="fill:none;stroke:#999;stroke-width:3" />
<path d="M1219.21,68.48c5.91-0.85,14.41-2.35,21.56-2.75" style="fill:none;stroke:#999;stroke-width:3" />
<path d="M1215.27,81.35c0,4.85-3.12,12.02-3.94,13.4" style="fill:none;stroke:#999;stroke-width:3" />
<path d="M1222.88,79.88c1.24,2.2,2.42,8.26,2.72,11.69" style="fill:none;stroke:#999;stroke-width:3" />
<path d="M1231.6799999999998,77.67c1.75,2.05,4.52,8.45,4.96,11.64" style="fill:none;stroke:#999;stroke-width:3" />
<path d="M1240.22,75.31c1.96,1.84,5.07,7.58,5.55,10.45" style="fill:none;stroke:#999;stroke-width:3" />
<path d="M1249.81,19.41c1.07,0.59,3.01,0.45,3.83,0.2c0.7-0.2,7.97-1.83,11.24-2.7c2.62-0.69,3.63,0.73,3.17,2.85c-0.67,3.06-1.74,9.4-2.76,12.94" style="fill:none;stroke:black;stroke-width:3" />
<circle cx="1249.81" cy="19.41" r="5" stroke-width="0" fill="#FF2A00" opacity="0.7" />
<path d="M1334.57,13c0.23,1.38,0.06,2.68-0.5,3.91c-2.75,7.57-7.14,14.83-15.84,24.58" style="fill:none;stroke:#999;stroke-width:3" />
<path d="M1332.83,23.96c1.04,0.29,1.72,0.07,3.26-0.21c3.45-0.62,8.29-1.5,11.27-2.23c2.12-0.52,3.61,0.92,1.9,3.48c-3.15,4.73-6,8.25-9.88,14.5" style="fill:none;stroke:#999;stroke-width:3" />
<path d="M1323.79,41.58c0.69,0.69,0.77,1.77,0.82,2.37c0.64,7.68,1.48,13.68,2.04,20.56c0.25,3.09,0.42,5.37,0.45,5.78" style="fill:none;stroke:#999;stroke-width:3" />
<path d="M1325.5,43.24c6.26-1.05,16.77-2.38,22.9-3.38c3.47-0.56,5.45-0.59,5.1,3.5c-0.4,4.53-1.22,12.03-2.15,19.4c-0.21,1.7-0.44,3.38-0.66,5.03" style="fill:none;stroke:#999;stroke-width:3" />
<path d="M1337.71,42.66c1,1,1.21,2.3,1.21,3.85c0,7.99,0.02,15.76,0.02,19.15" style="fill:none;stroke:#999;stroke-width:3" />
<path d="M1327.29,55.37C1333.5,54.5,1345.38,53,1351.5700000000002,52.75" style="fill:none;stroke:#999;stroke-width:3" />
<path d="M1328.21,68.48c5.91-0.85,14.41-2.35,21.56-2.75" style="fill:none;stroke:#999;stroke-width:3" />
<path d="M1324.27,81.35c0,4.85-3.12,12.02-3.94,13.4" style="fill:none;stroke:#999;stroke-width:3" />
<path d="M1331.88,79.88c1.24,2.2,2.42,8.26,2.72,11.69" style="fill:none;stroke:#999;stroke-width:3" />
<path d="M1340.6799999999998,77.67c1.75,2.05,4.52,8.45,4.96,11.64" style="fill:none;stroke:#999;stroke-width:3" />
<path d="M1349.22,75.31c1.96,1.84,5.07,7.58,5.55,10.45" style="fill:none;stroke:#999;stroke-width:3" />
<path d="M1358.81,19.41c1.07,0.59,3.01,0.45,3.83,0.2c0.7-0.2,7.97-1.83,11.24-2.7c2.62-0.69,3.63,0.73,3.17,2.85c-0.67,3.06-1.74,9.4-2.76,12.94" style="fill:none;stroke:#999;stroke-width:3" />
<path d="M1361.25,35.5c1.25,0.25,2.27,0.31,3.5,0.17c3.87-0.42,10.4-1.92,11.25-1.92" style="fill:none;stroke:black;stroke-width:3" />
<circle cx="1361.25" cy="35.5" r="5" stroke-width="0" fill="#FF2A00" opacity="0.7" />
<path d="M1443.57,13c0.23,1.38,0.06,2.68-0.5,3.91c-2.75,7.57-7.14,14.83-15.84,24.58" style="fill:none;stroke:#999;stroke-width:3" />
<path d="M1441.83,23.96c1.04,0.29,1.72,0.07,3.26-0.21c3.45-0.62,8.29-1.5,11.27-2.23c2.12-0.52,3.61,0.92,1.9,3.48c-3.15,4.73-6,8.25-9.88,14.5" style="fill:none;stroke:#999;stroke-width:3" />
<path d="M1432.79,41.58c0.69,0.69,0.77,1.77,0.82,2.37c0.64,7.68,1.48,13.68,2.04,20.56c0.25,3.09,0.42,5.37,0.45,5.78" style="fill:none;stroke:#999;stroke-width:3" />
<path d="M1434.5,43.24c6.26-1.05,16.77-2.38,22.9-3.38c3.47-0.56,5.45-0.59,5.1,3.5c-0.4,4.53-1.22,12.03-2.15,19.4c-0.21,1.7-0.44,3.38-0.66,5.03" style="fill:none;stroke:#999;stroke-width:3" />
<path d="M1446.71,42.66c1,1,1.21,2.3,1.21,3.85c0,7.99,0.02,15.76,0.02,19.15" style="fill:none;stroke:#999;stroke-width:3" />
<path d="M1436.29,55.37C1442.5,54.5,1454.38,53,1460.5700000000002,52.75" style="fill:none;stroke:#999;stroke-width:3" />
<path d="M1437.21,68.48c5.91-0.85,14.41-2.35,21.56-2.75" style="fill:none;stroke:#999;stroke-width:3" />
<path d="M1433.27,81.35c0,4.85-3.12,12.02-3.94,13.4" style="fill:none;stroke:#999;stroke-width:3" />
<path d="M1440.88,79.88c1.24,2.2,2.42,8.26,2.72,11.69" style="fill:none;stroke:#999;stroke-width:3" />
<path d="M1449.6799999999998,77.67c1.75,2.05,4.52,8.45,4.96,11.64" style="fill:none;stroke:#999;stroke-width:3" />
<path d="M1458.22,75.31c1.96,1.84,5.07,7.58,5.55,10.45" style="fill:none;stroke:#999;stroke-width:3" />
<path d="M1467.81,19.41c1.07,0.59,3.01,0.45,3.83,0.2c0.7-0.2,7.97-1.83,11.24-2.7c2.62-0.69,3.63,0.73,3.17,2.85c-0.67,3.06-1.74,9.4-2.76,12.94" style="fill:none;stroke:#999;stroke-width:3" />
<path d="M1470.25,35.5c1.25,0.25,2.27,0.31,3.5,0.17c3.87-0.42,10.4-1.92,11.25-1.92" style="fill:none;stroke:#999;stroke-width:3" />
<path d="M1473.1,36.62c0.53,0.88,1.03,2.17,0.49,3.63c-1.34,3.63-3.82,8.84-4.21,9.57c-1.27,2.36,0.07,3.41,2.32,2.68c2.79-0.92,7.42-1.95,10.07-2.39c2.93-0.49,4.1-0.05,4.17,3.15c0.27,13.31-0.25,26.34-3.1,36.57c-1.52,5.45-3.82,8.14-8.34,3.23" style="fill:none;stroke:black;stroke-width:3" />
<circle cx="1473.1" cy="36.62" r="5" stroke-width="0" fill="#FF2A00" opacity="0.7" />
<path d="M1552.57,13c0.23,1.38,0.06,2.68-0.5,3.91c-2.75,7.57-7.14,14.83-15.84,24.58" style="fill:none;stroke:#999;stroke-width:3" />
<path d="M1550.83,23.96c1.04,0.29,1.72,0.07,3.26-0.21c3.45-0.62,8.29-1.5,11.27-2.23c2.12-0.52,3.61,0.92,1.9,3.48c-3.15,4.73-6,8.25-9.88,14.5" style="fill:none;stroke:#999;stroke-width:3" />
<path d="M1541.79,41.58c0.69,0.69,0.77,1.77,0.82,2.37c0.64,7.68,1.48,13.68,2.04,20.56c0.25,3.09,0.42,5.37,0.45,5.78" style="fill:none;stroke:#999;stroke-width:3" />
<path d="M1543.5,43.24c6.26-1.05,16.77-2.38,22.9-3.38c3.47-0.56,5.45-0.59,5.1,3.5c-0.4,4.53-1.22,12.03-2.15,19.4c-0.21,1.7-0.44,3.38-0.66,5.03" style="fill:none;stroke:#999;stroke-width:3" />
<path d="M1555.71,42.66c1,1,1.21,2.3,1.21,3.85c0,7.99,0.02,15.76,0.02,19.15" style="fill:none;stroke:#999;stroke-width:3" />
<path d="M1545.29,55.37C1551.5,54.5,1563.38,53,1569.5700000000002,52.75" style="fill:none;stroke:#999;stroke-width:3" />
<path d="M1546.21,68.48c5.91-0.85,14.41-2.35,21.56-2.75" style="fill:none;stroke:#999;stroke-width:3" />
<path d="M1542.27,81.35c0,4.85-3.12,12.02-3.94,13.4" style="fill:none;stroke:#999;stroke-width:3" />
<path d="M1549.88,79.88c1.24,2.2,2.42,8.26,2.72,11.69" style="fill:none;stroke:#999;stroke-width:3" />
<path d="M1558.6799999999998,77.67c1.75,2.05,4.52,8.45,4.96,11.64" style="fill:none;stroke:#999;stroke-width:3" />
<path d="M1567.22,75.31c1.96,1.84,5.07,7.58,5.55,10.45" style="fill:none;stroke:#999;stroke-width:3" />
<path d="M1576.81,19.41c1.07,0.59,3.01,0.45,3.83,0.2c0.7-0.2,7.97-1.83,11.24-2.7c2.62-0.69,3.63,0.73,3.17,2.85c-0.67,3.06-1.74,9.4-2.76,12.94" style="fill:none;stroke:#999;stroke-width:3" />
<path d="M1579.25,35.5c1.25,0.25,2.27,0.31,3.5,0.17c3.87-0.42,10.4-1.92,11.25-1.92" style="fill:none;stroke:#999;stroke-width:3" />
<path d="M1582.1,36.62c0.53,0.88,1.03,2.17,0.49,3.63c-1.34,3.63-3.82,8.84-4.21,9.57c-1.27,2.36,0.07,3.41,2.32,2.68c2.79-0.92,7.42-1.95,10.07-2.39c2.93-0.49,4.1-0.05,4.17,3.15c0.27,13.31-0.25,26.34-3.1,36.57c-1.52,5.45-3.82,8.14-8.34,3.23" style="fill:none;stroke:#999;stroke-width:3" />
<path d="M1578.5,60.5c2.17,1.32,5.6,5.43,6.14,7.49" style="fill:none;stroke:black;stroke-width:3" />
<circle cx="1578.5" cy="60.5" r="5" stroke-width="0" fill="#FF2A00" opacity="0.7" />
<path d="M1661.57,13c0.23,1.38,0.06,2.68-0.5,3.91c-2.75,7.57-7.14,14.83-15.84,24.58" style="fill:none;stroke:#999;stroke-width:3" />
<path d="M1659.83,23.96c1.04,0.29,1.72,0.07,3.26-0.21c3.45-0.62,8.29-1.5,11.27-2.23c2.12-0.52,3.61,0.92,1.9,3.48c-3.15,4.73-6,8.25-9.88,14.5" style="fill:none;stroke:#999;stroke-width:3" />
<path d="M1650.79,41.58c0.69,0.69,0.77,1.77,0.82,2.37c0.64,7.68,1.48,13.68,2.04,20.56c0.25,3.09,0.42,5.37,0.45,5.78" style="fill:none;stroke:#999;stroke-width:3" />
<path d="M1652.5,43.24c6.26-1.05,16.77-2.38,22.9-3.38c3.47-0.56,5.45-0.59,5.1,3.5c-0.4,4.53-1.22,12.03-2.15,19.4c-0.21,1.7-0.44,3.38-0.66,5.03" style="fill:none;stroke:#999;stroke-width:3" />
<path d="M1664.71,42.66c1,1,1.21,2.3,1.21,3.85c0,7.99,0.02,15.76,0.02,19.15" style="fill:none;stroke:#999;stroke-width:3" />
<path d="M1654.29,55.37C1660.5,54.5,1672.38,53,1678.5700000000002,52.75" style="fill:none;stroke:#999;stroke-width:3" />
<path d="M1655.21,68.48c5.91-0.85,14.41-2.35,21.56-2.75" style="fill:none;stroke:#999;stroke-width:3" />
<path d="M1651.27,81.35c0,4.85-3.12,12.02-3.94,13.4" style="fill:none;stroke:#999;stroke-width:3" />
<path d="M1658.88,79.88c1.24,2.2,2.42,8.26,2.72,11.69" style="fill:none;stroke:#999;stroke-width:3" />
<path d="M1667.6799999999998,77.67c1.75,2.05,4.52,8.45,4.96,11.64" style="fill:none;stroke:#999;stroke-width:3" />
<path d="M1676.22,75.31c1.96,1.84,5.07,7.58,5.55,10.45" style="fill:none;stroke:#999;stroke-width:3" />
<path d="M1685.81,19.41c1.07,0.59,3.01,0.45,3.83,0.2c0.7-0.2,7.97-1.83,11.24-2.7c2.62-0.69,3.63,0.73,3.17,2.85c-0.67,3.06-1.74,9.4-2.76,12.94" style="fill:none;stroke:#999;stroke-width:3" />
<path d="M1688.25,35.5c1.25,0.25,2.27,0.31,3.5,0.17c3.87-0.42,10.4-1.92,11.25-1.92" style="fill:none;stroke:#999;stroke-width:3" />
<path d="M1691.1,36.62c0.53,0.88,1.03,2.17,0.49,3.63c-1.34,3.63-3.82,8.84-4.21,9.57c-1.27,2.36,0.07,3.41,2.32,2.68c2.79-0.92,7.42-1.95,10.07-2.39c2.93-0.49,4.1-0.05,4.17,3.15c0.27,13.31-0.25,26.34-3.1,36.57c-1.52,5.45-3.82,8.14-8.34,3.23" style="fill:none;stroke:#999;stroke-width:3" />
<path d="M1687.5,60.5c2.17,1.32,5.6,5.43,6.14,7.49" style="fill:none;stroke:#999;stroke-width:3" />
<path d="M1686.38,79.25c1.61,0.6,2.85,0.39,3.74-0.64c1.26-1.22,4.38-4.26,8.57-7.61" style="fill:none;stroke:black;stroke-width:3" />
<circle cx="1686.38" cy="79.25" r="5" stroke-width="0" fill="#FF2A00" opacity="0.7" />
<path d="M1770.57,13c0.23,1.38,0.06,2.68-0.5,3.91c-2.75,7.57-7.14,14.83-15.84,24.58" style="fill:none;stroke:#999;stroke-width:3" />
<path d="M1768.83,23.96c1.04,0.29,1.72,0.07,3.26-0.21c3.45-0.62,8.29-1.5,11.27-2.23c2.12-0.52,3.61,0.92,1.9,3.48c-3.15,4.73-6,8.25-9.88,14.5" style="fill:none;stroke:#999;stroke-width:3" />
<path d="M1759.79,41.58c0.69,0.69,0.77,1.77,0.82,2.37c0.64,7.68,1.48,13.68,2.04,20.56c0.25,3.09,0.42,5.37,0.45,5.78" style="fill:none;stroke:#999;stroke-width:3" />
<path d="M1761.5,43.24c6.26-1.05,16.77-2.38,22.9-3.38c3.47-0.56,5.45-0.59,5.1,3.5c-0.4,4.53-1.22,12.03-2.15,19.4c-0.21,1.7-0.44,3.38-0.66,5.03" style="fill:none;stroke:#999;stroke-width:3" />
<path d="M1773.71,42.66c1,1,1.21,2.3,1.21,3.85c0,7.99,0.02,15.76,0.02,19.15" style="fill:none;stroke:#999;stroke-width:3" />
<path d="M1763.29,55.37C1769.5,54.5,1781.38,53,1787.5700000000002,52.75" style="fill:none;stroke:#999;stroke-width:3" />
<path d="M1764.21,68.48c5.91-0.85,14.41-2.35,21.56-2.75" style="fill:none;stroke:#999;stroke-width:3" />
<path d="M1760.27,81.35c0,4.85-3.12,12.02-3.94,13.4" style="fill:none;stroke:#999;stroke-width:3" />
<path d="M1767.88,79.88c1.24,2.2,2.42,8.26,2.72,11.69" style="fill:none;stroke:#999;stroke-width:3" />
<path d="M1776.6799999999998,77.67c1.75,2.05,4.52,8.45,4.96,11.64" style="fill:none;stroke:#999;stroke-width:3" />
<path d="M1785.22,75.31c1.96,1.84,5.07,7.58,5.55,10.45" style="fill:none;stroke:#999;stroke-width:3" />
<path d="M1794.81,19.41c1.07,0.59,3.01,0.45,3.83,0.2c0.7-0.2,7.97-1.83,11.24-2.7c2.62-0.69,3.63,0.73,3.17,2.85c-0.67,3.06-1.74,9.4-2.76,12.94" style="fill:none;stroke:#999;stroke-width:3" />
<path d="M1797.25,35.5c1.25,0.25,2.27,0.31,3.5,0.17c3.87-0.42,10.4-1.92,11.25-1.92" style="fill:none;stroke:#999;stroke-width:3" />
<path d="M1800.1,36.62c0.53,0.88,1.03,2.17,0.49,3.63c-1.34,3.63-3.82,8.84-4.21,9.57c-1.27,2.36,0.07,3.41,2.32,2.68c2.79-0.92,7.42-1.95,10.07-2.39c2.93-0.49,4.1-0.05,4.17,3.15c0.27,13.31-0.25,26.34-3.1,36.57c-1.52,5.45-3.82,8.14-8.34,3.23" style="fill:none;stroke:#999;stroke-width:3" />
<path d="M1796.5,60.5c2.17,1.32,5.6,5.43,6.14,7.49" style="fill:none;stroke:#999;stroke-width:3" />
<path d="M1795.38,79.25c1.61,0.6,2.85,0.39,3.74-0.64c1.26-1.22,4.38-4.26,8.57-7.61" style="fill:none;stroke:#999;stroke-width:3" />
<path d="M1819.31,16.16c1.69,0.72,3.01,0.7,3.83,0.45c0.67-0.2,7.09-1.48,10.39-2.34c2.27-0.6,3.75,0.3,3.29,3.14c-0.49,3.05-1.07,7.34-2.03,12.29" style="fill:none;stroke:black;stroke-width:3" />
<circle cx="1819.31" cy="16.16" r="5" stroke-width="0" fill="#FF2A00" opacity="0.7" />
<path d="M1879.57,13c0.23,1.38,0.06,2.68-0.5,3.91c-2.75,7.57-7.14,14.83-15.84,24.58" style="fill:none;stroke:#999;stroke-width:3" />
<path d="M1877.83,23.96c1.04,0.29,1.72,0.07,3.26-0.21c3.45-0.62,8.29-1.5,11.27-2.23c2.12-0.52,3.61,0.92,1.9,3.48c-3.15,4.73-6,8.25-9.88,14.5" style="fill:none;stroke:#999;stroke-width:3" />
<path d="M1868.79,41.58c0.69,0.69,0.77,1.77,0.82,2.37c0.64,7.68,1.48,13.68,2.04,20.56c0.25,3.09,0.42,5.37,0.45,5.78" style="fill:none;stroke:#999;stroke-width:3" />
<path d="M1870.5,43.24c6.26-1.05,16.77-2.38,22.9-3.38c3.47-0.56,5.45-0.59,5.1,3.5c-0.4,4.53-1.22,12.03-2.15,19.4c-0.21,1.7-0.44,3.38-0.66,5.03" style="fill:none;stroke:#999;stroke-width:3" />
<path d="M1882.71,42.66c1,1,1.21,2.3,1.21,3.85c0,7.99,0.02,15.76,0.02,19.15" style="fill:none;stroke:#999;stroke-width:3" />
<path d="M1872.29,55.37C1878.5,54.5,1890.38,53,1896.5700000000002,52.75" style="fill:none;stroke:#999;stroke-width:3" />
<path d="M1873.21,68.48c5.91-0.85,14.41-2.35,21.56-2.75" style="fill:none;stroke:#999;stroke-width:3" />
<path d="M1869.27,81.35c0,4.85-3.12,12.02-3.94,13.4" style="fill:none;stroke:#999;stroke-width:3" />
<path d="M1876.88,79.88c1.24,2.2,2.42,8.26,2.72,11.69" style="fill:none;stroke:#999;stroke-width:3" />
<path d="M1885.6799999999998,77.67c1.75,2.05,4.52,8.45,4.96,11.64" style="fill:none;stroke:#999;stroke-width:3" />
<path d="M1894.22,75.31c1.96,1.84,5.07,7.58,5.55,10.45" style="fill:none;stroke:#999;stroke-width:3" />
<path d="M1903.81,19.41c1.07,0.59,3.01,0.45,3.83,0.2c0.7-0.2,7.97-1.83,11.24-2.7c2.62-0.69,3.63,0.73,3.17,2.85c-0.67,3.06-1.74,9.4-2.76,12.94" style="fill:none;stroke:#999;stroke-width:3" />
<path d="M1906.25,35.5c1.25,0.25,2.27,0.31,3.5,0.17c3.87-0.42,10.4-1.92,11.25-1.92" style="fill:none;stroke:#999;stroke-width:3" />
<path d="M1909.1,36.62c0.53,0.88,1.03,2.17,0.49,3.63c-1.34,3.63-3.82,8.84-4.21,9.57c-1.27,2.36,0.07,3.41,2.32,2.68c2.79-0.92,7.42-1.95,10.07-2.39c2.93-0.49,4.1-0.05,4.17,3.15c0.27,13.31-0.25,26.34-3.1,36.57c-1.52,5.45-3.82,8.14-8.34,3.23" style="fill:none;stroke:#999;stroke-width:3" />
<path d="M1905.5,60.5c2.17,1.32,5.6,5.43,6.14,7.49" style="fill:none;stroke:#999;stroke-width:3" />
<path d="M1904.38,79.25c1.61,0.6,2.85,0.39,3.74-0.64c1.26-1.22,4.38-4.26,8.57-7.61" style="fill:none;stroke:#999;stroke-width:3" />
<path d="M1928.31,16.16c1.69,0.72,3.01,0.7,3.83,0.45c0.67-0.2,7.09-1.48,10.39-2.34c2.27-0.6,3.75,0.3,3.29,3.14c-0.49,3.05-1.07,7.34-2.03,12.29" style="fill:none;stroke:#999;stroke-width:3" />
<path d="M1928.5,32.75c0.54,0,2.25,0.31,4.4,0.05c4.85-0.59,11.91-2.05,12.6-2.05" style="fill:none;stroke:black;stroke-width:3" />
<circle cx="1928.5" cy="32.75" r="5" stroke-width="0" fill="#FF2A00" opacity="0.7" />
<path d="M1988.57,13c0.23,1.38,0.06,2.68-0.5,3.91c-2.75,7.57-7.14,14.83-15.84,24.58" style="fill:none;stroke:#999;stroke-width:3" />
<path d="M1986.83,23.96c1.04,0.29,1.72,0.07,3.26-0.21c3.45-0.62,8.29-1.5,11.27-2.23c2.12-0.52,3.61,0.92,1.9,3.48c-3.15,4.73-6,8.25-9.88,14.5" style="fill:none;stroke:#999;stroke-width:3" />
<path d="M1977.79,41.58c0.69,0.69,0.77,1.77,0.82,2.37c0.64,7.68,1.48,13.68,2.04,20.56c0.25,3.09,0.42,5.37,0.45,5.78" style="fill:none;stroke:#999;stroke-width:3" />
<path d="M1979.5,43.24c6.26-1.05,16.77-2.38,22.9-3.38c3.47-0.56,5.45-0.59,5.1,3.5c-0.4,4.53-1.22,12.03-2.15,19.4c-0.21,1.7-0.44,3.38-0.66,5.03" style="fill:none;stroke:#999;stroke-width:3" />
<path d="M1991.71,42.66c1,1,1.21,2.3,1.21,3.85c0,7.99,0.02,15.76,0.02,19.15" style="fill:none;stroke:#999;stroke-width:3" />
<path d="M1981.29,55.37C1987.5,54.5,1999.38,53,2005.5700000000002,52.75" style="fill:none;stroke:#999;stroke-width:3" />
<path d="M1982.21,68.48c5.91-0.85,14.41-2.35,21.56-2.75" style="fill:none;stroke:#999;stroke-width:3" />
<path d="M1978.27,81.35c0,4.85-3.12,12.02-3.94,13.4" style="fill:none;stroke:#999;stroke-width:3" />
<path d="M1985.88,79.88c1.24,2.2,2.42,8.26,2.72,11.69" style="fill:none;stroke:#999;stroke-width:3" />
<path d="M1994.6799999999998,77.67c1.75,2.05,4.52,8.45,4.96,11.64" style="fill:none;stroke:#999;stroke-width:3" />
<path d="M2003.22,75.31c1.96,1.84,5.07,7.58,5.55,10.45" style="fill:none;stroke:#999;stroke-width:3" />
<path d="M2012.81,19.41c1.07,0.59,3.01,0.45,3.83,0.2c0.7-0.2,7.97-1.83,11.24-2.7c2.62-0.69,3.63,0.73,3.17,2.85c-0.67,3.06-1.74,9.4-2.76,12.94" style="fill:none;stroke:#999;stroke-width:3" />
<path d="M2015.25,35.5c1.25,0.25,2.27,0.31,3.5,0.17c3.87-0.42,10.4-1.92,11.25-1.92" style="fill:none;stroke:#999;stroke-width:3" />
<path d="M2018.1,36.62c0.53,0.88,1.03,2.17,0.49,3.63c-1.34,3.63-3.82,8.84-4.21,9.57c-1.27,2.36,0.07,3.41,2.32,2.68c2.79-0.92,7.42-1.95,10.07-2.39c2.93-0.49,4.1-0.05,4.17,3.15c0.27,13.31-0.25,26.34-3.1,36.57c-1.52,5.45-3.82,8.14-8.34,3.23" style="fill:none;stroke:#999;stroke-width:3" />
<path d="M2014.5,60.5c2.17,1.32,5.6,5.43,6.14,7.49" style="fill:none;stroke:#999;stroke-width:3" />
<path d="M2013.38,79.25c1.61,0.6,2.85,0.39,3.74-0.64c1.26-1.22,4.38-4.26,8.57-7.61" style="fill:none;stroke:#999;stroke-width:3" />
<path d="M2037.31,16.16c1.69,0.72,3.01,0.7,3.83,0.45c0.67-0.2,7.09-1.48,10.39-2.34c2.27-0.6,3.75,0.3,3.29,3.14c-0.49,3.05-1.07,7.34-2.03,12.29" style="fill:none;stroke:#999;stroke-width:3" />
<path d="M2037.5,32.75c0.54,0,2.25,0.31,4.4,0.05c4.85-0.59,11.91-2.05,12.6-2.05" style="fill:none;stroke:#999;stroke-width:3" />
<path d="M2040.6,33.87c0.65,0.76,0.93,2.14,0.49,3.63c-0.84,2.88-2.32,7.09-2.71,7.82c-1.3,2.42,0.1,3.34,2.34,2.71c3.17-0.88,9.27-1.68,12.24-2.01c3.25-0.35,3.97,0.21,3.98,3.23c0.05,15.11-0.82,28.01-3.52,39.35c-1.32,5.54-5.05,7.78-8.67,4.2" style="fill:none;stroke:black;stroke-width:3" />
<circle cx="2040.6" cy="33.87" r="5" stroke-width="0" fill="#FF2A00" opacity="0.7" />
<path d="M2097.5699999999997,13c0.23,1.38,0.06,2.68-0.5,3.91c-2.75,7.57-7.14,14.83-15.84,24.58" style="fill:none;stroke:#999;stroke-width:3" />
<path d="M2095.83,23.96c1.04,0.29,1.72,0.07,3.26-0.21c3.45-0.62,8.29-1.5,11.27-2.23c2.12-0.52,3.61,0.92,1.9,3.48c-3.15,4.73-6,8.25-9.88,14.5" style="fill:none;stroke:#999;stroke-width:3" />
<path d="M2086.79,41.58c0.69,0.69,0.77,1.77,0.82,2.37c0.64,7.68,1.48,13.68,2.04,20.56c0.25,3.09,0.42,5.37,0.45,5.78" style="fill:none;stroke:#999;stroke-width:3" />
<path d="M2088.5,43.24c6.26-1.05,16.77-2.38,22.9-3.38c3.47-0.56,5.45-0.59,5.1,3.5c-0.4,4.53-1.22,12.03-2.15,19.4c-0.21,1.7-0.44,3.38-0.66,5.03" style="fill:none;stroke:#999;stroke-width:3" />
<path d="M2100.71,42.66c1,1,1.21,2.3,1.21,3.85c0,7.99,0.02,15.76,0.02,19.15" style="fill:none;stroke:#999;stroke-width:3" />
<path d="M2090.29,55.37C2096.5,54.5,2108.38,53,2114.57,52.75" style="fill:none;stroke:#999;stroke-width:3" />
<path d="M2091.21,68.48c5.91-0.85,14.41-2.35,21.56-2.75" style="fill:none;stroke:#999;stroke-width:3" />
<path d="M2087.27,81.35c0,4.85-3.12,12.02-3.94,13.4" style="fill:none;stroke:#999;stroke-width:3" />
<path d="M2094.88,79.88c1.24,2.2,2.42,8.26,2.72,11.69" style="fill:none;stroke:#999;stroke-width:3" />
<path d="M2103.68,77.67c1.75,2.05,4.52,8.45,4.96,11.64" style="fill:none;stroke:#999;stroke-width:3" />
<path d="M2112.2200000000003,75.31c1.96,1.84,5.07,7.58,5.55,10.45" style="fill:none;stroke:#999;stroke-width:3" />
<path d="M2121.81,19.41c1.07,0.59,3.01,0.45,3.83,0.2c0.7-0.2,7.97-1.83,11.24-2.7c2.62-0.69,3.63,0.73,3.17,2.85c-0.67,3.06-1.74,9.4-2.76,12.94" style="fill:none;stroke:#999;stroke-width:3" />
<path d="M2124.25,35.5c1.25,0.25,2.27,0.31,3.5,0.17c3.87-0.42,10.4-1.92,11.25-1.92" style="fill:none;stroke:#999;stroke-width:3" />
<path d="M2127.1,36.62c0.53,0.88,1.03,2.17,0.49,3.63c-1.34,3.63-3.82,8.84-4.21,9.57c-1.27,2.36,0.07,3.41,2.32,2.68c2.79-0.92,7.42-1.95,10.07-2.39c2.93-0.49,4.1-0.05,4.17,3.15c0.27,13.31-0.25,26.34-3.1,36.57c-1.52,5.45-3.82,8.14-8.34,3.23" style="fill:none;stroke:#999;stroke-width:3" />
<path d="M2123.5,60.5c2.17,1.32,5.6,5.43,6.14,7.49" style="fill:none;stroke:#999;stroke-width:3" />
<path d="M2122.38,79.25c1.61,0.6,2.85,0.39,3.74-0.64c1.26-1.22,4.38-4.26,8.57-7.61" style="fill:none;stroke:#999;stroke-width:3" />
<path d="M2146.31,16.16c1.69,0.72,3.01,0.7,3.83,0.45c0.67-0.2,7.09-1.48,10.39-2.34c2.27-0.6,3.75,0.3,3.29,3.14c-0.49,3.05-1.07,7.34-2.03,12.29" style="fill:none;stroke:#999;stroke-width:3" />
<path d="M2146.5,32.75c0.54,0,2.25,0.31,4.4,0.05c4.85-0.59,11.91-2.05,12.6-2.05" style="fill:none;stroke:#999;stroke-width:3" />
<path d="M2149.6,33.87c0.65,0.76,0.93,2.14,0.49,3.63c-0.84,2.88-2.32,7.09-2.71,7.82c-1.3,2.42,0.1,3.34,2.34,2.71c3.17-0.88,9.27-1.68,12.24-2.01c3.25-0.35,3.97,0.21,3.98,3.23c0.05,15.11-0.82,28.01-3.52,39.35c-1.32,5.54-5.05,7.78-8.67,4.2" style="fill:none;stroke:#999;stroke-width:3" />
<path d="M2149.25,57.5c2.34,1.5,6.06,6.16,6.64,8.49" style="fill:none;stroke:black;stroke-width:3" />
<circle cx="2149.25" cy="57.5" r="5" stroke-width="0" fill="#FF2A00" opacity="0.7" />
<path d="M2206.5699999999997,13c0.23,1.38,0.06,2.68-0.5,3.91c-2.75,7.57-7.14,14.83-15.84,24.58" style="fill:none;stroke:#999;stroke-width:3" />
<path d="M2204.83,23.96c1.04,0.29,1.72,0.07,3.26-0.21c3.45-0.62,8.29-1.5,11.27-2.23c2.12-0.52,3.61,0.92,1.9,3.48c-3.15,4.73-6,8.25-9.88,14.5" style="fill:none;stroke:#999;stroke-width:3" />
<path d="M2195.79,41.58c0.69,0.69,0.77,1.77,0.82,2.37c0.64,7.68,1.48,13.68,2.04,20.56c0.25,3.09,0.42,5.37,0.45,5.78" style="fill:none;stroke:#999;stroke-width:3" />
<path d="M2197.5,43.24c6.26-1.05,16.77-2.38,22.9-3.38c3.47-0.56,5.45-0.59,5.1,3.5c-0.4,4.53-1.22,12.03-2.15,19.4c-0.21,1.7-0.44,3.38-0.66,5.03" style="fill:none;stroke:#999;stroke-width:3" />
<path d="M2209.71,42.66c1,1,1.21,2.3,1.21,3.85c0,7.99,0.02,15.76,0.02,19.15" style="fill:none;stroke:#999;stroke-width:3" />
<path d="M2199.29,55.37C2205.5,54.5,2217.38,53,2223.57,52.75" style="fill:none;stroke:#999;stroke-width:3" />
<path d="M2200.21,68.48c5.91-0.85,14.41-2.35,21.56-2.75" style="fill:none;stroke:#999;stroke-width:3" />
<path d="M2196.27,81.35c0,4.85-3.12,12.02-3.94,13.4" style="fill:none;stroke:#999;stroke-width:3" />
<path d="M2203.88,79.88c1.24,2.2,2.42,8.26,2.72,11.69" style="fill:none;stroke:#999;stroke-width:3" />
<path d="M2212.68,77.67c1.75,2.05,4.52,8.45,4.96,11.64" style="fill:none;stroke:#999;stroke-width:3" />
<path d="M2221.2200000000003,75.31c1.96,1.84,5.07,7.58,5.55,10.45" style="fill:none;stroke:#999;stroke-width:3" />
<path d="M2230.81,19.41c1.07,0.59,3.01,0.45,3.83,0.2c0.7-0.2,7.97-1.83,11.24-2.7c2.62-0.69,3.63,0.73,3.17,2.85c-0.67,3.06-1.74,9.4-2.76,12.94" style="fill:none;stroke:#999;stroke-width:3" />
<path d="M2233.25,35.5c1.25,0.25,2.27,0.31,3.5,0.17c3.87-0.42,10.4-1.92,11.25-1.92" style="fill:none;stroke:#999;stroke-width:3" />
<path d="M2236.1,36.62c0.53,0.88,1.03,2.17,0.49,3.63c-1.34,3.63-3.82,8.84-4.21,9.57c-1.27,2.36,0.07,3.41,2.32,2.68c2.79-0.92,7.42-1.95,10.07-2.39c2.93-0.49,4.1-0.05,4.17,3.15c0.27,13.31-0.25,26.34-3.1,36.57c-1.52,5.45-3.82,8.14-8.34,3.23" style="fill:none;stroke:#999;stroke-width:3" />
<path d="M2232.5,60.5c2.17,1.32,5.6,5.43,6.14,7.49" style="fill:none;stroke:#999;stroke-width:3" />
<path d="M2231.38,79.25c1.61,0.6,2.85,0.39,3.74-0.64c1.26-1.22,4.38-4.26,8.57-7.61" style="fill:none;stroke:#999;stroke-width:3" />
<path d="M2255.31,16.16c1.69,0.72,3.01,0.7,3.83,0.45c0.67-0.2,7.09-1.48,10.39-2.34c2.27-0.6,3.75,0.3,3.29,3.14c-0.49,3.05-1.07,7.34-2.03,12.29" style="fill:none;stroke:#999;stroke-width:3" />
<path d="M2255.5,32.75c0.54,0,2.25,0.31,4.4,0.05c4.85-0.59,11.91-2.05,12.6-2.05" style="fill:none;stroke:#999;stroke-width:3" />
<path d="M2258.6,33.87c0.65,0.76,0.93,2.14,0.49,3.63c-0.84,2.88-2.32,7.09-2.71,7.82c-1.3,2.42,0.1,3.34,2.34,2.71c3.17-0.88,9.27-1.68,12.24-2.01c3.25-0.35,3.97,0.21,3.98,3.23c0.05,15.11-0.82,28.01-3.52,39.35c-1.32,5.54-5.05,7.78-8.67,4.2" style="fill:none;stroke:#999;stroke-width:3" />
<path d="M2258.25,57.5c2.34,1.5,6.06,6.16,6.64,8.49" style="fill:none;stroke:#999;stroke-width:3" />
<path d="M2255.25,79.77c1.81,0.67,3.23,0.41,4.25-0.77c1.38-1.3,4.52-4.25,8.69-7.5" style="fill:none;stroke:black;stroke-width:3" />
<circle cx="2255.25" cy="79.77" r="5" stroke-width="0" fill="#FF2A00" opacity="0.7" />
</svg>