<svg width="436px" height="109px" viewBox="0 0 436px 109px" xmlns="http://www.w3.org/2000/svg" xmlns:xlink="http://www.w3.org/1999/xlink" xml:space="preserve" version="1.1"  baseProfile="full">
<line x1="1" y1="1" x2="435" y2="1" style="stroke:#ddd;stroke-width:2" />
<line x1="1" y1="1" x2="1" y2="108" style="stroke:#ddd;stroke-width:2" />
<line x1="1" y1="108" x2="435" y2="108" style="stroke:#ddd;stroke-width:2" />
<line x1="435" y1="1" x2="435" y2="108" style="stroke:#ddd;stroke-width:2" />
<line x1="109" y1="1" x2="109" y2="108" style="stroke:#ddd;stroke-width:2" />
<line x1="218" y1="1" x2="218" y2="108" style="stroke:#ddd;stroke-width:2" />
<line x1="327" y1="1" x2="327" y2="108" style="stroke:#ddd;stroke-width:2" />
<line x1="1" y1="54" x2="435" y2="54" style="stroke:#ddd;stroke-width:2;stroke-dasharray:3 3" />
<line x1="55" y1="1" x2="55" y2="108" style="stroke:#ddd;stroke-width:2;stroke-dasharray:3 3" />
<line x1="164" y1="1" x2="164" y2="108" style="stroke:#ddd;stroke-width:2;stroke-dasharray:3 3" />
<line x1="273" y1="1" x2="273" y2="108" style="stroke:#ddd;stroke-width:2;stroke-dasharray:3 3" />
<line x1="382" y1="1" x2="382" y2="108" style="stroke:#ddd;stroke-width:2;stroke-dasharray:3 3" />
<path d="M9.12,15.17c6,22.4,17.91,67.63,20.52,77.31" style="fill:none;stroke:black;stroke-width:3" />
<circle cx="9.12" cy="15.17" r="5" stroke-width="0" fill="#FF2A00" opacity="0.7" />
<path d="M118.12,15.17c6,22.4,17.91,67.63,20.52,77.31" style="fill:none;stroke:#999;stroke-width:3" />
<path d="M161.57999999999998,15.5C157.4,30.84,143.7,80.44,140.26,92.56" style="fill:none;stroke:black;stroke-width:3" />
<circle cx="161.57999999999998" cy="15.5" r="5" stroke-width="0" fill="#FF2A00" opacity="0.7" />
<path d="M227.12,15.17c6,22.4,17.91,67.63,20.52,77.31" style="fill:none;stroke:#999;stroke-width:3" />
<path d="M270.58,15.5C266.4,30.84,252.7,80.44,249.26,92.56" style="fill:none;stroke:#999;stroke-width:3" />
<path d="M272.59000000000003,15.52c6.29,22.4,18.79,67.63,21.53,77.31" style="fill:none;stroke:black;stroke-width:3" />
<circle cx="272.59000000000003" cy="15.52" r="5" stroke-width="0" fill="#FF2A00" opacity="0.7" />
<path d="M336.12,15.17c6,22.4,17.91,67.63,20.52,77.31" style="fill:none;stroke:#999;stroke-width:3" />
<path d="M379.58,15.5C375.4,30.84,361.7,80.44,358.26,92.56" style="fill:none;stroke:#999;stroke-width:3" />
<path d="M381.59000000000003,15.52c6.29,22.4,18.79,67.63,21.53,77.31" style="fill:none;stroke:#999;stroke-width:3" />
<path d="M425.34000000000003,15.85c-4.09,15.34-17.51,64.94-20.89,77.06" style="fill:none;stroke:black;stroke-width:3" />
<circle cx="425.34000000000003" cy="15.85" r="5" stroke-width="0" fill="#FF2A00" opacity="0.7" />
</svg>