<svg width="327px" height="109px" viewBox="0 0 327px 109px" xmlns="http://www.w3.org/2000/svg" xmlns:xlink="http://www.w3.org/1999/xlink" xml:space="preserve" version="1.1"  baseProfile="full">
<line x1="1" y1="1" x2="326" y2="1" style="stroke:#ddd;stroke-width:2" />
<line x1="1" y1="1" x2="1" y2="108" style="stroke:#ddd;stroke-width:2" />
<line x1="1" y1="108" x2="326" y2="108" style="stroke:#ddd;stroke-width:2" />
<line x1="326" y1="1" x2="326" y2="108" style="stroke:#ddd;stroke-width:2" />
<line x1="109" y1="1" x2="109" y2="108" style="stroke:#ddd;stroke-width:2" />
<line x1="218" y1="1" x2="218" y2="108" style="stroke:#ddd;stroke-width:2" />
<line x1="1" y1="54" x2="326" y2="54" style="stroke:#ddd;stroke-width:2;stroke-dasharray:3 3" />
<line x1="55" y1="1" x2="55" y2="108" style="stroke:#ddd;stroke-width:2;stroke-dasharray:3 3" />
<line x1="164" y1="1" x2="164" y2="108" style="stroke:#ddd;stroke-width:2;stroke-dasharray:3 3" />
<line x1="273" y1="1" x2="273" y2="108" style="stroke:#ddd;stroke-width:2;stroke-dasharray:3 3" />
<path d="M12.07,16.94c6.94,0,52.32,0,57.38,0" style="fill:none;stroke:black;stroke-width:3" />
<circle cx="12.07" cy="16.94" r="5" stroke-width="0" fill="#FF2A00" opacity="0.7" />
<path d="M121.07,16.94c6.94,0,52.32,0,57.38,0" style="fill:none;stroke:#999;stroke-width:3" />
<path d="M178.32,17.25C166.63,31.89,128.27,79.23,118.62,90.8" style="fill:none;stroke:black;stroke-width:3" />
<circle cx="178.32" cy="17.25" r="5" stroke-width="0" fill="#FF2A00" opacity="0.7" />
<path d="M230.07,16.94c6.94,0,52.32,0,57.38,0" style="fill:none;stroke:#999;stroke-width:3" />
<path d="M287.32,17.25C275.63,31.89,237.27,79.23,227.62,90.8" style="fill:none;stroke:#999;stroke-width:3" />
<path d="M228.07,90.79c6.94,0,57.07,0,62.13,0" style="fill:none;stroke:black;stroke-width:3" />
<circle cx="228.07" cy="90.79" r="5" stroke-width="0" fill="#FF2A00" opacity="0.7" />
</svg>